<svg xmlns="http://www.w3.org/2000/svg" height="17.907" width="19.649"><path d="M.112 8.165c-.274-.274-.045-.782.694-1.542.576-.59.95-1.19 1.322-2.11.464-1.151.498-1.345.327-1.864-.105-.318-.264-.58-.352-.58-.088 0-.138-.274-.11-.61C2.051.768 2.4.593 3.041.936c.55.295.778 1.148.656 2.455-.13 1.395-.431 2.111-1.302 3.089-.238.267-.433.554-.433.638 0 .084-.274.378-.608.654-.588.485-1.015.62-1.242.393zm3.646 9.51c0-.127-.038-.332-.086-.455-.047-.123.247-.652.653-1.176.407-.523.74-1.075.74-1.226 0-.15.069-.344.153-.43.213-.214 1.404-2.512 1.561-3.011.07-.225.412-.857.758-1.406.346-.548.63-1.071.63-1.162 0-.09.325-.744.722-1.452.397-.708.806-1.603.907-1.99.101-.388.309-.913.461-1.166l.817-1.373C11.682 1.8 13.023.602 13.88.318c1.22-.404 2.47-.424 3.403-.055.784.31.921.322 1.338.115.566-.283.682-.196.44.333-.14.309-.134.483.025.739.487.78.664 1.804.506 2.922-.214 1.507-.405 1.935-1.17 2.618l-.663.593.12 1.203c.162 1.638.123 3.636-.094 4.687-.142.688-.355 1.065-1.014 1.793-.46.507-1.096 1.06-1.414 1.228-.319.169-.69.4-.824.513-.135.113-.576.253-.98.31-.404.057-1.009.148-1.343.201-.484.078-.77.004-1.388-.356C9.027 16.116 8 14.932 8.239 14.18c.225-.708.943-.567 1.564.305.555.779 2.084 1.839 2.5 1.733 2.494-.629 3.507-1.312 4.01-2.704.491-1.36.61-2.976.272-3.69-.407-.857-.941-1.15-1.691-.927-.333.099-1.283.23-2.112.292-1.592.118-2.003-.002-2.003-.589 0-.49.96-.787 3.158-.976 2.719-.234 3.356-.52 3.947-1.768a4.62 4.62 0 00.453-1.9c.03-.908-.016-1.07-.456-1.598-.27-.323-.736-.71-1.036-.86-.7-.35-1.894-.374-2.27-.045-.157.138-.573.352-.922.475-.883.311-1.959 1.658-2.228 2.789-.113.475-.472 1.305-.798 1.844-.325.538-.73 1.346-.897 1.795-.169.45-.437 1.005-.597 1.234-.16.23-.418.744-.573 1.143-.155.4-.349.812-.43.918-.08.105-.577 1.043-1.102 2.083-.524 1.04-1.181 2.15-1.459 2.467-.277.316-.505.677-.505.802 0 .268-.762.904-1.083.904a.228.228 0 01-.223-.231z"/></svg>