<?xml version="1.0" encoding="UTF-8" standalone="no"?>
<svg
   xmlns:dc="http://purl.org/dc/elements/1.1/"
   xmlns:cc="http://creativecommons.org/ns#"
   xmlns:rdf="http://www.w3.org/1999/02/22-rdf-syntax-ns#"
   xmlns:svg="http://www.w3.org/2000/svg"
   xmlns="http://www.w3.org/2000/svg"
   id="svg2663"
   viewBox="0 0 19.649244 17.907475"
   version="1.1"
   height="17.907475"
   width="19.649244">
  <defs
     id="defs2667" />
  <metadata
     id="metadata2">
    <rdf:RDF>
      <cc:Work
         rdf:about="">
        <dc:format>image/svg+xml</dc:format>
        <dc:type
           rdf:resource="http://purl.org/dc/dcmitype/StillImage" />
        <dc:title />
      </cc:Work>
    </rdf:RDF>
  </metadata>
  <g
     transform="translate(-221.54804,-146.82477)"
     id="g2661">
    <path
       d="m 221.66,154.99 c -0.27425,-0.27425 -0.0454,-0.7824 0.69449,-1.542 0.57531,-0.59064 0.95035,-1.1895 1.3213,-2.1098 0.4643,-1.1518 0.49819,-1.3452 0.32688,-1.8643 -0.10513,-0.31856 -0.26336,-0.57919 -0.35161,-0.57919 -0.0883,0 -0.13767,-0.2749 -0.1098,-0.61089 0.0574,-0.69147 0.40657,-0.86577 1.0474,-0.5228 0.55002,0.29436 0.7783,1.1477 0.6568,2.4552 -0.1296,1.3944 -0.43184,2.1109 -1.3028,3.0884 -0.2378,0.26689 -0.43236,0.55401 -0.43236,0.63805 0,0.084 -0.27388,0.37855 -0.60862,0.65448 -0.58797,0.48464 -1.0149,0.6197 -1.2417,0.39283 z m 3.6463,9.5104 c 0,-0.12734 -0.0387,-0.33239 -0.086,-0.45564 -0.0473,-0.12325 0.24658,-0.65239 0.65306,-1.1759 0.40648,-0.52346 0.73905,-1.0752 0.73905,-1.226 0,-0.15082 0.0692,-0.34403 0.15383,-0.42933 0.21288,-0.21463 1.404,-2.5131 1.561,-3.0122 0.0706,-0.22449 0.41163,-0.85692 0.7578,-1.4054 0.34619,-0.54848 0.62942,-1.0715 0.62942,-1.1623 0,-0.0908 0.32516,-0.74408 0.7226,-1.4517 0.39742,-0.70767 0.80558,-1.6035 0.90702,-1.9908 0.10143,-0.38729 0.30891,-0.91187 0.46107,-1.1657 0.15217,-0.25386 0.51963,-0.87162 0.81658,-1.3728 0.60836,-1.0267 1.9493,-2.2257 2.807,-2.5098 1.2198,-0.40405 2.4704,-0.42412 3.4038,-0.0546 0.78369,0.31023 0.92075,0.32193 1.3371,0.11422 0.56686,-0.28279 0.68203,-0.19565 0.4409,0.33356 -0.14062,0.30864 -0.13479,0.48286 0.0247,0.73827 0.48686,0.77959 0.66411,1.8041 0.50555,2.9222 -0.21383,1.5076 -0.40477,1.9351 -1.1693,2.6182 l -0.66346,0.59273 0.11956,1.2032 c 0.16284,1.6386 0.12304,3.6359 -0.0934,4.6869 -0.14173,0.6882 -0.35507,1.0654 -1.0144,1.7935 -0.45923,0.50709 -1.0955,1.0597 -1.414,1.228 -0.31849,0.16829 -0.68928,0.39882 -0.82397,0.51231 -0.1347,0.11348 -0.57551,0.25316 -0.97959,0.31038 -0.40409,0.0572 -1.0087,0.1479 -1.3436,0.20149 -0.48367,0.0774 -0.76911,0.004 -1.3878,-0.35631 -1.796,-1.0464 -2.822,-2.2309 -2.5834,-2.9826 0.22444,-0.70717 0.94281,-0.56683 1.564,0.30554 0.55455,0.77878 2.0833,1.8385 2.5004,1.7332 2.4934,-0.62924 3.5059,-1.3122 4.0086,-2.7038 0.49158,-1.3609 0.61098,-2.9767 0.27264,-3.6897 -0.40682,-0.85732 -0.94119,-1.1505 -1.6913,-0.92786 -0.33267,0.0987 -1.2827,0.22998 -2.1113,0.29166 -1.5929,0.11859 -2.0038,-0.002 -2.0038,-0.58858 0,-0.48993 0.96045,-0.78675 3.1582,-0.976 2.7189,-0.23414 3.3558,-0.51939 3.9468,-1.7676 0.28883,-0.61005 0.4311,-1.2056 0.4538,-1.8996 0.0297,-0.90844 -0.0166,-1.0706 -0.45675,-1.5988 -0.26939,-0.32327 -0.73551,-0.71057 -1.0359,-0.86067 -0.70057,-0.35014 -1.8936,-0.37324 -2.2697,-0.044 -0.15747,0.13787 -0.57261,0.35154 -0.9225,0.47483 -0.88222,0.31085 -1.9582,1.6577 -2.2277,2.7885 -0.1133,0.47535 -0.47232,1.3051 -0.79784,1.8439 -0.32552,0.53877 -0.72939,1.3469 -0.8975,1.7959 -0.1681,0.44898 -0.43661,1.0042 -0.59666,1.2339 -0.16006,0.22967 -0.41791,0.74395 -0.57299,1.1429 -0.1551,0.3989 -0.34839,0.81178 -0.42957,0.91751 -0.0812,0.10572 -0.57703,1.0434 -1.1019,2.0837 -0.52489,1.0403 -1.1816,2.1502 -1.4592,2.4665 -0.27768,0.31627 -0.50488,0.67735 -0.50488,0.80239 0,0.26797 -0.76219,0.90414 -1.0832,0.90414 -0.12258,0 -0.22287,-0.1042 -0.22287,-0.23155 z"
       id="ability" />
  </g>
</svg>
