<?xml version="1.0" encoding="UTF-8" standalone="no"?>
<svg
   xmlns:dc="http://purl.org/dc/elements/1.1/"
   xmlns:cc="http://creativecommons.org/ns#"
   xmlns:rdf="http://www.w3.org/1999/02/22-rdf-syntax-ns#"
   xmlns:svg="http://www.w3.org/2000/svg"
   xmlns="http://www.w3.org/2000/svg"
   id="svg2663"
   viewBox="0 0 21.164291 18.832933"
   version="1.1"
   height="18.832933"
   width="21.164291">
  <defs
     id="defs2667" />
  <metadata
     id="metadata2">
    <rdf:RDF>
      <cc:Work
         rdf:about="">
        <dc:format>image/svg+xml</dc:format>
        <dc:type
           rdf:resource="http://purl.org/dc/dcmitype/StillImage" />
        <dc:title />
      </cc:Work>
    </rdf:RDF>
  </metadata>
  <g
     transform="translate(-221.88,-169.64379)"
     id="g2661">
    <g
       style="stroke-width:0.16327"
       id="g2557">
      <path
         d="m 221.88,178.88 c 0,-0.407 0.46942,-1.1473 0.89386,-1.4096 0.36948,-0.22836 0.72359,-0.70746 1.1284,-1.5268 0.63806,-1.2913 0.73058,-2.039 0.34405,-2.7801 -0.31507,-0.60413 -0.30983,-1.0231 0.0144,-1.1475 0.48793,-0.18725 0.80356,-0.088 1.1295,0.355 0.45225,0.61475 0.41006,2.6637 -0.0744,3.6133 -0.18358,0.35984 -0.33376,0.73153 -0.33376,0.826 0,0.0944 -0.43586,0.61167 -0.96856,1.1494 -0.82326,0.83097 -1.0559,0.97762 -1.551,0.97762 -0.32036,0 -0.58246,-0.0258 -0.58246,-0.0573 z m 17.68,-1.5345 c 0.31056,-0.42653 0.61355,-0.93419 0.67329,-1.1281 0.0597,-0.19393 0.21597,-0.4417 0.34718,-0.5506 0.13122,-0.10891 0.23858,-0.39308 0.23858,-0.63148 0,-0.23841 0.11414,-0.59644 0.25365,-0.79561 0.30274,-0.43222 0.72594,-1.9813 0.72594,-2.6573 0,-0.39877 -0.067,-0.48183 -0.38899,-0.48183 -0.39794,0 -0.45179,0.0857 -1.5394,2.449 -0.18596,0.40408 -0.38929,0.9551 -0.45183,1.2245 -0.0625,0.26939 -0.16916,0.56327 -0.23692,0.65306 -0.14101,0.18691 -0.64811,2.1134 -0.64811,2.4622 0,0.46495 0.47557,0.21305 1.0267,-0.5438 z m -3.605,11.082 c -0.091,-0.0563 -0.36274,-0.54324 -0.60388,-1.082 -0.37613,-0.84039 -0.42843,-1.142 -0.36794,-2.1224 0.044,-0.71311 0.20296,-1.4155 0.42274,-1.8678 0.51935,-1.0688 0.38593,-1.1192 -2.0047,-0.75641 -1.57,0.23825 -1.7691,0.37055 -2.0413,1.3563 -0.18591,0.67331 -1.7199,2.7695 -2.1195,2.8964 -0.16181,0.0514 -0.52665,0.34882 -0.81074,0.66103 -0.41911,0.46057 -0.63533,0.56767 -1.146,0.56767 -0.5473,0 -0.70743,-0.0952 -1.2272,-0.72951 -0.97205,-1.1863 -1.0111,-1.4609 -0.49455,-3.4762 0.24722,-0.96443 0.55098,-1.9566 0.67502,-2.2048 0.12404,-0.24825 0.32572,-0.98294 0.44817,-1.6326 0.12245,-0.64973 0.52408,-2.0515 0.89254,-3.115 0.36845,-1.0635 0.66992,-2.1061 0.66992,-2.3169 0,-0.21075 0.0735,-0.42862 0.16327,-0.48411 0.0898,-0.0555 0.16326,-0.21806 0.16326,-0.36122 0,-0.35604 0.74717,-1.9088 1.0324,-2.1455 0.18159,-0.15071 0.3131,-0.12601 0.61029,0.11464 l 0.37882,0.30676 -0.3577,0.93473 c -0.19673,0.51409 -0.35769,1.0392 -0.35769,1.1669 0,0.12767 -0.14041,0.54359 -0.312,0.92425 -0.17161,0.38065 -0.35857,0.96742 -0.41548,1.3039 -0.0569,0.33651 -0.28315,0.99773 -0.50274,1.4694 -0.21958,0.47166 -0.39865,1.0045 -0.39793,1.1841 0,0.17959 -0.2186,1.0245 -0.48738,1.8776 -0.6759,2.1451 -1.1532,4.4034 -1.0428,4.9338 0.34663,1.6649 2.3615,0.32537 3.3618,-2.2351 0.24662,-0.63125 0.44866,-1.2098 0.44898,-1.2858 0,-0.0759 0.1556,-0.35572 0.34503,-0.62176 0.32634,-0.4583 0.38848,-0.4783 1.1837,-0.38085 0.46158,0.0566 1.3535,0.0206 1.9821,-0.08 1.4317,-0.22901 2.2931,-0.75805 2.4533,-1.5067 0.0633,-0.29587 0.17571,-0.61372 0.24984,-0.70634 0.177,-0.22112 0.97037,-2.9644 0.97037,-3.3552 0,-0.16689 0.18916,-0.72806 0.42034,-1.247 0.2312,-0.51899 0.53235,-1.2008 0.66923,-1.515 0.55383,-1.2717 0.89309,-1.8976 1.2409,-2.2894 0.91669,-1.0328 1.7299,-1.2349 2.4482,-0.60852 0.63639,0.55496 0.70764,1.3415 0.27331,3.0174 -0.49119,1.8953 -2.3511,5.7325 -2.8752,5.9318 -0.20947,0.0796 -0.38085,0.21754 -0.38085,0.30643 0,0.29571 -0.97732,1.2799 -1.3685,1.378 -0.39086,0.0981 -0.6937,0.65729 -1.3368,2.4684 -0.3344,0.94175 -0.42267,3.4876 -0.13357,3.8525 0.25192,0.31797 0.39974,1.0125 0.26062,1.2244 -0.14829,0.22596 -0.76452,0.38323 -0.97966,0.25002 z"
         id="able" />
    </g>
  </g>
</svg>
