<svg xmlns="http://www.w3.org/2000/svg" height="18.833" width="21.164"><path d="M0 9.236c0-.407.47-1.147.894-1.41.37-.228.723-.707 1.128-1.526.638-1.291.73-2.04.344-2.78-.315-.604-.31-1.023.015-1.148.488-.187.803-.088 1.13.355.451.615.41 2.664-.075 3.614-.184.36-.334.731-.334.826 0 .094-.436.611-.969 1.149-.823.83-1.055.978-1.55.978-.32 0-.583-.026-.583-.058zm17.68-1.534c.31-.427.614-.934.673-1.128.06-.194.216-.442.347-.551.132-.109.24-.393.24-.631 0-.239.113-.597.253-.796.302-.432.726-1.981.726-2.657 0-.4-.067-.482-.39-.482-.397 0-.451.085-1.539 2.449-.186.404-.389.955-.452 1.224-.062.27-.169.564-.236.653-.142.187-.649 2.114-.649 2.463 0 .465.476.213 1.027-.544zm-3.605 11.082c-.091-.057-.363-.544-.604-1.082-.376-.84-.428-1.142-.368-2.123.044-.713.203-1.415.423-1.867.52-1.07.386-1.12-2.005-.757-1.57.238-1.769.37-2.041 1.356-.186.674-1.72 2.77-2.12 2.897-.161.051-.526.349-.81.66-.42.461-.636.569-1.146.569-.548 0-.708-.096-1.228-.73-.972-1.186-1.01-1.46-.494-3.476.247-.965.55-1.957.675-2.205.124-.248.326-.983.448-1.633.123-.65.524-2.051.893-3.115.368-1.063.67-2.106.67-2.317 0-.21.073-.428.163-.484.09-.055.163-.218.163-.36 0-.357.747-1.91 1.033-2.146.181-.151.313-.126.61.114l.379.307-.358.935C8.16 3.84 8 4.366 8 4.494c0 .127-.14.543-.312.924-.171.38-.358.967-.415 1.304-.057.336-.283.998-.503 1.47-.22.47-.399 1.004-.398 1.183 0 .18-.219 1.025-.487 1.878-.676 2.145-1.154 4.403-1.043 4.934.347 1.665 2.361.325 3.362-2.235.246-.632.448-1.21.449-1.286 0-.076.155-.356.345-.622.326-.458.388-.478 1.183-.38.462.056 1.354.02 1.983-.08 1.431-.23 2.293-.759 2.453-1.507.063-.296.176-.614.25-.707.177-.22.97-2.964.97-3.355 0-.167.19-.728.42-1.247.232-.519.533-1.2.67-1.515.553-1.272.893-1.898 1.24-2.29.917-1.032 1.73-1.234 2.449-.608.636.555.707 1.342.273 3.017-.491 1.896-2.351 5.733-2.875 5.932-.21.08-.381.218-.381.307 0 .295-.977 1.28-1.369 1.378-.39.098-.693.657-1.336 2.468-.335.942-.423 3.488-.134 3.853.252.318.4 1.012.26 1.224-.148.226-.764.383-.979.25z"/></svg>