<?xml version="1.0" encoding="UTF-8" standalone="no"?>
<svg
   xmlns:dc="http://purl.org/dc/elements/1.1/"
   xmlns:cc="http://creativecommons.org/ns#"
   xmlns:rdf="http://www.w3.org/1999/02/22-rdf-syntax-ns#"
   xmlns:svg="http://www.w3.org/2000/svg"
   xmlns="http://www.w3.org/2000/svg"
   id="svg2663"
   viewBox="0 0 19.611095 17.342541"
   version="1.1"
   height="17.342541"
   width="19.611095">
  <defs
     id="defs2667" />
  <metadata
     id="metadata2">
    <rdf:RDF>
      <cc:Work
         rdf:about="">
        <dc:format>image/svg+xml</dc:format>
        <dc:type
           rdf:resource="http://purl.org/dc/dcmitype/StillImage" />
        <dc:title />
      </cc:Work>
    </rdf:RDF>
  </metadata>
  <g
     transform="translate(-221.89708,-196.04756)"
     id="g2661">
    <g
       style="stroke-width:0.16327"
       id="g2557">
      <path
         d="m 222.24,203.34 c -0.4584,-0.32107 -0.45738,-0.57005 0.004,-1.0963 0.20204,-0.23019 0.53391,-0.6159 0.73747,-0.85716 0.21029,-0.24921 0.52173,-1.0431 0.72116,-1.8382 0.33172,-1.3227 0.33607,-1.4256 0.0788,-1.8738 -0.14968,-0.26083 -0.27216,-0.7336 -0.27216,-1.0506 v -0.57638 l 0.61224,0.11437 c 0.33674,0.0629 0.61826,0.12617 0.6256,0.14062 0.007,0.0144 0.18128,0.44893 0.38652,0.96552 l 0.37314,0.93928 -0.34284,1.3336 c -0.18856,0.73345 -0.5175,1.5965 -0.73099,1.9179 -0.21347,0.32137 -0.55193,0.86075 -0.75213,1.1986 -0.30184,0.50944 -0.76824,0.93672 -1.0224,0.93672 -0.0308,0 -0.21931,-0.11437 -0.41889,-0.25416 z m 15.652,8.5794 c 0.53813,-0.14949 1.3693,-0.90596 2.0268,-1.8446 0.39356,-0.56191 0.31147,-1.848 -0.17045,-2.6704 -0.37481,-0.63958 -0.47555,-0.70823 -1.0392,-0.70823 -0.80998,0 -1.2721,0.37543 -2.2048,1.7912 -0.6695,1.0162 -0.74911,1.236 -0.74911,2.0683 0,1.4417 0.56289,1.801 2.1368,1.3638 z m -2.7918,0.83529 c -0.47161,-0.49575 -0.62534,-0.80961 -0.6997,-1.4286 -0.13847,-1.1524 0.0809,-2.1771 0.67182,-3.1374 0.28576,-0.46442 0.51957,-0.95209 0.51957,-1.0837 0,-0.34724 -0.68289,-0.46605 -2.0741,-0.36082 -1.3594,0.10281 -1.7358,0.32366 -2.1266,1.2478 -0.13051,0.30858 -0.41425,0.79307 -0.63053,1.0766 -0.21629,0.28358 -0.39331,0.61886 -0.39336,0.74508 0,0.40444 -1.4777,2.1273 -2.0132,2.3476 -1.4336,0.58958 -2.556,0.41293 -3.1516,-0.49605 -0.22279,-0.34002 -0.25129,-0.66041 -0.1632,-1.8333 0.10077,-1.3414 0.25545,-2.0252 1.1709,-5.1764 0.20868,-0.71836 0.46292,-1.6735 0.56498,-2.1224 0.10205,-0.44898 0.33244,-1.4041 0.51196,-2.1224 0.17951,-0.71836 0.38924,-1.5633 0.46606,-1.8776 0.33127,-1.3555 0.611,-1.8762 1.0358,-1.9281 0.64044,-0.0784 0.84281,0.44906 0.53945,1.406 -0.22714,0.71649 -0.82736,3.1419 -1.2403,5.0119 -0.0991,0.44898 -0.28253,1.0367 -0.40751,1.3061 -0.7498,1.6162 -1.4147,6.3266 -0.95791,6.7866 0.50248,0.50614 1.9234,-0.57117 2.6223,-1.9882 0.19447,-0.39427 0.55298,-1.2927 0.79667,-1.9965 0.31197,-0.90095 0.54379,-1.3174 0.78335,-1.4072 0.50303,-0.18855 2.4081,-0.32508 5.8593,-0.41992 l 3.0701,-0.0844 0.48095,0.48096 c 0.26454,0.26452 0.48096,0.60384 0.48096,0.75402 0,0.15019 0.13577,0.46809 0.3017,0.70644 0.47419,0.68112 0.5009,1.0634 0.16248,2.3252 -0.41611,1.5515 -0.47126,1.6398 -1.6234,2.5986 -1.2243,1.0188 -1.8939,1.3055 -3.0493,1.3055 -0.83725,0 -0.94748,-0.0464 -1.5077,-0.63537 z"
         id="about" />
    </g>
  </g>
</svg>
