<svg xmlns="http://www.w3.org/2000/svg" height="17.343" width="19.611"><path d="M.343 7.292c-.458-.32-.457-.57.004-1.096.202-.23.534-.616.737-.857.21-.25.522-1.043.722-1.838.331-1.323.336-1.426.078-1.874a2.499 2.499 0 01-.272-1.05V0l.612.114c.337.063.619.127.626.141.007.014.181.449.387.966l.373.939-.343 1.333c-.189.734-.518 1.597-.731 1.918-.214.322-.552.861-.752 1.199-.302.51-.769.937-1.023.937-.03 0-.219-.115-.419-.255zm15.652 8.58c.538-.15 1.37-.906 2.027-1.845.393-.562.311-1.848-.17-2.67-.376-.64-.476-.708-1.04-.708-.81 0-1.272.375-2.205 1.79-.67 1.017-.749 1.237-.749 2.07 0 1.44.563 1.8 2.137 1.363zm-2.792.835c-.471-.496-.625-.81-.7-1.428-.138-1.153.081-2.178.672-3.138.286-.464.52-.952.52-1.084 0-.347-.683-.466-2.074-.36-1.36.102-1.736.323-2.127 1.247a5.99 5.99 0 01-.63 1.077c-.217.284-.394.619-.394.745 0 .405-1.477 2.127-2.013 2.348-1.434.59-2.556.413-3.152-.496-.222-.34-.25-.66-.163-1.834.101-1.341.256-2.025 1.171-5.176.209-.718.463-1.674.565-2.122.102-.45.333-1.405.512-2.123.18-.718.39-1.563.466-1.877C6.187 1.13 6.467.609 6.892.557c.64-.078.843.45.54 1.406-.228.717-.828 3.142-1.24 5.012-.1.45-.283 1.037-.408 1.306-.75 1.617-1.415 6.327-.958 6.787.502.506 1.923-.571 2.622-1.988.194-.394.553-1.293.797-1.997.312-.9.543-1.317.783-1.407.503-.188 2.408-.325 5.86-.42l3.07-.084.48.48c.265.265.481.605.481.755 0 .15.136.468.302.706.474.681.5 1.064.162 2.325-.416 1.552-.47 1.64-1.623 2.599-1.224 1.019-1.894 1.306-3.05 1.306-.836 0-.947-.047-1.507-.636z"/></svg>