<?xml version="1.0" encoding="UTF-8" standalone="no"?>
<svg
   xmlns:dc="http://purl.org/dc/elements/1.1/"
   xmlns:cc="http://creativecommons.org/ns#"
   xmlns:rdf="http://www.w3.org/1999/02/22-rdf-syntax-ns#"
   xmlns:svg="http://www.w3.org/2000/svg"
   xmlns="http://www.w3.org/2000/svg"
   id="svg2663"
   viewBox="0 0 21.904319 19.74118"
   version="1.1"
   height="19.74118"
   width="21.90432">
  <defs
     id="defs2667" />
  <metadata
     id="metadata2">
    <rdf:RDF>
      <cc:Work
         rdf:about="">
        <dc:format>image/svg+xml</dc:format>
        <dc:type
           rdf:resource="http://purl.org/dc/dcmitype/StillImage" />
        <dc:title />
      </cc:Work>
    </rdf:RDF>
  </metadata>
  <g
     transform="translate(-221.23873,-221.06608)"
     id="g2661">
    <g
       style="stroke-width:0.16327"
       id="g2557">
      <path
         d="m 221.51,228.99 c -0.37783,-0.27629 -0.35869,-0.78718 0.0431,-1.1508 0.17959,-0.16253 0.32653,-0.37759 0.32653,-0.4779 0,-0.10032 0.21,-0.43791 0.46667,-0.75022 0.83953,-1.0214 1.2293,-1.9584 1.236,-2.9709 0.005,-0.72087 -0.0619,-0.98351 -0.29232,-1.152 -0.35759,-0.26147 -0.30777,-0.90654 0.0892,-1.1553 0.37892,-0.23747 1.0477,0.13846 1.36,0.76447 0.14271,0.28607 0.24244,0.94087 0.24244,1.5919 0,0.95719 -0.0795,1.2557 -0.59146,2.2198 -0.85956,1.6188 -0.91543,1.7059 -1.5365,2.3939 -0.73311,0.81213 -0.99187,0.94446 -1.3438,0.68717 z m 3.8945,7.4166 c -0.39202,-0.36133 -0.75358,-0.85725 -0.80348,-1.102 -0.13851,-0.67943 0.52862,-5.0461 0.87865,-5.7512 0.62885,-1.2667 1.1286,-3.061 1.1366,-4.0816 0.003,-0.40408 0.0805,-1.0286 0.1719,-1.3878 0.0913,-0.35918 0.2307,-1.1227 0.30968,-1.6966 0.14288,-1.0382 0.3235,-1.3165 0.85765,-1.3213 0.48882,-0.004 0.67896,0.6026 0.48052,1.534 -0.0974,0.45699 -0.2173,1.479 -0.26653,2.2712 -0.0492,0.79215 -0.19018,1.637 -0.31324,1.8776 -0.12305,0.2405 -0.27613,0.7679 -0.34018,1.172 -0.064,0.40408 -0.25916,0.98237 -0.43361,1.2851 -0.17445,0.30271 -0.39618,1.1476 -0.49272,1.8776 -0.0965,0.72996 -0.27744,1.5749 -0.40201,1.8777 -0.3007,0.73097 -0.28743,1.8204 0.0277,2.2703 0.18569,0.2651 0.41884,0.36286 0.86536,0.36286 1.2685,0 3.2822,-2.6604 3.6351,-4.8026 0.0727,-0.44144 0.1959,-0.86627 0.27373,-0.9441 0.0778,-0.0778 1.441,-0.16162 3.0292,-0.18622 3.6042,-0.0558 3.5348,-0.10637 3.6207,2.6394 0.0262,0.83754 0.099,1.5722 0.16172,1.6327 0.13624,0.13116 1.9586,-1.821 2.2979,-2.4616 0.13081,-0.24694 0.30539,-0.44898 0.38798,-0.44898 0.0826,0 0.24601,-0.19868 0.36315,-0.44152 0.29653,-0.61466 1.5344,-1.5318 1.8904,-1.4005 0.67151,0.24761 0.51479,0.79508 -0.56258,1.9654 -0.34379,0.37344 -0.95568,1.0965 -1.3598,1.6068 -0.90331,1.1408 -3.2477,3.6202 -3.6208,3.8294 -0.15063,0.0845 -0.37946,0.11302 -0.50849,0.0635 -0.4681,-0.17963 -0.60537,-0.90111 -0.60537,-3.1818 v -2.278 h -3.8944 l -0.42014,0.91768 c -0.23106,0.50473 -0.42013,1.0134 -0.42013,1.1304 0,0.11698 -0.25231,0.54321 -0.5607,0.94721 -0.30837,0.404 -0.6776,0.96066 -0.8205,1.237 -0.14291,0.27634 -0.35199,0.50245 -0.46461,0.50245 -0.11263,0 -0.44733,0.25714 -0.74377,0.57143 -0.50758,0.53814 -0.60026,0.57143 -1.5906,0.57143 -1.001,0 -1.0859,-0.0316 -1.7644,-0.65702 z m 9.354,4.3038 c -0.1452,-0.0388 -0.46204,-0.43434 -0.70408,-0.87902 -0.24202,-0.4447 -0.50096,-0.80854 -0.57539,-0.80854 -0.0745,0 -0.24567,-0.27551 -0.38051,-0.61224 -0.13482,-0.33674 -0.39718,-0.7497 -0.583,-0.9177 -0.18583,-0.168 -0.42133,-0.55832 -0.52332,-0.86738 -0.15724,-0.47644 -0.14191,-0.61004 0.10079,-0.87822 0.53079,-0.58652 1.0362,-0.34317 1.5999,0.77028 0.14343,0.28333 0.35884,0.61395 0.47867,0.7347 0.11984,0.12075 0.39173,0.56852 0.60418,0.99505 0.21245,0.42653 0.44484,0.77551 0.51641,0.77551 0.18482,0 0.62831,0.90276 0.62831,1.279 0,0.26656 -0.48806,0.56297 -0.81632,0.49577 -0.0449,-0.009 -0.20044,-0.0484 -0.34564,-0.0872 z"
         id="above" />
    </g>
  </g>
</svg>
