<svg xmlns="http://www.w3.org/2000/svg" height="19.741" width="21.904"><path d="M.271 7.924c-.378-.276-.358-.787.043-1.15.18-.163.327-.378.327-.479 0-.1.21-.438.467-.75.84-1.021 1.229-1.958 1.236-2.97.005-.722-.062-.984-.293-1.153-.357-.261-.308-.906.09-1.155.378-.238 1.047.138 1.36.764.142.286.242.941.242 1.592 0 .957-.08 1.256-.592 2.22-.86 1.619-.915 1.706-1.536 2.394-.733.812-.992.944-1.344.687zm3.895 7.417c-.392-.362-.754-.858-.804-1.102-.138-.68.529-5.047.879-5.752.629-1.266 1.129-3.06 1.137-4.081.003-.404.08-1.029.171-1.388.092-.36.231-1.123.31-1.697C6.002.283 6.183.005 6.717 0c.489-.004.679.603.48 1.534-.097.457-.217 1.479-.266 2.271-.05.792-.19 1.637-.313 1.878-.124.24-.277.768-.34 1.172-.065.404-.26.982-.434 1.285-.175.303-.396 1.148-.493 1.878-.096.73-.277 1.574-.402 1.877-.3.731-.287 1.82.028 2.27.185.266.419.363.865.363 1.269 0 3.282-2.66 3.635-4.802.073-.442.196-.866.274-.944.078-.078 1.44-.162 3.03-.187 3.603-.055 3.534-.106 3.62 2.64.026.837.099 1.572.162 1.633.136.13 1.958-1.821 2.297-2.462.131-.247.306-.449.388-.449.083 0 .246-.199.364-.442.296-.614 1.534-1.531 1.89-1.4.671.248.515.795-.563 1.965a34.784 34.784 0 00-1.36 1.607c-.903 1.141-3.247 3.62-3.62 3.83-.15.084-.38.113-.509.063-.468-.18-.605-.901-.605-3.182V10.12H10.95l-.42.918c-.23.505-.42 1.013-.42 1.13 0 .117-.252.544-.56.948-.309.404-.678.96-.821 1.237-.143.276-.352.502-.465.502-.112 0-.447.257-.743.571-.508.539-.6.572-1.591.572-1.001 0-1.086-.032-1.764-.657zm9.354 4.303c-.145-.038-.462-.434-.704-.879-.242-.444-.501-.808-.576-.808-.074 0-.245-.276-.38-.612-.135-.337-.397-.75-.583-.918-.186-.168-.422-.558-.524-.868-.157-.476-.141-.61.101-.878.531-.586 1.036-.343 1.6.77.144.284.359.614.479.735s.392.569.604.995c.212.427.445.776.516.776.185 0 .629.903.629 1.279 0 .266-.488.563-.817.496a9.248 9.248 0 01-.345-.088z" stroke-width=".163"/></svg>