<?xml version="1.0" encoding="UTF-8" standalone="no"?>
<svg
   xmlns:dc="http://purl.org/dc/elements/1.1/"
   xmlns:cc="http://creativecommons.org/ns#"
   xmlns:rdf="http://www.w3.org/1999/02/22-rdf-syntax-ns#"
   xmlns:svg="http://www.w3.org/2000/svg"
   xmlns="http://www.w3.org/2000/svg"
   id="svg2663"
   viewBox="0 0 33.702495 24.152039"
   version="1.1"
   height="24.152039"
   width="33.702496">
  <defs
     id="defs2667" />
  <metadata
     id="metadata2">
    <rdf:RDF>
      <cc:Work
         rdf:about="">
        <dc:format>image/svg+xml</dc:format>
        <dc:type
           rdf:resource="http://purl.org/dc/dcmitype/StillImage" />
        <dc:title />
      </cc:Work>
    </rdf:RDF>
  </metadata>
  <g
     transform="translate(-220.89527,-243.75227)"
     id="g2661">
    <g
       style="stroke-width:0.16327"
       id="g2557">
      <path
         d="m 221.01,251.48 c -0.25028,-0.25029 -0.0767,-0.89597 0.38095,-1.4172 0.26939,-0.30683 0.4898,-0.64703 0.4898,-0.75599 0,-0.10898 0.13379,-0.39316 0.29732,-0.63151 0.83453,-1.2164 1.0743,-2.8666 0.519,-3.5725 -0.39352,-0.50028 -0.40976,-0.75432 -0.07,-1.0941 0.48416,-0.48415 0.81627,-0.30258 1.3796,0.75425 0.53222,0.99855 0.53632,1.0228 0.33745,2 -0.11073,0.54407 -0.34292,1.2322 -0.51602,1.5291 -0.17307,0.29697 -0.31469,0.66507 -0.31469,0.818 0,0.15293 -0.16606,0.46096 -0.36903,0.68454 -0.20295,0.22357 -0.61322,0.71874 -0.91167,1.1004 -0.49976,0.63904 -0.95222,0.85553 -1.2227,0.58503 z m 25.016,7.5683 c 0.71521,-0.30071 2.4735,-1.8918 2.7396,-2.4792 0.12222,-0.26974 0.2911,-0.60065 0.3753,-0.73534 0.37807,-0.60485 0.67744,-1.4698 0.56929,-1.6447 -0.177,-0.2864 -2.094,-0.0457 -2.7315,0.34297 -0.2895,0.17651 -0.64622,0.32121 -0.7927,0.32155 -0.3526,0 -1.0101,0.88247 -1.523,2.0422 -0.44699,1.0107 -0.53231,1.8571 -0.21881,2.1706 0.25693,0.25693 0.94642,0.24903 1.5818,-0.0182 z m 3.2563,1.2345 c -0.22813,-0.24694 -0.45999,-0.57755 -0.51522,-0.7347 -0.15559,-0.44258 -0.71918,-0.33415 -1.5801,0.30399 -0.41693,0.30902 -1.823,0.71642 -2.4726,0.71642 -0.49032,0 -0.73811,-0.11957 -1.1954,-0.57686 -0.5036,-0.5036 -0.57687,-0.67867 -0.57687,-1.3781 0,-0.44068 -0.0733,-0.84654 -0.16286,-0.90189 -0.13596,-0.084 -0.72986,0.38999 -1.8766,1.4978 -0.10929,0.10557 -0.46912,0.30493 -0.79964,0.44304 -0.33051,0.1381 -0.71383,0.36397 -0.85179,0.50192 -0.29031,0.29032 -1.2415,0.33132 -1.7219,0.0742 -0.66329,-0.35497 -1.2714,-1.1923 -1.2764,-1.7574 -0.008,-0.85643 0.43686,-2.1658 1.0644,-3.1364 0.61255,-0.9474 0.81964,-1.5042 0.65719,-1.767 -0.14565,-0.23566 -1.0729,-0.67269 -1.4272,-0.67269 -0.38673,0 -0.7739,0.2227 -2.058,1.1837 -0.80212,0.60028 -1.1734,0.77551 -1.6432,0.77551 -0.856,0 -1.2168,0.31968 -1.6711,1.4804 -0.21796,0.55696 -0.59834,1.2309 -0.84527,1.4977 -0.24694,0.26674 -0.44898,0.53628 -0.44898,0.59897 0,0.18661 -1.0611,1.1576 -1.265,1.1576 -0.10351,0 -0.25208,0.11414 -0.33015,0.25366 -0.0893,0.15955 -0.47295,0.28781 -1.0341,0.34573 -0.71677,0.074 -1.019,0.0241 -1.5372,-0.25366 -0.35477,-0.19016 -0.7263,-0.34573 -0.82561,-0.34573 -0.0993,0 -0.38453,-0.37478 -0.63385,-0.83285 -0.56153,-1.0317 -0.52036,-1.8066 0.19001,-3.5753 0.27048,-0.67347 0.54462,-1.5918 0.60921,-2.0408 0.0646,-0.44898 0.21949,-0.97536 0.34424,-1.1698 0.12475,-0.1944 0.30621,-0.85562 0.40324,-1.4694 0.097,-0.61378 0.28511,-1.4833 0.41799,-1.9323 0.13288,-0.449 0.30744,-1.4481 0.38793,-2.2203 0.0805,-0.7722 0.25839,-1.6722 0.39535,-2 0.2094,-0.50116 0.32828,-0.59599 0.74715,-0.59599 0.42841,0 0.50168,0.0628 0.52351,0.44898 0.0558,0.98722 -0.23797,2.5546 -1.1766,6.2767 -0.2648,1.0501 -0.48147,2.0927 -0.48147,2.3169 0,0.2242 -0.0671,0.44903 -0.14906,0.49969 -0.082,0.0507 -0.20078,0.40398 -0.26402,0.78514 -0.0632,0.38118 -0.29004,1.161 -0.504,1.7329 -0.53022,1.4172 -0.50321,1.7527 0.19401,2.4102 0.61035,0.57564 1.2643,0.70864 1.8756,0.38145 0.50574,-0.27066 1.5942,-1.5034 1.7974,-2.0356 0.27287,-0.71456 0.70812,-1.6201 0.82397,-1.7143 0.0553,-0.0449 0.15011,-0.24088 0.21081,-0.43551 0.20947,-0.67162 0.7575,-1.2168 1.1106,-1.1047 0.18028,0.0572 0.71024,0.0562 1.1777,-0.002 0.70006,-0.0875 1.0351,-0.25584 1.9007,-0.9552 0.57796,-0.46695 1.1096,-0.94093 1.1814,-1.0533 0.19435,-0.30407 1.0047,-0.24691 1.3119,0.0925 0.14772,0.16323 0.6183,0.46165 1.0457,0.66315 0.4274,0.2015 0.88733,0.42434 1.022,0.4952 0.32529,0.1711 0.40079,1.0706 0.14327,1.7071 -0.19758,0.48836 -0.37749,0.79103 -1.133,1.906 -0.48397,0.71431 -0.76936,2.1745 -0.49063,2.5104 0.31614,0.38093 0.77716,0.31693 1.6688,-0.23171 0.43781,-0.26938 0.83459,-0.48979 0.88174,-0.48979 0.0884,0 0.95351,-0.80216 2.1378,-1.9823 0.37257,-0.37128 1.0028,-0.90367 1.4004,-1.1831 0.39768,-0.27943 1.0406,-0.74683 1.4287,-1.0387 0.38813,-0.29184 0.85996,-0.53168 1.0485,-0.533 0.18857,-0.002 0.67347,-0.12194 1.0776,-0.26808 0.40408,-0.14616 1.2857,-0.2794 1.9592,-0.2961 l 1.2245,-0.0304 0.5392,-1.4566 c 0.29656,-0.80115 0.60572,-1.6658 0.68702,-1.9214 0.0813,-0.2556 0.21888,-0.55042 0.3057,-0.65505 0.0868,-0.10462 0.3136,-0.60642 0.50392,-1.1151 0.62369,-1.667 1.0499,-2.3365 1.4875,-2.3365 0.35562,0 0.39283,0.0651 0.37324,0.65306 -0.0236,0.70611 -0.65341,3.0042 -0.89274,3.2572 -0.0807,0.0853 -0.14672,0.26755 -0.14672,0.40501 0,0.23456 -0.4116,1.3824 -0.92523,2.5804 -0.12455,0.29053 -0.34362,0.80481 -0.48681,1.1428 -0.14318,0.33805 -0.46945,1.0554 -0.72504,1.5942 -1.1712,2.4689 -1.4139,3.9533 -0.78547,4.8034 0.73536,0.99465 -0.49048,1.6367 -1.3495,0.70686 z m -10.258,7.3881 c -0.16658,-0.20072 -0.12139,-0.35427 0.25225,-0.85714 0.25036,-0.33695 0.62555,-0.75958 0.83377,-0.93917 0.40658,-0.35067 0.76048,-1.2191 0.9472,-2.3244 0.0921,-0.54529 0.0405,-0.83874 -0.2496,-1.4197 -0.30223,-0.60519 -0.32946,-0.77598 -0.15688,-0.98393 0.25951,-0.31271 0.49618,-0.31654 1.0727,-0.0174 0.65818,0.34147 0.72354,0.52297 0.7263,2.0172 0.002,1.3458 -0.33024,2.4205 -0.89496,2.8909 -0.10818,0.0901 -0.40003,0.43933 -0.64859,0.77607 -0.24853,0.33673 -0.54439,0.61224 -0.65742,0.61224 -0.11304,0 -0.29699,0.11021 -0.40878,0.2449 -0.25871,0.31172 -0.5575,0.31185 -0.816,0 z"
         id="abroad" />
    </g>
  </g>
</svg>
