<svg xmlns="http://www.w3.org/2000/svg" height="24.152" width="33.702"><path d="M.115 7.728c-.25-.25-.077-.896.38-1.417.27-.307.49-.648.49-.756 0-.11.134-.394.298-.632.834-1.216 1.074-2.867.519-3.572-.394-.5-.41-.755-.07-1.095.484-.484.816-.302 1.38.755.532.998.536 1.022.337 2-.11.544-.343 1.232-.516 1.529-.173.297-.315.665-.315.818 0 .153-.166.46-.369.684-.203.224-.613.72-.912 1.1-.5.64-.952.856-1.222.586zm25.016 7.568c.715-.3 2.473-1.892 2.74-2.48.122-.269.29-.6.375-.735.378-.604.677-1.47.569-1.644-.177-.287-2.094-.046-2.732.343-.29.176-.646.321-.792.321-.353 0-1.01.883-1.523 2.043-.447 1.01-.533 1.857-.22 2.17.258.257.947.25 1.583-.018zm3.256 1.235c-.228-.247-.46-.578-.515-.735-.156-.443-.72-.334-1.58.304-.417.309-1.823.716-2.473.716-.49 0-.738-.12-1.195-.577-.504-.503-.577-.678-.577-1.378 0-.44-.073-.846-.163-.902-.136-.084-.73.39-1.877 1.498-.109.106-.469.305-.8.443-.33.138-.713.364-.851.502-.29.29-1.242.331-1.722.074-.663-.355-1.271-1.192-1.276-1.757-.008-.856.437-2.166 1.064-3.136.613-.948.82-1.505.657-1.767-.145-.236-1.073-.673-1.427-.673-.387 0-.774.223-2.058 1.184-.802.6-1.173.775-1.643.775-.856 0-1.217.32-1.671 1.48-.218.557-.599 1.231-.846 1.498-.246.267-.449.536-.449.6 0 .186-1.06 1.157-1.265 1.157-.103 0-.252.114-.33.253-.089.16-.473.288-1.034.346-.717.074-1.019.024-1.537-.254-.355-.19-.726-.345-.826-.345-.099 0-.384-.375-.633-.833-.562-1.032-.52-1.807.19-3.575.27-.674.544-1.592.609-2.041.064-.45.22-.976.344-1.17.125-.194.306-.856.403-1.47.097-.613.285-1.483.418-1.932.133-.449.308-1.448.388-2.22.08-.772.259-1.672.396-2C6.317.095 6.436 0 6.855 0c.428 0 .501.063.523.449.056.987-.238 2.555-1.176 6.277-.265 1.05-.482 2.092-.482 2.317 0 .224-.067.449-.149.5-.082.05-.2.403-.264.784-.063.382-.29 1.161-.504 1.733-.53 1.418-.503 1.753.194 2.41.61.576 1.264.71 1.876.382.505-.27 1.594-1.503 1.797-2.036.273-.714.708-1.62.824-1.714.055-.045.15-.24.21-.435.21-.672.758-1.217 1.111-1.105.18.057.71.056 1.178-.002.7-.088 1.035-.256 1.9-.955.579-.467 1.11-.941 1.182-1.054.195-.304 1.005-.247 1.312.093.148.163.618.461 1.046.663.427.201.887.424 1.022.495.325.171.4 1.07.143 1.707-.197.489-.377.791-1.133 1.906-.484.715-.77 2.175-.49 2.51.316.382.777.318 1.668-.231.438-.27.835-.49.882-.49.088 0 .954-.802 2.138-1.982a12.992 12.992 0 011.4-1.183c.398-.28 1.04-.747 1.429-1.039.388-.292.86-.532 1.048-.533.189-.002.674-.122 1.078-.268.404-.146 1.286-.28 1.96-.296l1.224-.03.539-1.457c.296-.801.606-1.666.687-1.921.081-.256.219-.55.306-.656.086-.104.313-.606.504-1.115.623-1.667 1.05-2.336 1.487-2.336.356 0 .393.065.373.653-.023.706-.653 3.004-.892 3.257a.677.677 0 00-.147.405c0 .235-.412 1.383-.925 2.58l-.487 1.143c-.143.338-.47 1.056-.725 1.595-1.171 2.468-1.414 3.953-.786 4.803.736.995-.49 1.637-1.35.707zm-10.258 7.388c-.167-.201-.121-.355.252-.858.25-.336.626-.76.834-.939.407-.35.76-1.219.947-2.324.092-.545.04-.839-.25-1.42-.302-.605-.329-.776-.156-.984.26-.312.496-.316 1.072-.017.659.341.724.523.727 2.017.002 1.346-.33 2.42-.895 2.891-.108.09-.4.44-.649.776-.248.337-.544.612-.657.612-.113 0-.297.11-.409.245-.259.312-.557.312-.816 0z"/></svg>