<svg xmlns="http://www.w3.org/2000/svg" height="17.544" width="31.428"><path d="M.09 8.24c-.236-.282.007-.827.561-1.263.383-.301 1.252-2.224 1.562-3.455.229-.907.128-1.388-.43-2.051C1.318.918 1.307.364 1.755.084c.465-.292 1.123.194 1.638 1.208.514 1.012.504 1.435-.076 3.265-.44 1.386-.737 1.93-1.392 2.55-.296.28-.538.626-.538.77 0 .512-.953.78-1.298.364zm29.04 7.896c-.219-.218-.299-.437-.224-.612.472-1.118.881-3.03.885-4.138l.004-1.253-.557-.184c-1.48-.488-3.557 1.124-4.85 3.763-.414.846-.82 1.76-.902 2.028-.132.438-.218.49-.797.49-.55 0-.657-.056-.701-.367-.03-.202.096-.68.277-1.061.432-.909 1.217-3.519 1.217-4.047 0-.231-.192-.607-.435-.85-.616-.615-.554-1.11.166-1.334.278-.086.475.02.898.483.297.326.6.697.672.823.203.36.686.275 1.478-.26 1.118-.755 2.075-1.134 2.87-1.138.657-.003.797.072 1.51.812.782.81.787.823.787 1.919 0 .652-.141 1.57-.345 2.245-.19.629-.43 1.445-.533 1.814-.337 1.203-.801 1.486-1.42.867zm-13.28-.687c.775-.453 1.25-.955 1.378-1.46.075-.294.248-.828.385-1.187.137-.36.252-.892.256-1.184.006-.452-.05-.53-.382-.53-.214 0-.747.106-1.184.237a11.61 11.61 0 01-1.733.339c-.832.088-.939.141-.939.464 0 .2.066.433.147.518.08.086.175.68.208 1.32.035.647.16 1.28.282 1.428.257.31 1.094.339 1.581.055zM4.547 17.467c-.71-.176-1.485-.76-1.79-1.35-.449-.868-.103-2.735.982-5.304.26-.615.555-1.859.757-3.184.182-1.196.413-2.432.513-2.746L5.4 3.66c.214-.664.472-1.76.694-2.94.115-.611.158-.652.687-.652.557 0 .564.01.613.773.035.533-.105 1.24-.449 2.273-.274.825-.498 1.63-.498 1.789 0 .159-.074.334-.163.39-.09.055-.167.445-.17.866-.009.831-.153 1.617-.533 2.888-.134.45-.435 1.515-.67 2.368-.235.853-.498 1.698-.585 1.877-.278.571-.446 1.636-.315 1.99.17.462.78.868 1.305.868.427 0 1.46-.651 1.97-1.242.442-.512 1.25-2.207 2.106-4.417.16-.415.908-.623 1.475-.411 1.361.508 4.798.314 6.916-.39.744-.247 1.474-.404 1.62-.347.342.13.36 1.235.038 2.247a69.12 69.12 0 00-.512 1.714c-.317 1.115-1.477 2.894-1.946 2.984-.17.033-.428.208-.575.39-.381.47-1.726.581-2.457.203-.689-.356-.86-.528-1.22-1.223-.243-.47-.271-.809-.183-2.156.057-.878.077-1.597.044-1.597s-.45-.075-.929-.165c-1.002-.19-1.461-.095-1.461.304 0 .155-.149.572-.33.928a7.888 7.888 0 00-.497 1.26c-.09.336-.225.611-.298.611-.073 0-.456.407-.85.905-1.12 1.41-2.442 2.028-3.68 1.72z" stroke-width=".163"/></svg>