<?xml version="1.0" encoding="UTF-8" standalone="no"?>
<svg
   xmlns:dc="http://purl.org/dc/elements/1.1/"
   xmlns:cc="http://creativecommons.org/ns#"
   xmlns:rdf="http://www.w3.org/1999/02/22-rdf-syntax-ns#"
   xmlns:svg="http://www.w3.org/2000/svg"
   xmlns="http://www.w3.org/2000/svg"
   id="svg2663"
   viewBox="0 0 31.427508 17.544468"
   version="1.1"
   height="17.544468"
   width="31.427509">
  <defs
     id="defs2667" />
  <metadata
     id="metadata2">
    <rdf:RDF>
      <cc:Work
         rdf:about="">
        <dc:format>image/svg+xml</dc:format>
        <dc:type
           rdf:resource="http://purl.org/dc/dcmitype/StillImage" />
        <dc:title />
      </cc:Work>
    </rdf:RDF>
  </metadata>
  <g
     transform="translate(-220.49084,-266.94938)"
     id="g2661">
    <g
       style="stroke-width:0.16327"
       id="g2557">
      <path
         d="m 220.58,275.19 c -0.23467,-0.28274 0.008,-0.82751 0.56232,-1.2637 0.38255,-0.30091 1.2518,-2.2238 1.5618,-3.4547 0.22852,-0.90756 0.12764,-1.3887 -0.43022,-2.0516 -0.46459,-0.55214 -0.47564,-1.1062 -0.0277,-1.3869 0.46503,-0.29143 1.1229,0.19389 1.6379,1.2083 0.51368,1.0118 0.5038,1.4352 -0.0762,3.2648 -0.43945,1.3864 -0.73667,1.9309 -1.3917,2.5499 -0.29631,0.27998 -0.53874,0.62638 -0.53874,0.76976 0,0.51293 -0.95222,0.78025 -1.2975,0.36425 z m 29.04,7.8953 c -0.21808,-0.21807 -0.29793,-0.43665 -0.22366,-0.61224 0.47257,-1.1174 0.88183,-3.0302 0.88536,-4.138 l 0.004,-1.2526 -0.5572,-0.1839 c -1.4795,-0.48826 -3.557,1.1237 -4.8495,3.7627 -0.4145,0.84632 -0.82034,1.7592 -0.90189,2.0286 -0.13235,0.43722 -0.21793,0.4898 -0.79739,0.4898 -0.54895,0 -0.65718,-0.0567 -0.70132,-0.36751 -0.0287,-0.20213 0.0963,-0.67968 0.27769,-1.0612 0.43197,-0.90837 1.2167,-3.5184 1.2167,-4.0468 0,-0.23121 -0.19242,-0.60681 -0.43536,-0.84974 -0.61522,-0.61522 -0.55371,-1.1092 0.16603,-1.3337 0.27828,-0.0868 0.47531,0.019 0.89795,0.48228 0.2978,0.32642 0.60022,0.69716 0.67202,0.82389 0.20351,0.35915 0.68622,0.27414 1.4781,-0.26031 1.1185,-0.75488 2.0755,-1.1344 2.8703,-1.1384 0.65681,-0.003 0.79676,0.072 1.5102,0.81219 0.7815,0.81078 0.78632,0.82255 0.78632,1.9189 0,0.65262 -0.1407,1.5696 -0.34456,2.2454 -0.1895,0.62828 -0.42914,1.4443 -0.53252,1.8134 -0.33703,1.2032 -0.80176,1.4868 -1.4213,0.8673 z m -13.28,-0.68703 c 0.77616,-0.45253 1.2511,-0.95494 1.3792,-1.459 0.0748,-0.29439 0.248,-0.82911 0.38485,-1.1883 0.13685,-0.35918 0.25205,-0.89183 0.25599,-1.1837 0.006,-0.45233 -0.0503,-0.53061 -0.38226,-0.53061 -0.21417,0 -0.74682,0.1071 -1.1837,0.23801 -0.43683,0.1309 -1.2167,0.28313 -1.733,0.33828 -0.83195,0.0888 -0.93878,0.14165 -0.93878,0.46404 0,0.20006 0.066,0.43355 0.14673,0.51885 0.0807,0.0853 0.17443,0.67875 0.20829,1.3188 0.0342,0.64739 0.15911,1.2812 0.28143,1.4286 0.25715,0.30987 1.0942,0.33902 1.5812,0.0551 z m -11.301,2.0185 c -0.7102,-0.17631 -1.4855,-0.76122 -1.7903,-1.3507 -0.44867,-0.86764 -0.10302,-2.7347 0.98191,-5.3038 0.25969,-0.6149 0.55551,-1.8585 0.7573,-3.1837 0.18214,-1.196 0.41293,-2.4317 0.51287,-2.746 0.0999,-0.31429 0.27611,-0.86531 0.39154,-1.2245 0.21339,-0.66402 0.47197,-1.76 0.69337,-2.9388 0.11501,-0.61223 0.15793,-0.65306 0.6868,-0.65306 0.55689,0 0.56475,0.01 0.61378,0.77305 0.0342,0.53276 -0.10533,1.2393 -0.44898,2.2731 -0.27426,0.82504 -0.49865,1.63 -0.49865,1.7888 0,0.15877 -0.0735,0.33409 -0.16326,0.38958 -0.0898,0.0555 -0.16647,0.44555 -0.17039,0.86678 -0.008,0.83116 -0.15241,1.6169 -0.53185,2.8883 -0.13399,0.44898 -0.43563,1.5143 -0.67029,2.3674 -0.23466,0.8531 -0.49807,1.698 -0.58537,1.8776 -0.27747,0.57086 -0.44583,1.6354 -0.31468,1.9899 0.17081,0.46177 0.78085,0.8672 1.3048,0.8672 0.42678,0 1.4596,-0.65081 1.9701,-1.2414 0.4425,-0.51195 1.2509,-2.2075 2.1058,-4.4168 0.16056,-0.41491 0.90833,-0.62348 1.4757,-0.41161 1.3606,0.50805 4.7973,0.31437 6.9155,-0.38976 0.74434,-0.24741 1.4737,-0.40368 1.6209,-0.3472 0.34126,0.13095 0.35946,1.2357 0.037,2.2471 -0.12677,0.39762 -0.35716,1.169 -0.51196,1.7142 -0.31658,1.1149 -1.4765,2.894 -1.9457,2.9844 -0.16955,0.0326 -0.42854,0.20788 -0.57553,0.3894 -0.38066,0.47012 -1.7252,0.58142 -2.4564,0.20333 -0.68875,-0.35616 -0.8601,-0.52805 -1.2198,-1.2236 -0.24302,-0.46995 -0.27187,-0.80862 -0.18363,-2.1553 0.0576,-0.87876 0.0776,-1.5977 0.0445,-1.5977 -0.0331,0 -0.45105,-0.0741 -0.92881,-0.16474 -1.0025,-0.19012 -1.4616,-0.0945 -1.4616,0.30447 0,0.15457 -0.14875,0.57207 -0.33054,0.92779 -0.1818,0.35572 -0.40503,0.92227 -0.49609,1.259 -0.0911,0.33673 -0.2252,0.61224 -0.29812,0.61224 -0.0729,0 -0.4558,0.40691 -0.85086,0.90423 -1.1201,1.4102 -2.4413,2.028 -3.6791,1.7207 z"
         id="absence" />
    </g>
  </g>
</svg>
