<?xml version="1.0" encoding="UTF-8" standalone="no"?>
<svg
   xmlns:dc="http://purl.org/dc/elements/1.1/"
   xmlns:cc="http://creativecommons.org/ns#"
   xmlns:rdf="http://www.w3.org/1999/02/22-rdf-syntax-ns#"
   xmlns:svg="http://www.w3.org/2000/svg"
   xmlns="http://www.w3.org/2000/svg"
   id="svg2663"
   viewBox="0 0 39.366832 17.697691"
   version="1.1"
   height="17.697691"
   width="39.366833">
  <defs
     id="defs2667" />
  <metadata
     id="metadata2">
    <rdf:RDF>
      <cc:Work
         rdf:about="">
        <dc:format>image/svg+xml</dc:format>
        <dc:type
           rdf:resource="http://purl.org/dc/dcmitype/StillImage" />
        <dc:title />
      </cc:Work>
    </rdf:RDF>
  </metadata>
  <g
     transform="translate(-220.71644,-289.39347)"
     id="g2661">
    <g
       style="stroke-width:0.16327"
       id="g2557">
      <path
         d="m 220.97,298.32 c -0.40093,-0.27453 -0.33784,-0.69797 0.27116,-1.8203 0.35129,-0.64739 0.63871,-1.3151 0.63871,-1.4838 0,-0.1687 0.0746,-0.35283 0.16574,-0.40918 0.33362,-0.20619 0.67582,-1.3111 0.60632,-1.9576 -0.0386,-0.35918 -0.26485,-1.0642 -0.50276,-1.5668 -0.51784,-1.0938 -0.53729,-1.3861 -0.10751,-1.6161 0.47052,-0.2518 1.2125,0.17881 1.4624,0.84866 0.11042,0.29608 0.30444,0.73332 0.43117,0.97167 0.50939,0.95809 0.16717,2.4572 -1.19,5.2126 -0.94532,1.9193 -1.2201,2.2011 -1.7752,1.821 z m 15.177,6.6412 c 0.70521,-0.55471 1.5537,-2.4719 1.5645,-3.5348 l 0.005,-0.52883 -1.5102,0.0868 c -3.1396,0.1804 -3.659,0.30331 -2.9527,0.69858 0.18636,0.10429 0.31314,0.49573 0.40341,1.2456 0.22916,1.9035 1.419,2.875 2.4898,2.0327 z m -12.383,1.8681 c -0.58061,-0.64604 -1.1123,-1.6277 -1.1791,-2.177 -0.0385,-0.31608 0.0492,-0.97876 0.19471,-1.4726 0.14555,-0.49388 0.43331,-1.7104 0.63946,-2.7035 0.20616,-0.99301 0.4572,-1.9594 0.55785,-2.1475 0.10067,-0.18809 0.43657,-1.3398 0.74645,-2.5593 0.74797,-2.9437 1.6899,-5.651 1.9662,-5.651 0.0367,0 0.26322,0.0747 0.50327,0.16594 0.38377,0.14591 0.42439,0.22967 0.33652,0.69388 -0.055,0.29037 -0.28157,0.96875 -0.50358,1.5075 -0.22202,0.53877 -0.4054,1.1365 -0.40754,1.3284 -0.002,0.19183 -0.17634,0.88979 -0.38715,1.551 -0.21081,0.66124 -0.46972,1.5329 -0.57535,1.9369 -0.10563,0.40409 -0.28994,1.102 -0.40958,1.551 -0.11964,0.44897 -0.30978,1.3673 -0.42253,2.0408 -0.11277,0.67347 -0.34373,1.6472 -0.51326,2.1639 -0.35693,1.0878 -0.37786,1.423 -0.12367,1.9809 0.20816,0.45689 1.066,0.68067 1.8003,0.46965 0.55085,-0.15832 1.8822,-1.8583 2.1059,-2.689 0.0924,-0.34333 0.30383,-0.86191 0.46974,-1.1524 0.16591,-0.2905 0.38595,-0.79479 0.48898,-1.1207 0.10304,-0.32587 0.3247,-0.71681 0.49261,-0.86875 0.28279,-0.25592 0.36156,-0.25712 1.0707,-0.0164 0.85305,0.28961 3.9572,0.24202 6.6541,-0.10201 1.3013,-0.16601 1.4594,-0.15595 1.7551,0.11166 0.5018,0.45412 0.43633,1.7506 -0.16481,3.2639 -0.50209,1.2639 -0.62288,2.0408 -0.31729,2.0408 0.0949,0 0.73775,-0.28391 1.4286,-0.63093 0.69084,-0.34702 1.5132,-0.72843 1.8275,-0.84756 0.31429,-0.11914 0.63019,-0.31277 0.702,-0.43029 0.0718,-0.11752 0.19836,-0.21366 0.28125,-0.21366 0.0829,0 0.5384,-0.1792 1.0123,-0.39824 1.3372,-0.61804 2.1015,-0.90789 2.3942,-0.90789 0.14751,0 0.55396,-0.15316 0.90322,-0.34036 0.34927,-0.18718 0.97267,-0.40387 1.3853,-0.4815 0.74591,-0.14034 1.4608,-0.3073 2.7095,-0.63278 0.35918,-0.0936 1.2041,-0.17324 1.8776,-0.17693 2.5604,-0.014 5.1071,1.502 6.1938,3.687 0.97056,1.9516 1.0222,2.2249 0.48459,2.5634 -0.6475,0.40769 -1.4538,-0.30282 -1.4538,-1.2811 0,-0.25628 -0.31074,-0.74422 -0.85714,-1.3459 -1.491,-1.642 -4.2952,-2.6723 -5.9658,-2.1922 -1.2806,0.36805 -2.594,0.71527 -3.2995,0.87225 -0.40408,0.0899 -0.88163,0.23138 -1.0612,0.31435 -0.1796,0.083 -0.91429,0.33959 -1.6327,0.57022 -0.71836,0.23064 -1.6735,0.63608 -2.1224,0.90098 -0.44898,0.26491 -1.5143,0.82026 -2.3673,1.2341 -0.853,0.41384 -1.5936,0.82031 -1.6456,0.90325 -0.052,0.0829 -0.45613,0.21148 -0.89796,0.2857 -0.44183,0.0742 -1.2637,0.23363 -1.8263,0.35427 -0.83327,0.17868 -1.1654,0.18126 -1.7913,0.0139 -1.2858,-0.34389 -1.7718,-0.74867 -2.338,-1.9471 -0.52947,-1.1206 -0.54942,-1.4018 -0.2199,-3.0975 l 0.10312,-0.53062 h -0.97935 c -1.1065,0 -1.1542,0.0428 -1.8216,1.6327 -0.20731,0.49388 -0.58862,1.188 -0.84733,1.5424 -0.25872,0.35443 -0.4704,0.73121 -0.4704,0.8373 0,0.10611 -0.41809,0.55009 -0.92907,0.98665 -0.89824,0.76738 -0.96817,0.79572 -2.1055,0.85314 -0.98662,0.0498 -1.2203,0.0106 -1.4484,-0.2433 z"
         id="absent" />
    </g>
  </g>
</svg>
