<svg xmlns="http://www.w3.org/2000/svg" height="17.698" width="39.367"><path d="M.254 8.927c-.401-.275-.338-.698.27-1.82.352-.648.64-1.316.64-1.485 0-.168.074-.352.165-.409.334-.206.676-1.31.606-1.957-.038-.36-.264-1.065-.502-1.567C.915.595.895.303 1.325.073c.47-.252 1.213.179 1.463.848.11.296.304.734.43.972.51.958.168 2.457-1.19 5.213-.945 1.919-1.22 2.2-1.774 1.82zm15.177 6.64c.705-.554 1.553-2.471 1.564-3.534l.005-.529-1.51.087c-3.14.18-3.66.303-2.953.698.187.105.313.496.404 1.246.229 1.904 1.419 2.875 2.49 2.033zM3.048 17.437c-.581-.646-1.113-1.628-1.18-2.177-.038-.316.05-.979.195-1.473.146-.494.433-1.71.64-2.703.206-.993.457-1.96.557-2.148.101-.188.437-1.34.747-2.56.748-2.943 1.69-5.65 1.966-5.65.037 0 .263.075.503.166.384.146.425.23.337.694-.055.29-.282.969-.504 1.507-.222.539-.405 1.137-.407 1.329-.002.191-.177.89-.387 1.55-.211.662-.47 1.534-.576 1.938-.105.404-.29 1.102-.41 1.55-.119.45-.31 1.368-.422 2.041a18.013 18.013 0 01-.513 2.164c-.357 1.088-.378 1.423-.124 1.981.208.457 1.066.68 1.8.47.551-.159 1.883-1.858 2.106-2.69a5.88 5.88 0 01.47-1.152c.166-.29.386-.794.49-1.12.102-.326.324-.717.492-.869.283-.256.361-.257 1.07-.016.854.29 3.958.242 6.655-.102 1.3-.166 1.459-.156 1.755.111.501.454.436 1.75-.165 3.264-.502 1.264-.623 2.04-.317 2.04.094 0 .737-.283 1.428-.63.691-.347 1.513-.728 1.828-.848.314-.119.63-.312.702-.43.071-.117.198-.214.28-.214.084 0 .54-.179 1.013-.398 1.337-.618 2.102-.908 2.394-.908.148 0 .554-.153.904-.34.349-.187.972-.404 1.385-.482.746-.14 1.46-.307 2.71-.632.359-.094 1.204-.174 1.877-.177 2.56-.014 5.107 1.502 6.194 3.687.97 1.951 1.022 2.225.484 2.563-.647.408-1.453-.303-1.453-1.28 0-.257-.311-.745-.857-1.347-1.491-1.642-4.296-2.672-5.966-2.192-1.28.368-2.594.715-3.3.872-.404.09-.881.232-1.061.315-.18.083-.914.34-1.633.57-.718.23-1.673.636-2.122.9-.45.266-1.514.821-2.367 1.235-.853.414-1.594.82-1.646.903-.052.083-.456.212-.898.286-.442.074-1.264.233-1.826.354-.834.179-1.166.181-1.792.014-1.285-.344-1.771-.749-2.338-1.947-.529-1.12-.549-1.402-.22-3.098l.104-.53h-.98c-1.106 0-1.154.043-1.821 1.632-.208.494-.589 1.188-.848 1.543-.258.354-.47.731-.47.837 0 .106-.418.55-.93.987-.897.767-.967.796-2.105.853-.986.05-1.22.01-1.448-.243z" stroke-width=".163"/></svg>