<?xml version="1.0" encoding="UTF-8" standalone="no"?>
<svg
   xmlns:dc="http://purl.org/dc/elements/1.1/"
   xmlns:cc="http://creativecommons.org/ns#"
   xmlns:rdf="http://www.w3.org/1999/02/22-rdf-syntax-ns#"
   xmlns:svg="http://www.w3.org/2000/svg"
   xmlns="http://www.w3.org/2000/svg"
   id="svg2663"
   viewBox="0 0 47.636214 25.883881"
   version="1.1"
   height="25.883881"
   width="47.636215">
  <defs
     id="defs2667" />
  <metadata
     id="metadata2">
    <rdf:RDF>
      <cc:Work
         rdf:about="">
        <dc:format>image/svg+xml</dc:format>
        <dc:type
           rdf:resource="http://purl.org/dc/dcmitype/StillImage" />
        <dc:title />
      </cc:Work>
    </rdf:RDF>
  </metadata>
  <g
     transform="translate(-220.25031,-336.42229)"
     id="g2661">
    <g
       style="stroke-width:0.16327"
       id="g2557">
      <path
         d="m 220.45,345.85 c -0.35448,-0.14304 -0.22189,-0.6963 0.27787,-1.1595 0.66796,-0.61907 1.9768,-3.2791 2.0089,-4.0826 0.0209,-0.52402 -0.0853,-0.77102 -0.57956,-1.3485 -0.66854,-0.78103 -0.70993,-0.93229 -0.37896,-1.3849 0.22188,-0.30345 0.2395,-0.30335 0.92366,0.005 0.57087,0.25744 0.76993,0.47282 1.0968,1.1869 0.43497,0.95014 0.42002,1.81 -0.0471,2.7105 -0.1322,0.25481 -0.24036,0.62855 -0.24036,0.83053 0,0.20199 -0.17347,0.54256 -0.38549,0.75685 -0.21201,0.21428 -0.51456,0.64676 -0.67232,0.96104 -0.70567,1.4057 -1.2574,1.8256 -2.0034,1.5245 z m 38.465,4.0087 c -0.83107,-0.62699 0.38986,-1.1249 2.7539,-1.1231 0.96818,0 2.6614,-0.0874 3.7627,-0.1959 1.7934,-0.17669 2.0299,-0.16975 2.2661,0.0664 0.17771,0.17771 0.22917,0.40135 0.15781,0.68571 -0.098,0.39048 -0.17365,0.42198 -1.0135,0.42198 -0.49915,0 -1.7651,0.0717 -2.8132,0.15931 -3.3967,0.28399 -4.7232,0.28023 -5.1138,-0.0145 z m -12.147,-2.1609 c 0.22906,-0.30031 0.41647,-0.5929 0.41647,-0.65019 0,-0.0573 0.29608,-0.58792 0.65797,-1.1792 0.3619,-0.59125 0.76335,-1.4558 0.89215,-1.9212 0.1288,-0.4654 0.38291,-1.2776 0.56472,-1.8049 0.4994,-1.4484 0.77806,-3.6011 0.50823,-3.9262 -0.2547,-0.30689 -0.8264,-0.34403 -0.82893,-0.0539 -0.002,0.11224 -0.40506,0.99925 -0.89796,1.9711 -0.65476,1.291 -0.89618,1.9481 -0.89618,2.4392 0,0.87868 -0.28771,2.4249 -0.66033,3.5489 -0.6688,2.0173 -0.57161,2.6456 0.24386,1.5764 z m -12.073,7.1357 c -1.4085,-0.59996 -1.638,-0.86664 -1.8498,-2.1492 -0.0996,-0.60299 -0.15059,-1.2427 -0.11338,-1.4215 0.0372,-0.17884 0.111,-0.59653 0.16396,-0.9282 0.0653,-0.40908 0.20204,-0.6366 0.425,-0.70738 0.55277,-0.17543 0.80274,0.20025 0.80374,1.208 0.002,1.0777 0.23639,2.0307 0.58833,2.3827 0.17715,0.17716 0.58347,0.2504 1.389,0.2504 0.98908,0 1.1909,-0.0523 1.5366,-0.39799 0.2189,-0.21891 0.51742,-0.69646 0.66338,-1.0612 0.14594,-0.36478 0.31923,-0.66323 0.38506,-0.66323 0.20989,0 0.69014,-1.8556 0.63379,-2.449 l -0.0542,-0.57143 -1.4694,0.0266 c -5.2453,0.0949 -6.5108,0.18529 -6.7265,0.4802 -0.11676,0.15967 -0.21228,0.39433 -0.21228,0.52148 0,0.12714 -0.2095,0.68248 -0.46557,1.2341 -0.25606,0.55163 -0.56006,1.2446 -0.67556,1.54 -0.11549,0.29541 -0.3301,0.62602 -0.4769,0.73469 -0.14679,0.10867 -0.49719,0.48157 -0.77867,0.82866 -0.60224,0.74259 -2.0668,1.4078 -3.1019,1.409 -0.54689,0 -0.79455,-0.10516 -1.2483,-0.53309 -0.49855,-0.47017 -0.57835,-0.65999 -0.66922,-1.5918 -0.10005,-1.0258 0.0489,-2.6578 0.36483,-3.9968 0.40104,-1.6998 0.57606,-2.3275 0.79024,-2.8341 0.12751,-0.3016 0.30145,-1.3302 0.38653,-2.2857 0.0851,-0.95555 0.26058,-2.1414 0.39002,-2.6353 0.12944,-0.4939 0.32046,-1.2286 0.42447,-1.6326 0.3371,-1.3094 0.86267,-2.2865 1.2066,-2.2431 0.51026,0.0643 0.69367,0.52296 0.45465,1.137 -0.27378,0.70323 -0.84614,3.7798 -0.84614,4.5482 0,0.33193 -0.1742,1.2545 -0.38712,2.0501 -1.3798,5.1562 -1.6678,7.0298 -1.2496,8.1299 0.13326,0.35049 0.26282,0.4188 0.79432,0.4188 0.38787,0 0.79667,-0.12711 1.0502,-0.32653 0.22831,-0.1796 0.477,-0.3306 0.55262,-0.33556 0.43138,-0.0283 2.1783,-3.139 2.1783,-3.8788 0,-0.71931 0.25518,-1.2861 0.68605,-1.5238 0.26183,-0.14444 1.3123,-0.21303 3.4772,-0.22706 2.6092,-0.0169 3.3196,-0.0764 4.4714,-0.37438 1.8189,-0.47061 2.2031,-0.46091 2.4412,0.0616 0.33829,0.74245 0.22235,2.0437 -0.31291,3.5121 -0.27631,0.75801 -0.59706,1.4884 -0.71277,1.6231 -0.11571,0.13469 -0.25933,0.45071 -0.31915,0.70225 -0.10761,0.45246 -0.10216,0.45616 0.50869,0.34554 0.33959,-0.0615 0.81585,-0.21223 1.0583,-0.33491 0.24249,-0.12269 0.54652,-0.22309 0.67563,-0.22309 0.23876,0 1.2942,-0.97121 2.108,-1.9397 0.31621,-0.37632 0.44898,-0.71667 0.44898,-1.1509 0,-0.33912 0.18832,-1.1233 0.41848,-1.7426 0.65587,-1.7647 0.90129,-2.6692 1.0586,-3.9015 0.21535,-1.6868 0.53448,-2.7258 1.2641,-4.116 0.19845,-0.37806 0.3608,-0.76968 0.3608,-0.87029 0,-0.42775 1.1743,-1.9101 1.7851,-2.2534 0.73425,-0.41267 0.94315,-0.36089 1.6836,0.41748 0.38049,0.39997 0.46432,0.66074 0.5542,1.724 0.077,0.9113 0.0488,1.3215 -0.10343,1.505 -0.11513,0.13872 -0.26336,0.52638 -0.3294,0.86148 -0.57447,2.9149 -1.8973,5.863 -3.2227,7.1824 -0.20204,0.20113 -0.36735,0.43641 -0.36735,0.52287 0,0.0865 -0.37522,0.517 -0.8338,0.95672 -0.70556,0.67654 -0.84472,0.90975 -0.90473,1.5163 -0.0916,0.92575 0.19128,1.4296 0.9767,1.7399 0.52204,0.20619 0.77078,0.21481 1.4987,0.0519 0.88906,-0.19898 2.3652,-1.1557 2.3652,-1.533 0,-0.10898 0.14155,-0.28653 0.31455,-0.39458 1.2747,-0.79605 4.2093,-6.1527 4.4971,-8.2086 0.0566,-0.40408 0.19772,-0.88163 0.31367,-1.0612 0.11595,-0.1796 0.26273,-0.54694 0.32617,-0.81633 0.0635,-0.26939 0.31385,-0.87533 0.55644,-1.3466 0.6178,-1.2 1.339,-1.1762 1.339,0.0442 0,0.21184 -0.0678,0.42709 -0.15071,0.47832 -0.0829,0.0512 -0.19989,0.33107 -0.26,0.62188 -0.0601,0.2908 -0.20906,0.85934 -0.33097,1.2634 -0.1219,0.40409 -0.30815,1.0653 -0.41386,1.4694 -0.10573,0.40408 -0.41124,1.3592 -0.67889,2.1224 -0.26766,0.76327 -0.5867,1.9755 -0.70895,2.6939 -0.12227,0.71837 -0.33721,1.8274 -0.47765,2.4646 -0.29422,1.3348 -0.20496,1.7264 0.55754,2.4461 0.98057,0.92548 0.46184,1.7593 -0.75542,1.2143 -0.53095,-0.23771 -0.74556,-0.46607 -1.0248,-1.0904 -0.19427,-0.43435 -0.39448,-1.1754 -0.44493,-1.6469 -0.0505,-0.47142 -0.13655,-0.8548 -0.19134,-0.85195 -0.19628,0.0103 -0.62112,0.40939 -0.80678,0.75799 -0.19262,0.36167 -1.6118,1.5052 -2.7947,2.252 -0.58227,0.36757 -0.82731,0.41343 -2.2087,0.41343 h -1.5538 l -0.65354,-0.59043 c -0.35944,-0.32474 -0.65353,-0.69208 -0.65353,-0.81633 0,-0.12424 -0.0758,-0.22589 -0.16851,-0.22589 -0.29626,0 -1.355,0.49051 -2.1243,0.98416 -0.41019,0.26322 -1.4192,0.70049 -2.2422,0.97171 -1.964,0.6472 -3.4355,0.66614 -4.8528,0.0624 z m 17.705,5.4554 c -0.26433,-0.28939 -0.48059,-0.58243 -0.48059,-0.65118 0,-0.1779 -0.4832,-0.76212 -1.102,-1.3325 -0.29183,-0.26896 -0.53061,-0.55677 -0.53061,-0.63957 0,-0.0828 -0.21974,-0.428 -0.48833,-0.76711 -0.66426,-0.83869 -0.69843,-1.3131 -0.1152,-1.5993 0.44397,-0.21788 0.47824,-0.20163 1.1429,0.54183 0.37683,0.42154 0.79536,0.96049 0.93006,1.1977 0.13469,0.23719 0.37472,0.57776 0.53342,0.75685 1.092,1.2323 1.3278,1.6143 1.3278,2.1505 0,0.50989 -0.24426,0.85967 -0.60512,0.86653 -0.0724,0.002 -0.34792,-0.23428 -0.61225,-0.52369 z m -13.542,1.6583 c 0,-0.47789 0.26081,-0.91833 1.1669,-1.9706 0.43577,-0.50607 0.79278,-1.0204 0.79337,-1.1429 0,-0.12249 0.14704,-0.44313 0.32545,-0.71252 0.39303,-0.59343 0.41197,-1.0298 0.0662,-1.5236 -0.16337,-0.23324 -0.22211,-0.52419 -0.15767,-0.78094 0.0867,-0.34534 0.18405,-0.40131 0.62369,-0.35849 0.4136,0.0403 0.59697,0.18534 0.88967,0.70381 0.20279,0.35918 0.36991,0.83876 0.37138,1.0657 0.003,0.50782 -1.1606,2.8203 -1.7135,3.4043 -0.22279,0.23535 -0.65513,0.7034 -0.96077,1.0401 -0.64235,0.70771 -1.4047,0.85695 -1.4047,0.27499 z"
         id="absolutely" />
    </g>
  </g>
</svg>
