<?xml version="1.0" encoding="UTF-8" standalone="no"?>
<svg
   xmlns:dc="http://purl.org/dc/elements/1.1/"
   xmlns:cc="http://creativecommons.org/ns#"
   xmlns:rdf="http://www.w3.org/1999/02/22-rdf-syntax-ns#"
   xmlns:svg="http://www.w3.org/2000/svg"
   xmlns="http://www.w3.org/2000/svg"
   id="svg2663"
   viewBox="0 0 38.493789 27.235455"
   version="1.1"
   height="27.235455"
   width="38.49379">
  <defs
     id="defs2667" />
  <metadata
     id="metadata2">
    <rdf:RDF>
      <cc:Work
         rdf:about="">
        <dc:format>image/svg+xml</dc:format>
        <dc:type
           rdf:resource="http://purl.org/dc/dcmitype/StillImage" />
        <dc:title />
      </cc:Work>
    </rdf:RDF>
  </metadata>
  <g
     transform="translate(-220.7429,-310.88202)"
     id="g2661">
    <g
       style="stroke-width:0.16327"
       id="g2557">
      <path
         d="m 220.93,321.11 c -0.34271,-0.34271 -0.21293,-0.89568 0.37551,-1.6 0.31428,-0.37618 0.57143,-0.82395 0.57143,-0.99504 0,-0.1711 0.0644,-0.31109 0.14316,-0.31109 0.24812,0 0.83643,-1.5835 0.83643,-2.2513 0,-0.45613 -0.11716,-0.76617 -0.40817,-1.0802 -0.48264,-0.52078 -0.52509,-1.0026 -0.10803,-1.2258 0.47445,-0.25391 0.94768,-0.0342 1.4322,0.66499 0.67455,0.97338 0.6464,2.2862 -0.0817,3.8107 -0.64713,1.3549 -2.0634,3.1837 -2.4655,3.1837 -0.0547,0 -0.18758,-0.0882 -0.29533,-0.19591 z m 28.322,-0.55141 c 0.19528,-0.35222 0.41846,-0.71385 0.49593,-0.80365 0.28167,-0.32641 1.0572,-1.8168 1.5261,-2.9328 0.41456,-0.98671 0.4801,-1.3492 0.4801,-2.656 0,-1.5077 -0.002,-1.5133 -0.41057,-1.5133 -0.45134,0 -0.96767,0.68271 -1.1524,1.5238 -0.0575,0.26164 -0.23773,0.70543 -0.40059,0.98618 -0.16286,0.28075 -0.3479,0.95127 -0.41123,1.49 -0.0633,0.53878 -0.18892,1.1212 -0.27912,1.2942 -0.0902,0.173 -0.23073,0.76079 -0.31228,1.3061 -0.0815,0.54534 -0.19131,1.2395 -0.24392,1.5425 -0.12909,0.74343 0.23125,0.62274 0.70802,-0.23712 z m -24.052,10.055 c -0.3815,-0.15394 -1.0096,-0.9237 -1.4264,-1.7482 -0.28229,-0.55834 -0.37287,-2.5747 -0.1226,-2.7294 0.0779,-0.0481 0.30454,-0.62185 0.50373,-1.2749 0.19916,-0.6531 0.44142,-1.3711 0.53833,-1.5956 0.0969,-0.22449 0.23342,-0.77551 0.30336,-1.2245 0.18902,-1.2134 0.78743,-4.6167 0.97605,-5.551 0.0906,-0.44898 0.22684,-1.2396 0.30268,-1.7569 0.15943,-1.0876 0.53432,-1.7533 0.9874,-1.7533 0.65575,0 0.71201,0.54882 0.26516,2.5864 -0.22959,1.0468 -0.49476,2.4911 -0.58926,3.2095 -0.32572,2.4759 -0.53548,3.3908 -1.5483,6.7532 -0.46945,1.5585 -0.51729,2.4459 -0.16821,3.1209 0.30209,0.58418 0.69502,0.71533 1.7205,0.57427 0.71585,-0.0984 0.90431,-0.21985 1.7582,-1.1326 0.79646,-0.85141 1.0187,-1.2243 1.3292,-2.2303 0.36626,-1.1866 0.71325,-2.1114 0.97388,-2.5957 0.10258,-0.19061 0.74324,-0.28591 2.8902,-0.42994 2.8784,-0.19311 4.5387,-0.40435 6.1816,-0.78645 1.7316,-0.40275 1.997,0.10034 1.2607,2.3896 -0.43362,1.3481 -0.63256,2.0458 -0.95745,3.3574 -0.0752,0.30349 -0.0238,0.36692 0.29538,0.36495 0.2125,-0.002 0.57005,-0.10866 0.79454,-0.2385 0.22449,-0.12985 0.49365,-0.28113 0.59814,-0.33618 0.10448,-0.055 0.48609,-0.37347 0.84803,-0.70761 0.36193,-0.33414 0.98729,-0.77193 1.3896,-0.9729 0.94221,-0.47054 1.6726,-1.3096 1.9052,-2.1887 0.10139,-0.38312 0.28284,-0.917 0.40323,-1.1864 0.1204,-0.26938 0.29277,-0.85714 0.38309,-1.3061 1.2012,-5.9722 2.0664,-8.3442 3.5382,-9.7009 0.87716,-0.80854 1.3341,-0.8431 2.1124,-0.15975 0.56896,0.49955 0.57711,0.52486 0.57711,1.7936 0,1.3698 -0.1691,2.2934 -0.68482,3.7405 -0.68212,1.914 -0.93838,2.4747 -1.4735,3.224 -0.3048,0.42678 -0.73364,1.132 -0.95301,1.5672 -0.21936,0.43517 -0.567,0.94946 -0.77255,1.1429 -0.20554,0.19339 -0.48007,0.59703 -0.61006,0.89695 -0.12999,0.29993 -0.38085,0.58312 -0.55747,0.6293 -0.4383,0.11462 -0.80606,0.72064 -1.0834,1.7852 -0.48597,1.8658 -0.20687,2.5103 1.0864,2.5086 0.74449,-0.002 1.9656,-0.27572 2.1096,-0.47474 0.0449,-0.062 0.37551,-0.24859 0.73469,-0.41455 0.35919,-0.16598 0.80066,-0.45603 0.98103,-0.64456 0.18039,-0.18853 0.54919,-0.52646 0.81955,-0.75095 0.27035,-0.22449 0.6516,-0.6678 0.84723,-0.98516 0.19561,-0.31734 0.54504,-0.79489 0.77652,-1.0612 0.23146,-0.26632 0.46745,-0.66791 0.52438,-0.8924 0.0569,-0.22449 0.38204,-0.99591 0.72243,-1.7143 0.34041,-0.71837 0.70284,-1.6735 0.80544,-2.1224 0.55637,-2.4348 1.561,-4.6531 2.1072,-4.6531 0.43295,0 0.71044,0.42341 0.61429,0.93727 -0.13956,0.74586 -0.95014,3.3603 -1.1773,3.7974 -0.11668,0.22449 -0.47966,1.1429 -0.80658,2.0408 -0.32694,0.89796 -0.77637,2.1102 -0.99877,2.6939 -0.75313,1.9766 -0.84492,3.3553 -0.29564,4.4409 0.34132,0.67455 0.27745,1.0924 -0.20022,1.31 -0.37544,0.17107 -0.45814,0.14759 -0.73129,-0.20758 -0.29947,-0.38937 -0.85842,-1.4791 -1.1442,-2.2306 -0.12735,-0.33495 -0.18524,-0.35236 -0.59465,-0.17873 -0.24945,0.1058 -0.67396,0.39532 -0.94334,0.64337 -0.56637,0.52153 -1.3492,0.87417 -2.8959,1.3044 -2.1782,0.60593 -3.5791,0.20852 -3.9697,-1.1261 -0.11227,-0.38356 -0.16609,-0.84274 -0.11963,-1.0204 0.16075,-0.61472 -0.55267,-0.34902 -1.8613,0.69321 -2.1256,1.6929 -2.9049,1.9754 -5.3465,1.9386 -1.3741,-0.0207 -1.7701,-0.0911 -2.5949,-0.46129 -0.88188,-0.39575 -1.0096,-0.51864 -1.3581,-1.3066 -0.74748,-1.6902 -0.23142,-4.2757 0.67291,-3.3714 0.37494,0.37492 0.5168,0.70546 0.72444,1.688 0.24384,1.1537 0.54243,1.476 1.3672,1.476 1.1236,0 1.9211,-0.328 2.1595,-0.88821 0.39913,-0.93804 0.73213,-2.2506 0.73213,-2.8856 v -0.63432 l -1.0204,0.002 c -0.56122,0.002 -1.4858,0.11211 -2.0545,0.24619 -0.56877,0.13409 -1.7076,0.27381 -2.5306,0.31051 -0.82309,0.0367 -1.6139,0.11314 -1.7574,0.16989 -0.4408,0.17436 -0.91742,0.96268 -1.0442,1.7271 -0.13404,0.80841 -0.32362,1.2457 -0.71711,1.6544 -0.14496,0.15053 -0.44026,0.51788 -0.65621,0.81633 -0.45927,0.63469 -1.947,1.7653 -2.6851,2.0404 -0.60761,0.22651 -1.6776,0.25337 -2.1704,0.0545 z m 27.19,5.0174 c -0.14407,-0.11201 -0.30959,-0.35373 -0.36781,-0.53717 -0.0582,-0.18343 -0.47299,-0.76772 -0.92171,-1.2984 -0.44874,-0.5307 -0.81587,-1.0599 -0.81587,-1.176 0,-0.1161 -0.0551,-0.21161 -0.12245,-0.21218 -0.17827,-0.002 -0.69388,-0.95687 -0.69388,-1.2857 0,-0.3592 0.31292,-0.67249 0.67166,-0.67249 0.26976,0 1.679,1.6321 2.097,2.4286 0.11191,0.21329 0.45699,0.71989 0.7668,1.1258 0.69705,0.91316 0.72265,1.7266 0.0564,1.7915 -0.22449,0.0219 -0.52604,-0.0519 -0.67012,-0.16389 z m -13.099,2.3826 c -0.33863,-0.33863 0.23837,-1.4916 1.3197,-2.6371 0.11225,-0.1189 0.20408,-0.32406 0.20408,-0.45593 0,-0.13186 0.14694,-0.52776 0.32653,-0.87979 0.38348,-0.75167 0.41106,-1.4256 0.0764,-1.8679 -0.33048,-0.43694 -0.29996,-0.86383 0.0761,-1.0651 0.42309,-0.22642 1.1536,0.0545 1.1536,0.4437 0,0.16185 0.11781,0.46245 0.26179,0.66802 0.19373,0.27657 0.23373,0.561 0.15383,1.0938 -0.0594,0.39598 -0.17719,0.76276 -0.2618,0.81505 -0.0846,0.0523 -0.15382,0.24358 -0.15382,0.42506 0,0.3963 -1.8799,3.1886 -2.2969,3.4118 -0.34197,0.18301 -0.7045,0.20343 -0.85952,0.0484 z"
         id="absolute" />
    </g>
  </g>
</svg>
