<svg xmlns="http://www.w3.org/2000/svg" height="27.235" width="38.494"><path d="M.187 10.228c-.343-.343-.213-.896.376-1.6.314-.376.571-.824.571-.995 0-.171.064-.311.143-.311.248 0 .837-1.584.837-2.251 0-.457-.118-.767-.409-1.08-.482-.521-.525-1.003-.108-1.226.475-.254.948-.035 1.433.665.674.973.646 2.286-.082 3.81C2.3 8.595.885 10.424.482 10.424c-.054 0-.187-.088-.295-.196zm28.322-.551c.195-.353.419-.714.496-.804.282-.326 1.057-1.817 1.526-2.933.415-.987.48-1.35.48-2.656 0-1.508-.002-1.513-.41-1.513-.452 0-.968.683-1.153 1.524a4.187 4.187 0 01-.4.986c-.163.28-.348.951-.412 1.49-.063.539-.188 1.121-.279 1.294-.09.173-.23.76-.312 1.306-.081.545-.191 1.24-.244 1.543-.129.743.231.622.708-.238zM4.457 19.732c-.381-.154-1.01-.924-1.426-1.749-.283-.558-.373-2.574-.123-2.729.078-.048.305-.622.504-1.275.199-.653.441-1.371.538-1.596.097-.224.234-.775.304-1.224.189-1.213.787-4.617.976-5.551.09-.449.226-1.24.302-1.757.16-1.088.535-1.753.988-1.753.655 0 .712.549.265 2.586-.23 1.047-.495 2.491-.59 3.21-.325 2.476-.535 3.39-1.548 6.753-.47 1.558-.517 2.446-.168 3.12.302.585.695.716 1.72.575.716-.098.905-.22 1.759-1.133.796-.851 1.018-1.224 1.329-2.23.366-1.186.713-2.111.974-2.596.102-.19.743-.285 2.89-.43 2.878-.193 4.539-.404 6.182-.786 1.731-.403 1.997.1 1.26 2.39a42.98 42.98 0 00-.957 3.357c-.075.304-.024.367.295.365.213-.002.57-.109.795-.239.224-.13.493-.28.598-.336.104-.055.486-.373.848-.707a7.275 7.275 0 011.39-.973c.942-.47 1.672-1.31 1.905-2.189.101-.383.283-.917.403-1.186.12-.27.293-.857.383-1.306C27.454 4.37 28.32 1.998 29.791.642c.877-.809 1.334-.843 2.113-.16.569.5.577.525.577 1.794 0 1.37-.17 2.293-.685 3.74-.682 1.914-.938 2.475-1.474 3.224a14.506 14.506 0 00-.953 1.567c-.219.435-.567.95-.772 1.143-.206.194-.48.597-.61.897-.13.3-.381.583-.558.63-.438.114-.806.72-1.083 1.785-.486 1.865-.207 2.51 1.086 2.508.745-.002 1.966-.276 2.11-.475.045-.062.375-.248.735-.414.359-.166.8-.456.98-.645.181-.188.55-.526.82-.75.27-.225.652-.668.847-.986.196-.317.546-.795.777-1.06.231-.267.467-.669.524-.893.057-.225.382-.996.723-1.715.34-.718.703-1.673.805-2.122.557-2.435 1.561-4.653 2.107-4.653.433 0 .71.423.615.937-.14.746-.95 3.36-1.178 3.798-.116.224-.48 1.142-.806 2.04-.327.898-.777 2.11-.999 2.694-.753 1.977-.845 3.356-.296 4.441.342.675.278 1.093-.2 1.31-.375.171-.458.148-.731-.207-.3-.39-.858-1.48-1.144-2.231-.128-.335-.185-.352-.595-.179-.25.106-.674.396-.943.644-.567.521-1.35.874-2.896 1.304-2.178.606-3.58.209-3.97-1.126-.112-.384-.166-.843-.12-1.02.161-.615-.552-.35-1.86.693-2.126 1.693-2.906 1.975-5.347 1.938-1.374-.02-1.77-.09-2.595-.461-.882-.396-1.01-.519-1.358-1.307-.748-1.69-.232-4.275.673-3.371.375.375.516.705.724 1.688.244 1.154.543 1.476 1.367 1.476 1.124 0 1.921-.328 2.16-.888.399-.938.732-2.25.732-2.886v-.634l-1.02.002a10.98 10.98 0 00-2.055.246c-.569.134-1.708.274-2.53.31-.824.037-1.614.114-1.758.17-.44.175-.917.963-1.044 1.728-.134.808-.324 1.245-.717 1.654a9.67 9.67 0 00-.657.816c-.459.635-1.947 1.766-2.685 2.04-.607.227-1.677.254-2.17.055zm27.19 5.017a1.291 1.291 0 01-.368-.537c-.058-.184-.473-.768-.921-1.299-.45-.53-.816-1.06-.816-1.176 0-.116-.055-.211-.123-.212-.178-.002-.694-.957-.694-1.285 0-.36.313-.673.672-.673.27 0 1.679 1.632 2.097 2.429.112.213.457.72.767 1.125.697.914.722 1.727.056 1.792-.224.022-.526-.052-.67-.164zm-13.099 2.383c-.339-.34.238-1.492 1.32-2.638.112-.118.204-.324.204-.455 0-.132.147-.528.326-.88.384-.752.411-1.426.077-1.868-.33-.437-.3-.864.076-1.065.423-.227 1.154.054 1.154.443 0 .162.117.463.261.668.194.277.234.561.154 1.094-.06.396-.177.763-.262.815-.084.053-.153.244-.153.425 0 .397-1.88 3.189-2.297 3.412-.342.183-.705.204-.86.049z"/></svg>