<svg xmlns="http://www.w3.org/2000/svg" height="25.884" width="47.636"><path d="M.2 9.428c-.355-.143-.222-.697.278-1.16.668-.619 1.976-3.279 2.008-4.082.021-.524-.085-.771-.58-1.349-.668-.78-.709-.932-.378-1.385.222-.303.24-.303.924.005.57.258.77.473 1.096 1.187.435.95.42 1.81-.047 2.71-.132.255-.24.63-.24.831 0 .202-.174.543-.386.757a4.52 4.52 0 00-.672.961C1.497 9.309.946 9.729.2 9.428zm38.465 4.008c-.831-.627.39-1.124 2.754-1.123.968 0 2.661-.087 3.762-.196 1.794-.176 2.03-.17 2.266.067.178.178.23.401.158.686-.098.39-.173.422-1.013.422-.5 0-1.765.071-2.814.159-3.396.284-4.723.28-5.113-.015zm-12.147-2.16c.229-.3.416-.593.416-.65 0-.058.296-.589.658-1.18.362-.591.763-1.456.892-1.921.13-.465.383-1.278.565-1.805.5-1.448.778-3.601.508-3.926-.254-.307-.826-.344-.829-.054-.002.112-.405 1-.898 1.971-.654 1.291-.896 1.948-.896 2.44 0 .878-.288 2.424-.66 3.548-.669 2.017-.572 2.646.244 1.577zM14.445 18.41c-1.409-.6-1.638-.866-1.85-2.149-.1-.603-.15-1.243-.113-1.421.037-.18.11-.597.163-.929.066-.409.203-.636.425-.707.553-.175.803.2.804 1.208.002 1.078.237 2.03.589 2.383.177.177.583.25 1.389.25.989 0 1.19-.052 1.536-.398.219-.219.518-.696.664-1.061.145-.365.319-.663.385-.663.21 0 .69-1.856.633-2.45l-.054-.57-1.47.026c-5.245.095-6.51.185-6.726.48-.116.16-.212.394-.212.521 0 .128-.21.683-.466 1.235-.256.551-.56 1.244-.675 1.54-.116.295-.33.626-.477.734-.147.109-.497.482-.779.829-.602.743-2.067 1.408-3.102 1.409-.547 0-.794-.105-1.248-.533-.498-.47-.578-.66-.67-1.592-.1-1.026.05-2.658.366-3.997.4-1.7.576-2.327.79-2.834.127-.301.301-1.33.386-2.286.086-.955.261-2.141.39-2.635.13-.494.32-1.228.425-1.632.337-1.31.863-2.287 1.207-2.244.51.065.693.523.454 1.137-.274.704-.846 3.78-.846 4.549 0 .332-.174 1.254-.387 2.05-1.38 5.156-1.668 7.03-1.25 8.13.134.35.263.418.795.418.388 0 .796-.127 1.05-.326.228-.18.477-.33.552-.336.432-.028 2.179-3.139 2.179-3.878 0-.72.255-1.287.686-1.524.262-.145 1.312-.213 3.477-.227 2.61-.017 3.32-.077 4.471-.375 1.82-.47 2.204-.46 2.442.062.338.742.222 2.044-.313 3.512-.277.758-.597 1.488-.713 1.623-.116.135-.26.45-.32.702-.107.453-.101.457.51.346.34-.062.815-.212 1.058-.335.242-.123.546-.223.675-.223.24 0 1.295-.971 2.108-1.94.317-.376.45-.716.45-1.15 0-.34.188-1.124.418-1.743.656-1.765.901-2.67 1.058-3.902.216-1.687.535-2.726 1.265-4.116.198-.378.36-.77.36-.87 0-.428 1.175-1.91 1.785-2.254.735-.412.944-.36 1.684.418.38.4.464.66.554 1.724.077.911.05 1.321-.103 1.505-.115.139-.264.526-.33.861-.574 2.915-1.897 5.863-3.222 7.183-.202.201-.368.436-.368.523 0 .086-.375.517-.833.956-.706.677-.845.91-.905 1.517-.092.925.191 1.43.977 1.74.522.206.77.214 1.498.052.89-.2 2.365-1.156 2.365-1.533 0-.11.142-.287.315-.395 1.275-.796 4.21-6.153 4.497-8.209.057-.404.198-.881.314-1.06.116-.18.263-.548.326-.817.063-.27.314-.875.556-1.347.618-1.2 1.34-1.176 1.34.044 0 .212-.068.428-.151.479-.083.051-.2.33-.26.622-.06.29-.21.859-.331 1.263a49.841 49.841 0 00-.414 1.47c-.106.404-.411 1.359-.679 2.122a20.034 20.034 0 00-.709 2.694 63.095 63.095 0 01-.478 2.464c-.294 1.335-.205 1.727.558 2.446.98.926.462 1.76-.756 1.215-.53-.238-.745-.466-1.024-1.09a6.559 6.559 0 01-.445-1.648c-.05-.471-.137-.854-.192-.852-.196.01-.62.41-.806.758-.193.362-1.612 1.506-2.795 2.252-.582.368-.827.414-2.209.414H25.14l-.653-.59c-.36-.325-.654-.693-.654-.817s-.075-.226-.168-.226c-.296 0-1.355.49-2.124.984-.41.264-1.42.7-2.243.972-1.964.647-3.435.666-4.852.063zm17.705 5.456c-.265-.29-.48-.583-.48-.652 0-.177-.484-.762-1.103-1.332-.292-.269-.53-.557-.53-.64 0-.082-.22-.428-.489-.767-.664-.838-.698-1.313-.115-1.599.444-.218.478-.202 1.143.542.377.421.795.96.93 1.197.135.238.375.578.533.757 1.092 1.233 1.328 1.615 1.328 2.15 0 .51-.244.86-.605.867-.072.002-.348-.234-.612-.523zm-13.542 1.658c0-.478.26-.918 1.167-1.97.435-.507.792-1.021.793-1.144 0-.122.147-.443.325-.712.393-.594.412-1.03.067-1.524a.97.97 0 01-.158-.78c.087-.346.184-.402.624-.36.413.041.597.186.89.705.202.359.37.838.37 1.065.004.508-1.16 2.82-1.713 3.405-.223.235-.655.703-.96 1.04-.643.707-1.405.857-1.405.275z" stroke-width=".163"/></svg>