<svg xmlns="http://www.w3.org/2000/svg" height="23.989" width="34.037"><path d="M.096 8.395c-.215-.56-.08-.892.517-1.288.34-.224.756-.648.927-.941.17-.293.36-.57.422-.615.262-.19 1.137-2.193 1.137-2.604 0-.304-.264-.749-.826-1.391C1.782.994 1.484.516 1.538.374c.05-.13.092-.268.092-.306 0-.037.222-.068.493-.068.721 0 1.862 1.104 2.204 2.132.276.832.246 1.097-.244 2.194-.16.36-.338.764-.394.898-.056.135-.287.54-.513.898-.226.36-.454.745-.506.858-.053.112-.177.204-.276.204-.099 0-.483.33-.854.734-.69.753-1.265.942-1.444.477zm16.827 3.245c.26-.325.443-2.453.306-3.556-.088-.702-.175-.9-.396-.9-.43 0-3.612 2.936-3.612 3.333 0 .12.328.52.73.89l.728.671 1.026-.1c.601-.057 1.106-.198 1.218-.338zm13.115 1.258c0-.09.108-.163.24-.163.452 0 1.445-1.06 1.908-2.04.656-1.386.616-1.722-.322-2.695-.764-.792-.814-.816-1.72-.816-.793 0-.989.062-1.296.41-.198.227-.71.777-1.137 1.225-.426.447-.775.89-.775.983 0 .094-.14.37-.31.613-.17.243-.35.674-.4.957-.08.446-.038.528.309.616.22.055.4.172.4.26 0 .089.148.308.327.487.269.269.545.327 1.551.327.708 0 1.225-.07 1.225-.164zM21.115 23.75c-.11-.285.361-2.091.677-2.598.115-.184.365-1.18.556-2.212.19-1.032.538-2.392.77-3.02.234-.629.493-1.547.578-2.041.084-.494.22-1.229.303-1.633.372-1.818.378-1.959.08-1.959-.156 0-.697.356-1.203.792-.506.435-1.103.837-1.328.892-.224.055-.645.317-.935.583-.61.56-1.655.89-3.72 1.174-2.018.278-2.846.013-3.97-1.268-.916-1.045-.856-1.05-2.559.26-2.513 1.933-4.58 2.309-6.329 1.15-1.425-.944-1.782-2.633-1.016-4.808.326-.926.565-1.292 1.262-1.931 1.662-1.525 2.975-2.039 4.37-1.71.956.226 1.214.474 1.074 1.032-.1.399-.164.43-.715.353a12.096 12.096 0 01-1.052-.198c-.31-.079-.682-.003-1.21.245-.861.405-2.009 1.301-2.013 1.572-.002.099-.122.418-.268.71-.408.818-.495 2.515-.156 3.032.442.675 1.219 1.057 2.15 1.058.748 0 .993-.105 2.43-1.045.878-.575 2.189-1.586 2.913-2.245.724-.66 1.682-1.53 2.13-1.934.447-.404 1.143-1.047 1.547-1.428.403-.382.788-.694.856-.694.067 0 .38-.25.695-.557.315-.306.718-.602.895-.658.37-.118.8.24.933.777.09.365-.173 4.768-.35 5.866-.096.588-.081.612.367.611.521-.002 1.933-.754 2.41-1.286.172-.19.409-.345.527-.345.119 0 .326-.214.461-.475.136-.262.417-.61.626-.776.208-.165.43-.41.494-.545.064-.135.261-.465.44-.735.44-.666 1.468-2.847 1.468-3.113 0-.324.664-.723 1.203-.723h.477l-.099 1.06c-.054.583-.175 1.203-.268 1.377-.17.318-.242 1.807-.087 1.807.045 0 .397-.32.782-.71.385-.39 1.018-.92 1.406-1.176.61-.404.856-.466 1.827-.457.958.01 1.221.079 1.792.474.368.255.902.799 1.186 1.208.637.916.684 1.985.137 3.1-.196.399-.356.815-.356.924 0 .354-1.688 1.936-2.562 2.4-.687.366-1.08.456-2.07.477-1.161.023-1.272-.007-2.148-.589-.508-.337-.944-.59-.97-.56-.025.029-.243.75-.485 1.603-.241.853-.505 1.698-.586 1.878-.223.496-.648 2.282-.648 2.726 0 .216-.07.462-.154.547-.085.086-.226.45-.315.809-.255 1.032-.663 2.052-.924 2.314-.132.132-.24.337-.24.455 0 .427-.931.567-1.086.163z" stroke-width=".163"/></svg>