<svg xmlns="http://www.w3.org/2000/svg" height="23.991" width="34.037"><path d="M.096 8.396c-.215-.559-.08-.892.517-1.288.34-.224.756-.647.927-.94.17-.294.36-.57.422-.616C2.225 5.362 3.1 3.36 3.1 2.948c0-.304-.264-.749-.826-1.392C1.782.995 1.484.516 1.54.374c.05-.13.09-.268.09-.306 0-.037.223-.068.494-.068.721 0 1.862 1.104 2.204 2.132.277.832.247 1.097-.243 2.195-.16.36-.338.763-.394.898-.057.135-.288.539-.513.898-.226.36-.454.745-.506.857-.053.112-.177.204-.276.204-.1 0-.484.33-.855.735-.69.752-1.265.942-1.444.476zm16.83 3.245c.26-.325.443-2.454.306-3.557-.088-.701-.175-.9-.396-.9-.43 0-3.612 2.937-3.612 3.334 0 .12.328.52.729.89l.729.671 1.026-.099c.6-.058 1.105-.198 1.218-.339zm13.11 1.258c0-.09.108-.163.24-.163.452 0 1.445-1.06 1.908-2.039.656-1.387.616-1.723-.322-2.696-.763-.792-.813-.816-1.72-.816-.793 0-.988.062-1.295.411-.199.226-.71.777-1.137 1.224-.426.447-.775.89-.775.984 0 .094-.14.37-.31.613-.17.243-.35.674-.4.957-.08.446-.038.528.309.615.22.056.4.173.4.261 0 .088.148.307.327.487.269.268.544.326 1.551.326.708 0 1.224-.069 1.224-.163zm-8.923 10.85c-.11-.285.361-2.092.677-2.598.115-.184.365-1.18.556-2.212.19-1.033.538-2.392.77-3.02.234-.628.493-1.547.578-2.04.084-.494.22-1.23.303-1.634.372-1.818.378-1.959.08-1.959-.156 0-.697.357-1.203.792-.506.436-1.104.837-1.328.892-.224.055-.645.318-.935.584-.61.56-1.655.89-3.72 1.174-2.019.277-2.846.013-3.97-1.268-.916-1.044-.856-1.05-2.559.26-2.514 1.933-4.58 2.308-6.329 1.15-1.425-.944-1.782-2.633-1.016-4.808.326-.926.566-1.292 1.262-1.93 1.662-1.526 2.975-2.04 4.37-1.71.957.226 1.215.474 1.075 1.031-.1.399-.164.43-.715.354a12.066 12.066 0 01-1.052-.199c-.31-.078-.682-.003-1.21.246-.861.404-2.009 1.3-2.013 1.572-.002.098-.122.418-.268.71-.408.817-.495 2.515-.156 3.032.442.675 1.219 1.057 2.15 1.058.749 0 .994-.105 2.43-1.045.878-.575 2.19-1.585 2.913-2.245.724-.66 1.682-1.53 2.129-1.934.447-.404 1.144-1.047 1.547-1.43.404-.38.789-.693.856-.693.067 0 .38-.25.695-.557.316-.306.718-.602.895-.658.37-.118.801.241.933.777.09.365-.173 4.767-.35 5.866-.095.588-.08.613.368.611.52-.002 1.932-.754 2.41-1.286.172-.19.409-.345.527-.345.119 0 .326-.214.461-.476.136-.261.417-.61.626-.775.208-.165.43-.41.494-.545a8.24 8.24 0 01.44-.735c.44-.667 1.468-2.847 1.468-3.113 0-.324.664-.724 1.203-.724h.477l-.099 1.06c-.054.584-.175 1.203-.268 1.377-.17.318-.242 1.808-.087 1.808.045 0 .398-.32.783-.71.385-.39 1.017-.92 1.405-1.177.61-.403.856-.465 1.828-.456.957.009 1.22.078 1.792.474.368.255.901.798 1.186 1.207.636.917.684 1.985.137 3.1-.196.4-.356.815-.356.925 0 .354-1.689 1.936-2.562 2.401-.687.366-1.079.456-2.07.476-1.16.024-1.272-.007-2.148-.589-.508-.337-.944-.59-.97-.56-.025.029-.243.75-.484 1.604-.242.853-.505 1.698-.586 1.878-.224.496-.649 2.282-.649 2.726 0 .216-.069.462-.154.548-.084.085-.226.449-.315.808-.255 1.033-.662 2.053-.923 2.314-.132.132-.24.337-.24.456 0 .426-.932.566-1.086.163z" stroke-width=".163"/></svg>