<svg xmlns="http://www.w3.org/2000/svg" height="30.188" width="56.438"><path d="M.232 13.932c-.405-.406-.311-.684.537-1.59.974-1.04 1.819-2.757 1.819-3.695 0-.555-.105-.786-.572-1.267-.581-.6-.683-.926-.418-1.344.122-.192.26-.2.78-.044 2.367.709 1.826 5.113-.934 7.606-.735.665-.85.696-1.212.334zM54.328 4.97c.884-1.556 1.061-2.505.641-3.427-.232-.51-.318-.516-.734-.049-1.001 1.122-2.513 5.611-2.047 6.077.198.199 1.334-1.182 2.14-2.6zM40.465 9.397c.224-.423.65-1.217.947-1.763.86-1.586 1.802-4.981 1.558-5.618-.266-.692-1.166.527-1.694 2.294a48.05 48.05 0 01-.743 2.123 38.046 38.046 0 00-.812 2.417c-.442 1.587.014 1.922.744.547zm-24.578 7.865c.311-.95.545-3.727.314-3.727-.082 0-.699.6-1.37 1.334-.673.733-1.352 1.468-1.51 1.632-.4.42-.366.535.324 1.104.463.382.77.501 1.287.501.673 0 .681-.007.955-.844zm13.47.603c.903-.468 1.862-2.514 1.875-4.004.024-2.558-1.589-2.606-3.968-.12-1.45 1.518-1.507 1.594-2.17 2.935-.306.621-.048 1.19.677 1.488.41.169 3.119-.058 3.586-.3zm-10.28 11.703c0-.342.292-1.526.649-2.633.357-1.106.766-2.719.91-3.583.144-.865.366-1.935.494-2.378.128-.442.235-1.14.238-1.55.003-.41.113-.889.245-1.063.35-.462.311-1.071-.067-1.071-.169 0-.404.118-.524.262-.327.394-1.95 1.445-2.598 1.684-.314.115-.718.267-.898.338-.18.07-.694.205-1.144.298-1.359.281-3.672-.378-3.672-1.046 0-.312-.756-.775-1.014-.622-.116.07-.468.327-.782.573-1.012.79-3.443 1.63-5.395 1.863-.81.096-.985.06-1.661-.356-1.107-.68-1.855-2.158-1.809-3.576a5.78 5.78 0 01.468-2.059c.438-1.04 1.29-2.394 1.654-2.628a3.07 3.07 0 00.408-.338c.6-.597 1.175-.82 2.146-.828.925-.01 1.074.042 1.869.64.475.358.904.81.953 1.006.287 1.143-.466 1.353-1.415.394-1.008-1.019-1.695-1.073-2.808-.223-1.074.82-2.036 3.15-1.879 4.55.07.61.22.89.796 1.478l.712.724 1.143-.106c.63-.06 1.401-.214 1.716-.346 1.506-.628 2.29-1.083 2.97-1.721.407-.383 1.175-1.1 1.707-1.594s1.145-1.155 1.361-1.47c.217-.313.747-.971 1.178-1.46.431-.49.786-.967.788-1.062.002-.094.26-.447.574-.783.593-.639 1.282-.81 1.675-.417.236.237.259 1.601.035 2.123-.088.207-.238 1.183-.333 2.171-.094.988-.213 2.153-.264 2.588l-.092.793.53-.117c.709-.156 3.08-1.857 3.678-2.639.263-.344.715-1.095 1.005-1.669.29-.574.63-1.162.754-1.306.126-.144.348-.63.495-1.078.366-1.121.892-1.743 1.367-1.613.514.14.472.637-.22 2.592-.726 2.054-.827 2.533-.533 2.526.294-.007.794-.393.794-.613 0-.365 2.1-2.266 3.164-2.864 1.836-1.032 2.708-1.019 3.41.053.775 1.185 1.004 2.785.529 3.696-.134.257-.244.67-.245.917-.002.656.415.583 1.994-.35 1.602-.948 2.893-2.277 3.03-3.12.05-.314.263-.913.472-1.33.21-.417.38-.952.38-1.19 0-.237.14-.706.312-1.042.172-.336.437-1.05.59-1.586.153-.536.343-1.044.423-1.13.08-.085.145-.361.145-.614 0-.252.068-.587.15-.743.472-.89.83-1.708.83-1.895 0-.117.222-.659.494-1.204.41-.819.607-1.034 1.146-1.25.803-.321 1.028-.325 1.611-.023.812.42.816 1.807.014 4.823-.202.764-.506 1.563-.674 1.777-.168.215-.306.516-.306.67 0 .154-.21.571-.469.928-.258.356-.525.827-.593 1.045-.069.218-.173.433-.233.478-.06.045-.357.43-.659.857-.302.427-.594.776-.648.776-.054 0-.24.275-.412.612-.172.337-.62.943-.994 1.347-.38.412-.802 1.094-.956 1.551-.952 2.818-.971 2.892-.803 3.16.605.965 2.919-.465 4.231-2.617.311-.51.632-.95.713-.98.08-.029.324-.53.541-1.114.484-1.302.947-1.649 1.795-1.342.303.11.809.2 1.123.2.671 0 2.1-.455 2.1-.67 0-.08.118-.147.263-.147.145 0 .555-.164.912-.365.703-.395 1.222-1.23 1.446-2.329.697-3.402.834-3.868 1.636-5.55.257-.54.648-1.385.868-1.879.295-.662.583-1.015 1.098-1.346.787-.506 1.256-.558 1.927-.211.52.27.622.542.763 2.047.088.934.049 1.162-.325 1.902-.234.462-.426.888-.426.947 0 .06-.349.626-.775 1.26-.427.633-.92 1.382-1.096 1.664-.176.282-.404.587-.506.676-.102.09-.384.432-.625.76-.242.327-.804.96-1.25 1.405-.561.562-.809.941-.809 1.24 0 .238-.18.781-.401 1.208-.787 1.522-1.05 2.143-1.165 2.76a6.92 6.92 0 01-.337 1.153c-.282.677-.271 1.65.026 2.168.38.665.312 1.283-.152 1.4-.679.17-.987-.045-1.241-.869-.466-1.507-.097-3.709.921-5.489.673-1.176.404-1.679-.616-1.15-.722.374-1.478.572-2.666.698-.859.091-1.005.16-1.193.553-.118.247-.27.45-.34.45-.069 0-.297.348-.507.775-.21.426-.572 1.008-.804 1.292a18.83 18.83 0 00-.717.94c-.162.233-.676.699-1.143 1.036-1.856 1.341-3.118 1.544-4.213.677-.594-.47-.635-.559-.63-1.347.003-.464.11-1.027.24-1.251.347-.61.302-.678-.368-.562-.592.103-1.572.631-2.245 1.211-.297.256-1.036.553-2.49.999-.292.09-.53.226-.53.303 0 .224-2.887.987-3.732.987-.254 0-.89-.147-1.411-.326-.522-.18-.962-.327-.978-.327-.026 0-.484 1.031-1 2.25-.124.296-.229.663-.232.817-.003.154-.113.423-.245.597a1.33 1.33 0 00-.24.68c0 .593-.462 2.226-1.067 3.766-.31.791-.565 1.522-.565 1.622 0 .379-.684 1.044-1.073 1.044-.35 0-.396-.073-.396-.62z"/></svg>