<svg xmlns="http://www.w3.org/2000/svg" height="28.489" width="26.076"><path d="M.077 9.02c-.147-.549-.157-.526.641-1.374.41-.434.928-1.193 1.153-1.687.225-.494.487-1.038.58-1.21.095-.172.21-.738.258-1.26.083-.92.068-.964-.514-1.546-.573-.574-.671-.796-.614-1.395.063-.649 1.283-.363 1.676.392.105.201.322.492.482.647.17.163.339.65.403 1.169.093.738.042 1.064-.301 1.923-.227.57-.466 1.256-.531 1.525-.134.558-.531 1.181-1.354 2.122C1.01 9.411.256 9.69.077 9.02zm18.908 5.344c.916-.419 1.234-.772 1.234-1.374 0-.278-.103-.337-.582-.337-1.039 0-2.193.876-2.193 1.663 0 .59.336.6 1.542.048zM15.92 28.38c-.256-.255-.073-.955.393-1.504.584-.686 1.866-2.662 2.56-3.945.503-.93 1.673-3.75 1.673-4.033 0-.09.18-.488.402-.884.428-.765.689-2.282.513-2.981-.126-.503-.66-.571-.904-.115-.223.415-2.01 1.12-3.121 1.23-1.063.107-1.543-.138-1.703-.867-.198-.902.554-1.993 2.2-3.19 1.268-.921 1.854-1.033 3.446-.654.38.09.512-.018 1.243-1.022.449-.618.918-1.414 1.043-1.77.124-.355.263-.682.308-.727.121-.12.497-1.137.665-1.796.57-2.247-.402-4.898-1.796-4.898-.846 0-3.327 1.29-4.01 2.087-.18.209-.564.633-.853.943a13.774 13.774 0 00-2.318 3.419 255.07 255.07 0 01-.844 1.796c-.171.359-.409.95-.527 1.315-.37 1.142-3.338 4.614-4.235 4.955-.812.309-2.367.385-3.498.172-.99-.187-1.209-.301-1.982-1.04-1.127-1.078-1.335-1.6-1.335-3.34 0-1.274.052-1.507.535-2.427.778-1.483 1.579-2.355 2.723-2.965 1.228-.655 1.887-.68 2.86-.11.841.493 1.135.935.995 1.496-.135.537-.596.501-1.236-.097-.77-.72-1.402-.666-2.483.208-1.181.954-1.812 2.229-1.898 3.834-.075 1.41.08 1.719 1.233 2.459 1.054.676 2.8.88 3.752.44.742-.344 1.355-.875 1.355-1.174 0-.119.287-.503.638-.853.35-.35.866-1.104 1.147-1.674.281-.57.579-1.146.661-1.28.164-.267.497-1.056.827-1.96.114-.314.371-.755.571-.98.2-.224.507-.74.682-1.145.444-1.024 2.826-3.513 3.605-3.766.332-.109.928-.418 1.323-.689.415-.283 1.162-.584 1.764-.71.988-.207 1.085-.2 1.811.148.673.321.844.516 1.39 1.59.613 1.21.62 1.245.553 2.776-.083 1.891-.336 2.847-1.135 4.292-.337.609-.612 1.21-.612 1.337 0 .126-.068.271-.15.322-.082.051-.454.62-.825 1.263l-.674 1.17.151 1.252c.197 1.63-.133 3.401-.897 4.813-.097.18-.376.908-.619 1.618-.733 2.143-1.989 4.522-3.15 5.968-.38.476-.693.962-.693 1.08 0 .461-1.195.942-1.524.613z" stroke-width=".163"/></svg>