<?xml version="1.0" encoding="UTF-8" standalone="no"?>
<svg
   xmlns:dc="http://purl.org/dc/elements/1.1/"
   xmlns:cc="http://creativecommons.org/ns#"
   xmlns:rdf="http://www.w3.org/1999/02/22-rdf-syntax-ns#"
   xmlns:svg="http://www.w3.org/2000/svg"
   xmlns="http://www.w3.org/2000/svg"
   id="svg2663"
   viewBox="0 0 26.076225 28.488787"
   version="1.1"
   height="28.488787"
   width="26.076225">
  <defs
     id="defs2667" />
  <metadata
     id="metadata2">
    <rdf:RDF>
      <cc:Work
         rdf:about="">
        <dc:format>image/svg+xml</dc:format>
        <dc:type
           rdf:resource="http://purl.org/dc/dcmitype/StillImage" />
        <dc:title />
      </cc:Work>
    </rdf:RDF>
  </metadata>
  <g
     transform="translate(-220.27251,-436.81976)"
     id="g2661">
    <g
       style="stroke-width:0.16327"
       id="g2557">
      <path
         d="m 220.35,445.84 c -0.1472,-0.54926 -0.1578,-0.52652 0.64068,-1.374 0.40898,-0.43407 0.92783,-1.1933 1.153,-1.6872 0.22516,-0.49387 0.48636,-1.0384 0.58041,-1.2101 0.0941,-0.17165 0.20968,-0.73843 0.25693,-1.2595 0.0834,-0.92015 0.0687,-0.96459 -0.51353,-1.5468 -0.57326,-0.57325 -0.67132,-0.79614 -0.61359,-1.3947 0.0626,-0.64896 1.2826,-0.36328 1.6758,0.39239 0.10463,0.20111 0.32163,0.49189 0.48223,0.64617 0.17048,0.16381 0.33819,0.65031 0.40302,1.1692 0.0922,0.7381 0.0411,1.064 -0.30184,1.9235 -0.22707,0.56921 -0.46585,1.2553 -0.5306,1.5247 -0.13415,0.55811 -0.53149,1.1811 -1.3537,2.1224 -0.94774,1.0851 -1.6995,1.3627 -1.8788,0.69388 z m 18.908,5.3442 c 0.91594,-0.41896 1.2336,-0.77278 1.2336,-1.3742 0,-0.27778 -0.10266,-0.33726 -0.58215,-0.33726 -1.0385,0 -2.1934,0.87574 -2.1934,1.6632 0,0.58893 0.33683,0.59946 1.542,0.0482 z m -3.0658,14.016 c -0.25586,-0.25586 -0.0728,-0.9551 0.39376,-1.504 0.58377,-0.68676 1.8653,-2.6627 2.5591,-3.9458 0.50312,-0.93045 1.673,-3.7505 1.673,-4.0329 0,-0.0898 0.18119,-0.48747 0.40265,-0.88369 0.42765,-0.76515 0.6887,-2.2818 0.51316,-2.9812 -0.12624,-0.50295 -0.66082,-0.57104 -0.90477,-0.11521 -0.22209,0.41497 -2.0096,1.1202 -3.121,1.2313 -1.0621,0.10619 -1.5426,-0.13859 -1.7026,-0.86744 -0.1983,-0.90286 0.55391,-1.9936 2.2004,-3.1906 1.2673,-0.92134 1.8539,-1.0326 3.4457,-0.65352 0.3801,0.0905 0.51224,-0.0182 1.2425,-1.0222 0.44943,-0.61792 0.91887,-1.4142 1.0432,-1.7696 0.12433,-0.35537 0.26315,-0.68284 0.30854,-0.72774 0.12077,-0.1195 0.49703,-1.1366 0.66437,-1.7959 0.57024,-2.2467 -0.40166,-4.898 -1.7955,-4.898 -0.84617,0 -3.3271,1.2908 -4.0108,2.0867 -0.1796,0.20906 -0.56337,0.63375 -0.85282,0.94373 -0.91469,0.97954 -1.7674,2.2375 -2.3172,3.4185 -0.29264,0.62857 -0.67251,1.4367 -0.84415,1.7959 -0.17164,0.35918 -0.40878,0.95094 -0.527,1.315 -0.37083,1.1421 -3.3387,4.6147 -4.2354,4.9556 -0.81162,0.30857 -2.367,0.38485 -3.4983,0.17154 -0.99045,-0.18674 -1.2084,-0.30114 -1.9814,-1.0403 -1.1276,-1.078 -1.3356,-1.5987 -1.3347,-3.3402 0,-1.2737 0.0519,-1.5061 0.53432,-2.426 0.77807,-1.4836 1.579,-2.3559 2.7233,-2.9658 1.2277,-0.65435 1.8872,-0.67966 2.8597,-0.10971 0.84147,0.49312 1.1355,0.9352 0.99476,1.4958 -0.13486,0.53734 -0.59501,0.50128 -1.2353,-0.0968 -0.76976,-0.71905 -1.4021,-0.66617 -2.4837,0.20774 -1.1807,0.95401 -1.8115,2.2289 -1.8971,3.8344 -0.0752,1.4101 0.0797,1.719 1.2329,2.459 1.0535,0.67602 2.8006,0.8809 3.7516,0.43997 0.74249,-0.34426 1.3555,-0.87502 1.3555,-1.1737 0,-0.11903 0.2867,-0.50313 0.63711,-0.85355 0.3504,-0.3504 0.86688,-1.1035 1.1477,-1.6735 0.28082,-0.56999 0.57839,-1.1466 0.66126,-1.2812 0.16353,-0.26578 0.4963,-1.0549 0.82614,-1.9592 0.11464,-0.31428 0.3718,-0.7551 0.57146,-0.97959 0.19966,-0.22449 0.50674,-0.73979 0.68242,-1.1451 0.44383,-1.0241 2.8256,-3.5127 3.6048,-3.7666 0.3321,-0.10822 0.92744,-0.4179 1.323,-0.68818 0.41461,-0.28333 1.1614,-0.58413 1.7635,-0.71034 0.98809,-0.20713 1.0856,-0.19918 1.8115,0.14768 0.67306,0.32164 0.84339,0.51675 1.389,1.5911 0.61419,1.2094 0.62103,1.2437 0.55354,2.7755 -0.0833,1.891 -0.33589,2.8464 -1.1346,4.2913 -0.33674,0.60923 -0.61225,1.211 -0.61225,1.3373 0,0.1263 -0.0675,0.27134 -0.14997,0.32233 -0.0825,0.051 -0.45355,0.61925 -0.82462,1.2628 l -0.67465,1.1702 0.15128,1.2514 c 0.19698,1.6294 -0.13328,3.4016 -0.89707,4.8136 -0.0971,0.17959 -0.37561,0.9078 -0.61881,1.6182 -0.73355,2.1428 -1.9887,4.5212 -3.1494,5.9678 -0.38163,0.47564 -0.69388,0.96124 -0.69388,1.0791 0,0.46183 -1.1946,0.943 -1.5238,0.61378 z"
         id="access" />
    </g>
  </g>
</svg>
