<svg xmlns="http://www.w3.org/2000/svg" height="23.728" width="47.156"><path d="M.267 8.064c-.44-.256-.344-.686.344-1.558.74-.937 1.493-2.92 1.493-3.937 0-.514-.116-.87-.408-1.253-.519-.68-.516-.975.012-1.215.357-.162.494-.14.899.148.262.187.55.477.64.645.262.489.193 2.806-.112 3.777-.278.883-1.172 2.456-1.517 2.67-.103.063-.254.291-.337.507-.157.413-.537.494-1.014.216zm43.566 5.461c-.176-.459.096-1.905.517-2.745 1.065-2.126 1.43-4.039.947-4.97-.248-.48-.316-.508-1.197-.507-.884.002-.986.045-1.887.816-.523.448-1.014.815-1.09.815-.077 0-.191.165-.254.367-.062.202-.27.588-.46.858-.49.695-1 1.837-1.316 2.956-.508 1.796-1.04 2.513-1.864 2.513-.66 0-.668-.765-.023-2.204.27-.6.49-1.17.49-1.265 0-.095.188-.571.418-1.057.861-1.82.869-3.513.017-3.727-.432-.108-.806-.747-.66-1.127.12-.314.621-.466 1.082-.328.202.06.635.396.961.746.625.67 1.148.804 1.598.41.572-.502 2.601-1.244 3.4-1.244.707 0 .875.072 1.4.596 1.136 1.137 1.53 2.55 1.032 3.706-.616 1.431-1.292 3.377-1.42 4.09-.078.439-.305.971-.503 1.183-.417.443-1.04.506-1.188.118zm-26.463-2.25c.217-.217.442-.585.5-.817.058-.232.165-.422.236-.422.072 0 .248-.344.39-.764.303-.887.353-2.501.079-2.501-.317 0-2.87 2.787-3.095 3.377-.234.617-.18 1.161.134 1.344.522.304 1.335.203 1.756-.217zm12.521.528c.694-.208 1.438-.955 1.438-1.443 0-.168.075-.35.166-.407.282-.175.931-1.595 1.047-2.292a2.285 2.285 0 00-.6-1.992c-.264-.282-.525-.368-1.125-.368-.775 0-.793.013-2.47 1.71-1.452 1.47-1.718 1.823-1.897 2.522-.232.904-.171 1.084.573 1.705.916.765 1.692.917 2.868.565zm-9.73 11.547c-.057-.23.036-.985.208-1.682.172-.696.355-1.559.407-1.918.052-.359.317-1.345.59-2.19.271-.846.493-1.675.493-1.842 0-.168.184-.668.409-1.11.224-.444.408-.956.408-1.138 0-.183.062-.332.138-.332.2 0 .678-1.57.678-2.223 0-.307-.083-.552-.187-.552-.103 0-.523.275-.934.612-.41.336-1.029.74-1.375.895a6.1 6.1 0 00-1.048.612c-.23.181-.574.332-.764.335-.19.003-.488.113-.662.245-.222.168-.741.24-1.736.24h-1.42l-.59-.654c-.324-.36-.59-.727-.59-.817 0-.346-.68-.137-1.265.388-1.307 1.174-4.256 2.388-5.801 2.388-1.501 0-2.545-.274-3.197-.84-.925-.803-1.053-1.16-1.023-2.87.03-1.675.401-2.961 1.095-3.785.217-.259.395-.538.395-.62 0-.215.77-.889 1.701-1.49.623-.4.984-.517 1.601-.517.748 0 .849.053 1.61.846.912.952 1.135 1.503.76 1.878-.346.346-.783.158-1.257-.538-.84-1.236-1.406-1.278-2.718-.2-.964.793-1.509 1.792-1.81 3.32-.263 1.332-.098 2.157.58 2.898.397.434.467.449 2.08.449 1.895 0 3.312-.35 4.223-1.046.305-.233.608-.423.673-.423.11 0 1.313-1.03 2.435-2.082.776-.73 2.637-2.85 3.105-3.541.236-.347.767-1.023 1.182-1.504.62-.717.848-.873 1.277-.873.326 0 .56.097.622.258.147.382.12 1.638-.056 2.67l-.335 1.97c-.099.583-.323 1.26-.498 1.503-.333.464-.428 1.109-.162 1.109.552 0 2.801-1.464 3.47-2.258.376-.447 1.705-3.039 2.344-4.57.34-.817 1.083-1.321 1.47-1 .304.253.297.636-.038 2.07-.152.65-.23 1.229-.173 1.286.057.057.566-.296 1.131-.785 1.986-1.717 3.625-2.307 4.636-1.667 1.015.641 1.861 1.88 1.861 2.726 0 .373-.519 1.884-1.121 3.264-.497 1.139-1.632 2.489-2.385 2.837-.494.229-.977.292-2.02.266-1.528-.039-1.868-.188-2.481-1.089-.22-.323-.44-.589-.486-.59-.047 0-.22.275-.386.612-.165.337-.365.74-.445.896a1.36 1.36 0 00-.145.496c0 .117-.15.503-.331.859-.182.356-.524 1.235-.76 1.953-.234.718-.474 1.38-.531 1.47-.119.186-.716 2.09-.997 3.183-.105.404-.35 1.139-.548 1.633-.29.73-.436.907-.78.947-.336.04-.443-.035-.526-.368z" stroke-width=".163"/></svg>