<svg xmlns="http://www.w3.org/2000/svg" height="30.187" width="56.443"><path d="M.232 13.933c-.405-.406-.311-.685.537-1.59.974-1.04 1.819-2.756 1.819-3.695 0-.555-.104-.787-.571-1.267-.582-.6-.684-.926-.419-1.343.122-.193.26-.2.78-.045 2.368.71 1.827 5.113-.933 7.606-.736.665-.85.697-1.212.334zm54.1-8.961c.884-1.556 1.061-2.506.641-3.428-.232-.51-.318-.516-.734-.049-1.001 1.121-2.513 5.611-2.047 6.077.198.198 1.334-1.182 2.14-2.6zm-13.86 4.427c.224-.424.65-1.217.947-1.763.861-1.586 1.802-4.981 1.557-5.618-.265-.692-1.166.527-1.694 2.294-.107.359-.441 1.314-.742 2.122a38.116 38.116 0 00-.812 2.417c-.442 1.587.014 1.923.744.547zm-24.58 7.865c.311-.952.545-3.727.314-3.727-.082 0-.699.6-1.37 1.334-.673.733-1.352 1.468-1.509 1.633-.4.419-.366.535.323 1.103.463.382.77.501 1.287.501.673 0 .681-.007.955-.844zm13.47.602c.903-.467 1.862-2.513 1.875-4.003.023-2.558-1.589-2.607-3.968-.12-1.451 1.517-1.508 1.594-2.169 2.934-.307.622-.048 1.19.676 1.489.41.168 3.118-.058 3.586-.3zm-10.28 11.7c0-.341.292-1.526.649-2.632.357-1.107.766-2.72.91-3.584.144-.865.366-1.934.494-2.377a6.944 6.944 0 00.238-1.551c.003-.41.113-.889.245-1.063.35-.462.311-1.071-.067-1.071-.169 0-.404.118-.524.262-.327.394-1.949 1.445-2.598 1.684a52.48 52.48 0 00-.898.338c-.18.071-.694.205-1.144.298-1.358.282-3.672-.378-3.672-1.046 0-.311-.756-.775-1.013-.621-.116.07-.468.327-.783.572-1.012.791-3.443 1.63-5.395 1.863-.81.097-.984.06-1.66-.355-1.108-.68-1.856-2.158-1.81-3.576.023-.682.18-1.372.469-2.06.437-1.04 1.29-2.394 1.654-2.628.107-.07.291-.221.408-.338.6-.597 1.175-.82 2.146-.828.924-.01 1.073.042 1.869.64.475.358.904.81.953 1.005.287 1.143-.466 1.353-1.415.395-1.009-1.02-1.695-1.073-2.809-.223-1.074.82-2.036 3.15-1.878 4.549.069.611.219.89.796 1.478l.711.725 1.144-.107c.63-.059 1.401-.214 1.715-.345 1.506-.629 2.291-1.083 2.97-1.722.407-.383 1.175-1.1 1.707-1.593.532-.494 1.145-1.155 1.361-1.47.217-.313.747-.97 1.178-1.46.431-.49.786-.967.789-1.061.002-.094.26-.447.573-.784.594-.638 1.282-.81 1.675-.416.236.236.26 1.6.035 2.123-.088.206-.238 1.183-.332 2.17-.095.989-.214 2.153-.265 2.589l-.092.792.53-.116c.71-.156 3.08-1.857 3.678-2.64.263-.343.715-1.094 1.005-1.668.29-.575.63-1.162.755-1.306.125-.145.348-.63.494-1.078.366-1.121.893-1.742 1.367-1.613.514.14.472.637-.22 2.593-.726 2.053-.827 2.532-.533 2.525.294-.007.794-.393.794-.613 0-.365 2.101-2.266 3.164-2.864 1.836-1.032 2.708-1.02 3.41.053.775 1.184 1.005 2.784.53 3.696-.135.257-.245.67-.246.917-.002.656.415.583 1.994-.35 1.602-.947 2.893-2.276 3.03-3.12.05-.314.263-.912.472-1.33.21-.417.381-.952.381-1.19 0-.237.14-.706.311-1.041.172-.336.437-1.05.59-1.585.153-.537.343-1.044.423-1.13.08-.086.145-.362.145-.615s.068-.587.15-.743c.472-.89.83-1.708.83-1.895 0-.117.222-.659.494-1.204.41-.82.607-1.035 1.146-1.25.803-.322 1.028-.325 1.611-.024.813.42.817 1.807.015 4.824-.203.763-.507 1.563-.675 1.777-.168.214-.305.516-.305.67 0 .154-.211.571-.47.928-.258.356-.525.826-.593 1.045-.068.218-.173.433-.233.478-.06.045-.356.43-.659.857-.302.427-.594.776-.648.776-.054 0-.24.275-.411.612-.173.337-.62.943-.994 1.347-.382.411-.802 1.094-.957 1.55-.952 2.819-.97 2.893-.803 3.16.605.967 2.919-.464 4.232-2.616.31-.51.631-.95.712-.98.081-.029.325-.53.542-1.114.484-1.302.947-1.649 1.794-1.342.303.11.809.2 1.123.2.67 0 2.099-.455 2.099-.669 0-.08.118-.148.263-.148.145 0 .556-.164.913-.364.702-.395 1.221-1.23 1.446-2.33.696-3.401.833-3.867 1.636-5.55.257-.54.647-1.384.867-1.878.296-.663.584-1.016 1.1-1.347.786-.506 1.255-.558 1.925-.211.521.27.623.542.764 2.047.088.934.049 1.162-.326 1.901-.234.462-.425.888-.425.947 0 .06-.349.626-.775 1.26-.427.633-.92 1.382-1.096 1.664-.176.283-.404.587-.507.677-.102.09-.383.431-.625.759-.242.327-.803.96-1.249 1.405-.562.562-.81.941-.81 1.24 0 .238-.18.781-.4 1.208-.788 1.522-1.05 2.143-1.166 2.76a6.923 6.923 0 01-.336 1.153c-.283.677-.271 1.65.025 2.169.38.664.313 1.283-.151 1.399-.68.17-.987-.045-1.241-.869-.466-1.507-.097-3.709.921-5.489.673-1.176.404-1.679-.616-1.15-.722.375-1.478.573-2.666.699-.858.09-1.004.159-1.193.553-.118.246-.27.449-.34.449-.069 0-.297.349-.507.775-.21.427-.572 1.008-.804 1.293a18.82 18.82 0 00-.717.94c-.162.232-.676.699-1.143 1.036-1.856 1.341-3.118 1.544-4.213.677-.594-.47-.635-.559-.63-1.347.003-.464.11-1.027.239-1.252.348-.609.303-.678-.367-.562-.593.103-1.572.632-2.245 1.211-.297.256-1.036.553-2.49.999-.292.09-.531.226-.531.303 0 .224-2.886.987-3.732.987-.254 0-.889-.146-1.411-.326-.522-.18-.962-.327-.977-.327-.027 0-.485 1.031-1 2.25-.125.295-.23.663-.232.817-.003.154-.113.423-.245.597a1.33 1.33 0 00-.24.68c0 .593-.463 2.226-1.068 3.766-.31.791-.565 1.522-.565 1.622 0 .378-.683 1.044-1.073 1.044-.35 0-.396-.073-.396-.62z" stroke-width=".163"/></svg>