<svg xmlns="http://www.w3.org/2000/svg" height="23.731" width="47.161"><path d="M.267 8.064c-.44-.256-.344-.686.344-1.557.74-.938 1.493-2.921 1.493-3.938 0-.514-.116-.87-.408-1.253-.518-.68-.515-.975.012-1.215.357-.162.494-.14.899.148.262.187.55.478.64.645.262.489.193 2.806-.112 3.777-.278.884-1.171 2.456-1.517 2.67-.103.063-.254.292-.336.508-.157.413-.537.494-1.014.216zm43.57 5.462c-.176-.46.096-1.905.517-2.746 1.065-2.126 1.43-4.038.947-4.971-.248-.479-.316-.508-1.197-.506-.884.002-.986.045-1.887.816-.523.448-1.015.815-1.09.815-.077 0-.191.165-.254.367-.063.202-.27.588-.46.857-.491.696-1 1.837-1.316 2.956-.508 1.796-1.04 2.513-1.864 2.513-.66 0-.669-.765-.023-2.204.27-.6.49-1.17.49-1.265 0-.095.188-.57.418-1.057.86-1.82.868-3.513.016-3.727-.431-.108-.805-.747-.66-1.127.121-.314.622-.466 1.083-.328.202.06.635.396.961.746.625.67 1.148.804 1.598.41.572-.502 2.601-1.244 3.401-1.244.706 0 .874.072 1.399.596 1.137 1.137 1.531 2.55 1.033 3.706-.616 1.432-1.292 3.378-1.419 4.09-.079.439-.305.972-.504 1.183-.417.444-1.04.506-1.187.119zm-26.46-2.251c.217-.217.442-.584.5-.816.058-.232.165-.422.236-.422.072 0 .248-.344.39-.764.303-.887.353-2.502.079-2.502-.317 0-2.87 2.787-3.094 3.377-.235.617-.18 1.16.134 1.344.521.304 1.335.203 1.756-.218zm12.52.529c.694-.208 1.438-.955 1.438-1.444 0-.168.075-.351.166-.408.282-.174.931-1.595 1.047-2.29a2.285 2.285 0 00-.6-1.994c-.263-.281-.525-.367-1.124-.367-.776 0-.794.013-2.47 1.709-1.453 1.47-1.718 1.823-1.897 2.522-.232.905-.172 1.084.573 1.705.916.764 1.692.917 2.868.565zm-9.729 11.55c-.058-.23.035-.985.208-1.682.172-.696.355-1.558.407-1.918.052-.36.317-1.345.588-2.191.272-.846.495-1.675.495-1.842 0-.168.183-.668.408-1.11.224-.443.408-.955.408-1.137 0-.183.062-.332.139-.332.199 0 .678-1.57.678-2.223 0-.307-.084-.553-.188-.553-.103 0-.523.275-.933.612-.41.337-1.03.74-1.375.895a6.114 6.114 0 00-1.048.612c-.23.182-.574.332-.764.335-.19.003-.488.113-.662.245-.223.168-.741.24-1.736.24h-1.42l-.59-.654c-.324-.36-.59-.727-.59-.816 0-.346-.68-.138-1.265.387-1.308 1.174-4.257 2.388-5.802 2.388-1.501 0-2.545-.274-3.197-.84-.925-.803-1.052-1.16-1.022-2.87.03-1.675.401-2.961 1.094-3.785.217-.258.395-.537.395-.62 0-.215.77-.889 1.701-1.489.623-.401.983-.518 1.601-.518.748 0 .849.053 1.61.847.912.951 1.135 1.503.76 1.878-.346.345-.784.158-1.257-.539-.84-1.236-1.407-1.278-2.718-.2-.965.794-1.51 1.792-1.81 3.32-.263 1.333-.098 2.158.58 2.899.396.434.467.449 2.08.449 1.895 0 3.312-.351 4.223-1.046.305-.233.608-.424.673-.424.11 0 1.313-1.029 2.435-2.082.776-.729 2.637-2.85 3.106-3.54.235-.347.767-1.024 1.182-1.505.619-.717.848-.873 1.277-.873.326 0 .56.097.622.258.146.382.12 1.638-.056 2.67l-.335 1.97c-.1.583-.324 1.26-.498 1.504-.334.464-.428 1.109-.163 1.109.552 0 2.802-1.464 3.47-2.258.376-.448 1.705-3.04 2.344-4.57.341-.817 1.083-1.321 1.471-1 .304.252.297.636-.039 2.07-.152.65-.23 1.228-.172 1.285.057.057.566-.296 1.13-.785 1.986-1.717 3.625-2.307 4.637-1.667 1.015.642 1.86 1.881 1.86 2.726 0 .373-.519 1.884-1.12 3.264-.497 1.14-1.632 2.49-2.385 2.837-.494.229-.977.292-2.02.266-1.528-.039-1.868-.188-2.481-1.09-.22-.323-.44-.588-.486-.589-.047 0-.22.275-.386.611-.165.337-.365.74-.445.896a1.36 1.36 0 00-.145.496c0 .117-.15.504-.332.86-.182.355-.523 1.235-.759 1.953-.235.718-.474 1.38-.531 1.469-.12.186-.716 2.09-.998 3.184-.104.404-.35 1.139-.547 1.633-.29.73-.437.907-.78.947-.336.04-.443-.035-.527-.368z" stroke-width=".163"/></svg>