<?xml version="1.0" encoding="UTF-8" standalone="no"?>
<svg
   xmlns:dc="http://purl.org/dc/elements/1.1/"
   xmlns:cc="http://creativecommons.org/ns#"
   xmlns:rdf="http://www.w3.org/1999/02/22-rdf-syntax-ns#"
   xmlns:svg="http://www.w3.org/2000/svg"
   xmlns="http://www.w3.org/2000/svg"
   id="svg2663"
   viewBox="0 0 34.036845 23.989086"
   version="1.1"
   height="23.989086"
   width="34.036846">
  <defs
     id="defs2667" />
  <metadata
     id="metadata2">
    <rdf:RDF>
      <cc:Work
         rdf:about="">
        <dc:format>image/svg+xml</dc:format>
        <dc:type
           rdf:resource="http://purl.org/dc/dcmitype/StillImage" />
        <dc:title />
      </cc:Work>
    </rdf:RDF>
  </metadata>
  <g
     transform="translate(-220.24407,-364.73518)"
     id="g2661">
    <g
       style="stroke-width:0.16327"
       id="g2557">
      <path
         d="m 220.34,373.13 c -0.2145,-0.55897 -0.0807,-0.89216 0.5172,-1.2878 0.33897,-0.22432 0.75589,-0.64782 0.92648,-0.94109 0.1706,-0.29329 0.36071,-0.56997 0.42249,-0.61487 0.26235,-0.1907 1.1368,-2.1934 1.1368,-2.6036 0,-0.30464 -0.26385,-0.74916 -0.82594,-1.3915 -0.49143,-0.56158 -0.78898,-1.0401 -0.73469,-1.1816 0.0502,-0.13077 0.0913,-0.2685 0.0913,-0.30606 0,-0.0376 0.22205,-0.0683 0.49343,-0.0683 0.72111,0 1.8621,1.1038 2.2035,2.1317 0.27631,0.8319 0.24687,1.0973 -0.24343,2.1948 -0.16046,0.35918 -0.33783,0.76326 -0.39415,0.89796 -0.0563,0.13469 -0.28716,0.53877 -0.51293,0.89796 -0.22578,0.35918 -0.45356,0.74489 -0.50616,0.85714 -0.0526,0.11224 -0.17664,0.20408 -0.27564,0.20408 -0.099,0 -0.48354,0.33061 -0.85453,0.73469 -0.69061,0.75223 -1.2651,0.94182 -1.4437,0.47644 z m 16.827,3.2455 c 0.26055,-0.32562 0.44341,-2.4537 0.30561,-3.5566 -0.0877,-0.70178 -0.17471,-0.89966 -0.39564,-0.89966 -0.43033,0 -3.6116,2.9356 -3.6116,3.3326 0,0.11969 0.32804,0.51998 0.72898,0.88956 l 0.72898,0.67196 1.0261,-0.0993 c 0.60084,-0.0581 1.1055,-0.19846 1.2176,-0.33856 z m 13.115,1.258 c 0,-0.0898 0.10764,-0.16327 0.23922,-0.16327 0.45309,0 1.4455,-1.0604 1.9086,-2.0393 0.65602,-1.3867 0.61587,-1.723 -0.32192,-2.6959 -0.76351,-0.79213 -0.81339,-0.81579 -1.7201,-0.81579 -0.79304,0 -0.98829,0.0619 -1.2953,0.41082 -0.19884,0.22595 -0.7105,0.77661 -1.137,1.2237 -0.42653,0.44708 -0.77551,0.88968 -0.77551,0.98356 0,0.0939 -0.13935,0.36974 -0.30967,0.61304 -0.1703,0.2433 -0.35071,0.67399 -0.40089,0.9571 -0.079,0.44587 -0.0376,0.52819 0.30966,0.61536 0.22049,0.0554 0.4009,0.17269 0.4009,0.26078 0,0.0881 0.14694,0.30709 0.32653,0.48668 0.26847,0.26847 0.54421,0.32653 1.551,0.32653 0.70748,0 1.2245,-0.0689 1.2245,-0.16326 z m -8.9229,10.851 c -0.10942,-0.28516 0.36139,-2.0918 0.67703,-2.5979 0.11482,-0.18411 0.36496,-1.1796 0.55587,-2.2123 0.1909,-1.0326 0.53779,-2.3918 0.77086,-3.0204 0.23304,-0.62857 0.49268,-1.5469 0.57696,-2.0408 0.0843,-0.49388 0.2209,-1.2286 0.30357,-1.6327 0.37204,-1.8182 0.37772,-1.9592 0.0789,-1.9592 -0.15494,0 -0.69577,0.35626 -1.2018,0.79169 -0.50608,0.43543 -1.1038,0.8368 -1.3283,0.89195 -0.22449,0.0552 -0.64522,0.31767 -0.93495,0.58338 -0.61081,0.56016 -1.6553,0.88972 -3.7207,1.1739 -2.0177,0.27763 -2.8452,0.0132 -3.9693,-1.2683 -0.916,-1.0443 -0.85593,-1.0504 -2.5587,0.25956 -2.5137,1.9337 -4.5802,2.3094 -6.3294,1.1508 -1.4247,-0.94372 -1.7819,-2.6333 -1.0163,-4.8075 0.32618,-0.92632 0.56527,-1.2923 1.2619,-1.9315 1.6619,-1.5249 2.9749,-2.0386 4.3696,-1.7094 0.957,0.2259 1.2151,0.47349 1.0752,1.0312 -0.10012,0.39889 -0.16462,0.43078 -0.71506,0.35349 -0.33275,-0.0467 -0.80632,-0.13602 -1.0524,-0.19845 -0.30968,-0.0786 -0.6824,-0.003 -1.2109,0.24539 -0.86028,0.40435 -2.0078,1.3008 -2.0123,1.5718 -0.002,0.0985 -0.12219,0.41804 -0.26796,0.71022 -0.40777,0.8174 -0.49523,2.5147 -0.15624,3.0321 0.44235,0.6751 1.2189,1.057 2.1508,1.0577 0.74766,0 0.99289,-0.10498 2.429,-1.0452 0.87854,-0.57521 2.1896,-1.5854 2.9134,-2.2449 0.72385,-0.65947 1.6821,-1.5297 2.1295,-1.9337 0.44738,-0.40408 1.1436,-1.0469 1.5472,-1.4286 0.40358,-0.38164 0.78882,-0.69388 0.85612,-0.69388 0.0673,0 0.38021,-0.25042 0.69538,-0.55649 0.31516,-0.30606 0.71781,-0.60243 0.89477,-0.6586 0.37042,-0.11757 0.80098,0.24116 0.93319,0.77752 0.09,0.36501 -0.17316,4.7674 -0.35061,5.8661 -0.095,0.58803 -0.0804,0.61218 0.36795,0.61071 0.52108,-0.002 1.9322,-0.7543 2.4105,-1.2856 0.17105,-0.19001 0.40795,-0.34547 0.52641,-0.34547 0.11847,0 0.32603,-0.21393 0.46123,-0.47538 0.13521,-0.26145 0.41652,-0.61043 0.62512,-0.77551 0.20861,-0.16508 0.4313,-0.41033 0.49486,-0.54503 0.0636,-0.13469 0.26106,-0.4653 0.43889,-0.73469 0.44007,-0.66665 1.469,-2.8472 1.469,-3.1132 0,-0.32423 0.66383,-0.72358 1.2028,-0.72358 h 0.47708 l -0.099,1.0603 c -0.0545,0.58317 -0.17529,1.2028 -0.26851,1.377 -0.17007,0.3178 -0.24172,1.8076 -0.0869,1.8076 0.0454,0 0.39755,-0.31951 0.78253,-0.71001 0.38496,-0.39049 1.0173,-0.92001 1.4052,-1.1767 0.61017,-0.40381 0.85647,-0.46531 1.8278,-0.45641 0.95786,0.009 1.2208,0.0783 1.7918,0.47404 0.36806,0.25509 0.9016,0.79834 1.1856,1.2072 0.63683,0.91684 0.68402,1.985 0.13698,3.1007 -0.19539,0.39849 -0.35526,0.81435 -0.35526,0.92409 0,0.35391 -1.6886,1.936 -2.5621,2.4005 -0.68727,0.36549 -1.0794,0.45556 -2.0712,0.47579 -1.1602,0.0237 -1.2711,-0.007 -2.1472,-0.58838 -0.50806,-0.33734 -0.94439,-0.58963 -0.96963,-0.56065 -0.0252,0.029 -0.24343,0.75063 -0.48487,1.6037 -0.24145,0.85306 -0.50525,1.698 -0.58622,1.8776 -0.22349,0.49574 -0.64824,2.2816 -0.64824,2.7256 0,0.21603 -0.0693,0.46256 -0.15391,0.54787 -0.0846,0.0853 -0.22652,0.44898 -0.31528,0.80816 -0.2552,1.0327 -0.66231,2.0528 -0.92346,2.314 -0.132,0.132 -0.24,0.33709 -0.24,0.45575 0,0.42643 -0.93143,0.56621 -1.0862,0.16299 z"
         id="accept_abv" />
    </g>
  </g>
</svg>
