<?xml version="1.0" encoding="UTF-8" standalone="no"?>
<svg
   xmlns:dc="http://purl.org/dc/elements/1.1/"
   xmlns:cc="http://creativecommons.org/ns#"
   xmlns:rdf="http://www.w3.org/1999/02/22-rdf-syntax-ns#"
   xmlns:svg="http://www.w3.org/2000/svg"
   xmlns="http://www.w3.org/2000/svg"
   id="svg2663"
   viewBox="0 0 56.438448 30.187828"
   version="1.1"
   height="30.187828"
   width="56.43845">
  <defs
     id="defs2667" />
  <metadata
     id="metadata2">
    <rdf:RDF>
      <cc:Work
         rdf:about="">
        <dc:format>image/svg+xml</dc:format>
        <dc:type
           rdf:resource="http://purl.org/dc/dcmitype/StillImage" />
        <dc:title />
      </cc:Work>
    </rdf:RDF>
  </metadata>
  <g
     transform="translate(-220.26803,-382.21824)"
     id="g2661">
    <g
       style="stroke-width:0.16327"
       id="g2557">
      <path
         d="m 220.5,396.15 c -0.40544,-0.40544 -0.31132,-0.68411 0.53703,-1.59 0.97379,-1.0398 1.8187,-2.7564 1.8187,-3.6951 0,-0.55466 -0.10439,-0.78612 -0.57143,-1.267 -0.58149,-0.59872 -0.68318,-0.9252 -0.4185,-1.3435 0.12176,-0.19241 0.25987,-0.20025 0.78062,-0.0442 2.3665,0.70903 1.8258,5.1126 -0.93389,7.6058 -0.73586,0.66478 -0.85017,0.69627 -1.2125,0.33397 z m 54.096,-8.9614 c 0.88376,-1.556 1.0614,-2.5056 0.64121,-3.4277 -0.23215,-0.5095 -0.31804,-0.51516 -0.73448,-0.0485 -1.0007,1.1214 -2.5128,5.6109 -2.0467,6.077 0.19838,0.19836 1.3342,-1.182 2.14,-2.6007 z m -13.863,4.4265 c 0.22449,-0.42328 0.65081,-1.2167 0.94738,-1.7631 0.86057,-1.5857 1.8017,-4.9808 1.5573,-5.6178 -0.26557,-0.69205 -1.1656,0.52707 -1.694,2.2945 -0.10738,0.35918 -0.44167,1.3143 -0.74284,2.1224 -0.30119,0.80817 -0.66643,1.8958 -0.81166,2.4169 -0.4422,1.5868 0.0142,1.9226 0.74379,0.54711 z m -24.578,7.8654 c 0.31108,-0.95111 0.54512,-3.7273 0.31422,-3.7273 -0.0817,0 -0.69875,0.60014 -1.3711,1.3336 -0.67235,0.73352 -1.351,1.4682 -1.5082,1.6327 -0.40052,0.41915 -0.36659,0.5351 0.32291,1.1034 0.46344,0.38201 0.77055,0.50168 1.2873,0.50168 0.67298,0 0.68104,-0.007 0.95481,-0.84409 z m 13.47,0.6023 c 0.9032,-0.46707 1.8619,-2.5134 1.8754,-4.0031 0.0232,-2.5581 -1.5894,-2.6068 -3.9682,-0.11997 -1.4511,1.5171 -1.5076,1.5935 -2.1694,2.9341 -0.30694,0.62177 -0.0484,1.1909 0.67637,1.4889 0.4096,0.16841 3.1184,-0.0581 3.5858,-0.29987 z m -10.28,11.703 c 0,-0.34111 0.29199,-1.5256 0.64887,-2.6321 0.35688,-1.1066 0.76655,-2.7193 0.91038,-3.5839 0.14384,-0.86457 0.36613,-1.9343 0.494,-2.3771 0.12785,-0.44282 0.2348,-1.1408 0.23766,-1.551 0.003,-0.41024 0.11306,-0.88849 0.2449,-1.0628 0.34942,-0.46198 0.31141,-1.0708 -0.0668,-1.0708 -0.16859,0 -0.40441,0.11792 -0.52404,0.26207 -0.32731,0.3944 -1.9492,1.4454 -2.598,1.6836 -0.31428,0.11536 -0.71836,0.2677 -0.89796,0.33853 -0.17959,0.0708 -0.69446,0.20494 -1.1442,0.29805 -1.3584,0.28124 -3.6722,-0.37799 -3.6722,-1.0462 0,-0.31151 -0.75589,-0.77533 -1.0132,-0.6217 -0.11619,0.0693 -0.46841,0.32708 -0.78269,0.57273 -1.0118,0.79086 -3.4429,1.6303 -5.395,1.8629 -0.81049,0.0966 -0.98426,0.0594 -1.6608,-0.35574 -1.1072,-0.67933 -1.855,-2.1578 -1.8088,-3.576 0.0222,-0.68168 0.17915,-1.3718 0.46818,-2.0586 0.4377,-1.04 1.2899,-2.3947 1.6536,-2.6286 0.10782,-0.0693 0.29149,-0.22116 0.40816,-0.3374 0.59986,-0.59762 1.1748,-0.81961 2.1463,-0.8288 0.92457,-0.009 1.0734,0.0423 1.8687,0.64059 0.47523,0.35755 0.90419,0.80994 0.95322,1.0053 0.28692,1.1431 -0.46586,1.3531 -1.4148,0.39461 -1.0087,-1.0189 -1.6952,-1.0733 -2.8089,-0.22279 -1.074,0.82016 -2.0359,3.15 -1.8782,4.5492 0.0689,0.61127 0.21903,0.89001 0.79606,1.478 l 0.71115,0.7246 1.1438,-0.10664 c 0.62911,-0.0587 1.401,-0.21394 1.7153,-0.34508 1.5065,-0.62857 2.291,-1.0834 2.9702,-1.7219 0.40689,-0.38251 1.1751,-1.0996 1.7072,-1.5934 0.53208,-0.49387 1.1446,-1.1551 1.3612,-1.4694 0.21657,-0.31429 0.74648,-0.97181 1.1776,-1.4612 0.4311,-0.48936 0.78583,-0.96691 0.78826,-1.0612 0.002,-0.0943 0.26056,-0.447 0.57362,-0.78374 0.5937,-0.63858 1.2818,-0.8096 1.675,-0.41632 0.23633,0.23632 0.25899,1.6007 0.0352,2.1229 -0.0884,0.20627 -0.23806,1.1832 -0.33264,2.171 -0.0946,0.98776 -0.21355,2.1524 -0.26437,2.5881 l -0.0924,0.79218 0.53041,-0.11649 c 0.70867,-0.15566 3.0804,-1.8572 3.6784,-2.639 0.26289,-0.34365 0.71497,-1.0946 1.0046,-1.6688 0.28966,-0.57418 0.62921,-1.1619 0.75454,-1.3061 0.12533,-0.14416 0.34779,-0.62947 0.49436,-1.0784 0.36599,-1.1212 0.89253,-1.7423 1.3673,-1.613 0.51394,0.14002 0.47177,0.63706 -0.21995,2.5926 -0.72634,2.0533 -0.82746,2.5323 -0.53327,2.5254 0.29381,-0.007 0.79404,-0.39303 0.79404,-0.613 0,-0.36462 2.1005,-2.266 3.1639,-2.8639 1.8358,-1.0323 2.7078,-1.0186 3.4098,0.0536 0.77538,1.1843 1.0046,2.7843 0.52936,3.6955 -0.13416,0.25721 -0.24436,0.66968 -0.2449,0.91662 -0.002,0.65656 0.41447,0.58351 1.994,-0.35022 1.6018,-0.94687 2.8926,-2.2761 3.029,-3.1192 0.0509,-0.31428 0.26373,-0.91272 0.47302,-1.3298 0.20928,-0.41712 0.38051,-0.9527 0.38051,-1.1902 0,-0.23747 0.1402,-0.70657 0.31153,-1.0424 0.17134,-0.33587 0.43662,-1.0493 0.58952,-1.5853 0.15288,-0.53606 0.34329,-1.0445 0.42315,-1.1298 0.0799,-0.0853 0.14519,-0.36181 0.14519,-0.61446 0,-0.25264 0.0676,-0.58693 0.15014,-0.74286 0.47151,-0.89037 0.82945,-1.7082 0.82945,-1.8951 0,-0.11759 0.2226,-0.65923 0.49464,-1.2037 0.40946,-0.81938 0.60688,-1.0348 1.1462,-1.2506 0.80298,-0.32131 1.0275,-0.32451 1.6106,-0.023 0.81223,0.42003 0.81636,1.8072 0.0144,4.8235 -0.20294,0.76327 -0.50649,1.563 -0.67452,1.7771 -0.16805,0.21414 -0.30553,0.51536 -0.30553,0.66937 0,0.15401 -0.21124,0.57162 -0.46942,0.92803 -0.25817,0.35641 -0.52523,0.82661 -0.59344,1.0449 -0.0682,0.2183 -0.173,0.43363 -0.23287,0.47853 -0.0599,0.0449 -0.35629,0.43061 -0.65872,0.85714 -0.30243,0.42653 -0.59419,0.77551 -0.64835,0.77551 -0.0541,0 -0.23933,0.27551 -0.41149,0.61225 -0.17216,0.33673 -0.61935,0.94285 -0.99375,1.3469 -0.38132,0.41155 -0.80204,1.0937 -0.95657,1.551 -0.95224,2.8179 -0.97103,2.8918 -0.80326,3.1596 0.60516,0.96576 2.9192,-0.46511 4.2319,-2.6168 0.31092,-0.50965 0.63152,-0.95046 0.71242,-0.97959 0.0809,-0.0291 0.32457,-0.53048 0.54149,-1.1142 0.48398,-1.3023 0.94707,-1.6488 1.7943,-1.3424 0.3035,0.10974 0.80902,0.19954 1.1234,0.19954 0.67109,0 2.0991,-0.45471 2.0991,-0.66841 0,-0.0813 0.11856,-0.14792 0.26348,-0.14792 0.14493,0 0.55562,-0.16418 0.91267,-0.36486 0.70238,-0.39476 1.2212,-1.2304 1.446,-2.329 0.69621,-3.4022 0.83339,-3.8676 1.636,-5.551 0.2569,-0.53877 0.64728,-1.3837 0.86753,-1.8776 0.29554,-0.66272 0.58333,-1.0156 1.0986,-1.3469 0.78676,-0.50594 1.256,-0.55724 1.9263,-0.21061 0.52051,0.26916 0.62232,0.54217 0.76348,2.0474 0.0876,0.93402 0.0486,1.1619 -0.32565,1.9013 -0.23386,0.46202 -0.42519,0.88837 -0.42519,0.94746 0,0.0591 -0.34898,0.6257 -0.77551,1.2591 -0.42653,0.63343 -0.91953,1.3826 -1.0956,1.6648 -0.17602,0.2822 -0.40384,0.58656 -0.50624,0.67636 -0.10242,0.0898 -0.38385,0.4313 -0.62544,0.75887 -0.24156,0.32759 -0.80354,0.95995 -1.2488,1.4053 -0.56212,0.56212 -0.80963,0.94152 -0.80963,1.241 0,0.23727 -0.18055,0.78042 -0.40122,1.207 -0.78742,1.5221 -1.0496,2.1434 -1.1653,2.7613 -0.0645,0.3446 -0.216,0.86297 -0.33661,1.1519 -0.28249,0.67683 -0.271,1.6496 0.0256,2.1685 0.37977,0.66432 0.31282,1.2828 -0.15148,1.3994 -0.67908,0.17044 -0.98676,-0.0448 -1.2414,-0.86843 -0.46598,-1.5075 -0.0964,-3.7091 0.92142,-5.4889 0.67275,-1.1764 0.40379,-1.6789 -0.61589,-1.1504 -0.72201,0.37415 -1.4784,0.57227 -2.6664,0.6984 -0.85853,0.0911 -1.0044,0.15876 -1.1926,0.55281 -0.11791,0.24694 -0.27082,0.44898 -0.3398,0.44898 -0.069,0 -0.29731,0.34898 -0.50738,0.77551 -0.21009,0.42653 -0.57208,1.0082 -0.80446,1.2926 -0.23236,0.28441 -0.55485,0.70735 -0.71663,0.93987 -0.16178,0.23251 -0.67607,0.69868 -1.1429,1.036 -1.8562,1.3411 -3.1184,1.544 -4.213,0.67703 -0.59391,-0.4704 -0.63537,-0.559 -0.62996,-1.3469 0.003,-0.46388 0.11079,-1.0271 0.23912,-1.2516 0.34811,-0.60896 0.303,-0.67794 -0.36735,-0.56158 -0.5922,0.10279 -1.5718,0.63135 -2.2449,1.2112 -0.29673,0.25564 -1.0363,0.55227 -2.4898,0.99864 -0.29183,0.0896 -0.53061,0.22614 -0.53061,0.30335 0,0.22366 -2.8863,0.98712 -3.7319,0.98712 -0.25404,0 -0.88898,-0.14694 -1.411,-0.32653 -0.522,-0.1796 -0.96175,-0.32653 -0.97725,-0.32653 -0.0264,0 -0.4845,1.0308 -1.0002,2.2504 -0.12467,0.29489 -0.22901,0.66224 -0.23187,0.81633 -0.003,0.1541 -0.11306,0.42279 -0.2449,0.59709 -0.13183,0.17432 -0.2397,0.48062 -0.2397,0.6807 0,0.59212 -0.46299,2.2248 -1.0677,3.7651 -0.31074,0.79153 -0.56498,1.5216 -0.56498,1.6223 0,0.3785 -0.68385,1.0436 -1.0731,1.0436 -0.35003,0 -0.39631,-0.0724 -0.39631,-0.62018 z"
         id="acceptable_abv" />
    </g>
  </g>
</svg>
