<?xml version="1.0" encoding="UTF-8" standalone="no"?>
<svg
   xmlns:dc="http://purl.org/dc/elements/1.1/"
   xmlns:cc="http://creativecommons.org/ns#"
   xmlns:rdf="http://www.w3.org/1999/02/22-rdf-syntax-ns#"
   xmlns:svg="http://www.w3.org/2000/svg"
   xmlns="http://www.w3.org/2000/svg"
   id="svg2663"
   viewBox="0 0 47.156043 23.727922"
   version="1.1"
   height="23.727922"
   width="47.156044">
  <defs
     id="defs2667" />
  <metadata
     id="metadata2">
    <rdf:RDF>
      <cc:Work
         rdf:about="">
        <dc:format>image/svg+xml</dc:format>
        <dc:type
           rdf:resource="http://purl.org/dc/dcmitype/StillImage" />
        <dc:title />
      </cc:Work>
    </rdf:RDF>
  </metadata>
  <g
     transform="translate(-220.59299,-412.49611)"
     id="g2661">
    <g
       style="stroke-width:0.16327"
       id="g2557">
      <path
         d="m 220.86,420.56 c -0.43941,-0.25593 -0.34438,-0.68633 0.34387,-1.5574 0.74101,-0.9379 1.4929,-2.921 1.4929,-3.9376 0,-0.51406 -0.11583,-0.86962 -0.40816,-1.2529 -0.51824,-0.67945 -0.51518,-0.97457 0.0126,-1.215 0.35662,-0.16248 0.4934,-0.13988 0.89829,0.14841 0.26269,0.18705 0.55094,0.47709 0.64054,0.64454 0.26174,0.48906 0.1927,2.806 -0.11253,3.7766 -0.27787,0.8836 -1.1714,2.4561 -1.517,2.6696 -0.10279,0.0635 -0.254,0.29205 -0.33603,0.50781 -0.15706,0.41311 -0.53703,0.49401 -1.0144,0.21596 z m 43.566,5.4616 c -0.17629,-0.45938 0.0958,-1.9055 0.51665,-2.7456 1.065,-2.1262 1.4295,-4.0384 0.94751,-4.9705 -0.2477,-0.47902 -0.31593,-0.50789 -1.1972,-0.50652 -0.88443,0.002 -0.98567,0.0452 -1.8866,0.81633 -0.52359,0.44818 -1.0146,0.81487 -1.091,0.81487 -0.0765,0 -0.19037,0.16531 -0.25309,0.36735 -0.0627,0.20204 -0.26973,0.58776 -0.45999,0.85714 -0.49103,0.69527 -0.99939,1.837 -1.3161,2.956 -0.5084,1.796 -1.0404,2.5134 -1.8637,2.5134 -0.66086,0 -0.66893,-0.76491 -0.0232,-2.2041 0.26939,-0.60041 0.4898,-1.1696 0.4898,-1.2648 0,-0.0952 0.18825,-0.57103 0.41832,-1.0574 0.8608,-1.8196 0.86811,-3.5128 0.0162,-3.7267 -0.43156,-0.10831 -0.80557,-0.74695 -0.65985,-1.1267 0.1207,-0.31451 0.62135,-0.4664 1.0826,-0.3284 0.20204,0.0604 0.63437,0.396 0.96073,0.74568 0.62521,0.66991 1.1481,0.80405 1.5978,0.40989 0.57226,-0.50155 2.6013,-1.2435 3.4008,-1.2435 0.70583,0 0.87442,0.0718 1.3985,0.59594 1.1373,1.1373 1.5309,2.5494 1.0329,3.7059 -0.61647,1.4317 -1.2918,3.3776 -1.4192,4.0893 -0.0787,0.43962 -0.30554,0.97228 -0.50412,1.1837 -0.41675,0.44359 -1.0389,0.50575 -1.1875,0.11861 z m -26.463,-2.2509 c 0.21675,-0.21675 0.44178,-0.5841 0.50007,-0.81632 0.0583,-0.23222 0.16457,-0.42222 0.23619,-0.42222 0.0716,0 0.24733,-0.34371 0.39047,-0.76378 0.3022,-0.88692 0.35241,-2.5015 0.0778,-2.5015 -0.31657,0 -2.8699,2.7868 -3.0944,3.3774 -0.23455,0.61691 -0.18028,1.1611 0.13404,1.3442 0.52153,0.30377 1.3353,0.20285 1.7559,-0.21777 z m 12.521,0.52864 c 0.69394,-0.20792 1.4378,-0.95478 1.4378,-1.4435 0,-0.16742 0.0749,-0.35065 0.16637,-0.4072 0.28183,-0.17418 0.93096,-1.5946 1.047,-2.2911 0.12443,-0.74637 -0.0854,-1.4437 -0.59969,-1.9927 -0.264,-0.28183 -0.52599,-0.36735 -1.1253,-0.36735 -0.77549,0 -0.79357,0.0126 -2.47,1.7094 -1.4526,1.4703 -1.718,1.8231 -1.8971,2.5221 -0.2318,0.90447 -0.17153,1.0838 0.5734,1.7054 0.91579,0.76424 1.6919,0.91716 2.8675,0.56496 z m -9.7292,11.547 c -0.0578,-0.23046 0.0352,-0.98481 0.20759,-1.6824 0.17186,-0.69553 0.35499,-1.5585 0.40698,-1.9176 0.052,-0.35918 0.31694,-1.3449 0.5888,-2.1905 0.27183,-0.8456 0.49427,-1.6746 0.49427,-1.8422 0,-0.1676 0.18367,-0.66717 0.40816,-1.1102 0.22449,-0.443 0.40816,-0.95485 0.40816,-1.1374 0,-0.18257 0.0623,-0.33195 0.13847,-0.33195 0.199,0 0.67786,-1.5702 0.67786,-2.2228 0,-0.30684 -0.0833,-0.55268 -0.18727,-0.55268 -0.103,0 -0.523,0.27551 -0.93334,0.61224 -0.41033,0.33674 -1.0292,0.73953 -1.3752,0.89509 -0.346,0.15556 -0.81754,0.43107 -1.0479,0.61224 -0.23032,0.18118 -0.57416,0.33174 -0.7641,0.3346 -0.18993,0.003 -0.48794,0.11306 -0.66224,0.2449 -0.22222,0.16808 -0.74103,0.2397 -1.7361,0.2397 h -1.4192 l -0.59041,-0.65353 c -0.32474,-0.35945 -0.59043,-0.72679 -0.59043,-0.81633 0,-0.34612 -0.67994,-0.13781 -1.2648,0.38751 -1.3075,1.1743 -4.2566,2.3885 -5.8015,2.3885 -1.501,0 -2.5447,-0.27435 -3.197,-0.84032 -0.92507,-0.80271 -1.0523,-1.16 -1.0224,-2.8701 0.0293,-1.675 0.40119,-2.9613 1.0944,-3.7851 0.21752,-0.25849 0.39548,-0.53748 0.39548,-0.61996 0,-0.2153 0.76935,-0.88871 1.7014,-1.4893 0.62256,-0.40111 0.98312,-0.51769 1.601,-0.51769 0.74764,0 0.84832,0.053 1.6091,0.84644 0.91221,0.95142 1.1355,1.5029 0.76042,1.878 -0.34553,0.34553 -0.78338,0.15796 -1.2566,-0.53834 -0.8401,-1.2362 -1.4068,-1.2778 -2.7184,-0.19954 -0.96427,0.79269 -1.5086,1.791 -1.81,3.3195 -0.26264,1.3319 -0.0976,2.1569 0.57994,2.898 0.39655,0.43374 0.46708,0.44898 2.0797,0.44898 1.8949,0 3.3122,-0.35093 4.223,-1.0457 0.30555,-0.23304 0.60844,-0.42372 0.67311,-0.42372 0.10978,0 1.3134,-1.0292 2.4348,-2.082 0.7765,-0.72898 2.6373,-2.8504 3.1058,-3.5406 0.23517,-0.34653 0.76701,-1.0232 1.1818,-1.5037 0.61911,-0.71712 0.84793,-0.87366 1.2771,-0.87366 0.32614,0 0.56012,0.0972 0.62193,0.25825 0.14658,0.38199 0.12038,1.6382 -0.0557,2.6707 -0.0852,0.49928 -0.23598,1.3853 -0.33517,1.969 -0.0992,0.58367 -0.32339,1.2603 -0.49823,1.5036 -0.33352,0.46415 -0.42787,1.1086 -0.1623,1.1086 0.55175,0 2.8015,-1.4641 3.4694,-2.2578 0.37643,-0.44735 1.7061,-3.0388 2.3448,-4.5698 0.34088,-0.81718 1.0827,-1.3213 1.4706,-0.99943 0.30365,0.252 0.29641,0.63575 -0.039,2.0698 -0.152,0.64985 -0.22961,1.2283 -0.1725,1.2854 0.0571,0.0571 0.56623,-0.2961 1.1314,-0.78491 1.9855,-1.7173 3.6241,-2.3066 4.6357,-1.6673 1.015,0.6416 1.8612,1.881 1.8612,2.7262 0,0.37266 -0.51938,1.8843 -1.1215,3.2641 -0.49698,1.1389 -1.6316,2.4889 -2.3848,2.8374 -0.49382,0.22853 -0.97702,0.29205 -2.0197,0.26548 -1.5279,-0.0389 -1.868,-0.18816 -2.4814,-1.0886 -0.22048,-0.32369 -0.43927,-0.58901 -0.48619,-0.58963 -0.0469,0 -0.22038,0.2744 -0.38546,0.61113 -0.16506,0.33674 -0.36543,0.73982 -0.44529,0.89574 -0.0798,0.15594 -0.14515,0.37917 -0.14515,0.4961 0,0.11693 -0.14905,0.50364 -0.3312,0.85936 -0.18216,0.35573 -0.52366,1.2345 -0.75891,1.9529 -0.23525,0.71836 -0.47453,1.3796 -0.53176,1.4694 -0.11893,0.18668 -0.71572,2.0914 -0.99745,3.1837 -0.10424,0.40408 -0.35051,1.1388 -0.54726,1.6326 -0.29073,0.72976 -0.43679,0.90728 -0.77973,0.94769 -0.33621,0.0396 -0.44329,-0.0352 -0.52684,-0.36807 z"
         id="acceptance_abv" />
    </g>
  </g>
</svg>
