<?xml version="1.0" encoding="UTF-8" standalone="no"?>
<svg
   xmlns:dc="http://purl.org/dc/elements/1.1/"
   xmlns:cc="http://creativecommons.org/ns#"
   xmlns:rdf="http://www.w3.org/1999/02/22-rdf-syntax-ns#"
   xmlns:svg="http://www.w3.org/2000/svg"
   xmlns="http://www.w3.org/2000/svg"
   id="svg2663"
   viewBox="0 0 60.417387 17.118116"
   version="1.1"
   height="17.118116"
   width="60.417389">
  <defs
     id="defs2667" />
  <metadata
     id="metadata2">
    <rdf:RDF>
      <cc:Work
         rdf:about="">
        <dc:format>image/svg+xml</dc:format>
        <dc:type
           rdf:resource="http://purl.org/dc/dcmitype/StillImage" />
        <dc:title />
      </cc:Work>
    </rdf:RDF>
  </metadata>
  <g
     transform="translate(-220.59734,-458.95081)"
     id="g2661">
    <g
       style="stroke-width:0.16327"
       id="g2557">
      <path
         d="m 220.83,469.29 c -0.37678,-0.3768 -0.32332,-0.5945 0.36284,-1.4772 0.34065,-0.43825 0.70648,-0.9805 0.81293,-1.205 0.10647,-0.22449 0.37876,-0.73763 0.60511,-1.1403 0.52839,-0.94006 0.51814,-1.2236 -0.0886,-2.4464 -0.57311,-1.1551 -0.47083,-1.5281 0.39548,-1.442 0.42798,0.0425 0.56708,0.19208 1.0328,1.1104 0.45319,0.89357 0.52324,1.1773 0.44337,1.7959 -0.10805,0.83688 -1.1348,2.9048 -1.8644,3.7551 -0.26968,0.31429 -0.63091,0.73674 -0.80273,0.93878 -0.36935,0.43432 -0.55092,0.45675 -0.89688,0.11079 z m 17.836,3.9389 c 0.47048,-0.45427 0.67355,-1.2965 0.67858,-2.8146 0.004,-1.3006 -0.19107,-2.0106 -0.55334,-2.0106 -0.13134,0 -0.47428,0.3279 -0.76209,0.72867 -0.2878,0.40076 -0.79996,0.9204 -1.1381,1.1548 -0.33815,0.23433 -0.7039,0.64112 -0.81278,0.90396 -0.10887,0.26286 -0.2625,0.47791 -0.34141,0.47791 -0.25972,0 -0.14984,0.49426 0.22389,1.0072 0.42145,0.57843 1.5191,1.1293 2,1.0037 0.17959,-0.0469 0.49696,-0.24981 0.70527,-0.45094 z m 10.571,0.64189 c 0.98398,-0.302 1.3549,-0.60328 1.9095,-1.5511 0.61186,-1.0456 1.4384,-3.5656 1.3219,-4.03 -0.18121,-0.72198 -0.86854,-0.81736 -2.5079,-0.348 -1.6564,0.4742 -2.4147,1.1918 -3.0106,2.8491 -0.54034,1.5028 -0.53923,2.1785 0.005,2.8249 0.49071,0.58317 1.0207,0.64244 2.2824,0.2552 z m -22.804,1.8987 c -0.92377,-0.46194 -1.7563,-1.1915 -2.071,-1.8149 -0.15868,-0.31429 -0.41989,-0.76823 -0.58047,-1.0088 -0.21424,-0.32089 -0.29326,-0.76364 -0.29679,-1.6629 -0.004,-1.0418 0.0649,-1.3549 0.46012,-2.0882 0.71812,-1.3324 1.6232,-2.1835 2.6413,-2.4838 0.96464,-0.28455 2.1292,-0.21111 2.8067,0.177 0.49557,0.28389 1.0474,1.5237 0.89374,2.0079 -0.14388,0.45335 -0.90202,0.38219 -1.1447,-0.10745 -0.32732,-0.66047 -0.59677,-0.85874 -1.313,-0.96615 -0.62692,-0.094 -0.81388,-0.0437 -1.4814,0.39845 -0.95608,0.63327 -1.3662,1.4802 -1.3662,2.8211 0,1.1883 0.28465,1.7988 1.263,2.7088 0.74351,0.69155 0.7502,0.69387 2.0022,0.69387 1.3112,0 1.8948,-0.1862 2.8872,-0.9212 0.28585,-0.21171 0.59377,-0.38492 0.68428,-0.38492 0.0905,0 0.54769,-0.36735 1.016,-0.81633 0.46831,-0.44898 0.94826,-0.81632 1.0666,-0.81632 0.11836,0 0.32047,-0.20204 0.44909,-0.44898 0.12864,-0.24694 0.47949,-0.67184 0.77971,-0.94421 0.30021,-0.27238 0.98664,-1.0006 1.5254,-1.6182 1.1614,-1.3315 1.6273,-1.8148 2.3282,-2.4152 0.45397,-0.38893 0.57502,-0.42287 0.93042,-0.26095 0.4822,0.21971 0.52956,0.34443 0.73653,1.9393 0.19538,1.5056 0.20123,3.9115 0.0119,4.8912 -0.16638,0.86095 -0.12947,0.93166 0.36054,0.69078 0.20191,-0.0992 0.53321,-0.22702 0.73625,-0.28392 0.20302,-0.0569 0.48209,-0.32191 0.62016,-0.58891 0.13807,-0.26699 0.47394,-0.621 0.74638,-0.78668 0.27243,-0.16568 0.67125,-0.56013 0.88627,-0.87655 0.21502,-0.31643 0.61342,-0.81889 0.88533,-1.1166 0.27191,-0.2977 0.53495,-0.66906 0.58452,-0.82524 0.0496,-0.15618 0.4121,-0.50126 0.80561,-0.76684 0.39352,-0.26558 0.92688,-0.63917 1.1852,-0.83017 0.99899,-0.7386 4.1099,-1.2278 5.1919,-0.81643 0.60647,0.23058 0.88735,-0.0459 0.89457,-0.88063 0.003,-0.37065 0.30191,-1.7759 0.6638,-3.1229 0.36188,-1.3469 0.69837,-2.6917 0.74774,-2.9883 0.0844,-0.50691 0.12545,-0.53636 0.68314,-0.4898 l 0.59337,0.0496 -0.0217,0.97959 c -0.0119,0.53878 -0.28747,2.0575 -0.61225,3.3748 -0.32478,1.3174 -0.59051,2.5857 -0.59051,2.8186 0,0.2328 -0.068,0.55086 -0.15107,0.70679 -0.20399,0.38283 -0.66622,2.4646 -0.66568,2.9982 0,0.23593 -0.10978,0.52044 -0.24448,0.63223 -0.28258,0.23453 -0.31734,1.1204 -0.0778,1.9828 0.12298,0.44279 0.31242,0.66487 0.74039,0.86795 0.50459,0.23945 0.72948,0.2489 1.8338,0.0771 1.69,-0.26296 4.9322,-1.4607 4.9322,-1.8221 0,-0.0694 0.16733,-0.12614 0.37184,-0.12614 0.36883,0 0.89497,-0.29839 1.4869,-0.8433 0.16927,-0.1558 0.57335,-0.4015 0.89796,-0.54601 0.73461,-0.327 1.555,-0.74464 2.3235,-1.1828 0.32476,-0.18514 1.0541,-0.45543 1.6208,-0.6006 0.56667,-0.14518 1.1091,-0.3291 1.2054,-0.40872 0.0963,-0.0796 0.5792,-0.30991 1.0731,-0.51174 0.76292,-0.31179 1.2171,-0.36921 3.0204,-0.38181 1.8482,-0.0129 2.1502,0.0224 2.3373,0.27307 0.11817,0.15835 0.48551,0.42993 0.81632,0.60353 1.0911,0.57257 2.6825,2.28 3.2801,3.5192 0.30244,0.62718 0.68384,1.407 0.84756,1.7329 0.49467,0.98473 0.44776,2.1013 -0.0883,2.1013 -0.40785,0 -1.3693,-1.2708 -1.6606,-2.195 -0.18326,-0.5814 -0.54354,-1.1973 -0.98671,-1.6869 -0.38393,-0.42413 -0.7005,-0.81541 -0.70351,-0.86952 -0.016,-0.28919 -2.0061,-1.6037 -2.8044,-1.8524 -1.4664,-0.45688 -3.5169,-0.3124 -4.8745,0.34346 -1.4099,0.68112 -2.1189,0.98615 -2.6122,1.1239 -0.22449,0.0627 -0.51836,0.20614 -0.65306,0.31887 -0.13469,0.11272 -0.53877,0.29675 -0.89796,0.40895 -0.35918,0.11221 -0.8,0.33347 -0.97959,0.49167 -0.17959,0.15822 -0.48539,0.33574 -0.67954,0.39452 -0.19417,0.0588 -0.62847,0.32574 -0.96513,0.59329 -0.33667,0.26754 -1.0227,0.60257 -1.5245,0.7445 -0.50182,0.14194 -1.4508,0.54968 -2.1089,0.90609 -1.0116,0.54792 -1.4278,0.67249 -2.6939,0.80635 -2.2199,0.23471 -2.9419,0.0959 -3.5708,-0.68661 -0.28156,-0.35037 -0.59827,-0.63703 -0.70379,-0.63703 -0.10552,0 -0.3314,0.25909 -0.50193,0.57576 -0.2346,0.43562 -0.46937,0.61779 -0.96449,0.7484 -0.35993,0.095 -1.0076,0.28654 -1.4393,0.42572 -0.92797,0.29917 -2.4485,0.19939 -2.8774,-0.1888 -0.15495,-0.14023 -0.36679,-0.25496 -0.47076,-0.25496 -0.22837,0 -0.55908,-0.75799 -0.83701,-1.9184 -0.11291,-0.47143 -0.25512,-0.85715 -0.316,-0.85715 -0.15631,0 -0.67306,0.62497 -0.67306,0.81401 0,0.0865 -0.22446,0.27328 -0.49879,0.41514 -0.27435,0.14186 -0.76123,0.50547 -1.082,0.808 -0.62408,0.58863 -1.5935,0.99964 -2.909,1.2334 -0.44897,0.0798 -1.1308,0.2316 -1.5151,0.33739 -0.59712,0.16438 -0.79304,0.14985 -1.3469,-0.0999 -0.35649,-0.16075 -0.64816,-0.34965 -0.64816,-0.41975 0,-0.0701 -0.1354,-0.17043 -0.3009,-0.22297 -0.16548,-0.0525 -0.53807,-0.46155 -0.82798,-0.90895 -0.6663,-1.0283 -0.96867,-1.0385 -2.1376,-0.0719 -1.4631,1.2098 -3.8261,2.2 -5.2233,2.1888 -0.31428,-0.002 -0.8365,-0.13713 -1.1605,-0.29914 z"
         id="accident" />
    </g>
  </g>
</svg>
