<svg xmlns="http://www.w3.org/2000/svg" height="17.118" width="60.417"><path d="M.233 10.34c-.377-.378-.324-.595.363-1.478.34-.438.706-.98.812-1.205.107-.224.38-.738.606-1.14.528-.94.518-1.224-.09-2.447-.572-1.155-.47-1.528.396-1.442.428.043.568.192 1.033 1.11.453.894.523 1.178.444 1.797-.108.836-1.135 2.904-1.865 3.755l-.803.938c-.369.435-.55.457-.896.111zm17.836 3.938c.47-.454.673-1.296.678-2.815.004-1.3-.19-2.01-.553-2.01-.131 0-.474.328-.762.729-.288.4-.8.92-1.138 1.154-.338.235-.704.641-.813.904-.109.263-.263.478-.341.478-.26 0-.15.494.223 1.007.422.579 1.52 1.13 2 1.004.18-.047.497-.25.706-.45zm10.57.642c.985-.302 1.356-.603 1.91-1.551.612-1.046 1.439-3.566 1.322-4.03-.181-.722-.868-.817-2.508-.348-1.656.474-2.415 1.192-3.01 2.849-.54 1.503-.54 2.178.005 2.825.49.583 1.02.642 2.282.255zM5.837 16.819c-.924-.462-1.757-1.192-2.071-1.815-.159-.315-.42-.768-.58-1.009-.215-.32-.294-.764-.298-1.663-.004-1.042.065-1.355.46-2.088C4.067 8.91 4.972 8.06 5.99 7.76c.964-.284 2.129-.211 2.807.177.495.284 1.047 1.524.893 2.008-.144.453-.902.382-1.144-.107-.328-.66-.597-.86-1.313-.967-.627-.094-.814-.043-1.482.399-.956.633-1.366 1.48-1.366 2.82 0 1.19.285 1.8 1.263 2.71.743.691.75.694 2.002.694 1.311 0 1.895-.187 2.887-.922.286-.211.594-.385.685-.385.09 0 .547-.367 1.016-.816.468-.449.948-.816 1.066-.816.119 0 .32-.202.45-.45.128-.246.479-.671.779-.943.3-.273.987-1.001 1.525-1.619 1.162-1.331 1.628-1.814 2.329-2.415.454-.389.575-.423.93-.26.482.219.53.344.737 1.939.195 1.505.2 3.911.011 4.89-.166.862-.129.932.361.692.202-.1.533-.227.736-.284.203-.057.482-.322.62-.59.139-.266.474-.62.747-.786.272-.166.671-.56.886-.876.215-.317.614-.82.885-1.117.272-.298.535-.67.585-.825.05-.157.412-.502.806-.767.393-.266.926-.64 1.185-.83.999-.739 4.11-1.228 5.192-.817.606.23.887-.046.894-.88.003-.371.302-1.776.664-3.123.362-1.347.698-2.692.748-2.989.084-.507.125-.536.683-.49l.593.05-.021.98c-.012.539-.288 2.057-.613 3.375-.324 1.317-.59 2.585-.59 2.818 0 .233-.068.551-.151.707-.204.383-.666 2.465-.666 2.998 0 .236-.11.52-.244.632-.283.235-.318 1.12-.078 1.983.123.443.312.665.74.868.505.24.73.25 1.834.077 1.69-.263 4.932-1.46 4.932-1.822 0-.07.167-.126.372-.126.369 0 .895-.298 1.487-.843.17-.156.573-.402.898-.546a27.076 27.076 0 002.323-1.183c.325-.185 1.054-.456 1.621-.6.567-.146 1.11-.33 1.206-.41.096-.079.579-.31 1.073-.511.763-.312 1.217-.37 3.02-.382 1.848-.013 2.15.022 2.337.273.119.158.486.43.817.604 1.09.572 2.682 2.28 3.28 3.519.302.627.684 1.407.847 1.733.495.984.448 2.101-.088 2.101-.408 0-1.37-1.27-1.66-2.195a4.752 4.752 0 00-.987-1.687c-.384-.424-.7-.815-.704-.87-.016-.289-2.006-1.603-2.804-1.852-1.467-.457-3.517-.312-4.875.344-1.41.68-2.119.986-2.612 1.124a2.104 2.104 0 00-.653.318c-.135.113-.539.297-.898.41-.36.112-.8.333-.98.491a2.22 2.22 0 01-.679.395c-.194.058-.628.325-.965.593-.337.267-1.023.602-1.525.744-.501.142-1.45.55-2.109.906-1.011.548-1.427.673-2.693.807-2.22.235-2.942.096-3.571-.687-.282-.35-.599-.637-.704-.637-.106 0-.331.26-.502.576-.235.436-.47.618-.964.748a34.48 34.48 0 00-1.44.426c-.928.3-2.448.2-2.877-.189-.155-.14-.367-.255-.47-.255-.23 0-.56-.758-.838-1.918-.113-.472-.255-.857-.316-.857-.156 0-.673.625-.673.814 0 .086-.224.273-.499.415-.274.142-.761.505-1.082.808-.624.589-1.593 1-2.909 1.233-.449.08-1.13.232-1.515.338-.597.164-.793.15-1.347-.1-.356-.161-.648-.35-.648-.42s-.135-.17-.3-.223c-.166-.052-.539-.461-.829-.909-.666-1.028-.968-1.038-2.137-.072-1.464 1.21-3.827 2.2-5.224 2.189-.314-.002-.836-.137-1.16-.3z"/></svg>