<svg xmlns="http://www.w3.org/2000/svg" height="27.392" width="45.864"><path d="M.215 12.754c-.463-.187-.149-1.09.66-1.899.561-.561.973-1.745.983-2.827.01-1.093-.141-1.403-.848-1.74a.803.803 0 01-.479-.646c-.042-.364.028-.462.39-.553.664-.167 1.22.106 1.817.889.486.637.538.812.538 1.81 0 .61-.08 1.357-.18 1.662-.288.891-.64 1.616-.787 1.616-.075 0-.228.222-.34.493-.22.528-1.043 1.311-1.359 1.29a1.56 1.56 0 01-.395-.095zm17.597-2.464c1.666-.895 1.687-.907 2.336-1.35.327-.222.596-.473.596-.557 0-.084.136-.305.3-.49.472-.531.817-1.691.938-3.156l.112-1.35-.587-.884c-.528-.796-.66-.896-1.314-.994-1.152-.173-2.06.05-2.54.624-.23.274-.693.806-1.03 1.182-.337.377-.612.764-.612.86 0 .095-.092.27-.204.39-.357.376-1.277 2.433-1.44 3.216-.49 2.355-.537 2.821-.301 2.97.127.081.765.148 1.419.15 1.064.001 1.307-.062 2.327-.61zM4.245 19.868c-.635-.28-.833-.49-1.335-1.422-.694-1.289-1.098-2.39-1.101-3.007-.003-.649.639-2.255 1.059-2.647.2-.186.41-.485.47-.665.173-.53 2.186-1.852 3.01-1.975.75-.113 1.826.236 1.826.591 0 .095.162.391.359.659.332.448.339.506.094.75-.245.246-.32.227-.963-.247-.386-.283-.9-.513-1.15-.513-.649 0-1.545.472-1.75.921-.096.212-.24.386-.32.386-.08 0-.357.312-.616.693-.42.62-.469.826-.456 1.919.016 1.336.225 1.896 1.067 2.855.626.713 1.272.766 1.884.153.376-.376.469-.4.887-.226.412.17.565.137 1.319-.289.469-.265.902-.585.963-.712.736-1.53 1.403-2.753 1.636-2.997.081-.086.148-.356.148-.601s.108-.553.239-.684c.394-.395.885-1.888 1.08-3.286.101-.723.246-1.462.323-1.642.076-.18.423-.95.772-1.714.348-.763.68-1.574.736-1.8.057-.228.437-.843.844-1.367.407-.525.74-1.013.74-1.085 0-.196 2.117-1.553 2.799-1.794 1.095-.388 2.991.199 3.475 1.075.097.175.228.357.29.405.064.047.31.51.547 1.028.404.882.42 1.005.252 1.967-.098.564-.179 1.223-.179 1.464 0 .622-1.107 2.845-1.582 3.176-.22.153-.71.535-1.088.85-.379.314-1.44.9-2.356 1.301-1.807.792-1.974 1.012-1.381 1.82.158.213.498.806.756 1.316s.717 1.167 1.02 1.46c.302.294.55.62.55.725 0 .243.909.84 2.364 1.554l1.139.558h3.677c2.376 0 4.081-.077 4.82-.217 1.21-.23 3.372-.788 3.918-1.012.18-.073.528-.177.774-.23.246-.054.907-.306 1.47-.56 1.924-.872 2.258-1.001 2.573-1.001.174 0 .74-.283 1.26-.628.52-.345 1.374-.877 1.9-1.183.527-.306 1.115-.72 1.307-.921.218-.228.547-.366.877-.368.436-.002.546.073.637.434.089.356.022.506-.365.815-.26.209-.588.38-.729.38-.14 0-.452.207-.693.458-.24.252-.934.71-1.54 1.02-.607.31-1.14.604-1.185.652-.155.167-2.082.973-2.326.973-.264 0-1.35.438-2.654 1.07-.449.217-1.404.504-2.122.638s-1.967.397-2.776.585c-1.135.263-2.23.36-4.816.425-3.227.081-3.393.07-4.653-.321-1.903-.591-2.696-.906-2.97-1.181-.135-.134-.458-.354-.719-.49-.26-.134-.474-.308-.474-.386 0-.077-.32-.576-.712-1.108-.392-.532-.8-1.233-.907-1.558-.311-.942-2.215-3.062-2.75-3.062-.357 0-.379.039-.934 1.643-.538 1.553-1.602 3.44-2.47 4.384-.94 1.02-2.257 1.674-3.819 1.894-.404.057-.845.132-.98.166-.134.035-.58-.084-.99-.264zm4.022 7.268c-.14-.141-.256-.315-.256-.386 0-.182.961-1.373 1.233-1.526.365-.207.89-1.574.882-2.301-.004-.418-.159-.921-.407-1.327-.609-.994-.629-1.067-.361-1.335.257-.258.938-.169.938.122 0 .084.1.152.22.152.664 0 .992 1.248.818 3.118-.095 1.022-.18 1.25-.696 1.857a16.3 16.3 0 00-.831 1.056c-.21.312-.96.826-1.205.826-.043 0-.194-.115-.335-.256z" stroke-width=".163"/></svg>