<svg xmlns="http://www.w3.org/2000/svg" height="28.066" width="33.609"><path d="M.2 13.754c-.447-.18-.074-1.525.423-1.525.063 0 .295-.33.516-.734.22-.404.45-.735.512-.735.195 0 .63-1.506.63-2.182 0-.36-.145-.954-.323-1.322-.177-.367-.368-.894-.424-1.172-.091-.456-.056-.513.363-.593.68-.13 1.02.13 1.477 1.128.574 1.254.569 2.439-.017 3.814-.248.584-.688 1.319-.977 1.633-.29.314-.728.847-.974 1.184-.42.574-.72.7-1.206.504zm23.215 6.251c-.103-.411.093-1.133.918-3.368.683-1.849.728-2.338.325-3.495-.427-1.226-.425-1.24.126-1.24.45 0 1.171.57 1.171.925 0 .092.144.299.32.458.304.275.359.276 1.008.016.377-.151.867-.417 1.089-.592.221-.174.581-.316.8-.316.218 0 .548-.082.733-.18.247-.133.605-.131 1.336.005 1.37.256 1.685.447 2.095 1.27.325.65.338.78.15 1.562a21.13 21.13 0 00-.334 1.914 16.776 16.776 0 01-.3 1.714c-.094.36-.214.85-.268 1.089-.124.553-1.02.823-1.329.4-.223-.306.016-1.83.668-4.257.36-1.337.372-1.494.143-1.844-.561-.856-1.936-.93-3.336-.178-.906.486-1.959 1.613-1.959 2.096 0 .106-.25.645-.556 1.198-.305.553-.689 1.436-.851 1.962-.308.995-.604 1.248-1.457 1.248-.28 0-.423-.113-.492-.387zm-6.195-8.203c1.472-.477 2.768-1.104 3.193-1.542.23-.237.623-.565.873-.73.552-.361 1.793-2.206 2.15-3.195.158-.44.269-1.331.285-2.302l.027-1.584-.561-.58c-.515-.53-.639-.578-1.502-.578-.878 0-.979.04-1.506.612-.803.87-1.244 1.454-1.244 1.645 0 .09-.293.74-.651 1.443a34.66 34.66 0 00-1.239 2.83c-1.433 3.78-1.423 3.746-1.21 4.003.254.306.384.304 1.385-.022zm-12 8.89c-.314-.09-.64-.23-.726-.312a.693.693 0 00-.42-.15c-.268 0-.976-.644-.976-.888 0-.072-.219-.38-.486-.684-.267-.304-.608-.974-.757-1.49-.332-1.142-.176-1.915.68-3.359.31-.522.563-1.006.563-1.074 0-.068.33-.361.735-.651.404-.29.734-.58.734-.644 0-.064.257-.254.57-.423.546-.294.611-.295 1.594-.03.833.226 1.096.384 1.412.844.372.542.376.58.103.883-.282.311-.297.31-1.08-.1-1.523-.796-2.478-.236-3.584 2.103-.567 1.198-.603 1.782-.162 2.646.933 1.83 2.607 2.486 4.253 1.664.295-.147.696-.267.89-.267.511 0 1.734-.923 2.714-2.048.466-.535.892-1.01.947-1.054.108-.088 1.034-1.573 1.478-2.367.15-.27.407-.931.571-1.47.164-.539.352-1.053.418-1.143.066-.09.21-.446.322-.79a8.35 8.35 0 01.428-1.062c.125-.238.227-.594.227-.791 0-.197.066-.397.144-.446.21-.13.985-1.808 1.415-3.062.521-1.52 1.348-2.855 2.054-3.318l1.045-.694c1.593-1.063 3.522-.436 4.5 1.463.44.852.428 2.833-.024 4.118-.588 1.673-1.261 2.817-2.158 3.665-1.548 1.464-2.38 2.003-4.403 2.858-.699.294-.812.758-.278 1.132.375.263.972 1.69.972 2.324 0 .69.664 2.516.975 2.683.591.316.583 1.37-.011 1.558-.367.116-.965-.044-.965-.258 0-.083-.211-.5-.47-.928-.274-.452-.656-1.531-.911-2.574-.242-.988-.565-1.943-.719-2.122-.33-.388-1.255-1.062-1.456-1.062-.237 0-.82.705-1.064 1.284-.126.3-.516.875-.866 1.278-2.655 3.054-3.752 3.879-6.017 4.529-.804.23-1.502.413-1.55.405a14.69 14.69 0 01-.66-.176zm4.012 7.118c-.375-.375-.31-.733.247-1.377 1.388-1.603 1.456-1.748 1.456-3.13 0-1.2-.026-1.297-.395-1.464-.669-.305-.707-1.17-.06-1.376.375-.119.983.273 1.503.968.248.333.35.763.396 1.68.055 1.096.012 1.332-.397 2.14-.436.861-2.073 2.815-2.36 2.815-.073 0-.249-.115-.39-.256z" stroke-width=".163"/></svg>