<svg xmlns="http://www.w3.org/2000/svg" height="28.94" width="72.117"><path d="M.037 7.23c-.134-.421.087-.807.871-1.515.356-.321.7-.756.764-.966.064-.21.171-.455.237-.545.509-.69.257-2.224-.496-3.03C1.14.882.94.535.966.402c.076-.38.686-.528 1.164-.28.232.12.542.243.689.273.363.073.71 1.153.722 2.252.017 1.518-.304 2.39-1.287 3.5C1.013 7.548.255 7.919.037 7.23zm62.42 14.25c-.37-.095-.522-.553-.265-.803.264-.257 2.803-.665 4.945-.795.898-.055 2.183-.213 2.857-.353.92-.19 1.336-.21 1.673-.078.478.185.601.671.245.962-.31.255-3.169.654-6.081.85-1.437.097-2.723.2-2.858.232-.134.03-.367.024-.516-.014zm4.545-8.581c.532-.363 1.033-1.295 1.033-1.922 0-.804-1.346.091-1.54 1.024l-.178.857c-.104.502-.002.508.685.04zm-26.796 3.878c.83-.923 1.028-1.386 1.168-2.744.1-.957-.187-1.717-.693-1.845-.206-.051-.797-.006-1.314.102-.805.167-1.053.315-1.737 1.034-1.008 1.063-2.266 2.97-2.153 3.265.047.124.247.311.444.417.198.105.542.298.767.427.25.144.856.237 1.559.239l1.15.002.809-.898zM30.464 28.49c-.137-.35-.114-.611.102-1.184.327-.868.696-2.21.92-3.347a357.7 357.7 0 01.413-2.04c.138-.674.309-1.52.38-1.878.07-.36.293-1.241.495-1.96.202-.718.414-1.747.47-2.285.056-.54.157-1.066.224-1.172.067-.105.038-.376-.065-.602-.206-.453-.092-.45-3.246-.106a97.503 97.503 0 01-5.796.426c-7.94.298-10.778.38-13.502.385-1.769.004-3.598.09-4.065.19-.694.148-1.06.132-2.017-.094-1.369-.322-1.375-.326-1.885-1.068-.216-.314-.442-.608-.504-.653-.06-.045-.28-.376-.488-.735-.307-.531-.38-.901-.387-1.985-.008-1.273.015-1.36.525-1.959.293-.345.69-.85.881-1.123.219-.313.837-.733 1.67-1.135 2.707-1.308 5.371-.781 4.93.975-.088.353-.171.41-.466.316-.197-.063-.558-.262-.801-.442-.364-.269-.598-.31-1.31-.229C5.54 6.945 4.983 7.179 4.065 8c-.81.726-.88.847-1.048 1.85-.18 1.06-.175 1.085.352 2.006.414.724.697 1.01 1.259 1.274.712.335.846.339 8.106.23 4.06-.06 8.742-.178 10.403-.26 1.661-.084 4.005-.199 5.207-.256 1.203-.057 2.415-.17 2.694-.253.28-.082 1.184-.195 2.011-.25l1.504-.103.292.523c.25.447.36.51.761.432.28-.054.732-.388 1.121-.83.776-.882 1.207-1.123 2.563-1.437.853-.197 1.169-.201 1.921-.026.495.115 1.014.323 1.154.462.555.555.61 3.38.086 4.41-.293.575-.211.663.49.531.591-.11 1.54-.877 3.461-2.792 1.271-1.268 2.653-2.04 3.647-2.04.567 0 1.469.353 2.193.859.236.164.379.149.776-.084 2.224-1.306 4.452-1.67 5.846-.955 1.227.629 1.468 2.088.748 4.53-.256.87-.265 1.043-.066 1.283.37.445 1.543.193 3.023-.651.702-.4 1.338-.79 1.415-.866.076-.077.327-.9.557-1.831.23-.931.657-2.138.95-2.683.446-.828.68-1.068 1.428-1.465 1.014-.538 1.433-.508 2.137.15.61.57.592 1.29-.059 2.399-.279.475-.572.889-.651.918-.08.03-.261.3-.404.6-.142.3-.515.717-.827.926-.313.209-.674.626-.802.927-.213.498-.207.587.075.98.17.237.498.595.73.795.477.412.428.734-.151.998-.34.155-.502.11-1.11-.3-.392-.265-.806-.593-.92-.73-.345-.416-1.165-.255-1.767.348a.862.862 0 01-.529.219c-.17 0-.611.157-.98.349-.417.217-1.1.38-1.81.43-1.083.078-1.163.06-1.635-.39-.452-.428-.49-.54-.409-1.238.049-.421.203-.989.344-1.26.14-.272.301-1.037.357-1.701.094-1.109.072-1.238-.267-1.577-.34-.34-.463-.36-1.576-.26-.887.08-1.365.216-1.799.51-.325.221-.68.402-.79.402-.209 0-2.204 3.87-2.204 4.275 0 .13-.223.449-.496.71-.4.383-.55.44-.775.296-.316-.202-.326-.73-.037-1.853.296-1.147.388-2.848.177-3.243-.14-.263-.34-.348-.814-.348-1.208 0-1.57.161-2.23.994-.35.441-.725.801-.834.801-.11 0-.476.331-.813.735-.338.404-.68.735-.759.735-.079 0-.585.335-1.124.745-.539.41-1.175.831-1.413.936-.238.104-.72.393-1.07.642-.35.249-.85.452-1.11.452-.26 0-.7.118-.978.261-.37.192-.839.246-1.751.205-1.086-.05-1.357-.129-2.109-.611-.486-.312-.92-.49-.994-.408-.425.472-.99 1.935-1.128 2.92-.16 1.141-.666 3.135-1.306 5.144a40.266 40.266 0 00-.516 1.755c-.16.621-.228.694-.665.694-.38 0-.526-.099-.663-.45z" stroke-width=".163"/></svg>