<?xml version="1.0" encoding="UTF-8" standalone="no"?>
<svg
   xmlns:dc="http://purl.org/dc/elements/1.1/"
   xmlns:cc="http://creativecommons.org/ns#"
   xmlns:rdf="http://www.w3.org/1999/02/22-rdf-syntax-ns#"
   xmlns:svg="http://www.w3.org/2000/svg"
   xmlns="http://www.w3.org/2000/svg"
   id="svg2663"
   viewBox="0 0 21.224029 18.354288"
   version="1.1"
   height="18.354288"
   width="21.22403">
  <defs
     id="defs2667" />
  <metadata
     id="metadata2">
    <rdf:RDF>
      <cc:Work
         rdf:about="">
        <dc:format>image/svg+xml</dc:format>
        <dc:type
           rdf:resource="http://purl.org/dc/dcmitype/StillImage" />
        <dc:title />
      </cc:Work>
    </rdf:RDF>
  </metadata>
  <g
     transform="translate(-218.11997,-624.1863)"
     id="g2661">
    <g
       style="stroke-width:0.16327"
       id="g2557">
      <path
         d="m 218.12,631.38 c 0,-0.16267 0.14694,-0.45347 0.32653,-0.64624 0.1796,-0.19277 0.32654,-0.42483 0.32654,-0.51569 0,-0.0909 0.21929,-0.32735 0.48731,-0.5255 0.68256,-0.50464 1.0524,-1.5535 0.92731,-2.6297 -0.11758,-1.0114 0.0316,-1.3459 0.5297,-1.1878 1.2682,0.4025 1.3367,2.302 0.13636,3.7809 -0.20922,0.25778 -0.50981,0.67423 -0.66798,0.92545 -0.56054,0.89032 -2.0658,1.4722 -2.0658,0.79852 z m 10.775,11.079 c -0.79389,-0.10571 -1.3145,-0.33187 -3.5587,-1.5459 -0.15294,-0.0827 -0.59799,-0.5506 -0.98899,-1.0397 -1.7385,-2.1746 -1.7345,-5.1916 0.0116,-8.8507 1.1742,-2.4606 1.8622,-3.3876 4.0463,-5.4514 1.1328,-1.0704 3.8967,-1.6434 6.1335,-1.2716 1.818,0.30223 4.0001,1.6051 4.6161,2.7562 0.10405,0.19444 0.18919,0.65222 0.18919,1.0173 0,0.62317 -0.0289,0.66379 -0.47206,0.66379 -0.39486,0 -0.513,-0.10227 -0.72223,-0.62519 -0.26257,-0.65623 -1.1606,-1.5568 -1.7338,-1.7388 -0.18548,-0.0589 -0.33726,-0.17262 -0.33726,-0.25275 0,-0.0801 -0.31224,-0.23451 -0.69387,-0.34305 -0.38164,-0.10854 -0.76368,-0.25843 -0.84898,-0.33309 -0.42735,-0.37401 -3.5396,0.0213 -4.56,0.57915 -0.34842,0.19048 -0.78086,0.4198 -0.961,0.5096 -0.37756,0.18823 -2.4055,2.8075 -2.4055,3.107 0,0.10999 -0.11132,0.29239 -0.24738,0.40531 -0.72216,0.59933 -1.6517,3.2267 -1.8865,5.3322 l -0.1677,1.5041 0.56125,1.193 c 0.39308,0.83551 0.71313,1.2812 1.068,1.4873 0.27869,0.16183 0.5833,0.43734 0.6769,0.61225 0.0936,0.17489 0.26514,0.31799 0.38119,0.31799 0.11605,0 0.68286,0.19313 1.2596,0.42919 1.0167,0.41615 1.1217,0.42627 3.4552,0.33308 1.3236,-0.0529 2.5359,-0.16313 2.6939,-0.24506 0.15798,-0.0819 0.63158,-0.19887 1.0525,-0.2599 0.66075,-0.0958 0.78885,-0.0668 0.93819,0.21219 0.29259,0.54673 0.0264,0.8232 -1.1089,1.152 -1.2113,0.3508 -4.866,0.54831 -6.3904,0.34533 z"
         id="account_abv" />
    </g>
  </g>
</svg>
