<svg xmlns="http://www.w3.org/2000/svg" height="28.689" width="63.609"><path d="M.204 8.327C.092 8.287 0 8.029 0 7.755c0-.375.233-.765.933-1.563.914-1.04.936-1.089 1.052-2.301.1-1.044.068-1.352-.199-1.956C1.314.868 1.36.607 2.016.607c.612 0 .937.288 1.289 1.143.28.679.09 2.945-.296 3.545-.129.2-.234.48-.234.625 0 .267-1.674 2.125-2.12 2.354-.136.07-.339.093-.45.052zm53.05 14.377c-.438-.354-.35-.799.19-.975.193-.064.83-.108 1.413-.098.584.009 1.906-.084 2.939-.207 2.9-.345 5.657-.47 5.786-.261.06.097.013.38-.105.627-.246.515-.452.55-5.11.853-1.436.093-3.09.213-3.675.267-.889.081-1.126.047-1.439-.206zm-3.28-14.96c.144-.288.414-.819.6-1.178.584-1.129.681-1.433.93-2.895.305-1.79.163-2.313-.444-1.636-.442.494-.914 1.987-1.577 4.995-.137.62-.072 1.255.128 1.245.057-.003.22-.242.364-.53zm8.213 6.482c.054-.142.099-.472.099-.734 0-.483-.19-.581-.728-.375-.322.123-.793.99-.657 1.21.164.265 1.175.187 1.286-.1zm-1.042 3.665c1.494-1.539.938-2.316-1.445-2.019-.685.086-1.011.235-1.518.693-.882.797-.806 1.15.349 1.611 1.395.559 1.843.51 2.614-.285zm-19.6 1.31c.754-.173 2.09-1.222 2.335-1.836.07-.173.253-.58.409-.903.4-.837.387-2.877-.024-3.488-.26-.386-.413-.449-1.09-.449-.434 0-.828.064-.877.143-.048.078-.31.186-.583.241-.451.09-.802.39-2.164 1.855-.247.265-.45.579-.45.696 0 .117-.137.515-.305.884-.781 1.716-.802 2.296-.1 2.848.423.333 1.411.336 2.849.008zm-7.178 8.593c0-.543.184-1.455.47-2.326.857-2.616 1.005-3.265 1.173-5.131.092-1.019.23-2.073.307-2.342.077-.27.22-.95.32-1.51.098-.562.263-1.465.366-2.009.13-.678.135-1.04.02-1.156-.168-.168-4.383.13-7.554.531-1.328.169-4.254.279-9.55.358-1.348.02-2.89.138-3.43.26-.605.139-2.07.231-3.836.242-2.616.017-2.92-.011-3.592-.335-1.09-.524-1.522-1.06-2.03-2.518-.339-.972-.319-1.607.081-2.633.659-1.687 2.088-3.347 3.369-3.914 1.417-.627 3.513-.294 3.735.594.06.24.023.52-.086.652-.166.2-.283.2-.855-.002-1.097-.386-2.107-.305-2.843.229-.927.673-1.765 1.783-2.077 2.752-.404 1.25-.355 1.766.225 2.404.274.301.597.682.717.846.233.318 1.01.385 4.825.415 3.05.024 12.162-.324 12.908-.492.399-.09 2.264-.204 4.145-.253 1.995-.052 4.128-.204 5.119-.365 1.887-.308 2.09-.262 2.481.564.135.284.301.518.37.52.069.002.53-.326 1.024-.729.495-.403 1.1-.773 1.345-.824.245-.05.713-.171 1.041-.268.328-.097.806-.134 1.062-.083 1.61.32 1.852.45 1.852.999 0 .196.108.5.24.674.17.224.24.747.24 1.786 0 1.04-.07 1.562-.24 1.786-.697.921.179 1.247 1.123.418.307-.27.636-.49.732-.49.096 0 .234-.092.305-.204.072-.112.498-.533.947-.935 1.63-1.46 2.423-2.982 2.852-5.473.305-1.767.835-4.03 1.072-4.571.117-.27.3-.931.404-1.47.105-.539.254-1.09.332-1.224.078-.135.32-.62.536-1.076.467-.983 1.35-1.63 2.004-1.466.686.173.938 1.039.838 2.88-.085 1.563-.438 2.755-1.107 3.743-.152.225-.401.85-.554 1.388-.153.539-.452 1.247-.664 1.573-.213.327-.501.841-.641 1.143-.283.61-.575 1.062-1.347 2.085-.396.524-.568.981-.717 1.908-.108.67-.26 1.258-.337 1.305-.273.17-.135 1.062.26 1.69.52.822 1.121.973 2.03.51.362-.185.772-.336.91-.336.193 0 .252-.19.252-.806 0-.443-.078-1.01-.173-1.259-.094-.25-.13-.62-.079-.825.092-.366.122-.37 1.774-.27l1.68.103.644-.553c.354-.304.664-.596.688-.647.133-.278 3.16-3.253 3.31-3.253.749 0 1.135.838 1.135 2.46 0 1.54.05 1.621.987 1.621 1.432 0 1.99.436 1.327 1.036-.203.184-.591.27-1.213.27-1.004 0-1.354.217-1.535.95-.42 1.705-2.87 3.559-3.944 2.985-.184-.1-.583-.18-.886-.18-.557 0-1.813-.511-2-.815-.19-.308-.94-.165-1.843.352-.78.446-1.066.518-2.103.527-1.162.01-1.218-.008-1.78-.569-.457-.458-.619-.79-.77-1.588-.176-.924-.227-1.009-.611-1.009-.276 0-.641.228-1.065.663-.355.364-.94.793-1.299.952-.36.16-.94.56-1.288.889-.35.33-.777.598-.951.598-.174 0-.858.26-1.52.579-1.37.659-2.515.888-4.441.89-1.333.002-1.345.005-1.443.45-.054.247-.24.89-.415 1.428a67.673 67.673 0 00-1.236 4.327c-.313 1.284-.446 1.47-1.052 1.47-.46 0-.47-.019-.47-.895z" stroke-width=".163"/></svg>