<?xml version="1.0" encoding="UTF-8" standalone="no"?>
<svg
   xmlns:dc="http://purl.org/dc/elements/1.1/"
   xmlns:cc="http://creativecommons.org/ns#"
   xmlns:rdf="http://www.w3.org/1999/02/22-rdf-syntax-ns#"
   xmlns:svg="http://www.w3.org/2000/svg"
   xmlns="http://www.w3.org/2000/svg"
   id="svg2663"
   viewBox="0 0 36.354678 19.447367"
   version="1.1"
   height="19.447367"
   width="36.354679">
  <defs
     id="defs2667" />
  <metadata
     id="metadata2">
    <rdf:RDF>
      <cc:Work
         rdf:about="">
        <dc:format>image/svg+xml</dc:format>
        <dc:type
           rdf:resource="http://purl.org/dc/dcmitype/StillImage" />
        <dc:title />
      </cc:Work>
    </rdf:RDF>
  </metadata>
  <g
     transform="translate(-220.25,-645.48118)"
     id="g2661">
    <g
       style="stroke-width:0.16327"
       id="g2557">
      <path
         d="m 220.25,654.65 c 1.4e-4,-0.22389 0.31219,-0.67349 0.79902,-1.1512 0.49138,-0.48222 0.83917,-0.98485 0.9037,-1.3061 0.0577,-0.28724 0.14838,-0.73161 0.20149,-0.98751 0.0661,-0.31847 -0.0177,-0.66849 -0.2655,-1.1095 -0.19914,-0.35431 -0.32106,-0.75108 -0.27094,-0.88169 0.13951,-0.36356 0.74509,-0.28335 1.3513,0.179 0.51205,0.39055 0.54603,0.47732 0.54603,1.3942 0,1.3189 -0.42851,2.132 -1.9874,3.7712 -0.55296,0.58144 -1.278,0.63339 -1.2776,0.0915 z m 10.612,10.169 c -0.1347,-0.0901 -0.53878,-0.16531 -0.89796,-0.16723 -0.35918,-0.002 -0.83674,-0.10154 -1.0612,-0.22134 -0.56883,-0.30358 -2.2857,-1.911 -2.2857,-2.1399 0,-0.1037 -0.20926,-0.51849 -0.465,-0.92177 -0.64096,-1.0107 -0.90746,-2.5317 -0.6837,-3.9021 0.32965,-2.0189 0.37301,-2.2051 0.57027,-2.449 0.10896,-0.13469 0.29652,-0.50204 0.41678,-0.81632 0.12026,-0.31429 0.57318,-1.029 1.0065,-1.5883 0.43331,-0.5593 0.78782,-1.082 0.78782,-1.1615 0,-0.52408 3.0745,-2.9644 3.7348,-2.9644 0.13409,0 0.56964,-0.15775 0.9679,-0.35055 1.312,-0.63513 4.0376,-0.34948 5.6432,0.59147 0.62421,0.36581 0.75622,0.52597 0.75622,0.91745 0,0.41538 -0.0593,0.47428 -0.47727,0.47428 -0.2625,0 -0.68521,-0.1653 -0.93938,-0.36734 -0.91424,-0.72676 -1.1706,-0.7951 -2.9826,-0.7951 -1.828,0 -2.1467,0.0924 -3.4375,0.99688 -0.22449,0.15729 -0.55706,0.33211 -0.73905,0.38847 -0.182,0.0564 -0.43914,0.25966 -0.57143,0.45174 -0.1323,0.1921 -0.62626,0.80676 -1.0977,1.3659 -0.47143,0.55918 -0.85715,1.0912 -0.85715,1.1824 0,0.0911 -0.10986,0.25685 -0.24414,0.36829 -0.13429,0.11145 -0.32959,0.48779 -0.43401,0.83631 -0.10443,0.34854 -0.2399,0.6337 -0.30108,0.6337 -0.25664,0 -0.4752,0.88104 -0.58305,2.3503 -0.0953,1.2982 -0.0654,1.7004 0.17423,2.3432 0.4561,1.2234 1.8423,3.06 2.4067,3.1887 0.20303,0.0463 0.78976,0.23871 1.3038,0.42755 1.1308,0.41531 3.3214,0.46889 4.3489,0.10636 0.97737,-0.34483 2.798,-1.2734 2.798,-1.4271 0,-0.0725 0.0702,-0.13185 0.15602,-0.13185 0.4126,0 2.632,-1.6468 3.8505,-2.8571 0.54242,-0.53878 1.8152,-1.751 2.8283,-2.6939 2.0981,-1.9525 1.8854,-1.7428 4.347,-4.2857 1.0214,-1.0551 1.9056,-1.9184 1.965,-1.9184 0.17354,0 2.69,-2.5867 2.69,-2.7651 0,-0.0892 0.1653,-0.25024 0.36734,-0.35788 0.20204,-0.10764 0.66123,-0.5048 1.0204,-0.88258 0.76446,-0.80405 1.0865,-0.94766 1.4799,-0.65998 0.26877,0.19652 0.25809,0.24808 -0.16678,0.80511 -0.24966,0.32733 -0.50551,0.59513 -0.56857,0.59513 -0.13947,0 -2.1316,1.9646 -2.1341,2.1047 -0.002,0.0547 -0.36527,0.35657 -0.80953,0.67085 -0.44428,0.31429 -0.85203,0.69849 -0.90612,0.85378 -0.0541,0.1553 -0.30557,0.40475 -0.55881,0.55434 -0.25324,0.1496 -0.63448,0.4886 -0.8472,0.75334 -0.44322,0.55159 -2.7703,2.9402 -3.9786,4.0838 -0.44898,0.42495 -0.93968,0.90176 -1.0904,1.0596 -0.15074,0.15785 -0.77045,0.72781 -1.3771,1.2666 -0.60666,0.53878 -1.4128,1.2735 -1.7913,1.6327 -0.37856,0.35918 -1.0414,0.94693 -1.4729,1.3061 -0.43153,0.35918 -1.0239,0.87347 -1.3164,1.1428 -0.2925,0.26939 -0.88346,0.63132 -1.3133,0.8043 -0.42979,0.17298 -0.81817,0.35993 -0.86306,0.41546 -0.20758,0.2567 -1.4528,0.88656 -2.0408,1.0323 -0.93267,0.23115 -4.032,0.31767 -4.3265,0.12075 z"
         id="accounts_abv" />
    </g>
  </g>
</svg>
