<svg xmlns="http://www.w3.org/2000/svg" height="24.245" width="58.786"><path d="M50.94 6.14c-.363-.23-.074-.698.952-1.542 1.188-.978 1.541-1.656 1.403-2.695-.24-1.8-.223-1.903.31-1.903.395 0 .553.12.855.653.682 1.205.434 2.595-.695 3.904-1.218 1.41-2.216 1.97-2.825 1.583zM.147 11.847c-.262-.489-.216-.62.484-1.38.36-.389.653-.835.653-.99 0-.156.145-.467.322-.692.63-.8.628-2.04-.003-2.67-.18-.18-.37-.655-.426-1.057l-.1-.732h.582c.637 0 .895.265 1.58 1.62.297.585.346.878.262 1.55-.193 1.547-.599 2.589-1.264 3.245-.345.34-.746.8-.89 1.02-.318.486-.961.532-1.2.086zm40.153 3.64c.6-.12 2.262-1.58 2.924-2.568 1.749-2.61 1.833-2.795 1.456-3.172-.527-.527-3.278-.031-3.885.7-.112.135-.291.247-.398.247-.106 0-.638.422-1.18.938-.784.745-1.026 1.097-1.175 1.705-.168.687-.15.828.164 1.362.48.814.994 1.007 2.094.787zM5.194 18.363c-.39-.107-1.383-.7-1.965-1.175-.316-.257-.966-2.136-.966-2.793 0-1 .837-3.007 1.66-3.98.434-.514.919-1.01 1.075-1.1.47-.273 2.36-.908 2.7-.908.98 0 2.367 1.492 1.904 2.05-.295.355-.625.287-1.242-.254-.822-.722-1.18-.645-2.662.569-1.129.924-1.777 2.087-1.794 3.221-.013.863.433 2.106.909 2.536.388.35.53.367 3.132.362 1.5-.003 4.158-.085 5.91-.181a208.23 208.23 0 014.897-.216c1.677-.04 2.85-.132 8.327-.648 1.481-.14 3.502-.3 4.49-.357 1.36-.078 1.925-.18 2.326-.422.292-.176.53-.369.531-.429 0-.06.333-.32.74-.576.449-.283.83-.682.967-1.01.125-.3.415-.707.644-.906.229-.2.494-.597.588-.884.244-.74.712-1.133 2.385-2.006.893-.465 3.174-1.31 3.787-1.403.5-.075.869-.027 1.278.167.574.272.577.272 1.061-.213.444-.444.84-1.519 1.222-3.319a4.14 4.14 0 01.24-.734c.142-.306 1.04-2.758 1.24-3.388.097-.307.483-.37.849-.138.268.17.127 1.722-.237 2.596-.123.297-.337 1.135-.475 1.862-.138.728-.318 1.404-.4 1.502-.276.334-.974 2.646-1.409 4.668a31.684 31.684 0 01-.494 1.99c-.3.996-.293 1.767.023 2.218.219.312.404.363 1.317.363.584 0 1.223-.082 1.42-.183.68-.35 3.809-3.488 4.129-4.143.131-.27.454-.82.717-1.225.554-.853.98-1.743.98-2.05 0-.12.063-.255.14-.303.078-.048.235-.422.35-.83.114-.41.27-.783.348-.83.078-.049.14-.213.14-.366s.148-.553.327-.888c.18-.335.327-.75.327-.922 0-.535.66-2.066 1.09-2.53.376-.406.44-.423.762-.207.566.38.406 1.21-1.029 5.334-.446 1.283-.704 2.37-.814 3.429-.09.853-.276 1.918-.414 2.367-.296.955-.49 3.19-.299 3.433.073.092.335.295.582.452.543.346.587.866.087 1.025-.446.14-1.499.15-1.718.015-.385-.238-.58-1.603-.47-3.3.061-.939.048-1.706-.03-1.706-.17 0-.691.577-1.073 1.192-.157.252-.375.492-.485.535-.11.042-.698.553-1.307 1.136-1.278 1.222-2.083 1.679-3.36 1.906-1.394.248-2.047.223-2.533-.095-.527-.346-1.062-1.44-1.067-2.185-.002-.291-.063-.53-.136-.53-.072 0-.62.473-1.216 1.052-1.364 1.325-2.763 2.052-3.934 2.044-.937-.006-1.146-.138-2.116-1.343-.56-.695-1.091-1.004-1.091-.635 0 .126-.808.702-2.21 1.576-.478.297-.862.331-4.337.38-2.097.03-3.86.084-3.92.12-.136.084-4.083.529-6.431.724-.988.082-2.27.23-2.848.328-1.186.202-10.477.334-11.12.159zm28.122 5.685c-.327-.327-.226-.594.457-1.211.36-.325.653-.686.653-.803 0-.116.065-.236.143-.266.326-.124 1-1.361 1-1.836 0-.28-.184-.78-.408-1.111-.515-.758-.516-1.075-.002-1.27.565-.215.748-.108 1.296.758.342.54.482.971.49 1.509.011.755-.44 1.977-.731 1.977-.086 0-.156.148-.156.33 0 .426-1.767 2.119-2.211 2.119-.185 0-.424-.088-.532-.196z" stroke-width=".163"/></svg>