<?xml version="1.0" encoding="UTF-8" standalone="no"?>
<svg
   xmlns:dc="http://purl.org/dc/elements/1.1/"
   xmlns:cc="http://creativecommons.org/ns#"
   xmlns:rdf="http://www.w3.org/1999/02/22-rdf-syntax-ns#"
   xmlns:svg="http://www.w3.org/2000/svg"
   xmlns="http://www.w3.org/2000/svg"
   id="svg2663"
   viewBox="0 0 72.117254 28.93961"
   version="1.1"
   height="28.93961"
   width="72.117256">
  <defs
     id="defs2667" />
  <metadata
     id="metadata2">
    <rdf:RDF>
      <cc:Work
         rdf:about="">
        <dc:format>image/svg+xml</dc:format>
        <dc:type
           rdf:resource="http://purl.org/dc/dcmitype/StillImage" />
        <dc:title />
      </cc:Work>
    </rdf:RDF>
  </metadata>
  <g
     transform="translate(-220.2934,-507.5492)"
     id="g2661">
    <g
       style="stroke-width:0.16327"
       id="g2557">
      <path
         d="m 220.33,514.78 c -0.134,-0.42222 0.0875,-0.8073 0.87183,-1.5159 0.35531,-0.32102 0.69875,-0.75548 0.76324,-0.96552 0.0645,-0.21003 0.17137,-0.45535 0.23754,-0.54514 0.50842,-0.68995 0.25721,-2.2239 -0.49629,-3.0306 -0.27205,-0.29125 -0.47307,-0.6386 -0.44667,-0.77189 0.0753,-0.38039 0.68616,-0.52725 1.1634,-0.27969 0.23189,0.12031 0.54206,0.24311 0.68926,0.27289 0.36325,0.0735 0.70916,1.1529 0.7217,2.2521 0.0173,1.5175 -0.30332,2.3899 -1.2862,3.4997 -1.2414,1.4017 -1.9994,1.7722 -2.2178,1.084 z m 62.42,14.25 c -0.3704,-0.0955 -0.52145,-0.55399 -0.26478,-0.80362 0.26428,-0.25708 2.8033,-0.66549 4.9448,-0.7954 0.89796,-0.0545 2.1837,-0.21306 2.8571,-0.35242 0.91984,-0.19034 1.3362,-0.20993 1.6735,-0.0787 0.47729,0.18567 0.60088,0.67153 0.2449,0.96276 -0.31104,0.25447 -3.1691,0.65371 -6.0816,0.84955 -1.4367,0.0966 -2.7224,0.20093 -2.8572,0.23182 -0.13469,0.0309 -0.36721,0.0246 -0.51672,-0.014 z m 4.5452,-8.5821 c 0.5321,-0.36302 1.0328,-1.2946 1.0328,-1.9217 0,-0.80376 -1.3456,0.0911 -1.5394,1.0237 -0.0513,0.24694 -0.13141,0.63266 -0.17803,0.85715 -0.10429,0.5024 -0.002,0.50855 0.68464,0.0408 z m -26.796,3.8779 c 0.83094,-0.9224 1.028,-1.3852 1.1684,-2.7434 0.099,-0.95766 -0.18673,-1.7175 -0.69364,-1.8448 -0.20578,-0.0516 -0.79691,-0.006 -1.3136,0.10114 -0.80532,0.16719 -1.0533,0.31498 -1.7365,1.0348 -1.0085,1.0626 -2.2667,2.97 -2.1536,3.2648 0.0474,0.12351 0.24744,0.31089 0.44454,0.4164 0.19711,0.10551 0.54204,0.29805 0.76653,0.42788 0.24914,0.14407 0.85641,0.23696 1.5587,0.23843 l 1.1506,0.002 0.80861,-0.89761 z m -9.7418,11.714 c -0.13652,-0.3502 -0.11414,-0.61061 0.10176,-1.1837 0.32688,-0.86769 0.69599,-2.2096 0.92061,-3.3469 0.0887,-0.44898 0.27423,-1.3674 0.41237,-2.0408 0.13814,-0.6734 0.30892,-1.5184 0.37951,-1.8776 0.0706,-0.35918 0.29368,-1.2408 0.49576,-1.9592 0.20207,-0.71837 0.4135,-1.7469 0.46986,-2.2857 0.0564,-0.53877 0.15729,-1.0659 0.22431,-1.1714 0.067,-0.1055 0.0377,-0.37641 -0.065,-0.60199 -0.20666,-0.45355 -0.0922,-0.44982 -3.2458,-0.10603 -1.6283,0.17749 -4.1822,0.36506 -5.7959,0.42568 -7.9404,0.29824 -10.778,0.37925 -13.502,0.38534 -1.769,0.004 -3.5983,0.0891 -4.065,0.18919 -0.6945,0.14893 -1.0606,0.13202 -2.0172,-0.0933 -1.3689,-0.32237 -1.3753,-0.32596 -1.8851,-1.0683 -0.21584,-0.31429 -0.44256,-0.60817 -0.50382,-0.65306 -0.0613,-0.0449 -0.28119,-0.37551 -0.48874,-0.7347 -0.30705,-0.53143 -0.379,-0.90111 -0.38627,-1.9848 -0.008,-1.273 0.0147,-1.3595 0.52466,-1.9592 0.29347,-0.34506 0.68991,-0.85056 0.88096,-1.1233 0.21878,-0.31233 0.83718,-0.73261 1.6705,-1.1353 2.7068,-1.308 5.371,-0.7809 4.9302,0.97539 -0.0886,0.35283 -0.17181,0.40916 -0.46655,0.31561 -0.19731,-0.0626 -0.55801,-0.26118 -0.80155,-0.44124 -0.36371,-0.2689 -0.59759,-0.30986 -1.3093,-0.22929 -1.4032,0.15886 -1.9588,0.39342 -2.877,1.2145 -0.81082,0.72507 -0.87947,0.84615 -1.0487,1.8494 -0.17874,1.0599 -0.17425,1.0854 0.35277,2.0066 0.41402,0.72366 0.69634,1.0094 1.2582,1.2735 0.71237,0.33486 0.84671,0.33866 8.1067,0.2304 4.0603,-0.0605 8.7415,-0.17809 10.403,-0.26117 1.6612,-0.0831 4.0044,-0.19785 5.207,-0.25504 1.2026,-0.0572 2.4149,-0.17102 2.6939,-0.25296 0.27902,-0.082 1.184,-0.19491 2.0112,-0.25102 l 1.5039,-0.10205 0.29202,0.52268 c 0.24967,0.44688 0.36007,0.50959 0.76119,0.43243 0.28017,-0.0539 0.73166,-0.38848 1.1207,-0.83049 0.77585,-0.88142 1.2073,-1.1232 2.5627,-1.4364 0.85326,-0.19713 1.169,-0.20151 1.9213,-0.0266 0.49512,0.11509 1.0142,0.32328 1.1536,0.46263 0.55482,0.55484 0.61033,3.3793 0.0866,4.4087 -0.29298,0.57587 -0.21175,0.66399 0.49052,0.53225 0.59009,-0.11071 1.5395,-0.87687 3.4602,-2.7923 1.2711,-1.2677 2.6528,-2.0408 3.6469,-2.0408 0.56692,0 1.4689,0.35346 2.1934,0.85948 0.2356,0.16455 0.37855,0.14908 0.77551,-0.084 2.2238,-1.3055 4.452,-1.6695 5.846,-0.955 1.2272,0.62903 1.4681,2.0885 0.74806,4.531 -0.25621,0.86906 -0.26511,1.0419 -0.066,1.2819 0.36976,0.44554 1.5429,0.19308 3.0235,-0.65066 0.70127,-0.39964 1.3377,-0.7893 1.4144,-0.86594 0.0766,-0.0766 0.32729,-0.90082 0.557,-1.8315 0.2297,-0.93069 0.65758,-2.1378 0.95083,-2.6826 0.44551,-0.82758 0.68009,-1.0684 1.4269,-1.4646 1.0142,-0.53809 1.4335,-0.50882 2.1371,0.14914 0.60964,0.57012 0.59213,1.2912 -0.0583,2.3995 -0.279,0.47538 -0.57225,0.8886 -0.65164,0.91827 -0.0794,0.0297 -0.26095,0.29964 -0.40345,0.59995 -0.14251,0.30029 -0.51479,0.71685 -0.82731,0.92565 -0.31252,0.2088 -0.6736,0.62615 -0.80242,0.92746 -0.21291,0.49802 -0.20609,0.58708 0.0752,0.97959 0.17014,0.23747 0.49867,0.59521 0.73003,0.79497 0.47714,0.41195 0.42842,0.73417 -0.15089,0.99812 -0.3394,0.15465 -0.50145,0.11084 -1.1102,-0.30003 -0.39209,-0.26462 -0.80596,-0.59329 -0.91976,-0.73038 -0.34495,-0.41564 -1.1649,-0.25419 -1.767,0.34793 -0.12051,0.12052 -0.35855,0.21912 -0.52895,0.21912 -0.17041,0 -0.61129,0.15713 -0.97975,0.34917 -0.41736,0.21754 -1.0994,0.37991 -1.8093,0.4307 -1.0842,0.0776 -1.1635,0.0587 -1.6364,-0.38999 -0.45195,-0.42877 -0.48898,-0.541 -0.40854,-1.2382 0.0487,-0.42171 0.20335,-0.9889 0.34376,-1.2604 0.14042,-0.27153 0.30122,-1.037 0.35735,-1.701 0.0937,-1.1086 0.0719,-1.2375 -0.26721,-1.5766 -0.34054,-0.34054 -0.46317,-0.36075 -1.5763,-0.25988 -0.88637,0.0803 -1.3641,0.21593 -1.7981,0.51044 -0.32505,0.22059 -0.68054,0.40107 -0.78996,0.40107 -0.20913,0 -2.2045,3.8697 -2.2045,4.2752 0,0.12929 -0.22308,0.44882 -0.49574,0.71003 -0.40001,0.38325 -0.54974,0.44041 -0.77551,0.29606 -0.31562,-0.20181 -0.32614,-0.7302 -0.0369,-1.8528 0.29563,-1.1471 0.38831,-2.8485 0.17671,-3.2439 -0.14041,-0.26237 -0.34045,-0.34797 -0.81313,-0.34797 -1.2086,0 -1.5707,0.16147 -2.2309,0.99491 -0.34897,0.44055 -0.72412,0.80101 -0.83367,0.80101 -0.10955,0 -0.47553,0.33061 -0.81331,0.73469 -0.33776,0.40408 -0.67895,0.7347 -0.75817,0.7347 -0.0792,0 -0.58517,0.33547 -1.1243,0.7455 -0.53915,0.41002 -1.1751,0.83102 -1.4132,0.93557 -0.23812,0.10454 -0.71948,0.39355 -1.0697,0.64226 -0.35022,0.2487 -0.84978,0.45218 -1.1102,0.45218 -0.26037,0 -0.70064,0.1175 -0.97837,0.26112 -0.36989,0.19128 -0.83825,0.24586 -1.7508,0.20408 -1.0855,-0.0497 -1.3569,-0.12831 -2.1087,-0.61079 -0.48596,-0.31187 -0.92008,-0.49015 -0.99385,-0.40816 -0.42525,0.47264 -0.99059,1.9358 -1.1287,2.9211 -0.1598,1.1404 -0.66599,3.1344 -1.3056,5.1429 -0.18586,0.58367 -0.41796,1.3735 -0.51579,1.7551 -0.15935,0.62172 -0.22855,0.69388 -0.66539,0.69388 -0.38059,0 -0.52594,-0.0985 -0.66256,-0.44898 z"
         id="accompanied" />
    </g>
  </g>
</svg>
