<svg xmlns="http://www.w3.org/2000/svg" height="19.447" width="36.355"><path d="M0 9.169c0-.224.312-.674.799-1.151.491-.483.84-.985.904-1.306.057-.288.148-.732.201-.988.066-.318-.017-.668-.265-1.11-.2-.354-.321-.75-.271-.881.14-.364.745-.284 1.351.179.512.39.546.477.546 1.394 0 1.319-.428 2.132-1.987 3.771C.725 9.66 0 9.711 0 9.17zm10.612 10.169c-.135-.09-.539-.165-.898-.167-.36-.002-.837-.102-1.061-.222-.569-.303-2.286-1.91-2.286-2.14 0-.103-.21-.518-.465-.921-.64-1.011-.907-2.532-.684-3.903.33-2.018.373-2.205.57-2.449.11-.134.297-.502.417-.816.12-.314.574-1.029 1.007-1.588C7.645 6.572 8 6.05 8 5.97c0-.524 3.074-2.964 3.735-2.964.134 0 .57-.158.968-.35 1.312-.636 4.037-.35 5.643.59.624.367.756.527.756.918 0 .416-.06.475-.477.475-.263 0-.686-.166-.94-.368-.914-.726-1.17-.795-2.982-.795-1.828 0-2.147.093-3.438.997a3.334 3.334 0 01-.739.389c-.182.056-.439.26-.571.451-.133.192-.627.807-1.098 1.366C8.386 7.24 8 7.77 8 7.862c0 .09-.11.256-.244.368-.135.111-.33.488-.434.836-.105.349-.24.634-.301.634-.257 0-.476.88-.583 2.35-.096 1.298-.066 1.7.174 2.343.456 1.224 1.842 3.06 2.406 3.19.204.045.79.238 1.304.427 1.131.415 3.322.468 4.35.106.977-.345 2.797-1.273 2.797-1.427 0-.073.07-.132.156-.132.413 0 2.632-1.647 3.85-2.857.543-.539 1.816-1.751 2.829-2.694 2.098-1.952 1.885-1.743 4.347-4.286 1.021-1.055 1.906-1.918 1.965-1.918.174 0 2.69-2.587 2.69-2.765 0-.09.165-.25.367-.358.202-.108.662-.505 1.02-.883.765-.804 1.087-.947 1.48-.66.27.197.259.248-.166.805-.25.328-.506.596-.569.596-.14 0-2.131 1.964-2.134 2.104-.002.055-.365.357-.81.671-.444.314-.851.699-.905.854-.055.155-.306.405-.56.554a3.81 3.81 0 00-.846.754c-.444.551-2.77 2.94-3.98 4.083-.448.425-.939.902-1.09 1.06-.15.158-.77.728-1.377 1.267a92.616 92.616 0 00-1.79 1.632c-.38.36-1.042.947-1.474 1.306-.431.36-1.024.874-1.316 1.143-.293.27-.884.632-1.313.805-.43.173-.819.36-.864.415-.207.257-1.452.887-2.04 1.032-.933.231-4.032.318-4.327.121z" stroke-width=".163"/></svg>