<?xml version="1.0" encoding="UTF-8" standalone="no"?>
<svg
   xmlns:dc="http://purl.org/dc/elements/1.1/"
   xmlns:cc="http://creativecommons.org/ns#"
   xmlns:rdf="http://www.w3.org/1999/02/22-rdf-syntax-ns#"
   xmlns:svg="http://www.w3.org/2000/svg"
   xmlns="http://www.w3.org/2000/svg"
   id="svg2663"
   viewBox="0 0 56.755488 25.112919"
   version="1.1"
   height="25.112919"
   width="56.755489">
  <defs
     id="defs2667" />
  <metadata
     id="metadata2">
    <rdf:RDF>
      <cc:Work
         rdf:about="">
        <dc:format>image/svg+xml</dc:format>
        <dc:type
           rdf:resource="http://purl.org/dc/dcmitype/StillImage" />
        <dc:title />
      </cc:Work>
    </rdf:RDF>
  </metadata>
  <g
     transform="translate(-220.23957,-597.7453)"
     id="g2661">
    <g
       style="stroke-width:0.16327"
       id="g2557">
      <path
         d="m 220.35,610.17 c -0.27298,-0.27297 -0.0308,-0.87754 0.6261,-1.5632 0.46857,-0.48902 0.79021,-1.0072 0.90477,-1.4578 0.0978,-0.38445 0.2577,-0.85895 0.35541,-1.0544 0.25517,-0.51049 0.0885,-2.0086 -0.31389,-2.822 -0.36345,-0.7346 -0.27954,-1.4757 0.16707,-1.4757 0.30926,0 1.4249,1.186 1.4249,1.5148 0,0.15206 0.0882,0.60612 0.19592,1.009 0.16578,0.61985 0.14981,0.91522 -0.1039,1.9207 -0.34974,1.3861 -1.0779,2.8597 -1.6971,3.4345 -0.4278,0.39713 -1.3607,0.69272 -1.5593,0.49408 z m 47.576,3.1086 c -0.40231,-0.0416 -0.82476,-0.15296 -0.93877,-0.24758 -0.66653,-0.55317 0.31311,-0.99192 1.8962,-0.84922 1.0025,0.0904 2.748,-0.0603 4.917,-0.42428 0.49388,-0.0829 1.3493,-0.20047 1.9009,-0.26131 0.93576,-0.10316 1.0164,-0.0854 1.2043,0.26582 0.27155,0.50738 -0.0553,0.73851 -1.2566,0.8886 -0.50257,0.0628 -1.2526,0.22137 -1.6669,0.35241 -0.77063,0.24379 -4.6532,0.42044 -6.056,0.27556 z m -31.004,-4.3837 c 0.65109,-0.13696 1.5873,-0.46758 2.0805,-0.73469 0.4932,-0.26712 0.98502,-0.48569 1.093,-0.48569 0.10794,0 0.48005,-0.34898 0.82691,-0.77551 0.34687,-0.42653 0.76086,-0.88571 0.92,-1.0204 0.41562,-0.35181 1.1444,-2.3786 1.2269,-3.4121 0.0834,-1.0455 -0.40204,-2.2668 -1.1872,-2.9865 -0.39858,-0.36536 -0.64533,-0.44986 -1.3249,-0.45376 -0.56437,-0.003 -0.96137,0.0921 -1.2245,0.29396 -0.21415,0.16431 -0.51536,0.34468 -0.66934,0.40083 -0.26617,0.0971 -1.2488,1.8621 -1.5175,2.7258 -0.0693,0.22275 -0.25954,0.59009 -0.42277,0.81633 -0.39597,0.54875 -1.9924,5.409 -1.8276,5.564 0.0712,0.067 0.27639,0.1571 0.45598,0.2003 0.1796,0.0432 0.3401,0.0871 0.35667,0.0975 0.0166,0.0104 0.56284,-0.0931 1.2139,-0.23007 z m 9.3111,8.7277 c -0.21101,-0.0845 -1.2396,-0.22692 -2.2857,-0.31644 -1.6536,-0.1415 -2.0514,-0.2363 -3.045,-0.72559 -1.5188,-0.74795 -2.7171,-1.9438 -3.4298,-3.4226 -0.5353,-1.1107 -1.5598,-2.1666 -2.3789,-2.4518 -1.0353,-0.36048 -1.0975,-0.33864 -1.48,0.51938 -0.1901,0.42654 -0.40955,0.90309 -0.48767,1.059 -0.0781,0.15593 -0.14204,0.43365 -0.14204,0.61716 0,0.45561 -1.7175,2.4468 -2.4368,2.8251 -0.32102,0.16883 -0.8073,0.51977 -1.0806,0.77984 -0.76461,0.72752 -2.744,1.084 -4.4238,0.79668 -1.1651,-0.1993 -1.3104,-0.27162 -2.1865,-1.0885 -0.94033,-0.87668 -1.0317,-1.0646 -1.2482,-2.5669 -0.0948,-0.65754 0.16436,-2.1562 0.495,-2.8628 0.33696,-0.72015 1.4734,-1.733 2.5396,-2.2634 0.86335,-0.42952 1.2381,-0.52063 2.1413,-0.52063 1.1994,0 1.9551,0.38325 1.9551,0.99145 0,0.36426 0.0721,0.35283 -2,0.31655 -0.91223,-0.016 -1.5918,0.0381 -1.5918,0.1267 0,0.085 -0.29183,0.34769 -0.6485,0.58372 -0.7644,0.50586 -1.0248,0.97202 -1.3062,2.3386 -0.19725,0.95789 -0.12597,2.1736 0.12745,2.1736 0.0644,0 0.18968,0.15929 0.27832,0.35399 0.17063,0.37481 0.25102,0.42736 1.3427,0.87771 0.53838,0.22211 0.9513,0.26364 1.862,0.18728 0.64362,-0.0539 1.247,-0.17489 1.3409,-0.26875 0.0939,-0.0939 0.3337,-0.17064 0.533,-0.17064 0.20402,0 0.74266,-0.3443 1.2326,-0.78789 0.47866,-0.43335 0.98454,-0.82961 1.1242,-0.88062 0.1396,-0.051 0.35342,-0.3944 0.4751,-0.76312 0.1217,-0.36873 0.26821,-0.67041 0.3256,-0.67041 0.0574,0 0.19781,-0.27551 0.31206,-0.61225 0.50619,-1.4918 0.96609,-2.6848 1.4634,-3.7959 0.64749,-1.4466 0.84342,-2.0051 0.84342,-2.404 0,-0.22274 0.18213,-0.74643 0.40474,-1.1637 0.53331,-0.9998 1.2279,-2.5991 1.2279,-2.8272 0,-0.33213 1.0042,-1.8187 1.6956,-2.5101 1.1472,-1.1472 2.115,-1.4907 3.6683,-1.3021 0.84526,0.10263 0.98969,0.18427 1.7388,0.9829 0.8538,0.91022 1.3871,2.191 1.3871,3.3312 0,1.0149 -0.77822,3.1526 -1.4024,3.8523 -0.32044,0.35918 -0.63192,0.76326 -0.69215,0.89796 -0.0602,0.13469 -0.5576,0.66795 -1.1052,1.185 -0.78208,0.73837 -1.242,1.0238 -2.1429,1.3303 -2.0629,0.70163 -2.1198,0.7777 -1.3466,1.7995 0.26689,0.35273 0.48525,0.71314 0.48525,0.80091 0,0.0878 0.20204,0.42072 0.44898,0.73986 0.24694,0.31913 0.48572,0.66132 0.53061,0.76039 0.2035,0.44904 1.9746,1.851 2.4732,1.9577 0.301,0.0644 0.63132,0.18463 0.73404,0.26716 0.10275,0.0826 0.5803,0.18565 1.0612,0.22915 0.48095,0.0435 1.6846,0.19956 2.6748,0.3468 1.6728,0.24879 1.8853,0.24858 2.9996,-0.003 0.65961,-0.14894 1.5025,-0.27105 1.8731,-0.27131 1.3538,-0.002 4.039,-0.64541 5.4556,-1.3093 0.76222,-0.35719 1.4763,-0.64944 1.5868,-0.64944 0.43856,0 4.8151,-2.3757 4.8151,-2.6137 0,-0.23515 1.6223,-1.1414 2.0433,-1.1414 0.69853,0 0.52842,0.67336 -0.3666,1.4512 -0.42478,0.36915 -0.8656,0.67121 -0.97959,0.67121 -0.11401,0 -0.34628,0.13901 -0.51616,0.30888 -0.32617,0.32617 -3.944,2.2509 -4.9156,2.6151 -0.57476,0.21546 -2.7388,1.0818 -3.3469,1.3399 -0.62313,0.26446 -1.8173,0.45713 -3.8629,0.62323 -1.131,0.0918 -2.2538,0.24204 -2.4951,0.3338 -0.53821,0.20462 -1.8328,0.20046 -2.3521,-0.008 z m -16.258,5.0195 c -0.42782,-0.31283 -0.22063,-1.0154 0.56224,-1.9064 0.82707,-0.94137 0.93058,-1.4847 0.49914,-2.6199 -0.18613,-0.48968 -0.33844,-0.98447 -0.33849,-1.0995 -1.4e-4,-0.36642 0.48952,-0.41375 1.0664,-0.10307 0.54142,0.29157 1.056,1.1756 1.056,1.8142 0,0.29837 -0.35505,1.3892 -0.49428,1.5185 -0.0483,0.0449 -0.33724,0.48572 -0.64204,0.97959 -0.58213,0.94324 -1.1353,1.6327 -1.3099,1.6327 -0.057,0 -0.23654,-0.0972 -0.39903,-0.21602 z"
         id="accordingly" />
    </g>
  </g>
</svg>
