<svg xmlns="http://www.w3.org/2000/svg" height="19.449" width="36.351"><path d="M0 9.168c0-.224.312-.674.8-1.151.49-.483.838-.985.903-1.306l.201-.988c.066-.318-.017-.668-.265-1.109-.2-.354-.321-.75-.271-.882.14-.363.745-.283 1.351.18.512.39.546.477.546 1.393 0 1.32-.429 2.132-1.987 3.771C.725 9.658 0 9.71 0 9.168zm10.61 10.17c-.135-.09-.539-.166-.898-.168-.359-.002-.837-.101-1.06-.22-.57-.304-2.287-1.912-2.287-2.14 0-.105-.21-.52-.465-.923-.64-1.01-.907-2.532-.684-3.902.33-2.019.373-2.205.57-2.449.11-.134.297-.502.418-.816.12-.314.573-1.029 1.006-1.588.433-.56.787-1.082.787-1.162 0-.524 3.074-2.964 3.735-2.964.134 0 .57-.158.968-.35 1.312-.636 4.038-.35 5.643.591.624.366.756.526.756.917 0 .416-.059.475-.477.475-.262 0-.685-.166-.94-.368-.913-.726-1.17-.795-2.982-.795-1.828 0-2.147.093-3.438.997a3.338 3.338 0 01-.74.389c-.181.056-.438.26-.57.451-.133.192-.627.807-1.099 1.366-.471.56-.857 1.091-.857 1.182 0 .091-.11.257-.244.369-.134.111-.33.487-.434.836-.104.348-.24.634-.301.634-.257 0-.475.88-.583 2.35-.095 1.298-.065 1.7.174 2.343.456 1.223 1.842 3.06 2.407 3.189.203.046.79.238 1.304.427 1.131.416 3.321.47 4.35.107.977-.345 2.797-1.273 2.797-1.427 0-.073.07-.132.156-.132.413 0 2.632-1.647 3.85-2.857a157 157 0 012.828-2.694c2.098-1.953 1.885-1.743 4.347-4.286 1.021-1.055 1.906-1.918 1.965-1.918.174 0 2.69-2.587 2.69-2.765 0-.09.165-.25.367-.358.202-.108.662-.505 1.02-.883.765-.804 1.086-.947 1.48-.66.27.197.259.248-.166.805-.25.328-.506.596-.569.596-.14 0-2.132 1.965-2.134 2.105-.002.054-.365.356-.81.67-.444.315-.851.699-.906.854-.054.155-.305.405-.558.554-.254.15-.635.49-.848.754-.443.551-2.77 2.94-3.979 4.084-.449.425-.94.902-1.09 1.06-.15.158-.77.728-1.377 1.267a88.437 88.437 0 00-1.79 1.633c-.38.359-1.042.947-1.474 1.306a42.43 42.43 0 00-1.316 1.143c-.292.27-.883.631-1.313.804-.43.173-.818.36-.863.416-.207.256-1.453.886-2.04 1.032-.933.23-4.033.317-4.328.12z" stroke-width=".163"/></svg>