<?xml version="1.0" encoding="UTF-8" standalone="no"?>
<svg
   xmlns:dc="http://purl.org/dc/elements/1.1/"
   xmlns:cc="http://creativecommons.org/ns#"
   xmlns:rdf="http://www.w3.org/1999/02/22-rdf-syntax-ns#"
   xmlns:svg="http://www.w3.org/2000/svg"
   xmlns="http://www.w3.org/2000/svg"
   id="svg2663"
   viewBox="0 0 58.786356 24.244829"
   version="1.1"
   height="24.244829"
   width="58.786358">
  <defs
     id="defs2667" />
  <metadata
     id="metadata2">
    <rdf:RDF>
      <cc:Work
         rdf:about="">
        <dc:format>image/svg+xml</dc:format>
        <dc:type
           rdf:resource="http://purl.org/dc/dcmitype/StillImage" />
        <dc:title />
      </cc:Work>
    </rdf:RDF>
  </metadata>
  <g
     transform="translate(-220.5901,-479.9197)"
     id="g2661">
    <g
       style="stroke-width:0.16327"
       id="g2557">
      <path
         d="m 271.53,486.06 c -0.36279,-0.22987 -0.0735,-0.69841 0.95236,-1.5426 1.1879,-0.97757 1.5409,-1.6559 1.4024,-2.6952 -0.23977,-1.7998 -0.223,-1.9025 0.31055,-1.9025 0.39487,0 0.55307,0.12091 0.85445,0.65306 0.68228,1.2047 0.43475,2.595 -0.69499,3.9036 -1.2173,1.41 -2.2156,1.9696 -2.8248,1.5836 z m -50.793,5.7071 c -0.26175,-0.48908 -0.21564,-0.62051 0.48404,-1.3796 0.35919,-0.38966 0.65307,-0.83562 0.65307,-0.991 0,-0.15538 0.14501,-0.46687 0.32223,-0.69218 0.62924,-0.79995 0.62763,-2.0389 -0.003,-2.67 -0.17929,-0.1793 -0.37108,-0.65499 -0.4262,-1.0571 l -0.1002,-0.73107 h 0.5825 c 0.63654,0 0.89424,0.26406 1.5804,1.6194 0.2962,0.5851 0.34565,0.87821 0.26162,1.551 -0.19316,1.5466 -0.59895,2.5881 -1.2642,3.2443 -0.345,0.34037 -0.74568,0.79956 -0.89038,1.0204 -0.31814,0.48553 -0.96087,0.53149 -1.1994,0.0858 z m 40.153,3.6388 c 0.59958,-0.11992 2.2626,-1.5799 2.9239,-2.567 1.7492,-2.6109 1.8336,-2.7948 1.4558,-3.1726 -0.52681,-0.52681 -3.2773,-0.031 -3.8841,0.70014 -0.11265,0.13574 -0.29191,0.2468 -0.39836,0.2468 -0.10645,0 -0.63777,0.42245 -1.1807,0.93877 -0.7835,0.7451 -1.0258,1.0968 -1.1742,1.705 -0.16777,0.68713 -0.15084,0.82757 0.16407,1.3613 0.48047,0.81436 0.99407,1.0076 2.0937,0.78765 z m -35.106,2.8774 c -0.38987,-0.10681 -1.3828,-0.70021 -1.9648,-1.1742 -0.31629,-0.25762 -0.96638,-2.1369 -0.96638,-2.7936 0,-0.99916 0.83717,-3.0065 1.6595,-3.979 0.43522,-0.51473 0.91947,-1.0101 1.0761,-1.1009 0.47058,-0.27275 2.3588,-0.90812 2.6988,-0.90812 0.98134,0 2.3677,1.4923 1.9046,2.0503 -0.29438,0.35473 -0.62502,0.28699 -1.2416,-0.25435 -0.82168,-0.72145 -1.1793,-0.645 -2.6625,0.56913 -1.1286,0.92388 -1.7762,2.0872 -1.7932,3.2211 -0.0131,0.86315 0.43223,2.106 0.90857,2.5363 0.38813,0.35063 0.53068,0.36707 3.1322,0.36129 1.4991,-0.003 4.1582,-0.0848 5.9092,-0.18098 1.751,-0.0962 3.9551,-0.19342 4.898,-0.21605 1.6765,-0.0402 2.8499,-0.13146 8.3265,-0.64757 1.4816,-0.13964 3.502,-0.30017 4.4898,-0.35674 1.3594,-0.0778 1.9249,-0.18049 2.3265,-0.42227 0.29184,-0.17567 0.53074,-0.36852 0.53091,-0.42855 1.6e-4,-0.06 0.33326,-0.3195 0.74023,-0.57661 0.44824,-0.28318 0.82942,-0.68163 0.96692,-1.0107 0.12485,-0.2988 0.41437,-0.70617 0.64339,-0.90531 0.22903,-0.19913 0.49388,-0.59678 0.58854,-0.88364 0.24418,-0.73984 0.71156,-1.1328 2.3852,-2.0057 0.89268,-0.46555 3.1733,-1.3108 3.7865,-1.4033 0.5001,-0.0755 0.86892,-0.0273 1.2783,0.16692 0.57352,0.27215 0.57685,0.27148 1.0609,-0.21256 0.44431,-0.44429 0.84031,-1.5195 1.2224,-3.319 0.0477,-0.22449 0.15516,-0.5551 0.23885,-0.73469 0.14256,-0.30589 1.0399,-2.7574 1.24,-3.3878 0.0974,-0.30665 0.48386,-0.36951 0.8492,-0.13811 0.26841,0.17001 0.12704,1.7218 -0.23649,2.596 -0.12341,0.29675 -0.33732,1.1349 -0.47536,1.8626 -0.13804,0.7277 -0.31752,1.4032 -0.39886,1.5013 -0.27701,0.3338 -0.97513,2.646 -1.4094,4.668 -0.14466,0.67347 -0.36706,1.5689 -0.49422,1.9899 -0.30103,0.99651 -0.29305,1.7676 0.023,2.2187 0.21837,0.31177 0.40377,0.36286 1.3168,0.36286 0.58449,0 1.2232,-0.0823 1.4193,-0.18294 0.6816,-0.34965 3.8094,-3.488 4.1296,-4.1436 0.13157,-0.26939 0.45415,-0.82041 0.71683,-1.2245 0.55455,-0.85308 0.97959,-1.743 0.97959,-2.0511 0,-0.11843 0.0634,-0.2545 0.14087,-0.30238 0.0775,-0.0479 0.2345,-0.42147 0.34893,-0.83017 0.11443,-0.40871 0.27144,-0.78229 0.34893,-0.83018 0.0775,-0.0479 0.14086,-0.21237 0.14086,-0.36555 0,-0.15317 0.14694,-0.55265 0.32654,-0.88774 0.17959,-0.33506 0.32653,-0.74989 0.32653,-0.92182 0,-0.53517 0.65938,-2.0661 1.0898,-2.5303 0.3761,-0.4056 0.44018,-0.42299 0.76243,-0.20674 0.56624,0.37993 0.40604,1.2104 -1.029,5.3342 -0.44645,1.2829 -0.70448,2.3688 -0.8147,3.4286 -0.0887,0.85307 -0.27502,1.9184 -0.41399,2.3674 -0.2954,0.95437 -0.4896,3.1903 -0.29812,3.4323 0.0727,0.0919 0.33417,0.29561 0.58111,0.45276 0.54351,0.34584 0.58761,0.86522 0.087,1.0241 -0.44514,0.14127 -1.4985,0.15059 -1.7176,0.0152 -0.38496,-0.23793 -0.57908,-1.6027 -0.46935,-3.3 0.0607,-0.93834 0.0473,-1.7061 -0.0297,-1.7061 -0.17176,0 -0.69185,0.57736 -1.0742,1.1924 -0.1565,0.25177 -0.37454,0.4923 -0.48452,0.5345 -0.10997,0.0422 -0.69835,0.55354 -1.3075,1.1363 -1.2777,1.2224 -2.0823,1.6788 -3.3594,1.906 -1.3942,0.24793 -2.0474,0.22338 -2.5336,-0.0952 -0.52712,-0.34538 -1.0616,-1.4399 -1.0667,-2.1842 -0.002,-0.29184 -0.063,-0.53061 -0.13563,-0.53061 -0.0726,0 -0.61984,0.47361 -1.216,1.0525 -1.3647,1.325 -2.7632,2.0517 -3.934,2.0441 -0.93707,-0.006 -1.1465,-0.13897 -2.1166,-1.3434 -0.55991,-0.69509 -1.0911,-1.0042 -1.0911,-0.6348 0,0.12592 -0.8073,0.70146 -2.2098,1.5754 -0.47757,0.2976 -0.86183,0.3313 -4.3365,0.38028 -2.0969,0.0296 -3.8607,0.0836 -3.9197,0.12003 -0.13658,0.0844 -4.0834,0.52854 -6.432,0.72379 -0.98776,0.0821 -2.2693,0.2299 -2.8479,0.32839 -1.1857,0.20186 -10.477,0.33424 -11.119,0.15844 z m 28.122,5.6853 c -0.32684,-0.32684 -0.22598,-0.59411 0.45714,-1.2113 0.35919,-0.32449 0.65306,-0.68554 0.65306,-0.80229 0,-0.11677 0.0645,-0.23678 0.1434,-0.26673 0.32568,-0.1236 0.99946,-1.3608 0.99946,-1.8352 0,-0.28092 -0.18367,-0.78105 -0.40816,-1.1114 -0.51501,-0.75791 -0.51537,-1.0751 -0.002,-1.2705 0.56486,-0.21476 0.74858,-0.10723 1.2965,0.75886 0.34131,0.53949 0.48123,0.97066 0.48939,1.5082 0.0114,0.75577 -0.44005,1.9773 -0.73091,1.9773 -0.0856,0 -0.15561,0.14859 -0.15561,0.33019 0,0.42596 -1.767,2.1188 -2.2116,2.1188 -0.18442,0 -0.42348,-0.0882 -0.53123,-0.19592 z"
         id="accommodate" />
    </g>
  </g>
</svg>
