<svg xmlns="http://www.w3.org/2000/svg" height="25.113" width="56.755"><path d="M.11 12.425c-.273-.273-.03-.878.627-1.564.468-.489.79-1.007.904-1.457.098-.385.258-.86.356-1.055.255-.51.088-2.008-.314-2.822-.364-.734-.28-1.475.167-1.475.31 0 1.425 1.186 1.425 1.514 0 .152.088.607.196 1.01.165.62.15.915-.104 1.92-.35 1.386-1.078 2.86-1.697 3.435-.428.397-1.361.692-1.56.494zm47.576 3.108c-.402-.041-.824-.153-.938-.247-.667-.553.313-.992 1.896-.85 1.002.09 2.748-.06 4.917-.424.494-.083 1.35-.2 1.9-.261.937-.103 1.017-.085 1.205.266.272.507-.055.738-1.257.888-.502.063-1.252.222-1.666.353-.771.244-4.654.42-6.056.275zM16.682 11.15c.652-.137 1.588-.468 2.08-.735.494-.267.986-.486 1.094-.486.108 0 .48-.349.827-.775.347-.427.76-.886.92-1.02.415-.353 1.144-2.38 1.227-3.413.083-1.045-.402-2.267-1.187-2.986-.399-.366-.646-.45-1.325-.454-.565-.003-.962.092-1.225.294-.214.164-.515.345-.67.4-.265.098-1.248 1.863-1.517 2.727-.069.222-.26.59-.422.816-.396.549-1.993 5.409-1.828 5.564.071.067.276.157.456.2.18.043.34.087.357.098.016.01.562-.093 1.213-.23zm9.312 8.727c-.211-.084-1.24-.227-2.286-.316-1.654-.142-2.052-.236-3.045-.726-1.519-.748-2.717-1.944-3.43-3.422-.535-1.111-1.56-2.167-2.379-2.452-1.035-.36-1.097-.339-1.48.52-.19.426-.41.902-.488 1.058a1.64 1.64 0 00-.142.617c0 .456-1.717 2.447-2.436 2.826-.321.168-.808.52-1.081.78-.765.727-2.744 1.083-4.424.796-1.165-.2-1.31-.272-2.186-1.088-.94-.877-1.032-1.065-1.248-2.567-.095-.658.164-2.157.495-2.863.336-.72 1.473-1.733 2.54-2.264.862-.43 1.237-.52 2.14-.52 1.2 0 1.956.383 1.956.991 0 .365.072.353-2 .317-.913-.016-1.592.038-1.592.126 0 .085-.292.348-.649.584-.764.506-1.025.972-1.306 2.339-.197.958-.126 2.173.127 2.173.065 0 .19.16.279.354.17.375.25.428 1.342.878.539.222.952.264 1.862.187.644-.054 1.247-.174 1.341-.268.094-.094.334-.171.533-.171.204 0 .743-.344 1.233-.788.479-.433.985-.83 1.124-.88.14-.052.354-.395.475-.764.122-.368.269-.67.326-.67.057 0 .198-.276.312-.612.506-1.492.966-2.685 1.463-3.796.648-1.447.844-2.005.844-2.404 0-.223.182-.747.405-1.164.533-1 1.227-2.599 1.227-2.827 0-.332 1.005-1.819 1.696-2.51C18.689.204 19.657-.14 21.21.049c.846.102.99.184 1.74.983.853.91 1.386 2.19 1.386 3.33 0 1.016-.778 3.153-1.402 3.853-.32.36-.632.763-.692.898-.06.135-.558.668-1.106 1.185-.782.738-1.242 1.024-2.142 1.33-2.063.702-2.12.778-1.347 1.8.267.353.485.713.485.8 0 .089.202.422.45.74.246.32.485.662.53.761.203.45 1.974 1.851 2.473 1.958.301.064.631.184.734.267.103.082.58.186 1.061.229.481.044 1.685.2 2.675.347 1.673.249 1.885.248 3-.003.66-.15 1.502-.271 1.873-.271 1.354-.002 4.039-.646 5.455-1.31.763-.357 1.477-.65 1.587-.65.439 0 4.815-2.375 4.815-2.613 0-.235 1.623-1.141 2.044-1.141.698 0 .528.673-.367 1.45-.425.37-.866.672-.98.672-.114 0-.346.14-.516.309-.326.326-3.944 2.25-4.915 2.615-.575.216-2.74 1.082-3.347 1.34-.623.264-1.818.457-3.863.623-1.131.092-2.254.242-2.495.334-.539.205-1.833.2-2.352-.008zm-16.258 5.02c-.428-.313-.221-1.016.562-1.907.827-.941.93-1.484.499-2.62-.186-.49-.339-.984-.339-1.099 0-.366.49-.414 1.067-.103.541.291 1.056 1.176 1.056 1.814 0 .298-.355 1.39-.494 1.519-.049.045-.338.485-.642.98-.583.942-1.136 1.632-1.31 1.632-.057 0-.237-.097-.4-.216z" stroke-width=".163"/></svg>