<?xml version="1.0" encoding="UTF-8" standalone="no"?>
<svg
   xmlns:dc="http://purl.org/dc/elements/1.1/"
   xmlns:cc="http://creativecommons.org/ns#"
   xmlns:rdf="http://www.w3.org/1999/02/22-rdf-syntax-ns#"
   xmlns:svg="http://www.w3.org/2000/svg"
   xmlns="http://www.w3.org/2000/svg"
   id="svg2663"
   viewBox="0 0 45.863726 27.392231"
   version="1.1"
   height="27.392231"
   width="45.863728">
  <defs
     id="defs2667" />
  <metadata
     id="metadata2">
    <rdf:RDF>
      <cc:Work
         rdf:about="">
        <dc:format>image/svg+xml</dc:format>
        <dc:type
           rdf:resource="http://purl.org/dc/dcmitype/StillImage" />
        <dc:title />
      </cc:Work>
    </rdf:RDF>
  </metadata>
  <g
     transform="translate(-221.70512,-574.40635)"
     id="g2661">
    <g
       style="stroke-width:0.16327"
       id="g2557">
      <path
         d="m 221.92,587.16 c -0.46266,-0.18668 -0.1488,-1.09 0.65961,-1.8984 0.5615,-0.5615 0.97314,-1.7449 0.98331,-2.827 0.0103,-1.0928 -0.14089,-1.4032 -0.84751,-1.7402 -0.27748,-0.13236 -0.44604,-0.35967 -0.47918,-0.64625 -0.042,-0.36343 0.0274,-0.4618 0.39029,-0.55286 0.66328,-0.16647 1.2193,0.10561 1.8168,0.88897 0.48595,0.63713 0.53786,0.81191 0.53786,1.811 0,0.6082 -0.0807,1.3556 -0.1794,1.6608 -0.28819,0.89151 -0.64153,1.6162 -0.78805,1.6162 -0.0747,0 -0.2277,0.2219 -0.34005,0.4931 -0.2189,0.52849 -1.0429,1.3111 -1.3581,1.2899 -0.10535,-0.007 -0.28339,-0.05 -0.39564,-0.0952 z m 17.597,-2.4633 c 1.6662,-0.89544 1.687,-0.90749 2.3357,-1.3494 0.32758,-0.22314 0.59608,-0.47443 0.5967,-0.55843 0,-0.084 0.13581,-0.30443 0.30043,-0.4898 0.47171,-0.53118 0.81631,-1.6911 0.93765,-3.1561 l 0.11179,-1.3496 -0.58722,-0.88441 c -0.52821,-0.79555 -0.66028,-0.89538 -1.3143,-0.99345 -1.1516,-0.1727 -2.0594,0.0503 -2.5405,0.62402 -0.22929,0.27342 -0.69241,0.80539 -1.0291,1.1822 -0.33674,0.37679 -0.61225,0.76343 -0.61225,0.85922 0,0.0958 -0.0918,0.27125 -0.20408,0.38991 -0.35646,0.37682 -1.2771,2.4332 -1.4399,3.2164 -0.48968,2.3548 -0.53693,2.8214 -0.30093,2.9708 0.12686,0.0803 0.76531,0.14714 1.4188,0.14851 1.064,0.002 1.3071,-0.0614 2.3273,-0.60975 z m -13.567,9.5775 c -0.63446,-0.27892 -0.83306,-0.49046 -1.3349,-1.422 -0.69437,-1.2888 -1.0977,-2.3901 -1.101,-3.0065 -0.003,-0.64903 0.63893,-2.2554 1.0586,-2.6469 0.19968,-0.18633 0.41104,-0.48571 0.4697,-0.6653 0.17344,-0.53094 2.1864,-1.8518 3.0103,-1.9754 0.74991,-0.11246 1.8264,0.23625 1.8264,0.59161 0,0.0949 0.16156,0.39105 0.35905,0.65817 0.33149,0.44836 0.33868,0.50602 0.0936,0.75104 -0.24501,0.24503 -0.31892,0.22604 -0.96265,-0.24735 -0.38551,-0.28353 -0.89936,-0.51277 -1.1493,-0.51277 -0.64927,0 -1.5452,0.47135 -1.7499,0.92062 -0.0966,0.21204 -0.24093,0.38551 -0.32071,0.38551 -0.0798,0 -0.35687,0.31224 -0.61574,0.69387 -0.4201,0.61932 -0.46913,0.82546 -0.45625,1.9184 0.0157,1.3361 0.22506,1.8963 1.0668,2.8549 0.62637,0.7134 1.2719,0.76602 1.8843,0.15363 0.3763,-0.37629 0.46853,-0.39988 0.8864,-0.22679 0.41231,0.17078 0.56533,0.13731 1.3192,-0.28859 0.46901,-0.26498 0.90255,-0.58537 0.96341,-0.71198 0.73571,-1.5306 1.403,-2.753 1.636,-2.9975 0.0813,-0.0853 0.14789,-0.35557 0.14789,-0.60058 0,-0.24502 0.10747,-0.55295 0.23882,-0.6843 0.39427,-0.39428 0.88537,-1.8878 1.0804,-3.2859 0.10091,-0.72323 0.24591,-1.4619 0.32223,-1.6415 0.0763,-0.17959 0.42389,-0.95102 0.77235,-1.7143 0.34847,-0.76326 0.67991,-1.5735 0.73653,-1.8005 0.0566,-0.227 0.43628,-0.84196 0.84365,-1.3666 0.40738,-0.52462 0.74068,-1.0128 0.74068,-1.0849 0,-0.19618 2.116,-1.5532 2.7981,-1.7944 1.095,-0.38726 2.9912,0.19932 3.475,1.075 0.0967,0.17508 0.22769,0.35737 0.29102,0.40507 0.0633,0.0477 0.30904,0.51032 0.54605,1.028 0.404,0.88245 0.41976,1.0053 0.25222,1.9674 -0.0983,0.56441 -0.17872,1.2231 -0.17872,1.4638 0,0.62229 -1.1079,2.8454 -1.5828,3.1762 -0.21944,0.15284 -0.70896,0.53502 -1.0878,0.84931 -0.37884,0.31429 -1.4391,0.90023 -2.356,1.3021 -1.8072,0.79203 -1.9742,1.012 -1.3808,1.8187 0.15751,0.21416 0.49762,0.80662 0.75581,1.3166 0.25819,0.50996 0.71708,1.1672 1.0198,1.4606 0.30268,0.29337 0.55032,0.61943 0.55032,0.72457 0,0.24331 0.90897,0.84082 2.3637,1.5538 l 1.1392,0.55833 h 3.6771 c 2.376,0 4.0815,-0.0768 4.82,-0.21698 1.2109,-0.22987 3.372,-0.78783 3.9184,-1.0116 0.17959,-0.0736 0.52779,-0.1774 0.77378,-0.23076 0.24599,-0.0534 0.90722,-0.30529 1.4694,-0.55984 1.9246,-0.87146 2.2581,-1.0012 2.5736,-1.0012 0.17374,0 0.74063,-0.28231 1.2598,-0.62737 0.51915,-0.34504 1.3745,-0.8777 1.9008,-1.1837 0.5263,-0.30596 1.1141,-0.72034 1.3061,-0.92083 0.21843,-0.22802 0.54673,-0.36559 0.87669,-0.36735 0.43668,-0.002 0.54636,0.0723 0.63704,0.4336 0.0894,0.35618 0.0224,0.50611 -0.36424,0.81551 -0.26057,0.20851 -0.58859,0.37946 -0.72893,0.3799 -0.14035,0 -0.45218,0.20645 -0.69298,0.4578 -0.2408,0.25133 -0.93414,0.71051 -1.5408,1.0204 -0.60662,0.30987 -1.1397,0.60307 -1.1846,0.65149 -0.15461,0.16682 -2.082,0.97316 -2.3262,0.97316 -0.26413,0 -1.3496,0.43731 -2.6534,1.069 -0.44898,0.21751 -1.4041,0.50514 -2.1224,0.63913 -0.71836,0.13401 -1.9673,0.39706 -2.7755,0.58455 -1.1352,0.26337 -2.2307,0.36005 -4.8163,0.42508 -3.2272,0.0812 -3.3936,0.0697 -4.6531,-0.32122 -1.9035,-0.59084 -2.6958,-0.90573 -2.9708,-1.1808 -0.13409,-0.13409 -0.45724,-0.35419 -0.71813,-0.4891 -0.26088,-0.1349 -0.47433,-0.30878 -0.47433,-0.3864 0,-0.0776 -0.32041,-0.57634 -0.71202,-1.1083 -0.3916,-0.53196 -0.79983,-1.2333 -0.90716,-1.5585 -0.31065,-0.94126 -2.2151,-3.0612 -2.75,-3.0612 -0.35672,0 -0.37863,0.0385 -0.93388,1.6427 -0.53735,1.5524 -1.6013,3.4406 -2.4704,4.3841 -0.94017,1.0206 -2.2568,1.6736 -3.8183,1.8936 -0.40408,0.0569 -0.8449,0.1319 -0.97959,0.16659 -0.13469,0.0347 -0.58029,-0.0844 -0.99024,-0.26457 z m 4.0223,7.268 c -0.14111,-0.14111 -0.25656,-0.31468 -0.25656,-0.38572 0,-0.18261 0.96149,-1.3728 1.2329,-1.5261 0.36587,-0.20672 0.89015,-1.5739 0.88249,-2.3014 -0.004,-0.4176 -0.1589,-0.92104 -0.40705,-1.3262 -0.60893,-0.99425 -0.62883,-1.0678 -0.36109,-1.3356 0.25745,-0.25746 0.9385,-0.16887 0.9385,0.12207 0,0.0837 0.0988,0.15226 0.21959,0.15226 0.66447,0 0.99169,1.2475 0.81783,3.1181 -0.095,1.0221 -0.18036,1.2502 -0.6953,1.857 -0.32286,0.3805 -0.69723,0.85562 -0.83192,1.0558 -0.20965,0.31159 -0.96,0.82617 -1.2047,0.82617 -0.0429,0 -0.19353,-0.11544 -0.33464,-0.25655 z"
         id="according" />
    </g>
  </g>
</svg>
