<svg xmlns="http://www.w3.org/2000/svg" height="18.353" width="21.228"><path d="M0 7.193c0-.163.147-.453.327-.646.18-.193.326-.425.326-.516 0-.09.22-.327.488-.525.682-.505 1.052-1.553.927-2.63-.118-1.011.031-1.346.53-1.188 1.268.402 1.337 2.302.136 3.78-.21.258-.51.675-.668.926C1.506 7.284 0 7.866 0 7.193zm10.78 11.08c-.794-.106-1.314-.332-3.559-1.546-.153-.083-.598-.55-.989-1.04-1.738-2.175-1.735-5.192.012-8.851 1.174-2.461 1.862-3.388 4.046-5.451C11.423.315 14.187-.258 16.423.113c1.818.302 4 1.605 4.616 2.756.104.194.19.652.19 1.017 0 .623-.03.664-.473.664-.395 0-.513-.102-.722-.625-.263-.657-1.161-1.557-1.734-1.74-.186-.058-.338-.172-.338-.252 0-.08-.312-.235-.693-.343-.382-.109-.764-.259-.85-.333-.427-.374-3.54.021-4.56.579-.348.19-.78.42-.96.51-.378.188-2.406 2.808-2.406 3.107 0 .11-.112.292-.248.405-.722.6-1.652 3.227-1.886 5.332l-.168 1.504.562 1.193c.393.835.713 1.28 1.068 1.487.278.162.583.437.677.612.093.175.265.318.38.318.117 0 .684.193 1.26.43 1.018.415 1.123.426 3.456.332 1.324-.053 2.536-.163 2.694-.245.158-.082.631-.199 1.052-.26.66-.095.789-.066.938.213.293.546.026.823-1.109 1.152-1.211.35-4.866.548-6.39.345z" stroke-width=".163"/></svg>