<?xml version="1.0" encoding="UTF-8" standalone="no"?>
<svg
   xmlns:dc="http://purl.org/dc/elements/1.1/"
   xmlns:cc="http://creativecommons.org/ns#"
   xmlns:rdf="http://www.w3.org/1999/02/22-rdf-syntax-ns#"
   xmlns:svg="http://www.w3.org/2000/svg"
   xmlns="http://www.w3.org/2000/svg"
   id="svg2663"
   viewBox="0 0 63.60853 28.689211"
   version="1.1"
   height="28.689211"
   width="63.608532">
  <defs
     id="defs2667" />
  <metadata
     id="metadata2">
    <rdf:RDF>
      <cc:Work
         rdf:about="">
        <dc:format>image/svg+xml</dc:format>
        <dc:type
           rdf:resource="http://purl.org/dc/dcmitype/StillImage" />
        <dc:title />
      </cc:Work>
    </rdf:RDF>
  </metadata>
  <g
     transform="translate(-219.91592,-531.14342)"
     id="g2661">
    <g
       style="stroke-width:0.16327"
       id="g2557">
      <path
         d="m 220.12,539.47 c -0.11224,-0.0402 -0.20408,-0.29768 -0.20408,-0.57206 0,-0.3742 0.23329,-0.76464 0.93341,-1.5621 0.91386,-1.0409 0.93587,-1.0891 1.0517,-2.3018 0.0997,-1.0433 0.0683,-1.3516 -0.19871,-1.9553 -0.47232,-1.0678 -0.42739,-1.3282 0.22911,-1.3282 0.61215,0 0.93726,0.28814 1.2895,1.1428 0.27985,0.67906 0.0904,2.945 -0.29647,3.5453 -0.12818,0.19889 -0.23305,0.47985 -0.23305,0.62437 0,0.26786 -1.674,2.1258 -2.1212,2.3543 -0.13538,0.0692 -0.33797,0.0928 -0.45022,0.0526 z m 53.049,14.377 c -0.43667,-0.3536 -0.3497,-0.79845 0.19061,-0.97485 0.19375,-0.0633 0.82981,-0.10733 1.4135,-0.0979 0.58367,0.009 1.9061,-0.0836 2.9388,-0.20662 2.9001,-0.34554 5.6573,-0.47014 5.7863,-0.26151 0.0603,0.0977 0.0131,0.37987 -0.10497,0.62717 -0.24597,0.51515 -0.4527,0.54965 -5.1099,0.85274 -1.4367,0.0935 -3.0908,0.21382 -3.6757,0.26737 -0.88837,0.0813 -1.1253,0.0473 -1.4386,-0.20635 z m -3.2782,-14.959 c 0.14333,-0.28891 0.41267,-0.81917 0.59853,-1.1784 0.58437,-1.1292 0.68196,-1.4328 0.93077,-2.8955 0.3044,-1.7894 0.16235,-2.3122 -0.44429,-1.6352 -0.44227,0.49356 -0.91365,1.9864 -1.5771,4.9945 -0.13692,0.62083 -0.0717,1.2553 0.12805,1.245 0.0569,-0.003 0.22068,-0.24169 0.364,-0.53061 z m 8.2117,6.4818 c 0.0545,-0.14204 0.0991,-0.47265 0.0991,-0.73469 0,-0.48304 -0.19027,-0.58113 -0.72738,-0.37502 -0.32204,0.12358 -0.79301,0.99007 -0.65741,1.2095 0.16438,0.26596 1.1754,0.1875 1.2857,-0.0998 z m -1.0411,3.6646 c 1.4935,-1.539 0.93709,-2.3158 -1.4458,-2.0186 -0.68419,0.0853 -1.0107,0.23437 -1.5181,0.69277 -0.88178,0.79663 -0.80544,1.1491 0.349,1.6112 1.395,0.55838 1.8436,0.50943 2.6149,-0.28536 z m -19.601,1.3091 c 0.75457,-0.17205 2.0907,-1.2215 2.336,-1.8349 0.0691,-0.1728 0.2528,-0.57936 0.40816,-0.90349 0.40105,-0.83662 0.38694,-2.8769 -0.0241,-3.4873 -0.25995,-0.386 -0.41288,-0.44898 -1.0903,-0.44898 -0.43335,0 -0.82746,0.064 -0.87578,0.14218 -0.0483,0.0782 -0.31107,0.18682 -0.58389,0.24138 -0.451,0.0902 -0.80109,0.39032 -2.1638,1.855 -0.24694,0.26541 -0.44898,0.5786 -0.44898,0.69597 0,0.11737 -0.13753,0.51533 -0.30563,0.88436 -0.78135,1.7153 -0.80181,2.2958 -0.10041,2.8475 0.42342,0.33304 1.4115,0.3359 2.8488,0.008 z m -7.1774,8.5944 c 0,-0.54397 0.18385,-1.4552 0.46939,-2.3265 0.8573,-2.616 1.0057,-3.2645 1.174,-5.1312 0.0919,-1.0187 0.22989,-2.0725 0.30669,-2.3419 0.0768,-0.2694 0.22048,-0.94898 0.31925,-1.5102 0.0988,-0.56123 0.26394,-1.4651 0.36699,-2.0085 0.12865,-0.67835 0.13464,-1.0409 0.0191,-1.1564 -0.16738,-0.16738 -4.3825,0.12929 -7.5534,0.53162 -1.328,0.16851 -4.2541,0.27814 -9.551,0.35788 -1.3469,0.0203 -2.8898,0.13745 -3.4286,0.26037 -0.60557,0.13818 -2.0705,0.23047 -3.8367,0.24173 -2.6156,0.0167 -2.9192,-0.0116 -3.5918,-0.3351 -1.0908,-0.52457 -1.5224,-1.06 -2.0303,-2.5187 -0.33837,-0.97173 -0.31871,-1.6067 0.0815,-2.6321 0.6586,-1.6874 2.0874,-3.3478 3.3685,-3.9145 1.4168,-0.62669 3.5129,-0.29353 3.7356,0.59373 0.0602,0.24008 0.023,0.52064 -0.0867,0.65277 -0.16604,0.20006 -0.28282,0.19977 -0.85508,-0.002 -1.0965,-0.38688 -2.1064,-0.3057 -2.8421,0.22844 -0.92709,0.67309 -1.7654,1.7834 -2.0778,2.7521 -0.40323,1.2501 -0.35485,1.7658 0.22544,2.4036 0.27425,0.30138 0.59688,0.68233 0.71696,0.84654 0.23257,0.31806 1.0093,0.38482 4.8252,0.4147 3.0503,0.0239 12.162,-0.32345 12.908,-0.49207 0.39863,-0.0901 2.2639,-0.20375 4.145,-0.2526 1.9946,-0.0518 4.1282,-0.20415 5.1188,-0.36555 1.8866,-0.3074 2.0897,-0.26118 2.4814,0.56481 0.1347,0.28399 0.30105,0.51795 0.36965,0.51989 0.0686,0.002 0.52946,-0.32611 1.0241,-0.72898 0.49464,-0.40287 1.0997,-0.77385 1.3446,-0.82439 0.24494,-0.0505 0.71367,-0.17112 1.0416,-0.26797 0.32797,-0.0968 0.80552,-0.13438 1.0612,-0.0834 1.6108,0.32085 1.8527,0.45132 1.8527,0.99914 0,0.19633 0.10787,0.49957 0.23971,0.67389 0.16953,0.22413 0.2397,0.74707 0.2397,1.7863 0,1.0392 -0.0702,1.5622 -0.2397,1.7863 -0.69661,0.92101 0.179,1.2467 1.1231,0.41778 0.30682,-0.26939 0.63634,-0.4898 0.73226,-0.4898 0.0959,0 0.23318,-0.0918 0.30498,-0.20408 0.0718,-0.11225 0.49791,-0.53311 0.94689,-0.93525 1.6298,-1.4597 2.423,-2.9819 2.852,-5.4729 0.30436,-1.7672 0.83458,-4.0295 1.0714,-4.5714 0.11773,-0.26939 0.29975,-0.93061 0.4045,-1.4694 0.10474,-0.53878 0.25429,-1.0898 0.33235,-1.2245 0.078,-0.13469 0.31925,-0.61876 0.53603,-1.0757 0.46648,-0.98325 1.3498,-1.6295 2.0032,-1.4656 0.68607,0.17219 0.9382,1.0386 0.83799,2.8796 -0.0851,1.5628 -0.43767,2.7555 -1.1065,3.7433 -0.15202,0.22449 -0.40136,0.84898 -0.55409,1.3878 -0.15274,0.53877 -0.45167,1.2468 -0.66429,1.5734 -0.21264,0.32658 -0.50113,0.84087 -0.64108,1.1429 -0.28245,0.60947 -0.57491,1.0621 -1.347,2.0848 -0.39577,0.52418 -0.56752,0.98126 -0.71704,1.908 -0.10813,0.67031 -0.25964,1.2577 -0.3367,1.3053 -0.27279,0.16859 -0.13475,1.0619 0.26091,1.6887 0.51933,0.82266 1.1206,0.97418 2.0282,0.51116 0.36289,-0.18514 0.77293,-0.3366 0.9112,-0.3366 0.1924,0 0.2514,-0.1891 0.2514,-0.8057 0,-0.44313 -0.0775,-1.0096 -0.17233,-1.2589 -0.0948,-0.24927 -0.1303,-0.62063 -0.0789,-0.82522 0.0918,-0.36568 0.12196,-0.37026 1.7732,-0.26923 l 1.6799,0.10279 0.64399,-0.55348 c 0.35417,-0.30443 0.66419,-0.59579 0.6889,-0.64748 0.13262,-0.27739 3.1602,-3.253 3.3098,-3.253 0.74827,0 1.1351,0.83829 1.1351,2.46 0,1.5412 0.0489,1.6216 0.98643,1.6216 1.4327,0 1.9907,0.43551 1.3272,1.0359 -0.203,0.18372 -0.59121,0.2702 -1.2128,0.2702 -1.0041,0 -1.3538,0.21647 -1.5349,0.95019 -0.42073,1.7047 -2.8711,3.5585 -3.9444,2.9841 -0.18413,-0.0986 -0.58295,-0.17917 -0.88627,-0.17917 -0.55704,0 -1.8123,-0.51162 -1.9998,-0.81512 -0.19053,-0.30827 -0.93904,-0.16537 -1.8431,0.35187 -0.77997,0.44627 -1.0654,0.51778 -2.1025,0.52689 -1.1627,0.0103 -1.218,-0.008 -1.7794,-0.56878 -0.45819,-0.45819 -0.61943,-0.79032 -0.77105,-1.5881 -0.17571,-0.92457 -0.22671,-1.0088 -0.61102,-1.0088 -0.27532,0 -0.64092,0.22751 -1.0647,0.66253 -0.35496,0.36441 -0.93951,0.79308 -1.299,0.95262 -0.35949,0.15954 -0.93918,0.55937 -1.2882,0.88849 -0.34896,0.32913 -0.7769,0.5984 -0.95094,0.5984 -0.17404,0 -0.85773,0.26034 -1.5193,0.57855 -1.3704,0.65912 -2.5156,0.88854 -4.442,0.88989 -1.333,0.002 -1.3446,0.005 -1.4422,0.44993 -0.0541,0.24694 -0.24093,0.8898 -0.41515,1.4286 -0.44477,1.3754 -0.93215,3.0815 -1.236,4.3265 -0.31342,1.2843 -0.44596,1.4694 -1.0522,1.4694 -0.46039,0 -0.46981,-0.0179 -0.46981,-0.89422 z"
         id="accomplished" />
    </g>
  </g>
</svg>
