<?xml version="1.0" encoding="UTF-8" standalone="no"?>
<svg
   xmlns:dc="http://purl.org/dc/elements/1.1/"
   xmlns:cc="http://creativecommons.org/ns#"
   xmlns:rdf="http://www.w3.org/1999/02/22-rdf-syntax-ns#"
   xmlns:svg="http://www.w3.org/2000/svg"
   xmlns="http://www.w3.org/2000/svg"
   id="svg2663"
   viewBox="0 0 33.608546 28.066154"
   version="1.1"
   height="28.066154"
   width="33.608547">
  <defs
     id="defs2667" />
  <metadata
     id="metadata2">
    <rdf:RDF>
      <cc:Work
         rdf:about="">
        <dc:format>image/svg+xml</dc:format>
        <dc:type
           rdf:resource="http://purl.org/dc/dcmitype/StillImage" />
        <dc:title />
      </cc:Work>
    </rdf:RDF>
  </metadata>
  <g
     transform="translate(-220.40992,-549.40621)"
     id="g2661">
    <g
       style="stroke-width:0.16327"
       id="g2557">
      <path
         d="m 220.61,563.16 c -0.44707,-0.18039 -0.0739,-1.5245 0.42323,-1.5245 0.0628,0 0.29481,-0.33061 0.51555,-0.7347 0.22073,-0.40408 0.45106,-0.73469 0.51185,-0.73469 0.19536,0 0.631,-1.5062 0.631,-2.1816 0,-0.35974 -0.14545,-0.95453 -0.32323,-1.3218 -0.17778,-0.36723 -0.36865,-0.89477 -0.42415,-1.1723 -0.0913,-0.45657 -0.0568,-0.51303 0.36231,-0.59316 0.68017,-0.13002 1.0206,0.12991 1.4776,1.1282 0.5738,1.2533 0.56854,2.4387 -0.0169,3.8141 -0.24844,0.58367 -0.68839,1.3184 -0.97768,1.6326 -0.28927,0.31429 -0.7273,0.84694 -0.97335,1.1837 -0.41965,0.57425 -0.72067,0.70006 -1.2063,0.50411 z m 23.215,6.2514 c -0.10333,-0.41167 0.0934,-1.1334 0.91812,-3.3677 0.68265,-1.8494 0.72815,-2.3384 0.32519,-3.495 -0.42713,-1.226 -0.42574,-1.2397 0.12536,-1.2397 0.44947,0 1.1713,0.56943 1.1713,0.924 0,0.0925 0.14433,0.29885 0.32072,0.45849 0.30335,0.27452 0.35793,0.27538 1.0068,0.0157 0.37736,-0.15099 0.86743,-0.41714 1.089,-0.59148 0.22161,-0.17432 0.58153,-0.31695 0.79982,-0.31695 0.21828,0 0.54852,-0.0812 0.73384,-0.18034 0.24676,-0.13206 0.60449,-0.13033 1.3362,0.006 1.3696,0.256 1.6841,0.44648 2.0949,1.2691 0.32503,0.65081 0.3376,0.78128 0.15047,1.5626 -0.1123,0.46885 -0.26311,1.33 -0.33514,1.9137 -0.072,0.58368 -0.20726,1.3551 -0.30052,1.7143 -0.0933,0.35918 -0.2136,0.84926 -0.26743,1.089 -0.12418,0.55332 -1.0193,0.82281 -1.3285,0.39997 -0.22364,-0.30587 0.0155,-1.8296 0.66812,-4.2569 0.35944,-1.3369 0.37162,-1.4944 0.14256,-1.844 -0.5609,-0.85603 -1.9359,-0.92929 -3.3359,-0.17773 -0.90576,0.48624 -1.9587,1.613 -1.9587,2.0959 0,0.10543 -0.25016,0.64443 -0.55589,1.1978 -0.30574,0.55337 -0.68898,1.4364 -0.85165,1.9624 -0.30763,0.99459 -0.60333,1.2478 -1.4571,1.2478 -0.27893,0 -0.42291,-0.11345 -0.49166,-0.38741 z m -6.1947,-8.2027 c 1.4713,-0.47784 2.768,-1.1044 3.193,-1.5428 0.22962,-0.23685 0.62238,-0.5649 0.8728,-0.72898 0.55197,-0.36167 1.7932,-2.2067 2.1495,-3.1953 0.15871,-0.44032 0.26933,-1.3317 0.28573,-2.3026 l 0.0268,-1.5842 -0.56124,-0.57904 c -0.51497,-0.53133 -0.63879,-0.57905 -1.5022,-0.57905 -0.8781,0 -0.97871,0.0409 -1.5057,0.61225 -0.80302,0.87058 -1.2444,1.454 -1.2444,1.6451 0,0.0908 -0.29284,0.74044 -0.65075,1.4436 -0.35793,0.70322 -0.91538,1.9765 -1.2388,2.8296 -1.4335,3.7808 -1.423,3.7463 -1.2103,4.0026 0.25389,0.30591 0.38452,0.30392 1.3856,-0.0212 z m -12,8.8891 c -0.31429,-0.0887 -0.64123,-0.22903 -0.72653,-0.3118 -0.0853,-0.0828 -0.27455,-0.15048 -0.42052,-0.15048 -0.26761,0 -0.9754,-0.64359 -0.9754,-0.88692 0,-0.0722 -0.21845,-0.38 -0.48545,-0.68409 -0.26699,-0.30409 -0.60804,-0.97461 -0.75788,-1.49 -0.33202,-1.1421 -0.17541,-1.9157 0.67995,-3.3588 0.30986,-0.52276 0.56338,-1.0062 0.56338,-1.0744 0,-0.0681 0.33061,-0.36131 0.73469,-0.65149 0.40408,-0.29019 0.7347,-0.57982 0.7347,-0.64361 0,-0.0638 0.25632,-0.25404 0.5696,-0.42274 0.5463,-0.29421 0.61151,-0.29542 1.5939,-0.0295 0.83352,0.22562 1.0966,0.38278 1.4125,0.84372 0.37136,0.54198 0.37579,0.58013 0.10222,0.8824 -0.28193,0.31153 -0.29699,0.31016 -1.0801,-0.0993 -1.5227,-0.79621 -2.477,-0.23636 -3.5834,2.1023 -0.56697,1.1985 -0.60276,1.7821 -0.16227,2.6461 0.93332,1.8307 2.6074,2.4856 4.2537,1.6643 0.29471,-0.14702 0.6953,-0.26731 0.89019,-0.26731 0.51082,0 1.7337,-0.92274 2.7136,-2.0476 0.46606,-0.53502 0.89212,-1.0095 0.94679,-1.0544 0.10753,-0.0883 1.034,-1.5726 1.4776,-2.3674 0.15035,-0.26939 0.40759,-0.93061 0.57161,-1.4694 0.16403,-0.53877 0.35201,-1.0531 0.41776,-1.1428 0.0658,-0.0898 0.21063,-0.44588 0.32194,-0.7913 0.11134,-0.34541 0.30414,-0.82296 0.42845,-1.0612 0.12431,-0.23825 0.22648,-0.59415 0.22702,-0.7909 0,-0.19674 0.0652,-0.39739 0.1437,-0.4459 0.20936,-0.12938 0.98503,-1.8079 1.4152,-3.0624 0.52084,-1.5188 1.3476,-2.8544 2.0538,-3.3177 0.13688,-0.0898 0.60686,-0.40204 1.0444,-0.69388 1.5932,-1.0627 3.5224,-0.43569 4.501,1.4629 0.43926,0.85218 0.42751,2.8326 -0.0244,4.1185 -0.58792,1.6727 -1.2615,2.8165 -2.158,3.6643 -1.5485,1.4645 -2.3792,2.0036 -4.4034,2.858 -0.69827,0.29471 -0.81189,0.7584 -0.27752,1.1327 0.37481,0.26254 0.97139,1.6893 0.97139,2.3231 0,0.69063 0.66391,2.5165 0.97569,2.6834 0.59076,0.31616 0.5832,1.3692 -0.0113,1.5579 -0.36668,0.11638 -0.96451,-0.0437 -0.96451,-0.25823 0,-0.0824 -0.21196,-0.49989 -0.47102,-0.92777 -0.27347,-0.45166 -0.65546,-1.5312 -0.91074,-2.5739 -0.24185,-0.98776 -0.56509,-1.9429 -0.71834,-2.1224 -0.33026,-0.38709 -1.2556,-1.0612 -1.4567,-1.0612 -0.23641,0 -0.82004,0.70427 -1.0635,1.2833 -0.12633,0.30044 -0.516,0.87556 -0.86592,1.278 -2.6555,3.054 -3.7518,3.8793 -6.017,4.5293 -0.80428,0.23078 -1.5022,0.41298 -1.551,0.40488 -0.0488,-0.008 -0.34583,-0.0873 -0.66011,-0.17605 z m 4.0115,7.118 c -0.37447,-0.37448 -0.31022,-0.73254 0.24693,-1.3761 1.3879,-1.6031 1.4557,-1.7489 1.4557,-3.13 0,-1.2003 -0.026,-1.297 -0.39431,-1.4648 -0.669,-0.30481 -0.70722,-1.1702 -0.0608,-1.3754 0.37579,-0.11927 0.984,0.2724 1.5035,0.96816 0.24852,0.33286 0.34978,0.76215 0.39608,1.6793 0.0554,1.0962 0.0116,1.3323 -0.39713,2.14 -0.43598,0.86171 -2.0732,2.8154 -2.3594,2.8154 -0.0737,0 -0.24947,-0.11544 -0.39058,-0.25655 z"
         id="accordance" />
    </g>
  </g>
</svg>
