<?xml version="1.0" encoding="UTF-8" standalone="no"?>
<svg
   xmlns:dc="http://purl.org/dc/elements/1.1/"
   xmlns:cc="http://creativecommons.org/ns#"
   xmlns:rdf="http://www.w3.org/1999/02/22-rdf-syntax-ns#"
   xmlns:svg="http://www.w3.org/2000/svg"
   xmlns="http://www.w3.org/2000/svg"
   id="svg2663"
   viewBox="0 0 13.213284 12.655581"
   version="1.1"
   height="12.655581"
   width="13.213284">
  <defs
     id="defs2667" />
  <metadata
     id="metadata2">
    <rdf:RDF>
      <cc:Work
         rdf:about="">
        <dc:format>image/svg+xml</dc:format>
        <dc:type
           rdf:resource="http://purl.org/dc/dcmitype/StillImage" />
        <dc:title />
      </cc:Work>
    </rdf:RDF>
  </metadata>
  <g
     transform="translate(-221.23223,-680.07976)"
     id="g2661">
    <g
       style="stroke-width:0.16327"
       id="g2557">
      <path
         d="m 221.33,686.59 c -0.24112,-0.24111 -0.0659,-0.61797 0.85974,-1.8488 0.53272,-0.70839 1.047,-1.4345 1.1429,-1.6136 0.28775,-0.53768 0.19858,-1.2303 -0.23389,-1.8165 -0.71609,-0.97058 -0.40124,-1.5123 0.62881,-1.0819 0.80593,0.33673 1.1424,0.97993 1.1557,2.2094 0.008,0.7144 -0.0551,1.0714 -0.19706,1.1188 -0.11464,0.0382 -0.35827,0.36316 -0.54137,0.72209 -0.7045,1.3809 -2.374,2.7513 -2.8148,2.3105 z m 6.2117,5.6284 c -1.5794,-0.85683 -2.5654,-2.5046 -2.5654,-4.287 0,-0.85112 0.0778,-1.1308 0.48636,-1.7476 0.2675,-0.40385 0.63485,-0.86865 0.81633,-1.0329 0.18147,-0.16422 0.33084,-0.37905 0.33194,-0.47738 0.003,-0.26041 1.6694,-1.35 2.2648,-1.4808 0.27979,-0.0615 0.50869,-0.17937 0.50869,-0.26203 0,-0.0827 0.59842,-0.15028 1.3298,-0.15028 1.1696,0 1.4155,0.0541 2.0405,0.44898 0.49956,0.31559 0.71079,0.55962 0.71099,0.82145 0,0.49794 -0.42482,0.6341 -0.97159,0.31112 -1.1069,-0.65385 -3.0272,-0.462 -3.9436,0.39397 -0.27876,0.26039 -0.56369,0.47346 -0.63318,0.47346 -0.0695,0 -0.41069,0.34736 -0.75823,0.7719 -0.62991,0.76945 -0.63186,0.77637 -0.6139,2.1799 0.0168,1.3089 0.0512,1.4453 0.4898,1.9384 0.25948,0.29175 0.7849,0.7142 1.1676,0.93881 0.62144,0.36468 0.84105,0.40222 2.0534,0.35087 1.2404,-0.0525 1.4452,-0.11161 2.3742,-0.68521 1.0888,-0.67218 1.8153,-0.72388 1.8153,-0.12916 0,0.43039 -0.39191,0.71979 -1.9967,1.4744 -1.2918,0.60746 -1.544,0.66981 -2.6939,0.66588 -1.108,-0.004 -1.3882,-0.0692 -2.2134,-0.51692 z"
         id="acknowledge_abv" />
    </g>
  </g>
</svg>
