<?xml version="1.0" encoding="UTF-8" standalone="no"?>
<svg
   xmlns:dc="http://purl.org/dc/elements/1.1/"
   xmlns:cc="http://creativecommons.org/ns#"
   xmlns:rdf="http://www.w3.org/1999/02/22-rdf-syntax-ns#"
   xmlns:svg="http://www.w3.org/2000/svg"
   xmlns="http://www.w3.org/2000/svg"
   id="svg2663"
   viewBox="0 0 34.733973 15.265161"
   version="1.1"
   height="15.265161"
   width="34.733974">
  <defs
     id="defs2667" />
  <metadata
     id="metadata2">
    <rdf:RDF>
      <cc:Work
         rdf:about="">
        <dc:format>image/svg+xml</dc:format>
        <dc:type
           rdf:resource="http://purl.org/dc/dcmitype/StillImage" />
        <dc:title />
      </cc:Work>
    </rdf:RDF>
  </metadata>
  <g
     transform="translate(-220.41552,-702.12698)"
     id="g2661">
    <g
       style="stroke-width:0.16327"
       id="g2557">
      <path
         d="m 220.69,709.28 c -0.47082,-0.12305 -0.32396,-0.73987 0.34856,-1.4638 1.5865,-1.7079 2.0463,-3.317 1.2263,-4.2916 -0.50012,-0.59436 -0.4388,-1.2225 0.13396,-1.3723 0.53085,-0.13882 1.089,0.29984 1.466,1.1521 0.43322,0.97938 0.43306,1.6172 0,2.5131 -0.19685,0.40663 -0.35791,0.80873 -0.35791,0.89358 0,0.295 -2.1558,2.6947 -2.3918,2.6625 -0.0763,-0.0104 -0.26735,-0.0525 -0.42449,-0.0936 z m 32.857,7.4279 c 0,-0.37638 0.0788,-1.4968 0.17503,-2.4898 0.10464,-1.0794 0.12106,-2.2651 0.0408,-2.9483 -0.1318,-1.1223 -0.14325,-1.1437 -0.63522,-1.1918 -0.30214,-0.0295 -0.85298,0.12713 -1.3878,0.39468 -1.0693,0.53495 -2.9276,2.3136 -2.9276,2.802 0,0.18874 -0.0732,0.38836 -0.16258,0.44363 -0.0894,0.0553 -0.41208,0.64052 -0.71704,1.3006 -0.52578,1.138 -1.0557,1.6919 -1.4095,1.4733 -0.27785,-0.17172 -0.17424,-0.91566 0.25345,-1.8197 0.3803,-0.80387 0.40967,-1.0265 0.36735,-2.7853 -0.0449,-1.8671 -0.0559,-1.9171 -0.46988,-2.1492 -0.39758,-0.22284 -0.50591,-0.19535 -1.7462,0.44325 -0.72728,0.37445 -1.5729,0.91951 -1.8791,1.2112 -0.60971,0.58088 -1.5884,2.2773 -1.9072,3.3059 -0.30197,0.97426 -0.61417,1.3878 -1.0478,1.3878 -0.71581,0 -0.81502,-0.37417 -0.34508,-1.3015 0.47714,-0.9416 0.8439,-3.2204 0.66865,-4.1545 -0.13685,-0.72947 -0.56654,-0.97027 -1.5609,-0.87473 -0.94098,0.0904 -1.9576,0.75398 -3.4325,2.2404 -1.7801,1.7941 -2.9062,2.4842 -5.5505,3.4016 -0.84387,0.29278 -1.5294,0.41868 -2.2055,0.40499 -1.0834,-0.0219 -2.3876,-0.40161 -2.8442,-0.82803 -0.16248,-0.15175 -0.52542,-0.48418 -0.80652,-0.73874 -0.50321,-0.45567 -0.51108,-0.48635 -0.51108,-1.9904 0,-0.84017 0.0678,-1.5695 0.15071,-1.6207 0.0829,-0.0512 0.19982,-0.31676 0.25984,-0.59008 0.14847,-0.67592 1.7712,-2.2867 2.8492,-2.8281 1.233,-0.6193 2.5229,-0.729 3.3184,-0.28221 0.33853,0.19014 0.72207,0.3457 0.85232,0.3457 0.26645,0 0.49117,0.68622 0.3474,1.0609 -0.14141,0.3685 -0.74214,0.29567 -1.3434,-0.16291 -0.29431,-0.22449 -0.72826,-0.40816 -0.96432,-0.40816 -0.65212,0 -2.0264,0.49512 -2.2507,0.81087 -0.10947,0.15409 -0.37128,0.37159 -0.58181,0.48335 -0.84698,0.44958 -1.6857,3.6034 -1.1341,4.2646 0.32749,0.39267 1.7526,1.1316 2.5097,1.3012 0.60065,0.13461 0.90332,0.0757 2.5006,-0.48685 2.2197,-0.78168 2.3652,-0.87748 4.7141,-3.1034 1.8576,-1.7604 2.8932,-2.3832 4.1822,-2.5153 0.81425,-0.0834 1.1952,-0.0502 1.5545,0.13562 0.51986,0.26883 1.1578,0.99391 1.1578,1.3159 0,0.1116 0.1046,0.28972 0.23246,0.39582 0.25751,0.21372 1.1909,-0.17644 2.1606,-0.90311 0.92673,-0.69445 2.8293,-1.1942 3.2493,-0.85339 0.6798,0.55166 1.0816,1.0599 1.1641,1.4726 0.14456,0.72274 0.44356,0.86717 1.1254,0.54359 0.32289,-0.15321 0.73375,-0.42525 0.91302,-0.60452 0.55167,-0.55167 1.9501,-1.111 2.7821,-1.1127 1.0998,-0.002 1.6892,0.5936 1.8485,1.8687 0.13656,1.0929 -0.0586,5.7051 -0.26424,6.246 -0.11088,0.29163 -0.26812,0.37347 -0.71746,0.37347 -0.56692,0 -0.57547,-0.0101 -0.57547,-0.68431 z"
         id="acknowledgement_abv" />
    </g>
  </g>
</svg>
