<svg xmlns="http://www.w3.org/2000/svg" height="12.656" width="13.213"><path d="M.098 6.51c-.241-.24-.066-.618.86-1.849.532-.708 1.047-1.434 1.142-1.613.288-.538.199-1.23-.233-1.817C1.15.261 1.465-.28 2.495.15c.806.337 1.143.98 1.156 2.21.008.714-.055 1.071-.197 1.119-.115.038-.358.363-.541.722C2.208 5.58.539 6.95.098 6.51zm6.211 5.629a4.888 4.888 0 01-2.565-4.287c0-.851.078-1.131.486-1.748.268-.404.635-.869.817-1.033.181-.164.33-.379.332-.477.003-.26 1.67-1.35 2.265-1.481.28-.062.508-.18.508-.262 0-.083.599-.15 1.33-.15 1.17 0 1.415.054 2.04.449.5.315.711.56.711.821 0 .498-.424.634-.971.311-1.107-.654-3.027-.462-3.944.394-.278.26-.563.474-.633.474-.07 0-.41.347-.758.772-.63.769-.632.776-.614 2.18.017 1.308.051 1.445.49 1.938.26.292.785.714 1.167.939.622.364.841.402 2.054.35 1.24-.052 1.445-.111 2.374-.685 1.089-.672 1.815-.724 1.815-.129 0 .43-.392.72-1.996 1.475-1.292.607-1.544.67-2.694.665-1.108-.004-1.389-.069-2.214-.516z" stroke-width=".163"/></svg>