<svg xmlns="http://www.w3.org/2000/svg" height="15.267" width="34.737"><path d="M.274 7.153c-.47-.123-.324-.74.35-1.464 1.585-1.708 2.045-3.317 1.225-4.292C1.35.803 1.41.174 1.983.025c.53-.138 1.09.3 1.466 1.152.433.98.433 1.617 0 2.513-.197.407-.358.809-.358.894C3.091 4.879.935 7.279.7 7.246a4.9 4.9 0 01-.424-.094zm32.86 7.428c0-.376.08-1.497.175-2.49.105-1.079.122-2.265.041-2.948-.132-1.122-.143-1.144-.635-1.192-.302-.03-.853.127-1.388.395-1.069.535-2.928 2.314-2.928 2.802 0 .189-.073.388-.163.444-.089.055-.412.64-.717 1.3-.525 1.139-1.056 1.693-1.409 1.474-.277-.172-.174-.916.254-1.82.38-.804.41-1.027.367-2.785-.045-1.867-.056-1.917-.47-2.15-.397-.222-.506-.195-1.746.444-.727.374-1.573.92-1.879 1.21-.61.582-1.588 2.278-1.907 3.307-.302.974-.614 1.388-1.048 1.388-.715 0-.815-.374-.345-1.302.477-.942.844-3.22.669-4.155-.137-.73-.567-.97-1.561-.875-.941.09-1.958.754-3.432 2.24-1.78 1.794-2.906 2.484-5.551 3.402-.844.293-1.53.419-2.206.405-1.083-.022-2.388-.401-2.844-.828a90.128 90.128 0 00-.807-.739c-.503-.455-.51-.486-.51-1.99 0-.84.067-1.569.15-1.62.083-.052.2-.317.26-.59.148-.677 1.77-2.288 2.849-2.829 1.233-.619 2.523-.729 3.318-.282.338.19.722.346.852.346.266 0 .491.686.347 1.06-.14.37-.742.297-1.343-.162-.294-.225-.728-.408-.964-.408-.652 0-2.026.495-2.25.81-.11.155-.372.372-.583.484-.847.45-1.686 3.603-1.134 4.265.328.393 1.753 1.132 2.51 1.301.601.135.904.076 2.501-.487 2.22-.781 2.365-.877 4.714-3.103 1.858-1.76 2.893-2.383 4.182-2.515.815-.083 1.195-.05 1.555.136.52.269 1.158.994 1.158 1.316 0 .111.105.29.233.396.257.213 1.19-.177 2.16-.903.928-.695 2.83-1.194 3.25-.854.68.552 1.082 1.06 1.164 1.473.144.723.443.867 1.125.544.323-.153.734-.425.913-.605.552-.551 1.95-1.11 2.782-1.113 1.1-.002 1.689.594 1.849 1.87.136 1.092-.059 5.704-.264 6.245-.111.292-.268.374-.718.374-.567 0-.575-.01-.575-.685z" stroke-width=".163"/></svg>