<svg xmlns="http://www.w3.org/2000/svg" height="12.654" width="13.214"><path d="M.098 6.51c-.241-.24-.066-.618.86-1.849.532-.708 1.046-1.435 1.142-1.614.288-.537.2-1.23-.233-1.816C1.15.261 1.465-.28 2.495.15c.806.337 1.142.98 1.156 2.21.008.714-.055 1.07-.197 1.118-.114.038-.358.363-.541.722C2.208 5.58.539 6.95.098 6.51zm6.212 5.628a4.89 4.89 0 01-2.565-4.287c0-.85.078-1.13.486-1.748.268-.404.635-.868.816-1.033.182-.164.331-.379.332-.477.003-.26 1.67-1.35 2.265-1.481.28-.062.51-.18.51-.262 0-.083.597-.15 1.33-.15 1.17 0 1.414.054 2.04.449.5.315.71.56.711.821 0 .498-.425.634-.972.311-1.107-.654-3.027-.462-3.944.394-.278.26-.563.474-.633.474-.07 0-.41.347-.758.771-.63.77-.632.777-.614 2.18.017 1.31.051 1.445.49 1.938.26.292.785.715 1.168.94.621.364.841.401 2.053.35 1.24-.052 1.445-.111 2.374-.685 1.089-.672 1.815-.724 1.815-.13 0 .431-.392.72-1.997 1.475-1.292.607-1.544.67-2.694.666-1.108-.004-1.388-.07-2.213-.517z" stroke-width=".163"/></svg>