<svg xmlns="http://www.w3.org/2000/svg" height="15.265" width="34.734"><path d="M.274 7.153c-.47-.123-.323-.74.349-1.464C2.21 3.981 2.669 2.372 1.849 1.398 1.35.803 1.411.175 1.983.025c.531-.139 1.09.3 1.466 1.152.434.98.433 1.618 0 2.514-.197.406-.358.808-.358.893C3.091 4.88.936 7.28.7 7.247a4.903 4.903 0 01-.425-.094zm32.857 7.428c0-.376.08-1.497.176-2.49.104-1.08.12-2.265.04-2.948-.131-1.122-.143-1.144-.635-1.192-.302-.03-.853.127-1.388.395-1.069.535-2.927 2.313-2.927 2.802 0 .188-.074.388-.163.443-.09.056-.412.64-.717 1.3-.526 1.139-1.056 1.693-1.41 1.474-.277-.171-.174-.915.254-1.82.38-.803.41-1.026.367-2.785-.045-1.867-.056-1.917-.47-2.149-.397-.223-.505-.195-1.746.443-.727.375-1.573.92-1.879 1.211-.61.581-1.588 2.278-1.907 3.306-.302.975-.614 1.388-1.048 1.388-.716 0-.815-.374-.345-1.301.477-.942.844-3.22.669-4.155-.137-.73-.567-.97-1.561-.875-.941.09-1.958.754-3.433 2.24-1.78 1.795-2.906 2.485-5.55 3.402-.844.293-1.53.42-2.206.405-1.083-.021-2.387-.401-2.844-.828a91.5 91.5 0 00-.806-.738c-.504-.456-.511-.487-.511-1.99 0-.84.067-1.57.15-1.621.083-.052.2-.317.26-.59.149-.676 1.771-2.287 2.85-2.829 1.232-.619 2.522-.729 3.318-.282.338.19.722.346.852.346.266 0 .491.686.347 1.06-.141.37-.742.296-1.343-.162-.294-.225-.728-.408-.964-.408-.652 0-2.027.495-2.251.81-.11.155-.371.372-.582.484-.847.45-1.685 3.603-1.134 4.265.328.392 1.753 1.131 2.51 1.3.6.135.903.076 2.5-.486 2.22-.782 2.366-.878 4.715-3.104 1.857-1.76 2.893-2.383 4.182-2.515.814-.083 1.195-.05 1.554.136.52.269 1.158.994 1.158 1.316 0 .111.105.29.232.396.258.213 1.191-.177 2.161-.904.927-.694 2.83-1.194 3.25-.853.68.552 1.081 1.06 1.163 1.473.145.722.444.867 1.126.543.323-.153.734-.425.913-.604.552-.552 1.95-1.111 2.782-1.113 1.1-.002 1.69.594 1.848 1.869.137 1.093-.058 5.705-.264 6.246-.11.291-.268.373-.717.373-.567 0-.576-.01-.576-.684z" stroke-width=".163"/></svg>