<svg xmlns="http://www.w3.org/2000/svg" height="30.672" width="52.505"><path d="M16.9 6.4c-.36-.359-.039-1.015 1.283-2.625.239-.291.473-.814.52-1.162.074-.559.013-.712-.524-1.306-.358-.396-.57-.772-.515-.914.145-.38.849-.483 1.194-.175.165.147.484.404.708.57.371.277.408.414.408 1.515 0 1.126-.04 1.265-.571 1.992-1.356 1.853-2.116 2.493-2.504 2.105zM.144 8.152c-.276-.515-.21-.708.696-2.064.476-.711.962-1.53 1.079-1.818.117-.29.315-.61.44-.714.35-.291.27-1.326-.167-2.149-.356-.67-.371-.775-.154-1.085.322-.46.594-.433 1.194.115.859.784 1.085 2.419.51 3.673-.173.377-.798 1.41-1.388 2.297-.59.887-1.073 1.668-1.073 1.736 0 .11-.546.317-.852.323-.064.002-.193-.14-.286-.314zm50.387 6.003c-.249-.14-.275-.299-.18-1.088.062-.509.168-.999.236-1.088.23-.305.643-2.283.63-3.02-.014-.868-.429-2.77-.667-3.062-.092-.112-.47-.202-.84-.199-.549.004-.78.111-1.238.572-.31.311-.615.566-.677.566-.062 0-.35.367-.637.816-.288.45-.583.816-.656.816-.23 0-.787 1.358-.904 2.205-.062.449-.204.926-.315 1.06-.11.135-.285.494-.387.797-.19.565-.927 1.326-1.286 1.326-.41 0-.453-1.674-.056-2.204.222-.295.546-2.466.565-3.776.016-1.15-.03-1.36-.44-1.991-.365-.56-.42-.754-.266-.939.471-.568 1.698.085 2.033 1.081.315.936.596.956 1.417.1.4-.418.847-.76.992-.76.145 0 .303-.065.352-.144.119-.192 1.609-.673 2.084-.672.537.002 1.381.558 1.66 1.096.705 1.363.737 3.487.098 6.465-.333 1.55-.43 1.793-.803 1.986-.298.154-.512.17-.715.057zM7.925 28.59c1.07-1.16 1.3-1.747 1.577-4.041.2-1.655.22-2.464.094-3.674a99.283 99.283 0 01-.257-2.938c-.052-.764-.164-1.462-.25-1.551-.175-.184-.475.23-.651.898-.06.224-.252.812-.427 1.306a15.45 15.45 0 00-.485 1.714c-.091.449-.29 1.257-.442 1.796-1.004 3.566-1.332 6.326-.813 6.845.44.44 1.037.311 1.654-.355zM6.309 13.489c.914-.407 2.732-2.053 2.892-2.619.056-.198.199-.581.317-.85.965-2.193.965-2.278-.004-3.16-.53-.482-.888-.678-1.241-.678-.674 0-1.963.752-2.412 1.407-.202.296-.581.76-.842 1.033-.26.273-.474.601-.474.73 0 .127-.184.598-.408 1.045-.457.91-.49 1.207-.222 2.006.199.593 1 1.453 1.354 1.453.118 0 .586-.165 1.04-.367zm2.395-8.613c.753.087 2.046.826 2.046.989 0 .074.367.334.816.578.903.491 1.037.91.581 1.808-.129.254-.356.72-.504 1.034-.149.314-.48.938-.738 1.387-.558.975-.893 1.668-1.042 2.154-.168.551.704.722 2.742.537 2.02-.183 2.488-.318 4.757-1.379 1.314-.614 3.512-1.501 4.597-1.855.553-.18 1.177-.421 1.388-.536.621-.34 2.41-.94 3.81-1.28a45.241 45.241 0 002.858-.828c1.354-.447 1.852-.523 3.925-.603 2.589-.1 2.98-.009 4.401 1.022 1.06.77 1.244.97 1.79 1.952.418.751.564 1.234.623 2.068.11 1.516-.017 1.932-.587 1.932-.706 0-.846-.269-.846-1.63 0-1.31-.083-1.515-1.047-2.58-1.078-1.19-1.328-1.26-4.508-1.253-2.681.006-2.927.034-3.918.427-1.914.76-2.967 1.091-3.915 1.234-.314.047-.674.169-.8.27-.303.246-2.013.893-3.054 1.158-.458.116-1.015.312-1.238.435-1.264.7-2.73 1.286-3.216 1.286-.112 0-.437.171-.723.381-.606.445-1.594.806-2.969 1.084-.539.11-1.148.265-1.354.346a2.703 2.703 0 01-.826.148c-.248 0-.58.094-.736.209-.347.253-.368.76-.198 4.77.162 3.851-.017 5.69-.694 7.103-.65 1.355-.748 1.493-1.809 2.55-.845.84-.919.878-1.748.878-.666 0-.94-.078-1.182-.338-.173-.186-.404-.655-.512-1.043-.269-.959.014-3.994.551-5.909.223-.794.456-1.847.518-2.338a9.745 9.745 0 01.407-1.714l.795-2.209c.62-1.722.661-2.452.135-2.442-.202.004-.661.113-1.02.243-.815.293-1.294.296-2.11.012-.766-.267-1.076-.665-1.559-1.999l-.362-1.002.36-1.039c.479-1.382.79-2.023 1.426-2.931.292-.417.53-.837.53-.932 0-.095.143-.219.317-.274.174-.055.533-.347.797-.648.265-.301.5-.565.827-.733.674-.345 1.465-.586 2.218-.5z"/></svg>