<?xml version="1.0" encoding="UTF-8" standalone="no"?>
<svg
   xmlns:dc="http://purl.org/dc/elements/1.1/"
   xmlns:cc="http://creativecommons.org/ns#"
   xmlns:rdf="http://www.w3.org/1999/02/22-rdf-syntax-ns#"
   xmlns:svg="http://www.w3.org/2000/svg"
   xmlns="http://www.w3.org/2000/svg"
   id="svg2663"
   viewBox="0 0 41.201377 30.461584"
   version="1.1"
   height="30.461584"
   width="41.201378">
  <defs
     id="defs2667" />
  <metadata
     id="metadata2">
    <rdf:RDF>
      <cc:Work
         rdf:about="">
        <dc:format>image/svg+xml</dc:format>
        <dc:type
           rdf:resource="http://purl.org/dc/dcmitype/StillImage" />
        <dc:title />
      </cc:Work>
    </rdf:RDF>
  </metadata>
  <g
     transform="translate(-220.16052,-720.26305)"
     id="g2661">
    <g
       style="stroke-width:0.16327"
       id="g2557">
      <path
         d="m 234.98,727.4 c -0.43062,-0.17375 -0.21044,-0.85097 0.44898,-1.3809 0.35918,-0.28866 0.65306,-0.62503 0.65306,-0.74751 0,-0.1225 0.11334,-0.26619 0.25185,-0.31935 0.35223,-0.13517 0.89101,-1.251 0.89101,-1.8453 0,-0.33945 -0.18435,-0.69987 -0.58451,-1.1428 -0.42656,-0.47215 -0.55595,-0.737 -0.47879,-0.98007 0.35102,-1.106 2.5327,0.66725 2.5327,2.0585 0,0.23174 -0.18171,0.7619 -0.40382,1.1781 -0.22209,0.41623 -0.47755,0.95914 -0.56765,1.2065 -0.0901,0.24736 -0.49615,0.68392 -0.90231,0.9702 -0.40615,0.28629 -0.73846,0.60872 -0.73846,0.71653 0,0.32018 -0.61919,0.48091 -1.102,0.28607 z m -14.748,1.6954 c -0.19904,-0.43687 0.047,-1.2607 0.37652,-1.2607 0.27314,0 1.7083,-1.9446 1.8491,-2.5055 0.0602,-0.24002 0.17486,-0.47677 0.25471,-0.52612 0.42175,-0.26065 -0.035,-1.9874 -0.78847,-2.9809 -0.61814,-0.81502 -0.66875,-1.1728 -0.20674,-1.4613 0.76687,-0.47894 1.9542,0.86181 2.3781,2.6854 0.17587,0.7566 0.16924,1.0211 -0.0436,1.7384 -0.36708,1.2373 -0.91681,2.24 -1.583,2.8875 -0.32299,0.31389 -0.59037,0.64419 -0.59417,0.73399 -0.0136,0.32224 -0.80404,1.0612 -1.1351,1.0612 -0.19318,0 -0.41044,-0.15928 -0.50735,-0.37196 z m 7.4781,20.087 c 0.85796,-0.89522 2.0043,-3.3245 2.0044,-4.2479 5e-5,-0.24859 0.13887,-0.98328 0.30849,-1.6327 0.31988,-1.2246 0.5905,-3.5093 0.7726,-6.5228 0.0892,-1.4763 0.0634,-1.8149 -0.16486,-2.1633 -0.14883,-0.22715 -0.37577,-0.41301 -0.50431,-0.41301 -0.23421,0 -1.3914,2.2269 -1.3914,2.6776 0,0.13085 -0.0974,0.3353 -0.21647,0.45436 -0.11906,0.11907 -0.26536,0.46088 -0.3251,0.7596 -0.0597,0.29871 -0.25621,0.73075 -0.43659,0.96007 -0.18039,0.22931 -0.32796,0.5865 -0.32796,0.79375 0,0.20725 -0.14036,0.61978 -0.31189,0.91675 -0.3767,0.65213 -0.99424,2.8221 -0.99424,3.4936 0,0.26612 -0.12857,0.66552 -0.28571,0.88754 -0.42518,0.6007 -0.41203,3.4827 0.0188,4.118 0.44,0.64879 1.1857,0.61595 1.8543,-0.0816 z m -2.1884,-13.263 c 0.31991,-0.13366 0.78805,-0.51695 1.0404,-0.85175 0.25229,-0.33481 0.73423,-0.88668 1.071,-1.2264 0.33673,-0.33971 0.61224,-0.76457 0.61224,-0.94417 0,-0.17959 0.0685,-0.32653 0.15226,-0.32653 0.0837,0 0.20245,-0.15812 0.26379,-0.35138 0.0613,-0.19325 0.32629,-0.7156 0.58875,-1.1608 0.43648,-0.74026 0.68012,-2.0818 0.42449,-2.3375 -0.045,-0.045 -0.47575,-0.22578 -0.9573,-0.4018 -1.0627,-0.38842 -1.9458,-0.4078 -2.6434,-0.058 -0.72037,0.36126 -2.5633,2.1943 -2.5633,2.5496 0,0.15974 -0.0599,0.29044 -0.13321,0.29044 -0.28109,0 -0.87464,1.3513 -0.96096,2.1878 -0.13125,1.2717 0.28393,2.2829 1.0716,2.61 0.76396,0.31724 1.3102,0.32275 2.0336,0.0205 z m -0.21849,14.519 c -0.45959,-0.24087 -0.85212,-1.0782 -0.89783,-1.2716 -0.27899,-1.1804 -0.35827,-2.0043 -0.22629,-2.3515 0.0813,-0.21381 0.14875,-0.62275 0.14991,-0.90874 0.002,-0.28599 0.1481,-0.98571 0.32653,-1.5549 0.17844,-0.56922 0.32443,-1.1857 0.32443,-1.3699 0,-0.1842 0.13964,-0.63684 0.3103,-1.0059 0.54757,-1.184 1.2815,-3.0916 1.5773,-4.0995 0.15811,-0.53878 0.36467,-1.1048 0.45905,-1.2579 0.27765,-0.45026 -0.0297,-0.5455 -0.51259,-0.15888 -1.0769,0.86213 -1.207,0.91256 -2.3534,0.91256 -1.5136,0 -2.3602,-0.44888 -2.8524,-1.5122 -0.50307,-1.087 -0.5947,-2.045 -0.32647,-3.4137 0.18544,-0.94617 0.37176,-1.366 0.92387,-2.0816 0.38038,-0.49303 0.75509,-0.89643 0.83269,-0.89643 0.0776,0 0.32821,-0.28274 0.5569,-0.62832 0.2287,-0.34557 0.61322,-0.73129 0.85449,-0.85715 0.24129,-0.12584 0.56951,-0.35739 0.72938,-0.51453 0.15986,-0.15714 0.42357,-0.28571 0.586,-0.28571 0.16242,0 0.43793,-0.10787 0.61225,-0.23971 1.1264,-0.85195 5.1332,0.89608 5.1332,2.2394 0,0.17767 -0.1496,0.94188 -0.33246,1.6983 -0.34929,1.4449 -0.32627,1.6898 0.15884,1.6898 0.1633,0 0.39189,0.11445 0.50797,0.25434 0.33602,0.40485 1.2011,0.69641 2.3955,0.80731 1.4079,0.13073 4.5197,-0.27799 5.5346,-0.72694 0.41618,-0.1841 0.86516,-0.33471 0.99777,-0.33471 0.13259,0 0.72937,-0.25092 1.3262,-0.55761 1.0915,-0.56093 3.8942,-1.7281 4.1496,-1.7281 0.0754,0 0.44533,-0.14041 0.82204,-0.312 0.64059,-0.29182 2.0973,-0.57923 5.0114,-0.98875 0.67347,-0.0947 1.5726,-0.25844 1.998,-0.36397 0.60774,-0.15078 1.0101,-0.14598 1.8776,0.0224 0.60723,0.11786 1.2142,0.3065 1.349,0.4192 0.13469,0.11271 0.4025,0.25285 0.5951,0.31143 0.43047,0.13091 1.6242,1.4365 2.1954,2.4011 0.8392,1.4172 1.315,2.7991 1.2606,3.6609 -0.0461,0.72976 -0.0919,0.81363 -0.46781,0.85742 -0.58289,0.0679 -0.99218,-0.4502 -1.0971,-1.3888 -0.0774,-0.6917 -0.45043,-1.5347 -1.4361,-3.2448 -0.35169,-0.61019 -1.7818,-1.6164 -2.6334,-1.8529 -0.85953,-0.23867 -1.7835,-0.21413 -2.7283,0.0725 -0.4408,0.13373 -1.0203,0.24313 -1.2877,0.24313 -0.41017,0 -3.0062,0.57479 -5.1897,1.149 -0.32173,0.0846 -0.78089,0.3222 -1.0204,0.52797 -0.23946,0.20576 -0.78439,0.47012 -1.2109,0.58746 -1.4222,0.3912 -1.6639,0.48935 -2.0184,0.81967 -0.19375,0.18049 -0.58111,0.37704 -0.8608,0.43678 -0.27971,0.0597 -0.60173,0.18371 -0.71562,0.2755 -0.11388,0.0918 -0.48123,0.22548 -0.81633,0.29712 -0.33509,0.0716 -1.2338,0.28005 -1.997,0.46314 -0.97626,0.23419 -1.9506,0.33414 -3.2861,0.33708 -1.4792,0.003 -1.943,0.0579 -2.1004,0.24759 -0.19548,0.23552 -0.40929,1.5673 -0.57693,3.5933 -0.35362,4.274 -0.80931,6.7541 -1.4849,8.0816 -0.20565,0.40408 -0.41394,0.93131 -0.46287,1.1716 -0.0897,0.44031 -1.1601,1.9286 -2.1289,2.3531 -0.77389,0.33909 -1.7863,0.36828 -2.5346,-0.0239 z"
         id="acquaint" />
    </g>
  </g>
</svg>
