<svg xmlns="http://www.w3.org/2000/svg" height="30.462" width="41.201"><path d="M14.82 7.137c-.431-.174-.211-.851.448-1.381.36-.289.654-.625.654-.747 0-.123.113-.267.251-.32.353-.135.891-1.25.891-1.845 0-.34-.184-.7-.584-1.143-.427-.472-.556-.737-.479-.98.351-1.106 2.533.667 2.533 2.059 0 .231-.182.761-.404 1.178-.222.416-.478.959-.568 1.206-.09.247-.496.684-.902.97-.406.287-.738.609-.738.717 0 .32-.62.48-1.102.286zM.07 8.832c-.199-.437.047-1.26.377-1.26.273 0 1.708-1.945 1.85-2.506.06-.24.174-.477.254-.526.422-.26-.035-1.987-.789-2.98C1.145.743 1.095.385 1.557.097c.766-.48 1.954.862 2.378 2.685.176.757.169 1.021-.044 1.739-.367 1.237-.917 2.24-1.583 2.887-.323.314-.59.644-.594.734C1.7 8.465.91 9.204.579 9.204c-.193 0-.41-.159-.508-.372zM7.55 28.92c.858-.895 2.004-3.324 2.004-4.248 0-.248.139-.983.308-1.632.32-1.225.591-3.51.773-6.523.09-1.476.063-1.815-.165-2.163-.149-.228-.376-.413-.504-.413-.234 0-1.391 2.227-1.391 2.677 0 .131-.098.336-.217.455s-.265.46-.325.76c-.06.298-.256.73-.437.96-.18.229-.328.586-.328.793 0 .207-.14.62-.312.917-.376.652-.994 2.822-.994 3.493 0 .266-.128.666-.285.888-.426.6-.412 3.483.018 4.118.44.649 1.186.616 1.855-.082zM5.36 15.656c.32-.133.788-.517 1.04-.851a14.63 14.63 0 011.072-1.227c.336-.34.612-.764.612-.944 0-.18.068-.327.152-.327.084 0 .203-.158.264-.35.061-.194.326-.716.589-1.162.436-.74.68-2.081.424-2.337-.045-.045-.476-.226-.957-.402-1.063-.388-1.946-.408-2.644-.058-.72.361-2.563 2.194-2.563 2.55 0 .16-.06.29-.133.29-.281 0-.875 1.351-.961 2.188-.131 1.272.284 2.283 1.072 2.61.763.317 1.31.323 2.033.02zm-.218 14.52c-.46-.242-.852-1.079-.898-1.272-.28-1.18-.358-2.005-.226-2.352.08-.214.148-.623.15-.908.001-.286.148-.986.326-1.555.178-.57.324-1.186.324-1.37 0-.184.14-.637.31-1.006.548-1.184 1.282-3.092 1.578-4.1.158-.538.365-1.104.46-1.258.277-.45-.03-.545-.513-.158-1.077.862-1.207.912-2.354.912-1.513 0-2.36-.449-2.852-1.512-.503-1.087-.595-2.045-.327-3.414.186-.946.372-1.366.924-2.081.38-.493.755-.897.833-.897.077 0 .328-.283.557-.628.228-.346.613-.731.854-.857a3.67 3.67 0 00.73-.515c.16-.157.423-.286.586-.286.162 0 .437-.107.612-.24 1.126-.851 5.133.897 5.133 2.24 0 .178-.15.942-.332 1.698-.35 1.445-.327 1.69.158 1.69.164 0 .392.115.508.255.336.404 1.201.696 2.396.807 1.408.13 4.52-.278 5.534-.727.417-.184.866-.335.998-.335.133 0 .73-.25 1.326-.557 1.092-.561 3.895-1.728 4.15-1.728.075 0 .445-.14.822-.312.64-.292 2.097-.58 5.011-.99a24.757 24.757 0 001.998-.363c.608-.151 1.01-.146 1.878.022.607.118 1.214.307 1.35.42.134.112.402.252.594.31.43.132 1.624 1.437 2.196 2.402.839 1.417 1.315 2.799 1.26 3.66-.046.73-.092.814-.468.858-.583.068-.992-.45-1.097-1.389-.077-.691-.45-1.534-1.436-3.244-.352-.61-1.782-1.617-2.633-1.853-.86-.239-1.784-.214-2.729.072-.44.134-1.02.243-1.287.243-.41 0-3.006.575-5.19 1.15-.322.084-.78.322-1.02.527-.24.206-.785.47-1.211.588-1.422.391-1.664.49-2.019.82-.193.18-.58.377-.86.436-.28.06-.602.184-.716.276-.114.092-.481.225-.816.297-.335.071-1.234.28-1.997.463-.977.234-1.951.334-3.286.337-1.48.003-1.943.058-2.1.248-.196.235-.41 1.567-.578 3.593-.353 4.274-.81 6.754-1.485 8.082-.205.404-.414.93-.463 1.171-.09.44-1.16 1.929-2.128 2.353-.774.34-1.787.369-2.535-.024z" stroke-width=".163"/></svg>