<?xml version="1.0" encoding="UTF-8" standalone="no"?>
<svg
   xmlns:dc="http://purl.org/dc/elements/1.1/"
   xmlns:cc="http://creativecommons.org/ns#"
   xmlns:rdf="http://www.w3.org/1999/02/22-rdf-syntax-ns#"
   xmlns:svg="http://www.w3.org/2000/svg"
   xmlns="http://www.w3.org/2000/svg"
   id="svg2663"
   viewBox="0 0 52.504908 30.672113"
   version="1.1"
   height="30.672113"
   width="52.50491">
  <defs
     id="defs2667" />
  <metadata
     id="metadata2">
    <rdf:RDF>
      <cc:Work
         rdf:about="">
        <dc:format>image/svg+xml</dc:format>
        <dc:type
           rdf:resource="http://purl.org/dc/dcmitype/StillImage" />
        <dc:title />
      </cc:Work>
    </rdf:RDF>
  </metadata>
  <g
     transform="translate(-218.96049,-746.30974)"
     id="g2661">
    <g
       style="stroke-width:0.16327"
       id="g2557">
      <path
         d="m 235.86,752.71 c -0.35901,-0.359 -0.0383,-1.0151 1.283,-2.6251 0.2392,-0.29143 0.47308,-0.81458 0.51975,-1.1625 0.0749,-0.5585 0.0136,-0.71158 -0.52316,-1.3057 -0.35791,-0.39616 -0.56993,-0.77223 -0.51545,-0.91422 0.14577,-0.37987 0.84923,-0.48297 1.1944,-0.17505 0.16493,0.1471 0.48354,0.40411 0.70803,0.57115 0.37138,0.27631 0.40816,0.41281 0.40816,1.5143 0,1.1259 -0.04,1.2652 -0.57143,1.9918 -1.3556,1.8533 -2.116,2.4928 -2.5034,2.1054 z m -16.756,1.7522 c -0.27564,-0.51502 -0.21023,-0.70881 0.69656,-2.064 0.47606,-0.71149 0.96152,-1.53 1.0788,-1.8188 0.11727,-0.28886 0.31553,-0.6101 0.44055,-0.71387 0.35045,-0.29084 0.26985,-1.3262 -0.16724,-2.1483 -0.35658,-0.67063 -0.3714,-0.77516 -0.154,-1.0855 0.32164,-0.45922 0.59375,-0.43291 1.1941,0.11541 0.85847,0.78409 1.0852,2.4183 0.50949,3.6725 -0.17291,0.3767 -0.7974,1.4105 -1.3878,2.2973 -0.59035,0.88683 -1.0734,1.6681 -1.0734,1.7361 0,0.11017 -0.54535,0.31689 -0.85139,0.32274 -0.0642,0.002 -0.19277,-0.13987 -0.28572,-0.31357 z m 50.387,6.0022 c -0.24802,-0.13879 -0.27428,-0.29853 -0.17891,-1.0877 0.0615,-0.50877 0.16722,-0.99852 0.23493,-1.0883 0.2301,-0.30514 0.64321,-2.2826 0.63098,-3.0204 -0.0144,-0.86741 -0.42917,-2.7699 -0.66742,-3.0612 -0.0918,-0.11225 -0.47019,-0.20175 -0.84082,-0.19889 -0.54813,0.004 -0.77907,0.11084 -1.2375,0.57142 -0.30996,0.31143 -0.61455,0.56624 -0.67685,0.56624 -0.0623,0 -0.34901,0.36735 -0.63712,0.81633 -0.28812,0.44898 -0.58309,0.81632 -0.65552,0.81632 -0.23033,0 -0.78737,1.3577 -0.90431,2.2041 -0.062,0.44898 -0.20359,0.92653 -0.31457,1.0612 -0.11101,0.13469 -0.28512,0.493 -0.38693,0.79625 -0.18978,0.5652 -0.92761,1.3256 -1.2866,1.326 -0.41038,0 -0.45263,-1.6742 -0.0556,-2.2039 0.22131,-0.29527 0.54598,-2.4662 0.56472,-3.776 0.0164,-1.1492 -0.0302,-1.36 -0.44039,-1.9914 -0.36424,-0.56064 -0.419,-0.75409 -0.26573,-0.93878 0.4711,-0.56764 1.6977,0.0847 2.0333,1.0813 0.31519,0.93615 0.59627,0.95595 1.4166,0.0998 0.40088,-0.41837 0.84733,-0.76069 0.99213,-0.76069 0.14479,0 0.3032,-0.0647 0.35204,-0.14365 0.11872,-0.1921 1.6091,-0.67284 2.0836,-0.67207 0.53729,0.002 1.3818,0.55868 1.6599,1.0963 0.70511,1.3635 0.73747,3.4869 0.0985,6.4652 -0.33262,1.5504 -0.43076,1.793 -0.80331,1.9857 -0.29746,0.15383 -0.51133,0.17081 -0.71509,0.0568 z m -42.606,14.436 c 1.0713,-1.159 1.3009,-1.7471 1.5774,-4.0408 0.19953,-1.6553 0.22016,-2.4638 0.0937,-3.6735 -0.0891,-0.85306 -0.20461,-2.1755 -0.25656,-2.9388 -0.052,-0.76326 -0.1645,-1.4612 -0.2501,-1.551 -0.17475,-0.18329 -0.47499,0.23063 -0.65135,0.89796 -0.0593,0.22449 -0.2513,0.81225 -0.4266,1.3061 -0.17531,0.49387 -0.39355,1.2653 -0.48499,1.7143 -0.0914,0.44898 -0.29039,1.2571 -0.44209,1.7959 -1.0043,3.5665 -1.3318,6.3262 -0.81251,6.8455 0.4394,0.43938 1.037,0.3108 1.6531,-0.35568 z m -1.6151,-15.102 c 0.91355,-0.4062 2.7317,-2.0527 2.8913,-2.6184 0.056,-0.19868 0.19892,-0.58164 0.3175,-0.85102 0.96483,-2.1919 0.96473,-2.2773 -0.004,-3.1586 -0.53081,-0.48308 -0.88789,-0.67817 -1.2412,-0.67817 -0.67423,0 -1.9631,0.75182 -2.412,1.407 -0.20227,0.2952 -0.58109,0.75994 -0.84183,1.0328 -0.26073,0.27283 -0.47405,0.6009 -0.47405,0.72903 0,0.12815 -0.18368,0.59866 -0.40817,1.0456 -0.45737,0.91059 -0.49014,1.2067 -0.22209,2.0062 0.19873,0.59275 1.0004,1.4529 1.3541,1.4529 0.11763,0 0.58567,-0.1653 1.0401,-0.36735 z m 2.3949,-8.6123 c 0.75227,0.0864 2.0453,0.82571 2.0453,0.98852 0,0.0737 0.36735,0.33389 0.81633,0.57825 0.90272,0.49133 1.0375,0.91037 0.58142,1.8078 -0.12921,0.2542 -0.3563,0.71935 -0.50467,1.0336 -0.14836,0.31429 -0.4802,0.93878 -0.73742,1.3878 -0.55858,0.97498 -0.89377,1.6677 -1.0419,2.1534 -0.1683,0.55165 0.70315,0.72258 2.7418,0.53776 2.0195,-0.18309 2.4876,-0.31882 4.7567,-1.3795 1.3142,-0.61432 3.5122,-1.501 4.5972,-1.8545 0.55296,-0.18016 1.1774,-0.42163 1.3878,-0.5366 0.62143,-0.33974 2.4095,-0.94049 3.8109,-1.2804 0.71837,-0.17423 2.0041,-0.54672 2.8572,-0.82777 1.3545,-0.44624 1.8519,-0.52261 3.9255,-0.60261 2.5883,-0.0998 2.9803,-0.009 4.401,1.0223 1.06,0.7693 1.2433,0.96917 1.7899,1.9515 0.41791,0.7511 0.56325,1.2336 0.62309,2.0685 0.10863,1.5159 -0.0178,1.9315 -0.5875,1.9315 -0.70624,0 -0.84586,-0.2689 -0.84586,-1.629 0,-1.3115 -0.0831,-1.5162 -1.0476,-2.5817 -1.0772,-1.19 -1.3272,-1.2594 -4.5074,-1.2519 -2.6812,0.006 -2.9276,0.0332 -3.9184,0.42648 -1.9134,0.75954 -2.9672,1.0917 -3.9144,1.2339 -0.31428,0.0472 -0.67423,0.16893 -0.79988,0.27053 -0.30345,0.24537 -2.0131,0.89325 -3.0541,1.1573 -0.45847,0.11632 -1.0158,0.31241 -1.2386,0.43576 -1.2633,0.69966 -2.7288,1.2855 -3.2157,1.2855 -0.11187,0 -0.43726,0.17159 -0.7231,0.38132 -0.60613,0.44472 -1.5941,0.80545 -2.9687,1.084 -0.53877,0.10916 -1.1484,0.26495 -1.3546,0.34619 -0.20626,0.0812 -0.57793,0.14769 -0.82593,0.14769 -0.248,0 -0.57927,0.0939 -0.73613,0.20856 -0.34624,0.25317 -0.3673,0.76093 -0.19793,4.771 0.16263,3.8509 -0.017,5.6893 -0.69388,7.102 -0.64948,1.3555 -0.74754,1.4938 -1.8084,2.5501 -0.84492,0.84127 -0.91896,0.87847 -1.7488,0.87847 -0.66603,0 -0.93933,-0.0782 -1.1814,-0.33798 v 2e-5 c -0.17319,-0.18589 -0.4037,-0.65525 -0.51228,-1.043 -0.26852,-0.95909 0.0145,-3.9944 0.55111,-5.9088 0.22272,-0.79469 0.45569,-1.8469 0.51769,-2.3382 0.062,-0.4913 0.24523,-1.2628 0.40714,-1.7143 0.16191,-0.45153 0.51962,-1.4455 0.79492,-2.2087 0.62111,-1.722 0.6616,-2.4521 0.13541,-2.4418 -0.20204,0.004 -0.66122,0.11304 -1.0204,0.24243 -0.81474,0.29352 -1.2941,0.29629 -2.1104,0.0121 -0.76539,-0.2664 -1.0757,-0.66457 -1.558,-1.9989 l -0.3623,-1.0024 0.35967,-1.0384 c 0.4788,-1.3822 0.79062,-2.0232 1.4261,-2.9313 0.29183,-0.41706 0.53061,-0.83641 0.53061,-0.93187 0,-0.0955 0.14242,-0.21879 0.31647,-0.27404 0.17406,-0.0552 0.5329,-0.34692 0.79741,-0.64818 0.2645,-0.30125 0.49875,-0.56477 0.82638,-0.73263 0.67466,-0.34566 1.4654,-0.58634 2.2186,-0.49988 z"
         id="acquaintance" />
    </g>
  </g>
</svg>
