<?xml version="1.0" encoding="UTF-8" standalone="no"?>
<svg
   xmlns:dc="http://purl.org/dc/elements/1.1/"
   xmlns:cc="http://creativecommons.org/ns#"
   xmlns:rdf="http://www.w3.org/1999/02/22-rdf-syntax-ns#"
   xmlns:svg="http://www.w3.org/2000/svg"
   xmlns="http://www.w3.org/2000/svg"
   id="svg2663"
   viewBox="0 0 31.325231 22.788961"
   version="1.1"
   height="22.788961"
   width="31.325232">
  <defs
     id="defs2667" />
  <metadata
     id="metadata2">
    <rdf:RDF>
      <cc:Work
         rdf:about="">
        <dc:format>image/svg+xml</dc:format>
        <dc:type
           rdf:resource="http://purl.org/dc/dcmitype/StillImage" />
        <dc:title />
      </cc:Work>
    </rdf:RDF>
  </metadata>
  <g
     transform="translate(-234.62521,-768.84474)"
     id="g2661">
    <g
       style="stroke-width:0.16327"
       id="g2557">
      <path
         d="m 234.81,776.62 c -0.32981,-0.32981 -0.22243,-0.7788 0.35667,-1.4914 0.70748,-0.87051 1.4061,-2.6262 1.4061,-3.5337 0,-0.56411 -0.11423,-0.84447 -0.57142,-1.4024 -0.62702,-0.7652 -0.71251,-1.1248 -0.30462,-1.2813 0.53012,-0.20343 1.2849,0.0772 1.6389,0.60944 0.51646,0.77644 0.72833,2.2987 0.45921,3.2994 -0.44315,1.6479 -0.75008,2.3145 -1.2286,2.6683 -0.26579,0.19651 -0.48326,0.45629 -0.48326,0.57731 0,0.46107 -0.95179,0.87556 -1.273,0.55436 z m 29.203,5.082 c 0.44826,-0.45857 0.47848,-0.57178 0.47848,-1.7922 0,-0.71649 -0.0699,-1.4303 -0.15526,-1.5862 -0.0854,-0.15592 -0.20146,-0.7105 -0.25791,-1.2324 -0.17171,-1.5873 -0.33176,-1.5087 -2.9338,1.4415 -1.295,1.4684 -1.3765,1.5812 -1.3826,1.9156 -0.004,0.20556 0.12353,0.28571 0.45362,0.28571 0.29397,0 0.64682,0.18384 0.9822,0.51174 0.707,0.69122 1.4993,1.1026 1.9581,1.0166 0.20828,-0.039 0.59399,-0.29117 0.85714,-0.56037 z m -24.329,1.8519 c -0.90139,-0.31824 -2.1786,-1.5659 -2.4525,-2.3958 -0.21566,-0.65343 -0.10142,-2.6311 0.16137,-2.7936 0.0776,-0.0479 0.19084,-0.43441 0.25174,-0.85885 0.0927,-0.64622 0.24712,-0.90446 0.94948,-1.588 2.1566,-2.0989 3.7821,-2.6615 5.2328,-1.8113 0.84991,0.49807 1.2931,1.1784 1.0504,1.6123 -0.22271,0.39796 -0.87163,0.34951 -1.1613,-0.0867 -0.21401,-0.32224 -0.37324,-0.3647 -1.2968,-0.34586 -1.1496,0.0235 -1.6672,0.23853 -2.6065,1.0829 -0.50873,0.45734 -0.66054,0.76944 -1.025,2.1072 l -0.4278,1.5703 0.41868,0.79275 c 0.29637,0.56119 0.64347,0.92351 1.1882,1.2404 0.96051,0.55873 1.7491,0.57473 2.7695,0.0562 0.42658,-0.21677 1.0531,-0.47938 1.3922,-0.58358 0.7151,-0.21969 1.8793,-1.3325 2.791,-2.6679 0.34767,-0.50922 0.68689,-0.92584 0.75381,-0.92584 0.17337,0 0.87977,-1.1202 1.1325,-1.7959 0.94028,-2.514 1.3684,-2.776 2.6673,-1.6326 0.64979,0.57198 0.84116,0.65306 1.5413,0.65306 0.4397,0 0.8876,0.0882 0.99536,0.19592 0.26615,0.26615 0.23731,1.1426 -0.0795,2.4163 -0.14517,0.58368 -0.29401,1.8447 -0.33072,2.8022 -0.0632,1.6486 -0.0487,1.7467 0.27227,1.8486 0.49458,0.15698 2.4181,-0.58388 2.7829,-1.0719 0.0449,-0.06 0.31938,-0.25293 0.60994,-0.4286 0.29058,-0.17568 0.74132,-0.60738 1.0017,-0.95933 0.26034,-0.35195 0.75729,-0.95254 1.1043,-1.3346 0.34703,-0.38212 1.0351,-1.1832 1.529,-1.7802 0.49387,-0.597 1.3833,-1.5884 1.9764,-2.2032 1.517,-1.5723 1.9464,-1.5209 2.2551,0.26997 0.10836,0.62857 0.26916,1.3633 0.35734,1.6326 0.0882,0.26939 0.24367,1.2998 0.34555,2.2898 0.18474,1.7952 0.18405,1.8025 -0.25693,2.7347 -0.30682,0.64857 -0.69804,1.1369 -1.2781,1.5954 -0.92377,0.7302 -1.1835,0.74426 -2.5334,0.13717 -0.37672,-0.16943 -0.74962,-0.30805 -0.82868,-0.30805 -0.28587,0 -0.834,-0.74961 -1.0446,-1.4286 -0.11836,-0.38163 -0.29929,-0.69387 -0.40205,-0.69387 -0.15964,0 -0.81613,0.43253 -2.6235,1.7285 -0.42746,0.30652 -2.5573,1.047 -3.0114,1.047 -0.47039,0 -1.2062,-0.42301 -1.5945,-0.91672 -0.3854,-0.48996 -0.47148,-1.9914 -0.17213,-3.0027 0.2078,-0.70212 0.65864,-2.981 0.60111,-3.0385 -0.0231,-0.0231 -0.39549,-0.19349 -0.82762,-0.37873 -1.1699,-0.50145 -1.4924,-0.45184 -1.7902,0.27546 -0.24328,0.59422 -2.7583,3.7411 -3.9796,4.9795 -1.014,1.0281 -1.7796,1.455 -3.3326,1.8584 -1.7116,0.44455 -2.0777,0.45698 -3.0761,0.10447 z m 14.713,7.8377 c -0.17655,-0.33683 -0.015,-0.85988 0.36242,-1.1731 0.14475,-0.12012 0.26316,-0.28761 0.26316,-0.37221 0,-0.0846 0.21676,-0.3362 0.48167,-0.55911 1.0245,-0.86204 1.4221,-2.5717 0.90999,-3.9126 -0.19861,-0.52005 -0.23425,-0.80206 -0.11628,-0.92003 0.22851,-0.22851 0.85258,-0.0551 1.2993,0.36114 0.48666,0.45339 0.50503,1.9298 0.0376,3.0204 -0.17959,0.41897 -0.32653,0.86857 -0.32653,0.9991 0,0.13053 -0.37301,0.70283 -0.82892,1.2717 -0.70718,0.88248 -1.04,1.1614 -1.816,1.522 -0.0628,0.0292 -0.18274,-0.0775 -0.26643,-0.23721 z"
         id="across" />
    </g>
  </g>
</svg>
