<svg xmlns="http://www.w3.org/2000/svg" height="22.789" width="31.325"><path d="M.185 7.775c-.33-.33-.223-.779.356-1.491.708-.87 1.407-2.626 1.407-3.534 0-.564-.115-.844-.572-1.402C.75.583.664.223 1.072.066c.53-.203 1.284.078 1.638.61.517.776.729 2.299.46 3.3-.444 1.647-.75 2.314-1.229 2.668-.266.196-.483.456-.483.577 0 .461-.952.875-1.273.554zm29.203 5.082c.448-.458.478-.572.478-1.792 0-.716-.07-1.43-.155-1.586-.085-.156-.201-.71-.258-1.233-.172-1.587-.332-1.508-2.934 1.442-1.295 1.468-1.376 1.581-1.382 1.916-.004.205.123.285.453.285.294 0 .647.184.983.512.707.691 1.499 1.103 1.958 1.017.208-.04.594-.292.857-.56zM5.058 14.71c-.9-.318-2.178-1.566-2.452-2.396-.215-.653-.101-2.63.162-2.793.077-.048.19-.435.251-.86.093-.645.248-.904.95-1.587 2.156-2.1 3.781-2.664 5.233-1.812.85.498 1.293 1.178 1.05 1.612-.223.398-.872.35-1.161-.087-.214-.322-.373-.364-1.297-.346-1.15.024-1.667.239-2.607 1.083-.508.458-.66.77-1.025 2.107l-.427 1.57.418.794c.297.56.644.923 1.189 1.24.96.559 1.749.575 2.77.056.426-.217 1.052-.48 1.391-.583.715-.22 1.88-1.333 2.791-2.668.348-.51.687-.926.754-.926.173 0 .88-1.12 1.133-1.796.94-2.514 1.368-2.776 2.667-1.633.65.572.841.653 1.541.653.44 0 .888.089.996.196.266.266.237 1.143-.08 2.417-.145.583-.294 1.844-.33 2.802-.064 1.648-.05 1.746.272 1.848.494.157 2.418-.584 2.782-1.072.045-.06.32-.252.61-.428.291-.176.742-.608 1.002-.96.26-.351.757-.952 1.104-1.334a63.771 63.771 0 001.53-1.78 47.107 47.107 0 011.976-2.203c1.517-1.573 1.946-1.521 2.255.27.108.628.27 1.363.357 1.632.088.27.244 1.3.346 2.29.185 1.795.184 1.802-.257 2.735a4.257 4.257 0 01-1.278 1.595c-.924.73-1.184.744-2.534.137-.376-.17-.75-.308-.828-.308-.286 0-.834-.75-1.045-1.428-.118-.382-.3-.694-.402-.694-.16 0-.816.432-2.623 1.728-.428.307-2.558 1.047-3.012 1.047-.47 0-1.206-.423-1.594-.917-.386-.49-.472-1.991-.172-3.002.207-.702.658-2.981.6-3.039-.022-.023-.395-.193-.827-.378-1.17-.502-1.492-.452-1.79.275-.243.594-2.758 3.741-3.98 4.98-1.014 1.028-1.78 1.454-3.332 1.858-1.712.444-2.078.457-3.076.104zm14.714 7.838c-.177-.337-.015-.86.362-1.173.145-.12.263-.288.263-.372 0-.085.217-.337.482-.56 1.025-.862 1.422-2.571.91-3.912-.199-.52-.234-.802-.116-.92.228-.229.852-.055 1.299.361.487.453.505 1.93.038 3.02-.18.42-.327.869-.327 1 0 .13-.373.702-.829 1.271-.707.883-1.04 1.162-1.816 1.522-.063.03-.183-.077-.266-.237z"/></svg>