<svg xmlns="http://www.w3.org/2000/svg" height="15.584" width="10.833"><path d="M.209 7.486c-.38-.22-.239-.679.395-1.284.373-.356.503-.655.58-1.334.067-.577.237-1.037.498-1.352.456-.548.414-1.25-.131-2.185-.173-.297-.315-.685-.315-.862 0-.7 1.21-.586 1.486.139.092.243.281.68.42.972.216.456.224.724.054 1.921-.109.766-.264 1.433-.344 1.482-.08.05-.146.223-.146.384 0 .29-1.818 2.304-2.072 2.295C.561 7.659.37 7.58.209 7.486zm4.615 8.02c-.482-.138-1.3-.916-1.76-1.674-.177-.293-.416-1.065-.53-1.716-.292-1.668-.02-2.76.939-3.783L4.46 7.28c.489-.523 2.334-1.258 3.409-1.358.861-.08 1.08-.044 1.498.254.27.192.56.349.646.349.086 0 .327.322.536.716.35.659.36.736.116.98-.374.374-.452.348-1.412-.472-.728-.621-.965-.733-1.541-.727-.375.004-.91.133-1.19.286-1.38.751-1.64.912-1.976 1.22-.658.6-1.122 2.906-.734 3.642.09.173.29.618.443.99.159.385.45.752.678.856.514.235 1.934.233 2.957-.003.69-.16.877-.295 1.341-.976.576-.843 1.09-1.142 1.335-.774.298.447-.018 1.194-.833 1.966-1.057 1.002-1.226 1.08-2.556 1.194-.619.053-1.31.12-1.534.15-.224.03-.593 0-.82-.065z" stroke-width=".163"/></svg>