<?xml version="1.0" encoding="UTF-8" standalone="no"?>
<svg
   xmlns:dc="http://purl.org/dc/elements/1.1/"
   xmlns:cc="http://creativecommons.org/ns#"
   xmlns:rdf="http://www.w3.org/1999/02/22-rdf-syntax-ns#"
   xmlns:svg="http://www.w3.org/2000/svg"
   xmlns="http://www.w3.org/2000/svg"
   id="svg2663"
   viewBox="0 0 10.83295 15.583526"
   version="1.1"
   height="15.583526"
   width="10.832951">
  <defs
     id="defs2667" />
  <metadata
     id="metadata2">
    <rdf:RDF>
      <cc:Work
         rdf:about="">
        <dc:format>image/svg+xml</dc:format>
        <dc:type
           rdf:resource="http://purl.org/dc/dcmitype/StillImage" />
        <dc:title />
      </cc:Work>
    </rdf:RDF>
  </metadata>
  <g
     transform="translate(-220.80129,-794.13368)"
     id="g2661">
    <g
       style="stroke-width:0.16327"
       id="g2557">
      <path
         d="m 221.01,801.62 c -0.37925,-0.22068 -0.23823,-0.67892 0.39523,-1.2843 0.37266,-0.35613 0.5028,-0.65494 0.58097,-1.3339 0.0665,-0.57729 0.23561,-1.0372 0.49716,-1.3518 0.45575,-0.54827 0.4136,-1.2503 -0.13124,-2.1855 -0.17301,-0.29697 -0.31456,-0.68498 -0.31456,-0.86226 0,-0.69897 1.2102,-0.58573 1.4857,0.13901 0.0924,0.24308 0.28125,0.68057 0.41964,0.97221 0.21652,0.45629 0.22408,0.72431 0.0541,1.9217 -0.10863,0.76529 -0.26334,1.4321 -0.34379,1.4818 -0.0804,0.0497 -0.14628,0.22237 -0.14628,0.38365 0,0.29095 -1.8176,2.3043 -2.0716,2.2948 -0.0729,-0.003 -0.26426,-0.0817 -0.42534,-0.17538 z m 4.615,8.0204 c -0.48208,-0.13891 -1.2989,-0.91656 -1.7592,-1.6748 -0.17781,-0.29292 -0.41652,-1.0652 -0.53045,-1.7161 -0.29185,-1.6675 -0.0207,-2.7598 0.93883,-3.7826 0.38607,-0.41152 0.83058,-0.88574 0.98779,-1.0538 0.48917,-0.52304 2.334,-1.2584 3.4089,-1.3587 0.86177,-0.0805 1.0808,-0.0433 1.4989,0.25445 0.26932,0.19177 0.55997,0.34869 0.64588,0.34869 0.0859,0 0.32708,0.32212 0.53593,0.71582 0.34963,0.65905 0.35883,0.73675 0.11598,0.97959 -0.3744,0.37442 -0.45231,0.34844 -1.4122,-0.47092 -0.72831,-0.62167 -0.96542,-0.73349 -1.5413,-0.72686 -0.37429,0.004 -0.91006,0.13288 -1.1906,0.28571 -1.3789,0.75124 -1.639,0.91176 -1.9752,1.2191 -0.65752,0.60101 -1.1221,2.9068 -0.73406,3.643 0.091,0.17254 0.29047,0.61751 0.44337,0.98882 0.15872,0.38549 0.44938,0.75319 0.6775,0.85714 0.51472,0.23452 1.9342,0.23303 2.9571,-0.003 0.69069,-0.15943 0.87687,-0.29486 1.3416,-0.9759 0.57567,-0.84361 1.0903,-1.1424 1.3347,-0.77481 0.29781,0.44792 -0.0183,1.1942 -0.83301,1.9663 -1.0572,1.002 -1.2263,1.081 -2.5558,1.1945 -0.61922,0.0529 -1.3095,0.12024 -1.534,0.14971 -0.22449,0.0295 -0.59381,8e-5 -0.82071,-0.0653 z"
         id="act" />
    </g>
  </g>
</svg>
