<?xml version="1.0" encoding="UTF-8" standalone="no"?>
<svg
   xmlns:dc="http://purl.org/dc/elements/1.1/"
   xmlns:cc="http://creativecommons.org/ns#"
   xmlns:rdf="http://www.w3.org/1999/02/22-rdf-syntax-ns#"
   xmlns:svg="http://www.w3.org/2000/svg"
   xmlns="http://www.w3.org/2000/svg"
   id="svg2663"
   viewBox="0 0 61.743708 20.893904"
   version="1.1"
   height="20.893904"
   width="61.74371">
  <defs
     id="defs2667" />
  <metadata
     id="metadata2">
    <rdf:RDF>
      <cc:Work
         rdf:about="">
        <dc:format>image/svg+xml</dc:format>
        <dc:type
           rdf:resource="http://purl.org/dc/dcmitype/StillImage" />
        <dc:title />
      </cc:Work>
    </rdf:RDF>
  </metadata>
  <g
     transform="translate(-426.98521,-124.55113)"
     id="g2661">
    <g
       style="stroke-width:0.16327"
       id="g2659">
      <path
         d="m 427.01,136.09 c -0.10145,-0.40419 0.11107,-0.93496 0.58983,-1.4731 0.38942,-0.43776 1.1381,-2.2564 1.1381,-2.7646 0,-0.22387 -0.13662,-0.75874 -0.3036,-1.1886 -0.45352,-1.1675 -0.17488,-1.5108 0.73978,-0.91145 0.56947,0.37313 0.86995,1.1518 0.86995,2.2546 0,0.76688 -0.11839,1.135 -0.7498,2.3318 -0.88098,1.6698 -0.9785,1.7858 -1.6659,1.983 -0.47063,0.13497 -0.53216,0.11192 -0.61838,-0.2316 z m 43.092,2.5809 c 0.80638,-1.003 1.019,-1.8503 0.46431,-1.8503 -0.3468,0 -0.68572,0.30195 -0.68572,0.61091 0,0.12049 -0.14694,0.37679 -0.32653,0.56956 -0.32645,0.3504 -0.42277,0.79131 -0.21768,0.9964 0.2016,0.20161 0.41375,0.11112 0.76562,-0.32654 z m -37.552,6.6508 c -1.199,-0.0672 -1.7407,-0.16666 -1.9592,-0.35963 -0.16609,-0.14668 -0.59881,-0.41581 -0.96159,-0.59807 -0.57386,-0.28831 -0.69905,-0.45525 -0.96313,-1.2843 -0.6688,-2.0997 -0.19974,-4.1669 1.2705,-5.5991 1.1112,-1.0824 1.9846,-1.298 3.2863,-0.81093 0.84769,0.31716 1.5557,0.94062 1.5557,1.3699 0,0.10741 -0.16855,0.2855 -0.37458,0.39576 -0.32134,0.17198 -0.47796,0.14137 -1.102,-0.21534 -1.0089,-0.57668 -1.6033,-0.54713 -2.2301,0.11087 -0.88377,0.92771 -1.1918,1.701 -1.1861,2.9772 0.006,1.2207 0.22784,1.6535 1.165,2.2675 0.62158,0.40729 3.6183,0.55094 4.4241,0.21209 1.0615,-0.4464 2.3058,-1.6689 3.0734,-3.0197 0.39175,-0.6894 0.77069,-1.2785 0.84209,-1.309 0.20968,-0.0898 0.61275,-0.96073 0.61275,-1.3241 0,-0.18405 0.0572,-0.33464 0.1271,-0.33464 0.19522,0 0.69315,-2.1051 0.83814,-3.5433 0.0713,-0.70765 0.20446,-1.4305 0.29584,-1.6064 0.0914,-0.17586 0.20367,-0.98097 0.24953,-1.7891 0.0917,-1.6149 0.31928,-2.2954 0.81076,-2.424 0.82232,-0.21504 1.0168,0.39188 0.76336,2.3816 -0.0945,0.74166 -0.12692,1.6958 -0.0721,2.1204 0.077,0.59608 0.0241,0.92002 -0.232,1.4221 -0.18241,0.35758 -0.33167,0.83526 -0.33167,1.0615 0,0.22624 -0.10815,0.68836 -0.24031,1.0269 -0.71536,1.8323 -1.2499,5.6095 -0.91559,6.4694 0.15673,0.40309 0.24142,0.45095 0.62682,0.35422 0.2451,-0.0615 0.55016,-0.19777 0.67795,-0.3028 0.40626,-0.33393 2.1368,-2.5949 2.1368,-2.7917 0,-0.104 0.28962,-0.46353 0.64358,-0.79894 0.35398,-0.33542 0.68534,-0.73628 0.73639,-0.89079 0.0816,-0.24707 1.101,-1.0312 2.1133,-1.6255 0.48398,-0.28415 1.7517,-0.25563 2.1869,0.0492 0.20077,0.14063 0.51781,0.55515 0.70454,0.92116 0.36761,0.72057 0.35584,1.0266 -0.10225,2.6599 -0.15112,0.53878 -0.31208,1.2184 -0.35768,1.5102 l -0.0829,0.53061 h 0.92095 c 0.72947,0 0.94211,-0.0594 1.0227,-0.28572 0.056,-0.15714 0.33471,-0.57959 0.61943,-0.93877 0.72295,-0.91205 1.0032,-1.4907 1.232,-2.5441 0.10892,-0.50132 0.33197,-1.0891 0.49567,-1.3061 0.26654,-0.35336 0.42489,-0.39572 1.5141,-0.40497 1.0843,-0.009 1.319,-0.0713 2.1605,-0.57143 0.51922,-0.30861 1.2866,-0.89171 1.7053,-1.2958 0.75657,-0.73018 1.7937,-2.2673 1.7937,-2.6584 0,-0.1125 0.18367,-0.47485 0.40816,-0.80521 0.22449,-0.33037 0.40844,-0.6964 0.40877,-0.81341 0,-0.11701 0.13502,-0.43315 0.29928,-0.70254 0.16428,-0.26939 0.34989,-0.92578 0.41252,-1.4586 0.0626,-0.53286 0.19408,-1.0655 0.29213,-1.1837 0.28268,-0.34061 0.76023,-0.25088 1.0544,0.19812 0.32588,0.49735 0.23076,1.7414 -0.2493,3.2605 -0.54503,1.7247 -0.81226,3.0594 -0.99006,4.9447 -0.0954,1.0119 -0.27518,2.1501 -0.39948,2.5292 -0.12429,0.37914 -0.27536,1.3213 -0.33569,2.0936 -0.0926,1.1849 -0.0677,1.4463 0.1595,1.6735 0.60805,0.60806 2.7291,0.0645 3.9135,-1.0029 0.63466,-0.57198 0.66248,-0.63971 0.75755,-1.8442 0.0595,-0.75342 0.20549,-1.4029 0.36735,-1.634 0.14776,-0.21095 0.26865,-0.51891 0.26865,-0.68435 0,-0.36865 1.3562,-1.7145 2.1651,-2.1487 0.53377,-0.28647 0.63671,-0.29457 1.0363,-0.0816 0.24404,0.13004 0.57938,0.45684 0.74523,0.72622 0.35445,0.57575 0.28276,1.1144 -0.29323,2.2028 -0.21346,0.40337 -0.38811,0.81832 -0.38811,0.9221 0,0.10379 -0.47652,0.69213 -1.0589,1.3074 -0.95954,1.0137 -1.0592,1.1838 -1.0612,1.8126 l -0.002,0.69388 h 0.82444 c 0.45344,0 1.0228,-0.1047 1.2653,-0.23267 0.55329,-0.29201 2.1594,-1.9546 3.2846,-3.4 0.47182,-0.60612 0.92731,-1.102 1.0122,-1.102 0.0849,0 0.20206,-0.12857 0.26039,-0.28571 0.0583,-0.15715 0.46012,-0.6262 0.89284,-1.0424 0.43273,-0.41615 0.78677,-0.87181 0.78677,-1.0126 0,-0.14079 0.33061,-0.4834 0.7347,-0.76141 0.40408,-0.27802 0.73469,-0.61373 0.73469,-0.74604 0,-0.1323 0.16803,-0.31712 0.37342,-0.41069 0.20537,-0.0936 0.59109,-0.49447 0.85714,-0.89087 0.26604,-0.3964 0.52931,-0.72235 0.58503,-0.72432 0.0557,-0.002 0.38634,-0.30978 0.7347,-0.68401 0.34835,-0.37423 0.97882,-1.0399 1.401,-1.4792 0.42218,-0.4393 0.81285,-0.94131 0.86814,-1.1155 0.0553,-0.1742 0.15604,-0.31672 0.22389,-0.31672 0.0678,0 0.59556,-0.60371 1.1727,-1.3416 1.8212,-2.3284 2.5392,-2.8324 3.09,-2.1687 0.16911,0.20377 0.0698,0.39778 -0.59224,1.1573 -0.43749,0.50186 -0.9595,1.1409 -1.16,1.42 -0.20053,0.27915 -0.54675,0.6951 -0.76938,0.92435 -0.22262,0.22925 -0.75653,0.80833 -1.1864,1.2868 -0.42991,0.47852 -1.1123,1.2188 -1.5164,1.6452 -1.1597,1.2235 -2.4974,2.6857 -2.8969,3.1665 -0.20144,0.24244 -0.44021,0.44079 -0.53061,0.44079 -0.0904,0 -0.16434,0.1025 -0.16434,0.22777 0,0.12526 -0.18618,0.40077 -0.4137,0.61224 -0.22753,0.21147 -0.68612,0.75183 -1.0191,1.2008 -0.33296,0.44898 -0.72767,0.92653 -0.87712,1.0612 -0.14946,0.1347 -0.73099,0.79592 -1.2923,1.4694 -2.4393,2.9267 -4.314,4.4034 -5.8857,4.6364 -0.97138,0.14397 -1.477,-0.0913 -1.9305,-0.89809 -0.43323,-0.7708 -0.67677,-0.79136 -1.9262,-0.16259 -2.2398,1.1272 -3.1593,1.2044 -4.4418,0.37281 -0.78978,-0.5121 -1.0214,-1.0699 -0.80268,-1.9334 0.6105,-2.4105 0.78528,-3.3762 0.78895,-4.3594 l 0.004,-1.1197 -0.43287,0.10865 c -0.23807,0.0598 -0.73399,0.35052 -1.102,0.64615 -0.75336,0.60513 -1.3825,0.95704 -2.2202,1.2418 -0.31428,0.10683 -0.71836,0.25771 -0.89796,0.33529 -0.17959,0.0776 -0.57761,0.20185 -0.88452,0.27614 -0.30689,0.0743 -0.60828,0.24217 -0.66978,0.37307 -0.62782,1.3366 -0.94723,1.9457 -1.2379,2.3604 -0.18876,0.26939 -0.38266,0.60315 -0.43087,0.74169 -0.13673,0.39284 -1.7826,1.5917 -2.5633,1.8672 -1.3442,0.47427 -1.9346,0.21093 -2.2774,-1.0159 -0.16996,-0.60821 -0.14304,-0.87719 0.22067,-2.2041 0.22785,-0.83124 0.41431,-1.6987 0.41438,-1.9277 0,-0.95789 -1.014,-1.1022 -1.9509,-0.27755 -0.33154,0.29183 -0.80521,0.70027 -1.0526,0.90764 -0.24738,0.20736 -0.5554,0.62981 -0.68449,0.93877 -0.12909,0.30896 -0.29167,0.56175 -0.36129,0.56175 -0.0696,0 -0.37559,0.42245 -0.67992,0.93878 -1.0937,1.8555 -2.324,2.8163 -3.6064,2.8163 -0.95984,0 -1.5989,-0.42269 -1.7185,-1.1367 -0.24485,-1.4611 -0.47267,-1.4948 -1.7009,-0.25104 -0.48774,0.49387 -0.94194,0.89796 -1.0093,0.89796 -0.0674,0 -0.57721,0.29387 -1.1329,0.65306 -0.60892,0.39356 -1.1788,0.64133 -1.4341,0.62355 -0.23302,-0.0162 -1.1694,-0.0713 -2.0809,-0.12245 z"
         id="activities" />
    </g>
  </g>
</svg>
