<?xml version="1.0" encoding="UTF-8" standalone="no"?>
<svg
   xmlns:dc="http://purl.org/dc/elements/1.1/"
   xmlns:cc="http://creativecommons.org/ns#"
   xmlns:rdf="http://www.w3.org/1999/02/22-rdf-syntax-ns#"
   xmlns:svg="http://www.w3.org/2000/svg"
   xmlns="http://www.w3.org/2000/svg"
   id="svg2663"
   viewBox="0 0 11.033927 24.395878"
   version="1.1"
   height="24.395878"
   width="11.033927">
  <defs
     id="defs2667" />
  <metadata
     id="metadata2">
    <rdf:RDF>
      <cc:Work
         rdf:about="">
        <dc:format>image/svg+xml</dc:format>
        <dc:type
           rdf:resource="http://purl.org/dc/dcmitype/StillImage" />
        <dc:title />
      </cc:Work>
    </rdf:RDF>
  </metadata>
  <g
     transform="translate(-220.23995,-819.91119)"
     id="g2661">
    <g
       style="stroke-width:0.16327"
       id="g2557">
      <path
         d="m 220.24,827.39 c -0.002,-0.42741 0.16565,-0.69136 0.85714,-1.3571 1.1475,-1.1048 1.533,-1.6409 1.7582,-2.4453 0.24377,-0.87071 -0.0182,-1.9306 -0.56594,-2.2895 -0.49208,-0.32241 -0.62315,-0.6629 -0.40913,-1.0628 0.38025,-0.71053 1.2732,-0.20605 1.8706,1.0568 0.48929,1.0343 0.53097,2.0993 0.10926,2.7917 -0.16407,0.26939 -0.34727,0.68545 -0.4071,0.92457 -0.0599,0.23914 -0.39855,0.70934 -0.75265,1.0449 -0.35413,0.33556 -0.72861,0.81472 -0.8322,1.0648 -0.11213,0.27071 -0.39019,0.52508 -0.6871,0.62859 -0.79883,0.27847 -0.93968,0.22508 -0.94113,-0.35675 z m 4.9448,8.1106 c -0.28924,-0.12658 -0.656,-0.43284 -0.81502,-0.68057 -0.15902,-0.24774 -0.41096,-0.58498 -0.55984,-0.74942 -0.48447,-0.53511 -0.77711,-3.2039 -0.46758,-4.2642 0.50498,-1.7298 1.4308,-2.917 2.8584,-3.6653 1.3125,-0.68795 2.0357,-0.79162 2.9033,-0.41623 0.92209,0.39897 1.2597,0.70444 1.2597,1.1398 0,0.71121 -0.3638,0.76622 -1.3904,0.21022 l -0.9526,-0.51596 -1.0734,0.54531 c -0.59039,0.2999 -1.2108,0.66139 -1.3787,0.80327 -0.49786,0.4207 -1.0606,1.8448 -1.1721,2.9664 -0.0901,0.90615 -0.0494,1.1636 0.30318,1.9175 0.48802,1.0435 0.93733,1.4965 1.4842,1.4965 0.22294,0 0.45076,0.0735 0.50625,0.16327 0.37181,0.6016 2.7804,-0.45344 2.9494,-1.2919 0.1722,-0.85433 0.46916,-1.2367 1.0009,-1.2888 0.38567,-0.0378 0.53576,0.0261 0.60981,0.25943 0.13248,0.41739 -0.30465,1.4158 -1.0272,2.3461 -0.54093,0.69647 -0.69467,0.78815 -1.7162,1.0232 -1.3552,0.31179 -2.6116,0.31233 -3.3222,0.002 z m 2.0184,8.7168 c -0.32486,-0.1818 -0.34222,-0.64422 -0.05,-1.3336 0.5787,-1.3655 0.8743,-2.4366 1.0206,-3.6981 0.14305,-1.2334 0.56436,-2.4413 0.9174,-2.6302 0.8207,-0.43923 0.85362,0.63257 0.12839,4.1813 -0.1503,0.73541 -0.45622,1.7129 -0.81755,2.6122 -0.0721,0.17959 -0.16837,0.44491 -0.21381,0.58958 -0.10318,0.32855 -0.62986,0.47768 -0.98503,0.27891 z"
         id="action" />
    </g>
  </g>
</svg>
