<?xml version="1.0" encoding="UTF-8" standalone="no"?>
<svg
   xmlns:dc="http://purl.org/dc/elements/1.1/"
   xmlns:cc="http://creativecommons.org/ns#"
   xmlns:rdf="http://www.w3.org/1999/02/22-rdf-syntax-ns#"
   xmlns:svg="http://www.w3.org/2000/svg"
   xmlns="http://www.w3.org/2000/svg"
   id="svg2663"
   viewBox="0 0 36.552871 17.505341"
   version="1.1"
   height="17.505341"
   width="36.552872">
  <defs
     id="defs2667" />
  <metadata
     id="metadata2">
    <rdf:RDF>
      <cc:Work
         rdf:about="">
        <dc:format>image/svg+xml</dc:format>
        <dc:type
           rdf:resource="http://purl.org/dc/dcmitype/StillImage" />
        <dc:title />
      </cc:Work>
    </rdf:RDF>
  </metadata>
  <g
     transform="translate(-220.7526,-841.82367)"
     id="g2661">
    <g
       style="stroke-width:0.16327"
       id="g2557">
      <path
         d="m 220.93,850.58 c -0.30477,-0.30477 -0.23994,-0.50854 0.37551,-1.1805 0.31428,-0.34312 0.57143,-0.72704 0.57143,-0.85314 0,-0.12612 0.18367,-0.66568 0.40816,-1.199 0.54738,-1.3005 0.51812,-1.7983 -0.17523,-2.9813 -0.51442,-0.87774 -0.55943,-1.0402 -0.38059,-1.3744 0.26826,-0.50123 0.64482,-0.47865 1.1668,0.07 1.4873,1.5632 1.0979,5.2861 -0.75076,7.1785 -0.54626,0.55919 -0.89775,0.65747 -1.2153,0.33989 z m 4.913,8.6823 c -0.57068,-0.0817 -0.85452,-0.27169 -1.676,-1.1217 -1.4169,-1.4661 -1.5547,-1.7797 -1.5509,-3.528 0.004,-1.9048 0.53536,-3.4478 1.4995,-4.3555 0.65381,-0.61556 2.6415,-1.6038 3.2243,-1.6031 1.2754,0.002 2.836,1.7296 2.1665,2.3991 -0.22397,0.22398 -0.32444,0.18063 -0.97819,-0.42198 -0.60512,-0.55778 -0.84147,-0.67159 -1.3946,-0.67159 -0.36628,0 -0.71139,0.0735 -0.76689,0.16327 -0.0555,0.0898 -0.2101,0.16326 -0.34359,0.16326 -0.41324,0 -1.8605,1.6986 -1.8605,2.1836 0,0.13538 -0.0735,0.29156 -0.16326,0.34705 -0.0898,0.0555 -0.16327,0.71088 -0.16327,1.4564 0,1.3417 0.007,1.3648 0.69388,2.2742 0.83414,1.1045 1.4101,1.3343 3.3061,1.3192 1.8454,-0.0147 2.9054,-0.37977 3.9962,-1.376 0.49179,-0.44916 0.95097,-0.81665 1.0204,-0.81665 0.0694,0 0.12627,-0.10165 0.12627,-0.2259 0,-0.12424 0.28351,-0.48204 0.63004,-0.7951 0.34651,-0.31306 0.67804,-0.76052 0.73673,-0.99437 0.0587,-0.23383 0.28946,-0.69445 0.51282,-1.0236 0.22336,-0.32915 0.40612,-0.71099 0.40612,-0.84852 0,-0.13754 0.10255,-0.36608 0.22787,-0.50784 0.12534,-0.14176 0.34457,-0.60584 0.4872,-1.0313 0.14263,-0.42546 0.32787,-0.90302 0.41163,-1.0612 0.0838,-0.1582 0.27169,-0.69815 0.4176,-1.1999 0.14592,-0.50171 0.36161,-1.0527 0.47931,-1.2245 0.11771,-0.17175 0.26328,-0.85789 0.32351,-1.5248 0.12936,-1.4324 0.51332,-2.8491 0.86846,-3.2042 0.13952,-0.13953 0.40984,-0.23142 0.60068,-0.20418 0.2864,0.0408 0.35532,0.17781 0.3946,0.78419 0.0602,0.92914 -0.74617,4.3206 -1.2879,5.4166 -0.26095,0.52799 -0.99034,3.1645 -1.1438,4.1344 -0.0853,0.53878 -0.23756,1.1248 -0.33847,1.3022 -0.28251,0.49679 -0.35019,2.3862 -0.10189,2.8453 0.6508,1.2035 1.7811,1.257 2.5995,0.12302 0.26944,-0.37329 0.85347,-1.0573 1.2979,-1.52 0.44439,-0.46271 0.91842,-1.1056 1.0534,-1.4286 0.13495,-0.32301 0.34875,-0.58728 0.47512,-0.58728 0.12635,0 0.27622,-0.21169 0.33304,-0.47042 0.10945,-0.49834 0.19811,-0.6016 1.454,-1.6939 0.92018,-0.80028 1.4082,-0.98142 2.2709,-0.84294 0.91114,0.14624 1.1671,0.62785 1.0324,1.9424 -0.059,0.57622 -0.26305,1.3638 -0.45338,1.7501 -0.59769,1.2132 -0.63978,1.3436 -0.66877,2.0707 -0.0226,0.56681 0.0484,0.77217 0.35174,1.0178 0.20903,0.16928 0.51092,0.30776 0.67084,0.30776 0.43961,0 1.5208,-0.96465 2.0552,-1.8336 0.26126,-0.42483 0.52666,-0.77381 0.5898,-0.77551 0.13099,-0.004 0.44957,-0.69386 0.86785,-1.8806 0.15825,-0.44898 0.3424,-0.88979 0.40921,-0.97959 0.0668,-0.0898 0.171,-0.39517 0.23156,-0.6786 0.1358,-0.6356 0.58992,-0.78164 1.6747,-0.53854 0.56549,0.12672 1.1643,0.12142 2.195,-0.0194 1.7981,-0.24572 2.262,-0.14578 2.262,0.48728 0,0.58283 -0.12274,0.61745 -2.6939,0.75994 -2.0344,0.11275 -2.6939,0.32199 -2.6939,0.85474 0,0.15755 -0.0971,0.43136 -0.21583,0.60849 -0.11871,0.17712 -0.31795,0.57918 -0.44276,0.89347 -0.12482,0.31428 -0.39504,0.70534 -0.60049,0.86899 -0.20547,0.16366 -0.37357,0.42688 -0.37357,0.58492 0,0.15804 -0.29838,0.52715 -0.66309,0.82023 -0.3647,0.29309 -0.72627,0.69903 -0.80347,0.9021 -0.1642,0.43187 -1.2973,1.0687 -1.9016,1.0687 -0.6011,0 -1.4667,-0.45076 -1.778,-0.9259 -0.35516,-0.54206 -0.2549,-2.2654 0.2026,-3.4823 0.4167,-1.1084 0.58495,-2.1336 0.39726,-2.4208 -0.22031,-0.33713 -1.4693,0.0497 -1.6485,0.51061 -0.0768,0.19752 -0.37419,0.57953 -0.66084,0.84892 -0.28666,0.26939 -0.67226,0.78367 -0.8569,1.1428 -0.66623,1.296 -3.102,3.9135 -4.0672,4.3707 -0.74198,0.35143 -1.1873,0.35643 -1.7572,0.0197 -0.56518,-0.33386 -1.4448,-1.6175 -1.5821,-2.3088 -0.12492,-0.62897 -0.39972,-0.67099 -1.0676,-0.16327 -0.62533,0.47541 -1.6093,1.4628 -1.6093,1.6149 0,0.065 -0.16388,0.17025 -0.36419,0.23383 -0.34456,0.10935 -1.2552,0.68579 -1.4317,0.90633 -0.0449,0.0561 -0.44898,0.25277 -0.89796,0.43711 -0.8676,0.3562 -2.7592,0.52635 -3.9523,0.35551 z"
         id="active" />
    </g>
  </g>
</svg>
