<svg xmlns="http://www.w3.org/2000/svg" height="17.505" width="36.553"><path d="M.177 8.756c-.304-.304-.24-.508.376-1.18.314-.343.571-.727.571-.853s.184-.666.409-1.2c.547-1.3.518-1.798-.176-2.98-.514-.878-.56-1.04-.38-1.375.268-.501.645-.479 1.166.07 1.488 1.563 1.098 5.286-.75 7.178-.547.56-.898.658-1.216.34zM5.09 17.44c-.57-.082-.854-.272-1.676-1.122-1.416-1.466-1.554-1.78-1.55-3.528.004-1.905.535-3.448 1.499-4.356.654-.615 2.642-1.603 3.224-1.603 1.276.002 2.836 1.73 2.167 2.4-.224.223-.325.18-.978-.423-.606-.557-.842-.671-1.395-.671-.366 0-.711.073-.767.163-.055.09-.21.163-.343.163-.414 0-1.861 1.699-1.861 2.184 0 .135-.073.292-.163.347-.09.056-.163.71-.163 1.456 0 1.342.007 1.365.693 2.275.835 1.104 1.41 1.334 3.306 1.319 1.846-.015 2.906-.38 3.997-1.376.491-.45.95-.817 1.02-.817.07 0 .126-.101.126-.226 0-.124.284-.482.63-.795.347-.313.678-.76.737-.994.059-.234.29-.695.513-1.024.223-.329.406-.71.406-.848s.103-.366.228-.508c.125-.142.345-.606.487-1.031.143-.426.328-.903.412-1.062.084-.158.271-.698.417-1.2.146-.501.362-1.052.48-1.224.117-.172.263-.858.323-1.525.13-1.432.514-2.849.869-3.204.14-.14.41-.231.6-.204.287.04.356.178.395.784.06.93-.746 4.32-1.288 5.417-.26.528-.99 3.164-1.144 4.134-.085.539-.237 1.125-.338 1.302-.283.497-.35 2.386-.102 2.845.65 1.204 1.781 1.257 2.6.123.269-.373.853-1.057 1.297-1.52.445-.462.919-1.105 1.054-1.428.135-.323.348-.587.475-.587.126 0 .276-.212.333-.47.11-.5.198-.602 1.454-1.695.92-.8 1.408-.981 2.27-.843.912.147 1.168.628 1.033 1.943-.059.576-.263 1.364-.453 1.75-.598 1.213-.64 1.343-.669 2.07-.023.567.048.773.352 1.018.209.17.51.308.67.308.44 0 1.521-.965 2.056-1.833.261-.425.526-.774.59-.776.13-.004.45-.694.867-1.88.159-.45.343-.89.41-.98.066-.09.17-.395.231-.679.136-.635.59-.781 1.675-.538.565.126 1.164.121 2.195-.02 1.798-.245 2.262-.146 2.262.488 0 .582-.123.617-2.694.76-2.034.112-2.694.321-2.694.854 0 .158-.097.432-.216.609a6.021 6.021 0 00-.443.893c-.124.314-.395.706-.6.87-.205.163-.374.426-.374.584 0 .158-.298.527-.663.82-.364.293-.726.7-.803.902-.164.432-1.297 1.07-1.902 1.07-.6 0-1.466-.452-1.778-.927-.355-.542-.255-2.265.203-3.482.417-1.108.585-2.134.397-2.42-.22-.338-1.47.049-1.648.51-.077.197-.375.58-.661.849-.287.27-.672.783-.857 1.142-.666 1.296-3.102 3.914-4.067 4.371-.742.352-1.188.357-1.758.02-.565-.334-1.444-1.618-1.582-2.309-.125-.629-.4-.67-1.067-.163-.626.475-1.61 1.463-1.61 1.615 0 .065-.163.17-.364.234-.344.109-1.255.685-1.431.906-.045.056-.45.253-.898.437-.868.356-2.76.526-3.953.355z"/></svg>