<svg xmlns="http://www.w3.org/2000/svg" height="24.396" width="11.034"><path d="M0 7.479c-.002-.428.166-.692.857-1.357C2.005 5.017 2.39 4.48 2.615 3.676c.244-.87-.018-1.93-.566-2.29-.492-.322-.623-.662-.409-1.062.38-.71 1.274-.206 1.87 1.057.49 1.034.532 2.1.11 2.792a4.095 4.095 0 00-.407.924c-.06.24-.398.71-.753 1.045-.354.336-.728.815-.832 1.065a1.21 1.21 0 01-.687.628c-.799.279-.94.226-.941-.356zm4.945 8.11c-.29-.126-.656-.432-.815-.68a6.974 6.974 0 00-.56-.75c-.484-.535-.777-3.203-.468-4.264.505-1.73 1.431-2.917 2.859-3.665 1.312-.688 2.036-.792 2.903-.416.922.399 1.26.704 1.26 1.14 0 .71-.364.766-1.39.21l-.953-.516-1.074.545c-.59.3-1.21.661-1.378.803-.498.421-1.06 1.845-1.172 2.967-.09.906-.05 1.163.303 1.917.488 1.044.937 1.497 1.484 1.497.223 0 .45.073.506.163.372.602 2.78-.453 2.95-1.292.172-.854.469-1.237 1-1.289.386-.038.536.026.61.26.133.417-.304 1.416-1.027 2.346-.54.696-.695.788-1.716 1.023-1.355.312-2.612.312-3.322.002zm2.018 8.717c-.325-.182-.342-.644-.05-1.333.579-1.366.875-2.437 1.02-3.698.144-1.234.565-2.442.918-2.63.821-.44.854.632.129 4.18-.15.736-.457 1.714-.818 2.613-.072.18-.168.445-.214.59-.103.328-.63.477-.985.278z"/></svg>