<svg xmlns="http://www.w3.org/2000/svg" height="20.894" width="61.744"><path d="M.025 11.539c-.102-.404.11-.935.59-1.473.389-.438 1.138-2.257 1.138-2.765 0-.224-.137-.759-.304-1.188-.453-1.168-.175-1.511.74-.912.57.373.87 1.152.87 2.255 0 .767-.119 1.135-.75 2.332-.88 1.67-.978 1.785-1.666 1.983-.47.134-.532.111-.618-.232zm43.092 2.58c.806-1.002 1.019-1.85.464-1.85-.347 0-.686.302-.686.611 0 .12-.147.377-.326.57-.327.35-.423.791-.218.996.202.202.414.111.766-.326zM5.565 20.772c-1.2-.068-1.74-.167-1.96-.36-.166-.147-.598-.416-.961-.598-.574-.288-.7-.455-.963-1.284-.669-2.1-.2-4.167 1.27-5.6 1.112-1.082 1.985-1.298 3.287-.81.847.317 1.555.94 1.555 1.37 0 .107-.168.285-.374.395-.322.172-.478.142-1.102-.215-1.01-.577-1.604-.547-2.23.11-.884.928-1.192 1.702-1.186 2.978.006 1.22.227 1.653 1.165 2.267.621.408 3.618.551 4.424.213 1.061-.447 2.305-1.67 3.073-3.02.392-.69.77-1.279.842-1.31.21-.089.613-.96.613-1.323 0-.184.057-.335.127-.335.195 0 .693-2.105.838-3.543.071-.708.205-1.43.296-1.607.091-.175.204-.98.25-1.789.091-1.615.319-2.295.81-2.424.823-.215 1.017.392.764 2.382-.095.742-.127 1.696-.072 2.12.077.596.024.92-.232 1.422-.183.358-.332.836-.332 1.062 0 .226-.108.688-.24 1.027-.716 1.832-1.25 5.61-.916 6.47.157.402.241.45.627.353.245-.061.55-.197.678-.302.406-.334 2.137-2.595 2.137-2.792 0-.104.29-.464.643-.799.354-.335.685-.736.737-.89.081-.248 1.1-1.032 2.113-1.626.484-.284 1.752-.256 2.187.049.2.14.518.555.704.921.368.72.356 1.027-.102 2.66a17.268 17.268 0 00-.358 1.51l-.083.53h.921c.73 0 .942-.059 1.023-.285.056-.157.335-.58.62-.939.722-.912 1.003-1.49 1.232-2.544.108-.501.331-1.089.495-1.306.267-.353.425-.396 1.514-.405 1.085-.009 1.32-.071 2.16-.571a11.2 11.2 0 001.706-1.296c.757-.73 1.794-2.267 1.794-2.659 0-.112.183-.474.408-.805.224-.33.408-.696.409-.813 0-.117.135-.433.299-.703.164-.27.35-.925.413-1.458.062-.533.194-1.066.292-1.184.282-.34.76-.25 1.054.198.326.497.23 1.742-.25 3.26-.544 1.725-.812 3.06-.99 4.945-.095 1.012-.274 2.15-.399 2.53-.124.379-.275 1.32-.335 2.093-.093 1.185-.068 1.446.159 1.674.608.608 2.73.064 3.914-1.003.634-.572.662-.64.757-1.844.06-.754.206-1.403.367-1.634.148-.211.27-.52.27-.685 0-.368 1.355-1.714 2.164-2.149.534-.286.637-.294 1.036-.081.245.13.58.457.746.726.354.576.282 1.114-.294 2.203-.213.403-.388.818-.388.922 0 .104-.476.692-1.059 1.307-.96 1.014-1.059 1.184-1.06 1.813l-.003.694h.825c.453 0 1.023-.105 1.265-.233.553-.292 2.16-1.954 3.285-3.4.471-.606.927-1.102 1.012-1.102.085 0 .202-.128.26-.286.058-.157.46-.626.893-1.042.433-.416.787-.872.787-1.013 0-.14.33-.483.735-.76.404-.279.734-.615.734-.747s.168-.317.374-.41c.205-.094.59-.495.857-.892.266-.396.53-.722.585-.724.055-.002.386-.31.734-.684.349-.374.98-1.04 1.401-1.48.423-.438.813-.94.869-1.115.055-.174.156-.316.224-.316.067 0 .595-.604 1.172-1.342C60.402.11 61.121-.394 61.671.27c.17.204.07.398-.592 1.158-.438.502-.96 1.14-1.16 1.42-.2.279-.547.695-.77.924-.222.23-.756.808-1.186 1.287-.43.478-1.112 1.219-1.516 1.645-1.16 1.224-2.498 2.686-2.897 3.167-.202.242-.44.44-.53.44-.091 0-.165.103-.165.228s-.186.4-.414.612c-.227.212-.686.752-1.019 1.201-.333.45-.728.927-.877 1.061-.15.135-.731.796-1.292 1.47-2.44 2.926-4.314 4.403-5.886 4.636-.971.144-1.477-.091-1.93-.898-.434-.77-.677-.791-1.927-.163-2.24 1.128-3.159 1.205-4.441.373-.79-.512-1.022-1.07-.803-1.933.61-2.41.785-3.376.789-4.36l.004-1.12-.433.11c-.238.06-.734.35-1.102.646-.753.605-1.383.957-2.22 1.241-.315.107-.719.258-.898.336-.18.077-.578.202-.885.276-.307.074-.608.242-.67.373-.627 1.337-.947 1.946-1.237 2.36-.19.27-.383.603-.431.742-.137.393-1.783 1.592-2.564 1.867-1.344.474-1.934.211-2.277-1.016-.17-.608-.143-.877.22-2.204.229-.831.415-1.699.415-1.928 0-.957-1.014-1.102-1.95-.277-.332.292-.806.7-1.053.908-.248.207-.556.63-.685.938-.129.31-.292.562-.361.562-.07 0-.376.423-.68.939-1.094 1.855-2.324 2.816-3.607 2.816-.96 0-1.598-.423-1.718-1.137-.245-1.46-.473-1.494-1.701-.25-.488.493-.942.897-1.01.897-.067 0-.576.294-1.132.653-.61.394-1.179.642-1.434.624-.233-.016-1.17-.071-2.081-.122z" stroke-width=".163"/></svg>