<?xml version="1.0" encoding="UTF-8" standalone="no"?>
<svg
   xmlns:dc="http://purl.org/dc/elements/1.1/"
   xmlns:cc="http://creativecommons.org/ns#"
   xmlns:rdf="http://www.w3.org/1999/02/22-rdf-syntax-ns#"
   xmlns:svg="http://www.w3.org/2000/svg"
   xmlns="http://www.w3.org/2000/svg"
   id="svg2663"
   viewBox="0 0 30.813954 19.983768"
   version="1.1"
   height="19.983768"
   width="30.813955">
  <defs
     id="defs2667" />
  <metadata
     id="metadata2">
    <rdf:RDF>
      <cc:Work
         rdf:about="">
        <dc:format>image/svg+xml</dc:format>
        <dc:type
           rdf:resource="http://purl.org/dc/dcmitype/StillImage" />
        <dc:title />
      </cc:Work>
    </rdf:RDF>
  </metadata>
  <g
     transform="translate(-426.61194,-178.68122)"
     id="g2661">
    <g
       style="stroke-width:0.16327"
       id="g2557">
      <path
         d="m 426.87,186.03 c -0.14192,-0.14194 -0.25806,-0.37489 -0.25806,-0.51768 0,-0.23574 1.0904,-1.3493 1.3216,-1.3496 0.50716,0 1.7754,-2.0729 1.7789,-2.9068 0.002,-0.20679 -0.18208,-0.6463 -0.40657,-0.97667 -0.49213,-0.72423 -0.52222,-1.2686 -0.0831,-1.5037 0.5831,-0.31207 1.198,0.16733 1.5184,1.1838 0.35722,1.1333 0.35087,1.4778 -0.0492,2.6624 -0.23174,0.6862 -0.56925,1.2231 -1.1489,1.8276 -0.45145,0.47081 -0.86624,0.856 -0.92178,0.856 -0.0555,0 -0.32833,0.17052 -0.60619,0.37893 -0.79507,0.59631 -0.87138,0.61934 -1.1451,0.34561 z m 21.76,2.7143 c -0.31354,-0.25729 -0.35179,-0.3715 -0.20507,-0.61225 0.15282,-0.25071 0.50208,-0.31296 2.2857,-0.40733 1.1579,-0.0613 2.4727,-0.18545 2.9217,-0.27598 0.44898,-0.0905 1.4533,-0.16897 2.2319,-0.17432 l 1.4156,-0.01 0.11112,0.50593 c 0.0639,0.29081 0.0381,0.57892 -0.0605,0.67757 -0.0958,0.0958 -1.1306,0.19925 -2.343,0.23415 -1.1943,0.0344 -2.4286,0.13314 -2.7428,0.21948 -0.31429,0.0863 -1.1694,0.15739 -1.9003,0.15788 -1.0739,0 -1.4028,-0.0598 -1.7143,-0.3154 z m -17.369,4.4735 c -0.54216,-0.19922 -0.75602,-0.41938 -1.2245,-1.2605 -0.85148,-1.5288 -1.1387,-2.3899 -1.1389,-3.4138 -1.6e-4,-1.2029 0.4366,-2.2038 1.4233,-3.2616 1.1359,-1.2179 1.8271,-1.609 2.8433,-1.609 0.78331,0 0.8908,0.05 1.4801,0.68829 1.1091,1.2014 0.59401,2.076 -0.69615,1.1819 -0.92402,-0.64034 -1.6053,-0.49538 -2.6685,0.56782 l -0.81482,0.81483 0.006,1.3532 c 0.007,1.597 0.29931,2.4173 1.1356,3.1899 0.65293,0.6032 1.3266,0.68624 2.4283,0.29933 0.36218,-0.1272 1.0197,-0.32384 1.4612,-0.43698 0.44146,-0.11313 1.037,-0.41143 1.3233,-0.66287 0.47613,-0.41806 0.51463,-0.52384 0.44983,-1.2365 -0.0817,-0.89878 0.28913,-2.4643 0.73688,-3.1107 0.16919,-0.24428 0.35187,-0.5671 0.40593,-0.71739 0.16023,-0.44544 1.9269,-1.6523 2.8781,-1.9662 0.48537,-0.16015 1.1466,-0.28954 1.4694,-0.28755 0.71262,0.004 1.3796,0.47171 1.2961,0.90802 -0.0501,0.26168 -0.25388,0.33021 -1.2461,0.41896 -0.65239,0.0584 -1.276,0.17735 -1.3859,0.26444 -0.10983,0.0871 -0.45683,0.24356 -0.77112,0.34774 -0.93998,0.31155 -1.9592,1.9492 -1.9592,3.1479 0,0.53752 0.39378,0.777 0.7977,0.48511 0.14495,-0.10473 0.4472,-0.27758 0.67169,-0.38408 0.22449,-0.10652 0.51837,-0.28211 0.65306,-0.39021 0.77975,-0.62581 2.5253,-1.373 3.2076,-1.373 0.72512,0 0.73104,0.005 0.68033,0.52387 -0.0455,0.46598 -0.1414,0.55615 -0.86749,0.81567 -0.44898,0.16049 -0.93404,0.29209 -1.0779,0.29246 -0.14387,0 -0.51121,0.18296 -0.81632,0.40578 -0.30513,0.22283 -0.90774,0.63567 -1.3392,0.91744 -0.69216,0.45206 -0.77855,0.57197 -0.73469,1.0197 0.064,0.65283 0.57569,0.91744 1.7804,0.92062 1.2162,0.003 1.8909,-0.24263 2.6774,-0.97548 0.72057,-0.67138 1.0998,-0.85562 1.4694,-0.71381 0.47481,0.18221 0.24751,0.76059 -0.61224,1.5579 -1.4404,1.3357 -2.0573,1.6032 -3.6968,1.6032 h -1.4108 l -0.83985,-0.7347 c -0.93875,-0.82119 -1.4544,-0.92122 -2.1597,-0.41902 -0.24384,0.17362 -0.65925,0.36577 -0.92317,0.42698 -0.2639,0.0612 -0.76743,0.30486 -1.1189,0.54147 -0.53228,0.35826 -0.84609,0.43619 -1.8776,0.4662 -0.77354,0.0225 -1.485,-0.0546 -1.8954,-0.20537 z m 18.574,5.2866 c -0.11162,-0.11162 -0.20294,-0.27621 -0.20294,-0.36576 0,-0.0896 -0.80816,-0.98196 -1.7959,-1.9831 -1.7898,-1.8141 -2.0309,-2.2264 -1.6518,-2.8246 0.22283,-0.35157 1.0144,0.14947 2.6032,1.6478 0.85162,0.80315 2.0073,2.1857 2.0846,2.494 0.17363,0.69179 0.0149,1.1354 -0.42488,1.1867 -0.22513,0.0263 -0.50064,-0.0435 -0.61225,-0.1551 z"
         id="actually" />
    </g>
  </g>
</svg>
