<svg xmlns="http://www.w3.org/2000/svg" height="19.984" width="30.814"><path d="M.258 7.349C.116 7.207 0 6.974 0 6.83c0-.236 1.09-1.35 1.322-1.35.507 0 1.775-2.072 1.779-2.906.002-.207-.183-.647-.407-.977C2.202.874 2.172.329 2.61.094c.583-.312 1.198.168 1.518 1.184.357 1.133.351 1.478-.049 2.663-.232.686-.57 1.223-1.149 1.827-.451.47-.866.856-.922.856-.055 0-.328.17-.606.38-.795.595-.871.618-1.145.345zm21.76 2.714c-.313-.257-.352-.371-.205-.612.153-.25.502-.313 2.286-.407 1.158-.062 2.472-.186 2.921-.276.45-.091 1.454-.17 2.232-.175l1.416-.01.111.506c.064.29.038.58-.06.678-.096.096-1.131.199-2.343.234-1.195.034-2.43.133-2.743.22-.315.086-1.17.157-1.9.157-1.074 0-1.403-.06-1.715-.315zM4.65 14.537c-.542-.2-.756-.42-1.224-1.26-.852-1.53-1.14-2.39-1.14-3.415 0-1.203.437-2.204 1.424-3.261 1.136-1.218 1.827-1.61 2.843-1.61.784 0 .891.05 1.48.689 1.11 1.201.594 2.076-.696 1.182-.924-.64-1.605-.496-2.668.568l-.815.815.006 1.353c.007 1.597.3 2.417 1.135 3.19.653.603 1.327.686 2.429.299a21.4 21.4 0 011.461-.437c.441-.113 1.037-.411 1.323-.663.476-.418.515-.524.45-1.236-.082-.9.29-2.465.737-3.111.17-.244.352-.567.406-.717.16-.446 1.927-1.653 2.878-1.967.485-.16 1.147-.29 1.47-.287.712.004 1.379.471 1.296.908-.05.261-.254.33-1.247.419-.652.058-1.276.177-1.385.264-.11.087-.457.244-.772.348-.94.311-1.959 1.95-1.959 3.148 0 .537.394.777.798.485.145-.105.447-.278.672-.384.224-.107.518-.282.653-.39.78-.626 2.525-1.373 3.207-1.373.725 0 .731.005.68.524-.045.465-.14.556-.867.815-.449.16-.934.292-1.078.293-.144 0-.511.183-.816.405a38.42 38.42 0 01-1.34.918c-.691.452-.778.572-.734 1.02.064.652.576.917 1.78.92 1.217.003 1.891-.242 2.678-.975.72-.672 1.1-.856 1.47-.714.474.182.247.76-.613 1.558-1.44 1.335-2.057 1.603-3.697 1.603h-1.41l-.84-.735c-.94-.82-1.455-.92-2.16-.419-.244.174-.66.366-.923.427-.264.061-.768.305-1.12.542-.532.358-.845.436-1.877.466-.773.022-1.485-.055-1.895-.205zm18.574 5.286c-.112-.111-.203-.276-.203-.366 0-.09-.808-.982-1.796-1.983-1.79-1.814-2.03-2.226-1.652-2.824.223-.352 1.015.15 2.604 1.648.851.803 2.007 2.185 2.084 2.494.174.691.015 1.135-.425 1.186-.225.027-.5-.043-.612-.155z"/></svg>