<svg xmlns="http://www.w3.org/2000/svg" height="26.059" width="29.583"><path d="M.19 11.396c-.107-.108-.193-.273-.19-.368.006-.2 1.197-1.124 1.9-1.475.268-.133.581-.445.697-.694.117-.248.277-.579.356-.735.08-.156.23-.781.334-1.39.182-1.061.171-1.146-.265-2.118-.496-1.106-.465-1.514.115-1.514.662 0 1.043.432 1.423 1.613.361 1.124.362 1.153.086 2.497-.18.88-.445 1.605-.75 2.058-.26.384-.473.766-.473.849 0 .398-.835.992-1.722 1.223-1.155.3-1.26.304-1.51.054zm25.179-.23a.442.442 0 00.258-.385c0-.158.184-.557.408-.888.225-.331.409-.675.409-.765 0-.09.36-.913.8-1.83.69-1.432.815-1.848.896-2.972.052-.718.04-1.6-.028-1.959-.1-.543-.193-.661-.545-.702-.367-.043-.467.054-.754.734-.183.432-.383 1.217-.447 1.745-.063.53-.218 1.3-.343 1.715-.126.414-.23.993-.23 1.286-.003.293-.067.66-.145.816-.079.156-.264.798-.412 1.427a90.679 90.679 0 01-.366 1.51c-.1.375.034.446.499.268zm-9.17 8.073c-.472-.089-.857-.223-.857-.298 0-.075-.337-.3-.748-.499-.412-.199-.787-.462-.834-.586-.048-.123-.315-.224-.597-.224-.465 0-.902.176-3.011 1.209-.932.456-3.717.495-4.615.064-.766-.367-.977-.623-1.791-2.17-.65-1.236-.682-1.361-.593-2.32.063-.685.225-1.215.498-1.633.223-.34.453-.815.512-1.056.193-.797 1.837-1.686 2.786-1.508.708.132 2.025.969 2.025 1.285 0 .345-.768.498-1.383.276-1.175-.425-1.782-.144-2.537 1.171-.755 1.317-.637 2.154.539 3.816.776 1.097 2.203 1.485 3.488.948.322-.134.746-.245.942-.245.195 0 .425-.06.51-.135.086-.075.456-.221.823-.326 1.01-.286 1.258-.643 1.056-1.517-.387-1.679-.141-2.472 1.17-3.784 1.025-1.024 3.558-1.682 4.533-1.178.525.272.625.586.279.873-.117.097-.834.228-1.592.292-1.308.108-1.419.148-2.154.782l-.776.667v2.204h.467c.257 0 .722-.173 1.033-.384.945-.642 2.696-1.445 3.015-1.384.49.093.459.704-.057 1.104-.804.623-1.63 1.113-2.257 1.34-.674.244-.813.45-.673.998.139.543 1.255.938 2.652.938.96 0 1.323-.083 2.146-.495.544-.272 1.119-.694 1.277-.938.157-.245.502-.665.766-.934.58-.593.773-1.052.777-1.848.004-.763.399-3.02.579-3.312.075-.121.235-.7.355-1.285.523-2.542.719-3.574.851-4.494.18-1.248.617-2.89.8-3.01.078-.05.262-.326.409-.613.376-.735.876-1.03 1.746-1.03 1.376 0 1.824.868 1.825 3.535.002 1.59-.05 1.931-.4 2.694-.221.48-.5 1.13-.618 1.444-.12.315-.268.645-.33.735-.063.09-.166.383-.23.65-.065.268-.442.976-.84 1.573-.396.598-.721 1.218-.721 1.38 0 .16-.441.945-.98 1.742-.623.922-.98 1.618-.98 1.91 0 .59.371 1.475.868 2.072.215.258.484.647.598.864.18.342.168.425-.088.613-.652.476-1.298.065-2.2-1.401-.282-.457-.582-.831-.668-.831-.178 0-.982.56-1.58 1.102-.223.202-.502.367-.619.367-.117 0-.277.115-.356.256-.302.54-2.65.836-4.24.535zm7.344 6.033c-3.035-3.163-3.467-3.659-3.467-3.983 0-.844 1.068-.913 1.59-.103.158.246.895 1.061 1.636 1.813 1.474 1.493 1.998 2.338 1.723 2.775-.306.486-.644.371-1.482-.502z"/></svg>