<?xml version="1.0" encoding="UTF-8" standalone="no"?>
<svg
   xmlns:dc="http://purl.org/dc/elements/1.1/"
   xmlns:cc="http://creativecommons.org/ns#"
   xmlns:rdf="http://www.w3.org/1999/02/22-rdf-syntax-ns#"
   xmlns:svg="http://www.w3.org/2000/svg"
   xmlns="http://www.w3.org/2000/svg"
   id="svg2663"
   viewBox="0 0 29.583459 26.059299"
   version="1.1"
   height="26.059299"
   width="29.58346">
  <defs
     id="defs2667" />
  <metadata
     id="metadata2">
    <rdf:RDF>
      <cc:Work
         rdf:about="">
        <dc:format>image/svg+xml</dc:format>
        <dc:type
           rdf:resource="http://purl.org/dc/dcmitype/StillImage" />
        <dc:title />
      </cc:Work>
    </rdf:RDF>
  </metadata>
  <g
     transform="translate(-426.12905,-150.36438)"
     id="g2661">
    <g
       style="stroke-width:0.16327"
       id="g2557">
      <path
         d="m 426.32,161.76 c -0.10776,-0.10776 -0.19365,-0.27306 -0.19088,-0.36735 0.006,-0.19988 1.1966,-1.1241 1.9008,-1.4754 0.26691,-0.13314 0.58033,-0.44523 0.69649,-0.69353 0.11618,-0.24829 0.27621,-0.57915 0.35564,-0.73525 0.0794,-0.15609 0.22975,-0.78148 0.33406,-1.3898 0.18202,-1.0616 0.17141,-1.1466 -0.26478,-2.1186 -0.49628,-1.1058 -0.46529,-1.514 0.11492,-1.514 0.66184,0 1.0433,0.43252 1.423,1.6135 0.36122,1.1234 0.36223,1.1528 0.0862,2.4964 -0.18105,0.88127 -0.44528,1.6053 -0.75111,2.0582 -0.25949,0.38426 -0.4718,0.76618 -0.4718,0.84873 0,0.39877 -0.83567,0.99242 -1.722,1.2233 -1.155,0.30084 -1.2599,0.30457 -1.5107,0.0538 z m 25.178,-0.22968 c 0.14204,-0.0545 0.25825,-0.22792 0.25825,-0.38538 0,-0.15745 0.18368,-0.55693 0.40817,-0.88774 0.22449,-0.3308 0.40816,-0.67496 0.40816,-0.7648 0,-0.0898 0.36049,-0.9131 0.80109,-1.8295 0.68897,-1.433 0.81427,-1.849 0.89527,-2.9723 0.0518,-0.71837 0.0394,-1.6 -0.0275,-1.9592 -0.10116,-0.54286 -0.19313,-0.6614 -0.54497,-0.70243 -0.36729,-0.0428 -0.46706,0.0543 -0.75469,0.73469 -0.18228,0.43124 -0.3832,1.2166 -0.44648,1.7452 -0.0633,0.52864 -0.21793,1.3001 -0.34366,1.7143 -0.12571,0.41422 -0.22937,0.99291 -0.23035,1.286 -0.002,0.29306 -0.066,0.6604 -0.1446,0.81633 -0.0785,0.15592 -0.26391,0.79778 -0.41189,1.4264 -0.14797,0.62857 -0.31267,1.3082 -0.36599,1.5102 -0.099,0.37527 0.034,0.44676 0.4992,0.26824 z m -9.1703,8.0734 c -0.47143,-0.0893 -0.85714,-0.22375 -0.85714,-0.29869 0,-0.0749 -0.33654,-0.29915 -0.74786,-0.49827 -0.41131,-0.19912 -0.78653,-0.46281 -0.83379,-0.58599 -0.0475,-0.12371 -0.31448,-0.22397 -0.59649,-0.22397 -0.46573,0 -0.90268,0.17528 -3.0118,1.2082 -0.93158,0.4562 -3.7166,0.4953 -4.6146,0.0648 -0.76604,-0.36728 -0.97709,-0.62308 -1.791,-2.1709 -0.64972,-1.2355 -0.68176,-1.3609 -0.59323,-2.3198 0.0632,-0.68467 0.22507,-1.2146 0.49862,-1.6326 0.22274,-0.34044 0.4528,-0.8156 0.51123,-1.0559 0.19375,-0.79674 1.8372,-1.6866 2.7862,-1.5086 0.70772,0.13277 2.0254,0.96924 2.0254,1.2858 0,0.34502 -0.7679,0.49797 -1.3832,0.27549 -1.1748,-0.42482 -1.7824,-0.14427 -2.537,1.1714 -0.75525,1.3169 -0.63702,2.154 0.53893,3.8158 0.7764,1.0972 2.2031,1.485 3.488,0.94811 0.32237,-0.13469 0.74614,-0.24489 0.9417,-0.24489 0.19557,0 0.42537,-0.0611 0.51067,-0.13574 0.0853,-0.0747 0.45538,-0.22097 0.8224,-0.32513 1.0102,-0.28669 1.2583,-0.64297 1.0567,-1.5175 -0.38703,-1.6788 -0.14171,-2.4721 1.1702,-3.7837 1.0241,-1.0239 3.557,-1.6822 4.5322,-1.1778 0.52493,0.27145 0.62526,0.58526 0.27901,0.87263 -0.11716,0.0972 -0.83349,0.22839 -1.5918,0.29148 -1.3082,0.10883 -1.4185,0.14887 -2.1543,0.78199 l -0.77543,0.66729 -1.6e-4,2.2041 h 0.46702 c 0.25685,0 0.72157,-0.17275 1.0327,-0.38391 0.94542,-0.64158 2.6962,-1.4454 3.0156,-1.3844 0.49004,0.0935 0.45817,0.7044 -0.0576,1.1043 -0.80383,0.62325 -1.6292,1.1135 -2.2564,1.3403 -0.67394,0.24371 -0.81326,0.45008 -0.67345,0.99756 0.13874,0.54333 1.2552,0.93841 2.6518,0.93841 0.96025,0 1.3235,-0.0837 2.146,-0.49479 0.54459,-0.27213 1.1192,-0.69458 1.2769,-0.93878 0.15768,-0.24419 0.50242,-0.66439 0.76609,-0.93378 0.57984,-0.59244 0.77311,-1.0517 0.77735,-1.8474 0.004,-0.76302 0.39847,-3.0208 0.5786,-3.3123 0.075,-0.12136 0.23499,-0.69987 0.35551,-1.2856 0.52307,-2.5418 0.71855,-3.574 0.851,-4.4935 0.17978,-1.2481 0.61646,-2.8909 0.80017,-3.0102 0.0778,-0.0505 0.2615,-0.32618 0.40821,-0.61256 0.37678,-0.7355 0.87634,-1.0303 1.7459,-1.0303 1.376,0 1.8244,0.86811 1.8259,3.5351 0.002,1.5902 -0.0499,1.9313 -0.4007,2.6939 -0.22095,0.4802 -0.49913,1.1302 -0.6182,1.4445 -0.11907,0.31428 -0.26751,0.6449 -0.32988,0.73469 -0.0624,0.0898 -0.16593,0.38232 -0.23014,0.65006 -0.0642,0.26774 -0.44168,0.97558 -0.83884,1.573 -0.39714,0.5974 -0.72209,1.2181 -0.72209,1.3793 0,0.1612 -0.44082,0.94555 -0.97959,1.7429 -0.62253,0.92134 -0.97959,1.6175 -0.97959,1.9099 0,0.58962 0.37059,1.4746 0.86765,2.0721 0.21448,0.25778 0.48364,0.64655 0.59814,0.86392 0.17985,0.34144 0.16779,0.42479 -0.0886,0.61225 -0.65174,0.47655 -1.298,0.0651 -2.1999,-1.4008 -0.28131,-0.45718 -0.5816,-0.83122 -0.66733,-0.83122 -0.17821,0 -0.98206,0.56056 -1.5804,1.102 -0.22323,0.20204 -0.50172,0.36735 -0.61883,0.36735 -0.11712,0 -0.27735,0.11507 -0.35605,0.25572 -0.30244,0.54042 -2.6492,0.83642 -4.2405,0.53487 z m 7.3441,6.0328 c -3.0349,-3.1628 -3.4665,-3.6589 -3.4665,-3.9836 0,-0.84391 1.0674,-0.91269 1.5898,-0.10245 0.15827,0.2455 0.89465,1.0614 1.6364,1.813 1.4733,1.493 1.998,2.3382 1.7229,2.7752 -0.30587,0.48576 -0.64481,0.37099 -1.4825,-0.50208 z"
         id="actual" />
    </g>
  </g>
</svg>
