<svg xmlns="http://www.w3.org/2000/svg" height="17.283" width="13.38"><path d="M4.335 15.66c.201-.112.725-.548 1.164-.969.44-.42.862-.764.939-.764.077 0 .143-.092.146-.204.003-.113.336-.57.741-1.018.405-.447.782-.996.838-1.22.056-.223.383-.842.728-1.375.344-.533.626-1.037.626-1.12 0-.083.32-.825.71-1.65.391-.825.79-1.756.885-2.069.096-.313.328-1.046.516-1.63.462-1.435.44-1.735-.143-2.037-.548-.283-1.9-.329-2.54-.085-.6.228-2.077 1.459-2.812 2.342-.339.407-.744.786-.901.842-.157.057-.286.208-.286.336 0 .129-.243.51-.54.846-.474.54-1.194 2.03-1.5 3.103-.057.202-.167.367-.244.367-.077 0-.224.276-.327.612-.103.337-.251.76-.33.94-.549 1.265-.86 3.907-.522 4.439.068.107.342.311.61.454.534.287 1.597.22 2.242-.14zM1.7 17.2C.286 16.845-.284 15.236.134 12.784c.194-1.137.892-3.092 1.465-4.107.135-.238.245-.597.245-.798 0-.2.32-.85.71-1.444.392-.594.764-1.245.828-1.447.064-.202.189-.367.277-.367.175 0 1.285-1.155 1.286-1.338 0-.062.411-.503.913-.98C6.876 1.337 9.01.098 9.762.038c1.44-.113 1.677-.028 2.714.984 1.114 1.087 1.063.794.573 3.302-.157.8-.516 1.783-.99 2.708-.41.8-.746 1.518-.746 1.597 0 .08-.34.984-.755 2.01-.508 1.256-.782 2.198-.837 2.877l-.08 1.01.754.776c.834.858.896 1.058.456 1.456-.503.456-1.043.336-1.497-.331-.224-.33-.495-.686-.6-.791-.106-.106-.304-.46-.44-.788-.138-.327-.324-.595-.414-.595-.091 0-.465.294-.832.653-.366.36-.708.653-.759.653-.051 0-.495.368-.986.817-.525.48-1.047.816-1.265.816-.205 0-.695.033-1.09.073-.394.04-.964.01-1.268-.065z" stroke-width=".163"/></svg>