<?xml version="1.0" encoding="UTF-8" standalone="no"?>
<svg
   xmlns:dc="http://purl.org/dc/elements/1.1/"
   xmlns:cc="http://creativecommons.org/ns#"
   xmlns:rdf="http://www.w3.org/1999/02/22-rdf-syntax-ns#"
   xmlns:svg="http://www.w3.org/2000/svg"
   xmlns="http://www.w3.org/2000/svg"
   id="svg2663"
   viewBox="0 0 13.380228 17.283068"
   version="1.1"
   height="17.283068"
   width="13.380228">
  <defs
     id="defs2667" />
  <metadata
     id="metadata2">
    <rdf:RDF>
      <cc:Work
         rdf:about="">
        <dc:format>image/svg+xml</dc:format>
        <dc:type
           rdf:resource="http://purl.org/dc/dcmitype/StillImage" />
        <dc:title />
      </cc:Work>
    </rdf:RDF>
  </metadata>
  <g
     transform="translate(-427.05541,-201.25917)"
     id="g2661">
    <g
       style="stroke-width:0.16327"
       id="g2557">
      <path
         d="m 431.39,216.92 c 0.20157,-0.11259 0.72567,-0.54885 1.1646,-0.96945 0.43901,-0.42062 0.86146,-0.76475 0.93878,-0.76475 0.0773,0 0.14305,-0.0918 0.14606,-0.20409 0.003,-0.11224 0.33647,-0.57002 0.74104,-1.0173 0.40457,-0.44726 0.78147,-0.99601 0.83755,-1.2194 0.0561,-0.22341 0.38382,-0.84234 0.72834,-1.3754 0.34451,-0.53303 0.62639,-1.0371 0.62639,-1.1201 0,-0.083 0.31962,-0.82583 0.71028,-1.6507 0.39065,-0.82485 0.78872,-1.7557 0.88459,-2.0686 0.0959,-0.31289 0.32802,-1.0464 0.51587,-1.6301 0.46172,-1.4346 0.44059,-1.7346 -0.14344,-2.0366 -0.548,-0.28338 -1.8994,-0.32891 -2.5394,-0.0856 -0.5993,0.22785 -2.0776,1.4591 -2.8126,2.3426 -0.33839,0.40675 -0.74382,0.78564 -0.90097,0.84196 -0.15714,0.0564 -0.28571,0.20748 -0.28571,0.33586 0,0.12839 -0.24256,0.50914 -0.53904,0.84614 -0.47497,0.53991 -1.1954,2.0292 -1.5009,3.1025 -0.0575,0.20204 -0.16736,0.36735 -0.24413,0.36735 -0.0768,0 -0.22388,0.27551 -0.32691,0.61224 -0.10302,0.33674 -0.25111,0.75919 -0.32909,0.93878 -0.54952,1.2654 -0.86091,3.9081 -0.52312,4.4394 0.068,0.10699 0.34242,0.31167 0.60975,0.45484 0.53486,0.28645 1.5978,0.22024 2.242,-0.13964 z m -2.6346,1.5389 c -1.4139,-0.35486 -1.9843,-1.9637 -1.5657,-4.4159 0.19411,-1.137 0.89128,-3.0917 1.4648,-4.1068 0.13465,-0.23835 0.24482,-0.5974 0.24482,-0.79791 0,-0.20049 0.31993,-0.85038 0.71097,-1.4442 0.39104,-0.5938 0.76333,-1.245 0.82733,-1.447 0.064,-0.202 0.18862,-0.36735 0.27695,-0.36735 0.17521,0 1.2848,-1.1541 1.286,-1.3377 0,-0.0623 0.41116,-0.50306 0.91275,-0.97959 1.0176,-0.96677 3.1532,-2.2056 3.9044,-2.2648 1.4404,-0.11357 1.6765,-0.028 2.7134,0.98349 1.1141,1.0868 1.0634,0.79438 0.57287,3.3025 -0.15638,0.79953 -0.51577,1.7822 -0.99037,2.7079 -0.4097,0.79915 -0.74491,1.5177 -0.74491,1.5968 0,0.0791 -0.33995,0.98379 -0.75546,2.0104 -0.50802,1.2552 -0.78201,2.1974 -0.83651,2.8763 l -0.0811,1.0097 0.75488,0.77672 c 0.83358,0.85768 0.89632,1.0579 0.45631,1.4561 -0.50307,0.45527 -1.043,0.33577 -1.4974,-0.33138 -0.22449,-0.32963 -0.49454,-0.68578 -0.60011,-0.79141 -0.10557,-0.10563 -0.30385,-0.45992 -0.44065,-0.7873 -0.13679,-0.32736 -0.32294,-0.59521 -0.4137,-0.59521 -0.0907,0 -0.46482,0.29387 -0.83125,0.65306 -0.36643,0.35918 -0.70808,0.65306 -0.75922,0.65306 -0.0511,0 -0.49489,0.36735 -0.98615,0.81632 -0.52487,0.47971 -1.0467,0.81633 -1.2654,0.81633 -0.20471,0 -0.69472,0.0329 -1.0889,0.0732 -0.39417,0.0402 -0.96509,0.0108 -1.2687,-0.0654 z"
         id="ad" />
    </g>
  </g>
</svg>
