<?xml version="1.0" encoding="UTF-8" standalone="no"?>
<svg
   xmlns:dc="http://purl.org/dc/elements/1.1/"
   xmlns:cc="http://creativecommons.org/ns#"
   xmlns:rdf="http://www.w3.org/1999/02/22-rdf-syntax-ns#"
   xmlns:svg="http://www.w3.org/2000/svg"
   xmlns="http://www.w3.org/2000/svg"
   id="svg2663"
   viewBox="0 0 35.197177 27.061279"
   version="1.1"
   height="27.061279"
   width="35.197178">
  <defs
     id="defs2667" />
  <metadata
     id="metadata2">
    <rdf:RDF>
      <cc:Work
         rdf:about="">
        <dc:format>image/svg+xml</dc:format>
        <dc:type
           rdf:resource="http://purl.org/dc/dcmitype/StillImage" />
        <dc:title />
      </cc:Work>
    </rdf:RDF>
  </metadata>
  <g
     transform="translate(-427.56535,-225.80758)"
     id="g2661">
    <g
       style="stroke-width:0.16327"
       id="g2557">
      <path
         d="m 441.97,233.07 c -0.14872,-0.1792 -0.14431,-0.30946 0.0193,-0.57143 0.11655,-0.18663 0.26429,-0.33933 0.32831,-0.33933 0.064,0 0.45601,-0.34449 0.8711,-0.76555 1.2813,-1.2996 1.6874,-2.4823 1.127,-3.2823 -0.37918,-0.54136 -0.24584,-1.0842 0.28129,-1.1452 0.3327,-0.0385 0.53205,0.079 0.85714,0.50521 1.0076,1.321 0.22777,3.7207 -1.6172,4.9769 -0.35918,0.24456 -0.71182,0.5367 -0.78362,0.64921 -0.17638,0.27633 -0.84522,0.25931 -1.0833,-0.0275 z m 7.8218,7.6466 c 0.69158,-0.2262 0.87063,-0.38613 1.4164,-1.2653 0.55512,-0.89414 0.6314,-1.1452 0.68395,-2.251 0.0547,-1.151 0.0307,-1.2646 -0.32005,-1.5102 -0.47812,-0.33489 -1.671,-0.34725 -1.9975,-0.0207 -0.13469,0.1347 -0.30896,0.2449 -0.38725,0.2449 -0.0783,0 -0.55575,0.36847 -1.061,0.81884 -1.1323,1.0092 -2.2485,2.6382 -2.2485,3.2814 0,0.42224 0.0551,0.47145 0.53061,0.47367 0.29184,0.002 0.86123,0.10664 1.2653,0.23397 0.96175,0.30304 1.1762,0.30247 2.118,-0.006 z m -17.656,0.1771 c 0.82706,-0.38501 3.1296,-2.4885 3.1296,-2.859 0,-0.0871 0.26695,-0.508 0.59322,-0.9353 0.70178,-0.91908 1.0559,-1.6738 1.5178,-3.235 0.18743,-0.63354 0.48711,-1.4389 0.66593,-1.7896 0.17882,-0.3507 0.32513,-0.764 0.32513,-0.91835 0,-0.15433 0.22041,-0.7568 0.48979,-1.3388 0.26939,-0.58201 0.4898,-1.2467 0.4898,-1.477 0,-0.53286 -0.521,-0.88189 -1.521,-1.019 -1.2253,-0.16795 -3.0085,0.72135 -4.631,2.3095 -0.94366,0.92371 -1.8024,2.1382 -2.3956,3.3882 -0.22296,0.46978 -0.68583,1.4419 -1.0286,2.1603 -0.54776,1.1479 -0.63052,1.4812 -0.68328,2.7522 -0.07,1.685 0.175,2.4209 0.99964,3.0029 0.66024,0.46594 0.97299,0.45967 2.0486,-0.041 z m 7.7651,10 c 0.24455,-0.95552 0.70732,-2.1196 1.0336,-2.7726 0.21232,-0.42493 0.53176,-1.3489 0.70988,-2.0533 0.17814,-0.70438 0.57901,-1.9306 0.89084,-2.7249 0.31186,-0.79432 0.56699,-1.6012 0.56699,-1.7931 0,-0.19187 0.10787,-0.49146 0.23971,-0.66578 0.28204,-0.37288 0.32591,-1.1487 0.0738,-1.3046 -0.097,-0.0599 -0.2868,0.0488 -0.42182,0.24152 -0.135,0.19277 -0.48555,0.51298 -0.77895,0.71158 -0.29342,0.19859 -0.94637,0.64558 -1.451,0.9933 -0.85858,0.5916 -0.97885,0.62777 -1.8717,0.56319 -1.2176,-0.0881 -1.8317,-0.51563 -2.4257,-1.6888 -0.24908,-0.4919 -0.52936,-0.89404 -0.62285,-0.89363 -0.0935,0 -0.74192,0.55151 -1.441,1.2247 -0.69905,0.67316 -1.544,1.343 -1.8776,1.4886 -0.74331,0.3243 -2.548,0.38945 -2.8351,0.10235 -0.11226,-0.11224 -0.3187,-0.20408 -0.45873,-0.20408 -0.26847,0 -0.42893,-0.21491 -1.1769,-1.5763 -0.78294,-1.425 -0.65494,-2.717 0.596,-6.0156 0.23838,-0.62857 0.58633,-1.4 0.77322,-1.7143 0.18691,-0.31429 0.59685,-1.049 0.91101,-1.6326 0.74901,-1.3916 2.5437,-3.1624 4.301,-4.2437 1.0134,-0.62356 2.4801,-0.88797 4.0927,-0.73783 1.3177,0.12269 2.0517,0.45796 2.2757,1.0395 0.27651,0.71767 -0.0274,2.4055 -0.69822,3.8782 -0.1681,0.36903 -0.30563,0.74989 -0.30563,0.84638 0,0.28978 -0.86176,2.1978 -1.2606,2.7912 -0.20461,0.30438 -0.372,0.66464 -0.372,0.80059 0,0.13593 -0.19466,0.65833 -0.43257,1.1609 -0.83729,1.7686 -0.6426,3.28 0.49402,3.835 0.60464,0.29521 0.67179,0.29675 1.5041,0.0344 0.66192,-0.20865 1.1472,-0.53938 2.0202,-1.3767 0.63193,-0.60615 1.149,-1.1616 1.149,-1.2344 0,-0.0728 0.33634,-0.47348 0.74741,-0.89046 0.41107,-0.41696 1.0851,-1.2912 1.4979,-1.9428 0.51582,-0.81427 0.85079,-1.1847 1.0713,-1.1847 0.48204,0 0.73706,0.46653 0.64209,1.1746 -0.0734,0.54732 -0.0429,0.62132 0.25657,0.62132 0.18696,0 0.39868,-0.10091 0.47048,-0.22426 0.24108,-0.41409 1.756,-1.2063 2.5127,-1.314 0.4122,-0.0586 1.0589,-0.0571 1.4371,0.003 0.61861,0.0989 0.72776,0.18913 1.0873,0.89863 0.5505,1.0864 0.54738,2.5021 -0.008,3.8702 -0.50694,1.2476 -0.51383,1.501 -0.0408,1.5002 0.40016,0 1.4286,-0.56452 1.4286,-0.78327 0,-0.0746 0.28865,-0.29783 0.64147,-0.49611 0.71241,-0.40039 1.9236,-1.6739 2.2899,-2.4076 0.13061,-0.26163 0.36183,-0.62264 0.51384,-0.80223 0.36778,-0.43453 1.9832,-3.7059 2.338,-4.7347 0.15484,-0.44898 0.39211,-1.3306 0.52728,-1.9592 0.44663,-2.077 0.72558,-2.8457 1.1554,-3.1838 0.52034,-0.4093 0.80281,-0.41309 1.0166,-0.0136 0.19904,0.37191 -0.0197,1.7258 -0.39655,2.4545 -0.13703,0.26498 -0.24915,0.63331 -0.24915,0.8185 0,0.47406 -0.58454,2.5284 -0.94818,3.3323 -0.16762,0.37056 -0.47087,1.1513 -0.67387,1.735 -0.20302,0.58367 -0.59125,1.6857 -0.86275,2.449 -0.27149,0.76326 -0.5312,1.8431 -0.57711,2.3996 -0.0761,0.92239 -0.0447,1.058 0.35501,1.533 0.8112,0.96403 0.2168,1.8936 -0.78931,1.2344 -0.50741,-0.33247 -1.0752,-1.5894 -1.0752,-2.3801 0,-0.35486 -0.0778,-0.69327 -0.17284,-0.75203 -0.22688,-0.14022 -1.3043,0.61335 -1.7619,1.2323 -0.19838,0.26834 -0.45487,0.4879 -0.56994,0.4879 -0.11507,0 -0.35164,0.12929 -0.52572,0.28731 -0.17407,0.15801 -0.70943,0.48885 -1.1897,0.7352 -0.74872,0.38404 -1.2056,0.47491 -3.2047,0.63742 -2.6798,0.21785 -3.646,0.0699 -4.0123,-0.61458 -0.43288,-0.80884 -1.1086,-0.40241 -1.3793,0.82964 -0.0589,0.26796 -0.29396,0.89245 -0.5224,1.3878 -0.79226,1.7176 -1.0286,2.3168 -1.0286,2.6078 0,0.16083 -0.18374,0.62118 -0.40833,1.023 -0.22457,0.40181 -0.61948,1.3153 -0.87758,2.0301 -0.83249,2.3054 -0.98418,3.6747 -2.1895,3.2046 -0.59093,-0.23044 0.1163,-1.2686 0.27356,-1.883 z"
         id="adapt" />
    </g>
  </g>
</svg>
