<svg xmlns="http://www.w3.org/2000/svg" height="27.061" width="35.197"><path d="M14.405 7.262c-.15-.179-.145-.309.019-.571.117-.187.264-.34.328-.34s.456-.344.871-.765c1.282-1.3 1.688-2.482 1.127-3.282-.379-.542-.245-1.084.282-1.145.332-.039.532.079.857.505 1.007 1.32.228 3.72-1.617 4.977-.36.244-.712.536-.784.649-.176.276-.845.26-1.083-.028zm7.821 7.647c.692-.226.871-.386 1.417-1.265.555-.894.631-1.145.684-2.251.055-1.151.03-1.265-.32-1.51-.478-.335-1.671-.348-1.998-.021-.134.135-.309.245-.387.245-.078 0-.556.368-1.061.819-1.132 1.009-2.248 2.638-2.248 3.281 0 .422.055.471.53.474.292.002.861.106 1.265.234.962.303 1.177.302 2.118-.006zm-17.656.177c.828-.385 3.13-2.488 3.13-2.859 0-.087.267-.508.593-.935.702-.92 1.056-1.674 1.518-3.235.188-.634.487-1.44.666-1.79.179-.35.325-.764.325-.918 0-.154.22-.757.49-1.339s.49-1.247.49-1.477c0-.533-.521-.882-1.521-1.019-1.226-.168-3.009.721-4.631 2.31-.944.923-1.803 2.138-2.396 3.388l-1.028 2.16c-.548 1.148-.631 1.481-.684 2.752-.07 1.685.175 2.421 1 3.003.66.466.973.46 2.048-.04zm7.766 10c.244-.955.707-2.12 1.033-2.772.212-.425.532-1.35.71-2.054.178-.704.579-1.93.89-2.725.313-.794.568-1.6.568-1.793 0-.192.108-.491.24-.666.282-.372.325-1.148.073-1.304-.097-.06-.286.049-.421.241-.135.193-.486.513-.78.712-.293.199-.946.646-1.45.993-.859.592-.98.628-1.872.563-1.218-.088-1.832-.515-2.426-1.688-.249-.492-.53-.894-.623-.894-.093 0-.742.552-1.44 1.225-.7.673-1.545 1.343-1.878 1.488-.744.325-2.548.39-2.835.103a.759.759 0 00-.46-.204c-.268 0-.428-.215-1.176-1.577-.783-1.425-.655-2.717.596-6.015.238-.629.586-1.4.773-1.715a57.12 57.12 0 00.911-1.632C3.52 3.98 5.313 2.209 7.07 1.128 8.084.505 9.55.24 11.163.39c1.318.123 2.052.458 2.276 1.04.276.717-.028 2.405-.699 3.878-.168.369-.305.75-.305.846 0 .29-.862 2.198-1.26 2.792-.205.304-.373.664-.373.8s-.194.658-.432 1.161c-.838 1.769-.643 3.28.494 3.835.604.295.671.297 1.504.034.662-.208 1.147-.539 2.02-1.376.632-.606 1.149-1.162 1.149-1.235 0-.072.336-.473.747-.89.411-.417 1.085-1.291 1.498-1.943.516-.814.851-1.185 1.072-1.185.482 0 .737.467.642 1.175-.074.547-.043.621.256.621.187 0 .399-.1.47-.224.242-.414 1.757-1.206 2.513-1.314a5.817 5.817 0 011.438.003c.618.099.727.19 1.087.899.55 1.086.547 2.502-.008 3.87-.507 1.247-.514 1.5-.041 1.5.4 0 1.429-.564 1.429-.783 0-.075.288-.298.641-.496.712-.4 1.924-1.674 2.29-2.408a4.86 4.86 0 01.514-.802c.368-.435 1.983-3.706 2.338-4.735.155-.449.392-1.33.527-1.96.447-2.076.726-2.845 1.155-3.183.52-.41.803-.413 1.017-.013.2.371-.02 1.725-.396 2.454-.137.265-.25.633-.25.819 0 .474-.584 2.528-.948 3.332-.167.37-.47 1.151-.674 1.735-.203.583-.59 1.686-.862 2.449-.272.763-.532 1.843-.578 2.4-.076.922-.044 1.057.355 1.532.812.964.217 1.894-.789 1.235-.507-.333-1.075-1.59-1.075-2.38 0-.355-.078-.694-.173-.752-.227-.14-1.304.613-1.762 1.232-.198.268-.455.488-.57.488-.115 0-.351.13-.525.287-.174.158-.71.49-1.19.735-.749.384-1.206.475-3.205.638-2.68.218-3.646.07-4.012-.615-.433-.809-1.109-.402-1.38.83-.058.268-.293.892-.522 1.388-.792 1.717-1.028 2.316-1.028 2.607 0 .161-.184.622-.409 1.023-.224.402-.62 1.316-.877 2.03-.833 2.306-.985 3.675-2.19 3.205-.59-.23.116-1.268.274-1.883z"/></svg>