<?xml version="1.0" encoding="UTF-8" standalone="no"?>
<svg
   xmlns:dc="http://purl.org/dc/elements/1.1/"
   xmlns:cc="http://creativecommons.org/ns#"
   xmlns:rdf="http://www.w3.org/1999/02/22-rdf-syntax-ns#"
   xmlns:svg="http://www.w3.org/2000/svg"
   xmlns="http://www.w3.org/2000/svg"
   id="svg2663"
   viewBox="0 0 59.446707 32.913937"
   version="1.1"
   height="32.913937"
   width="59.446709">
  <defs
     id="defs2667" />
  <metadata
     id="metadata2">
    <rdf:RDF>
      <cc:Work
         rdf:about="">
        <dc:format>image/svg+xml</dc:format>
        <dc:type
           rdf:resource="http://purl.org/dc/dcmitype/StillImage" />
        <dc:title />
      </cc:Work>
    </rdf:RDF>
  </metadata>
  <g
     transform="translate(-425.6071,-243.75762)"
     id="g2661">
    <g
       style="stroke-width:0.16327"
       id="g2557">
      <path
         d="m 440.59,256.23 c -0.0702,-0.18294 0.22284,-0.56433 0.96675,-1.2582 1.9084,-1.7801 2.5778,-3.2772 1.8848,-4.2147 -0.50358,-0.68111 -0.38828,-1.0474 0.31861,-1.012 0.70223,0.0351 1.0871,0.48368 1.2294,1.4327 0.16812,1.121 -0.20064,1.9446 -1.7018,3.8007 -1.0075,1.2457 -2.4442,1.9122 -2.6977,1.2514 z m 41.588,-4.5448 c 0.79007,-0.59888 1.7021,-3.6228 1.5538,-5.1519 -0.0434,-0.44741 -0.13508,-0.58274 -0.4225,-0.62356 -0.41549,-0.059 -0.69413,0.46172 -0.69413,1.2972 0,0.26902 -0.25715,1.3823 -0.57143,2.474 -0.31429,1.0917 -0.57143,2.0423 -0.57143,2.1125 0,0.19865 0.37709,0.14077 0.70568,-0.10829 z m -14.243,5.2563 c 0.29341,-0.34683 0.55223,-0.84554 1.3345,-2.5714 0.18315,-0.40408 0.3956,-0.86227 0.47207,-1.0182 0.0765,-0.15593 0.13951,-0.44981 0.14006,-0.65306 0,-0.20327 0.11075,-0.58 0.2449,-0.83721 0.13414,-0.25721 0.24389,-0.56259 0.24389,-0.67866 0,-0.11606 0.23128,-0.71378 0.51396,-1.3283 0.4662,-1.0134 0.51551,-1.2751 0.53061,-2.8162 0.0178,-1.8196 -0.10967,-2.1001 -0.67757,-1.4905 -0.34437,0.36965 -0.8568,2.0135 -0.8568,2.7486 0,0.40971 -0.2577,1.3895 -1.4866,5.6519 -0.17907,0.62116 -0.50673,1.5122 -0.7281,1.9802 -0.22137,0.468 -0.35678,0.96993 -0.30091,1.1155 0.13319,0.3471 0.19962,0.33513 0.56997,-0.10263 z m -20.041,7.4915 c 1.9299,-0.67195 3.7086,-4.1489 2.792,-5.4576 -0.31341,-0.44745 -1.2348,-0.85029 -1.9447,-0.85029 -0.85305,0 -2.7576,1.6792 -3.0891,2.7236 -0.0614,0.19334 -0.27385,0.55754 -0.47218,0.80931 -0.38433,0.48788 -0.74634,1.3287 -0.88327,2.0515 -0.0721,0.38051 -0.0192,0.45613 0.38276,0.54756 0.25654,0.0583 0.68683,0.16527 0.95621,0.23765 0.74892,0.20121 1.5674,0.17884 2.2583,-0.0617 z m -16.532,0.48733 c 1.1852,-1.0184 2.4418,-2.467 3.2743,-3.7748 0.37017,-0.58149 0.79765,-1.4454 1.6684,-3.3717 0.14822,-0.32788 0.41681,-1.4667 0.59688,-2.5306 0.18006,-1.064 0.4061,-2.1286 0.50232,-2.3659 0.0962,-0.23729 0.1509,-0.64138 0.12156,-0.89796 -0.0454,-0.39744 -0.13481,-0.47432 -0.60333,-0.51914 -0.30248,-0.0289 -0.78003,0.0409 -1.0612,0.15512 -0.57899,0.23525 -2.1156,1.2659 -2.1983,1.4745 -0.0299,0.0755 -0.1496,0.13727 -0.26593,0.13727 -0.11632,0 -0.60612,0.36653 -1.0884,0.8145 -1.402,1.3022 -1.7745,1.7033 -1.7747,1.9109 -10e-5,0.10715 -0.13193,0.29082 -0.29295,0.40816 -0.25644,0.18686 -1.3399,1.8091 -1.3399,2.0062 0,0.0405 -0.27754,0.50305 -0.61674,1.0279 -0.3392,0.52481 -0.70142,1.2436 -0.80491,1.5974 -0.32278,1.1031 -0.58722,2.9536 -0.48199,3.3728 0.15363,0.61213 0.74287,1.27 1.14,1.2728 0.19553,0.002 0.4657,0.0737 0.60039,0.16077 0.1347,0.087 0.50758,0.1594 0.82864,0.16077 0.48354,0.002 0.79184,-0.1763 1.7959,-1.039 z m 6.9392,10.062 c 0.15277,-1.0526 0.39363,-1.5055 1.0314,-3.0195 0.36859,-0.87505 0.67016,-1.7685 0.67016,-1.9855 0,-0.21702 0.26256,-1.0072 0.58346,-1.756 0.51597,-1.2039 0.89897,-2.3616 1.1661,-3.5247 0.12524,-0.54522 -0.33966,-0.47256 -1.2747,0.19922 -1.1275,0.81002 -1.845,1.0662 -2.9846,1.0655 -1.2744,0 -1.9317,-0.37944 -2.4044,-1.3852 -0.19153,-0.40746 -0.41388,-0.78142 -0.49412,-0.831 -0.20792,-0.12851 -0.84614,0.41218 -1.5793,1.3379 -0.80313,1.0141 -2.7059,2.0237 -3.8029,2.0178 -1.4533,-0.008 -2.9967,-0.68632 -3.4382,-1.5114 -0.0926,-0.173 -0.16774,-1.06 -0.16699,-1.971 0.002,-1.8659 0.18697,-2.5423 1.0796,-3.9376 0.31977,-0.49989 0.58141,-0.98408 0.58141,-1.076 0,-0.0919 0.29387,-0.55635 0.65306,-1.0321 0.35918,-0.47573 0.65306,-0.95012 0.65306,-1.0542 0,-0.10408 0.0735,-0.18924 0.16326,-0.18924 0.0898,0 0.16327,-0.13064 0.16327,-0.29033 0,-0.64959 3.833,-4.0686 5.7602,-5.1382 1.2884,-0.715 1.4852,-0.77551 2.5227,-0.77551 1.0373,0 1.2387,0.0625 1.5946,0.4898 0.5014,0.60199 0.32798,1.553 0.27244,2.3345 -0.063,0.88597 -0.68007,1.9315 -0.68007,2.5764 0,0.26789 -0.1102,0.75083 -0.24489,1.0732 -0.1347,0.32237 -0.2449,0.72862 -0.2449,0.90279 0,0.17416 -0.24462,0.84479 -0.54359,1.4903 -0.72872,1.5733 -1.2524,3.1768 -1.2524,3.8348 6e-5,1.0815 0.65085,1.8286 1.5929,1.8286 2.1026,0 4.293,-2.2555 5.66,-5.8281 0.33682,-0.88026 0.67788,-1.7658 0.7579,-1.9678 0.0964,-0.24344 0.28243,-0.36735 0.55143,-0.36735 0.68674,0 0.99946,1.0692 0.50423,1.7239 -0.62399,0.82498 -0.10796,0.95503 0.77108,0.19433 1.6073,-1.3909 2.7026,-1.7689 4.1323,-1.4259 0.6878,0.16499 0.97842,0.34202 1.3783,0.83961 1.1239,1.3985 1.1809,2.1693 0.2977,4.0278 -0.27002,0.56826 -0.45115,1.073 -0.4025,1.1216 0.29485,0.29484 1.1508,-0.28457 2.5527,-1.7279 1.2491,-1.2861 1.6449,-1.8167 2.0334,-2.7262 0.26532,-0.62111 0.64591,-1.3952 0.84577,-1.7202 0.19983,-0.32503 0.41582,-0.87605 0.47993,-1.2245 0.0641,-0.34844 0.16955,-0.67027 0.23432,-0.71517 0.23556,-0.1633 1.4678,-2.9296 1.4684,-3.2964 0.002,-0.62638 0.59293,-1.4383 1.0486,-1.4383 0.22051,0 0.44464,0.0707 0.49806,0.15714 0.12554,0.20315 -0.18362,2.679 -0.38225,3.061 -0.34384,0.66129 -0.89403,2.3351 -1.0888,3.3125 -0.0626,0.31429 -0.17138,0.6449 -0.24163,0.73469 -0.0703,0.0898 -0.23979,0.5432 -0.3767,1.0076 -0.13693,0.46437 -0.33349,1.0022 -0.43679,1.1953 -0.32485,0.60697 -0.65371,2.106 -0.65371,2.9798 0,0.68941 0.0788,0.92244 0.43871,1.2982 0.38775,0.40472 0.55559,0.45791 1.445,0.45791 1.3241,0 1.9762,-0.23522 2.7755,-1.001 0.36258,-0.34742 0.72568,-0.63164 0.8069,-0.63164 0.0812,0 0.53112,-0.40226 0.99976,-0.89391 0.83432,-0.87527 1.2005,-1.6385 1.4512,-3.0245 0.0983,-0.54385 0.28609,-1.1594 0.57272,-1.8776 0.0717,-0.17959 0.20922,-0.54694 0.30568,-0.81633 0.0965,-0.26939 0.26343,-0.7102 0.37107,-0.97959 0.10762,-0.26939 0.28584,-0.78367 0.39603,-1.1429 0.11019,-0.35918 0.4609,-1.3878 0.77936,-2.2857 0.32986,-0.93006 0.65644,-2.2583 0.75892,-3.0864 0.0989,-0.79954 0.23953,-1.571 0.31243,-1.7143 0.0729,-0.1433 0.17655,-0.49308 0.23032,-0.77728 0.0538,-0.28419 0.36026,-0.92705 0.68108,-1.4286 0.57567,-0.89992 0.5936,-0.91185 1.3693,-0.91185 0.54428,0 0.86635,0.0888 1.0472,0.28865 0.45132,0.4987 0.92493,1.7256 0.92848,2.4052 0.005,0.90352 -0.38212,2.8381 -0.68552,3.4286 -0.13843,0.26939 -0.30351,0.80165 -0.36684,1.1828 -0.0633,0.38116 -0.17582,0.73052 -0.24999,0.77636 -0.0742,0.0459 -0.18407,0.37468 -0.24423,0.73075 -0.0602,0.35606 -0.23623,0.81487 -0.39128,1.0196 -0.29733,0.3925 -1.1604,2.322 -1.1604,2.5942 0,0.34057 -1.5899,2.6757 -2.3265,3.417 -0.42653,0.42924 -0.77551,0.89115 -0.77551,1.0265 0,0.13532 -0.18856,0.3834 -0.41902,0.55127 -0.4856,0.35375 -0.66466,1.2344 -0.48903,2.4055 l 0.11172,0.74511 h 0.79546 c 0.76239,0 0.8362,-0.0424 1.7754,-1.0204 0.539,-0.56122 1.2299,-1.3878 1.5353,-1.8367 0.56447,-0.8298 1.4248,-2.7892 1.4248,-3.2449 0,-0.31834 0.92931,-0.50443 1.8132,-0.36309 0.70986,0.11352 1.728,-0.24173 2.6676,-0.93081 0.27434,-0.20117 0.7192,-0.47104 0.98859,-0.59969 0.26939,-0.12865 0.63673,-0.36326 0.81633,-0.52135 0.17959,-0.15811 0.5692,-0.49217 0.86581,-0.74237 0.3033,-0.25584 0.60323,-0.70495 0.68542,-1.0263 0.21859,-0.85474 0.74903,-2.5712 1.1269,-3.6465 0.1841,-0.52396 0.38124,-1.3321 0.43809,-1.7959 0.2399,-1.9575 1.3989,-4.2307 2.2682,-4.4488 0.18844,-0.0473 0.53796,-0.0118 0.77669,0.079 0.70364,0.26753 0.98838,0.8825 1.0712,2.3136 0.0656,1.1338 0.008,1.4982 -0.47149,3.0066 -0.30039,0.94407 -0.60364,1.7165 -0.67391,1.7165 -0.0703,0 -0.12774,0.0795 -0.12774,0.17661 0,0.20161 -0.96691,1.4316 -1.7575,2.2357 -0.83329,0.84754 -1.8343,2.1653 -1.8343,2.4147 0,0.12446 -0.14666,0.46684 -0.32592,0.76085 -0.17925,0.29401 -0.32619,0.64818 -0.32653,0.78702 0,0.13886 -0.25587,0.65314 -0.56786,1.1429 -0.33007,0.51812 -0.56899,1.1037 -0.57143,1.4005 -0.002,0.28054 -0.11938,0.83156 -0.26018,1.2245 -0.32122,0.89642 -0.18458,2.5117 0.29618,3.5013 0.18402,0.37876 0.28931,0.80666 0.23396,0.95089 -0.12264,0.31959 -0.90981,0.34868 -1.32,0.0488 -0.40933,-0.29931 -0.91336,-1.827 -0.91336,-2.7684 0,-1.1601 0.45688,-3.0234 0.9702,-3.9569 0.60118,-1.0932 0.75112,-1.7143 0.41383,-1.7143 -0.25474,0 -2.8621,1.2922 -3.0171,1.4952 -0.0451,0.0591 -0.37572,0.15519 -0.73469,0.21349 -1.3311,0.21624 -1.3533,0.22997 -1.7874,1.1077 -0.6311,1.2762 -1.2641,2.31 -1.5032,2.4549 -0.11657,0.0707 -0.43755,0.45639 -0.71327,0.85714 -0.27572,0.40075 -0.60233,0.72864 -0.72581,0.72864 -0.12348,0 -0.4322,0.2063 -0.68604,0.45845 -0.25385,0.25213 -0.57174,0.51216 -0.70644,0.57783 -0.13469,0.0657 -0.42857,0.22563 -0.65306,0.35547 -1.0297,0.5956 -2.142,-0.003 -2.8096,-1.5124 -0.16928,-0.38263 -0.38631,-0.69571 -0.48232,-0.69571 -0.16944,0 -1.7666,1.0972 -1.9344,1.3289 -0.16323,0.22533 -1.5658,0.66683 -2.6455,0.83272 -1.3624,0.20936 -1.8091,0.0489 -2.9173,-1.0477 -0.79717,-0.78883 -0.80277,-0.80175 -0.80277,-1.8521 0,-0.65568 -0.0678,-1.0578 -0.17827,-1.0578 -0.098,0 -0.52049,0.29341 -0.93878,0.652 -2.1166,1.8146 -2.7008,2.2868 -2.8292,2.2868 -0.0772,0 -0.53917,0.26478 -1.0266,0.58841 -0.73428,0.48754 -1.1047,0.61285 -2.1608,0.73102 -0.701,0.0784 -1.4583,0.18282 -1.6829,0.23198 -0.22462,0.0491 -0.95931,-0.0274 -1.6326,-0.17004 -1.9461,-0.41234 -1.9932,-0.40686 -2.1608,0.25128 -0.17483,0.68673 -0.86977,2.4732 -1.2702,3.2653 -0.40596,0.80304 -0.80882,1.9839 -1.2068,3.5374 -0.18788,0.73336 -0.39668,1.3885 -0.46401,1.4558 -0.0673,0.0673 -0.1224,0.21737 -0.1224,0.33344 0,0.31681 -0.85834,1.6749 -1.1227,1.7764 -0.12687,0.0487 -0.40846,-0.0263 -0.51794,-0.17148 -0.30178,-0.40031 -0.13348,-1.0066 -0.0615,-1.5027 z"
         id="adaptable" />
    </g>
  </g>
</svg>
