<svg xmlns="http://www.w3.org/2000/svg" height="32.914" width="59.447"><path d="M14.983 12.472c-.07-.183.223-.564.967-1.258 1.908-1.78 2.577-3.277 1.884-4.215-.503-.68-.388-1.047.32-1.012.701.036 1.086.484 1.228 1.433.169 1.121-.2 1.945-1.701 3.8-1.008 1.247-2.445 1.913-2.698 1.252zM56.57 7.928c.79-.6 1.702-3.623 1.554-5.152-.044-.448-.135-.583-.423-.624-.415-.059-.694.462-.694 1.297 0 .27-.257 1.383-.571 2.474-.315 1.092-.572 2.043-.572 2.113 0 .198.377.14.706-.108zm-14.243 5.256c.293-.347.552-.846 1.334-2.572.184-.404.396-.862.472-1.018.077-.156.14-.45.14-.653s.111-.58.245-.837c.135-.257.244-.563.244-.679 0-.116.232-.713.514-1.328.466-1.013.516-1.275.53-2.816.019-1.82-.109-2.1-.677-1.49-.344.369-.856 2.013-.856 2.748 0 .41-.258 1.39-1.487 5.652-.18.621-.507 1.512-.728 1.98-.222.468-.357.97-.301 1.116.133.347.2.335.57-.103zm-20.041 7.491c1.93-.672 3.708-4.149 2.792-5.457-.314-.448-1.235-.85-1.945-.85-.853 0-2.757 1.679-3.089 2.723-.061.193-.274.558-.472.81-.384.487-.746 1.328-.883 2.05-.072.381-.02.457.382.548.257.059.687.166.957.238.749.201 1.567.179 2.258-.062zm-16.532.488c1.185-1.019 2.442-2.467 3.274-3.775.37-.582.798-1.445 1.669-3.372.148-.328.416-1.466.596-2.53.18-1.064.407-2.129.503-2.366a2.18 2.18 0 00.121-.898c-.045-.398-.134-.475-.603-.52a2.698 2.698 0 00-1.061.156c-.58.235-2.116 1.266-2.198 1.474-.03.076-.15.138-.266.138-.117 0-.607.366-1.089.814-1.402 1.302-1.774 1.703-1.775 1.91 0 .108-.131.292-.292.41-.257.186-1.34 1.808-1.34 2.005 0 .04-.278.503-.617 1.028-.34.525-.702 1.244-.805 1.598-.323 1.103-.587 2.953-.482 3.372.154.612.743 1.27 1.14 1.273.196.002.466.074.6.16.135.088.508.16.829.162.484.002.792-.177 1.796-1.04zm6.94 10.062c.152-1.053.393-1.506 1.03-3.02.37-.875.67-1.768.67-1.985 0-.217.263-1.007.584-1.756a20.594 20.594 0 001.166-3.525c.125-.545-.34-.473-1.274.2-1.128.81-1.845 1.065-2.985 1.065-1.274 0-1.932-.38-2.404-1.385-.192-.408-.414-.782-.495-.831-.208-.129-.846.412-1.579 1.337-.803 1.015-2.706 2.024-3.803 2.018-1.453-.008-2.997-.686-3.438-1.511-.093-.173-.168-1.06-.167-1.971.002-1.866.187-2.542 1.08-3.938.32-.5.581-.984.581-1.076 0-.092.294-.556.653-1.032.36-.476.653-.95.653-1.054 0-.104.074-.19.163-.19.09 0 .164-.13.164-.29 0-.65 3.833-4.068 5.76-5.138 1.288-.715 1.485-.775 2.523-.775 1.037 0 1.238.062 1.594.49.502.601.328 1.552.273 2.334-.063.886-.68 1.931-.68 2.576 0 .268-.11.751-.245 1.074-.135.322-.245.728-.245.902 0 .175-.245.845-.544 1.49-.729 1.574-1.252 3.177-1.252 3.835 0 1.082.65 1.829 1.593 1.829 2.102 0 4.293-2.255 5.66-5.828.336-.88.678-1.766.758-1.968.096-.243.282-.367.551-.367.687 0 1 1.069.504 1.724-.624.825-.108.955.771.194 1.608-1.39 2.703-1.769 4.133-1.426.687.165.978.342 1.378.84 1.124 1.398 1.18 2.169.298 4.028-.27.568-.452 1.073-.403 1.121.295.295 1.15-.284 2.553-1.728 1.249-1.286 1.645-1.816 2.033-2.726.266-.621.646-1.395.846-1.72.2-.325.416-.876.48-1.225.064-.348.17-.67.234-.715.236-.163 1.468-2.93 1.469-3.296.002-.627.593-1.439 1.048-1.439.22 0 .445.071.498.158.126.203-.183 2.679-.382 3.06-.344.662-.894 2.336-1.089 3.313-.062.314-.171.645-.241.735-.07.09-.24.543-.377 1.007-.137.465-.334 1.003-.437 1.196-.325.607-.654 2.106-.654 2.98 0 .689.08.922.44 1.298.387.404.555.458 1.444.458 1.324 0 1.976-.236 2.776-1.001.362-.348.725-.632.807-.632.08 0 .53-.402 1-.894.834-.875 1.2-1.638 1.45-3.024.099-.544.287-1.16.573-1.878.072-.18.21-.547.306-.816.096-.27.263-.71.37-.98.109-.27.287-.784.397-1.143.11-.359.46-1.388.78-2.286.33-.93.656-2.258.758-3.086.1-.8.24-1.571.313-1.714.073-.144.176-.493.23-.778.054-.284.36-.927.681-1.428.576-.9.594-.912 1.37-.912.544 0 .866.089 1.047.289.45.498.925 1.725.928 2.405.005.903-.382 2.838-.685 3.428-.139.27-.304.802-.367 1.183-.064.381-.176.73-.25.777-.074.046-.184.374-.245.73-.06.356-.236.815-.39 1.02-.298.392-1.161 2.322-1.161 2.594 0 .34-1.59 2.676-2.327 3.417-.426.43-.775.891-.775 1.027 0 .135-.189.383-.42.55-.485.355-.664 1.235-.488 2.406l.111.746h.796c.762 0 .836-.043 1.775-1.02.54-.562 1.23-1.389 1.536-1.838.564-.83 1.424-2.789 1.424-3.244 0-.319.93-.505 1.814-.364.71.114 1.728-.241 2.667-.93.275-.202.72-.471.989-.6a4.28 4.28 0 00.816-.521c.18-.159.57-.493.866-.743.303-.256.603-.705.685-1.026.219-.855.75-2.571 1.127-3.647.184-.524.382-1.332.438-1.795.24-1.958 1.4-4.231 2.269-4.45.188-.047.538-.011.776.08.704.267.989.882 1.071 2.313.066 1.134.008 1.499-.471 3.007-.3.944-.604 1.716-.674 1.716-.07 0-.128.08-.128.177 0 .202-.967 1.432-1.757 2.236-.833.847-1.834 2.165-1.834 2.414 0 .125-.147.467-.326.761-.18.294-.327.648-.327.787 0 .14-.256.653-.568 1.143-.33.518-.569 1.104-.571 1.4-.002.281-.12.832-.26 1.225-.322.897-.185 2.512.296 3.502.184.378.29.806.234.95-.123.32-.91.35-1.32.05-.41-.3-.914-1.828-.914-2.77 0-1.16.457-3.023.97-3.956.602-1.093.752-1.714.414-1.714-.254 0-2.862 1.292-3.017 1.495-.045.059-.375.155-.734.213-1.331.217-1.354.23-1.788 1.108-.63 1.276-1.264 2.31-1.503 2.455-.117.07-.438.456-.713.857-.276.4-.603.729-.726.729-.124 0-.432.206-.686.458-.254.252-.572.512-.707.578-.134.066-.428.226-.653.355-1.03.596-2.142-.003-2.81-1.512-.168-.383-.386-.696-.482-.696-.169 0-1.766 1.098-1.934 1.33-.163.225-1.566.666-2.645.832-1.363.21-1.81.049-2.918-1.048-.797-.789-.803-.802-.803-1.852 0-.656-.067-1.058-.178-1.058-.098 0-.52.294-.939.652-2.116 1.815-2.7 2.287-2.829 2.287-.077 0-.539.265-1.026.589-.735.487-1.105.612-2.161.73-.701.079-1.458.183-1.683.233-.225.049-.96-.028-1.633-.17-1.946-.413-1.993-.407-2.16.25-.175.688-.87 2.474-1.27 3.266-.407.803-.81 1.984-1.207 3.537-.188.734-.397 1.389-.464 1.456a.54.54 0 00-.123.334c0 .317-.858 1.675-1.123 1.776-.126.049-.408-.026-.518-.171-.301-.4-.133-1.007-.061-1.503z"/></svg>