<svg xmlns="http://www.w3.org/2000/svg" height="17.313" width="13.275"><path d="M5.22 15.715c1.213-.69 4.018-4.458 4.043-5.431.005-.18.126-.547.27-.817.248-.467.713-1.886 1.256-3.836.27-.968.486-2.461.508-3.51l.014-.654-1.022.04c-.993.038-1.453.245-2.901 1.307-.093.067-.45.268-.795.444-.344.177-.664.42-.71.54-.046.12-.441.563-.878.984-.437.422-.795.886-.796 1.03 0 .146-.143.446-.318.668-.464.59-1.315 2.183-1.315 2.462 0 .132-.257.877-.572 1.657-.47 1.17-.571 1.626-.571 2.608 0 1.572.217 2.15.957 2.555.467.255.794.307 1.53.242.516-.045 1.1-.175 1.3-.289zm7.157-10.39c-.112.493-.331 1.266-.331 1.48 0 .214-.267 1.011-.592 1.77-.325.76-.685 1.787-.8 2.28a48.975 48.975 0 01-.418 1.662c-.187.676-.175.87.106 1.698.199.589.482 1.058.765 1.267.709.525.522 1.414-.296 1.414-.534 0-1.1-.528-1.547-1.447-.282-.58-.5-.827-.728-.828-.18-.002-.84.48-1.47 1.07-.628.59-1.292 1.175-1.475 1.298-.364.247-2.158.398-3.387.286-.71-.064-.831-.14-1.338-.837-.306-.421-.643-1.078-.75-1.46-.256-.912-.075-2.717.421-4.201.21-.63.5-1.568.644-2.084.144-.517.324-.94.4-.94.076 0 .229-.216.338-.48.206-.498 1.351-2.29 1.831-2.866.15-.18.468-.566.706-.857.24-.292.517-.531.618-.531.1 0 .37-.19.598-.424C6.295 1.958 7.762.94 8.776.443 9.545.066 9.886 0 11.09 0c1.903 0 1.812.94 2.098 1.82.37 1.14-.545 2.336-.811 3.505z"/></svg>