<?xml version="1.0" encoding="UTF-8" standalone="no"?>
<svg
   xmlns:dc="http://purl.org/dc/elements/1.1/"
   xmlns:cc="http://creativecommons.org/ns#"
   xmlns:rdf="http://www.w3.org/1999/02/22-rdf-syntax-ns#"
   xmlns:svg="http://www.w3.org/2000/svg"
   xmlns="http://www.w3.org/2000/svg"
   id="svg2663"
   viewBox="0 0 13.275174 17.312868"
   version="1.1"
   height="17.312868"
   width="13.275174">
  <defs
     id="defs2667" />
  <metadata
     id="metadata2">
    <rdf:RDF>
      <cc:Work
         rdf:about="">
        <dc:format>image/svg+xml</dc:format>
        <dc:type
           rdf:resource="http://purl.org/dc/dcmitype/StillImage" />
        <dc:title />
      </cc:Work>
    </rdf:RDF>
  </metadata>
  <g
     transform="translate(-424.68941,-272.41495)"
     id="g2661">
    <g
       style="stroke-width:0.16327"
       id="g2557">
      <path
         d="m 429.91,288.13 c 1.2126,-0.69019 4.017,-4.458 4.0425,-5.4313 0.005,-0.17959 0.12585,-0.54694 0.26915,-0.81633 0.24844,-0.46702 0.71355,-1.8867 1.257,-3.8367 0.26964,-0.96754 0.48559,-2.461 0.50758,-3.5102 l 0.0137,-0.65306 -1.0218,0.0391 c -0.9927,0.038 -1.453,0.24541 -2.901,1.3073 -0.0923,0.0676 -0.44975,0.26772 -0.79442,0.4446 -0.34467,0.17688 -0.66429,0.41964 -0.71028,0.53948 -0.046,0.11984 -0.44116,0.56287 -0.87818,0.98452 -0.43702,0.42165 -0.79497,0.88531 -0.79546,1.0303 0,0.14504 -0.14372,0.4453 -0.31832,0.66726 -0.46404,0.58994 -1.3152,2.183 -1.3152,2.4616 0,0.13197 -0.25714,0.87777 -0.57143,1.6574 -0.4713,1.1691 -0.57143,1.6261 -0.57143,2.6084 0,1.5716 0.21675,2.1504 0.95657,2.5544 0.46743,0.25523 0.79458,0.30702 1.5311,0.2424 0.51515,-0.0452 1.1001,-0.17527 1.3,-0.28901 z m 7.1566,-10.39 c -0.11222,0.49299 -0.33143,1.2662 -0.33143,1.4802 0,0.21393 -0.26629,1.0107 -0.59174,1.7706 -0.32545,0.75988 -0.68509,1.7857 -0.7992,2.2796 -0.1141,0.49388 -0.30243,1.2415 -0.41848,1.6614 -0.18696,0.67634 -0.17494,0.87004 0.10532,1.6981 0.19922,0.58864 0.48258,1.0578 0.76532,1.2673 0.70872,0.525 0.52239,1.414 -0.29634,1.414 -0.53389,0 -1.0987,-0.52873 -1.5464,-1.4475 -0.28253,-0.57993 -0.49935,-0.82627 -0.72873,-0.82798 -0.17978,-0.002 -0.84022,0.47985 -1.4694,1.0706 -0.62857,0.59017 -1.2922,1.1742 -1.4748,1.2978 -0.36396,0.24642 -2.1587,0.39812 -3.3874,0.28632 l -5.3e-4,2.9e-4 c -0.71009,-0.0646 -0.83079,-0.14021 -1.337,-0.83738 -0.30602,-0.42149 -0.64386,-1.0784 -0.75075,-1.4599 -0.25586,-0.91298 -0.0748,-2.7174 0.42158,-4.2016 0.21073,-0.63009 0.50052,-1.5681 0.64398,-2.0844 0.14346,-0.51632 0.32333,-0.93877 0.39973,-0.93877 0.0764,0 0.22868,-0.21675 0.33841,-0.48167 0.20598,-0.49727 1.3511,-2.2891 1.8311,-2.8653 0.14962,-0.17959 0.46735,-0.56531 0.70604,-0.85714 0.23871,-0.29184 0.51654,-0.53062 0.61742,-0.53062 0.10088,0 0.36986,-0.19079 0.59773,-0.42398 0.62296,-0.63749 2.0902,-1.6546 3.1045,-2.1522 0.76859,-0.37698 1.1099,-0.44233 2.3135,-0.44282 1.9035,0 1.8119,0.93936 2.0983,1.8198 0.37101,1.1405 -0.54471,2.336 -0.81089,3.5053 z"
         id="add" />
    </g>
  </g>
</svg>
