<?xml version="1.0" encoding="UTF-8" standalone="no"?>
<svg
   xmlns:dc="http://purl.org/dc/elements/1.1/"
   xmlns:cc="http://creativecommons.org/ns#"
   xmlns:rdf="http://www.w3.org/1999/02/22-rdf-syntax-ns#"
   xmlns:svg="http://www.w3.org/2000/svg"
   xmlns="http://www.w3.org/2000/svg"
   id="svg2663"
   viewBox="0 0 17.37741 21.632914"
   version="1.1"
   height="21.632914"
   width="17.377411">
  <defs
     id="defs2667" />
  <metadata
     id="metadata2">
    <rdf:RDF>
      <cc:Work
         rdf:about="">
        <dc:format>image/svg+xml</dc:format>
        <dc:type
           rdf:resource="http://purl.org/dc/dcmitype/StillImage" />
        <dc:title />
      </cc:Work>
    </rdf:RDF>
  </metadata>
  <g
     transform="translate(-426.21669,-295.5042)"
     id="g2661">
    <g
       style="stroke-width:0.16327"
       id="g2557">
      <path
         d="m 430.99,311.35 c 0.85375,-0.38748 3.5646,-3.1144 4.0904,-4.1146 0.20308,-0.3863 0.56783,-1.033 0.81054,-1.4371 0.49796,-0.82901 0.84578,-1.7435 0.84578,-2.2238 0,-0.17769 0.0687,-0.39289 0.15269,-0.4782 0.19682,-0.19993 0.8377,-2.4091 0.94491,-3.2571 0.0454,-0.35919 0.0925,-1.0188 0.10474,-1.4657 0.0219,-0.80266 0.0132,-0.81731 -0.70181,-1.193 -0.57303,-0.30106 -1.0155,-0.38692 -2.1224,-0.41185 -1.2988,-0.0293 -1.4403,0 -1.9853,0.41747 -0.32275,0.24693 -0.64494,0.44898 -0.71596,0.44898 -0.071,0 -0.29723,0.1653 -0.50268,0.36734 -0.20545,0.20204 -0.59959,0.53824 -0.87587,0.74712 -0.27628,0.20887 -0.50232,0.47912 -0.50232,0.60057 0,0.12146 -0.1281,0.34893 -0.28467,0.5055 -0.43299,0.433 -0.59262,0.72774 -1.5384,2.8407 -0.64072,1.4315 -0.59352,1.2748 -0.98369,3.2653 -0.32744,1.6704 -0.11144,3.1272 0.61027,4.1158 0.21571,0.29548 0.46647,0.70451 0.55724,0.90895 0.31089,0.70015 1.0663,0.83117 2.0965,0.36364 z m -2.7838,0.87865 c -0.51633,-0.42476 -0.93877,-0.86763 -0.93877,-0.98418 0,-0.11654 -0.23878,-0.67328 -0.53062,-1.2372 -0.49351,-0.95361 -0.52976,-1.1337 -0.51854,-2.5763 0.0108,-1.3828 0.0844,-1.7547 0.67912,-3.4286 0.77627,-2.185 1.1743,-3.151 1.3452,-3.2653 0.16813,-0.1124 0.65749,-1.0856 0.65749,-1.3076 0,-0.27228 1.2796,-1.5836 2.2041,-2.2587 0.44898,-0.32788 0.94586,-0.7053 1.1042,-0.83874 0.15834,-0.13342 0.67262,-0.3703 1.1429,-0.5264 1.1757,-0.39027 4.2376,-0.4051 4.9366,-0.0239 0.26939,0.14689 0.76531,0.40531 1.102,0.57424 0.59755,0.29979 0.61224,0.32901 0.61224,1.2174 0,0.50067 -0.10762,1.1418 -0.23917,1.4248 -0.22316,0.48007 -0.31085,0.78656 -0.74277,2.5961 -0.0911,0.38163 -0.26665,0.95102 -0.39013,1.2653 -0.12347,0.31428 -0.35327,1.1585 -0.51064,1.8761 -0.15739,0.71757 -0.3422,1.4155 -0.41069,1.551 -0.0685,0.13548 -0.20232,0.90756 -0.29736,1.7157 -0.17499,1.488 -0.0786,2.6433 0.27496,3.2954 0.29797,0.54957 0.23784,1.2513 -0.12673,1.479 -0.74398,0.46464 -1.4175,-0.52356 -1.6828,-2.4689 -0.1059,-0.77655 -0.27066,-1.4075 -0.36755,-1.4075 -0.0966,0 -0.57725,0.42245 -1.0681,0.93878 -1.9772,2.0797 -3.2124,2.8989 -4.6426,3.0793 -0.59253,0.0747 -0.74122,0.0103 -1.5923,-0.68981 z m 6.2612,4.73 c -0.44168,-0.30936 -0.43492,-0.62834 0.0201,-0.94702 0.27036,-0.18937 0.7839,-0.25416 2.0148,-0.25416 0.99272,0 2.265,-0.12578 3.1882,-0.31516 3.1226,-0.64062 3.9036,-0.6113 3.9036,0.14659 0,0.56916 -0.54835,0.82436 -1.9756,0.91945 -0.75424,0.0503 -1.8856,0.19126 -2.5142,0.31337 -1.8214,0.35383 -4.2258,0.42483 -4.6368,0.13693 z"
         id="added" />
    </g>
  </g>
</svg>
