<svg xmlns="http://www.w3.org/2000/svg" height="21.633" width="17.377"><path d="M4.773 15.846c.854-.388 3.565-3.115 4.09-4.115.204-.386.569-1.033.811-1.437.498-.829.846-1.743.846-2.224 0-.177.069-.393.153-.478.197-.2.837-2.409.945-3.257.045-.36.092-1.019.104-1.466.022-.802.014-.817-.701-1.193-.573-.3-1.016-.387-2.123-.412-1.299-.029-1.44 0-1.985.418-.323.247-.645.449-.716.449-.071 0-.297.165-.503.367-.205.202-.6.538-.876.747-.276.21-.502.48-.502.6 0 .122-.128.35-.285.506-.433.433-.592.728-1.538 2.841-.64 1.432-.594 1.275-.984 3.265-.327 1.67-.111 3.128.61 4.116.216.296.467.705.558.91.31.7 1.066.83 2.096.363zm-2.783.878c-.517-.424-.94-.867-.94-.984 0-.116-.238-.673-.53-1.237-.493-.954-.53-1.134-.518-2.576.01-1.383.084-1.755.679-3.429.776-2.185 1.174-3.15 1.345-3.265.168-.113.657-1.086.657-1.308 0-.272 1.28-1.583 2.204-2.258.45-.328.946-.706 1.105-.84.158-.133.672-.37 1.143-.526 1.175-.39 4.237-.405 4.936-.023.27.146.765.405 1.102.574.598.3.612.329.612 1.217 0 .5-.107 1.142-.239 1.425-.223.48-.31.787-.743 2.596-.09.382-.266.951-.39 1.265-.123.315-.353 1.159-.51 1.876-.158.718-.342 1.416-.411 1.551-.068.136-.202.908-.297 1.716-.175 1.488-.079 2.643.275 3.296.298.55.237 1.25-.127 1.479-.744.464-1.418-.524-1.683-2.47-.106-.776-.27-1.407-.367-1.407-.097 0-.578.423-1.069.939-1.977 2.08-3.212 2.899-4.642 3.08-.593.074-.741.01-1.592-.69zm6.26 4.73c-.441-.309-.434-.628.02-.947.271-.189.785-.254 2.016-.254.992 0 2.265-.126 3.188-.315 3.122-.64 3.903-.611 3.903.147 0 .569-.548.824-1.975.92a24.64 24.64 0 00-2.514.313c-1.822.353-4.226.424-4.637.136z" stroke-width=".163"/></svg>