<?xml version="1.0" encoding="UTF-8" standalone="no"?>
<svg
   xmlns:dc="http://purl.org/dc/elements/1.1/"
   xmlns:cc="http://creativecommons.org/ns#"
   xmlns:rdf="http://www.w3.org/1999/02/22-rdf-syntax-ns#"
   xmlns:svg="http://www.w3.org/2000/svg"
   xmlns="http://www.w3.org/2000/svg"
   id="svg2663"
   viewBox="0 0 25.994233 28.392918"
   version="1.1"
   height="28.392918"
   width="25.994234">
  <defs
     id="defs2667" />
  <metadata
     id="metadata2">
    <rdf:RDF>
      <cc:Work
         rdf:about="">
        <dc:format>image/svg+xml</dc:format>
        <dc:type
           rdf:resource="http://purl.org/dc/dcmitype/StillImage" />
        <dc:title />
      </cc:Work>
    </rdf:RDF>
  </metadata>
  <g
     transform="translate(-437.99491,-341.73226)"
     id="g2661">
    <g
       style="stroke-width:0.16327"
       id="g2557">
      <path
         d="m 443.7,358.07 c 0.47858,-0.51117 1.0145,-1.2233 1.191,-1.5824 0.17649,-0.35919 0.72673,-1.276 1.2227,-2.0372 0.496,-0.76131 0.90181,-1.4606 0.90181,-1.554 0,-0.0934 0.18367,-0.44004 0.40816,-0.77041 0.22449,-0.33037 0.40816,-0.75011 0.40816,-0.93277 0,-0.18266 0.21501,-0.79268 0.4778,-1.3556 0.86745,-1.8582 1.1171,-2.637 1.417,-4.4199 0.36507,-2.1703 0.31232,-2.2986 -0.97297,-2.3669 -0.51539,-0.0274 -0.92188,0.0203 -0.92188,0.1081 0,0.0864 -0.30984,0.2094 -0.68853,0.27339 -0.37868,0.064 -0.95449,0.28421 -1.2795,0.48942 -1.1534,0.72806 -4.1851,4.0845 -4.4609,4.9385 -0.0788,0.24399 -0.27626,0.59053 -0.43884,0.77013 -0.39734,0.43889 -0.96092,1.7065 -0.96536,2.1714 -0.002,0.20649 -0.12757,0.61057 -0.27912,0.89795 -0.40783,0.77342 -0.41511,4.2705 -0.0101,4.8901 0.15714,0.24047 0.28572,0.57774 0.28572,0.7495 0,0.37793 0.36607,0.70264 1.0452,0.92717 0.79995,0.26447 1.6496,-0.1178 2.6596,-1.1965 z m -3.7394,2.3156 c -1.2708,-0.9042 -1.9354,-2.5538 -1.9652,-4.8777 -0.0172,-1.3475 0.41669,-3.6443 0.86567,-4.5822 0.17478,-0.36509 0.31776,-0.73941 0.31776,-0.83184 0,-0.0924 0.14694,-0.30102 0.32653,-0.46355 0.1796,-0.16253 0.32653,-0.37839 0.32653,-0.47969 0,-0.19904 1.7128,-2.5723 2.8247,-3.914 2.0683,-2.4957 4.741,-3.7982 7.0752,-3.4482 1.087,0.163 1.8552,1.0145 1.8552,2.0564 0,0.54845 -0.45636,2.4984 -0.9719,4.1528 -0.16789,0.53878 -0.34851,1.4496 -0.40139,2.0241 -0.0529,0.57448 -0.18005,1.1456 -0.28263,1.2692 -0.10256,0.12359 -0.27974,0.80705 -0.3937,1.5188 -0.11396,0.71175 -0.39739,1.7695 -0.62981,2.3505 -0.59115,1.4776 -0.55747,2.1933 0.15567,3.3081 0.71479,1.1174 0.8559,1.7096 0.48144,2.0203 -0.38031,0.31564 -0.9483,-0.0203 -1.6582,-0.98083 -0.77586,-1.0497 -0.87086,-1.3447 -0.87086,-2.7045 0,-0.66762 -0.0433,-1.2139 -0.0963,-1.2139 -0.17585,0 -0.70909,0.73073 -0.71484,0.97959 -0.003,0.1347 -0.30101,0.57551 -0.66201,0.97959 -0.36099,0.40408 -0.82008,0.97359 -1.0202,1.2656 -0.20011,0.29197 -0.4905,0.57182 -0.64529,0.6219 -0.15481,0.0501 -0.42372,0.2719 -0.5976,0.49295 -0.32013,0.40697 -1.5553,0.8799 -2.3066,0.88315 -0.22555,0.002 -0.68106,-0.19104 -1.0122,-0.42668 z m 19.845,-2.3063 c 0.0514,-0.15715 0.29001,-0.61633 0.53016,-1.0204 0.83801,-1.41 1.7002,-3.1467 1.7002,-3.4248 0,-0.15411 0.11054,-0.5018 0.24568,-0.77266 0.15415,-0.30901 0.26059,-1.0614 0.28571,-2.0199 0.0339,-1.2918 0,-1.5356 -0.22209,-1.5808 -0.19575,-0.0399 -0.33183,0.19503 -0.53755,0.92822 -0.15149,0.53992 -0.33747,1.02 -0.41326,1.0668 -0.0758,0.0469 -0.18961,0.3615 -0.25293,0.69923 -0.0633,0.33771 -0.21758,0.79771 -0.34282,1.0222 -0.32114,0.57569 -0.71891,1.7236 -0.96168,2.7755 -0.11398,0.49388 -0.28994,1.1918 -0.39101,1.551 -0.10106,0.35918 -0.18416,0.74489 -0.18465,0.85714 -0.002,0.30975 0.43778,0.24388 0.54429,-0.0816 z m -11.95,11.55 c -0.60002,-0.57341 -0.59533,-0.53473 -0.25716,-2.121 0.84302,-3.9544 1.4694,-5.4864 2.1875,-5.3506 0.32243,0.061 0.40904,0.81925 0.1487,1.3016 -0.19775,0.3664 -0.7481,3.089 -0.91393,4.5212 l -0.083,0.71718 0.76541,-0.0863 c 0.52227,-0.0589 0.9069,-0.22186 1.2109,-0.51309 0.24503,-0.23476 0.51621,-0.42683 0.60264,-0.42683 0.0864,0 0.52322,-0.31708 0.97066,-0.70462 0.44743,-0.38756 1.1578,-0.9389 1.5787,-1.2252 0.42085,-0.28633 1.0332,-0.84761 1.3606,-1.2473 0.69021,-0.84232 1.5053,-2.9289 1.7883,-4.578 0.10786,-0.62857 0.3509,-1.5102 0.54006,-1.9592 0.18916,-0.449 0.53905,-1.5143 0.77752,-2.3674 0.23848,-0.85306 0.69371,-2.249 1.0117,-3.102 0.31792,-0.85306 0.65218,-1.7714 0.74277,-2.0408 0.30888,-0.91841 0.40261,-1.1432 0.93367,-2.239 0.29216,-0.60285 0.66555,-1.2177 0.82973,-1.3663 0.37961,-0.34354 1.0485,-0.1953 1.3082,0.28993 0.28768,0.53751 0.62381,2.0833 0.63034,2.8987 0.0108,1.3531 -0.36196,3.5147 -0.75042,4.3513 -0.21265,0.45792 -0.38663,0.91332 -0.38663,1.012 0,0.0987 -0.18367,0.3776 -0.40816,0.61982 -0.22449,0.24224 -0.40816,0.56637 -0.40816,0.72033 0,0.15394 -0.18714,0.55567 -0.41587,0.89272 -0.22872,0.33704 -0.70506,1.1232 -1.0585,1.7469 -0.35347,0.62375 -0.86428,1.3557 -1.1352,1.6266 -0.27088,0.27085 -0.49249,0.58423 -0.49249,0.69636 0,0.11213 -0.17994,0.37291 -0.39986,0.57952 -0.54349,0.5106 -0.89092,1.6125 -1.0041,3.1846 -0.0913,1.2686 -0.0772,1.3399 0.41875,2.1083 0.66498,1.0304 0.6314,1.6325 -0.095,1.7032 -0.40178,0.0391 -0.59829,-0.0569 -0.93448,-0.45641 -0.38763,-0.46065 -0.52799,-0.82707 -0.82921,-2.1646 -0.13533,-0.60091 -0.65706,-0.58316 -1.3948,0.0475 -0.31089,0.26575 -0.65729,0.48317 -0.76976,0.48317 -0.11249,0 -0.28658,0.15335 -0.38689,0.34078 -0.20536,0.38369 -1.1457,1.2798 -1.3507,1.2871 -0.0736,0.003 -0.44097,0.21353 -0.81633,0.46868 -1.4596,0.99215 -2.7135,1.1174 -3.5154,0.35101 z"
         id="additional" />
    </g>
  </g>
</svg>
