<svg xmlns="http://www.w3.org/2000/svg" height="25.584" width="12.937"><path d="M5.027 15.21c.624-.408 1.255-.926 1.404-1.153.148-.227.461-.617.695-.868.235-.25.64-.889.9-1.419.262-.53.714-1.367 1.005-1.861.55-.931.963-2.145 1.447-4.245.156-.674.43-1.652.61-2.175.544-1.582.172-2.113-1.498-2.135-.669-.01-1.029.077-1.39.331-.268.19-.782.5-1.14.689-1.02.537-3.511 3.06-3.511 3.555 0 .083-.24.516-.532.963-.518.794-.805 1.4-1.332 2.816-.398 1.072-.363 4.415.054 5.194.706 1.316 1.612 1.4 3.288.307zM1.59 16.781C.729 16.233.44 15.81.242 14.807-.26 12.273.034 9.579.986 7.98c.866-1.452.925-1.572.928-1.859.002-.151.079-.323.172-.38.093-.058.352-.395.575-.748.495-.783 2.219-2.495 3.04-3.019.331-.21.735-.526.898-.701.163-.175.609-.435.99-.577C7.972.555 8.597.323 8.978.18c.909-.34 2-.196 3.11.409l.85.462-.033 1.204c-.033 1.198-.657 3.845-1.127 4.776-.13.258-.317.993-.416 1.633-.1.64-.354 1.801-.568 2.582-.233.856-.387 1.866-.387 2.549 0 1.01.052 1.196.49 1.746.57.72.63 1.302.157 1.555-.48.257-.877.072-1.367-.635-.505-.73-.75-1.494-.75-2.347 0-.505-.057-.613-.326-.613-.18 0-.327.066-.327.147 0 .081-.614.753-1.365 1.492-2.125 2.091-3.808 2.61-5.328 1.641zm8.58 8.652c-.213-.345.03-2.403.363-3.069.08-.16.234-.734.342-1.272.48-2.402.65-2.695 1.234-2.111.286.287.347 1.52.111 2.29-.08.26-.274 1.061-.432 1.78-.586 2.666-.53 2.53-1.052 2.53-.26 0-.515-.067-.566-.148z" stroke-width=".163"/></svg>