<svg xmlns="http://www.w3.org/2000/svg" height="28.393" width="25.994"><path d="M5.705 16.338c.479-.511 1.015-1.224 1.191-1.583.177-.359.727-1.276 1.223-2.037.496-.761.902-1.46.902-1.554 0-.093.183-.44.408-.77.224-.33.408-.75.408-.933 0-.183.215-.793.478-1.356.867-1.858 1.117-2.637 1.417-4.42.365-2.17.312-2.298-.973-2.366-.516-.028-.922.02-.922.108 0 .086-.31.21-.689.273a4.17 4.17 0 00-1.28.49c-1.153.728-4.184 4.084-4.46 4.938-.079.244-.276.59-.439.77-.397.439-.96 1.707-.965 2.171-.002.207-.128.611-.28.898-.407.774-.414 4.27-.01 4.89.158.241.286.578.286.75 0 .378.366.703 1.045.927.8.265 1.65-.118 2.66-1.196zm-3.74 2.315C.696 17.75.03 16.1 0 13.776c-.017-1.348.417-3.645.866-4.583.175-.365.318-.739.318-.831 0-.093.147-.301.326-.464.18-.162.327-.378.327-.48 0-.199 1.713-2.572 2.825-3.914C6.73 1.01 9.402-.294 11.737.056c1.087.163 1.855 1.015 1.855 2.057 0 .548-.456 2.498-.972 4.152-.168.54-.348 1.45-.401 2.024-.053.575-.18 1.146-.283 1.27-.102.123-.28.807-.394 1.518-.114.712-.397 1.77-.63 2.351-.59 1.478-.557 2.193.156 3.308.715 1.117.856 1.71.482 2.02-.38.316-.949-.02-1.658-.98-.776-1.05-.871-1.345-.871-2.705 0-.668-.044-1.214-.097-1.214-.175 0-.709.73-.714.98-.003.134-.301.575-.662.98-.361.403-.82.973-1.02 1.265-.2.292-.491.572-.646.622-.155.05-.424.272-.598.493-.32.407-1.555.88-2.306.883-.226.002-.681-.191-1.012-.427zm19.846-2.306c.051-.157.29-.616.53-1.02.838-1.41 1.7-3.147 1.7-3.425 0-.154.11-.502.246-.773.154-.309.26-1.061.285-2.02.034-1.292 0-1.535-.222-1.58-.195-.04-.331.195-.537.928-.152.54-.338 1.02-.413 1.066-.076.047-.19.362-.253.7-.064.337-.218.797-.343 1.022-.321.576-.72 1.724-.962 2.775-.114.494-.29 1.192-.39 1.551-.102.36-.185.745-.186.858-.002.31.438.243.545-.082zM9.86 27.897c-.6-.573-.596-.535-.257-2.121.843-3.954 1.469-5.486 2.187-5.35.322.06.41.819.149 1.301-.198.366-.748 3.089-.914 4.521l-.083.717.765-.086c.522-.059.907-.222 1.211-.513.245-.235.516-.427.603-.427.086 0 .523-.317.97-.704a20.879 20.879 0 011.58-1.226 7.768 7.768 0 001.36-1.247c.69-.842 1.505-2.929 1.788-4.578.108-.628.35-1.51.54-1.96.19-.448.54-1.513.778-2.367.238-.853.693-2.249 1.011-3.102.318-.853.652-1.77.743-2.04.309-.919.403-1.144.934-2.24.292-.602.665-1.217.83-1.366.38-.343 1.048-.195 1.308.29.287.538.623 2.084.63 2.899.01 1.353-.362 3.515-.75 4.351-.213.458-.387.914-.387 1.012 0 .099-.184.378-.408.62-.225.242-.408.566-.408.72 0 .154-.188.556-.416.893a32.78 32.78 0 00-1.059 1.747c-.353.624-.864 1.356-1.135 1.627-.27.27-.492.584-.492.696 0 .112-.18.373-.4.58-.544.51-.891 1.612-1.004 3.184-.092 1.269-.078 1.34.418 2.108.665 1.03.632 1.633-.095 1.704-.401.039-.598-.057-.934-.457-.388-.46-.528-.827-.83-2.164-.135-.601-.656-.584-1.394.047-.311.266-.657.483-.77.483-.112 0-.286.154-.387.341-.205.384-1.145 1.28-1.35 1.287-.074.003-.441.214-.817.469-1.46.992-2.713 1.117-3.515.35z" stroke-width=".163"/></svg>