<?xml version="1.0" encoding="UTF-8" standalone="no"?>
<svg
   xmlns:dc="http://purl.org/dc/elements/1.1/"
   xmlns:cc="http://creativecommons.org/ns#"
   xmlns:rdf="http://www.w3.org/1999/02/22-rdf-syntax-ns#"
   xmlns:svg="http://www.w3.org/2000/svg"
   xmlns="http://www.w3.org/2000/svg"
   id="svg2663"
   viewBox="0 0 12.936588 25.583511"
   version="1.1"
   height="25.583511"
   width="12.936588">
  <defs
     id="defs2667" />
  <metadata
     id="metadata2">
    <rdf:RDF>
      <cc:Work
         rdf:about="">
        <dc:format>image/svg+xml</dc:format>
        <dc:type
           rdf:resource="http://purl.org/dc/dcmitype/StillImage" />
        <dc:title />
      </cc:Work>
    </rdf:RDF>
  </metadata>
  <g
     transform="translate(-425.3532,-318.91075)"
     id="g2661">
    <g
       style="stroke-width:0.16327"
       id="g2557">
      <path
         d="m 430.38,334.12 c 0.62376,-0.40717 1.2556,-0.92574 1.4041,-1.1524 0.1485,-0.22666 0.4615,-0.61707 0.69559,-0.86766 0.23409,-0.2506 0.63913,-0.88918 0.9001,-1.4191 0.26096,-0.52991 0.71298,-1.3675 1.0045,-1.8614 0.54932,-0.93068 0.96308,-2.1442 1.4474,-4.2449 0.15527,-0.67347 0.42954,-1.6522 0.60947,-2.1749 0.54436,-1.5814 0.17169,-2.1124 -1.4982,-2.1351 -0.66832,-0.009 -1.0286,0.0769 -1.3899,0.33166 -0.26825,0.18916 -0.7816,0.49886 -1.1408,0.68823 -1.0196,0.53755 -3.5102,3.0604 -3.5102,3.5556 0,0.0826 -0.23912,0.51583 -0.5314,0.96277 -0.51889,0.79349 -0.80561,1.3997 -1.332,2.8159 -0.39825,1.0716 -0.36369,4.415 0.0537,5.1937 0.7055,1.3163 1.6123,1.4012 3.2876,0.30755 z m -3.4372,1.5723 c -0.86107,-0.54841 -1.1493,-0.97061 -1.348,-1.9748 -0.50149,-2.5337 -0.20751,-5.2282 0.74477,-6.8262 0.86524,-1.4519 0.92486,-1.5713 0.92738,-1.8581 0.002,-0.15183 0.0788,-0.32333 0.17227,-0.38106 0.0934,-0.0577 0.35233,-0.39399 0.5753,-0.74721 0.49434,-0.78309 2.2187,-2.4956 3.0399,-3.0191 0.33079,-0.21084 0.73487,-0.5265 0.89796,-0.70147 0.16308,-0.17497 0.60876,-0.43427 0.9904,-0.57622 0.38163,-0.14194 1.0061,-0.3748 1.3878,-0.51746 0.90818,-0.33951 2.0004,-0.19599 3.1104,0.40873 l 0.84881,0.46243 -0.0329,1.2043 c -0.0327,1.1974 -0.65709,3.8448 -1.1263,4.7755 -0.13009,0.25803 -0.3175,0.99272 -0.41647,1.6327 -0.099,0.63993 -0.35434,1.8018 -0.56746,2.582 -0.23395,0.85637 -0.3875,1.8664 -0.3875,2.549 0,1.0103 0.0521,1.196 0.4898,1.7468 0.57115,0.71871 0.63002,1.3012 0.15709,1.5543 -0.47988,0.25683 -0.87637,0.0727 -1.3667,-0.63482 -0.50527,-0.72911 -0.74962,-1.4941 -0.74962,-2.347 0,-0.50448 -0.0579,-0.61332 -0.32653,-0.61332 -0.17959,0 -0.32653,0.0664 -0.32653,0.14751 0,0.0811 -0.61453,0.7525 -1.3656,1.4919 -2.1245,2.0915 -3.8076,2.61 -5.3283,1.6415 z m 8.5804,8.6521 c -0.21305,-0.34472 0.0303,-2.4025 0.36279,-3.0682 0.0806,-0.16131 0.2345,-0.73409 0.34206,-1.2729 0.47951,-2.4019 0.6503,-2.6941 1.2337,-2.1108 0.28692,0.28692 0.34712,1.5212 0.11171,2.2905 -0.0797,0.26032 -0.27409,1.0611 -0.43205,1.7795 -0.58624,2.6663 -0.5298,2.5306 -1.0524,2.5306 -0.26064,0 -0.51522,-0.0669 -0.56576,-0.14869 z"
         id="addition" />
    </g>
  </g>
</svg>
