<svg xmlns="http://www.w3.org/2000/svg" height="18.342" width="31.571"><path d="M29.227 15.44c.3-.183.587-.539.689-.856.178-.557.183-4.437.005-4.615-.195-.195-.577.093-1.214.913a27.566 27.566 0 01-1.422 1.653c-.427.452-.775.966-.775 1.142 0 .177.22.572.49.879.269.306.49.617.49.69 0 .16.636.483.979.497.134.006.476-.13.758-.302zM5.273 16.45c.411-.226.886-.53 1.055-.675.446-.384 1.57-1.931 1.57-2.162 0-.108.177-.5.395-.87.452-.773.996-2.312 1.257-3.56.099-.47.385-1.48.636-2.244.252-.763.547-1.792.657-2.286.11-.494.338-1.32.505-1.837.41-1.261.392-1.374-.24-1.583-.578-.19-2.135.031-2.32.331-.051.083-.261.15-.467.15-.731 0-2.452 1.481-3.32 2.857-.226.36-.732 1.14-1.124 1.737-.393.595-.714 1.191-.714 1.324 0 .132-.184.511-.408.842-.225.33-.408.694-.408.807a.6.6 0 01-.154.36c-.5.503-.85 4.484-.507 5.76.097.358.394.885.662 1.171.463.496.525.515 1.332.404a5.534 5.534 0 001.593-.527zm-3.15 1.72c-.697-.253-.946-.57-1.574-2.009-.541-1.24-.568-1.39-.543-3.018.026-1.587.072-1.818.63-3.102.333-.764.708-1.67.836-2.016.127-.346.484-.96.794-1.365.31-.406.653-.986.763-1.29.11-.305.252-.554.317-.554.064 0 .286-.273.492-.606.206-.333.487-.733.625-.888.138-.155.47-.547.736-.873C5.725 1.81 7.894.41 8.361.41c.158 0 .38-.093.492-.205C8.99.067 9.613 0 10.746 0c1.415 0 1.743.049 2.023.303.36.325.595 1.078.543 1.738-.056.713-1.305 4.774-1.826 5.94a7.953 7.953 0 00-.493 1.632c-.166 1.022-.404 2.073-.845 3.73-.541 2.042-.189 3.065 1.056 3.065.354 0 .838-.118 1.077-.262.46-.278 1.69-1.693 2.05-2.359.12-.22.474-.82.788-1.333.315-.514.621-1.24.68-1.613.134-.835.83-2.057 1.247-2.19.325-.103.853.112 1.355.55.165.144.677.3 1.14.347.835.084.841.089 1.304 1.026.507 1.025.513.858-.113 3.303-.325 1.268-.323 1.328.064 1.715.46.46 1.255.413 2.06-.123.713-.475 2.914-2.674 3.634-3.63.235-.314.622-.755.86-.98.237-.226.883-.983 1.436-1.682 1.141-1.446 1.605-1.748 2.198-1.43.52.278.587.712.587 3.809 0 2.46-.025 2.669-.413 3.49-.227.48-.508.872-.623.872-.116 0-.36.171-.541.38-.182.209-.675.476-1.096.594-.672.188-.84.18-1.373-.064-.668-.307-1.505-1.281-1.505-1.752 0-.475-.62-.365-1.309.23-.999.864-1.538 1.26-1.714 1.263-.09.002-.44.15-.775.329-.974.522-1.55.436-2.274-.34-.721-.774-.749-1.013-.36-3.131.332-1.807.254-2.132-.59-2.47-1.182-.473-1.516-.376-2.054.592-.261.47-.503.93-.537 1.02-.034.091-.17.29-.3.44a5.58 5.58 0 00-.51.754c-1.185 2.098-2.626 3.63-3.68 3.912-1.694.453-2.498.148-3.13-1.188-.233-.492-.501-.895-.596-.895-.096 0-.315.165-.488.367-.789.922-1.48 1.592-1.643 1.592-.098 0-.294.097-.435.217-.64.537-2.535.755-3.503.403z"/></svg>