<svg xmlns="http://www.w3.org/2000/svg" height="20.394" width="37.266"><path d="M30.732 14.975c.55-.537.675-1.024.791-3.088.1-1.755-.002-1.848-1.046-.975-.97.81-2.819 2.919-2.814 3.209.004.264 1.809 1.28 2.316 1.304.154.007.493-.195.753-.45zM4.985 16.668c.95-.435 2.671-2.017 3.509-3.222a7.42 7.42 0 00.788-1.573c.153-.462.347-.882.43-.933.082-.051.15-.208.15-.349 0-.22.703-2.109 1.387-3.725.361-.854.908-2.714 1.003-3.41.081-.6.042-.708-.375-1.015-.257-.188-.686-.385-.955-.437a14.92 14.92 0 01-1.18-.302c-.625-.188-.763-.174-1.412.14-.941.458-3.074 2.326-3.545 3.105a15.829 15.829 0 01-1.3 1.799c-.2.244-.639 1.632-.641 2.031-.002.153-.217.741-.48 1.306-.67 1.443-1.121 3.876-.919 4.955.071.379.36.81.871 1.3.91.87 1.367.928 2.67.33zm-2.794 1.393c-.403-.163-.844-.478-.98-.7-.136-.222-.44-.69-.678-1.04-.698-1.035-.706-1.702-.05-4.173a106.3 106.3 0 00.71-2.779c.179-.82.814-2.375 1.27-3.112.209-.335.379-.653.379-.707 0-.215 2.486-3.01 3.218-3.618C7.436.789 8.088.448 9.127.327c.54-.062 1.109-.18 1.266-.263.177-.091.522-.085.898.018.636.173 2.093 1.123 2.449 1.596.401.533.21 1.799-.686 4.535-.235.719-.588 1.82-.785 2.45-.196.628-.45 1.287-.566 1.464-.114.177-.21.581-.214.898-.003.317-.112 1.017-.242 1.556-.244 1.008-.313 2.657-.14 3.306.089.327.202.367 1.048.367.947 0 .95-.002 1.961-1.02.557-.562 1.111-1.253 1.232-1.536.121-.284.287-.541.369-.572.243-.091 1.29-1.54 1.752-2.422.236-.451.489-.857.562-.902.073-.045.18-.297.237-.559.058-.262.21-.563.337-.67.293-.243.963-.082 1.375.33.432.431 1.125.77 1.853.907.44.083.678.243.847.57.214.413.19.637-.26 2.446-.61 2.453-.593 2.677.198 2.743.438.037.799-.08 1.38-.45.431-.273.847-.498.923-.498.313 0 1.584-1.123 2.655-2.348 1.566-1.789 3.825-4.067 4.362-4.398 1.152-.712 1.27-.351 1.079 3.309-.146 2.789-.189 3.064-.577 3.727-.59 1.007-1.371 1.79-1.924 1.929-1.092.274-2.893-.638-3.077-1.557-.136-.68-.563-.651-1.685.114-1.197.816-1.137.787-2.284 1.108-1.12.313-1.872.242-2.496-.238-.328-.252-.398-.448-.394-1.099.003-.435.14-1.27.303-1.853.164-.583.304-1.312.312-1.618.013-.5-.061-.595-.72-.937-.923-.478-1.31-.433-1.628.188-.323.631-2.736 3.69-3.131 3.968-.167.118-.303.342-.303.5 0 .354-1.589 1.748-2.36 2.07-1.685.704-3.354-.151-3.354-1.72 0-1.176-.358-1.252-1.355-.288-1.279 1.238-2.696 2.408-2.918 2.411-.12.002-.51.108-.87.238-.864.31-1.478.294-2.365-.066zm25.297 2.212c-.445-.143-.565-.269-.565-.59 0-.408.005-.409 1.96-.51 2.05-.104 2.566-.186 3.51-.553.715-.278 4.146-.76 4.485-.63.139.053.297.278.353.5.168.668-.254.914-1.773 1.037-.743.06-2.233.261-3.31.447-2.522.436-3.954.528-4.66.3z"/></svg>