<?xml version="1.0" encoding="UTF-8" standalone="no"?>
<svg
   xmlns:dc="http://purl.org/dc/elements/1.1/"
   xmlns:cc="http://creativecommons.org/ns#"
   xmlns:rdf="http://www.w3.org/1999/02/22-rdf-syntax-ns#"
   xmlns:svg="http://www.w3.org/2000/svg"
   xmlns="http://www.w3.org/2000/svg"
   id="svg2663"
   viewBox="0 0 37.265643 20.394321"
   version="1.1"
   height="20.394321"
   width="37.265644">
  <defs
     id="defs2667" />
  <metadata
     id="metadata2">
    <rdf:RDF>
      <cc:Work
         rdf:about="">
        <dc:format>image/svg+xml</dc:format>
        <dc:type
           rdf:resource="http://purl.org/dc/dcmitype/StillImage" />
        <dc:title />
      </cc:Work>
    </rdf:RDF>
  </metadata>
  <g
     transform="translate(-426.05768,-390.44458)"
     id="g2661">
    <g
       style="stroke-width:0.16327"
       id="g2557">
      <path
         d="m 456.79,405.42 c 0.54957,-0.53722 0.67434,-1.0245 0.79083,-3.0888 0.099,-1.7545 -0.002,-1.8478 -1.0464,-0.97448 -0.96924,0.80978 -2.8188,2.9186 -2.8141,3.2086 0.004,0.26446 1.8089,1.2801 2.3167,1.3038 0.15406,0.007 0.49287,-0.19491 0.75293,-0.44913 z m -25.747,1.6928 c 0.94898,-0.43513 2.671,-2.0168 3.5084,-3.2224 0.27998,-0.40308 0.63458,-1.1108 0.788,-1.5727 0.15342,-0.4619 0.34679,-0.88176 0.42973,-0.93302 0.0829,-0.0512 0.15078,-0.20831 0.15078,-0.34902 0,-0.21978 0.70318,-2.1088 1.3866,-3.7249 0.36141,-0.85463 0.90813,-2.7138 1.0028,-3.41 0.0816,-0.60057 0.042,-0.70795 -0.37481,-1.0147 -0.25636,-0.18865 -0.68593,-0.38539 -0.9546,-0.43719 -0.26868,-0.0518 -0.80003,-0.18793 -1.1808,-0.30253 -0.62439,-0.18792 -0.76279,-0.17411 -1.4113,0.14096 -0.94117,0.45726 -3.0746,2.3252 -3.5454,3.1043 -0.32707,0.54118 -0.76085,1.1411 -1.3006,1.7989 -0.20007,0.24377 -0.63785,1.6324 -0.64038,2.0313 -0.002,0.15311 -0.2167,0.74087 -0.47943,1.3061 -0.67028,1.4422 -1.1218,3.8752 -0.91933,4.9543 0.0711,0.37896 0.35971,0.80947 0.87125,1.2997 0.9095,0.87151 1.3667,0.92818 2.6693,0.3309 z m -2.7946,1.393 c -0.40298,-0.16335 -0.8438,-0.47837 -0.97959,-0.70006 -0.13579,-0.22169 -0.44072,-0.69006 -0.67765,-1.0408 -0.69877,-1.0345 -0.70669,-1.7012 -0.0496,-4.1725 0.31874,-1.1987 0.63808,-2.4491 0.70966,-2.7785 0.17817,-0.82 0.81308,-2.3756 1.2702,-3.1121 0.2079,-0.33496 0.37801,-0.65308 0.37801,-0.70694 0,-0.21548 2.4862,-3.011 3.2182,-3.6186 1.3762,-1.1423 2.0281,-1.4833 3.0675,-1.6044 0.53878,-0.0628 1.1085,-0.18117 1.266,-0.26308 0.17616,-0.0916 0.52176,-0.0848 0.89795,0.0176 0.63525,0.17293 2.0929,1.1231 2.4483,1.5958 0.40127,0.53384 0.20997,1.7989 -0.68583,4.5356 -0.23515,0.71837 -0.58826,1.8204 -0.7847,2.449 -0.19644,0.62858 -0.45104,1.2878 -0.56577,1.4649 -0.11472,0.17713 -0.21121,0.58121 -0.21441,0.89796 -0.003,0.31675 -0.11226,1.0167 -0.24235,1.5555 -0.24343,1.0082 -0.31262,2.6572 -0.13873,3.3061 0.0878,0.32751 0.20132,0.36735 1.0471,0.36735 0.94685,0 0.95056,-0.002 1.961,-1.0204 0.55678,-0.56122 1.1113,-1.2524 1.2323,-1.5361 0.12099,-0.28361 0.28689,-0.54075 0.36867,-0.57143 0.24269,-0.0911 1.2908,-1.5402 1.7522,-2.4224 0.23576,-0.45087 0.48843,-0.85672 0.56151,-0.90189 0.0731,-0.0452 0.17998,-0.29661 0.23755,-0.55876 0.0576,-0.26216 0.20922,-0.56338 0.33698,-0.66942 0.29307,-0.24322 0.96294,-0.083 1.3748,0.32896 0.43169,0.43169 1.1245,0.77112 1.8527,0.90774 0.44078,0.0827 0.67823,0.24225 0.84744,0.56945 0.21355,0.41295 0.18975,0.63698 -0.25987,2.4462 -0.60956,2.4529 -0.59342,2.6768 0.19796,2.7429 0.43783,0.0366 0.79843,-0.0808 1.3789,-0.44898 0.43232,-0.27418 0.84823,-0.4985 0.92421,-0.4985 0.31267,0 1.5834,-1.1237 2.655,-2.348 1.5661,-1.789 3.8251,-4.0672 4.3616,-4.3986 1.1522,-0.71174 1.2698,-0.35084 1.0786,3.3088 -0.14573,2.7889 -0.18831,3.064 -0.57685,3.727 -0.59056,1.0077 -1.3711,1.7905 -1.9237,1.9292 -1.0916,0.27399 -2.8928,-0.63742 -3.0767,-1.5568 -0.13598,-0.67992 -0.56321,-0.65104 -1.6854,0.11388 -1.1967,0.8157 -1.1372,0.78687 -2.2843,1.1079 -1.12,0.31347 -1.8721,0.24178 -2.496,-0.23791 -0.32776,-0.25197 -0.39775,-0.44756 -0.39318,-1.0985 0.003,-0.43555 0.13938,-1.2695 0.30293,-1.8532 0.16354,-0.58368 0.30373,-1.3117 0.31154,-1.6179 0.0127,-0.49981 -0.0609,-0.59556 -0.72051,-0.93746 -0.92205,-0.47789 -1.3097,-0.43311 -1.6272,0.18799 -0.32271,0.63135 -2.7358,3.6894 -3.1315,3.9684 -0.1664,0.11734 -0.30253,0.34211 -0.30253,0.49948 0,0.3541 -1.5889,1.748 -2.3597,2.07 -1.6853,0.70418 -3.3546,-0.15115 -3.3546,-1.7189 0,-1.1765 -0.35833,-1.2528 -1.3549,-0.28844 -1.2787,1.2373 -2.6959,2.4081 -2.918,2.4106 -0.11927,0.002 -0.51071,0.10833 -0.8699,0.23773 -0.86375,0.31117 -1.4778,0.29414 -2.3654,-0.0657 z m 25.297,2.2121 c -0.4449,-0.1438 -0.56477,-0.26917 -0.56477,-0.59071 0,-0.40712 0.005,-0.40842 1.9592,-0.5087 2.0502,-0.10521 2.5673,-0.18676 3.5102,-0.55367 0.71553,-0.27841 4.1468,-0.76093 4.4859,-0.6308 0.13838,0.0531 0.29722,0.27833 0.353,0.5005 0.16759,0.66777 -0.25422,0.91442 -1.7736,1.0371 -0.74303,0.06 -2.2326,0.26126 -3.3102,0.44729 -2.5217,0.43531 -3.9537,0.52721 -4.6597,0.29903 z"
         id="addressed" />
    </g>
  </g>
</svg>
