<?xml version="1.0" encoding="UTF-8" standalone="no"?>
<svg
   xmlns:dc="http://purl.org/dc/elements/1.1/"
   xmlns:cc="http://creativecommons.org/ns#"
   xmlns:rdf="http://www.w3.org/1999/02/22-rdf-syntax-ns#"
   xmlns:svg="http://www.w3.org/2000/svg"
   xmlns="http://www.w3.org/2000/svg"
   id="svg2663"
   viewBox="0 0 31.571139 18.342089"
   version="1.1"
   height="18.342089"
   width="31.57114">
  <defs
     id="defs2667" />
  <metadata
     id="metadata2">
    <rdf:RDF>
      <cc:Work
         rdf:about="">
        <dc:format>image/svg+xml</dc:format>
        <dc:type
           rdf:resource="http://purl.org/dc/dcmitype/StillImage" />
        <dc:title />
      </cc:Work>
    </rdf:RDF>
  </metadata>
  <g
     transform="translate(-425.73252,-367.09946)"
     id="g2661">
    <g
       style="stroke-width:0.16327"
       id="g2557">
      <path
         d="m 454.96,382.54 c 0.30024,-0.18309 0.58625,-0.53907 0.68815,-0.85654 0.17887,-0.55729 0.18315,-4.4371 0.005,-4.6151 -0.19453,-0.19453 -0.57697,0.0931 -1.2137,0.91266 -0.35551,0.45763 -0.99536,1.2018 -1.4219,1.6538 -0.42654,0.452 -0.77551,0.96586 -0.77551,1.142 0,0.17616 0.2204,0.57133 0.48979,0.87815 0.26939,0.30681 0.4898,0.61754 0.4898,0.69048 0,0.15942 0.63685,0.4828 0.97959,0.49741 0.13469,0.006 0.4761,-0.13055 0.75868,-0.30284 z m -23.954,1.0088 c 0.41074,-0.22552 0.88516,-0.5291 1.0543,-0.6746 0.44646,-0.38413 1.57,-1.931 1.57,-2.1616 0,-0.10819 0.17765,-0.49985 0.39478,-0.87035 0.45268,-0.77244 0.99633,-2.3113 1.2574,-3.559 0.0986,-0.47148 0.38493,-1.4817 0.63623,-2.245 0.25132,-0.76327 0.54704,-1.7918 0.65718,-2.2857 0.11012,-0.49387 0.33734,-1.3207 0.5049,-1.8374 0.40899,-1.2611 0.39187,-1.3738 -0.24035,-1.5825 -0.57827,-0.19084 -2.135,0.0312 -2.3203,0.33102 -0.051,0.0825 -0.26106,0.15006 -0.46678,0.15006 -0.73092,0 -2.4514,1.481 -3.3191,2.8571 -0.2265,0.35919 -0.73283,1.1405 -1.1252,1.7362 -0.39236,0.59574 -0.71339,1.1916 -0.71339,1.3241 0,0.13254 -0.18367,0.51164 -0.40816,0.84245 -0.22449,0.33079 -0.40817,0.6937 -0.40817,0.80645 0,0.11275 -0.0693,0.27479 -0.15391,0.3601 -0.49975,0.50366 -0.85004,4.4846 -0.50677,5.7594 0.0965,0.35848 0.39415,0.88586 0.66138,1.1719 0.46307,0.49573 0.52562,0.51466 1.3325,0.40369 0.46567,-0.064 1.1827,-0.30098 1.5934,-0.52651 z m -3.1512,1.7214 c -0.69637,-0.25339 -0.9449,-0.5708 -1.5732,-2.0093 -0.54137,-1.2395 -0.56836,-1.3896 -0.54261,-3.0187 0.0251,-1.587 0.0719,-1.8173 0.63045,-3.102 0.33187,-0.76327 0.70751,-1.6704 0.83476,-2.0159 0.12725,-0.34549 0.48462,-0.95986 0.79415,-1.3652 0.30954,-0.40538 0.6528,-0.98597 0.76281,-1.2902 0.11001,-0.30423 0.25274,-0.55313 0.31716,-0.55313 0.0644,0 0.28578,-0.27283 0.49187,-0.60629 0.20609,-0.33346 0.48759,-0.73298 0.62555,-0.8878 0.13798,-0.15484 0.46911,-0.54758 0.73589,-0.87275 0.52599,-0.64119 2.6945,-2.0413 3.1616,-2.0413 0.15845,0 0.37992,-0.0918 0.49217,-0.20408 0.13696,-0.13697 0.75955,-0.20409 1.8931,-0.20409 1.4154,0 1.7432,0.049 2.0234,0.30265 0.35938,0.32522 0.59461,1.0788 0.54263,1.7382 -0.0562,0.71275 -1.3052,4.7746 -1.8264,5.9394 -0.19601,0.43809 -0.41766,1.1728 -0.49255,1.6326 -0.16647,1.0221 -0.4043,2.0728 -0.84461,3.7311 -0.54192,2.0411 -0.18948,3.0642 1.0556,3.0642 0.35386,0 0.83838,-0.11778 1.0767,-0.26175 0.46067,-0.27824 1.6905,-1.6931 2.0508,-2.3593 0.11877,-0.21964 0.47329,-0.81967 0.78783,-1.3334 0.31455,-0.51375 0.62072,-1.2394 0.6804,-1.6125 0.13358,-0.83546 0.82876,-2.0573 1.2458,-2.1897 0.32513,-0.10318 0.85329,0.11109 1.3555,0.54993 0.16459,0.1438 0.67716,0.29967 1.139,0.34637 0.83602,0.0845 0.84188,0.0891 1.3052,1.0264 0.50653,1.0248 0.51228,0.85791 -0.11376,3.3033 -0.32462,1.268 -0.32239,1.3278 0.0641,1.7143 0.4609,0.4609 1.2552,0.41344 2.0607,-0.12315 0.713,-0.47499 2.9136,-2.6738 3.6332,-3.6302 0.23574,-0.31332 0.62287,-0.75414 0.86031,-0.97959 0.23743,-0.22544 0.88364,-0.98239 1.436,-1.6821 1.1416,-1.4461 1.6051,-1.7475 2.1986,-1.4299 0.5199,0.27825 0.58671,0.7119 0.58671,3.8088 0,2.4605 -0.0247,2.6691 -0.41294,3.4898 -0.22712,0.4801 -0.50776,0.8729 -0.62363,0.8729 -0.11587,0 -0.35923,0.17087 -0.54083,0.37972 -0.18158,0.20884 -0.67458,0.47615 -1.0956,0.59401 -0.67194,0.18813 -0.83956,0.18028 -1.3728,-0.0644 -0.6682,-0.30658 -1.5053,-1.2809 -1.5053,-1.752 0,-0.47422 -0.62014,-0.36506 -1.3088,0.23037 -0.99896,0.8637 -1.5378,1.2608 -1.714,1.2631 -0.0911,0.002 -0.43984,0.14913 -0.77492,0.32872 -0.97468,0.5224 -1.5503,0.4363 -2.2744,-0.34023 -0.7212,-0.7734 -0.74867,-1.0125 -0.35989,-3.1308 0.33162,-1.8069 0.25394,-2.132 -0.59019,-2.4698 -1.1815,-0.47275 -1.5162,-0.37626 -2.0539,0.59226 -0.2612,0.4705 -0.50287,0.92968 -0.53704,1.0204 -0.0342,0.0907 -0.16954,0.28842 -0.30082,0.43938 -0.13128,0.15094 -0.36047,0.49007 -0.5093,0.75363 -1.1852,2.0987 -2.6258,3.6299 -3.6805,3.912 -1.6937,0.45299 -2.4972,0.14809 -3.1289,-1.1873 -0.23305,-0.49264 -0.50162,-0.89569 -0.5968,-0.89569 -0.0952,0 -0.31457,0.16531 -0.4875,0.36735 -0.78872,0.92147 -1.4807,1.5918 -1.6432,1.5918 -0.0976,0 -0.29345,0.0975 -0.43521,0.21674 -0.63884,0.53716 -2.5345,0.75528 -3.5026,0.40304 z"
         id="address" />
    </g>
  </g>
</svg>
