<svg xmlns="http://www.w3.org/2000/svg" height="32.215" width="36.384"><path d="M5.243 15.78c.56-.29 1.158-.701 1.328-.912.171-.211.477-.542.68-.735.661-.63 1.598-2.424 2.228-4.27.184-.538.508-1.353.721-1.811.213-.458.388-1.086.388-1.396 0-.31.073-.637.163-.728.09-.09.24-.773.334-1.518.235-1.87.072-2.32-1.003-2.782-.903-.389-1.016-.373-2.464.346-1.092.541-2.148 1.557-3.026 2.91-.32.494-.718 1.029-.884 1.188-.165.16-.344.49-.397.735-.18.816-.765 2.728-.886 2.893-.066.09-.277.623-.469 1.185-.275.805-.348 1.41-.348 2.87 0 1.707.028 1.873.367 2.186.736.679 1.744.629 3.268-.161zm15.717.103c.6-.419 1.153-.946 1.243-1.183a2.74 2.74 0 01.374-.673c.719-.835.812-2.852.154-3.35-.447-.338-1.43-.292-2.138.1-.683.378-1.515 1.11-1.515 1.33 0 .08-.239.44-.53.803-.483.6-.531.762-.531 1.774 0 .953.056 1.173.395 1.534.61.65 1.262.564 2.548-.335zm.462 14.184c.416-.336.757-.712.757-.834 0-.123.146-.49.323-.817.58-1.068 1.182-2.859 1.323-3.94.077-.584.217-1.613.311-2.286.156-1.11.097-3.572-.102-4.286-.044-.157-.175-.285-.29-.285-.231 0-1.564 2.438-1.564 2.861 0 .146-.367 1.378-.816 2.738-.45 1.359-.817 2.64-.817 2.846 0 .206-.068.503-.152.659-.21.389-.501 1.716-.5 2.274.002.72.32 1.683.556 1.683.118 0 .555-.276.971-.612zm-1.88 1.843c-.325-.22-.673-.635-.772-.922-.257-.735-.226-2.52.063-3.629.135-.517.245-1.065.245-1.217 0-.153.325-1.196.723-2.32.397-1.122.848-2.481 1.002-3.02.153-.539.34-1.059.417-1.156.166-.213.96-2.297.96-2.521 0-.269-.411-.181-1.551.33-1.995.895-2.786.64-3.745-1.21-.63-1.212-.942-1.487-1.13-.994-.052.135-.189.247-.304.25-.115.001-.572.327-1.016.722-1.967 1.75-4.528 1.247-4.99-.98-.164-.787-.232-.89-.587-.89-.28 0-.5.163-.724.53-.176.293-.581.715-.899.94-.318.224-.842.61-1.165.857-.323.247-.71.449-.859.449a.702.702 0 00-.434.162c-.089.09-.713.21-1.385.266-1.68.142-2.393-.209-2.925-1.44-.51-1.181-.61-2.786-.256-4.09.286-1.05.675-2.242.918-2.817.077-.18.245-.694.374-1.143C2.387 5 4.772 1.977 7.35.655c1.823-.935 3.047-.872 4.043.208.218.236.48.429.582.429.198 0 .772.716.944 1.178.167.448-.502 3.928-1.107 5.76a20.776 20.776 0 00-.985 5.178c-.104 1.577-.102 1.589.342 2 .522.484 1.21.536 2.11.16.671-.28 2.327-1.86 2.687-2.562.126-.247.293-.449.37-.449.079 0 .569-.422 1.09-.939 1.532-1.519 2.906-2.48 3.578-2.506.243-.009.626-.068.85-.132.775-.221 1.663.141 2.482 1.014.422.45.807.92.856 1.047.048.126-.058.684-.236 1.24-.535 1.671-.617 1.964-.725 2.598-.1.58-.077.618.494.857 1.82.76 3.855-.172 6.46-2.96.237-.255.704-.978 1.037-1.606.333-.629.659-1.217.724-1.307.065-.09.287-.64.492-1.224.206-.584.441-1.145.523-1.248.28-.35.791-2.501.791-3.33 0-1.277.686-2.281 1.376-2.016.443.17.314 1.702-.39 4.635-.098.404-.24.918-.318 1.143-.213.616-.61 2.212-.915 3.673a65.78 65.78 0 01-.42 1.897 6.64 6.64 0 00-.15 1.331c0 .608.104.864.572 1.425.6.718.702 1.11.376 1.437-.484.484-1.265.126-1.98-.907-.373-.537-.446-.822-.464-1.808-.012-.657-.093-1.17-.185-1.17-.09 0-.548.403-1.019.897-.47.494-.928.898-1.017.898-.088 0-.256.114-.372.254-.273.33-2.512 1.379-2.942 1.379-.182 0-.548.112-.813.249-.53.274-.513.193-.555 2.608a37.41 37.41 0 01-.202 3.102c-.187 1.576-.923 4.525-1.262 5.06-.114.18-.258.534-.32.787-.168.681-1.61 2.432-2.331 2.83-1.023.564-1.238.58-1.88.145z" stroke-width=".163"/></svg>