<?xml version="1.0" encoding="UTF-8" standalone="no"?>
<svg
   xmlns:dc="http://purl.org/dc/elements/1.1/"
   xmlns:cc="http://creativecommons.org/ns#"
   xmlns:rdf="http://www.w3.org/1999/02/22-rdf-syntax-ns#"
   xmlns:svg="http://www.w3.org/2000/svg"
   xmlns="http://www.w3.org/2000/svg"
   id="svg2663"
   viewBox="0 0 36.384322 32.214928"
   version="1.1"
   height="32.214928"
   width="36.384323">
  <defs
     id="defs2667" />
  <metadata
     id="metadata2">
    <rdf:RDF>
      <cc:Work
         rdf:about="">
        <dc:format>image/svg+xml</dc:format>
        <dc:type
           rdf:resource="http://purl.org/dc/dcmitype/StillImage" />
        <dc:title />
      </cc:Work>
    </rdf:RDF>
  </metadata>
  <g
     transform="translate(-425.65741,-413.40017)"
     id="g2661">
    <g
       style="stroke-width:0.16327"
       id="g2557">
      <path
         d="m 430.9,429.18 c 0.5602,-0.29062 1.1582,-0.70098 1.3288,-0.91192 0.17066,-0.21096 0.47634,-0.54157 0.6793,-0.7347 0.66155,-0.62953 1.5981,-2.4242 2.2281,-4.2695 0.18393,-0.53878 0.50867,-1.354 0.72163,-1.8117 0.21296,-0.45765 0.38722,-1.0858 0.38722,-1.3959 0,-0.31011 0.0737,-0.63755 0.16382,-0.72766 0.0901,-0.0901 0.24028,-0.7735 0.3337,-1.5187 0.23435,-1.8689 0.0718,-2.3198 -1.003,-2.7822 -0.90317,-0.38853 -1.0158,-0.37271 -2.4645,0.34603 -1.0916,0.5416 -2.1477,1.5575 -3.0258,2.9104 -0.32053,0.49388 -0.71804,1.0286 -0.88337,1.1882 -0.16532,0.15963 -0.34437,0.49024 -0.39791,0.7347 -0.17863,0.81579 -0.76413,2.7281 -0.88592,2.8934 -0.0661,0.0898 -0.27692,0.62275 -0.46843,1.1843 -0.27479,0.8058 -0.34819,1.4107 -0.34819,2.8695 0,1.7077 0.028,1.8742 0.36734,2.1871 0.73602,0.67859 1.7437,0.62876 3.2672,-0.16155 z m 15.717,0.10362 c 0.60011,-0.41949 1.1534,-0.94599 1.2437,-1.1834 0.0894,-0.23522 0.25754,-0.53799 0.37358,-0.67285 0.71893,-0.83553 0.81171,-2.8519 0.15413,-3.3499 -0.44689,-0.3384 -1.43,-0.29255 -2.138,0.0997 -0.68255,0.37815 -1.5152,1.1095 -1.5152,1.3308 0,0.0783 -0.23877,0.43942 -0.53061,0.80257 -0.48217,0.59999 -0.53061,0.76188 -0.53061,1.7732 0,0.95314 0.0568,1.1734 0.3958,1.5342 0.61047,0.64981 1.2615,0.56434 2.5472,-0.33442 z m 0.46243,14.184 c 0.41613,-0.33673 0.75687,-0.71244 0.75721,-0.8349 0,-0.12249 0.1457,-0.48983 0.323,-0.81633 0.58033,-1.0687 1.1814,-2.8588 1.3231,-3.9406 0.0765,-0.58367 0.21634,-1.6122 0.31087,-2.2857 0.15585,-1.1104 0.097,-3.5718 -0.10253,-4.2857 -0.0439,-0.15715 -0.17421,-0.28572 -0.28954,-0.28572 -0.23149,0 -1.5642,2.4381 -1.5642,2.8616 0,0.14629 -0.36734,1.3782 -0.81632,2.7375 -0.44898,1.3593 -0.81633,2.6403 -0.81633,2.8466 0,0.2063 -0.0686,0.50263 -0.15244,0.65856 -0.20904,0.38877 -0.50082,1.7166 -0.49971,2.2742 0.002,0.71987 0.3194,1.6828 0.55568,1.6828 0.11809,0 0.55517,-0.27551 0.97128,-0.61225 z m -1.8809,1.8426 c -0.32452,-0.22052 -0.67172,-0.63527 -0.77156,-0.92163 -0.25638,-0.73545 -0.22519,-2.5213 0.0634,-3.6293 0.13469,-0.51712 0.24489,-1.065 0.24489,-1.2176 0,-0.15257 0.32529,-1.1959 0.72286,-2.3186 0.39757,-1.1227 0.84849,-2.482 1.002,-3.0208 0.15357,-0.53877 0.34113,-1.0588 0.4168,-1.1557 0.16668,-0.21334 0.96034,-2.2972 0.96034,-2.5215 0,-0.26867 -0.41133,-0.18109 -1.551,0.33026 -1.9944,0.8948 -2.7863,0.6391 -3.7451,-1.2093 -0.62895,-1.2125 -0.94126,-1.4874 -1.1303,-0.9948 -0.0517,0.1347 -0.18813,0.24689 -0.30318,0.24933 -0.11507,0.002 -0.57235,0.32744 -1.0162,0.72227 -1.9671,1.7499 -4.5284,1.247 -4.9907,-0.97986 -0.1633,-0.78659 -0.2313,-0.88969 -0.5868,-0.88969 -0.2789,0 -0.5005,0.16256 -0.72333,0.53061 -0.17668,0.29183 -0.5813,0.71428 -0.89916,0.93877 -0.31786,0.22449 -0.84216,0.61021 -1.1651,0.85715 -0.32294,0.24693 -0.7093,0.44898 -0.85859,0.44898 -0.14929,0 -0.34457,0.0731 -0.43396,0.16253 -0.0894,0.0894 -0.71295,0.20904 -1.3857,0.26591 -1.6806,0.14207 -2.3931,-0.20871 -2.9248,-1.44 -0.51008,-1.1812 -0.61052,-2.7862 -0.25591,-4.0893 0.28618,-1.0516 0.6746,-2.2432 0.91847,-2.8175 0.0762,-0.17959 0.24454,-0.69388 0.37399,-1.1429 0.88439,-3.0674 3.2693,-6.091 5.8466,-7.4125 1.823,-0.93471 3.0473,-0.87179 4.0429,0.20775 0.21769,0.23607 0.47939,0.42921 0.58155,0.42921 0.19871,0 0.77294,0.71594 0.94465,1.1778 0.16673,0.44842 -0.50181,3.928 -1.1069,5.761 -0.53765,1.6288 -0.865,3.349 -0.98529,5.1778 -0.10373,1.5767 -0.10173,1.5883 0.34246,2 0.52194,0.48372 1.2102,0.53602 2.1095,0.16029 0.67139,-0.28052 2.3272,-1.8598 2.6866,-2.5625 0.12632,-0.24694 0.29343,-0.44898 0.37138,-0.44898 0.0779,0 0.5678,-0.42245 1.0886,-0.93878 1.5323,-1.5192 2.9062,-2.4813 3.5789,-2.5061 0.24296,-0.009 0.6254,-0.0687 0.84989,-0.13267 0.77501,-0.221 1.6628,0.14175 2.4819,1.014 0.42219,0.44963 0.80724,0.92075 0.85566,1.047 0.0484,0.12621 -0.0577,0.68438 -0.23585,1.2404 -0.53541,1.671 -0.61726,1.9641 -0.72536,2.5978 -0.099,0.58013 -0.0768,0.61855 0.49424,0.85714 1.8199,0.76039 3.8549,-0.17244 6.4596,-2.9609 0.23772,-0.2545 0.70467,-0.97702 1.0376,-1.6056 0.333,-0.62857 0.65874,-1.2163 0.72389,-1.3061 0.0651,-0.0898 0.28666,-0.64082 0.49227,-1.2245 0.2056,-0.58367 0.44094,-1.1453 0.52296,-1.248 0.28005,-0.35066 0.791,-2.5014 0.791,-3.3295 0,-1.2771 0.68542,-2.2817 1.3759,-2.0167 0.4432,0.17008 0.31402,1.702 -0.39084,4.635 -0.0971,0.40408 -0.24,0.91836 -0.31755,1.1428 -0.21306,0.6168 -0.61063,2.2128 -0.91507,3.6735 -0.14973,0.71837 -0.33897,1.5718 -0.42053,1.8965 -0.0815,0.3247 -0.14827,0.92389 -0.14827,1.3315 0,0.60787 0.10274,0.86409 0.57143,1.4251 0.59952,0.71759 0.70212,1.1101 0.37551,1.4367 -0.48374,0.48374 -1.2645,0.12619 -1.9805,-0.90697 -0.3721,-0.53697 -0.44524,-0.82229 -0.46344,-1.8082 -0.0121,-0.65654 -0.0933,-1.1706 -0.18475,-1.1706 -0.0897,0 -0.54831,0.40409 -1.0191,0.89796 -0.47076,0.49388 -0.92829,0.89796 -1.0168,0.89796 -0.0884,0 -0.25584,0.1145 -0.37197,0.25444 -0.27365,0.32971 -2.5122,1.3782 -2.9426,1.3782 -0.18207,0 -0.54782,0.11209 -0.81275,0.24909 -0.52999,0.27407 -0.51285,0.19349 -0.55458,2.608 -0.0155,0.89796 -0.10666,2.2939 -0.20258,3.102 -0.18705,1.5763 -0.92237,4.5257 -1.2618,5.0612 -0.11383,0.1796 -0.25798,0.53351 -0.3203,0.78649 -0.16774,0.6808 -1.6098,2.4313 -2.3309,2.8294 -1.0224,0.56442 -1.2373,0.58101 -1.8789,0.14503 z"
         id="adequate" />
    </g>
  </g>
</svg>
