<?xml version="1.0" encoding="UTF-8" standalone="no"?>
<svg
   xmlns:dc="http://purl.org/dc/elements/1.1/"
   xmlns:cc="http://creativecommons.org/ns#"
   xmlns:rdf="http://www.w3.org/1999/02/22-rdf-syntax-ns#"
   xmlns:svg="http://www.w3.org/2000/svg"
   xmlns="http://www.w3.org/2000/svg"
   id="svg2663"
   viewBox="0 0 35.71297 17.85281"
   version="1.1"
   height="17.85281"
   width="35.712971">
  <defs
     id="defs2667" />
  <metadata
     id="metadata2">
    <rdf:RDF>
      <cc:Work
         rdf:about="">
        <dc:format>image/svg+xml</dc:format>
        <dc:type
           rdf:resource="http://purl.org/dc/dcmitype/StillImage" />
        <dc:title />
      </cc:Work>
    </rdf:RDF>
  </metadata>
  <g
     transform="translate(-425.63067,-439.91922)"
     id="g2661">
    <g
       style="stroke-width:0.16327"
       id="g2557">
      <path
         d="m 449.85,449.16 c 0.4167,-0.76564 0.56885,-1.4909 0.31166,-1.4856 -0.32613,0.007 -0.61267,0.36508 -0.8044,1.0061 -0.43539,1.4557 -0.176,1.7082 0.49274,0.47951 z m -19.864,6.9919 c 0.43315,-0.19212 0.95424,-0.4286 1.158,-0.52554 0.42113,-0.20035 2.1579,-2.2166 2.4051,-2.7921 0.0898,-0.20908 0.24813,-0.48268 0.35187,-0.608 0.24588,-0.29705 1.3624,-3.127 1.3624,-3.4532 0,-0.13825 0.25786,-0.75484 0.57304,-1.3702 0.6297,-1.2294 1.4055,-3.8488 1.4435,-4.8739 0.022,-0.5929 -0.0284,-0.67937 -0.5472,-0.93852 -0.64618,-0.32282 -2.172,-0.38237 -2.8873,-0.1127 -0.25278,0.0953 -0.70566,0.40756 -1.0064,0.69388 -0.56733,0.54016 -2.3104,2.7697 -2.3104,2.9552 0,0.0581 -0.27551,0.4544 -0.61224,0.88066 -0.33674,0.42623 -0.74759,1.1037 -0.913,1.5054 -0.41755,1.014 -0.82101,1.8579 -0.93463,1.9549 -0.0851,0.0727 -0.56666,1.4792 -0.98207,2.8687 -0.36759,1.2295 -0.03,2.9872 0.72908,3.7955 0.57461,0.61188 0.8301,0.61422 2.1702,0.0198 z m -2.8752,1.3109 c -0.30837,-0.17201 -0.76756,-0.64514 -1.0204,-1.0514 -0.42758,-0.68697 -0.45973,-0.85776 -0.45973,-2.4426 0,-1.7878 0.0901,-2.1225 1.2412,-4.6132 0.21529,-0.46576 0.39142,-1.0081 0.39142,-1.2052 0,-0.408 0.49722,-1.2882 1.1728,-2.076 0.25291,-0.29495 0.45985,-0.63869 0.45985,-0.76385 0,-0.12514 0.0918,-0.32645 0.20408,-0.44733 0.49796,-0.53624 1.2653,-1.595 1.2653,-1.7458 0,-0.32013 1.726,-1.9034 2.7755,-2.546 1.0049,-0.61534 1.1311,-0.64993 2.3793,-0.65215 1.1585,-0.002 1.3981,0.0506 1.9793,0.43525 1.6271,1.0767 1.7359,1.371 1.2568,3.3991 -0.13788,0.58367 -0.31605,1.5198 -0.39595,2.0802 -0.0799,0.5604 -0.2129,1.1482 -0.29556,1.3061 -0.0827,0.15791 -0.3106,0.94833 -0.50653,1.7565 -0.19594,0.80817 -0.46183,1.7842 -0.59089,2.169 -0.13435,0.40055 -0.23465,1.3234 -0.23465,2.1591 v 1.4595 l 0.52425,0.2711 c 0.46854,0.2423 0.69843,0.24929 2.1633,0.0659 0.90147,-0.11287 1.7212,-0.2707 1.8216,-0.35071 0.15943,-0.12702 2.7906,-0.45172 3.7556,-0.46346 0.1905,-0.002 0.65257,-0.27973 1.0269,-0.61646 0.61456,-0.55293 0.72593,-0.77833 1.1495,-2.3265 0.74595,-2.7266 0.92533,-3.2215 1.4824,-4.0895 0.65091,-1.0144 1.0449,-1.2982 1.8019,-1.2982 1.4087,0 1.6105,1.4556 0.52384,3.7774 -0.36297,0.77555 -0.88893,1.6497 -1.1688,1.9426 -0.27988,0.29287 -0.50888,0.58328 -0.50888,0.64534 0,0.0621 -0.18367,0.19654 -0.40816,0.29881 -0.32367,0.14749 -0.40816,0.30581 -0.40816,0.76494 0,0.48072 0.0762,0.60841 0.44898,0.75241 0.49498,0.1912 1.818,0.10328 1.9794,-0.13154 0.0562,-0.0819 0.36001,-0.30531 0.67506,-0.49652 0.31506,-0.19124 1.0865,-0.99158 1.7143,-1.7786 0.6278,-0.78697 1.3768,-1.6654 1.6644,-1.952 0.28761,-0.28663 0.57309,-0.73138 0.63443,-0.98834 0.0613,-0.25695 0.20941,-0.65086 0.32908,-0.87535 0.11967,-0.22449 0.32635,-0.68368 0.45928,-1.0204 0.21375,-0.54145 0.30642,-0.61224 0.8015,-0.61224 0.3079,0 0.80758,0.10321 1.1104,0.22935 0.30279,0.12616 0.91789,0.27927 1.3669,0.34026 1.2294,0.16701 1.3362,0.21783 1.552,0.73876 0.24216,0.5846 0.17613,0.86745 -0.748,3.204 -0.98973,2.5024 -0.96988,2.7345 0.32336,3.7798 0.33885,0.2739 0.3288,0.39324 -0.0764,0.90838 l -0.33685,0.42824 -0.63938,-0.32619 c -0.68485,-0.34938 -0.96583,-0.77995 -1.289,-1.9752 -0.18629,-0.68889 -0.16783,-0.85441 0.21306,-1.9103 0.22935,-0.63583 0.49337,-1.3066 0.58669,-1.4906 0.0933,-0.18403 0.24315,-0.48054 0.33295,-0.65891 0.43208,-0.8583 0.008,-1.3767 -1.2556,-1.5364 -0.84296,-0.10653 -0.84884,-0.10415 -1.1136,0.45381 -0.1464,0.30851 -0.40791,0.68919 -0.58115,0.84598 -0.17324,0.15677 -0.31497,0.35102 -0.31497,0.43166 0,0.5222 -3.432,4.2925 -4.5714,5.022 -1.2638,0.80918 -3.2709,0.96477 -3.9918,0.30946 -0.34949,-0.31767 -1.0458,-0.1409 -1.4427,0.36625 l -0.39696,0.50723 -1.9414,0.0606 c -1.1639,0.0364 -2.3337,0.17268 -2.921,0.34042 -0.64546,0.18435 -1.5964,0.28301 -2.7879,0.28928 -1.6686,0.009 -1.8546,-0.022 -2.407,-0.39868 -0.59667,-0.40674 -0.59876,-0.41228 -0.59987,-1.5918 0,-0.65102 -0.0621,-1.1837 -0.13667,-1.1837 -0.24531,0 -1.4645,1.2172 -1.5652,1.5628 -0.0543,0.18606 -0.397,0.50595 -0.7616,0.71086 -0.36461,0.20493 -0.70111,0.47208 -0.74778,0.5937 -0.11854,0.30891 -1.381,1.0231 -2.3033,1.303 -1.0416,0.31609 -1.9632,0.2834 -2.6391,-0.0936 z"
         id="adhere" />
    </g>
  </g>
</svg>
