<svg xmlns="http://www.w3.org/2000/svg" height="17.853" width="35.713"><path d="M24.22 9.24c.416-.765.568-1.49.311-1.485-.326.007-.613.365-.804 1.006-.436 1.456-.176 1.708.492.48zM4.354 16.234c.433-.192.955-.429 1.158-.526.421-.2 2.158-2.216 2.405-2.792a3.08 3.08 0 01.352-.608c.246-.297 1.363-3.127 1.363-3.453 0-.138.258-.755.573-1.37.63-1.23 1.405-3.85 1.443-4.874.022-.593-.028-.68-.547-.939-.646-.323-2.172-.382-2.887-.112-.253.095-.706.407-1.007.693-.567.54-2.31 2.77-2.31 2.956 0 .058-.276.454-.612.88-.337.426-.748 1.104-.913 1.506-.418 1.014-.821 1.858-.935 1.955-.085.072-.567 1.479-.982 2.868-.368 1.23-.03 2.987.73 3.796.574.612.83.614 2.17.02zm-2.875 1.31c-.308-.171-.767-.645-1.02-1.05-.428-.688-.46-.859-.46-2.443 0-1.788.09-2.123 1.241-4.614.215-.465.392-1.008.392-1.205 0-.408.497-1.288 1.172-2.076.253-.295.46-.639.46-.764s.092-.326.204-.447c.498-.536 1.266-1.595 1.266-1.746 0-.32 1.726-1.903 2.775-2.546C8.515.037 8.641.002 9.89 0c1.158-.002 1.398.05 1.979.435 1.627 1.077 1.736 1.371 1.257 3.4-.138.583-.316 1.52-.396 2.08-.08.56-.213 1.148-.296 1.306-.083.158-.31.948-.506 1.756s-.462 1.784-.591 2.17c-.135.4-.235 1.323-.235 2.158v1.46l.524.27c.469.243.699.25 2.164.067.901-.113 1.72-.27 1.821-.35.16-.128 2.79-.453 3.756-.464.19-.002.652-.28 1.027-.617.614-.553.726-.778 1.15-2.326.745-2.727.924-3.222 1.482-4.09.65-1.014 1.044-1.298 1.801-1.298 1.41 0 1.61 1.456.524 3.777-.363.776-.889 1.65-1.169 1.943-.28.293-.508.583-.508.645 0 .062-.184.197-.409.3-.323.147-.408.305-.408.764 0 .48.076.608.45.752.494.192 1.817.104 1.979-.131.056-.082.36-.305.675-.497.315-.19 1.086-.991 1.714-1.778.628-.787 1.377-1.666 1.664-1.952.288-.287.573-.732.635-.989.061-.256.21-.65.329-.875.12-.224.326-.684.46-1.02.213-.542.306-.613.8-.613.309 0 .808.104 1.111.23.303.126.918.28 1.367.34 1.23.167 1.336.218 1.552.739.242.584.176.867-.748 3.204-.99 2.502-.97 2.734.323 3.78.34.274.33.393-.076.908l-.337.428-.64-.326c-.684-.35-.965-.78-1.288-1.975-.187-.689-.168-.855.213-1.91.23-.636.493-1.307.586-1.491.094-.184.244-.48.333-.659.432-.858.008-1.377-1.255-1.536-.843-.107-.849-.104-1.114.453-.146.309-.408.69-.58.846-.174.157-.316.351-.316.432 0 .522-3.432 4.293-4.571 5.022-1.264.81-3.271.965-3.992.31-.35-.318-1.046-.141-1.443.366l-.397.507-1.941.06c-1.164.037-2.334.173-2.921.341-.646.184-1.597.283-2.788.29-1.669.008-1.855-.023-2.407-.4-.597-.406-.599-.412-.6-1.591 0-.651-.062-1.184-.137-1.184-.245 0-1.464 1.217-1.565 1.563-.054.186-.397.506-.761.71-.365.206-.702.473-.748.595-.119.308-1.381 1.023-2.303 1.303-1.042.316-1.964.283-2.64-.094z"/></svg>