<svg xmlns="http://www.w3.org/2000/svg" height="28.492" width="38.562"><path d="M.978 8.367c-.217-.217-.1-.784.279-1.351C2.95 4.476 3.155 4.03 3.155 2.879c0-.5-.125-.75-.653-1.3C1.783.833 1.684.414 2.165.156c.548-.293.906-.187 1.53.453.692.708.93 1.373.93 2.6 0 1.95-2.84 5.967-3.647 5.16zM2.143 26.72c.093-.112.225-.425.292-.693.067-.27.255-.783.417-1.142.372-.822.413-2.368.063-2.368-.133 0-.363.24-.513.53-.15.293-.343.578-.43.634-.175.113-.431 1.133-.564 2.244-.06.5-.018.756.137.855.301.19.398.18.598-.06zM.94 28.407c-.698-.296-.961-.97-.939-2.41.018-1.155.092-1.479.541-2.368.286-.567.88-1.528 1.322-2.136.44-.608.802-1.165.802-1.238 0-.074.279-.531.62-1.017.828-1.177 1.502-3.475 1.502-5.118 0-.877 1.282-7.449 1.506-7.725.23-.282.86-.256 1.11.044.167.202.156.442-.059 1.266-.47 1.805-.924 4.517-.924 5.514 0 .965.003.972.478.972.393 0 .57-.143.998-.804.3-.463.685-.844.907-.9.212-.053.508-.335.657-.625.15-.29.592-.86.983-1.263.391-.404.711-.8.711-.881 0-.182 1.097-1.847 1.265-1.922.177-.078.694-1.1.694-1.37 0-.346.748-.769 1.14-.645.186.06.46.305.61.545.435.702.902 1.183 1.552 1.598.335.213.731.576.882.805.258.394.254.459-.065 1.184-.185.422-.506 1.455-.712 2.295-.367 1.497-.369 1.532-.063 1.755.465.34 1.052.276 1.65-.18.295-.225.614-.409.71-.409.096 0 .174-.056.174-.126s.258-.265.574-.435c.316-.17.795-.646 1.064-1.058 2.196-3.352 5.066-5.366 6.531-4.582.17.092.505.499.744.905.238.407.479.717.535.69.057-.026.82-.397 1.694-.823.875-.426 1.78-.775 2.01-.775.577 0 2.127.731 2.254 1.062.201.524.111 3.526-.121 4.056-.476 1.087-.918 2.528-.918 2.996 0 .825-.983 1.37-1.452.804-.21-.252-.012-1.143.692-3.122.224-.628.459-1.672.522-2.319.114-1.158.108-1.183-.382-1.673-.3-.301-.666-.498-.925-.498-.494 0-1.72.584-1.72.82 0 .088-.1.16-.223.16-.624 0-2.879 3.39-2.879 4.327 0 .125-.225.562-.501.97-.581.861-1.22 1.128-1.565.655-.295-.403-.278-.62.107-1.338.18-.335.326-.734.326-.886 0-.152.096-.373.213-.492.464-.47 1.282-2.216 1.367-2.92.077-.631.03-.814-.313-1.214l-.405-.47-.769.294c-.785.3-1.996 1.407-2.402 2.197-.122.235-.261.465-.31.51-.05.044-.269.338-.487.653-.507.73-2.193 2.449-2.403 2.449-.087 0-.425.25-.75.557-.326.307-.86.646-1.185.754-.71.234-1.756.123-2.103-.223a1.639 1.639 0 00-.551-.346c-.802-.255-.758-1.36.156-3.863.26-.713.473-1.39.473-1.502 0-.113-.42-.482-.934-.82-.86-.567-.951-.594-1.14-.336-.112.154-.371.47-.575.703-.204.232-.511.688-.682 1.012-.17.324-.473.692-.672.816-.2.125-.85.815-1.445 1.533-1.645 1.986-2.257 2.703-2.844 3.338-.742.802-1.504 1.819-1.504 2.006 0 .086-.165.388-.367.67-.415.579-.559 1.184-1.267 5.33-.1.58-.324 1.288-.498 1.57-.174.282-.32.688-.325.901-.011.557-.495 1.453-.972 1.802-.5.365-1.272.505-1.725.314zm26.04-7.957c-.146-.85-.217-1.035 2.37-1.035 1.446 0 2.754-.09 3.387-.232 1.339-.302 5.355-.493 5.684-.27.21.142.195.215-.116.526-.768.77-1.702.967-5.015 1.054-1.7.045-2.16.184-3.24.175-1.026-.01-2.896.793-3.07-.218z" stroke-width=".163"/></svg>