<?xml version="1.0" encoding="UTF-8" standalone="no"?>
<svg
   xmlns:dc="http://purl.org/dc/elements/1.1/"
   xmlns:cc="http://creativecommons.org/ns#"
   xmlns:rdf="http://www.w3.org/1999/02/22-rdf-syntax-ns#"
   xmlns:svg="http://www.w3.org/2000/svg"
   xmlns="http://www.w3.org/2000/svg"
   id="svg2663"
   viewBox="0 0 38.56158 28.492451"
   version="1.1"
   height="28.492451"
   width="38.561581">
  <defs
     id="defs2667" />
  <metadata
     id="metadata2">
    <rdf:RDF>
      <cc:Work
         rdf:about="">
        <dc:format>image/svg+xml</dc:format>
        <dc:type
           rdf:resource="http://purl.org/dc/dcmitype/StillImage" />
        <dc:title />
      </cc:Work>
    </rdf:RDF>
  </metadata>
  <g
     transform="translate(-427.21165,-465.32253)"
     id="g2661">
    <g
       style="stroke-width:0.16327"
       id="g2557">
      <path
         d="m 428.19,473.69 c -0.21717,-0.21717 -0.10052,-0.78403 0.27816,-1.3518 1.6936,-2.539 1.8987,-2.9859 1.8987,-4.1365 0,-0.50078 -0.12526,-0.74999 -0.65306,-1.2993 -0.71901,-0.74826 -0.81818,-1.1671 -0.33726,-1.4244 0.54795,-0.29326 0.9061,-0.1874 1.531,0.45254 0.69136,0.70801 0.92873,1.3726 0.92873,2.6 0,1.9497 -2.8389,5.9667 -3.6462,5.1593 z m 1.1642,18.353 c 0.0936,-0.11275 0.22498,-0.42499 0.29204,-0.69387 0.067,-0.26889 0.25502,-0.78276 0.4177,-1.142 0.37219,-0.82173 0.41284,-2.3673 0.0623,-2.3673 -0.13239,0 -0.36305,0.23877 -0.51258,0.53061 -0.14952,0.29183 -0.34332,0.57677 -0.43063,0.63317 -0.17461,0.1128 -0.43065,1.1334 -0.56299,2.244 -0.0596,0.50005 -0.0185,0.75609 0.13703,0.85465 0.30072,0.19053 0.39786,0.18088 0.59717,-0.0593 z m -1.2028,1.6863 c -0.69808,-0.29528 -0.96101,-0.97064 -0.93842,-2.4103 0.0181,-1.1542 0.0921,-1.4781 0.54067,-2.3674 0.28583,-0.56661 0.88054,-1.5277 1.3216,-2.1357 0.44105,-0.60804 0.80191,-1.1655 0.80191,-1.2388 0,-0.0733 0.27954,-0.53089 0.62123,-1.0169 0.82711,-1.1766 1.5012,-3.4747 1.5012,-5.1178 0,-0.87682 1.2816,-7.4489 1.5065,-7.7251 0.22914,-0.28147 0.85934,-0.25608 1.1089,0.0447 0.16738,0.20169 0.1564,0.44107 -0.0581,1.2653 -0.46989,1.8055 -0.92467,4.5177 -0.92467,5.5146 0,0.96511 0.003,0.9713 0.47813,0.9713 0.39335,0 0.57043,-0.14245 0.99874,-0.80343 0.2999,-0.46284 0.68426,-0.84451 0.90664,-0.90033 0.21235,-0.0533 0.5081,-0.33461 0.65726,-0.62514 0.14916,-0.29053 0.59127,-0.85886 0.98247,-1.2629 0.39121,-0.40408 0.71133,-0.80056 0.71138,-0.88106 9e-5,-0.18142 1.0964,-1.8466 1.265,-1.9215 0.17646,-0.0784 0.69427,-1.1003 0.69427,-1.3701 0,-0.34614 0.74736,-0.76911 1.1392,-0.64475 0.18638,0.0592 0.46068,0.30404 0.60956,0.54415 0.4354,0.70227 0.90304,1.1835 1.5532,1.5984 0.33447,0.21344 0.73102,0.57566 0.88124,0.80493 0.25821,0.39406 0.2547,0.45878 -0.0644,1.1842 -0.18565,0.42206 -0.50616,1.4548 -0.71225,2.2949 -0.36729,1.4974 -0.36855,1.532 -0.0635,1.7551 0.46538,0.34028 1.0523,0.27608 1.6511,-0.18062 0.29432,-0.22449 0.6135,-0.40816 0.70929,-0.40816 0.0958,0 0.17415,-0.0568 0.17415,-0.12614 0,-0.0694 0.25837,-0.26527 0.57414,-0.43533 0.31579,-0.17006 0.79469,-0.64596 1.0643,-1.0575 2.1956,-3.3524 5.0655,-5.3661 6.5305,-4.5821 0.17088,0.0915 0.50549,0.49871 0.74361,0.90501 0.23811,0.40632 0.47919,0.7168 0.53572,0.69 0.0566,-0.0268 0.81886,-0.39736 1.694,-0.8234 0.87514,-0.42604 1.7799,-0.77461 2.0105,-0.77461 0.57591,0 2.1265,0.73084 2.2536,1.0622 0.20077,0.52318 0.11076,3.5257 -0.12158,4.056 -0.47615,1.0867 -0.91742,2.5276 -0.91742,2.9957 0,0.82521 -0.98336,1.3697 -1.4526,0.80427 -0.20952,-0.25244 -0.0119,-1.1438 0.6922,-3.1223 0.2237,-0.62858 0.45871,-1.672 0.52225,-2.3188 0.11381,-1.1584 0.10815,-1.1833 -0.38204,-1.6735 -0.30105,-0.30105 -0.6663,-0.49757 -0.92478,-0.49757 -0.49489,0 -1.7204,0.58385 -1.7204,0.81964 0,0.088 -0.10045,0.15995 -0.22321,0.15995 -0.6236,0 -2.8788,3.39 -2.8788,4.3274 0,0.12521 -0.22553,0.56184 -0.50119,0.97028 -0.58098,0.86087 -1.219,1.1276 -1.565,0.65437 -0.29497,-0.4034 -0.27761,-0.62029 0.10704,-1.338 0.17959,-0.33508 0.32653,-0.73364 0.32653,-0.88571 0,-0.15205 0.0957,-0.37355 0.21257,-0.49221 0.46395,-0.47086 1.2816,-2.2164 1.3673,-2.9192 0.0772,-0.63226 0.03,-0.81505 -0.31366,-1.2145 l -0.40449,-0.47025 -0.76885,0.29362 c -0.78541,0.29995 -1.9964,1.4073 -2.4027,2.197 -0.12116,0.23551 -0.26068,0.46493 -0.31005,0.50982 -0.0494,0.0449 -0.26828,0.33878 -0.48649,0.65307 -0.50672,0.72989 -2.1934,2.449 -2.4028,2.449 -0.0877,0 -0.42563,0.25103 -0.75096,0.55784 -0.32532,0.30682 -0.85844,0.64596 -1.1847,0.75365 -0.71034,0.23443 -1.7559,0.12333 -2.1027,-0.22345 -0.13768,-0.13768 -0.3857,-0.29329 -0.55114,-0.34579 -0.80209,-0.25458 -0.75745,-1.3602 0.15602,-3.8631 0.26028,-0.7132 0.47324,-1.3891 0.47324,-1.502 0,-0.11292 -0.42047,-0.48221 -0.93438,-0.82064 -0.85897,-0.56568 -0.95091,-0.59273 -1.1391,-0.33533 -0.11261,0.15399 -0.37172,0.47032 -0.57582,0.70294 -0.2041,0.2326 -0.51086,0.6882 -0.6817,1.0124 -0.17084,0.32423 -0.47344,0.69154 -0.67242,0.81628 -0.19901,0.12473 -0.84892,0.81454 -1.4443,1.5329 -1.6456,1.9857 -2.2568,2.7028 -2.8445,3.338 -0.74153,0.80137 -1.5037,1.8183 -1.5037,2.0062 0,0.086 -0.1653,0.38717 -0.36734,0.66917 -0.41485,0.57904 -0.55871,1.1842 -1.267,5.3297 -0.0994,0.58153 -0.3233,1.2882 -0.49766,1.5703 -0.17436,0.28213 -0.32054,0.68796 -0.32485,0.90183 -0.0113,0.55605 -0.49501,1.4528 -0.97176,1.8012 -0.49977,0.36522 -1.2724,0.50578 -1.7258,0.31397 z m 26.04,-7.9569 c -0.14616,-0.84935 -0.21712,-1.0345 2.3695,-1.0345 1.447,0 2.7552,-0.0897 3.3878,-0.23233 1.3389,-0.30184 5.3545,-0.49295 5.6836,-0.27048 0.21096,0.14258 0.19498,0.21557 -0.11533,0.5266 -0.76878,0.77057 -1.7026,0.9668 -5.0154,1.054 -1.6995,0.0447 -2.159,0.18379 -3.2408,0.17458 -1.0256,-0.009 -2.8953,0.79303 -3.0693,-0.21778 z"
         id="adjourned" />
    </g>
  </g>
</svg>
