<svg xmlns="http://www.w3.org/2000/svg" height="30.743" width="24.648"><path d="M1.597 10.58c-.163-.196-.15-.323.065-.653.148-.225.33-.409.404-.409.226 0 1.67-1.932 2.082-2.787.447-.926.517-2.127.142-2.437-.134-.112-.245-.45-.245-.752 0-.45.074-.567.415-.652.734-.184 1.545.942 1.545 2.146 0 .627-.342 2.24-.5 2.36-.06.045-.238.339-.398.653-.16.314-.784 1.067-1.389 1.673-1.138 1.142-1.698 1.368-2.12.858zm12.447 13.36c-.113-.045-.534-.59-.935-1.211-.402-.621-.806-1.13-.897-1.13-.092 0-.167-.116-.167-.259 0-.142-.367-.671-.816-1.175-.923-1.035-1.054-1.601-.408-1.764.53-.133 1.224.045 1.224.314 0 .116.33.598.735 1.071.404.473.735.931.735 1.018 0 .086.367.598.816 1.138.906 1.088.965 1.305.49 1.78-.336.336-.424.36-.777.218zm2.69-7.321c.605-.302 1.395-1.43 1.544-2.203.167-.869.483-2.007.644-2.324.133-.263.214-3.39.087-3.39-.203 0-1.086.542-1.086.666 0 .264-2.324 2.445-3.347 3.142-1.263.86-1.539 1.203-1.546 1.925-.006.67.488 1.319 1.528 2.009.72.477 1.452.536 2.176.175zM3.35 27.986c.421-.631.697-1.231.697-1.519 0-.261.107-.682.238-.936.269-.52.74-2.634.741-3.319 0-.654-.564-.604-.918.082-.15.292-.505.824-.789 1.184-.284.359-.84 1.308-1.237 2.108-.795 1.603-.902 2.377-.43 3.098.453.69.892.51 1.698-.699zM24.515.6c.305.374.03.941-.27 1.423-.628 1.012-1.317 2.02-1.497 2.19-.356.335-1.518 1.807-1.675 2.122-.238.478-.512 2.098-.606 3.592a20.46 20.46 0 01-.325 2.449 29.957 29.957 0 00-.343 1.916c-.055.425-.192.866-.305.98-.113.113-.4.54-.64.95-.725 1.239-1.329 1.66-2.809 1.96-.913.186-1.742-.074-2.599-.815-.4-.347-.799-.657-.884-.689-.086-.032-.298-.315-.472-.629-.402-.729-1.213-.89-1.527-.302-.24.45-.758.913-1.247 1.118-.199.083-.528.406-.732.716-.204.311-.574.685-.822.832-.263.156-.451.409-.451.607 0 .187-.14.642-.31 1.011-.17.37-.396 1.185-.5 1.814-.584 3.488-1.174 5.37-2.038 6.503-.23.302-.418.66-.418.798 0 .386-1.405 1.597-1.853 1.597-.252 0-.624-.253-1.05-.716C.17 28.974-.093 28.38.026 27.511c.055-.401.24-.958.414-1.238.172-.28.421-.822.552-1.204.279-.81 1.4-2.607 2.228-3.571 2.175-2.53 2.472-2.977 2.937-4.421.254-.79.51-1.767.569-2.17.058-.405.173-1.03.254-1.389.08-.359.27-1.35.419-2.204.437-2.499.846-3.742 1.297-3.947.697-.318.957-.07.838.799-.057.42-.163.804-.234.854-.19.133-.52 1.725-.52 2.511 0 .375-.137 1.16-.303 1.743-.167.583-.355 1.41-.419 1.836-.108.725-.092.776.243.776.502 0 1.363-.557 2.6-1.682a49.341 49.341 0 012.45-2.04c1.147-.888 3.796-3.437 5.33-5.127.501-.554.817-1.397 1.025-2.74.197-1.266.312-3.01 1.422-3.762.935-.634 2.674-.812 3.387.064z" stroke-width=".163"/></svg>