<?xml version="1.0" encoding="UTF-8" standalone="no"?>
<svg
   xmlns:dc="http://purl.org/dc/elements/1.1/"
   xmlns:cc="http://creativecommons.org/ns#"
   xmlns:rdf="http://www.w3.org/1999/02/22-rdf-syntax-ns#"
   xmlns:svg="http://www.w3.org/2000/svg"
   xmlns="http://www.w3.org/2000/svg"
   id="svg2663"
   viewBox="0 0 24.648008 30.742992"
   version="1.1"
   height="30.742992"
   width="24.648008">
  <defs
     id="defs2667" />
  <metadata
     id="metadata2">
    <rdf:RDF>
      <cc:Work
         rdf:about="">
        <dc:format>image/svg+xml</dc:format>
        <dc:type
           rdf:resource="http://purl.org/dc/dcmitype/StillImage" />
        <dc:title />
      </cc:Work>
    </rdf:RDF>
  </metadata>
  <g
     transform="translate(-432.69292,-486.31968)"
     id="g2661">
    <g
       style="stroke-width:0.16327"
       id="g2557">
      <path
         d="m 434.29,496.9 c -0.16325,-0.19669 -0.15055,-0.32348 0.0654,-0.65306 0.14738,-0.22494 0.3289,-0.40898 0.40338,-0.40898 0.22622,0 1.6695,-1.9324 2.0821,-2.7876 0.44661,-0.92579 0.5167,-2.1262 0.1423,-2.4369 -0.13469,-0.11179 -0.2449,-0.45 -0.2449,-0.75158 0,-0.45104 0.0736,-0.56679 0.41475,-0.65242 0.73355,-0.18412 1.5444,0.94271 1.5444,2.1462 0,0.62682 -0.34157,2.2404 -0.49955,2.3599 -0.0594,0.0449 -0.23838,0.33877 -0.39781,0.65306 -0.15941,0.31428 -0.78452,1.0674 -1.3891,1.6735 -1.1385,1.1414 -1.698,1.3677 -2.121,0.85796 z m 12.447,13.36 c -0.11286,-0.0455 -0.53383,-0.59072 -0.93548,-1.2116 -0.40165,-0.62087 -0.8052,-1.1289 -0.89681,-1.1289 -0.0916,0 -0.16657,-0.1168 -0.16657,-0.25954 0,-0.14276 -0.36734,-0.67171 -0.81632,-1.1755 -0.92268,-1.0352 -1.0537,-1.6012 -0.40817,-1.7633 0.53049,-0.13314 1.2245,0.0444 1.2245,0.31318 0,0.1159 0.33062,0.59805 0.7347,1.0714 0.40408,0.47341 0.73469,0.93141 0.73469,1.0178 0,0.0864 0.36735,0.5985 0.81633,1.138 0.90576,1.0884 0.9653,1.3048 0.48979,1.7803 -0.33564,0.33564 -0.42362,0.36034 -0.77665,0.21802 z m 2.6902,-7.3218 c 0.60433,-0.30147 1.3945,-1.4289 1.5435,-2.2024 0.16748,-0.86916 0.48274,-2.0074 0.64379,-2.3243 0.13337,-0.26247 0.2141,-3.39 0.0875,-3.39 -0.20289,0 -1.0863,0.54178 -1.0863,0.66622 0,0.26386 -2.3236,2.4449 -3.3469,3.1416 -1.2631,0.85989 -1.5389,1.2035 -1.5456,1.9252 -0.006,0.66998 0.48738,1.3191 1.5276,2.0091 0.71972,0.47741 1.4518,0.53613 2.1764,0.17463 z m -13.385,11.367 c 0.42109,-0.63082 0.69637,-1.231 0.69637,-1.5183 0,-0.26129 0.10729,-0.68255 0.23842,-0.93611 0.26854,-0.5193 0.74083,-2.6344 0.74105,-3.3187 0,-0.65465 -0.56453,-0.60441 -0.91774,0.0816 -0.15025,0.29184 -0.50545,0.82449 -0.78933,1.1837 -0.28389,0.35919 -0.84077,1.3079 -1.2375,2.1083 -0.79461,1.603 -0.90174,2.3768 -0.42902,3.0982 0.45227,0.69027 0.89116,0.50963 1.6978,-0.69875 z m 21.166,-27.386 c 0.30453,0.37479 0.0297,0.94183 -0.26937,1.4235 -0.62854,1.0121 -1.318,2.0197 -1.4981,2.1894 -0.35615,0.33554 -1.5179,1.8078 -1.6748,2.1224 -0.23842,0.47808 -0.51166,2.098 -0.60585,3.5918 -0.0453,0.71837 -0.19175,1.8204 -0.32547,2.449 -0.13371,0.62857 -0.28795,1.491 -0.34276,1.9164 -0.0548,0.42545 -0.19192,0.86627 -0.3047,0.97959 -0.11277,0.1133 -0.40111,0.54109 -0.64075,0.95064 -0.7246,1.2383 -1.3282,1.6597 -2.8082,1.9605 -0.91374,0.18568 -1.742,-0.0744 -2.599,-0.81605 -0.40103,-0.34709 -0.79908,-0.65697 -0.88459,-0.68862 -0.0855,-0.0317 -0.29755,-0.31471 -0.47121,-0.629 -0.40283,-0.72901 -1.2134,-0.88926 -1.5277,-0.30201 -0.24034,0.4491 -0.75811,0.91336 -1.2466,1.1179 -0.199,0.0833 -0.52848,0.4057 -0.73219,0.71646 -0.20369,0.31074 -0.57354,0.68501 -0.82185,0.83169 -0.26339,0.15559 -0.45149,0.40846 -0.45149,0.60694 0,0.18713 -0.13933,0.64215 -0.30963,1.0112 -0.1703,0.36902 -0.39564,1.1852 -0.50075,1.8138 -0.58333,3.4884 -1.1728,5.3702 -2.0368,6.5031 -0.22995,0.30147 -0.41808,0.66041 -0.41808,0.79763 0,0.38608 -1.4052,1.5972 -1.8531,1.5972 -0.25275,0 -0.6244,-0.25321 -1.051,-0.71602 h -3e-5 c -0.97084,-1.0532 -1.2337,-1.6467 -1.1145,-2.5164 0.0549,-0.4006 0.24117,-0.95761 0.41393,-1.2378 0.17275,-0.28018 0.42145,-0.82178 0.55265,-1.2036 0.27859,-0.8107 1.3996,-2.6075 2.2281,-3.5714 2.1748,-2.5302 2.4712,-2.9764 2.9365,-4.4209 0.25442,-0.78983 0.5104,-1.7667 0.56886,-2.1708 0.0585,-0.40408 0.17271,-1.0286 0.2539,-1.3878 0.0812,-0.35919 0.26976,-1.351 0.41905,-2.2041 0.43739,-2.4992 0.84578,-3.7417 1.2975,-3.9475 0.69691,-0.31753 0.95707,-0.0695 0.83802,0.79904 -0.0575,0.41988 -0.1629,0.80414 -0.2341,0.85391 -0.19083,0.13337 -0.52108,1.7252 -0.52108,2.5116 0,0.37507 -0.13617,1.1592 -0.30258,1.7426 -0.16642,0.58338 -0.3546,1.4097 -0.41817,1.8362 -0.10799,0.72457 -0.0921,0.77551 0.24249,0.77551 0.50252,0 1.3634,-0.55662 2.6007,-1.6816 0.58367,-0.53067 1.6857,-1.4485 2.449,-2.0396 1.1474,-0.88858 3.7967,-3.4373 5.3299,-5.1277 0.50172,-0.55316 0.81739,-1.3963 1.0259,-2.7401 0.19627,-1.2651 0.31139,-3.0103 1.4214,-3.762 0.93494,-0.63311 2.6747,-0.8117 3.3868,0.0646 z"
         id="adjust" />
    </g>
  </g>
</svg>
