<svg xmlns="http://www.w3.org/2000/svg" height="34.544" width="46.169"><path d="M.11 10.911c-.245-.246-.076-.742.454-1.329.384-.424.676-1.008.92-1.837.51-1.737.556-2.35.238-3.18-.351-.92-.22-1.382.393-1.382.623 0 .845.322 1.078 1.563.159.843.156 1.275-.014 2.154-.24 1.244-.882 2.794-1.3 3.14-.153.128-.342.4-.42.606-.11.288-.27.374-.691.374-.302 0-.597-.049-.657-.109zm14.635 15.454c-.198-.08-.484-.387-.638-.683-.302-.585-1.214-1.812-1.412-1.9-.067-.03-.122-.14-.122-.246 0-.105-.404-.655-.898-1.221-.91-1.044-1.134-1.7-.644-1.888.467-.18 1.334.327 1.63.952.155.325.418.665.586.754.167.09.446.442.62.782.173.34.651 1.03 1.062 1.534.748.918.921 1.514.55 1.886-.225.224-.25.225-.734.03zM22.93 5.118c.846-.594 2.018-2.155 2.078-2.769.05-.502.012-.558-.409-.606-.473-.054-1.087.343-1.087.703 0 .105-.191.369-.424.587-.538.501-1.046 1.484-1.046 2.022 0 .507.233.523.888.063zm-4.452 12.065c.457-.368 1.213-1.655 1.558-2.653.59-1.707.646-4.49.09-4.49-.214 0-2.144 1.566-2.818 2.286a8.23 8.23 0 01-.817.691c-1.138.856-2.285 2.04-2.285 2.358 0 .302.794.923 1.95 1.523.944.492 1.918.611 2.322.285zM2.744 32.701c.108-.108.196-.35.196-.539 0-.188.078-.42.172-.515.215-.214.581-1.778.722-3.076.058-.54.138-1.164.177-1.388.04-.225.007-.509-.072-.632-.118-.182-.2-.166-.449.086-.433.44-1.157 1.831-1.348 2.593-.09.356-.286 1.106-.437 1.667-.227.846-.24 1.103-.071 1.51.216.521.743.661 1.11.294zm-1.53 1.43c-.278-.22-.6-.697-.725-1.076-.197-.6-.188-.861.074-2.175.164-.821.435-1.766.603-2.1.168-.332.305-.736.305-.897 0-.16.257-.696.57-1.19.313-.494.716-1.192.895-1.551.18-.36.579-1.002.887-1.428.46-.636.578-.97.66-1.877.233-2.561.443-4.473.669-6.083.132-.943.346-2.586.477-3.652.259-2.112.532-2.768 1.117-2.685.26.037.374.185.417.541.069.558-.184 2.713-.643 5.496-.173 1.047-.315 2.393-.315 2.992v1.089l.531-.115c.485-.106 1.803-1.038 2.411-1.705.137-.15.543-.487.902-.75.773-.564 1.133-.873 2.206-1.893.441-.42.955-.812 1.14-.871.187-.06.639-.432 1.004-.828.365-.397.73-.721.811-.721.192 0 .875-.638 3.205-2.997 1.842-1.863 1.916-1.966 2.015-2.775.213-1.737.436-2.506 1.056-3.645.79-1.454 1.936-2.797 2.64-3.097.481-.205.613-.194 1.333.116 1.166.502 1.33.99.823 2.453-.35 1.012-.57 1.306-2.289 3.082l-1.9 1.965-.099 2.245c-.102 2.346-.266 3.394-.784 5.006-.171.531-.31 1.027-.31 1.102 0 .238 1.093.147 1.305-.108.112-.135.286-.247.388-.248.313-.006 2.574-1.755 3.775-2.92C27.585 11.648 28.5 11.02 29 11.017c.169 0 .518-.11.775-.245 1.304-.68 3.206.24 3.206 1.55 0 .566.351.54 1.614-.121.688-.36 1.717-.786 2.287-.946.993-.279 1.057-.279 1.579.002.299.161.66.54.804.843.21.442.357.55.744.55.276 0 .632-.15.835-.352.49-.49 2.382-1.27 3.092-1.276 1.575-.012 2.362.908 2.216 2.587-.112 1.284-.403 2.49-.982 4.07-.484 1.322-.508 1.354-.996 1.306-.799-.078-.772-.497.25-3.848.171-.563.312-1.318.312-1.678 0-.547-.067-.679-.408-.808-.524-.2-1.835.042-2.533.467-.803.488-1.856 1.553-2.14 2.165-.717 1.546-1.352 2.724-1.706 3.163-.326.407-.442.459-.68.306-.468-.3-.358-1.438.266-2.758.658-1.396.849-2.815.433-3.23-.324-.324-.736-.344-1.918-.092-.765.163-.992.318-1.965 1.347-.605.639-1.1 1.274-1.102 1.411-.002.138-.204.476-.451.753-.247.276-.802.917-1.234 1.424-.83.974-1.288 1.144-1.586.588-.15-.278-.083-.463.404-1.127.886-1.207 1.256-2.186 1.351-3.585.102-1.487-.07-1.742-1.08-1.607-1.393.187-3.61 1.569-3.61 2.25 0 .086-.123.157-.273.157-.15 0-.59.33-.977.735-.387.404-.767.734-.844.734-.077 0-.491.332-.92.737-.428.405-.973.78-1.21.835-.236.055-.723.267-1.083.47-.359.205-1.048.489-1.53.632-.484.143-.988.35-1.121.461-.273.226-2.63.288-3.346.088-.697-.195-1.57-1.065-1.945-1.937-.394-.915-.704-1.004-1.294-.372a4.444 4.444 0 01-.968.73c-.511.272-1.752 1.405-2.965 2.706-.24.257-.704.681-1.033.943-.887.706-1.373 1.853-1.563 3.687-.089.853-.233 2.255-.32 3.115-.24 2.34-.93 4.458-1.83 5.603-.962 1.226-1.463 1.372-2.34.68z"/></svg>