<?xml version="1.0" encoding="UTF-8" standalone="no"?>
<svg
   xmlns:dc="http://purl.org/dc/elements/1.1/"
   xmlns:cc="http://creativecommons.org/ns#"
   xmlns:rdf="http://www.w3.org/1999/02/22-rdf-syntax-ns#"
   xmlns:svg="http://www.w3.org/2000/svg"
   xmlns="http://www.w3.org/2000/svg"
   id="svg2663"
   viewBox="0 0 46.169428 34.543736"
   version="1.1"
   height="34.543736"
   width="46.16943">
  <defs
     id="defs2667" />
  <metadata
     id="metadata2">
    <rdf:RDF>
      <cc:Work
         rdf:about="">
        <dc:format>image/svg+xml</dc:format>
        <dc:type
           rdf:resource="http://purl.org/dc/dcmitype/StillImage" />
        <dc:title />
      </cc:Work>
    </rdf:RDF>
  </metadata>
  <g
     transform="translate(-427.42926,-507.99877)"
     id="g2661">
    <g
       style="stroke-width:0.16327"
       id="g2557">
      <path
         d="m 427.54,518.91 c -0.24598,-0.24596 -0.0767,-0.74214 0.45336,-1.3288 0.38357,-0.42459 0.67562,-1.0083 0.91924,-1.8372 0.51052,-1.7371 0.55649,-2.3494 0.23886,-3.1811 -0.35138,-0.92005 -0.22019,-1.3808 0.39314,-1.3808 0.62314,0 0.84482,0.32124 1.078,1.5622 0.15853,0.84361 0.15562,1.2752 -0.0145,2.1546 -0.24061,1.2438 -0.88198,2.794 -1.2992,3.1403 -0.15352,0.12741 -0.34312,0.39998 -0.42134,0.60572 -0.10928,0.28741 -0.26923,0.37405 -0.69048,0.37405 -0.30154,0 -0.59725,-0.049 -0.6571,-0.10885 z m 14.634,15.454 c -0.19734,-0.0795 -0.4842,-0.38705 -0.63747,-0.68352 -0.30246,-0.58508 -1.2142,-1.8117 -1.4119,-1.8996 -0.0673,-0.0299 -0.12245,-0.14068 -0.12245,-0.2461 0,-0.10542 -0.40408,-0.65501 -0.89796,-1.2213 -0.91012,-1.0436 -1.1339,-1.6996 -0.64393,-1.8877 0.46703,-0.17921 1.3337,0.32676 1.6303,0.95177 0.15437,0.32531 0.4178,0.66484 0.58539,0.75454 0.16759,0.0897 0.4467,0.44138 0.62023,0.78153 0.17354,0.34015 0.65132,1.0307 1.0618,1.5346 0.74777,0.91796 0.9217,1.5137 0.55033,1.8851 -0.22472,0.22472 -0.24997,0.22578 -0.7343,0.0307 z m 8.1854,-21.247 c 0.84635,-0.59453 2.0181,-2.1557 2.0783,-2.7691 0.0492,-0.5018 0.0113,-0.55816 -0.40913,-0.60629 -0.47327,-0.0542 -1.0876,0.34291 -1.0876,0.70297 0,0.10513 -0.19083,0.36924 -0.42405,0.58694 -0.53755,0.50173 -1.0453,1.4839 -1.0453,2.022 0,0.50681 0.23306,0.52348 0.88785,0.0635 z m -4.452,12.065 c 0.45724,-0.36828 1.2129,-1.6551 1.558,-2.6531 0.59035,-1.7074 0.64565,-4.4898 0.0892,-4.4898 -0.21347,0 -2.1435,1.5656 -2.8178,2.2858 -0.13469,0.14386 -0.50204,0.45489 -0.81632,0.69119 -1.1387,0.85614 -2.2857,2.0393 -2.2857,2.3578 0,0.30201 0.79442,0.92271 1.9496,1.5233 0.9449,0.49127 1.9184,0.6106 2.323,0.28474 z m -15.734,15.518 c 0.10775,-0.10775 0.19592,-0.3502 0.19592,-0.53877 0,-0.18857 0.0775,-0.42036 0.17221,-0.51507 0.21442,-0.21442 0.58122,-1.7782 0.72173,-3.0768 0.0583,-0.53877 0.13802,-1.1633 0.17716,-1.3878 0.0392,-0.22449 0.007,-0.50867 -0.0725,-0.63151 -0.11733,-0.18235 -0.19971,-0.16658 -0.44871,0.0859 -0.43309,0.4391 -1.1569,1.8311 -1.3482,2.5928 -0.0893,0.35569 -0.28586,1.1057 -0.43672,1.6667 -0.22748,0.84597 -0.23962,1.1036 -0.0712,1.5102 0.21605,0.52157 0.74335,0.66134 1.1104,0.2943 z m -1.5292,1.4298 c -0.27848,-0.21957 -0.6004,-0.69706 -0.72548,-1.076 -0.19773,-0.59914 -0.18887,-0.86146 0.0735,-2.1749 0.16409,-0.82147 0.43547,-1.7662 0.60306,-2.0993 0.16757,-0.33316 0.30501,-0.73724 0.30537,-0.89796 0,-0.16072 0.25672,-0.69629 0.56965,-1.1902 0.31293,-0.49391 0.71583,-1.1918 0.89536,-1.551 0.17951,-0.35918 0.5785,-1.0015 0.88661,-1.4274 0.46064,-0.63663 0.57806,-0.97045 0.66046,-1.8776 0.23267,-2.561 0.44261,-4.4726 0.66811,-6.0828 0.13204,-0.94286 0.34691,-2.5862 0.47752,-3.6519 0.25883,-2.112 0.53182,-2.768 1.1172,-2.6846 0.25948,0.0369 0.37341,0.18465 0.41695,0.54062 0.0683,0.55818 -0.1841,2.7135 -0.64351,5.4957 -0.1729,1.0471 -0.31437,2.3938 -0.31437,2.9926 v 1.0887 l 0.53062,-0.11541 c 0.48453,-0.10539 1.8029,-1.0372 2.4115,-1.7045 0.13655,-0.1497 0.54228,-0.48689 0.90161,-0.7493 0.77334,-0.56477 1.1331,-0.87367 2.2054,-1.8939 0.4415,-0.42002 0.95515,-0.81205 1.1414,-0.87119 0.1863,-0.0591 0.63765,-0.43178 1.003,-0.82814 0.36534,-0.39636 0.73047,-0.72066 0.81138,-0.72066 0.19171,0 0.8744,-0.63835 3.2048,-2.9967 1.8416,-1.8636 1.9164,-1.9666 2.0154,-2.7755 0.21257,-1.7363 0.43527,-2.5056 1.0552,-3.645 0.79093,-1.4536 1.9364,-2.797 2.6406,-3.097 0.48068,-0.20478 0.61236,-0.19326 1.333,0.11673 1.1657,0.50147 1.3296,0.99037 0.82245,2.4529 -0.35068,1.0113 -0.5689,1.3052 -2.2886,3.0821 l -1.901,1.9642 -0.0978,2.245 c -0.10223,2.3464 -0.26654,3.3946 -0.78476,5.0067 -0.17076,0.53115 -0.31047,1.0271 -0.31047,1.102 0,0.23778 1.0942,0.14681 1.3061,-0.10861 0.11179,-0.13469 0.28609,-0.24636 0.38733,-0.24814 0.31342,-0.006 2.5745,-1.7544 3.7759,-2.9205 1.2168,-1.1811 2.1307,-1.8103 2.6315,-1.8119 0.16899,0 0.5177,-0.11074 0.77491,-0.2449 1.3039,-0.68003 3.2058,0.23959 3.2058,1.5501 0,0.56574 0.3516,0.53922 1.6142,-0.12177 0.68829,-0.36035 1.7173,-0.78588 2.2867,-0.94564 0.99388,-0.27887 1.057,-0.27877 1.579,0.002 0.29907,0.16106 0.66129,0.54049 0.80491,0.84318 0.20963,0.44177 0.3563,0.55035 0.7433,0.55035 0.27646,0 0.63269,-0.15054 0.83502,-0.35288 0.48934,-0.48934 2.3821,-1.27 3.0922,-1.2754 1.5749,-0.0118 2.3625,0.9075 2.2162,2.587 -0.11179,1.2835 -0.40303,2.4906 -0.9819,4.0697 -0.4847,1.3223 -0.50872,1.3538 -0.99618,1.3061 -0.79892,-0.0781 -0.77177,-0.49669 0.24968,-3.8482 0.17161,-0.5631 0.31204,-1.318 0.31204,-1.6775 0,-0.54689 -0.0666,-0.67902 -0.40784,-0.80874 -0.52353,-0.19905 -1.8354,0.0428 -2.533,0.46704 -0.80333,0.48854 -1.8555,1.5536 -2.1397,2.1658 -0.71713,1.5451 -1.3525,2.7232 -1.7058,3.163 -0.32669,0.40656 -0.44245,0.45848 -0.68117,0.3055 -0.46706,-0.29926 -0.3572,-1.4375 0.2662,-2.7579 0.65887,-1.3956 0.84953,-2.8149 0.43396,-3.2304 -0.32412,-0.32409 -0.73659,-0.34388 -1.9185,-0.092 -0.76517,0.16308 -0.99228,0.31875 -1.9649,1.3469 -0.60486,0.6394 -1.1008,1.2747 -1.102,1.4119 -0.002,0.13714 -0.20433,0.47564 -0.45127,0.75224 -0.24693,0.27659 -0.80218,0.91746 -1.2339,1.4241 -0.8302,0.9744 -1.2883,1.1443 -1.5859,0.58828 -0.14906,-0.27851 -0.0829,-0.46273 0.40444,-1.1267 0.88603,-1.207 1.2551,-2.1864 1.3509,-3.5852 0.1019,-1.4868 -0.07,-1.7424 -1.0802,-1.6069 -1.3928,0.18682 -3.6106,1.5684 -3.6106,2.2493 0,0.0867 -0.12279,0.15759 -0.27288,0.15759 -0.15009,0 -0.58966,0.33061 -0.97685,0.73469 -0.38718,0.40408 -0.76697,0.73469 -0.844,0.73469 -0.077,0 -0.49082,0.33135 -0.91954,0.73631 -0.42874,0.40498 -0.97308,0.78102 -1.2096,0.83564 -0.23657,0.0546 -0.72402,0.26631 -1.0832,0.47037 -0.35918,0.20407 -1.0482,0.4881 -1.5312,0.63119 -0.48297,0.14308 -0.98723,0.35067 -1.1206,0.46133 -0.27236,0.22605 -2.6296,0.28756 -3.3452,0.0873 -0.69702,-0.19507 -1.5707,-1.0646 -1.9459,-1.9368 -0.39341,-0.91452 -0.70392,-1.0037 -1.294,-0.37151 -0.2177,0.23322 -0.65295,0.56122 -0.96723,0.72888 -0.51133,0.27277 -1.7526,1.4058 -2.9656,2.707 -0.23924,0.25663 -0.70417,0.6809 -1.0332,0.94281 -0.88703,0.70613 -1.373,1.8525 -1.5629,3.6871 -0.0883,0.85306 -0.23242,2.2549 -0.32021,3.1152 -0.23878,2.3397 -0.93004,4.4573 -1.8288,5.6022 -0.96307,1.2268 -1.4634,1.3721 -2.341,0.68018 z"
         id="adjustment" />
    </g>
  </g>
</svg>
