<?xml version="1.0" encoding="UTF-8" standalone="no"?>
<svg
   xmlns:dc="http://purl.org/dc/elements/1.1/"
   xmlns:cc="http://creativecommons.org/ns#"
   xmlns:rdf="http://www.w3.org/1999/02/22-rdf-syntax-ns#"
   xmlns:svg="http://www.w3.org/2000/svg"
   xmlns="http://www.w3.org/2000/svg"
   id="svg2663"
   viewBox="0 0 75.994222 22.779566"
   version="1.1"
   height="22.779566"
   width="75.994225">
  <defs
     id="defs2667" />
  <metadata
     id="metadata2">
    <rdf:RDF>
      <cc:Work
         rdf:about="">
        <dc:format>image/svg+xml</dc:format>
        <dc:type
           rdf:resource="http://purl.org/dc/dcmitype/StillImage" />
        <dc:title />
      </cc:Work>
    </rdf:RDF>
  </metadata>
  <g
     transform="translate(-426.697,-557.40781)"
     id="g2661">
    <g
       style="stroke-width:0.16327"
       id="g2557">
      <path
         d="m 432.58,573.44 c 1.1726,-1.182 1.3926,-1.5016 1.7783,-2.5829 0.16013,-0.44898 0.39763,-1.0589 0.52778,-1.3553 0.13014,-0.29643 0.27439,-0.81071 0.32053,-1.1429 0.0822,-0.59171 0.77247,-2.8043 1.032,-3.3078 0.2063,-0.40034 1.3099,-4.9882 1.3099,-5.4455 0,-0.53941 -0.42637,-0.75022 -1.4995,-0.74136 -1.0389,0.008 -1.839,0.27277 -2.6123,0.86258 -0.31466,0.24002 -0.65084,0.43638 -0.74707,0.43638 -0.0962,0 -0.41427,0.31224 -0.70676,0.69388 -0.29251,0.38163 -0.6158,0.76734 -0.71843,0.85714 -0.21251,0.18591 -0.73638,1.1988 -0.73638,1.4237 0,0.082 -0.17437,0.38294 -0.38748,0.66878 -0.50031,0.67106 -1.1499,2.2162 -1.4542,3.4585 -0.13194,0.53878 -0.40325,1.5674 -0.60294,2.2857 -0.61107,2.1982 -0.26611,4.2076 0.82085,4.7815 0.25001,0.132 0.82642,0.19127 1.5421,0.15853 l 1.1429,-0.0523 z m 38.152,6.6545 c -0.51625,-0.13123 -1.6755,-1.2096 -1.6717,-1.555 0.002,-0.0947 0.14714,-0.75993 0.32461,-1.4783 0.43129,-1.7458 0.42677,-2.4655 -0.017,-2.703 -0.54503,-0.29169 -2.4702,-0.0363 -3.0717,0.40745 -0.49747,0.36703 -1.1562,1.1121 -1.1562,1.3078 0,0.057 -0.079,0.19232 -0.17556,0.30078 -0.24451,0.27465 -0.8671,1.3419 -1.3804,2.3662 -0.4865,0.97088 -1.0357,1.4215 -1.5381,1.262 -0.45586,-0.14467 -0.42177,-0.552 0.15208,-1.8176 0.26762,-0.59025 0.57471,-1.4998 0.6824,-2.0211 0.17162,-0.83095 0.16147,-1.0003 -0.0822,-1.3722 -0.26883,-0.4103 -0.33029,-0.42389 -1.8661,-0.41236 -0.87343,0.007 -1.9921,0.0799 -2.486,0.16299 -2.4181,0.40682 -3.4291,0.50836 -6.449,0.64759 -3.9445,0.18186 -7.4055,0.40707 -9.7143,0.63208 -2.8707,0.27979 -4.7526,0.22787 -5.7884,-0.15966 -0.98105,-0.36705 -1.3142,-0.72001 -1.5689,-1.6623 -0.21251,-0.78604 -0.67316,-0.81351 -1.3687,-0.0816 -1.7521,1.8436 -2.4438,2.1708 -4.0676,1.924 -1.3887,-0.2111 -1.8438,-0.50993 -2.389,-1.5685 -0.36223,-0.70338 -0.40844,-0.99172 -0.40281,-2.5138 0.003,-0.94558 0.0897,-2.16 0.19156,-2.6988 0.25938,-1.3721 1.0087,-3.8683 1.2495,-4.1624 0.11066,-0.13516 0.37977,-0.64983 0.598,-1.1437 0.40443,-0.91522 0.83096,-1.6104 1.3423,-2.1879 0.15715,-0.17745 0.28572,-0.45585 0.28572,-0.61866 0,-0.16561 0.34161,-0.54297 0.77551,-0.85662 0.42653,-0.30831 0.86509,-0.70767 0.97458,-0.88744 0.31082,-0.51034 2.8164,-1.6597 3.8509,-1.7665 0.77799,-0.0803 1.0459,-0.0222 2.0642,0.4471 0.64359,0.29666 1.2347,0.65989 1.3135,0.80719 0.14865,0.27775 0.0476,0.86653 -0.36441,2.124 -0.36336,1.109 -0.5887,1.9706 -0.70188,2.6838 -0.11033,0.69517 -0.86757,3.1721 -1.0513,3.4387 -0.0619,0.0898 -0.1952,0.56735 -0.29626,1.0612 -0.67946,3.3203 -0.90028,5.0727 -0.70423,5.5883 0.32286,0.84921 0.40398,0.86296 4.8998,0.83035 2.298,-0.0167 4.9864,-0.11076 5.9742,-0.20911 0.98776,-0.0983 3.572,-0.24979 5.7427,-0.33657 2.9886,-0.11944 4.2768,-0.23829 5.3061,-0.4895 1.4321,-0.3495 4.3907,-0.60219 5.0512,-0.4314 0.21438,0.0555 0.56455,0.35982 0.77817,0.67639 0.26152,0.38758 0.51484,0.5756 0.77551,0.5756 0.21291,0 0.38712,-0.0568 0.38712,-0.12614 0,-0.0694 0.23877,-0.24933 0.53061,-0.39987 1.2249,-0.63189 1.8224,-0.78012 3.1447,-0.78012 1.8035,0 2.0773,0.20862 2.1676,1.6517 0.0359,0.57323 -0.0103,1.583 -0.10244,2.2439 -0.10289,0.73742 -0.11036,1.3524 -0.0193,1.5918 0.13414,0.35282 0.24415,0.39015 1.1493,0.39015 0.85462,0 1.088,-0.0684 1.5959,-0.468 0.3272,-0.2574 0.75571,-0.51805 0.95221,-0.57923 0.49404,-0.15383 1.7694,-1.7023 2.2746,-2.7617 0.15717,-0.3296 0.34976,-0.59927 0.42796,-0.59927 0.0782,0 0.28712,-0.32757 0.46422,-0.72793 0.17709,-0.40036 0.38772,-0.76856 0.46804,-0.81819 0.0804,-0.0497 0.19736,-0.32821 0.26005,-0.61902 0.0627,-0.29081 0.28875,-0.82906 0.50235,-1.1962 0.2136,-0.36707 0.38838,-0.83166 0.38838,-1.0324 0,-0.20077 0.18367,-0.9122 0.40816,-1.5809 0.22449,-0.66875 0.40817,-1.4312 0.40817,-1.6942 0,-0.91424 0.3471,-2.1266 0.65621,-2.292 0.54266,-0.29042 0.96266,-0.19167 1.0742,0.25254 0.15138,0.60315 -0.32702,4.4554 -0.63792,5.1369 -0.0615,0.1347 -0.18035,0.57551 -0.26422,0.97959 -0.20817,1.0031 -0.81965,3.0712 -1.0934,3.6981 -0.12431,0.28469 -0.22464,1.0559 -0.22464,1.7266 0,1.0494 0.0493,1.257 0.36735,1.5457 0.48152,0.43724 1.0856,0.56844 1.7456,0.37915 0.55984,-0.16056 2.2774,-1.3989 2.4064,-1.7349 0.0412,-0.10735 0.40039,-0.54972 0.79822,-0.98304 0.39782,-0.43332 0.72333,-0.83551 0.72333,-0.89375 0,-0.18169 2.5643,-2.6185 3.0953,-2.9414 0.30653,-0.1864 0.8071,-0.3063 1.276,-0.30563 0.69537,0.002 0.80925,0.0565 1.1531,0.56144 0.20986,0.30818 0.42152,0.85835 0.47038,1.2226 0.10168,0.75808 -0.18263,2.3982 -0.5317,3.0674 -0.28742,0.55102 -0.31076,1.5405 -0.0427,1.8086 0.10775,0.10775 0.32396,0.19591 0.48045,0.19591 0.95315,0 3.0953,-2.2685 3.9888,-4.224 0.31297,-0.68496 0.66142,-1.4291 0.77434,-1.6536 0.23335,-0.46396 0.475,-0.51735 3.6618,-0.80898 2.2176,-0.20294 2.6539,-0.11022 2.6539,0.56408 0,0.60649 -0.53238,0.7795 -2.7212,0.88436 -2.3303,0.11164 -2.5236,0.22329 -3.3367,1.9268 -0.26829,0.56215 -0.6159,1.0907 -0.77245,1.1744 -0.15657,0.0838 -0.39197,0.35998 -0.52311,0.61374 -0.13113,0.25377 -0.63428,0.85724 -1.1181,1.3411 -1.6998,1.6998 -4.0328,2.0079 -4.6174,0.6098 -0.26527,-0.63445 -0.22297,-1.9262 0.0823,-2.5146 0.40083,-0.77261 0.5984,-1.5832 0.5984,-2.4554 v -0.84555 h -0.61958 c -0.51651,0 -0.7544,0.12899 -1.4302,0.77551 -0.44587,0.42653 -1.3242,1.3957 -1.9519,2.1538 -1.6326,1.9718 -3.1594,3.4381 -3.5799,3.4381 -0.1942,0 -0.42854,0.0754 -0.52072,0.1676 -0.0922,0.0922 -0.52932,0.20745 -0.97143,0.25613 -1.1632,0.12812 -2.1253,-0.39743 -2.7184,-1.485 -0.25592,-0.46927 -0.44679,-1.0766 -0.44898,-1.4286 -0.005,-0.86924 -0.35233,-0.78957 -1.1268,0.25881 -0.56555,0.76558 -0.87166,1.0687 -1.986,1.9668 -0.13849,0.11162 -0.68951,0.44157 -1.2245,0.73321 -1.0324,0.56284 -2.0871,0.74857 -2.9726,0.52346 z"
         id="administrative" />
    </g>
  </g>
</svg>
