<svg xmlns="http://www.w3.org/2000/svg" height="23.246" width="39.469"><path d="M5.706 15.46c1.572-.904 2.884-2.658 3.236-4.326.119-.562.32-1.187.447-1.387.381-.603 1.878-5.76 2.012-6.933.07-.62.036-.71-.345-.883-.234-.106-.425-.25-.425-.319s-.411-.21-.914-.315c-.878-.182-1.925-.108-2.27.16-.09.07-.442.218-.784.328-.531.17-1.189.722-2.15 1.801-.12.135-.348.52-.508.857-.16.337-.345.613-.41.613-.151 0-.964 1.442-.964 1.71 0 .109-.105.412-.235.673-.324.655-.868 3.45-1.002 5.155-.1 1.262-.075 1.474.226 1.962.422.681.993 1.216 1.42 1.328.597.157 2.06-.075 2.666-.424zm-3.007 1.773c-1.214-.38-1.692-.775-2.208-1.821-.397-.808-.488-1.2-.491-2.125-.005-1.45.467-4.686.767-5.26a2.31 2.31 0 00.23-.89c0-.247.066-.449.145-.449.078 0 .296-.356.483-.79.187-.436.453-.885.59-1 .138-.114.326-.488.419-.831.094-.35.295-.665.457-.716.16-.05.57-.46.913-.91.343-.448.872-.934 1.176-1.079.304-.144.553-.325.553-.401 0-.4 2.02-.952 3.522-.96 1.746-.011 3.093.64 3.491 1.689.318.834.107 2.92-.346 3.439-.075.085-.136.33-.136.543 0 .213-.177.914-.393 1.559-.75 2.231-.914 3.127-.908 4.95.009 2.97-.647 2.81 9.954 2.443 1.212-.042 2.461-.162 2.775-.266.327-.108 2.463-.248 4.98-.327 3.205-.1 4.676-.21 5.388-.403.774-.21 3.656-.555 4.77-.57.109-.002.28.15.378.335.14.26.125.423-.066.715-.231.353-.386.384-2.338.472-1.15.052-2.9.215-3.887.363-.988.147-3.56.325-5.714.397-2.155.07-4.433.216-5.062.322-1.338.226-4.753.385-8.63.402l-2.753.012-.477-.571c-.262-.315-.56-.847-.66-1.184-.214-.712-.477-.78-.786-.204-.12.224-.28.408-.354.408-.074 0-.137.092-.14.204-.007.315-1.02 1.315-1.642 1.622-2.396 1.183-2.774 1.266-4 .882zm34.484 5.98c-.344-.075-.32-.522.136-2.484.136-.584.4-1.758.585-2.609.186-.85.426-1.603.533-1.67.371-.237.905-.135 1.009.192.184.58-.776 4.993-1.32 6.067-.24.475-.485.606-.943.505z" stroke-width=".163"/></svg>