<svg xmlns="http://www.w3.org/2000/svg" height="30.966" width="44.263"><path d="M4.97 15.768c.432-.435.883-.791 1.003-.791.12 0 .33-.166.467-.368.138-.202.55-.68.917-1.062.366-.382.666-.774.666-.872 0-.099.157-.399.348-.667.374-.525 1.12-1.94 1.121-2.124 0-.062.294-.737.653-1.498.359-.762.768-1.85.909-2.418.46-1.854.508-2.015.699-2.372.104-.194.189-.601.189-.904 0-1.1-1.691-1.664-2.988-.998-.681.35-2.4 1.698-2.4 1.882 0 .079-.388.527-.862.996C4.594 5.66 4.089 6.347 3.436 7.648c-.289.574-.656 1.233-.817 1.465-1.182 1.702-1.605 6.022-.69 7.041.787.875 1.938.729 3.042-.385zm37.08 6.82c-.053-.213.056-.883.243-1.488.444-1.437.6-3.609.3-4.164-.202-.37-.314-.406-1.236-.392-.99.016-1.035.036-1.976.898-.648.594-1.03 1.096-1.17 1.535-.114.36-.304.768-.422.909-.118.14-.26.486-.317.768-.116.579-1.114 1.833-1.459 1.833-.124 0-.307-.15-.404-.333-.144-.267-.09-.514.28-1.265.398-.812.465-1.16.513-2.694.034-1.088-.01-1.842-.118-1.97-.27-.326-1.9-.298-3.567.06-.866.187-2.117.324-2.94.323-2.19-.003-6.045.32-7.194.605-.79.195-1.437.228-2.776.142-1.035-.067-2.612-.033-3.87.083-3.568.329-5.126.183-6.318-.592-.46-.3-.631-.54-.716-1.008-.236-1.311-.746-1.347-1.957-.136-1.074 1.074-2.548 2.112-3.366 2.37-.519.163-.713.141-1.416-.161-.86-.37-1.722-1.186-1.987-1.883-.377-.992-.112-4.59.414-5.622.114-.225.52-1.033.902-1.796.381-.763.747-1.424.813-1.47.065-.044.362-.485.659-.979C4.33 3.892 6.918 1.325 8.753.418 9.537.031 9.87-.048 10.422.024c.754.098 2.33.85 2.33 1.11 0 .09.184.383.409.65.45.535.5.87.224 1.553l-.314.784c-.073.18-.178.62-.235.98-.11.693-.407 1.688-.586 1.958-.06.09-.158.457-.22.816-.061.36-.286 1.02-.5 1.47-.212.448-.48 1.146-.594 1.55-.114.404-.314.905-.445 1.112-.265.42-.452 2.544-.284 3.215.08.314.32.526.876.772.726.321.937.333 4.035.218 1.797-.066 4.076-.112 5.064-.1.987.01 2.678-.1 3.755-.246a84.694 84.694 0 013.673-.404c2.537-.207 4.883-.47 5.714-.644 1.279-.266 3.3-.205 3.76.114.57.396.963.895.97 1.23.007.423.505.349 1.151-.172.722-.581 1.688-.89 2.835-.907.744-.01.978.058 1.333.39.73.682.89 1.173.89 2.731 0 1.174-.091 1.718-.486 2.885-.558 1.652-.714 1.89-1.245 1.89-.27 0-.414-.118-.482-.39zm-2.128 8.263c-.41-.273-.35-1.089.197-2.679.305-.885.554-1.699.554-1.809 0-.531.596-1.608.938-1.696.794-.202 1.141.439.635 1.17-.123.177-.306.808-.409 1.4a19.145 19.145 0 01-.428 1.878c-.134.44-.243.962-.244 1.161-.003.525-.78.884-1.243.575z" stroke-width=".163"/></svg>