<?xml version="1.0" encoding="UTF-8" standalone="no"?>
<svg
   xmlns:dc="http://purl.org/dc/elements/1.1/"
   xmlns:cc="http://creativecommons.org/ns#"
   xmlns:rdf="http://www.w3.org/1999/02/22-rdf-syntax-ns#"
   xmlns:svg="http://www.w3.org/2000/svg"
   xmlns="http://www.w3.org/2000/svg"
   id="svg2663"
   viewBox="0 0 44.263167 30.967762"
   version="1.1"
   height="30.967762"
   width="44.263168">
  <defs
     id="defs2667" />
  <metadata
     id="metadata2">
    <rdf:RDF>
      <cc:Work
         rdf:about="">
        <dc:format>image/svg+xml</dc:format>
        <dc:type
           rdf:resource="http://purl.org/dc/dcmitype/StillImage" />
        <dc:title />
      </cc:Work>
    </rdf:RDF>
  </metadata>
  <g
     transform="translate(-441.45358,-532.45037)"
     id="g2661">
    <g
       style="stroke-width:0.16327"
       id="g2557">
      <path
         d="m 446.42,548.22 c 0.43149,-0.4354 0.88224,-0.79164 1.0016,-0.79164 0.1194,0 0.32968,-0.16531 0.46732,-0.36735 0.13763,-0.20204 0.55015,-0.67974 0.91673,-1.0616 0.36658,-0.38186 0.6665,-0.77457 0.6665,-0.87277 0,-0.0982 0.15644,-0.39824 0.34766,-0.66678 0.37369,-0.52481 1.1199,-1.9386 1.121,-2.124 0,-0.062 0.29419,-0.73632 0.6529,-1.4984 0.35871,-0.76211 0.76762,-1.8501 0.9087,-2.4178 0.4608,-1.8543 0.50826,-2.0153 0.69927,-2.3722 0.10383,-0.19402 0.1888,-0.60093 0.1888,-0.90423 0,-1.0992 -1.6908,-1.6637 -2.9877,-0.99752 -0.68077,0.34972 -2.4,1.6977 -2.4,1.8818 0,0.0785 -0.38793,0.52689 -0.86209,0.99632 -1.0981,1.0871 -1.6026,1.775 -2.256,3.0755 -0.28826,0.57382 -0.65594,1.233 -0.81703,1.4648 -1.1824,1.7016 -1.6054,6.0221 -0.68924,7.0409 0.78609,0.87424 1.938,0.7284 3.0416,-0.38507 z m 37.083,6.8201 c -0.0536,-0.21355 0.0554,-0.88323 0.24228,-1.4882 0.4439,-1.4372 0.59995,-3.6094 0.29918,-4.1644 -0.20102,-0.37096 -0.3136,-0.40673 -1.2347,-0.39231 -0.99048,0.0155 -1.0353,0.0358 -1.9763,0.89796 -0.64809,0.59375 -1.0306,1.0956 -1.17,1.5352 -0.11397,0.35918 -0.30388,0.76808 -0.422,0.90867 -0.11814,0.14058 -0.26095,0.48631 -0.31734,0.76827 -0.11577,0.57891 -1.1143,1.8333 -1.4593,1.8333 -0.12454,0 -0.30655,-0.1497 -0.40446,-0.33264 -0.14333,-0.2678 -0.0888,-0.51446 0.27997,-1.2653 0.39889,-0.81233 0.46514,-1.16 0.51342,-2.6943 0.0342,-1.0884 -0.0109,-1.8416 -0.1184,-1.971 -0.27024,-0.3256 -1.8995,-0.29764 -3.5668,0.0612 -0.86588,0.18637 -2.1165,0.32351 -2.9388,0.32225 -2.1906,-0.003 -6.0461,0.32082 -7.1951,0.60495 -0.78871,0.19505 -1.4368,0.22819 -2.7755,0.14194 -1.0346,-0.0666 -2.6117,-0.0327 -3.869,0.0832 -3.5688,0.32901 -5.1268,0.18299 -6.3186,-0.59218 -0.46033,-0.29941 -0.63071,-0.53962 -0.71517,-1.0082 -0.23633,-1.3113 -0.74599,-1.3465 -1.9572,-0.1353 -1.0741,1.0741 -2.5481,2.1117 -3.3657,2.3693 -0.51925,0.16359 -0.71292,0.14162 -1.4155,-0.16063 -0.86109,-0.37044 -1.7222,-1.1864 -1.987,-1.883 -0.37705,-0.9917 -0.11261,-4.589 0.41327,-5.6219 0.1143,-0.22449 0.52016,-1.0327 0.90193,-1.7959 0.38176,-0.76327 0.7476,-1.4245 0.81296,-1.4694 0.0654,-0.0449 0.36196,-0.48571 0.6591,-0.97959 1.3651,-2.269 3.9526,-4.8364 5.7883,-5.7435 0.78434,-0.38755 1.1171,-0.46614 1.6695,-0.39435 0.754,0.098 2.3305,0.8495 2.3305,1.1109 0,0.0899 0.18368,0.38169 0.40817,0.64849 0.45077,0.5357 0.49923,0.87118 0.22457,1.5544 -0.10098,0.25117 -0.24263,0.60361 -0.31478,0.7832 -0.0722,0.17959 -0.17765,0.62041 -0.23443,0.97959 -0.10978,0.69434 -0.4072,1.6886 -0.58609,1.9592 -0.0594,0.0898 -0.15825,0.45714 -0.21976,0.81632 -0.0615,0.35919 -0.28628,1.0204 -0.49949,1.4694 -0.21321,0.449 -0.4809,1.1469 -0.59486,1.551 -0.11396,0.4041 -0.31415,0.90438 -0.4449,1.1118 -0.26465,0.41982 -0.45206,2.5437 -0.28365,3.2147 0.0786,0.31311 0.31944,0.52535 0.87516,0.77118 0.7268,0.32149 0.93708,0.33286 4.0347,0.2184 1.7974,-0.0664 4.0762,-0.1118 5.0639,-0.10087 0.98776,0.0109 2.6776,-0.0993 3.7551,-0.24507 1.0776,-0.14573 2.7306,-0.32769 3.6735,-0.40435 2.5373,-0.20628 4.8829,-0.47043 5.7143,-0.64347 1.2785,-0.26613 3.3014,-0.20503 3.7596,0.11353 0.5697,0.39615 0.96332,0.89523 0.96967,1.2295 0.008,0.42333 0.50517,0.34929 1.1519,-0.17158 0.72143,-0.58101 1.6879,-0.89012 2.8348,-0.90671 0.74395,-0.0108 0.97721,0.0575 1.3329,0.38978 0.72982,0.68186 0.8899,1.1732 0.8899,2.7314 0,1.1743 -0.0916,1.7177 -0.48608,2.8848 -0.55858,1.6525 -0.71422,1.8886 -1.2451,1.8886 -0.26931,0 -0.41435,-0.11672 -0.48251,-0.38827 z m -2.1293,8.2633 c -0.40988,-0.27352 -0.34982,-1.0886 0.19743,-2.6792 0.30457,-0.88521 0.55375,-1.6993 0.55375,-1.8091 0,-0.53146 0.59587,-1.6081 0.93842,-1.6956 0.79397,-0.20275 1.1415,0.43815 0.63461,1.1705 -0.12258,0.17712 -0.30653,0.8072 -0.40879,1.4002 -0.10223,0.59298 -0.29502,1.4379 -0.4284,1.8776 -0.13337,0.43967 -0.2433,0.96214 -0.24428,1.161 -0.003,0.52505 -0.77904,0.88412 -1.2427,0.57468 z"
         id="administration_abv" />
    </g>
  </g>
</svg>
