<svg xmlns="http://www.w3.org/2000/svg" height="18.24" width="52.123"><path d="M5.32 15.84c.631-.344 1.856-1.444 1.856-1.666 0-.09.075-.164.167-.164.233 0 1.466-1.944 1.466-2.31 0-.166.136-.438.303-.605.166-.167.355-.515.42-.775.063-.26.287-.877.496-1.371.512-1.21 1.738-5.505 1.773-6.21.025-.508-.038-.598-.625-.886-.814-.399-2.51-.527-3.226-.243-.29.115-.823.443-1.182.729-.36.285-.727.548-.817.585-.325.131-1.834 1.878-2.208 2.556-.21.381-.436.693-.503.693-.066 0-.21.276-.32.613-.111.336-.308.776-.438.976-.13.2-.296.604-.37.898-.072.293-.249.96-.391 1.48-.307 1.122-.34 3.178-.061 3.822.758 1.75 2.374 2.58 3.66 1.878zm45.111 1.974c-.288-.243-.624-.682-.747-.975-.391-.937-.23-2.64.395-4.177.137-.338.22-.634.183-.658-.824-.547-2.433-.806-2.433-.393 0 .117-.257.462-.572.767-.314.304-.571.63-.571.725 0 .094-.349.519-.776.943-.426.424-.965.975-1.197 1.225-1.218 1.308-1.666 1.565-3.357 1.928-1.65.354-2.808-.186-2.828-1.32-.01-.654-.63-.932-1.135-.51-.142.119-.736.43-1.32.693-1.017.457-1.19.48-4.163.575-3.763.118-8.863.431-10.53.646-1.433.185-9.704.067-10.772-.153-.834-.172-1.591-.892-1.745-1.66-.147-.733-.578-.602-1.65.5-.719.74-1.183 1.062-1.88 1.307-1.142.401-1.215.401-2.357 0-1.277-.45-1.907-1.116-2.496-2.641-.694-1.8-.652-2.87.232-5.987.315-1.108 1.013-2.639 1.203-2.639.08 0 .246-.302.368-.67.122-.369.319-.708.438-.754.12-.046.403-.4.63-.786.633-1.082 2.308-2.449 3.9-3.185 1.624-.75 2.133-.787 3.585-.26 1.42.516 1.89.842 1.89 1.312 0 .212.12.483.264.604.21.173.247.419.179 1.17-.048.521-.157 1.038-.243 1.147-.087.109-.21.489-.274.845-.064.356-.222.85-.35 1.097-.127.247-.338.91-.467 1.475-.266 1.158-.574 2.208-1.066 3.635-.67 1.941-.634 3.468.09 3.943.744.487 8.322.654 12.071.265 1.078-.112 4.164-.285 6.857-.386l4.898-.183 1.359-.66c.924-.45 1.498-.848 1.796-1.247.24-.322.566-.729.723-.903.157-.174.286-.456.286-.628 0-.171.105-.506.234-.744.129-.239.277-.635.329-.88.126-.592.85-.807 1.19-.353.302.404.148 1.913-.302 2.965-.18.42-.368 1.206-.417 1.747-.089.972-.083.99.428 1.287.505.293.546.293 1.488 0 .837-.26 1.127-.47 2.114-1.526 2.284-2.446 2.498-2.706 2.807-3.429.588-1.37.972-1.555 2.045-.98.825.442 1.513.55 2.235.351.513-.142.65-.12.911.14.333.333.28.774-.206 1.723-.136.264-.298.792-.361 1.173-.064.382-.183.735-.265.786-.254.157-.177 1.805.096 2.032.135.111.245.303.245.426s.147.316.327.428c.392.245.42.66.07 1.011-.373.373-.79.317-1.386-.184z"/></svg>