<?xml version="1.0" encoding="UTF-8" standalone="no"?>
<svg
   xmlns:dc="http://purl.org/dc/elements/1.1/"
   xmlns:cc="http://creativecommons.org/ns#"
   xmlns:rdf="http://www.w3.org/1999/02/22-rdf-syntax-ns#"
   xmlns:svg="http://www.w3.org/2000/svg"
   xmlns="http://www.w3.org/2000/svg"
   id="svg2663"
   viewBox="0 0 43.175528 17.507025"
   version="1.1"
   height="17.507025"
   width="43.175529">
  <defs
     id="defs2667" />
  <metadata
     id="metadata2">
    <rdf:RDF>
      <cc:Work
         rdf:about="">
        <dc:format>image/svg+xml</dc:format>
        <dc:type
           rdf:resource="http://purl.org/dc/dcmitype/StillImage" />
        <dc:title />
      </cc:Work>
    </rdf:RDF>
  </metadata>
  <g
     transform="translate(-425.7232,-629.32167)"
     id="g2661">
    <g
       style="stroke-width:0.16327"
       id="g2557">
      <path
         d="m 460.8,635.54 c -0.24826,-0.52062 -0.24715,-0.58803 0.0164,-0.9902 0.364,-0.55553 1.2802,-0.61161 1.5565,-0.0953 0.26785,0.50048 -0.29405,1.5235 -0.87476,1.5927 -0.35342,0.0421 -0.48005,-0.0499 -0.69814,-0.50723 z m -28.967,9.5856 c 0.89732,-0.26714 1.2832,-0.58108 2.6471,-2.1535 0.33098,-0.38158 0.65148,-0.85835 0.71225,-1.0595 0.0608,-0.20114 0.33185,-0.84327 0.60238,-1.4269 0.56056,-1.2094 0.74836,-1.8287 0.94064,-3.102 0.0746,-0.49388 0.21386,-1.4122 0.30952,-2.0408 0.24297,-1.5966 0.23004,-2.3673 -0.0397,-2.3673 -0.12106,0 -0.35379,-0.29646 -0.51719,-0.65881 -0.16338,-0.36234 -0.57884,-0.91336 -0.92322,-1.2245 -0.77126,-0.69678 -1.3813,-0.73262 -2.6817,-0.15752 -0.50761,0.22449 -1.0056,0.41115 -1.1067,0.41479 -0.26681,0.01 -1.1721,0.83989 -1.3004,1.1925 -0.0602,0.16568 -0.25881,0.34026 -0.44125,0.38797 -0.22964,0.0601 -0.59942,0.64575 -1.2014,1.9029 -1.2112,2.5292 -1.3752,3.0497 -1.5758,4.9998 -0.33084,3.2171 0.0771,4.491 1.7004,5.3106 0.91375,0.46131 1.2738,0.4591 2.875,-0.0176 z m -3.2242,1.3524 c -1.1444,-0.47796 -1.8604,-1.0761 -2.4252,-2.0257 -0.44394,-0.74648 -0.46542,-0.87457 -0.45974,-2.7422 0.007,-2.195 0.43245,-4.3138 1.1395,-5.6705 0.22144,-0.42489 0.40262,-0.85313 0.40262,-0.95166 0,-0.0985 0.4702,-0.86304 1.0449,-1.6989 1.9616,-2.853 3.7008,-4.0055 6.0445,-4.0055 1.2288,0 1.9726,0.40428 2.7298,1.4837 0.36892,0.52594 0.79687,0.99628 0.95097,1.0452 0.15413,0.0489 0.44933,0.26895 0.65602,0.48896 l 0.37582,0.40004 -0.36088,2.2502 c -0.19848,1.2376 -0.6282,3.3314 -0.95491,4.6528 -0.68819,2.7833 -0.66036,3.0304 0.42745,3.7949 l 0.70641,0.49644 5.3328,-0.015 c 2.933,-0.008 6.3981,-0.10468 7.7002,-0.21422 1.302,-0.10953 3.3224,-0.26031 4.4898,-0.33507 1.1674,-0.0747 2.6,-0.22486 3.1837,-0.33355 1.3231,-0.24641 3.2717,-1.1542 3.7838,-1.7628 0.21262,-0.2527 0.50957,-0.50663 0.65986,-0.56431 0.1503,-0.0577 0.57436,-0.64136 0.94238,-1.2971 0.368,-0.65572 0.73084,-1.3024 0.8063,-1.4371 0.44227,-0.7894 0.99138,-2.7748 0.99138,-3.5845 0,-0.25086 0.1034,-0.74913 0.22975,-1.1073 0.12637,-0.35816 0.30868,-1.3041 0.40516,-2.1022 0.1375,-1.1376 0.24898,-1.5115 0.51611,-1.7311 0.27793,-0.22849 0.39884,-0.24382 0.65608,-0.0832 0.26325,0.16441 0.31535,0.38738 0.31535,1.3495 0,0.63391 -0.0783,1.2308 -0.17391,1.3265 -0.0957,0.0957 -0.23977,0.82668 -0.32026,1.6245 -0.14973,1.4841 -0.28082,2.1415 -0.48456,2.4302 -0.0634,0.0898 -0.21071,0.64082 -0.32739,1.2245 -0.11669,0.58367 -0.26139,1.1347 -0.32157,1.2245 -0.33518,0.50015 -0.57621,1.8013 -0.57484,3.1033 0.002,1.2687 0.0528,1.5426 0.37463,1.9946 0.3512,0.49321 0.35766,0.5475 0.11015,0.92526 -0.22499,0.34336 -0.3262,0.37913 -0.70117,0.24777 -0.56652,-0.19847 -1.1696,-1.09 -1.3686,-2.0234 -0.22475,-1.0537 -0.55702,-0.98996 -2.1062,0.40421 -0.75262,0.67732 -0.91732,0.74864 -2.1545,0.93272 -0.73677,0.10961 -2.7355,0.27739 -4.4416,0.37281 -1.7061,0.0954 -4.1983,0.24167 -5.5381,0.32497 -1.3398,0.0833 -2.4902,0.11799 -2.5564,0.0771 -0.0661,-0.0409 -0.84339,0.002 -1.7272,0.0941 -0.88379,0.0927 -3.0028,0.17134 -4.7089,0.17485 -3.4687,0.007 -4.4021,-0.1843 -5.6263,-1.1539 -0.34362,-0.27215 -0.68765,-0.4898 -0.76452,-0.48366 -0.0769,0.006 -0.50712,0.44694 -0.9561,0.97956 -0.90232,1.0704 -2.1369,1.7806 -3.6407,2.0942 -1.1418,0.23811 -1.2728,0.22694 -2.2818,-0.19453 z"
         id="admit" />
    </g>
  </g>
</svg>
