<svg xmlns="http://www.w3.org/2000/svg" height="30.968" width="44.263"><path d="M4.966 15.77c.432-.436.883-.792 1.002-.792.12 0 .33-.165.467-.367.138-.202.55-.68.917-1.062s.667-.775.667-.873c0-.098.156-.398.347-.667.374-.524 1.12-1.938 1.121-2.124 0-.062.294-.736.653-1.498.359-.762.768-1.85.909-2.418.46-1.854.508-2.015.7-2.372.103-.194.188-.6.188-.904 0-1.1-1.69-1.664-2.988-.998-.68.35-2.4 1.698-2.4 1.882 0 .079-.388.527-.862.996C4.59 5.661 4.085 6.348 3.431 7.65c-.288.574-.656 1.233-.817 1.465-1.182 1.701-1.605 6.022-.69 7.04.787.875 1.939.73 3.042-.384zm37.083 6.82c-.053-.214.056-.883.243-1.488.444-1.438.6-3.61.299-4.165-.201-.37-.314-.407-1.235-.392-.99.015-1.035.036-1.976.898-.648.594-1.03 1.095-1.17 1.535-.114.36-.304.768-.422.909-.118.14-.261.486-.317.768-.116.579-1.115 1.833-1.46 1.833-.124 0-.306-.15-.404-.332-.144-.268-.089-.515.28-1.266.399-.812.465-1.16.513-2.694.034-1.088-.01-1.842-.118-1.971-.27-.326-1.9-.298-3.567.061-.866.187-2.117.324-2.939.322-2.19-.003-6.046.321-7.195.605-.789.195-1.437.229-2.775.142-1.035-.066-2.612-.032-3.87.084-3.568.329-5.126.183-6.318-.593-.46-.3-.63-.54-.715-1.008-.237-1.311-.746-1.346-1.957-.135-1.074 1.074-2.548 2.112-3.366 2.37-.52.163-.713.14-1.416-.161-.86-.37-1.722-1.187-1.987-1.883-.377-.992-.112-4.59.414-5.622.114-.225.52-1.033.902-1.796.381-.764.747-1.425.813-1.47.065-.045.362-.485.659-.98C4.33 3.894 6.917 1.326 8.753.419c.784-.387 1.117-.466 1.67-.394.753.098 2.33.85 2.33 1.11 0 .09.184.382.408.65.45.535.5.87.225 1.554l-.315.783c-.072.18-.178.62-.235.98-.11.694-.407 1.688-.586 1.959-.059.09-.158.457-.22.816-.06.36-.286 1.02-.499 1.47a12.01 12.01 0 00-.595 1.55c-.114.404-.314.905-.445 1.112-.264.42-.452 2.544-.283 3.215.078.313.32.525.875.771.727.322.937.333 4.035.218 1.797-.066 4.076-.111 5.064-.1.987.01 2.677-.1 3.755-.245a84.379 84.379 0 013.673-.405c2.537-.206 4.883-.47 5.714-.643 1.279-.266 3.302-.205 3.76.113.57.396.963.895.97 1.23.008.423.505.349 1.152-.172.721-.58 1.687-.89 2.834-.907.744-.01.978.058 1.333.39.73.682.89 1.173.89 2.732 0 1.174-.091 1.717-.486 2.884-.558 1.653-.714 1.889-1.245 1.889-.27 0-.414-.117-.483-.388zm-2.129 8.263c-.41-.273-.35-1.089.198-2.68.304-.884.553-1.698.553-1.808 0-.532.596-1.608.939-1.696.794-.203 1.141.438.634 1.17-.122.178-.306.808-.408 1.4a19.13 19.13 0 01-.429 1.878c-.133.44-.243.963-.244 1.161-.003.525-.78.885-1.243.575z" stroke-width=".163"/></svg>