<?xml version="1.0" encoding="UTF-8" standalone="no"?>
<svg
   xmlns:dc="http://purl.org/dc/elements/1.1/"
   xmlns:cc="http://creativecommons.org/ns#"
   xmlns:rdf="http://www.w3.org/1999/02/22-rdf-syntax-ns#"
   xmlns:svg="http://www.w3.org/2000/svg"
   xmlns="http://www.w3.org/2000/svg"
   id="svg2663"
   viewBox="0 0 39.468943 23.245722"
   version="1.1"
   height="23.245722"
   width="39.468945">
  <defs
     id="defs2667" />
  <metadata
     id="metadata2">
    <rdf:RDF>
      <cc:Work
         rdf:about="">
        <dc:format>image/svg+xml</dc:format>
        <dc:type
           rdf:resource="http://purl.org/dc/dcmitype/StillImage" />
        <dc:title />
      </cc:Work>
    </rdf:RDF>
  </metadata>
  <g
     transform="translate(-424.63408,-605.72011)"
     id="g2661">
    <g
       style="stroke-width:0.16327"
       id="g2557">
      <path
         d="m 430.34,621.18 c 1.5717,-0.90377 2.884,-2.6578 3.2361,-4.3255 0.11883,-0.56278 0.31987,-1.1873 0.44676,-1.3878 0.38129,-0.60246 1.8786,-5.7604 2.0123,-6.9321 0.0708,-0.62038 0.0359,-0.70955 -0.34553,-0.88335 -0.23336,-0.10633 -0.42429,-0.24979 -0.42429,-0.31881 0,-0.069 -0.4116,-0.21093 -0.91465,-0.31536 -0.87768,-0.1822 -1.925,-0.10832 -2.269,0.16007 -0.0898,0.0701 -0.44307,0.21753 -0.78504,0.32772 -0.53102,0.1711 -1.1882,0.72204 -2.1488,1.8014 -0.11987,0.13469 -0.34893,0.52041 -0.50903,0.85714 -0.16008,0.33673 -0.34465,0.61224 -0.41014,0.61224 -0.15056,0 -0.96331,1.4426 -0.96331,1.7098 0,0.10958 -0.10569,0.41259 -0.23486,0.67332 -0.32451,0.65504 -0.868,3.4498 -1.0024,5.1549 -0.0995,1.262 -0.075,1.4748 0.22612,1.962 0.42139,0.68185 0.99272,1.2167 1.4193,1.3288 0.59796,0.15706 2.06,-0.0756 2.6665,-0.42434 z m -3.0068,1.7732 c -1.214,-0.38009 -1.6926,-0.77484 -2.2078,-1.8211 -0.39762,-0.80756 -0.48836,-1.2 -0.49128,-2.1248 -0.005,-1.4494 0.46721,-4.6864 0.76672,-5.2605 0.1264,-0.24228 0.23027,-0.64254 0.23081,-0.88948 0,-0.24694 0.0654,-0.44898 0.14418,-0.44898 0.0787,0 0.29629,-0.356 0.48348,-0.79109 0.18717,-0.4351 0.45283,-0.88449 0.59035,-0.99861 0.13753,-0.11414 0.32568,-0.48841 0.41812,-0.83172 0.0942,-0.34998 0.29535,-0.66459 0.45778,-0.71615 0.15933,-0.0506 0.57004,-0.45954 0.91269,-0.90885 0.34264,-0.4493 0.87187,-0.93502 1.176,-1.0794 0.30413,-0.14438 0.55306,-0.32496 0.55306,-0.40137 0,-0.40093 2.0201,-0.9521 3.5219,-0.96092 1.7461,-0.0103 3.0928,0.64155 3.4913,1.6897 0.31729,0.83456 0.10687,2.9207 -0.34692,3.4392 -0.0747,0.0853 -0.13574,0.32951 -0.13574,0.54265 0,0.21314 -0.17695,0.91477 -0.39321,1.5592 -0.7489,2.2315 -0.91306,3.1268 -0.90772,4.9503 0.009,2.9704 -0.64668,2.8095 9.954,2.4428 1.2122,-0.0419 2.4612,-0.1616 2.7755,-0.26589 0.32629,-0.10829 2.4626,-0.24851 4.9796,-0.32683 3.2047,-0.0997 4.6756,-0.20986 5.3878,-0.40346 0.77461,-0.21059 3.6559,-0.55464 4.7698,-0.56956 0.1091,-0.002 0.27961,0.1492 0.37896,0.33482 0.13949,0.26064 0.12427,0.42345 -0.0668,0.7151 -0.23112,0.35272 -0.38527,0.38386 -2.3381,0.47218 -1.1499,0.052 -2.8989,0.21502 -3.8866,0.36224 -0.98775,0.14723 -3.5592,0.32588 -5.7143,0.39701 -2.1551,0.0711 -4.4327,0.21618 -5.0612,0.32232 -1.338,0.22593 -4.7538,0.38504 -8.6303,0.40202 l -2.7527,0.0121 -0.47722,-0.57143 c -0.26247,-0.31429 -0.55985,-0.84694 -0.66085,-1.1837 -0.21339,-0.71142 -0.47683,-0.77991 -0.78501,-0.20408 -0.12015,0.22449 -0.2795,0.40817 -0.35412,0.40817 -0.0746,0 -0.13767,0.0918 -0.1401,0.20408 -0.007,0.31445 -1.0195,1.3148 -1.6421,1.6221 -2.3956,1.1824 -2.7739,1.2658 -3.9998,0.88198 z m 34.484,5.9807 c -0.34388,-0.0758 -0.31936,-0.523 0.1363,-2.4848 0.13556,-0.58367 0.39871,-1.7576 0.58477,-2.6086 0.18605,-0.85107 0.42574,-1.603 0.53263,-1.671 0.37138,-0.23613 0.90528,-0.13409 1.009,0.19286 0.18418,0.5803 -0.77582,4.993 -1.3199,6.067 -0.2406,0.47494 -0.48455,0.60548 -0.94284,0.50455 z"
         id="admission" />
    </g>
  </g>
</svg>
