<?xml version="1.0" encoding="UTF-8" standalone="no"?>
<svg
   xmlns:dc="http://purl.org/dc/elements/1.1/"
   xmlns:cc="http://creativecommons.org/ns#"
   xmlns:rdf="http://www.w3.org/1999/02/22-rdf-syntax-ns#"
   xmlns:svg="http://www.w3.org/2000/svg"
   xmlns="http://www.w3.org/2000/svg"
   id="svg2663"
   viewBox="0 0 52.122576 18.239771"
   version="1.1"
   height="18.239771"
   width="52.122578">
  <defs
     id="defs2667" />
  <metadata
     id="metadata2">
    <rdf:RDF>
      <cc:Work
         rdf:about="">
        <dc:format>image/svg+xml</dc:format>
        <dc:type
           rdf:resource="http://purl.org/dc/dcmitype/StillImage" />
        <dc:title />
      </cc:Work>
    </rdf:RDF>
  </metadata>
  <g
     transform="translate(-424.81964,-582.55989)"
     id="g2661">
    <g
       style="stroke-width:0.16327"
       id="g2557">
      <path
         d="m 430.14,598.4 c 0.63085,-0.34389 1.8558,-1.4437 1.8558,-1.6662 0,-0.09 0.0751,-0.16369 0.16682,-0.16369 0.23295,0 1.4658,-1.9438 1.4658,-2.311 0,-0.16568 0.13631,-0.43753 0.30291,-0.60413 0.1666,-0.16659 0.35538,-0.51557 0.41954,-0.77551 0.0642,-0.25993 0.28769,-0.87668 0.49675,-1.3706 0.51204,-1.2097 1.7385,-5.5046 1.7733,-6.2097 0.0251,-0.50853 -0.0382,-0.59826 -0.62516,-0.88599 -0.81402,-0.39907 -2.5102,-0.52691 -3.2261,-0.24314 -0.29092,0.11531 -0.82284,0.44314 -1.182,0.72849 -0.35919,0.28536 -0.7268,0.5486 -0.81692,0.58498 -0.32552,0.13141 -1.834,1.8779 -2.2077,2.556 -0.21033,0.38163 -0.43665,0.69388 -0.50295,0.69388 -0.0663,0 -0.21084,0.27551 -0.32123,0.61224 -0.11036,0.33674 -0.3071,0.77589 -0.43717,0.97591 -0.13009,0.20001 -0.29625,0.60409 -0.36928,0.89795 -0.073,0.29387 -0.24932,0.96035 -0.39178,1.481 -0.30699,1.1219 -0.33997,3.1775 -0.0613,3.8211 0.7579,1.7504 2.3742,2.5798 3.6608,1.8784 z m 45.111,1.9736 c -0.28849,-0.24275 -0.62475,-0.68121 -0.74723,-0.97435 -0.39151,-0.93702 -0.23047,-2.6406 0.39495,-4.1778 0.13738,-0.33765 0.21991,-0.6337 0.18342,-0.65791 -0.8241,-0.5463 -2.4337,-0.80614 -2.4337,-0.39287 0,0.11708 -0.25714,0.46211 -0.57143,0.76673 -0.31428,0.30462 -0.57143,0.63109 -0.57143,0.72547 0,0.0944 -0.34897,0.51868 -0.77551,0.94287 -0.42653,0.42418 -0.9655,0.9754 -1.1977,1.2249 -1.2173,1.308 -1.6653,1.5654 -3.3565,1.9284 -1.6508,0.35435 -2.8082,-0.18573 -2.8278,-1.3196 -0.0113,-0.65422 -0.63138,-0.93304 -1.1358,-0.51073 -0.14176,0.11871 -0.7353,0.4305 -1.319,0.6929 -1.0172,0.45731 -1.1898,0.48113 -4.1633,0.57492 -3.763,0.11868 -8.8632,0.43179 -10.531,0.64649 -1.4321,0.18439 -9.7037,0.0668 -10.771,-0.15313 -0.83478,-0.17203 -1.5917,-0.89182 -1.7453,-1.6597 -0.14666,-0.7333 -0.57809,-0.60254 -1.6505,0.50026 -0.71829,0.73862 -1.1824,1.0612 -1.8793,1.3061 -1.1423,0.40148 -1.2148,0.40148 -2.3573,-10e-5 -1.2769,-0.4488 -1.9074,-1.116 -2.4955,-2.6409 -0.69405,-1.7997 -0.65258,-2.8694 0.23207,-5.9863 0.31466,-1.1086 1.0123,-2.6392 1.2029,-2.6392 0.0804,0 0.24573,-0.30168 0.36743,-0.67041 0.12168,-0.36872 0.31907,-0.70794 0.43861,-0.75382 0.11956,-0.0459 0.40265,-0.39955 0.6291,-0.78597 0.63392,-1.0817 2.3085,-2.4486 3.9013,-3.1845 1.6236,-0.75013 2.1324,-0.78704 3.5842,-0.26009 1.4208,0.51573 1.8901,0.84147 1.8901,1.312 0,0.21143 0.11894,0.48312 0.26429,0.60376 0.2088,0.17329 0.24622,0.41877 0.17821,1.169 -0.0474,0.52228 -0.15672,1.0387 -0.24302,1.1476 -0.0863,0.10888 -0.20952,0.48932 -0.27381,0.84539 -0.0643,0.35608 -0.22144,0.84955 -0.3492,1.0966 -0.12773,0.24703 -0.33833,0.91081 -0.46798,1.475 -0.26602,1.1578 -0.57389,2.2078 -1.0658,3.6351 -0.66913,1.9414 -0.63409,3.4686 0.0904,3.9434 0.74333,0.48705 8.3213,0.6533 12.071,0.26481 1.0776,-0.11162 4.1633,-0.2853 6.8572,-0.38594 l 4.898,-0.18297 1.3585,-0.66046 c 0.92449,-0.44947 1.4982,-0.84771 1.7959,-1.2466 0.2406,-0.32237 0.56602,-0.72861 0.72317,-0.90275 0.15714,-0.17415 0.28571,-0.45675 0.28571,-0.62801 0,-0.17125 0.10537,-0.50637 0.23416,-0.74472 0.12878,-0.23835 0.27684,-0.63427 0.32901,-0.87985 0.12563,-0.59133 0.84953,-0.80627 1.1892,-0.3531 0.30276,0.40392 0.14929,1.9135 -0.30142,2.965 -0.17989,0.41966 -0.3675,1.2062 -0.4169,1.7478 -0.0886,0.97118 -0.0827,0.98895 0.42865,1.2862 0.50412,0.29311 0.54537,0.29311 1.488,0 0.83682,-0.26018 1.1262,-0.4691 2.1134,-1.526 2.2845,-2.4456 2.4977,-2.7059 2.8075,-3.4286 0.5875,-1.3706 0.97176,-1.5547 2.0443,-0.97988 0.82526,0.4423 1.5132,0.55036 2.235,0.35105 0.51384,-0.14188 0.65042,-0.12083 0.91174,0.14049 0.33223,0.33223 0.27928,0.77349 -0.20668,1.7224 -0.13528,0.26414 -0.29778,0.79211 -0.36111,1.1733 -0.0633,0.38116 -0.18222,0.73446 -0.2642,0.78514 -0.25477,0.15745 -0.17704,1.8056 0.0958,2.032 0.13469,0.11179 0.2449,0.30384 0.2449,0.42678 0,0.12294 0.14694,0.31528 0.32653,0.42744 0.39193,0.24477 0.42072,0.66092 0.07,1.0117 -0.37217,0.37214 -0.79011,0.31642 -1.3858,-0.1848 z"
         id="admire" />
    </g>
  </g>
</svg>
