<svg xmlns="http://www.w3.org/2000/svg" height="17.507" width="43.176"><path d="M35.077 6.218c-.248-.52-.247-.588.016-.99.364-.555 1.28-.611 1.557-.095.268.5-.294 1.523-.875 1.593-.353.042-.48-.05-.698-.508zM6.11 15.804c.897-.267 1.283-.581 2.647-2.154.33-.381.651-.858.712-1.06.06-.2.332-.842.603-1.426.56-1.21.748-1.829.94-3.102l.31-2.04c.243-1.597.23-2.368-.04-2.368-.121 0-.354-.297-.517-.659-.164-.362-.579-.913-.923-1.224-.772-.697-1.382-.733-2.682-.158-.508.225-1.006.411-1.107.415-.267.01-1.172.84-1.3 1.192a.711.711 0 01-.441.388c-.23.06-.6.646-1.202 1.903-1.211 2.53-1.375 3.05-1.576 5-.33 3.217.077 4.491 1.7 5.31.914.462 1.275.46 2.876-.017zm-3.224 1.352C1.74 16.678 1.026 16.08.46 15.131c-.444-.747-.465-.875-.46-2.743.008-2.195.433-4.313 1.14-5.67.222-.425.403-.853.403-.952 0-.098.47-.863 1.045-1.699C4.549 1.214 6.288.062 8.632.062c1.229 0 1.973.404 2.73 1.484.369.526.797.996.95 1.045.155.049.45.269.657.489l.376.4-.361 2.25a69.142 69.142 0 01-.955 4.653c-.688 2.783-.66 3.03.427 3.795l.707.496 5.333-.015c2.933-.008 6.398-.105 7.7-.214 1.302-.11 3.322-.26 4.49-.335 1.167-.075 2.6-.225 3.183-.334 1.323-.246 3.272-1.154 3.784-1.763.213-.252.51-.506.66-.564.15-.058.574-.641.942-1.297l.807-1.437c.442-.79.991-2.775.991-3.585 0-.25.103-.749.23-1.107.126-.358.309-1.304.405-2.102.137-1.138.249-1.512.516-1.731.278-.229.399-.244.656-.083.263.164.316.387.316 1.35 0 .633-.079 1.23-.174 1.326-.096.095-.24.826-.32 1.624-.15 1.484-.281 2.142-.485 2.43-.064.09-.21.641-.328 1.225-.116.584-.261 1.135-.321 1.224-.335.5-.576 1.802-.575 3.104.002 1.268.053 1.542.375 1.994.35.493.357.548.11.926-.225.343-.326.379-.701.247-.567-.198-1.17-1.09-1.369-2.023-.225-1.054-.557-.99-2.106.404-.753.677-.918.749-2.155.933-.736.11-2.735.277-4.441.373-1.706.095-4.199.241-5.538.325-1.34.083-2.49.118-2.557.077-.066-.041-.843.002-1.727.094-.884.092-3.003.171-4.709.175-3.469.007-4.402-.185-5.626-1.154-.344-.272-.688-.49-.765-.484-.077.006-.507.447-.956.98-.902 1.07-2.137 1.78-3.64 2.094-1.142.238-1.273.227-2.282-.195z" stroke-width=".163"/></svg>