<svg xmlns="http://www.w3.org/2000/svg" height="22.78" width="75.994"><path d="M5.883 16.032c1.173-1.182 1.393-1.501 1.778-2.583.16-.449.398-1.059.528-1.355.13-.296.274-.81.32-1.143.083-.592.773-2.804 1.033-3.308.206-.4 1.31-4.988 1.31-5.445 0-.54-.427-.75-1.5-.742-1.039.008-1.839.273-2.612.863-.315.24-.651.436-.747.436-.097 0-.415.313-.707.694-.293.382-.616.768-.719.857-.212.186-.736 1.2-.736 1.424 0 .082-.174.383-.387.669-.5.671-1.15 2.216-1.455 3.458a94.111 94.111 0 01-.603 2.286c-.61 2.198-.266 4.208.821 4.782.25.132.827.19 1.542.158l1.143-.052zm38.152 6.655c-.516-.132-1.676-1.21-1.672-1.555.002-.095.147-.76.325-1.479.431-1.745.427-2.465-.017-2.703-.545-.291-2.47-.036-3.072.408-.497.367-1.156 1.112-1.156 1.308 0 .057-.079.192-.176.3-.244.275-.867 1.342-1.38 2.367-.486.97-1.036 1.421-1.538 1.262-.456-.145-.422-.552.152-1.818.268-.59.575-1.5.682-2.021.172-.831.162-1-.082-1.372-.269-.41-.33-.424-1.866-.413-.873.007-1.992.08-2.486.163-2.418.407-3.429.509-6.449.648-3.944.182-7.405.407-9.714.632-2.87.28-4.753.228-5.789-.16-.98-.367-1.314-.72-1.568-1.662-.213-.786-.674-.813-1.37-.082-1.751 1.844-2.443 2.171-4.067 1.924-1.388-.21-1.844-.51-2.389-1.568-.362-.703-.408-.992-.403-2.514.003-.945.09-2.16.192-2.699.26-1.372 1.009-3.868 1.25-4.162.11-.135.38-.65.597-1.144.405-.915.831-1.61 1.343-2.188.157-.177.285-.455.285-.618 0-.166.342-.543.776-.857.427-.308.865-.708.975-.887.31-.51 2.816-1.66 3.85-1.767.778-.08 1.046-.022 2.065.447.643.297 1.234.66 1.313.807.149.278.048.867-.364 2.124-.364 1.11-.589 1.971-.702 2.684-.11.695-.868 3.172-1.051 3.439-.062.09-.196.567-.297 1.061-.68 3.32-.9 5.073-.704 5.588.323.85.404.863 4.9.83 2.298-.016 4.986-.11 5.974-.208.988-.099 3.572-.25 5.743-.337 2.988-.12 4.277-.238 5.306-.49 1.432-.349 4.39-.602 5.051-.43.214.055.565.359.778.676.262.387.515.575.776.575.213 0 .387-.057.387-.126 0-.07.239-.25.53-.4 1.225-.632 1.823-.78 3.145-.78 1.804 0 2.078.209 2.168 1.652.036.573-.01 1.583-.103 2.244-.103.737-.11 1.352-.019 1.591.134.353.244.39 1.15.39.854 0 1.087-.068 1.595-.467.327-.258.756-.518.952-.58.495-.153 1.77-1.702 2.275-2.761.157-.33.35-.6.428-.6.078 0 .287-.327.464-.728.177-.4.388-.768.468-.818.08-.05.198-.328.26-.619.063-.29.29-.829.503-1.196.213-.367.388-.832.388-1.032 0-.201.184-.913.408-1.581.225-.669.408-1.431.408-1.694 0-.915.348-2.127.657-2.292.542-.29.962-.192 1.074.252.151.603-.327 4.456-.638 5.137-.062.135-.18.576-.264.98-.208 1.003-.82 3.07-1.094 3.698-.124.284-.224 1.056-.224 1.726 0 1.05.049 1.257.367 1.546.482.437 1.086.568 1.746.38.56-.161 2.277-1.4 2.406-1.736.041-.107.4-.55.798-.983.398-.433.724-.835.724-.894 0-.181 2.564-2.618 3.095-2.94.306-.187.807-.307 1.276-.307.695.002.81.057 1.153.562.21.308.421.858.47 1.222.102.759-.182 2.399-.531 3.068-.288.55-.311 1.54-.043 1.808a.781.781 0 00.48.196c.954 0 3.096-2.268 3.99-4.224.312-.685.66-1.429.774-1.653.233-.464.475-.518 3.661-.81 2.218-.202 2.654-.11 2.654.565 0 .606-.532.78-2.721.884-2.33.112-2.524.224-3.337 1.927-.268.562-.616 1.09-.772 1.174-.157.084-.392.36-.523.614s-.635.857-1.118 1.341c-1.7 1.7-4.033 2.008-4.618.61-.265-.634-.223-1.926.083-2.515.4-.772.598-1.583.598-2.455v-.845h-.62c-.516 0-.754.129-1.43.775-.446.427-1.324 1.396-1.952 2.154-1.632 1.972-3.16 3.438-3.58 3.438-.194 0-.428.075-.52.168-.093.092-.53.207-.972.256-1.163.128-2.125-.398-2.718-1.485-.256-.47-.447-1.077-.45-1.429-.004-.87-.351-.79-1.126.259-.566.765-.872 1.069-1.986 1.967-.138.111-.69.441-1.224.733-1.033.563-2.088.748-2.973.523z" stroke-width=".163"/></svg>