<?xml version="1.0" encoding="UTF-8" standalone="no"?>
<svg
   xmlns:dc="http://purl.org/dc/elements/1.1/"
   xmlns:cc="http://creativecommons.org/ns#"
   xmlns:rdf="http://www.w3.org/1999/02/22-rdf-syntax-ns#"
   xmlns:svg="http://www.w3.org/2000/svg"
   xmlns="http://www.w3.org/2000/svg"
   id="svg2663"
   viewBox="0 0 34.265456 27.241686"
   version="1.1"
   height="27.241686"
   width="34.265457">
  <defs
     id="defs2667" />
  <metadata
     id="metadata2">
    <rdf:RDF>
      <cc:Work
         rdf:about="">
        <dc:format>image/svg+xml</dc:format>
        <dc:type
           rdf:resource="http://purl.org/dc/dcmitype/StillImage" />
        <dc:title />
      </cc:Work>
    </rdf:RDF>
  </metadata>
  <g
     transform="translate(-425.33007,-653.56581)"
     id="g2661">
    <g
       style="stroke-width:0.16327"
       id="g2557">
      <path
         d="m 449.67,673.11 c -0.10776,-0.10776 -0.19592,-0.28973 -0.19592,-0.40439 0,-0.50717 0.74896,-0.66586 4.0611,-0.86043 1.8295,-0.10747 3.5057,-0.26359 3.7249,-0.34694 0.62439,-0.23738 1.9418,-0.18537 2.1667,0.0856 0.36934,0.44501 0.12589,0.81387 -0.66658,1.01 -0.81288,0.20118 -6.5565,0.71212 -8.0051,0.71212 -0.48904,0 -0.97732,-0.0882 -1.0851,-0.19592 z m -12.51,4.3487 c -0.22651,-0.22651 -0.22836,-0.30751 -0.0164,-0.71737 0.13141,-0.2541 0.4585,-0.68158 0.72686,-0.94996 0.93278,-0.93278 1.4454,-3.0177 0.91454,-3.7196 -0.36259,-0.47939 -0.3105,-1.0398 0.11117,-1.1958 1.2471,-0.46132 1.757,1.1181 1.1998,3.7166 -0.12286,0.57301 -0.2858,1.0873 -0.36208,1.1429 -0.0763,0.0556 -0.34674,0.40785 -0.60106,0.78287 -0.25432,0.37502 -0.70602,0.79747 -1.0038,0.93878 -0.66412,0.31513 -0.65543,0.31512 -0.969,0.002 z m -6.2784,-8.6497 c 0.87099,-0.3073 1.9494,-1.4343 2.5135,-2.6267 0.22278,-0.47088 0.40503,-0.9282 0.40503,-1.0163 0,-0.0881 0.10199,-0.36815 0.22664,-0.62237 0.742,-1.5132 1.0853,-2.3679 1.3006,-3.2377 0.13334,-0.53878 0.38598,-1.5306 0.56144,-2.2041 0.6298,-2.4175 0.63177,-2.3787 -0.16119,-3.1569 -0.87886,-0.8625 -1.9896,-1.1762 -3.2258,-0.91113 -0.83582,0.17925 -1.4996,0.76922 -2.4568,2.1837 -0.22449,0.33174 -0.57347,0.79195 -0.77551,1.0227 -0.20204,0.23073 -0.36735,0.50874 -0.36735,0.6178 0,0.10904 -0.16834,0.4473 -0.37411,0.75167 -0.80494,1.1907 -1.494,3.8362 -1.6999,6.5267 -0.0672,0.87814 -0.0197,1.198 0.25882,1.744 0.39202,0.76841 0.52851,0.87492 1.3198,1.03 0.97961,0.19195 1.7304,0.16117 2.4748,-0.10142 z m 11.671,11.749 c -0.18416,-0.47992 -0.10068,-1.2996 0.22743,-2.2331 0.17959,-0.51097 0.32653,-1.0913 0.32653,-1.2897 0,-0.19838 0.13672,-0.65939 0.30382,-1.0245 0.1671,-0.36508 0.429,-1.1413 0.58201,-1.725 0.153,-0.58367 0.34415,-1.2816 0.42478,-1.551 0.0806,-0.26939 0.22701,-1.0408 0.32529,-1.7143 0.0983,-0.67347 0.32144,-1.6807 0.49589,-2.2382 0.32787,-1.0478 0.42743,-2.4965 0.17159,-2.4965 -0.0801,0 -0.50255,0.3201 -0.93877,0.71131 -1.4696,1.318 -3.0416,2.3912 -3.857,2.6334 -1.1829,0.35128 -3.4265,0.10154 -4.4439,-0.49469 -0.84445,-0.49489 -0.97939,-0.69199 -1.1408,-1.6663 -0.0696,-0.42019 -0.20259,-0.69387 -0.33717,-0.69387 -0.2368,0 -1.0552,0.97779 -1.0552,1.2607 0,0.23471 -1.7368,1.6413 -2.5201,2.0408 -0.56328,0.28737 -0.82528,0.31543 -2.0312,0.21759 -0.76149,-0.0618 -1.5847,-0.21584 -1.8293,-0.34234 -0.71995,-0.37229 -1.6194,-1.3099 -1.6194,-1.6881 0,-0.19267 -0.0874,-0.49031 -0.19433,-0.66147 -0.15027,-0.24063 -0.15027,-0.50209 0,-1.1531 0.10689,-0.46305 0.19433,-1.2378 0.19433,-1.7217 0,-0.48391 0.10351,-1.1946 0.23001,-1.5794 0.12652,-0.38477 0.27948,-0.95672 0.33994,-1.271 0.17897,-0.93045 0.45833,-1.6925 0.74818,-2.0408 0.14942,-0.17959 0.31627,-0.51593 0.37079,-0.74741 0.0545,-0.2315 0.28509,-0.62157 0.51241,-0.86683 0.22729,-0.24527 0.66907,-0.84581 0.98171,-1.3346 0.8159,-1.2754 2.1062,-2.4935 3.1451,-2.9692 0.77616,-0.35534 1.0496,-0.39882 2.0046,-0.31875 0.91716,0.0769 1.2408,0.18915 1.8968,0.65795 0.435,0.31091 1.0664,0.67935 1.4032,0.8188 0.38976,0.16138 0.61121,0.36037 0.60942,0.54757 -0.0104,1.0862 -0.3906,3.6016 -0.7332,4.8515 -0.22364,0.81585 -0.40845,1.8875 -0.41071,2.3813 -0.002,0.49388 -0.0812,1.2286 -0.17544,1.6326 -0.0942,0.40408 -0.18428,1.2246 -0.2001,1.8234 -0.0249,0.94312 0.023,1.1438 0.35832,1.5009 0.66509,0.70823 2.9498,0.99946 3.9855,0.50803 2.5139,-1.1927 4.4794,-3.5506 5.5083,-6.6079 0.529,-1.5719 0.57255,-1.6326 1.1702,-1.6326 h 0.50113 l -0.074,1.7959 c -0.0407,0.98775 -0.0318,1.7945 0.0198,1.7927 0.0516,-0.002 0.52831,-0.51603 1.0593,-1.1429 0.53102,-0.62682 1.0504,-1.1397 1.1543,-1.1397 0.10383,0 0.43685,-0.22145 0.74001,-0.49213 0.64492,-0.57577 1.6234,-0.87977 2.4675,-0.76656 0.44927,0.0603 0.80452,0.29043 1.4228,0.92186 0.95228,0.97254 1.1052,1.5432 0.96049,3.5832 -0.20016,2.8211 -2.4484,5.1778 -4.8757,5.111 -1.4344,-0.0395 -2.5125,-0.72604 -2.399,-1.5276 0.0758,-0.53502 1.0167,-0.62975 1.4659,-0.1476 0.69951,0.75085 2.4709,0.29506 3.4446,-0.88628 0.82121,-0.99638 0.9923,-1.5375 0.96892,-3.0649 -0.0227,-1.4848 -0.16431,-1.9458 -0.74733,-2.4331 -1.1006,-0.92006 -3.2004,0.50908 -4.4443,3.0249 -0.34857,0.70501 -0.75882,1.5131 -0.91165,1.7959 -0.15284,0.28271 -0.28141,0.71968 -0.28572,0.9711 -0.004,0.25139 -0.10653,0.65547 -0.22715,0.89796 -0.12062,0.24246 -0.34717,0.90836 -0.50343,1.4797 -0.15626,0.57137 -0.42463,1.2693 -0.59639,1.551 -0.17177,0.28168 -0.31257,0.67903 -0.31291,0.883 0,0.20398 -0.26716,1.0489 -0.59293,1.8776 -0.32578,0.82869 -0.76505,2.1679 -0.97615,2.9761 -0.74465,2.8508 -0.88354,3.2673 -1.1568,3.4694 -0.37977,0.28088 -0.81182,0.25574 -0.93074,-0.0542 z"
         id="adopted" />
    </g>
  </g>
</svg>
