<svg xmlns="http://www.w3.org/2000/svg" height="21.424" width="44.564"><path d="M31.216 17.724c-.272-.11-.26-.882.02-1.284.257-.367 1.38-3.85 1.52-4.712.117-.724-.013-1.243-.433-1.727-.352-.406-.451-1.381-.159-1.562.417-.258.998.108 1.317.828.25.567.408.728.71.728.532 0 .903-.16.903-.39 0-.107.407-.44.905-.742.814-.493 1.021-.547 2.043-.528 1.533.028 2.294.457 2.803 1.579.314.69.371 1.093.371 2.612 0 1.566-.05 1.9-.395 2.612a39.51 39.51 0 00-.767 1.715c-.345.831-.412.897-.911.897-.763 0-.77-.426-.037-2.072.533-1.199.613-1.55.684-3.026.097-2.006-.05-2.456-.938-2.883-.825-.397-1.775-.282-2.549.308-.798.609-2.297 2.997-2.7 4.3-.185.599-.402 1.235-.483 1.414-.144.321-.22.451-.88 1.51-.314.503-.567.607-1.024.423zM5.08 15.941c.275-.142.823-.556 1.216-.919.719-.662 2.023-2.43 2.023-2.74 0-.092.297-.77.661-1.507 1.12-2.266 2.266-6.339 2.041-7.247-.15-.61-1.82-1.889-2.674-2.05-1.3-.243-2.045-.035-2.885.805-.753.753-1.878 2.442-1.878 2.82 0 .113-.347.838-.771 1.61-.83 1.511-.92 1.925-1.126 5.2-.126 2 .087 2.986.81 3.756.43.457.607.53 1.29.53.436 0 1.018-.116 1.293-.258zm-3.275 1.034c-.528-.471-1.042-1.04-1.142-1.265-.326-.732-.67-2.287-.663-2.988.018-1.558.452-3.816.964-5.012.289-.674.708-1.66.932-2.19.223-.532.676-1.377 1.006-1.878.33-.502.636-.998.681-1.104.233-.542 1.845-1.996 2.329-2.1.29-.062.603-.17.693-.239.764-.59 4.28.232 4.966 1.16.199.27.54.558.759.64.406.155.494.516.413 1.71-.03.443-.646 3.585-1.026 5.225-.083.36-.207.947-.275 1.306-.068.36-.203.8-.3.98-.296.547-.442 3.114-.21 3.674.272.657 1.01.668 1.893.028.692-.502 2.727-2.637 3.14-3.294 1.05-1.67 2.264-2.612 3.37-2.612.855 0 1.344.35 1.724 1.237.288.67.29.79.051 2.226-.14.834-.392 1.76-.563 2.057-.17.297-.31.792-.31 1.102 0 .527.034.562.539.562.412 0 .67-.144 1.106-.613.643-.694 1.294-1.595 1.294-1.792 0-.072.196-.42.436-.773.393-.578.524-.966.815-2.398.048-.238.341-.679.65-.98.515-.5.694-.562 2.066-.722 1.648-.193 2.074-.085 2.074.521 0 .523-.287.66-1.625.78-.72.063-1.327.208-1.489.354-.15.136-.366.704-.48 1.262-.115.557-.297 1.124-.405 1.259a2.85 2.85 0 00-.308.49c-.865 1.892-3.281 4.081-4.504 4.081-.239 0-.618-.255-1.01-.68-.703-.761-.802-1.355-.366-2.177.52-.983.97-3.224.8-3.996-.1-.454-.164-.494-.796-.494-.608 0-.753.08-1.266.694-.318.382-.676.878-.795 1.102-.407.768-3.326 3.836-3.99 4.195-1.893 1.02-3.521.397-3.521-1.349 0-1.187-.535-1.155-1.561.095-.444.54-1.1 1.176-1.46 1.413-.359.238-.839.558-1.066.712-.382.258-1.81.648-2.372.648-.13 0-.67-.385-1.198-.857zm32.49 4.225c-.255-.308-.053-.75.424-.931.219-.083.925-.155 1.57-.159.645-.004 1.908-.124 2.806-.266.898-.142 2.496-.29 3.55-.328l1.92-.07v.563c0 .325-.095.6-.223.649-.28.107-8.465.766-9.518.766-.188 0-.426-.1-.528-.224z"/></svg>