<svg xmlns="http://www.w3.org/2000/svg" height="17.75" width="65.962"><path d="M5.194 15.897c.135-.103.33-.299.432-.433.102-.135.406-.475.675-.755.46-.48 1.506-2.432 1.506-2.812 0-.096.189-.453.42-.793.231-.341.461-.823.511-1.072.05-.25.155-.492.233-.54.078-.049.142-.263.142-.477 0-.214.065-.43.145-.479.08-.049.195-.365.257-.703.061-.338.208-.763.325-.946.117-.182.3-.77.407-1.306.107-.536.263-1.24.346-1.565.239-.926.185-1.246-.296-1.775-.565-.62-1.817-.897-2.93-.648-1.03.231-1.218.352-2.323 1.508C2.919 5.32 2.659 5.673 2.336 6.775 2.185 7.29 1.94 8 1.79 8.355c-.215.518-.27 1.21-.27 3.441v2.794l.49.586c.712.852 1.319 1.13 2.204 1.01.404-.055.845-.185.98-.288zm-2.122 1.54c-.224-.052-.719-.298-1.099-.545-.38-.247-.757-.449-.838-.449-.656 0-1.228-2.7-1.122-5.299.12-2.988.694-4.497 2.84-7.472.985-1.366 2.79-2.88 4.03-3.378.826-.333 1.035-.359 1.57-.199.339.102.768.185.954.185.186 0 .787.195 1.337.433 1.714.744 1.83 1.456.895 5.526-.124.539-.271 1.22-.328 1.512-.056.293-.206.74-.332.993-.431.864-.881 3.042-.884 4.274-.002 1.132.037 1.276.5 1.837.54.655 1.102.791 1.464.354.117-.14.457-.356.756-.482.3-.125.611-.402.693-.617.081-.214.408-.634.726-.934.317-.3.668-.77.78-1.047.112-.276.249-.539.305-.584.056-.045.412-.477.791-.962 1.588-2.027 2.832-2.467 3.856-1.364.654.706.807 1.38.578 2.545-.109.55-.304 1.208-.435 1.46-.144.279-.218.794-.188 1.309l.049.85.63-.039c1.256-.075 1.907-.787 2.652-2.9.158-.45.385-.962.503-1.139.118-.177.215-.443.215-.59 0-.148.157-.647.35-1.11.25-.601.46-.868.743-.94.216-.054 1.4-.107 2.63-.119l2.236-.021.05.438c.07.59-.19.698-2.308.952-1.125.135-1.878.307-2.068.473-.164.142-.496.847-.738 1.566-.615 1.83-1.715 3.559-2.61 4.105-1.013.619-2.235.892-2.448.548-.056-.09-.267-.164-.47-.164-.26 0-.448-.168-.643-.577-.367-.77-.342-1.632.075-2.525.2-.43.376-1.217.425-1.901.075-1.073.054-1.183-.271-1.356-.194-.104-.479-.147-.633-.094-.76.258-2.386 2.232-3.113 3.778-.21.45-2.486 2.675-2.734 2.675-.105 0-.401.11-.658.244-.6.313-1.361.313-1.808 0-.353-.247-1.037-1.567-1.248-2.407-.062-.247-.176-.449-.254-.449-.077 0-.272.202-.432.45-.16.246-.426.544-.59.662-.165.117-.3.32-.3.452 0 .44-1.653 1.856-2.28 1.953-1.113.172-1.396.186-1.801.09zm61.094.116c-.254-.254-.252-1.358.004-1.814.11-.196.252-.871.315-1.5a72.87 72.87 0 01.226-1.973c.086-.636.045-.96-.174-1.388-.567-1.106-1.19-1.102-2.379.014-.478.449-.92.816-.982.816-.25 0-1.148 1.873-1.529 3.187-.222.767-.534 1.576-.693 1.798-.287.398-.95.696-1.136.51-.188-.189-.093-1.434.156-2.03.14-.335.413-1.158.608-1.832.195-.673.422-1.393.504-1.6.246-.616.173-1.004-.273-1.45-.386-.385-.507-.414-1.428-.337-1.358.113-1.764.333-2.595 1.41-.77.995-1.759 2.792-1.759 3.195 0 .138-.091.254-.204.257-.206.006-.9 1.002-1.277 1.831-.206.453-.4.531-.873.35-.377-.145-.32-.931.131-1.825.588-1.162 1.13-3.259 1.03-3.991-.12-.901-.353-1.105-1.262-1.105-.708 0-.815.05-1.113.533-.181.294-.518.71-.748.927-.23.216-.418.482-.418.592 0 .11-.366.592-.814 1.073-.447.481-.815 1.005-.816 1.164-.004.402-1.626 1.985-2.656 2.592-.758.447-.954.493-1.744.411-.97-.1-1.61-.474-1.932-1.13-.345-.704-.314-1.6.154-4.397.358-2.138-.457-2.705-2.723-1.897-.625.222-1.723 1.54-2.042 2.45-.135.386-.557 1.268-.938 1.96-.382.692-.694 1.344-.694 1.45 0 .261-.643 1.325-.954 1.578-.375.305-.605.25-.808-.195-.187-.411.058-1.192.936-2.98.248-.507.337-1.005.337-1.899 0-1.695-.114-2.115-.672-2.485-.382-.252-.472-.42-.435-.808.037-.403.128-.5.505-.543.653-.075 1.167.326 1.52 1.186.393.955.73.956 1.694.004 1.07-1.058 1.661-1.306 2.996-1.26.615.02 1.398.113 1.74.205 1.018.274 1.146 1.042.793 4.759-.22 2.32-.113 2.751.688 2.751.724 0 1.526-.425 2.146-1.137 1.08-1.24 2.086-2.585 2.086-2.79 0-.116.258-.474.573-.795l1.572-1.604c1.152-1.175 1.91-1.489 2.853-1.178.53.175 1.124.873 1.417 1.667.144.392.494.359 1.042-.1a8.004 8.004 0 011.114-.736c.36-.193.764-.414.898-.492.614-.355 1.545-.534 2.239-.43.582.087.885.262 1.439.832.391.403.853.722 1.045.722.189 0 .94-.303 1.668-.674l1.324-.675.755.312c1.118.463 1.412 1.15 1.352 3.16a31.446 31.446 0 01-.28 3.101 47.226 47.226 0 00-.235 1.674c-.002.205-.64.776-.866.776-.117 0-.3-.088-.408-.196z" stroke-width=".163"/></svg>