<?xml version="1.0" encoding="UTF-8" standalone="no"?>
<svg
   xmlns:dc="http://purl.org/dc/elements/1.1/"
   xmlns:cc="http://creativecommons.org/ns#"
   xmlns:rdf="http://www.w3.org/1999/02/22-rdf-syntax-ns#"
   xmlns:svg="http://www.w3.org/2000/svg"
   xmlns="http://www.w3.org/2000/svg"
   id="svg2663"
   viewBox="0 0 40.617503 17.28223"
   version="1.1"
   height="17.28223"
   width="40.617504">
  <defs
     id="defs2667" />
  <metadata
     id="metadata2">
    <rdf:RDF>
      <cc:Work
         rdf:about="">
        <dc:format>image/svg+xml</dc:format>
        <dc:type
           rdf:resource="http://purl.org/dc/dcmitype/StillImage" />
        <dc:title />
      </cc:Work>
    </rdf:RDF>
  </metadata>
  <g
     transform="translate(-425.17406,-677.23073)"
     id="g2661">
    <g
       style="stroke-width:0.16327"
       id="g2557">
      <path
         d="m 429.9,692.67 c 0.30279,-0.12733 0.76634,-0.45794 1.0301,-0.7347 0.26373,-0.27673 0.57183,-0.50316 0.68465,-0.50316 0.28927,0 1.8552,-2.1117 1.9673,-2.6531 0.0512,-0.24694 0.15161,-0.44898 0.2232,-0.44898 0.0716,0 0.21743,-0.27551 0.32406,-0.61225 0.10661,-0.33673 0.32208,-0.83717 0.47878,-1.1121 0.28062,-0.49225 0.43531,-1.0781 0.83806,-3.1736 0.11217,-0.58368 0.30142,-1.2976 0.42052,-1.5866 0.1191,-0.28895 0.21655,-0.82405 0.21655,-1.1891 0,-2.1705 -4.2131,-2.9173 -5.662,-1.0036 -0.24805,0.3276 -0.69189,0.82473 -0.98631,1.1047 -0.29441,0.27998 -0.53531,0.6567 -0.53531,0.83714 0,0.18044 -0.1105,0.41979 -0.24555,0.53187 -0.48503,0.40255 -1.3643,2.0605 -1.6448,3.1015 -0.35297,1.31 -0.40573,4.416 -0.0978,5.7567 0.30499,1.3279 0.83885,1.9167 1.7378,1.9167 0.38513,0 0.94798,-0.10418 1.2508,-0.23152 z m -2.1433,1.5902 c -0.13469,-0.0576 -0.64981,-0.45608 -1.1447,-0.88553 -0.75194,-0.65251 -0.94645,-0.93799 -1.1837,-1.7371 -0.39564,-1.3327 -0.32281,-4.0194 0.17169,-6.3334 0.13713,-0.64171 1.0719,-2.662 1.6325,-3.5281 0.81419,-1.258 2.0783,-2.7522 2.7496,-3.2499 1.6313,-1.2096 1.8392,-1.2925 3.2465,-1.2954 1.4728,-0.003 1.8814,0.15948 3.6394,1.4472 1.1164,0.81773 1.097,0.75603 0.69662,2.2236 -0.098,0.35919 -0.28638,1.2041 -0.41863,1.8776 -0.33925,1.7278 -0.49459,2.371 -0.88716,3.6735 -0.23181,0.7691 -0.36552,1.7424 -0.40882,2.976 -0.0575,1.6385 -0.03,1.8768 0.25957,2.2449 0.58991,0.74995 1.1592,0.576 2.5261,-0.77187 0.66023,-0.65102 1.2017,-1.2571 1.2032,-1.3469 0.002,-0.0898 0.35105,-0.54128 0.77667,-1.0033 0.4256,-0.46201 0.90632,-1.032 1.0683,-1.2668 0.83461,-1.2096 3.1898,-1.1994 3.7696,0.0163 0.32013,0.67134 0.32506,0.86822 0.0389,1.5544 -0.63353,1.5193 -0.96709,2.8222 -0.83169,3.2488 0.0637,0.2007 0.25004,0.30778 0.53566,0.30787 0.89425,0 2.9711,-2.8879 3.3644,-4.6786 0.19165,-0.87258 0.47645,-0.99376 2.5552,-1.0872 2.0977,-0.0942 2.4094,-0.0178 2.1214,0.52039 -0.10224,0.19102 -0.20165,0.35006 -0.22095,0.35344 -0.0193,0.003 -0.69104,0.13195 -1.4928,0.28572 l -1.4577,0.27957 -0.83527,1.601 c -0.66886,1.282 -1.0853,1.8415 -2.0906,2.8084 -1.3145,1.2643 -1.8854,1.5263 -2.8602,1.3122 -0.26514,-0.0582 -0.6485,-0.28305 -0.85193,-0.49959 -0.32766,-0.34878 -0.35987,-0.51081 -0.28226,-1.4201 0.0578,-0.67698 0.26848,-1.4083 0.61886,-2.1481 0.42647,-0.90048 0.50165,-1.2064 0.38121,-1.551 -0.25303,-0.72394 -0.85396,-0.64827 -1.8315,0.23062 -0.46374,0.41695 -0.84317,0.87408 -0.84317,1.0158 0,0.14172 -0.31225,0.57143 -0.69388,0.95483 -0.38163,0.38339 -1.098,1.1107 -1.5918,1.6162 -1.0264,1.0507 -1.6879,1.3858 -2.7353,1.3858 -0.63166,0 -0.81382,-0.0822 -1.2817,-0.57828 -0.29995,-0.31806 -0.63251,-0.86908 -0.73899,-1.2245 -0.21113,-0.70472 -0.4634,-0.80126 -0.94188,-0.36049 -0.17059,0.15714 -0.57467,0.52638 -0.89796,0.82052 -0.32329,0.29416 -0.5878,0.59081 -0.5878,0.65925 0,0.0684 -0.48188,0.44126 -1.0709,0.82849 -0.87895,0.57788 -1.2373,0.7152 -2,0.76632 -0.51102,0.0342 -1.0393,0.0152 -1.174,-0.0424 z m 28.027,0.16513 c -0.27383,-0.27381 0.0149,-1.8769 0.55384,-3.0748 0.33507,-0.74478 0.53256,-1.3584 0.7306,-2.2701 0.22416,-1.032 0.15664,-1.3567 -0.47505,-2.2849 l -0.32217,-0.47337 0.37312,-0.30214 c 0.20521,-0.16617 0.43546,-0.30212 0.51169,-0.30212 0.28642,0 1.4579,1.3067 1.4579,1.6262 0,0.54162 0.44902,0.39087 1.4632,-0.49118 1.8515,-1.6104 2.867,-1.8285 4.3356,-0.93093 0.52647,0.32175 0.96991,0.74165 1.1266,1.0668 0.32776,0.68017 0.3387,2.4658 0.0198,3.229 -0.13121,0.31407 -0.31832,1.028 -0.41577,1.5866 -0.30522,1.7495 -1.1278,2.897 -1.7853,2.4907 -0.21606,-0.13353 -0.22697,-1.1105 -0.0147,-1.3227 0.17722,-0.17723 0.80472,-3 0.93348,-4.1994 0.12466,-1.1608 -0.0134,-1.4918 -0.76261,-1.8297 -0.55139,-0.24864 -0.75794,-0.26675 -1.2752,-0.11179 -0.75002,0.22472 -2.9109,2.2925 -3.2541,3.1139 -0.12832,0.30714 -0.4369,0.8224 -0.6857,1.145 -0.45577,0.59102 -0.99121,1.8469 -0.99121,2.3249 0,0.58356 -1.1728,1.3609 -1.5238,1.01 z"
         id="advance" />
    </g>
  </g>
</svg>
