<?xml version="1.0" encoding="UTF-8" standalone="no"?>
<svg
   xmlns:dc="http://purl.org/dc/elements/1.1/"
   xmlns:cc="http://creativecommons.org/ns#"
   xmlns:rdf="http://www.w3.org/1999/02/22-rdf-syntax-ns#"
   xmlns:svg="http://www.w3.org/2000/svg"
   xmlns="http://www.w3.org/2000/svg"
   id="svg2663"
   viewBox="0 0 64.901518 29.764046"
   version="1.1"
   height="29.764046"
   width="64.90152">
  <defs
     id="defs2667" />
  <metadata
     id="metadata2">
    <rdf:RDF>
      <cc:Work
         rdf:about="">
        <dc:format>image/svg+xml</dc:format>
        <dc:type
           rdf:resource="http://purl.org/dc/dcmitype/StillImage" />
        <dc:title />
      </cc:Work>
    </rdf:RDF>
  </metadata>
  <g
     transform="translate(-425.45835,-748.53087)"
     id="g2661">
    <g
       style="stroke-width:0.16327"
       id="g2557">
      <path
         d="m 456.82,754.87 c -0.26282,-0.31669 -0.11929,-0.70012 0.53788,-1.4369 0.30059,-0.33698 0.64082,-0.8984 0.75605,-1.2476 0.18914,-0.57309 0.17416,-0.70576 -0.15397,-1.3628 -0.19994,-0.40033 -0.33689,-0.86748 -0.30433,-1.0381 0.0951,-0.49855 0.70537,-0.4634 1.3078,0.0753 0.51662,0.46196 0.54392,0.54278 0.54358,1.6092 0,0.79334 -0.0841,1.2506 -0.28572,1.5583 -0.15695,0.23952 -0.28888,0.52992 -0.29319,0.64532 -0.009,0.23979 -1.4469,1.4343 -1.7266,1.4343 -0.10162,0 -0.27329,-0.10668 -0.38151,-0.23706 z m -26.256,9.455 c 0.424,-0.15077 0.97502,-0.46396 1.2245,-0.69595 0.24947,-0.23198 0.71071,-0.59342 1.025,-0.80316 0.74383,-0.49643 1.613,-1.957 2.116,-3.5557 0.113,-0.35918 0.41119,-1.2041 0.66262,-1.8776 0.25144,-0.67347 0.57854,-1.8712 0.7269,-2.6616 0.26273,-1.3998 0.26124,-1.4506 -0.0574,-1.9592 -0.17994,-0.28715 -0.52389,-0.86581 -0.76434,-1.2859 -0.34443,-0.60175 -0.61231,-0.83915 -1.2623,-1.1188 -1.0438,-0.44902 -1.6782,-0.35736 -2.6931,0.38902 -0.7792,0.57308 -2.6467,2.5748 -2.6467,2.837 0,0.0785 -0.36735,0.85551 -0.81633,1.7267 -0.44898,0.87119 -0.81632,1.7894 -0.81632,2.0406 0,0.25118 -0.0631,0.5265 -0.14012,0.6118 -0.0771,0.0853 -0.2319,0.60413 -0.34406,1.153 -0.18557,0.908 -0.17186,1.0991 0.15232,2.1224 0.4978,1.5714 0.79071,2.1165 1.5401,2.8659 0.70073,0.70073 0.71374,0.70205 2.0933,0.21147 z m 53.82,13.577 c -0.20317,-0.44591 0.0491,-1.7718 0.82681,-4.3457 0.25775,-0.85306 0.63184,-2.1755 0.8313,-2.9388 0.19946,-0.76326 0.42129,-1.5347 0.49294,-1.7143 0.41571,-1.0418 0.83101,-2.8768 0.98027,-4.3312 0.094,-0.9165 0.13642,-1.701 0.0942,-1.7432 -0.0422,-0.0422 -0.30301,0.0766 -0.57945,0.26408 -1.2238,0.83004 -1.4462,0.95016 -2.2264,1.2026 -1.3678,0.44263 -2.0582,0.49928 -2.6028,0.21357 -0.26939,-0.14133 -0.62018,-0.25743 -0.77956,-0.25796 -0.15936,0 -0.3536,-0.16632 -0.43165,-0.36836 -0.078,-0.20204 -0.34051,-0.55102 -0.58327,-0.77551 -0.55357,-0.51192 -1.0627,-1.489 -1.0627,-2.0396 0,-0.23096 -0.10157,-0.66297 -0.2257,-0.96007 -0.29557,-0.70741 -1.5807,-2.0217 -2.0776,-2.1247 -1.2664,-0.26258 -2.6073,-0.41208 -3.2478,-0.36209 -1.804,0.14085 -2.8989,0.32849 -3.4286,0.58756 -0.31429,0.15373 -1.0304,0.36741 -1.5913,0.47486 -0.56094,0.10743 -1.262,0.2965 -1.558,0.42018 -0.29598,0.12367 -1.0125,0.27247 -1.5924,0.33066 -1.0206,0.10245 -1.7704,0.28054 -3.8297,0.90968 -0.87016,0.26584 -5.0663,0.63223 -5.7959,0.50607 -2.9457,-0.50939 -2.9385,-0.51125 -3.3377,0.86196 -0.13798,0.47461 -0.36181,0.95501 -0.49741,1.0675 -0.1356,0.11254 -0.24654,0.29462 -0.24654,0.40461 0,0.35399 -2.0692,2.6378 -2.5528,2.8176 -1.3015,0.48377 -1.5809,0.49507 -2.386,0.0964 -0.70878,-0.35093 -0.77732,-0.43641 -0.79657,-0.99346 -0.0435,-1.2593 0.0602,-2.1907 0.35071,-3.1504 0.49997,-1.6513 0.0372,-2.9193 -1.0678,-2.9257 -0.56315,-0.003 -0.86779,0.26241 -2.0564,1.7931 -1.2253,1.578 -2.8657,3.2197 -3.7175,3.7204 -0.62145,0.36533 -0.94263,0.44126 -1.8353,0.4339 -1.2256,-0.0101 -1.7662,-0.27233 -2.2721,-1.102 -0.17497,-0.28697 -0.3184,-0.71154 -0.31874,-0.94351 0,-0.23198 -0.0417,-0.4629 -0.092,-0.51317 -0.10707,-0.10706 -1.5413,1.3882 -1.5413,1.6069 0,0.0816 -0.60612,0.55001 -1.3469,1.041 l -1.3469,0.89267 -1.3061,0.003 c -1.4825,0.004 -2.1578,-0.3212 -2.5289,-1.217 -0.11254,-0.27171 -0.26735,-0.49403 -0.344,-0.49403 -0.0767,0 -0.29757,-0.34897 -0.49089,-0.77551 -0.19334,-0.42653 -0.40154,-0.81224 -0.46268,-0.85714 -0.29972,-0.2201 -0.45329,-2.5679 -0.25628,-3.9184 0.24967,-1.7115 0.31248,-1.9084 1.0902,-3.4165 0.34386,-0.66682 0.6252,-1.2915 0.6252,-1.3883 0,-0.2802 1.0065,-1.6201 2.075,-2.7623 0.70167,-0.75007 1.3946,-1.2738 2.4162,-1.8261 l 1.4324,-0.77442 0.86096,0.27139 c 0.90627,0.28569 2.6848,1.6081 2.6848,1.9963 0,0.12288 0.25334,0.38939 0.56298,0.59225 0.30963,0.20287 0.60249,0.51579 0.65082,0.69538 0.17972,0.66792 0.0827,2.1827 -0.23068,3.6001 -0.17765,0.80361 -0.32459,1.902 -0.32653,2.4408 -0.002,0.53881 -0.11246,1.4939 -0.24558,2.1224 -0.37608,1.7755 -0.33084,2.4403 0.19957,2.9321 0.25845,0.23966 0.641,0.41477 0.90606,0.41477 0.52238,0 1.4398,-0.42481 1.6343,-0.75681 0.0718,-0.12253 0.22094,-0.22278 0.33141,-0.22278 0.19512,0 1.2523,-1.0203 1.2523,-1.2086 0,-0.16585 0.53995,-0.79189 1.9114,-2.2162 l 1.34,-1.3916 h 1.0861 c 1.0357,0 1.1076,0.0258 1.5501,0.55588 0.55245,0.66173 0.81995,1.7515 0.63631,2.5922 -0.27104,1.2408 -0.52733,3.44 -0.43035,3.6927 0.13924,0.36287 1.2579,0.34661 1.6805,-0.0244 0.17899,-0.15714 0.46764,-0.36676 0.64148,-0.46579 0.17385,-0.0991 0.50045,-0.50314 0.72578,-0.89796 0.4203,-0.73641 0.51822,-0.97664 1.2577,-3.0852 0.65825,-1.8769 1.0565,-2.1637 1.9558,-1.4082 0.71946,0.60442 1.9573,0.7975 4.4615,0.69593 2.5496,-0.10339 3.9316,-0.24643 4.1633,-0.4309 0.0898,-0.0715 0.86122,-0.2898 1.7143,-0.4851 0.85306,-0.19531 1.8082,-0.41988 2.1224,-0.49905 0.31428,-0.0792 1.0857,-0.22961 1.7143,-0.33432 1.388,-0.23116 2.5598,-0.57676 3.418,-1.008 0.58058,-0.29177 0.88725,-0.31559 3.1837,-0.24721 2.7979,0.0833 3.5652,0.28976 4.4812,1.2056 0.42424,0.4242 0.65875,0.73964 1.6102,2.1659 0.15667,0.23486 0.28524,0.6668 0.28572,0.95986 0.002,1.0676 1.1621,2.4214 2.2102,2.5785 1.437,0.21551 3.4822,-1.2127 4.3449,-3.0342 0.14769,-0.31184 0.49667,-1.0232 0.77551,-1.5807 0.27884,-0.55755 0.50699,-1.162 0.50699,-1.3432 0,-0.47102 0.70168,-0.89962 1.1127,-0.67966 0.17505,0.0937 0.36596,0.29463 0.42426,0.44655 0.0583,0.15192 -0.14779,1.3111 -0.45797,2.576 -0.31019,1.2649 -0.65328,3.0712 -0.76244,4.014 -0.10914,0.94286 -0.29241,1.9347 -0.40723,2.2041 -0.25095,0.58877 -0.50243,1.3882 -0.73185,2.3265 -0.0933,0.38163 -0.22905,0.69388 -0.30165,0.69388 -0.0726,0 -0.20768,0.53925 -0.30017,1.1983 -0.0925,0.65907 -0.28499,1.4489 -0.4278,1.7551 -0.31095,0.66676 -1.0879,3.981 -1.2021,5.1282 -0.0447,0.44898 -0.15623,0.90816 -0.24779,1.0204 -0.28458,0.34888 -0.93226,0.24264 -1.127,-0.18488 z"
         id="advantage" />
    </g>
  </g>
</svg>
