<svg xmlns="http://www.w3.org/2000/svg" height="29.764" width="64.902"><path d="M31.362 6.34c-.263-.318-.12-.701.538-1.438.3-.337.64-.898.756-1.247.189-.573.174-.706-.154-1.363-.2-.4-.337-.868-.305-1.038.095-.499.706-.464 1.308.075.517.462.544.543.544 1.61 0 .793-.084 1.25-.286 1.558-.157.239-.289.53-.293.645-.01.24-1.447 1.434-1.727 1.434-.101 0-.273-.107-.381-.237zM5.106 15.793c.424-.15.975-.464 1.224-.696.25-.232.71-.593 1.025-.803.744-.496 1.613-1.957 2.116-3.556a49.05 49.05 0 01.663-1.877c.251-.674.578-1.871.727-2.662.262-1.4.26-1.45-.058-1.96a43.83 43.83 0 01-.764-1.285c-.345-.602-.612-.84-1.262-1.119-1.044-.449-1.679-.357-2.693.39-.78.572-2.647 2.574-2.647 2.836 0 .079-.368.856-.817 1.727-.448.871-.816 1.79-.816 2.04 0 .252-.063.527-.14.612-.077.086-.232.604-.344 1.153-.186.908-.172 1.1.152 2.123.498 1.571.791 2.116 1.54 2.866.701.7.714.702 2.094.211zm53.82 13.577c-.204-.446.049-1.772.826-4.346.258-.853.632-2.175.832-2.938.2-.764.421-1.535.493-1.715.415-1.041.83-2.876.98-4.33.094-.917.136-1.702.094-1.744-.042-.042-.303.077-.58.264-1.223.83-1.445.95-2.226 1.203-1.367.442-2.058.499-2.602.213-.27-.141-.62-.257-.78-.258-.16 0-.354-.166-.432-.368-.078-.202-.34-.551-.583-.776-.554-.512-1.063-1.489-1.063-2.04 0-.23-.101-.662-.225-.96-.296-.707-1.581-2.021-2.078-2.124-1.266-.263-2.607-.412-3.248-.362-1.804.14-2.899.328-3.428.587-.315.154-1.03.368-1.592.475-.56.108-1.262.297-1.558.42-.296.124-1.012.273-1.592.331-1.02.103-1.77.28-3.83.91-.87.266-5.066.632-5.796.506-2.945-.51-2.938-.511-3.337.862-.138.474-.362.955-.498 1.067-.135.113-.246.295-.246.405 0 .354-2.07 2.638-2.553 2.818-1.302.483-1.581.495-2.386.096-.709-.351-.777-.436-.797-.993-.043-1.26.06-2.191.351-3.15.5-1.652.037-2.92-1.068-2.927-.563-.003-.868.263-2.056 1.794-1.225 1.578-2.866 3.22-3.718 3.72-.621.365-.942.441-1.835.434-1.226-.01-1.766-.273-2.272-1.102-.175-.287-.318-.712-.319-.944 0-.232-.042-.463-.092-.513-.107-.107-1.541 1.388-1.541 1.607 0 .082-.606.55-1.347 1.041l-1.347.893-1.306.003c-1.483.004-2.158-.322-2.529-1.217-.112-.272-.267-.494-.344-.494-.077 0-.297-.35-.49-.776-.194-.426-.402-.812-.463-.857-.3-.22-.454-2.568-.257-3.918.25-1.712.313-1.909 1.09-3.417.344-.667.626-1.291.626-1.388 0-.28 1.006-1.62 2.075-2.762.701-.75 1.394-1.274 2.416-1.827L7.727 0l.861.271c.906.286 2.685 1.608 2.685 1.997 0 .123.253.39.563.592.31.203.602.516.65.695.18.668.083 2.183-.23 3.6-.178.804-.324 1.902-.326 2.441-.002.539-.113 1.494-.246 2.123-.376 1.775-.33 2.44.2 2.932.258.24.64.414.906.414.522 0 1.44-.424 1.634-.756.072-.123.22-.223.331-.223.195 0 1.253-1.02 1.253-1.209 0-.166.54-.792 1.911-2.216l1.34-1.392h1.086c1.036 0 1.108.026 1.55.556.553.662.82 1.752.637 2.593-.271 1.24-.528 3.44-.43 3.692.138.363 1.257.347 1.68-.024.179-.157.467-.367.641-.466.174-.099.5-.503.726-.898.42-.736.518-.977 1.258-3.085.658-1.877 1.056-2.164 1.955-1.408.72.604 1.958.797 4.462.696 2.55-.104 3.932-.247 4.163-.431.09-.072.861-.29 1.715-.485.853-.196 1.808-.42 2.122-.5a28.904 28.904 0 011.714-.334c1.388-.23 2.56-.576 3.418-1.008.58-.291.888-.315 3.184-.247 2.798.083 3.565.29 4.481 1.206.424.424.659.74 1.61 2.166.157.234.286.666.286.96.002 1.067 1.162 2.42 2.21 2.578 1.437.215 3.482-1.213 4.345-3.034.148-.312.497-1.023.776-1.581s.507-1.162.507-1.343c0-.471.701-.9 1.112-.68.175.094.366.295.425.447.058.152-.148 1.31-.458 2.576-.31 1.265-.654 3.07-.763 4.014-.109.943-.292 1.934-.407 2.204-.25.589-.502 1.388-.732 2.326-.093.382-.229.694-.301.694-.073 0-.208.54-.3 1.199-.093.659-.286 1.448-.428 1.755-.311.666-1.088 3.98-1.203 5.128-.044.449-.156.908-.247 1.02-.285.35-.933.243-1.127-.185z"/></svg>