<svg xmlns="http://www.w3.org/2000/svg" height="17.282" width="40.618"><path d="M4.726 15.44c.303-.128.766-.459 1.03-.735.264-.277.572-.504.685-.504.289 0 1.855-2.111 1.967-2.653.051-.247.152-.449.223-.449.072 0 .218-.275.324-.612.107-.337.322-.837.479-1.112.28-.492.435-1.078.838-3.174.112-.583.302-1.297.42-1.586.12-.29.217-.824.217-1.19 0-2.17-4.213-2.917-5.662-1.003-.248.328-.692.825-.986 1.105-.295.28-.535.656-.535.837 0 .18-.111.42-.246.532-.485.402-1.364 2.06-1.645 3.101-.353 1.31-.406 4.416-.098 5.757.305 1.328.84 1.917 1.738 1.917.385 0 .948-.104 1.251-.232zm-2.143 1.59c-.135-.058-.65-.457-1.145-.886-.752-.653-.947-.938-1.184-1.737-.395-1.333-.323-4.02.172-6.334.137-.641 1.072-2.662 1.632-3.528.815-1.258 2.079-2.752 2.75-3.25C6.439.085 6.648.003 8.055 0c1.472-.003 1.88.16 3.639 1.447 1.116.818 1.097.756.697 2.224-.098.359-.287 1.204-.42 1.877-.338 1.728-.494 2.371-.886 3.674-.232.769-.366 1.742-.41 2.976-.057 1.638-.03 1.877.26 2.245.59.75 1.16.576 2.527-.772.66-.651 1.201-1.257 1.203-1.347.002-.09.35-.541.776-1.003.426-.462.907-1.032 1.069-1.267.834-1.21 3.19-1.2 3.77.016.32.672.324.868.038 1.555-.633 1.519-.967 2.822-.831 3.248.063.201.25.308.535.308.894 0 2.971-2.888 3.365-4.678.191-.873.476-.994 2.555-1.087 2.098-.095 2.41-.018 2.121.52-.102.19-.201.35-.22.353l-1.494.286-1.457.28-.835 1.6c-.67 1.283-1.086 1.842-2.091 2.81-1.315 1.263-1.885 1.525-2.86 1.311-.265-.058-.649-.283-.852-.5-.328-.348-.36-.51-.282-1.42.057-.676.268-1.408.618-2.148.427-.9.502-1.206.382-1.55-.253-.724-.854-.649-1.832.23-.464.417-.843.874-.843 1.016 0 .142-.312.571-.694.955-.382.383-1.098 1.11-1.592 1.616-1.026 1.05-1.688 1.386-2.735 1.386-.632 0-.814-.082-1.282-.579-.3-.318-.632-.869-.739-1.224-.21-.705-.463-.801-.942-.36-.17.157-.574.526-.898.82-.323.294-.587.59-.587.66 0 .068-.482.44-1.071.828-.88.578-1.238.715-2 .766-.511.034-1.04.015-1.174-.042zm28.027.165c-.274-.274.015-1.877.553-3.075.336-.745.533-1.359.731-2.27.224-1.032.157-1.357-.475-2.285l-.322-.474.373-.302c.205-.166.435-.302.512-.302.286 0 1.458 1.307 1.458 1.626 0 .542.449.391 1.463-.49 1.851-1.611 2.867-1.83 4.335-.932.527.322.97.742 1.127 1.067.328.68.339 2.466.02 3.23-.131.313-.319 1.027-.416 1.586-.305 1.75-1.128 2.897-1.785 2.49-.216-.133-.227-1.11-.015-1.322.177-.178.805-3 .933-4.2.125-1.16-.013-1.492-.762-1.83-.552-.248-.758-.266-1.275-.111-.75.224-2.911 2.292-3.254 3.114a6.23 6.23 0 01-.686 1.145c-.456.59-.991 1.847-.991 2.325 0 .583-1.173 1.36-1.524 1.01z" stroke-width=".163"/></svg>