<?xml version="1.0" encoding="UTF-8" standalone="no"?>
<svg
   xmlns:dc="http://purl.org/dc/elements/1.1/"
   xmlns:cc="http://creativecommons.org/ns#"
   xmlns:rdf="http://www.w3.org/1999/02/22-rdf-syntax-ns#"
   xmlns:svg="http://www.w3.org/2000/svg"
   xmlns="http://www.w3.org/2000/svg"
   id="svg2663"
   viewBox="0 0 65.96237 17.749739"
   version="1.1"
   height="17.749739"
   width="65.962372">
  <defs
     id="defs2667" />
  <metadata
     id="metadata2">
    <rdf:RDF>
      <cc:Work
         rdf:about="">
        <dc:format>image/svg+xml</dc:format>
        <dc:type
           rdf:resource="http://purl.org/dc/dcmitype/StillImage" />
        <dc:title />
      </cc:Work>
    </rdf:RDF>
  </metadata>
  <g
     transform="translate(-424.84551,-725.76263)"
     id="g2661">
    <g
       style="stroke-width:0.16327"
       id="g2557">
      <path
         d="m 430.04,741.66 c 0.13469,-0.10383 0.32871,-0.299 0.43116,-0.43369 0.10245,-0.1347 0.40657,-0.4745 0.67581,-0.75511 0.46019,-0.47965 1.5053,-2.432 1.5053,-2.812 0,-0.0954 0.18918,-0.45226 0.42041,-0.79298 0.23122,-0.34072 0.46111,-0.82307 0.51087,-1.0719 0.0498,-0.24882 0.15447,-0.49192 0.23267,-0.54025 0.0782,-0.0483 0.14217,-0.26287 0.14217,-0.47676 0,-0.2139 0.0652,-0.42916 0.14475,-0.47836 0.0796,-0.0492 0.19527,-0.36579 0.25698,-0.70352 0.0617,-0.33772 0.20812,-0.76322 0.32531,-0.94552 0.11719,-0.18232 0.30047,-0.77007 0.40728,-1.3061 0.10683,-0.53607 0.26265,-1.2403 0.34627,-1.565 0.2385,-0.92596 0.185,-1.2459 -0.29691,-1.7752 -0.56506,-0.62065 -1.8166,-0.89721 -2.9305,-0.64756 -1.03,0.23083 -1.2166,0.35192 -2.3225,1.5072 -2.1242,2.219 -2.3848,2.5726 -2.708,3.6747 -0.15053,0.51331 -0.39537,1.2245 -0.54409,1.5805 -0.2159,0.5168 -0.27036,1.21 -0.27036,3.4406 v 2.7934 l 0.48979,0.58625 c 0.7121,0.85233 1.3191,1.1305 2.2041,1.0102 0.40409,-0.055 0.8449,-0.18491 0.9796,-0.28875 z m -2.1224,1.5405 c -0.22449,-0.0532 -0.71896,-0.29869 -1.0988,-0.54563 -0.37986,-0.24694 -0.75711,-0.44898 -0.83837,-0.44898 -0.65603,0 -1.2278,-2.6995 -1.1223,-5.2988 0.12129,-2.9889 0.69468,-4.4974 2.8402,-7.4721 0.98526,-1.3661 2.7906,-2.8796 4.0295,-3.3783 0.82629,-0.33259 1.0352,-0.35905 1.57,-0.19882 0.33926,0.10164 0.7688,0.18481 0.9545,0.18481 0.1857,0 0.78726,0.19501 1.3368,0.43332 1.7144,0.74353 1.8297,1.4554 0.89512,5.5259 -0.1237,0.53877 -0.27107,1.2191 -0.32748,1.5118 -0.0564,0.29273 -0.20602,0.73964 -0.33249,0.99313 -0.4308,0.86357 -0.88124,3.042 -0.88375,4.2742 -0.002,1.1319 0.0368,1.2758 0.49917,1.8367 0.54016,0.65529 1.1026,0.79129 1.4653,0.35428 0.1161,-0.13988 0.45618,-0.35673 0.75574,-0.48189 0.29954,-0.12516 0.61126,-0.40281 0.6927,-0.61702 0.0814,-0.21418 0.40795,-0.63454 0.72557,-0.93415 0.31763,-0.29959 0.66881,-0.77076 0.78041,-1.047 0.11159,-0.27628 0.2488,-0.53905 0.30489,-0.58395 0.0561,-0.0449 0.4123,-0.4778 0.79155,-0.96199 1.5878,-2.0273 2.832,-2.4674 3.8552,-1.3639 0.65427,0.7056 0.8073,1.3791 0.57809,2.5442 -0.10843,0.55112 -0.30394,1.2086 -0.43447,1.461 -0.14391,0.2783 -0.218,0.79317 -0.18824,1.3082 l 0.0491,0.84927 0.62904,-0.0379 c 1.2573,-0.0757 1.9081,-0.78735 2.653,-2.9009 0.15824,-0.44898 0.38451,-0.96124 0.50284,-1.1384 0.11832,-0.17713 0.21514,-0.44284 0.21514,-0.59048 0,-0.14763 0.15722,-0.64674 0.34938,-1.1091 0.25008,-0.60174 0.46134,-0.86884 0.74322,-0.93958 0.21661,-0.0544 1.4002,-0.10828 2.6302,-0.11982 l 2.2364,-0.021 0.0506,0.43799 c 0.0683,0.59089 -0.19084,0.69772 -2.3093,0.95218 -1.1245,0.13507 -1.8777,0.30717 -2.0676,0.47238 -0.16426,0.14295 -0.49636,0.84765 -0.73796,1.566 -0.61539,1.8297 -1.7146,3.559 -2.6092,4.1051 -1.0141,0.619 -2.2361,0.89242 -2.449,0.54798 -0.0555,-0.0898 -0.26663,-0.16326 -0.46919,-0.16326 -0.26083,0 -0.44857,-0.16835 -0.64343,-0.57697 -0.36713,-0.76989 -0.34171,-1.6321 0.0744,-2.5251 0.2007,-0.43065 0.37657,-1.2176 0.42498,-1.9017 0.0759,-1.0729 0.0541,-1.1822 -0.27053,-1.356 -0.19421,-0.10393 -0.47889,-0.14625 -0.63265,-0.094 -0.7604,0.2583 -2.3866,2.2323 -3.1129,3.7786 -0.21106,0.44934 -2.4861,2.6752 -2.7344,2.6752 -0.10498,0 -0.40131,0.10974 -0.65851,0.24388 -0.60015,0.313 -1.3606,0.31288 -1.8077,0 -0.35267,-0.24702 -1.0369,-1.5672 -1.2475,-2.4069 -0.0619,-0.24694 -0.17622,-0.44898 -0.25396,-0.44898 -0.0778,0 -0.27254,0.20204 -0.43284,0.44898 -0.16029,0.24694 -0.42587,0.54498 -0.5902,0.66232 -0.16431,0.11734 -0.29876,0.32103 -0.29876,0.45265 0,0.43917 -1.6538,1.8554 -2.2797,1.9522 -1.1136,0.17228 -1.3972,0.18657 -1.802,0.0907 z m 61.094,0.11559 c -0.25453,-0.25453 -0.25209,-1.358 0.004,-1.8148 0.10996,-0.19614 0.25152,-0.8709 0.31459,-1.4995 0.0631,-0.62858 0.16495,-1.5164 0.2264,-1.973 0.0856,-0.63579 0.0448,-0.96065 -0.1741,-1.3878 -0.56707,-1.1062 -1.1897,-1.1026 -2.3788,0.0137 -0.47824,0.44898 -0.92038,0.81633 -0.98257,0.81633 -0.24932,0 -1.1476,1.8728 -1.5282,3.1862 -0.22237,0.7674 -0.53461,1.5766 -0.69388,1.7982 -0.2863,0.39842 -0.94939,0.6959 -1.1357,0.50955 -0.18826,-0.18824 -0.0924,-1.433 0.15639,-2.0302 0.13899,-0.33365 0.41241,-1.1576 0.60763,-1.8311 0.1952,-0.67347 0.42212,-1.3933 0.50426,-1.5995 0.24562,-0.61678 0.17275,-1.0041 -0.27265,-1.4496 -0.38632,-0.38633 -0.50702,-0.41489 -1.4286,-0.338 -1.358,0.11329 -1.7636,0.33355 -2.595,1.4092 -0.76991,0.99605 -1.7585,2.7926 -1.7585,3.1957 0,0.13838 -0.0918,0.25427 -0.20408,0.25755 -0.2059,0.006 -0.90027,1.0015 -1.277,1.8308 -0.20583,0.45306 -0.40057,0.53112 -0.87289,0.34988 -0.3771,-0.1447 -0.32069,-0.93105 0.13087,-1.8247 0.58728,-1.1622 1.1288,-3.2594 1.0306,-3.9914 -0.1209,-0.90136 -0.35388,-1.1052 -1.2632,-1.1052 -0.70813,0 -0.81455,0.051 -1.1127,0.5334 -0.18132,0.29335 -0.51793,0.71025 -0.74802,0.92642 -0.23009,0.21616 -0.41835,0.48264 -0.41835,0.59218 0,0.10955 -0.36605,0.59265 -0.81347,1.0736 -0.44741,0.48093 -0.81476,1.0046 -0.81632,1.1637 -0.004,0.4017 -1.6261,1.9847 -2.6559,2.5919 -0.75791,0.44687 -0.95366,0.49306 -1.7438,0.41151 -0.97023,-0.10013 -1.6103,-0.47486 -1.9325,-1.1314 -0.34498,-0.70292 -0.31349,-1.6 0.15427,-4.3956 0.35771,-2.138 -0.45664,-2.7056 -2.7229,-1.8979 -0.62521,0.22282 -1.7234,1.541 -2.0416,2.4505 -0.1351,0.3862 -0.55755,1.2681 -0.93878,1.9598 -0.38122,0.69169 -0.69314,1.3442 -0.69314,1.4501 0,0.26111 -0.64366,1.3255 -0.9542,1.578 -0.37494,0.30478 -0.6055,0.24916 -0.80781,-0.19488 -0.18756,-0.4116 0.0575,-1.1926 0.93545,-2.9809 0.24832,-0.50585 0.33677,-1.0043 0.33677,-1.898 0,-1.695 -0.1137,-2.1155 -0.67199,-2.4852 -0.38121,-0.25246 -0.47152,-0.42021 -0.43515,-0.80836 0.0377,-0.40215 0.12813,-0.49922 0.50544,-0.54248 0.65294,-0.0748 1.1668,0.32588 1.5204,1.1856 0.39305,0.95569 0.72963,0.95641 1.6935,0.004 1.0696,-1.0573 1.6613,-1.3062 2.9962,-1.2602 0.61524,0.0211 1.3982,0.11374 1.7399,0.20574 1.0179,0.27411 1.1457,1.0412 0.79283,4.7584 -0.22032,2.3207 -0.11263,2.7515 0.68784,2.7515 0.72408,0 1.5267,-0.42505 2.1468,-1.1369 1.0797,-1.2394 2.0855,-2.5851 2.0855,-2.7902 0,-0.11592 0.25793,-0.47364 0.57319,-0.79491 0.31525,-0.32129 1.0227,-1.0431 1.5722,-1.604 1.1514,-1.1755 1.9106,-1.4891 2.8524,-1.1783 0.53105,0.17526 1.1242,0.87316 1.4172,1.6675 0.14449,0.39169 0.49378,0.35813 1.0419,-0.10013 0.25382,-0.21223 0.75538,-0.5436 1.1146,-0.7364 0.35922,-0.1928 0.76326,-0.41429 0.89796,-0.49218 0.61391,-0.35504 1.5447,-0.5338 2.2382,-0.42982 0.58255,0.0874 0.88513,0.2624 1.4392,0.83254 0.39148,0.40281 0.85352,0.72191 1.0452,0.72191 0.189,0 0.93953,-0.30362 1.6678,-0.67472 l 1.3242,-0.67473 0.75487,0.31237 c 1.1181,0.46268 1.412,1.1492 1.3522,3.1592 -0.0253,0.85286 -0.15129,2.2488 -0.27993,3.102 -0.12862,0.85326 -0.2343,1.6065 -0.23483,1.6738 -0.002,0.20431 -0.63965,0.77551 -0.86627,0.77551 -0.11673,0 -0.3004,-0.0882 -0.40816,-0.19592 z"
         id="advancement" />
    </g>
  </g>
</svg>
