<?xml version="1.0" encoding="UTF-8" standalone="no"?>
<svg
   xmlns:dc="http://purl.org/dc/elements/1.1/"
   xmlns:cc="http://creativecommons.org/ns#"
   xmlns:rdf="http://www.w3.org/1999/02/22-rdf-syntax-ns#"
   xmlns:svg="http://www.w3.org/2000/svg"
   xmlns="http://www.w3.org/2000/svg"
   id="svg2663"
   viewBox="0 0 44.564177 21.424017"
   version="1.1"
   height="21.424017"
   width="44.564178">
  <defs
     id="defs2667" />
  <metadata
     id="metadata2">
    <rdf:RDF>
      <cc:Work
         rdf:about="">
        <dc:format>image/svg+xml</dc:format>
        <dc:type
           rdf:resource="http://purl.org/dc/dcmitype/StillImage" />
        <dc:title />
      </cc:Work>
    </rdf:RDF>
  </metadata>
  <g
     transform="translate(-425.31381,-700.53587)"
     id="g2661">
    <g
       style="stroke-width:0.16327"
       id="g2557">
      <path
         d="m 456.53,718.26 c -0.27223,-0.10984 -0.2599,-0.88204 0.0205,-1.2841 0.25624,-0.36746 1.3786,-3.8504 1.5184,-4.7123 0.11746,-0.72389 -0.0124,-1.2429 -0.43245,-1.7271 -0.35213,-0.40602 -0.45103,-1.381 -0.15843,-1.5619 0.41633,-0.25731 0.99812,0.10872 1.3164,0.82814 0.25091,0.5672 0.40807,0.72861 0.70947,0.72861 0.53244,0 0.90367,-0.16069 0.90367,-0.39114 0,-0.1061 0.40745,-0.43987 0.90544,-0.74169 0.81347,-0.493 1.021,-0.54662 2.0433,-0.52774 1.5321,0.0283 2.2936,0.45725 2.8029,1.5789 0.31347,0.69028 0.37072,1.0936 0.37076,2.6122 5e-5,1.5659 -0.0505,1.9005 -0.39489,2.6122 -0.2172,0.44898 -0.56241,1.2204 -0.76711,1.7143 -0.34482,0.83195 -0.41181,0.89796 -0.91119,0.89796 -0.76274,0 -0.7704,-0.42653 -0.0373,-2.0728 0.53378,-1.1986 0.61315,-1.5494 0.68451,-3.0258 0.097,-2.0059 -0.0494,-2.4557 -0.93817,-2.8832 -0.82478,-0.39671 -1.7748,-0.28172 -2.5486,0.30844 -0.79821,0.60881 -2.2978,2.9969 -2.7005,4.3006 -0.18467,0.5978 -0.40182,1.2338 -0.48252,1.4134 -0.14433,0.32111 -0.22029,0.45139 -0.88006,1.5091 -0.31409,0.50353 -0.56691,0.6081 -1.0242,0.42359 z m -26.136,-1.7833 c 0.2752,-0.14232 0.8224,-0.5556 1.216,-0.91839 0.71879,-0.66256 2.0225,-2.4295 2.0225,-2.7411 0,-0.0917 0.2976,-0.76944 0.66133,-1.506 1.1192,-2.2664 2.2661,-6.3389 2.0412,-7.2478 -0.15086,-0.60956 -1.8203,-1.8884 -2.6744,-2.0486 -1.2991,-0.24372 -2.0451,-0.0358 -2.885,0.80406 -0.75277,0.75279 -1.8779,2.4419 -1.8779,2.8193 0,0.11383 -0.34694,0.83892 -0.77097,1.6113 -0.8295,1.5109 -0.91901,1.9244 -1.1255,5.1996 -0.12605,1.9992 0.0866,2.9858 0.80932,3.7557 0.42934,0.45732 0.60757,0.53061 1.2905,0.53061 0.43583,0 1.0176,-0.11644 1.2928,-0.25874 z m -3.2756,1.0342 c -0.52805,-0.47143 -1.0419,-1.0408 -1.1418,-1.2653 -0.32598,-0.73209 -0.67073,-2.2864 -0.66265,-2.9876 0.018,-1.5584 0.45225,-3.8157 0.96433,-5.0124 0.2882,-0.67347 0.70717,-1.6592 0.93109,-2.1904 0.2239,-0.53125 0.67676,-1.3762 1.0064,-1.8776 0.32958,-0.50139 0.63628,-0.99788 0.68153,-1.1033 0.23297,-0.54276 1.8448,-1.9968 2.3281,-2.1001 0.29134,-0.0623 0.60318,-0.16999 0.69298,-0.23931 0.76416,-0.58998 4.2796,0.23149 4.9665,1.1605 0.19886,0.26897 0.54029,0.557 0.75876,0.64005 0.40656,0.15458 0.49392,0.5159 0.41343,1.7101 -0.0298,0.44278 -0.64675,3.5843 -1.026,5.2245 -0.083,0.35919 -0.20689,0.94694 -0.27524,1.3061 -0.0683,0.35918 -0.20351,0.8 -0.30041,0.97959 -0.29524,0.54728 -0.44205,3.1145 -0.21013,3.6745 0.27206,0.6568 1.0104,0.6674 1.8935,0.0272 0.69234,-0.50197 2.7272,-2.6362 3.1401,-3.2934 1.0496,-1.6707 2.2642,-2.6122 3.3699,-2.6122 0.85507,0 1.3442,0.35093 1.724,1.2369 0.28762,0.67097 0.29035,0.79048 0.051,2.2259 -0.1391,0.83425 -0.39236,1.7598 -0.56279,2.0568 -0.17043,0.29696 -0.30988,0.79288 -0.30988,1.102 0,0.52695 0.0336,0.56209 0.5383,0.56209 0.41226,0 0.67117,-0.14333 1.1059,-0.61225 0.64356,-0.69415 1.2946,-1.5954 1.2946,-1.7922 0,-0.0726 0.19619,-0.42071 0.43598,-0.77359 0.39247,-0.57758 0.52441,-0.96583 0.81468,-2.3974 0.0482,-0.23791 0.34121,-0.67872 0.65103,-0.97959 0.51458,-0.49969 0.69326,-0.56219 2.0655,-0.72256 1.6476,-0.19256 2.0736,-0.0854 2.0736,0.52137 0,0.52242 -0.28728,0.66018 -1.6244,0.77897 -0.72066,0.064 -1.3275,0.2087 -1.4892,0.3551 -0.15016,0.13589 -0.36668,0.7034 -0.48116,1.2612 -0.11448,0.55773 -0.29641,1.1243 -0.40431,1.259 -0.10789,0.13469 -0.24655,0.3551 -0.30811,0.48979 -0.8651,1.8925 -3.2808,4.0816 -4.5041,4.0816 -0.23853,0 -0.61726,-0.25515 -1.0097,-0.68023 -0.70255,-0.761 -0.80239,-1.3545 -0.36621,-2.1769 0.52108,-0.98249 0.9699,-3.224 0.80023,-3.9964 -0.0996,-0.45364 -0.16366,-0.49334 -0.79551,-0.49334 -0.60872,0 -0.75324,0.0792 -1.2662,0.69388 -0.3185,0.38163 -0.67639,0.87755 -0.79532,1.102 -0.40674,0.76783 -3.3258,3.8362 -3.9903,4.1945 -1.8928,1.0204 -3.5207,0.39692 -3.5207,-1.3483 0,-1.1876 -0.53504,-1.155 -1.5612,0.0949 -0.44337,0.54001 -1.1,1.176 -1.4592,1.4133 -0.35918,0.23729 -0.83931,0.55739 -1.067,0.71136 -0.38121,0.25783 -1.8098,0.64857 -2.3712,0.64857 -0.13112,0 -0.67044,-0.38571 -1.1985,-0.85714 z m 32.491,4.2248 c -0.25515,-0.30743 -0.0539,-0.74951 0.42389,-0.93115 0.21809,-0.0829 0.92439,-0.15432 1.5696,-0.15867 0.64517,-0.004 1.9077,-0.12398 2.8057,-0.26584 0.89796,-0.14188 2.4959,-0.28958 3.551,-0.32823 l 1.9184,-0.0703 v 0.56355 c 0,0.32469 -0.0942,0.59969 -0.22214,0.6488 -0.27947,0.10725 -8.4653,0.76603 -9.5184,0.76603 -0.18803,0 -0.42561,-0.1009 -0.52795,-0.22421 z"
         id="advanced" />
    </g>
  </g>
</svg>
