<svg xmlns="http://www.w3.org/2000/svg" height="17.778" width="59.864"><path d="M6.322 14.933c.404-.203.886-.543 1.07-.754.514-.589 1.216-1.684 1.216-1.898 0-.105.33-.808.735-1.561.404-.754.734-1.532.734-1.729 0-.353.385-1.74.66-2.379.175-.407.485-2.49.478-3.215a1.586 1.586 0 00-.378-.963c-.475-.539-2.056-1.291-2.714-1.291-.906 0-2.118.7-2.967 1.714-.301.36-.619.704-.706.767-.148.106-.567.87-1.291 2.359-.169.346-.41.829-.537 1.073-.543 1.045-.928 2.829-.929 4.29 0 1.937.371 2.783 1.576 3.597.762.514.925.562 1.584.467.404-.059 1.065-.273 1.47-.477zm51.374 2.754c-.227-.227-.091-1.486.279-2.585.617-1.832.666-2.542.267-3.833-.191-.617-.448-1.206-.57-1.308-.272-.225-1.311-.058-1.632.263-.124.124-.278.225-.342.225-.206 0-2.029 1.92-2.029 2.138 0 .114-.14.36-.313.545-.172.186-.39.76-.484 1.278-.187 1.022-1.044 2.51-1.536 2.666-.677.215-.967-.547-.53-1.392.51-.986 1.275-3.553 1.272-4.27-.004-1.025-.14-1.373-.624-1.593-1.125-.513-2.639.117-3.4 1.415-.5.854-1.15 1.758-1.347 1.874-.122.072-.221.22-.221.33 0 .11-.289.548-.641.974-.353.426-.687.987-.744 1.245-.147.67-.627 1.057-1.147.927-.621-.156-.666-.508-.193-1.54.703-1.532.968-2.735.843-3.818-.165-1.42-.779-1.89-1.784-1.368-.42.218-2.69 2.519-2.698 2.735-.007.18-1.946 2.099-2.121 2.099-.091 0-.365.224-.609.497-.953 1.07-2.904 1.463-4.013.81-.729-.431-1.516-1.427-1.666-2.11-.122-.554-.022-.854 1.003-3.025.508-1.074.485-1.28-.199-1.8-.702-.536-1.05-.48-1.939.318-.353.316-.741.575-.863.575-.121 0-.383.102-.582.227-.557.349-1.475.453-2.323.263-.829-.186-1.216-.038-1.23.469-.004.146-.358.854-.786 1.572-.644 1.08-.986 1.455-1.97 2.163-1.248.898-1.917 1.066-2.676.672-.899-.467-1.403-1.442-1.035-2.002.125-.192.307-.678.404-1.08.097-.403.27-1.05.384-1.436.29-.982-.026-1.561-.893-1.633-.528-.044-.693.035-1.22.585-.335.35-.94 1.235-1.343 1.966-.404.732-.822 1.332-.929 1.334-.107.002-.426.325-.71.72-.738 1.029-2.232 1.793-3.302 1.69-.867-.083-1.686-.695-1.86-1.39-.136-.54-.378-.39-1.081.668-.34.51-.711.927-.827.927-.115 0-.352.132-.526.294-.174.162-.906.422-1.627.577-1.75.378-2.833.174-3.669-.69-.823-.853-1.306-1.521-1.307-1.809 0-.137-.111-.462-.246-.72a3.231 3.231 0 01-.197-2.505c.137-.43.299-1.11.36-1.515.127-.849.588-2.176 1.095-3.156.194-.374.462-.901.596-1.17.133-.27.561-.913.95-1.43.39-.518.708-1.01.708-1.095 0-.084.317-.371.704-.637.386-.267.806-.608.932-.76C5.917.566 7.445 0 8.365 0c1.081 0 2.484.429 3.027.925.23.21.505.381.613.381.107 0 .342.147.521.327.412.41.444 2.053.07 3.51-.49 1.914-.57 2.3-.732 3.592-.09.718-.282 1.761-.426 2.318-.28 1.085-.231 2.333.109 2.743.113.136.466.244.795.243.51-.002.697-.122 1.337-.857.41-.47 1.1-1.37 1.536-1.998.434-.629.836-1.18.891-1.225.056-.045.227-.28.38-.52.155-.243.628-.68 1.054-.973.906-.623 2.041-.727 2.988-.273 1.032.495 1.205 2.058.457 4.133-.328.91-.356 1.702-.065 1.814.68.26 2.28-1.038 2.985-2.423.382-.75.787-1.913 1.053-3.023.129-.537.259-.718.574-.797.33-.083.54.027 1.095.572.558.547.802.674 1.299.674.89 0 2.328-.776 2.643-1.427.47-.968 1.382-1.14 2.095-.395.245.255.76.621 1.147.814 1.196.597 1.224.911.27 3.006-.451.99-.82 1.958-.82 2.15 0 .192.233.631.517.977.51.618.531.626 1.382.526.475-.056 1.066-.193 1.314-.305.66-.298 1.986-1.57 2.278-2.185.139-.293.503-.724.81-.957.305-.234.556-.519.556-.634 0-.115.33-.446.734-.736.404-.29.808-.665.898-.833.09-.168.329-.352.531-.41.202-.057.595-.219.872-.36a1.636 1.636 0 011.08-.149c.571.107 1.027.645 1.945 2.297l.268.482.501-.502c.276-.276.617-.546.759-.6a.753.753 0 00.367-.388c.15-.39.716-.849 1.056-.855.152-.003.321-.08.377-.17.141-.228 2.262-.203 2.78.033.237.107.572.474.745.814.395.775.917.931 1.79.537.355-.16.644-.339.644-.398 0-.245 1.39-.866 1.973-.881.838-.022 1.57.69 2.09 2.033.336.871.377 1.2.306 2.438-.054.947-.171 1.56-.348 1.811-.146.21-.266.53-.266.711 0 1.118-1.054 2.57-1.524 2.1z" stroke-width=".163"/></svg>