<svg xmlns="http://www.w3.org/2000/svg" height="17.778" width="59.866"><path d="M6.326 14.933c.405-.204.886-.543 1.07-.754.514-.59 1.215-1.685 1.215-1.898 0-.105.331-.808.735-1.561.404-.754.735-1.531.735-1.729 0-.353.385-1.741.66-2.379.175-.407.484-2.49.478-3.215a1.586 1.586 0 00-.378-.963c-.475-.539-2.056-1.292-2.714-1.292-.906 0-2.118.7-2.967 1.714-.301.36-.619.704-.706.767-.148.106-.567.87-1.291 2.359-.169.346-.41.829-.537 1.073-.542 1.046-.928 2.829-.928 4.29 0 1.937.37 2.783 1.576 3.597.76.514.924.562 1.584.467.404-.059 1.065-.273 1.469-.477zm51.37 2.754c-.227-.228-.091-1.486.279-2.585.617-1.832.666-2.542.267-3.833-.191-.618-.448-1.206-.57-1.308-.272-.226-1.311-.058-1.631.262-.124.124-.278.226-.343.226-.206 0-2.028 1.92-2.028 2.138 0 .114-.14.36-.313.545-.172.186-.39.76-.484 1.278-.187 1.021-1.044 2.51-1.535 2.666-.678.215-.967-.546-.53-1.392.51-.985 1.274-3.553 1.27-4.27-.003-1.025-.14-1.373-.623-1.593-1.125-.512-2.639.118-3.4 1.415-.5.854-1.15 1.758-1.348 1.874-.121.072-.221.22-.221.33 0 .11-.288.548-.64.974-.353.427-.688.987-.745 1.245-.147.67-.626 1.057-1.146.927-.621-.156-.666-.509-.193-1.54.703-1.532.968-2.735.843-3.818-.165-1.42-.779-1.89-1.784-1.368-.42.218-2.69 2.519-2.698 2.735-.007.18-1.946 2.099-2.121 2.099-.092 0-.366.223-.61.497-.952 1.07-2.903 1.463-4.012.809-.73-.43-1.516-1.426-1.666-2.11-.122-.554-.023-.854 1.003-3.024.507-1.074.484-1.28-.2-1.801-.702-.536-1.05-.479-1.938.318-.353.317-.742.576-.863.576-.122 0-.384.102-.583.226-.557.35-1.475.453-2.323.263-.829-.186-1.216-.038-1.23.47-.004.146-.358.853-.786 1.572-.644 1.079-.986 1.455-1.97 2.163-1.248.898-1.917 1.066-2.676.671-.9-.467-1.403-1.442-1.035-2.002.125-.19.307-.677.404-1.08.096-.403.27-1.049.384-1.436.29-.982-.026-1.56-.893-1.633-.528-.044-.693.035-1.22.585-.334.35-.94 1.235-1.343 1.967-.404.732-.822 1.332-.929 1.333-.107.002-.426.326-.71.721-.738 1.03-2.231 1.793-3.302 1.69-.867-.083-1.686-.696-1.86-1.39-.136-.54-.378-.39-1.081.668-.34.51-.712.926-.827.926-.115 0-.352.133-.526.295-.174.162-.906.422-1.628.577-1.75.378-2.833.174-3.668-.69-.823-.853-1.306-1.52-1.307-1.809 0-.138-.111-.462-.246-.72a3.232 3.232 0 01-.197-2.506c.137-.429.299-1.11.36-1.514.127-.849.588-2.176 1.094-3.156.194-.374.463-.901.596-1.17.134-.27.562-.914.951-1.43.39-.518.708-1.01.708-1.095 0-.084.316-.371.703-.637.387-.266.807-.608.932-.76C5.917.566 7.444 0 8.364 0c1.081 0 2.484.429 3.028.925.23.21.505.381.613.381.107 0 .342.147.521.327.412.41.444 2.053.07 3.51-.49 1.914-.57 2.3-.732 3.592a22.62 22.62 0 01-.426 2.319c-.28 1.085-.231 2.333.109 2.742.113.136.466.244.795.242.51-.002.697-.121 1.337-.857.41-.47 1.1-1.369 1.535-1.998.435-.628.837-1.18.892-1.224.056-.045.227-.279.38-.52.154-.242.628-.68 1.054-.972.906-.624 2.04-.728 2.989-.273 1.032.494 1.205 2.058.457 4.133-.328.91-.357 1.7-.065 1.813.68.26 2.28-1.038 2.985-2.423.382-.75.787-1.913 1.053-3.023.128-.537.259-.718.574-.797.33-.083.54.027 1.095.572.558.547.802.674 1.298.674.891 0 2.328-.776 2.644-1.426.47-.968 1.382-1.14 2.095-.396.244.255.76.621 1.146.814 1.196.598 1.224.912.27 3.006-.45.991-.82 1.958-.82 2.15 0 .192.233.632.518.977.51.618.53.626 1.382.526.475-.056 1.066-.193 1.314-.305.66-.298 1.987-1.57 2.278-2.185.139-.292.503-.723.81-.957.305-.233.556-.518.556-.633 0-.115.33-.446.734-.736.404-.29.808-.665.898-.833.09-.169.329-.353.531-.41.202-.057.595-.22.872-.36a1.636 1.636 0 011.08-.15c.571.108 1.027.646 1.945 2.297l.268.482.501-.502c.276-.276.617-.546.759-.6a.754.754 0 00.367-.388c.15-.39.716-.849 1.056-.855.152-.003.321-.08.377-.169.141-.229 2.262-.204 2.78.032.237.108.572.474.745.814.396.775.917.931 1.791.537.354-.16.643-.339.643-.398 0-.245 1.39-.866 1.973-.881.84-.022 1.571.69 2.09 2.033.337.871.378 1.2.308 2.438-.054.947-.172 1.559-.348 1.811-.147.21-.267.53-.267.711 0 1.117-1.054 2.57-1.524 2.1z" stroke-width=".163"/></svg>