<?xml version="1.0" encoding="UTF-8" standalone="no"?>
<svg
   xmlns:dc="http://purl.org/dc/elements/1.1/"
   xmlns:cc="http://creativecommons.org/ns#"
   xmlns:rdf="http://www.w3.org/1999/02/22-rdf-syntax-ns#"
   xmlns:svg="http://www.w3.org/2000/svg"
   xmlns="http://www.w3.org/2000/svg"
   id="svg2663"
   viewBox="0 0 49.401858 17.440628"
   version="1.1"
   height="17.440628"
   width="49.401859">
  <defs
     id="defs2667" />
  <metadata
     id="metadata2">
    <rdf:RDF>
      <cc:Work
         rdf:about="">
        <dc:format>image/svg+xml</dc:format>
        <dc:type
           rdf:resource="http://purl.org/dc/dcmitype/StillImage" />
        <dc:title />
      </cc:Work>
    </rdf:RDF>
  </metadata>
  <g
     transform="translate(-425.99416,-772.24466)"
     id="g2661">
    <g
       style="stroke-width:0.16327"
       id="g2557">
      <path
         d="m 432.16,787.1 c 0.67346,-0.44779 1.3347,-0.9914 1.4694,-1.208 0.78955,-1.2698 1.3063,-2.2465 1.4036,-2.6531 0.061,-0.25486 0.17539,-0.5458 0.25427,-0.64653 0.19283,-0.24635 0.86076,-2.1805 1.2053,-3.4903 0.15354,-0.58368 0.28847,-1.5896 0.29985,-2.2353 0.018,-1.0223 -0.0268,-1.2183 -0.34664,-1.5166 -0.20204,-0.18837 -0.36735,-0.40772 -0.36735,-0.48742 0,-0.0797 -0.39466,-0.37072 -0.87701,-0.6467 -1.0174,-0.58212 -1.8672,-0.64746 -2.7618,-0.21234 -0.6607,0.32137 -2.402,1.9015 -2.402,2.1797 0,0.0977 -0.17181,0.38176 -0.3818,0.63133 -0.49685,0.59045 -1.1424,2.2176 -1.4903,3.7566 -0.15226,0.67347 -0.37569,1.4816 -0.4965,1.7959 -0.12083,0.31429 -0.26007,1.1846 -0.30941,1.934 -0.10282,1.5618 0,1.8519 1.0382,2.9231 0.63733,0.65773 0.72093,0.69376 1.6051,0.69173 0.84472,-0.002 1.0482,-0.0789 2.1572,-0.81627 z m 38.952,2.4314 c -0.72608,-0.17025 -1.0435,-0.39089 -1.2539,-0.87157 -0.0802,-0.18328 -0.23391,-0.45612 -0.3415,-0.60627 -0.24444,-0.34114 0.0582,-1.1147 0.43606,-1.1147 0.13653,0 0.55104,0.29388 0.92115,0.65306 0.51946,0.50412 0.80063,0.65306 1.2328,0.65306 1.4696,0 1.9946,-1.0574 1.673,-3.3696 -0.16062,-1.1548 -0.38686,-2.0182 -0.52883,-2.0182 -0.29253,0 -1.1146,0.63499 -1.5802,1.2206 -0.31429,0.3953 -0.64539,0.7232 -0.73579,0.72866 -0.0904,0.006 -0.5312,0.34135 -0.97959,0.74643 -0.44837,0.40509 -0.97522,0.77907 -1.1708,0.83107 -0.19558,0.052 -0.3912,0.18746 -0.43477,0.30101 -0.0436,0.11357 -0.83868,0.78651 -1.7669,1.4955 l -1.6877,1.289 -2.8761,0.1148 -0.63597,-0.66852 c -1.0322,-1.085 -1.0196,-1.5753 0.10788,-4.2057 0.12129,-0.28297 0.22053,-0.76772 0.22053,-1.0773 0,-0.49864 -0.0744,-0.59632 -0.65306,-0.85725 -0.35919,-0.16198 -0.65307,-0.3568 -0.65307,-0.43297 0,-0.3175 -0.96548,-0.12627 -1.2613,0.24985 -0.168,0.21358 -0.74273,0.59763 -1.2772,0.85347 -0.79455,0.38034 -1.1503,0.45675 -1.9513,0.41915 -0.53878,-0.0253 -1.3102,-0.0604 -1.7143,-0.078 l -0.73469,-0.032 -0.4963,0.98738 c -1.1888,2.3652 -2.402,3.8302 -3.6874,4.4524 -0.91192,0.44145 -1.5102,0.45112 -2.0961,0.0339 -0.91125,-0.64886 -0.95622,-1.2996 -0.25938,-3.7541 0.38759,-1.3653 0.33626,-2.223 -0.16294,-2.7222 -0.32418,-0.32418 -0.51399,-0.3924 -0.85714,-0.30809 -0.54084,0.13286 -1.5773,1.1125 -1.8348,1.7341 -0.10449,0.25228 -0.36622,0.57416 -0.58163,0.7153 -0.21541,0.14114 -0.39166,0.38802 -0.39166,0.5486 0,0.28681 -0.55409,1.0029 -0.78188,1.0105 -0.0638,0.002 -0.33038,0.29357 -0.59231,0.64766 -0.59213,0.80047 -2.2162,1.6478 -3.2239,1.6821 -0.46341,0.0158 -0.99007,-0.11528 -1.5244,-0.37927 -0.88272,-0.43614 -1.205,-0.76971 -1.4883,-1.5404 -0.25437,-0.69197 -0.77994,-0.5915 -1.6685,0.31895 -0.3893,0.39891 -1.0873,0.91398 -1.551,1.1446 -0.46375,0.23065 -1.1003,0.56023 -1.4146,0.73244 -1.1466,0.62825 -2.1998,0.35638 -3.5352,-0.91255 -1.0856,-1.0316 -1.4468,-2.0478 -1.2899,-3.6293 0.14026,-1.4135 0.65931,-3.8677 0.98067,-4.6368 0.13892,-0.33249 0.25259,-0.76736 0.25259,-0.9664 0,-0.42844 0.60187,-1.7256 1.0001,-2.1556 0.15432,-0.16658 0.37097,-0.53392 0.48147,-0.81632 0.21556,-0.55093 1.741,-2.2278 2.0266,-2.2278 0.0949,0 0.42797,-0.20971 0.74028,-0.46602 0.74481,-0.6113 1.522,-1.0034 1.989,-1.0034 0.43804,0 2.4942,0.72154 2.9806,1.046 0.18309,0.1221 0.68187,0.56847 1.1084,0.99192 l 0.77551,0.76992 v 1.5411 c 0,1.506 -0.54266,4.3693 -1.2221,6.4485 -0.1375,0.42077 -0.24725,1.3387 -0.24725,2.0679 v 1.3113 l 0.66219,0.52446 c 0.5982,0.47379 0.73531,0.51443 1.4193,0.42068 0.41642,-0.0571 0.90824,-0.23662 1.0929,-0.39897 0.18466,-0.16235 0.53628,-0.41964 0.78136,-0.57175 0.24506,-0.15212 0.56785,-0.51466 0.7173,-0.80565 0.14944,-0.29099 0.47065,-0.73388 0.71378,-0.9842 0.24314,-0.2503 0.54247,-0.64269 0.66516,-0.87197 0.12271,-0.22927 0.46426,-0.67255 0.75901,-0.98507 0.29474,-0.31253 0.5359,-0.62294 0.5359,-0.68981 0,-0.25434 1.3267,-0.85235 2.0754,-0.93548 0.69038,-0.0767 0.83657,-0.0347 1.2512,0.35912 0.25822,0.24525 0.60835,0.75983 0.77806,1.1435 0.29024,0.65615 0.2944,0.78515 0.07,2.1726 -0.13121,0.81126 -0.32044,1.628 -0.42049,1.815 -0.10006,0.18697 -0.15917,0.57532 -0.13133,0.86301 0.0438,0.45263 0.11892,0.52973 0.55811,0.5725 0.43404,0.0423 0.64096,-0.0895 1.4294,-0.91033 0.84766,-0.88248 2.2263,-3.1989 2.2263,-3.7406 0,-0.11816 0.0721,-0.21481 0.16015,-0.21481 0.0881,0 0.20513,-0.20204 0.26008,-0.44898 0.2235,-1.0043 0.23664,-1.0204 0.83088,-1.0204 0.31683,0 0.77105,0.13571 1.0094,0.30155 1.5454,1.0754 2.816,0.84363 5.0424,-0.91972 0.36437,-0.28857 0.70999,-0.52469 0.76805,-0.52469 0.058,0 0.30863,0.15014 0.55684,0.33365 0.24822,0.18351 0.92484,0.49576 1.5036,0.69388 0.9068,0.31042 1.0592,0.42008 1.1024,0.79313 0.0589,0.50839 -0.25466,1.7257 -0.85562,3.3222 -0.54743,1.4543 -0.47318,2.0399 0.3057,2.4113 0.84599,0.40342 1.5598,0.20016 3.163,-0.90064 0.78011,-0.53566 1.6206,-1.0947 1.8678,-1.2423 0.24717,-0.14761 0.48931,-0.39194 0.53808,-0.54296 0.0488,-0.15102 0.39756,-0.4606 0.77508,-0.68798 0.37754,-0.22736 0.87009,-0.66918 1.0946,-0.9818 0.22451,-0.31262 0.54759,-0.59077 0.71803,-0.61814 0.17041,-0.0274 0.39082,-0.19144 0.48979,-0.36462 0.21112,-0.36945 0.93924,-1.0603 1.1253,-1.0677 0.071,-0.003 0.3358,-0.15801 0.58849,-0.34483 0.28109,-0.20782 0.63955,-0.31873 0.92351,-0.28572 0.45379,0.0528 0.4742,0.0993 0.91903,2.0948 0.53747,2.411 0.53613,2.385 0.19434,3.7936 -0.31576,1.3013 -0.94144,2.0823 -1.9822,2.4744 -0.76875,0.28959 -1.1137,0.30289 -2.0656,0.0797 z"
         id="adverse" />
    </g>
  </g>
</svg>
