<svg xmlns="http://www.w3.org/2000/svg" height="17.441" width="49.402"><path d="M6.166 14.855c.673-.447 1.335-.991 1.47-1.208.789-1.27 1.306-2.246 1.403-2.653.06-.255.175-.546.254-.646.193-.247.86-2.18 1.205-3.49.154-.584.289-1.59.3-2.236.018-1.022-.027-1.218-.346-1.516-.202-.189-.368-.408-.368-.488 0-.08-.394-.37-.877-.647C8.19 1.39 7.34 1.324 6.445 1.76c-.66.321-2.402 1.902-2.402 2.18 0 .097-.171.382-.381.631-.497.59-1.143 2.218-1.49 3.757-.153.673-.376 1.481-.497 1.796-.121.314-.26 1.184-.31 1.934-.102 1.561 0 1.851 1.039 2.923.637.657.72.693 1.605.691.844-.002 1.048-.078 2.157-.816zm38.952 2.432c-.726-.17-1.044-.391-1.254-.872a4.029 4.029 0 00-.342-.606c-.244-.341.059-1.115.436-1.115.137 0 .552.294.922.653.52.504.8.653 1.232.653 1.47 0 1.995-1.057 1.673-3.37-.16-1.154-.386-2.017-.528-2.017-.293 0-1.115.635-1.58 1.22-.315.395-.646.723-.736.729-.09.006-.532.341-.98.746-.448.405-.975.78-1.17.831-.196.052-.392.188-.436.301-.043.114-.838.787-1.766 1.496L38.9 17.225l-2.876.115-.636-.669c-1.032-1.085-1.02-1.575.108-4.206a3.27 3.27 0 00.22-1.077c0-.499-.074-.596-.653-.857-.359-.162-.653-.357-.653-.433 0-.318-.965-.126-1.261.25-.168.213-.743.597-1.277.853-.795.38-1.15.457-1.952.42-.539-.026-1.31-.061-1.714-.079l-.735-.032-.496.988c-1.189 2.365-2.402 3.83-3.687 4.452-.912.442-1.51.451-2.097.034-.91-.649-.956-1.3-.259-3.754.388-1.365.336-2.223-.163-2.722-.324-.324-.514-.393-.857-.308-.54.132-1.577 1.112-1.835 1.734a1.843 1.843 0 01-.581.715c-.216.141-.392.388-.392.549 0 .286-.554 1.003-.782 1.01-.064.002-.33.294-.592.648-.592.8-2.216 1.648-3.224 1.682-.464.016-.99-.115-1.525-.38-.882-.436-1.205-.77-1.488-1.54-.254-.692-.78-.591-1.668.32-.39.398-1.088.913-1.551 1.144-.464.23-1.1.56-1.415.732-1.147.628-2.2.357-3.535-.912-1.086-1.032-1.447-2.048-1.29-3.63.14-1.413.66-3.867.98-4.636.14-.333.253-.768.253-.967 0-.428.602-1.725 1-2.155.155-.167.371-.534.482-.817.215-.55 1.74-2.228 2.026-2.228.095 0 .428-.21.74-.466C6.262.393 7.04 0 7.507 0c.438 0 2.494.722 2.98 1.046.183.122.682.568 1.109.992l.775.77v1.54c0 1.507-.542 4.37-1.222 6.45-.137.42-.247 1.338-.247 2.067v1.312l.662.524c.598.474.735.515 1.42.42.416-.056.908-.236 1.092-.398.185-.163.536-.42.782-.572.245-.152.567-.515.717-.806.15-.29.47-.733.714-.984.243-.25.542-.642.665-.872.123-.229.464-.672.759-.985.295-.312.536-.623.536-.69 0-.254 1.326-.852 2.075-.935.69-.077.837-.035 1.251.359.259.245.609.76.778 1.144.29.656.295.785.07 2.172-.13.811-.32 1.628-.42 1.815-.1.187-.16.575-.131.863.043.453.118.53.558.573.434.042.64-.09 1.43-.91.847-.883 2.225-3.2 2.225-3.741 0-.118.072-.215.16-.215.089 0 .206-.202.26-.45.224-1.003.237-1.02.831-1.02.317 0 .772.136 1.01.302 1.545 1.075 2.816.844 5.042-.92.365-.288.71-.524.768-.524.058 0 .309.15.557.333.248.184.925.496 1.504.694.907.31 1.059.42 1.102.793.06.509-.254 1.726-.855 3.322-.548 1.455-.474 2.04.305 2.412.846.403 1.56.2 3.163-.9.78-.537 1.62-1.096 1.868-1.243.247-.148.49-.392.538-.543.049-.151.398-.46.775-.688.378-.227.87-.67 1.095-.982.224-.313.547-.59.718-.618.17-.027.39-.191.49-.365.21-.37.939-1.06 1.125-1.067.07-.003.336-.158.588-.345.282-.208.64-.319.924-.286.454.053.474.1.919 2.095.537 2.41.536 2.385.194 3.794-.315 1.3-.941 2.082-1.982 2.474-.769.29-1.114.303-2.066.08z" stroke-width=".163"/></svg>