<svg xmlns="http://www.w3.org/2000/svg" height="17.045" width="36.308"><path d="M4.796 15.02a2.89 2.89 0 00.79-.654c.179-.226.403-.411.5-.411.265 0 1.328-.984 1.328-1.23 0-.118.173-.422.385-.676.434-.52 1.085-1.915 1.085-2.324 0-.148.1-.414.223-.591.276-.399.756-2.028.756-2.567 0-.22.106-.612.236-.873.129-.26.285-1.026.345-1.701l.11-1.227-.739-.681C8.568.935 7.503.967 5.64 2.21c-1.16.775-2.316 2.315-2.9 3.865-.211.562-.452 1.15-.535 1.307-.71 1.347-.832 1.978-.832 4.32v2.34l.502.609c.477.579.55.609 1.478.609.542 0 1.183-.108 1.443-.242zm28.957 1.794c-.345-.242-.869-1.496-.869-2.08 0-.169.146-.578.325-.91.72-1.339 1.471-3.024 1.471-3.305 0-.352-1.296-1.462-1.707-1.462-.157 0-.64.318-1.072.707-.828.744-2.308 1.415-3.121 1.415-.266 0-.705-.115-.976-.255-.66-.34-1.315-.246-1.548.224-.103.208-.34.553-.526.767a5.46 5.46 0 00-.599.892c-.143.277-.623.887-1.067 1.356-.443.47-.808.927-.81 1.017-.004.232-1.513.897-2.037.897-.24 0-.597-.085-.793-.19-.909-.484-1.056-1.303-.518-2.887.223-.66.407-1.293.407-1.408 0-.115.113-.304.253-.42.421-.35.246-1.443-.296-1.847l-.451-.335-.855.45c-1.16.611-1.866 1.28-2.18 2.064-.144.36-.326.655-.403.655-.078 0-.382.353-.676.785-.295.433-.959 1.167-1.476 1.633l-.94.847H12.13c-1.27 0-1.406-.086-2.716-1.704-.52-.642-.52-.642-.873-.326-.194.173-.528.59-.741.926-.214.336-.627.712-.918.836-.291.124-.915.487-1.386.806-1.05.713-2.404 1.04-3.21.773-.808-.267-1.826-1.498-2.075-2.512C.098 13.76.003 12.538 0 11.506c-.007-2.349.172-3.032 1.552-5.96.296-.628.671-1.238.833-1.356.162-.117.295-.36.295-.54 0-.576 1.912-2.293 3.347-3.006 2.171-1.078 3.548-.833 5.403.964l.885.857-.106.806c-.059.443-.396 1.945-.75 3.337-.882 3.475-.927 3.706-.935 4.791-.014 1.781.711 2.654 2.093 2.52 1.03-.098 1.822-.729 2.408-1.915.294-.595.942-1.39 1.888-2.314 1.276-1.246 1.555-1.439 2.443-1.688.937-.263 1.04-.263 1.604-.009.487.22.659.428.894 1.08.289.805.28 1.256-.04 2.188-.093.27-.249.802-.346 1.184-.097.381-.267.994-.377 1.362-.18.601-.17.691.106.893.425.31 1.084-.084 1.927-1.153.354-.45.78-.976.944-1.17.427-.503.653-.964.653-1.33 0-.175.106-.406.235-.513.13-.108.354-.551.499-.986.387-1.165.905-1.28 1.943-.435 1.636 1.334 2.144 1.254 4.174-.658 1.25-1.177 1.54-1.376 1.88-1.29.37.092 1.228.856 1.228 1.093 0 .056.312.313.694.572.381.26.747.545.813.635.205.279.137 1.146-.114 1.48-.132.173-.242.467-.245.65-.003.185-.069.405-.146.49-.34.374-1.329 2.382-1.329 2.698 0 .192.184.568.408.834.52.618.538 1.204.041 1.337-.54.145-.667.128-1.05-.14z" stroke-width=".163"/></svg>