<svg xmlns="http://www.w3.org/2000/svg" height="17.045" width="36.308"><path d="M4.792 15.017a2.89 2.89 0 00.791-.653c.178-.227.403-.412.499-.412.265 0 1.329-.983 1.329-1.229 0-.118.173-.423.385-.677.433-.52 1.085-1.914 1.085-2.323 0-.148.1-.414.223-.591.276-.399.756-2.028.756-2.567 0-.22.106-.612.236-.873.13-.26.285-1.026.345-1.7l.11-1.228-.739-.681C8.564.933 7.5.965 5.637 2.209c-1.16.775-2.317 2.316-2.9 3.865-.211.562-.452 1.15-.535 1.307-.71 1.347-.832 1.978-.832 4.32v2.34l.502.61c.477.578.55.608 1.478.608.542 0 1.183-.107 1.443-.242zm28.96 1.795c-.344-.242-.868-1.496-.868-2.08 0-.168.146-.578.325-.91.72-1.338 1.47-3.024 1.47-3.305 0-.352-1.295-1.462-1.706-1.462-.157 0-.64.318-1.072.707-.828.745-2.307 1.415-3.121 1.415-.266 0-.705-.114-.976-.255-.66-.34-1.315-.246-1.548.224-.103.208-.34.553-.526.767a5.464 5.464 0 00-.598.892c-.144.277-.624.887-1.067 1.356-.444.47-.809.927-.81 1.017-.005.233-1.514.897-2.037.897-.24 0-.597-.085-.793-.19-.91-.483-1.056-1.302-.519-2.886.224-.66.407-1.293.407-1.41 0-.115.114-.303.253-.419.422-.35.247-1.444-.296-1.847l-.45-.335-.856.45c-1.159.611-1.866 1.28-2.18 2.064-.144.36-.326.655-.403.655-.078 0-.382.354-.676.786-.295.432-.959 1.167-1.475 1.633l-.94.847h-1.158c-1.269 0-1.407-.086-2.716-1.704-.52-.642-.52-.643-.873-.327-.195.174-.528.591-.742.927-.213.336-.626.712-.917.836-.291.124-.915.487-1.386.806-1.051.713-2.404 1.04-3.21.773-.809-.267-1.826-1.498-2.076-2.512C.098 13.76.003 12.537 0 11.505c-.007-2.348.172-3.032 1.552-5.959.297-.628.672-1.239.834-1.356.162-.117.294-.36.294-.54 0-.576 1.912-2.293 3.347-3.006 2.171-1.079 3.548-.832 5.403.964l.885.857-.107.806c-.058.444-.395 1.945-.748 3.337-.883 3.476-.928 3.706-.936 4.792-.014 1.781.711 2.653 2.094 2.52 1.03-.099 1.822-.73 2.408-1.916.293-.595.941-1.389 1.888-2.313 1.276-1.246 1.555-1.439 2.442-1.688.937-.263 1.04-.263 1.604-.009.486.22.658.428.893 1.08.29.805.281 1.256-.04 2.188-.093.27-.248.802-.345 1.184-.097.382-.267.995-.378 1.362-.18.601-.17.691.106.893.425.31 1.084-.084 1.928-1.153.354-.449.78-.975.944-1.17.427-.503.652-.963.652-1.33 0-.174.107-.405.236-.513.13-.108.354-.551.499-.985.387-1.165.905-1.281 1.943-.435 1.636 1.334 2.144 1.254 4.175-.658 1.25-1.177 1.54-1.376 1.88-1.291.37.092 1.227.856 1.227 1.093 0 .056.312.313.694.572.381.26.747.545.813.635.205.278.137 1.147-.114 1.479-.132.174-.242.467-.245.651-.003.184-.069.405-.147.49-.34.374-1.328 2.381-1.328 2.698 0 .192.184.567.409.834.52.618.537 1.204.04 1.337-.54.145-.667.128-1.05-.14z" stroke-width=".163"/></svg>