<svg xmlns="http://www.w3.org/2000/svg" height="16.948" width="59.292"><path d="M4.964 14.173c.397-.233.817-.538.934-.678.116-.14.381-.32.59-.398.207-.08.424-.274.481-.432.058-.159.406-.62.774-1.023 1.2-1.316 2.447-4.328 2.882-6.967.16-.963.15-1.213-.061-1.617-.316-.604-1.047-1.405-1.614-1.77-.515-.33-1.318-.18-2.03.38-.239.188-.54.341-.67.341-.34 0-2.332 1.956-2.332 2.289 0 .153-.167.527-.37.831-.204.305-.577 1.068-.83 1.696a27.92 27.92 0 01-.595 1.405c-.187.358-.612 2.191-.712 3.074-.126 1.107.185 2.348.741 2.956.45.493.533.52 1.285.432a4.702 4.702 0 001.527-.52zm32.832 2.694c-.808-.073-1.726-.214-2.04-.312-.314-.098-.756-.179-.983-.179-1.036 0-3.59-2.136-3.59-3.002 0-.203.258-.962.572-1.687.314-.725.571-1.422.571-1.548 0-.308-1.011-1.273-1.334-1.273-.142 0-.355.117-.473.259-.867 1.045-2.817 1.792-4.253 1.63-.867-.099-.948-.078-1.267.328a3.32 3.32 0 00-.492.978c-.12.435-1.03 1.756-1.773 2.572-.305.336-2.429 1.58-2.696 1.58-.523 0-1.248-.478-1.519-1.002-.25-.484-.24-.576.252-2.087.364-1.12.5-1.817.464-2.389l-.051-.807-.871.023c-.707.019-.959.107-1.334.467-.255.244-.507.619-.56.834-.055.214-.199.39-.321.39-.123 0-.433.316-.691.702-.746 1.12-2.539 2.678-3.324 2.89-1.338.36-2.348-.16-3.034-1.56-.412-.844-.458-.884-.73-.638-.16.144-.33.426-.38.625-.055.216-.341.474-.71.638-.339.152-.874.44-1.188.64-.806.512-1.781.961-2.45 1.128-.73.182-2.013-.123-2.433-.579C.805 15.105 0 12.67 0 11.987c0-.798 1.112-4.905 1.46-5.394.185-.259.336-.51.336-.557 0-.255 1.058-2.332 1.243-2.441.12-.07.445-.456.72-.857.276-.4.602-.729.724-.729.123 0 .41-.223.64-.496C5.705.822 7.49.015 8.47 0c.898-.013 2.059.57 2.617 1.315.186.247.411.538.502.647.09.108.165.294.165.412 0 .119.147.342.327.495.185.159.326.482.326.746 0 .256-.147.893-.326 1.415-.18.522-.327 1.1-.327 1.286 0 .186-.174.818-.386 1.403-.687 1.894-.889 2.676-1.004 3.885-.107 1.125-.09 1.217.331 1.77.4.524.5.572 1.002.478.306-.057.793-.267 1.082-.466.731-.503 2.307-2.208 2.632-2.846.148-.292.324-.53.39-.53s.413-.263.771-.584c.827-.74 1.525-1.05 2.372-1.05.76 0 .957.151 1.444 1.106.46.9.436 1.76-.08 2.886-.233.51-.463 1.217-.51 1.57-.083.61-.065.643.353.643.243 0 .601-.082.797-.183.574-.292 1.908-1.658 1.908-1.953 0-.148.147-.456.327-.684.18-.229.326-.465.326-.525s.26-.65.579-1.313c.738-1.534 1.205-1.707 2.124-.788.287.287.566.384 1.102.384.756 0 .87-.063 2.737-1.51.55-.426 1.136-.775 1.302-.775.166 0 .8.475 1.407 1.056 1.02.976 1.103 1.107 1.079 1.7-.015.362-.244 1.053-.525 1.579-.639 1.197-.628 1.562.071 2.335.605.67 1.594 1.084 3.675 1.54 2.347.515 7.037.038 9.21-.936.277-.124.798-.316 1.157-.427.36-.11.69-.245.735-.3.24-.29.96-.545 1.775-.626.506-.05 1.103-.217 1.327-.371.225-.155.812-.383 1.306-.508a6.223 6.223 0 001.67-.757c.424-.292.831-.53.904-.53.073 0 .387-.218.698-.484.31-.265.669-.486.796-.49.126-.003.552-.194.945-.425.784-.46 1.307-.47 1.582-.03.367.586.195.7-4.227 2.805-.898.428-1.743.842-1.878.92-.64.375-1.306.62-2.204.815-.539.117-1.125.31-1.302.428-.177.119-.463.216-.636.216-.356 0-2.264.659-2.389.825-.044.06-.375.207-.734.328-.36.12-.723.278-.808.35-.086.07-.416.13-.735.132-.319.002-1.094.113-1.722.246-1.54.328-2.972.401-4.735.242z"/></svg>