<?xml version="1.0" encoding="UTF-8" standalone="no"?>
<svg
   xmlns:dc="http://purl.org/dc/elements/1.1/"
   xmlns:cc="http://creativecommons.org/ns#"
   xmlns:rdf="http://www.w3.org/1999/02/22-rdf-syntax-ns#"
   xmlns:svg="http://www.w3.org/2000/svg"
   xmlns="http://www.w3.org/2000/svg"
   id="svg2663"
   viewBox="0 0 36.307853 17.044584"
   version="1.1"
   height="17.044584"
   width="36.307854">
  <defs
     id="defs2667" />
  <metadata
     id="metadata2">
    <rdf:RDF>
      <cc:Work
         rdf:about="">
        <dc:format>image/svg+xml</dc:format>
        <dc:type
           rdf:resource="http://purl.org/dc/dcmitype/StillImage" />
        <dc:title />
      </cc:Work>
    </rdf:RDF>
  </metadata>
  <g
     transform="translate(-426.21423,-797.96094)"
     id="g2661">
    <g
       style="stroke-width:0.16327"
       id="g2557">
      <path
         d="m 431.01,812.98 c 0.25699,-0.13289 0.61289,-0.42677 0.79089,-0.65306 0.17799,-0.22628 0.40233,-0.41143 0.49853,-0.41143 0.26543,0 1.3291,-0.98346 1.3291,-1.2289 0,-0.1185 0.17319,-0.42313 0.38488,-0.67696 0.43369,-0.52002 1.0845,-1.9144 1.0845,-2.3235 0,-0.14819 0.10043,-0.41437 0.22318,-0.59149 0.2762,-0.39853 0.75641,-2.0282 0.75641,-2.567 0,-0.21931 0.1059,-0.6121 0.23533,-0.87283 0.12944,-0.26074 0.28495,-1.0262 0.34557,-1.701 l 0.11025,-1.227 -0.73908,-0.68127 c -1.2477,-1.1501 -2.3121,-1.118 -4.1751,0.12607 -1.161,0.77531 -2.3166,2.3155 -2.8998,3.865 -0.21148,0.56184 -0.45231,1.1501 -0.53521,1.3073 -0.71027,1.3469 -0.83174,1.9778 -0.83174,4.3197 v 2.3407 l 0.50168,0.60864 c 0.47711,0.5788 0.54948,0.60862 1.4775,0.60862 0.5422,0 1.1834,-0.10737 1.4431,-0.24164 z m 28.957,1.7946 c -0.34486,-0.24156 -0.86867,-1.496 -0.86867,-2.0803 0,-0.16826 0.14629,-0.57762 0.32508,-0.9097 0.72049,-1.3382 1.4708,-3.0241 1.4708,-3.3046 0,-0.35228 -1.2959,-1.4624 -1.7071,-1.4624 -0.15714,0 -0.63959,0.31816 -1.0721,0.70701 -0.82823,0.74464 -2.3073,1.4154 -3.121,1.4154 -0.26586,0 -0.70503,-0.11461 -0.97592,-0.25469 -0.65988,-0.34124 -1.3151,-0.24653 -1.5483,0.2238 -0.10289,0.2075 -0.33942,0.55251 -0.52564,0.76668 -0.18623,0.21417 -0.45566,0.61581 -0.59875,0.89252 -0.1431,0.27672 -0.62315,0.88681 -1.0668,1.3558 -0.44366,0.46896 -0.80806,0.92654 -0.80983,1.0169 -0.005,0.23236 -1.5139,0.89699 -2.0371,0.89699 -0.24011,0 -0.59704,-0.0855 -0.79318,-0.18992 -0.90884,-0.48405 -1.056,-1.303 -0.51859,-2.8869 0.22379,-0.65963 0.40687,-1.2935 0.40687,-1.4086 0,-0.11511 0.11385,-0.30376 0.25298,-0.41924 0.42191,-0.35015 0.24679,-1.4435 -0.29583,-1.8471 l -0.45103,-0.33544 -0.8551,0.45051 c -1.1593,0.61079 -1.866,1.2799 -2.1796,2.0635 -0.1441,0.36014 -0.32554,0.65481 -0.4032,0.65481 -0.0777,0 -0.38193,0.3536 -0.67615,0.78579 -0.29422,0.43218 -0.95819,1.1669 -1.4755,1.6326 l -0.94051,0.84686 h -1.1574 c -1.2693,0 -1.4066,-0.0861 -2.7159,-1.7038 -0.51993,-0.64243 -0.52021,-0.64253 -0.87342,-0.32653 -0.19433,0.17384 -0.52787,0.59079 -0.74121,0.92653 -0.21334,0.33574 -0.62627,0.71184 -0.9176,0.83575 -0.29134,0.12394 -0.9149,0.4868 -1.3857,0.80634 -1.0505,0.71303 -2.4041,1.039 -3.21,0.77306 -0.80877,-0.26692 -1.8262,-1.4985 -2.0755,-2.5124 -0.11357,-0.46183 -0.20882,-1.6846 -0.21168,-2.7172 -0.007,-2.3483 0.17156,-3.032 1.5517,-5.9592 0.29638,-0.62857 0.67141,-1.2389 0.83342,-1.3562 0.16199,-0.11733 0.29455,-0.36019 0.29455,-0.53969 0,-0.57618 1.9117,-2.2933 3.3469,-3.0063 2.1712,-1.0786 3.5481,-0.83293 5.4034,0.964 l 0.88445,0.85667 -0.10609,0.80606 c -0.0584,0.44333 -0.39534,1.9448 -0.74888,3.3367 -0.88287,3.4757 -0.92787,3.7061 -0.93595,4.7917 -0.0132,1.7807 0.71161,2.6533 2.0938,2.5205 1.0295,-0.0989 1.8219,-0.7295 2.4078,-1.9163 0.29378,-0.59503 0.94188,-1.389 1.888,-2.3132 1.2762,-1.2464 1.5551,-1.4393 2.4423,-1.6882 0.93717,-0.26295 1.0403,-0.26354 1.6044,-0.009 0.48661,0.21943 0.65891,0.42772 0.89352,1.0802 0.28944,0.80489 0.28122,1.2558 -0.0399,2.1876 -0.0928,0.26939 -0.24817,0.80204 -0.34521,1.1837 -0.097,0.38163 -0.26692,0.99466 -0.37752,1.3623 -0.18078,0.60093 -0.17011,0.69107 0.10588,0.89286 0.42485,0.31066 1.0842,-0.0838 1.9276,-1.1531 0.35411,-0.44898 0.77869,-0.97534 0.94353,-1.1697 0.42677,-0.5033 0.65262,-0.96361 0.65262,-1.3302 0,-0.1745 0.10617,-0.40539 0.23595,-0.5131 0.12978,-0.1077 0.35396,-0.5511 0.49818,-0.98534 0.38699,-1.1651 0.90511,-1.2812 1.9429,-0.43523 1.6363,1.3338 2.144,1.2538 4.1749,-0.65802 1.2501,-1.1768 1.5405,-1.3762 1.8799,-1.2911 0.36968,0.0928 1.2274,0.85692 1.2274,1.0935 0,0.056 0.31224,0.31373 0.69388,0.57263 0.38163,0.25889 0.74785,0.5444 0.81383,0.63445 0.20434,0.27893 0.13704,1.1465 -0.11476,1.4795 -0.13184,0.17431 -0.24204,0.46753 -0.2449,0.65161 -0.003,0.18408 -0.0687,0.40449 -0.14629,0.4898 -0.34005,0.37383 -1.3283,2.381 -1.3283,2.6978 0,0.19193 0.18367,0.56725 0.40816,0.83404 0.51971,0.61763 0.5376,1.2036 0.0408,1.3367 -0.54044,0.14483 -0.66712,0.12794 -1.0497,-0.14003 z"
         id="advertise_abv" />
    </g>
  </g>
</svg>
