<svg xmlns="http://www.w3.org/2000/svg" height="16.95" width="59.293"><path d="M4.967 14.175c.397-.233.818-.538.934-.678.116-.14.381-.32.59-.399.207-.079.424-.273.482-.432.057-.158.405-.618.774-1.023 1.2-1.316 2.446-4.328 2.882-6.966.159-.962.15-1.213-.062-1.617-.316-.604-1.047-1.406-1.613-1.77-.515-.33-1.318-.18-2.031.38-.238.188-.54.341-.67.341-.339 0-2.33 1.956-2.33 2.29 0 .152-.168.526-.371.83-.204.305-.577 1.068-.83 1.696-.252.629-.52 1.261-.595 1.404-.187.359-.611 2.192-.712 3.075-.126 1.107.186 2.348.741 2.956.45.493.533.52 1.285.432.442-.053 1.13-.286 1.527-.52zm32.83 2.694c-.808-.073-1.726-.214-2.04-.312-.314-.098-.756-.178-.983-.178-1.036 0-3.59-2.136-3.59-3.003 0-.203.258-.962.572-1.687.314-.726.572-1.422.572-1.548 0-.309-1.011-1.273-1.335-1.273-.142 0-.355.116-.473.258-.867 1.045-2.817 1.792-4.253 1.63-.868-.098-.949-.077-1.268.329a3.32 3.32 0 00-.491.978c-.12.435-1.031 1.756-1.773 2.572-.306.335-2.43 1.58-2.697 1.58-.523 0-1.248-.479-1.52-1.002-.25-.485-.239-.577.253-2.088.364-1.12.5-1.817.463-2.39l-.05-.807-.872.024c-.706.019-.958.107-1.334.466-.254.244-.506.62-.56.834-.054.215-.198.39-.32.39-.123 0-.434.317-.691.703-.747 1.119-2.54 2.678-3.324 2.889-1.34.36-2.348-.159-3.034-1.56-.413-.844-.459-.883-.73-.637-.16.144-.331.425-.381.625-.055.215-.341.474-.709.638-.34.152-.875.44-1.189.64-.806.512-1.781.961-2.449 1.127-.73.183-2.014-.123-2.433-.578C.805 15.105 0 12.67 0 11.987c0-.798 1.112-4.904 1.461-5.394.184-.26.335-.51.335-.557 0-.256 1.058-2.332 1.243-2.441.12-.071.445-.457.72-.857.276-.401.602-.729.724-.729.123 0 .41-.223.64-.496C5.705.822 7.49.015 8.472 0c.897-.013 2.058.57 2.617 1.315.185.247.41.538.502.647.09.108.165.294.165.412 0 .119.146.342.326.495.185.159.327.482.327.746 0 .256-.147.893-.327 1.415-.18.522-.326 1.1-.326 1.287 0 .186-.174.817-.387 1.403-.686 1.893-.888 2.675-1.004 3.885-.107 1.125-.09 1.217.332 1.77.4.524.5.572 1.002.478.306-.058.793-.267 1.083-.466.73-.503 2.306-2.207 2.63-2.846.15-.292.325-.531.39-.531.067 0 .414-.262.772-.583.827-.74 1.525-1.05 2.372-1.05.76 0 .957.15 1.444 1.106.46.9.436 1.76-.08 2.886-.234.51-.464 1.218-.511 1.57-.082.61-.064.643.354.643.242 0 .601-.082.797-.182.574-.293 1.908-1.66 1.908-1.953 0-.149.147-.457.327-.685.18-.229.326-.465.326-.525s.26-.65.579-1.312c.738-1.534 1.205-1.708 2.124-.788.287.287.566.384 1.102.384.755 0 .87-.063 2.737-1.51.55-.427 1.136-.776 1.302-.776.166 0 .799.476 1.406 1.057 1.02.976 1.103 1.106 1.079 1.7-.015.362-.244 1.052-.525 1.578-.639 1.197-.628 1.562.071 2.336.604.67 1.594 1.083 3.675 1.54 2.347.515 7.037.038 9.21-.935a12.29 12.29 0 011.158-.428c.36-.11.69-.245.735-.3.24-.29.96-.544 1.775-.625.505-.05 1.102-.218 1.327-.372.225-.154.812-.383 1.306-.507a6.236 6.236 0 001.67-.757c.424-.292.831-.531.904-.531.073 0 .387-.217.698-.483.311-.266.67-.486.796-.49.127-.004.552-.195.945-.425.784-.46 1.307-.47 1.582-.03.367.585.195.7-4.227 2.804a58.46 58.46 0 00-1.878.92c-.64.375-1.306.621-2.204.815-.539.117-1.125.31-1.302.428-.177.119-.464.216-.636.216-.356 0-2.264.659-2.39.825-.044.06-.375.207-.734.328-.36.121-.723.278-.808.35-.086.071-.416.13-.735.133-.319.002-1.094.112-1.722.246-1.539.328-2.971.4-4.735.24z" stroke-width=".163"/></svg>