<?xml version="1.0" encoding="UTF-8" standalone="no"?>
<svg
   xmlns:dc="http://purl.org/dc/elements/1.1/"
   xmlns:cc="http://creativecommons.org/ns#"
   xmlns:rdf="http://www.w3.org/1999/02/22-rdf-syntax-ns#"
   xmlns:svg="http://www.w3.org/2000/svg"
   xmlns="http://www.w3.org/2000/svg"
   id="svg2663"
   viewBox="0 0 59.863501 17.777821"
   version="1.1"
   height="17.777821"
   width="59.863503">
  <defs
     id="defs2667" />
  <metadata
     id="metadata2">
    <rdf:RDF>
      <cc:Work
         rdf:about="">
        <dc:format>image/svg+xml</dc:format>
        <dc:type
           rdf:resource="http://purl.org/dc/dcmitype/StillImage" />
        <dc:title />
      </cc:Work>
    </rdf:RDF>
  </metadata>
  <g
     transform="translate(-425.02769,-822.36666)"
     id="g2661">
    <g
       style="stroke-width:0.16327"
       id="g2557">
      <path
         d="m 431.35,837.3 c 0.40408,-0.20369 0.88532,-0.54294 1.0694,-0.75386 0.51425,-0.58919 1.2163,-1.6849 1.2163,-1.8984 0,-0.10514 0.33062,-0.80769 0.7347,-1.5612 0.40408,-0.75353 0.73469,-1.5314 0.73469,-1.7286 0,-0.35311 0.3849,-1.7411 0.65971,-2.379 0.17523,-0.40679 0.48491,-2.4897 0.47799,-3.215 -0.003,-0.32427 -0.15407,-0.70909 -0.37776,-0.96289 -0.47516,-0.53907 -2.0565,-1.2915 -2.7143,-1.2915 -0.90581,0 -2.1176,0.70007 -2.9673,1.7143 -0.30095,0.35918 -0.61858,0.70413 -0.70587,0.76654 -0.14832,0.10609 -0.56672,0.8705 -1.2912,2.3589 -0.16856,0.3463 -0.41003,0.82919 -0.53659,1.0731 -0.54266,1.0457 -0.92856,2.8288 -0.92869,4.2912 0,1.9359 0.37076,2.7824 1.5758,3.5959 0.76132,0.51398 0.92487,0.56221 1.5837,0.46701 0.40408,-0.0584 1.0653,-0.27282 1.4694,-0.47653 z m 51.374,2.7538 c -0.22739,-0.22738 -0.0918,-1.4859 0.27845,-2.585 0.61711,-1.8317 0.66657,-2.5417 0.26698,-3.8328 -0.19122,-0.61783 -0.44783,-1.2064 -0.57023,-1.308 -0.27162,-0.22543 -1.3107,-0.0582 -1.6314,0.26256 -0.12388,0.12387 -0.27802,0.22522 -0.34256,0.22522 -0.20598,0 -2.0284,1.9206 -2.0284,2.1376 0,0.11477 -0.14077,0.36034 -0.31282,0.54571 -0.17205,0.18539 -0.39012,0.76034 -0.48459,1.2777 -0.18653,1.0214 -1.0438,2.5101 -1.5353,2.6661 -0.67727,0.21496 -0.96707,-0.54679 -0.52975,-1.3924 0.50962,-0.98549 1.2739,-3.5528 1.2712,-4.2699 -0.004,-1.0252 -0.13993,-1.3727 -0.62364,-1.5931 -1.125,-0.51259 -2.6388,0.11755 -3.3996,1.4151 -0.50077,0.85401 -1.1509,1.7579 -1.348,1.8743 -0.12163,0.0718 -0.22115,0.2201 -0.22115,0.32952 0,0.10943 -0.28832,0.54787 -0.64071,0.97432 -0.35238,0.42643 -0.68717,0.98685 -0.74394,1.2454 -0.14695,0.66904 -0.62687,1.0569 -1.1464,0.92654 -0.62179,-0.15605 -0.66605,-0.50831 -0.19343,-1.5392 0.70294,-1.5333 0.96824,-2.736 0.84251,-3.8192 -0.1647,-1.419 -0.77812,-1.8895 -1.7836,-1.3678 -0.42038,0.21809 -2.69,2.5191 -2.698,2.7352 -0.007,0.18005 -1.9457,2.099 -2.121,2.099 -0.0913,0 -0.36529,0.22361 -0.6088,0.49688 -0.95322,1.0698 -2.9044,1.4633 -4.0129,0.80923 -0.72924,-0.43026 -1.5165,-1.4265 -1.6663,-2.1088 -0.12183,-0.55471 -0.0224,-0.85442 1.0032,-3.0253 0.5074,-1.074 0.48472,-1.2791 -0.19915,-1.8007 -0.70238,-0.53574 -1.0505,-0.47861 -1.9388,0.31819 -0.35305,0.31666 -0.74134,0.57577 -0.86288,0.57577 -0.12155,0 -0.3837,0.10196 -0.58259,0.22658 -0.55687,0.34891 -1.4749,0.45278 -2.3228,0.26276 -0.82857,-0.18569 -1.2159,-0.0378 -1.2297,0.46942 -0.004,0.14615 -0.35788,0.85348 -0.78644,1.5718 -0.64387,1.0793 -0.98592,1.455 -1.9699,2.1633 -1.2478,0.89826 -1.917,1.0662 -2.6757,0.67174 -0.89868,-0.46723 -1.4027,-1.4418 -1.0354,-2.0023 0.12531,-0.19123 0.30706,-0.67723 0.4039,-1.08 0.0969,-0.40278 0.26977,-1.0489 0.38425,-1.4358 0.29061,-0.98213 -0.0259,-1.5608 -0.89311,-1.6331 -0.52771,-0.044 -0.69267,0.0352 -1.2194,0.58519 -0.33501,0.34983 -0.93971,1.2348 -1.3438,1.9666 -0.40408,0.73182 -0.82196,1.3317 -0.92864,1.3332 -0.10666,0.002 -0.42594,0.32571 -0.70953,0.72059 -0.73876,1.0287 -2.2322,1.7929 -3.3029,1.69 -0.86617,-0.0832 -1.6856,-0.69569 -1.8599,-1.3901 -0.13533,-0.53925 -0.37765,-0.38962 -1.081,0.66752 -0.3392,0.50978 -0.71107,0.92689 -0.82635,0.92689 -0.1153,0 -0.35205,0.13248 -0.52613,0.29437 -0.17407,0.16191 -0.90651,0.42173 -1.6276,0.57739 -1.7505,0.37784 -2.833,0.17386 -3.6684,-0.69125 -0.82285,-0.85205 -1.306,-1.5202 -1.3071,-1.8078 0,-0.13765 -0.11144,-0.46202 -0.24642,-0.72085 -0.40021,-0.76739 -0.46963,-1.6511 -0.19676,-2.5048 0.13707,-0.42888 0.29889,-1.1104 0.35956,-1.5145 0.12749,-0.84902 0.58829,-2.1765 1.0954,-3.1557 0.19398,-0.37458 0.46211,-0.90146 0.59583,-1.1708 0.13369,-0.26939 0.56161,-0.91307 0.9509,-1.4304 0.38927,-0.51733 0.70779,-1.0097 0.70779,-1.0942 0,-0.0845 0.31647,-0.37135 0.70326,-0.63747 0.38681,-0.26612 0.80631,-0.60802 0.93225,-0.75976 0.40836,-0.49203 1.9358,-1.0578 2.8558,-1.0578 1.0813,0 2.4841,0.42864 3.0278,0.9252 0.22941,0.20951 0.50492,0.38093 0.61225,0.38093 0.10733,0 0.34209,0.14693 0.52168,0.32653 0.41115,0.41115 0.44397,2.0529 0.0702,3.5102 -0.49089,1.9138 -0.56977,2.3006 -0.73233,3.5918 -0.0905,0.71836 -0.28229,1.7618 -0.42632,2.3187 -0.28057,1.0849 -0.23104,2.3329 0.10882,2.7424 0.11316,0.13634 0.46597,0.24407 0.79557,0.24292 0.50955,-0.002 0.69626,-0.12148 1.3369,-0.85714 0.40959,-0.4703 1.1005,-1.3694 1.5353,-1.9979 0.43486,-0.62857 0.83615,-1.1796 0.89176,-1.2245 0.0556,-0.0449 0.22684,-0.27937 0.38054,-0.52105 0.15368,-0.24168 0.62754,-0.67892 1.053,-0.97164 0.90648,-0.62369 2.0412,-0.72741 2.9885,-0.27317 1.032,0.49482 1.2048,2.0576 0.45695,4.1332 -0.32797,0.91032 -0.35626,1.7013 -0.0649,1.8131 0.67991,0.2609 2.2797,-1.0376 2.985,-2.4228 0.38204,-0.75035 0.78676,-1.9126 1.0527,-3.0231 0.12847,-0.53649 0.25889,-0.71737 0.57433,-0.79654 0.32985,-0.0828 0.53982,0.0268 1.0949,0.57166 0.55802,0.54765 0.8015,0.67407 1.2982,0.67407 0.89104,0 2.3282,-0.77541 2.6436,-1.4264 0.46909,-0.96805 1.3818,-1.1404 2.0952,-0.39578 0.24426,0.25495 0.76007,0.62135 1.1462,0.8142 1.1962,0.59739 1.2244,0.91154 0.27071,3.0057 -0.4512,0.99071 -0.82038,1.9584 -0.82038,2.1503 0,0.1919 0.23289,0.63153 0.51752,0.97685 0.50944,0.61803 0.53104,0.62626 1.3816,0.52629 0.47524,-0.0559 1.0665,-0.19308 1.3138,-0.30493 0.65997,-0.29847 1.9867,-1.571 2.2781,-2.1851 0.13902,-0.29294 0.50326,-0.7237 0.80943,-0.95724 0.30617,-0.23353 0.55669,-0.51861 0.55669,-0.63352 0,-0.11489 0.33038,-0.44617 0.73419,-0.73616 0.40378,-0.28997 0.8078,-0.6648 0.89778,-0.83295 0.09,-0.16813 0.32899,-0.35244 0.53111,-0.40958 0.20214,-0.0571 0.59455,-0.21944 0.87204,-0.36067 0.33887,-0.17246 0.6933,-0.22132 1.0796,-0.14885 0.57128,0.10717 1.027,0.64529 1.9453,2.2972 l 0.26761,0.48139 0.5017,-0.50168 c 0.27592,-0.27593 0.61714,-0.54599 0.75825,-0.60015 0.14111,-0.0542 0.30644,-0.22868 0.36738,-0.38787 0.14915,-0.38956 0.71587,-0.84873 1.0558,-0.85541 0.15184,-0.003 0.32149,-0.0789 0.37698,-0.1687 0.14141,-0.22878 2.262,-0.20426 2.7809,0.0322 0.23592,0.10748 0.57088,0.47365 0.74436,0.81371 0.3954,0.77504 0.91684,0.93148 1.7909,0.53731 0.35363,-0.15946 0.64296,-0.33871 0.64296,-0.39834 0,-0.24509 1.3896,-0.86564 1.9727,-0.88093 0.83879,-0.022 1.5713,0.6907 2.0896,2.033 0.33645,0.87142 0.37781,1.1996 0.3072,2.438 -0.054,0.94752 -0.17158,1.5595 -0.34799,1.8113 -0.14651,0.20918 -0.26645,0.52929 -0.26651,0.71135 0,1.1174 -1.0541,2.5693 -1.5237,2.0997 z"
         id="advertisement_abv" />
    </g>
  </g>
</svg>
