<?xml version="1.0" encoding="UTF-8" standalone="no"?>
<svg
   xmlns:dc="http://purl.org/dc/elements/1.1/"
   xmlns:cc="http://creativecommons.org/ns#"
   xmlns:rdf="http://www.w3.org/1999/02/22-rdf-syntax-ns#"
   xmlns:svg="http://www.w3.org/2000/svg"
   xmlns="http://www.w3.org/2000/svg"
   id="svg2663"
   viewBox="0 0 59.292029 16.947891"
   version="1.1"
   height="16.947891"
   width="59.29203">
  <defs
     id="defs2667" />
  <metadata
     id="metadata2">
    <rdf:RDF>
      <cc:Work
         rdf:about="">
        <dc:format>image/svg+xml</dc:format>
        <dc:type
           rdf:resource="http://purl.org/dc/dcmitype/StillImage" />
        <dc:title />
      </cc:Work>
    </rdf:RDF>
  </metadata>
  <g
     transform="translate(-424.97621,-847.62707)"
     id="g2661">
    <g
       style="stroke-width:0.16327"
       id="g2557">
      <path
         d="m 429.94,861.8 c 0.39742,-0.2329 0.81763,-0.53799 0.9338,-0.67797 0.11618,-0.13999 0.38143,-0.31922 0.58947,-0.39832 0.20803,-0.0791 0.42504,-0.27347 0.48225,-0.43197 0.0572,-0.15848 0.40558,-0.61878 0.77417,-1.0229 1.2002,-1.3158 2.4463,-4.3278 2.882,-6.9665 0.15903,-0.96293 0.14948,-1.2128 -0.0618,-1.6168 -0.31596,-0.60421 -1.0467,-1.4059 -1.6132,-1.77 -0.51501,-0.33096 -1.3184,-0.18057 -2.0314,0.38026 -0.23802,0.18721 -0.53941,0.34039 -0.66976,0.34039 -0.33868,0 -2.3312,1.9563 -2.3312,2.2888 0,0.15281 -0.16669,0.52689 -0.37045,0.83126 -0.20374,0.30436 -0.57693,1.0677 -0.82931,1.6962 -0.25237,0.62857 -0.52034,1.2606 -0.59547,1.4045 -0.18699,0.35809 -0.61145,2.1916 -0.71176,3.0746 -0.12573,1.1067 0.18536,2.3476 0.74103,2.956 0.44952,0.49216 0.53288,0.52013 1.2849,0.43107 0.44228,-0.0524 1.1293,-0.2858 1.5267,-0.5187 z m 32.832,2.6938 c -0.80816,-0.0731 -1.726,-0.21339 -2.0397,-0.31162 -0.3137,-0.0983 -0.75618,-0.17863 -0.98331,-0.17863 -1.0361,0 -3.5892,-2.136 -3.5892,-3.0028 0,-0.20255 0.25714,-0.96165 0.57142,-1.6869 0.31429,-0.72524 0.57143,-1.4217 0.57143,-1.5477 0,-0.30831 -1.0114,-1.2728 -1.3347,-1.2728 -0.14186,0 -0.35455,0.11641 -0.47262,0.25868 -0.86738,1.0451 -2.8168,1.7921 -4.2527,1.6297 -0.86761,-0.0982 -0.94864,-0.0772 -1.2677,0.32841 -0.18744,0.23829 -0.4085,0.6784 -0.49123,0.97802 -0.12018,0.43524 -1.031,1.7564 -1.7732,2.572 -0.30545,0.33564 -2.4293,1.5801 -2.6967,1.5801 -0.52273,0 -1.2479,-0.47843 -1.5186,-1.0019 -0.25042,-0.48426 -0.23929,-0.57636 0.25239,-2.0876 0.36401,-1.1189 0.49944,-1.8171 0.46329,-2.3886 l -0.0511,-0.80757 -0.87094,0.0235 c -0.70644,0.019 -0.95837,0.10725 -1.3337,0.46687 -0.25453,0.24386 -0.50688,0.61899 -0.56074,0.83365 -0.0539,0.21465 -0.19807,0.39027 -0.32042,0.39027 -0.12235,0 -0.43321,0.31615 -0.69078,0.70253 -0.74606,1.1192 -2.539,2.6775 -3.3238,2.8889 -1.3386,0.36044 -2.3482,-0.15873 -3.0338,-1.56 -0.41279,-0.84373 -0.45809,-0.88327 -0.73009,-0.63711 -0.1595,0.14434 -0.33091,0.42548 -0.38093,0.62478 -0.0542,0.21577 -0.34079,0.47404 -0.70856,0.63842 -0.33969,0.15182 -0.87476,0.43954 -1.189,0.63938 -0.80619,0.51257 -1.7808,0.96166 -2.449,1.1285 -0.72993,0.18222 -2.0141,-0.12322 -2.4334,-0.57883 -0.3531,-0.38359 -1.1584,-2.818 -1.1584,-3.5018 0,-0.79708 1.1123,-4.9044 1.4606,-5.3936 0.18444,-0.259 0.33533,-0.50955 0.33533,-0.55677 0,-0.25539 1.0577,-2.3322 1.2432,-2.4412 0.12035,-0.0707 0.44439,-0.45639 0.72012,-0.85714 0.27572,-0.40075 0.60147,-0.72864 0.72385,-0.72864 0.1224,0 0.41029,-0.22312 0.63974,-0.4958 0.58183,-0.69145 2.3675,-1.4984 3.3486,-1.5132 0.89713,-0.0136 2.0584,0.56998 2.6169,1.315 0.18517,0.247 0.41095,0.53783 0.50173,0.64628 0.0908,0.10846 0.16504,0.29417 0.16504,0.41271 0,0.11851 0.14694,0.3413 0.32653,0.49508 0.18492,0.15832 0.32654,0.48162 0.32654,0.74542 0,0.2562 -0.14694,0.89292 -0.32654,1.4149 -0.17959,0.52199 -0.32653,1.1011 -0.32653,1.2868 0,0.18577 -0.17381,0.81711 -0.38627,1.403 -0.68646,1.8932 -0.88853,2.6753 -1.0038,3.8848 -0.10723,1.1252 -0.09,1.2172 0.33135,1.7696 0.39969,0.52403 0.50055,0.57218 1.0015,0.4782 0.3064,-0.0575 0.79359,-0.26731 1.0826,-0.46628 0.73076,-0.50304 2.3064,-2.2073 2.6314,-2.846 0.14845,-0.29183 0.32393,-0.53061 0.38996,-0.53061 0.066,0 0.41311,-0.26242 0.77131,-0.58315 0.82722,-0.74067 1.5252,-1.0495 2.372,-1.0495 0.75978,0 0.95697,0.151 1.444,1.1058 0.4594,0.90047 0.43566,1.7598 -0.0797,2.8855 -0.23384,0.51078 -0.46393,1.2176 -0.5113,1.5708 -0.0818,0.60981 -0.064,0.64204 0.35429,0.64204 0.2422,0 0.60086,-0.082 0.79699,-0.18214 0.57356,-0.29293 1.9076,-1.6587 1.9076,-1.953 0,-0.14843 0.14694,-0.45664 0.32654,-0.68497 0.17959,-0.22831 0.32653,-0.46436 0.32653,-0.52457 0,-0.0602 0.26037,-0.65081 0.57862,-1.3125 0.73787,-1.5341 1.2052,-1.7076 2.1241,-0.78857 0.28718,0.28719 0.56607,0.38444 1.1024,0.38444 0.75538,0 0.86993,-0.0632 2.7368,-1.5102 0.55031,-0.42653 1.1364,-0.77551 1.3024,-0.77551 0.16597,0 0.79889,0.47557 1.4064,1.0568 1.0199,0.97575 1.1027,1.1062 1.079,1.7001 -0.0144,0.36195 -0.24388,1.0523 -0.52467,1.5784 -0.63887,1.1972 -0.62777,1.562 0.0711,2.3356 0.60425,0.66881 1.594,1.0835 3.6748,1.5396 2.3472,0.51453 7.0366,0.038 9.2098,-0.9359 0.27749,-0.12434 0.7984,-0.31654 1.1576,-0.4271 0.35919,-0.11055 0.6898,-0.24545 0.7347,-0.29979 0.24063,-0.29122 0.96046,-0.54501 1.7751,-0.62584 0.50535,-0.0501 1.1025,-0.21751 1.327,-0.37191 0.2245,-0.1544 0.81218,-0.38264 1.306,-0.50721 0.4938,-0.12457 1.2451,-0.46526 1.6695,-0.7571 0.42444,-0.29183 0.83136,-0.53061 0.90428,-0.53061 0.0729,0 0.38692,-0.21742 0.69781,-0.48317 0.31089,-0.26573 0.66901,-0.48613 0.7958,-0.48979 0.12681,-0.004 0.55207,-0.19504 0.94502,-0.42532 0.78437,-0.45968 1.307,-0.46969 1.5824,-0.0303 0.36735,0.58602 0.19491,0.70046 -4.2274,2.8051 -0.89796,0.42736 -1.7429,0.84145 -1.8776,0.92021 -0.63995,0.37415 -1.3065,0.62054 -2.2041,0.81468 -0.53878,0.11652 -1.1245,0.30903 -1.3016,0.42777 -0.17712,0.11872 -0.46346,0.21588 -0.63629,0.21588 -0.35589,0 -2.2637,0.65898 -2.3886,0.82503 -0.0449,0.0597 -0.37551,0.20737 -0.73469,0.32815 -0.35918,0.12078 -0.72286,0.27807 -0.80816,0.34953 -0.0853,0.0715 -0.41592,0.13122 -0.7347,0.13279 -0.31877,0.002 -1.0939,0.11237 -1.7224,0.24625 -1.5391,0.32782 -2.9713,0.40077 -4.7347,0.24116 z"
         id="advertising_abv" />
    </g>
  </g>
</svg>
