<svg xmlns="http://www.w3.org/2000/svg" height="32.784" width="70.146"><path d="M66.663 7.711c.096-.066.414-.542.707-1.06.292-.516.623-1.03.733-1.142.111-.112.331-.875.49-1.697.318-1.65.198-2.18-.492-2.18-.495 0-.83.605-1.055 1.9-.107.617-.29 1.394-.408 1.73-.275.784-.479 2.575-.292 2.572a.713.713 0 00.317-.123zM55.41 7.628c.763-1.268 1.365-3.341 1.365-4.698 0-1.088-.016-1.135-.39-1.135-.293 0-.416.113-.492.45-.055.246-.28 1.036-.5 1.755-.447 1.47-.909 3.568-.906 4.122.003.61.38.408.923-.495zM40.472 18.327c.657-.303.87-.858.328-.858-.354 0-1.168.658-1.168.944 0 .263.104.252.84-.086zm-34.758-.231a5.6 5.6 0 00.929-1.198c.191-.36.565-.947.83-1.306.265-.36.816-1.314 1.223-2.122.408-.809.807-1.58.887-1.715.08-.134.267-.686.416-1.224.149-.54.338-1.127.42-1.306.793-1.731.823-2.625.111-3.38-.7-.743-1.484-1.273-1.882-1.273-.353 0-3.301 1.436-3.301 1.608 0 .06-.282.407-.626.772-.368.39-.847 1.2-1.16 1.958-.295.712-.71 1.528-.926 1.814-.215.286-.39.589-.39.673 0 .084-.148.486-.328.893-.201.456-.366 1.294-.43 2.185-.09 1.281-.062 1.52.246 2.095.192.357.348.733.348.834 0 .285.658 1.055 1.043 1.221.19.082.72.12 1.178.083.667-.054.947-.175 1.412-.612zm31.594 12.512c.47-.317.855-.642.855-.722 0-.08.172-.354.381-.608.21-.254.522-.717.694-1.03.172-.313.405-.667.517-.787.112-.12.245-.415.296-.656a3.87 3.87 0 01.32-.858c.266-.495.656-1.648.81-2.396.078-.377.05-.53-.096-.53-.246 0-.962.643-.962.863 0 .085-.282.428-.626.762-.948.92-2.156 2.698-2.413 3.55-.126.418-.328.875-.45 1.017-.26.302-.593 1.24-.593 1.669 0 .44.305.374 1.267-.274zM35.17 32.52c-.147-.163-.315-.533-.373-.821-.149-.744.686-3.534 1.276-4.267.252-.312.458-.633.458-.714 0-.214 1.338-2.048 2.021-2.77.325-.343.59-.712.59-.819 0-.107.166-.267.367-.356.202-.088.459-.353.57-.589.222-.465.537-.768 1.079-1.038.52-.26.732-1 .386-1.346-.244-.244-.358-.251-.972-.065-1.316.399-1.697.406-2.066.036-.409-.408-.454-1.287-.101-1.969.66-1.276 3.2-2.285 3.978-1.58.428.387.79.185.921-.513.061-.328.216-.797.343-1.042.127-.246.23-.846.23-1.334 0-.763-.056-.924-.402-1.15-.726-.477-2.646-.303-3.186.287-.174.19-.65.707-1.058 1.148-.408.44-.741.864-.741.94 0 .548-3.668 4.146-4.408 4.326-.225.054-.519.193-.653.309-.743.637-2.093.464-2.88-.37-.447-.475-.549-.712-.549-1.284 0-.386.064-.872.141-1.08.078-.207.194-.736.258-1.173l.117-.796-.462.09c-.254.05-.763.181-1.132.293-.575.173-.783.16-1.47-.09-1.22-.445-1.882-.422-2.125.074-.11.225-.445.913-.743 1.529-.754 1.555-1.172 1.964-2.924 2.86l-1.075.548-.934-.271c-.86-.25-.958-.329-1.245-.997-.346-.807-.307-1.03.557-3.17.234-.577.425-1.209.425-1.402 0-.41-.474-.893-.874-.893-.414 0-1.66 1.324-2.142 2.277-.448.883-2.148 2.784-2.49 2.784-.11 0-.32.183-.466.406-.31.471-1.193.76-1.925.63-.686-.122-1.41-.43-1.41-.6 0-.077-.143-.321-.318-.544-.175-.222-.367-.73-.426-1.128-.064-.423-.196-.723-.318-.723-.24 0-1.223 1.067-1.223 1.327 0 .258-1.083 1.49-1.594 1.814-1.141.723-2.453.932-3.629.577-1.71-.515-2.98-3.586-2.452-5.922.385-1.702.924-3.179 1.459-4 .088-.135.263-.502.39-.816l.408-1.012c.098-.242.43-.72.736-1.061.306-.342.609-.787.672-.99.063-.203.324-.478.58-.61.256-.132.706-.46 1-.729.294-.269.943-.682 1.442-.918.783-.372 1.061-.42 2.049-.357 1.359.087 2.053.41 2.595 1.208.22.324.571.674.78.778.553.274.583 1.35.082 2.887-1.03 3.156-1.743 7.289-1.435 8.316.226.753.82 1.221 1.375 1.082.384-.096 2.399-1.948 2.399-2.204 0-.076.165-.33.367-.563a22.85 22.85 0 001.014-1.342c.356-.504.948-1.12 1.317-1.369.775-.523 1.892-.756 2.377-.496 1.075.575 1.29 2.46.468 4.116-.337.68-.482 1.19-.449 1.582.049.578.051.58.917.63.625.035 1-.034 1.337-.248.99-.626 2.006-2.526 2.372-4.433.127-.662.315-1.305.418-1.429.37-.446.986-.253 1.877.59.836.79.894.817 1.829.817 1.282 0 1.94-.241 2.734-1.001.649-.622.94-.729 1.45-.533.336.13.326.462-.039 1.278-.796 1.784-1.203 3.826-.847 4.255.286.345.762.308 2.048-.159 1.211-.44 2.06-1.135 2.911-2.388 1.037-1.525 2.266-2.926 2.653-3.023a1.27 1.27 0 00.63-.432c.455-.65 3-.891 4.113-.39 1.04.47 1.451 1.834.97 3.21-.142.403-.26.873-.26 1.042-.003.17-.407.91-.9 1.644-.906 1.347-1.166 2.282-.686 2.466.299.115 1.373-.361 1.884-.836.237-.22.505-.399.595-.399.091 0 .482-.367.868-.816.387-.449.805-.816.93-.816.124 0 .348-.206.496-.457.148-.25.51-.621.806-.823.662-.454 2.319-2.075 3.12-3.054.535-.652.613-.869.73-2.032.072-.716.18-1.38.239-1.476.059-.095.203-.74.32-1.431.301-1.77 1.289-5.567 1.61-6.187.303-.586.855-1.03 1.281-1.03.688 0 1.433.546 1.7 1.245.324.848.276 4.154-.062 4.267-.11.036-.2.27-.2.52s-.136.63-.303.844c-.307.393-.762 1.191-1.469 2.575-.211.414-.434.79-.495.835-.264.194-1.324 1.795-1.785 2.694-.63 1.231-1.203 3.357-1.139 4.23l.049.668.755.048c.727.048.787.015 1.632-.868.983-1.027 1.556-2.152 1.806-3.548.163-.909.634-1.755.978-1.755.092 0 .417.119.723.264.306.145.721.221.923.169.202-.052.88-.212 1.51-.355.676-.153 1.31-.412 1.55-.633a14.75 14.75 0 011.178-.912c.736-.515.781-.593 1.034-1.78a61.66 61.66 0 01.578-2.428c.172-.652.313-1.387.314-1.633 0-.246.11-.657.244-.915.135-.257.244-.592.244-.744 0-.576.938-2.135 1.284-2.135.102 0 .186-.073.186-.163 0-.246 1.259-.196 1.774.07.253.131.586.532.757.912.276.61.286.792.107 1.84-.13.753-.486 1.755-1.01 2.835-.67 1.383-1.035 1.9-2.112 3-1.03 1.051-1.32 1.454-1.388 1.927-.048.33-.248 1.26-.445 2.069-.218.893-.394 2.263-.45 3.493-.099 2.203-.213 2.45-1.032 2.245-.381-.095-.43-.204-.534-1.165-.062-.582-.065-1.299-.006-1.592.06-.293.169-.99.243-1.551.074-.56.223-1.125.33-1.255.108-.13.172-.479.144-.777-.047-.483-.1-.536-.504-.494-.248.026-.717.228-1.043.45-.325.22-.735.401-.91.401-.177 0-.515.105-.754.234-.238.128-.863.33-1.389.449l-.956.215-.403.962c-.222.53-.765 1.44-1.207 2.024-.443.585-.804 1.108-.804 1.163 0 .115-.22.242-1.54.894-1.277.63-2.173.727-2.707.293-.391-.317-.406-.398-.388-2.139.02-1.985-.093-2.177-.848-1.442-.788.768-.999.939-1.16.939-.091 0-.504.367-.918.816-.414.45-.854.816-.978.816-.125 0-.536.368-.915.817-.379.449-.797.816-.93.816-.318 0-1.969 1.223-2.177 1.613-.09.167-.232.589-.316.937a13.593 13.593 0 01-.519 1.532c-.2.494-.42 1.045-.489 1.224-.067.18-.24.595-.385.923-.143.328-.261.685-.261.795 0 .11-.257.622-.572 1.14-.314.517-.571.986-.571 1.043 0 .056-.174.303-.387.55-.212.246-.784.925-1.27 1.508-1.266 1.523-2.689 2.17-3.295 1.5z"/></svg>