<?xml version="1.0" encoding="UTF-8" standalone="no"?>
<svg
   xmlns:dc="http://purl.org/dc/elements/1.1/"
   xmlns:cc="http://creativecommons.org/ns#"
   xmlns:rdf="http://www.w3.org/1999/02/22-rdf-syntax-ns#"
   xmlns:svg="http://www.w3.org/2000/svg"
   xmlns="http://www.w3.org/2000/svg"
   id="svg2663"
   viewBox="0 0 44.506236 29.405571"
   version="1.1"
   height="29.405571"
   width="44.506237">
  <defs
     id="defs2667" />
  <metadata
     id="metadata2">
    <rdf:RDF>
      <cc:Work
         rdf:about="">
        <dc:format>image/svg+xml</dc:format>
        <dc:type
           rdf:resource="http://purl.org/dc/dcmitype/StillImage" />
        <dc:title />
      </cc:Work>
    </rdf:RDF>
  </metadata>
  <g
     transform="translate(-608.74237,-175.49127)"
     id="g2661">
    <g
       style="stroke-width:0.16327"
       id="g2557">
      <path
         d="m 649.31,190.28 c 0.26492,-0.137 0.48168,-0.34106 0.48168,-0.45347 0,-0.3698 -0.50205,-0.93009 -0.83342,-0.93009 -0.59089,0 -1.3713,1.1694 -1.0169,1.5238 0.18831,0.18833 0.86793,0.11868 1.3686,-0.14024 z m -34.797,0.28831 c 0.76784,-0.76784 1.1524,-1.3744 2.0962,-3.3061 1.1183,-2.2889 1.4684,-3.386 1.8232,-5.7127 0.0753,-0.49388 0.29251,-1.3548 0.48266,-1.9132 0.19016,-0.55839 0.34575,-1.2956 0.34575,-1.6383 0,-0.51454 -0.0826,-0.67178 -0.47417,-0.90311 -0.52013,-0.30725 -1.675,-0.36079 -2.6924,-0.12479 -0.8089,0.18764 -2.2957,1.6026 -2.7533,2.6202 -0.1817,0.40408 -0.49391,0.90028 -0.69383,1.1026 -0.19991,0.20239 -0.52945,0.82688 -0.73229,1.3878 -0.20284,0.5609 -0.53987,1.3144 -0.74893,1.6746 -0.36403,0.62702 -0.45597,1.0807 -0.90963,4.4881 l -0.18477,1.3878 0.53313,0.78823 c 0.61869,0.9147 0.91062,1.0648 2.0977,1.079 0.84679,0.0101 0.89551,-0.015 1.8106,-0.93002 z m 30.154,13.978 c -0.22096,-0.3155 -0.21512,-0.40877 0.0589,-0.93878 0.27782,-0.53736 1.3286,-2.0397 1.8353,-2.624 0.11429,-0.13177 0.34609,-0.49912 0.51515,-0.81632 0.16905,-0.3172 0.36338,-0.61346 0.43183,-0.65835 0.22646,-0.14856 1.267,-2.1852 1.71,-3.3469 0.23967,-0.62857 0.53381,-1.3633 0.65363,-1.6327 0.30626,-0.68858 0.62397,-2.6026 0.49793,-2.9998 -0.10433,-0.32871 -0.1107,-0.32893 -0.65587,-0.0227 -0.69969,0.39298 -1.5669,0.55658 -2.2605,0.42646 -0.41448,-0.0778 -0.62999,-0.2575 -0.91342,-0.76179 -0.43208,-0.76877 -0.38212,-1.1282 0.28353,-2.0398 0.3462,-0.47416 0.72852,-0.74415 1.455,-1.0275 1.0949,-0.42705 1.4332,-0.38749 2.2943,0.26821 0.52041,0.3963 0.54289,0.3992 0.76476,0.099 0.40728,-0.55115 0.59173,-1.603 0.38749,-2.2096 -0.30052,-0.89244 -0.4118,-0.95684 -1.6536,-0.95684 -1.1483,0 -1.1519,0.002 -2.7837,1.0982 -1.0977,0.73779 -1.69,1.2468 -1.8048,1.551 -0.094,0.24904 -0.24233,0.45281 -0.32963,0.45281 -0.0873,0 -0.82425,0.68423 -1.6377,1.5205 -0.81342,0.83629 -1.6845,1.6077 -1.9356,1.7143 -0.25115,0.10657 -0.93425,0.19377 -1.518,0.19377 -0.9406,0 -1.1073,-0.0496 -1.4656,-0.43627 -0.22237,-0.23993 -0.44854,-0.61248 -0.5026,-0.8279 -0.12323,-0.49094 0.0552,-1.8522 0.27101,-2.068 0.15584,-0.15584 0.23602,-1.4025 0.0902,-1.4025 -0.0393,0 -0.57198,0.11692 -1.1837,0.25979 -0.63274,0.1478 -1.5214,0.23097 -2.0614,0.19291 -0.87543,-0.0617 -0.97871,-0.0318 -1.3288,0.38422 -0.20877,0.24811 -0.72462,1.0841 -1.1463,1.8577 -0.5224,0.95835 -0.90542,1.4669 -1.2018,1.5957 -0.23929,0.104 -0.75787,0.43019 -1.1524,0.72487 -0.58756,0.43881 -0.86542,0.53575 -1.5356,0.53575 -1.5326,0 -2.4749,-1.2604 -1.8811,-2.5159 0.13125,-0.27749 0.39898,-0.83512 0.59496,-1.2392 0.25012,-0.51574 0.35618,-1.0388 0.35587,-1.7551 0,-1.1344 -0.14909,-1.2541 -0.86134,-0.69388 -0.22831,0.17959 -0.51373,0.32898 -0.63425,0.33197 -0.41395,0.0103 -0.92288,0.59425 -1.5008,1.7221 -0.71878,1.4028 -1.9856,2.5102 -3.615,3.1603 -0.9112,0.36352 -1.2324,0.42372 -1.5921,0.29832 -0.24785,-0.0864 -0.49155,-0.22332 -0.5416,-0.30428 -0.05,-0.081 -0.23311,-0.14718 -0.40682,-0.14718 -0.32774,0 -1.2975,-1.1776 -1.2975,-1.5755 0,-0.4795 -0.52715,-0.16763 -1.5853,0.93782 -1.3764,1.438 -2.0482,1.8007 -3.3715,1.8204 -1.7042,0.0253 -3.0417,-0.87672 -3.5402,-2.3877 -0.26079,-0.79047 -0.27894,-1.114 -0.14052,-2.5045 0.1821,-1.8293 0.30617,-2.2861 1.0667,-3.9268 0.30267,-0.653 0.55031,-1.2625 0.55031,-1.3544 0,-0.092 0.18368,-0.5122 0.40817,-0.93389 0.22449,-0.42172 0.40816,-0.84777 0.40816,-0.94683 0,-0.099 0.14725,-0.31332 0.32722,-0.47619 0.17996,-0.16288 0.40011,-0.56684 0.4892,-0.8977 0.20067,-0.74523 1.737,-2.3842 2.8272,-3.0162 1.1157,-0.64672 2.6884,-0.91853 3.8084,-0.65817 1.0845,0.2521 1.2035,0.35246 1.7559,1.4806 0.4033,0.82366 0.43688,1.023 0.3374,2.0034 -0.0607,0.5988 -0.24963,1.6015 -0.41972,2.2283 -0.17011,0.62676 -0.30927,1.2987 -0.30927,1.4931 0,0.1944 -0.21362,0.85715 -0.4747,1.4727 -0.38458,0.90671 -0.49691,1.4658 -0.59175,2.9454 -0.0644,1.0044 -0.0713,2.0086 -0.0154,2.2314 0.15959,0.63585 1.1079,1.1371 1.8986,1.0035 0.358,-0.0605 0.69235,-0.17705 0.74302,-0.25902 0.0507,-0.082 0.21235,-0.14906 0.35927,-0.14906 0.36864,0 1.183,-0.81127 1.183,-1.1785 0,-0.1656 0.10274,-0.34054 0.22833,-0.38872 0.12558,-0.0482 0.56254,-0.59024 0.97102,-1.2045 0.94506,-1.4212 1.8234,-2.0588 3.3103,-2.4027 0.52293,-0.12095 1.3658,0.39371 1.607,0.98119 0.33249,0.81004 0.17458,2.2111 -0.38308,3.399 -0.2683,0.57151 -0.53471,1.2309 -0.59204,1.4653 -0.0922,0.37691 -0.0464,0.43774 0.3959,0.5262 0.94451,0.1889 2.6247,-1.2823 3.4956,-3.0609 0.24005,-0.49023 0.43644,-1.082 0.43644,-1.315 0,-0.233 0.10645,-0.67846 0.23657,-0.98986 0.30258,-0.72418 0.92046,-0.77012 1.6001,-0.11899 0.43962,0.4212 0.54219,0.44449 1.7626,0.40044 1.4456,-0.0522 2.2591,-0.32755 3.07,-1.0392 0.32564,-0.28582 0.68883,-0.45968 0.89795,-0.42988 0.5044,0.0719 0.57894,1.3644 0.12781,2.2158 -0.17768,0.33538 -0.49074,1.0984 -0.69567,1.6957 -0.63702,1.8565 -0.0488,2.3822 1.7196,1.5367 0.9173,-0.43858 1.4317,-0.88623 2.5771,-2.2425 0.421,-0.49852 1.1701,-1.175 1.6647,-1.5033 0.4946,-0.3283 0.99505,-0.68749 1.1121,-0.7982 0.70535,-0.66712 3.1663,-1.5894 4.2379,-1.5882 0.54504,0 1.6075,0.52164 1.6075,0.78834 0,0.0774 0.14694,0.3101 0.32653,0.51717 0.55417,0.63896 0.45138,1.9796 -0.25354,3.3072 -0.31903,0.60082 -0.64965,1.1354 -0.73469,1.188 -0.085,0.0525 -0.15643,0.66062 -0.15861,1.3512 -0.004,1.3315 -0.19251,2.3932 -0.56885,3.208 -0.12616,0.27318 -0.45667,1.1885 -0.73445,2.034 -0.27778,0.84553 -0.64647,1.7359 -0.81932,1.9787 -0.17283,0.24272 -0.39399,0.61623 -0.49144,0.82999 -0.95146,2.0871 -3.5535,5.6948 -4.1073,5.6948 -0.0623,0 -0.22366,-0.15763 -0.35861,-0.35028 z"
         id="advise" />
    </g>
  </g>
</svg>
