<svg xmlns="http://www.w3.org/2000/svg" height="29.406" width="44.506"><path d="M40.568 14.789c.265-.137.481-.341.481-.454 0-.37-.502-.93-.833-.93-.591 0-1.371 1.17-1.017 1.524.188.188.868.119 1.369-.14zm-34.797.288c.767-.768 1.152-1.374 2.096-3.306C8.985 9.482 9.335 8.385 9.69 6.058a13.58 13.58 0 01.483-1.913c.19-.558.345-1.296.345-1.638 0-.515-.082-.672-.474-.903-.52-.308-1.675-.361-2.692-.125-.809.187-2.296 1.602-2.753 2.62-.182.404-.494.9-.694 1.103-.2.202-.53.827-.733 1.387-.202.561-.54 1.315-.748 1.675-.365.627-.456 1.08-.91 4.488l-.185 1.388.533.788c.619.915.91 1.065 2.098 1.08.847.01.895-.016 1.81-.93zm30.154 13.978c-.221-.315-.215-.409.059-.939.277-.537 1.328-2.04 1.835-2.624.114-.132.346-.499.515-.816.169-.317.363-.614.432-.658.226-.149 1.267-2.186 1.71-3.347.24-.629.534-1.364.653-1.633.307-.689.624-2.603.498-3-.104-.329-.11-.329-.656-.023-.7.393-1.566.557-2.26.427-.414-.078-.63-.258-.913-.762-.433-.769-.383-1.128.283-2.04.346-.474.729-.744 1.455-1.027 1.095-.427 1.433-.388 2.294.268.52.396.543.4.765.1.407-.552.592-1.604.388-2.21-.3-.893-.412-.957-1.654-.957-1.148 0-1.152.002-2.784 1.098-1.097.738-1.69 1.247-1.804 1.55-.094.25-.243.454-.33.454-.087 0-.824.684-1.638 1.52-.813.836-1.684 1.608-1.935 1.714-.252.107-.935.194-1.518.194-.941 0-1.108-.05-1.466-.436-.222-.24-.449-.613-.503-.828-.123-.49.056-1.852.271-2.068.156-.156.236-1.402.09-1.402-.039 0-.571.116-1.183.26-.633.147-1.521.23-2.061.192-.876-.061-.98-.032-1.33.384-.208.249-.724 1.085-1.146 1.858-.522.959-.905 1.467-1.201 1.596-.24.104-.758.43-1.153.725-.587.439-.865.535-1.535.535-1.533 0-2.475-1.26-1.881-2.515.13-.278.399-.836.594-1.24.25-.515.357-1.038.356-1.755 0-1.134-.149-1.254-.861-.694-.228.18-.514.33-.634.332-.414.01-.923.595-1.501 1.722-.719 1.403-1.986 2.51-3.615 3.16-.911.364-1.232.424-1.592.3-.248-.087-.492-.224-.542-.305-.05-.081-.233-.147-.407-.147-.327 0-1.297-1.178-1.297-1.576 0-.48-.527-.167-1.585.938-1.377 1.438-2.049 1.8-3.372 1.82-1.704.026-3.042-.876-3.54-2.387-.26-.79-.279-1.114-.14-2.505.182-1.83.306-2.286 1.066-3.927.303-.653.55-1.262.55-1.354 0-.092.184-.512.409-.934.224-.422.408-.848.408-.947 0-.099.147-.313.327-.476.18-.163.4-.567.49-.898.2-.745 1.736-2.384 2.826-3.016C7.278.11 8.851-.162 9.971.098c1.084.252 1.203.352 1.756 1.48.403.824.437 1.024.337 2.004-.06.599-.25 1.601-.42 2.228-.17.627-.309 1.299-.309 1.493 0 .195-.214.858-.475 1.473-.384.907-.497 1.466-.591 2.945-.065 1.005-.072 2.01-.016 2.232.16.636 1.108 1.137 1.899 1.003.358-.06.692-.177.743-.259.05-.082.212-.149.36-.149.368 0 1.182-.811 1.182-1.178 0-.166.103-.34.228-.389.126-.048.563-.59.971-1.204.946-1.422 1.824-2.06 3.31-2.403.524-.121 1.367.394 1.608.981.332.81.174 2.211-.383 3.4-.269.57-.535 1.23-.592 1.464-.093.377-.047.438.396.527.944.188 2.624-1.283 3.495-3.061.24-.49.437-1.082.437-1.315 0-.233.106-.679.236-.99.303-.724.92-.77 1.6-.12.44.422.542.445 1.763.401 1.445-.052 2.259-.327 3.07-1.039.326-.286.689-.46.898-.43.504.072.579 1.365.128 2.216-.178.335-.491 1.098-.696 1.696-.637 1.856-.049 2.382 1.72 1.536.917-.438 1.431-.886 2.577-2.242.42-.499 1.17-1.175 1.664-1.503.495-.329.995-.688 1.112-.799.706-.667 3.167-1.589 4.238-1.588.545 0 1.608.522 1.608.789 0 .077.147.31.326.517.555.639.452 1.98-.253 3.307-.32.6-.65 1.135-.735 1.188-.085.052-.156.66-.158 1.351-.004 1.332-.193 2.393-.57 3.208-.125.273-.456 1.189-.734 2.034-.278.846-.646 1.736-.82 1.979a6.184 6.184 0 00-.49.83c-.952 2.087-3.554 5.695-4.108 5.695-.062 0-.223-.158-.358-.35z"/></svg>