<svg xmlns="http://www.w3.org/2000/svg" height="30.008" width="71.187"><path d="M39.965 15.448c.28-.28.242-.457-.098-.457-.303 0-.685.292-.685.523 0 .201.563.154.783-.066zm-34.58.179c.696-.417 1.952-1.626 1.956-1.884.002-.103.228-.427.501-.72.609-.65 1.843-3.603 2.11-5.045.107-.58.259-1.902.337-2.939.162-2.153.1-2.342-.997-3.035-1.174-.74-1.369-.766-2.476-.316-.553.225-1.046.463-1.096.53-.05.066-.38.37-.734.674-.64.55-.877.9-1.562 2.303-.515 1.055-.709 1.516-1.405 3.347-.508 1.334-.62 1.842-.618 2.776.005 1.88.644 3.77 1.503 4.449.418.33 1.83.25 2.481-.14zm31.088 11.714c.502-.571.912-1.094.912-1.162 0-.068.214-.368.476-.666.262-.298.747-1.116 1.08-1.817.331-.702.705-1.47.83-1.709.375-.717.301-1.008-.223-.878-.247.06-.478.197-.513.303-.036.106-.421.523-.857.927s-.793.811-.793.904c0 .093-.327.443-.726.777-.702.586-.94.914-1.47 2.022-.136.286-.323.565-.414.622-.289.178-.197 1.354.12 1.54.492.286.642.204 1.578-.863zm-1.945 2.488c-.508-.25-1.225-1.366-1.225-1.908 0-.735.868-2.716 1.57-3.587a25.742 25.742 0 011.568-1.705c.52-.515.944-1.007.944-1.096 0-.088.26-.365.577-.616.317-.25.752-.75.966-1.109.213-.36.652-.906.974-1.216.448-.43.585-.693.585-1.12 0-.53-.024-.553-.449-.443-1.056.274-1.913.261-2.273-.033-.37-.302-.43-.538-.399-1.553.016-.533.107-.666.713-1.045.381-.24.73-.485.775-.547.166-.227 1.213-.492 1.945-.492.6 0 .8-.074.991-.367.85-1.309 1.057-2.682.502-3.347-.234-.28-.479-.368-1.036-.368-1.032 0-1.79.37-2.42 1.179-.3.384-.639.758-.754.83-.115.072-.358.421-.538.776-.181.354-.396.644-.478.644-.082 0-.193.14-.248.312-.31.978-2.676 3.138-3.873 3.535-1.5.498-2.693-.097-3.12-1.558-.214-.726-.207-.924.07-2.076.168-.701.268-1.374.222-1.497-.092-.247-1.261-.152-2.082.17-.353.138-.648.116-1.339-.102-1.23-.387-1.542-.306-1.85.481-.141.36-.316.678-.39.708-.072.03-.132.235-.132.457 0 .24-.232.641-.572.99-.314.324-.571.67-.571.768 0 .201-1.04 1.077-1.279 1.077-.084 0-.364.11-.62.243-.724.376-1.742-.006-2.001-.75-.152-.435.11-1.73.807-3.994.382-1.243.159-1.866-.67-1.866-.529 0-.772.133-1.544.846-.505.465-1.027 1.107-1.16 1.426-.133.32-.374.729-.534.91-.16.18-.5.695-.753 1.144-.254.45-.578.885-.721.97-.143.083-.45.34-.684.57-.234.231-.791.547-1.24.703-.763.265-.858.266-1.534.01-.96-.362-1.06-.45-1.564-1.376-.238-.437-.517-.795-.62-.795-.253 0-1.099.912-1.605 1.73-.253.408-.624.75-.958.878-.3.116-.843.348-1.208.515-.934.43-2.032.393-3.004-.1-.855-.433-1.312-.94-1.312-1.455 0-.175-.112-.441-.249-.592-.337-.373-.725-2.29-.728-3.603-.003-.997.419-2.677.79-3.151.078-.1.191-.503.252-.897.06-.394.253-.9.43-1.124.177-.224.321-.494.321-.6 0-.104.184-.44.408-.744.225-.304.409-.704.409-.889 0-.407 1.608-2.141 2.594-2.798L6.342.425C6.887.062 7.946-.094 8.839.057c.594.1.91.322 1.992 1.403 1.066 1.062 1.269 1.346 1.182 1.652-.058.203-.215 1.288-.35 2.41-.133 1.123-.288 2.151-.345 2.286-.056.135-.163 1.273-.239 2.53-.075 1.258-.181 2.548-.236 2.869-.081.479-.021.675.338 1.102.5.595.985.66 1.693.23.54-.328 1.76-1.768 2.178-2.57.836-1.603 1.586-2.413 2.894-3.123 1.418-.77 2.387-1.004 2.802-.674.557.443.8 1.224.8 2.569 0 .724-.064 1.444-.143 1.6-.608 1.201-.893 2.49-.55 2.486.425-.004 2.156-1.753 2.161-2.184.002-.08.38-.98.842-2 .787-1.737.87-1.855 1.308-1.855.257 0 .573.128.702.285.129.157.375.465.546.683.28.356.441.4 1.53.409.868.008 1.294-.06 1.482-.235.145-.134.563-.46.928-.725.365-.264.664-.571.664-.683 0-.111.15-.25.334-.308.44-.14 1.101.3 1.232.82.118.471-.257 1.52-.86 2.399-.297.434-.46.974-.581 1.922-.151 1.18-.138 1.352.123 1.64.687.76 1.834.287 3.34-1.373 1.04-1.148 1.146-1.29 1.146-1.522 0-.127.368-.618.817-1.093.449-.475.816-.985.816-1.133 0-.149.07-.27.157-.27s.436-.284.776-.63c.76-.775 1.41-1.005 2.806-.995 1.343.01 2.119.363 2.497 1.136.31.633.377 1.91.142 2.681-.084.276-.237.823-.34 1.216-.102.392-.362.89-.577 1.105-.581.581-.793 1.037-.58 1.249.126.126.35.028.79-.343.338-.286.945-.72 1.35-.963.404-.244.759-.502.789-.573.078-.185.972-.158 1.344.04.173.094.315.28.315.413 0 .134.188.315.417.402.23.087.689.372 1.02.632 1.135.892 2.114 1.049 6.426 1.03 2.959-.012 3.994-.07 4.424-.25.309-.13 1.105-.357 1.77-.506.665-.148 1.503-.375 1.862-.504.359-.128 1.11-.312 1.669-.407.854-.147 2.49-.886 3.229-1.46.09-.07.36-.173.6-.23.241-.058.535-.201.654-.319.397-.394 1.737-.974 2.01-.87.506.194.218.813-.563 1.206-.4.202-1.016.6-1.37.884-.355.285-1.02.608-1.478.718-1.02.245-1.412.39-1.73.642-.318.25-2.058.867-3.51 1.245-.63.163-1.511.408-1.96.544-2.557.774-2.456.763-6.368.693-3.172-.057-3.894-.117-4.653-.383-1.162-.407-2.436-1.072-3.061-1.598-.273-.23-.636-.417-.808-.417-.172 0-.803.404-1.402.9-1.321 1.089-1.923 2.238-2.42 4.618-.182.87-.427 1.693-.544 1.828-.117.135-.306.54-.419.898-.29.919-.7 1.693-1.288 2.431-.279.35-.506.739-.506.866 0 .296-1.569 2.266-2.352 2.953-.625.549-1.314.669-1.975.343z" stroke-width=".163"/></svg>