<?xml version="1.0" encoding="UTF-8" standalone="no"?>
<svg
   xmlns:dc="http://purl.org/dc/elements/1.1/"
   xmlns:cc="http://creativecommons.org/ns#"
   xmlns:rdf="http://www.w3.org/1999/02/22-rdf-syntax-ns#"
   xmlns:svg="http://www.w3.org/2000/svg"
   xmlns="http://www.w3.org/2000/svg"
   id="svg2663"
   viewBox="0 0 40.389277 16.693085"
   version="1.1"
   height="16.693085"
   width="40.389278">
  <defs
     id="defs2667" />
  <metadata
     id="metadata2">
    <rdf:RDF>
      <cc:Work
         rdf:about="">
        <dc:format>image/svg+xml</dc:format>
        <dc:type
           rdf:resource="http://purl.org/dc/dcmitype/StillImage" />
        <dc:title />
      </cc:Work>
    </rdf:RDF>
  </metadata>
  <g
     transform="translate(-608.52138,-128.27846)"
     id="g2661">
    <g
       style="stroke-width:0.16327"
       id="g2659">
      <path
         d="m 647.09,142.97 c 0.28594,-0.38393 0.35216,-0.74329 0.39858,-2.1633 0.0512,-1.5667 0.0317,-1.7024 -0.2449,-1.6974 -0.44842,0.008 -1.5764,0.84414 -1.8197,1.3487 -0.11714,0.24299 -0.28245,0.4418 -0.36734,0.4418 -0.23968,0 -0.17181,0.86115 0.0957,1.2149 0.13184,0.1743 0.23971,0.44565 0.23971,0.60299 0,0.35917 0.63345,0.81897 1.0448,0.7584 0.17058,-0.0251 0.46446,-0.25284 0.65306,-0.50607 z m -34.921,0.37645 c 0.0563,-0.0911 0.37288,-0.30543 0.70351,-0.47634 1.0736,-0.55493 2.5766,-2.1296 3.2832,-3.4397 0.36319,-0.67347 0.66139,-1.3516 0.66265,-1.507 0.002,-0.15541 0.29244,-0.89324 0.64705,-1.6396 0.35461,-0.74636 0.82795,-2.1324 1.0518,-3.08 0.22391,-0.9476 0.53702,-1.9954 0.69581,-2.3283 0.36607,-0.76768 0.17469,-1.121 -0.68286,-1.2605 -0.69876,-0.11371 -2.0316,0.15372 -2.7708,0.55596 -0.5611,0.30533 -1.9663,1.615 -2.4482,2.2817 -0.17915,0.24788 -0.44002,0.48696 -0.57969,0.53129 -0.13967,0.0443 -0.3511,0.3558 -0.46984,0.69217 -0.11875,0.33637 -0.30479,0.72178 -0.41344,0.85647 -0.58457,0.72472 -1.1922,2.1292 -1.2902,2.9823 -0.0595,0.51783 -0.21656,1.2525 -0.34898,1.6326 -0.45578,1.3083 -0.257,2.7459 0.53012,3.834 0.28046,0.3877 0.51092,0.53062 0.85569,0.53062 0.25951,0 0.51791,-0.0745 0.57419,-0.1656 z m -2.3278,0.87088 c -1.012,-1.0522 -1.4448,-2.3388 -1.2888,-3.8314 0.0588,-0.56256 0.17992,-1.0958 0.26916,-1.1851 0.0892,-0.0892 0.16226,-0.39162 0.16226,-0.67195 0,-1.2142 1.2272,-3.9293 2.5345,-5.6072 0.31216,-0.40066 0.56756,-0.8231 0.56756,-0.93874 0,-0.11564 0.32952,-0.43697 0.73224,-0.71406 0.40274,-0.27709 0.80892,-0.64705 0.90261,-0.82213 0.19233,-0.35937 1.4882,-1.2194 2.6524,-1.7604 0.56162,-0.26096 1.1187,-0.36757 2.0092,-0.38449 l 1.2321,-0.0234 0.72552,0.71204 c 0.39904,0.39162 0.72518,0.86205 0.72477,1.0454 0,0.33261 -0.67452,2.1243 -0.87377,2.3235 -0.0578,0.0578 -0.10507,0.2605 -0.10507,0.45046 0,0.40883 -0.23618,1.2917 -1.0391,3.8841 -0.32646,1.0541 -0.59357,2.0967 -0.59357,2.3169 0,0.2202 -0.0638,0.43979 -0.14176,0.48798 -0.23815,0.14719 -0.37435,2.0031 -0.19567,2.6666 0.28205,1.0475 0.48917,1.2266 1.1554,0.99915 0.74878,-0.25567 1.2234,-0.63438 1.8101,-1.4443 1.8568,-2.5633 3.9067,-4.2949 5.3383,-4.5096 0.65799,-0.0987 0.76426,-0.0637 1.234,0.406 0.46921,0.4692 0.51323,0.60258 0.50541,1.5312 -0.008,0.92763 -0.32338,2.0032 -0.91324,3.1125 -0.23479,0.44157 0.2373,1.0884 0.79435,1.0884 0.93881,0 2.7472,-1.8566 3.1898,-3.275 0.11044,-0.35385 0.2464,-0.64336 0.30213,-0.64336 0.0557,0 0.22759,-0.33061 0.38191,-0.73469 0.15433,-0.40408 0.36635,-0.74316 0.47116,-0.7535 0.49896,-0.0492 0.87796,0.0787 1.2518,0.4225 0.86849,0.79868 1.2982,0.90802 2.4606,0.62604 0.57726,-0.14004 1.3067,-0.44934 1.621,-0.68734 0.8986,-0.68048 1.3501,-0.83343 1.7015,-0.57643 0.35793,0.26171 0.33156,0.41112 -0.45912,2.6008 -0.32415,0.89764 -0.58934,1.8025 -0.58934,2.0107 0,0.53817 0.28991,1.0103 0.62043,1.0103 0.49608,0 2.3767,-1.0039 3.0752,-1.6416 0.37136,-0.33904 0.90402,-0.73476 1.1837,-0.87938 0.27966,-0.14461 0.50848,-0.36711 0.50848,-0.49442 0,-0.12732 0.29425,-0.47441 0.65387,-0.77132 0.35965,-0.29691 0.96283,-0.81534 1.3404,-1.1521 0.37759,-0.33673 0.76991,-0.61224 0.87184,-0.61224 0.10193,0 0.31829,-0.14694 0.48082,-0.32653 0.298,-0.32929 0.83363,-0.42301 1.1521,-0.20158 0.0949,0.066 0.27856,0.37709 0.40816,0.69137 0.30754,0.74586 0.33174,4.2957 0.0313,4.5962 -0.11211,0.11212 -0.20498,0.3912 -0.20635,0.62018 -0.003,0.5102 -0.10679,0.66182 -0.73219,1.0703 -1.3421,0.87666 -1.5974,0.90659 -2.6848,0.3148 -0.61671,-0.33566 -0.83744,-0.57913 -1.1101,-1.2245 -0.45432,-1.0753 -0.95254,-1.1045 -1.9096,-0.11166 -1.185,1.2292 -3.7887,1.773 -4.6965,0.98093 -0.51223,-0.44694 -0.52279,-1.6531 -0.0324,-3.6995 l 0.11352,-0.47366 -0.71763,0.13074 c -0.92131,0.16785 -2.1329,0.1717 -3.1685,0.0101 l -0.81825,-0.12771 -0.27439,0.57537 c -0.36932,0.77448 -1.6248,2.4081 -2.3192,3.0178 -0.51517,0.45233 -1.9658,1.0145 -2.6178,1.0145 -0.5578,0 -1.5149,-0.63933 -1.7283,-1.1544 -0.17575,-0.42433 -0.17665,-0.61138 -0.005,-1.029 0.11543,-0.28073 0.30536,-0.8506 0.42205,-1.2664 0.11668,-0.41578 0.33479,-0.99309 0.48465,-1.2829 0.15845,-0.3064 0.23146,-0.69039 0.17445,-0.9175 -0.27652,-1.1018 -2.4653,0.2437 -4.0126,2.4666 -0.84042,1.2074 -1.7052,2.0145 -2.7867,2.6009 -1.2185,0.66069 -1.7992,0.72061 -2.5496,0.26307 -0.50682,-0.30903 -0.59329,-0.49486 -0.93381,-2.0068 -0.13403,-0.59513 -0.33313,-0.56706 -1.1582,0.16327 -1.2765,1.13 -1.9542,1.6191 -2.3946,1.7285 -0.24065,0.0598 -0.55716,0.22831 -0.70333,0.37449 -0.14617,0.14617 -0.59203,0.30254 -0.99079,0.34749 -0.69572,0.0784 -0.75637,0.0491 -1.5008,-0.7248 z"
         id="advice" />
    </g>
  </g>
</svg>
