<?xml version="1.0" encoding="UTF-8" standalone="no"?>
<svg
   xmlns:dc="http://purl.org/dc/elements/1.1/"
   xmlns:cc="http://creativecommons.org/ns#"
   xmlns:rdf="http://www.w3.org/1999/02/22-rdf-syntax-ns#"
   xmlns:svg="http://www.w3.org/2000/svg"
   xmlns="http://www.w3.org/2000/svg"
   id="svg2663"
   viewBox="0 0 70.146078 32.783615"
   version="1.1"
   height="32.783615"
   width="70.14608">
  <defs
     id="defs2667" />
  <metadata
     id="metadata2">
    <rdf:RDF>
      <cc:Work
         rdf:about="">
        <dc:format>image/svg+xml</dc:format>
        <dc:type
           rdf:resource="http://purl.org/dc/dcmitype/StillImage" />
        <dc:title />
      </cc:Work>
    </rdf:RDF>
  </metadata>
  <g
     transform="translate(-608.36669,-149.71865)"
     id="g2661">
    <g
       style="stroke-width:0.16327"
       id="g2557">
      <path
         d="m 675.03,157.43 c 0.0957,-0.066 0.41357,-0.54273 0.70628,-1.0595 0.29274,-0.51674 0.62296,-1.031 0.73382,-1.1429 0.11085,-0.11183 0.33102,-0.87537 0.48924,-1.6968 0.31797,-1.6507 0.19869,-2.18 -0.49122,-2.18 -0.49539,0 -0.8312,0.60459 -1.0557,1.9006 -0.10666,0.61589 -0.29004,1.3937 -0.40751,1.7284 -0.2755,0.78507 -0.4791,2.5758 -0.29252,2.5725 0.0789,-0.001 0.22186,-0.0565 0.31758,-0.12245 z m -11.253,-0.0838 c 0.76245,-1.2676 1.3648,-3.3409 1.3648,-4.6977 0,-1.0875 -0.0162,-1.1344 -0.39046,-1.1344 -0.29262,0 -0.41579,0.1125 -0.4915,0.44897 -0.0556,0.24694 -0.28024,1.0367 -0.49926,1.7551 -0.44831,1.4704 -0.90973,3.5686 -0.90658,4.1224 0.003,0.6096 0.38042,0.40768 0.92302,-0.49443 z m -14.938,10.699 c 0.65683,-0.30235 0.86914,-0.85715 0.32798,-0.85715 -0.35465,0 -1.1682,0.65741 -1.1682,0.94397 0,0.26278 0.10414,0.25202 0.84027,-0.0868 z m -34.758,-0.23055 c 0.3192,-0.29972 0.73704,-0.83884 0.92855,-1.198 0.19151,-0.35919 0.56513,-0.94694 0.83029,-1.3061 0.26516,-0.35918 0.81553,-1.3143 1.223,-2.1224 0.40752,-0.80816 0.8064,-1.5796 0.88638,-1.7143 0.08,-0.13469 0.26728,-0.68572 0.41623,-1.2245 0.14894,-0.53878 0.33815,-1.1265 0.42046,-1.3061 0.79319,-1.7307 0.82256,-2.6242 0.11111,-3.3791 -0.70076,-0.74351 -1.4843,-1.274 -1.8819,-1.274 -0.3537,0 -3.3018,1.4362 -3.3018,1.6085 0,0.0592 -0.2817,0.40661 -0.62601,0.77214 -0.36739,0.39005 -0.84672,1.199 -1.1603,1.9583 -0.29388,0.71153 -0.71014,1.5276 -0.92502,1.8134 -0.21489,0.28584 -0.39069,0.58875 -0.39069,0.67312 0,0.0844 -0.14723,0.48626 -0.32718,0.89308 -0.20172,0.456 -0.36655,1.294 -0.4298,2.1851 -0.0909,1.2811 -0.063,1.5193 0.24555,2.095 0.19149,0.35727 0.34816,0.7326 0.34816,0.83406 0,0.28442 0.65777,1.0546 1.043,1.2212 0.18965,0.082 0.71938,0.11909 1.1772,0.0824 0.66777,-0.0536 0.94717,-0.17452 1.4128,-0.61171 z m 31.594,12.512 c 0.47023,-0.31667 0.85497,-0.64165 0.85497,-0.72216 0,-0.0805 0.17134,-0.35409 0.38078,-0.60791 0.20944,-0.25383 0.52168,-0.71731 0.69388,-1.03 0.17219,-0.31263 0.40481,-0.66676 0.51693,-0.78692 0.11211,-0.12016 0.24552,-0.4154 0.29646,-0.65605 0.0509,-0.24067 0.19441,-0.62655 0.31885,-0.85752 0.26666,-0.49498 0.65718,-1.648 0.8116,-2.3964 0.0777,-0.3767 0.0496,-0.53061 -0.097,-0.53061 -0.24532,0 -0.96227,0.64365 -0.96227,0.86388 0,0.0847 -0.28162,0.42722 -0.62581,0.76124 -0.94746,0.9195 -2.1562,2.6983 -2.4127,3.5507 -0.12574,0.41781 -0.32801,0.8752 -0.4495,1.0164 -0.26046,0.3028 -0.59363,1.2394 -0.59363,1.6689 0,0.44021 0.30543,0.37428 1.2675,-0.2736 z m -2.1382,1.912 c -0.14755,-0.16304 -0.3155,-0.53257 -0.37323,-0.82119 -0.14878,-0.74397 0.68564,-3.5336 1.2762,-4.2665 0.25163,-0.31231 0.4575,-0.63358 0.4575,-0.71397 0,-0.21475 1.338,-2.0484 2.0217,-2.7707 0.32481,-0.34314 0.59056,-0.71143 0.59056,-0.81844 0,-0.107 0.16498,-0.26708 0.36663,-0.35572 0.20163,-0.0886 0.45827,-0.35378 0.5703,-0.58922 0.22122,-0.46492 0.53626,-0.76844 1.0778,-1.0384 0.52056,-0.25953 0.7327,-0.99894 0.38606,-1.3456 -0.24384,-0.24386 -0.35799,-0.25155 -0.97118,-0.0655 -1.316,0.39925 -1.6971,0.40598 -2.0666,0.0364 -0.40864,-0.40864 -0.45363,-1.2867 -0.1009,-1.9689 0.66018,-1.2766 3.1993,-2.2849 3.9784,-1.5798 0.42724,0.38663 0.78977,0.18431 0.92074,-0.51381 0.0614,-0.32741 0.21559,-0.79623 0.34258,-1.0418 0.127,-0.24559 0.2309,-0.8458 0.2309,-1.3338 0,-0.7629 -0.0564,-0.92425 -0.40241,-1.151 -0.72629,-0.47588 -2.6457,-0.30241 -3.1861,0.28797 -0.17437,0.19047 -0.65053,0.70698 -1.0581,1.1478 -0.4076,0.44082 -0.74108,0.86429 -0.74108,0.94108 0,0.54713 -3.6676,4.1454 -4.4082,4.3248 -0.22449,0.0544 -0.51836,0.19352 -0.65306,0.30916 -0.74253,0.63747 -2.0924,0.46397 -2.8789,-0.37006 -0.44822,-0.47526 -0.54963,-0.71216 -0.54963,-1.284 0,-0.38567 0.0635,-0.87132 0.14101,-1.0792 0.0775,-0.20789 0.19365,-0.73617 0.25798,-1.1739 l 0.11695,-0.79597 -0.46204,0.0903 c -0.25414,0.0497 -0.76345,0.18134 -1.1318,0.29264 -0.57483,0.17367 -0.78311,0.16101 -1.4694,-0.0892 -1.2203,-0.44498 -1.8831,-0.42199 -2.1261,0.0737 -0.11002,0.22449 -0.44434,0.91236 -0.74291,1.5286 -0.7535,1.5552 -1.1722,1.9647 -2.9238,2.8593 l -1.0749,0.549 -0.93401,-0.27153 c -0.8609,-0.25027 -0.95832,-0.32824 -1.2447,-0.99632 -0.34621,-0.80768 -0.30722,-1.0296 0.5569,-3.1694 0.23351,-0.57826 0.42457,-1.2097 0.42457,-1.4033 0,-0.40899 -0.47355,-0.89231 -0.87431,-0.89231 -0.4134,0 -1.6588,1.3242 -2.1418,2.2771 -0.44725,0.8826 -2.1474,2.7841 -2.4893,2.7841 -0.11076,0 -0.32082,0.1823 -0.46683,0.40512 -0.30891,0.47146 -1.1926,0.76116 -1.9244,0.63089 -0.68652,-0.1222 -1.4095,-0.43056 -1.4095,-0.60114 0,-0.0762 -0.14321,-0.32054 -0.31825,-0.54307 -0.17504,-0.22251 -0.36705,-0.73002 -0.42669,-1.1278 -0.0635,-0.42323 -0.19533,-0.7232 -0.31791,-0.7232 -0.23971,0 -1.2229,1.0666 -1.2229,1.3267 0,0.25778 -1.0825,1.4896 -1.5939,1.8138 -1.1412,0.72338 -2.4531,0.93218 -3.6288,0.57754 -1.7094,-0.51566 -2.9807,-3.586 -2.4521,-5.9221 0.38516,-1.7021 0.92374,-3.1788 1.4588,-4 0.0878,-0.13469 0.26294,-0.50204 0.38929,-0.81633 0.12633,-0.31428 0.31012,-0.76952 0.40842,-1.0116 0.0983,-0.24208 0.42947,-0.71967 0.73597,-1.0612 0.3065,-0.34156 0.60895,-0.78713 0.67213,-0.99015 0.0632,-0.20303 0.32438,-0.47748 0.58044,-0.6099 0.25607,-0.13242 0.70612,-0.46046 1.0001,-0.72899 0.29401,-0.26852 0.94255,-0.68181 1.4412,-0.91842 0.78349,-0.37174 1.0619,-0.42021 2.0495,-0.35677 1.3588,0.0873 2.0528,0.41048 2.5951,1.2086 0.22021,0.32406 0.5713,0.674 0.7802,0.77763 0.55257,0.27414 0.58293,1.3492 0.0815,2.8865 -1.0294,3.1561 -1.7424,7.2895 -1.4346,8.3167 0.22565,0.75311 0.82028,1.2208 1.3751,1.0815 0.3834,-0.0962 2.3986,-1.9476 2.3986,-2.2036 0,-0.0762 0.16531,-0.32969 0.36735,-0.56332 0.20204,-0.23361 0.65824,-0.83727 1.0138,-1.3414 0.35553,-0.50418 0.94825,-1.1204 1.3172,-1.3694 0.77427,-0.52255 1.8921,-0.75593 2.3772,-0.49632 1.0747,0.57515 1.2889,2.4606 0.46767,4.1159 -0.33734,0.6799 -0.48201,1.1899 -0.44898,1.5827 0.0486,0.57798 0.0511,0.57969 0.9171,0.62929 0.62509,0.0358 0.9997,-0.0334 1.3372,-0.24708 0.98914,-0.62627 2.0054,-2.5264 2.3715,-4.4339 0.12694,-0.66146 0.31517,-1.3043 0.41829,-1.4286 0.3703,-0.44618 0.98566,-0.25262 1.8771,0.59042 0.83548,0.79016 0.89407,0.81632 1.8282,0.81632 1.2826,0 1.941,-0.24108 2.7342,-1.001 0.6489,-0.62173 0.93936,-0.72842 1.4498,-0.53253 0.3361,0.12897 0.32614,0.46212 -0.0382,1.2779 -0.79659,1.7838 -1.2032,3.8257 -0.84732,4.2546 0.28619,0.34484 0.76149,0.30804 2.048,-0.15862 1.2111,-0.43929 2.0596,-1.1352 2.9112,-2.3879 1.0366,-1.5247 2.2662,-2.9259 2.6528,-3.0229 0.21804,-0.0547 0.50125,-0.24913 0.62935,-0.43202 0.45566,-0.65053 3.0008,-0.89142 4.1136,-0.38935 1.0392,0.46882 1.4514,1.833 0.96934,3.2082 -0.14165,0.40408 -0.2586,0.8734 -0.2599,1.0429 -0.002,0.16952 -0.40647,0.90929 -0.90034,1.6439 -0.90554,1.347 -1.1653,2.282 -0.68525,2.4662 0.29916,0.11481 1.3728,-0.36147 1.8845,-0.83596 0.23652,-0.21932 0.50426,-0.3988 0.59497,-0.39885 0.0907,-4e-5 0.48126,-0.36739 0.86787,-0.81632 0.38661,-0.44893 0.80491,-0.81625 0.92953,-0.81625 0.12464,0 0.34795,-0.2054 0.49625,-0.45644 0.14829,-0.25105 0.51087,-0.62174 0.80573,-0.82379 0.66207,-0.45366 2.3189,-2.0746 3.1209,-3.0534 0.53435,-0.65209 0.61218,-0.86893 0.72946,-2.0321 0.0722,-0.71619 0.17957,-1.3803 0.23861,-1.4759 0.059,-0.0955 0.20354,-0.73964 0.32108,-1.4313 0.30071,-1.7696 1.2883,-5.5666 1.6092,-6.1872 0.30273,-0.5854 0.85548,-1.0296 1.2812,-1.0296 0.68769,0 1.433,0.54574 1.7,1.2448 0.32382,0.84795 0.27543,4.1545 -0.0625,4.2671 -0.10939,0.0365 -0.19889,0.27068 -0.19889,0.52047 0,0.2498 -0.13683,0.62939 -0.3041,0.84354 -0.30679,0.39283 -0.76211,1.1913 -1.4682,2.5747 -0.21151,0.4144 -0.43435,0.79019 -0.49519,0.83509 -0.2639,0.19479 -1.324,1.7948 -1.7848,2.6939 -0.63115,1.2314 -1.2035,3.3569 -1.1394,4.2312 l 0.0489,0.66679 0.7547,0.0489 c 0.72687,0.0471 0.78703,0.015 1.6326,-0.86872 0.98284,-1.0272 1.5553,-2.152 1.8057,-3.5477 0.16308,-0.90912 0.63435,-1.7549 0.97781,-1.7549 0.0921,0 0.41771,0.11871 0.72348,0.26381 0.30576,0.14509 0.72094,0.22107 0.92264,0.16885 0.20168,-0.0522 0.88098,-0.21181 1.5096,-0.35464 0.67613,-0.15362 1.3096,-0.41206 1.551,-0.63283 0.22449,-0.20523 0.75448,-0.61571 1.1778,-0.91218 0.73618,-0.51564 0.78106,-0.59294 1.0339,-1.7809 0.14539,-0.68304 0.40519,-1.7754 0.57736,-2.4274 0.17214,-0.65202 0.31345,-1.3867 0.31401,-1.6327 0,-0.24593 0.11074,-0.65759 0.24489,-0.9148 0.13414,-0.2572 0.24389,-0.59238 0.24389,-0.74484 0,-0.57528 0.93742,-2.1344 1.2833,-2.1344 0.10235,0 0.18609,-0.0735 0.18609,-0.16327 0,-0.24593 1.2591,-0.19598 1.7742,0.0704 0.25295,0.1308 0.58637,0.53202 0.7575,0.91152 0.27555,0.61107 0.28601,0.79248 0.10621,1.841 -0.1289,0.75172 -0.48601,1.7543 -1.0096,2.8343 -0.67029,1.3827 -1.0349,1.9005 -2.1123,2.9998 -1.0304,1.0513 -1.3201,1.4537 -1.3881,1.9276 -0.0473,0.32943 -0.24722,1.2602 -0.44434,2.0683 -0.2178,0.8929 -0.39421,2.2634 -0.4496,3.4931 -0.0993,2.2032 -0.21319,2.451 -1.0325,2.2454 -0.38121,-0.0957 -0.43101,-0.20433 -0.53388,-1.165 -0.0624,-0.58271 -0.065,-1.2991 -0.006,-1.592 0.0592,-0.2929 0.16836,-0.99105 0.24246,-1.5514 0.0741,-0.56035 0.22278,-1.125 0.33037,-1.2546 0.10761,-0.12966 0.17228,-0.47931 0.14369,-0.77702 -0.0464,-0.48363 -0.10002,-0.53623 -0.50335,-0.4939 -0.24826,0.0261 -0.7177,0.2281 -1.0432,0.44898 -0.32549,0.22088 -0.73553,0.40161 -0.91119,0.40161 -0.17564,0 -0.51436,0.10524 -0.75271,0.23387 -0.23835,0.12864 -0.86356,0.33068 -1.3894,0.44898 l -0.95601,0.21511 -0.40304,0.96202 c -0.22168,0.52911 -0.76495,1.4401 -1.2072,2.0243 -0.44232,0.58428 -0.80421,1.1074 -0.80421,1.1625 0,0.1153 -0.21909,0.24252 -1.5399,0.89421 -1.2768,0.62997 -2.1727,0.72712 -2.7069,0.29352 -0.39089,-0.31729 -0.40554,-0.39808 -0.38781,-2.1393 0.0202,-1.9848 -0.0931,-2.1776 -0.8477,-1.4422 -0.78809,0.76806 -0.99902,0.93877 -1.1601,0.93877 -0.0914,0 -0.50446,0.36735 -0.91804,0.81633 -0.41359,0.44898 -0.85385,0.81633 -0.97835,0.81633 -0.12451,0 -0.53615,0.36734 -0.91473,0.81632 -0.37858,0.44898 -0.79731,0.81633 -0.93048,0.81633 -0.31772,0 -1.9681,1.2229 -2.1769,1.613 -0.0895,0.16714 -0.23163,0.58892 -0.31594,0.93729 -0.0843,0.34836 -0.31766,1.0375 -0.51853,1.5314 -0.20088,0.49388 -0.42078,1.0449 -0.48869,1.2245 -0.0679,0.17959 -0.24115,0.59478 -0.38499,0.92263 -0.14385,0.32787 -0.26155,0.6856 -0.26155,0.79497 0,0.10939 -0.25714,0.62217 -0.57143,1.1395 -0.31429,0.51738 -0.57143,0.98681 -0.57143,1.0432 0,0.0564 -0.17399,0.3039 -0.38664,0.55007 -0.21267,0.24616 -0.78396,0.92511 -1.2695,1.5088 -1.267,1.523 -2.6894,2.17 -3.2962,1.4995 z"
         id="advisable" />
    </g>
  </g>
</svg>
