<?xml version="1.0" encoding="UTF-8" standalone="no"?>
<svg
   xmlns:dc="http://purl.org/dc/elements/1.1/"
   xmlns:cc="http://creativecommons.org/ns#"
   xmlns:rdf="http://www.w3.org/1999/02/22-rdf-syntax-ns#"
   xmlns:svg="http://www.w3.org/2000/svg"
   xmlns="http://www.w3.org/2000/svg"
   id="svg2663"
   viewBox="0 0 71.187338 30.008369"
   version="1.1"
   height="30.008369"
   width="71.18734">
  <defs
     id="defs2667" />
  <metadata
     id="metadata2">
    <rdf:RDF>
      <cc:Work
         rdf:about="">
        <dc:format>image/svg+xml</dc:format>
        <dc:type
           rdf:resource="http://purl.org/dc/dcmitype/StillImage" />
        <dc:title />
      </cc:Work>
    </rdf:RDF>
  </metadata>
  <g
     transform="translate(-608.00478,-224.68157)"
     id="g2661">
    <g
       style="stroke-width:0.16327"
       id="g2557">
      <path
         d="m 647.97,240.13 c 0.28003,-0.28003 0.24208,-0.45714 -0.098,-0.45714 -0.30282,0 -0.68571,0.29172 -0.68571,0.52245 0,0.20147 0.5639,0.15447 0.78367,-0.0653 z m -34.58,0.17858 c 0.6958,-0.41722 1.9514,-1.6265 1.9559,-1.8838 0.002,-0.10276 0.22743,-0.42676 0.50137,-0.72003 0.60817,-0.65104 1.8423,-3.6034 2.1092,-5.0453 0.10726,-0.57982 0.25898,-1.9021 0.33714,-2.9385 0.1624,-2.1533 0.10021,-2.3425 -0.99726,-3.0353 -1.1738,-0.74099 -1.3684,-0.76582 -2.4759,-0.3158 -0.55275,0.22459 -1.0456,0.46284 -1.0952,0.52944 -0.0496,0.0666 -0.38018,0.37014 -0.73453,0.67454 -0.64062,0.55034 -0.87701,0.89883 -1.5623,2.3031 -0.51462,1.0546 -0.70822,1.5159 -1.4048,3.3469 -0.50738,1.3337 -0.62051,1.8419 -0.61781,2.7755 0.005,1.8811 0.64351,3.7704 1.5026,4.449 0.41814,0.33027 1.8304,0.25073 2.4817,-0.13979 z m 31.088,11.714 c 0.50147,-0.57118 0.91177,-1.0941 0.91177,-1.1621 0,-0.068 0.21412,-0.36746 0.47582,-0.66554 0.2617,-0.29805 0.74738,-1.1159 1.0793,-1.8175 0.33192,-0.70156 0.70556,-1.4706 0.83031,-1.7089 0.37546,-0.71737 0.30184,-1.0084 -0.22217,-0.8784 -0.24694,0.0613 -0.478,0.19781 -0.51347,0.30341 -0.0355,0.10562 -0.42118,0.52282 -0.85715,0.92715 -0.43595,0.40431 -0.79265,0.8112 -0.79265,0.9042 0,0.093 -0.32684,0.44228 -0.72633,0.77621 -0.70159,0.58645 -0.93969,0.91415 -1.4694,2.0223 -0.13657,0.2857 -0.32289,0.56555 -0.41404,0.62188 -0.2891,0.17867 -0.19746,1.3546 0.11996,1.5395 0.49161,0.28634 0.6417,0.20433 1.578,-0.86217 z m -1.9454,2.4881 c -0.50828,-0.25058 -1.2245,-1.3664 -1.2245,-1.9077 0,-0.73543 0.86744,-2.7169 1.5704,-3.5871 0.34255,-0.42407 1.0477,-1.1917 1.567,-1.7058 0.51933,-0.51409 0.94423,-1.0069 0.94423,-1.0951 0,-0.0882 0.25962,-0.36555 0.57695,-0.61633 0.31732,-0.25076 0.75188,-0.74981 0.96569,-1.109 0.21382,-0.35919 0.65215,-0.90626 0.97408,-1.2157 0.44784,-0.43048 0.58532,-0.69379 0.58532,-1.1211 0,-0.52855 -0.024,-0.55221 -0.44898,-0.44219 -1.0562,0.2735 -1.9134,0.26103 -2.273,-0.0331 -0.36982,-0.30247 -0.4302,-0.53759 -0.39892,-1.5533 0.0164,-0.53247 0.10719,-0.66553 0.71269,-1.0448 0.38163,-0.23905 0.73061,-0.48508 0.77551,-0.54674 0.16524,-0.22694 1.2129,-0.49213 1.9443,-0.49213 0.60094,0 0.80083,-0.0741 0.99152,-0.36735 0.85078,-1.3086 1.0568,-2.6819 0.50198,-3.3469 -0.23391,-0.28041 -0.47907,-0.36734 -1.0359,-0.36734 -1.032,0 -1.7909,0.36951 -2.4204,1.1784 -0.29927,0.38454 -0.63847,0.7582 -0.75376,0.83037 -0.1153,0.0722 -0.35754,0.42114 -0.53834,0.77551 -0.18078,0.35436 -0.39572,0.64431 -0.47763,0.64431 -0.0819,0 -0.19354,0.14049 -0.24803,0.31219 -0.31045,0.97813 -2.6763,3.1376 -3.8729,3.535 -1.4997,0.49814 -2.6928,-0.0976 -3.121,-1.5585 -0.21267,-0.7255 -0.20595,-0.92391 0.0705,-2.0761 0.1681,-0.70065 0.26828,-1.374 0.22261,-1.4962 -0.0924,-0.2475 -1.2615,-0.15251 -2.0827,0.16921 -0.35284,0.13823 -0.64751,0.11591 -1.3383,-0.10138 -1.2304,-0.387 -1.542,-0.306 -1.8505,0.48103 -0.14078,0.35919 -0.31582,0.67755 -0.38898,0.70748 -0.0732,0.0299 -0.13302,0.23563 -0.13302,0.45708 0,0.23925 -0.23189,0.64142 -0.57143,0.99103 -0.31429,0.32361 -0.57143,0.66895 -0.57143,0.76742 -2e-5,0.20067 -1.0405,1.077 -1.2787,1.077 -0.0843,0 -0.36376,0.10926 -0.62097,0.24279 -0.72361,0.37569 -1.7409,-0.006 -2.0005,-0.75072 -0.15133,-0.43412 0.11058,-1.73 0.80715,-3.9934 0.38258,-1.2431 0.15879,-1.866 -0.67045,-1.866 -0.52792,0 -0.77092,0.13316 -1.5437,0.84589 -0.50444,0.46524 -1.0263,1.1071 -1.1597,1.4263 -0.13339,0.31925 -0.37375,0.7284 -0.53414,0.90923 -0.16038,0.18082 -0.49925,0.6961 -0.75304,1.1451 -0.25378,0.44898 -0.57824,0.88488 -0.721,0.96865 -0.14278,0.0838 -0.45065,0.34093 -0.68418,0.57143 -0.23353,0.23051 -0.79099,0.54645 -1.2388,0.7021 -0.76357,0.26542 -0.85892,0.26611 -1.5346,0.0109 -0.9604,-0.36269 -1.06,-0.45035 -1.5639,-1.3762 -0.23807,-0.43742 -0.51698,-0.7953 -0.61979,-0.7953 -0.25316,0 -1.0995,0.91182 -1.6053,1.7294 -0.25291,0.40888 -0.62473,0.74981 -0.95808,0.87849 -0.29963,0.11568 -0.84348,0.34763 -1.2086,0.51548 -0.93389,0.42934 -2.0312,0.3928 -3.0037,-0.1 -0.85468,-0.43309 -1.3121,-0.94032 -1.3121,-1.455 0,-0.17499 -0.11178,-0.44167 -0.24838,-0.59262 -0.33753,-0.37297 -0.72491,-2.2893 -0.72838,-3.6032 -0.003,-0.99703 0.41858,-2.6762 0.79034,-3.1507 0.078,-0.0995 0.19105,-0.50316 0.2512,-0.89689 0.0602,-0.39372 0.25386,-0.89955 0.43046,-1.124 0.17659,-0.22451 0.32108,-0.49422 0.32108,-0.59937 0,-0.10514 0.18368,-0.44011 0.40817,-0.74439 0.22449,-0.30428 0.40827,-0.70426 0.4084,-0.88886 0,-0.40709 1.6084,-2.1416 2.5947,-2.7986 0.39287,-0.2617 0.90462,-0.60237 1.1373,-0.75705 0.54532,-0.36258 1.6045,-0.51838 2.4978,-0.36746 0.59372,0.10031 0.90875,0.32211 1.9919,1.4023 1.0654,1.0625 1.2685,1.3467 1.1812,1.6525 -0.058,0.20315 -0.21487,1.2877 -0.34867,2.4102 -0.13381,1.1224 -0.2893,2.151 -0.34555,2.2857 -0.0562,0.13469 -0.16378,1.2735 -0.23902,2.5306 -0.0752,1.2571 -0.18147,2.5479 -0.23609,2.8683 -0.0816,0.47868 -0.0214,0.67528 0.33774,1.102 0.50036,0.59465 0.98464,0.66044 1.6926,0.22993 0.53965,-0.32818 1.7596,-1.7678 2.1784,-2.5707 0.83585,-1.6024 1.5859,-2.4117 2.8942,-3.1225 1.4179,-0.77033 2.3871,-1.0034 2.8015,-0.6737 0.55739,0.44358 0.8006,1.224 0.8006,2.5689 0,0.72405 -0.0645,1.444 -0.14333,1.6 -0.60747,1.2015 -0.89265,2.4895 -0.55054,2.4865 0.42511,-0.004 2.157,-1.7538 2.1617,-2.1845 0.002,-0.0796 0.37975,-0.97959 0.84196,-2 0.78682,-1.737 0.87015,-1.8553 1.3077,-1.8553 0.25705,0 0.57288,0.12857 0.70188,0.28571 0.12899,0.15715 0.37507,0.46461 0.54681,0.68327 0.27934,0.35562 0.44068,0.39866 1.5298,0.40816 0.86785,0.008 1.2934,-0.0597 1.4816,-0.23428 0.14524,-0.1347 0.56282,-0.46103 0.92797,-0.7252 0.36514,-0.26416 0.66388,-0.57146 0.66388,-0.68287 0,-0.11143 0.15053,-0.25037 0.33453,-0.30875 0.43981,-0.13959 1.1012,0.30126 1.2316,0.82096 0.11821,0.47094 -0.2573,1.519 -0.85915,2.398 -0.2974,0.43435 -0.46098,0.97467 -0.58197,1.9224 -0.15076,1.181 -0.1379,1.3518 0.12355,1.6407 0.68653,0.75861 1.8338,0.28647 3.3388,-1.3741 1.0405,-1.148 1.1473,-1.2897 1.1473,-1.5218 0,-0.12632 0.36734,-0.61811 0.81632,-1.0928 0.44898,-0.47473 0.81633,-0.98462 0.81633,-1.1331 0,-0.14847 0.0707,-0.26994 0.15721,-0.26994 0.0865,0 0.43544,-0.28353 0.77551,-0.63008 0.75987,-0.77433 1.4102,-1.0049 2.8059,-0.99474 1.3434,0.01 2.1192,0.36271 2.4974,1.1361 0.30925,0.63242 0.37683,1.9099 0.14186,2.6812 -0.084,0.27577 -0.23657,0.82261 -0.33906,1.2152 -0.10248,0.39261 -0.36266,0.89016 -0.57815,1.1056 -0.58111,0.58113 -0.79259,1.0364 -0.5801,1.2488 0.12598,0.12598 0.35105,0.0283 0.79063,-0.34325 0.33799,-0.28565 0.94513,-0.71905 1.3492,-0.9631 0.40408,-0.24407 0.75918,-0.50157 0.78911,-0.57225 0.0784,-0.18512 0.97283,-0.15817 1.3441,0.0405 0.1737,0.093 0.31581,0.27845 0.31581,0.4122 0,0.13376 0.18756,0.31451 0.41678,0.40166 0.22924,0.0872 0.68843,0.37187 1.0204,0.6327 1.1347,0.89153 2.1137,1.0485 6.4254,1.0301 2.9586,-0.0126 3.994,-0.0714 4.424,-0.25109 0.30879,-0.12901 1.1053,-0.35631 1.7701,-0.50509 0.66477,-0.1488 1.5025,-0.37561 1.8617,-0.50404 0.35918,-0.1284 1.1103,-0.31188 1.6691,-0.40768 0.85383,-0.14639 2.49,-0.88578 3.2289,-1.4591 0.0898,-0.0697 0.36017,-0.17366 0.60084,-0.23107 0.24065,-0.0574 0.53453,-0.20062 0.65306,-0.31823 0.39737,-0.39434 1.7376,-0.97453 2.0099,-0.87008 0.50622,0.19426 0.21799,0.81269 -0.56214,1.2061 -0.39982,0.20162 -1.0168,0.59949 -1.371,0.88416 -0.35422,0.28467 -1.0189,0.60768 -1.4771,0.71778 -1.02,0.24515 -1.4128,0.3907 -1.7311,0.64141 -0.31704,0.24981 -2.0569,0.867 -3.5102,1.2452 -0.62857,0.16358 -1.5102,0.40856 -1.9592,0.54441 -2.5567,0.77357 -2.456,0.76263 -6.3674,0.69244 -3.1721,-0.0569 -3.8945,-0.11624 -4.6531,-0.38219 -1.1626,-0.40761 -2.4366,-1.0729 -3.0615,-1.5987 -0.2727,-0.22947 -0.63623,-0.41721 -0.80784,-0.41721 -0.17161,0 -0.80276,0.40478 -1.4025,0.89953 -1.321,1.0896 -1.923,2.2386 -2.42,4.6189 -0.18178,0.87049 -0.42636,1.6931 -0.54354,1.828 -0.11718,0.1349 -0.30573,0.53924 -0.41904,0.89842 -0.28973,0.91848 -0.70016,1.6928 -1.2884,2.4306 -0.27832,0.34908 -0.50604,0.73873 -0.50604,0.86586 0,0.29587 -1.5685,2.2659 -2.3512,2.9532 -0.62525,0.54899 -1.3145,0.6686 -1.9753,0.34282 z"
         id="advising" />
    </g>
  </g>
</svg>
