<?xml version="1.0" encoding="UTF-8" standalone="no"?>
<svg
   xmlns:dc="http://purl.org/dc/elements/1.1/"
   xmlns:cc="http://creativecommons.org/ns#"
   xmlns:rdf="http://www.w3.org/1999/02/22-rdf-syntax-ns#"
   xmlns:svg="http://www.w3.org/2000/svg"
   xmlns="http://www.w3.org/2000/svg"
   id="svg2663"
   viewBox="0 0 47.817236 29.846722"
   version="1.1"
   height="29.846722"
   width="47.817238">
  <defs
     id="defs2667" />
  <metadata
     id="metadata2">
    <rdf:RDF>
      <cc:Work
         rdf:about="">
        <dc:format>image/svg+xml</dc:format>
        <dc:type
           rdf:resource="http://purl.org/dc/dcmitype/StillImage" />
        <dc:title />
      </cc:Work>
    </rdf:RDF>
  </metadata>
  <g
     transform="translate(-608.16738,-200.07839)"
     id="g2661">
    <g
       style="stroke-width:0.16327"
       id="g2557">
      <path
         d="m 613.6,215.25 c 0.28973,-0.24379 0.66081,-0.66366 0.82462,-0.93302 0.16382,-0.26937 0.40254,-0.59446 0.53051,-0.72243 0.12799,-0.12797 0.27208,-0.42958 0.32025,-0.67024 0.0481,-0.24066 0.23636,-0.87838 0.41823,-1.4172 1.6064,-4.7587 2.2702,-7.1825 2.2702,-8.2893 0,-0.46684 -0.13517,-0.73703 -0.62779,-1.2549 -0.5734,-0.60278 -0.6999,-0.65994 -1.4606,-0.65994 -1.0981,0 -2.5703,0.83979 -3.374,1.9246 -0.31345,0.42312 -0.67285,0.8795 -0.79863,1.0142 -0.12578,0.1347 -0.46119,0.79592 -0.74535,1.4694 -0.28418,0.67347 -0.5897,1.356 -0.67896,1.5167 -0.65125,1.1729 -0.68465,3.8391 -0.078,6.2253 0.53638,2.1099 0.82771,2.4468 2.012,2.327 0.61246,-0.0619 1.0128,-0.21497 1.3876,-0.53033 z m 34.894,0.6454 c 0,-0.40418 -0.02,-0.41479 -0.3584,-0.19011 -0.52566,0.34903 -0.55326,0.61819 -0.0634,0.61819 0.34627,0 0.42176,-0.0766 0.42176,-0.42808 z m -3.529,13.904 c -0.31438,-0.22989 -0.32878,-0.17288 0.36226,-1.435 0.1352,-0.24694 0.30906,-0.44898 0.38635,-0.44898 0.0773,0 0.71263,-0.85548 1.4119,-1.9011 1.2853,-1.9219 1.8715,-3.1637 1.9157,-4.0581 l 0.0242,-0.4898 h -1.1241 c -0.89274,0 -1.1614,-0.0588 -1.3053,-0.28571 -0.3303,-0.52094 0.0683,-0.84355 1.2213,-0.98845 2.0992,-0.2638 2.0067,-0.19252 2.1526,-1.6589 0.10161,-1.0217 0.0804,-1.3365 -0.10226,-1.5192 -0.19841,-0.1984 -0.3278,-0.16898 -0.93084,0.2117 -1.3244,0.83608 -2.3308,0.82209 -2.546,-0.0354 -0.17891,-0.71282 0.3197,-2.0979 0.97324,-2.7036 0.52498,-0.48654 1.5625,-0.72043 2.0466,-0.46136 0.18041,0.0965 0.50258,0.17554 0.71592,0.17554 0.44919,0 1.4295,-0.88759 1.4295,-1.2943 0,-0.15177 0.10787,-0.41857 0.23971,-0.59288 0.34129,-0.45124 0.30524,-1.4463 -0.0798,-2.201 -0.40473,-0.79335 -0.76966,-0.83001 -2.0884,-0.20984 -0.93127,0.43794 -1.7046,1.1533 -5.1373,4.7526 -1.7592,1.8445 -2.3204,2.1577 -3.8665,2.1577 -1.2608,0 -1.5368,-0.15574 -2.0563,-1.1602 -0.21743,-0.4205 -0.25962,-0.88338 -0.21276,-2.3352 l 0.0584,-1.8108 -1.175,0.0576 c -1.114,0.0546 -2.4281,-0.24281 -2.8984,-0.65605 -0.36049,-0.31674 -0.69399,-0.0972 -1.0951,0.72086 -0.23117,0.47143 -0.47615,1.1115 -0.54438,1.4223 -0.22504,1.0251 -1.047,2.1118 -2.4426,3.2291 -0.56772,0.45453 -0.78983,0.52926 -1.5775,0.53061 -1.0144,0.002 -1.6782,-0.3701 -1.9536,-1.0944 -0.18193,-0.47849 0.13162,-1.8214 0.75374,-3.2281 0.48209,-1.0901 0.5122,-2.461 0.0602,-2.7444 -0.32136,-0.20148 -1.1273,-0.019 -1.1274,0.25525 -5e-5,0.11053 -0.36739,0.51729 -0.81632,0.9039 -0.44893,0.38661 -0.81625,0.80294 -0.81625,0.92516 0,0.12224 -0.0551,0.24673 -0.12245,0.27667 -0.0674,0.0299 -0.25064,0.31156 -0.40733,0.62585 -0.77494,1.5544 -1.2218,2.1904 -1.7281,2.4595 -0.29897,0.15887 -0.66831,0.40175 -0.82075,0.53972 -0.15246,0.13796 -0.6983,0.44364 -1.213,0.67927 -1.0607,0.48561 -1.5877,0.44898 -2.5834,-0.17953 -0.68299,-0.43117 -1.1126,-1.4342 -1.144,-2.6709 -0.0104,-0.41055 -0.0547,-0.59949 -0.0985,-0.4199 -0.0437,0.17959 -0.29767,0.62041 -0.56428,0.97959 -0.26661,0.35918 -0.61918,0.88178 -0.78349,1.1613 -0.78111,1.3289 -3.7396,2.4354 -4.8463,1.8125 -0.39968,-0.22496 -1.5252,-1.8277 -1.5252,-2.1718 0,-0.12454 -0.18368,-0.93337 -0.40817,-1.7974 -0.22449,-0.86401 -0.40816,-1.9341 -0.40816,-2.378 0,-0.89014 0.44088,-3.068 0.67053,-3.3123 0.0802,-0.0853 0.1458,-0.31364 0.1458,-0.5074 0,-0.337 0.97085,-2.3595 1.3565,-2.826 0.10149,-0.12274 0.29698,-0.46238 0.43442,-0.75477 0.24511,-0.52146 2.1835,-2.369 2.4855,-2.369 0.0845,0 0.41837,-0.20204 0.74202,-0.44898 0.5363,-0.40917 0.71264,-0.44898 1.9891,-0.44898 1.2387,0 1.4642,0.0472 1.95,0.40817 0.65346,0.48545 1.4914,2.1123 1.4914,2.8954 0,0.30351 -0.071,0.85987 -0.15782,1.2364 -0.64223,2.7858 -0.82178,4.3319 -0.82178,7.0763 0,2.8057 0.006,2.8535 0.40074,3.2483 0.46287,0.46285 0.76839,0.49218 1.7006,0.16326 0.80043,-0.2824 1.8479,-1.3256 2.4664,-2.4564 0.97341,-1.7796 2.0974,-3.2098 2.8183,-3.5859 0.29273,-0.15272 0.74054,-0.38885 0.99511,-0.52474 0.55623,-0.29688 1.4136,-0.17835 1.8002,0.2489 0.14691,0.16235 0.35113,0.71355 0.45383,1.2249 0.15691,0.78132 0.14135,1.105 -0.0975,2.0282 -0.15634,0.60415 -0.42803,1.4186 -0.60375,1.8098 -0.428,0.95298 -0.35272,1.3959 0.24896,1.4646 0.2578,0.0294 0.62903,0.0134 0.82498,-0.0359 0.53362,-0.13392 1.5272,-1.2057 1.7393,-1.8762 0.10275,-0.3248 0.32276,-0.88441 0.48895,-1.2436 0.16619,-0.35919 0.46808,-1.218 0.67091,-1.9085 0.28026,-0.95419 0.46,-1.297 0.74894,-1.4287 0.42005,-0.1914 0.63311,-0.0993 2.0768,0.89735 0.63753,0.44015 0.97446,0.5615 1.551,0.55869 0.87918,-0.004 2.0266,-0.48845 2.2801,-0.96212 0.14289,-0.267 0.33937,-0.34041 0.91114,-0.34041 0.70178,0 0.72895,0.0183 0.72895,0.49187 0,0.27052 -0.15437,1.0236 -0.34304,1.6735 -0.62789,2.1628 -0.69716,2.6677 -0.47484,3.4618 0.23092,0.8248 0.52594,0.99329 1.4443,0.82481 0.58037,-0.10646 2.077,-0.9456 2.1798,-1.2222 0.0494,-0.13281 2.6612,-3.0077 2.9897,-3.2908 0.0898,-0.0774 0.49388,-0.40289 0.89796,-0.72333 0.40409,-0.32046 0.88164,-0.70548 1.0612,-0.85564 0.3136,-0.26219 1.3763,-0.70392 2.4854,-1.033 0.9203,-0.27313 2.0116,0.49325 2.3289,1.6355 0.40751,1.467 0.0614,2.8854 -1.0156,4.1628 l -0.67928,0.8056 -0.0748,4.8124 1.5798,-0.0845 c 2.802,-0.14989 3.1066,-0.0887 2.8938,0.58185 -0.13363,0.42101 -0.26408,0.46019 -2.7757,0.83371 -1.1353,0.16885 -2.163,0.38896 -2.2837,0.48914 -0.12072,0.1002 -0.4092,0.79062 -0.64107,1.5343 -0.23185,0.74366 -0.59239,1.5509 -0.80119,1.7939 -0.20878,0.24299 -0.59479,0.85306 -0.85778,1.3557 -0.26298,0.50266 -0.74243,1.2174 -1.0654,1.5884 -0.32302,0.37097 -0.71651,0.89489 -0.87442,1.1643 -0.15791,0.26939 -0.53109,0.61321 -0.82926,0.76405 -0.45554,0.23047 -0.58921,0.23984 -0.83693,0.0587 z"
         id="advised" />
    </g>
  </g>
</svg>
