<svg xmlns="http://www.w3.org/2000/svg" height="16.693" width="40.389"><path d="M38.569 14.692c.286-.384.352-.744.398-2.164.051-1.566.032-1.702-.245-1.697-.448.008-1.576.844-1.82 1.349-.117.243-.282.441-.367.441-.24 0-.172.861.096 1.215.132.175.24.446.24.603 0 .36.633.82 1.044.759.171-.025.465-.253.654-.506zm-34.921.376c.056-.091.373-.305.703-.476 1.074-.555 2.577-2.13 3.283-3.44.364-.674.662-1.352.663-1.507.002-.155.292-.893.647-1.64.355-.746.828-2.132 1.052-3.08.224-.947.537-1.995.696-2.328.366-.768.174-1.12-.683-1.26-.699-.114-2.032.153-2.771.556-.561.305-1.966 1.615-2.448 2.281-.18.248-.44.487-.58.532-.14.044-.351.355-.47.692-.118.336-.305.721-.413.856-.585.725-1.192 2.13-1.29 2.982-.06.518-.217 1.253-.35 1.633-.455 1.308-.256 2.746.53 3.834.281.388.512.53.856.53.26 0 .518-.074.575-.165zm-2.328.87C.308 14.888-.125 13.6.03 12.109c.059-.563.18-1.096.27-1.186.088-.089.161-.391.161-.672 0-1.214 1.228-3.929 2.535-5.607.312-.4.568-.823.568-.939 0-.115.329-.436.732-.714.402-.277.809-.647.902-.822.193-.36 1.489-1.22 2.653-1.76C8.413.147 8.97.04 9.86.023L11.093 0l.726.712c.399.392.725.862.724 1.045 0 .333-.674 2.125-.873 2.324-.058.058-.105.26-.105.45 0 .41-.237 1.292-1.04 3.885-.326 1.054-.593 2.096-.593 2.316 0 .22-.064.44-.142.488-.238.148-.374 2.003-.196 2.667.282 1.047.49 1.227 1.156 1 .749-.257 1.223-.635 1.81-1.445 1.857-2.563 3.907-4.295 5.338-4.51.658-.098.764-.063 1.234.406.47.47.513.603.506 1.531-.008.928-.324 2.004-.914 3.113-.234.442.238 1.088.795 1.088.939 0 2.747-1.856 3.19-3.275.11-.354.246-.643.302-.643.055 0 .227-.33.382-.735.154-.404.366-.743.47-.753.5-.05.879.078 1.253.422.868.799 1.298.908 2.46.626.577-.14 1.307-.449 1.621-.687.899-.68 1.35-.833 1.702-.576.358.261.331.41-.46 2.6-.324.898-.589 1.803-.589 2.011 0 .538.29 1.01.62 1.01.497 0 2.377-1.004 3.076-1.641.371-.34.904-.735 1.183-.88.28-.144.509-.367.509-.494s.294-.474.654-.771c.36-.297.963-.816 1.34-1.152.378-.337.77-.613.872-.613.102 0 .318-.147.48-.326.299-.33.835-.423 1.153-.202.095.066.279.377.408.692.308.745.332 4.295.031 4.596-.112.112-.205.39-.206.62-.003.51-.107.662-.732 1.07-1.342.877-1.597.907-2.685.315-.617-.336-.837-.58-1.11-1.224-.454-1.076-.953-1.105-1.91-.112-1.185 1.23-3.788 1.773-4.696.98-.512-.446-.523-1.652-.032-3.699l.113-.473-.718.13c-.92.168-2.132.172-3.168.01l-.818-.127-.275.575c-.369.775-1.625 2.408-2.319 3.018-.515.452-1.966 1.014-2.618 1.014-.558 0-1.515-.639-1.728-1.154-.176-.424-.177-.611-.005-1.029.115-.28.305-.85.422-1.266a8.3 8.3 0 01.485-1.283c.158-.307.231-.69.174-.918-.276-1.102-2.465.244-4.012 2.467-.84 1.207-1.706 2.014-2.787 2.6-1.219.661-1.8.721-2.55.264-.507-.31-.593-.495-.934-2.007-.134-.595-.333-.567-1.158.163-1.276 1.13-1.954 1.62-2.394 1.729-.241.06-.558.228-.704.374-.146.146-.592.303-.99.348-.696.078-.757.049-1.501-.725z"/></svg>