<svg xmlns="http://www.w3.org/2000/svg" height="29.847" width="47.817"><path d="M5.433 15.172c.29-.244.66-.664.824-.933.164-.27.403-.595.53-.723.129-.128.273-.43.321-.67.048-.24.236-.878.418-1.417 1.607-4.759 2.27-7.183 2.27-8.29 0-.466-.135-.737-.627-1.254-.574-.603-.7-.66-1.461-.66-1.098 0-2.57.84-3.374 1.924-.313.423-.673.88-.799 1.014-.125.135-.46.796-.745 1.47-.284.673-.59 1.356-.679 1.516-.651 1.173-.685 3.84-.078 6.226.536 2.11.828 2.447 2.012 2.327.613-.062 1.013-.215 1.388-.53zm34.894.645c0-.404-.02-.415-.359-.19-.525.349-.553.618-.063.618.346 0 .422-.077.422-.428zm-3.53 13.904c-.314-.23-.328-.173.363-1.435.135-.247.309-.449.386-.449.078 0 .713-.855 1.412-1.901 1.285-1.922 1.872-3.164 1.916-4.058l.024-.49h-1.124c-.893 0-1.161-.059-1.305-.286-.33-.52.068-.843 1.22-.988 2.1-.264 2.008-.193 2.154-1.659.101-1.022.08-1.337-.103-1.52-.198-.198-.328-.168-.93.212-1.325.837-2.331.823-2.547-.035-.178-.713.32-2.098.974-2.704.525-.486 1.562-.72 2.046-.46.18.096.503.175.716.175.45 0 1.43-.888 1.43-1.295 0-.151.108-.418.24-.593.34-.45.305-1.446-.08-2.2-.405-.794-.77-.83-2.089-.21-.931.438-1.704 1.153-5.137 4.752-1.76 1.845-2.32 2.158-3.867 2.158-1.26 0-1.536-.156-2.056-1.16-.217-.42-.26-.884-.213-2.335l.059-1.811-1.175.057c-1.114.055-2.428-.242-2.899-.656-.36-.316-.694-.097-1.095.721-.23.472-.476 1.112-.544 1.422-.225 1.026-1.047 2.112-2.443 3.23-.567.454-.79.529-1.577.53-1.015.002-1.678-.37-1.954-1.094-.182-.479.132-1.822.754-3.228.482-1.09.512-2.461.06-2.745-.321-.201-1.127-.019-1.127.255 0 .111-.368.518-.817.904-.449.387-.816.803-.816.926 0 .122-.055.246-.122.276-.068.03-.251.312-.408.626-.775 1.554-1.221 2.19-1.728 2.46-.299.158-.668.401-.82.54-.153.137-.699.443-1.213.679-1.061.485-1.588.449-2.584-.18-.683-.431-1.112-1.434-1.144-2.67-.01-.411-.055-.6-.098-.42-.044.179-.298.62-.565.979-.266.359-.619.882-.783 1.161-.781 1.329-3.74 2.436-4.846 1.813-.4-.225-1.526-1.828-1.526-2.172 0-.125-.183-.934-.408-1.798C.184 12.181 0 11.111 0 10.667c0-.89.44-3.068.67-3.312.08-.085.146-.314.146-.507 0-.337.971-2.36 1.357-2.826.101-.123.297-.463.434-.755C2.852 2.745 4.791.898 5.093.898c.084 0 .418-.202.742-.449C6.37.039 6.547 0 7.824 0c1.239 0 1.464.047 1.95.408.653.486 1.491 2.112 1.491 2.896 0 .303-.07.86-.158 1.236-.642 2.786-.821 4.332-.821 7.076 0 2.806.006 2.854.4 3.249.463.462.769.492 1.701.163.8-.283 1.848-1.326 2.466-2.457.974-1.78 2.098-3.21 2.819-3.585l.995-.525c.556-.297 1.413-.179 1.8.249.147.162.351.713.454 1.225.157.78.141 1.105-.098 2.028-.156.604-.428 1.418-.603 1.81-.428.953-.353 1.395.249 1.464.257.03.629.014.825-.036.533-.134 1.527-1.205 1.739-1.876.103-.325.323-.884.489-1.244.166-.359.468-1.218.67-1.908.281-.954.46-1.297.75-1.429.42-.191.633-.099 2.076.898.638.44.975.561 1.551.558.88-.004 2.027-.488 2.28-.962.143-.267.34-.34.912-.34.701 0 .729.018.729.492 0 .27-.155 1.023-.343 1.673-.628 2.163-.698 2.668-.475 3.462.23.825.526.993 1.444.825.58-.107 2.077-.946 2.18-1.222.05-.133 2.661-3.008 2.99-3.291.09-.078.493-.403.898-.724.404-.32.881-.705 1.06-.855.314-.262 1.377-.704 2.486-1.033.92-.273 2.012.493 2.329 1.635.408 1.467.061 2.886-1.016 4.163l-.679.806-.075 4.812 1.58-.084c2.802-.15 3.107-.09 2.894.581-.134.421-.264.46-2.776.834-1.135.169-2.163.39-2.283.49-.121.1-.41.79-.642 1.534-.231.743-.592 1.55-.8 1.794-.21.242-.596.853-.859 1.355-.262.503-.742 1.218-1.065 1.589-.323.37-.716.894-.874 1.164-.158.27-.531.613-.83.764-.455.23-.589.24-.837.059z" stroke-width=".163"/></svg>