<?xml version="1.0" encoding="UTF-8" standalone="no"?>
<svg
   xmlns:dc="http://purl.org/dc/elements/1.1/"
   xmlns:cc="http://creativecommons.org/ns#"
   xmlns:rdf="http://www.w3.org/1999/02/22-rdf-syntax-ns#"
   xmlns:svg="http://www.w3.org/2000/svg"
   xmlns="http://www.w3.org/2000/svg"
   id="svg2663"
   viewBox="0 0 46.304629 23.578255"
   version="1.1"
   height="23.578255"
   width="46.30463">
  <defs
     id="defs2667" />
  <metadata
     id="metadata2">
    <rdf:RDF>
      <cc:Work
         rdf:about="">
        <dc:format>image/svg+xml</dc:format>
        <dc:type
           rdf:resource="http://purl.org/dc/dcmitype/StillImage" />
        <dc:title />
      </cc:Work>
    </rdf:RDF>
  </metadata>
  <g
     transform="translate(-608.27755,-248.56529)"
     id="g2661">
    <g
       style="stroke-width:0.16327"
       id="g2557">
      <path
         d="m 647.71,257.11 c -0.30472,-0.30472 -0.2483,-0.43055 0.55208,-1.2309 1.0137,-1.0137 1.8642,-2.3114 1.8642,-2.8442 0,-0.24126 -0.18367,-0.65691 -0.40816,-0.92371 -0.45066,-0.53559 -0.50811,-0.84411 -0.21224,-1.14 0.36507,-0.36508 0.90894,-0.21316 1.4091,0.3936 0.56594,0.68658 0.71721,1.5287 0.42552,2.3689 -0.19476,0.56102 -1.6285,2.6106 -1.9102,2.7306 -0.0728,0.031 -0.34233,0.23309 -0.59892,0.44898 -0.51785,0.43575 -0.82794,0.49012 -1.1214,0.19664 z m -33.889,7.3657 c 0.57675,-0.55195 1.6001,-1.9735 1.9882,-2.7616 0.11053,-0.22449 0.34744,-0.63719 0.5265,-0.91713 0.41432,-0.64777 0.94111,-2.652 1.1474,-4.3653 0.0881,-0.73141 0.26336,-1.7707 0.38957,-2.3094 0.1262,-0.53877 0.27802,-1.5026 0.33738,-2.1419 0.10722,-1.1546 0.1047,-1.1646 -0.38067,-1.5102 -0.71476,-0.50895 -2.5398,-0.49799 -3.2372,0.0194 -0.9936,0.73726 -1.8805,1.6934 -2.3847,2.5712 -0.28382,0.49401 -0.64924,1.1186 -0.81207,1.388 -0.54018,0.8937 -0.74411,1.455 -1.0974,3.0204 -0.6304,2.7936 -0.69413,3.3267 -0.6034,5.0492 0.0729,1.385 0.14825,1.7608 0.40402,2.0166 0.41138,0.41137 1.2097,0.60235 2.2774,0.54482 0.72598,-0.0391 0.95453,-0.13466 1.445,-0.60403 z m -3.9416,1.478 c -0.76475,-0.29435 -0.84354,-0.37943 -1.2132,-1.3101 -0.50277,-1.2658 -0.51866,-3.3148 -0.0423,-5.4601 0.17944,-0.80817 0.37476,-1.8846 0.43405,-2.3922 0.0763,-0.65262 0.24704,-1.1067 0.58334,-1.551 0.26151,-0.34555 0.47802,-0.73847 0.48112,-0.87316 0.003,-0.13469 0.15279,-0.46531 0.33264,-0.73469 0.17987,-0.26939 0.48042,-0.80329 0.6679,-1.1864 0.18746,-0.38316 0.48064,-0.77146 0.65148,-0.86289 0.17084,-0.0914 0.31063,-0.27399 0.31063,-0.40566 0,-0.13169 0.36734,-0.50335 0.81632,-0.82591 0.44898,-0.32255 0.81633,-0.65398 0.81633,-0.73648 0,-0.21103 1.5836,-0.88689 2.3736,-1.013 1.3482,-0.21526 2.552,0.5193 3.3502,2.0443 0.51613,0.9861 0.37017,3.675 -0.26756,4.9295 -0.19023,0.37419 -0.29487,1.3543 -0.40261,3.7709 -0.16297,3.6556 -0.0472,4.4757 0.71203,5.0425 0.41605,0.31061 0.44294,0.31115 1.0849,0.0217 0.36206,-0.16326 0.8563,-0.56134 1.0983,-0.8846 0.24203,-0.32328 0.68317,-0.84278 0.98031,-1.1544 0.29713,-0.31168 0.54025,-0.62376 0.54025,-0.69351 0,-0.20328 1.0921,-1.6324 1.6722,-2.1881 1.0389,-0.99532 1.939,-1.5313 2.5719,-1.5313 0.73632,0 1.0074,0.28169 1.3839,1.4383 0.31283,0.96088 0.27169,1.426 -0.2802,3.1684 -0.33769,1.0662 -0.339,1.1056 -0.0467,1.4286 0.48906,0.5404 1.0857,0.42085 1.8984,-0.38037 0.6529,-0.64367 0.80046,-0.94718 1.5281,-3.1429 0.44295,-1.3367 0.8829,-2.487 0.97768,-2.5563 0.23569,-0.17221 1.2308,0.0182 1.4995,0.28694 0.24681,0.24679 1.4698,0.53825 2.8747,0.68509 0.77937,0.0815 1.2152,0.0113 2.533,-0.4081 0.87539,-0.27858 2.0526,-0.63182 2.6159,-0.78499 1.0106,-0.27476 1.0341,-0.27359 1.7574,0.0877 1.0994,0.54905 1.6329,1.9035 0.90359,2.2938 -0.43789,0.23437 -0.76282,0.0689 -1.1752,-0.59835 -0.33293,-0.53869 -0.39182,-0.56617 -1.0036,-0.46836 -0.35744,0.0572 -0.80387,0.21177 -0.99207,0.34359 -0.18818,0.13181 -0.46736,0.23966 -0.62038,0.23966 -0.16643,0 -0.48654,0.3641 -0.79663,0.9061 -0.55613,0.97202 -0.57194,1.5161 -0.0719,2.4748 0.13079,0.25073 0.23825,0.55147 0.23879,0.66828 0.004,0.78501 3.6295,1.048 5.1437,0.37305 0.44889,-0.20009 1.0366,-0.53166 1.3061,-0.73685 0.26948,-0.20518 0.65765,-0.42606 0.86256,-0.49084 0.20493,-0.0648 0.53554,-0.2835 0.73469,-0.48601 0.54137,-0.5505 1.4224,-1.8334 1.43,-2.0821 0.004,-0.12002 0.22407,-0.47258 0.4898,-0.78347 0.26575,-0.31088 0.48317,-0.6304 0.48317,-0.71002 0,-0.0796 0.10705,-0.37626 0.23787,-0.65923 0.63524,-1.3738 1.8786,-5.5067 1.8826,-6.2579 0.004,-0.74059 0.96994,-1.174 1.2888,-0.57832 0.16397,0.30638 0.0131,1.7995 -0.28426,2.8116 -0.24952,0.84948 -0.68686,2.1592 -0.84498,2.5306 -0.0765,0.17959 -0.1698,0.62041 -0.20738,0.97959 -0.0376,0.35919 -0.22542,1.2342 -0.41742,1.9445 -0.38319,1.4175 -0.46639,3.4841 -0.16371,4.0662 0.10198,0.19615 0.3266,0.49198 0.49917,0.65744 0.68537,0.65706 0.0556,1.4611 -0.8505,1.0858 -0.62558,-0.25911 -1.1037,-1.1938 -1.2523,-2.448 -0.0532,-0.44888 -0.16182,-0.81616 -0.24148,-0.81616 -0.0796,0 -0.71226,0.44832 -1.4058,0.99628 -1.2484,0.98628 -3.9184,2.4003 -5.1794,2.7428 -1.5002,0.40757 -2.8856,0.10058 -4.1491,-0.91942 -0.92483,-0.74659 -0.98816,-0.83485 -0.99128,-1.3815 -0.002,-0.24163 -0.0663,-0.47876 -0.14424,-0.52694 -0.23904,-0.14774 -0.3755,-1.6978 -0.18139,-2.0605 0.0979,-0.18287 0.12924,-0.48601 0.0697,-0.67362 -0.10041,-0.31634 -0.1867,-0.33307 -1.1885,-0.23043 -0.62919,0.0645 -1.6785,0.026 -2.513,-0.0921 -1.3518,-0.19133 -1.4457,-0.18511 -1.6615,0.11004 -0.12581,0.17205 -0.27615,0.67007 -0.33406,1.1067 -0.10421,0.78562 -0.30705,1.2792 -0.70253,1.7095 -0.11224,0.12213 -0.20408,0.33991 -0.20408,0.48395 0,0.3548 -1.9168,2.1638 -2.2927,2.1638 -0.16513,0 -0.34565,0.0735 -0.40115,0.16327 -0.0555,0.0898 -0.40881,0.16275 -0.78514,0.16215 -0.58856,-0.002 -0.73438,-0.0752 -1.0427,-0.53061 -0.53649,-0.79244 -0.81353,-1.9735 -0.57239,-2.44 0.67549,-1.307 0.86634,-2.7021 0.42942,-3.139 -0.31068,-0.31068 -0.27984,-0.30968 -0.948,-0.0305 -0.54746,0.22876 -3.3669,3.3268 -3.3669,3.6997 0,0.22708 -1.4956,1.7336 -2.2293,2.2455 -0.72528,0.50609 -1.9966,0.50193 -2.4379,-0.008 -0.79159,-0.91472 -1.178,-1.5559 -1.2792,-2.1224 -0.13625,-0.7632 -0.49816,-0.80148 -0.8776,-0.0928 -0.15296,0.28567 -0.43053,0.67138 -0.61682,0.85715 -0.18628,0.18576 -0.38303,0.45854 -0.43722,0.60619 -0.16007,0.43608 -1.1261,1.0605 -1.9494,1.2601 -1.1241,0.27251 -2.548,0.21273 -3.4803,-0.14606 z m 23.308,6.1012 c -0.23234,-0.0937 -0.26754,-0.68182 -0.0604,-1.0087 0.0763,-0.12038 0.30673,-0.30405 0.5121,-0.40817 0.39861,-0.20212 0.43424,-0.25511 0.98529,-1.4658 0.38874,-0.85409 0.36885,-1.9907 -0.0404,-2.3096 -0.1193,-0.093 -0.31328,-0.38642 -0.43106,-0.65215 -0.18859,-0.42545 -0.17962,-0.50843 0.0751,-0.69465 0.15907,-0.11632 0.44001,-0.16596 0.62431,-0.11033 1.6173,0.48826 1.8474,3.4331 0.41934,5.3662 -0.91502,1.2386 -1.4216,1.5505 -2.0842,1.2832 z"
         id="advocate" />
    </g>
  </g>
</svg>
