<svg xmlns="http://www.w3.org/2000/svg" height="23.578" width="46.305"><path d="M39.432 8.545c-.304-.305-.248-.43.553-1.231 1.013-1.014 1.864-2.312 1.864-2.844 0-.242-.184-.657-.408-.924-.451-.536-.509-.844-.213-1.14.365-.365.91-.213 1.41.394a2.38 2.38 0 01.425 2.368c-.195.561-1.629 2.611-1.91 2.731-.073.031-.343.233-.6.449-.517.436-.827.49-1.12.197zM5.543 15.91c.577-.552 1.6-1.973 1.989-2.761.11-.225.347-.637.526-.917.414-.648.941-2.652 1.148-4.366.088-.731.263-1.77.39-2.309.125-.539.277-1.503.337-2.142.107-1.155.104-1.165-.381-1.51-.715-.51-2.54-.498-3.237.02-.994.737-1.88 1.693-2.385 2.57-.284.494-.65 1.12-.812 1.388-.54.894-.744 1.455-1.098 3.02-.63 2.794-.694 3.328-.603 5.05.073 1.385.148 1.76.404 2.017.411.411 1.21.602 2.277.545.726-.04.955-.135 1.445-.605zm-3.941 1.478c-.765-.294-.844-.379-1.213-1.31-.503-1.265-.519-3.314-.043-5.46.18-.808.375-1.884.434-2.392.077-.653.247-1.107.584-1.551.261-.346.478-.738.48-.873.004-.135.154-.465.334-.735.18-.27.48-.803.667-1.186.188-.383.481-.772.652-.863.17-.092.31-.274.31-.406 0-.131.368-.503.817-.826.449-.322.816-.654.816-.736C5.44.839 7.024.163 7.814.037c1.348-.215 2.552.52 3.35 2.044.516.986.37 3.675-.268 4.93-.19.374-.294 1.354-.402 3.77-.163 3.656-.047 4.476.712 5.043.416.31.443.311 1.085.022.362-.164.856-.562 1.098-.885.242-.323.683-.843.98-1.154.297-.312.54-.624.54-.694 0-.203 1.093-1.632 1.673-2.188 1.039-.995 1.939-1.531 2.572-1.531.736 0 1.007.282 1.384 1.438.312.961.271 1.426-.28 3.169-.338 1.066-.34 1.105-.047 1.428.489.54 1.085.421 1.898-.38.653-.644.8-.947 1.528-3.143.443-1.337.883-2.487.978-2.556.236-.173 1.23.018 1.5.286.246.247 1.47.539 2.874.686.78.081 1.215.01 2.533-.409a81.058 81.058 0 012.616-.785c1.01-.274 1.034-.273 1.757.088 1.1.55 1.633 1.904.904 2.294-.438.234-.763.069-1.175-.598-.333-.54-.392-.567-1.004-.469-.357.057-.804.212-.992.344-.188.132-.467.24-.62.24-.167 0-.487.364-.797.906-.556.972-.572 1.516-.072 2.474.131.251.238.552.239.669.004.785 3.63 1.048 5.144.373.449-.2 1.036-.532 1.306-.737.27-.205.657-.426.862-.49.205-.066.536-.284.735-.487.541-.55 1.422-1.833 1.43-2.082.004-.12.224-.473.49-.784.266-.31.483-.63.483-.71 0-.08.107-.376.238-.659.635-1.374 1.878-5.506 1.882-6.258.004-.74.97-1.174 1.29-.578.163.306.012 1.8-.285 2.812-.25.85-.687 2.159-.845 2.53-.076.18-.17.62-.207.98-.038.359-.226 1.234-.418 1.944-.383 1.418-.466 3.484-.163 4.067.101.196.326.491.499.657.685.657.055 1.461-.85 1.086-.626-.26-1.105-1.194-1.253-2.448-.053-.45-.162-.816-.242-.816-.08 0-.712.448-1.405.996-1.249.986-3.919 2.4-5.18 2.743-1.5.407-2.885.1-4.149-.92-.925-.746-.988-.835-.991-1.381-.002-.242-.066-.479-.144-.527-.24-.148-.376-1.698-.182-2.06.098-.184.13-.487.07-.674-.1-.317-.187-.333-1.189-.23-.629.064-1.678.025-2.513-.093-1.351-.191-1.445-.185-1.661.11-.126.172-.276.67-.334 1.107-.104.786-.307 1.28-.703 1.71a.842.842 0 00-.204.483c0 .355-1.917 2.164-2.292 2.164-.166 0-.346.074-.402.163-.055.09-.408.163-.785.163-.588-.002-.734-.076-1.042-.531-.537-.792-.814-1.974-.573-2.44.676-1.307.866-2.702.43-3.139-.311-.31-.28-.31-.948-.03-.548.228-3.367 3.326-3.367 3.7 0 .226-1.496 1.733-2.23 2.245-.725.506-1.996.502-2.438-.008-.791-.915-1.178-1.556-1.279-2.123-.136-.763-.498-.801-.877-.093a4.36 4.36 0 01-.617.858c-.186.185-.383.458-.437.606-.16.436-1.126 1.06-1.95 1.26-1.124.272-2.548.213-3.48-.146zM24.91 23.49c-.232-.094-.268-.682-.06-1.01.076-.12.306-.303.512-.407.398-.202.434-.255.985-1.466.389-.854.369-1.99-.04-2.31-.12-.093-.314-.386-.432-.652-.188-.425-.18-.508.075-.694a.804.804 0 01.625-.11c1.617.487 1.847 3.432.42 5.365-.916 1.239-1.422 1.55-2.085 1.284z" stroke-width=".163"/></svg>