<?xml version="1.0" encoding="UTF-8" standalone="no"?>
<svg
   xmlns:dc="http://purl.org/dc/elements/1.1/"
   xmlns:cc="http://creativecommons.org/ns#"
   xmlns:rdf="http://www.w3.org/1999/02/22-rdf-syntax-ns#"
   xmlns:svg="http://www.w3.org/2000/svg"
   xmlns="http://www.w3.org/2000/svg"
   id="svg2663"
   viewBox="0 0 18.049776 30.945292"
   version="1.1"
   height="30.945292"
   width="18.049776">
  <defs
     id="defs2667" />
  <metadata
     id="metadata2">
    <rdf:RDF>
      <cc:Work
         rdf:about="">
        <dc:format>image/svg+xml</dc:format>
        <dc:type
           rdf:resource="http://purl.org/dc/dcmitype/StillImage" />
        <dc:title />
      </cc:Work>
    </rdf:RDF>
  </metadata>
  <g
     transform="translate(-609.65457,-271.51001)"
     id="g2661">
    <g
       style="stroke-width:0.16327"
       id="g2557">
      <path
         d="m 619.8,279.89 c -0.36762,-0.14834 -0.23428,-1.0106 0.21693,-1.403 0.66926,-0.58191 1.538,-2.1365 1.5396,-2.7552 0.002,-0.41651 -0.12006,-0.65001 -0.49905,-0.96158 -0.82627,-0.67934 -0.32597,-1.2261 0.93466,-1.0216 0.66268,0.10753 1.194,0.80747 1.195,1.5742 0,0.56975 -0.55665,1.7266 -1.6233,3.369 -0.39009,0.60065 -1.2598,1.3488 -1.5033,1.2932 -0.031,-0.007 -0.14828,-0.05 -0.26053,-0.0953 z m -9.9592,2.9388 c -0.36869,-0.14877 -0.21618,-0.57197 0.69388,-1.9257 0.88168,-1.3115 0.89796,-1.357 0.89796,-2.5116 0,-1.0859 -0.0303,-1.1897 -0.39561,-1.3561 -0.42712,-0.19461 -0.65734,-0.79381 -0.49795,-1.296 0.0709,-0.22343 0.25047,-0.31266 0.62911,-0.31266 1.665,0 2.3357,3.3669 1.0797,5.4196 -0.29148,0.47636 -0.63368,0.92643 -0.76046,1.0002 -0.12679,0.0737 -0.45064,0.34924 -0.71969,0.61224 -0.49828,0.48707 -0.56796,0.51489 -0.9269,0.37006 z m 4.7528,17.7 c 0.49112,-0.64816 1.1477,-2.0713 1.4118,-3.0603 0.10779,-0.40357 0.32886,-0.99423 0.49126,-1.3126 0.43943,-0.86134 0.71109,-3.9986 0.49529,-5.7196 -0.0944,-0.75257 -0.17158,-1.4621 -0.17158,-1.5767 0,-0.46641 -0.46186,-0.16625 -0.62145,0.40389 -0.0943,0.33673 -0.29571,0.94286 -0.44768,1.3469 -0.15196,0.40408 -0.40445,1.4326 -0.56111,2.2857 -0.30537,1.6631 -0.90436,3.958 -1.1556,4.4275 -0.0846,0.15804 -0.26812,0.78774 -0.40787,1.3993 -0.13974,0.61158 -0.29512,1.2777 -0.34531,1.4802 -0.10792,0.4356 0.1927,0.85622 0.61193,0.85622 0.16402,0 0.47916,-0.23878 0.70028,-0.53062 z m -1.7862,1.8907 c -0.40441,-0.0567 -0.56098,-0.2023 -0.79984,-0.74367 -0.26596,-0.60283 -0.27553,-0.78528 -0.0916,-1.7468 0.11295,-0.59053 0.42005,-1.7349 0.68246,-2.5431 0.72177,-2.2228 0.75507,-2.3445 1.0495,-3.8367 0.15061,-0.76326 0.49033,-2.0383 0.75495,-2.8335 0.4871,-1.4637 0.69771,-2.4275 0.95066,-4.3502 0.0768,-0.58367 0.28887,-1.5973 0.4713,-2.2525 0.21079,-0.75707 0.36602,-1.9472 0.42588,-3.2653 0.0518,-1.1407 0.2009,-2.7352 0.33131,-3.5434 0.13043,-0.80816 0.23744,-1.8427 0.2378,-2.299 0,-0.92786 0.55894,-2.889 0.9271,-3.2572 0.49445,-0.49446 1.1159,-0.16889 0.98821,0.51769 -0.4935,2.6526 -0.90294,5.9553 -1.0921,8.8091 -0.072,1.0861 -0.21683,2.1352 -0.32187,2.3315 -0.10505,0.1963 -0.20557,0.88729 -0.2234,1.5356 l -0.0324,1.1787 0.62893,-0.05 c 0.34591,-0.0275 0.71326,-0.11866 0.81633,-0.20261 0.10307,-0.084 0.71384,-0.57576 1.3573,-1.0929 1.1709,-0.9411 2.8704,-3.0667 3.232,-4.0423 0.41252,-1.1132 0.91858,-1.8673 1.2583,-1.8751 0.06,-0.002 0.40811,0.28477 0.77355,0.63589 0.44785,0.43028 0.87487,0.67393 1.31,0.74744 0.3551,0.06 0.74002,0.22283 0.8554,0.36185 0.26197,0.31566 0.25196,1.3923 -0.0209,2.2523 -0.11398,0.35918 -0.28469,1.2905 -0.37935,2.0696 l -0.17213,1.4166 0.52617,0.59926 c 0.61595,0.70152 0.60536,1.0524 -0.0383,1.2669 -1.4829,0.49407 -2.3647,-1.8114 -1.6432,-4.2964 0.57238,-1.9715 0.52811,-2.1734 -0.57218,-2.6107 -0.55363,-0.22005 -0.56268,-0.21636 -1.1837,0.48342 -0.34418,0.38784 -0.62578,0.81502 -0.62578,0.94929 0,0.13429 -0.33061,0.53516 -0.7347,0.89085 -0.40408,0.35568 -0.73469,0.74445 -0.73469,0.86391 0,0.25994 -1.756,1.818 -2.7425,2.4333 -0.38591,0.24073 -0.74547,0.55185 -0.799,0.69136 -0.0536,0.13951 0.0127,1.1833 0.14726,2.3196 0.25984,2.1945 0.18425,4.5547 -0.16646,5.198 -0.10692,0.19613 -0.1944,0.53612 -0.1944,0.75551 0,0.2194 -0.11021,0.49037 -0.2449,0.60216 -0.13469,0.11179 -0.2449,0.30901 -0.2449,0.43828 0,0.74531 -1.111,3.4104 -1.7453,4.1865 -0.20743,0.25382 -0.37715,0.55428 -0.37715,0.66767 0,0.42851 -1.4492,0.79265 -2.5436,0.6391 z"
         id="affair" />
    </g>
  </g>
</svg>
