<svg xmlns="http://www.w3.org/2000/svg" height="30.945" width="18.05"><path d="M10.145 8.38c-.367-.148-.234-1.01.217-1.403.67-.582 1.538-2.137 1.54-2.755.002-.417-.12-.65-.5-.962-.825-.68-.325-1.226.936-1.021.662.107 1.194.807 1.195 1.574 0 .57-.557 1.726-1.624 3.369-.39.6-1.26 1.349-1.503 1.293a3 3 0 01-.26-.095zM.186 11.319c-.368-.149-.216-.572.694-1.926.882-1.311.898-1.357.898-2.512 0-1.085-.03-1.19-.396-1.356C.955 5.331.725 4.732.885 4.23c.07-.223.25-.312.629-.312 1.665 0 2.335 3.367 1.08 5.42-.292.476-.634.926-.761 1-.127.073-.45.349-.72.612-.498.487-.568.515-.927.37zm4.753 17.7c.491-.648 1.148-2.072 1.412-3.06a8.09 8.09 0 01.491-1.313c.44-.861.711-3.999.495-5.72-.094-.752-.171-1.462-.171-1.576 0-.467-.462-.167-.622.403-.094.337-.295.943-.447 1.347-.152.404-.405 1.433-.561 2.286-.306 1.663-.905 3.958-1.156 4.428-.085.158-.268.787-.408 1.399-.14.611-.295 1.278-.345 1.48-.108.436.192.856.612.856.164 0 .479-.238.7-.53zm-1.786 1.89c-.405-.056-.561-.202-.8-.743-.266-.603-.276-.785-.092-1.747.113-.59.42-1.735.683-2.543.722-2.223.755-2.345 1.05-3.837.15-.763.49-2.038.754-2.833.487-1.464.698-2.428.951-4.35a20.01 20.01 0 01.471-2.253c.211-.757.366-1.947.426-3.265.052-1.141.201-2.735.331-3.544.13-.808.238-1.842.238-2.299 0-.928.56-2.889.927-3.257.495-.494 1.116-.169.989.518-.494 2.652-.903 5.955-1.093 8.809-.072 1.086-.216 2.135-.321 2.331-.105.197-.206.888-.224 1.536l-.032 1.179.629-.05c.346-.028.713-.119.816-.203l1.357-1.093c1.171-.94 2.87-3.067 3.232-4.042.413-1.113.919-1.867 1.259-1.875.06-.002.408.285.773.636.448.43.875.674 1.31.747.355.06.74.223.856.362.262.316.252 1.392-.021 2.252-.114.36-.285 1.29-.38 2.07l-.172 1.416.526.6c.616.701.606 1.052-.038 1.267-1.483.494-2.365-1.812-1.643-4.297.572-1.971.528-2.173-.572-2.61-.554-.22-.563-.217-1.184.483-.344.388-.626.815-.626.95 0 .134-.33.534-.734.89-.405.356-.735.745-.735.864 0 .26-1.756 1.818-2.743 2.433-.386.241-.745.552-.799.692-.053.14.013 1.183.148 2.32.26 2.194.184 4.554-.167 5.197a1.876 1.876 0 00-.194.756c0 .22-.11.49-.245.602-.135.112-.245.309-.245.438 0 .746-1.111 3.41-1.745 4.187-.208.254-.378.554-.378.667 0 .429-1.449.793-2.543.64z"/></svg>