<svg xmlns="http://www.w3.org/2000/svg" height="31.452" width="19.913"><path d="M.28 7.841c-.31-.081-.374-.384-.134-.63.47-.48 1.547-4.104 1.37-4.605a2.146 2.146 0 00-.335-.557C.805 1.609.98 1.023 1.504.963c.652-.075 1.43.81 1.43 1.626 0 .723-.382 2.333-.846 3.568C1.782 6.972.986 7.982.686 7.934a6.029 6.029 0 01-.405-.093zm16.605 16.915c-.136-.22.074-2.587.26-2.937.075-.14.223-.912.328-1.714.219-1.656.507-2.356.97-2.356.504 0 .673.51.489 1.478a9.995 9.995 0 00-.162 1.516c0 .891-.646 3.547-.95 3.904-.272.32-.77.378-.935.109zM5.007 29.471c.197-.184.405-.564.462-.845.057-.28.238-.914.403-1.408.166-.494.352-1.228.415-1.632.062-.404.22-.942.349-1.194.379-.74.187-4.237-.353-6.439-.056-.227-.214-.367-.414-.367-.275 0-.323.111-.323.737 0 .842-.281 2.024-1.076 4.524-.306.963-.559 2.065-.56 2.45-.003.383-.15 1.354-.327 2.158-.178.804-.323 1.627-.323 1.829 0 .753 1.023.863 1.747.187zm-2.26 1.745c-.238-.13-.513-.468-.613-.753-.31-.889-.251-1.747.325-4.796.102-.538.219-1.2.26-1.47.041-.268.172-.71.291-.979.449-1.016.885-2.66 1.063-4 .167-1.26.367-2.494.823-5.06.088-.495.237-1.633.333-2.531.375-3.539.488-4.434.64-5.062.087-.359.16-1.063.163-1.565.004-.974.538-3.791.847-4.47.233-.51.746-.69 1.065-.37.252.251.24.374-.523 5.18-.464 2.922-1.059 7.775-1.059 8.632 0 .472.042.512.55.512.76 0 1.91-.54 2.94-1.38.477-.387 1.016-.752 1.2-.81.184-.058.539-.402.79-.763.25-.362.658-.802.906-.98.249-.176.496-.459.55-.628.053-.169.406-.455.784-.635.379-.18.81-.475.96-.654.19-.228.562-.359 1.225-.431a21.033 21.033 0 001.292-.173c.64-.13 1.846 1.586 1.34 1.907-.326.207-.85.163-1.2-.101-.424-.321-1.077-.31-1.789.029-.484.231-.698.516-1.239 1.654l-.653 1.375.44.87c.623 1.23 1.007 1.539 2.047 1.645.717.073 1.052.012 1.831-.334 1.026-.455 1.577-.383 1.577.205 0 .432-.445.763-1.55 1.156-1.141.405-2.417.454-3.203.124-.71-.298-1.777-1.244-1.778-1.576 0-.14-.139-.482-.308-.759a4.029 4.029 0 01-.42-1.02c-.13-.595-.39-.65-.931-.2l-1.225 1.02c-.91.76-2.204 1.602-2.458 1.602-.309 0-.698.604-.693 1.074.003.262.111.66.24.885.128.224.235.789.239 1.255.003.465.085 1.053.183 1.306.097.252.18 1.12.185 1.929.006 1.184-.072 1.675-.4 2.53-.223.584-.46 1.496-.526 2.027-.141 1.138-.874 3.05-1.371 3.58-.193.205-.351.43-.351.5s-.166.265-.368.433c-.45.375-1.798.414-2.431.07z" stroke-width=".163"/></svg>