<?xml version="1.0" encoding="UTF-8" standalone="no"?>
<svg
   xmlns:dc="http://purl.org/dc/elements/1.1/"
   xmlns:cc="http://creativecommons.org/ns#"
   xmlns:rdf="http://www.w3.org/1999/02/22-rdf-syntax-ns#"
   xmlns:svg="http://www.w3.org/2000/svg"
   xmlns="http://www.w3.org/2000/svg"
   id="svg2663"
   viewBox="0 0 30.190719 31.657631"
   version="1.1"
   height="31.657631"
   width="30.19072">
  <defs
     id="defs2667" />
  <metadata
     id="metadata2">
    <rdf:RDF>
      <cc:Work
         rdf:about="">
        <dc:format>image/svg+xml</dc:format>
        <dc:type
           rdf:resource="http://purl.org/dc/dcmitype/StillImage" />
        <dc:title />
      </cc:Work>
    </rdf:RDF>
  </metadata>
  <g
     transform="translate(-608.98,-319.34692)"
     id="g2661">
    <g
       style="stroke-width:0.16327"
       id="g2557">
      <path
         d="m 608.98,326.6 c 0,-0.28086 0.30225,-0.76817 0.89582,-1.4442 1.0504,-1.1965 1.7799,-2.6956 1.6343,-3.3586 -0.0539,-0.24562 -0.27794,-0.61556 -0.49778,-0.82208 -0.49105,-0.46134 -0.54183,-1.2229 -0.0894,-1.3412 0.73116,-0.1912 1.0813,0.0452 1.5336,1.0357 0.50598,1.1079 0.52102,1.2684 0.21289,2.2726 -0.49324,1.6077 -0.82218,2.1054 -2.1999,3.329 -0.97482,0.86578 -1.4895,0.97937 -1.4895,0.3287 z m 17.748,17.143 c -0.69559,-0.37715 -0.81384,-0.89008 -0.59695,-2.5893 0.45687,-3.579 1.0764,-4.9922 1.8917,-4.3155 0.28387,0.23561 0.27062,0.40124 -0.25827,3.2254 -0.31802,1.6982 -0.32589,1.889 -0.0927,2.2449 0.36227,0.5529 1.6542,0.54363 2.7648,-0.0199 0.44175,-0.22411 0.89556,-0.40748 1.0085,-0.40748 0.11292,0 0.61798,-0.42245 1.1224,-0.93877 1.3939,-1.4269 3.1732,-4.3358 3.4104,-5.5756 0.0584,-0.30537 0.24168,-0.85639 0.40723,-1.2245 0.40823,-0.90764 1.0034,-2.7824 1.0034,-3.1606 0,-0.16921 0.10408,-0.633 0.23128,-1.0306 0.12722,-0.39762 0.27527,-0.92387 0.32903,-1.1695 0.10645,-0.48636 0.79858,-0.79053 1.104,-0.48515 0.39455,0.39454 -0.25998,3.7923 -1.0916,5.6664 -0.3505,0.78991 -0.5727,1.5698 -0.5727,2.01 0,0.46634 -0.355,1.739 -0.92039,3.2996 -0.21215,0.58558 -0.38573,1.3977 -0.38573,1.8047 0,0.63141 0.0839,0.82132 0.57143,1.2939 0.68253,0.66153 0.72199,1.0218 0.14088,1.2866 -0.37832,0.17238 -0.50683,0.1433 -1.0595,-0.2397 -0.49882,-0.34569 -0.68669,-0.62578 -0.90795,-1.3536 -0.15345,-0.50476 -0.29784,-0.94506 -0.32088,-0.97841 -0.066,-0.0955 -1.4815,0.76885 -1.9142,1.1688 -0.63726,0.58913 -1.5779,1.1058 -2.291,1.2585 -0.36729,0.0786 -0.96167,0.2194 -1.3208,0.31282 -0.91192,0.23721 -1.7166,0.20757 -2.2524,-0.0829 z m -14.236,4.9551 c 0.68709,-0.79672 1.223,-1.7661 1.223,-2.2123 0,-0.34809 0.59411,-2.7439 0.73827,-2.9772 0.41314,-0.66846 0.58127,-5.6523 0.23022,-6.824 -0.22986,-0.76723 -0.74227,-0.95032 -0.87621,-0.31306 -0.0425,0.20204 -0.15017,0.7385 -0.23935,1.1921 -0.16704,0.84973 -0.84731,3.2689 -1.1224,3.9916 -0.0855,0.22449 -0.20939,0.77551 -0.27538,1.2245 -0.066,0.44898 -0.19391,0.95444 -0.28423,1.1232 -0.265,0.49516 -0.77866,3.2118 -0.781,4.1304 -0.002,0.79781 0.26622,1.3586 0.64986,1.3586 0.0764,0 0.40817,-0.31225 0.73729,-0.69388 z m -2.0196,2.0227 c -0.7718,-0.7718 -1.0163,-2.1967 -0.67639,-3.9411 0.161,-0.82612 1.4152,-5.5184 1.9419,-7.2648 0.18946,-0.62829 0.34448,-1.321 0.34448,-1.5394 0,-0.2184 0.0723,-0.62273 0.16078,-0.89848 0.0884,-0.27577 0.44914,-1.383 0.80162,-2.4606 0.72591,-2.2193 1.6498,-5.9804 1.6498,-6.716 0,-0.26951 0.10232,-0.85233 0.22736,-1.2952 0.12505,-0.44282 0.31623,-1.7235 0.42487,-2.846 0.10862,-1.1224 0.29778,-2.4808 0.42034,-3.0187 0.27584,-1.2105 0.83246,-1.7049 1.3438,-1.1936 0.22344,0.22344 0.26826,1.6993 0.0556,1.8307 -0.0772,0.0477 -0.19108,0.65815 -0.25312,1.3566 -0.062,0.69841 -0.21739,1.8943 -0.34523,2.6576 -0.42321,2.5269 -0.73136,4.1601 -0.83169,4.4082 -0.14733,0.36428 -0.40917,2.251 -0.44184,3.1837 -0.0282,0.80528 -0.0215,0.81702 0.49187,0.86673 0.31095,0.0301 0.87592,-0.11775 1.4035,-0.36735 0.48568,-0.22976 0.9336,-0.41774 0.99539,-0.41774 0.0618,0 0.61653,-0.51429 1.2328,-1.1429 0.61623,-0.62857 1.1844,-1.1429 1.2625,-1.1429 0.0782,0 0.48096,-0.31224 0.89512,-0.69387 1.111,-1.0237 2.0901,-1.8283 2.3115,-1.8994 0.10729,-0.0345 0.50373,-0.31197 0.881,-0.61669 1.5322,-1.2375 3.0515,-1.5354 3.9546,-0.77552 0.29733,0.2502 0.50231,0.57854 0.50231,0.80467 0,0.37474 -0.37866,0.8951 -0.65136,0.8951 -0.32426,0 -0.65476,-0.21484 -0.65476,-0.42563 0,-0.16002 -0.21343,-0.22743 -0.7201,-0.22743 -0.65234,0 -0.79828,0.0799 -1.551,0.84855 -0.46942,0.47938 -0.83092,0.99873 -0.83092,1.1937 0,0.18983 -0.14397,0.49967 -0.31993,0.68854 -0.56825,0.60994 -0.56,1.0399 0.0417,2.1759 l 0.5574,1.0524 1.3236,0.0473 c 1.0739,0.0384 1.4467,-0.0155 1.9764,-0.28572 0.89686,-0.45753 1.1558,-0.43153 1.1545,0.11595 -0.002,0.449 -0.0956,0.53633 -1.5479,1.4313 -0.76346,0.47045 -2.7512,0.43767 -3.553,-0.0586 -0.33673,-0.20839 -0.61224,-0.43254 -0.61224,-0.49808 0,-0.0655 -0.12898,-0.26158 -0.28663,-0.43565 -0.32855,-0.36279 -0.68831,-1.4677 -0.80744,-2.4798 -0.10683,-0.90769 -0.53338,-0.92823 -1.3392,-0.0645 -0.32294,0.34617 -0.75248,0.71609 -0.95452,0.82207 -0.20204,0.10598 -0.36734,0.29136 -0.36734,0.41198 0,0.47798 -2.2007,1.8295 -3.9809,2.4449 -0.2676,0.0925 -0.29176,0.20644 -0.18634,0.87856 0.43538,2.7758 0.33587,4.7985 -0.41629,8.4621 -0.30224,1.4721 -0.49184,2.002 -1.3975,3.9061 -0.91786,1.9296 -2.7808,3.0707 -3.6289,2.2227 z"
         id="affectionate" />
    </g>
  </g>
</svg>
