<svg xmlns="http://www.w3.org/2000/svg" height="31.658" width="30.191"><path d="M0 7.253c0-.28.302-.768.896-1.444 1.05-1.197 1.78-2.696 1.634-3.359-.054-.245-.278-.615-.498-.822-.49-.461-.541-1.223-.09-1.341.732-.191 1.082.045 1.535 1.036.506 1.108.52 1.268.212 2.272-.493 1.608-.822 2.106-2.2 3.33C.516 7.79 0 7.903 0 7.252zm17.748 17.143c-.696-.377-.814-.89-.597-2.59.457-3.578 1.076-4.991 1.892-4.315.284.236.27.402-.259 3.226-.318 1.698-.325 1.889-.092 2.245.362.552 1.654.543 2.765-.02.441-.224.895-.408 1.008-.408.113 0 .618-.422 1.122-.939 1.394-1.426 3.174-4.335 3.41-5.575.06-.306.243-.857.408-1.225.408-.907 1.004-2.782 1.004-3.16 0-.17.104-.633.23-1.03.128-.398.276-.925.33-1.17.106-.487.798-.79 1.104-.486.394.395-.26 3.793-1.092 5.667-.35.79-.572 1.57-.572 2.01 0 .466-.355 1.739-.92 3.3-.213.585-.387 1.397-.387 1.804 0 .632.084.822.572 1.294.682.662.722 1.022.14 1.287-.378.172-.506.143-1.059-.24-.499-.346-.686-.626-.908-1.354-.153-.504-.298-.945-.32-.978-.067-.096-1.482.769-1.915 1.169-.637.589-1.578 1.106-2.29 1.258-.368.079-.962.22-1.322.313-.912.237-1.716.208-2.252-.083zM3.512 29.351c.687-.797 1.223-1.766 1.223-2.212 0-.348.594-2.744.738-2.977.413-.669.582-5.653.23-6.824-.23-.768-.742-.95-.876-.313-.042.202-.15.738-.24 1.192-.166.85-.846 3.269-1.121 3.991-.086.225-.21.776-.276 1.225-.066.449-.194.954-.284 1.123-.265.495-.779 3.212-.781 4.13-.002.798.266 1.359.65 1.359.076 0 .408-.312.737-.694zm-2.02 2.023c-.771-.772-1.016-2.197-.676-3.941.161-.826 1.415-5.519 1.942-7.265.19-.628.344-1.321.344-1.54 0-.218.073-.622.161-.898l.802-2.46c.726-2.22 1.65-5.98 1.65-6.716 0-.27.102-.853.227-1.296.125-.443.316-1.723.425-2.846.108-1.122.298-2.48.42-3.018C7.063.184 7.62-.311 8.131.2c.223.223.268 1.7.056 1.83-.078.048-.192.659-.254 1.357a42.043 42.043 0 01-.345 2.658c-.423 2.527-.731 4.16-.831 4.408-.148.364-.41 2.251-.442 3.184-.029.805-.022.817.492.867.31.03.875-.118 1.403-.368.486-.23.934-.418.995-.418.062 0 .617-.514 1.233-1.142.616-.629 1.185-1.143 1.263-1.143.078 0 .48-.313.895-.694 1.11-1.024 2.09-1.829 2.311-1.9.108-.034.504-.312.881-.616 1.533-1.238 3.052-1.536 3.955-.776.297.25.502.579.502.805 0 .375-.378.895-.651.895-.324 0-.655-.215-.655-.426 0-.16-.213-.227-.72-.227-.652 0-.798.08-1.55.848-.47.48-.832 1-.832 1.194 0 .19-.144.5-.32.689-.568.61-.56 1.04.042 2.176l.557 1.052 1.324.047c1.074.039 1.447-.015 1.976-.285.897-.458 1.156-.432 1.155.115-.002.45-.096.537-1.548 1.432-.764.47-2.751.437-3.553-.059-.337-.208-.612-.432-.612-.498 0-.065-.13-.261-.287-.436-.329-.362-.688-1.467-.807-2.48-.107-.907-.534-.928-1.34-.064-.323.346-.752.716-.954.822-.202.106-.367.292-.367.412 0 .478-2.201 1.83-3.981 2.445-.268.093-.292.207-.187.879.436 2.775.336 4.798-.416 8.462-.302 1.472-.492 2.002-1.397 3.906-.918 1.93-2.781 3.07-3.63 2.223z" stroke-width=".163"/></svg>