<?xml version="1.0" encoding="UTF-8" standalone="no"?>
<svg
   xmlns:dc="http://purl.org/dc/elements/1.1/"
   xmlns:cc="http://creativecommons.org/ns#"
   xmlns:rdf="http://www.w3.org/1999/02/22-rdf-syntax-ns#"
   xmlns:svg="http://www.w3.org/2000/svg"
   xmlns="http://www.w3.org/2000/svg"
   id="svg2663"
   viewBox="0 0 19.913061 31.452293"
   version="1.1"
   height="31.452293"
   width="19.913061">
  <defs
     id="defs2667" />
  <metadata
     id="metadata2">
    <rdf:RDF>
      <cc:Work
         rdf:about="">
        <dc:format>image/svg+xml</dc:format>
        <dc:type
           rdf:resource="http://purl.org/dc/dcmitype/StillImage" />
        <dc:title />
      </cc:Work>
    </rdf:RDF>
  </metadata>
  <g
     transform="translate(-619.26944,-296.20904)"
     id="g2661">
    <g
       style="stroke-width:0.16327"
       id="g2557">
      <path
         d="m 619.55,304.05 c -0.31066,-0.0812 -0.37505,-0.38381 -0.13412,-0.63032 0.46918,-0.48006 1.547,-4.1036 1.3695,-4.6042 -0.0557,-0.15711 -0.20625,-0.40816 -0.33451,-0.55789 -0.37628,-0.4393 -0.20198,-1.0251 0.32302,-1.0855 0.65141,-0.075 1.4292,0.8098 1.4292,1.6258 0,0.72324 -0.38133,2.3327 -0.84554,3.5686 -0.30599,0.81469 -1.1025,1.8243 -1.4019,1.777 -0.0659,-0.0105 -0.24844,-0.0525 -0.40559,-0.0936 z m 16.604,16.915 c -0.13553,-0.21929 0.0743,-2.5869 0.26022,-2.9368 0.0749,-0.14097 0.22278,-0.9124 0.32856,-1.7143 0.21838,-1.6557 0.50638,-2.3559 0.96898,-2.3559 0.5047,0 0.67344,0.50922 0.48973,1.4779 -0.0889,0.4688 -0.16165,1.151 -0.16165,1.5161 0,0.89148 -0.64637,3.5473 -0.95014,3.904 -0.27259,0.32006 -0.76948,0.37797 -0.9357,0.10902 z m -11.878,4.7155 c 0.19738,-0.18421 0.40537,-0.56449 0.4622,-0.84504 0.0568,-0.28056 0.23848,-0.91419 0.40369,-1.4081 0.16519,-0.49387 0.35161,-1.2286 0.41425,-1.6326 0.0626,-0.40408 0.21964,-0.94131 0.34892,-1.1938 0.37892,-0.74021 0.18721,-4.2369 -0.35302,-6.4388 -0.0557,-0.22699 -0.21369,-0.36735 -0.41355,-0.36735 -0.27463,0 -0.32341,0.1112 -0.32341,0.73716 0,0.84248 -0.281,2.0241 -1.0759,4.5242 -0.30623,0.96315 -0.55836,2.0652 -0.5603,2.449 -0.002,0.38381 -0.14888,1.3553 -0.32653,2.1589 -0.17765,0.80363 -0.323,1.6265 -0.323,1.8286 0,0.75332 1.0228,0.86335 1.7466,0.18785 z m -2.2599,1.7442 c -0.23742,-0.12898 -0.51293,-0.46761 -0.61225,-0.75253 -0.30984,-0.8888 -0.25174,-1.7473 0.32457,-4.7958 0.10185,-0.53877 0.21896,-1.2 0.26022,-1.4694 0.0413,-0.26939 0.17226,-0.71021 0.29111,-0.9796 0.44822,-1.0159 0.88479,-2.6597 1.0624,-4 0.16689,-1.2594 0.36779,-2.4941 0.82345,-5.0612 0.0876,-0.49388 0.23728,-1.6326 0.3325,-2.5306 0.37522,-3.5384 0.48847,-4.4332 0.6407,-5.0612 0.0871,-0.35918 0.16004,-1.0638 0.16217,-1.5658 0.004,-0.9734 0.53831,-3.791 0.8472,-4.469 0.233,-0.51136 0.74644,-0.69033 1.0654,-0.37136 0.25187,0.25185 0.23941,0.37518 -0.52325,5.1817 -0.46351,2.9212 -1.0589,7.774 -1.0589,8.6308 0,0.47275 0.0423,0.51211 0.55068,0.51211 0.75871,0 1.9101,-0.54007 2.9402,-1.3791 0.47598,-0.38769 1.0156,-0.75256 1.1992,-0.81083 0.18356,-0.0582 0.53872,-0.40169 0.78922,-0.76318 0.25052,-0.36149 0.65866,-0.80194 0.90701,-0.97876 0.24832,-0.17683 0.49539,-0.45977 0.54902,-0.62875 0.0536,-0.16898 0.40696,-0.45469 0.78516,-0.63491 0.37822,-0.18023 0.81035,-0.47485 0.96031,-0.65474 0.19003,-0.22792 0.5612,-0.35846 1.2245,-0.43064 0.52351,-0.057 1.105,-0.13483 1.2922,-0.17298 0.64008,-0.13049 1.8456,1.5861 1.3395,1.9072 -0.32617,0.20694 -0.85072,0.16268 -1.1996,-0.10121 -0.42424,-0.32088 -1.0776,-0.31025 -1.7893,0.0291 -0.48457,0.23107 -0.69809,0.51619 -1.2387,1.654 l -0.65318,1.3748 0.44026,0.87015 c 0.62243,1.2302 1.0066,1.5389 2.0469,1.6449 0.71663,0.073 1.0516,0.0119 1.8309,-0.33396 1.0253,-0.45496 1.5768,-0.38306 1.5768,0.2056 0,0.43125 -0.4447,0.7625 -1.551,1.1553 -1.1402,0.40486 -2.4163,0.4545 -3.2018,0.1245 -0.70967,-0.29813 -1.7776,-1.2446 -1.7784,-1.576 0,-0.14062 -0.13876,-0.4822 -0.30759,-0.75907 -0.16883,-0.27686 -0.35807,-0.73605 -0.42052,-1.0204 -0.13057,-0.59445 -0.38981,-0.65007 -0.93088,-0.1997 -0.20968,0.17453 -0.76076,0.63371 -1.2247,1.0204 -0.90997,0.75856 -2.2037,1.6011 -2.4585,1.6011 -0.30831,0 -0.69793,0.60454 -0.69223,1.0741 0.003,0.26232 0.11079,0.66062 0.23912,0.88511 0.12832,0.22449 0.23593,0.78909 0.23912,1.2547 0.003,0.46558 0.0856,1.0533 0.18308,1.3061 0.0975,0.25278 0.18065,1.1208 0.18479,1.929 0.006,1.1848 -0.0712,1.6749 -0.39888,2.5306 -0.22349,0.58367 -0.46036,1.4956 -0.52637,2.0265 -0.14156,1.1386 -0.87404,3.0505 -1.3715,3.5801 -0.19309,0.20551 -0.35107,0.43064 -0.35107,0.50026 0,0.0696 -0.16531,0.26447 -0.36735,0.43301 -0.44986,0.3753 -1.798,0.41396 -2.4316,0.0697 z"
         id="affection" />
    </g>
  </g>
</svg>
