<svg xmlns="http://www.w3.org/2000/svg" height="31.941" width="22.522"><path d="M.188 7.583C-.126 7.27-.04 6.858.4 6.57c.224-.148.408-.354.408-.46 0-.105.179-.378.397-.608.49-.515.928-1.641 1.026-2.64.055-.554-.016-.932-.266-1.422-.42-.824-.423-.96-.028-1.085 1-.318 1.656.494 1.688 2.09.029 1.43-.896 3.466-2.068 4.551-.886.82-1.061.895-1.37.587zM9.733 22.69c-.183-.183-.121-.78.116-1.12.37-.531 1.082-2.44 1.082-2.9 0-.236-.153-.572-.34-.746-.469-.437-.379-1.227.149-1.301.665-.095 1.497 1.033 1.497 2.03 0 .488-.32 1.864-.508 2.187-.078.135-.323.585-.545 1-.38.714-.67.959-1.138.959a.508.508 0 01-.313-.109zm7.492-13.913c1.742-.851 2.488-1.655 3.582-3.856.668-1.343.483-3.422-.333-3.735-1.454-.558-4.123 1.096-5.229 3.24a29.09 29.09 0 01-.62 1.149c-.808 1.348-1.402 2.698-1.406 3.199-.004.39.613.614 1.72.626.83.01 1.197-.09 2.286-.623zm-14.198 21.3c.183-.129.516-.515.74-.858l.996-1.522c.465-.713.643-1.22.859-2.45.356-2.03.514-5.703.279-6.497-.098-.333-.22-.807-.272-1.053-.058-.284-.197-.448-.375-.446-.211.003-.395.364-.73 1.43a36.574 36.574 0 00-.593 2.077c-.256 1.134-1.037 3.738-1.248 4.163-.506 1.018-.805 4.662-.42 5.125.267.322.343.325.764.03zM.867 31.74C.644 31.382.6 28.724.793 27.4c.104-.71.337-1.685.519-2.17.181-.484.58-1.835.887-3.003.307-1.167.702-2.527.878-3.022.176-.494.472-1.523.659-2.285a57.1 57.1 0 01.583-2.203c.429-1.431 1.079-4.353 1.16-5.211a37.8 37.8 0 01.314-2.218c.516-3.012.576-3.39.73-4.6.089-.69.231-1.439.317-1.664.21-.555.726-.82 1.15-.593.388.207.398.342.102 1.4-.124.442-.315 1.465-.424 2.274-.11.808-.265 1.868-.346 2.356a11.761 11.761 0 00-.148 1.562c0 .372-.114 1.061-.254 1.533-.308 1.035-.757 3.473-.786 4.263-.018.509.029.577.432.623.8.092 2.356-1.021 3.571-2.555.85-1.072 1.765-2.806 1.781-3.374.005-.18.222-.694.482-1.143.259-.45.807-1.46 1.216-2.245.41-.786.807-1.429.881-1.429.075 0 .3-.32.501-.71C15.53 1.954 17.417.58 18.827.198c1.097-.297 2.552-.251 2.552.08 0 .084.1.153.223.153.293 0 .92 1.66.92 2.438 0 .578-.219 1.328-.923 3.161-.41 1.066-3.18 3.87-3.823 3.87-.407 0-1.62.834-1.615 1.11.003.153.11.462.239.686.128.225.236.554.239.732.008.469.661 2.04 1.099 2.645.613.847.4 1.684-.43 1.684-.428 0-.53-.127-1.201-1.51-.404-.83-.813-1.804-.909-2.163l-.262-.987c-.049-.184-.455-.614-.903-.956-.874-.666-1.741-.855-1.955-.424-.733 1.474-1.818 2.91-2.895 3.833a7.94 7.94 0 01-1.448.934c-.76.363-.802.416-.751.951.029.312.089 2.036.132 3.831.075 3.106-.079 5.123-.425 5.55-.074.091-.287.682-.474 1.313-.257.867-.555 1.408-1.219 2.213-.483.586-.96 1.217-1.059 1.402-.224.419-1.832 1.197-2.473 1.197-.261 0-.531-.09-.6-.201z"/></svg>