<?xml version="1.0" encoding="UTF-8" standalone="no"?>
<svg
   xmlns:dc="http://purl.org/dc/elements/1.1/"
   xmlns:cc="http://creativecommons.org/ns#"
   xmlns:rdf="http://www.w3.org/1999/02/22-rdf-syntax-ns#"
   xmlns:svg="http://www.w3.org/2000/svg"
   xmlns="http://www.w3.org/2000/svg"
   id="svg2663"
   viewBox="0 0 22.52235 31.94109"
   version="1.1"
   height="31.94109"
   width="22.52235">
  <defs
     id="defs2667" />
  <metadata
     id="metadata2">
    <rdf:RDF>
      <cc:Work
         rdf:about="">
        <dc:format>image/svg+xml</dc:format>
        <dc:type
           rdf:resource="http://purl.org/dc/dcmitype/StillImage" />
        <dc:title />
      </cc:Work>
    </rdf:RDF>
  </metadata>
  <g
     transform="translate(-617.64238,-344.54687)"
     id="g2661">
    <g
       style="stroke-width:0.16327"
       id="g2557">
      <path
         d="m 617.83,352.13 c -0.3139,-0.31389 -0.22776,-0.72525 0.21224,-1.0136 0.22449,-0.1471 0.40816,-0.35356 0.40816,-0.45882 0,-0.10527 0.17849,-0.37909 0.39664,-0.60849 0.48999,-0.51527 0.92802,-1.6417 1.0268,-2.6405 0.0548,-0.55368 -0.016,-0.93144 -0.26627,-1.4221 -0.42006,-0.82338 -0.42359,-0.95935 -0.0282,-1.0848 1.0005,-0.31757 1.6561,0.49398 1.6882,2.0898 0.0287,1.4308 -0.89655,3.4668 -2.0686,4.5518 -0.88571,0.81989 -1.0607,0.89488 -1.3689,0.58666 z m 9.5456,15.107 c -0.183,-0.18299 -0.12144,-0.78001 0.11549,-1.1201 0.37008,-0.53125 1.0818,-2.4391 1.0818,-2.8999 0,-0.23639 -0.15255,-0.57193 -0.33902,-0.74565 -0.46909,-0.43702 -0.37902,-1.2271 0.14841,-1.3018 0.66532,-0.0942 1.4967,1.0338 1.4967,2.0307 0,0.48777 -0.31929,1.8633 -0.50751,2.1865 -0.0784,0.13469 -0.32356,0.5847 -0.54469,1 -0.38033,0.71435 -0.67079,0.95915 -1.138,0.95915 -0.1124,0 -0.25333,-0.049 -0.31318,-0.10885 z m 7.4916,-13.913 c 1.7422,-0.85142 2.4886,-1.6548 3.5824,-3.8557 0.66781,-1.3436 0.48244,-3.4224 -0.33309,-3.7353 -1.4539,-0.55791 -4.1231,1.0958 -5.2291,3.2398 -0.23324,0.45213 -0.51218,0.969 -0.61987,1.1486 -0.80837,1.3482 -1.4018,2.6981 -1.4065,3.1995 -0.004,0.38926 0.61318,0.61377 1.7205,0.62614 0.82952,0.009 1.1966,-0.0908 2.2857,-0.62307 z m -14.198,21.299 c 0.1827,-0.12797 0.51584,-0.51369 0.74031,-0.85715 0.22446,-0.34346 0.67241,-1.0286 0.99543,-1.5224 0.46583,-0.71224 0.64356,-1.2187 0.85933,-2.449 0.3563,-2.0314 0.51395,-5.7033 0.27897,-6.4979 -0.0983,-0.33228 -0.22042,-0.80619 -0.27146,-1.0531 -0.0586,-0.28351 -0.19696,-0.44754 -0.37542,-0.44509 -0.21124,0.003 -0.39537,0.36362 -0.7292,1.4286 -0.24561,0.78357 -0.51294,1.7186 -0.59404,2.0778 -0.2561,1.1342 -1.0367,3.7384 -1.248,4.1633 -0.50586,1.0174 -0.80472,4.6616 -0.42026,5.1248 0.2672,0.32195 0.34362,0.32498 0.76432,0.0303 z m -2.1606,1.664 c -0.22161,-0.35858 -0.26586,-3.0164 -0.0723,-4.3405 0.10364,-0.70883 0.33703,-1.6851 0.51865,-2.1694 0.1816,-0.48435 0.58116,-1.8357 0.88792,-3.0031 0.30674,-1.1673 0.70161,-2.5272 0.87748,-3.0219 0.17587,-0.49471 0.47234,-1.5233 0.65883,-2.2857 0.18649,-0.76242 0.44909,-1.7536 0.58356,-2.2026 0.42858,-1.431 1.0784,-4.3534 1.1588,-5.2114 0.0428,-0.4562 0.18462,-1.454 0.31525,-2.2172 0.51545,-3.012 0.57541,-3.3898 0.73027,-4.6009 0.0882,-0.68965 0.23042,-1.4382 0.31608,-1.6635 0.21099,-0.55496 0.72599,-0.82018 1.151,-0.59274 0.38723,0.20724 0.39698,0.342 0.10127,1.3989 -0.1239,0.44283 -0.31479,1.4664 -0.42421,2.2745 -0.10942,0.80817 -0.26519,1.8686 -0.34617,2.3565 -0.081,0.48791 -0.14722,1.1909 -0.14722,1.5622 0,0.37128 -0.11458,1.0609 -0.25461,1.5324 -0.30746,1.0353 -0.75685,3.4736 -0.78572,4.2631 -0.0186,0.50918 0.0284,0.57709 0.43155,0.62343 0.79993,0.0919 2.3563,-1.0216 3.5713,-2.5552 0.84938,-1.072 1.7648,-2.8062 1.7814,-3.3744 0.005,-0.17959 0.22176,-0.69388 0.48119,-1.1429 0.25945,-0.44898 0.80699,-1.4592 1.2168,-2.2449 0.40979,-0.78571 0.80625,-1.4286 0.88103,-1.4286 0.0748,0 0.30027,-0.31949 0.50112,-0.70999 0.53075,-1.0319 2.4178,-2.4066 3.8274,-2.7882 1.0968,-0.2969 2.5526,-0.25151 2.5526,0.0796 0,0.0843 0.1,0.15325 0.22224,0.15325 0.2936,0 0.92062,1.6606 0.92062,2.4382 0,0.57761 -0.2193,1.3281 -0.92367,3.1609 -0.40985,1.0665 -3.179,3.8703 -3.8225,3.8703 -0.40707,0 -1.6211,0.83341 -1.6154,1.1089 0.003,0.15336 0.11079,0.4625 0.23912,0.68699 0.12833,0.22449 0.23594,0.55368 0.23912,0.73154 0.008,0.46913 0.66122,2.0405 1.099,2.6453 0.61335,0.84739 0.39995,1.6844 -0.42949,1.6844 -0.4281,0 -0.52978,-0.12779 -1.2018,-1.5102 -0.40376,-0.83061 -0.81264,-1.8041 -0.90864,-2.1633 -0.096,-0.35919 -0.21406,-0.80343 -0.26237,-0.98722 -0.0483,-0.18379 -0.45438,-0.61371 -0.90241,-0.95538 -0.87406,-0.66656 -1.7413,-0.85497 -1.9551,-0.42475 -0.73313,1.4748 -1.8178,2.9109 -2.895,3.833 -0.35381,0.30286 -1.0054,0.72355 -1.448,0.93488 -0.76006,0.3629 -0.80176,0.41569 -0.75148,0.95105 0.0293,0.31175 0.0888,2.0356 0.13233,3.8308 0.0753,3.1061 -0.0791,5.1231 -0.42478,5.5493 -0.0742,0.0915 -0.28769,0.68248 -0.47445,1.3134 -0.25657,0.86668 -0.55445,1.4076 -1.2186,2.2127 -0.48341,0.58609 -0.96006,1.2172 -1.0592,1.4024 -0.22398,0.41853 -1.8322,1.197 -2.4728,1.197 -0.26163,0 -0.53171,-0.0906 -0.60015,-0.20136 z"
         id="afford" />
    </g>
  </g>
</svg>
