<?xml version="1.0" encoding="UTF-8" standalone="no"?>
<svg
   xmlns:dc="http://purl.org/dc/elements/1.1/"
   xmlns:cc="http://creativecommons.org/ns#"
   xmlns:rdf="http://www.w3.org/1999/02/22-rdf-syntax-ns#"
   xmlns:svg="http://www.w3.org/2000/svg"
   xmlns="http://www.w3.org/2000/svg"
   id="svg2663"
   viewBox="0 0 33.278422 30.09586"
   version="1.1"
   height="30.09586"
   width="33.278423">
  <defs
     id="defs2667" />
  <metadata
     id="metadata2">
    <rdf:RDF>
      <cc:Work
         rdf:about="">
        <dc:format>image/svg+xml</dc:format>
        <dc:type
           rdf:resource="http://purl.org/dc/dcmitype/StillImage" />
        <dc:title />
      </cc:Work>
    </rdf:RDF>
  </metadata>
  <g
     transform="translate(-609.10206,-368.83726)"
     id="g2661">
    <g
       style="stroke-width:0.16327"
       id="g2557">
      <path
         d="m 630.76,376.41 c -0.27182,-0.19874 -0.24838,-0.27357 0.35409,-1.1301 0.35484,-0.50449 0.73977,-1.0824 0.85541,-1.2842 0.30679,-0.53547 0.10518,-1.8473 -0.38207,-2.4861 -0.69849,-0.91575 -0.45057,-1.5074 0.52256,-1.2472 0.33647,0.09 0.58563,0.36121 0.92785,1.01 0.42356,0.80297 0.4586,0.99022 0.37006,1.9776 -0.0814,0.90741 -0.20632,1.254 -0.74382,2.0632 -0.71918,1.0828 -1.3927,1.4708 -1.9041,1.0969 z m -21.595,0.50625 c -0.14277,-0.17203 -0.0546,-0.43876 0.38804,-1.1738 1.3678,-2.2714 1.5159,-3.552 0.56424,-4.8771 -0.49773,-0.69308 -0.52085,-0.77688 -0.28062,-1.0171 0.36338,-0.36336 0.9198,-0.18818 1.6478,0.5188 0.6254,0.60737 0.71621,0.96142 0.6272,2.4454 -0.0501,0.83566 -0.72128,2.5547 -1.3863,3.5507 -0.39824,0.59644 -0.61651,0.77526 -0.94658,0.77551 -0.23593,0 -0.51213,-0.0999 -0.61375,-0.22232 z m 27.917,5.7138 c 0.73014,-0.72183 1.4353,-1.6922 1.5438,-2.1245 0.0594,-0.23686 0.17342,-0.47104 0.25328,-0.52039 0.26197,-0.16191 0.16635,-1.7356 -0.12503,-2.0576 -0.36307,-0.40118 -1.1863,-0.38092 -2.2301,0.0549 -1.6401,0.68475 -2.3066,1.6263 -2.2919,3.2375 0.0147,1.5998 0.17107,1.7968 1.4272,1.7968 0.86624,0 1.0944,-0.062 1.4228,-0.38674 z m -24.16,14.886 c 0.49425,-0.27778 0.6762,-0.50593 0.8137,-1.0204 0.0974,-0.36444 0.23358,-0.73608 0.30261,-0.82588 0.3712,-0.48287 0.73718,-3.5561 0.73881,-6.2041 0.002,-3.0661 -0.0901,-3.6735 -0.55644,-3.6735 -0.30139,0 -0.51327,0.6673 -0.93318,2.9388 -0.0581,0.31428 -0.17689,0.66222 -0.26398,0.77317 -0.30823,0.39272 -1.0484,3.6376 -1.5925,6.9819 -0.11595,0.71272 -0.091,0.85259 0.19703,1.102 0.42213,0.36567 0.52535,0.3599 1.294,-0.0721 z m -1.8166,1.3909 c -0.29609,-0.0508 -0.51787,-0.29199 -0.80772,-0.87827 -0.37089,-0.75022 -0.3854,-0.86964 -0.2023,-1.6652 0.10849,-0.47135 0.30459,-1.5114 0.43577,-2.3112 0.2529,-1.5419 0.60513,-2.7513 1.0743,-3.6886 0.15729,-0.31429 0.33432,-1.0857 0.39337,-1.7143 0.0591,-0.62857 0.32166,-1.9265 0.58356,-2.8844 0.26189,-0.95784 0.51997,-2.1701 0.5735,-2.6939 0.0535,-0.52378 0.23907,-1.834 0.41233,-2.9115 0.17325,-1.0776 0.38969,-3.3918 0.48099,-5.1429 0.23151,-4.4408 0.50861,-5.7024 1.2546,-5.7118 0.52731,-0.007 0.68735,1.4273 0.37175,3.3311 -0.0905,0.54613 -0.23467,2.095 -0.32031,3.442 -0.0856,1.3469 -0.26269,3 -0.39346,3.6735 -0.13078,0.67347 -0.28925,1.4946 -0.35217,1.8247 -0.0981,0.51471 -0.0528,0.66184 0.31773,1.0324 0.35602,0.35602 0.52479,0.41311 0.95819,0.3242 0.87876,-0.18031 2.456,-0.78578 2.7416,-1.0525 0.14803,-0.13821 0.53662,-0.45646 0.86352,-0.70722 0.32691,-0.25077 0.59439,-0.55402 0.59439,-0.67389 0,-0.11987 0.12019,-0.3177 0.2671,-0.43963 0.14691,-0.12191 0.43278,-0.47988 0.63526,-0.79549 0.20249,-0.31561 0.59658,-0.82583 0.87576,-1.1338 0.27917,-0.30801 0.50759,-0.63459 0.50759,-0.72576 0,-0.0911 0.19742,-0.3718 0.43871,-0.62366 0.56456,-0.58927 1.1035,-0.57902 1.9169,0.0364 0.5222,0.39512 0.80057,0.48526 1.4986,0.48526 0.83162,0 1.3703,0.26817 1.3703,0.68217 0,0.21383 -0.45562,2.2356 -0.75335,3.343 -0.31845,1.1844 -0.28696,1.6281 0.13662,1.9248 0.50956,0.35692 1.0804,0.31701 2.0147,-0.14083 1.0194,-0.49953 1.6331,-1.0727 2.4221,-2.2623 0.34402,-0.51867 0.74563,-1.0088 0.89249,-1.0892 0.14686,-0.0804 0.44965,-0.44582 0.6729,-0.81205 0.22323,-0.36626 0.46535,-0.66591 0.53802,-0.66591 0.0727,0 0.29847,-0.16531 0.50173,-0.36735 1.1946,-1.1874 2.958,-1.9184 4.6277,-1.9184 0.92759,0 1,-0.0279 1.1647,-0.44898 0.23332,-0.59657 0.62369,-2.7165 0.83081,-4.5118 0.18746,-1.6249 0.49466,-2.2702 1.0435,-2.1921 0.33741,0.048 0.35989,0.14504 0.40893,1.7651 0.0285,0.94285 -0.0245,2.0816 -0.11778,2.5306 -0.0933,0.44898 -0.29098,1.4041 -0.43928,2.1224 -0.14828,0.71837 -0.40752,1.7381 -0.5761,2.2662 -0.2174,0.68096 -0.30649,1.4462 -0.30649,2.6326 0,2.3124 0.0874,2.657 0.74378,2.9312 0.29532,0.12339 0.66155,0.41453 0.81385,0.64697 0.38886,0.59348 0.0925,0.91077 -0.85073,0.91077 -0.78349,0 -1.302,-0.39858 -1.8053,-1.3878 -0.13708,-0.26939 -0.27034,-0.51412 -0.29611,-0.54384 -0.0898,-0.10354 -0.81465,0.34227 -1.5572,0.95775 -0.86231,0.71477 -1.8568,1.036 -2.711,0.8758 -0.71817,-0.13472 -1.9508,-1.293 -2.1004,-1.9737 -0.0555,-0.25238 -0.12914,-0.55071 -0.16372,-0.66296 -0.11378,-0.36931 -0.50405,-0.21353 -0.91614,0.36565 -0.22296,0.31335 -0.85468,0.93033 -1.4038,1.3711 -0.79132,0.63507 -1.1784,0.82867 -1.8656,0.93311 -1.7873,0.27162 -2.5968,-0.0121 -3.1684,-1.1107 -0.31819,-0.61156 -0.2913,-0.98164 0.19032,-2.6186 0.55794,-1.8964 0.51933,-2.077 -0.50134,-2.3446 -0.44898,-0.11775 -0.98939,-0.21733 -1.2009,-0.22129 -0.57611,-0.0108 -1.4244,0.77203 -2.5542,2.3571 -0.1796,0.25196 -0.49968,0.61286 -0.7113,0.80201 -0.21163,0.18914 -0.44279,0.49397 -0.51372,0.67743 -0.12953,0.33502 -1.9201,1.3807 -2.3642,1.3807 -0.3087,0 -1.4786,0.61081 -1.7146,0.8952 -0.12214,0.14718 -0.16931,1.0551 -0.14147,2.724 0.0491,2.9452 -0.12201,6.3101 -0.35158,6.914 -0.0893,0.23477 -0.1623,0.75562 -0.1623,1.1574 0,0.40182 -0.14166,1.0083 -0.31481,1.3477 -0.32966,0.64619 -1.3849,1.9891 -1.7036,2.168 -0.26434,0.1484 -1.7422,0.27727 -2.2265,0.19414 z"
         id="afraid" />
    </g>
  </g>
</svg>
