<svg xmlns="http://www.w3.org/2000/svg" height="30.096" width="33.278"><path d="M21.658 7.573c-.272-.199-.248-.274.354-1.13.355-.505.74-1.083.855-1.285.307-.535.106-1.847-.382-2.486-.698-.915-.45-1.507.523-1.247.336.09.586.361.928 1.01.423.803.458.99.37 1.978-.082.907-.206 1.254-.744 2.063-.72 1.083-1.393 1.47-1.904 1.097zM.063 8.079C-.08 7.907.008 7.64.45 6.905c1.368-2.271 1.516-3.552.564-4.877-.498-.693-.52-.777-.28-1.017.363-.363.92-.188 1.647.519.626.607.717.961.628 2.445-.05.836-.722 2.555-1.387 3.55-.398.597-.616.776-.946.776-.236 0-.512-.1-.614-.222zm27.917 5.714c.73-.722 1.435-1.692 1.544-2.125.06-.237.173-.47.253-.52.262-.162.166-1.736-.125-2.058-.363-.4-1.186-.38-2.23.055-1.64.685-2.307 1.627-2.292 3.238.015 1.6.171 1.797 1.427 1.797.866 0 1.095-.062 1.423-.387zM3.82 28.679c.494-.278.676-.506.814-1.02.097-.365.233-.737.302-.826.371-.483.737-3.557.74-6.205.001-3.066-.091-3.673-.557-3.673-.302 0-.514.667-.934 2.939-.058.314-.176.662-.264.773-.308.393-1.048 3.637-1.592 6.982-.116.713-.091.852.197 1.102.422.365.525.36 1.294-.072zm-1.817 1.39c-.296-.05-.518-.291-.807-.878-.371-.75-.386-.87-.203-1.665.109-.471.305-1.511.436-2.311.253-1.542.605-2.751 1.074-3.689.158-.314.335-1.085.394-1.714.059-.628.321-1.926.583-2.884.262-.958.52-2.17.574-2.694a68.52 68.52 0 01.412-2.912c.173-1.077.39-3.391.481-5.143C5.18 1.74 5.456.477 6.202.468c.527-.007.687 1.427.371 3.33-.09.547-.234 2.096-.32 3.443-.085 1.347-.263 3-.393 3.673-.131.674-.29 1.495-.352 1.825-.099.515-.053.662.317 1.032.356.356.525.413.958.325.88-.18 2.456-.786 2.742-1.053.148-.138.537-.456.864-.707.326-.251.594-.554.594-.674s.12-.318.267-.44c.147-.122.433-.48.635-.795.203-.316.597-.826.876-1.134.28-.308.508-.635.508-.726 0-.09.197-.372.438-.623.565-.59 1.104-.58 1.917.036.522.395.8.485 1.499.485.832 0 1.37.268 1.37.682 0 .214-.455 2.236-.753 3.343-.319 1.185-.287 1.629.136 1.925.51.357 1.08.317 2.015-.14 1.02-.5 1.633-1.073 2.422-2.263.344-.519.746-1.009.893-1.09.147-.08.45-.445.673-.811.223-.366.465-.666.538-.666.072 0 .298-.165.501-.367 1.195-1.188 2.958-1.919 4.628-1.919.928 0 1-.028 1.165-.449.233-.596.623-2.716.83-4.512.188-1.625.495-2.27 1.044-2.192.338.048.36.145.409 1.765.029.943-.024 2.082-.118 2.531l-.439 2.122a27.307 27.307 0 01-.576 2.267c-.218.68-.307 1.446-.307 2.632 0 2.313.088 2.657.744 2.931.295.124.662.415.814.647.389.594.093.911-.85.911-.784 0-1.303-.398-1.806-1.388a6.815 6.815 0 00-.296-.544c-.09-.103-.815.343-1.557.958-.863.715-1.857 1.036-2.711.876-.718-.135-1.951-1.293-2.1-1.974a12.63 12.63 0 00-.164-.663c-.114-.369-.504-.213-.917.366-.223.313-.854.93-1.403 1.371-.792.635-1.179.829-1.866.933-1.787.272-2.597-.012-3.168-1.11-.319-.612-.292-.982.19-2.62.558-1.895.52-2.076-.501-2.344-.45-.117-.99-.217-1.201-.221-.576-.01-1.425.772-2.554 2.357-.18.252-.5.613-.712.802-.211.19-.443.494-.514.678-.129.335-1.92 1.38-2.364 1.38-.308 0-1.478.611-1.714.895-.122.148-.17 1.056-.142 2.724.05 2.946-.122 6.31-.351 6.914-.09.235-.163.756-.163 1.158 0 .402-.141 1.008-.314 1.348-.33.646-1.385 1.989-1.704 2.168-.264.148-1.742.277-2.227.194z"/></svg>