<?xml version="1.0" encoding="UTF-8" standalone="no"?>
<svg
   xmlns:dc="http://purl.org/dc/elements/1.1/"
   xmlns:cc="http://creativecommons.org/ns#"
   xmlns:rdf="http://www.w3.org/1999/02/22-rdf-syntax-ns#"
   xmlns:svg="http://www.w3.org/2000/svg"
   xmlns="http://www.w3.org/2000/svg"
   id="svg2663"
   viewBox="0 0 7.965925 31.088272"
   version="1.1"
   height="31.088272"
   width="7.9659252">
  <defs
     id="defs2667" />
  <metadata
     id="metadata2">
    <rdf:RDF>
      <cc:Work
         rdf:about="">
        <dc:format>image/svg+xml</dc:format>
        <dc:type
           rdf:resource="http://purl.org/dc/dcmitype/StillImage" />
        <dc:title />
      </cc:Work>
    </rdf:RDF>
  </metadata>
  <g
     transform="translate(-616.84607,-392.2406)"
     id="g2661">
    <g
       style="stroke-width:0.16327"
       id="g2557">
      <path
         d="m 617.1,400.97 c -0.43501,-0.25336 -0.36053,-0.43391 0.61255,-1.485 0.99517,-1.0749 1.5052,-2.0429 1.656,-3.1428 0.088,-0.64185 0.0391,-0.81101 -0.41087,-1.4229 -0.55043,-0.74845 -0.66067,-1.3992 -0.26289,-1.5518 0.40746,-0.15636 1.1963,0.27093 1.5466,0.83772 0.4376,0.70805 0.44646,2.4539 0.0186,3.6687 -0.35975,1.0216 -1.4702,2.5145 -2.2023,2.9609 -0.58523,0.35685 -0.57866,0.35592 -0.95776,0.13512 z m 4.3325,20.216 c 0.3988,-0.47143 0.81809,-1.0354 0.93179,-1.2534 0.4079,-0.78193 0.87817,-5.3244 0.73383,-7.0881 -0.13443,-1.6425 -0.73592,-3.4534 -1.1061,-3.33 -0.22374,0.0746 -0.55372,1.1397 -0.68281,2.204 -0.0625,0.51527 -0.29762,1.4878 -0.52253,2.1613 -0.2249,0.67347 -0.51398,1.7755 -0.64238,2.449 -0.12841,0.67347 -0.37813,1.6653 -0.55491,2.2041 -0.44707,1.3625 -0.48627,2.7361 -0.0906,3.1734 0.53895,0.59554 1.1225,0.43851 1.9336,-0.52031 z m -2.7594,1.7323 c -0.67784,-0.63321 -0.91068,-1.4026 -0.73425,-2.4261 0.3032,-1.7591 1.0444,-5.0946 1.2698,-5.7143 0.42093,-1.1573 0.86704,-3.0838 0.86952,-3.7551 0.002,-0.35918 0.1433,-1.3878 0.31548,-2.2857 0.17218,-0.8979 0.3593,-2.0735 0.41583,-2.6122 0.0565,-0.53877 0.24157,-1.5306 0.4112,-2.2041 0.16965,-0.67347 0.42983,-1.8122 0.57819,-2.5306 0.14836,-0.7184 0.34017,-1.6367 0.42622,-2.0408 0.0861,-0.40408 0.26319,-1.4694 0.39364,-2.3674 0.13043,-0.89795 0.40445,-2.2863 0.60894,-3.0851 0.29878,-1.1672 0.44302,-1.4788 0.7345,-1.5866 0.19948,-0.0738 0.47282,-0.0919 0.60741,-0.0403 0.34642,0.13293 0.31719,1.4078 -0.0597,2.6034 -0.16745,0.53117 -0.39785,1.5168 -0.51204,2.1902 -0.11417,0.67347 -0.31525,1.7755 -0.4468,2.449 -0.13158,0.67347 -0.30254,1.5918 -0.37991,2.0408 -0.0774,0.44898 -0.22174,1.1102 -0.32083,1.4694 -0.34406,1.2472 -0.49944,1.9635 -0.59525,2.744 -0.0838,0.68308 -0.0438,0.84176 0.30921,1.2245 0.3711,0.40238 1.0163,2.1993 1.6234,4.5213 0.45066,1.7237 0.17241,5.6355 -0.56323,7.9184 -0.79371,2.463 -1.9259,3.6561 -3.665,3.8621 -0.70444,0.0834 -0.83734,0.0447 -1.2863,-0.37469 z"
         id="after_abv" />
    </g>
  </g>
</svg>
