<svg xmlns="http://www.w3.org/2000/svg" height="32.019" width="44.748"><path d="M.152 7.93c-.11-.344-.002-.54.753-1.38.243-.269.567-.93.72-1.469a22.9 22.9 0 01.425-1.354c.232-.6.167-1.221-.182-1.748-.417-.63-.412-1.003.016-1.232.603-.323 1.034-.073 1.339.778.49 1.37.308 2.832-.593 4.746-.386.82-1.595 1.994-2.053 1.994-.178 0-.366-.148-.425-.334zM2.65 30.097c.285-.295.637-.883.782-1.306.144-.424.32-.77.391-.77.072 0 .17-.202.218-.45a26 26 0 01.349-1.386c.636-2.301.737-2.905.727-4.368-.013-1.839-.268-2.994-.679-3.072-.157-.03-.315.043-.35.162-.284.963-.796 2.562-.905 2.828-.073.18-.218.876-.322 1.548-.104.672-.287 1.371-.407 1.555-.12.183-.271.662-.335 1.064a16.809 16.809 0 01-.429 1.769c-.346 1.149-.401 2.165-.143 2.646.24.448.507.394 1.103-.22zm-1.517 1.849c-.18-.073-.51-.38-.735-.682-.35-.471-.407-.717-.398-1.727.006-.648.087-1.346.181-1.55.094-.206.3-.815.456-1.354.157-.539.378-1.274.49-1.633.113-.359.292-1.057.398-1.55.106-.494.298-1.266.427-1.715l.632-2.204c.219-.763.436-1.608.483-1.878.2-1.153.46-2.175.831-3.282.219-.65.477-1.72.573-2.379A81.18 81.18 0 014.89 9.49a83.52 83.52 0 00.41-2.436c.091-.622.23-1.21.309-1.306.078-.097.23-1.131.339-2.299.221-2.39.374-2.936.925-3.297.903-.591 1.112.58.545 3.052-.175.764-.32 1.698-.322 2.076-.002.379-.116 1.018-.252 1.42-.137.402-.315 1.23-.396 1.842-.38 2.854-.551 3.792-.855 4.67-.2.576-.287 1.114-.222 1.37.1.4.147.417.954.334 1.007-.104 3.707-1.341 4.632-2.122.343-.29.993-.914 1.444-1.385.45-.472.904-.858 1.007-.858.103 0 .347-.258.542-.573.264-.427.669-.718 1.587-1.143.679-.313 1.333-.57 1.455-.57.382 0 1.855 1.16 1.855 1.46 0 .157.145.418.323.579.359.324.427.294 1.391-.62.605-.574 1.42-.929 2.132-.929.297 0 .723-.069.946-.154.251-.095.613-.096.955-.002.444.123.638.326 1.004 1.049.386.762.437 1.012.34 1.675-.061.429-.168.853-.236.943-.069.09-.218.585-.332 1.102-.296 1.337-.087 1.755.876 1.755.458 0 .97-.145 1.432-.407a23.74 23.74 0 011.386-.717 4.32 4.32 0 001.143-.83c.262-.286.642-.688.844-.894.202-.205.367-.434.367-.508 0-.252.734-1.213.927-1.215.106 0 .33-.174.496-.387.412-.523 1.254-.952 2.333-1.187 1.506-.33 2.612.18 2.612 1.202 0 .517.31.462.98-.175.82-.777 1.1-.89 2.491-1.017 1.146-.104 1.298-.08 1.947.303.808.476 1.178 1.107 1.445 2.462.17.863.144 1.138-.262 2.831-.364 1.517-.516 1.9-.791 2.005-.229.088-.435.047-.627-.122-.3-.264-.387-.935-.143-1.087.079-.048.193-.512.255-1.03.061-.518.151-1.257.2-1.642.12-.938-.063-1.824-.402-1.952a1.69 1.69 0 01-.493-.318c-.317-.313-1.584-.26-2.281.096-.98.5-2.192 1.925-2.983 3.51-.781 1.565-1.286 2.078-1.704 1.731-.433-.358-.257-1.28.44-2.308.216-.319.303-.81.334-1.878l.043-1.446-.572-.042c-.725-.054-2.244.698-2.6 1.285-.905 1.5-2.64 3.376-3.51 3.795-2.547 1.227-3.111 1.44-3.589 1.362-.75-.123-2.204-1.106-2.328-1.573-.067-.255.08-.943.41-1.913.623-1.831.642-2.32.115-2.89-.475-.512-.46-.51-1.396-.146-1.5.585-2.357 1.193-3.143 2.232-.426.565-.775 1.098-.775 1.186 0 .351-.773 2.028-1.118 2.424-.459.528-1.062.494-1.14-.064-.03-.211.257-1.28.638-2.372.766-2.195.766-2.448.002-3.362l-.475-.568-.586.28c-.322.153-.586.353-.586.443 0 .09-.276.338-.614.551-.337.213-1.226.986-1.975 1.717-.749.73-1.45 1.328-1.56 1.328-.109 0-.406.217-.66.482s-.666.527-.917.582c-.25.055-.543.206-.65.335-.107.129-.265.234-.35.234-.087 0-.819.308-1.628.684l-1.47.683.088.582c.473 3.107.61 4.882.444 5.71-.097.487-.177 1.101-.177 1.365 0 .705-.473 2.737-.769 3.303-.14.269-.476.93-.745 1.469-.705 1.413-1.035 1.828-1.803 2.268-.869.498-1.255.599-1.663.432z"/></svg>