<svg xmlns="http://www.w3.org/2000/svg" height="31.086" width="7.966"><path d="M.254 8.726c-.435-.254-.36-.434.613-1.485.995-1.075 1.505-2.043 1.656-3.143.088-.642.039-.811-.411-1.423-.55-.749-.661-1.4-.263-1.552.407-.157 1.196.27 1.547.837.437.708.446 2.454.018 3.67-.36 1.021-1.47 2.513-2.202 2.96-.585.357-.578.356-.957.136zm4.332 20.22c.399-.472.818-1.035.932-1.253.408-.782.878-5.324.734-7.088-.135-1.642-.736-3.453-1.106-3.33-.224.074-.554 1.14-.683 2.204-.063.515-.298 1.488-.523 2.16a22.94 22.94 0 00-.642 2.45 21.566 21.566 0 01-.555 2.204c-.447 1.362-.486 2.736-.09 3.173.538.595 1.122.438 1.933-.52zm-2.76 1.732c-.677-.633-.91-1.403-.733-2.426.303-1.76 1.044-5.095 1.27-5.714.42-1.157.867-3.084.87-3.755.001-.36.143-1.388.315-2.286.172-.898.359-2.073.416-2.612.056-.54.241-1.531.41-2.204.17-.674.43-1.812.579-2.531.148-.72.34-1.637.426-2.041a50.21 50.21 0 00.394-2.367c.13-.898.404-2.286.609-3.085C6.68.49 6.825.177 7.116.07c.2-.074.473-.092.608-.04.346.132.317 1.407-.06 2.602a20.033 20.033 0 00-.512 2.19c-.114.674-.315 1.776-.447 2.45-.132.673-.302 1.591-.38 2.04-.077.45-.222 1.11-.32 1.47-.345 1.246-.5 1.962-.596 2.743-.084.684-.044.842.31 1.224.37.403 1.015 2.2 1.622 4.521.451 1.724.173 5.636-.563 7.918-.794 2.463-1.926 3.656-3.665 3.862-.704.084-.837.045-1.286-.374z" stroke-width=".163"/></svg>