<svg xmlns="http://www.w3.org/2000/svg" height="32.016" width="44.749"><path d="M.152 7.925c-.11-.345-.002-.541.753-1.38.243-.27.567-.93.721-1.469.154-.539.345-1.148.424-1.355.232-.6.167-1.22-.182-1.747-.417-.63-.412-1.004.016-1.233.603-.323 1.034-.072 1.339.778.49 1.37.308 2.833-.593 4.746-.386.82-1.595 1.995-2.054 1.995-.178 0-.366-.147-.425-.334zm2.499 22.17c.286-.295.637-.883.782-1.306.144-.423.32-.77.391-.77.072 0 .17-.202.218-.449.05-.247.206-.87.349-1.387.636-2.3.737-2.905.727-4.368-.013-1.838-.268-2.994-.679-3.072-.157-.03-.315.043-.35.162-.284.963-.796 2.562-.905 2.828-.073.18-.218.876-.322 1.548-.104.672-.287 1.371-.407 1.555-.12.183-.271.662-.335 1.064a16.83 16.83 0 01-.429 1.769c-.346 1.149-.401 2.165-.143 2.647.24.448.507.394 1.103-.22zm-1.517 1.85c-.18-.074-.51-.38-.735-.683-.35-.47-.407-.717-.398-1.727.006-.647.087-1.346.181-1.55.094-.206.3-.815.456-1.354.157-.539.378-1.273.49-1.633.113-.36.292-1.057.398-1.55.106-.495.298-1.266.427-1.715l.632-2.204c.22-.763.436-1.608.483-1.878.2-1.153.46-2.175.831-3.282.219-.65.477-1.72.573-2.379.097-.658.285-1.784.419-2.502a81.04 81.04 0 00.41-2.436c.091-.621.23-1.209.309-1.306.078-.097.23-1.13.339-2.298.221-2.39.374-2.937.925-3.297.903-.591 1.112.58.545 3.052-.175.763-.32 1.697-.322 2.076-.002.379-.116 1.017-.252 1.42-.137.401-.315 1.23-.396 1.841-.38 2.854-.551 3.792-.855 4.671-.2.575-.287 1.113-.222 1.37.1.4.147.417.954.333 1.007-.104 3.707-1.34 4.632-2.122.344-.29.994-.914 1.444-1.385.45-.471.904-.857 1.007-.857.103 0 .347-.258.542-.573.264-.427.67-.719 1.587-1.143.678-.313 1.333-.57 1.455-.57.382 0 1.855 1.16 1.855 1.46 0 .157.146.417.324.578.358.324.426.294 1.39-.62.606-.574 1.42-.928 2.133-.928.297 0 .723-.07.945-.154.252-.096.614-.097.956-.002.443.122.637.325 1.004 1.048.386.762.437 1.013.34 1.675-.061.428-.168.852-.237.942-.068.09-.218.586-.332 1.102-.295 1.337-.086 1.755.877 1.755.458 0 .97-.145 1.432-.407a23.79 23.79 0 011.386-.717c.367-.17.88-.544 1.143-.83.262-.286.642-.688.844-.893.202-.206.367-.434.367-.508 0-.252.734-1.214.927-1.215.106 0 .33-.175.496-.388.412-.523 1.253-.952 2.332-1.188 1.507-.329 2.612.18 2.612 1.202 0 .518.31.463.981-.174.82-.777 1.1-.89 2.49-1.017 1.145-.104 1.297-.08 1.947.303.809.476 1.178 1.107 1.445 2.462.17.864.145 1.138-.262 2.83-.364 1.518-.515 1.9-.79 2.006-.23.087-.435.047-.627-.122-.3-.264-.388-.936-.143-1.087.079-.049.193-.512.255-1.03.061-.518.151-1.257.2-1.642.12-.938-.063-1.824-.403-1.952a1.69 1.69 0 01-.492-.318c-.317-.313-1.584-.26-2.282.096-.98.5-2.19 1.925-2.982 3.51-.782 1.565-1.287 2.078-1.705 1.731-.432-.358-.256-1.28.44-2.308.216-.318.304-.81.335-1.878l.042-1.446-.571-.042c-.725-.053-2.245.698-2.6 1.286-.905 1.5-2.64 3.375-3.511 3.795-2.546 1.226-3.111 1.441-3.588 1.362-.75-.123-2.204-1.106-2.328-1.574-.068-.255.08-.943.41-1.912.623-1.831.642-2.321.114-2.891-.474-.512-.459-.51-1.396-.146-1.5.585-2.357 1.193-3.143 2.232-.426.565-.775 1.098-.775 1.185 0 .352-.773 2.028-1.117 2.424-.46.528-1.062.494-1.141-.064-.03-.211.257-1.279.639-2.372.765-2.195.766-2.448.002-3.362l-.475-.567-.586.279c-.323.154-.586.353-.586.443 0 .09-.277.339-.614.552-.338.213-1.226.985-1.975 1.716-.749.73-1.451 1.329-1.56 1.329-.11 0-.406.217-.66.482s-.667.527-.917.582c-.25.055-.543.205-.65.334-.107.129-.265.234-.351.234-.086 0-.818.308-1.627.684l-1.471.683.088.582c.473 3.107.611 4.882.445 5.711-.098.487-.178 1.101-.178 1.365 0 .705-.473 2.737-.768 3.302-.141.27-.476.93-.745 1.47-.706 1.412-1.035 1.826-1.803 2.267-.869.498-1.255.599-1.663.432z" stroke-width=".163"/></svg>