<svg xmlns="http://www.w3.org/2000/svg" height="33.878" width="29.87"><path d="M.078 11.928c-.238-.155.074-.856.87-1.954.448-.617.9-2.028.9-2.809 0-.289-.232-.947-.516-1.463-.615-1.119-.552-1.47.266-1.47.317 0 .576.077.576.172 0 .096.264.518.586.94.572.748.583.789.473 1.814-.195 1.837-.945 3.676-1.814 4.448-.39.347-1.058.508-1.342.322zm9.857 9.945c-.203-.328.14-1.539.575-2.03.248-.28 1.054-1.319 1.79-2.307.738-.987 1.582-2.053 1.876-2.367.294-.314.579-.718.633-.898.054-.18.43-.69.834-1.136.404-.445.735-.86.735-.921 0-.062.203-.33.451-.595.248-.266.597-.77.776-1.119.178-.35.673-1.088 1.1-1.639.426-.551.775-1.092.775-1.201 0-.109.21-.466.468-.793s.813-1.256 1.234-2.064c.421-.808.91-1.621 1.083-1.806.175-.186.317-.395.317-.465s.416-.602.925-1.18C24.256.497 24.512.306 24.853.345c.24.028.443.168.473.326.029.152-.516 1.034-1.21 1.96-.695.924-1.372 1.957-1.504 2.293-.133.337-.303.612-.377.612-.075 0-.315.354-.534.785-.219.432-.716 1.185-1.105 1.673-.389.49-.837 1.145-.996 1.46-.159.315-.581 1.012-.938 1.551-.358.54-.715 1.128-.795 1.31-.08.18-.447.631-.817 1-.37.37-.671.757-.671.862 0 .104-.165.356-.368.559-.202.203-.582.695-.844 1.095-.263.399-.807 1.074-1.21 1.499-.402.425-.875 1.013-1.052 1.306-.178.293-.552.804-.833 1.135-.28.33-.804.973-1.163 1.426-.67.845-.809.941-.973.675zm3.754.217c-.137-.138-.25-.34-.25-.451 0-.405.964-1.697 2.633-3.531.94-1.033 1.918-2.245 2.174-2.694.626-1.1 2.942-4.545 3.714-5.525.343-.435.623-.856.623-.937 0-.08.105-.276.234-.434.683-.84 1.398-1.86 1.398-1.998 0-.086.205-.398.456-.693.543-.638.984-1.307 1.377-2.087.405-.802 1.67-2.587 2.285-3.222.6-.619 1.174-.69 1.447-.179.166.311.127.407-.322.776-.282.231-.511.514-.51.629 0 .114-.283.518-.63.898-.601.659-1.33 1.68-1.786 2.509-.117.212-.275.385-.352.385-.076 0-.21.206-.297.457-.207.594-1.69 2.821-2.593 3.896-.39.463-.709.944-.709 1.069s-.293.513-.651.863c-.378.368-.693.853-.748 1.15-.057.3-.433.877-.9 1.38-.441.475-.803.982-.804 1.127-.002.303-1.417 2.139-2.658 3.446-1.052 1.107-1.786 2.044-2.129 2.715-.319.624-.671.782-1.003.45zM3.96 32.8c.205 0 .9-.754 1.157-1.254.13-.253.443-.726.696-1.05.765-.98.932-1.855.932-4.896 0-2.553-.03-2.82-.428-3.892-.234-.634-.523-1.152-.641-1.152-.132 0-.283.362-.391.939a55.6 55.6 0 01-.59 2.57l-.732 2.909c-.176.701-.32 1.527-.32 1.833 0 .306-.184 1.105-.409 1.774-.224.668-.408 1.344-.408 1.5 0 .394.502.913.779.807.125-.048.285-.088.355-.088zm-2.196.266c-.256-.31-.25-.838-.101-1.202.102-.248.252-.991.334-1.65.082-.66.294-1.689.473-2.287.337-1.134 1.025-4.136 1.332-5.822.355-1.947.432-2.3.544-2.48.32-.52 1.249-6.296 1.923-11.97.504-4.245.597-4.572 1.297-4.572.455 0 .648.49.488 1.235-.076.354-.184 1.194-.241 1.867-.093 1.105-.261 2.307-.746 5.325-.088.55-.162 1.394-.163 1.878-.002.484-.15 1.537-.327 2.34-.395 1.788-.405 2.313-.048 2.513.274.154.608 1.004.875 2.23.078.36.237 1.057.352 1.551.126.537.21 1.948.21 3.51-.003 2.737-.165 3.744-.781 4.816-.616 1.073-1.4 2.23-1.655 2.441-.14.117-.256.295-.257.396-.002.101-.479.567-.817.633-.914.179-2.098-.036-2.692-.754z" stroke-width=".163"/></svg>