<svg xmlns="http://www.w3.org/2000/svg" height="31.088" width="7.966"><path d="M.254 8.73c-.435-.254-.36-.435.612-1.486.996-1.074 1.506-2.042 1.656-3.142.088-.642.04-.811-.41-1.423-.55-.749-.661-1.4-.263-1.552.407-.156 1.196.27 1.546.838.438.708.447 2.454.019 3.668-.36 1.022-1.47 2.515-2.202 2.961-.586.357-.579.356-.958.135zm4.332 20.215c.4-.471.819-1.035.932-1.253.408-.782.878-5.324.734-7.088-.134-1.643-.736-3.453-1.106-3.33-.224.075-.554 1.14-.683 2.204-.062.515-.297 1.488-.522 2.161a22.906 22.906 0 00-.643 2.45 21.565 21.565 0 01-.555 2.203c-.447 1.363-.486 2.736-.09 3.174.539.595 1.122.438 1.933-.52zm-2.759 1.733c-.678-.634-.91-1.403-.734-2.426.303-1.76 1.044-5.095 1.27-5.715.42-1.157.867-3.083.87-3.755.001-.359.142-1.388.315-2.285.172-.898.359-2.074.415-2.613.057-.538.242-1.53.412-2.204.17-.673.43-1.812.578-2.53.148-.719.34-1.637.426-2.041.086-.404.263-1.47.394-2.368.13-.898.404-2.286.609-3.085C6.68.49 6.825.178 7.116.07c.2-.074.473-.092.608-.04.346.132.317 1.407-.06 2.603a20 20 0 00-.512 2.19 120.86 120.86 0 01-.447 2.449c-.132.673-.303 1.592-.38 2.04-.077.45-.222 1.111-.32 1.47-.345 1.247-.5 1.964-.596 2.744-.084.683-.044.842.31 1.225.37.402 1.015 2.199 1.623 4.521.45 1.724.172 5.636-.564 7.918-.793 2.463-1.926 3.657-3.665 3.863-.704.083-.837.044-1.286-.375z" stroke-width=".163"/></svg>