<svg xmlns="http://www.w3.org/2000/svg" height="33.882" width="29.871"><path d="M.078 11.927c-.238-.155.074-.856.87-1.954.448-.618.9-2.029.9-2.809 0-.289-.232-.948-.516-1.463C.717 4.58.78 4.23 1.598 4.23c.317 0 .576.078.576.173 0 .095.264.517.586.939.572.748.583.789.473 1.815-.195 1.837-.945 3.676-1.813 4.448-.39.347-1.059.507-1.342.322zm9.857 9.945c-.202-.328.14-1.539.575-2.03.248-.28 1.054-1.318 1.791-2.306.737-.988 1.58-2.053 1.875-2.367.294-.315.579-.719.633-.898.054-.18.43-.691.834-1.136.404-.446.735-.86.735-.922 0-.061.203-.33.451-.595.248-.265.597-.769.776-1.119.178-.35.673-1.088 1.1-1.64.426-.55.775-1.091.775-1.2 0-.11.211-.466.469-.793.257-.328.813-1.257 1.234-2.065.422-.808.909-1.62 1.083-1.806.174-.185.316-.395.316-.465s.417-.602.926-1.181C24.256.496 24.513.304 24.853.344c.24.028.443.168.473.326.029.153-.516 1.034-1.21 1.96-.695.925-1.372 1.957-1.505 2.294-.133.337-.302.612-.377.612-.075 0-.315.353-.534.785-.219.432-.716 1.185-1.105 1.674-.388.488-.836 1.145-.995 1.46-.16.314-.582 1.012-.939 1.55-.357.54-.715 1.128-.795 1.31-.08.181-.447.632-.816 1.001-.37.37-.672.757-.672.861 0 .105-.165.356-.367.56-.202.202-.582.695-.845 1.094a13.412 13.412 0 01-1.208 1.499c-.402.425-.876 1.013-1.054 1.306-.177.293-.551.804-.832 1.135-.28.331-.804.973-1.163 1.426-.67.845-.809.942-.973.676zm3.754.217c-.137-.138-.25-.34-.25-.451 0-.405.964-1.697 2.633-3.53.94-1.033 1.919-2.246 2.174-2.695.626-1.1 2.942-4.545 3.714-5.524.342-.435.622-.857.622-.937 0-.081.106-.276.235-.435.683-.839 1.398-1.86 1.398-1.997 0-.086.205-.398.456-.693a10.3 10.3 0 001.377-2.087c.405-.803 1.67-2.587 2.286-3.222.6-.619 1.174-.69 1.447-.179.166.311.126.407-.322.776-.282.232-.512.514-.51.629 0 .114-.283.518-.63.898a14.682 14.682 0 00-1.786 2.509c-.118.211-.276.385-.352.385-.076 0-.21.206-.297.457-.208.594-1.69 2.821-2.593 3.895-.39.464-.709.945-.709 1.07 0 .124-.293.512-.651.862-.378.369-.692.853-.748 1.152-.057.3-.433.876-.9 1.379-.441.475-.803.982-.804 1.126-.002.304-1.416 2.14-2.657 3.447-1.052 1.107-1.787 2.044-2.13 2.715-.319.623-.671.781-1.003.45zM3.961 32.802c.206 0 .901-.754 1.157-1.254.13-.253.443-.726.696-1.05.765-.98.932-1.855.932-4.896 0-2.553-.03-2.82-.427-3.893-.235-.634-.524-1.152-.642-1.152-.132 0-.283.362-.391.939a55.479 55.479 0 01-.59 2.571l-.732 2.908c-.176.702-.32 1.527-.32 1.834 0 .306-.184 1.105-.409 1.773-.224.67-.408 1.344-.408 1.501 0 .393.502.913.779.806.125-.048.285-.087.355-.087zm-2.195.266c-.257-.31-.25-.838-.102-1.202.102-.248.253-.991.335-1.65.081-.66.294-1.689.472-2.286.338-1.134 1.025-4.137 1.332-5.822.355-1.947.433-2.3.545-2.481.32-.519 1.248-6.296 1.922-11.968.505-4.244.598-4.572 1.298-4.572.455 0 .648.489.488 1.235-.076.354-.185 1.194-.241 1.867-.093 1.105-.261 2.307-.746 5.325-.088.55-.162 1.394-.164 1.878-.002.483-.149 1.536-.326 2.34-.395 1.788-.406 2.313-.049 2.513.275.154.609 1.004.876 2.23.078.36.236 1.057.352 1.551.126.537.21 1.948.21 3.51-.003 2.737-.165 3.744-.781 4.817-.616 1.072-1.4 2.228-1.656 2.44-.14.117-.256.295-.257.396-.002.101-.479.567-.817.633-.914.179-2.098-.036-2.692-.754z"/></svg>