<?xml version="1.0" encoding="UTF-8" standalone="no"?>
<svg
   xmlns:dc="http://purl.org/dc/elements/1.1/"
   xmlns:cc="http://creativecommons.org/ns#"
   xmlns:rdf="http://www.w3.org/1999/02/22-rdf-syntax-ns#"
   xmlns:svg="http://www.w3.org/2000/svg"
   xmlns="http://www.w3.org/2000/svg"
   id="svg2663"
   viewBox="0 0 44.748438 32.018646"
   version="1.1"
   height="32.018646"
   width="44.74844">
  <defs
     id="defs2667" />
  <metadata
     id="metadata2">
    <rdf:RDF>
      <cc:Work
         rdf:about="">
        <dc:format>image/svg+xml</dc:format>
        <dc:type
           rdf:resource="http://purl.org/dc/dcmitype/StillImage" />
        <dc:title />
      </cc:Work>
    </rdf:RDF>
  </metadata>
  <g
     transform="translate(-607.59839,-415.07929)"
     id="g2661">
    <g
       style="stroke-width:0.16327"
       id="g2557">
      <path
         d="m 607.75,423.01 c -0.10943,-0.3448 -0.002,-0.54151 0.75321,-1.3799 0.24268,-0.26939 0.56719,-0.93062 0.72111,-1.4694 0.15395,-0.53878 0.34493,-1.1484 0.42443,-1.3546 0.23143,-0.60041 0.16682,-1.2208 -0.18198,-1.7474 -0.41695,-0.62957 -0.41232,-1.0038 0.0152,-1.2326 0.60333,-0.32291 1.0342,-0.0725 1.3391,0.77815 0.49105,1.37 0.30856,2.8325 -0.59221,4.7456 -0.38611,0.82003 -1.5954,1.9945 -2.0536,1.9945 -0.17827,0 -0.36603,-0.14761 -0.42529,-0.33437 z m 2.499,22.165 c 0.28586,-0.29492 0.63778,-0.88267 0.78208,-1.3061 0.14427,-0.42343 0.32053,-0.76988 0.3917,-0.76988 0.0712,0 0.16928,-0.20204 0.21803,-0.44898 0.0488,-0.24693 0.20547,-0.8711 0.34824,-1.387 0.63677,-2.3008 0.73734,-2.9048 0.72735,-4.3681 -0.0126,-1.8383 -0.26785,-2.9938 -0.67868,-3.0718 -0.15742,-0.0299 -0.31494,0.0429 -0.35007,0.16181 -0.28454,0.96317 -0.79608,2.5619 -0.90498,2.8284 -0.0734,0.17959 -0.2185,0.87616 -0.32245,1.548 -0.10397,0.67177 -0.28725,1.3713 -0.40732,1.5546 -0.12006,0.18325 -0.27058,0.66217 -0.33446,1.0643 -0.0639,0.40213 -0.25685,1.1981 -0.42882,1.7687 -0.3463,1.1493 -0.40142,2.1649 -0.14362,2.6466 0.23956,0.44764 0.50735,0.39412 1.103,-0.22045 z m -1.5169,1.849 c -0.17959,-0.0731 -0.51021,-0.38003 -0.7347,-0.68201 -0.35,-0.47084 -0.40674,-0.71681 -0.39823,-1.7266 0.006,-0.64764 0.087,-1.3456 0.18121,-1.551 0.0942,-0.20544 0.29952,-0.81434 0.45627,-1.3531 0.15674,-0.53878 0.37734,-1.2735 0.49024,-1.6326 0.1129,-0.35919 0.29193,-1.0572 0.39784,-1.551 0.10591,-0.49388 0.29795,-1.2653 0.42675,-1.7143 0.12878,-0.44898 0.41322,-1.4408 0.63208,-2.2041 0.21886,-0.76327 0.43624,-1.6082 0.48307,-1.8776 0.2005,-1.1533 0.4593,-2.1753 0.83115,-3.2824 0.21843,-0.65035 0.47624,-1.7207 0.57291,-2.3786 0.0967,-0.65787 0.28502,-1.7839 0.41853,-2.5022 0.13354,-0.71837 0.31782,-1.8147 0.40951,-2.4364 0.0917,-0.62163 0.23085,-1.2094 0.30924,-1.3061 0.0784,-0.0967 0.23097,-1.131 0.33908,-2.2983 0.22142,-2.3906 0.3746,-2.9365 0.92519,-3.2973 0.90288,-0.59157 1.1123,0.58023 0.54557,3.0524 -0.17499,0.76326 -0.32003,1.6974 -0.32233,2.0759 -0.002,0.37848 -0.11589,1.0172 -0.25239,1.4192 -0.13653,0.40208 -0.31468,1.2312 -0.39594,1.8424 -0.37935,2.854 -0.55108,3.792 -0.85522,4.6708 -0.19905,0.57522 -0.2862,1.1128 -0.22191,1.3689 0.10071,0.40125 0.14711,0.41749 0.95437,0.33401 1.0074,-0.10418 3.7072,-1.341 4.6315,-2.1219 0.34386,-0.29046 0.99385,-0.91384 1.4445,-1.3853 0.4506,-0.47143 0.90379,-0.85714 1.0071,-0.85714 0.10329,0 0.34721,-0.25791 0.54202,-0.57313 0.26382,-0.42686 0.6689,-0.71851 1.5873,-1.1429 0.67822,-0.31335 1.3328,-0.56973 1.4546,-0.56973 0.38148,0 1.8549,1.1593 1.8549,1.4594 0,0.15726 0.14557,0.41765 0.32347,0.57864 0.35856,0.32449 0.42626,0.29432 1.3908,-0.61996 0.60526,-0.5737 1.4195,-0.92828 2.1318,-0.92828 0.29749,0 0.72307,-0.0693 0.94577,-0.15394 0.25136,-0.0956 0.61352,-0.0963 0.95508,-0.002 0.44387,0.12256 0.6379,0.32512 1.004,1.0482 0.38607,0.76243 0.43701,1.0127 0.34107,1.6755 -0.062,0.42854 -0.1688,0.85264 -0.23727,0.94244 -0.0685,0.0898 -0.21788,0.58586 -0.332,1.1024 -0.29541,1.337 -0.0867,1.7548 0.87667,1.7548 0.45817,0 0.96936,-0.14527 1.4321,-0.40697 0.39575,-0.22384 1.0193,-0.54652 1.3858,-0.71705 0.3665,-0.17053 0.8807,-0.544 1.1429,-0.82992 0.26215,-0.28595 0.64196,-0.68804 0.844,-0.89354 0.20204,-0.2055 0.36734,-0.43414 0.36734,-0.50808 0,-0.25177 0.73396,-1.2136 0.92693,-1.2148 0.10573,0 0.32886,-0.17481 0.49586,-0.3871 0.41178,-0.52349 1.2533,-0.95198 2.3323,-1.1875 1.5067,-0.32895 2.6122,0.17962 2.6122,1.2017 0,0.51728 0.30981,0.46226 0.98116,-0.17425 0.81941,-0.7769 1.0989,-0.89103 2.4904,-1.0171 1.1453,-0.10379 1.2974,-0.0802 1.9466,0.30248 0.80857,0.47657 1.1785,1.1069 1.4447,2.462 0.16971,0.86376 0.14434,1.138 -0.26206,2.8314 -0.36403,1.517 -0.51504,1.8999 -0.79074,2.0051 -0.2288,0.0874 -0.43465,0.0473 -0.62649,-0.12202 -0.29941,-0.26422 -0.38769,-0.93555 -0.14292,-1.0868 0.0785,-0.0485 0.193,-0.51206 0.25435,-1.03 0.0614,-0.51799 0.15168,-1.257 0.20069,-1.6422 0.11939,-0.93811 -0.0633,-1.8237 -0.40276,-1.9522 -0.15218,-0.0576 -0.37378,-0.20069 -0.49244,-0.31794 -0.3169,-0.3132 -1.5838,-0.25968 -2.2817,0.0964 -0.98044,0.50018 -2.1914,1.925 -2.9821,3.509 -0.78165,1.5657 -1.2868,2.0788 -1.7049,1.7317 -0.43207,-0.35857 -0.25626,-1.2799 0.44042,-2.3083 0.21571,-0.31838 0.30333,-0.81022 0.3345,-1.8776 l 0.0422,-1.4462 -0.57143,-0.0422 c -0.7248,-0.0535 -2.2446,0.69812 -2.5993,1.2856 -0.90567,1.4998 -2.6414,3.3754 -3.5118,3.7947 -2.546,1.2264 -3.1105,1.4408 -3.5877,1.3623 -0.75073,-0.12347 -2.2043,-1.106 -2.3282,-1.5737 -0.0674,-0.25459 0.0801,-0.94313 0.4098,-1.9123 0.62295,-1.8314 0.6424,-2.3212 0.11477,-2.8905 -0.4744,-0.51189 -0.45908,-0.51029 -1.3955,-0.14569 -1.5009,0.58436 -2.3572,1.1925 -3.1429,2.2322 -0.42653,0.56444 -0.77551,1.0978 -0.77551,1.1853 0,0.35149 -0.77262,2.0279 -1.1174,2.4244 -0.45904,0.52795 -1.0622,0.4941 -1.1412,-0.064 -0.03,-0.21162 0.25755,-1.2792 0.63891,-2.3724 0.76566,-2.1948 0.76578,-2.4478 0.002,-3.3617 l -0.47494,-0.56784 -0.58607,0.27948 c -0.32233,0.15371 -0.58607,0.35322 -0.58607,0.44335 0,0.0901 -0.27618,0.3382 -0.61373,0.55128 -0.33756,0.21309 -1.2264,0.98545 -1.9752,1.7163 -0.74878,0.73089 -1.4507,1.3289 -1.5598,1.3289 -0.1091,0 -0.40611,0.21683 -0.66002,0.48186 -0.25389,0.26503 -0.66664,0.52689 -0.91721,0.58193 -0.25056,0.055 -0.54312,0.20553 -0.6501,0.33446 -0.10701,0.12892 -0.2648,0.2344 -0.35066,0.2344 -0.0859,0 -0.81801,0.30753 -1.627,0.6834 l -1.4709,0.68339 0.0885,0.58191 c 0.47269,3.1068 0.61081,4.8819 0.44436,5.7106 -0.0977,0.48671 -0.17771,1.1009 -0.17771,1.365 0,0.70477 -0.47279,2.7365 -0.76844,3.3022 -0.14077,0.26939 -0.47605,0.93061 -0.74505,1.4694 -0.70555,1.4131 -1.035,1.8275 -1.8033,2.2681 -0.86876,0.49825 -1.2545,0.59855 -1.6628,0.43233 z"
         id="afternoon_abv" />
    </g>
  </g>
</svg>
