<?xml version="1.0" encoding="UTF-8" standalone="no"?>
<svg
   xmlns:dc="http://purl.org/dc/elements/1.1/"
   xmlns:cc="http://creativecommons.org/ns#"
   xmlns:rdf="http://www.w3.org/1999/02/22-rdf-syntax-ns#"
   xmlns:svg="http://www.w3.org/2000/svg"
   xmlns="http://www.w3.org/2000/svg"
   id="svg2663"
   viewBox="0 0 29.871244 33.881691"
   version="1.1"
   height="33.881691"
   width="29.871244">
  <defs
     id="defs2667" />
  <metadata
     id="metadata2">
    <rdf:RDF>
      <cc:Work
         rdf:about="">
        <dc:format>image/svg+xml</dc:format>
        <dc:type
           rdf:resource="http://purl.org/dc/dcmitype/StillImage" />
        <dc:title />
      </cc:Work>
    </rdf:RDF>
  </metadata>
  <g
     transform="translate(-614.80209,-437.56303)"
     id="g2661">
    <g
       style="stroke-width:0.16327"
       id="g2557">
      <path
         d="m 614.88,449.49 c -0.23801,-0.15534 0.0741,-0.85629 0.87029,-1.9544 0.44756,-0.61731 0.89943,-2.0283 0.89943,-2.8085 0,-0.28908 -0.23202,-0.94763 -0.51558,-1.4634 -0.61543,-1.1194 -0.55197,-1.4709 0.26555,-1.4709 0.31711,0 0.57656,0.0779 0.57656,0.17306 0,0.0952 0.26349,0.51764 0.58553,0.93878 0.57236,0.7485 0.583,0.7893 0.47367,1.8153 -0.19576,1.837 -0.94546,3.6757 -1.8135,4.4479 -0.38979,0.34674 -1.0584,0.50726 -1.3419,0.3222 z m 9.8575,9.9454 c -0.20279,-0.32812 0.13995,-1.5392 0.57473,-2.0308 0.24795,-0.28034 1.0539,-1.3179 1.791,-2.3056 0.73708,-0.98775 1.5807,-2.0531 1.8746,-2.3673 0.29394,-0.31429 0.57894,-0.71837 0.63334,-0.89796 0.0544,-0.17959 0.42974,-0.69079 0.83407,-1.136 0.40434,-0.44521 0.73517,-0.85988 0.73517,-0.9215 0,-0.0616 0.20297,-0.32931 0.45103,-0.59487 0.24809,-0.26557 0.59707,-0.76926 0.77551,-1.1193 0.17847,-0.35006 0.67346,-1.0877 1.1,-1.6392 0.42654,-0.5515 0.77551,-1.092 0.77551,-1.201 0,-0.10905 0.21069,-0.46596 0.46821,-0.79318 0.25752,-0.3272 0.81305,-1.2562 1.2345,-2.0643 0.42145,-0.8081 0.90872,-1.6211 1.0828,-1.8064 0.17409,-0.18537 0.31652,-0.39448 0.31652,-0.4647 0,-0.0702 0.41631,-0.60183 0.92511,-1.1814 0.74893,-0.85303 1.0052,-1.0444 1.3456,-1.0047 0.23951,0.0279 0.44302,0.16823 0.47293,0.32604 0.0289,0.15235 -0.51575,1.034 -1.2103,1.9592 -0.69453,0.9252 -1.3715,1.9577 -1.5044,2.2944 -0.13292,0.33673 -0.30275,0.61224 -0.37741,0.61224 -0.0747,0 -0.31481,0.35333 -0.53363,0.78518 -0.21884,0.43184 -0.71599,1.1849 -1.1048,1.6735 -0.3888,0.48855 -0.83693,1.1454 -0.99585,1.4597 -0.15893,0.31429 -0.58131,1.0122 -0.93862,1.551 -0.35732,0.53878 -0.71497,1.128 -0.79479,1.3094 -0.0798,0.1814 -0.44723,0.63193 -0.81649,1.0012 -0.36926,0.36927 -0.67136,0.75682 -0.67136,0.86126 0,0.10444 -0.16531,0.35597 -0.36735,0.55894 -0.20204,0.20298 -0.58222,0.69556 -0.84486,1.0946 -0.26263,0.39906 -0.80647,1.0735 -1.2085,1.4988 -0.40206,0.42526 -0.87599,1.013 -1.0532,1.3061 -0.17718,0.29311 -0.55169,0.80392 -0.83228,1.1352 -0.28057,0.33124 -0.80402,0.97305 -1.1632,1.4263 -0.66983,0.84517 -0.80887,0.94163 -0.97347,0.6753 z m 3.7537,0.21639 c -0.13729,-0.13729 -0.24962,-0.3402 -0.24962,-0.45089 0,-0.40487 0.96358,-1.697 2.6329,-3.5305 0.94013,-1.0326 1.9185,-2.2449 2.174,-2.6939 0.62608,-1.0997 2.9421,-4.5454 3.7136,-5.5249 0.3423,-0.4346 0.62237,-0.8562 0.62237,-0.93691 0,-0.0807 0.1054,-0.27615 0.23424,-0.43432 0.68351,-0.83914 1.3984,-1.8604 1.3984,-1.9976 0,-0.0859 0.20528,-0.3975 0.45615,-0.69246 0.54271,-0.63806 0.98434,-1.3074 1.3773,-2.0873 0.40436,-0.80263 1.6703,-2.5874 2.2852,-3.2218 0.59977,-0.61881 1.1739,-0.68968 1.4474,-0.17868 0.16631,0.31076 0.12645,0.40666 -0.32225,0.77551 -0.28162,0.23151 -0.51138,0.5144 -0.51056,0.62864 0,0.11425 -0.28203,0.51833 -0.62851,0.89796 -0.60188,0.65944 -1.3297,1.6812 -1.7871,2.5089 -0.11714,0.21199 -0.27527,0.38542 -0.35136,0.38542 -0.0761,0 -0.21008,0.20564 -0.2977,0.45697 -0.20717,0.5943 -1.6894,2.8212 -2.5928,3.8956 -0.3896,0.46329 -0.70836,0.94431 -0.70836,1.0689 0,0.12461 -0.29322,0.51289 -0.65161,0.86283 -0.37735,0.36849 -0.69229,0.85306 -0.74824,1.1513 -0.0562,0.29962 -0.4324,0.87646 -0.8994,1.3791 -0.44153,0.47525 -0.8032,0.98227 -0.80371,1.1267 -0.002,0.30353 -1.4168,2.1393 -2.6578,3.4463 -1.0516,1.1075 -1.7862,2.0442 -2.1292,2.7149 -0.31897,0.62375 -0.67151,0.78194 -1.0033,0.45017 z m -9.7279,10.713 c 0.20532,0 0.9008,-0.75383 1.1568,-1.2538 0.12965,-0.25325 0.44284,-0.7258 0.69596,-1.0501 0.76531,-0.98059 0.93164,-1.8547 0.93164,-4.8963 0,-2.5528 -0.0292,-2.819 -0.42708,-3.8924 -0.23489,-0.63372 -0.52356,-1.1522 -0.64149,-1.1522 -0.13169,0 -0.28254,0.36216 -0.39105,0.93878 -0.0971,0.51632 -0.36227,1.6735 -0.58914,2.5714 -0.22688,0.89796 -0.55667,2.2067 -0.73288,2.9083 -0.17622,0.70162 -0.3204,1.5266 -0.3204,1.8333 0,0.3067 -0.18367,1.1048 -0.40816,1.7736 -0.22449,0.66873 -0.40816,1.3441 -0.40816,1.5008 0,0.39301 0.50163,0.91243 0.77856,0.80616 0.12526,-0.0481 0.28518,-0.0874 0.35538,-0.0874 z m -2.1957,0.26649 c -0.25623,-0.30993 -0.25035,-0.83832 -0.10119,-1.2021 0.10193,-0.24859 0.25231,-0.99148 0.33421,-1.6509 0.0819,-0.65938 0.29454,-1.688 0.47257,-2.2857 0.33758,-1.1335 1.0247,-4.1361 1.3322,-5.8215 0.35517,-1.9468 0.43284,-2.3006 0.54453,-2.4814 0.32052,-0.51861 1.2486,-6.2952 1.9226,-11.968 0.50429,-4.2436 0.59734,-4.5714 1.2974,-4.5714 0.4552,0 0.64834,0.48877 0.48799,1.2349 -0.076,0.35345 -0.18441,1.1937 -0.24098,1.8671 -0.0928,1.1046 -0.26118,2.3069 -0.7457,5.325 -0.0882,0.54912 -0.16186,1.394 -0.16381,1.8776 -0.002,0.48353 -0.14888,1.5366 -0.32653,2.3402 -0.39526,1.788 -0.4054,2.3133 -0.0485,2.513 0.27476,0.15376 0.60837,1.0037 0.87528,2.23 0.0782,0.35918 0.23681,1.0571 0.3525,1.551 0.12585,0.53714 0.20987,1.9476 0.20911,3.5102 -0.002,2.7366 -0.16452,3.7436 -0.78052,4.8163 -0.61593,1.0726 -1.4001,2.2286 -1.6555,2.4406 -0.14024,0.11641 -0.25606,0.29449 -0.25735,0.39573 -0.002,0.10125 -0.4784,0.5669 -0.81633,0.63303 -0.91453,0.17897 -2.0982,-0.0358 -2.692,-0.75401 z"
         id="afterwards_abv" />
    </g>
  </g>
</svg>
