<svg xmlns="http://www.w3.org/2000/svg" height="32.613" width="45.967"><path d="M11.511 11.183c-.127-.331.016-.658.735-1.684.75-1.072.995-2.393.564-3.05-.147-.225-.368-.409-.491-.409-.314 0-.453-.454-.252-.828.268-.502.904-.388 1.53.275.633.671.817 1.372.652 2.48-.158 1.058-.577 1.948-1.302 2.767-.633.714-1.259.91-1.436.449zm-11.329.79c-.32-.13-.251-.398.469-1.831.816-1.626 1.048-3.227.548-3.78-.162-.178-.374-.315-.472-.304-.572.066-.769-.035-.72-.369.126-.844 1.478-.802 2.276.072.49.537.634 1.436.325 2.036-.08.156-.226.812-.324 1.457-.274 1.8-1.25 3.062-2.102 2.719zm42.545-7.361c.553-.606 1.182-1.289 1.397-1.517.242-.256.414-.663.45-1.061l.057-.647-.66-.048c-.552-.04-.727.027-1.074.416-.61.684-1.613 3.039-1.613 3.785 0 .422.512.093 1.443-.928zm-5.703 13.21c1.163-1.242 1.652-2.709 1.764-5.292.074-1.694.065-1.755-.264-1.755-.2 0-.797.447-1.443 1.078-.607.594-1.268 1.19-1.47 1.325-.202.136-.367.344-.367.462 0 .118-.14.26-.312.314-.171.054-.614.427-.983.827-.37.4-.72.729-.78.729-.298 0-.864.759-.864 1.157 0 .343.195.603.837 1.115.813.647.875.667 2.067.667 1.213 0 1.235-.008 1.815-.627zM5.607 30.816c.399-.566.877-2.273 1.054-3.76.276-2.325.386-4.363.237-4.358-.205.006-1.205 1.52-1.205 1.823 0 .14-.107.344-.238.453a1.353 1.353 0 00-.348.55c-.06.194-.356.879-.66 1.521-.424.902-.55 1.38-.55 2.103 0 1.648 1.022 2.644 1.71 1.668zm-.95-12.455c.387-.055.858-.404 1.076-.459.218-.055.594-.255.836-.445.679-.534 1.736-2.192 1.736-2.723 0-.257.108-.61.24-.785.597-.79-.04-2.034-1.04-2.029-1.275.006-3.618 1.183-4.044 2.03-.093.185-.41.796-.703 1.36-.634 1.213-.569 2.125.062 2.823.414.458 1.227.314 1.838.228zm-1.609 1.326c-.46-.147-.714-.226-1.253-.73-.593-.553-.837-1.12-.837-1.942 0-.656.418-1.925.77-2.343.124-.147.299-.514.389-.816.179-.603 1.629-1.804 2.678-2.369.98-.527 2.134-1.09 3.224-.868.802.162 1.71.688 1.934 1.512.177.652.131 2.03-.113 3.42-.064.364-.043.612.052.612.088 0 .63-.484 1.205-1.075.575-.591 1.212-1.14 1.415-1.221.204-.081.44-.328.524-.55.19-.503 2.502-1.888 3.15-1.888.773 0 1.714.592 2.08 1.308.252.495.429.65.736.65.223 0 .406-.054.406-.122.002-.166 1.464-1.033 3.14-1.86.466-.23 1.706-.159 2.318.133.975.465 1.153 1.067 1.153 3.89v2.45l.898-.015c1.158-.02 1.966-.395 3.69-1.716.456-.35.892-.637.967-.637.075 0 .364-.239.64-.53.278-.292.724-.726.992-.965.268-.238.64-.606.826-.816.584-.659 2.784-2.602 3.303-2.918.501-.305 1.598-1.693 1.932-2.444.315-.71.712-2.214.714-2.708.004-.78.427-1.764 1.328-3.092C42.252.647 43.096 0 43.968 0c.797 0 1.257.25 1.7.927.352.538.366.642.182 1.298-.11.393-.263.714-.341.714-.079 0-.142.078-.142.174 0 .37-1.02 1.613-2.813 3.428L40.69 8.429l-.218 1.132c-.12.623-.232 1.72-.25 2.439-.03 1.332-.291 3.34-.51 3.922-.187.501-1.36 2.4-1.75 2.834-.66.734-1.852 1.159-3.256 1.16-1.14.003-1.315-.04-1.68-.405a4.21 4.21 0 00-.858-.64c-.248-.129-.592-.496-.765-.817-.173-.322-.397-.585-.498-.585-.1 0-.5.23-.887.51s-1.225.727-1.861.992c-1.446.603-2.288.561-3.17-.156-.687-.559-.73-.903-.362-2.92.395-2.171-.1-3.487-1.314-3.487-.514 0-.87.165-1.766.817-.617.449-1.192.816-1.278.816-.178 0-.664.506-.927.966-.747 1.306-1.402 2.558-1.402 2.68 0 .348-1.191 1.742-1.488 1.742-.606 0-.556-.56.245-2.72.138-.373.325-1.135.415-1.693.135-.839.118-1.103-.099-1.525-.33-.644-.494-.75-1.166-.754-.431-.002-.757.19-1.592.937-.577.516-1.051 1.012-1.053 1.102-.002.09-.287.363-.633.608-.346.244-.754.708-.907 1.03-.152.322-.381.625-.508.674-.127.049-.652.687-1.167 1.419C9.22 19.595 9.03 20 8.938 20.735c-.107.86-.329 2.25-.639 4-.08.449-.214 1.404-.3 2.122-.223 1.883-.462 2.804-1.024 3.96-.69 1.416-1.747 2.08-2.686 1.683-.482-.203-1.346-1.43-1.555-2.209-.238-.882-.049-2.379.431-3.41l.883-1.901c.271-.584.641-1.282.823-1.551.181-.27.33-.589.331-.71 0-.12.153-.414.339-.652 1.82-2.34 2.449-3.455 1.949-3.455-.09 0-.728.261-1.417.58-1.515.7-1.373.518-2.094.582a2.38 2.38 0 01-.931-.087z"/></svg>