<?xml version="1.0" encoding="UTF-8" standalone="no"?>
<svg
   xmlns:dc="http://purl.org/dc/elements/1.1/"
   xmlns:cc="http://creativecommons.org/ns#"
   xmlns:rdf="http://www.w3.org/1999/02/22-rdf-syntax-ns#"
   xmlns:svg="http://www.w3.org/2000/svg"
   xmlns="http://www.w3.org/2000/svg"
   id="svg2663"
   viewBox="0 0 45.966868 32.613468"
   version="1.1"
   height="32.613468"
   width="45.966869">
  <defs
     id="defs2667" />
  <metadata
     id="metadata2">
    <rdf:RDF>
      <cc:Work
         rdf:about="">
        <dc:format>image/svg+xml</dc:format>
        <dc:type
           rdf:resource="http://purl.org/dc/dcmitype/StillImage" />
        <dc:title />
      </cc:Work>
    </rdf:RDF>
  </metadata>
  <g
     transform="translate(-608.50866,-482.93708)"
     id="g2661">
    <g
       style="stroke-width:0.16327"
       id="g2557">
      <path
         d="m 620.02,494.12 c -0.1271,-0.3312 0.0154,-0.65771 0.73438,-1.6843 0.75084,-1.0719 0.99514,-2.3927 0.56418,-3.0504 -0.1471,-0.22453 -0.36811,-0.40822 -0.49113,-0.40822 -0.31422,0 -0.45251,-0.45399 -0.25226,-0.82814 0.26881,-0.50232 0.90488,-0.38796 1.5303,0.27513 0.63301,0.67112 0.81737,1.3718 0.65223,2.4791 -0.15801,1.0594 -0.57659,1.9492 -1.3021,2.7678 -0.63332,0.71456 -1.2587,0.91014 -1.4356,0.44898 z m -11.329,0.78983 c -0.32005,-0.12914 -0.25136,-0.39768 0.4683,-1.8309 0.81655,-1.6262 1.0488,-3.2265 0.54839,-3.7794 -0.16159,-0.17855 -0.3738,-0.31545 -0.47158,-0.30418 -0.57265,0.0659 -0.76942,-0.035 -0.71974,-0.36891 0.12567,-0.84456 1.4776,-0.80205 2.2755,0.0715 0.49024,0.53675 0.6336,1.4363 0.32452,2.0365 -0.0803,0.15591 -0.22619,0.81131 -0.32418,1.4564 -0.27342,1.8002 -1.2492,3.0627 -2.1012,2.7189 z m 42.545,-7.361 c 0.5527,-0.60612 1.1813,-1.2888 1.397,-1.517 0.24189,-0.25598 0.41407,-0.66245 0.44953,-1.0612 l 0.0575,-0.64631 -0.66,-0.0485 c -0.55254,-0.0406 -0.72748,0.0272 -1.0744,0.41652 -0.60963,0.68421 -1.6126,3.0384 -1.6126,3.7852 0,0.42185 0.51189,0.0924 1.443,-0.92864 z m -5.7034,13.21 c 1.163,-1.2418 1.652,-2.7087 1.7642,-5.2916 0.0735,-1.6945 0.0644,-1.7551 -0.26423,-1.7551 -0.19942,0 -0.79716,0.44671 -1.443,1.0784 -0.60644,0.59313 -1.2679,1.1893 -1.47,1.3249 -0.20204,0.13557 -0.36734,0.3433 -0.36734,0.46161 0,0.11832 -0.14017,0.25961 -0.31148,0.31398 -0.17132,0.0544 -0.61363,0.42668 -0.98296,0.82733 -0.3693,0.40067 -0.72032,0.72847 -0.78003,0.72847 -0.29765,0 -0.86431,0.75884 -0.86431,1.1574 0,0.34296 0.19563,0.60322 0.83765,1.1144 0.81273,0.64712 0.8742,0.66696 2.0661,0.66696 1.2138,0 1.2354,-0.008 1.8154,-0.62674 z m -31.417,12.994 c 0.39873,-0.56559 0.87718,-2.2727 1.0536,-3.759 0.27599,-2.3256 0.38689,-4.3636 0.23726,-4.3592 -0.20486,0.006 -1.2047,1.5198 -1.2047,1.8239 0,0.13987 -0.10737,0.34342 -0.23858,0.45233 -0.13122,0.1089 -0.28748,0.35667 -0.34727,0.5506 -0.0598,0.19392 -0.35651,0.8782 -0.65938,1.5206 -0.42537,0.9022 -0.55069,1.3808 -0.55069,2.1032 0,1.6476 1.0215,2.6439 1.7098,1.6676 z m -0.94919,-12.455 c 0.38593,-0.0543 0.85746,-0.40387 1.0755,-0.4586 0.21806,-0.0547 0.59398,-0.25486 0.83537,-0.44475 0.67908,-0.53415 1.7366,-2.1928 1.7366,-2.7237 0,-0.25716 0.10787,-0.61016 0.23971,-0.78447 0.59745,-0.7899 -0.0406,-2.0341 -1.0406,-2.0291 -1.2748,0.006 -3.6172,1.1826 -4.0434,2.0305 -0.0925,0.1841 -0.40902,0.79579 -0.70331,1.3593 -0.63324,1.2127 -0.56862,2.1248 0.0625,2.8232 0.41384,0.45794 1.2265,0.31366 1.8377,0.22758 z m -1.6097,1.3264 c -0.46026,-0.14747 -0.71434,-0.22644 -1.253,-0.7296 -0.59257,-0.55353 -0.83683,-1.1206 -0.83683,-1.9427 0,-0.65571 0.41732,-1.9252 0.77019,-2.3429 0.12379,-0.14653 0.2986,-0.51387 0.38847,-0.81632 0.17901,-0.60247 1.6287,-1.8036 2.6781,-2.3682 0.98029,-0.52746 2.1336,-1.0903 3.2245,-0.86887 0.80171,0.16275 1.7096,0.68866 1.9331,1.512 0.17709,0.65226 0.13156,2.0302 -0.11302,3.4204 -0.064,0.36382 -0.0429,0.61224 0.0521,0.61224 0.0879,0 0.63015,-0.48377 1.205,-1.075 0.57489,-0.59127 1.2119,-1.141 1.4155,-1.2216 0.20366,-0.0806 0.43922,-0.32784 0.52347,-0.54944 0.19129,-0.50313 2.5022,-1.8886 3.1502,-1.8886 0.77304,0 1.7143,0.59214 2.0797,1.3083 0.25238,0.49471 0.42916,0.65086 0.73688,0.65086 0.22266,0 0.40531,-0.0551 0.40588,-0.12245 0.002,-0.16635 1.4641,-1.0329 3.1396,-1.86 0.46573,-0.22991 1.7064,-0.15894 2.3177,0.13257 0.97548,0.46516 1.1539,1.0668 1.1539,3.8908 v 2.449 l 0.89796,-0.0149 c 1.1576,-0.0192 1.9652,-0.39478 3.6886,-1.7154 0.45727,-0.35041 0.89287,-0.63712 0.968,-0.63712 0.0751,0 0.36351,-0.23878 0.64085,-0.53062 0.27736,-0.29183 0.72338,-0.72576 0.99118,-0.96427 0.26781,-0.23852 0.63953,-0.60587 0.82604,-0.81633 0.58383,-0.65879 2.7835,-2.6022 3.3029,-2.918 0.50134,-0.30488 1.5982,-1.6926 1.932,-2.4443 0.31473,-0.7088 0.71167,-2.2141 0.71415,-2.7082 0.004,-0.77956 0.42637,-1.7635 1.3274,-3.0914 0.94332,-1.3903 1.7876,-2.0371 2.6593,-2.0371 0.79714,0 1.2572,0.25087 1.6997,0.92696 0.352,0.53773 0.36667,0.64178 0.18288,1.2982 -0.1099,0.39249 -0.26372,0.71362 -0.34186,0.71362 -0.0781,0 -0.14204,0.0786 -0.14204,0.17466 0,0.3694 -1.0202,1.6128 -2.8121,3.4275 l -1.8642,1.8879 -0.21855,1.1325 c -0.12021,0.62291 -0.23218,1.7203 -0.24881,2.4387 -0.0309,1.3321 -0.29199,3.3401 -0.51004,3.922 -0.18779,0.50111 -1.3618,2.4008 -1.7516,2.8343 -0.65988,0.73386 -1.8516,1.1587 -3.2551,1.1605 -1.1404,0.002 -1.3151,-0.0408 -1.6802,-0.40583 -0.22408,-0.22408 -0.61021,-0.51228 -0.85804,-0.64044 -0.24782,-0.12816 -0.59215,-0.49584 -0.76513,-0.81706 -0.17299,-0.32123 -0.39701,-0.58405 -0.49781,-0.58405 -0.1008,0 -0.50005,0.22947 -0.88722,0.50994 -0.38718,0.28046 -1.2247,0.72688 -1.8612,0.99202 -1.4454,0.60212 -2.2874,0.56057 -3.1695,-0.15643 -0.68746,-0.5588 -0.73012,-0.90267 -0.36233,-2.9203 0.3957,-2.1707 -0.0999,-3.4865 -1.3133,-3.4865 -0.51396,0 -0.86993,0.16454 -1.7661,0.81633 -0.61729,0.44898 -1.1925,0.81633 -1.2783,0.81633 -0.17802,0 -0.6637,0.50622 -0.92677,0.96596 -0.74761,1.3065 -1.4023,2.5578 -1.4023,2.6803 0,0.34795 -1.191,1.7415 -1.4884,1.7415 -0.60576,0 -0.55531,-0.55936 0.24527,-2.7196 0.13837,-0.37335 0.32508,-1.1352 0.41491,-1.693 0.13507,-0.83861 0.11802,-1.1027 -0.0984,-1.5252 -0.32999,-0.64426 -0.4942,-0.75035 -1.1663,-0.75346 -0.43102,-0.002 -0.75686,0.18969 -1.5918,0.93628 -0.57737,0.51633 -1.0514,1.0122 -1.0534,1.102 -0.002,0.0898 -0.28661,0.36341 -0.63253,0.60802 -0.34595,0.24462 -0.75401,0.70824 -0.90683,1.0303 -0.1528,0.32204 -0.38165,0.62535 -0.50855,0.67404 -0.12689,0.0487 -0.65187,0.68712 -1.1666,1.4187 -0.76586,1.0885 -0.95615,1.4933 -1.0473,2.2282 -0.10671,0.86013 -0.32862,2.2499 -0.63871,4 -0.0796,0.44898 -0.21446,1.4041 -0.29982,2.1224 -0.22364,1.8825 -0.46212,2.8041 -1.0245,3.9592 -0.68991,1.417 -1.7474,2.08 -2.6858,1.6837 l -7e-5,-1.1e-4 c -0.48173,-0.20343 -1.3458,-1.4305 -1.5554,-2.2086 -0.23773,-0.88284 -0.0484,-2.379 0.43159,-3.4102 0.21512,-0.4622 0.61254,-1.3179 0.88317,-1.9016 0.27061,-0.58367 0.64064,-1.2816 0.82227,-1.551 0.18163,-0.2694 0.33072,-0.58837 0.33131,-0.70886 0,-0.12051 0.15301,-0.41439 0.3387,-0.65307 1.8208,-2.3405 2.4492,-3.4544 1.9488,-3.4544 -0.0894,0 -0.72709,0.26076 -1.417,0.57945 -1.5143,0.69946 -1.3723,0.51779 -2.0939,0.58234 -0.31032,0.0277 -0.63394,0.008 -0.93064,-0.0867 z"
         id="against" />
    </g>
  </g>
</svg>
