<?xml version="1.0" encoding="UTF-8" standalone="no"?>
<svg
   xmlns:dc="http://purl.org/dc/elements/1.1/"
   xmlns:cc="http://creativecommons.org/ns#"
   xmlns:rdf="http://www.w3.org/1999/02/22-rdf-syntax-ns#"
   xmlns:svg="http://www.w3.org/2000/svg"
   xmlns="http://www.w3.org/2000/svg"
   id="svg2663"
   viewBox="0 0 27.838403 27.882376"
   version="1.1"
   height="27.882376"
   width="27.838404">
  <defs
     id="defs2667" />
  <metadata
     id="metadata2">
    <rdf:RDF>
      <cc:Work
         rdf:about="">
        <dc:format>image/svg+xml</dc:format>
        <dc:type
           rdf:resource="http://purl.org/dc/dcmitype/StillImage" />
        <dc:title />
      </cc:Work>
    </rdf:RDF>
  </metadata>
  <g
     transform="translate(-609.63227,-465.30839)"
     id="g2661">
    <g
       style="stroke-width:0.16327"
       id="g2557">
      <path
         d="m 609.74,472.22 c -0.23581,-0.23581 -0.0839,-0.75161 0.44986,-1.5276 0.3073,-0.44673 0.64677,-1.0878 0.75441,-1.4246 0.10764,-0.33681 0.2603,-0.6822 0.33925,-0.76751 0.28661,-0.3097 0.14686,-1.2036 -0.26462,-1.6927 -0.64369,-0.76498 -0.46793,-1.4992 0.35889,-1.4992 0.4739,0 1.3478,1.3254 1.3523,2.051 0.003,0.50444 -0.76242,2.9575 -1.1487,3.6807 -0.4695,0.8791 -1.489,1.5323 -1.8414,1.1798 z m 13.202,-0.0382 c -0.0921,-0.29006 0.47846,-1.541 0.97548,-2.1387 0.35727,-0.4297 0.89691,-1.8209 0.89691,-2.3122 0,-0.26113 -0.11543,-0.65096 -0.25651,-0.86626 -0.19911,-0.3039 -0.21609,-0.46697 -0.0759,-0.72894 0.22568,-0.4217 0.67014,-0.43132 1.1714,-0.0254 0.33772,0.27347 0.38508,0.45037 0.3826,1.4286 -0.002,0.99817 -0.0856,1.2859 -0.7834,2.7155 -0.57461,1.1771 -0.91846,1.6831 -1.3033,1.9178 -0.65608,0.40005 -0.88277,0.40222 -1.0074,0.01 z m -7.2474,7.3716 c 0.49996,-0.26818 0.99342,-0.69552 1.2253,-1.0612 0.21357,-0.33674 0.44781,-0.61225 0.52053,-0.61225 0.24916,0 0.96924,-1.2783 1.1772,-2.0898 0.1882,-0.73427 0.17747,-0.86341 -0.11293,-1.3606 -0.45386,-0.77715 -1.4139,-1.2783 -2.4553,-1.2816 -1.0812,-0.003 -1.5067,0.16443 -2.3518,0.92789 -1.0563,0.95429 -1.4865,1.7501 -1.5656,2.8957 -0.0607,0.88011 -0.015,1.0729 0.41166,1.7365 0.48803,0.75902 1.2791,1.2838 1.9452,1.2906 0.20271,0.002 0.74521,-0.19832 1.2056,-0.44526 z m -0.0412,11.792 c 0.21455,-0.31502 0.45982,-0.95737 0.54506,-1.4274 0.0853,-0.47008 0.21804,-0.93098 0.29512,-1.0242 0.1263,-0.1528 0.64728,-3.2137 0.64728,-3.8029 0,-0.48813 -0.64841,0.33662 -1.2507,1.5908 -0.32716,0.68132 -0.76581,1.5104 -0.97476,1.8423 -0.39569,0.6286 -0.63866,2.252 -0.44973,3.0048 0.14861,0.59208 0.71966,0.50393 1.1877,-0.18332 z m -1.4854,1.7764 c -0.32868,-0.10055 -0.51249,-0.51596 -0.67954,-0.77554 -0.63964,-0.99399 0.12047,-4.5038 1.3934,-6.4342 0.25463,-0.38614 0.46295,-0.77972 0.46295,-0.87463 0,-0.34509 1.0122,-2.2828 1.2377,-2.3693 0.12743,-0.0489 0.23169,-0.18697 0.23169,-0.30684 0,-0.11985 0.36735,-0.63771 0.81633,-1.1508 0.56961,-0.65094 0.81632,-1.0732 0.81632,-1.3973 0,-0.60068 -0.32085,-0.60076 -1.0147,0 -0.29496,0.25527 -0.90364,0.6771 -1.3526,0.93741 -0.71466,0.41435 -0.97256,0.47198 -2.0708,0.4628 -1.4216,-0.0119 -1.5366,-0.075 -2.3351,-1.2805 -1.1146,-1.6828 -1.3362,-3.0752 -0.65021,-4.0861 0.2273,-0.33495 0.63414,-1.0465 0.90408,-1.5813 0.26995,-0.53476 0.61662,-1.0167 0.7704,-1.0711 0.15378,-0.0543 0.47117,-0.30117 0.70531,-0.54854 0.39262,-0.41484 1.7643,-0.98724 2.7303,-0.97288 1.0575,0.0157 2.0732,0.57068 2.9558,1.1534 0.39152,0.25846 0.79691,0.67216 0.98566,1.0046 0.31703,0.5584 0.33027,0.70733 0.17385,1.9549 -0.23646,1.8857 -0.23158,1.9304 0.21036,1.9304 0.35866,0 1.0897,-0.59782 1.0897,-0.89112 0,-0.13235 1.2353,-1.3534 2.9386,-2.9048 0.46831,-0.42653 0.97649,-0.77551 1.1293,-0.77551 0.15281,0 0.42045,-0.10787 0.59477,-0.23971 0.50464,-0.3817 1.8838,-0.31758 2.5224,0.11726 0.56652,0.38578 0.66453,0.52411 0.98629,1.3919 0.25517,0.68821 0.59946,0.59583 1.6146,-0.43328 0.86952,-0.88145 2.0752,-1.3697 3.4385,-1.3926 0.7587,-0.0127 0.99685,0.0606 1.5355,0.47261 1.0729,0.82063 1.2456,1.4316 1.1315,4.0021 -0.11025,2.4832 -0.31306,3.201 -0.94955,3.3607 -0.23458,0.0589 -0.47471,0.0589 -0.53361,-5e-5 -0.11605,-0.11605 -0.11685,-0.18371 -0.0433,-3.6754 l 0.0496,-2.3555 -0.44086,-0.37922 c -0.75088,-0.64586 -1.9936,-0.46224 -2.9431,0.43489 -2.0745,1.96 -2.4157,2.364 -3.0688,3.634 -1.0101,1.9643 -1.8377,2.6848 -2.2339,1.9447 -0.11904,-0.22243 -0.0576,-0.55293 0.23528,-1.2653 0.21802,-0.53032 0.39753,-1.0744 0.39892,-1.2091 0.002,-0.13469 0.12973,-0.74136 0.28524,-1.3482 0.27163,-1.0599 0.27088,-1.1253 -0.0192,-1.6639 -0.16606,-0.30836 -0.41074,-0.6024 -0.54376,-0.65344 -0.34649,-0.13296 -1.3992,0.18203 -1.8848,0.56398 -0.22792,0.17929 -0.47956,0.32598 -0.55919,0.32598 -0.0796,0 -0.42493,0.36735 -0.76733,0.81633 -0.3424,0.44898 -0.72666,0.81632 -0.85391,0.81632 -0.12726,0 -0.29468,0.16531 -0.37203,0.36735 -0.0774,0.20204 -0.77592,1.0286 -1.5523,1.8367 -0.87943,0.91537 -1.5607,1.7938 -1.807,2.3298 -0.469,1.0209 -1.1861,3.8464 -1.333,5.2524 -0.0575,0.54961 -0.16722,1.0381 -0.24394,1.0855 -0.0767,0.0474 -0.13948,0.27745 -0.13948,0.5112 0,1.1424 -0.61294,3.6482 -1.8971,4.7871 -0.53004,0.47007 -1.3778,0.74855 -2.0553,0.5413 z"
         id="again" />
    </g>
  </g>
</svg>
