<svg xmlns="http://www.w3.org/2000/svg" height="27.882" width="27.838"><path d="M.108 6.912c-.236-.236-.084-.752.45-1.528.307-.447.646-1.088.754-1.425.108-.336.26-.682.34-.767.286-.31.146-1.204-.265-1.693C.743.734.919 0 1.746 0c.473 0 1.347 1.325 1.352 2.051.003.504-.763 2.958-1.149 3.68-.47.88-1.489 1.533-1.841 1.18zm13.202-.039c-.092-.29.478-1.54.975-2.138.357-.43.897-1.821.897-2.312 0-.262-.115-.651-.256-.867-.2-.304-.216-.467-.076-.729.225-.421.67-.431 1.171-.025.338.273.385.45.383 1.429-.002.998-.086 1.285-.784 2.715-.574 1.177-.918 1.683-1.303 1.918-.656.4-.883.402-1.007.01zm-7.248 7.372c.5-.268.994-.696 1.226-1.061.213-.337.447-.612.52-.612.25 0 .97-1.279 1.177-2.09.189-.735.178-.864-.113-1.36-.453-.778-1.413-1.28-2.455-1.282-1.081-.003-1.507.164-2.352.927-1.056.955-1.486 1.75-1.565 2.896-.061.88-.015 1.073.411 1.737.488.759 1.28 1.283 1.946 1.29.202.002.745-.198 1.205-.445zm-.04 11.792c.214-.315.459-.957.544-1.427.085-.47.218-.931.295-1.025.127-.152.648-3.213.648-3.802 0-.489-.649.336-1.251 1.59-.327.682-.766 1.51-.975 1.843-.396.628-.639 2.252-.45 3.004.149.592.72.504 1.188-.183zm-1.486 1.776c-.329-.1-.513-.516-.68-.775-.64-.994.12-4.504 1.394-6.434.254-.386.463-.78.463-.875 0-.345 1.012-2.283 1.237-2.37.128-.048.232-.186.232-.306s.367-.638.816-1.15c.57-.652.817-1.074.817-1.398 0-.6-.321-.601-1.015 0-.295.255-.904.677-1.353.937-.714.415-.972.472-2.07.463-1.422-.012-1.537-.075-2.336-1.28-1.114-1.683-1.336-3.076-.65-4.087.227-.335.634-1.046.904-1.58.27-.536.617-1.018.77-1.072.154-.054.472-.301.706-.549.393-.414 1.764-.987 2.73-.972 1.058.015 2.073.57 2.956 1.153.392.258.797.672.986 1.005.317.558.33.707.174 1.954-.237 1.886-.232 1.93.21 1.93.359 0 1.09-.597 1.09-.89 0-.133 1.235-1.354 2.938-2.905.469-.427.977-.776 1.13-.776.152 0 .42-.107.594-.24.505-.38 1.884-.317 2.523.118.566.386.664.524.986 1.392.255.688.6.596 1.615-.433.87-.882 2.075-1.37 3.438-1.393.759-.013.997.06 1.536.473 1.072.82 1.245 1.431 1.131 4.002-.11 2.483-.313 3.2-.95 3.36-.234.06-.474.06-.533 0-.116-.116-.117-.183-.043-3.675l.05-2.356-.442-.379c-.75-.646-1.993-.462-2.943.435-2.074 1.96-2.415 2.364-3.069 3.634-1.01 1.964-1.837 2.685-2.233 1.945-.12-.223-.058-.553.235-1.265.218-.53.397-1.075.399-1.21.002-.134.13-.74.285-1.348.272-1.06.27-1.125-.02-1.664-.165-.308-.41-.602-.543-.653-.346-.133-1.4.182-1.885.564-.228.18-.48.326-.559.326-.08 0-.425.367-.767.816-.343.45-.727.817-.854.817s-.295.165-.372.367c-.078.202-.776 1.028-1.553 1.837-.879.915-1.56 1.793-1.807 2.33-.469 1.02-1.186 3.846-1.333 5.252-.057.55-.167 1.038-.243 1.085-.077.048-.14.278-.14.511 0 1.143-.613 3.649-1.897 4.788-.53.47-1.378.748-2.055.54z"/></svg>