<svg xmlns="http://www.w3.org/2000/svg" height="29.51" width="10.102"><path d="M.65 7.168c-.408-.238-.355-.55.204-1.186.27-.307.493-.732.496-.945.003-.212.11-.57.24-.795.306-.536.306-1.77 0-2.505-.323-.77-.317-1.514.013-1.64.786-.302 1.155.078 1.45 1.497.432 2.073-.03 3.965-1.297 5.301-.457.483-.66.533-1.106.273zm2.158 20.27c.093-.175.169-.697.169-1.161 0-.464.106-1.259.236-1.766.282-1.102.78-5.266.645-5.4-.14-.138-.88.842-.88 1.169 0 .155-.177.67-.391 1.143-.468 1.033-.752 1.913-.755 2.341-.002.174-.109.61-.238.968-.506 1.404-.16 3.02.647 3.02.226 0 .47-.135.567-.315zm-1.06 2c-.297-.059-.875-.81-1.53-1.989-.308-.556-.286-1.956.042-2.59.147-.285.268-.663.268-.84 0-.502 1.16-3.973 1.484-4.44.16-.23.339-.612.399-.85s.211-.518.337-.622c.126-.104.229-.357.229-.562 0-.205.306-.949.68-1.653.58-1.092.7-1.487.805-2.67.356-3.97.455-4.898.538-5.032.05-.081.17-.836.264-1.677.096-.841.283-1.696.416-1.9.305-.465.82-.477 1.062-.026.218.409.08 2.48-.268 4.033-.246 1.092-.315 2.978-.11 2.958.068-.007.417-.38.776-.83 1.38-1.728 2.423-2.434 2.897-1.96.208.209-.116 1.083-.511 1.38-.145.108-.483.491-.75.85-.446.598-.77.973-2.089 2.418-.249.273-.484.649-.522.835-.188.93-.286 1.594-.409 2.788-.176 1.712-.611 4.706-.818 5.633-.09.404-.272 1.583-.404 2.62-.27 2.112-.668 3.193-1.408 3.816-.485.407-.675.45-1.379.31z"/></svg>