<?xml version="1.0" encoding="UTF-8" standalone="no"?>
<svg
   xmlns:dc="http://purl.org/dc/elements/1.1/"
   xmlns:cc="http://creativecommons.org/ns#"
   xmlns:rdf="http://www.w3.org/1999/02/22-rdf-syntax-ns#"
   xmlns:svg="http://www.w3.org/2000/svg"
   xmlns="http://www.w3.org/2000/svg"
   id="svg2663"
   viewBox="0 0 10.101968 29.510408"
   version="1.1"
   height="29.510408"
   width="10.101968">
  <defs
     id="defs2667" />
  <metadata
     id="metadata2">
    <rdf:RDF>
      <cc:Work
         rdf:about="">
        <dc:format>image/svg+xml</dc:format>
        <dc:type
           rdf:resource="http://purl.org/dc/dcmitype/StillImage" />
        <dc:title />
      </cc:Work>
    </rdf:RDF>
  </metadata>
  <g
     transform="translate(-607.63959,-513.47191)"
     id="g2661">
    <g
       style="stroke-width:0.16327"
       id="g2557">
      <path
         d="m 608.29,520.64 c -0.40867,-0.23803 -0.35509,-0.54962 0.20408,-1.1865 0.26939,-0.30682 0.49239,-0.73182 0.49558,-0.94445 0.003,-0.21264 0.11079,-0.57029 0.23911,-0.79478 0.30678,-0.53664 0.30678,-1.7712 0,-2.5054 -0.32184,-0.77027 -0.31578,-1.514 0.0134,-1.6404 0.78656,-0.30182 1.1555,0.0789 1.4509,1.4974 0.43184,2.0735 -0.0309,3.9648 -1.2971,5.3014 -0.45744,0.48289 -0.65948,0.53269 -1.106,0.27264 z m 2.1575,20.269 c 0.093,-0.17368 0.16901,-0.69572 0.16901,-1.1601 0,-0.46437 0.10615,-1.259 0.2359,-1.7658 0.28203,-1.1018 0.78005,-5.2666 0.64565,-5.3995 -0.14057,-0.13904 -0.8798,0.84148 -0.88073,1.1682 0,0.15517 -0.1763,0.66945 -0.39078,1.1429 -0.46821,1.0335 -0.75202,1.9133 -0.75536,2.3417 -0.002,0.17321 -0.10833,0.60882 -0.23773,0.968 -0.50575,1.4038 -0.15956,3.0204 0.6468,3.0204 0.22662,0 0.47106,-0.13608 0.56724,-0.3158 z m -1.0607,2.0012 c -0.29631,-0.059 -0.87373,-0.81056 -1.5283,-1.9891 -0.30894,-0.55626 -0.28687,-1.9562 0.0408,-2.5899 0.14753,-0.28529 0.26823,-0.66335 0.26823,-0.84017 0,-0.50248 1.1601,-3.9733 1.4838,-4.4394 0.15973,-0.22996 0.33924,-0.61267 0.39891,-0.85045 0.0597,-0.23778 0.21151,-0.5178 0.33739,-0.62227 0.12589,-0.10447 0.22888,-0.35734 0.22888,-0.56193 0,-0.20458 0.3063,-0.94865 0.68067,-1.6535 0.5799,-1.0918 0.69907,-1.487 0.80483,-2.6693 0.35522,-3.9702 0.45429,-4.8978 0.53757,-5.0325 0.0501,-0.0811 0.16911,-0.83563 0.26437,-1.6767 0.0953,-0.84106 0.2825,-1.696 0.41605,-1.8998 0.30475,-0.46511 0.81951,-0.47772 1.0613,-0.026 0.2186,0.40846 0.081,2.4793 -0.26797,4.0329 -0.24535,1.0923 -0.31484,2.9775 -0.10903,2.9577 0.0674,-0.007 0.41633,-0.38005 0.77551,-0.83017 1.379,-1.7281 2.4223,-2.4337 2.8968,-1.9592 0.20802,0.20801 -0.11623,1.0826 -0.51126,1.379 -0.14482,0.10867 -0.48245,0.49147 -0.75029,0.85065 -0.44555,0.5975 -0.76992,0.97304 -2.0883,2.4176 -0.24916,0.27301 -0.48395,0.64889 -0.52176,0.83529 -0.18864,0.92977 -0.28616,1.594 -0.40931,2.7879 -0.17656,1.7116 -0.61141,4.706 -0.81803,5.6326 -0.0901,0.40408 -0.27188,1.5831 -0.404,2.62 -0.26914,2.1124 -0.66793,3.193 -1.4084,3.816 -0.48449,0.40767 -0.67514,0.45061 -1.3785,0.31048 z"
         id="age" />
    </g>
  </g>
</svg>
