<svg xmlns="http://www.w3.org/2000/svg" height="27.947" width="32.674"><path d="M.951 7.371C.64 7.06.723 6.616 1.15 6.338c.353-.232.87-1.133 1.383-2.411.274-.685.232-1.993-.073-2.246-.28-.232-.724-1.02-.724-1.283 0-.51 1.409-.54 1.592-.033.053.145.23.439.395.653.5.65.33 3.47-.242 4.043-.062.062-.112.237-.112.39 0 .38-.576 1.08-1.356 1.644-.738.534-.79.548-1.06.277zm29.183.318c.081-.202.322-.55.535-.775.873-.92 1.064-2.286.319-2.286-.51 0-.879.709-1.421 2.733-.184.688.31.974.567.328zm-.91 5.402c-.19-.092-.487-.436-.66-.764-.352-.672-1.03-.88-1.496-.459-.473.425-2.478 1.087-3.295 1.087-.686 0-.84-.069-1.278-.568-.663-.755-.784-1.493-.445-2.702.367-1.31.52-3.584.273-4.047-.53-.988-3.338.209-4.156 1.772l-.38.728a648.828 648.828 0 01-.888 1.715c-.07.134-.168.512-.22.839-.137.86-.744 1.691-1.236 1.691-.33 0-.43-.111-.557-.627-.132-.537-.076-.842.39-2.122.299-.823.572-1.716.608-1.985.035-.27.143-.86.24-1.31.162-.756.143-.881-.25-1.583-.498-.894-.53-1.205-.139-1.405.493-.252 1.252.197 1.587.939.37.822.671.847 1.934.163 1.607-.87 3.586-.807 4.275.137.285.389.322.668.289 2.166-.021.95-.149 2.083-.284 2.53-.35 1.15-.324 1.912.072 2.159.259.161.553.153 1.48-.042.637-.134 1.19-.244 1.23-.244.038 0 .353-.276.7-.612.6-.584.633-.67.709-1.86.06-.949.164-1.355.432-1.696.193-.246.352-.617.352-.824 0-.207.288-.71.64-1.117.353-.407.745-.888.872-1.068.126-.18.541-.439.923-.573.605-.214.75-.215 1.146-.01.39.201.466.36.547 1.14.114 1.113-.042 1.702-.6 2.26-.234.235-.426.565-.426.734 0 .169-.313.638-.694 1.044-1.664 1.766-1.671 1.788-1.02 3.072.49.969.507 1.241.092 1.464-.365.195-.317.196-.766-.022zM2.702 25.77c.128-.268.37-1.553.535-2.855.166-1.302.374-2.625.46-2.94.228-.818.207-1.674-.039-1.592-.11.036-.247.298-.305.58a3.061 3.061 0 01-.347.886c-.134.205-.44.923-.68 1.596-.961 2.687-1.131 3.866-.656 4.544.336.48.737.395 1.032-.219zm-1.538 1.693c-.359-.27-.74-.65-.849-.846-.503-.912-.39-2.843.25-4.263.72-1.599 1.154-2.674 1.353-3.358.29-.997 1.481-3.3 2.23-4.314.824-1.113 1.114-1.77 1.334-3.033.31-1.773.677-3.64.837-4.263.083-.325.152-1.08.152-1.68 0-1.337.316-2.17.877-2.311.87-.218.894-.023.442 3.537-.167 1.31-.385 2.537-.485 2.724-.1.186-.181.528-.181.758 0 .565.522.559 1.2-.014.766-.645 1.477-.902 1.975-.713.477.182.526.39.163.69-.14.117-.503.432-.808.701-.304.27-1.034.894-1.622 1.388-.712.598-1.132 1.089-1.255 1.47-.102.314-.242.644-.31.734-.345.45-1.629 6.326-1.629 7.452 0 .779-.542 3.745-.816 4.466-.085.222-.395.624-.69.891-.692.63-1.313.626-2.168-.016z"/></svg>