<?xml version="1.0" encoding="UTF-8" standalone="no"?>
<svg
   xmlns:dc="http://purl.org/dc/elements/1.1/"
   xmlns:cc="http://creativecommons.org/ns#"
   xmlns:rdf="http://www.w3.org/1999/02/22-rdf-syntax-ns#"
   xmlns:svg="http://www.w3.org/2000/svg"
   xmlns="http://www.w3.org/2000/svg"
   id="svg2663"
   viewBox="0 0 32.673892 27.947159"
   version="1.1"
   height="27.947159"
   width="32.673893">
  <defs
     id="defs2667" />
  <metadata
     id="metadata2">
    <rdf:RDF>
      <cc:Work
         rdf:about="">
        <dc:format>image/svg+xml</dc:format>
        <dc:type
           rdf:resource="http://purl.org/dc/dcmitype/StillImage" />
        <dc:title />
      </cc:Work>
    </rdf:RDF>
  </metadata>
  <g
     transform="translate(-613.6085,-537.73855)"
     id="g2661">
    <g
       style="stroke-width:0.16327"
       id="g2557">
      <path
         d="m 614.56,545.11 c -0.31257,-0.31257 -0.22811,-0.75505 0.19734,-1.0338 0.35322,-0.23145 0.87045,-1.1331 1.3828,-2.4106 0.27468,-0.68488 0.23244,-1.993 -0.0725,-2.2461 -0.27961,-0.23204 -0.72394,-1.0197 -0.72394,-1.2833 0,-0.50959 1.4084,-0.53883 1.5922,-0.0331 0.0528,0.14525 0.23043,0.43933 0.39474,0.65348 0.4992,0.65061 0.33011,3.4704 -0.24243,4.043 -0.0615,0.0615 -0.11188,0.23667 -0.11188,0.38919 0,0.38111 -0.57612,1.0799 -1.3563,1.645 -0.73734,0.53412 -0.7888,0.54754 -1.06,0.27631 z m 29.183,0.31791 c 0.0806,-0.20205 0.32108,-0.55102 0.53442,-0.77551 0.87329,-0.91896 1.0639,-2.2857 0.31874,-2.2857 -0.51038,0 -0.87867,0.70859 -1.4207,2.7332 -0.18413,0.68784 0.31007,0.97346 0.56754,0.32799 z m -0.90973,5.4017 c -0.19084,-0.0924 -0.4878,-0.43644 -0.65993,-0.76446 -0.35246,-0.67164 -1.0299,-0.87903 -1.4973,-0.45843 -0.47238,0.42501 -2.478,1.0865 -3.2942,1.0865 -0.68607,0 -0.84,-0.0684 -1.2786,-0.56793 -0.66266,-0.75475 -0.78418,-1.4928 -0.44485,-2.7021 0.36733,-1.3092 0.52075,-3.5833 0.27296,-4.0463 -0.52911,-0.98865 -3.3379,0.20864 -4.1562,1.7717 -0.11572,0.22103 -0.2864,0.54881 -0.37932,0.72841 -0.0929,0.17959 -0.30254,0.58367 -0.46591,0.89795 -0.16334,0.31429 -0.3535,0.68164 -0.42254,0.81633 -0.0691,0.13469 -0.1681,0.5122 -0.22008,0.83889 -0.13707,0.86127 -0.74378,1.6917 -1.2359,1.6917 -0.33014,0 -0.42926,-0.1117 -0.5566,-0.62738 -0.13267,-0.5372 -0.0767,-0.8423 0.38916,-2.1224 0.29926,-0.82228 0.57304,-1.7155 0.6084,-1.9849 0.0353,-0.26939 0.1435,-0.85899 0.24033,-1.3102 0.16211,-0.75536 0.14234,-0.88085 -0.24935,-1.5824 -0.49924,-0.89419 -0.53018,-1.2055 -0.13973,-1.4053 0.49271,-0.25217 1.252,0.19732 1.5865,0.93923 0.37073,0.82211 0.67141,0.84749 1.9345,0.1634 1.6072,-0.87049 3.5856,-0.80747 4.275,0.13614 0.28454,0.38951 0.32165,0.66812 0.28852,2.1668 -0.021,0.94961 -0.14814,2.0829 -0.28393,2.5306 -0.34883,1.15 -0.3232,1.9107 0.0727,2.158 0.25816,0.16122 0.55228,0.1528 1.4801,-0.0424 0.63683,-0.13396 1.1897,-0.24356 1.2286,-0.24356 0.0389,0 0.35416,-0.27551 0.70051,-0.61224 0.6007,-0.58403 0.63337,-0.66973 0.70922,-1.86 0.0605,-0.94831 0.16404,-1.3552 0.43169,-1.6955 0.1937,-0.24625 0.35218,-0.61702 0.35218,-0.82393 0,-0.20692 0.28844,-0.70949 0.64098,-1.1168 0.35256,-0.40733 0.74446,-0.88831 0.87091,-1.0688 0.12645,-0.18052 0.54188,-0.4383 0.92318,-0.57283 0.60488,-0.21342 0.75101,-0.21475 1.1462,-0.0103 0.39001,0.20168 0.46599,0.36033 0.5466,1.1413 0.11479,1.1122 -0.0414,1.7016 -0.59873,2.2589 -0.23492,0.23492 -0.42714,0.5653 -0.42714,0.73418 0,0.16889 -0.31224,0.63853 -0.69387,1.0437 -1.6643,1.7668 -1.6712,1.7879 -1.0204,3.0723 0.49087,0.96867 0.50806,1.2412 0.0924,1.4636 -0.36443,0.19503 -0.31683,0.19634 -0.76585,-0.0212 z m -26.524,12.678 c 0.12853,-0.26813 0.36951,-1.5529 0.53551,-2.8552 0.16601,-1.3022 0.37326,-2.6248 0.46056,-2.939 0.22736,-0.81864 0.2062,-1.6751 -0.0394,-1.5932 -0.10995,0.0367 -0.24722,0.29807 -0.30508,0.58095 -0.0578,0.28287 -0.21434,0.68147 -0.34772,0.88576 -0.13341,0.20428 -0.43958,0.92245 -0.6804,1.5959 -0.96058,2.6864 -1.1307,3.8656 -0.65546,4.5441 0.3363,0.48011 0.73762,0.39484 1.032,-0.21927 z m -1.5373,1.6932 c -0.35918,-0.26967 -0.74129,-0.65034 -0.84912,-0.84596 -0.50312,-0.9127 -0.3898,-2.8429 0.25032,-4.2634 0.72026,-1.5984 1.1534,-2.6737 1.3523,-3.3576 0.29022,-0.99742 1.4814,-3.3009 2.2308,-4.3138 0.82356,-1.1132 1.113,-1.7714 1.3336,-3.0331 0.31006,-1.773 0.67646,-3.6405 0.83654,-4.2638 0.0834,-0.3247 0.15163,-1.0801 0.15163,-1.6787 0,-1.3377 0.31644,-2.171 0.87792,-2.3119 0.86923,-0.21815 0.8936,-0.023 0.44155,3.5366 -0.16651,1.3113 -0.38458,2.5371 -0.48458,2.724 -0.1,0.18686 -0.18183,0.52824 -0.18183,0.75864 0,0.56459 0.52201,0.5585 1.2009,-0.014 0.76575,-0.64573 1.4767,-0.90237 1.975,-0.71293 0.47663,0.18123 0.52545,0.38906 0.16219,0.69042 -0.1396,0.11579 -0.50291,0.43092 -0.8074,0.70031 -0.30449,0.26939 -1.0347,0.89388 -1.6227,1.3878 -0.71202,0.59803 -1.1311,1.0888 -1.2547,1.4694 -0.10207,0.31429 -0.24171,0.6449 -0.31032,0.73469 -0.34453,0.45096 -1.6286,6.3262 -1.6286,7.4517 0,0.77914 -0.54199,3.7451 -0.81613,4.4661 -0.0846,0.2226 -0.3948,0.62387 -0.68927,0.89171 -0.69254,0.62992 -1.3137,0.6253 -2.1681,-0.0162 z"
         id="agency" />
    </g>
  </g>
</svg>
