<?xml version="1.0" encoding="UTF-8" standalone="no"?>
<svg
   xmlns:dc="http://purl.org/dc/elements/1.1/"
   xmlns:cc="http://creativecommons.org/ns#"
   xmlns:rdf="http://www.w3.org/1999/02/22-rdf-syntax-ns#"
   xmlns:svg="http://www.w3.org/2000/svg"
   xmlns="http://www.w3.org/2000/svg"
   id="svg2663"
   viewBox="0 0 28.656079 33.817268"
   version="1.1"
   height="33.817268"
   width="28.65608">
  <defs
     id="defs2667" />
  <metadata
     id="metadata2">
    <rdf:RDF>
      <cc:Work
         rdf:about="">
        <dc:format>image/svg+xml</dc:format>
        <dc:type
           rdf:resource="http://purl.org/dc/dcmitype/StillImage" />
        <dc:title />
      </cc:Work>
    </rdf:RDF>
  </metadata>
  <g
     transform="translate(-613.76133,-580.60524)"
     id="g2661">
    <g
       style="stroke-width:0.16327"
       id="g2557">
      <path
         d="m 615.46,593.36 c -0.23197,-0.23196 -0.0891,-0.71863 0.36183,-1.2324 0.52173,-0.59447 1.2236,-2.1608 1.3942,-3.1116 0.0889,-0.49562 0.0241,-0.77494 -0.3318,-1.4288 -0.37527,-0.68951 -0.41417,-0.87465 -0.25651,-1.2207 0.24477,-0.53722 0.68118,-0.51608 1.2328,0.0597 0.70435,0.73517 0.91393,1.6749 0.67857,3.0426 -0.22314,1.2967 -0.50386,1.9196 -1.4163,3.1429 -0.50559,0.67783 -0.73502,0.85714 -1.0966,0.85714 -0.25151,0 -0.50629,-0.049 -0.56614,-0.10885 z m 1.314,19.252 c 0.88715,-1.1538 1.0532,-1.7098 1.5971,-5.3469 0.22825,-1.5265 0.45863,-3.0143 0.51195,-3.3061 0.0766,-0.41946 0.0418,-0.53061 -0.16648,-0.53061 -0.14488,0 -0.26343,0.0627 -0.26343,0.13942 0,0.0767 -0.1653,0.31814 -0.36734,0.53659 -0.69331,0.74957 -1.0139,1.3679 -1.6387,3.1607 -0.93135,2.6723 -0.97324,2.8371 -1.051,4.1356 -0.0584,0.97585 -0.0193,1.2547 0.21188,1.5102 0.40761,0.45041 0.63466,0.39221 1.1661,-0.29891 z m -2.4526,1.0716 c -0.62624,-0.73218 -0.68356,-1.9446 -0.38729,-2.8643 0.13798,-0.42831 0.38159,-1.2196 0.54134,-1.7583 0.15976,-0.53878 0.38833,-1.0988 0.50794,-1.2446 0.11962,-0.14575 0.27642,-0.63785 0.34847,-1.0936 0.0806,-0.51 0.35256,-1.1614 0.7073,-1.6942 0.317,-0.4761 0.71429,-1.0931 0.88287,-1.371 0.47143,-0.77731 1.6243,-2.5244 2.1342,-3.2342 0.88795,-1.2361 0.80212,-0.8695 1.3609,-5.8114 0.43918,-3.8845 0.92197,-5.3749 1.7444,-5.3853 0.45106,-0.006 0.56412,0.63514 0.28164,1.5964 -0.15058,0.51244 -0.34067,1.6297 -0.42244,2.4827 -0.0818,0.85306 -0.19208,1.9735 -0.24516,2.4898 -0.0897,0.87202 -0.0724,0.93878 0.24196,0.93878 0.53197,0 1.1152,-0.32684 1.3431,-0.75274 0.11484,-0.21456 0.26699,-0.39012 0.33811,-0.39012 0.0711,0 0.26075,-0.13584 0.42139,-0.30188 0.16065,-0.16602 1.4308,-1.2753 2.8227,-2.4652 1.3918,-1.1898 2.5894,-2.2662 2.6612,-2.392 0.0718,-0.12579 0.21874,-0.22917 0.32653,-0.22973 0.10778,0 0.82045,-0.59528 1.5837,-1.3216 0.76326,-0.72631 1.6449,-1.5133 1.9592,-1.7489 0.31429,-0.23556 0.79625,-0.61432 1.071,-0.84166 0.27476,-0.22735 0.81868,-0.67052 1.2087,-0.9848 0.39001,-0.31429 1.2061,-1.0276 1.8135,-1.5852 0.60739,-0.5576 1.4961,-1.2698 1.975,-1.5828 0.47886,-0.31293 1.0386,-0.75148 1.2439,-0.97453 0.42259,-0.45917 1.2854,-0.71315 1.544,-0.4545 0.37872,0.37872 -0.5492,1.6465 -1.2176,1.6636 -0.11541,0.003 -0.5037,0.30126 -0.86289,0.66291 -0.35918,0.36165 -0.90271,0.85515 -1.2078,1.0967 -0.30512,0.24153 -0.84852,0.68106 -1.2075,0.97677 -0.35902,0.29569 -0.80733,0.61809 -0.99627,0.71642 -0.18891,0.0983 -0.71084,0.55567 -1.1598,1.0163 -0.44896,0.46063 -1.1049,1.0566 -1.4576,1.3244 -0.35273,0.26779 -1.0121,0.83586 -1.4653,1.2624 -0.4532,0.42654 -0.89634,0.77551 -0.98473,0.77551 -0.0884,0 -0.46255,0.31224 -0.83148,0.69387 -0.36891,0.38164 -1.0635,1.0245 -1.5435,1.4286 -0.47998,0.40408 -1.3344,1.1388 -1.8987,1.6326 -0.5643,0.4938 -1.3962,1.1918 -1.8486,1.551 -0.45239,0.35918 -0.82359,0.73995 -0.82486,0.84614 -0.002,0.10619 -0.13834,0.23624 -0.30457,0.28901 -0.32952,0.10459 -2.6763,2.4168 -2.7855,2.7445 -0.037,0.11109 -0.1696,0.2774 -0.29461,0.36957 -0.24681,0.18196 -0.74779,2.1181 -1.1184,4.3222 -0.12833,0.76326 -0.34261,1.9755 -0.47616,2.6939 -0.13357,0.71837 -0.29212,1.7469 -0.35233,2.2857 -0.13398,1.1986 -1.0219,3.6522 -1.5923,4.4 -0.23093,0.30276 -0.73226,0.83132 -1.239,0.92065 -0.80114,0.14123 -1.8098,-0.0798 -2.3385,-0.69799 z"
         id="ages" />
    </g>
  </g>
</svg>
