<svg xmlns="http://www.w3.org/2000/svg" height="33.817" width="28.656"><path d="M1.699 12.755c-.232-.232-.09-.719.361-1.233.522-.594 1.224-2.16 1.395-3.111.089-.496.024-.775-.332-1.429-.375-.69-.414-.875-.257-1.22.245-.538.682-.517 1.233.059.705.735.914 1.675.679 3.043-.223 1.296-.504 1.92-1.417 3.142-.505.678-.735.858-1.096.858-.252 0-.506-.05-.566-.11zm1.314 19.252c.887-1.154 1.053-1.71 1.597-5.347.228-1.527.458-3.014.512-3.306.076-.42.042-.53-.167-.53-.145 0-.263.062-.263.139 0 .076-.165.318-.368.536-.693.75-1.013 1.368-1.638 3.16-.932 2.673-.973 2.838-1.051 4.136-.059.976-.02 1.255.212 1.51.407.451.634.393 1.166-.298zM.56 33.078c-.626-.732-.683-1.944-.387-2.864.138-.428.381-1.22.541-1.758.16-.539.388-1.099.508-1.245.12-.146.276-.638.349-1.093.08-.51.352-1.162.707-1.695.317-.476.714-1.093.883-1.37a72.24 72.24 0 012.134-3.235c.888-1.236.802-.87 1.36-5.811.44-3.885.923-5.375 1.745-5.386.451-.006.564.636.282 1.597-.15.512-.34 1.63-.423 2.483-.081.853-.192 1.973-.245 2.49-.09.871-.072.938.242.938.532 0 1.115-.327 1.343-.753.115-.214.267-.39.338-.39.072 0 .261-.136.422-.302.16-.166 1.43-1.275 2.822-2.465 1.392-1.19 2.59-2.266 2.662-2.392.071-.126.218-.229.326-.23.108 0 .82-.595 1.584-1.321.763-.726 1.645-1.513 1.96-1.749a34.41 34.41 0 001.07-.842c.275-.227.819-.67 1.209-.984a47.72 47.72 0 001.813-1.586c.608-.557 1.496-1.27 1.975-1.582.48-.313 1.039-.752 1.244-.975.423-.46 1.286-.713 1.544-.455.379.38-.549 1.647-1.217 1.664-.116.003-.504.301-.863.663-.36.362-.903.855-1.208 1.097-.305.241-.849.68-1.208.976-.359.296-.807.619-.996.717-.189.098-.71.556-1.16 1.016-.449.46-1.105 1.057-1.457 1.325-.353.267-1.012.835-1.466 1.262-.453.427-.896.775-.984.775-.089 0-.463.313-.832.694a24.982 24.982 0 01-1.543 1.429c-.48.404-1.335 1.139-1.899 1.633a62.057 62.057 0 01-1.849 1.55c-.452.36-.823.74-.824.847-.002.106-.139.236-.305.289-.33.104-2.676 2.417-2.785 2.744a.935.935 0 01-.295.37c-.247.182-.748 2.118-1.118 4.322-.129.763-.343 1.975-.477 2.694a39.35 39.35 0 00-.352 2.286c-.134 1.198-1.022 3.652-1.592 4.4-.231.302-.733.83-1.24.92-.8.141-1.81-.08-2.338-.698z"/></svg>