<svg xmlns="http://www.w3.org/2000/svg" height="27.715" width="9.426"><path d="M0 7.121c.002-.314.625-1.265.898-1.37.134-.051.244-.158.244-.237 0-.078.219-.498.486-.933.594-.964.839-2.79.488-3.638-.192-.464-.183-.542.09-.742.405-.296.451-.287.95.174.405.376.425.47.383 1.774-.06 1.872-.566 3.167-1.685 4.315-.657.675-.95.861-1.347.861C.21 7.325 0 7.241 0 7.121zm4.886 7.354c.545-.287.99-.618.99-.734 0-.117.07-.212.157-.212.315 0 1.306-1.523 1.56-2.399.24-.826.241-.949.003-1.45-.494-1.04-2.412-1.159-3.784-.233-.4.27-.789.49-.864.49-.074 0-.178.13-.23.286-.05.158-.313.654-.583 1.102-.41.684-.491.993-.497 1.903-.007 1.053.01 1.097.524 1.415.788.487 1.575.439 2.724-.168zM8.405 8.37c.34.219.563.573.754.948.306.6.327.78.175 1.508a20.85 20.85 0 00-.274 1.887c-.174 1.843-.773 4.62-1.17 5.421-.12.243-.29 1.125-.377 1.96-.178 1.706-.339 2.578-.714 3.884-.142.494-.408 1.45-.591 2.122-.184.674-.458 1.316-.609 1.43-.326.241-.371.243-.743.027-.35-.205-.373-.951-.055-1.86.725-2.073 1.076-3.437 1.076-4.186 0-.465.224-1.698.499-2.74l.653-2.485a5.3 5.3 0 00.154-1.102c0-.45-.055-.512-.45-.512-.292 0-.618.18-.935.515-.873.925-1.346 1.116-2.756 1.117-1.275 0-1.288-.004-1.85-.611C.3 14.728.11 14.25.206 13.2c.046-.507.276-1.327.51-1.822.234-.495.426-.97.426-1.054 0-.084.425-.573.944-1.086.642-.636 1.074-.934 1.35-.934.225 0 .57-.113.766-.25.197-.138.932-.376 1.422-.38.956-.006 1.977.178 2.781.695z" stroke-width=".163"/></svg>