<svg xmlns="http://www.w3.org/2000/svg" height="27.716" width="9.427"><path d="M0 7.121c.002-.314.624-1.264.898-1.37.134-.051.244-.158.244-.237 0-.078.219-.498.486-.933.594-.964.838-2.791.488-3.638-.192-.464-.183-.542.09-.742.405-.296.451-.287.95.174.404.376.425.47.383 1.774-.06 1.872-.566 3.167-1.685 4.315-.658.675-.95.861-1.347.861-.298 0-.507-.084-.507-.204zm4.886 7.355c.545-.288.99-.619.99-.735 0-.116.071-.212.157-.212.315 0 1.306-1.523 1.56-2.399.24-.826.241-.949.002-1.45-.493-1.04-2.411-1.159-3.783-.233-.4.27-.788.49-.863.49-.075 0-.178.13-.23.286-.051.158-.314.653-.583 1.102-.411.684-.492.993-.497 1.904-.007 1.053.01 1.097.523 1.415.788.487 1.576.438 2.724-.169zm3.52-6.106c.339.219.562.573.753.948.307.6.327.78.175 1.508a20.807 20.807 0 00-.273 1.887c-.174 1.843-.774 4.62-1.17 5.422-.12.243-.29 1.124-.378 1.959-.178 1.706-.339 2.579-.714 3.885a200.1 200.1 0 00-.591 2.122c-.184.673-.457 1.316-.609 1.429-.326.242-.371.244-.743.027-.35-.204-.373-.95-.055-1.859.725-2.074 1.076-3.438 1.076-4.186 0-.465.224-1.699.499-2.74l.653-2.486a5.3 5.3 0 00.154-1.102c0-.45-.055-.512-.45-.512-.292 0-.619.18-.935.516-.873.924-1.346 1.116-2.756 1.116-1.275 0-1.289-.004-1.85-.611C.3 14.728.11 14.25.206 13.2c.046-.507.276-1.327.51-1.822.234-.496.426-.97.426-1.054 0-.084.425-.573.944-1.086.641-.635 1.074-.934 1.351-.934.224 0 .569-.113.766-.25.197-.138.931-.375 1.422-.38.955-.006 1.977.178 2.78.695z" stroke-width=".163"/></svg>