<?xml version="1.0" encoding="UTF-8" standalone="no"?>
<svg
   xmlns:dc="http://purl.org/dc/elements/1.1/"
   xmlns:cc="http://creativecommons.org/ns#"
   xmlns:rdf="http://www.w3.org/1999/02/22-rdf-syntax-ns#"
   xmlns:svg="http://www.w3.org/2000/svg"
   xmlns="http://www.w3.org/2000/svg"
   id="svg2663"
   viewBox="0 0 9.4265554 27.715523"
   version="1.1"
   height="27.715523"
   width="9.4265556">
  <defs
     id="defs2667" />
  <metadata
     id="metadata2">
    <rdf:RDF>
      <cc:Work
         rdf:about="">
        <dc:format>image/svg+xml</dc:format>
        <dc:type
           rdf:resource="http://purl.org/dc/dcmitype/StillImage" />
        <dc:title />
      </cc:Work>
    </rdf:RDF>
  </metadata>
  <g
     transform="translate(-607.84,-607.20867)"
     id="g2661">
    <g
       style="stroke-width:0.16327"
       id="g2557">
      <path
         d="m 607.84,614.33 c 0.002,-0.31395 0.62446,-1.2648 0.89829,-1.3699 0.13419,-0.0515 0.24397,-0.15812 0.24397,-0.23696 0,-0.0788 0.21867,-0.49874 0.48596,-0.93313 0.59342,-0.96442 0.83823,-2.7913 0.48754,-3.638 -0.19218,-0.46391 -0.18265,-0.54246 0.0901,-0.74186 0.40522,-0.29631 0.45144,-0.28785 0.94946,0.17372 0.40516,0.37547 0.42569,0.47038 0.38374,1.7738 -0.0603,1.8724 -0.56579,3.1668 -1.6852,4.3152 -0.65764,0.67466 -0.94939,0.86119 -1.3469,0.86119 -0.29747,0 -0.50724,-0.0845 -0.50688,-0.20408 z m 4.8862,7.3542 c 0.5449,-0.28782 0.99073,-0.61843 0.99073,-0.73469 0,-0.11626 0.0701,-0.21138 0.15579,-0.21138 0.31526,0 1.306,-1.523 1.5607,-2.3991 0.24036,-0.82678 0.24055,-0.94913 0.002,-1.4511 -0.49364,-1.0402 -2.4119,-1.158 -3.7835,-0.23237 -0.39995,0.26992 -0.78839,0.49077 -0.86322,0.49077 -0.0748,0 -0.17809,0.12857 -0.2295,0.28572 -0.0514,0.15714 -0.31402,0.65306 -0.58362,1.102 -0.41067,0.68392 -0.49129,0.99263 -0.49702,1.9033 -0.007,1.0532 0.01,1.0972 0.52378,1.415 0.78755,0.48689 1.5754,0.43822 2.7236,-0.16823 z m 3.5192,-6.1053 c 0.33941,0.21842 0.56253,0.57277 0.75376,0.94761 0.30648,0.60073 0.32718,0.77954 0.17468,1.5078 -0.0952,0.45445 -0.21814,1.3038 -0.27328,1.8875 -0.17404,1.8426 -0.77332,4.619 -1.1702,5.4214 -0.12018,0.24299 -0.28993,1.1246 -0.37721,1.9592 -0.17852,1.7067 -0.33884,2.5793 -0.71372,3.8848 -0.14183,0.49388 -0.40801,1.449 -0.59151,2.1224 -0.18351,0.67347 -0.4573,1.3163 -0.60845,1.4286 -0.32622,0.24227 -0.37178,0.24397 -0.74301,0.0277 l -10e-6,4e-5 c -0.35074,-0.2043 -0.37299,-0.95092 -0.0554,-1.859 0.72537,-2.0742 1.0758,-3.438 1.0758,-4.1866 0,-0.46508 0.22452,-1.6983 0.49894,-2.7404 0.2744,-1.0421 0.56828,-2.1605 0.65306,-2.4852 0.0848,-0.3247 0.15412,-0.82062 0.15412,-1.102 0,-0.44949 -0.0546,-0.51167 -0.4495,-0.51167 -0.29282,0 -0.61904,0.1796 -0.93577,0.51518 -0.87256,0.92449 -1.3456,1.1162 -2.756,1.1169 -1.2747,0 -1.2883,-0.004 -1.8501,-0.61164 -0.89166,-0.96455 -1.0806,-1.4424 -0.98539,-2.4922 0.046,-0.50667 0.27532,-1.3266 0.50972,-1.8221 0.2344,-0.4955 0.42619,-0.96955 0.42619,-1.0535 0,-0.0839 0.42457,-0.57277 0.94351,-1.0863 0.64186,-0.63516 1.0739,-0.93366 1.3514,-0.93366 0.22436,0 0.56894,-0.11277 0.76572,-0.25061 0.19678,-0.13783 0.93138,-0.3749 1.4218,-0.37871 0.95535,-0.007 1.9773,0.17755 2.7807,0.69456 z"
         id="ago_abv" />
    </g>
  </g>
</svg>
