<?xml version="1.0" encoding="UTF-8" standalone="no"?>
<svg
   xmlns:dc="http://purl.org/dc/elements/1.1/"
   xmlns:cc="http://creativecommons.org/ns#"
   xmlns:rdf="http://www.w3.org/1999/02/22-rdf-syntax-ns#"
   xmlns:svg="http://www.w3.org/2000/svg"
   xmlns="http://www.w3.org/2000/svg"
   id="svg2663"
   viewBox="0 0 45.195033 25.833315"
   version="1.1"
   height="25.833315"
   width="45.195034">
  <defs
     id="defs2667" />
  <metadata
     id="metadata2">
    <rdf:RDF>
      <cc:Work
         rdf:about="">
        <dc:format>image/svg+xml</dc:format>
        <dc:type
           rdf:resource="http://purl.org/dc/dcmitype/StillImage" />
        <dc:title />
      </cc:Work>
    </rdf:RDF>
  </metadata>
  <g
     transform="translate(-607.34446,-704.60977)"
     id="g2661">
    <g
       style="stroke-width:0.16327"
       id="g2557">
      <path
         d="m 610.12,706.58 c 0.14018,0.29245 0.0865,0.66124 0.19231,0.95375 0.16471,0.45546 0.1354,0.70329 -0.20408,1.7259 -0.21801,0.65672 -0.44346,1.2308 -0.50098,1.2757 -0.0575,0.0449 -0.26783,0.39549 -0.46734,0.77912 -0.41137,0.79093 -0.88079,1.1801 -1.4236,1.1801 -0.29414,0 -0.37184,-0.0911 -0.37184,-0.43613 h 10e-6 c 0,-0.23987 0.10106,-0.55211 0.22457,-0.69388 0.12351,-0.14176 0.49086,-0.76473 0.81633,-1.3844 0.62761,-1.1949 0.75838,-2.1567 0.38189,-2.8085 -0.32398,-0.56081 -1.062,-1.371 -1.249,-1.371 -0.0956,0 -0.17381,-0.219 -0.17381,-0.48667 0,-0.50154 0.70359,-0.76554 1.1429,-0.6921 0.8382,0.14013 1.2653,1.1918 1.6326,1.9582 z m 2.7771,10.279 c 0.31516,-0.11089 0.82945,-0.43371 1.1428,-0.71738 0.31342,-0.28368 0.72508,-0.65103 0.9148,-0.81633 0.48713,-0.42446 1.3614,-1.9377 1.6292,-2.82 0.54661,-1.8008 0.11461,-2.6054 -1.2749,-2.3745 -0.99982,0.16614 -1.3988,0.41109 -2.4259,1.4893 -1.0588,1.1116 -1.6727,2.0181 -1.9389,2.8634 -0.27845,0.88404 0.018,1.85 0.69425,2.2624 0.61455,0.37469 0.53548,0.36759 1.2586,0.11314 z m -0.22846,11.349 c 0.60545,-0.9047 0.91078,-1.5776 1.0485,-2.3109 0.0775,-0.41267 0.30351,-1.3202 0.50221,-2.0166 0.19869,-0.69646 0.31242,-1.3151 0.25275,-1.3748 -0.20573,-0.20574 -0.89483,0.63186 -1.4794,1.7982 -0.80098,1.5982 -1.0768,2.4607 -1.0768,3.3668 0,1.1077 0.25105,1.2869 0.75272,0.53729 z m -1.5139,2.0819 c -0.47267,-0.19061 -0.59291,-0.64496 -0.5857,-2.2131 0.006,-1.2789 0.0375,-1.3842 1.0535,-3.512 0.5761,-1.2064 1.2818,-2.4603 1.5684,-2.7865 0.28651,-0.32614 0.52091,-0.6607 0.52091,-0.74347 0,-0.0828 0.25962,-0.40214 0.57693,-0.70969 0.92585,-0.89738 1.5455,-2.138 1.5455,-3.0942 0,-0.55241 -0.0674,-0.81879 -0.20704,-0.81879 -0.11386,0 -0.64651,0.36638 -1.1837,0.81419 -1.6017,1.3352 -2.7811,1.5023 -3.8257,0.54184 -0.92327,-0.8489 -1.262,-1.9086 -0.99344,-3.1084 0.1095,-0.48938 0.37602,-1.1504 0.59223,-1.469 0.21621,-0.31859 0.39311,-0.64945 0.39311,-0.7352 0,-0.14722 0.75311,-0.99688 1.9,-2.1435 1.2874,-1.2872 1.5864,-1.4178 3.3023,-1.4421 0.85862,-0.0121 1.0376,0.039 1.3163,0.37633 0.17737,0.21471 0.36702,0.58481 0.42143,0.82245 0.0544,0.23763 0.24172,0.56125 0.41622,0.71918 0.41278,0.37357 0.40047,0.72857 -0.0909,2.6197 -0.49889,1.9201 -0.51752,2.3515 -0.10162,2.3515 0.16859,0 0.39799,-0.11021 0.50978,-0.2449 0.11179,-0.13469 0.29066,-0.2449 0.39752,-0.2449 0.33533,0 2.0591,-1.9406 2.5461,-2.8663 0.25613,-0.48694 0.64305,-1.1249 0.85982,-1.4177 0.21677,-0.2928 0.56616,-0.95702 0.77643,-1.4761 0.48618,-1.2001 0.8086,-1.3046 1.9846,-0.64274 0.47525,0.26744 1.1322,0.5337 1.4599,0.59171 1.0011,0.17717 1.077,0.40989 0.6621,2.032 -0.20723,0.81025 -0.36081,1.9073 -0.36052,2.575 v 1.1633 l 0.5102,0.10204 c 0.74358,0.14871 1.5304,0.12506 2.019,-0.0607 0.6008,-0.22841 1.987,-1.5781 3.4624,-3.3713 0.69112,-0.83997 1.3118,-1.5272 1.3792,-1.5272 0.0675,0 0.31791,-0.18098 0.55659,-0.40217 0.23866,-0.22119 0.64653,-0.49626 0.90637,-0.61128 0.25984,-0.115 0.47242,-0.25419 0.47242,-0.30927 0,-0.18544 1.9488,-0.3058 2.3684,-0.14627 0.22854,0.0869 0.45506,0.28764 0.50338,0.44614 0.0483,0.15848 0.20653,0.52989 0.35158,0.82532 0.2361,0.48086 0.31628,0.52607 0.76511,0.43136 0.27575,-0.0582 0.65304,-0.24482 0.83843,-0.41473 0.18537,-0.16989 0.40578,-0.30935 0.4898,-0.30991 0.084,0 0.3413,-0.0994 0.57178,-0.21967 0.71831,-0.37486 1.2454,-0.43962 2.095,-0.25742 0.92695,0.19879 1.7568,0.97525 1.9213,1.7976 0.11922,0.59608 0.25127,0.5954 1.0028,-0.005 0.54733,-0.43739 1.2878,-0.75832 3.0025,-1.3014 0.92601,-0.29328 1.7653,0.19618 2.3358,1.3622 0.39946,0.81649 0.42787,1.0016 0.33248,2.167 -0.0636,0.77744 -0.25566,1.6244 -0.49251,2.1722 -0.21352,0.49388 -0.42831,1.0272 -0.47732,1.1851 -0.10965,0.35329 -0.80291,0.68862 -1.1491,0.55577 -0.36877,-0.1415 -0.31465,-0.75549 0.1575,-1.7868 0.44652,-0.97533 0.67866,-2.6534 0.49932,-3.6094 -0.15457,-0.82385 -0.72554,-1.1882 -1.4437,-0.9213 -1.1962,0.44462 -2.5763,1.2476 -2.6746,1.5562 -0.0572,0.17959 -0.30129,0.62041 -0.54251,0.97959 -0.24123,0.35919 -0.65053,1.159 -0.90957,1.7774 -0.54227,1.2946 -0.7689,1.5695 -1.2936,1.5695 -0.55089,0 -0.60803,-0.49503 -0.22338,-1.935 0.62498,-2.3396 0.66888,-2.5917 0.55605,-3.1932 -0.0818,-0.43603 -0.25647,-0.68919 -0.63463,-0.91977 -0.70952,-0.43262 -1.2971,-0.40059 -2.1168,0.11538 -1.5996,1.0069 -1.8701,1.3328 -2.9637,3.5698 -0.84938,1.7375 -1.1348,2.1795 -1.46,2.2611 -0.54679,0.13724 -0.91998,-0.03 -0.91998,-0.41233 0,-0.17373 0.21081,-0.77199 0.46844,-1.3295 0.47224,-1.0218 0.74098,-2.006 0.93104,-3.4097 0.12529,-0.92539 -0.25708,-1.5946 -0.90968,-1.592 -0.95489,0.004 -1.842,0.67873 -3.3469,2.5466 -1.699,2.1087 -2.7464,3.0902 -4.0774,3.8206 -0.89016,0.48854 -1.0182,0.51416 -2.077,0.41576 -2.013,-0.18709 -2.5421,-0.91389 -2.2721,-3.1211 0.0882,-0.7209 0.2386,-1.5166 0.33424,-1.7682 0.41273,-1.0856 0.0914,-1.579 -1.0282,-1.579 -0.64985,0 -1.0407,0.31548 -1.1773,0.95019 -0.18046,0.83866 -0.78232,1.7517 -1.9323,2.9313 -0.63677,0.65317 -1.1845,1.266 -1.2171,1.3617 -0.0945,0.27739 -1.2262,1.2781 -1.4508,1.283 -0.11225,0.002 -0.20408,0.081 -0.20408,0.17468 0,0.0936 -0.32804,0.52094 -0.72895,0.94956 -0.71422,0.76356 -1.2302,2.0505 -1.2302,3.0681 0,0.20032 -0.0644,0.40403 -0.14315,0.4527 -0.17069,0.10548 -0.99936,2.7048 -1.0005,3.1384 -0.002,0.40994 -0.95219,3.0424 -1.1415,3.1594 -0.0832,0.0514 -0.26382,0.363 -0.40148,0.69249 -0.29899,0.71556 -0.95479,1.3776 -1.6755,1.6914 -0.28895,0.12579 -0.54609,0.22408 -0.57143,0.21838 -0.0253,-0.006 -0.2049,-0.0744 -0.39906,-0.15268 z"
         id="agreement_abv" />
    </g>
  </g>
</svg>
