<svg xmlns="http://www.w3.org/2000/svg" height="25.833" width="45.195"><path d="M2.776 1.97c.14.293.086.661.192.954.165.455.135.703-.204 1.726-.218.657-.444 1.23-.501 1.276-.058.044-.268.395-.468.779-.41.79-.88 1.18-1.423 1.18-.294 0-.372-.091-.372-.436 0-.24.101-.552.225-.694.123-.142.49-.765.816-1.385.628-1.195.758-2.156.382-2.808C1.099 2.002.36 1.19.173 1.19.079 1.19 0 .97 0 .704 0 .203.704-.06 1.143.012c.838.14 1.265 1.192 1.632 1.958zm2.777 10.28c.315-.112.83-.434 1.142-.718.314-.284.726-.651.915-.816.487-.425 1.362-1.938 1.63-2.82.546-1.801.114-2.606-1.275-2.375-1 .166-1.4.411-2.426 1.49-1.06 1.11-1.673 2.017-1.94 2.863-.278.884.019 1.85.695 2.262.615.375.535.368 1.259.113zm-.229 11.348c.606-.904.911-1.577 1.049-2.31.077-.413.303-1.32.502-2.017.199-.697.312-1.315.253-1.375-.206-.206-.895.632-1.48 1.798-.8 1.598-1.077 2.46-1.077 3.367 0 1.108.251 1.287.753.537zM3.81 25.68c-.472-.19-.593-.645-.585-2.213.006-1.279.037-1.384 1.053-3.512.576-1.206 1.282-2.46 1.568-2.786.287-.327.521-.661.521-.744 0-.083.26-.402.577-.71.926-.897 1.546-2.138 1.546-3.094 0-.552-.068-.819-.207-.819-.114 0-.647.367-1.184.815-1.602 1.335-2.781 1.502-3.826.541-.923-.848-1.262-1.908-.993-3.108.11-.49.376-1.15.592-1.469.216-.319.393-.65.393-.735 0-.147.753-.997 1.9-2.144C6.453 4.415 6.752 4.285 8.468 4.26c.858-.012 1.037.04 1.316.377.177.214.367.584.421.822.055.238.242.561.417.72.412.373.4.728-.091 2.619-.5 1.92-.518 2.351-.102 2.351.169 0 .398-.11.51-.245.112-.134.29-.244.397-.244.336 0 2.06-1.941 2.546-2.867.257-.487.643-1.125.86-1.417.217-.293.566-.957.777-1.477.486-1.2.808-1.304 1.984-.642.476.267 1.132.533 1.46.591 1.001.178 1.077.41.662 2.032-.207.81-.36 1.908-.36 2.575v1.164l.51.102c.744.148 1.53.125 2.019-.06.6-.23 1.987-1.579 3.462-3.372.691-.84 1.312-1.527 1.38-1.527.067 0 .317-.181.556-.403.239-.22.647-.496.906-.61.26-.116.473-.255.473-.31 0-.186 1.949-.306 2.368-.146.229.086.455.287.504.446.048.158.206.53.351.825.236.48.317.526.765.431.276-.058.653-.244.839-.414.185-.17.406-.31.49-.31.084 0 .34-.1.571-.22.719-.375 1.246-.44 2.095-.257.927.198 1.757.975 1.922 1.797.119.596.251.596 1.002-.005.548-.437 1.288-.758 3.003-1.301.926-.293 1.765.196 2.336 1.362.4.817.428 1.002.332 2.167-.063.778-.255 1.624-.492 2.172a19.138 19.138 0 00-.478 1.185c-.11.354-.802.689-1.149.556-.368-.141-.314-.755.158-1.787.446-.975.679-2.653.5-3.609-.155-.824-.726-1.188-1.445-.921-1.196.444-2.576 1.247-2.674 1.556-.057.18-.301.62-.543.98-.24.359-.65 1.158-.91 1.777-.541 1.294-.768 1.57-1.293 1.57-.55 0-.608-.496-.223-1.936.625-2.34.669-2.591.556-3.193-.082-.436-.257-.689-.635-.92-.71-.432-1.297-.4-2.117.116-1.6 1.007-1.87 1.333-2.963 3.57-.85 1.737-1.135 2.18-1.46 2.26-.547.138-.92-.03-.92-.412 0-.173.21-.772.468-1.33.472-1.021.741-2.005.931-3.409.126-.925-.257-1.594-.91-1.592-.954.004-1.841.679-3.346 2.547-1.7 2.108-2.747 3.09-4.078 3.82-.89.489-1.018.514-2.077.416-2.013-.187-2.542-.914-2.272-3.121.088-.72.239-1.517.334-1.768.413-1.086.092-1.58-1.028-1.58-.65 0-1.04.316-1.177.951-.18.839-.782 1.752-1.932 2.931-.637.653-1.185 1.266-1.218 1.362-.094.277-1.226 1.278-1.45 1.283-.113.002-.204.081-.204.175 0 .093-.328.52-.73.95-.714.763-1.23 2.05-1.23 3.067 0 .2-.064.404-.143.453-.17.105-1 2.705-1 3.138-.002.41-.952 3.043-1.142 3.16-.083.051-.264.363-.401.692-.3.716-.955 1.378-1.676 1.692-.289.125-.546.224-.571.218a7.61 7.61 0 01-.4-.153z" stroke-width=".163"/></svg>