<svg xmlns="http://www.w3.org/2000/svg" height="27.756" width="20.004"><path d="M0 6.771c0-.27.251-.663.732-1.144.403-.403.781-.933.842-1.18.06-.246.183-.495.273-.554.09-.06.198-.514.24-1.011.06-.727.005-1.014-.278-1.473C1.426.79 1.48 0 1.903 0 2.638 0 3.26.658 3.66 1.857c.084.254-.125 1.411-.5 2.754-.043.157-.404.667-.802 1.134-.399.466-.724.935-.724 1.042 0 .22-.514.391-1.184.394C.077 7.183 0 7.113 0 6.771zm5.886 6.368c.265-.137.481-.303.481-.37 0-.065.188-.322.418-.57.23-.248.533-.724.672-1.058.14-.335.54-1.186.888-1.893.475-.96.635-1.485.635-2.08 0-.765-.024-.806-.613-1.055-.336-.143-.835-.224-1.107-.182-.64.1-2.34 1.236-2.809 1.877-1.166 1.595-1.588 4.07-.83 4.875.195.208.52.378.724.378.204 0 .416.074.471.164.144.232.512.202 1.07-.086zm-.659 11.653c.358-.732.65-1.452.65-1.6 0-.148.087-.355.193-.461.105-.106.243-.543.306-.972.362-2.459.5-3.203.646-3.475.223-.418.203-.814-.042-.815-.399-.002-1.785 1.735-2.42 3.031-.74 1.506-1.17 3.537-1.02 4.806.092.769.125.817.567.817.426 0 .53-.125 1.12-1.331zm-2.085 2.76c-.79-.985-1.174-2.895-.864-4.286.254-1.138.97-3.338 1.16-3.566.538-.643 1.297-1.746 1.297-1.885 0-.09.367-.48.816-.867.449-.386.816-.773.816-.86 0-.086.287-.453.637-.816.717-.742 1.049-1.72.584-1.72-.152 0-.48.172-.731.383-.697.587-2.013.688-3.123.241-1.27-.511-1.727-.994-1.948-2.063-.264-1.267.114-2.587 1.186-4.149 1.011-1.472 1.659-2.078 2.864-2.679.768-.383 1.15-.468 2.093-.468 1.121 0 1.176.02 2 .709.634.53.846.818.843 1.143-.003.408-.588 2.558-.94 3.455-.245.623-.317 2.652-.096 2.726.234.08 2.117-1.424 2.572-2.055.19-.262.694-.926 1.12-1.474.427-.549.776-1.054.776-1.124 0-.069.26-.527.576-1.018.316-.491.697-1.278.846-1.75.236-.748.325-.857.7-.857.27 0 .608.19.909.51.561.597 1.328.96 2.03.96.385 0 .535.095.658.419.168.443.065 1.15-.22 1.51-.094.12-.201 1.121-.238 2.227-.057 1.686-.023 2.079.206 2.43.342.52.196 1.052-.323 1.183-.585.147-.985-.048-1.297-.63-.321-.599-.286-2.423.084-4.412.262-1.402.085-1.649-1.188-1.66-.844-.006-.853-.001-1.105.647-.501 1.289-2.768 4.018-4.698 5.656-2.242 1.903-2.23 1.889-2.463 3.323a42.965 42.965 0 01-.446 2.32c-.13.557-.235 1.233-.235 1.502 0 .748-.403 2.131-1.048 3.6-.322.73-.585 1.42-.585 1.533 0 .112-.443.622-.986 1.134-.794.75-1.093.932-1.531.932-.3 0-.618-.092-.708-.205z" stroke-width=".163"/></svg>