<svg xmlns="http://www.w3.org/2000/svg" height="33.543" width="47.555"><path d="M.01 13.174c-.067-.302.223-.948.789-1.756.734-1.049.923-2.379.45-3.178-.333-.565-.19-1.31.252-1.31.313 0 1.31.905 1.338 1.214.093 1.021-.321 3.01-.84 4.024-.494.97-1.847 1.654-1.99 1.006zm31.93-6.449c.109-.112.406-.776.66-1.476.578-1.595.682-3.473.209-3.768-.424-.264-.929.388-.929 1.201 0 .338-.101.901-.225 1.251-.123.35-.277 1.168-.343 1.816-.104 1.041-.086 1.18.155 1.18.15 0 .363-.092.472-.204zm12.32 1.027c.196-.265.357-.528.357-.584 0-.056.253-.628.563-1.272 1.189-2.473 1.323-4.503.297-4.515-.364-.005-.673.714-.92 2.146-.135.777-.323 1.549-.417 1.714-.259.454-.83 2.286-.83 2.663 0 .497.533.412.95-.151zM5.74 19.462c1.014-.627 2.375-2.113 2.76-3.012.477-1.118.459-1.77-.07-2.532-.353-.51-.528-.62-.976-.62-1.28 0-3.042 1.146-3.954 2.572-.762 1.192-.78 2.66-.043 3.45.589.63 1.411.681 2.283.142zm.088 12.52c.141-.14.3-.453.353-.694.053-.24.16-.658.237-.927.076-.27.187-.857.246-1.306.059-.45.29-1.65.513-2.666.224-1.017.367-1.89.319-1.937-.284-.284-2.2 2.859-2.331 3.825a6.369 6.369 0 01-.305 1.186c-.311.807-.435 2.092-.237 2.462.203.38.852.41 1.206.057zm-2.12 1.437c-.096-.066-.308-.622-.471-1.236-.277-1.037-.28-1.175-.04-1.959.142-.464.35-1.274.46-1.8.112-.528.287-1.042.388-1.144.102-.102.393-.59.647-1.083.806-1.568 1.072-2.02 1.688-2.872 1.481-2.046 1.696-2.406 1.895-3.176.117-.45.155-.853.085-.896-.235-.145-.885.234-1.54.9-1.25 1.272-3.584 1.36-4.463.17-.788-1.065-.818-3.44-.059-4.656.645-1.033 1.84-2.364 2.386-2.66 1.741-.942 3.067-1.224 3.774-.803.81.481 1.381 1.018 1.381 1.296 0 .166.12.485.267.709.22.334.25.677.169 1.913-.054.827-.146 1.707-.204 1.954-.144.606.158.58 1.02-.086.957-.74 3.408-3.55 3.534-4.05.057-.228.289-.833.515-1.344.383-.866.448-.929.963-.929.304 0 .882.184 1.282.408.402.224 1.09.453 1.531.51 1.184.15 1.536.425 1.536 1.203 0 .354-.103.885-.229 1.18-1.416 3.313-.335 4.682 2.523 3.193 1.244-.648 4.031-3.262 4.603-4.317.203-.374.584-.984.845-1.355.262-.37.535-.982.605-1.36.232-1.233.599-2.79.873-3.706.148-.494.401-1.743.563-2.776.173-1.11.487-2.343.767-3.017.555-1.334.892-1.538 2.137-1.298.71.137.819.221 1.156.886.388.764.389 1.305.004 2.612-.42 1.431-1.405 3.754-2.146 5.061-.127.225-.4.739-.605 1.143a8.531 8.531 0 01-.796 1.252c-.556.68-1.32 1.928-1.32 2.153 0 .098-.14.493-.309.877-.17.384-.416 1.286-.548 2.004-.212 1.15-.212 1.35 0 1.673.306.468 1.082.486 1.754.04.27-.178.6-.325.734-.326.135-.002.429-.272.654-.601.224-.33.491-.683.593-.786.389-.388 1.173-2.007 1.532-3.159.444-1.422.845-1.739 1.622-1.28.497.294 2.111.383 2.383.132.086-.079.56-.271 1.053-.428a11.881 11.881 0 001.66-.692c.731-.39.775-.454 1.038-1.533.152-.619.342-1.166.422-1.215.08-.05.145-.275.145-.5 0-.226.184-.958.408-1.626.225-.67.411-1.38.415-1.58.008-.411.349-1.748.508-1.997.058-.09.189-.475.29-.855C44.07.531 44.607 0 45.394 0c.76 0 1.07.22 1.698 1.208.448.705.605 1.534.322 1.708-.076.047-.31.695-.52 1.438-.464 1.646-.973 2.666-2.15 4.311-.333.466-.818.998-1.078 1.183-.481.343-.93 1.369-1.329 3.042a44.001 44.001 0 01-.447 1.685c-.364 1.255-.234 2.587.325 3.319.568.745.587 1.402.045 1.538-.69.173-.933.012-1.437-.954-.667-1.281-.756-2.56-.292-4.2.548-1.94.57-2.122.255-2.122-.15 0-.433.085-.628.19-.496.264-3.845 1.115-4.393 1.115-.349 0-.51.121-.705.53-.677 1.42-1.11 2.176-1.319 2.295-.125.072-.228.225-.228.34 0 .116-.202.4-.45.634-.246.234-.69.675-.986.982-.718.743-1.803 1.265-2.861 1.374-1.558.16-2.23-.522-2.232-2.267-.002-.862-.29-.936-.927-.24-.302.328-.614.597-.696.597-.08 0-.518.317-.971.704-1.01.862-2.697 1.582-3.706 1.582-1.123 0-2.3-.567-2.512-1.21-.189-.57-.045-1.63.39-2.88.139-.4.254-.988.255-1.306.002-.545-.045-.597-.773-.858-.938-.336-1.837-.366-1.837-.06 0 .434-1.854 2.677-4.132 4.998-2.07 2.11-2.357 2.47-2.545 3.194-.116.448-.277.999-.357 1.224-.08.224-.222.951-.314 1.616a42.894 42.894 0 01-.41 2.367c-.133.638-.242 1.405-.242 1.704 0 .707-.721 2.815-1.336 3.905l-.483.857-1.253-.002c-.69-.002-1.331-.057-1.427-.123z" stroke-width=".163"/></svg>