<?xml version="1.0" encoding="UTF-8" standalone="no"?>
<svg
   xmlns:dc="http://purl.org/dc/elements/1.1/"
   xmlns:cc="http://creativecommons.org/ns#"
   xmlns:rdf="http://www.w3.org/1999/02/22-rdf-syntax-ns#"
   xmlns:svg="http://www.w3.org/2000/svg"
   xmlns="http://www.w3.org/2000/svg"
   id="svg2663"
   viewBox="0 0 25.553853 25.615692"
   version="1.1"
   height="25.615692"
   width="25.553854">
  <defs
     id="defs2667" />
  <metadata
     id="metadata2">
    <rdf:RDF>
      <cc:Work
         rdf:about="">
        <dc:format>image/svg+xml</dc:format>
        <dc:type
           rdf:resource="http://purl.org/dc/dcmitype/StillImage" />
        <dc:title />
      </cc:Work>
    </rdf:RDF>
  </metadata>
  <g
     transform="translate(-606.45394,-680.6802)"
     id="g2661">
    <g
       style="stroke-width:0.16327"
       id="g2557">
      <path
         d="m 612.3,703.1 c 1.2297,-3.5195 1.5009,-4.8163 1.0072,-4.8163 -0.21109,0 -1.0633,1.1226 -1.0633,1.4006 0,0.13768 -0.53237,1.2733 -0.64455,1.3749 -0.0496,0.0449 -0.29788,0.46996 -0.55179,0.94457 -0.32268,0.60315 -0.46769,1.1203 -0.48168,1.7178 -0.0244,1.0438 0.11066,1.2896 0.67303,1.2245 0.39446,-0.0457 0.49015,-0.21212 1.0611,-1.8461 z m -5.7734,-15.598 c -0.14449,-0.27 -0.088,-0.49153 0.30155,-1.1837 0.71673,-1.2732 0.95505,-2.3886 0.68512,-3.2065 -0.11923,-0.36129 -0.35178,-0.8018 -0.51678,-0.97889 -0.165,-0.17711 -0.31917,-0.56472 -0.34261,-0.86139 -0.0372,-0.4703 0.0108,-0.5456 0.37446,-0.58797 0.44252,-0.0515 1.2972,0.50222 1.2972,0.84047 0,0.10823 0.1387,0.31553 0.30823,0.46069 0.22051,0.1888 0.341,0.59024 0.42338,1.4105 0.10397,1.0352 0.0713,1.2471 -0.33593,2.1805 -0.45481,1.0424 -1.4298,2.2584 -1.8108,2.2584 -0.1133,0 -0.286,-0.14947 -0.38378,-0.33216 z m 16.771,9.7939 c -0.20608,-0.12656 -0.26004,-0.28516 -0.18209,-0.5351 0.16677,-0.53468 0.35417,-0.59486 1.8627,-0.59825 1.5652,-0.004 3.7994,-0.33102 4.898,-0.71794 0.96716,-0.34066 1.5217,-0.33016 1.8522,0.035 0.2481,0.27414 0.37714,0.8443 0.19109,0.8443 -0.0435,0 -1.1639,0.21541 -2.4898,0.47869 -2.7125,0.53863 -5.6708,0.7766 -6.1321,0.49327 z m -9.2344,-5.9084 c 0.64225,-0.67705 1.0234,-1.2376 1.1378,-1.6735 0.0946,-0.36046 0.27575,-0.87579 0.40259,-1.1452 0.50394,-1.0704 0.47474,-1.4579 -0.15598,-2.0705 -0.64924,-0.63053 -1.4828,-0.9528 -2.1397,-0.82723 -0.23901,0.0457 -0.89821,0.53544 -1.4649,1.0883 -0.82222,0.80222 -1.0894,1.1927 -1.3228,1.9332 -0.23663,0.75063 -0.25591,1.0083 -0.10092,1.3485 0.10539,0.23128 0.1954,0.6191 0.20003,0.86182 0.0119,0.6227 1.1277,1.5025 1.9056,1.5025 0.49013,0 0.71164,-0.1466 1.5383,-1.0181 z m -5.1197,12.61 c -0.28177,-1.6509 1.6425,-4.0441 2.0848,-4.5714 0.11298,-0.1347 0.53494,-0.88743 0.93769,-1.6728 0.71698,-1.398 1.066,-1.8849 2.4407,-3.405 0.69641,-0.77007 1.0426,-1.5778 0.78611,-1.8342 -0.0836,-0.0836 -0.45514,0.0695 -0.88284,0.3638 -0.83005,0.57107 -2.1344,0.9342 -2.7766,0.77301 -0.55078,-0.13825 -1.4661,-0.94581 -2.0749,-1.8306 -0.43313,-0.62953 -0.47956,-0.82315 -0.47359,-1.9747 0.006,-1.1738 0.0456,-1.3223 0.4898,-1.842 0.26575,-0.31089 0.48317,-0.64363 0.48317,-0.73942 0,-0.3104 2.0199,-2.1622 2.7638,-2.5338 0.53994,-0.26971 0.89278,-0.33791 1.3933,-0.2693 0.85538,0.11724 3.3131,1.3574 3.4319,1.7318 0.0497,0.15644 -0.0265,1.0489 -0.1692,1.9833 -0.44058,2.8847 -0.47685,3.5764 -0.18742,3.5764 0.44757,0 1.2458,-0.56007 1.4299,-1.0033 0.0987,-0.23753 0.46755,-0.66344 0.81973,-0.94646 0.3522,-0.28302 0.64035,-0.59603 0.64035,-0.69556 0,-0.0995 0.16917,-0.40833 0.37595,-0.68619 0.53788,-0.72279 1.0029,-1.5598 1.2317,-2.217 0.39603,-1.1376 0.76741,-1.7797 1.126,-1.9465 0.30576,-0.14227 0.45401,-0.0942 0.89796,0.29137 0.29244,0.25397 0.99216,0.66685 1.5549,0.91752 0.76475,0.3406 1.049,0.55831 1.1251,0.86187 0.0561,0.22338 -0.0188,1.2597 -0.16627,2.303 -0.3281,2.3204 -0.32994,2.5901 -0.0219,3.1808 0.3583,0.68704 0.30501,1.1991 -0.15628,1.5013 -0.61641,0.40387 -0.99682,0.17588 -1.3197,-0.79091 -0.30967,-0.92735 -0.34168,-2.1574 -0.0795,-3.0545 0.0917,-0.3137 0.16622,-1.0117 0.16565,-1.551 -0.002,-0.92369 -0.0302,-0.99727 -0.50303,-1.2664 -0.2761,-0.15715 -0.59182,-0.28572 -0.70164,-0.28572 -0.3653,0 -1.7326,1.6757 -1.9651,2.4085 -0.0631,0.19878 -0.38565,0.6544 -0.71683,1.0125 -0.33117,0.35812 -0.85927,0.95631 -1.1736,1.3293 -1.1964,1.4199 -1.7073,1.9435 -1.8965,1.9435 -0.25131,0 -1.6953,1.6004 -1.6953,1.879 0,0.11607 -0.18296,0.60404 -0.40656,1.0844 -0.22363,0.48034 -0.4073,1.0729 -0.40817,1.3168 -0.002,0.24389 -0.10421,0.6847 -0.22965,0.97959 -0.12542,0.29487 -0.42912,1.2708 -0.6749,2.1688 -1.0378,3.7918 -1.2965,4.4886 -1.9955,5.3748 -0.34932,0.44292 -0.89702,0.50005 -1.3469,0.37758 -1.0006,-0.27237 -1.9822,-1.22 -2.1567,-2.2422 z"
         id="agreed_abv" />
    </g>
  </g>
</svg>
