<svg xmlns="http://www.w3.org/2000/svg" height="27.753" width="20.006"><path d="M0 6.77c0-.27.252-.663.732-1.143.403-.403.782-.933.842-1.18.06-.245.183-.495.274-.554.09-.06.198-.514.239-1.011.06-.727.006-1.014-.277-1.473C1.427.789 1.48 0 1.904 0c.734 0 1.357.658 1.755 1.857.084.254-.125 1.412-.499 2.755-.044.157-.405.667-.803 1.133-.398.466-.724.936-.724 1.043 0 .22-.514.39-1.184.394C.077 7.184 0 7.113 0 6.772zm5.886 6.369c.265-.137.482-.303.482-.37 0-.065.188-.322.418-.57.23-.248.532-.724.672-1.059.14-.334.54-1.186.888-1.892.475-.96.634-1.485.634-2.08 0-.765-.024-.806-.612-1.055-.337-.142-.835-.224-1.107-.181-.64.1-2.34 1.236-2.809 1.877-1.166 1.595-1.588 4.069-.83 4.875.195.208.52.378.724.378.204 0 .416.073.471.163.144.232.512.202 1.07-.086zm-.658 11.65c.358-.732.65-1.452.65-1.6 0-.148.087-.355.192-.461.106-.106.244-.543.307-.971.362-2.46.5-3.204.645-3.476.224-.418.203-.814-.042-.815-.398-.002-1.785 1.735-2.42 3.031-.738 1.506-1.169 3.537-1.019 4.806.091.768.125.817.567.817.425 0 .53-.125 1.12-1.331zm-2.085 2.76c-.79-.985-1.174-2.895-.864-4.286.254-1.138.97-3.337 1.16-3.566.538-.643 1.297-1.746 1.297-1.885 0-.09.367-.48.816-.867.45-.387.817-.774.817-.86 0-.086.286-.454.636-.816.717-.742 1.048-1.72.584-1.72-.151 0-.48.172-.731.383-.697.587-2.012.688-3.122.242-1.271-.512-1.727-.995-1.95-2.063-.262-1.267.115-2.587 1.188-4.15 1.01-1.471 1.658-2.077 2.864-2.678.768-.383 1.15-.47 2.093-.47 1.122 0 1.176.02 2 .71.634.53.846.818.843 1.143-.003.409-.588 2.558-.94 3.455-.245.624-.317 2.652-.096 2.727.234.08 2.117-1.424 2.573-2.055.19-.263.693-.926 1.12-1.475.426-.548.775-1.054.775-1.123 0-.07.26-.528.576-1.019.316-.49.697-1.278.846-1.75.236-.748.325-.857.7-.857.27 0 .607.19.909.51.561.597 1.328.96 2.029.96.385 0 .535.095.658.419.169.443.066 1.149-.22 1.51-.093.12-.2 1.122-.238 2.228-.056 1.685-.023 2.078.207 2.429.341.52.196 1.053-.324 1.183-.584.147-.984-.048-1.297-.63-.32-.599-.286-2.423.085-4.412.261-1.402.084-1.65-1.188-1.66-.844-.006-.854-.001-1.105.647-.501 1.289-2.768 4.018-4.698 5.657-2.242 1.903-2.231 1.888-2.463 3.323a42.878 42.878 0 01-.446 2.319c-.13.557-.235 1.233-.235 1.502 0 .749-.403 2.132-1.048 3.6-.321.73-.584 1.42-.584 1.533 0 .112-.444.623-.987 1.135-.794.749-1.093.93-1.53.93-.3 0-.619-.09-.709-.203z" stroke-width=".163"/></svg>