<svg xmlns="http://www.w3.org/2000/svg" height="33.544" width="47.56"><path d="M.01 13.177c-.067-.303.223-.949.789-1.756.734-1.05.923-2.379.45-3.178-.333-.565-.19-1.311.252-1.311.313 0 1.31.905 1.338 1.214.094 1.021-.321 3.01-.84 4.025-.494.97-1.848 1.653-1.99 1.006zm31.934-6.45c.11-.112.407-.776.66-1.475.579-1.595.683-3.473.21-3.768-.424-.265-.929.388-.929 1.2 0 .338-.101.901-.225 1.251-.123.35-.278 1.168-.343 1.817-.104 1.041-.086 1.18.155 1.18.15 0 .363-.092.472-.205zm12.318 1.027c.197-.265.358-.528.358-.584 0-.055.253-.628.563-1.272 1.189-2.473 1.323-4.502.297-4.515-.364-.005-.673.714-.92 2.146-.135.777-.323 1.548-.417 1.714-.259.454-.83 2.286-.83 2.663 0 .497.533.412.95-.152zM5.743 19.464c1.015-.627 2.376-2.112 2.76-3.012.477-1.118.46-1.77-.069-2.532-.353-.51-.528-.621-.976-.621-1.28 0-3.042 1.146-3.955 2.573-.762 1.192-.78 2.66-.042 3.45.588.63 1.41.681 2.282.142zm.09 12.517c.14-.14.3-.453.352-.693.053-.241.16-.658.237-.928.076-.27.187-.857.246-1.306.059-.449.29-1.648.513-2.666.224-1.017.367-1.888.319-1.937-.284-.284-2.199 2.859-2.33 3.826a6.359 6.359 0 01-.305 1.185c-.312.808-.436 2.092-.238 2.463.203.38.852.41 1.205.057zM3.711 33.42c-.096-.066-.307-.622-.471-1.236-.277-1.037-.28-1.175-.04-1.959.142-.464.35-1.274.461-1.801.111-.527.286-1.041.388-1.143.102-.102.393-.59.647-1.083.805-1.568 1.071-2.02 1.688-2.873 1.48-2.045 1.696-2.405 1.895-3.176.117-.45.155-.852.086-.896-.236-.145-.886.235-1.541.9-1.25 1.272-3.583 1.36-4.462.171-.789-1.066-.819-3.44-.06-4.657.645-1.033 1.84-2.364 2.387-2.66 1.74-.942 3.066-1.224 3.773-.803.81.481 1.381 1.017 1.381 1.296 0 .166.12.484.267.709.219.334.25.677.169 1.912-.054.828-.146 1.707-.205 1.954-.143.607.159.582 1.02-.085.957-.74 3.408-3.55 3.533-4.05.058-.228.29-.833.516-1.344.382-.866.448-.929.963-.929.304 0 .881.184 1.283.408.401.224 1.09.453 1.53.51 1.184.15 1.536.425 1.536 1.203 0 .354-.103.885-.229 1.18-1.416 3.313-.335 4.682 2.523 3.193 1.244-.649 4.03-3.262 4.603-4.318.203-.374.583-.984.845-1.355.262-.37.534-.983.605-1.36.232-1.232.599-2.79.873-3.706.147-.494.4-1.743.562-2.775.174-1.11.487-2.343.768-3.017C31.56.295 31.897.09 33.143.33c.708.137.818.221 1.156.886.387.764.388 1.306.004 2.612-.421 1.432-1.406 3.755-2.146 5.062-.127.224-.4.738-.606 1.142a8.5 8.5 0 01-.796 1.252c-.555.68-1.32 1.928-1.32 2.153 0 .098-.138.493-.308.877-.17.384-.416 1.286-.548 2.004-.212 1.15-.212 1.35 0 1.674.306.467 1.082.485 1.754.04.27-.178.6-.325.734-.326.135-.002.43-.272.654-.602.224-.33.491-.683.593-.785.389-.388 1.174-2.007 1.533-3.159.443-1.422.845-1.74 1.622-1.28.496.293 2.11.382 2.382.132.086-.08.56-.272 1.053-.428a11.905 11.905 0 001.66-.692c.732-.39.775-.455 1.04-1.533.151-.62.34-1.166.42-1.215.08-.05.146-.275.146-.5 0-.226.183-.958.408-1.627.224-.669.411-1.38.415-1.58.008-.41.349-1.748.508-1.996.058-.09.188-.475.29-.855C44.075.531 44.611 0 45.397 0c.76 0 1.07.22 1.699 1.208.448.705.605 1.534.322 1.708-.076.048-.31.695-.52 1.439-.464 1.646-.973 2.665-2.15 4.31-.334.466-.819.998-1.078 1.183-.482.343-.93 1.369-1.33 3.043a43.914 43.914 0 01-.446 1.685c-.364 1.255-.234 2.587.325 3.318.568.745.587 1.403.045 1.539-.69.173-.934.011-1.437-.955-.668-1.28-.757-2.559-.293-4.2.549-1.94.57-2.122.256-2.122-.151 0-.434.085-.629.19-.495.265-3.845 1.116-4.393 1.116-.348 0-.509.12-.704.53-.677 1.42-1.111 2.176-1.319 2.294-.126.072-.228.225-.228.34 0 .116-.202.401-.45.635-.246.233-.69.675-.986.981-.718.744-1.804 1.265-2.862 1.374-1.558.16-2.23-.521-2.232-2.267-.002-.861-.29-.936-.927-.24-.301.33-.614.598-.696.598-.08 0-.518.316-.971.703-1.01.862-2.697 1.583-3.707 1.583-1.123 0-2.3-.567-2.511-1.21-.189-.57-.045-1.63.39-2.88.14-.4.254-.988.255-1.307.002-.544-.044-.597-.773-.858-.938-.336-1.837-.365-1.837-.06 0 .434-1.854 2.677-4.132 4.999-2.07 2.11-2.357 2.47-2.545 3.194-.116.448-.277 1-.357 1.224-.08.224-.222.951-.314 1.615s-.276 1.73-.41 2.368c-.132.638-.241 1.404-.241 1.704 0 .707-.722 2.814-1.337 3.905l-.483.857-1.254-.002c-.689-.002-1.331-.057-1.426-.123z" stroke-width=".163"/></svg>