<svg xmlns="http://www.w3.org/2000/svg" height="25.616" width="25.554"><path d="M5.846 22.42c1.23-3.52 1.501-4.816 1.007-4.816-.21 0-1.063 1.122-1.063 1.4 0 .138-.532 1.273-.645 1.375-.05.045-.297.47-.551.945-.323.603-.468 1.12-.482 1.717-.024 1.044.11 1.29.673 1.225.394-.046.49-.212 1.061-1.846zM.073 6.822c-.145-.27-.088-.492.301-1.184.717-1.273.955-2.388.685-3.206C.94 2.07.708 1.63.543 1.452.378 1.277.223.889.2.593.163.12.21.045.574.002c.443-.051 1.298.503 1.298.84 0 .11.138.316.308.462.22.188.34.59.423 1.41.104 1.035.072 1.247-.336 2.18C1.812 5.939.837 7.155.457 7.155c-.114 0-.287-.15-.384-.332zm16.77 9.794c-.205-.127-.26-.285-.181-.535.166-.535.354-.595 1.862-.599 1.565-.004 3.8-.33 4.898-.718.967-.34 1.522-.33 1.852.035.249.275.378.845.192.845-.044 0-1.164.215-2.49.478-2.713.539-5.671.777-6.132.494zM7.61 10.707c.643-.677 1.024-1.237 1.138-1.673.095-.36.276-.876.403-1.145.504-1.07.474-1.458-.156-2.07-.65-.631-1.483-.954-2.14-.828-.239.046-.898.535-1.465 1.088-.822.802-1.09 1.193-1.323 1.933-.236.751-.256 1.009-.1 1.349.105.231.195.619.2.862.011.622 1.127 1.502 1.905 1.502.49 0 .712-.146 1.538-1.018zm-5.12 12.61c-.281-1.65 1.643-4.044 2.085-4.571.113-.135.535-.888.938-1.673.717-1.398 1.066-1.885 2.44-3.405.697-.77 1.043-1.578.787-1.834-.084-.084-.455.07-.883.364-.83.57-2.134.934-2.777.773-.55-.139-1.466-.946-2.074-1.83-.434-.63-.48-.824-.474-1.976.006-1.173.046-1.322.49-1.842.265-.31.483-.643.483-.739 0-.31 2.02-2.162 2.764-2.534.54-.27.892-.338 1.393-.27.855.118 3.313 1.358 3.432 1.733.05.156-.027 1.049-.17 1.983-.44 2.885-.476 3.576-.187 3.576.448 0 1.246-.56 1.43-1.003.099-.237.468-.663.82-.946.352-.283.64-.596.64-.696 0-.1.17-.408.376-.686.538-.723 1.003-1.56 1.232-2.217.396-1.138.767-1.78 1.126-1.947.306-.142.454-.094.898.292.292.254.992.667 1.555.917.765.34 1.049.559 1.125.862.056.224-.019 1.26-.166 2.303-.329 2.32-.33 2.59-.022 3.18.358.688.305 1.2-.157 1.502-.616.404-.996.176-1.32-.79-.309-.928-.341-2.158-.079-3.055.092-.314.166-1.012.166-1.551-.002-.924-.03-.997-.503-1.267-.276-.157-.592-.285-.702-.285-.365 0-1.732 1.675-1.965 2.408-.063.199-.386.655-.717 1.013-.33.358-.859.956-1.173 1.329-1.197 1.42-1.708 1.944-1.897 1.944-.251 0-1.695 1.6-1.695 1.879 0 .116-.183.604-.407 1.084-.223.48-.407 1.073-.408 1.317-.002.244-.104.684-.23.98-.125.294-.429 1.27-.674 2.168-1.038 3.792-1.297 4.489-1.996 5.375-.35.443-.897.5-1.347.377-1-.272-1.982-1.22-2.157-2.242z"/></svg>