<svg xmlns="http://www.w3.org/2000/svg" height="25.837" width="45.195"><path d="M2.776 1.969c.14.292.086.661.192.954.165.455.136.703-.204 1.726-.218.657-.443 1.23-.5 1.276-.058.045-.269.395-.468.779-.412.79-.881 1.18-1.424 1.18-.294 0-.372-.091-.372-.436 0-.24.101-.552.225-.694.123-.142.49-.765.816-1.384.628-1.195.758-2.157.382-2.808C1.099 2.002.36 1.19.173 1.19.079 1.19 0 .97 0 .704 0 .203.704-.06 1.143.012c.838.14 1.265 1.192 1.633 1.958zm2.777 10.28c.315-.11.83-.434 1.143-.717.313-.284.725-.651.915-.817.487-.424 1.36-1.938 1.629-2.82.546-1.8.114-2.605-1.275-2.374-1 .166-1.4.411-2.426 1.49-1.06 1.111-1.673 2.017-1.94 2.862-.278.884.019 1.85.695 2.262.614.375.535.368 1.259.113zm-.229 11.35c.606-.905.911-1.578 1.05-2.311.077-.413.303-1.32.502-2.017.198-.696.312-1.315.252-1.375-.205-.206-.894.632-1.479 1.798-.8 1.598-1.077 2.461-1.077 3.367 0 1.108.251 1.287.753.537zM3.81 25.681c-.472-.19-.593-.645-.585-2.213.006-1.279.037-1.384 1.054-3.512.576-1.206 1.282-2.46 1.568-2.786.286-.326.52-.66.52-.743 0-.083.26-.403.577-.71.926-.898 1.546-2.138 1.546-3.094 0-.553-.067-.819-.207-.819-.113 0-.646.366-1.184.814-1.602 1.335-2.78 1.502-3.826.542-.923-.849-1.262-1.909-.993-3.108.11-.49.376-1.15.592-1.469.216-.319.393-.65.393-.735 0-.147.753-.997 1.9-2.144 1.287-1.287 1.586-1.418 3.302-1.442.859-.012 1.038.039 1.316.376.178.215.367.585.422.823.054.237.241.56.416.719.413.373.4.728-.09 2.62-.5 1.92-.518 2.352-.103 2.352.17 0 .398-.11.51-.245.112-.135.291-.245.398-.245.335 0 2.059-1.941 2.546-2.866.256-.487.643-1.125.86-1.418.216-.293.566-.957.776-1.476.486-1.2.809-1.305 1.985-.643.475.268 1.132.534 1.46.592 1.001.177 1.077.41.662 2.032-.207.81-.36 1.907-.36 2.575v1.163l.51.102c.743.149 1.53.125 2.019-.06.6-.23 1.987-1.579 3.462-3.372.69-.84 1.312-1.527 1.379-1.527.067 0 .318-.18.556-.402.24-.221.647-.496.907-.611.26-.115.472-.254.472-.31 0-.185 1.95-.305 2.368-.146.229.087.455.288.504.446.048.159.206.53.351.826.236.48.316.526.765.43.276-.057.653-.244.839-.414.185-.17.405-.31.49-.31.083 0 .34-.1.571-.22.719-.374 1.245-.439 2.095-.257.927.199 1.757.975 1.921 1.798.12.596.252.596 1.003-.005.548-.437 1.288-.758 3.003-1.3.926-.294 1.765.195 2.336 1.361.4.817.428 1.002.333 2.167-.064.778-.256 1.624-.493 2.172a19.124 19.124 0 00-.477 1.185c-.11.354-.803.689-1.149.556-.369-.141-.315-.755.157-1.787.447-.975.68-2.653.5-3.609-.155-.824-.726-1.188-1.444-.921-1.196.444-2.576 1.248-2.675 1.556-.057.18-.302.62-.543.98-.24.359-.65 1.158-.91 1.776-.542 1.295-.768 1.57-1.293 1.57-.551 0-.608-.495-.224-1.935.625-2.34.67-2.592.556-3.193-.082-.436-.256-.689-.634-.92-.71-.432-1.297-.4-2.117.116-1.6 1.007-1.87 1.333-2.964 3.57-.85 1.737-1.135 2.18-1.46 2.26-.547.138-.92-.03-.92-.411 0-.174.21-.772.468-1.33.472-1.021.741-2.005.931-3.41.125-.925-.257-1.594-.91-1.591-.955.004-1.842.678-3.347 2.547-1.699 2.109-2.746 3.09-4.077 3.82-.89.49-1.018.515-2.077.416-2.013-.187-2.542-.913-2.272-3.12.089-.721.239-1.518.335-1.769.412-1.086.091-1.579-1.028-1.579-.65 0-1.041.316-1.177.95-.18.84-.783 1.753-1.932 2.932-.637.653-1.184 1.266-1.217 1.362-.095.277-1.226 1.278-1.451 1.283-.113.002-.205.08-.205.174 0 .094-.328.521-.729.95-.714.764-1.23 2.05-1.23 3.068 0 .2-.064.404-.143.453-.17.105-1 2.705-1 3.138-.003.41-.953 3.042-1.142 3.159-.083.051-.264.363-.401.692-.3.716-.955 1.378-1.675 1.691-.29.126-.546.224-.572.219a7.61 7.61 0 01-.399-.153z" stroke-width=".163"/></svg>