<svg xmlns="http://www.w3.org/2000/svg" height="25.618" width="25.553"><path d="M5.846 22.423c1.23-3.52 1.5-4.816 1.007-4.816-.211 0-1.063 1.123-1.063 1.4 0 .138-.533 1.274-.645 1.376-.05.045-.298.47-.552.944-.322.603-.467 1.12-.481 1.718-.025 1.044.11 1.29.673 1.225.394-.045.49-.212 1.06-1.846zM.073 6.823c-.145-.27-.088-.492.301-1.184.717-1.273.955-2.39.685-3.207C.94 2.07.708 1.63.543 1.452.378 1.277.223.889.2.593.163.12.21.045.574.002c.443-.051 1.297.503 1.297.84 0 .109.14.316.309.462.22.188.34.59.423 1.41.104 1.036.071 1.248-.336 2.182C1.812 5.939.837 7.155.457 7.155c-.114 0-.287-.15-.385-.333zm16.77 9.794c-.206-.127-.26-.286-.182-.535.166-.535.354-.595 1.863-.599 1.565-.004 3.799-.33 4.898-.718.967-.34 1.522-.33 1.852.035.248.275.377.845.19.845-.043 0-1.163.215-2.49.478-2.712.539-5.67.777-6.131.494zm-9.234-5.908c.642-.677 1.023-1.238 1.138-1.673.094-.36.275-.876.402-1.145.504-1.07.475-1.458-.156-2.07-.649-.63-1.483-.953-2.14-.828-.239.046-.898.536-1.465 1.088-.822.803-1.089 1.193-1.323 1.933-.236.751-.256 1.008-.1 1.35.105.23.195.619.2.861.011.623 1.127 1.503 1.905 1.503.49 0 .712-.146 1.538-1.018zm-5.12 12.61c-.282-1.651 1.643-4.044 2.085-4.571.113-.135.535-.888.937-1.673.717-1.398 1.066-1.885 2.441-3.405.697-.77 1.043-1.578.786-1.834-.083-.084-.455.07-.882.363-.83.572-2.134.935-2.777.773-.551-.138-1.466-.945-2.075-1.83-.433-.63-.48-.824-.474-1.976.006-1.174.046-1.322.49-1.842.266-.31.483-.643.483-.739 0-.31 2.02-2.162 2.764-2.534.54-.27.893-.338 1.393-.27.855.118 3.313 1.358 3.432 1.733.05.156-.026 1.049-.17 1.983-.44 2.885-.476 3.576-.187 3.576.448 0 1.246-.56 1.43-1.003.1-.238.468-.664.82-.947.352-.283.64-.596.64-.695 0-.1.17-.409.377-.687.537-.722 1.003-1.56 1.232-2.217.396-1.138.767-1.78 1.126-1.946.305-.142.454-.094.898.292.292.254.992.667 1.555.917.764.34 1.049.559 1.125.862.056.224-.02 1.26-.167 2.303-.328 2.32-.33 2.59-.022 3.181.359.687.305 1.2-.156 1.501-.616.404-.997.176-1.32-.79-.31-.928-.342-2.158-.08-3.056.092-.313.167-1.012.166-1.55-.002-.924-.03-.998-.503-1.267-.276-.157-.592-.285-.701-.285-.366 0-1.733 1.676-1.965 2.409-.064.198-.386.654-.717 1.013-.331.358-.86.956-1.174 1.329-1.196 1.42-1.707 1.944-1.897 1.944-.252 0-1.695 1.6-1.695 1.879 0 .116-.183.604-.407 1.084-.223.48-.407 1.073-.408 1.317-.002.244-.104.684-.23.98-.125.294-.429 1.27-.675 2.168-1.038 3.792-1.297 4.49-1.996 5.375-.349.443-.897.5-1.347.378-1-.273-1.982-1.22-2.157-2.242z" stroke-width=".163"/></svg>