<?xml version="1.0" encoding="UTF-8" standalone="no"?>
<svg
   xmlns:dc="http://purl.org/dc/elements/1.1/"
   xmlns:cc="http://creativecommons.org/ns#"
   xmlns:rdf="http://www.w3.org/1999/02/22-rdf-syntax-ns#"
   xmlns:svg="http://www.w3.org/2000/svg"
   xmlns="http://www.w3.org/2000/svg"
   id="svg2663"
   viewBox="0 0 47.560061 33.543652"
   version="1.1"
   height="33.543652"
   width="47.560062">
  <defs
     id="defs2667" />
  <metadata
     id="metadata2">
    <rdf:RDF>
      <cc:Work
         rdf:about="">
        <dc:format>image/svg+xml</dc:format>
        <dc:type
           rdf:resource="http://purl.org/dc/dcmitype/StillImage" />
        <dc:title />
      </cc:Work>
    </rdf:RDF>
  </metadata>
  <g
     transform="translate(-605.50069,-648.41344)"
     id="g2661">
    <g
       style="stroke-width:0.16327"
       id="g2557">
      <path
         d="m 605.51,661.59 c -0.0663,-0.30255 0.22392,-0.94819 0.7892,-1.7558 0.73424,-1.0489 0.92301,-2.3788 0.45104,-3.1778 -0.33378,-0.56506 -0.19063,-1.3113 0.25156,-1.3113 0.31249,0 1.3099,0.90538 1.3382,1.2147 0.0933,1.0206 -0.32156,3.009 -0.83958,4.0244 -0.49458,0.96947 -1.8485,1.6536 -1.9904,1.0058 z m 31.935,-6.4491 c 0.10959,-0.11224 0.40671,-0.77634 0.6603,-1.4758 0.57833,-1.5951 0.68244,-3.4725 0.20897,-3.7681 -0.42378,-0.26451 -0.92855,0.38815 -0.92855,1.2006 0,0.33795 -0.10108,0.90093 -0.22462,1.2511 -0.12354,0.35016 -0.27793,1.1676 -0.3431,1.8164 -0.10457,1.0413 -0.0864,1.1798 0.15464,1.1798 0.15022,0 0.36279,-0.0918 0.47236,-0.20408 z m 12.318,1.027 c 0.19649,-0.26574 0.35724,-0.52863 0.35724,-0.58418 0,-0.0556 0.25336,-0.62792 0.56302,-1.2719 1.1893,-2.4734 1.3232,-4.5026 0.2979,-4.5154 -0.36462,-0.005 -0.67318,0.71427 -0.92105,2.1456 -0.13461,0.7774 -0.32199,1.5488 -0.41637,1.7143 -0.25892,0.45386 -0.82962,2.2858 -0.82962,2.663 0,0.49721 0.53208,0.41226 0.94888,-0.15151 z m -38.519,11.71 c 1.0149,-0.6272 2.376,-2.1126 2.7599,-3.0122 0.47721,-1.118 0.45944,-1.7698 -0.069,-2.5324 -0.35312,-0.50957 -0.52834,-0.62103 -0.97629,-0.62103 -1.2802,0 -3.042,1.1465 -3.9545,2.5735 -0.76217,1.1919 -0.78036,2.6604 -0.0427,3.45 0.58819,0.62967 1.4107,0.68085 2.2826,0.14203 z m 0.089,12.517 c 0.14096,-0.14098 0.29976,-0.45323 0.35285,-0.69388 0.0531,-0.24067 0.15946,-0.65798 0.23638,-0.92736 0.0769,-0.26939 0.18785,-0.85715 0.24657,-1.3061 0.0587,-0.44898 0.28962,-1.6486 0.5131,-2.6657 0.22349,-1.0172 0.36684,-1.8889 0.31856,-1.9372 -0.28397,-0.28395 -2.1987,2.8587 -2.3307,3.8253 -0.0461,0.33791 -0.18317,0.87153 -0.30451,1.1858 -0.31175,0.80749 -0.43582,2.0921 -0.23779,2.4622 0.20316,0.37961 0.85222,0.41032 1.2055,0.057 z m -2.1206,1.4375 c -0.0953,-0.066 -0.30718,-0.62206 -0.47082,-1.2357 -0.27659,-1.0372 -0.27936,-1.1752 -0.0395,-1.9592 0.14193,-0.46389 0.34921,-1.2744 0.46064,-1.8012 0.11143,-0.52675 0.28596,-1.0411 0.38785,-1.143 0.10188,-0.10188 0.39289,-0.58928 0.64667,-1.0831 0.80573,-1.5678 1.0719,-2.0205 1.6885,-2.8724 1.4808,-2.0458 1.6956,-2.4057 1.8954,-3.176 0.11664,-0.44963 0.155,-0.85278 0.0853,-0.89589 -0.23567,-0.14564 -0.8855,0.23405 -1.541,0.90038 -1.2501,1.2709 -3.5827,1.3598 -4.4622,0.17019 -0.78846,-1.0664 -0.8185,-3.4397 -0.059,-4.6568 0.64476,-1.0331 1.8386,-2.3642 2.386,-2.6603 1.7413,-0.9418 3.0665,-1.2239 3.7737,-0.8033 0.80998,0.48178 1.3809,1.0176 1.3809,1.296 0,0.16587 0.1201,0.48486 0.26689,0.70889 0.21899,0.33424 0.24926,0.67744 0.16862,1.9126 -0.054,0.82791 -0.14597,1.7073 -0.20429,1.9543 -0.14325,0.60668 0.15866,0.58131 1.0205,-0.0857 0.95637,-0.74018 3.4071,-3.5492 3.5326,-4.049 0.0574,-0.22884 0.28926,-0.83399 0.51513,-1.3448 0.38288,-0.86573 0.44818,-0.92867 0.96363,-0.92867 0.30411,0 0.88124,0.18349 1.2825,0.40777 0.40127,0.22426 1.0901,0.45347 1.5308,0.50932 1.1837,0.15006 1.5359,0.42606 1.5359,1.2036 0,0.35407 -0.10315,0.88503 -0.22921,1.1799 -1.4165,3.3134 -0.33496,4.6823 2.5226,3.1928 1.2443,-0.64858 4.0306,-3.2621 4.6027,-4.3173 0.20307,-0.37455 0.58348,-0.98438 0.84534,-1.3552 0.26186,-0.37078 0.5341,-0.9827 0.60501,-1.3598 0.23176,-1.2327 0.59865,-2.7907 0.87274,-3.7061 0.14788,-0.49388 0.40102,-1.7429 0.56253,-2.7755 0.17369,-1.1106 0.48728,-2.343 0.76762,-3.017 0.55476,-1.3337 0.89136,-1.5381 2.1368,-1.2975 0.70891,0.13689 0.81858,0.22094 1.156,0.88594 0.38751,0.76366 0.38844,1.3054 0.004,2.6122 -0.42055,1.4313 -1.4053,3.7542 -2.1457,5.0612 -0.12717,0.22449 -0.39968,0.73877 -0.60557,1.1428 -0.20591,0.40409 -0.56417,0.96732 -0.79613,1.2516 -0.5552,0.68047 -1.3197,1.9277 -1.3197,2.1529 0,0.0982 -0.13875,0.49273 -0.30835,0.87676 -0.1696,0.38405 -0.4164,1.286 -0.54841,2.0044 -0.2114,1.1502 -0.21133,1.35 0,1.6735 0.30646,0.4678 1.0821,0.48586 1.7541,0.0408 0.26939,-0.17841 0.6,-0.32537 0.73469,-0.32656 0.1347,-0.002 0.42858,-0.2719 0.65307,-0.60155 0.22448,-0.32963 0.49175,-0.683 0.59392,-0.78524 0.3882,-0.38842 1.1732,-2.0068 1.5322,-3.1588 0.44318,-1.4222 0.84496,-1.7394 1.622,-1.2804 0.49657,0.29333 2.1109,0.38265 2.3826,0.13182 0.0853,-0.0788 0.55918,-0.27139 1.0531,-0.42808 0.49388,-0.15668 1.2411,-0.4681 1.6605,-0.69201 0.73068,-0.39013 0.77409,-0.45421 1.0384,-1.5326 0.15169,-0.61899 0.34119,-1.1658 0.42112,-1.2152 0.0799,-0.0494 0.14532,-0.27457 0.14532,-0.50038 0,-0.22581 0.18368,-0.95771 0.40817,-1.6264 0.22449,-0.66875 0.41141,-1.3796 0.41536,-1.5798 0.008,-0.41077 0.34833,-1.7479 0.50795,-1.9966 0.0577,-0.0898 0.18826,-0.47434 0.29022,-0.85455 0.28328,-1.0562 0.82031,-1.587 1.6057,-1.587 0.76028,0 1.0696,0.22005 1.6985,1.2082 0.44867,0.70504 0.60527,1.5336 0.32284,1.7082 -0.0765,0.0473 -0.31068,0.69446 -0.52044,1.4382 -0.46425,1.6461 -0.97275,2.6656 -2.1504,4.3111 -0.33318,0.46555 -0.81827,0.99778 -1.078,1.1827 -0.48148,0.34286 -0.92945,1.3685 -1.3287,3.0422 -0.1071,0.44898 -0.30809,1.2072 -0.44666,1.6849 -0.36403,1.2551 -0.23386,2.587 0.32438,3.3189 0.56808,0.7448 0.58759,1.4021 0.0456,1.5381 -0.6905,0.1733 -0.93383,0.0118 -1.4373,-0.95431 -0.66755,-1.2809 -0.75664,-2.5591 -0.29276,-4.1999 0.54841,-1.9398 0.5704,-2.1224 0.25556,-2.1224 -0.15079,0 -0.43363,0.0853 -0.62852,0.18965 -0.49517,0.265 -3.8453,1.1165 -4.3928,1.1165 -0.34865,0 -0.50909,0.12086 -0.70441,0.53061 -0.67678,1.4199 -1.111,2.175 -1.3189,2.2938 -0.12568,0.0718 -0.22851,0.22496 -0.22851,0.34036 0,0.11538 -0.20204,0.40063 -0.44898,0.63389 -0.24693,0.23326 -0.69105,0.67484 -0.98693,0.98131 -0.71808,0.74377 -1.8032,1.2648 -2.8614,1.3741 -1.5581,0.16082 -2.2297,-0.52116 -2.2324,-2.2669 -0.002,-0.86165 -0.2891,-0.936 -0.92732,-0.23958 -0.30106,0.32851 -0.61386,0.59729 -0.69512,0.59729 -0.0812,0 -0.51858,0.31654 -0.97182,0.70343 -1.01,0.86214 -2.6968,1.5823 -3.7062,1.5823 -1.1232,0 -2.2996,-0.56632 -2.5117,-1.2091 -0.18843,-0.57089 -0.0447,-1.6315 0.3903,-2.8809 0.1391,-0.39949 0.25398,-0.98734 0.25528,-1.3064 0.002,-0.54473 -0.0448,-0.59688 -0.77312,-0.85794 -0.93795,-0.33618 -1.8367,-0.3656 -1.8367,-0.0601 0,0.43388 -1.8541,2.6767 -4.132,4.9984 -2.071,2.1107 -2.3575,2.4704 -2.545,3.1942 -0.11625,0.44862 -0.27714,0.99936 -0.35757,1.2238 -0.0804,0.22449 -0.2216,0.95154 -0.31371,1.6157 -0.0921,0.66413 -0.27638,1.7294 -0.40947,2.3673 -0.13308,0.63793 -0.24203,1.4047 -0.24211,1.7039 -1.6e-4,0.70743 -0.72144,2.8149 -1.3364,3.905 l -0.4836,0.85714 -1.2533,-0.002 c -0.68932,-0.002 -1.3313,-0.0565 -1.4266,-0.12245 z"
         id="agreeable_abv" />
    </g>
  </g>
</svg>
