<?xml version="1.0" encoding="UTF-8" standalone="no"?>
<svg
   xmlns:dc="http://purl.org/dc/elements/1.1/"
   xmlns:cc="http://creativecommons.org/ns#"
   xmlns:rdf="http://www.w3.org/1999/02/22-rdf-syntax-ns#"
   xmlns:svg="http://www.w3.org/2000/svg"
   xmlns="http://www.w3.org/2000/svg"
   id="svg2663"
   viewBox="0 0 20.004072 27.75555"
   version="1.1"
   height="27.75555"
   width="20.004072">
  <defs
     id="defs2667" />
  <metadata
     id="metadata2">
    <rdf:RDF>
      <cc:Work
         rdf:about="">
        <dc:format>image/svg+xml</dc:format>
        <dc:type
           rdf:resource="http://purl.org/dc/dcmitype/StillImage" />
        <dc:title />
      </cc:Work>
    </rdf:RDF>
  </metadata>
  <g
     transform="translate(-607.34996,-632.15877)"
     id="g2661">
    <g
       style="stroke-width:0.16327"
       id="g2557">
      <path
         d="m 607.35,638.93 c 0,-0.27093 0.25117,-0.66364 0.73199,-1.1444 0.40258,-0.4026 0.78124,-0.93331 0.84147,-1.1794 0.0602,-0.24608 0.18339,-0.49574 0.27374,-0.55483 0.0903,-0.0591 0.19796,-0.51383 0.23915,-1.0106 0.0603,-0.72712 0.006,-1.0141 -0.27709,-1.4727 -0.38287,-0.61949 -0.33014,-1.4093 0.0941,-1.4093 0.73433,0 1.3566,0.65833 1.7552,1.8568 0.0845,0.25423 -0.12501,1.4116 -0.49879,2.7547 -0.0436,0.15675 -0.40506,0.66665 -0.80322,1.1331 -0.39815,0.46645 -0.72391,0.93575 -0.72391,1.0429 0,0.21964 -0.5137,0.39059 -1.1837,0.39391 -0.3719,0.002 -0.44898,-0.0686 -0.44898,-0.41022 z m 5.8857,6.3675 c 0.26491,-0.13699 0.48168,-0.30305 0.48168,-0.36901 0,-0.066 0.18807,-0.32274 0.41791,-0.57061 0.22984,-0.24789 0.5322,-0.72425 0.6719,-1.0586 0.13969,-0.33434 0.53938,-1.1858 0.88821,-1.8922 0.47447,-0.96085 0.63422,-1.4849 0.63422,-2.0804 0,-0.76501 -0.0239,-0.80618 -0.61224,-1.0551 -0.33673,-0.14246 -0.83494,-0.22414 -1.1071,-0.18152 -0.64105,0.1004 -2.3401,1.2356 -2.8091,1.877 -1.1664,1.5949 -1.588,4.0692 -0.83084,4.8752 0.19525,0.20783 0.52152,0.37787 0.72506,0.37787 0.20354,0 0.41548,0.0735 0.47097,0.16327 0.14338,0.23198 0.51197,0.2024 1.0693,-0.0858 z m -0.65865,11.653 c 0.3578,-0.73216 0.65053,-1.4522 0.65053,-1.6 0,-0.1478 0.0864,-0.35522 0.19204,-0.46083 0.10563,-0.10564 0.24362,-0.54278 0.30666,-0.97143 0.3616,-2.459 0.4999,-3.2037 0.64543,-3.4756 0.2234,-0.41744 0.20293,-0.81383 -0.0421,-0.81458 -0.39866,-0.002 -1.7849,1.7346 -2.4204,3.0307 -0.73858,1.5064 -1.1689,3.5371 -1.0186,4.8064 0.091,0.7682 0.12451,0.81654 0.56629,0.81654 0.4257,0 0.5304,-0.12444 1.1201,-1.3312 z m -2.0852,2.7598 c -0.78895,-0.98477 -1.1739,-2.8947 -0.86377,-4.2857 0.25371,-1.138 0.96934,-3.3375 1.1601,-3.5655 0.53778,-0.64294 1.2966,-1.7461 1.2966,-1.885 0,-0.0902 0.36731,-0.48033 0.81624,-0.86694 0.44893,-0.38662 0.81628,-0.77364 0.81633,-0.86002 5e-5,-0.0864 0.28658,-0.45375 0.63673,-0.81633 0.71659,-0.74202 1.0485,-1.7205 0.58356,-1.7205 -0.15131,0 -0.48034,0.17269 -0.73117,0.38374 -0.69694,0.58645 -2.0123,0.68803 -3.1225,0.24116 -1.2707,-0.51148 -1.7266,-0.99427 -1.9485,-2.0634 -0.26312,-1.2674 0.1144,-2.5871 1.1868,-4.1488 1.0108,-1.472 1.6585,-2.0778 2.8637,-2.6788 0.768,-0.38297 1.1502,-0.46855 2.0927,-0.46855 1.1216,0 1.1762,0.0194 2,0.70907 0.63409,0.53089 0.84606,0.81809 0.84349,1.1429 -0.003,0.40851 -0.58821,2.5578 -0.94031,3.4548 -0.2448,0.62364 -0.31644,2.6523 -0.0963,2.7267 0.23479,0.0793 2.117,-1.4241 2.5727,-2.055 0.1897,-0.26263 0.69389,-0.92623 1.1204,-1.4747 0.42654,-0.54846 0.77551,-1.054 0.77551,-1.1233 0,-0.0694 0.25899,-0.52774 0.57553,-1.0186 0.31654,-0.49086 0.69731,-1.2782 0.84614,-1.7496 0.23621,-0.74818 0.32521,-0.85714 0.70005,-0.85714 0.26971,0 0.60779,0.18965 0.90896,0.50991 0.56139,0.59695 1.3282,0.95948 2.0293,0.95948 0.38573,0 0.53532,0.0953 0.65858,0.41949 0.16843,0.443 0.0656,1.1493 -0.2199,1.5107 -0.0938,0.11876 -0.20095,1.1208 -0.23807,2.2267 -0.0566,1.6855 -0.0232,2.0785 0.20662,2.4291 0.34146,0.52113 0.19605,1.053 -0.32349,1.1834 -0.58469,0.14674 -0.98473,-0.0476 -1.2972,-0.63004 -0.32114,-0.59868 -0.28622,-2.4226 0.0845,-4.4117 0.2613,-1.4022 0.0846,-1.649 -1.1881,-1.6595 -0.84418,-0.007 -0.85347,-0.002 -1.1052,0.64602 -0.50103,1.289 -2.7676,4.0182 -4.6978,5.6567 -2.2417,1.9029 -2.231,1.8885 -2.463,3.3229 -0.11618,0.71837 -0.31693,1.762 -0.4461,2.3193 -0.12918,0.55722 -0.23488,1.2332 -0.23488,1.5022 0,0.74867 -0.40279,2.1318 -1.0485,3.6004 -0.32129,0.73074 -0.58416,1.4204 -0.58416,1.5325 0,0.11213 -0.44395,0.62286 -0.98655,1.1349 -0.79389,0.74924 -1.0929,0.93107 -1.531,0.93107 -0.29947,0 -0.61806,-0.0918 -0.70797,-0.20408 z"
         id="agree_abv" />
    </g>
  </g>
</svg>
