<svg xmlns="http://www.w3.org/2000/svg" height="25.579" width="24.266"><path d="M22.284 2.648c-.256-.665-.11-1.208.395-1.469.597-.308 1.05-.195 1.41.353.248.38.244.432-.062.845-.401.538-1.571.72-1.743.271zM.414 7.524C.175 7.286.328 6.57.77 5.85c.256-.416.506-.975.556-1.243.05-.267.144-.765.21-1.106.147-.76-.085-1.279-.938-2.095C-.101.736-.178.38.32.114.846-.167 1.402.063 2.211.895l.739.76v1.32c0 1.958-.255 2.701-1.447 4.216-.327.417-.847.575-1.089.333zm6.885 3.701c.75-.543 1.812-1.893 1.818-2.31.002-.149.187-.663.41-1.144.526-1.13.514-1.407-.092-2.142-.4-.486-.614-.608-1.06-.608-.725 0-2.026.921-2.714 1.922-.28.407-.643.874-.807 1.038-.36.36-.703 1.15-.859 1.98-.096.515-.045.704.32 1.184.409.534.494.57 1.372.57.78 0 1.048-.081 1.61-.49zm-1.21 12.62c.596-.643 1.289-2.63 1.896-5.436.106-.494.296-1.242.42-1.663.304-1.027.287-1.275-.088-1.275-.41 0-.802.401-.93.95-.056.241-.313.775-.571 1.187-.259.412-.47.807-.47.878 0 .071-.206.542-.458 1.047-.252.505-.554 1.25-.67 1.653a17.07 17.07 0 01-.359 1.11c-.241.62-.166 1.32.18 1.666.428.428.56.413 1.05-.115zm-1.613 1.487c-.617-.616-.788-1.234-.695-2.507.049-.678.213-1.637.364-2.13.286-.932 1.256-3.005 2.103-4.49.154-.27.427-.807.608-1.194.441-.944 1.148-1.969 1.761-2.552.277-.263.504-.539.504-.612 0-.244-.384-.136-.755.213-.403.378-2.281.96-3.098.96-.565 0-1.891-.53-2.137-.855-.791-1.042-.483-3.3.617-4.528.351-.392.64-.792.64-.889 0-.097.386-.59.857-1.097 1.08-1.16 2.764-2.027 3.661-1.882.73.118 1.848.874 1.848 1.248 0 .153.188.492.419.753.447.507.444.44.128 3.21-.084.738-.07.775.312.775.458 0 1.859-1.381 2.327-2.295.158-.31.532-.836.832-1.17.3-.335.595-.812.656-1.061.174-.714 1.015-1.841 1.375-1.841.175 0 .667.25 1.094.555.426.306 1.087.639 1.467.74.38.102.766.326.858.497.293.548-.288 3.532-.81 4.161-.084.102-.203.494-.263.87-.107.669-.095.692.471.93.703.293.828.47.698.99-.09.355-.187.399-.873.39-.658-.007-.83-.08-1.161-.5-.578-.73-.62-1.662-.142-3.097.222-.665.453-1.544.513-1.95.1-.683.072-.77-.348-1.08-.926-.685-1.127-.655-2.01.295-.444.478-.808.93-.808 1.004 0 .266-.929 1.35-2.776 3.238-1.982 2.027-2.27 2.517-2.639 4.467a155.77 155.77 0 01-.498 2.449c-.189.898-.374 1.853-.411 2.122-.037.27-.163.71-.28.98-.116.269-.334.875-.483 1.346-.15.47-.482 1.323-.739 1.895-.393.875-.587 1.107-1.239 1.47-.878.491-1.568.552-1.948.172z" stroke-width=".163"/></svg>