<?xml version="1.0" encoding="UTF-8" standalone="no"?>
<svg
   xmlns:dc="http://purl.org/dc/elements/1.1/"
   xmlns:cc="http://creativecommons.org/ns#"
   xmlns:rdf="http://www.w3.org/1999/02/22-rdf-syntax-ns#"
   xmlns:svg="http://www.w3.org/2000/svg"
   xmlns="http://www.w3.org/2000/svg"
   id="svg2663"
   viewBox="0 0 24.267322 25.578781"
   version="1.1"
   height="25.578781"
   width="24.267323">
  <defs
     id="defs2667" />
  <metadata
     id="metadata2">
    <rdf:RDF>
      <cc:Work
         rdf:about="">
        <dc:format>image/svg+xml</dc:format>
        <dc:type
           rdf:resource="http://purl.org/dc/dcmitype/StillImage" />
        <dc:title />
      </cc:Work>
    </rdf:RDF>
  </metadata>
  <g
     transform="translate(-607.69533,-729.67191)"
     id="g2661">
    <g
       style="stroke-width:0.16327"
       id="g2557">
      <path
         d="m 629.98,732.32 c -0.25515,-0.66488 -0.10889,-1.2077 0.39564,-1.4686 0.59697,-0.30871 1.0499,-0.1954 1.4088,0.35247 0.24884,0.37977 0.24498,0.43264 -0.0615,0.84475 -0.4006,0.53871 -1.5705,0.72087 -1.743,0.2714 z m -21.871,4.8758 c -0.23812,-0.23811 -0.0852,-0.95466 0.35708,-1.6735 0.25628,-0.41648 0.5065,-0.97563 0.55608,-1.2426 0.0496,-0.26692 0.14405,-0.76483 0.20995,-1.1065 0.14679,-0.76119 -0.085,-1.2788 -0.93805,-2.0947 -0.70027,-0.66975 -0.77702,-1.0256 -0.27871,-1.2923 0.52559,-0.28129 1.0818,-0.0516 1.8907,0.78075 l 0.73897,0.76033 v 1.3187 c 0,1.9591 -0.25479,2.7018 -1.4466,4.217 -0.3274,0.41621 -0.84725,0.57499 -1.0895,0.33275 z m 6.8853,3.7012 c 0.75021,-0.54345 1.8119,-1.8927 1.8181,-2.3106 0.002,-0.14823 0.18701,-0.66252 0.41061,-1.1429 0.52606,-1.13 0.51418,-1.407 -0.0919,-2.1423 -0.40105,-0.48653 -0.61387,-0.60862 -1.0608,-0.60862 -0.72387,0 -2.0245,0.92142 -2.7128,1.9218 -0.28029,0.40738 -0.64354,0.87463 -0.80723,1.0383 -0.36042,0.36042 -0.70344,1.1514 -0.85855,1.9796 -0.0965,0.51554 -0.0455,0.70405 0.3203,1.1837 0.40792,0.5348 0.4936,0.57046 1.3708,0.57046 0.78047,0 1.0478,-0.0812 1.6115,-0.48953 z m -1.2103,12.62 c 0.59637,-0.64318 1.2894,-2.6307 1.8956,-5.4361 0.10673,-0.49388 0.29597,-1.2424 0.42054,-1.6633 0.30385,-1.0267 0.28663,-1.2754 -0.0884,-1.2754 -0.40957,0 -0.80147,0.40074 -0.92926,0.95019 -0.056,0.24067 -0.3132,0.77461 -0.57167,1.1866 -0.25845,0.41195 -0.46991,0.80694 -0.46991,0.87776 0,0.0708 -0.20604,0.54196 -0.45786,1.0469 -0.25184,0.50498 -0.55336,1.2488 -0.67007,1.6528 -0.11671,0.404 -0.27801,0.90346 -0.35845,1.1097 -0.24182,0.61998 -0.16613,1.3194 0.18026,1.6658 0.42738,0.42738 0.55977,0.41288 1.0492,-0.11489 z m -1.6127,1.4872 c -0.61639,-0.61639 -0.78765,-1.2342 -0.69495,-2.507 0.0494,-0.67796 0.21358,-1.6367 0.36488,-2.1306 0.28532,-0.93134 1.2563,-3.004 2.1033,-4.4898 0.15358,-0.26939 0.42704,-0.80614 0.60769,-1.1928 0.44121,-0.94429 1.1478,-1.9685 1.7607,-2.5521 0.27698,-0.26373 0.50361,-0.53924 0.50361,-0.61224 0,-0.24434 -0.38343,-0.13618 -0.75512,0.213 -0.40235,0.37799 -2.2812,0.9604 -3.0981,0.9604 -0.56509,0 -1.8912,-0.53059 -2.1374,-0.85525 -0.79058,-1.0422 -0.48276,-3.3006 0.61717,-4.5281 0.35134,-0.39207 0.63938,-0.79223 0.64012,-0.88924 0,-0.097 0.38643,-0.59058 0.85714,-1.0968 1.0798,-1.1613 2.7643,-2.0274 3.6605,-1.882 0.72952,0.11839 1.8484,0.87393 1.8484,1.2482 0,0.1534 0.18835,0.49239 0.41853,0.75331 0.4473,0.50698 0.44459,0.43931 0.12831,3.2091 -0.0843,0.73835 -0.0694,0.77551 0.31168,0.77551 0.45887,0 1.8594,-1.3814 2.327,-2.2952 0.15816,-0.30907 0.53282,-0.83562 0.83259,-1.1701 0.29977,-0.33446 0.59476,-0.81201 0.65553,-1.0612 0.17417,-0.71424 1.0155,-1.8408 1.3746,-1.8408 0.17507,0 0.66746,0.24998 1.0942,0.55549 0.42674,0.30554 1.0869,0.63865 1.467,0.74025 0.3801,0.1016 0.76616,0.32498 0.85788,0.49637 0.29311,0.54769 -0.28735,3.5322 -0.80931,4.1611 -0.0847,0.10201 -0.20324,0.4939 -0.26352,0.87088 -0.10684,0.66813 -0.0949,0.69154 0.47148,0.92819 0.70318,0.29381 0.82791,0.47122 0.69729,0.99171 -0.089,0.35448 -0.18611,0.39788 -0.87253,0.38986 -0.65843,-0.008 -0.82973,-0.0815 -1.161,-0.50047 -0.57808,-0.73106 -0.62072,-1.6622 -0.14185,-3.0966 0.22221,-0.6656 0.45301,-1.5437 0.51292,-1.9514 0.10014,-0.68168 0.0722,-0.76836 -0.34812,-1.0791 -0.92654,-0.68505 -1.1275,-0.65558 -2.0104,0.29476 -0.4442,0.47813 -0.80764,0.93004 -0.80764,1.0042 0,0.26612 -0.92916,1.3502 -2.7755,3.2383 -1.9817,2.0265 -2.2712,2.5165 -2.6389,4.4666 -0.0846,0.44898 -0.30877,1.551 -0.49807,2.449 -0.18929,0.89796 -0.3745,1.8531 -0.41158,2.1224 -0.0371,0.26939 -0.16268,0.71021 -0.27912,0.97959 -0.11645,0.26939 -0.33427,0.87496 -0.48405,1.3457 -0.14978,0.47074 -0.48204,1.3234 -0.73835,1.8946 -0.39286,0.87561 -0.58739,1.1066 -1.2388,1.4706 -0.87827,0.49087 -1.5682,0.5516 -1.9482,0.17152 z"
         id="agriculture_abv" />
    </g>
  </g>
</svg>
