<svg xmlns="http://www.w3.org/2000/svg" height="25.579" width="24.267"><path d="M22.285 2.648c-.255-.665-.11-1.208.395-1.469.597-.308 1.05-.195 1.41.353.248.38.244.433-.062.845-.401.538-1.57.72-1.743.271zM.414 7.524C.176 7.286.328 6.569.77 5.85c.256-.416.506-.975.556-1.242.05-.267.144-.765.21-1.107.147-.76-.085-1.279-.938-2.094C-.101.737-.178.38.32.114.846-.167 1.402.063 2.21.895l.74.76v1.32c0 1.958-.255 2.7-1.447 4.216-.327.416-.847.575-1.09.333zm6.885 3.701c.75-.543 1.812-1.893 1.818-2.31.002-.149.187-.663.41-1.143.527-1.13.515-1.407-.091-2.143-.401-.486-.614-.608-1.061-.608-.724 0-2.025.921-2.713 1.921-.28.408-.643.875-.807 1.039-.36.36-.703 1.151-.859 1.98-.096.515-.045.703.32 1.183.409.535.494.57 1.372.57.78 0 1.047-.08 1.611-.489zm-1.21 12.62c.596-.643 1.29-2.63 1.895-5.436.107-.494.296-1.242.42-1.663.305-1.027.287-1.276-.088-1.276-.41 0-.801.401-.929.95-.056.241-.313.775-.572 1.187-.258.412-.47.807-.47.878 0 .07-.205.542-.457 1.047-.252.505-.554 1.249-.67 1.653-.117.404-.278.903-.359 1.11-.242.62-.166 1.319.18 1.665.428.427.56.413 1.05-.115zm-1.613 1.487c-.616-.616-.788-1.234-.695-2.507.05-.678.214-1.636.365-2.13.285-.932 1.256-3.004 2.103-4.49.154-.27.427-.806.608-1.193.441-.944 1.148-1.968 1.76-2.552.278-.264.504-.54.504-.612 0-.245-.383-.136-.755.213-.402.378-2.281.96-3.098.96-.565 0-1.891-.53-2.137-.855-.791-1.042-.483-3.3.617-4.528.351-.392.64-.792.64-.89 0-.096.386-.59.857-1.096 1.08-1.162 2.764-2.028 3.66-1.882.73.118 1.849.874 1.849 1.248 0 .153.188.492.418.753.448.507.445.44.129 3.21-.085.738-.07.775.311.775.46 0 1.86-1.382 2.327-2.295.159-.31.533-.836.833-1.17.3-.335.595-.812.656-1.062.174-.714 1.015-1.84 1.374-1.84.175 0 .668.25 1.094.555.427.306 1.087.639 1.467.74.38.102.767.325.858.497.293.547-.287 3.532-.81 4.16-.084.103-.202.495-.263.872-.106.668-.094.691.472.928.703.294.828.471.697.992-.089.354-.186.397-.872.39-.659-.009-.83-.082-1.161-.501-.578-.731-.621-1.662-.142-3.097.222-.665.453-1.543.513-1.951.1-.682.072-.768-.348-1.08-.927-.684-1.128-.655-2.01.296-.445.478-.808.93-.808 1.004 0 .266-.93 1.35-2.776 3.238-1.982 2.027-2.271 2.517-2.639 4.467-.084.449-.309 1.55-.498 2.449-.19.898-.374 1.853-.411 2.122-.038.27-.163.71-.28.98-.116.27-.334.875-.484 1.345-.15.471-.482 1.324-.738 1.895-.393.876-.587 1.107-1.239 1.47-.878.491-1.568.552-1.948.172z" stroke-width=".163"/></svg>