<?xml version="1.0" encoding="UTF-8" standalone="no"?>
<svg
   xmlns:dc="http://purl.org/dc/elements/1.1/"
   xmlns:cc="http://creativecommons.org/ns#"
   xmlns:rdf="http://www.w3.org/1999/02/22-rdf-syntax-ns#"
   xmlns:svg="http://www.w3.org/2000/svg"
   xmlns="http://www.w3.org/2000/svg"
   id="svg2663"
   viewBox="0 0 19.271114 15.672235"
   version="1.1"
   height="15.672235"
   width="19.271114">
  <defs
     id="defs2667" />
  <metadata
     id="metadata2">
    <rdf:RDF>
      <cc:Work
         rdf:about="">
        <dc:format>image/svg+xml</dc:format>
        <dc:type
           rdf:resource="http://purl.org/dc/dcmitype/StillImage" />
        <dc:title />
      </cc:Work>
    </rdf:RDF>
  </metadata>
  <g
     transform="translate(-607.74204,-751.5945)"
     id="g2661">
    <g
       style="stroke-width:0.16327"
       id="g2557">
      <path
         d="m 607.95,759.98 c -0.37483,-0.21811 -0.26178,-0.61403 0.49322,-1.7274 0.53852,-0.79417 0.57535,-0.93254 0.59501,-2.2353 0.0205,-1.3575 0.009,-1.401 -0.50965,-1.9367 -0.56296,-0.58142 -0.65357,-0.91564 -0.3347,-1.2345 0.36193,-0.36193 0.76072,-0.20087 1.591,0.64256 l 0.82537,0.8385 -0.002,1.4064 c -0.002,0.81663 -0.087,1.5512 -0.20408,1.7516 -0.11092,0.18986 -0.36268,0.63068 -0.55943,0.97959 -0.37073,0.65739 -1.2873,1.6993 -1.4873,1.6906 -0.0628,-0.003 -0.24595,-0.0817 -0.40703,-0.17538 z m 12.435,5.2424 c 1.486,-1.1746 2.9544,-3.5157 2.9578,-4.7159 l 0.002,-0.55168 -1.5102,0.11354 c -2.2885,0.17205 -2.8368,0.51105 -4.2414,2.6225 -0.24635,0.37031 -0.48032,1.0065 -0.5404,1.4694 -0.0894,0.68867 -0.0506,0.88653 0.24773,1.2653 0.31362,0.39814 0.46162,0.44898 1.3068,0.44898 0.86516,0 1.0292,-0.0602 1.7781,-0.65212 z m -2.8922,1.9573 c -0.67034,-0.15633 -1.5943,-1.0241 -1.8207,-1.7099 -0.23884,-0.72366 0.0244,-1.9033 0.72284,-3.2398 0.88117,-1.6861 0.91701,-1.6451 -1.3362,-1.5304 -1.0551,0.0537 -2.2029,0.18065 -2.5507,0.28214 -0.69514,0.20284 -2.464,0.2977 -2.6224,0.14062 -0.0549,-0.0545 -0.06,-0.203 -0.0113,-0.33004 0.2872,-0.74846 2.1582,-1.1711 6.4497,-1.4568 1.5714,-0.10464 3.151,-0.25999 3.5102,-0.34523 1.9326,-0.45858 2.9591,-0.60574 3.6064,-0.51703 0.7026,0.0963 0.72377,0.0856 0.96235,-0.48538 0.13419,-0.32115 0.35709,-1.2869 0.49536,-2.1462 0.13827,-0.85926 0.32276,-1.75 0.41,-1.9794 0.0872,-0.22944 0.15859,-0.59969 0.15859,-0.82279 0,-0.86629 0.66565,-1.6123 1.2601,-1.4122 0.4626,0.15569 0.35501,2.0615 -0.25587,4.533 -0.0888,0.35918 -0.25311,1.0939 -0.36519,1.6326 -0.11208,0.53878 -0.4472,1.7192 -0.7447,2.6232 -0.34603,1.0514 -0.57959,2.1465 -0.64821,3.0393 l -0.10728,1.3956 0.51219,0.53597 c 0.28172,0.29478 0.5122,0.6706 0.5122,0.83517 0,0.33214 -0.6099,0.55714 -1.0903,0.40222 -0.53843,-0.17365 -1.3587,-1.0749 -1.3587,-1.4928 0,-0.58921 -0.36776,-0.4986 -1.2859,0.31686 -0.44386,0.3942 -1.0341,0.85086 -1.3116,1.0148 -0.2775,0.16392 -0.50455,0.35117 -0.50455,0.4161 0,0.0649 -0.34898,0.16549 -0.77551,0.22343 -0.42653,0.0579 -0.88572,0.12761 -1.0204,0.15479 -0.1347,0.0272 -0.49039,-0.008 -0.79043,-0.0778 z"
         id="ahead" />
    </g>
  </g>
</svg>
