<svg xmlns="http://www.w3.org/2000/svg" height="15.672" width="19.271"><path d="M.208 8.385c-.375-.218-.262-.614.493-1.727.539-.794.576-.932.595-2.235.02-1.358.01-1.401-.51-1.937C.225 1.905.134 1.57.453 1.252c.362-.362.76-.201 1.59.642l.826.839-.002 1.406c-.002.817-.087 1.551-.204 1.752-.11.19-.363.63-.56.98C1.733 7.527.816 8.57.616 8.56.553 8.558.37 8.479.208 8.385zm12.435 5.243c1.486-1.175 2.954-3.516 2.958-4.716l.002-.552-1.51.114c-2.289.172-2.837.51-4.242 2.622-.246.37-.48 1.007-.54 1.47-.09.688-.05.886.247 1.265.314.398.462.449 1.307.449.865 0 1.03-.06 1.778-.652zm-2.892 1.957c-.67-.156-1.595-1.024-1.82-1.71-.24-.723.023-1.903.722-3.24.881-1.686.917-1.645-1.336-1.53-1.055.054-2.203.18-2.551.282-.695.203-2.464.298-2.622.14-.055-.054-.06-.202-.012-.33.288-.748 2.159-1.17 6.45-1.456 1.571-.105 3.151-.26 3.51-.345 1.933-.459 2.96-.606 3.607-.517.702.096.723.085.962-.486.134-.32.357-1.287.495-2.146.139-.86.323-1.75.41-1.98.088-.229.159-.599.159-.822 0-.866.666-1.612 1.26-1.412.463.155.355 2.061-.256 4.533a56.28 56.28 0 00-.365 1.632c-.112.54-.447 1.72-.745 2.624-.346 1.051-.58 2.146-.648 3.039l-.107 1.395.512.536c.282.295.512.671.512.836 0 .332-.61.557-1.09.402-.539-.174-1.359-1.075-1.359-1.493 0-.59-.368-.499-1.286.317-.444.394-1.034.85-1.311 1.015-.278.164-.505.35-.505.416 0 .065-.349.165-.775.223-.427.058-.886.128-1.02.155-.136.027-.491-.008-.791-.078z"/></svg>