<svg xmlns="http://www.w3.org/2000/svg" height="16.558" width="12.577"><path d="M.013 9.924c-.07-.454.133-.868.739-1.51a4.51 4.51 0 00.996-1.662c.272-.832.28-.999.074-1.622-.127-.382-.405-.903-.618-1.157-.847-1.006.332-1.353 1.347-.397l.583.55v1.562c0 1.86-.08 2.109-1.004 3.094-.39.417-.805.872-.92 1.011-.213.256-1.162.36-1.197.131zm5.57 5.347c0-.09.147-.163.326-.163.18 0 .327-.075.327-.166 0-.091.246-.283.547-.427.301-.143.681-.491.845-.773.164-.281.346-.548.405-.593.059-.045.377-.624.706-1.287.743-1.496.827-2.638.223-3.033-.486-.319-1.303-.48-1.8-.355-.215.054-.69.388-1.054.742-.365.353-.815.724-1 .823-.186.1-.386.38-.446.625-.06.244-.326.696-.594 1.004-.674.777-.934 1.482-.934 2.537v.903l.53.03c.292.018.727.036.966.041.239.006.49.066.558.133.175.174.395.152.395-.04zM2.97 16.364c-.434-.148-.663-.378-.95-.956-.517-1.043-.406-1.44 1.362-4.852.157-.303.413-.585.57-.626.156-.04.382-.27.503-.51.381-.757 1.794-1.919 2.624-2.156.53-.153 1.486.003 2.196.357.19.095.477.147.638.115.347-.067.7-.955.718-1.802.007-.331.086-.648.175-.703.092-.057.164-.838.164-1.783 0-2.275.136-3.171.513-3.373.418-.224.924.073 1.062.624.143.57-.245 4.64-.533 5.593-.123.404-.223.992-.224 1.307a4.61 4.61 0 01-.184 1.143c-.275.86-.47 2.19-.576 3.94-.088 1.455-.067 1.61.271 2.068.466.63.349 1.338-.221 1.338-.401 0-1.414-.8-1.414-1.117 0-.104-.074-.19-.164-.19-.09 0-.163-.11-.163-.244 0-.444-.403-.257-1.323.612-.664.627-1.157.933-1.84 1.143-1.065.326-2.372.356-3.204.072z"/></svg>