<?xml version="1.0" encoding="UTF-8" standalone="no"?>
<svg
   xmlns:dc="http://purl.org/dc/elements/1.1/"
   xmlns:cc="http://creativecommons.org/ns#"
   xmlns:rdf="http://www.w3.org/1999/02/22-rdf-syntax-ns#"
   xmlns:svg="http://www.w3.org/2000/svg"
   xmlns="http://www.w3.org/2000/svg"
   id="svg2663"
   viewBox="0 0 12.576969 16.558348"
   version="1.1"
   height="16.558348"
   width="12.576969">
  <defs
     id="defs2667" />
  <metadata
     id="metadata2">
    <rdf:RDF>
      <cc:Work
         rdf:about="">
        <dc:format>image/svg+xml</dc:format>
        <dc:type
           rdf:resource="http://purl.org/dc/dcmitype/StillImage" />
        <dc:title />
      </cc:Work>
    </rdf:RDF>
  </metadata>
  <g
     transform="translate(-607.47688,-773.29551)"
     id="g2661">
    <g
       style="stroke-width:0.16327"
       id="g2557">
      <path
         d="m 607.49,783.22 c -0.0697,-0.45424 0.13293,-0.86846 0.73889,-1.5102 0.44818,-0.47464 0.80085,-1.0629 0.99633,-1.662 0.27146,-0.83185 0.27898,-0.99885 0.0732,-1.6223 -0.12615,-0.38227 -0.4042,-0.9028 -0.61788,-1.1567 -0.84671,-1.0062 0.33271,-1.3536 1.3472,-0.3968 l 0.58305,0.54989 v 1.5619 c 0,1.8597 -0.0808,2.1085 -1.0044,3.0941 -0.39043,0.4166 -0.8046,0.87158 -0.92039,1.011 -0.21189,0.2552 -1.161,0.35925 -1.196,0.13112 z m 5.5698,5.3469 c 0,-0.0898 0.14694,-0.16326 0.32653,-0.16326 0.17959,0 0.32653,-0.0747 0.32653,-0.16591 0,-0.0912 0.24629,-0.28335 0.5473,-0.42689 0.30099,-0.14354 0.68117,-0.49133 0.84483,-0.77287 0.16366,-0.28153 0.3458,-0.54862 0.40474,-0.59351 0.0589,-0.0449 0.37671,-0.62417 0.70617,-1.2872 0.74294,-1.4953 0.82695,-2.6375 0.22311,-3.0332 -0.48569,-0.31823 -1.3028,-0.47911 -1.8,-0.35435 -0.21557,0.0541 -0.69007,0.38771 -1.0545,0.74133 -0.36438,0.35361 -0.81434,0.72419 -0.99989,0.82351 -0.18556,0.0993 -0.38604,0.38047 -0.4455,0.62483 -0.0595,0.24434 -0.32668,0.69606 -0.59378,1.0038 -0.67481,0.77748 -0.93461,1.4828 -0.93461,2.5372 v 0.9032 l 0.53061,0.0306 c 0.29184,0.0169 0.72629,0.0352 0.96544,0.0408 0.23913,0.006 0.49015,0.0653 0.55781,0.13265 0.17502,0.17424 0.39512,0.15149 0.39512,-0.0408 z m -2.6122,1.0928 c -0.43391,-0.14799 -0.6623,-0.37798 -0.94902,-0.95571 -0.51775,-1.0432 -0.40629,-1.4405 1.3612,-4.8522 0.15723,-0.30348 0.41359,-0.58517 0.56965,-0.62599 0.15608,-0.0408 0.38248,-0.27007 0.50309,-0.50944 0.38186,-0.75781 1.7948,-1.9196 2.6239,-2.1573 0.53115,-0.15233 1.4862,0.003 2.1962,0.35726 0.19024,0.0949 0.4776,0.14694 0.6386,0.11562 0.34638,-0.0673 0.69992,-0.95562 0.71737,-1.8024 0.007,-0.33143 0.0859,-0.64802 0.17569,-0.70351 0.0918,-0.0567 0.16326,-0.83763 0.16326,-1.7828 0,-2.2751 0.13623,-3.1709 0.5129,-3.3725 0.41888,-0.22418 0.92444,0.0728 1.0629,0.62421 0.14274,0.56876 -0.24583,4.639 -0.53389,5.5922 -0.12209,0.40408 -0.2228,0.99233 -0.22378,1.3072 -0.002,0.31488 -0.0838,0.82916 -0.18414,1.1429 -0.27509,0.86024 -0.46937,2.191 -0.57522,3.94 -0.0881,1.455 -0.0676,1.6111 0.27053,2.0685 0.46567,0.62983 0.34857,1.3373 -0.22132,1.3373 -0.40069,0 -1.4141,-0.80019 -1.4141,-1.1166 0,-0.10423 -0.0735,-0.18952 -0.16326,-0.18952 -0.0898,0 -0.16327,-0.11021 -0.16327,-0.2449 0,-0.44362 -0.40349,-0.25696 -1.3234,0.61225 -0.66394,0.62733 -1.157,0.93374 -1.8391,1.1428 -1.0659,0.32676 -2.3724,0.35628 -3.2048,0.0724 z"
         id="aid" />
    </g>
  </g>
</svg>
