<svg xmlns="http://www.w3.org/2000/svg" height="9.499" width="27.387"><path d="M0 6.387c0-.222.135-.644.3-.939.166-.294.386-1.103.489-1.796.2-1.342.103-1.816-.502-2.484C-.065.78-.081.367.247.096c.201-.168.36-.128.893.224 1.071.71 1.201 1.032 1.11 2.76-.084 1.607-.369 2.405-1.164 3.261C.547 6.921 0 6.944 0 6.387zM1.592 9.46c-.305-.087-.371-.487-.141-.85.15-.238 1.874-.41 6.875-.684 1.572-.086 3.666-.233 4.654-.327a126.24 126.24 0 014.734-.306c1.617-.075 3.38-.22 3.919-.321.538-.102 1.972-.231 3.185-.288 1.86-.088 2.237-.065 2.41.144.529.636-.303 1.104-1.97 1.108a50.16 50.16 0 00-3.054.153c-1.033.083-3.2.195-4.816.249-1.616.054-3.16.162-3.429.24-.79.23-2.03.344-6.53.596-2.335.131-4.54.267-4.898.303-.36.035-.782.028-.94-.017z"/></svg>