<?xml version="1.0" encoding="UTF-8" standalone="no"?>
<svg
   xmlns:dc="http://purl.org/dc/elements/1.1/"
   xmlns:cc="http://creativecommons.org/ns#"
   xmlns:rdf="http://www.w3.org/1999/02/22-rdf-syntax-ns#"
   xmlns:svg="http://www.w3.org/2000/svg"
   xmlns="http://www.w3.org/2000/svg"
   id="svg2663"
   viewBox="0 0 27.386539 9.4990644"
   version="1.1"
   height="9.4990644"
   width="27.386539">
  <defs
     id="defs2667" />
  <metadata
     id="metadata2">
    <rdf:RDF>
      <cc:Work
         rdf:about="">
        <dc:format>image/svg+xml</dc:format>
        <dc:type
           rdf:resource="http://purl.org/dc/dcmitype/StillImage" />
        <dc:title />
      </cc:Work>
    </rdf:RDF>
  </metadata>
  <g
     transform="translate(-608.33,-801.86289)"
     id="g2661">
    <g
       style="stroke-width:0.16327"
       id="g2557">
      <path
         d="m 608.33,808.25 c 0,-0.22177 0.13532,-0.64421 0.30071,-0.93878 0.16538,-0.29456 0.38507,-1.1031 0.48818,-1.7967 0.19942,-1.3414 0.10354,-1.8159 -0.502,-2.4839 -0.35191,-0.38823 -0.36764,-0.80098 -0.0408,-1.0722 0.20209,-0.16772 0.36179,-0.12759 0.89399,0.22461 1.0714,0.70899 1.2014,1.0322 1.1106,2.7608 -0.0844,1.6064 -0.36943,2.4044 -1.1648,3.2604 -0.53876,0.57985 -1.0858,0.60292 -1.0858,0.0458 z m 1.5918,3.0728 c -0.30446,-0.0866 -0.3709,-0.48647 -0.14111,-0.84908 0.15122,-0.23861 1.8742,-0.41024 6.8758,-0.6849 1.5714,-0.0863 3.6653,-0.23329 4.6531,-0.32668 0.98775,-0.0934 3.1184,-0.23118 4.7347,-0.30625 1.6163,-0.0751 3.3796,-0.21957 3.9184,-0.32113 0.53877,-0.10155 1.972,-0.23129 3.1849,-0.28832 1.8603,-0.0875 2.2375,-0.0649 2.411,0.1441 0.52831,0.63657 -0.30385,1.1044 -1.9709,1.1081 -0.64679,0.002 -2.0209,0.0705 -3.0535,0.15351 -1.0327,0.083 -3.2,0.19487 -4.8163,0.24858 -1.6163,0.0537 -3.1592,0.16195 -3.4286,0.24049 -0.78965,0.23024 -2.0303,0.34343 -6.5306,0.59581 -2.3347,0.13094 -4.5388,0.26708 -4.898,0.30256 -0.35919,0.0355 -0.78164,0.0279 -0.93878,-0.0168 z"
         id="aim" />
    </g>
  </g>
</svg>
