<svg xmlns="http://www.w3.org/2000/svg" height="11.267" width="12.863"><path d="M0 7.111c0-.413.64-1.339 1.058-1.529.228-.104.45-.38.51-.638.06-.25.2-.564.312-.7.3-.361.445-1.671.244-2.2-.096-.252-.401-.656-.678-.898C.99.748.964.674 1.164.353 1.285.16 1.492 0 1.622 0c.402 0 1.488.848 1.763 1.377.326.626.305 2.316-.037 2.97-.134.258-.244.587-.245.73-.002.271-.488.796-.749.807-.082.003-.358.333-.612.734-.418.66-.522.729-1.102.729-.449 0-.64-.07-.64-.236zm2.18 3.905c-.053-.138.113-.55.372-.923.258-.371.652-.988.877-1.371.224-.384.565-.868.757-1.077.192-.21.503-.688.693-1.065.189-.377.522-.864.74-1.082.348-.349.745-1.326.747-1.844 0-.1.154-.375.34-.612.451-.574 1.025-.554 2.216.074.896.473 1.029.497 2.126.395.769-.07 1.291-.044 1.52.08.317.168.34.276.245 1.114-.057.51-.246 1.35-.418 1.867-.405 1.213-.4 2.182.014 2.86.678 1.112.24 1.968-.755 1.476-.904-.447-1.28-2.374-.787-4.032.14-.472.232-1.091.204-1.377-.049-.501-.083-.524-.977-.635-.51-.063-1.198-.228-1.53-.367-.332-.139-.671-.252-.753-.252-.082 0-.289.325-.46.723-.17.398-.46.804-.646.903-.186.1-.338.284-.338.41 0 .127-.367.71-.816 1.295-.449.586-.816 1.165-.816 1.287 0 .123-.184.395-.408.606-.225.211-.409.467-.409.569 0 .101-.194.42-.431.706-.465.56-1.142.701-1.307.272z"/></svg>