<?xml version="1.0" encoding="UTF-8" standalone="no"?>
<svg
   xmlns:dc="http://purl.org/dc/elements/1.1/"
   xmlns:cc="http://creativecommons.org/ns#"
   xmlns:rdf="http://www.w3.org/1999/02/22-rdf-syntax-ns#"
   xmlns:svg="http://www.w3.org/2000/svg"
   xmlns="http://www.w3.org/2000/svg"
   id="svg2663"
   viewBox="0 0 12.862529 11.266932"
   version="1.1"
   height="11.266932"
   width="12.86253">
  <defs
     id="defs2667" />
  <metadata
     id="metadata2">
    <rdf:RDF>
      <cc:Work
         rdf:about="">
        <dc:format>image/svg+xml</dc:format>
        <dc:type
           rdf:resource="http://purl.org/dc/dcmitype/StillImage" />
        <dc:title />
      </cc:Work>
    </rdf:RDF>
  </metadata>
  <g
     transform="translate(-607.34996,-828.07866)"
     id="g2661">
    <g
       style="stroke-width:0.16327"
       id="g2557">
      <path
         d="m 607.35,835.19 c 0,-0.4129 0.64059,-1.339 1.0576,-1.529 0.22847,-0.1041 0.4495,-0.3802 0.5108,-0.63804 0.0594,-0.25 0.19942,-0.56474 0.31107,-0.69943 0.30005,-0.36198 0.44528,-1.6719 0.24404,-2.2012 -0.0958,-0.25206 -0.40062,-0.65593 -0.67731,-0.8975 -0.45654,-0.3986 -0.48265,-0.47192 -0.28232,-0.7927 0.12142,-0.1944 0.32771,-0.35347 0.45842,-0.35347 0.40166,0 1.4878,0.84846 1.7628,1.377 0.32554,0.62573 0.30466,2.3162 -0.0367,2.9707 -0.13444,0.25777 -0.24489,0.58585 -0.24542,0.72906 -0.002,0.27161 -0.48804,0.79646 -0.74856,0.80678 -0.0827,0.003 -0.35822,0.33389 -0.6122,0.73469 -0.41848,0.66043 -0.52179,0.72874 -1.102,0.72874 -0.44899,0 -0.64026,-0.0704 -0.64026,-0.23556 z m 2.1799,3.9047 c -0.0529,-0.13786 0.11329,-0.54978 0.37247,-0.9232 0.25741,-0.37086 0.65167,-0.98795 0.87616,-1.3713 0.22449,-0.38335 0.56518,-0.86792 0.75708,-1.0768 0.19192,-0.20884 0.50372,-0.68821 0.69293,-1.0652 0.18921,-0.37699 0.52206,-0.86356 0.73969,-1.0812 0.34897,-0.34896 0.74559,-1.3265 0.74817,-1.8439 0,-0.10015 0.15319,-0.37566 0.33929,-0.61225 0.45135,-0.57379 1.0251,-0.55469 2.2165,0.0738 0.89585,0.47262 1.0283,0.49724 2.126,0.39547 0.76855,-0.0713 1.2908,-0.0443 1.5205,0.0787 0.31612,0.16917 0.33974,0.2768 0.24471,1.1148 -0.0579,0.51012 -0.24619,1.3502 -0.4185,1.8669 -0.40459,1.2131 -0.3999,2.1819 0.0139,2.8604 0.67776,1.1116 0.2397,1.9675 -0.75525,1.4756 -0.90335,-0.4466 -1.2794,-2.3736 -0.78684,-4.0322 0.13993,-0.47122 0.23177,-1.0907 0.20408,-1.3766 -0.0486,-0.50139 -0.0831,-0.52385 -0.97656,-0.63479 -0.50942,-0.0633 -1.198,-0.22857 -1.5302,-0.36735 -0.33217,-0.13879 -0.67104,-0.25234 -0.75306,-0.25234 -0.082,0 -0.28862,0.32543 -0.45912,0.72321 -0.17052,0.39777 -0.46178,0.80443 -0.64727,0.90369 -0.18548,0.0993 -0.33725,0.28373 -0.33725,0.4099 0,0.12617 -0.36735,0.70867 -0.81633,1.2945 -0.44898,0.58578 -0.81633,1.1651 -0.81633,1.2874 0,0.12231 -0.18367,0.39493 -0.40816,0.60582 -0.22449,0.21089 -0.40816,0.46667 -0.40816,0.56841 0,0.10173 -0.19434,0.41954 -0.43184,0.70623 -0.46407,0.56017 -1.1419,0.70145 -1.3066,0.27233 z"
         id="air" />
    </g>
  </g>
</svg>
