<svg xmlns="http://www.w3.org/2000/svg" height="21.672" width="37.427"><path d="M.184 15.113c-.33-.33-.223-.68.375-1.229.314-.288.571-.569.571-.624 0-.054.294-.51.654-1.01.406-.568.653-1.094.653-1.392 0-.507-.458-1.427-.71-1.427-.236 0-.923-.868-.923-1.166 0-.298.323-.466.894-.466.402 0 1.392.981 1.392 1.38 0 .123.084.253.188.288.103.034.22.464.262.956.1 1.21-.58 2.654-1.858 3.947-.96.972-1.167 1.074-1.498.743zm10.33-5.067c.316-.47.575-.917.575-.991 0-.075.206-.444.456-.819.592-.886.85-1.492 1.02-2.397.075-.404.219-1.073.319-1.487.264-1.098.157-2.822-.181-2.886-.353-.067-1.287.734-1.287 1.104 0 .161-.11.504-.244.76-.134.258-.244.802-.245 1.21 0 .408-.174 1.363-.386 2.123a86.7 86.7 0 00-.686 2.646c-.165.695-.364 1.265-.44 1.265-.078 0-.096.073-.04.163.217.352.587.127 1.138-.692zM.749 21.568c-.333-.334-.016-.766 1.177-1.601.707-.496 1.377-1.012 1.489-1.147.112-.135.304-.246.425-.246.122 0 .35-.202.508-.449a6.65 6.65 0 01.698-.872c.628-.646 1.912-2.456 2.132-3.005.108-.27.26-.637.337-.817.077-.18.217-.683.31-1.118.094-.436.28-1.002.412-1.257.132-.256.24-.648.24-.872 0-.224.065-.447.145-.497.138-.085.393-1.076.844-3.276.36-1.76.78-3.245 1.247-4.4.363-.9.6-1.235 1.138-1.613.516-.363.784-.452 1.113-.37 1.287.323 1.47 4.03.332 6.71-.115.27-.364.95-.555 1.512-.303.893-.645 1.426-1.448 2.254-.112.116-.204.264-.204.33 0 .183-1.008 1.713-1.425 2.164-.204.22-.373.517-.375.662-.002.144-.23.482-.506.751-.88.86-1.028 1.31-1.035 3.125-.005 1.43.039 1.705.321 2.019.76.845 2.177.82 3.091-.053.3-.286.7-.628.89-.76.19-.132.384-.357.429-.5.045-.142.394-.595.775-1.006.751-.812 1.642-2.135 1.825-2.71.062-.198.18-.36.26-.36.08 0 .222-.275.315-.612.24-.866.379-1.029.912-1.068.557-.04.707.344.395 1.008-.266.565-.42.954-.67 1.693-.113.336-.259.612-.324.612-.064 0-.17.238-.233.528a3.26 3.26 0 01-.362.903c-.175.268-.218.606-.15 1.182.127 1.067.358 1.468.849 1.468.464 0 2.45-1.283 2.832-1.83a4.64 4.64 0 01.677-.725 3.28 3.28 0 00.657-.804c.132-.248 1.038-1.247 2.013-2.22 1.816-1.81 1.928-1.874 3.125-1.777.762.062.898.274.898 1.398 0 .942-.476 2.663-.981 3.548-.09.156-.162.5-.162.766 0 .265-.073.528-.163.583-.09.056-.163.427-.163.826 0 .718.006.725.563.725.643 0 1.396-.296 1.396-.549 0-.093.213-.394.474-.668.26-.273.743-1.048 1.072-1.722.328-.673.706-1.408.84-1.632.286-.48.553-1.09.95-2.17.438-1.191.558-1.23 4.01-1.282 1.662-.026 3.115.012 3.23.083.157.097.108.21-.192.446-.48.377-2.151.625-4.264.632l-1.472.005-.287.612a36.208 36.208 0 01-.773 1.507c-.268.492-.486 1.007-.486 1.144 0 .355-1.615 2.455-2.466 3.205-.395.349-.755.673-.8.721-1.28 1.368-3.101.896-3.101-.804 0-.25.293-1.16.653-2.019.359-.86.653-1.748.653-1.975 0-.227.073-.458.163-.513.09-.056.163-.501.163-.99 0-.862-.013-.888-.453-.888-.35 0-.735.286-1.674 1.24-.67.683-1.348 1.31-1.506 1.394-.157.084-.285.255-.285.38 0 .124-.184.445-.408.711-.225.267-.409.56-.409.652 0 .092-.064.192-.143.222-.173.065-1.736 1.386-2.211 1.867-.187.19-.562.459-.835.599-1.628.835-2.941.317-3.216-1.27-.09-.52-.738-.327-1.511.452-1.016 1.023-1.629 1.426-2.167 1.426a3.7 3.7 0 00-1.007.184c-.39.136-.574.136-.71 0a.665.665 0 00-.398-.184c-.118 0-.58-.367-1.026-.816-.61-.612-.839-.98-.917-1.47-.123-.77-.464-.856-1.06-.268-.534.526-2.24 1.901-2.36 1.901-.054 0-.412.257-.795.572-.674.551-1.062.69-1.29.462z"/></svg>