<?xml version="1.0" encoding="UTF-8" standalone="no"?>
<svg
   xmlns:dc="http://purl.org/dc/elements/1.1/"
   xmlns:cc="http://creativecommons.org/ns#"
   xmlns:rdf="http://www.w3.org/1999/02/22-rdf-syntax-ns#"
   xmlns:svg="http://www.w3.org/2000/svg"
   xmlns="http://www.w3.org/2000/svg"
   id="svg2663"
   viewBox="0 0 37.4266 21.672415"
   version="1.1"
   height="21.672415"
   width="37.426601">
  <defs
     id="defs2667" />
  <metadata
     id="metadata2">
    <rdf:RDF>
      <cc:Work
         rdf:about="">
        <dc:format>image/svg+xml</dc:format>
        <dc:type
           rdf:resource="http://purl.org/dc/dcmitype/StillImage" />
        <dc:title />
      </cc:Work>
    </rdf:RDF>
  </metadata>
  <g
     transform="translate(-607.52646,-841.83724)"
     id="g2661">
    <g
       style="stroke-width:0.16327"
       id="g2557">
      <path
         d="m 607.71,856.95 c -0.32934,-0.32934 -0.22211,-0.68028 0.37551,-1.2287 0.31428,-0.28844 0.57143,-0.56909 0.57143,-0.62367 0,-0.0546 0.29387,-0.50962 0.65306,-1.0112 0.40615,-0.5672 0.65306,-1.093 0.65306,-1.3908 0,-0.50719 -0.45775,-1.4272 -0.71009,-1.4272 -0.23525,0 -0.92214,-0.86847 -0.92237,-1.1662 0,-0.29811 0.3225,-0.46645 0.8942,-0.46645 0.40156,0 1.3913,0.9816 1.3913,1.3798 0,0.12408 0.0846,0.25379 0.18795,0.28826 0.10336,0.0344 0.22129,0.46485 0.26206,0.95642 0.10031,1.2096 -0.57917,2.6536 -1.8572,3.9469 -0.96047,0.97195 -1.1673,1.0745 -1.4989,0.74286 z m 10.33,-5.0672 c 0.31667,-0.47022 0.57577,-0.91616 0.57577,-0.99099 0,-0.0748 0.20522,-0.44313 0.45605,-0.8185 0.59183,-0.88565 0.84984,-1.4925 1.019,-2.3968 0.0756,-0.40409 0.21922,-1.0735 0.31917,-1.4875 0.26491,-1.0974 0.157,-2.8217 -0.18062,-2.886 -0.35249,-0.0671 -1.2871,0.73458 -1.2871,1.104 0,0.16134 -0.10975,0.50379 -0.24389,0.761 -0.13415,0.25721 -0.24436,0.80144 -0.24489,1.2094 0,0.40796 -0.1744,1.3631 -0.38634,2.1224 -0.21193,0.75939 -0.52052,1.9501 -0.68576,2.646 -0.16523,0.69592 -0.36351,1.2653 -0.44064,1.2653 -0.0771,0 -0.0948,0.0735 -0.0393,0.16327 0.21731,0.35162 0.58729,0.12685 1.1385,-0.69171 z m -9.7644,11.522 c -0.33334,-0.33332 -0.0158,-0.76527 1.1765,-1.6008 0.70692,-0.49534 1.3771,-1.0113 1.4894,-1.1465 0.11224,-0.13525 0.30359,-0.24589 0.42522,-0.24589 0.12163,0 0.35009,-0.20204 0.50769,-0.44898 0.1576,-0.24694 0.47154,-0.63933 0.69765,-0.87197 0.62825,-0.64643 1.9124,-2.456 2.1328,-3.0056 0.10806,-0.26939 0.25952,-0.63674 0.33657,-0.81633 0.0771,-0.17959 0.21685,-0.683 0.31064,-1.1187 0.0938,-0.43569 0.27873,-1.0014 0.41099,-1.2572 0.13226,-0.25577 0.24047,-0.64802 0.24047,-0.87166 0,-0.22365 0.0654,-0.44705 0.14533,-0.49645 0.13773,-0.0851 0.39294,-1.0768 0.84318,-3.2764 0.36033,-1.7602 0.78116,-3.2449 1.2474,-4.4005 0.36273,-0.8991 0.59943,-1.2346 1.138,-1.613 0.51571,-0.36235 0.78452,-0.45156 1.1126,-0.3692 1.2872,0.32306 1.4707,4.0288 0.33219,6.7093 -0.11441,0.26938 -0.36398,0.94982 -0.55459,1.5121 -0.30286,0.89334 -0.64521,1.4264 -1.4478,2.2541 -0.11224,0.11577 -0.20408,0.26441 -0.20408,0.3303 0,0.18329 -1.0079,1.7132 -1.4255,2.1638 -0.2037,0.21981 -0.37242,0.51749 -0.37492,0.66152 -0.002,0.14403 -0.22992,0.48229 -0.50542,0.75167 -0.87961,0.86014 -1.0284,1.3094 -1.035,3.1249 -0.005,1.4307 0.0383,1.7048 0.32051,2.0187 0.75956,0.845 2.1771,0.82075 3.0915,-0.0529 0.29898,-0.28564 0.6994,-0.62756 0.88985,-0.75986 0.19045,-0.13229 0.38323,-0.35698 0.42841,-0.49931 0.0452,-0.14233 0.39391,-0.59553 0.77495,-1.0071 0.75158,-0.81179 1.6426,-2.1346 1.825,-2.7094 0.0628,-0.19799 0.17993,-0.35998 0.26021,-0.35998 0.0803,0 0.22225,-0.27551 0.31549,-0.61225 0.23976,-0.86594 0.37852,-1.0285 0.91146,-1.0676 0.55669,-0.0408 0.7076,0.34378 0.39525,1.0074 -0.26586,0.5649 -0.41962,0.9538 -0.66932,1.6928 -0.11376,0.33674 -0.25972,0.61225 -0.32434,0.61225 -0.0646,0 -0.16972,0.2377 -0.23352,0.52821 -0.0638,0.29053 -0.22655,0.69692 -0.36163,0.90309 -0.17532,0.26756 -0.21829,0.60573 -0.15011,1.1814 0.12647,1.0678 0.35822,1.4689 0.84859,1.4689 0.46393,0 2.4499,-1.2837 2.8318,-1.8305 0.14352,-0.20548 0.44844,-0.53179 0.67756,-0.72511 0.22913,-0.19334 0.52467,-0.55494 0.65674,-0.80354 0.13208,-0.24861 1.038,-1.2476 2.0131,-2.2199 1.8161,-1.8109 1.928,-1.8746 3.125,-1.7774 0.76162,0.0618 0.89796,0.27408 0.89796,1.3978 0,0.94219 -0.4758,2.6631 -0.98104,3.5482 -0.089,0.15593 -0.16181,0.50057 -0.16181,0.76588 0,0.2653 -0.0735,0.52778 -0.16327,0.58328 -0.0898,0.0555 -0.16326,0.42718 -0.16326,0.82596 0,0.71791 0.006,0.72506 0.56373,0.72506 0.64237,0 1.3954,-0.29631 1.3954,-0.54905 0,-0.0935 0.21342,-0.394 0.47428,-0.66767 0.26085,-0.27367 0.74306,-1.0486 1.0716,-1.7221 0.32851,-0.67347 0.70686,-1.4082 0.84075,-1.6326 0.2856,-0.47882 0.55292,-1.0895 0.94996,-2.17 0.4376,-1.1909 0.55752,-1.2293 4.0104,-1.2822 1.6612,-0.0255 3.1147,0.0121 3.23,0.0833 0.15639,0.0967 0.10744,0.20991 -0.19293,0.44619 -0.47914,0.37688 -2.1512,0.62469 -4.2638,0.63192 l -1.4717,0.005 -0.28732,0.61225 c -0.15804,0.33673 -0.50597,1.0149 -0.77321,1.507 -0.26725,0.4921 -0.48589,1.0067 -0.48589,1.1437 0,0.35508 -1.6153,2.4551 -2.4655,3.2054 -0.39499,0.34857 -0.75489,0.67303 -0.79979,0.72103 -1.2798,1.3681 -3.102,0.89583 -3.102,-0.80389 0,-0.251 0.29388,-1.1597 0.65306,-2.0193 0.35919,-0.85963 0.65307,-1.7485 0.65307,-1.9753 0,-0.22677 0.0735,-0.45774 0.16326,-0.51324 0.0898,-0.0555 0.16327,-0.50065 0.16327,-0.98922 0,-0.86245 -0.0132,-0.88833 -0.45362,-0.88833 -0.34914,0 -0.73458,0.2857 -1.6735,1.2404 -0.67092,0.68225 -1.3484,1.3093 -1.5056,1.3935 -0.15714,0.0842 -0.28571,0.25505 -0.28571,0.3797 0,0.12464 -0.18368,0.4449 -0.40816,0.71169 -0.22449,0.2668 -0.40817,0.5602 -0.40817,0.65199 0,0.0918 -0.0645,0.19139 -0.1433,0.22134 -0.17285,0.0656 -1.7363,1.3862 -2.2113,1.8677 -0.1866,0.18915 -0.5622,0.45836 -0.83471,0.59823 -1.6278,0.83561 -2.9411,0.3176 -3.2164,-1.2687 -0.0904,-0.521 -0.73768,-0.32774 -1.511,0.45115 -1.0153,1.0227 -1.6285,1.4264 -2.1664,1.4264 -0.26425,0 -0.71738,0.0826 -1.007,0.18354 -0.38981,0.13591 -0.57419,0.13591 -0.71009,0 -0.10095,-0.10094 -0.28002,-0.18354 -0.39793,-0.18354 -0.11791,0 -0.57991,-0.36746 -1.0267,-0.81659 -0.60901,-0.61223 -0.83842,-0.97993 -0.91667,-1.4694 -0.12325,-0.77067 -0.46428,-0.85695 -1.0608,-0.2684 -0.53329,0.52619 -2.24,1.9013 -2.3598,1.9013 -0.0535,0 -0.41108,0.25714 -0.79462,0.57143 -0.67326,0.55169 -1.0613,0.69087 -1.2896,0.46258 z"
         id="alive" />
    </g>
  </g>
</svg>
