<svg xmlns="http://www.w3.org/2000/svg" height="20.697" width="12.585"><path d="M8.491 9.306c0-.18.074-.327.164-.327.09 0 .163-.11.163-.245 0-.134.073-.244.163-.244.09 0 .164-.129.164-.286 0-.157.139-.512.307-.788.169-.277.573-1.167.898-1.98.454-1.134.59-1.708.59-2.476 0-.55-.03-1-.068-1-.279 0-.585.243-.585.466 0 .147-.14.496-.309.773-.387.635-1.16 2.916-1.16 3.422 0 .21-.073.426-.163.481-.09.056-.163.39-.163.745 0 .353-.074.643-.164.643-.09 0-.163.257-.163.571 0 .315.074.572.163.572.09 0 .164-.147.164-.327zM.183 20.586c-.448-.284-.054-.958.963-1.65.538-.364.978-.772.978-.906s.176-.31.392-.392c.216-.082.601-.429.857-.77.256-.343.59-.733.741-.868.818-.726 1.404-1.658 1.513-2.4.063-.431.21-.933.327-1.115.447-.698 1.07-3.361 1.374-5.873.136-1.127.41-1.88 1.342-3.705.261-.511.475-1.069.475-1.24 0-.474 1.288-1.667 1.8-1.667.511 0 1.011.5 1.368 1.367.453 1.099.395 1.518-.601 4.347-.88 2.499-.94 2.643-1.324 3.161-.21.282-.73 1.174-1.158 1.982-.429.808-.892 1.598-1.03 1.756-.735.843-1.36 2.322-1.52 3.602-.132 1.047-.109 1.224.263 2.036.224.49.407 1.016.407 1.171 0 .442-.581.875-1.026.764-.31-.078-.462-.333-.772-1.285-.212-.654-.456-1.281-.541-1.396-.278-.37-.806-.031-2.52 1.618C.82 20.727.616 20.858.185 20.585z" stroke-width=".163"/></svg>