<?xml version="1.0" encoding="UTF-8" standalone="no"?>
<svg
   xmlns:dc="http://purl.org/dc/elements/1.1/"
   xmlns:cc="http://creativecommons.org/ns#"
   xmlns:rdf="http://www.w3.org/1999/02/22-rdf-syntax-ns#"
   xmlns:svg="http://www.w3.org/2000/svg"
   xmlns="http://www.w3.org/2000/svg"
   id="svg2502"
   viewBox="0 0 12.583714 20.698378"
   version="1.1"
   height="20.698378"
   width="12.583714">
  <defs
     id="defs2506" />
  <metadata
     id="metadata2">
    <rdf:RDF>
      <cc:Work
         rdf:about="">
        <dc:format>image/svg+xml</dc:format>
        <dc:type
           rdf:resource="http://purl.org/dc/dcmitype/StillImage" />
        <dc:title />
      </cc:Work>
    </rdf:RDF>
  </metadata>
  <g
     transform="translate(-217.30883,-89.95846)"
     style="stroke-width:0.16327"
     id="g2500">
    <path
       d="m 225.8,99.265 c 0,-0.17959 0.0735,-0.32653 0.16327,-0.32653 0.0898,0 0.16326,-0.1102 0.16326,-0.2449 0,-0.1347 0.0735,-0.2449 0.16327,-0.2449 0.0898,0 0.16354,-0.12857 0.16387,-0.28571 0,-0.15714 0.13853,-0.51188 0.30708,-0.7883 0.16858,-0.27642 0.57238,-1.1672 0.89736,-1.9794 0.45398,-1.1347 0.59087,-1.7086 0.59087,-2.477 0,-0.55009 -0.0307,-1.0002 -0.0683,-1.0002 -0.27906,0 -0.58489,0.24369 -0.58539,0.46645 0,0.14754 -0.13923,0.49555 -0.30864,0.77337 -0.38676,0.63425 -1.1602,2.9156 -1.1602,3.4222 0,0.20898 -0.0735,0.42536 -0.16326,0.48086 -0.0898,0.0555 -0.16327,0.39045 -0.16327,0.74433 0,0.35388 -0.0735,0.64342 -0.16326,0.64342 -0.0898,0 -0.16327,0.25714 -0.16327,0.57143 0,0.31429 0.0735,0.57143 0.16327,0.57143 0.0898,0 0.16326,-0.14694 0.16326,-0.32653 z m -8.3078,11.28 c -0.44829,-0.28391 -0.0547,-0.95802 0.96277,-1.649 0.53774,-0.36516 0.97769,-0.77321 0.97769,-0.90678 0,-0.13357 0.17645,-0.30995 0.39211,-0.39194 0.21567,-0.082 0.60139,-0.42892 0.85714,-0.77094 0.25578,-0.34202 0.58939,-0.7323 0.74138,-0.86728 0.8173,-0.72586 1.4043,-1.6575 1.5125,-2.4005 0.0628,-0.43105 0.20973,-0.93289 0.32656,-1.1152 0.44733,-0.69801 1.0702,-3.3607 1.3737,-5.8726 0.13621,-1.1272 0.40895,-1.8804 1.3417,-3.7053 0.2614,-0.51137 0.47526,-1.0693 0.47526,-1.2399 0,-0.47404 1.2879,-1.6671 1.7997,-1.6671 0.51095,0 1.0108,0.4993 1.3683,1.3669 0.45292,1.0989 0.39489,1.5182 -0.6017,4.3474 -0.88036,2.4993 -0.94049,2.6428 -1.3242,3.1608 -0.20888,0.28197 -0.73017,1.1739 -1.1584,1.9821 -0.42824,0.80816 -0.89125,1.5985 -1.0289,1.7562 -0.73602,0.84348 -1.3604,2.3221 -1.5212,3.6022 -0.13145,1.0469 -0.10848,1.2245 0.26321,2.0364 0.22399,0.48923 0.40724,1.0162 0.40724,1.171 0,0.44245 -0.58131,0.87531 -1.0257,0.76378 -0.30924,-0.0776 -0.46235,-0.33254 -0.77164,-1.2847 -0.21221,-0.65331 -0.45601,-1.2813 -0.54179,-1.3956 -0.27747,-0.36963 -0.80518,-0.0309 -2.5203,1.6175 -1.6685,1.6037 -1.8753,1.7349 -2.3055,1.4624 z"
       id="all_abv" />
  </g>
</svg>
