<svg xmlns="http://www.w3.org/2000/svg" height="20.698" width="12.584"><path d="M8.491 9.307c0-.18.074-.327.163-.327.09 0 .164-.11.164-.245s.073-.245.163-.245c.09 0 .164-.128.164-.286 0-.157.138-.511.307-.788.169-.276.572-1.167.897-1.98.454-1.134.591-1.708.591-2.476 0-.55-.03-1-.068-1-.28 0-.585.243-.586.466 0 .148-.139.496-.308.773-.387.635-1.16 2.916-1.16 3.423 0 .209-.074.425-.164.48-.09.056-.163.39-.163.745 0 .354-.073.643-.163.643-.09 0-.163.257-.163.572 0 .314.073.571.163.571.09 0 .163-.147.163-.326zM.183 20.587c-.448-.284-.054-.958.963-1.65.538-.365.978-.773.978-.906 0-.134.176-.31.392-.392.216-.082.601-.43.857-.771.256-.342.59-.732.741-.867.818-.726 1.405-1.658 1.513-2.4.063-.432.21-.934.327-1.116.447-.698 1.07-3.36 1.373-5.873.136-1.127.41-1.88 1.342-3.705.261-.511.475-1.07.475-1.24 0-.474 1.288-1.667 1.8-1.667.51 0 1.01.5 1.368 1.367.453 1.099.395 1.518-.602 4.347-.88 2.5-.94 2.643-1.324 3.161-.209.282-.73 1.174-1.158 1.982-.428.808-.891 1.599-1.029 1.756-.736.844-1.36 2.322-1.521 3.603-.132 1.046-.109 1.224.263 2.036.224.49.407 1.016.407 1.171 0 .442-.581.875-1.025.764-.31-.078-.463-.333-.772-1.285-.212-.653-.456-1.281-.542-1.396-.277-.37-.805-.03-2.52 1.618C.82 20.728.614 20.859.183 20.586z"/></svg>