<svg xmlns="http://www.w3.org/2000/svg" height="23.107" width="25.618"><path d="M.188 10.345c-.326-.326-.222-.906.264-1.472.253-.295.704-1.098 1.001-1.784.62-1.429.601-2.12-.076-2.755-.489-.46-.543-1.219-.104-1.454.368-.196 1.179-.003 1.348.322.653 1.251.834 1.857.746 2.494-.382 2.77-2.281 5.547-3.18 4.649zM9.09 9.232c1.542-3.098 1.912-4.14 2.089-5.875.095-.941.067-1.113-.252-1.52-.234-.296-.483-.44-.709-.407-.306.043-.379.236-.6 1.6-.139.853-.34 1.757-.448 2.008-.108.25-.243.655-.3.898-.058.242-.272.845-.475 1.34-.203.493-.423 1.474-.489 2.178-.11 1.199-.099 1.278.188 1.223.196-.038.553-.556.996-1.445zm8.877 8.695c.663-.446 1.29-1.199 1.382-1.66.047-.23.192-.628.323-.883.324-.628.298-1.74-.05-2.173-.156-.192-.524-.47-.818-.618-.635-.32-1.391-.172-2.212.431a8.32 8.32 0 01-.936.592c-.645.327-1.46 1.686-1.46 2.434 0 1.555 2.441 2.77 3.77 1.877zm-2.3 1.644c-.223-.046-.601-.223-.84-.394-.24-.17-.511-.31-.603-.31-.091 0-.337-.222-.546-.494-.209-.272-.54-.694-.738-.939l-.357-.444-.882.898c-1.2 1.22-2.533 1.597-3.797 1.069-.704-.295-1.303-.94-1.71-1.845-.401-.89-.814-.907-1.609-.066-.326.345-.839.796-1.14 1.002-.3.205-.733.547-.962.76-.385.357-1.31.533-1.548.295-.18-.18.065-.668.453-.902.846-.514 3.86-3.504 4.095-4.061.361-.86.712-2.68.72-3.733.004-.51.121-1.222.261-1.58.516-1.33 1.086-3.31 1.378-4.79.166-.837.392-1.792.504-2.122.58-1.72 2.609-2.54 3.364-1.36.153.239.377.538.498.664.424.443.548 1.071.438 2.22-.061.628-.177 1.223-.258 1.32-.178.215-.804 2.135-.804 2.467 0 .129-.174.468-.387.754-.213.286-.431.709-.486.94-.054.231-.284.693-.51 1.028-.228.334-.413.754-.413.933 0 .18-.323.673-.717 1.095-1.046 1.122-1.732 2.368-1.732 3.145 0 .356.158.984.35 1.394.508 1.079 1.306 1.312 2.566.748.606-.271 1.329-.959 1.329-1.264 0-.13 1.038-1.537 1.895-2.567.567-.682 1.981-1.749 2.319-1.749.118 0 .621-.192 1.119-.428.721-.34 1.05-.408 1.623-.33.943.13 1.909.634 2.129 1.111.633 1.375.715 1.668.618 2.234a13.69 13.69 0 01-.798 2.693c-.369.861-1.74 2.174-2.495 2.39-.802.228-1.818.323-2.326.218zm-.161 3.218c-.58-.58-.042-1.146 1.088-1.147.342 0 1.614-.143 2.827-.315 3.557-.508 5.088-.58 5.692-.267.529.273.658.698.316 1.04-.114.114-.662.196-1.313.196-1.355 0-3.832.257-5.57.579-1.804.333-2.645.31-3.04-.086z" stroke-width=".163"/></svg>