<svg xmlns="http://www.w3.org/2000/svg" height="19.254" width="19.692"><path d="M1.246 10.755c-.447-.26-.342-.776.383-1.89 1.099-1.686 1.263-3 .464-3.713-.36-.32-.486-.563-.45-.867.079-.65.494-.822 1.187-.492 1.196.57 1.682 2.182 1.09 3.61-.191.463-.348.932-.348 1.044 0 .325-1.143 1.957-1.564 2.233-.446.293-.397.288-.762.075zm7.903-3.946c.747-.608 1.892-2.96 2.051-4.213.082-.643-.253-1.08-.697-.909-.48.185-1.52 2.871-1.791 4.632-.11.716.003.843.437.49zm7.796 10.362c.219-.164.448-.404.509-.534.395-.84.64-1.429.733-1.756.17-.598-.082-1.939-.473-2.519-.588-.872-1.361-.818-2.316.162-.813.837-1.2 1.655-1.32 2.796-.14 1.346.024 2.1.479 2.2.665.144 1.985-.049 2.388-.35zM.089 19.149c-.32-.32.294-1.686.76-1.689.196 0 2.723-2.657 2.723-2.862 0-.062.19-.343.422-.624 1.18-1.432 1.693-2.307 1.869-3.185.101-.506.39-1.617.641-2.47.252-.853.544-1.919.65-2.368.4-1.7.522-2.049 1.034-2.97.29-.522.637-1.162.772-1.423.85-1.649 2.764-2.11 3.285-.793.098.249.244.58.324.735.198.385.185 1.714-.018 1.84-.09.055-.163.308-.163.562 0 .427-.31.977-1.898 3.368-.303.455-.55.884-.55.953 0 .07-.258.426-.572.793-.314.367-.572.751-.572.854 0 .102-.226.438-.504.746-1.153 1.282-1.315 1.754-1.345 3.917-.027 1.92-.016 1.987.374 2.303.269.218.546.297.835.24.429-.086 1.838-1.425 2.716-2.581 1.28-1.685 1.628-2.083 1.956-2.238.198-.092.638-.42.98-.728.767-.692 1.5-1.007 2.694-1.156 1.179-.147 2.167.11 2.527.66.523.799.856 3.603.54 4.557-.641 1.946-2.673 3.504-4.566 3.504-.74 0-1.85-.68-2.27-1.393-.247-.418-.345-.86-.345-1.555 0-.533-.065-.97-.145-.97-.19 0-1.656 1.447-2.01 1.986-.483.733-1.728 1.443-2.533 1.443-.618 0-.813-.094-1.438-.693-.577-.552-.76-.867-.902-1.551-.288-1.385-.42-1.32-3.013 1.48-.984 1.063-1.41 1.41-1.727 1.413-.232.002-.471-.045-.531-.105z" stroke-width=".163"/></svg>