<?xml version="1.0" encoding="UTF-8" standalone="no"?>
<svg
   xmlns:dc="http://purl.org/dc/elements/1.1/"
   xmlns:cc="http://creativecommons.org/ns#"
   xmlns:rdf="http://www.w3.org/1999/02/22-rdf-syntax-ns#"
   xmlns:svg="http://www.w3.org/2000/svg"
   xmlns="http://www.w3.org/2000/svg"
   id="svg2502"
   viewBox="0 0 19.692388 19.254168"
   version="1.1"
   height="19.254168"
   width="19.692389">
  <defs
     id="defs2506" />
  <metadata
     id="metadata2">
    <rdf:RDF>
      <cc:Work
         rdf:about="">
        <dc:format>image/svg+xml</dc:format>
        <dc:type
           rdf:resource="http://purl.org/dc/dcmitype/StillImage" />
        <dc:title />
      </cc:Work>
    </rdf:RDF>
  </metadata>
  <g
     transform="translate(-215.85448,-114.78508)"
     style="stroke-width:0.16327"
     id="g2500">
    <path
       d="m 217.1,125.54 c -0.4464,-0.26 -0.34159,-0.77636 0.38349,-1.8892 1.0988,-1.6865 1.263,-3.0013 0.46377,-3.7134 -0.35975,-0.32055 -0.48547,-0.56349 -0.44898,-0.86766 0.078,-0.64978 0.49344,-0.82213 1.1859,-0.49194 1.1962,0.57042 1.6828,2.182 1.0905,3.6111 -0.19148,0.46195 -0.34813,0.93146 -0.34813,1.0434 0,0.32488 -1.1434,1.9572 -1.5641,2.2328 -0.44645,0.29253 -0.39721,0.28769 -0.7624,0.075 z m 7.903,-3.9461 c 0.74763,-0.60749 1.8928,-2.9592 2.0517,-4.2132 0.0814,-0.64264 -0.25318,-1.0788 -0.69692,-0.90857 -0.48088,0.18454 -1.5201,2.8712 -1.7917,4.632 -0.11043,0.71601 0.003,0.84273 0.43696,0.4898 z m 7.7963,10.362 c 0.21883,-0.16337 0.44787,-0.40355 0.50902,-0.53374 0.39492,-0.84091 0.64027,-1.4286 0.73322,-1.7564 0.1696,-0.59813 -0.082,-1.9385 -0.4726,-2.5182 -0.58812,-0.8727 -1.3616,-0.81865 -2.316,0.16187 -0.81391,0.83618 -1.2004,1.6549 -1.3196,2.7954 -0.14067,1.346 0.0233,2.1004 0.47812,2.1994 0.66469,0.14482 1.9853,-0.0478 2.3878,-0.34834 z m -16.856,1.9778 c -0.32026,-0.32025 0.29371,-1.6852 0.75941,-1.6884 0.19641,-10e-4 2.7236,-2.6569 2.7236,-2.862 0,-0.0618 0.18994,-0.34277 0.42207,-0.62448 1.1801,-1.432 1.6936,-2.3071 1.8691,-3.1846 0.10109,-0.50568 0.38973,-1.6174 0.6414,-2.4704 0.25166,-0.85306 0.54403,-1.9184 0.6497,-2.3674 0.4002,-1.7004 0.52153,-2.049 1.034,-2.9709 0.28968,-0.52111 0.63688,-1.1612 0.77156,-1.4223 0.85038,-1.649 2.7642,-2.1109 3.2853,-0.79285 0.0981,0.24826 0.244,0.57895 0.32413,0.73488 0.19771,0.3847 0.18501,1.7138 -0.0176,1.839 -0.0898,0.0555 -0.16327,0.3086 -0.16327,0.56246 0,0.42706 -0.31041,0.9777 -1.8986,3.3679 -0.30271,0.45555 -0.55037,0.88468 -0.55037,0.95363 0,0.069 -0.25714,0.42578 -0.57143,0.79295 -0.31428,0.36718 -0.57142,0.75134 -0.57142,0.85369 0,0.10236 -0.22676,0.43812 -0.50391,0.74613 -1.1534,1.2819 -1.3155,1.7536 -1.3459,3.917 -0.0269,1.9201 -0.016,1.9871 0.3743,2.3034 0.26877,0.21775 0.54562,0.29704 0.83502,0.23916 0.42893,-0.0858 1.8378,-1.4245 2.7158,-2.5806 1.2798,-1.6851 1.628,-2.0833 1.9567,-2.2376 0.19722,-0.0926 0.63804,-0.42044 0.97959,-0.72856 0.76697,-0.69188 1.5008,-1.0067 2.6938,-1.1558 1.1792,-0.14733 2.167,0.11077 2.5271,0.66033 0.52321,0.79851 0.85604,3.6023 0.54098,4.557 -0.64208,1.9455 -2.6734,3.5041 -4.5667,3.5041 -0.73997,0 -1.85,-0.68124 -2.27,-1.3932 -0.24684,-0.41835 -0.34498,-0.86072 -0.34498,-1.555 0,-0.53364 -0.0651,-0.97026 -0.1447,-0.97026 -0.19056,0 -1.656,1.4475 -2.0106,1.9859 -0.48314,0.73365 -1.7282,1.4427 -2.5333,1.4427 -0.61753,0 -0.81231,-0.0938 -1.438,-0.69259 -0.57688,-0.55203 -0.75992,-0.86678 -0.90198,-1.551 -0.28746,-1.3847 -0.4192,-1.32 -3.0122,1.4795 -0.98469,1.0631 -1.4099,1.411 -1.7279,1.4137 -0.23198,0.002 -0.47076,-0.0454 -0.53061,-0.10531 z"
       id="allow" />
  </g>
</svg>
