<?xml version="1.0" encoding="UTF-8" standalone="no"?>
<svg
   xmlns:dc="http://purl.org/dc/elements/1.1/"
   xmlns:cc="http://creativecommons.org/ns#"
   xmlns:rdf="http://www.w3.org/1999/02/22-rdf-syntax-ns#"
   xmlns:svg="http://www.w3.org/2000/svg"
   xmlns="http://www.w3.org/2000/svg"
   id="svg2502"
   viewBox="0 0 25.618467 23.106867"
   version="1.1"
   height="23.106867"
   width="25.618467">
  <defs
     id="defs2506" />
  <metadata
     id="metadata2">
    <rdf:RDF>
      <cc:Work
         rdf:about="">
        <dc:format>image/svg+xml</dc:format>
        <dc:type
           rdf:resource="http://purl.org/dc/dcmitype/StillImage" />
        <dc:title />
      </cc:Work>
    </rdf:RDF>
  </metadata>
  <g
     transform="translate(-216.66206,-163.01545)"
     style="stroke-width:0.16327"
     id="g2500">
    <path
       d="m 216.85,173.36 c -0.32587,-0.32587 -0.22181,-0.9054 0.2643,-1.4719 0.25312,-0.29495 0.70364,-1.0976 1.0012,-1.7835 0.61967,-1.4288 0.60059,-2.1194 -0.0761,-2.7551 -0.4892,-0.45958 -0.54344,-1.2186 -0.10388,-1.4538 0.36756,-0.1967 1.1781,-0.003 1.3476,0.3217 0.65288,1.2514 0.8343,1.8574 0.74638,2.4937 -0.38289,2.7709 -2.2815,5.5469 -3.1795,4.6489 z m 8.9018,-1.1123 c 1.5418,-3.0984 1.9121,-4.1399 2.0889,-5.8755 0.0958,-0.94114 0.0673,-1.1132 -0.25195,-1.5191 -0.2334,-0.29674 -0.48259,-0.44023 -0.70854,-0.408 -0.30656,0.0437 -0.3788,0.23639 -0.60029,1.6007 -0.13848,0.85306 -0.33994,1.7563 -0.44767,2.0072 -0.10774,0.2509 -0.24306,0.65499 -0.30069,0.89796 -0.0576,0.24297 -0.27118,0.84586 -0.47456,1.3397 -0.20338,0.49387 -0.42325,1.4745 -0.48862,2.1792 -0.11115,1.1984 -0.099,1.2775 0.18756,1.2223 0.19652,-0.0378 0.55361,-0.55576 0.99588,-1.4445 z m 8.8768,8.695 c 0.66337,-0.44589 1.2907,-1.1988 1.3829,-1.6597 0.0463,-0.23148 0.19146,-0.62889 0.3226,-0.88309 0.32405,-0.62821 0.29797,-1.7407 -0.0509,-2.1732 -0.15516,-0.19236 -0.52285,-0.47078 -0.8171,-0.61871 -0.6349,-0.31922 -1.391,-0.17176 -2.2125,0.43149 -0.2848,0.20917 -0.70593,0.47559 -0.93581,0.59206 -0.64454,0.32654 -1.4596,1.6856 -1.4596,2.4338 0,1.5553 2.4412,2.7708 3.7704,1.8774 z m -2.2989,1.644 c -0.22331,-0.0461 -0.602,-0.22345 -0.84153,-0.39401 -0.23953,-0.17056 -0.5104,-0.31011 -0.60196,-0.31011 -0.0916,0 -0.33735,-0.22235 -0.54622,-0.49412 -0.20888,-0.27177 -0.54072,-0.69422 -0.73744,-0.93878 l -0.35766,-0.44471 -0.88175,0.89799 c -1.1992,1.2213 -2.5335,1.597 -3.797,1.0691 -0.70428,-0.29427 -1.3026,-0.93959 -1.7103,-1.8446 -0.40104,-0.89024 -0.81329,-0.90722 -1.6084,-0.0662 -0.32636,0.3452 -0.83911,0.79599 -1.1395,1.0017 -0.30035,0.20575 -0.73352,0.54779 -0.96262,0.76012 -0.38533,0.35711 -1.31,0.53326 -1.5484,0.29494 -0.17932,-0.17932 0.0654,-0.66709 0.45265,-0.90201 0.84606,-0.51337 3.8614,-3.5032 4.0955,-4.0609 0.36113,-0.8603 0.71206,-2.679 0.7202,-3.7322 0.004,-0.51045 0.12129,-1.222 0.26078,-1.5812 0.51641,-1.3298 1.086,-3.3084 1.3784,-4.7884 0.16553,-0.83769 0.39198,-1.7928 0.50323,-2.1224 0.58074,-1.7209 2.609,-2.5412 3.364,-1.3607 0.15295,0.23913 0.37702,0.53802 0.49795,0.66421 0.4245,0.44294 0.54849,1.0712 0.43797,2.2196 -0.0605,0.62857 -0.17654,1.223 -0.25789,1.3211 -0.17788,0.21436 -0.80389,2.1348 -0.80389,2.4662 0,0.12898 -0.17402,0.46839 -0.38672,0.75423 -0.21271,0.28585 -0.43125,0.70877 -0.48567,0.93982 -0.0544,0.23106 -0.28446,0.69351 -0.51123,1.0277 -0.22676,0.33416 -0.4123,0.75438 -0.4123,0.93385 0,0.17944 -0.32243,0.67209 -0.71653,1.0948 -1.0459,1.1218 -1.7324,2.368 -1.7324,3.1448 0,0.35622 0.15782,0.98343 0.35074,1.3938 0.5072,1.079 1.3058,1.3119 2.5652,0.74809 0.60567,-0.27116 1.329,-0.95889 1.329,-1.2636 0,-0.13004 1.0386,-1.5369 1.8954,-2.5673 0.56722,-0.68219 1.9811,-1.7486 2.3183,-1.7486 0.11809,0 0.62188,-0.19262 1.1195,-0.42803 0.72142,-0.34129 1.0504,-0.40809 1.6231,-0.32959 0.94302,0.12926 1.9084,0.6328 2.1285,1.1102 0.63372,1.3748 0.71492,1.6684 0.61808,2.234 -0.13757,0.80328 -0.47145,1.9301 -0.79805,2.6933 -0.3684,0.86091 -1.7393,2.1737 -2.4948,2.389 -0.80183,0.22852 -1.8174,0.3241 -2.3262,0.21894 z m -0.16169,3.2179 c -0.57922,-0.57922 -0.0421,-1.1458 1.0876,-1.1474 0.34263,0 1.6148,-0.14232 2.8271,-0.31517 3.5573,-0.50721 5.0885,-0.57898 5.6922,-0.26677 0.52877,0.27343 0.65778,0.6981 0.31592,1.04 -0.11419,0.11418 -0.66175,0.19591 -1.3126,0.19591 -1.3552,0 -3.8322,0.25744 -5.5708,0.57899 -1.8036,0.33357 -2.6441,0.30993 -3.0395,-0.0855 z"
       id="allowed" />
  </g>
</svg>
