<svg xmlns="http://www.w3.org/2000/svg" height="21.696" width="35.549"><path d="M.661 11.88c-.304-.304-.232-.92.144-1.234.187-.156.555-.704.817-1.218.632-1.242.655-2.457.064-3.465-.462-.79-.403-1.187.199-1.338.62-.156 1.224.391 1.573 1.424.411 1.213.402 2.105-.029 2.802-.193.314-.352.72-.352.905 0 .506-.172.85-.425.85-.125 0-.228.072-.228.159 0 .232-1.12 1.311-1.36 1.311-.114 0-.295-.088-.403-.196zm32.62 8.774c0-.311.14-.92.31-1.351.63-1.6.63-4.328 0-4.959-.42-.42-1.52-.404-2.352.034-1.479.777-3.23 2.89-3.413 4.116-.066.437-.22.824-.35.874-.128.049-.496.449-.819.888-.608.83-1.016.987-1.389.538-.182-.219-.17-.383.077-1.02.826-2.135.948-2.611.972-3.792.025-1.178 0-1.265-.505-1.842-.584-.667-.666-1.095-.272-1.422.214-.178.375-.174.937.02.572.2.743.37 1.088 1.09.44.918.894 1.118 1.33.587.385-.47 2.88-1.542 3.81-1.638 1.917-.198 2.475.24 2.751 2.157.177 1.228.145 1.551-.474 4.775l-.29 1.51h-.705c-.696 0-.705-.008-.705-.565zM10.168 8.444c1.388-2.648 1.726-3.615 1.72-4.92-.006-1.3-.219-1.733-.85-1.733-.514 0-.653.346-1.017 2.53-.149.898-.375 2-.502 2.45-.196.694-.56 2.67-.564 3.06 0 .068.094.123.21.123.116 0 .568-.68 1.003-1.51zm7.681 11.18c.675-.37.893-.612 1.285-1.425.295-.612.501-1.347.55-1.96.075-.93.051-1.01-.48-1.62l-.56-.642-.804.218c-1.72.468-3.171 1.974-3.171 3.294 0 1.386.463 2.081 1.618 2.431.636.193.686.183 1.562-.296zM.338 21.454c-.51-.357-.454-.617.25-1.145.336-.253.67-.555.742-.673.072-.117.226-.213.344-.213.256 0 3.036-2.57 3.036-2.808 0-.09.386-.548.857-1.014.817-.809 1.265-1.703 1.265-2.522 0-.17.1-.557.224-.86.122-.303.268-1.102.323-1.775.092-1.122.31-2.284.748-4 .092-.36.169-.88.17-1.157.007-.76.93-3.481 1.436-4.226.61-.9.837-1.055 1.556-1.061.764-.006 1.287.495 1.87 1.79.607 1.352.462 2.618-.52 4.535-.41.799-.745 1.607-.745 1.795 0 .188-.092.438-.205.557-.112.119-.534.877-.938 1.685a29.267 29.267 0 01-1.558 2.694c-1.6 2.377-1.931 3.982-1.144 5.535.4.79.71.989 1.546.993.45.003 1.635-1.14 2.067-1.994.297-.587 1.718-2.304 2.334-2.82.214-.18.606-.449.87-.598.266-.15.607-.385.76-.523.152-.138.706-.448 1.23-.688.798-.365 1.1-.421 1.854-.344 1.1.114 1.717.63 2.066 1.73.44 1.386.448 1.731.081 3.274-.334 1.404-.413 1.56-1.15 2.265-.437.417-.793.842-.793.946 0 .23-.376.387-.922.387-.223 0-.535.07-.693.154-.186.1-.631.083-1.262-.047-1.299-.268-2.256-1.03-2.635-2.097-.335-.942-.647-1.004-1.197-.236-.755 1.055-2.384 2.121-3.23 2.114-.961-.008-2.238-1.201-2.523-2.357-.058-.236-.254-.603-.437-.816l-.33-.388-.859.939c-.472.516-.921.938-.998.938-.077 0-.548.404-1.046.898-.497.494-.993.898-1.101.898-.108 0-.288.11-.4.245-.258.312-.488.31-.943-.009z" stroke-width=".163"/></svg>