<?xml version="1.0" encoding="UTF-8" standalone="no"?>
<svg
   xmlns:dc="http://purl.org/dc/elements/1.1/"
   xmlns:cc="http://creativecommons.org/ns#"
   xmlns:rdf="http://www.w3.org/1999/02/22-rdf-syntax-ns#"
   xmlns:svg="http://www.w3.org/2000/svg"
   xmlns="http://www.w3.org/2000/svg"
   id="svg2502"
   viewBox="0 0 35.549472 21.695717"
   version="1.1"
   height="21.695717"
   width="35.549473">
  <defs
     id="defs2506" />
  <metadata
     id="metadata2">
    <rdf:RDF>
      <cc:Work
         rdf:about="">
        <dc:format>image/svg+xml</dc:format>
        <dc:type
           rdf:resource="http://purl.org/dc/dcmitype/StillImage" />
        <dc:title />
      </cc:Work>
    </rdf:RDF>
  </metadata>
  <g
     transform="translate(-216.34903,-137.63981)"
     style="stroke-width:0.16327"
     id="g2500">
    <path
       d="m 217.01,149.52 c -0.30376,-0.30376 -0.23164,-0.92031 0.14438,-1.2342 0.18715,-0.15627 0.55449,-0.70447 0.81632,-1.2182 0.63261,-1.2414 0.65537,-2.4568 0.0648,-3.4645 -0.46282,-0.78974 -0.40386,-1.1872 0.19854,-1.3383 0.61951,-0.15549 1.2239,0.3914 1.5734,1.4238 0.41089,1.2137 0.40167,2.1056 -0.029,2.8024 -0.19366,0.31333 -0.35209,0.72032 -0.35209,0.90441 0,0.50687 -0.17218,0.85123 -0.42564,0.85123 -0.12507,0 -0.22742,0.071 -0.22742,0.15782 0,0.23247 -1.1194,1.3116 -1.3605,1.3116 -0.11375,0 -0.29498,-0.0882 -0.40273,-0.19592 z m 32.62,8.7734 c 0,-0.31096 0.13931,-0.91882 0.30958,-1.3508 0.63089,-1.6006 0.63045,-4.3275 0,-4.9587 -0.41972,-0.41972 -1.5203,-0.40402 -2.352,0.0336 -1.4781,0.77771 -3.229,2.8896 -3.413,4.1167 -0.0655,0.43699 -0.22038,0.82387 -0.3496,0.87345 -0.12758,0.049 -0.49603,0.44876 -0.81879,0.88845 -0.60865,0.82914 -1.0164,0.9871 -1.389,0.53811 -0.18186,-0.21913 -0.16947,-0.38386 0.0767,-1.0204 0.82591,-2.1352 0.94797,-2.611 0.97246,-3.7917 0.0244,-1.1785 0,-1.2652 -0.50496,-1.8424 -0.58415,-0.66685 -0.66613,-1.095 -0.27226,-1.4219 0.21387,-0.17751 0.37507,-0.17393 0.9368,0.0208 0.57185,0.19826 0.74292,0.36955 1.0886,1.09 0.44018,0.91739 0.89329,1.1174 1.3289,0.58646 0.38567,-0.47003 2.8798,-1.5425 3.8106,-1.6386 1.917,-0.19785 2.4749,0.23954 2.7511,2.157 0.17702,1.2288 0.14497,1.5517 -0.47418,4.7751 l -0.29007,1.5102 h -0.70508 c -0.69552,0 -0.70507,-0.008 -0.70507,-0.56538 z m -23.113,-12.21 c 1.3879,-2.648 1.7258,-3.6146 1.7199,-4.9204 -0.006,-1.2991 -0.21856,-1.7326 -0.85014,-1.7326 -0.51384,0 -0.6529,0.34624 -1.0163,2.5306 -0.14937,0.89796 -0.37528,2 -0.50202,2.449 -0.19604,0.69453 -0.55999,2.6702 -0.56392,3.0612 0,0.0674 0.0937,0.12245 0.20981,0.12245 0.11608,0 0.56725,-0.67959 1.0026,-1.5102 z m 7.681,11.18 c 0.67506,-0.36962 0.89311,-0.6114 1.285,-1.4248 0.29495,-0.61219 0.50135,-1.347 0.55032,-1.9592 0.0745,-0.93137 0.0508,-1.0112 -0.4808,-1.6211 l -0.55917,-0.64149 -0.80418,0.21832 c -1.7208,0.46718 -3.1715,1.9739 -3.1715,3.294 0,1.3852 0.46319,2.0808 1.6186,2.431 0.63548,0.19259 0.68547,0.18309 1.5618,-0.29676 z m -17.511,1.8313 c -0.51085,-0.35782 -0.4542,-0.61813 0.24939,-1.146 0.33674,-0.25265 0.671,-0.55525 0.74281,-0.67244 0.0718,-0.1172 0.22632,-0.21308 0.34335,-0.21308 0.25608,0 3.0363,-2.5711 3.0363,-2.8079 0,-0.0914 0.38571,-0.54805 0.85714,-1.0147 0.81703,-0.80881 1.2653,-1.7024 1.2653,-2.5222 0,-0.17004 0.10047,-0.55691 0.22328,-0.85972 0.12281,-0.3028 0.26847,-1.1016 0.32371,-1.775 0.092,-1.122 0.30914,-2.2834 0.74774,-4 0.0918,-0.35918 0.16862,-0.87957 0.17075,-1.1564 0.006,-0.76073 0.92978,-3.4814 1.4353,-4.2267 0.61052,-0.90006 0.83729,-1.0546 1.556,-1.0607 0.76377,-0.006 1.287,0.49464 1.8699,1.7907 0.60756,1.3509 0.4622,2.6175 -0.52031,4.5339 -0.4098,0.79935 -0.7451,1.6071 -0.7451,1.795 0,0.1879 -0.0918,0.43871 -0.20408,0.55737 -0.11224,0.11866 -0.5344,0.87697 -0.9381,1.6851 -0.40373,0.80816 -1.1049,2.0204 -1.5582,2.6939 -1.5998,2.3769 -1.9316,3.9818 -1.1443,5.5353 0.40024,0.78987 0.70927,0.98834 1.5461,0.99306 0.45085,0.003 1.6346,-1.1396 2.0671,-1.9945 0.2967,-0.58648 1.7181,-2.3038 2.3338,-2.8196 0.21435,-0.17959 0.60628,-0.44899 0.87097,-0.59867 0.26469,-0.14968 0.60598,-0.38502 0.75842,-0.52299 0.15245,-0.13796 0.70636,-0.44732 1.2309,-0.68747 0.79811,-0.36538 1.1007,-0.42146 1.8542,-0.34369 1.0993,0.11346 1.7162,0.63025 2.0653,1.7302 0.43958,1.385 0.44816,1.7303 0.0814,3.2733 -0.33371,1.4041 -0.4133,1.5608 -1.1508,2.2654 -0.43579,0.41632 -0.79233,0.84195 -0.79233,0.94582 0,0.22939 -0.37562,0.38707 -0.92204,0.38707 -0.22305,0 -0.53484,0.0692 -0.69288,0.15378 -0.18588,0.0995 -0.63141,0.0829 -1.262,-0.0471 -1.2986,-0.26761 -2.256,-1.0294 -2.635,-2.0966 -0.33469,-0.94236 -0.64699,-1.004 -1.1967,-0.23607 -0.75487,1.0545 -2.3846,2.1207 -3.2303,2.1134 -0.96098,-0.008 -2.2375,-1.2007 -2.5227,-2.3566 -0.0581,-0.23558 -0.25471,-0.60293 -0.43683,-0.81632 l -0.33115,-0.388 -0.85808,0.93878 c -0.47195,0.51633 -0.92122,0.93878 -0.9984,0.93878 -0.0772,0 -0.54762,0.40408 -1.0455,0.89795 -0.49782,0.49388 -0.9935,0.89796 -1.1015,0.89796 -0.108,0 -0.28782,0.11021 -0.39961,0.2449 -0.25845,0.31141 -0.48867,0.30915 -0.94327,-0.009 z"
       id="allowance" />
  </g>
</svg>
