<?xml version="1.0" encoding="UTF-8" standalone="no"?>
<svg
   xmlns:dc="http://purl.org/dc/elements/1.1/"
   xmlns:cc="http://creativecommons.org/ns#"
   xmlns:rdf="http://www.w3.org/1999/02/22-rdf-syntax-ns#"
   xmlns:svg="http://www.w3.org/2000/svg"
   xmlns="http://www.w3.org/2000/svg"
   id="svg2502"
   viewBox="0 0 43.747302 28.536917"
   version="1.1"
   height="28.536917"
   width="43.747303">
  <defs
     id="defs2506" />
  <metadata
     id="metadata2">
    <rdf:RDF>
      <cc:Work
         rdf:about="">
        <dc:format>image/svg+xml</dc:format>
        <dc:type
           rdf:resource="http://purl.org/dc/dcmitype/StillImage" />
        <dc:title />
      </cc:Work>
    </rdf:RDF>
  </metadata>
  <g
     transform="translate(-216.66165,-186.61371)"
     style="stroke-width:0.16327"
     id="g2500">
    <path
       d="m 216.85,197.03 c -0.31477,-0.31477 -0.227,-0.86081 0.20335,-1.2651 0.84051,-0.78961 1.3561,-3.6511 0.82523,-4.5798 -0.75169,-1.315 0.43957,-2.2115 1.2562,-0.9454 0.48977,0.75935 0.63313,1.8176 0.43066,3.1792 -0.10437,0.70203 -0.279,1.3866 -0.38803,1.5213 -0.10901,0.13469 -0.32568,0.50204 -0.48145,0.81632 -0.59065,1.1917 -1.3819,1.7375 -1.846,1.2735 z m 40.588,-5.0498 c 1.0928,-0.95948 1.8284,-2.34 1.8284,-3.4313 0,-0.53373 -0.068,-0.66301 -0.41879,-0.7964 -0.55479,-0.21092 -0.46021,-0.25056 -1.2756,0.53467 -0.82192,0.79154 -1.0789,1.5035 -1.0802,2.9932 -0.002,1.3874 0.0879,1.4534 0.94618,0.69985 z m -32.376,4.4001 c 0.62183,-0.98469 0.71688,-1.2008 1.0641,-2.4196 0.19187,-0.67347 0.44736,-1.4531 0.56777,-1.7326 0.49247,-1.143 0.5031,-2.8388 0.0178,-2.8388 -0.27412,0 -0.91432,1.4463 -0.91672,2.0711 -0.002,0.57592 -0.36054,1.7717 -0.77953,2.6013 -0.33299,0.6594 -0.65208,2.8386 -0.41538,2.8368 0.0745,0 0.28239,-0.23371 0.46198,-0.5181 z m 26.776,8.1112 c 0.35918,-0.12671 0.76327,-0.38547 0.89796,-0.57501 0.13469,-0.18955 0.44571,-0.56148 0.69115,-0.82653 0.94816,-1.0238 1.3188,-2.4111 1.239,-4.6376 -0.0677,-1.8889 -0.22315,-1.9307 -1.7077,-0.45907 -0.61623,0.61087 -1.8308,1.7607 -2.6991,2.5551 -1.6824,1.5394 -2.1969,2.312 -1.7179,2.5801 0.14785,0.0828 0.49443,0.47835 0.77015,0.8791 0.46155,0.67082 0.55574,0.72806 1.1874,0.72147 0.37732,-0.004 0.97992,-0.11084 1.3391,-0.23755 z m -34.327,2.7415 c -0.44149,-0.16232 -0.13243,-0.61158 1.6735,-2.4326 1.0326,-1.0413 1.8776,-1.9652 1.8776,-2.0531 0,-0.0879 0.25956,-0.55087 0.5768,-1.0288 0.58673,-0.88395 0.87001,-2.0445 1.2161,-4.9823 0.0688,-0.58368 0.28679,-1.4653 0.4845,-1.9592 0.73935,-1.8469 1.1287,-3.111 1.2418,-4.0314 0.17105,-1.3931 0.32322,-1.7102 1.3306,-2.7726 0.39875,-0.42054 1.0864,-0.49468 1.7565,-0.18938 0.30004,0.13671 0.48596,0.42071 0.66074,1.0092 0.28274,0.95206 0.29868,1.3413 0.0934,2.2793 -0.0824,0.37649 -0.24329,1.1254 -0.35752,1.6641 -0.11424,0.53877 -0.52438,1.6355 -0.9114,2.4371 -0.38704,0.80165 -0.70371,1.5657 -0.70371,1.698 0,0.13224 -0.35701,0.79881 -0.79335,1.4812 -0.43634,0.68239 -0.92227,1.4979 -1.0798,1.8122 -0.15759,0.31428 -0.46518,0.76263 -0.68353,0.99632 -0.31311,0.33514 -0.41709,0.66464 -0.49211,1.5594 -0.11088,1.3225 0.14902,2.0089 0.94375,2.4922 0.4544,0.27632 0.87331,0.29418 5.5778,0.23764 2.7976,-0.0336 5.1995,-0.0968 5.3375,-0.14034 0.46163,-0.1457 6.0978,-0.57379 7.5543,-0.57379 h 1.4384 l 0.87583,-0.85715 c 2.8767,-2.8153 4.6905,-4.506 5.2736,-4.9156 0.36537,-0.25667 0.75835,-0.64238 0.87329,-0.85714 0.11494,-0.21476 0.29579,-0.39048 0.40188,-0.39048 0.1061,0 0.51536,-0.40408 0.90945,-0.89796 0.39409,-0.49388 0.76986,-0.89796 0.83504,-0.89796 0.0652,0 0.37435,-0.22462 0.68702,-0.49915 0.45076,-0.39577 0.5881,-0.65786 0.66308,-1.2653 0.41552,-3.3661 0.73145,-4.6954 1.3228,-5.5656 0.21769,-0.32036 0.39579,-0.67868 0.39579,-0.7963 0,-0.2391 1.9733,-1.1798 2.4749,-1.1798 0.87419,0 1.4434,0.83471 1.4434,2.1166 0,0.86367 -0.13806,1.2145 -0.81633,2.0744 -1.568,1.9878 -1.9464,2.448 -2.4977,3.0372 -0.54377,0.58121 -0.63863,0.8052 -0.77046,1.8194 -0.0827,0.63613 -0.15359,1.5607 -0.15754,2.0546 -0.007,0.85499 -0.38975,2.9992 -0.81451,4.5611 -0.23793,0.87492 -1.2046,2.4313 -1.5982,2.5732 -0.15625,0.0564 -0.50402,0.25579 -0.77285,0.44322 -0.6679,0.46567 -1.4634,0.73225 -2.5413,0.85167 l -0.90764,0.10054 -0.92909,-0.91435 c -0.64266,-0.63247 -0.92909,-1.0413 -0.92909,-1.3261 0,-0.22646 -0.0868,-0.41175 -0.1928,-0.41175 -0.10605,0 -0.67543,0.51837 -1.2653,1.1519 -1.2672,1.361 -1.5264,1.4507 -4.2073,1.4564 -1.0058,0.002 -2.1898,0.0813 -2.6312,0.176 -1.0767,0.23092 -14.208,0.44988 -15.424,0.25719 -0.93321,-0.14788 -0.9516,-0.16147 -1.5102,-1.1146 -0.31102,-0.53067 -0.56548,-1.0344 -0.56548,-1.1194 0,-0.38192 -0.49003,-0.069 -1.5006,0.95832 -1.0893,1.1074 -2.4796,2.0161 -2.8668,1.8738 z m 23.184,7.8436 c -0.11224,-0.0453 -0.20408,-0.3284 -0.20408,-0.62915 0,-0.39607 0.0865,-0.57429 0.31383,-0.64644 0.40465,-0.12842 1.4821,-1.3186 1.4821,-1.6372 0,-0.13443 0.0599,-0.24442 0.13303,-0.24442 0.15667,0 0.6833,-1.0565 0.6833,-1.3708 0,-0.1193 -0.22041,-0.49425 -0.4898,-0.83324 -0.67798,-0.85313 -0.6408,-1.7143 0.074,-1.7143 1.1727,0 2.004,1.1768 1.8356,2.5986 -0.12333,1.0413 -1.1242,2.6495 -2.3411,3.7617 -0.87496,0.79967 -1.0587,0.88808 -1.4869,0.71531 z"
       id="almost" />
  </g>
</svg>
