<svg xmlns="http://www.w3.org/2000/svg" height="28.537" width="43.747"><path d="M.188 10.416c-.314-.314-.227-.86.204-1.265.84-.79 1.356-3.65.825-4.58-.752-1.315.44-2.211 1.256-.945.49.76.633 1.818.43 3.18-.104.701-.278 1.386-.387 1.52-.11.135-.326.503-.482.817-.59 1.192-1.382 1.737-1.846 1.273zm40.588-5.05c1.093-.959 1.829-2.34 1.829-3.43 0-.535-.068-.664-.419-.797-.555-.211-.46-.25-1.276.534-.822.792-1.079 1.504-1.08 2.994-.002 1.387.088 1.453.946.7zM8.4 9.766c.622-.984.717-1.2 1.064-2.419.192-.673.448-1.453.568-1.733.493-1.143.503-2.838.018-2.838-.274 0-.914 1.446-.917 2.07-.002.577-.36 1.772-.78 2.602-.332.66-.651 2.839-.415 2.837.075 0 .283-.234.462-.518zm26.776 8.112c.36-.127.764-.386.898-.575.135-.19.446-.562.691-.827.949-1.024 1.32-2.41 1.24-4.637-.068-1.89-.224-1.931-1.708-.46-.616.611-1.831 1.761-2.7 2.556-1.682 1.54-2.196 2.312-1.717 2.58.148.083.494.478.77.879.461.67.556.728 1.187.721a4.99 4.99 0 001.34-.237zM.85 20.619c-.441-.162-.132-.611 1.674-2.432C3.555 17.145 4.4 16.22 4.4 16.134c0-.088.26-.551.577-1.03.587-.883.87-2.044 1.216-4.982.07-.583.287-1.465.485-1.959.74-1.847 1.129-3.11 1.242-4.031.17-1.393.323-1.71 1.33-2.773.399-.42 1.087-.494 1.757-.19.3.138.486.422.66 1.01.283.952.3 1.341.094 2.28-.083.376-.243 1.125-.358 1.664-.114.538-.524 1.635-.911 2.437-.387.801-.704 1.565-.704 1.698 0 .132-.357.798-.793 1.48-.436.683-.922 1.499-1.08 1.813a5.101 5.101 0 01-.683.996c-.314.335-.418.665-.493 1.56-.11 1.322.15 2.009.944 2.492.455.276.874.294 5.578.238 2.798-.034 5.2-.097 5.338-.14.461-.146 6.097-.575 7.554-.575h1.438l.876-.857c2.877-2.815 4.69-4.506 5.274-4.915.365-.257.758-.643.873-.857.115-.215.296-.39.402-.39.106 0 .515-.405.91-.899.393-.494.77-.898.834-.898.066 0 .375-.224.687-.499.451-.396.588-.658.663-1.265.416-3.366.732-4.696 1.323-5.566.218-.32.396-.679.396-.796 0-.24 1.973-1.18 2.475-1.18.874 0 1.443.835 1.443 2.117 0 .863-.138 1.214-.816 2.074-1.568 1.988-1.946 2.448-2.498 3.037-.544.581-.638.805-.77 1.82-.083.636-.154 1.56-.158 2.054-.007.855-.39 3-.814 4.561-.238.875-1.205 2.432-1.598 2.574-.157.056-.504.255-.773.443-.668.465-1.464.732-2.542.851l-.907.1-.93-.913c-.642-.633-.928-1.042-.928-1.327 0-.226-.087-.411-.193-.411-.106 0-.676.518-1.266 1.152-1.267 1.36-1.526 1.45-4.207 1.456-1.006.002-2.19.081-2.631.176-1.077.23-14.208.45-15.424.257-.933-.148-.952-.161-1.51-1.114-.311-.531-.566-1.035-.566-1.12 0-.382-.49-.069-1.5.959-1.09 1.107-2.48 2.016-2.867 1.873zm23.184 7.844c-.112-.045-.204-.329-.204-.63 0-.395.087-.574.314-.646.405-.128 1.482-1.318 1.482-1.637 0-.134.06-.244.133-.244.157 0 .684-1.057.684-1.371 0-.12-.22-.494-.49-.833-.678-.853-.641-1.715.074-1.715 1.172 0 2.004 1.177 1.835 2.599-.123 1.041-1.124 2.65-2.34 3.762-.876.8-1.06.888-1.488.715z"/></svg>