<?xml version="1.0" encoding="UTF-8" standalone="no"?>
<svg
   xmlns:dc="http://purl.org/dc/elements/1.1/"
   xmlns:cc="http://creativecommons.org/ns#"
   xmlns:rdf="http://www.w3.org/1999/02/22-rdf-syntax-ns#"
   xmlns:svg="http://www.w3.org/2000/svg"
   xmlns="http://www.w3.org/2000/svg"
   id="svg2502"
   viewBox="0 0 24.938001 20.963661"
   version="1.1"
   height="20.963661"
   width="24.938002">
  <defs
     id="defs2506" />
  <metadata
     id="metadata2">
    <rdf:RDF>
      <cc:Work
         rdf:about="">
        <dc:format>image/svg+xml</dc:format>
        <dc:type
           rdf:resource="http://purl.org/dc/dcmitype/StillImage" />
        <dc:title />
      </cc:Work>
    </rdf:RDF>
  </metadata>
  <g
     transform="translate(-217.34693,-210.68863)"
     style="stroke-width:0.16327"
     id="g2500">
    <path
       d="m 217.44,222.62 c -0.16263,-0.35693 -0.1074,-0.50349 0.48601,-1.2894 0.36823,-0.48771 0.71765,-1.0786 0.7765,-1.3131 0.0589,-0.2345 0.17235,-0.46674 0.2522,-0.5161 0.0798,-0.0493 0.14518,-0.51285 0.14518,-1.03 0,-0.84345 -0.0588,-1.0064 -0.5713,-1.5822 -0.35863,-0.40296 -0.57135,-0.80905 -0.57143,-1.0909 -1.1e-4,-0.42023 0.0443,-0.44864 0.69375,-0.44361 0.67004,0.005 0.71631,0.0403 1.3469,1.0204 0.57887,0.89974 0.65276,1.1268 0.65048,1.9991 -0.002,0.8251 -0.11462,1.2113 -0.6961,2.3905 -0.96761,1.9622 -2.0869,2.7889 -2.5122,1.8554 z m 9.7162,-3.7946 c 0.41642,-0.52942 1.016,-1.923 1.3408,-3.1163 0.32526,-1.1949 0.31641,-2.9508 -0.0155,-3.0782 -0.27355,-0.10496 -0.89188,0.36524 -0.89188,0.67821 0,0.10698 -0.10616,0.40785 -0.23592,0.66858 -0.35814,0.71969 -0.90694,3.3765 -0.90694,4.3907 0,1.0136 0.18023,1.1297 0.7094,0.45699 z m 12.638,12.675 c -0.17134,-0.0998 -0.28571,-0.36191 -0.28571,-0.65478 0,-0.49686 0.54336,-2.4441 0.82766,-2.9661 0.086,-0.15786 0.20258,-0.8343 0.25912,-1.5032 0.11353,-1.343 -0.14701,-2.0465 -0.75788,-2.0465 -0.58506,0 -2.118,0.67138 -2.5739,1.1273 -0.24846,0.24846 -0.61143,0.5372 -0.80661,0.64165 -0.21,0.11239 -0.72138,0.93982 -1.2527,2.0268 -0.95225,1.9483 -1.444,2.6211 -1.8563,2.5399 -0.45525,-0.0897 -0.62888,-0.56158 -0.40735,-1.107 0.11034,-0.27167 0.28719,-0.73272 0.39298,-1.0246 0.10578,-0.29183 0.31861,-0.82449 0.47295,-1.1837 0.38124,-0.88731 0.53657,-2.2786 0.30308,-2.7148 -0.16387,-0.3062 -0.28259,-0.33562 -1.0076,-0.24974 -0.45203,0.0535 -0.97711,0.21193 -1.1668,0.352 -0.18972,0.14006 -0.78576,0.54775 -1.3245,0.90599 -0.53878,0.35823 -1.4939,1.1837 -2.1224,1.8344 -1.9127,1.9799 -2.8116,2.5661 -3.9348,2.5661 -0.80638,0 -1.6979,-0.69597 -1.6979,-1.3255 0,-0.38516 -0.0697,-0.47042 -0.38433,-0.47042 -0.38392,0 -1.2483,0.66219 -1.2483,0.95628 0,0.0856 -0.31224,0.33867 -0.69387,0.5625 -0.38164,0.22382 -0.95102,0.63895 -1.2653,0.92249 -0.89066,0.80356 -1.7176,1.0548 -1.9008,0.57747 -0.13803,-0.35967 0.64176,-1.2944 1.361,-1.6313 0.63383,-0.29694 4.1317,-3.6977 4.1317,-4.017 0,-0.0966 0.2445,-0.46134 0.54333,-0.81047 0.4943,-0.57747 0.57551,-0.83035 0.89974,-2.8015 0.19601,-1.1917 0.47182,-2.8646 0.61291,-3.7177 0.14108,-0.85307 0.31649,-1.9184 0.3898,-2.3674 0.0733,-0.44898 0.25419,-1.1469 0.40196,-1.551 0.14775,-0.40408 0.39247,-1.102 0.5438,-1.551 0.33638,-0.99803 0.57603,-1.2974 1.4553,-1.8182 0.64421,-0.38153 0.71163,-0.3904 1.1693,-0.15374 0.84418,0.43655 1.1296,0.96658 1.2579,2.3359 0.14675,1.5661 -0.0965,2.9594 -0.74498,4.2663 -0.26854,0.54126 -0.48827,1.0503 -0.48827,1.1312 0,0.0809 -0.14693,0.2801 -0.32653,0.44263 -0.17959,0.16253 -0.3268,0.41269 -0.32713,0.55592 0,0.14321 -0.16565,0.51755 -0.36735,0.83183 -0.42323,0.65945 -1.0878,1.8863 -1.5849,2.9258 -0.18981,0.39693 -0.59763,1.0012 -0.90629,1.3428 -0.30863,0.34163 -0.60573,0.82504 -0.66021,1.0742 -0.0545,0.24921 -0.171,0.64439 -0.25895,0.8782 -0.088,0.23382 -0.1371,0.78484 -0.10919,1.2245 0.0486,0.76516 0.0728,0.80152 0.56643,0.84942 0.4297,0.0417 0.70576,-0.11351 1.6554,-0.93085 0.62685,-0.5395 1.2782,-1.1498 1.4475,-1.3562 0.34183,-0.4168 2.2648,-2.0896 2.4021,-2.0896 0.048,0 0.35778,-0.18357 0.68841,-0.40793 0.33061,-0.22436 1.1134,-0.56051 1.7396,-0.74701 1.3822,-0.41162 1.9005,-0.26873 2.5063,0.69081 0.21783,0.34508 0.51552,0.6274 0.66153,0.6274 0.14603,0 0.89817,-0.30363 1.6714,-0.67471 1.0266,-0.49269 1.6702,-0.69321 2.3855,-0.74324 1.1126,-0.0778 1.1864,-0.0433 1.7752,0.82848 0.35538,0.5262 0.42901,0.82 0.42968,1.7143 0,0.5936 -0.10694,1.4099 -0.23865,1.814 -0.13168,0.40408 -0.43,1.3592 -0.66292,2.1224 -0.6159,2.0183 -0.88958,2.3535 -1.589,1.9461 z"
       id="alone" />
  </g>
</svg>
