<svg xmlns="http://www.w3.org/2000/svg" height="19.973" width="30.978"><path d="M.205 7.371C-.19 7.212 0 6.448.642 5.617c1.03-1.335 1.214-2.136.748-3.251-.278-.666-.199-1.022.255-1.14.57-.15.927.068 1.235.752.634 1.405.047 3.613-1.289 4.854-.662.615-.935.721-1.386.54zm11.339-.463c1.327-2.605 1.786-3.889 1.623-4.537-.286-1.14-1.191.005-1.912 2.415-.187.628-.476 1.51-.641 1.959a12.854 12.854 0 00-.402 1.277c-.088.401-.056.454.241.408.246-.038.552-.465 1.09-1.522zm8.83 13.053c-.026-.025-1.31-.084-2.856-.131-2.857-.087-5.854-.528-7.068-1.04-.684-.29-2.438-1.537-2.444-1.74-.003-.079-.244-.416-.536-.749-.291-.332-.66-.845-.818-1.139l-.288-.534-.447.293c-.246.161-.596.37-.778.466a4.23 4.23 0 00-.735.552c-.6.563-1.958 1.296-2.607 1.408-.73.125-1.055-.08-.923-.585.074-.282.44-.546 1.369-.988 1.412-.672 2.404-1.422 4.278-3.234 1.248-1.207 1.269-1.24 1.467-2.367.111-.629.336-1.51.5-1.96C8.915 7.048 9.796 4.209 9.8 3.99c.004-.241.967-2.14 1.476-2.908.22-.33.629-.729.91-.885.443-.244.583-.254 1.025-.071.54.224 1.266.983 1.481 1.55.21.554-.104 1.982-.724 3.288-.318.672-.58 1.283-.58 1.359 0 .283-.887 2.062-1.186 2.378a4.4 4.4 0 00-.566.817c-.14.268-.446.676-.68.906-.233.23-.706.727-1.05 1.104-.345.377-.697.686-.784.686-.28 0-.787 1.367-.791 2.135-.003.68.07.822.808 1.568 1.19 1.202 1.172 1.192 2.816 1.632 2.592.693 2.908.737 5.842.816 3.026.081 2.795.111 7.184-.936 1.46-.349 2.875-.876 3.79-1.412.951-.558 2.078-.777 2.201-.427.106.298-1.338 1.605-2.284 2.067-1.402.685-1.917.86-3.626 1.236-.898.197-1.963.464-2.367.594-.783.251-2.245.55-2.322.474z" stroke-width=".163"/></svg>