<svg xmlns="http://www.w3.org/2000/svg" height="20.964" width="24.938"><path d="M.093 11.931c-.163-.357-.107-.503.486-1.289.368-.488.718-1.079.777-1.313.058-.235.172-.467.252-.516.08-.05.145-.513.145-1.03 0-.844-.059-1.007-.571-1.582C.823 5.798.61 5.39.61 5.11c0-.42.045-.449.694-.444.67.005.716.04 1.347 1.02.579.9.653 1.127.65 2-.002.825-.114 1.21-.696 2.39-.967 1.962-2.087 2.789-2.512 1.855zM9.81 8.137c.417-.53 1.016-1.923 1.341-3.117.325-1.194.316-2.95-.015-3.078-.274-.105-.892.366-.892.678 0 .107-.106.408-.236.67-.358.719-.907 3.376-.907 4.39 0 1.013.18 1.13.71.457zm12.638 12.675c-.171-.1-.285-.362-.285-.655 0-.497.543-2.444.827-2.966.086-.158.203-.834.26-1.503.113-1.343-.148-2.047-.759-2.047-.585 0-2.118.672-2.573 1.127-.249.249-.612.538-.807.642-.21.113-.721.94-1.253 2.027-.952 1.948-1.444 2.621-1.856 2.54-.455-.09-.629-.562-.407-1.107.11-.272.287-.733.393-1.025.105-.292.318-.824.473-1.183.38-.888.536-2.28.303-2.715-.164-.306-.283-.336-1.008-.25-.452.054-.977.212-1.167.352-.19.14-.786.548-1.324.906-.54.358-1.494 1.184-2.123 1.834-1.912 1.98-2.811 2.566-3.934 2.566-.807 0-1.698-.695-1.698-1.325 0-.385-.07-.47-.385-.47-.384 0-1.248.662-1.248.956 0 .085-.312.339-.694.562a9.31 9.31 0 00-1.265.923c-.89.803-1.718 1.055-1.901.577-.138-.36.642-1.294 1.361-1.631.634-.297 4.132-3.698 4.132-4.017 0-.097.244-.461.543-.81.494-.578.576-.83.9-2.802a5289.543 5289.543 0 011.002-6.085c.074-.449.255-1.147.402-1.551.148-.404.393-1.102.544-1.551.337-.998.576-1.297 1.456-1.818.644-.382.711-.39 1.169-.154.844.437 1.13.967 1.258 2.336.147 1.566-.097 2.96-.745 4.266-.269.541-.488 1.05-.488 1.131 0 .081-.147.28-.327.443-.18.163-.327.413-.327.556 0 .143-.166.518-.368.832-.423.66-1.087 1.886-1.584 2.926a6.78 6.78 0 01-.907 1.342c-.308.342-.605.825-.66 1.075-.054.249-.17.644-.259.878-.088.234-.137.785-.109 1.224.049.765.073.802.566.85.43.041.706-.114 1.656-.931.627-.54 1.278-1.15 1.447-1.356.342-.417 2.265-2.09 2.402-2.09.048 0 .358-.184.689-.408.33-.224 1.113-.56 1.74-.747 1.382-.412 1.9-.269 2.506.69.218.346.515.628.661.628.146 0 .898-.303 1.672-.674 1.026-.493 1.67-.694 2.385-.744 1.113-.077 1.187-.043 1.775.829.356.526.43.82.43 1.714 0 .594-.107 1.41-.239 1.814-.131.404-.43 1.36-.663 2.123-.615 2.018-.89 2.353-1.589 1.946z"/></svg>