<?xml version="1.0" encoding="UTF-8" standalone="no"?>
<svg
   xmlns:dc="http://purl.org/dc/elements/1.1/"
   xmlns:cc="http://creativecommons.org/ns#"
   xmlns:rdf="http://www.w3.org/1999/02/22-rdf-syntax-ns#"
   xmlns:svg="http://www.w3.org/2000/svg"
   xmlns="http://www.w3.org/2000/svg"
   id="svg2502"
   viewBox="0 0 30.977973 19.972689"
   version="1.1"
   height="19.972689"
   width="30.977974">
  <defs
     id="defs2506" />
  <metadata
     id="metadata2">
    <rdf:RDF>
      <cc:Work
         rdf:about="">
        <dc:format>image/svg+xml</dc:format>
        <dc:type
           rdf:resource="http://purl.org/dc/dcmitype/StillImage" />
        <dc:title />
      </cc:Work>
    </rdf:RDF>
  </metadata>
  <g
     transform="translate(-216.65519,-235.29878)"
     style="stroke-width:0.16327"
     id="g2500">
    <path
       d="m 216.86,242.67 c -0.3943,-0.1591 -0.20366,-0.92348 0.43765,-1.7547 1.0297,-1.3346 1.2138,-2.1352 0.74764,-3.2509 -0.27821,-0.66587 -0.19871,-1.022 0.25458,-1.1405 0.56971,-0.149 0.92707,0.0688 1.2356,0.75311 0.63334,1.4046 0.0468,3.6132 -1.2892,4.854 -0.66225,0.61512 -0.93507,0.72119 -1.3863,0.5391 z m 11.339,-0.4633 c 1.3267,-2.6049 1.7859,-3.8886 1.623,-4.5374 -0.28591,-1.1391 -1.1911,0.005 -1.9114,2.415 -0.18784,0.62858 -0.47662,1.5102 -0.64171,1.9592 -0.16511,0.44898 -0.34577,1.0238 -0.40147,1.2775 -0.0881,0.40114 -0.0567,0.45425 0.24098,0.40816 0.2462,-0.0381 0.55224,-0.46531 1.0906,-1.5224 z m 8.8296,13.053 c -0.0253,-0.025 -1.3103,-0.0839 -2.8556,-0.13095 -2.8567,-0.0869 -5.8539,-0.52825 -7.0679,-1.0408 -0.68425,-0.28886 -2.4375,-1.5365 -2.4442,-1.7393 -0.003,-0.0789 -0.24353,-0.41575 -0.53537,-0.74854 -0.29183,-0.33278 -0.66022,-0.84537 -0.81864,-1.1391 l -0.28802,-0.53405 -0.44667,0.29287 c -0.24567,0.16106 -0.59583,0.37087 -0.77813,0.46624 -0.18232,0.0954 -0.51293,0.34343 -0.73469,0.55126 -0.60082,0.56304 -1.9583,1.2962 -2.6073,1.4081 -0.72968,0.12581 -1.0551,-0.0804 -0.92287,-0.58475 0.0739,-0.282 0.4399,-0.54616 1.369,-0.98825 1.412,-0.67182 2.4039,-1.4216 4.2777,-3.2334 1.2483,-1.207 1.2693,-1.2408 1.4677,-2.3674 0.1107,-0.62857 0.33564,-1.5102 0.49989,-1.9592 0.42668,-1.1664 1.308,-4.0052 1.3113,-4.2236 0.004,-0.24121 0.96752,-2.1398 1.4765,-2.9082 0.21905,-0.33068 0.62886,-0.72869 0.91071,-0.88447 0.44212,-0.24441 0.58256,-0.25421 1.0237,-0.0715 0.54022,0.22375 1.2662,0.98357 1.4819,1.551 0.21027,0.55305 -0.10437,1.9816 -0.72395,3.2869 -0.3189,0.67184 -0.57982,1.2833 -0.57982,1.3588 0,0.28297 -0.88766,2.0627 -1.1864,2.3787 -0.17089,0.18077 -0.4256,0.54817 -0.56601,0.81643 -0.14041,0.26826 -0.44642,0.67616 -0.68002,0.90645 -0.2336,0.23028 -0.70643,0.72711 -1.0507,1.1041 -0.34431,0.37696 -0.69688,0.68539 -0.78349,0.68539 -0.28082,0 -0.78732,1.3674 -0.79099,2.1355 -0.003,0.6799 0.0701,0.82217 0.80802,1.5679 1.1896,1.2022 1.1715,1.1917 2.8161,1.6316 2.5923,0.69348 2.9079,0.73758 5.8417,0.81637 3.0266,0.0813 2.7951,0.11145 7.1837,-0.93649 1.4597,-0.34855 2.8753,-0.87583 3.7897,-1.4116 0.95222,-0.55791 2.0783,-0.77646 2.2022,-0.4274 0.10595,0.29835 -1.3382,1.6055 -2.2843,2.0677 -1.4017,0.68467 -1.9172,0.86034 -3.6259,1.2356 -0.89796,0.19723 -1.9633,0.46461 -2.3674,0.59419 -0.78295,0.25105 -2.2448,0.54939 -2.3214,0.47371 z"
       id="along" />
  </g>
</svg>
