<svg xmlns="http://www.w3.org/2000/svg" height="17.695" width="33.376"><path d="M.2 6.857c-.373-.151-.21-.832.369-1.55.766-.95.759-.939 1.207-1.793.353-.673.38-.871.28-1.986C1.95.355 1.963.278 2.31.093c.328-.176.42-.134.886.406.668.772.737 1.19.406 2.432-.291 1.09-1 2.231-2.074 3.34-.644.664-.877.767-1.328.585zm31.172 5.7c.38-.446.654-1.266.596-1.779-.07-.604-.482-.608-.643-.007-.067.253-.195.547-.283.653-.088.107-.211.47-.274.806-.09.48-.063.612.123.612.131 0 .348-.128.481-.285zm-11.817 1.81c.67-.487 1.491-1.36 1.498-1.593.002-.082.378-.498.834-.924.62-.579.816-.871.775-1.156-.051-.364-.112-.381-1.287-.364-1.185.017-1.66.152-2.249.642-.15.125-.53.397-.844.606-.633.42-1.282 1.576-1.297 2.313-.005.262.119.618.276.792.387.427 1.479.276 2.294-.317zm9.176 3.256c-.344-.139-.642-.563-.648-.922-.004-.256-.088-.287-.536-.193-.292.06-1.395.15-2.451.199-2.2.101-2.47.006-3.096-1.089-.288-.505-.47-.651-.81-.652-.242 0-.482.066-.533.149-.26.422-1.708 1.033-2.632 1.112-.937.08-1.025.055-1.582-.433-.386-.34-.684-.811-.864-1.367-.152-.468-.333-.912-.403-.989-.2-.218-.74.025-1.416.635-.726.656-2.14 1.238-3.07 1.263-.36.009-.947-.126-1.306-.3-.628-.305-.655-.35-.703-1.188-.045-.797.004-.942.592-1.714.838-1.1 1.009-1.45 1.009-2.064 0-.608-.629-1.31-1.175-1.31-.205 0-.557.178-.782.395-1.723 1.658-2.366 2.218-2.546 2.218-.114 0-.342.167-.506.372-.163.204-.54.543-.837.752-.297.21-1.005.857-1.573 1.44-.923.945-1.07 1.04-1.379.874-.19-.101-.345-.318-.345-.48 0-.413.79-1.455 1.647-2.175C4.38 10.82 5.5 9.938 6.16 9.502c.381-.252.693-.516.693-.587 0-.07.369-.531.82-1.024l.818-.896.818.299c1.908.697 2.524 1.354 2.524 2.69 0 .77-.086.996-.713 1.885-.439.623-.72 1.207-.734 1.523-.021.484.009.51.55.49.748-.029 1.952-.608 3.274-1.576 1.171-.858 2.907-1.87 4.725-2.756l2.04-.995 1.225.186c1.677.254 1.688.252 1.981-.348.414-.846.93-2.258 1.148-3.143.229-.926.548-1.387.958-1.387.514 0 .662.376.49 1.241-.314 1.572-.68 2.5-1.926 4.881-.452.863-1.243 2.725-1.616 3.805l-.3.866.408.32c.355.278.601.311 1.878.251 1.887-.089 2.614-.23 2.918-.567.319-.351 1.735-3.73 1.735-4.138 0-.464.302-.945.593-.945.14 0 .45-.135.688-.3.686-.475.992-.531 1.491-.273.846.437.96 1.606.323 3.286-.224.592-2.27 2.674-2.626 2.674-.5 0-.665.434-.606 1.586.054 1.082.045 1.11-.353 1.14-.224.017-.518-.013-.653-.067z"/></svg>