<?xml version="1.0" encoding="UTF-8" standalone="no"?>
<svg
   xmlns:dc="http://purl.org/dc/elements/1.1/"
   xmlns:cc="http://creativecommons.org/ns#"
   xmlns:rdf="http://www.w3.org/1999/02/22-rdf-syntax-ns#"
   xmlns:svg="http://www.w3.org/2000/svg"
   xmlns="http://www.w3.org/2000/svg"
   id="svg2502"
   viewBox="0 0 33.375724 17.694954"
   version="1.1"
   height="17.694954"
   width="33.375725">
  <defs
     id="defs2506" />
  <metadata
     id="metadata2">
    <rdf:RDF>
      <cc:Work
         rdf:about="">
        <dc:format>image/svg+xml</dc:format>
        <dc:type
           rdf:resource="http://purl.org/dc/dcmitype/StillImage" />
        <dc:title />
      </cc:Work>
    </rdf:RDF>
  </metadata>
  <g
     transform="translate(-217.79958,-258.83342)"
     style="stroke-width:0.16327"
     id="g2500">
    <path
       d="m 218,265.69 c -0.37312,-0.15055 -0.21114,-0.83184 0.3685,-1.5499 0.76624,-0.94921 0.75884,-0.93826 1.2072,-1.7929 0.3529,-0.67275 0.38079,-0.87079 0.27972,-1.9862 -0.1063,-1.173 -0.0928,-1.2493 0.25375,-1.4348 0.32825,-0.17568 0.41971,-0.13378 0.88621,0.40586 0.66787,0.77262 0.73747,1.1896 0.40594,2.4321 -0.29084,1.0901 -0.99946,2.2315 -2.0737,3.34 -0.64405,0.66462 -0.8772,0.7675 -1.3276,0.58575 z m 31.172,5.7 c 0.37933,-0.44544 0.65396,-1.2658 0.59535,-1.7784 -0.0691,-0.60385 -0.48172,-0.60841 -0.64253,-0.007 -0.0676,0.25268 -0.19486,0.54656 -0.28284,0.65306 -0.088,0.10651 -0.21148,0.46916 -0.2744,0.80589 -0.0896,0.47959 -0.0629,0.61225 0.12334,0.61225 0.13078,0 0.34727,-0.12858 0.48108,-0.28572 z m -11.817,1.8098 c 0.66878,-0.48624 1.4907,-1.3599 1.4975,-1.5919 0.002,-0.0822 0.37771,-0.49807 0.83399,-0.92419 0.61979,-0.57883 0.8159,-0.87137 0.77551,-1.1567 -0.0515,-0.36379 -0.11264,-0.38108 -1.2874,-0.364 -1.1854,0.0172 -1.6601,0.1528 -2.249,0.64228 -0.15004,0.12472 -0.52995,0.39727 -0.84423,0.6057 -0.63316,0.4199 -1.2816,1.5768 -1.2965,2.3131 -0.005,0.26232 0.11874,0.61879 0.27564,0.79216 0.3866,0.42718 1.4788,0.27652 2.2944,-0.31647 z m 9.1754,3.2564 c -0.3439,-0.13871 -0.64175,-0.56235 -0.64787,-0.92149 -0.004,-0.25652 -0.0884,-0.28692 -0.53581,-0.19379 -0.29183,0.0607 -1.3949,0.15031 -2.4513,0.19905 -2.1989,0.10145 -2.4704,0.006 -3.0954,-1.0884 -0.28825,-0.50476 -0.47032,-0.65116 -0.81104,-0.65214 -0.24163,0 -0.48111,0.0663 -0.53215,0.14891 -0.26072,0.42185 -1.7085,1.0333 -2.6326,1.1118 -0.93619,0.0796 -1.025,0.0552 -1.5812,-0.43318 -0.386,-0.3389 -0.68446,-0.81062 -0.86492,-1.367 -0.15156,-0.46725 -0.3326,-0.91193 -0.40233,-0.9882 -0.19948,-0.21822 -0.74084,0.0244 -1.4161,0.63471 -0.7259,0.65604 -2.141,1.238 -3.07,1.2626 -0.35918,0.009 -0.94694,-0.12535 -1.3061,-0.29972 -0.62766,-0.30467 -0.65501,-0.35087 -0.70289,-1.1877 -0.0456,-0.79721 0.004,-0.94192 0.59177,-1.7138 0.83804,-1.1012 1.0091,-1.4511 1.0091,-2.0643 0,-0.60831 -0.62887,-1.3094 -1.1745,-1.3094 -0.20514,0 -0.55747,0.1775 -0.78292,0.39446 -1.7228,1.6578 -2.3656,2.2178 -2.5456,2.2178 -0.11436,0 -0.34184,0.16729 -0.5055,0.37176 -0.16365,0.20446 -0.5405,0.54304 -0.83743,0.75241 -0.29693,0.20935 -1.0049,0.85727 -1.5733,1.4398 -0.92236,0.94532 -1.0705,1.0393 -1.3785,0.8745 -0.18978,-0.10157 -0.34505,-0.318 -0.34505,-0.48095 0,-0.41274 0.78949,-1.4549 1.6469,-2.1741 1.5942,-1.3371 2.7143,-2.2183 3.3735,-2.654 0.38163,-0.25223 0.69388,-0.51638 0.69388,-0.587 0,-0.0706 0.36854,-0.53165 0.81895,-1.0245 l 0.81897,-0.89609 0.81804,0.29902 c 1.9073,0.69715 2.5236,1.3543 2.5236,2.691 0,0.7683 -0.086,0.99558 -0.71265,1.8842 -0.43912,0.62268 -0.72111,1.207 -0.7347,1.5225 -0.0208,0.48428 0.009,0.51079 0.54939,0.49025 0.74893,-0.0285 1.9525,-0.60766 3.2751,-1.5762 1.1712,-0.85756 2.907,-1.87 4.7249,-2.7558 l 2.0408,-0.99443 1.2245,0.18534 c 1.6769,0.25381 1.6881,0.25185 1.9808,-0.34743 0.41344,-0.84637 0.92913,-2.2586 1.1477,-3.1429 0.22884,-0.92589 0.54781,-1.3878 0.9584,-1.3878 0.51333,0 0.66149,0.37613 0.48911,1.2416 -0.31315,1.5722 -0.67913,2.4998 -1.9256,4.8809 -0.45152,0.86253 -1.2426,2.7249 -1.6161,3.8049 l -0.29961,0.86612 0.40816,0.32018 c 0.35463,0.27817 0.6009,0.31108 1.8776,0.25087 1.8867,-0.089 2.6141,-0.2302 2.9186,-0.56672 0.31833,-0.35174 1.7345,-3.7309 1.7345,-4.1388 0,-0.46315 0.30217,-0.94473 0.59278,-0.94473 0.14013,0 0.44978,-0.13499 0.68813,-0.29997 0.68614,-0.47492 0.9926,-0.53106 1.4914,-0.27314 0.8453,0.43712 0.96016,1.6064 0.32279,3.2864 -0.22446,0.59159 -2.2692,2.6739 -2.6261,2.6742 -0.49902,0 -0.66448,0.43322 -0.6064,1.5861 0.0544,1.0811 0.0459,1.1088 -0.35236,1.1396 -0.22449,0.0173 -0.51837,-0.0129 -0.65306,-0.0673 z"
       id="already_abv" />
  </g>
</svg>
