<svg xmlns="http://www.w3.org/2000/svg" height="17.697" width="33.373"><path d="M.2 6.857c-.373-.15-.21-.832.369-1.55.766-.95.759-.939 1.207-1.793.353-.673.38-.871.28-1.986C1.949.355 1.963.278 2.309.093c.329-.176.42-.134.887.406.668.772.737 1.19.406 2.432-.291 1.09-1 2.23-2.074 3.34-.644.664-.878.767-1.328.585zm31.17 5.7c.38-.446.654-1.266.596-1.778-.07-.604-.482-.609-.643-.007-.067.252-.195.546-.282.653-.088.106-.212.47-.275.806-.09.48-.063.612.123.612.131 0 .348-.129.482-.286zm-11.82 1.81c.67-.486 1.491-1.36 1.498-1.592.002-.082.378-.498.834-.924.62-.58.816-.872.776-1.157-.052-.364-.113-.382-1.287-.364-1.185.017-1.66.152-2.25.642-.15.125-.53.397-.843.606-.633.42-1.282 1.577-1.296 2.313-.005.262.118.618.275.792.387.427 1.48.276 2.294-.317zm9.175 3.256c-.343-.139-.641-.563-.647-.922-.004-.256-.089-.287-.536-.194-.292.061-1.395.15-2.451.2-2.2.1-2.47.005-3.095-1.089-.288-.504-.47-.65-.811-.652-.242 0-.481.067-.532.15-.261.421-1.708 1.032-2.633 1.111-.937.08-1.025.055-1.581-.433-.386-.339-.685-.81-.865-1.367-.152-.467-.333-.912-.403-.988-.2-.218-.74.024-1.416.635-.726.656-2.14 1.238-3.07 1.263-.359.009-.947-.126-1.306-.3-.627-.305-.655-.351-.703-1.188-.045-.797.004-.942.592-1.714.838-1.101 1.01-1.451 1.01-2.064 0-.608-.63-1.31-1.175-1.31-.205 0-.557.178-.783.395-1.723 1.658-2.366 2.218-2.546 2.218-.114 0-.341.168-.505.372-.164.205-.54.543-.838.753-.296.209-1.005.857-1.573 1.44-.922.945-1.07 1.039-1.378.874-.19-.102-.345-.318-.345-.48 0-.414.79-1.456 1.647-2.175 1.594-1.337 2.714-2.218 3.374-2.654.382-.252.694-.516.694-.587 0-.07.369-.532.82-1.024l.818-.896.818.299c1.907.697 2.524 1.354 2.524 2.691 0 .768-.086.996-.712 1.884-.44.623-.721 1.207-.735 1.523-.02.484.009.51.55.49.748-.028 1.951-.608 3.274-1.576 1.171-.857 2.907-1.87 4.725-2.756l2.041-.994 1.224.185c1.677.254 1.688.252 1.981-.347.414-.847.93-2.26 1.148-3.143.23-.926.548-1.388.959-1.388.513 0 .661.376.489 1.242-.313 1.572-.68 2.5-1.926 4.88-.452.863-1.243 2.726-1.616 3.806l-.3.866.409.32c.354.278.6.311 1.878.25 1.887-.088 2.614-.23 2.919-.566.318-.352 1.734-3.73 1.734-4.139 0-.463.302-.945.592-.945.14 0 .45-.135.688-.3.687-.474.993-.53 1.491-.273.846.437.96 1.606.323 3.286-.224.592-2.269 2.674-2.626 2.674-.499 0-.664.434-.606 1.586.054 1.081.046 1.11-.353 1.14-.224.018-.518-.013-.653-.067z" stroke-width=".163"/></svg>