<?xml version="1.0" encoding="UTF-8" standalone="no"?>
<svg
   xmlns:dc="http://purl.org/dc/elements/1.1/"
   xmlns:cc="http://creativecommons.org/ns#"
   xmlns:rdf="http://www.w3.org/1999/02/22-rdf-syntax-ns#"
   xmlns:svg="http://www.w3.org/2000/svg"
   xmlns="http://www.w3.org/2000/svg"
   id="svg2502"
   viewBox="0 0 26.121968 25.594427"
   version="1.1"
   height="25.594427"
   width="26.121969">
  <defs
     id="defs2506" />
  <metadata
     id="metadata2">
    <rdf:RDF>
      <cc:Work
         rdf:about="">
        <dc:format>image/svg+xml</dc:format>
        <dc:type
           rdf:resource="http://purl.org/dc/dcmitype/StillImage" />
        <dc:title />
      </cc:Work>
    </rdf:RDF>
  </metadata>
  <g
     transform="translate(-216.16344,-282.46934)"
     style="stroke-width:0.16327"
     id="g2500">
    <path
       d="m 216.42,293.46 c -0.14111,-0.14111 -0.25656,-0.29485 -0.25656,-0.34165 0,-0.21479 1.2875,-1.6899 1.8367,-2.1044 0.71549,-0.53997 0.79526,-1.0709 0.28631,-1.9057 -0.41229,-0.67624 -0.41654,-1.2099 -0.0113,-1.4268 0.49902,-0.26707 0.72313,-0.20576 1.3515,0.36981 0.77868,0.71324 1.0333,1.6186 0.71166,2.5303 -0.45184,1.2806 -2.4828,3.135 -3.4336,3.135 -0.1255,0 -0.34366,-0.11545 -0.48477,-0.25656 z m 15.267,-3.1268 c 0.093,-0.24452 0.27582,-0.55677 0.40632,-0.69388 0.50834,-0.53407 1.3195,-1.9169 1.5349,-2.6166 0.12439,-0.40408 0.29118,-0.82145 0.37066,-0.92749 0.0795,-0.10604 0.18671,-0.60196 0.23832,-1.102 0.088,-0.85236 0.0717,-0.90925 -0.25956,-0.90925 -0.22469,0 -0.40874,0.14549 -0.50528,0.3994 -0.0835,0.21967 -0.37557,0.70825 -0.64901,1.0857 -0.27345,0.37747 -0.49717,0.76821 -0.49717,0.86831 0,0.10012 -0.14694,0.45616 -0.32653,0.79125 -0.1796,0.33507 -0.32654,0.75368 -0.32654,0.93024 0,0.17654 -0.14847,0.71783 -0.32994,1.2028 -0.31335,0.83753 -0.30318,1.4161 0.0249,1.4161 0.0824,0 0.22591,-0.20006 0.31887,-0.4446 z m 6.612,9.1923 c 0.4821,-0.33767 1.5428,-2.4553 1.5839,-3.1621 0.0334,-0.57529 0.0111,-0.60423 -0.44014,-0.5716 -0.27406,0.0198 -0.69218,0.2445 -0.98737,0.53061 -0.28161,0.27294 -0.59361,0.49626 -0.69335,0.49626 -0.32681,0 -2.0072,1.4805 -2.0072,1.7684 0,0.3598 1.2413,1.1704 1.7923,1.1704 0.23142,0 0.56979,-0.10437 0.7519,-0.23193 z m -1.3171,1.5922 c -1.1325,-0.34739 -1.6224,-0.74249 -1.877,-1.5138 -0.12033,-0.36457 -0.28449,-0.66285 -0.36483,-0.66285 -0.0804,0 -0.62809,0.29071 -1.2172,0.64601 -1.434,0.86486 -2.9929,1.374 -3.8955,1.2723 -1.9054,-0.21476 -2.8523,-1.1164 -2.8523,-2.716 0,-0.61809 -0.0611,-0.83491 -0.23527,-0.83491 -0.12939,0 -0.2809,0.0738 -0.33669,0.16412 -0.26595,0.43032 -3.2237,2.5972 -4.1828,3.0643 -1.5301,0.7453 -2.1024,0.663 -2.1024,-0.30234 0,-0.50981 0.22216,-0.73149 0.89888,-0.89691 0.93915,-0.22957 2.4189,-1.0498 3.2874,-1.8222 0.48144,-0.42815 1.3044,-1.1642 1.8287,-1.6356 0.52433,-0.47143 1.0202,-0.8575 1.1018,-0.85796 0.0817,0 0.34874,-0.16574 0.59344,-0.36734 0.31615,-0.26043 0.605,-0.83914 0.99784,-1.9992 0.3041,-0.89796 0.74673,-2.1639 0.98363,-2.8132 0.23691,-0.64934 0.43539,-1.3106 0.44109,-1.4694 0.006,-0.15883 0.22276,-0.69287 0.48237,-1.1867 0.25962,-0.49388 0.72965,-1.4125 1.0445,-2.0414 0.75317,-1.5043 1.7858,-2.525 2.6751,-2.6443 0.57574,-0.0772 0.71977,-0.029 1.083,0.36298 0.49388,0.5329 0.53786,1.1854 0.17406,2.5821 -0.13469,0.51712 -0.2449,1.1424 -0.2449,1.3894 0,0.26973 -0.28037,0.83724 -0.70183,1.4206 -0.38601,0.5343 -0.80292,1.2286 -0.92646,1.5429 -0.39155,0.99602 -1.1892,2.0508 -2.8683,3.7929 -0.8843,0.91751 -1.049,1.2019 -1.5918,2.7478 -0.70114,1.997 -0.72828,2.2773 -0.26116,2.6993 0.47282,0.42715 1.9612,0.39675 2.5694,-0.0525 0.23829,-0.176 0.69909,-0.36976 1.024,-0.43061 0.32491,-0.0608 0.80246,-0.29267 1.0612,-0.5152 0.25875,-0.22253 0.5883,-0.40468 0.73233,-0.4048 0.14403,-1.1e-4 0.44183,-0.1655 0.6618,-0.36754 0.21995,-0.20204 0.59036,-0.4675 0.82311,-0.5899 0.23277,-0.1224 0.67966,-0.47164 0.9931,-0.77608 0.31342,-0.30444 0.81701,-0.65988 1.1191,-0.78987 0.30207,-0.13001 0.94694,-0.60689 1.433,-1.0598 0.48612,-0.45287 1.1263,-0.91105 1.4227,-1.0182 0.46634,-0.16862 0.58381,-0.15412 0.87329,0.10785 0.28621,0.25902 0.31904,0.42245 0.22753,1.1327 -0.0588,0.45651 -0.24338,1.262 -0.41017,1.7901 -0.16679,0.52802 -0.30327,1.0677 -0.30327,1.1993 0,0.1316 -0.10369,0.43425 -0.2304,0.6726 -0.12672,0.23836 -0.31356,0.65377 -0.4152,0.92316 -0.28439,0.75374 -2.0635,2.5444 -2.5029,2.5192 -0.10912,-0.006 -0.56457,-0.12369 -1.0121,-0.26097 z m 1.7525,6.7223 c -0.11225,-0.12749 -0.20408,-0.35627 -0.20408,-0.50842 0,-0.35058 0.99469,-1.6846 1.2611,-1.6913 0.55141,-0.0139 0.94137,-1.999 0.63146,-3.2145 -0.11153,-0.43741 -0.0773,-0.54454 0.22581,-0.70676 0.30162,-0.16142 0.45687,-0.12527 0.99698,0.23216 0.59842,0.39602 0.63974,0.47465 0.63974,1.2174 0,1.1227 -0.5377,2.4086 -1.5264,3.6503 -0.26812,0.33673 -0.57401,0.61224 -0.67976,0.61224 -0.10574,0 -0.32524,0.14694 -0.48777,0.32653 -0.34525,0.38151 -0.57437,0.4035 -0.85714,0.0823 z"
       id="also" />
  </g>
</svg>
