<svg xmlns="http://www.w3.org/2000/svg" height="25.594" width="26.122"><path d="M.257 10.99C.115 10.85 0 10.697 0 10.65c0-.215 1.287-1.69 1.837-2.104.715-.54.795-1.071.286-1.906-.412-.676-.417-1.21-.011-1.427.499-.267.723-.206 1.351.37.779.713 1.034 1.619.712 2.53-.452 1.28-2.483 3.135-3.434 3.135-.125 0-.343-.115-.485-.256zm15.267-3.126c.093-.245.275-.557.406-.694.508-.534 1.32-1.917 1.535-2.617.124-.404.291-.821.37-.927.08-.106.187-.602.239-1.102.088-.852.071-.91-.26-.91-.224 0-.409.146-.505.4-.084.22-.376.708-.65 1.086-.273.377-.496.768-.496.868 0 .1-.147.456-.327.791-.18.335-.326.754-.326.93 0 .177-.149.718-.33 1.203-.314.838-.303 1.416.025 1.416.082 0 .226-.2.318-.444zm6.612 9.192c.482-.338 1.542-2.455 1.583-3.162.034-.575.012-.604-.44-.572-.274.02-.692.245-.987.531-.282.273-.594.496-.693.496-.327 0-2.008 1.48-2.008 1.769 0 .36 1.242 1.17 1.793 1.17.231 0 .57-.104.752-.232zm-1.318 1.592c-1.132-.347-1.622-.742-1.877-1.513-.12-.365-.284-.663-.364-.663-.08 0-.628.29-1.218.646-1.434.865-2.992 1.374-3.895 1.272-1.905-.215-2.852-1.116-2.852-2.716 0-.618-.061-.835-.236-.835-.129 0-.28.074-.336.164-.266.43-3.224 2.597-4.183 3.065-1.53.745-2.103.663-2.103-.303 0-.51.223-.731.9-.897.938-.23 2.418-1.05 3.287-1.822.481-.428 1.304-1.164 1.828-1.636.525-.471 1.02-.857 1.102-.857.082 0 .349-.166.594-.368.316-.26.605-.839.998-1.999.304-.898.746-2.164.983-2.813.237-.65.436-1.31.441-1.47.006-.158.223-.692.483-1.186s.73-1.413 1.044-2.042C16.167 1.171 17.2.15 18.09.031c.576-.077.72-.029 1.083.363.494.533.538 1.185.174 2.582-.134.517-.245 1.142-.245 1.39 0 .27-.28.837-.701 1.42-.386.534-.803 1.229-.927 1.543-.391.996-1.19 2.05-2.868 3.793-.885.917-1.05 1.202-1.592 2.748-.701 1.997-.728 2.277-.261 2.699.473.427 1.961.397 2.57-.053.238-.176.698-.37 1.023-.43a2.696 2.696 0 001.061-.515c.26-.223.589-.405.733-.405.144 0 .442-.166.662-.368.22-.202.59-.467.823-.59.232-.122.68-.471.993-.776.313-.304.817-.66 1.119-.79.302-.13.947-.606 1.433-1.06.486-.452 1.126-.91 1.423-1.018.466-.168.583-.154.873.108.286.26.319.423.227 1.133a12.591 12.591 0 01-.41 1.79c-.167.528-.303 1.068-.303 1.2 0 .131-.104.434-.23.672a9.598 9.598 0 00-.416.923c-.284.754-2.063 2.545-2.503 2.52-.109-.007-.564-.124-1.012-.262zm1.753 6.723a.903.903 0 01-.204-.509c0-.35.995-1.684 1.261-1.691.551-.014.941-2 .631-3.215-.111-.437-.077-.544.226-.706.302-.162.457-.126.997.232.599.396.64.474.64 1.217 0 1.123-.538 2.409-1.526 3.65-.269.337-.574.613-.68.613-.106 0-.325.147-.488.326-.345.382-.574.404-.857.083z"/></svg>