<svg xmlns="http://www.w3.org/2000/svg" height="24.45" width="28.571"><path d="M0 11.178c0-.359.16-.725.483-1.102.266-.311.486-.62.49-.686.004-.066.232-.486.508-.934a4.008 4.008 0 00.587-1.676c.078-.775.036-.93-.42-1.554-.602-.825-.614-.927-.142-1.257.513-.36.684-.324 1.315.276.815.775.893 1.027.775 2.507-.08 1.004-.192 1.432-.463 1.777-.197.25-.357.581-.357.737 0 .155-.386.765-.858 1.356-.732.916-.934 1.074-1.387 1.083-.493.009-.531-.029-.531-.527zm11.14-2.851c.139-.158.305-.535.37-.839.064-.304.41-1.125.77-1.824.648-1.265.65-1.279.512-2.468C12.661 2.066 12.63 2 12.245 2c-.387 0-.435.108-.917 2.04-.539 2.166-.85 4.572-.592 4.572.084 0 .265-.128.404-.285zM1.038 20.776c-.125-.327.067-1.061.278-1.061.092 0 .733-.481 1.425-1.068.692-.588 1.541-1.304 1.886-1.592.345-.288.928-.928 1.295-1.422.366-.494.939-1.211 1.272-1.594.529-.607.63-.863.8-2.02.106-.73.268-1.518.36-1.754.427-1.094.886-3.016 1.36-5.7.414-2.338.695-3.086 1.426-3.789.718-.69 1.396-.934 1.878-.676.167.09.517.584.778 1.1.417.825.475 1.114.481 2.43.007 1.364-.031 1.554-.44 2.174-.248.374-.45.784-.45.911 0 .128-.22.65-.49 1.163-.269.512-.49 1.002-.49 1.089 0 .086-.175.391-.389.677-.214.286-.437.68-.497.876-.137.453-1.71 2.852-2.022 3.086-.266.199-.514 1.296-.626 2.762-.07.91-.038 1.023.436 1.592.48.576.564.612 1.437.608 1.077-.004 2.12-.42 2.857-1.14.275-.27.577-.488.672-.488.213.002 2.54-2.448 2.54-2.673 0-.089.288-.754.638-1.48.773-1.596 1.364-3.107 1.73-4.42.151-.538.371-1.273.49-1.632.117-.359.26-.974.316-1.367.19-1.33.595-1.65 1.229-.97.446.48.43 1.32-.064 3.333a81.114 81.114 0 00-.572 2.482c-.21 1.044-.23 2.808-.03 2.808.078 0 .545-.185 1.038-.41 1.021-.468 2.666-.72 4.732-.728 1.32-.005 1.444.023 1.677.38.608.927-.071 1.203-3.183 1.293-1.714.049-2.504.138-2.86.322-.543.28-1.548 1.576-1.548 1.995 0 .352-.775 3.099-1.08 3.83-.26.621-.482.822-.915.826-.663.006-.658-.498.034-3.806.24-1.15.214-2.396-.05-2.396-.12 0-.61.496-1.093 1.102-2.257 2.837-4.906 4.638-6.851 4.655-1.66.016-2.611-.813-2.941-2.561-.117-.62-.286-1.074-.4-1.074-.109 0-.755.533-1.436 1.184-1.445 1.38-3.108 2.892-3.503 3.184-.38.28-1.02.256-1.135-.041zm23.974 3.478a.72.72 0 01-.196-.434c0-.23.573-1.068 1.182-1.73.161-.177.367-.596.458-.933.09-.337.236-.656.324-.71.087-.054.159-.386.159-.738 0-.503-.088-.697-.41-.908-.825-.54-.661-1.535.252-1.535.338 0 .63.196 1.123.758.57.646.667.865.667 1.491 0 1.46-2.156 4.935-3.063 4.935a.804.804 0 01-.496-.196z" stroke-width=".163"/></svg>