<?xml version="1.0" encoding="UTF-8" standalone="no"?>
<svg
   xmlns:dc="http://purl.org/dc/elements/1.1/"
   xmlns:cc="http://creativecommons.org/ns#"
   xmlns:rdf="http://www.w3.org/1999/02/22-rdf-syntax-ns#"
   xmlns:svg="http://www.w3.org/2000/svg"
   xmlns="http://www.w3.org/2000/svg"
   id="svg2502"
   viewBox="0 0 28.57125 24.449535"
   version="1.1"
   height="24.449535"
   width="28.571251">
  <defs
     id="defs2506" />
  <metadata
     id="metadata2">
    <rdf:RDF>
      <cc:Work
         rdf:about="">
        <dc:format>image/svg+xml</dc:format>
        <dc:type
           rdf:resource="http://purl.org/dc/dcmitype/StillImage" />
        <dc:title />
      </cc:Work>
    </rdf:RDF>
  </metadata>
  <g
     transform="translate(-216.64994,-306.32237)"
     style="stroke-width:0.16327"
     id="g2500">
    <path
       d="m 216.65,317.5 c 0,-0.3586 0.16037,-0.72441 0.48316,-1.102 0.26573,-0.31089 0.48614,-0.61924 0.4898,-0.68525 0.004,-0.066 0.23215,-0.4865 0.50777,-0.93447 0.32671,-0.53095 0.53115,-1.1143 0.58735,-1.6759 0.0776,-0.77505 0.0355,-0.9309 -0.41951,-1.5539 -0.60283,-0.82543 -0.61439,-0.9272 -0.14286,-1.2575 0.51314,-0.35941 0.68376,-0.32354 1.3149,0.27646 0.81564,0.77538 0.89332,1.0266 0.77516,2.5065 -0.0802,1.0044 -0.19162,1.4322 -0.46293,1.7771 -0.19654,0.24985 -0.35734,0.58144 -0.35734,0.73685 0,0.15541 -0.38572,0.76563 -0.85715,1.356 -0.73213,0.91686 -0.93453,1.0748 -1.3878,1.0832 -0.49301,0.009 -0.53061,-0.0283 -0.53061,-0.52706 z m 11.14,-2.851 c 0.13863,-0.15714 0.30497,-0.53441 0.36965,-0.83836 0.0647,-0.30397 0.41107,-1.125 0.76973,-1.8245 0.64843,-1.2647 0.65133,-1.2786 0.5128,-2.4678 -0.13159,-1.1296 -0.16192,-1.1959 -0.54748,-1.1959 -0.38649,0 -0.43513,0.10831 -0.91635,2.0408 -0.53904,2.1647 -0.85085,4.5714 -0.59227,4.5714 0.0836,0 0.26531,-0.12857 0.40392,-0.28572 z m -10.102,12.449 c -0.1252,-0.32627 0.067,-1.0609 0.2776,-1.0609 0.0919,0 0.73331,-0.48069 1.4255,-1.0682 0.69214,-0.58749 1.5409,-1.3038 1.8861,-1.5918 0.34521,-0.28801 0.9277,-0.92774 1.2944,-1.4216 0.36674,-0.49388 0.93925,-1.2111 1.2722,-1.5938 0.5288,-0.60777 0.62996,-0.86357 0.79919,-2.0209 0.10656,-0.72877 0.26893,-1.5177 0.36081,-1.7531 0.42709,-1.0943 0.8857,-3.016 1.3604,-5.7005 0.41342,-2.3378 0.69503,-3.0859 1.426,-3.7884 0.71797,-0.68988 1.3962,-0.93401 1.8782,-0.67605 0.16692,0.0893 0.51673,0.5839 0.77737,1.0991 0.41753,0.82524 0.47482,1.1144 0.48161,2.431 0.007,1.3636 -0.0316,1.5539 -0.44127,2.1736 -0.24694,0.37355 -0.44898,0.78351 -0.44898,0.91101 0,0.12751 -0.22041,0.65082 -0.48979,1.1629 -0.26939,0.51212 -0.4898,1.002 -0.4898,1.0887 0,0.0867 -0.17515,0.39144 -0.38921,0.67729 -0.21407,0.28584 -0.43779,0.67988 -0.49717,0.87562 -0.13757,0.45354 -1.7094,2.852 -2.0226,3.0864 -0.26544,0.1986 -0.51391,1.2955 -0.62562,2.7618 -0.0693,0.90993 -0.0383,1.0231 0.43577,1.5918 0.48088,0.57685 0.56397,0.61203 1.4373,0.60865 1.0773,-0.004 2.1202,-0.42067 2.8569,-1.1409 0.27461,-0.26849 0.57717,-0.48764 0.67237,-0.487 0.21235,0.002 2.5404,-2.4482 2.5404,-2.6731 0,-0.0888 0.28696,-0.75452 0.63768,-1.4794 0.7724,-1.5965 1.364,-3.1077 1.7305,-4.4201 0.15045,-0.53878 0.37016,-1.2735 0.48826,-1.6326 0.11809,-0.35919 0.26074,-0.97452 0.317,-1.3674 0.19037,-1.3297 0.59505,-1.649 1.2284,-0.96918 0.44637,0.4791 0.43028,1.32 -0.0637,3.3328 -0.21814,0.88878 -0.47528,2.0053 -0.57143,2.4812 -0.21106,1.0445 -0.23071,2.8083 -0.0313,2.8083 0.0789,0 0.54634,-0.18441 1.0387,-0.40981 1.0215,-0.46763 2.6665,-0.7207 4.7324,-0.728 1.3197,-0.005 1.4434,0.0234 1.6772,0.38011 0.60758,0.92727 -0.0717,1.203 -3.1839,1.2924 -1.7134,0.0492 -2.5033,0.1382 -2.8587,0.32199 -0.5438,0.28119 -1.5492,1.576 -1.5492,1.9951 0,0.35231 -0.77432,3.0989 -1.0797,3.8297 -0.25987,0.62197 -0.48162,0.82227 -0.91458,0.82614 -0.6632,0.006 -0.65878,-0.49773 0.0334,-3.8059 0.24064,-1.15 0.21427,-2.3957 -0.0507,-2.3957 -0.11858,0 -0.61002,0.49592 -1.0921,1.102 -2.2566,2.8372 -4.9064,4.6376 -6.8512,4.6554 -1.6594,0.0152 -2.611,-0.81376 -2.9408,-2.5615 -0.1168,-0.61899 -0.28612,-1.0734 -0.39998,-1.0734 -0.10861,0 -0.75478,0.53266 -1.436,1.1837 -1.4446,1.3807 -3.1077,2.8921 -3.503,3.1837 -0.37956,0.27992 -1.0207,0.25665 -1.135,-0.0412 z m 23.974,3.4779 c -0.10775,-0.10775 -0.19592,-0.30285 -0.19592,-0.43356 0,-0.22908 0.57249,-1.0677 1.1815,-1.7308 0.1614,-0.17574 0.36767,-0.59509 0.45837,-0.93189 0.0907,-0.3368 0.23635,-0.65654 0.32372,-0.71053 0.0873,-0.054 0.15882,-0.38601 0.15882,-0.73783 0,-0.50294 -0.0876,-0.69709 -0.41007,-0.90836 -0.82478,-0.54041 -0.66092,-1.5347 0.25293,-1.5347 0.33775,0 0.62878,0.19637 1.1229,0.75768 0.56912,0.64656 0.66694,0.86531 0.66694,1.4916 0,1.4608 -2.1565,4.9344 -3.0633,4.9344 -0.16498,0 -0.38813,-0.0882 -0.49589,-0.19592 z"
       id="although" />
  </g>
</svg>
