<svg xmlns="http://www.w3.org/2000/svg" height="25.101" width="27.083"><path d="M.35 11.677c-.506-.244-.46-.696.122-1.214.269-.24.49-.557.49-.705 0-.147.18-.512.401-.812.22-.3.487-.925.59-1.39.205-.91.1-1.25-.691-2.242-.334-.419-.337-.46-.077-.857.39-.595 1.116-.569 1.561.057.186.26.338.52.338.578 0 .057.156.315.347.573.294.398.33.602.238 1.345-.06.481-.28 1.174-.487 1.539-.207.364-.427.866-.49 1.115-.104.415-1.649 2.226-1.877 2.2-.054-.005-.264-.09-.466-.187zm10.42-4.973c1.02-2.157 1.48-3.562 1.424-4.342-.04-.564-.11-.69-.377-.69-.695 0-2.04 3.89-2.04 5.9 0 .987.198.813.993-.868zM1.33 19.932c-.405-.164-.185-.523.894-1.465 1.455-1.269 3.737-3.575 3.999-4.04.115-.205.448-.73.74-1.167.39-.584.53-.978.53-1.486 0-.381.08-.9.18-1.152.098-.253.242-1.084.32-1.848.08-.763.252-1.828.385-2.367.133-.539.32-1.31.417-1.714.096-.404.277-.955.402-1.225.125-.27.319-.82.432-1.224.256-.919 1.323-2.083 2.03-2.215.28-.053.76-.03 1.07.049.52.134.573.209.74 1.048.233 1.167.034 2.715-.5 3.893a45.576 45.576 0 00-.912 2.246c-.279.74-.612 1.453-.741 1.582-.13.13-.278.448-.33.708-.052.26-.345.745-.65 1.08-.307.333-.557.781-.557.994 0 .213-.124.512-.276.664-.163.162-.36.805-.481 1.564-.386 2.425.167 3.897 1.463 3.897 1.073 0 3.295-1.83 4.772-3.931a34.15 34.15 0 011.175-1.588c.202-.242.367-.521.367-.62 0-.1.32-.913.711-1.807.392-.894.801-2.025.91-2.513 1.066-4.756 1.51-5.8 2.215-5.215.213.176.256.424.2 1.134-.131 1.627-1.03 6.351-1.618 8.5-.185.673-.373 1.939-.419 2.813l-.083 1.59.616.894c.599.87.608.906.345 1.309-.375.57-.75.52-1.436-.198-.828-.866-.95-1.18-.953-2.439-.004-1.572-.132-1.684-.937-.811a11.68 11.68 0 00-1.067 1.357c-.22.35-.722.854-1.115 1.12-.394.268-.753.535-.798.595-.045.06-.628.417-1.294.795-1.088.616-1.292.677-1.99.595-1.645-.195-2.593-1.173-2.593-2.675 0-.626-.04-.7-.383-.7-.368 0-.923.444-.923.738 0 .223-.855 1.057-1.082 1.057-.113 0-.302.137-.419.303-.117.167-.713.681-1.324 1.143-1.025.775-1.5.947-2.032.732zm23.6 4.316c-2.277-1.887-3.117-2.71-3.49-3.422-.287-.547-.155-.922.37-1.054.326-.081.551.039 1.166.623a40.164 40.164 0 002.8 2.42c1.115.883 1.308 1.112 1.308 1.546 0 .402-.4.74-.878.74-.136 0-.71-.384-1.276-.853z"/></svg>