<?xml version="1.0" encoding="UTF-8" standalone="no"?>
<svg
   xmlns:dc="http://purl.org/dc/elements/1.1/"
   xmlns:cc="http://creativecommons.org/ns#"
   xmlns:rdf="http://www.w3.org/1999/02/22-rdf-syntax-ns#"
   xmlns:svg="http://www.w3.org/2000/svg"
   xmlns="http://www.w3.org/2000/svg"
   id="svg2502"
   viewBox="0 0 27.083409 25.101109"
   version="1.1"
   height="25.101109"
   width="27.08341">
  <defs
     id="defs2506" />
  <metadata
     id="metadata2">
    <rdf:RDF>
      <cc:Work
         rdf:about="">
        <dc:format>image/svg+xml</dc:format>
        <dc:type
           rdf:resource="http://purl.org/dc/dcmitype/StillImage" />
        <dc:title />
      </cc:Work>
    </rdf:RDF>
  </metadata>
  <g
     transform="translate(-216.67085,-330.32319)"
     style="stroke-width:0.16327"
     id="g2500">
    <path
       d="m 217.02,342 c -0.50547,-0.24377 -0.45993,-0.69532 0.12245,-1.2142 0.26939,-0.24002 0.4898,-0.55693 0.4898,-0.70423 0,-0.14731 0.1807,-0.51275 0.40155,-0.8121 0.22085,-0.29934 0.48671,-0.92486 0.59082,-1.3901 0.20376,-0.91046 0.0991,-1.2498 -0.69182,-2.2422 -0.33352,-0.41851 -0.3372,-0.45969 -0.0768,-0.85714 0.38991,-0.59507 1.1157,-0.56872 1.561,0.0567 0.18571,0.2608 0.33765,0.52091 0.33765,0.57804 0,0.0571 0.15618,0.31508 0.34707,0.57327 0.29445,0.39827 0.33046,0.60216 0.23765,1.345 -0.0602,0.48158 -0.27891,1.174 -0.48611,1.5388 -0.20718,0.36477 -0.42776,0.86658 -0.49014,1.1151 -0.10415,0.41497 -1.6491,2.2267 -1.8771,2.2012 -0.0543,-0.006 -0.26407,-0.0908 -0.46611,-0.18821 z m 10.422,-4.9731 c 1.0198,-2.1567 1.4804,-3.5614 1.4238,-4.3422 -0.0409,-0.564 -0.10942,-0.6895 -0.37652,-0.6895 -0.69551,0 -2.0408,3.8893 -2.0408,5.9001 0,0.98665 0.19839,0.81326 0.99356,-0.86837 z m -9.4425,13.228 c -0.40477,-0.16333 -0.18513,-0.52302 0.89428,-1.4645 1.4549,-1.2689 3.7371,-3.5749 3.9989,-4.0405 0.11489,-0.20432 0.44767,-0.72914 0.73951,-1.1663 0.3902,-0.58447 0.53061,-0.97792 0.53061,-1.4869 0,-0.38065 0.0807,-0.89892 0.17925,-1.1517 0.0986,-0.25279 0.24328,-1.0841 0.32157,-1.8474 0.0783,-0.76326 0.25121,-1.8286 0.38432,-2.3673 0.1331,-0.53878 0.32074,-1.3102 0.41697,-1.7143 0.0962,-0.40408 0.27699,-0.9551 0.40171,-1.2245 0.12474,-0.26939 0.31905,-0.82041 0.43184,-1.2245 0.25639,-0.91863 1.3232,-2.0827 2.0302,-2.2153 0.27964,-0.0525 0.76082,-0.0304 1.0693,0.0491 0.52063,0.1341 0.57376,0.20927 0.74132,1.0487 0.23286,1.1667 0.034,2.715 -0.49995,3.8931 -0.22387,0.49388 -0.63468,1.5042 -0.91292,2.2452 -0.27825,0.74101 -0.61169,1.4531 -0.74099,1.5824 -0.12929,0.12931 -0.2776,0.44769 -0.32959,0.70756 -0.052,0.25986 -0.34485,0.74575 -0.65087,1.0798 -0.30606,0.33409 -0.55638,0.78164 -0.55638,0.99475 0,0.21307 -0.12419,0.5116 -0.27598,0.66339 -0.16248,0.16248 -0.36029,0.80581 -0.48098,1.5643 -0.38593,2.4253 0.16691,3.8974 1.4637,3.8974 1.0728,0 3.2943,-1.8302 4.7718,-3.9313 0.44398,-0.63136 0.97245,-1.3459 1.1744,-1.5879 0.20193,-0.242 0.36723,-0.5212 0.36735,-0.62046 1.1e-4,-0.0992 0.32023,-0.91221 0.71136,-1.8066 0.39115,-0.89435 0.80064,-2.0254 0.90996,-2.5134 1.0654,-4.7558 1.509,-5.8002 2.2149,-5.2144 0.21231,0.1762 0.25568,0.42343 0.19884,1.1334 -0.13027,1.6274 -1.0292,6.3515 -1.6175,8.4999 -0.18439,0.67347 -0.37268,1.9396 -0.41841,2.8137 l -0.0831,1.5892 0.61598,0.89439 c 0.59878,0.8694 0.6084,0.90596 0.34446,1.3088 -0.37437,0.57137 -0.7502,0.5196 -1.436,-0.19786 -0.82723,-0.86537 -0.95007,-1.1797 -0.9529,-2.4382 -0.004,-1.5726 -0.13206,-1.6841 -0.93628,-0.81161 -0.36645,0.39755 -0.84658,1.0084 -1.067,1.3576 -0.22039,0.34911 -0.72252,0.85319 -1.1158,1.1202 -0.39334,0.26701 -0.75222,0.53427 -0.79749,0.59393 -0.0453,0.0597 -0.62776,0.41754 -1.2944,0.79527 -1.088,0.61657 -1.2916,0.67738 -1.9897,0.59471 -1.6448,-0.19481 -2.5928,-1.1728 -2.5928,-2.6749 0,-0.62569 -0.0407,-0.70018 -0.38286,-0.70018 -0.3678,0 -0.92326,0.44436 -0.92326,0.73861 0,0.22248 -0.85474,1.0573 -1.0825,1.0573 -0.1128,0 -0.30109,0.13634 -0.41843,0.303 -0.11734,0.16664 -0.71314,0.68093 -1.324,1.1429 -1.0248,0.77487 -1.5006,0.94622 -2.0322,0.73172 z m 23.6,4.3164 c -2.2768,-1.8876 -3.1163,-2.7108 -3.4901,-3.4224 -0.28696,-0.54631 -0.15504,-0.9214 0.37046,-1.0533 0.32587,-0.0818 0.55109,0.0385 1.1657,0.62276 0.86792,0.82501 1.7571,1.5934 2.801,2.4202 1.1142,0.88256 1.3077,1.1113 1.3077,1.5453 0,0.40283 -0.40067,0.74044 -0.87875,0.74044 -0.13593,0 -0.71015,-0.38385 -1.276,-0.85301 z"
       id="altogether_abv" />
  </g>
</svg>
