<?xml version="1.0" encoding="UTF-8" standalone="no"?>
<svg
   xmlns:dc="http://purl.org/dc/elements/1.1/"
   xmlns:cc="http://creativecommons.org/ns#"
   xmlns:rdf="http://www.w3.org/1999/02/22-rdf-syntax-ns#"
   xmlns:svg="http://www.w3.org/2000/svg"
   xmlns="http://www.w3.org/2000/svg"
   id="svg2502"
   viewBox="0 0 38.757472 21.203608"
   version="1.1"
   height="21.203608"
   width="38.757473">
  <defs
     id="defs2506" />
  <metadata
     id="metadata2">
    <rdf:RDF>
      <cc:Work
         rdf:about="">
        <dc:format>image/svg+xml</dc:format>
        <dc:type
           rdf:resource="http://purl.org/dc/dcmitype/StillImage" />
        <dc:title />
      </cc:Work>
    </rdf:RDF>
  </metadata>
  <g
     transform="translate(-216.3947,-354.1191)"
     style="stroke-width:0.16327"
     id="g2500">
    <path
       d="m 216.5,366.79 c -0.14214,-0.17126 -0.14062,-0.33077 0.006,-0.65306 0.10686,-0.23453 0.2496,-0.42643 0.31719,-0.42643 0.0676,0 0.38644,-0.53331 0.70849,-1.1851 0.77356,-1.5655 0.79899,-2.5448 0.0958,-3.6876 -0.57675,-0.93734 -0.60171,-1.1794 -0.16259,-1.5768 0.26222,-0.2373 0.40305,-0.26153 0.70933,-0.12199 0.48856,0.22262 1.4124,1.6096 1.4124,2.1205 0,0.21499 0.0793,0.53913 0.17629,0.72029 0.12759,0.23842 0.12269,0.56239 -0.0178,1.173 -0.22093,0.96054 -0.94235,2.5578 -1.1552,2.5578 -0.0781,0 -0.32757,0.29388 -0.55431,0.65306 -0.32449,0.51401 -0.51186,0.65306 -0.88002,0.65306 -0.25727,0 -0.55239,-0.10197 -0.65584,-0.22663 z m 10.025,-3.5693 c 0.14057,-0.69959 0.7286,-2.446 0.89329,-2.6531 0.20676,-0.25992 0.68145,-3.3445 0.56914,-3.6984 -0.16605,-0.52323 -0.76418,-0.31058 -1.1085,0.39412 -0.46852,0.95891 -0.98909,6.4879 -0.61087,6.4879 0.0827,0 0.19829,-0.23877 0.25693,-0.53061 z m -9.0276,11.927 c -0.30903,-0.30903 -0.23326,-0.56622 0.28734,-0.97533 0.2658,-0.20888 0.76172,-0.61848 1.102,-0.91025 0.34033,-0.29177 0.74165,-0.53055 0.89184,-0.53061 0.15017,-7e-5 0.59099,-0.35537 0.97959,-0.78954 0.38859,-0.43419 0.97429,-0.98801 1.3016,-1.2307 0.32727,-0.24273 0.68516,-0.65892 0.79532,-0.92487 0.11017,-0.26595 0.26297,-0.48355 0.33956,-0.48355 0.30116,0 0.67626,-1.0896 0.80876,-2.3494 0.0766,-0.72823 0.21458,-1.8384 0.30662,-2.4669 0.092,-0.62857 0.24287,-2.1573 0.3352,-3.3972 0.10214,-1.3714 0.26354,-2.4394 0.41208,-2.7266 0.1343,-0.2597 0.24996,-0.64114 0.25701,-0.84764 0.007,-0.20651 0.22798,-0.70607 0.49092,-1.1102 0.26296,-0.40409 0.51814,-0.8449 0.56706,-0.9796 0.12111,-0.33337 1.1348,-0.97959 1.5366,-0.97959 0.17943,0 0.5553,0.20467 0.83526,0.45481 0.46697,0.41724 0.52203,0.57677 0.66671,1.9314 0.14229,1.3323 0.12317,1.5791 -0.19549,2.5248 -0.19424,0.57649 -0.52839,1.7387 -0.74255,2.5828 -0.21417,0.84404 -0.75022,2.2767 -1.1912,3.1837 -1.9024,3.9123 -1.9801,4.1377 -1.9801,5.7461 0,0.92588 0.0725,1.5428 0.19592,1.6662 0.29931,0.29931 1.7744,0.2406 2.2774,-0.0907 2.2241,-1.4647 3.7612,-2.6014 3.9429,-2.916 0.0718,-0.12431 0.20814,-0.22602 0.30295,-0.22602 0.0948,0 0.37482,-0.16531 0.62224,-0.36735 0.24741,-0.20204 0.61551,-0.47755 0.81797,-0.61225 0.20248,-0.13469 0.53654,-0.37347 0.74235,-0.53061 0.20582,-0.15714 0.42529,-0.28571 0.48773,-0.28571 0.0624,0 0.4797,-0.32923 0.92726,-0.73163 0.44756,-0.4024 1.34,-1.0784 1.9832,-1.5022 0.64318,-0.42381 1.2062,-0.81827 1.251,-0.87659 0.0449,-0.0583 0.2653,-0.20248 0.48979,-0.32037 0.22449,-0.11792 0.99592,-0.59122 1.7143,-1.0518 0.71838,-0.46058 1.4949,-0.9185 1.7256,-1.0176 0.23071,-0.0991 0.76782,-0.4817 1.1936,-0.8502 0.42576,-0.36851 0.85329,-0.67001 0.95004,-0.67001 0.0967,0 0.73514,-0.41897 1.4186,-0.93105 0.68349,-0.51209 1.5596,-1.1549 1.9468,-1.4286 0.38721,-0.27363 0.9015,-0.65165 1.1428,-0.84003 0.24134,-0.18839 0.64172,-0.39205 0.88972,-0.45259 0.24802,-0.0605 0.6521,-0.3398 0.89796,-0.62062 0.54455,-0.62192 2.7491,-2.0945 3.1357,-2.0945 0.15364,0 0.37151,0.20204 0.48413,0.44898 0.31007,0.67992 0.4237,3.8955 0.175,4.952 -0.5944,2.525 -2.7122,4.1291 -4.8845,3.6996 -0.67383,-0.13322 -1.0443,-0.33846 -1.7008,-0.94212 -0.78254,-0.71956 -0.82826,-0.80353 -0.67541,-1.2406 0.12113,-0.34637 0.287,-0.48294 0.63504,-0.52291 0.37995,-0.0436 0.59293,0.0792 1.1008,0.63478 l 0.62967,0.68885 0.98993,-0.0898 c 1.1436,-0.1037 1.4895,-0.35033 1.9494,-1.3901 0.72989,-1.65 0.77125,-3.6264 0.0759,-3.6264 -0.43896,0 -1.3666,0.45554 -1.7902,0.8791 -0.224,0.224 -0.83082,0.63915 -1.3485,0.92256 -0.51766,0.28343 -0.99998,0.61848 -1.0718,0.74459 -0.0718,0.12609 -0.36568,0.34942 -0.65306,0.49628 -0.28738,0.14685 -0.58126,0.36726 -0.65307,0.48979 -0.0718,0.12253 -0.28119,0.22278 -0.4653,0.22278 -0.18412,0 -0.60291,0.2751 -0.93066,0.61133 -0.6187,0.63471 -3.3253,2.3934 -4.5829,2.9779 -0.39693,0.18447 -1.0214,0.58018 -1.3878,0.87934 -0.36636,0.29917 -0.99669,0.69073 -1.4008,0.87016 -0.40411,0.17943 -1.047,0.63122 -1.4288,1.004 -0.38175,0.37275 -0.73889,0.67773 -0.79368,0.67773 -0.0548,0 -0.44041,0.28315 -0.85695,0.62924 -0.41654,0.34607 -1.0874,0.83577 -1.4907,1.0882 -0.40336,0.25244 -0.99112,0.70335 -1.3061,1.002 -0.31502,0.29866 -0.66042,0.54368 -0.76758,0.54444 -0.10715,0 -0.29082,0.13742 -0.40816,0.30364 -0.11734,0.16622 -0.43528,0.41654 -0.70653,0.55626 -0.27125,0.13974 -0.67533,0.43467 -0.89796,0.6554 -0.22263,0.22074 -0.71203,0.55713 -1.0876,0.74753 -0.37553,0.1904 -0.72389,0.41267 -0.77411,0.49394 -0.16126,0.26091 -1.7081,0.99979 -2.0911,0.99884 -0.95785,-0.002 -1.508,-0.321 -2.0438,-1.1837 -0.31775,-0.51163 -0.53062,-1.0696 -0.53062,-1.391 0,-0.84707 -0.36853,-0.80417 -1.3369,0.15565 -1.0138,1.0048 -2.1261,1.8824 -3.3922,2.6765 -0.97663,0.61255 -1.1498,0.65624 -1.4422,0.36383 z"
       id="always" />
  </g>
</svg>
