<svg xmlns="http://www.w3.org/2000/svg" height="21.204" width="38.757"><path d="M.105 12.67c-.142-.17-.14-.33.006-.652.107-.235.25-.427.317-.427.068 0 .387-.533.709-1.185.774-1.565.799-2.544.096-3.687C.656 5.78.63 5.539 1.07 5.142c.262-.237.403-.262.71-.122.488.223 1.412 1.61 1.412 2.12 0 .215.08.54.176.72.128.24.123.563-.018 1.174-.22.96-.942 2.558-1.155 2.558-.078 0-.327.293-.554.653-.325.514-.512.653-.88.653-.257 0-.553-.102-.656-.227zM10.13 9.103c.14-.7.729-2.446.894-2.653.206-.26.681-3.345.569-3.699-.166-.523-.764-.31-1.109.394-.468.96-.989 6.488-.61 6.488.082 0 .198-.239.256-.53zM1.103 21.029c-.31-.31-.234-.567.287-.976a40.2 40.2 0 001.102-.91c.34-.292.742-.53.892-.53.15 0 .59-.356.98-.79.388-.434.974-.988 1.301-1.23.327-.244.685-.66.795-.926.11-.266.263-.483.34-.483.301 0 .676-1.09.809-2.35.076-.728.214-1.838.306-2.467.092-.628.243-2.157.336-3.397.102-1.371.263-2.44.412-2.726.134-.26.25-.641.257-.848.007-.206.228-.706.49-1.11.263-.404.519-.845.568-.98.12-.333 1.134-.98 1.536-.98.18 0 .555.205.835.455.467.418.522.577.667 1.932.142 1.332.123 1.579-.195 2.525a43.707 43.707 0 00-.743 2.582c-.214.844-.75 2.277-1.191 3.184-1.902 3.912-1.98 4.138-1.98 5.746 0 .926.072 1.543.196 1.666.3.3 1.774.241 2.277-.09 2.224-1.465 3.761-2.602 3.943-2.916.072-.125.208-.226.303-.226s.375-.166.622-.368c.248-.202.616-.477.818-.612.203-.135.537-.373.743-.53.205-.158.425-.286.487-.286.063 0 .48-.33.928-.732.447-.402 1.34-1.078 1.983-1.502.643-.424 1.206-.818 1.25-.877.046-.058.266-.202.49-.32.225-.118.996-.591 1.715-1.052.718-.46 1.495-.918 1.725-1.017.231-.1.768-.482 1.194-.85.426-.37.853-.67.95-.67.097 0 .735-.42 1.419-.932.683-.512 1.56-1.155 1.946-1.428.388-.274.902-.652 1.143-.84.242-.189.642-.392.89-.453.248-.06.652-.34.898-.62C35.372 1.473 37.577 0 37.963 0c.153 0 .371.202.484.449.31.68.423 3.895.175 4.952-.595 2.525-2.712 4.13-4.885 3.7-.674-.134-1.044-.339-1.7-.943-.783-.72-.829-.803-.676-1.24.121-.347.287-.483.635-.523.38-.044.593.08 1.1.635l.63.689.99-.09c1.144-.104 1.49-.35 1.95-1.39.73-1.65.771-3.627.076-3.627-.44 0-1.367.456-1.79.88-.224.223-.831.639-1.349.922-.518.283-1 .618-1.072.745-.071.126-.365.349-.653.496-.287.147-.581.367-.653.49-.072.122-.281.222-.465.222s-.603.275-.93.612c-.62.634-3.326 2.393-4.584 2.978a7.966 7.966 0 00-1.387.879c-.367.3-.997.69-1.401.87-.404.18-1.047.631-1.43 1.004-.38.373-.738.678-.793.678-.055 0-.44.283-.857.63-.416.345-1.087.835-1.49 1.087a10 10 0 00-1.307 1.002c-.315.299-.66.544-.767.545-.107 0-.29.137-.408.303-.118.167-.436.417-.707.557-.271.14-.675.434-.898.655-.222.22-.712.557-1.087.748-.376.19-.724.412-.774.493-.162.261-1.709 1-2.092 1-.957-.003-1.508-.322-2.043-1.184-.318-.512-.531-1.07-.531-1.391 0-.847-.368-.805-1.337.155a19.404 19.404 0 01-3.392 2.677c-.977.612-1.15.656-1.442.364z"/></svg>