<svg xmlns="http://www.w3.org/2000/svg" height="3.219" width="27.985"><path d="M.196 2.966c-.255-.281-.257-.343-.03-.668.19-.271.418-.36.936-.361.667-.003 3.216-.378 3.705-.546.134-.046 1.31-.129 2.612-.184 3.625-.153 8.145-.388 10.86-.564 1.347-.088 3.184-.2 4.082-.25.898-.05 2.465-.177 3.483-.28 1.568-.16 1.873-.154 1.998.043.246.39.17.783-.189.975-.46.246-3.804.605-6.598.709-1.257.046-3.498.199-4.98.34-4.215.398-6.398.531-9.306.564-1.482.017-2.95.095-3.265.173-.314.079-1.123.191-1.797.251C.627 3.264.448 3.24.2 2.966z" stroke-width=".163"/></svg>