<?xml version="1.0" encoding="UTF-8" standalone="no"?>
<svg
   xmlns:dc="http://purl.org/dc/elements/1.1/"
   xmlns:cc="http://creativecommons.org/ns#"
   xmlns:rdf="http://www.w3.org/1999/02/22-rdf-syntax-ns#"
   xmlns:svg="http://www.w3.org/2000/svg"
   xmlns="http://www.w3.org/2000/svg"
   id="svg2502"
   viewBox="0 0 27.981341 3.2189035"
   version="1.1"
   height="3.2189035"
   width="27.981342">
  <defs
     id="defs2506" />
  <metadata
     id="metadata2">
    <rdf:RDF>
      <cc:Work
         rdf:about="">
        <dc:format>image/svg+xml</dc:format>
        <dc:type
           rdf:resource="http://purl.org/dc/dcmitype/StillImage" />
        <dc:title />
      </cc:Work>
    </rdf:RDF>
  </metadata>
  <g
     transform="translate(-217.23382,-394.79391)"
     style="stroke-width:0.16327"
     id="g2500">
    <path
       d="m 217.43,397.76 c -0.25487,-0.28163 -0.25767,-0.34362 -0.0301,-0.66855 0.18968,-0.2708 0.41781,-0.35885 0.93547,-0.361 0.66743,-0.003 3.2158,-0.37802 3.705,-0.54557 0.1347,-0.0461 1.3102,-0.12893 2.6122,-0.18398 3.6248,-0.15329 8.1445,-0.38823 10.857,-0.56436 1.3469,-0.0875 3.1837,-0.2001 4.0816,-0.25032 0.89796,-0.0502 2.4654,-0.17611 3.4832,-0.27979 1.5685,-0.15975 1.873,-0.15309 1.9975,0.0437 0.24614,0.38889 0.17,0.78246 -0.18849,0.97432 -0.46062,0.24651 -3.8043,0.60582 -6.5983,0.70906 -1.2571,0.0464 -3.498,0.19925 -4.9796,0.33956 -4.2151,0.39918 -6.3983,0.53175 -9.3061,0.56509 -1.4816,0.017 -2.951,0.0949 -3.2653,0.17303 -0.31429,0.0782 -1.1231,0.19099 -1.7974,0.25069 -1.0799,0.0956 -1.2594,0.0716 -1.5069,-0.20186 z"
       id="am_abv" />
  </g>
</svg>
