<svg xmlns="http://www.w3.org/2000/svg" height="3.219" width="27.981"><path d="M.196 2.966c-.255-.282-.257-.344-.03-.668.19-.271.418-.36.936-.361.667-.003 3.215-.378 3.705-.546.134-.046 1.31-.129 2.612-.184A559.28 559.28 0 0018.276.643c1.347-.088 3.183-.2 4.081-.25.898-.05 2.466-.177 3.484-.28 1.568-.16 1.873-.154 1.997.043.246.39.17.783-.188.975-.461.246-3.805.605-6.599.709-1.257.046-3.498.199-4.98.34-4.214.398-6.398.53-9.305.564-1.482.017-2.951.095-3.266.173-.314.078-1.123.191-1.797.251-1.08.096-1.26.072-1.507-.202z" stroke-width=".163"/></svg>