<?xml version="1.0" encoding="UTF-8" standalone="no"?>
<svg
   xmlns:dc="http://purl.org/dc/elements/1.1/"
   xmlns:cc="http://creativecommons.org/ns#"
   xmlns:rdf="http://www.w3.org/1999/02/22-rdf-syntax-ns#"
   xmlns:svg="http://www.w3.org/2000/svg"
   xmlns="http://www.w3.org/2000/svg"
   id="svg2502"
   viewBox="0 0 42.101931 26.267254"
   version="1.1"
   height="26.267254"
   width="42.101933">
  <defs
     id="defs2506" />
  <metadata
     id="metadata2">
    <rdf:RDF>
      <cc:Work
         rdf:about="">
        <dc:format>image/svg+xml</dc:format>
        <dc:type
           rdf:resource="http://purl.org/dc/dcmitype/StillImage" />
        <dc:title />
      </cc:Work>
    </rdf:RDF>
  </metadata>
  <g
     transform="translate(-217.49334,-402.9511)"
     style="stroke-width:0.16327"
     id="g2500">
    <path
       d="m 217.55,414.9 c 0.0622,-0.33673 0.43774,-1.2626 0.83449,-2.0574 0.60412,-1.2102 0.72138,-1.5992 0.72138,-2.3927 0,-0.8438 -0.0626,-1.0224 -0.57143,-1.6315 -0.66461,-0.79548 -0.67333,-0.83677 -0.25661,-1.2139 0.82216,-0.74405 2.4617,1.0304 2.4601,2.6624 0,0.65653 -0.88134,3.172 -1.1408,3.2585 -0.0906,0.0302 -0.16471,0.23981 -0.16471,0.46578 0,0.56583 -0.97524,1.5211 -1.5529,1.5211 -0.42279,0 -0.43758,-0.0275 -0.32953,-0.61225 z m 34.973,-6.1695 c 0.35898,-0.35899 0.66253,-1.4814 0.72928,-2.6965 0.0475,-0.86535 0.0116,-1.0566 -0.20706,-1.0988 -0.35946,-0.0695 -0.63559,0.9309 -0.90282,3.2708 -0.0942,0.82528 -0.0211,0.92611 0.3806,0.52445 z m -3.2418,13.283 c -0.33004,-0.19135 -0.73113,-0.59128 -0.89131,-0.88872 -0.26028,-0.4833 -0.27026,-0.66328 -0.0938,-1.6922 0.26685,-1.5561 0.25661,-2.2882 -0.032,-2.2882 -0.12619,0 -0.54864,0.26802 -0.93878,0.59559 -0.87102,0.73137 -1.8462,1.192 -2.5336,1.1967 -0.28499,0.002 -0.87275,0.0731 -1.3061,0.15797 -1.9422,0.38056 -3.7919,0.52924 -9.441,0.75892 -3.3224,0.13509 -6.4816,0.3147 -7.0204,0.39912 -0.53877,0.0844 -2.4122,0.22662 -4.1633,0.31594 -1.751,0.0893 -3.2939,0.17721 -3.4286,0.19528 -0.54812,0.0735 -1.6527,-0.24998 -1.8013,-0.52751 -0.16162,-0.30196 -0.0516,-0.81079 0.21391,-0.98937 0.0829,-0.0558 0.44738,-0.0348 0.80988,0.0467 0.67947,0.15266 1.4234,0.1224 4.3693,-0.1778 3.3077,-0.33706 6.4899,-0.52844 11.02,-0.66281 4.4126,-0.13086 7.0174,-0.32815 8.4566,-0.64052 0.37742,-0.0819 1.2005,-0.23886 1.8291,-0.34877 1.3941,-0.24375 1.8291,-0.45353 3.1618,-1.5248 1.2479,-1.003 2.1443,-2.3114 2.1443,-3.1296 0,-0.31543 0.0959,-0.80992 0.21316,-1.0989 0.37892,-0.93394 0.74398,-2.8182 1.2089,-6.2397 0.0488,-0.35918 0.3033,-0.96521 0.56552,-1.3467 0.78021,-1.1351 1.8426,-1.4904 2.6066,-0.87178 0.36905,0.29884 0.38544,0.40173 0.38544,2.4195 0,2.2811 -0.11613,2.6869 -1.259,4.3998 -0.25044,0.37536 -0.45534,0.82555 -0.45534,1.0004 0,0.17487 -0.1102,0.4094 -0.24489,0.52119 -0.1347,0.11179 -0.2449,0.29486 -0.2449,0.40682 0,0.11197 -0.30221,0.58314 -0.67156,1.047 -0.66758,0.83845 -0.76534,1.0865 -1.2288,3.1176 -0.48082,2.107 -0.56416,2.545 -0.65492,3.4423 -0.0912,0.90189 -0.0867,0.91394 0.42372,1.1254 0.42593,0.17642 0.63022,0.176 1.1709,-0.002 0.64663,-0.2134 1.4505,-0.96996 1.4505,-1.3651 0,-0.11187 0.21432,-0.60214 0.47628,-1.0895 0.26195,-0.48738 0.59648,-1.2535 0.74337,-1.7025 0.44178,-1.3502 0.38901,-1.3239 2.862,-1.4253 1.2122,-0.0497 2.2959,-0.0555 2.4082,-0.0127 0.34189,0.12999 0.23336,0.84 -0.16865,1.1034 -0.20501,0.13432 -0.92134,0.29483 -1.5918,0.35667 -1.7507,0.16149 -2.1772,0.37772 -2.4333,1.2335 -0.43652,1.4587 -1.1599,2.6516 -2.183,3.6001 l -1.0109,0.93714 -1.0612,-0.002 c -0.78354,-0.002 -1.2182,-0.0932 -1.6613,-0.35004 z m 4.6026,6.971 c -0.24483,-0.295 -0.17745,-0.86174 0.40799,-3.4316 0.81167,-3.563 1.0148,-4.116 1.5854,-4.3149 0.276,-0.0962 0.51866,-0.17492 0.53926,-0.17492 0.0206,0 0.126,0.21374 0.23421,0.47499 0.13117,0.31665 0.14472,0.57515 0.0407,0.77551 -0.0858,0.16529 -0.20711,0.65231 -0.26951,1.0823 -0.0624,0.42996 -0.21873,1.0337 -0.3474,1.3417 -0.12869,0.30797 -0.23396,0.85542 -0.23396,1.2165 0,0.60983 -0.66606,2.6032 -1.0252,3.0682 -0.21365,0.27661 -0.68645,0.25744 -0.93143,-0.0378 z"
       id="ambition" />
  </g>
</svg>
