<svg xmlns="http://www.w3.org/2000/svg" height="26.267" width="42.102"><path d="M.057 11.949c.062-.337.437-1.263.834-2.058.604-1.21.722-1.599.722-2.392 0-.844-.063-1.023-.572-1.632-.665-.795-.673-.836-.257-1.214.823-.744 2.462 1.03 2.46 2.663 0 .656-.88 3.172-1.14 3.258-.09.03-.165.24-.165.466 0 .566-.975 1.521-1.553 1.521-.423 0-.437-.027-.33-.612zm34.973-6.17c.359-.359.662-1.481.729-2.696.047-.865.012-1.057-.207-1.099-.36-.07-.636.931-.903 3.27-.094.826-.021.927.38.525zm-3.242 13.283c-.33-.191-.731-.59-.891-.888-.26-.484-.27-.664-.094-1.693.267-1.556.256-2.288-.032-2.288-.126 0-.549.268-.939.596-.871.731-1.846 1.192-2.534 1.197-.285.002-.872.073-1.306.158-1.942.38-3.792.529-9.44.758-3.323.136-6.482.315-7.021.4-.539.084-2.412.226-4.163.316-1.751.089-3.294.177-3.429.195-.548.073-1.653-.25-1.801-.528-.162-.302-.052-.81.214-.99.082-.055.447-.034.81.048.679.152 1.423.122 4.369-.178 3.307-.337 6.49-.529 11.02-.663 4.412-.13 7.017-.328 8.456-.64.378-.082 1.2-.24 1.83-.35 1.394-.243 1.829-.453 3.161-1.524 1.248-1.003 2.145-2.311 2.145-3.13 0-.315.095-.81.213-1.099.379-.934.744-2.818 1.209-6.24.048-.358.303-.964.565-1.346.78-1.135 1.843-1.49 2.607-.872.369.3.385.402.385 2.42 0 2.28-.116 2.687-1.259 4.4-.25.375-.455.825-.455 1 0 .175-.11.41-.245.521-.135.112-.245.295-.245.407 0 .112-.302.583-.672 1.047-.667.838-.765 1.086-1.228 3.118-.481 2.107-.564 2.545-.655 3.442-.091.902-.087.914.423 1.125.426.177.63.176 1.171-.002.647-.213 1.45-.97 1.45-1.365 0-.112.215-.602.477-1.09a12.76 12.76 0 00.744-1.702c.441-1.35.389-1.324 2.862-1.425 1.212-.05 2.295-.056 2.408-.013.342.13.233.84-.169 1.104-.205.134-.921.294-1.592.356-1.75.162-2.177.378-2.433 1.234-.437 1.458-1.16 2.651-2.183 3.6l-1.01.937-1.062-.002c-.784-.002-1.218-.093-1.661-.35zm4.602 6.971c-.244-.295-.177-.861.408-3.431.812-3.563 1.015-4.116 1.586-4.315a7.34 7.34 0 01.54-.175c.02 0 .125.214.233.475.131.317.145.575.041.775-.086.166-.207.653-.27 1.083-.062.43-.218 1.033-.347 1.341a3.775 3.775 0 00-.234 1.217c0 .61-.666 2.603-1.025 3.068-.214.277-.686.258-.931-.038z"/></svg>