<svg xmlns="http://www.w3.org/2000/svg" height="20.709" width="69.613"><path d="M.828 7.942c-.38-.38-.152-1.14.58-1.921.201-.217.367-.51.367-.653 0-.143.098-.404.217-.581.12-.177.311-.663.424-1.08.187-.684.174-.824-.138-1.468-.19-.392-.472-.914-.628-1.16-.346-.546-.14-.996.49-1.072.315-.038.507.08.793.49.207.296.421.576.476.62.464.385.79 3.283.399 3.562-.167.12-.408.6-.73 1.46-.174.46-1.68 1.999-1.957 1.999-.054 0-.186-.088-.294-.196zm-.511 5.153c-.411-.523-.415-.594-.053-.917.215-.19.816-.277 2.408-.346 1.167-.05 3.114-.171 4.327-.27 1.212-.097 3.696-.208 5.52-.246 1.822-.037 3.387-.114 3.477-.169.09-.055.765-.164 1.502-.24.737-.078 1.927-.219 2.645-.314 3.305-.437 4.072-.498 6.367-.506 1.47-.005 2.66-.087 2.978-.204.657-.242 3.08-2.45 3.427-3.125.142-.274.559-.903.926-1.396.368-.494.744-1.045.836-1.224.245-.479 1.278-.535 1.66-.091.24.28.478.336 1.44.336 1.332 0 1.877.27 1.877.933 0 .234-.261 1.191-.58 2.126-.32.936-.56 1.89-.531 2.121.027.232.25.569.493.75.44.327.453.327 1.458.022 1.051-.318.945-.23 5.203-4.332.553-.532 2.073-1.256 3.063-1.458.928-.189 1.078-.18 1.586.094.978.526 1.197 1.867.306 1.867-.224 0-.553-.078-.731-.174-.508-.271-1.285.076-2.162.966-.695.705-.787.886-.872 1.707-.117 1.139.144 1.603 1.167 2.069 1.148.523 2.081.44 3.6-.323.714-.36 1.366-.654 1.448-.654.082 0 .892-.757 1.8-1.683 1.763-1.799 2.726-2.496 4.22-3.052.819-.305 1.007-.323 1.506-.143.37.134.656.389.816.726.136.286.444.65.684.807.403.264.453.265.632.02.107-.147.253-.267.323-.267s.65-.248 1.288-.551c1.422-.676 2.606-.954 3.356-.788.482.107.633.265 1.047 1.1.266.535.582 1.44.702 2.008.192.903.186 1.15-.042 1.932-.15.515-.218 1.124-.161 1.428.12.635-.313 1.132-.912 1.047-.38-.054-.38-.058-.38-2.585 0-2.385-.023-2.56-.38-3.06-.338-.476-.462-.531-1.178-.531-.947 0-1.767.417-2.798 1.422-1.023.997-1.073 1.068-1.88 2.669-.404.803-.805 1.504-.891 1.557-.087.053-.337.051-.556-.003-.32-.08-.399-.204-.399-.632 0-.293.104-.68.23-.862.39-.556.789-2.177.68-2.76-.128-.68-.676-1.392-1.072-1.392-.637 0-1.759.666-2.797 1.66-.594.569-1.118 1.145-1.164 1.281-.045.137-.293.353-.55.482-.259.128-.727.466-1.04.75-.655.592-2.53 1.587-3.546 1.88-.937.272-2.917.099-3.467-.302-.23-.167-.545-.351-.703-.41-.157-.059-.506-.454-.775-.878-.385-.607-.49-.956-.49-1.638 0-1.115-.203-1.116-1.258-.009-1.102 1.156-2.376 2.207-2.935 2.42-.704.269-2.37.227-2.953-.075-1.198-.62-1.367-1.473-.7-3.55.275-.86.5-1.676.5-1.813 0-.275-.576-.546-1.51-.708-.826-.144-1.216.138-2.158 1.555-.42.633-.835 1.15-.92 1.15-.086 0-.203.122-.26.27-.12.311-1.162 1.287-1.908 1.786-2.113 1.414-1.706 1.29-4.332 1.31-2.79.02-8.566.308-8.775.438-.25.155-3.322.468-5.28.54-2.966.106-8.984.549-9.845.723-1.432.29-2.172.212-2.552-.271zm52.24 7.298c-.218-.407-.221-3.224-.004-3.36.09-.055.311-.055.49.003.272.086.325.248.325.99 0 .784.038.887.333.887.338 0 2.115-1.238 2.115-1.472 0-.07.313-.312.694-.538.694-.41 1.102-.361 1.102.131 0 .112-.825.985-1.834 1.94-1.656 1.567-1.893 1.735-2.443 1.735-.435 0-.657-.09-.778-.316z" stroke-width=".163"/></svg>