<svg xmlns="http://www.w3.org/2000/svg" height="20.71" width="69.611"><path d="M.828 7.942c-.38-.38-.152-1.138.58-1.921.201-.216.367-.51.367-.653 0-.142.098-.404.217-.581.12-.177.311-.663.424-1.079.187-.684.174-.825-.138-1.47-.19-.391-.472-.913-.628-1.16-.346-.546-.14-.995.49-1.071.315-.038.507.08.793.49.207.296.421.576.476.62.464.385.79 3.282.399 3.562-.167.12-.408.6-.731 1.46-.173.46-1.68 2-1.956 2-.053 0-.186-.089-.293-.197zm-.511 5.154c-.411-.523-.415-.594-.053-.917.215-.191.816-.277 2.408-.346 1.168-.05 3.115-.171 4.327-.27 1.212-.097 3.696-.208 5.519-.246 1.823-.037 3.388-.114 3.477-.169.09-.055.766-.164 1.502-.24.736-.078 1.926-.219 2.645-.314 3.305-.437 4.072-.498 6.367-.506 1.47-.005 2.66-.087 2.978-.204.657-.242 3.078-2.45 3.427-3.125.142-.274.559-.903.927-1.397.367-.493.743-1.044.835-1.224.245-.478 1.279-.535 1.659-.091.24.28.479.336 1.44.336 1.333 0 1.877.27 1.877.934 0 .234-.261 1.19-.58 2.125-.32.936-.56 1.89-.532 2.121.028.231.25.568.494.75.44.326.453.326 1.459.022 1.05-.319.945-.23 5.203-4.332.552-.532 2.073-1.256 3.063-1.458.927-.189 1.078-.18 1.586.094.977.526 1.197 1.866.306 1.866-.225 0-.554-.078-.732-.173-.507-.271-1.285.076-2.162.966-.694.705-.786.886-.871 1.707-.118 1.138.144 1.603 1.167 2.069 1.148.523 2.081.439 3.599-.324.715-.359 1.367-.653 1.45-.653.081 0 .89-.757 1.798-1.683 1.764-1.8 2.727-2.495 4.22-3.051.82-.305 1.008-.323 1.506-.143.37.133.656.388.816.726.136.286.444.649.684.806.403.264.453.266.632.02.108-.147.253-.266.323-.266s.65-.248 1.289-.552c1.422-.675 2.605-.953 3.356-.787.482.106.633.265 1.046 1.099.266.536.582 1.44.703 2.009.19.903.185 1.149-.042 1.932-.15.515-.219 1.124-.162 1.428.12.635-.313 1.132-.912 1.047-.38-.054-.38-.058-.38-2.585 0-2.385-.022-2.56-.379-3.06-.339-.476-.462-.531-1.18-.531-.946 0-1.767.417-2.798 1.422-1.023.997-1.072 1.068-1.879 2.669-.404.803-.806 1.504-.892 1.557-.086.053-.336.052-.555-.003-.321-.08-.4-.204-.4-.632 0-.293.105-.68.231-.861.39-.557.789-2.178.68-2.762-.128-.679-.676-1.39-1.072-1.39-.637 0-1.759.665-2.797 1.659-.595.569-1.118 1.146-1.164 1.282-.045.136-.293.353-.551.482-.258.128-.726.466-1.04.75-.654.592-2.53 1.587-3.546 1.88-.937.271-2.916.099-3.466-.302-.23-.167-.546-.352-.703-.41-.158-.059-.507-.454-.776-.878-.385-.608-.49-.956-.49-1.638.001-1.115-.203-1.116-1.258-.009-1.101 1.156-2.376 2.207-2.935 2.42-.704.269-2.37.227-2.953-.074-1.198-.62-1.366-1.473-.701-3.55.275-.86.5-1.677.5-1.814 0-.275-.575-.545-1.51-.708-.825-.143-1.215.138-2.157 1.555-.421.633-.835 1.15-.921 1.15-.086 0-.203.122-.26.27-.119.31-1.161 1.286-1.907 1.785-2.114 1.414-1.706 1.29-4.332 1.31-2.789.02-8.566.309-8.775.438-.25.155-3.322.469-5.28.54-2.965.106-8.984.55-9.845.723-1.432.29-2.171.212-2.551-.271zm52.239 7.298c-.218-.407-.221-3.225-.004-3.359.09-.056.311-.055.49.002.272.086.325.248.325.99 0 .785.038.887.333.887.338 0 2.116-1.238 2.116-1.472 0-.07.312-.312.694-.538.693-.41 1.102-.361 1.102.131 0 .112-.826.985-1.835 1.94-1.656 1.567-1.893 1.735-2.443 1.735-.435 0-.657-.09-.778-.316z" stroke-width=".163"/></svg>