<?xml version="1.0" encoding="UTF-8" standalone="no"?>
<svg
   xmlns:dc="http://purl.org/dc/elements/1.1/"
   xmlns:cc="http://creativecommons.org/ns#"
   xmlns:rdf="http://www.w3.org/1999/02/22-rdf-syntax-ns#"
   xmlns:svg="http://www.w3.org/2000/svg"
   xmlns="http://www.w3.org/2000/svg"
   id="svg2502"
   viewBox="0 0 69.61125 20.710037"
   version="1.1"
   height="20.710037"
   width="69.611252">
  <defs
     id="defs2506" />
  <metadata
     id="metadata2">
    <rdf:RDF>
      <cc:Work
         rdf:about="">
        <dc:format>image/svg+xml</dc:format>
        <dc:type
           rdf:resource="http://purl.org/dc/dcmitype/StillImage" />
        <dc:title />
      </cc:Work>
    </rdf:RDF>
  </metadata>
  <g
     transform="translate(-216.51244,-435.28765)"
     style="stroke-width:0.16327"
     id="g2500">
    <path
       d="m 217.34,443.23 c -0.38039,-0.3804 -0.15164,-1.1388 0.57959,-1.9214 0.20204,-0.21626 0.36735,-0.50993 0.36735,-0.65262 0,-0.14268 0.098,-0.40433 0.21784,-0.58145 0.11981,-0.17713 0.31067,-0.66257 0.42412,-1.0788 0.18653,-0.68425 0.17327,-0.82495 -0.1384,-1.4694 -0.18957,-0.39197 -0.47226,-0.91407 -0.6282,-1.1602 -0.34587,-0.54599 -0.13987,-0.99582 0.49083,-1.0718 0.31476,-0.0379 0.50589,0.0803 0.79198,0.4898 0.20741,0.29686 0.42157,0.57649 0.47589,0.62139 0.46485,0.38419 0.78969,3.2816 0.39929,3.5614 -0.16695,0.11965 -0.40767,0.60042 -0.73082,1.4596 -0.17283,0.45951 -1.6791,1.9994 -1.9557,1.9994 -0.0538,0 -0.18597,-0.0882 -0.29373,-0.19591 z m -0.51059,5.1532 c -0.41129,-0.52287 -0.41536,-0.59348 -0.0527,-0.91657 0.21433,-0.19094 0.81591,-0.27735 2.4082,-0.34597 1.1674,-0.0503 3.1143,-0.17143 4.3265,-0.2692 1.2122,-0.0977 3.6957,-0.20867 5.5189,-0.24648 1.8232,-0.0378 3.388,-0.11402 3.4776,-0.16934 0.0895,-0.0553 0.76521,-0.16364 1.5015,-0.2407 0.73633,-0.0771 1.9265,-0.21786 2.6449,-0.31288 3.3052,-0.43721 4.0721,-0.49822 6.3673,-0.50666 1.4703,-0.005 2.6603,-0.0869 2.9778,-0.20387 0.65657,-0.24196 3.0785,-2.4504 3.4273,-3.1252 0.14165,-0.27405 0.55845,-0.90235 0.92624,-1.3962 0.3678,-0.49387 0.74386,-1.0449 0.83573,-1.2245 0.24472,-0.47843 1.2784,-0.5352 1.6587,-0.0911 0.23994,0.28023 0.47891,0.336 1.4396,0.336 1.3332,0 1.8776,0.27071 1.8776,0.9337 0,0.23398 -0.26147,1.1906 -0.58104,2.1259 -0.31958,0.93528 -0.55835,1.8896 -0.53062,2.1206 0.0277,0.23107 0.2499,0.56837 0.49367,0.74957 0.43923,0.32648 0.45239,0.32667 1.4584,0.0221 1.0513,-0.3183 0.94506,-0.22986 5.2034,-4.332 0.55234,-0.53208 2.0732,-1.2558 3.0627,-1.4575 0.92779,-0.18908 1.0781,-0.18023 1.5861,0.0934 0.97741,0.52637 1.1971,1.8668 0.30598,1.8668 -0.22434,0 -0.5536,-0.078 -0.73169,-0.17329 -0.50736,-0.27152 -1.2855,0.076 -2.1616,0.96547 -0.6943,0.7049 -0.78677,0.88604 -0.87152,1.7071 -0.11752,1.1387 0.14432,1.6029 1.1669,2.0688 1.1483,0.52314 2.0814,0.43936 3.5992,-0.32315 0.71497,-0.35918 1.3671,-0.65306 1.4492,-0.65306 0.0821,0 0.89164,-0.75737 1.799,-1.683 1.7638,-1.7994 2.7265,-2.4956 4.2196,-3.0515 0.8199,-0.30529 1.0084,-0.32318 1.5065,-0.14308 0.3695,0.13361 0.65594,0.38839 0.81608,0.72587 0.13573,0.286 0.4435,0.6489 0.68396,0.80645 0.40287,0.26397 0.45249,0.26554 0.63204,0.02 0.10719,-0.14658 0.25254,-0.2665 0.32301,-0.2665 0.0705,0 0.65014,-0.24801 1.2881,-0.55117 1.4224,-0.67582 2.6058,-0.9536 3.3562,-0.78772 0.48225,0.1066 0.63327,0.26518 1.0467,1.0991 0.26575,0.53599 0.58173,1.4401 0.70221,2.0091 0.19116,0.90294 0.18582,1.1487 -0.0419,1.9321 -0.14965,0.5148 -0.21852,1.1238 -0.16146,1.4279 0.11917,0.63516 -0.31345,1.1319 -0.91198,1.0471 -0.38021,-0.0539 -0.38082,-0.058 -0.38082,-2.5846 0,-2.3849 -0.0218,-2.5612 -0.37846,-3.0612 -0.33886,-0.47508 -0.46227,-0.53061 -1.1793,-0.53061 -0.94686,0 -1.7674,0.41697 -2.7984,1.4221 -1.023,0.99736 -1.0727,1.0679 -1.8791,2.6692 -0.40442,0.80306 -0.80581,1.5037 -0.89197,1.5569 -0.0862,0.0532 -0.33616,0.0518 -0.55554,-0.003 -0.32091,-0.0805 -0.39889,-0.20411 -0.39889,-0.6321 0,-0.2926 0.10374,-0.68011 0.23053,-0.86112 0.38975,-0.55644 0.78821,-2.1775 0.67873,-2.7611 -0.12746,-0.6794 -0.67511,-1.3906 -1.0708,-1.3906 -0.637,0 -1.7592,0.66558 -2.7972,1.659 -0.59466,0.56916 -1.1184,1.1462 -1.1639,1.2824 -0.0455,0.13615 -0.29363,0.3528 -0.55145,0.48145 -0.25781,0.12865 -0.72589,0.46661 -1.0402,0.75102 -0.65368,0.59156 -2.5297,1.5863 -3.5451,1.8797 -0.9375,0.27094 -2.9166,0.0981 -3.4668,-0.30275 -0.22916,-0.16694 -0.54542,-0.35143 -0.70281,-0.41 -0.15739,-0.0586 -0.50637,-0.45369 -0.77551,-0.87809 -0.38513,-0.60726 -0.48934,-0.95603 -0.48934,-1.6376 0,-1.1145 -0.20354,-1.116 -1.2585,-0.009 -1.1017,1.1562 -2.3762,2.2071 -2.9352,2.4202 -0.70449,0.26864 -2.3707,0.22655 -2.9531,-0.0746 -1.198,-0.61953 -1.3666,-1.473 -0.70126,-3.55 0.27558,-0.86024 0.50103,-1.6762 0.50103,-1.8131 0,-0.2758 -0.5761,-0.54594 -1.5109,-0.70847 -0.82501,-0.14343 -1.2153,0.13786 -2.1573,1.5548 -0.42075,0.63291 -0.83515,1.1507 -0.92086,1.1507 -0.0857,0 -0.20242,0.12137 -0.25935,0.2697 -0.11908,0.31036 -1.1618,1.2858 -1.908,1.785 -2.1131,1.4135 -1.706,1.2905 -4.3317,1.3096 -2.7888,0.0203 -8.5656,0.30892 -8.7752,0.43847 -0.25032,0.15471 -3.3221,0.46834 -5.2795,0.53904 -2.9656,0.10711 -8.9839,0.54976 -9.8448,0.72408 -1.4324,0.29004 -2.1717,0.21136 -2.5516,-0.27153 z m 52.239,7.2981 c -0.21767,-0.40671 -0.22126,-3.2245 -0.004,-3.3586 0.0906,-0.056 0.31102,-0.0554 0.4898,0.002 0.27203,0.0863 0.32508,0.2479 0.32508,0.99014 0,0.78432 0.0386,0.88695 0.33353,0.88695 0.33724,0 2.1154,-1.2377 2.1154,-1.4724 0,-0.0699 0.31224,-0.31169 0.69387,-0.53732 0.69372,-0.41018 1.102,-0.36177 1.102,0.13062 0,0.11184 -0.82538,0.98448 -1.8342,1.9392 -1.6564,1.5676 -1.8932,1.7358 -2.4432,1.7358 -0.43505,0 -0.65734,-0.0902 -0.77805,-0.3158 z"
       id="American" />
  </g>
</svg>
