<svg xmlns="http://www.w3.org/2000/svg" height="18.405" width="58.766"><path d="M.194 7.385c-.335-.135-.233-.618.28-1.327.7-.966 1.312-2.527 1.312-3.344 0-.538-.124-.877-.517-1.412-.4-.544-.48-.765-.35-.97.406-.646 1.327-.316 1.987.711.633.985.58 2.212-.175 3.99-.92 2.168-1.548 2.75-2.537 2.352zM35.01 13.75c-1.294-.08-2.723-.385-2.97-.633-.126-.125-.518-.306-.874-.401-.355-.096-.645-.252-.645-.346 0-.17-.308-.601-1.169-1.641l-.434-.524-2.75.206c-5.785.433-7.079.5-10.093.518-1.708.01-3.877.085-4.82.166-3.837.33-6.182.506-7.265.547-.629.024-1.52.14-1.98.259-.784.201-.874.192-1.429-.15-.588-.364-.718-.702-.441-1.14.107-.17.479-.222 1.426-.2.705.017 2.016-.044 2.914-.134l4.163-.418c1.392-.14 4.661-.286 7.265-.327 2.604-.04 5.286-.147 5.96-.236 1.014-.134 5.018-.417 7.755-.547.638-.03.662-.012 1.073.851.519 1.087 1.633 2.023 2.82 2.368.47.137 1.893.331 3.16.43 2.098.165 2.491.15 4.4-.164 2.664-.439 5.2-.928 5.933-1.144.314-.093.78-.168 1.035-.168.255 0 1.285-.324 2.287-.72a77.734 77.734 0 013.11-1.149c.709-.236 1.606-.616 1.994-.844.92-.539 2.31-1.043 2.88-1.043.37 0 .45.072.45.402 0 .48-.513.996-1.256 1.265-.297.107-.54.247-.54.311s-.3.167-.67.23c-.703.118-2.824 1.094-3 1.38-.057.092-.379.168-.715.168-.336 0-.975.176-1.419.392-1.354.657-3.529 1.364-4.563 1.484-2.056.239-4.85.686-5.632.903-.523.144-3.985.173-5.96.05zm-5.422 4.4c-.289-.144-.634-.491-.767-.771s-.581-.829-.997-1.218c-.415-.39-.823-.887-.907-1.107-.197-.519-.024-1.194.305-1.194.43 0 1.278.677 1.601 1.277.167.31.587.792.933 1.07.757.608 1.165 1.456.92 1.913-.199.372-.391.377-1.088.03z"/></svg>