<?xml version="1.0" encoding="UTF-8" standalone="no"?>
<svg
   xmlns:dc="http://purl.org/dc/elements/1.1/"
   xmlns:cc="http://creativecommons.org/ns#"
   xmlns:rdf="http://www.w3.org/1999/02/22-rdf-syntax-ns#"
   xmlns:svg="http://www.w3.org/2000/svg"
   xmlns="http://www.w3.org/2000/svg"
   id="svg2502"
   viewBox="0 0 58.76552 18.404514"
   version="1.1"
   height="18.404514"
   width="58.765522">
  <defs
     id="defs2506" />
  <metadata
     id="metadata2">
    <rdf:RDF>
      <cc:Work
         rdf:about="">
        <dc:format>image/svg+xml</dc:format>
        <dc:type
           rdf:resource="http://purl.org/dc/dcmitype/StillImage" />
        <dc:title />
      </cc:Work>
    </rdf:RDF>
  </metadata>
  <g
     transform="translate(-217.15551,-459.11504)"
     style="stroke-width:0.16327"
     id="g2500">
    <path
       d="m 217.35,466.5 c -0.33539,-0.13533 -0.23368,-0.61834 0.27935,-1.3266 0.69984,-0.96609 1.3125,-2.5273 1.3125,-3.3446 0,-0.53771 -0.12424,-0.87638 -0.51784,-1.4116 -0.40015,-0.54413 -0.47966,-0.76479 -0.34985,-0.97094 0.40642,-0.64542 1.3269,-0.31569 1.9875,0.712 0.63304,0.98473 0.57913,2.2114 -0.17537,3.99 -0.9197,2.168 -1.548,2.7505 -2.5363,2.3517 z m 34.816,6.3655 c -1.2942,-0.081 -2.7231,-0.38575 -2.9709,-0.63349 -0.12513,-0.12512 -0.51808,-0.30574 -0.87321,-0.40137 -0.35515,-0.0956 -0.64571,-0.25126 -0.64571,-0.34584 0,-0.16895 -0.30781,-0.6011 -1.1687,-1.6409 l -0.43404,-0.52419 -2.7496,0.20602 c -5.785,0.43344 -7.0792,0.49992 -10.093,0.5184 -1.7082,0.0105 -3.8772,0.0852 -4.8201,0.16603 -3.8368,0.32894 -6.1824,0.50542 -7.2653,0.54662 -0.62857,0.0239 -1.5195,0.14041 -1.9799,0.25885 -0.78418,0.20173 -0.87444,0.19224 -1.4286,-0.15023 -0.58799,-0.36339 -0.71886,-0.70129 -0.44139,-1.1396 0.10731,-0.16951 0.47872,-0.22139 1.4261,-0.19925 0.70452,0.0164 2.0157,-0.0441 2.9136,-0.13452 0.89796,-0.0905 2.7714,-0.27848 4.1633,-0.41783 1.3918,-0.13934 4.6612,-0.28661 7.2653,-0.32725 2.6041,-0.0406 5.2857,-0.14679 5.9592,-0.23591 1.0146,-0.13426 5.0185,-0.41685 7.7551,-0.54735 0.63861,-0.0305 0.66236,-0.0116 1.0738,0.85149 0.5182,1.0871 1.6326,2.0233 2.8189,2.3682 0.47146,0.13706 1.8938,0.33065 3.1608,0.43019 2.0975,0.1648 2.4911,0.15009 4.4005,-0.16446 2.6633,-0.43871 5.1989,-0.92777 5.9326,-1.1442 0.3137,-0.0925 0.77933,-0.16826 1.0348,-0.16826 0.25542,0 1.2845,-0.32348 2.2868,-0.71882 1.0023,-0.39537 2.4021,-0.91259 3.1106,-1.1494 0.7085,-0.2368 1.6056,-0.61656 1.9935,-0.84389 0.92048,-0.53943 2.3106,-1.043 2.8793,-1.043 0.37061,0 0.45128,0.0718 0.45128,0.40179 0,0.47933 -0.51314,0.99586 -1.2563,1.2646 -0.29681,0.10733 -0.53965,0.24739 -0.53965,0.31126 0,0.0639 -0.30149,0.16705 -0.66998,0.22931 -0.70338,0.11884 -2.8243,1.0949 -3.0012,1.3812 -0.0567,0.0918 -0.37827,0.16691 -0.71453,0.16691 -0.33625,0 -0.97478,0.17639 -1.4189,0.39197 -1.3541,0.65724 -3.5287,1.3649 -4.5627,1.4848 -2.0565,0.23843 -4.8504,0.68596 -5.6327,0.9022 -0.52274,0.14452 -3.9848,0.17347 -5.9592,0.0498 z m -5.4227,4.3992 c -0.2886,-0.14371 -0.63358,-0.49065 -0.7666,-0.77098 -0.13302,-0.28032 -0.58169,-0.82819 -0.99704,-1.2175 -0.41536,-0.38929 -0.82356,-0.88765 -0.90713,-1.1075 -0.19708,-0.51835 -0.0245,-1.1933 0.30515,-1.1933 0.42918,0 1.2779,0.67683 1.601,1.2767 0.16731,0.31071 0.58723,0.79236 0.93316,1.0704 0.75658,0.60802 1.1643,1.4557 0.91977,1.9126 -0.19883,0.37149 -0.39114,0.37672 -1.0883,0.0296 z"
       id="among" />
  </g>
</svg>
