<svg xmlns="http://www.w3.org/2000/svg" height="18.366" width="60.279"><path d="M.145 7.595c-.252-.384-.233-.44.527-1.592C1.754 4.363 2.197 3.17 2.03 2.346a7.968 7.968 0 00-.343-1.16C1.5.723 1.511.623 1.778.327c.566-.625 1.075-.363 1.635.842.205.442.256.84.19 1.47-.186 1.747-.302 2.414-.42 2.414-.066 0-.313.354-.548.785-.235.432-.577.92-.76 1.087-.184.166-.334.393-.334.505 0 .112-.232.284-.514.383-.651.227-.578.245-.882-.219zm30.546 8.538c.403-.372.876-.998 1.05-1.392.174-.394.43-.83.569-.968.192-.192.252-.621.252-1.791 0-1.322-.046-1.586-.327-1.866-.38-.381-.995-.42-1.607-.102-.238.124-.654.325-.923.448-.27.122-1.125.85-1.901 1.616-1.04 1.028-1.458 1.564-1.59 2.042-.207.744-.233 1.549-.058 1.801.198.286 2.186.861 3.022.875.695.012.858-.06 1.513-.663zm-3.109 1.978c-1.034-.287-1.455-.441-2.204-.805-.414-.202-.974-1.36-.977-2.02-.003-.78.876-2.432 1.983-3.729 1.204-1.41 1.151-1.48-1.047-1.355-1.01.057-2.24.169-2.734.249-.76.122-3.863.334-10.367.706-.719.041-1.968.15-2.776.244-.808.092-2.755.251-4.326.353-2.662.173-2.919.164-3.755-.124-.76-.262-.906-.377-.95-.75-.031-.264.039-.474.175-.527.125-.048 1.397-.109 2.828-.136 1.43-.027 3.775-.13 5.212-.23a178.8 178.8 0 015.143-.266c4.638-.158 9.96-.583 12.408-.992.763-.128 2.483-.387 3.822-.577 1.34-.19 2.698-.447 3.02-.571.323-.124 1.027-.31 1.566-.413l1.633-.314c.359-.07 1.094-.252 1.632-.406 1.006-.288 2.758-.681 5.062-1.135.718-.142 2.26-.329 3.428-.416a874.99 874.99 0 004.508-.348c2.046-.163 2.556-.154 3.592.064.663.14 1.498.303 1.854.362.92.153 1.356.416 2.48 1.495.877.843 1.023 1.077 1.28 2.048.272 1.025.273 1.123.02 1.51-.298.454-.457.497-.918.25-.196-.104-.346-.427-.416-.897-.06-.404-.17-.735-.245-.735-.073 0-.225-.253-.337-.562a2.311 2.311 0 00-.676-.912c-.648-.479-4.019-1.293-5.374-1.297-2.118-.007-6.115.326-7.727.644-.898.177-2.257.395-3.02.485-1.89.221-2.964.446-4.409.924-1.991.658-2.21.718-2.588.718-.523 0-.592.371-.346 1.859.299 1.81.242 2.614-.247 3.488-.226.405-.41.827-.41.94 0 .313-1.8 2.406-2.506 2.914-.826.594-1.815.673-3.29.264z"/></svg>