<?xml version="1.0" encoding="UTF-8" standalone="no"?>
<svg
   xmlns:dc="http://purl.org/dc/elements/1.1/"
   xmlns:cc="http://creativecommons.org/ns#"
   xmlns:rdf="http://www.w3.org/1999/02/22-rdf-syntax-ns#"
   xmlns:svg="http://www.w3.org/2000/svg"
   xmlns="http://www.w3.org/2000/svg"
   id="svg2502"
   viewBox="0 0 60.278696 18.366037"
   version="1.1"
   height="18.366037"
   width="60.278698">
  <defs
     id="defs2506" />
  <metadata
     id="metadata2">
    <rdf:RDF>
      <cc:Work
         rdf:about="">
        <dc:format>image/svg+xml</dc:format>
        <dc:type
           rdf:resource="http://purl.org/dc/dcmitype/StillImage" />
        <dc:title />
      </cc:Work>
    </rdf:RDF>
  </metadata>
  <g
     transform="translate(-216.09532,-480.98496)"
     style="stroke-width:0.16327"
     id="g2500">
    <path
       d="m 216.24,488.58 c -0.25159,-0.38397 -0.23283,-0.44067 0.52684,-1.5918 1.0823,-1.6401 1.5258,-2.8345 1.358,-3.6576 -0.0715,-0.35096 -0.22545,-0.87321 -0.34206,-1.1605 -0.1872,-0.46137 -0.17657,-0.56155 0.0909,-0.85714 0.56589,-0.62533 1.0751,-0.36293 1.6347,0.8424 0.20483,0.44115 0.25629,0.84031 0.18949,1.4694 -0.18562,1.7476 -0.30152,2.4147 -0.41955,2.4147 -0.0665,0 -0.31304,0.35308 -0.54792,0.78464 -0.23488,0.43154 -0.57717,0.92049 -0.76065,1.0865 -0.18346,0.16604 -0.33358,0.39352 -0.33358,0.50552 0,0.11198 -0.23138,0.28427 -0.51416,0.38285 -0.65113,0.22699 -0.57799,0.24513 -0.88204,-0.2189 z m 30.546,8.5382 c 0.40351,-0.37195 0.87618,-0.99844 1.0504,-1.3922 0.17419,-0.39374 0.43014,-0.82937 0.5688,-0.96803 0.19166,-0.19164 0.25212,-0.62126 0.25212,-1.7915 0,-1.3217 -0.0462,-1.5855 -0.32653,-1.8659 -0.38074,-0.38073 -0.99499,-0.41954 -1.6075,-0.10151 -0.23836,0.12375 -0.65377,0.32516 -0.92316,0.44756 -0.26938,0.12241 -1.1247,0.84989 -1.9008,1.6166 -1.0406,1.0281 -1.4582,1.5642 -1.5909,2.0422 -0.20632,0.74319 -0.23172,1.5484 -0.0568,1.801 0.1975,0.28519 2.1853,0.86071 3.0216,0.87485 0.69499,0.0118 0.85844,-0.0599 1.5128,-0.66312 z m -3.1083,1.9775 c -1.0342,-0.28697 -1.4558,-0.44099 -2.2041,-0.80516 -0.41404,-0.20148 -0.97407,-1.3598 -0.97689,-2.0205 -0.003,-0.779 0.87526,-2.4313 1.9823,-3.7279 1.2046,-1.4109 1.1518,-1.4794 -1.0462,-1.3554 -1.0102,0.057 -2.2408,0.16895 -2.7347,0.2488 -0.76018,0.12291 -3.8624,0.33437 -10.367,0.7067 -0.71837,0.0411 -1.9674,0.15059 -2.7755,0.24328 -0.80817,0.0927 -2.7551,0.25192 -4.3265,0.35384 -2.6614,0.17262 -2.9187,0.1641 -3.7551,-0.12421 -0.75928,-0.26171 -0.90596,-0.3775 -0.94971,-0.74967 -0.0311,-0.26458 0.0388,-0.47487 0.1753,-0.52724 0.12488,-0.0479 1.3971,-0.10918 2.8273,-0.13612 1.4301,-0.0269 3.7757,-0.13015 5.2125,-0.22939 1.4367,-0.0992 3.751,-0.21916 5.1429,-0.26653 4.6379,-0.15786 9.9603,-0.58357 12.408,-0.99245 0.76327,-0.1275 2.4833,-0.38724 3.8223,-0.5772 1.339,-0.18996 2.6982,-0.44676 3.0204,-0.57067 0.32221,-0.12391 1.0266,-0.30993 1.5654,-0.41339 0.53878,-0.10345 1.2735,-0.24461 1.6327,-0.31367 0.35918,-0.0691 1.0939,-0.25178 1.6326,-0.40605 1.0052,-0.28784 2.7577,-0.68089 5.0612,-1.1351 0.71837,-0.14166 2.2612,-0.32857 3.4286,-0.41536 1.1673,-0.0868 3.1958,-0.24353 4.5076,-0.34834 2.046,-0.16348 2.5567,-0.15439 3.5918,0.0639 0.66371,0.13994 1.4981,0.30286 1.8541,0.36205 0.92114,0.15311 1.3566,0.41562 2.4797,1.4949 0.87775,0.84343 1.024,1.0772 1.281,2.0482 0.27123,1.0246 0.27246,1.1232 0.0189,1.5102 -0.29713,0.45348 -0.45674,0.49703 -0.91764,0.25037 -0.19603,-0.10492 -0.34539,-0.42732 -0.41596,-0.89796 -0.0606,-0.40386 -0.17049,-0.73427 -0.24427,-0.73427 -0.0738,0 -0.22571,-0.25318 -0.3376,-0.56262 -0.1119,-0.30945 -0.41606,-0.71982 -0.67591,-0.91193 -0.64763,-0.47881 -4.0186,-1.2926 -5.3737,-1.2972 -2.1178,-0.007 -6.1156,0.32595 -7.7273,0.64411 -0.89796,0.17726 -2.2571,0.39546 -3.0204,0.48486 -1.8904,0.22147 -2.9634,0.44636 -4.4082,0.92389 -1.9915,0.65824 -2.2099,0.71891 -2.5882,0.71891 -0.52347,0 -0.59257,0.37054 -0.34654,1.8586 0.29931,1.8104 0.24261,2.6135 -0.24634,3.4883 -0.22594,0.40426 -0.41081,0.82673 -0.41081,0.93882 0,0.31346 -1.7998,2.4071 -2.5054,2.9145 -0.82614,0.59406 -1.8155,0.67349 -3.2906,0.26418 z"
       id="amount" />
  </g>
</svg>
