<?xml version="1.0" encoding="UTF-8" standalone="no"?>
<svg
   xmlns:dc="http://purl.org/dc/elements/1.1/"
   xmlns:cc="http://creativecommons.org/ns#"
   xmlns:rdf="http://www.w3.org/1999/02/22-rdf-syntax-ns#"
   xmlns:svg="http://www.w3.org/2000/svg"
   xmlns="http://www.w3.org/2000/svg"
   id="svg2502"
   viewBox="0 0 74.698782 23.68866"
   version="1.1"
   height="23.68866"
   width="74.698784">
  <defs
     id="defs2506" />
  <metadata
     id="metadata2">
    <rdf:RDF>
      <cc:Work
         rdf:about="">
        <dc:format>image/svg+xml</dc:format>
        <dc:type
           rdf:resource="http://purl.org/dc/dcmitype/StillImage" />
        <dc:title />
      </cc:Work>
    </rdf:RDF>
  </metadata>
  <g
     transform="translate(-217.38725,-522.87031)"
     style="stroke-width:0.16327"
     id="g2500">
    <path
       d="m 218.31,535.53 c -0.34438,-0.21811 -0.0912,-1.2101 0.45936,-1.7994 0.5407,-0.57883 0.91053,-1.8858 0.77316,-2.7323 -0.058,-0.35731 -0.34565,-0.84684 -0.7649,-1.3017 -0.36957,-0.40095 -0.64432,-0.81191 -0.61055,-0.91325 0.19865,-0.5959 1.5042,-0.54258 2.0973,0.0857 0.92376,0.97837 1.2224,2.6722 0.68447,3.8826 -0.54373,1.2237 -1.5147,2.6075 -1.9441,2.7708 -0.48483,0.18434 -0.41671,0.18361 -0.69472,0.008 z m 27.96,9.1526 c 0.77513,-0.25566 1.5662,-0.60464 1.7578,-0.77551 0.19167,-0.17087 0.56378,-0.78774 0.82693,-1.3708 0.45922,-1.0175 0.47076,-1.1009 0.28712,-2.0742 -0.24841,-1.3165 -0.98563,-2.3351 -1.6901,-2.3351 -0.88589,0 -2.7492,1.0694 -3.6257,2.0808 -1.0054,1.1602 -1.2087,1.6357 -1.2087,2.8268 0,1.1295 0.4062,1.7334 1.3087,1.9456 0.84921,0.19967 0.82784,0.2024 2.3439,-0.29765 z m -2.673,1.6967 c -0.22449,-0.13239 -0.58006,-0.24333 -0.79015,-0.24652 -0.36919,-0.006 -0.98923,-0.56725 -1.0003,-0.90615 -0.003,-0.0911 -0.15237,-0.43984 -0.33197,-0.77492 -0.23335,-0.4354 -0.32653,-0.92116 -0.32653,-1.7024 0,-0.98361 0.0655,-1.2035 0.65426,-2.1944 0.35983,-0.6057 0.87412,-1.2578 1.1428,-1.4492 0.78438,-0.55852 0.64244,-0.81555 -0.45017,-0.81512 -1.7482,0 -8.5379,0.39259 -16.939,0.97773 -4.4939,0.31301 -7.1628,0.36774 -7.6267,0.15639 -0.54093,-0.24647 -0.6736,-0.56047 -0.41304,-0.97767 0.21463,-0.34369 0.30361,-0.36558 1.4275,-0.35144 0.93003,0.0118 5.554,-0.2353 10.204,-0.54508 1.9755,-0.13161 4.9143,-0.27699 6.5306,-0.32308 6.9407,-0.19791 11.217,-0.60991 13.061,-1.2583 0.53878,-0.18945 1.2367,-0.39863 1.551,-0.46482 0.31429,-0.0662 0.99941,-0.2772 1.5225,-0.46889 2.03,-0.74395 5.6678,-1.2388 10.967,-1.492 5.3444,-0.2553 6.4182,-0.003 8.3917,1.9703 0.45765,0.45767 0.94436,1.0492 1.0816,1.3145 0.40518,0.78353 1.0574,0.66972 2.1478,-0.37476 0.49215,-0.47142 1.2389,-1.1878 1.6596,-1.5918 0.93813,-0.90129 1.638,-1.498 2.0124,-1.7159 0.1558,-0.0906 0.67675,-0.53146 1.1576,-0.97959 1.4031,-1.3074 1.9811,-1.772 2.6635,-2.1406 0.35256,-0.19045 0.81107,-0.59453 1.0189,-0.89796 0.20783,-0.30345 0.47271,-0.58844 0.58865,-0.63334 0.21419,-0.083 1.2688,-0.88921 1.6619,-1.2704 0.11863,-0.11507 0.42235,-0.29874 0.67494,-0.40816 0.45846,-0.1986 1.4133,-0.88743 2.0863,-1.5051 0.19567,-0.1796 0.60593,-0.4675 0.91164,-0.63977 0.30573,-0.17228 0.81301,-0.58201 1.1273,-0.9105 0.71922,-0.75174 1.3705,-1.0447 1.8052,-0.81208 0.17447,0.0934 0.31721,0.25208 0.31721,0.35268 0,0.34142 -0.85698,1.3085 -1.3685,1.5443 -0.64181,0.29585 -1.3548,0.81166 -2.3949,1.7326 -0.449,0.39755 -1.0165,0.82597 -1.2612,0.95203 -0.2447,0.12606 -0.48158,0.26674 -0.52648,0.31265 -0.0449,0.0459 -0.36539,0.22969 -0.71221,0.40843 -0.34683,0.17873 -0.95346,0.65954 -1.3481,1.0685 -0.39463,0.40891 -1.4468,1.2905 -2.3381,1.9592 -0.8913,0.6687 -1.7158,1.3892 -1.8322,1.6013 -0.11634,0.21209 -0.36003,0.45068 -0.54153,0.53022 -0.57587,0.25241 -0.88645,0.51522 -2.6318,2.2271 -0.93843,0.92041 -1.7619,1.6735 -1.8299,1.6735 -0.068,0 -0.50763,0.39502 -0.97687,0.87781 -0.86145,0.88632 -1.4991,1.1707 -2.2195,0.98986 -0.31641,-0.0794 -1.5698,-1.8035 -1.5698,-2.1593 0,-0.0716 -0.31225,-0.42676 -0.69388,-0.78929 -0.57466,-0.54591 -0.99708,-0.752 -2.4586,-1.1996 -1.5631,-0.47866 -1.8896,-0.527 -2.8571,-0.42297 -0.60084,0.0646 -1.9373,0.15074 -2.97,0.19144 -1.0327,0.0407 -2.098,0.14079 -2.3674,0.22239 -0.54797,0.16599 -2.3542,0.42638 -4.0816,0.58844 -1.7385,0.16308 -4.8946,1.2897 -5.098,1.8198 -0.0544,0.14188 -0.009,0.55895 0.1,0.92684 0.72904,2.4513 0.74974,3.0336 0.16509,4.6435 -0.63891,1.7592 -1.5614,2.5305 -3.7385,3.1255 -1.8045,0.49323 -2.4402,0.5482 -2.9388,0.25416 z"
       id="amounts" />
  </g>
</svg>
