<?xml version="1.0" encoding="UTF-8" standalone="no"?>
<svg
   xmlns:dc="http://purl.org/dc/elements/1.1/"
   xmlns:cc="http://creativecommons.org/ns#"
   xmlns:rdf="http://www.w3.org/1999/02/22-rdf-syntax-ns#"
   xmlns:svg="http://www.w3.org/2000/svg"
   xmlns="http://www.w3.org/2000/svg"
   id="svg2502"
   viewBox="0 0 80.751508 19.110834"
   version="1.1"
   height="19.110834"
   width="80.751511">
  <defs
     id="defs2506" />
  <metadata
     id="metadata2">
    <rdf:RDF>
      <cc:Work
         rdf:about="">
        <dc:format>image/svg+xml</dc:format>
        <dc:type
           rdf:resource="http://purl.org/dc/dcmitype/StillImage" />
        <dc:title />
      </cc:Work>
    </rdf:RDF>
  </metadata>
  <g
     transform="translate(-217.0426,-504.73056)"
     style="stroke-width:0.16327"
     id="g2500">
    <path
       d="m 217.2,512.41 c -0.15504,-0.404 0.0751,-1.0065 0.57562,-1.507 0.70503,-0.70504 1.3167,-2.0417 1.4299,-3.125 0.0965,-0.92316 0.0808,-0.97748 -0.4072,-1.4123 -0.60846,-0.54214 -0.75618,-0.93203 -0.52018,-1.373 0.14129,-0.26402 0.27755,-0.30756 0.69869,-0.22334 0.28774,0.0575 0.6675,0.23909 0.84391,0.40343 0.17639,0.16435 0.37845,0.29881 0.44901,0.29881 0.0705,0 0.24917,0.23378 0.39693,0.51953 0.39993,0.77337 0.24622,2.5489 -0.33228,3.8379 -0.24899,0.55483 -0.55505,1.048 -0.68014,1.096 -0.12508,0.048 -0.22743,0.19124 -0.22743,0.31831 0,0.12705 -0.29409,0.4967 -0.65354,0.82143 -0.68635,0.62008 -1.4071,0.77822 -1.5733,0.34518 z m 28.664,9.5212 c 1.1352,-0.37748 1.8074,-0.73453 1.8074,-0.95998 0,-0.075 0.20749,-0.45223 0.46111,-0.83837 0.25361,-0.38612 0.59302,-1.1519 0.75423,-1.7016 0.36937,-1.2596 0.18554,-1.9586 -0.77843,-2.9596 -0.88749,-0.92165 -1.313,-0.91357 -2.7391,0.052 -0.86457,0.58534 -1.3063,1.0471 -2.0528,2.1462 -0.87328,1.2856 -0.95119,1.4736 -0.95119,2.2949 0,0.86815 0.0239,0.9156 0.81186,1.6089 0.93601,0.82366 1.1856,0.85688 2.6868,0.35766 z m -2.6416,1.5612 c -0.51633,-0.23925 -0.93878,-0.49956 -0.93878,-0.57847 0,-0.0789 -0.30047,-0.4694 -0.66771,-0.86782 -0.47271,-0.51283 -0.69312,-0.91397 -0.75479,-1.3737 -0.14232,-1.0611 0.0863,-2.0569 0.62911,-2.7396 0.273,-0.34342 0.59721,-0.86563 0.72046,-1.1604 0.12325,-0.29484 0.44722,-0.72382 0.71993,-0.95329 0.27272,-0.22949 0.49586,-0.55765 0.49586,-0.72926 0,-0.27043 -0.12317,-0.31202 -0.92408,-0.31202 -1.1962,0 -5.676,0.46093 -6.4462,0.66325 -0.32712,0.086 -0.70513,0.1139 -0.84004,0.0621 -0.13489,-0.0518 -0.5652,-0.007 -0.95626,0.1004 -0.39103,0.10698 -1.4824,0.18725 -2.4253,0.17839 -0.94286,-0.009 -2.9633,0.0619 -4.4898,0.15719 -1.5265,0.0953 -4.1174,0.19801 -5.7576,0.22823 -1.6402,0.0302 -3.1893,0.10046 -3.4426,0.15608 -0.58676,0.12888 -1.2419,-0.3447 -1.0758,-0.77762 0.27067,-0.70537 1.3158,-0.87081 4.6433,-0.73497 0.40408,0.0165 1.3959,-0.0596 2.2041,-0.16908 0.80817,-0.10947 3.8939,-0.27053 6.8572,-0.35787 2.9633,-0.0874 6.4163,-0.2611 7.6735,-0.38606 6.4123,-0.63745 7.5158,-0.79051 8.4082,-1.1663 0.49388,-0.20797 1.1918,-0.42971 1.551,-0.49277 0.35918,-0.063 0.77117,-0.21743 0.91551,-0.3431 0.4486,-0.39051 3.3838,-1.0334 5.86,-1.2834 2.8452,-0.28733 4.6689,-0.52259 5.8776,-0.75822 1.5244,-0.29719 3.2596,-0.45515 5.3878,-0.4905 2.0702,-0.0344 2.875,0.0956 4.1633,0.67212 0.35918,0.16075 0.9179,0.40557 1.2416,0.54405 0.3347,0.14318 1.141,0.85543 1.8695,1.6514 1.1293,1.2339 1.3883,1.4311 2.187,1.6651 1.393,0.40813 3.0027,0.58909 5.1509,0.57912 3.2545,-0.0152 5.4845,-0.32546 7.5102,-1.0451 0.62857,-0.22331 1.4735,-0.5015 1.8776,-0.6182 0.88565,-0.25577 2.5689,-0.90856 3.0204,-1.1713 0.70681,-0.41137 1.8871,-0.94461 2.0909,-0.94461 0.11821,0 0.36198,-0.13699 0.5417,-0.30444 0.74047,-0.68986 1.694,-0.83905 1.694,-0.26508 0,0.60467 -2.3896,2.3654 -3.2103,2.3654 -0.1664,0 -0.65247,0.18629 -1.0802,0.41396 -0.8162,0.4345 -3.3719,1.382 -3.7277,1.382 -0.11412,0 -0.79959,0.17701 -1.5233,0.39337 -3.9876,1.1922 -7.8145,1.5192 -10.704,0.91464 -2.8913,-0.60501 -3.2654,-0.71093 -3.5253,-0.99815 -0.15424,-0.17043 -0.37587,-0.30986 -0.49254,-0.30986 -0.11665,0 -0.45754,-0.32142 -0.7575,-0.71429 -0.70583,-0.92439 -2.0028,-2.043 -2.7319,-2.3563 -1.6069,-0.69048 -9.4388,-0.18663 -15.921,1.0243 -0.71836,0.13419 -1.5291,0.24542 -1.8016,0.24718 -0.62072,0.004 -2.3482,0.5995 -2.729,0.94067 -0.37872,0.33937 -0.36052,0.71932 0.0601,1.254 0.19019,0.2418 0.47991,0.79253 0.64379,1.2239 0.27328,0.71916 0.27928,0.89136 0.0725,2.0758 -0.12402,0.71038 -0.377,1.645 -0.56216,2.077 -0.18517,0.43196 -0.33714,0.87115 -0.33773,0.97595 0,0.1048 -0.28841,0.52578 -0.63964,0.93549 -0.44183,0.51543 -0.8565,0.81056 -1.3459,0.95789 -0.38901,0.11713 -1.0746,0.35083 -1.5236,0.51934 -1.3668,0.51299 -1.7096,0.51844 -2.7347,0.0435 z"
       id="amounting" />
  </g>
</svg>
