<svg xmlns="http://www.w3.org/2000/svg" height="23.689" width="74.699"><path d="M.923 12.66c-.345-.218-.091-1.21.46-1.8.54-.579.91-1.886.772-2.732-.058-.357-.345-.847-.765-1.302-.37-.4-.644-.812-.61-.913.198-.596 1.504-.543 2.097.086.924.978 1.223 2.672.685 3.882-.544 1.224-1.515 2.608-1.945 2.771-.484.184-.416.184-.694.008zm27.96 9.152c.775-.255 1.566-.604 1.758-.775.191-.171.563-.788.826-1.371.46-1.018.471-1.1.288-2.074-.249-1.317-.986-2.335-1.69-2.335-.886 0-2.75 1.07-3.626 2.08-1.006 1.16-1.209 1.636-1.209 2.827 0 1.13.406 1.734 1.309 1.946.849.2.828.202 2.344-.298zM26.21 23.51c-.225-.132-.58-.243-.79-.247-.37-.006-.99-.567-1-.906-.004-.09-.153-.44-.333-.775-.233-.435-.326-.92-.326-1.702 0-.984.065-1.204.654-2.194.36-.606.874-1.258 1.143-1.45.784-.558.642-.815-.45-.815-1.749 0-8.538.393-16.94.978-4.493.313-7.162.368-7.626.156-.54-.246-.674-.56-.413-.977.215-.344.304-.366 1.427-.352.93.012 5.554-.235 10.204-.545a212.01 212.01 0 016.531-.323c6.94-.198 11.217-.61 13.061-1.258.539-.19 1.237-.399 1.551-.465.314-.066 1-.277 1.523-.469 2.03-.744 5.667-1.239 10.967-1.492 5.344-.255 6.418-.003 8.391 1.97.458.458.945 1.05 1.082 1.315.405.783 1.057.67 2.148-.375l1.66-1.592c.937-.9 1.637-1.498 2.012-1.716.155-.09.676-.531 1.157-.98 1.403-1.307 1.981-1.771 2.664-2.14.352-.19.81-.594 1.019-.898.207-.303.472-.588.588-.633.214-.083 1.27-.89 1.662-1.27.119-.116.423-.3.675-.409.459-.198 1.413-.887 2.086-1.505.196-.18.606-.467.912-.64.306-.172.813-.581 1.127-.91.72-.752 1.37-1.045 1.806-.812.174.093.317.252.317.353 0 .341-.857 1.308-1.369 1.544-.642.296-1.355.812-2.395 1.733-.449.397-1.016.826-1.26.952-.246.126-.482.266-.527.312-.045.046-.366.23-.712.409-.347.178-.954.66-1.349 1.068-.394.41-1.446 1.29-2.338 1.96-.891.668-1.715 1.389-1.832 1.6-.116.213-.36.451-.541.53-.576.253-.887.516-2.632 2.228-.939.92-1.762 1.673-1.83 1.673-.068 0-.508.395-.977.878-.861.887-1.5 1.171-2.22.99-.316-.08-1.57-1.803-1.57-2.16 0-.07-.312-.426-.693-.788-.575-.546-.997-.752-2.459-1.2-1.563-.479-1.89-.527-2.857-.423-.6.065-1.937.15-2.97.191-1.033.041-2.098.141-2.367.223-.548.166-2.354.426-4.082.588-1.738.163-4.894 1.29-5.098 1.82-.054.142-.009.559.1.927.73 2.451.75 3.033.165 4.643-.639 1.76-1.561 2.53-3.738 3.126-1.805.493-2.44.548-2.94.254z"/></svg>