<svg xmlns="http://www.w3.org/2000/svg" height="19.111" width="80.752"><path d="M.157 7.68c-.155-.405.075-1.007.576-1.508.705-.705 1.317-2.041 1.43-3.125.096-.923.08-.977-.407-1.412C1.147 1.093 1 .703 1.236.262c.14-.264.277-.307.698-.223.288.057.668.239.844.403.177.165.379.299.45.299.07 0 .248.234.396.52.4.773.246 2.548-.332 3.837-.25.555-.555 1.048-.68 1.096a.373.373 0 00-.228.319c0 .127-.294.496-.653.821-.687.62-1.407.778-1.574.345zm28.664 9.52c1.136-.377 1.808-.734 1.808-.96 0-.074.207-.452.46-.838.255-.386.594-1.152.755-1.701.37-1.26.186-1.959-.778-2.96-.888-.922-1.313-.913-2.74.052-.864.585-1.306 1.047-2.052 2.146-.873 1.286-.951 1.474-.951 2.295 0 .868.024.916.811 1.61.936.823 1.186.856 2.687.357zm-2.641 1.562c-.517-.24-.939-.5-.939-.579 0-.079-.3-.469-.668-.867-.472-.513-.693-.914-.754-1.374-.143-1.061.086-2.057.629-2.74.273-.343.597-.865.72-1.16.123-.295.447-.724.72-.953.273-.23.496-.558.496-.73 0-.27-.123-.312-.924-.312-1.196 0-5.676.461-6.446.664-.328.086-.706.113-.84.062-.135-.052-.566-.007-.957.1-.39.107-1.482.187-2.425.178-.943-.009-2.963.062-4.49.158-1.526.095-4.117.198-5.757.228-1.64.03-3.19.1-3.443.156-.587.129-1.242-.345-1.076-.778.27-.705 1.316-.87 4.643-.735.405.017 1.396-.06 2.205-.169.808-.11 3.893-.27 6.857-.358 2.963-.087 6.416-.26 7.673-.386 6.413-.637 7.516-.79 8.409-1.166.493-.208 1.191-.43 1.55-.493.36-.063.772-.217.916-.343.449-.39 3.384-1.033 5.86-1.283 2.845-.288 4.669-.523 5.878-.758 1.524-.298 3.26-.456 5.387-.491 2.07-.034 2.875.096 4.164.672.359.16.918.406 1.241.544.335.143 1.141.856 1.87 1.652 1.13 1.233 1.388 1.43 2.187 1.665 1.393.408 3.003.589 5.15.579 3.255-.015 5.485-.326 7.51-1.045a41.57 41.57 0 011.879-.618c.885-.256 2.568-.909 3.02-1.172.707-.411 1.887-.944 2.09-.944.119 0 .363-.137.543-.305.74-.69 1.694-.839 1.694-.265 0 .605-2.39 2.365-3.21 2.365-.167 0-.653.187-1.081.414-.816.435-3.372 1.382-3.728 1.382-.114 0-.8.177-1.523.394-3.988 1.192-7.814 1.519-10.704.914-2.891-.605-3.265-.71-3.525-.998-.155-.17-.376-.31-.493-.31-.116 0-.457-.321-.757-.714-.706-.924-2.003-2.043-2.732-2.356-1.607-.69-9.439-.187-15.921 1.024-.719.134-1.53.246-1.802.247-.62.004-2.348.6-2.729.941-.379.34-.36.72.06 1.254.19.242.48.793.644 1.224.273.72.28.891.073 2.076-.124.71-.377 1.645-.563 2.077-.185.432-.337.87-.337.976 0 .104-.289.525-.64.935-.442.516-.856.81-1.346.958-.389.117-1.074.35-1.523.52-1.367.512-1.71.518-2.735.043z" stroke-width=".163"/></svg>