<svg xmlns="http://www.w3.org/2000/svg" height="25.775" width="48.352"><path d="M1.453 6.52c-.278-.519-.195-.723.487-1.205.357-.253.65-.565.65-.694 0-.13.06-.235.133-.235.073 0 .3-.473.504-1.05.407-1.155.37-1.5-.247-2.326C2.242.025 2.899-.325 4.229.346c1.077.543 1.186 1.15.555 3.085-.264.81-.627 1.616-.806 1.791C2.25 6.905 1.786 7.143 1.453 6.52zm42.94 2.397a4.55 4.55 0 00.601-.857c.14-.27.3-.527.355-.572.263-.214.959-1.296 1.229-1.912a2.63 2.63 0 00.214-1.46c-.097-.859-.416-1.2-1.123-1.2-.38 0-.506.122-.8.776-.19.427-.49 1.364-.663 2.082a38.922 38.922 0 01-.639 2.307c-.178.55-.324 1.047-.324 1.102 0 .257.84.062 1.15-.266zM32.44 16.38c.69-.206.971-.409 1.518-1.1.658-.833.669-.867.569-1.823-.17-1.616-1.271-2.363-2.39-1.619-.66.439-2.445 2.236-2.445 2.462 0 .115-.067.209-.15.209-.187 0-.524 1.51-.37 1.66.185.181 1.215.432 1.837.447.32.008.964-.098 1.43-.237zm-7.97 9.15c-.257-.308-.093-1.273.342-2.02.176-.302.473-1.11.66-1.796.186-.685.393-1.32.46-1.41.066-.09.237-.53.38-.979.143-.449.44-1.367.662-2.04.22-.674.454-1.556.518-1.96.064-.404.215-.927.335-1.162.12-.235.24-.823.266-1.306l.048-.879-3.428.016c-1.886.01-4.972.07-6.857.134a84.25 84.25 0 01-6.613-.056c-3.444-.189-7.64-.36-9.696-.397-1.029-.019-1.324-.08-1.467-.307-.143-.225-.104-.359.19-.653.35-.35.495-.37 2.692-.366 1.277.002 3.755.076 5.506.164 3.332.166 8.81.162 15.837-.013l4.694-.117a1.3 1.3 0 01.908.342c.483.454.532.45 1.681-.133 1.202-.61 1.974-.627 2.999-.07 1.372.747 1.93 2.387 1.41 4.14-.318 1.068-.328 1.316-.057 1.316.327 0 1.469-.644 1.916-1.081.224-.22.753-.622 1.175-.894 1.093-.703 1.826-1.803 2.176-3.262.16-.666.384-1.432.498-1.702.114-.269.26-.71.324-.98.064-.269.172-.562.239-.652.067-.09.172-.494.232-.898.06-.404.247-1.176.415-1.714.168-.54.387-1.293.487-1.675.17-.648.257-.73 1.259-1.184 1.29-.585 1.665-.603 2.503-.121 1.34.77 1.564 2.47.583 4.412-.92 1.823-1.21 2.267-1.987 3.041-.396.395-.721.8-.722.898-.002.099-.81 1.024-1.796 2.055l-1.794 1.876v2.356l.566.107c.682.127.878.57.505 1.14-.234.357-.378.4-1.31.4-.899 0-1.085-.051-1.303-.362-.14-.2-.255-.659-.257-1.02-.002-.362-.07-.766-.155-.899-.13-.207-.216-.196-.61.085-.251.179-.86.536-1.355.794-.494.259-1.045.597-1.224.753-.378.327-1.32.548-3.542.83-1.27.162-1.803.16-2.694-.006-1.715-.322-1.88-.259-2.102.806-.103.494-.261 1.081-.352 1.306a15.87 15.87 0 00-.368 1.061c-.193.626-.598 1.625-1.406 3.47-.305.696-.45.857-.772.857-.219 0-.488-.11-.6-.243z"/></svg>