<?xml version="1.0" encoding="UTF-8" standalone="no"?>
<svg
   xmlns:dc="http://purl.org/dc/elements/1.1/"
   xmlns:cc="http://creativecommons.org/ns#"
   xmlns:rdf="http://www.w3.org/1999/02/22-rdf-syntax-ns#"
   xmlns:svg="http://www.w3.org/2000/svg"
   xmlns="http://www.w3.org/2000/svg"
   id="svg2502"
   viewBox="0 0 48.351702 25.774614"
   version="1.1"
   height="25.774614"
   width="48.351704">
  <defs
     id="defs2506" />
  <metadata
     id="metadata2">
    <rdf:RDF>
      <cc:Work
         rdf:about="">
        <dc:format>image/svg+xml</dc:format>
        <dc:type
           rdf:resource="http://purl.org/dc/dcmitype/StillImage" />
        <dc:title />
      </cc:Work>
    </rdf:RDF>
  </metadata>
  <g
     transform="translate(-211.44734,-554.63049)"
     style="stroke-width:0.16327"
     id="g2500">
    <path
       d="m 212.9,561.15 c -0.27734,-0.51821 -0.19477,-0.72226 0.48754,-1.205 0.35726,-0.25275 0.64957,-0.56499 0.64957,-0.69388 0,-0.12886 0.0599,-0.2343 0.13308,-0.2343 0.0732,0 0.30002,-0.47291 0.50406,-1.0509 0.40751,-1.1543 0.37078,-1.4998 -0.24729,-2.3251 -0.73795,-0.9854 -0.0806,-1.3353 1.249,-0.66478 1.077,0.54307 1.1862,1.1496 0.55556,3.085 -0.26408,0.81053 -0.62708,1.6169 -0.80667,1.7918 -1.7265,1.6822 -2.1911,1.9208 -2.5249,1.2972 z m 42.941,2.3974 c 0.19071,-0.20204 0.46097,-0.58775 0.60058,-0.85714 0.1396,-0.26939 0.29908,-0.52653 0.35441,-0.57143 0.26368,-0.21396 0.95922,-1.296 1.2292,-1.912 0.21394,-0.48831 0.27603,-0.91124 0.21423,-1.4595 -0.0969,-0.85941 -0.41564,-1.1999 -1.1233,-1.1999 -0.38029,0 -0.50547,0.12151 -0.79892,0.77551 -0.19139,0.42654 -0.49002,1.3633 -0.66366,2.0816 -0.17361,0.71836 -0.46129,1.7566 -0.63924,2.3072 -0.17798,0.55056 -0.3236,1.0465 -0.3236,1.102 0,0.25659 0.84043,0.062 1.1504,-0.26634 z m -11.954,7.4626 c 0.69112,-0.20524 0.97131,-0.40828 1.5182,-1.1002 0.65814,-0.83261 0.66877,-0.86666 0.56891,-1.822 -0.16898,-1.6168 -1.2708,-2.3631 -2.3901,-1.619 -0.65961,0.43852 -2.4445,2.2359 -2.4445,2.4616 0,0.11484 -0.0675,0.2088 -0.15004,0.2088 -0.1871,0 -0.52413,1.5107 -0.37048,1.6607 0.18521,0.18076 1.2152,0.4313 1.8378,0.44703 0.32044,0.008 0.964,-0.0985 1.4301,-0.23696 z m -7.9704,9.1514 c -0.2563,-0.30884 -0.0927,-1.2736 0.34274,-2.0208 0.17615,-0.3023 0.47287,-1.1105 0.65938,-1.7959 0.1865,-0.68545 0.39345,-1.3198 0.45989,-1.4096 0.0664,-0.0898 0.23779,-0.53061 0.38078,-0.97959 0.143,-0.44898 0.44082,-1.3674 0.6618,-2.0408 0.22098,-0.6734 0.45417,-1.5551 0.51818,-1.9592 0.064,-0.40408 0.21476,-0.92702 0.33501,-1.1621 0.12024,-0.23505 0.24011,-0.8228 0.26641,-1.3061 l 0.0478,-0.87874 -3.4286,0.016 c -1.8857,0.009 -4.9714,0.0691 -6.8571,0.13402 -2.0146,0.0694 -4.7416,0.0462 -6.6122,-0.0562 -3.4444,-0.18851 -7.6402,-0.36041 -9.6965,-0.39726 -1.0289,-0.0184 -1.3243,-0.0802 -1.4671,-0.30653 -0.14227,-0.22553 -0.10329,-0.35895 0.19078,-0.65306 0.34968,-0.34975 0.4944,-0.3694 2.6916,-0.36579 1.2771,0.002 3.7547,0.0756 5.5057,0.16326 3.3321,0.16687 8.8099,0.16258 15.837,-0.0124 2.2898,-0.057 4.402,-0.10965 4.6938,-0.11693 0.33399,-0.008 0.6705,0.11829 0.90847,0.34186 0.48311,0.45386 0.53197,0.45 1.6809,-0.13262 1.2022,-0.60965 1.9742,-0.62764 2.999,-0.0699 1.3718,0.74666 1.9301,2.3862 1.4094,4.1396 -0.31699,1.0674 -0.32765,1.316 -0.0565,1.316 0.32754,0 1.469,-0.64417 1.916,-1.0812 0.22449,-0.21954 0.75348,-0.62158 1.1755,-0.89345 1.0924,-0.70364 1.8259,-1.8033 2.176,-3.2622 0.15998,-0.66662 0.38402,-1.4324 0.49786,-1.7018 0.11385,-0.26939 0.25953,-0.71021 0.32374,-0.97959 0.0642,-0.26939 0.17176,-0.56327 0.23902,-0.65306 0.0673,-0.0898 0.17158,-0.49388 0.2318,-0.89796 0.0602,-0.40408 0.24701,-1.1755 0.41506,-1.7143 0.16805,-0.53877 0.38738,-1.2925 0.48739,-1.675 0.16924,-0.64717 0.25661,-0.72934 1.2586,-1.1837 1.29,-0.58492 1.6654,-0.60306 2.5031,-0.12097 1.3392,0.7708 1.5637,2.4694 0.58289,4.4122 -0.9201,1.8227 -1.2101,2.2665 -1.9868,3.0411 -0.39631,0.39521 -0.72139,0.79929 -0.7224,0.89796 -0.002,0.0987 -0.80918,1.0235 -1.7959,2.0552 l -1.7941,1.8758 v 2.3562 l 0.56587,0.10615 c 0.68225,0.12799 0.87849,0.57132 0.50514,1.1411 -0.23323,0.35594 -0.37807,0.40016 -1.3104,0.40016 -0.89811,0 -1.0846,-0.052 -1.3024,-0.36285 -0.13979,-0.19958 -0.25528,-0.65876 -0.25665,-1.0204 -0.002,-0.36165 -0.0711,-0.76599 -0.15489,-0.89853 -0.13112,-0.20735 -0.21621,-0.19553 -0.60975,0.0847 -0.25154,0.17913 -0.86143,0.5368 -1.3553,0.7948 -0.49388,0.25803 -1.0449,0.59649 -1.2245,0.75218 -0.37777,0.32747 -1.3195,0.54841 -3.5422,0.83104 -1.2705,0.16155 -1.8023,0.16008 -2.6939,-0.007 -1.7149,-0.3222 -1.8805,-0.25871 -2.1016,0.80606 -0.1026,0.49388 -0.26123,1.0816 -0.35251,1.3061 -0.0913,0.22449 -0.2567,0.70204 -0.36759,1.0612 -0.19339,0.62632 -0.59824,1.6254 -1.4058,3.4694 -0.30494,0.69626 -0.44996,0.85714 -0.7726,0.85714 -0.21847,0 -0.488,-0.10941 -0.59897,-0.2431 z"
       id="ample" />
  </g>
</svg>
