<svg xmlns="http://www.w3.org/2000/svg" height="10.542" width="9.952"><path d="M4.084 8.92c1.092-.376 2.38-1.514 2.86-2.528.173-.364.44-1.261.596-1.995.232-1.104.246-1.42.078-1.825-.298-.72-.737-1.044-1.434-1.06-.501-.012-.808.134-1.63.774-.556.434-1.21 1.092-1.452 1.463-.243.371-.615.85-.826 1.064-.21.214-.383.518-.383.674 0 .157-.11.548-.245.87-.638 1.529-.105 2.683 1.321 2.86.098.013.6-.122 1.114-.299zm-2.925 1.174C.13 9.532-.1 8.974.035 7.364c.105-1.275.424-2.131 1.184-3.18.281-.388.511-.789.511-.89 0-.372 1.614-1.864 2.694-2.49C5.824-.008 6.16-.11 6.81.084c.333.1.978.438 1.432.751.456.313 1.013.57 1.24.57.416 0 .551.221.25.408-.09.055-.165.409-.165.785 0 .376-.148 1.295-.327 2.042-.366 1.526-.422 3.37-.119 3.88.111.187.365.588.564.891.335.511.342.573.097.844-.587.649-1.797.14-2.25-.947-.257-.614-.714-.736-1.085-.289-.384.463-1.489 1.078-2.343 1.306-1.25.333-2.024.273-2.945-.23z" stroke-width=".163"/></svg>