<svg xmlns="http://www.w3.org/2000/svg" height="10.542" width="9.952"><path d="M4.083 8.92c1.092-.376 2.38-1.514 2.862-2.528.172-.364.44-1.261.595-1.995.233-1.104.246-1.419.078-1.825-.298-.72-.737-1.044-1.434-1.06-.5-.011-.808.135-1.629.775-.556.434-1.21 1.092-1.453 1.464-.243.37-.614.85-.825 1.064-.211.214-.384.517-.384.674 0 .156-.11.548-.244.87-.639 1.528-.106 2.683 1.32 2.86.1.013.6-.122 1.114-.3zM1.16 10.094C.13 9.533-.1 8.975.035 7.364c.105-1.275.424-2.131 1.183-3.18.282-.388.512-.789.512-.89 0-.371 1.614-1.863 2.694-2.49C5.824-.008 6.16-.11 6.81.084c.332.1.977.438 1.432.751.456.313 1.014.57 1.24.57.416 0 .551.221.25.408-.09.055-.165.409-.165.785 0 .376-.148 1.295-.327 2.042-.366 1.526-.422 3.369-.119 3.88.111.187.365.588.564.891.335.511.342.573.097.844-.587.649-1.797.14-2.25-.947-.257-.614-.714-.736-1.085-.29-.384.463-1.488 1.08-2.342 1.307-1.251.333-2.024.272-2.945-.23z" stroke-width=".163"/></svg>