<?xml version="1.0" encoding="UTF-8" standalone="no"?>
<svg
   xmlns:dc="http://purl.org/dc/elements/1.1/"
   xmlns:cc="http://creativecommons.org/ns#"
   xmlns:rdf="http://www.w3.org/1999/02/22-rdf-syntax-ns#"
   xmlns:svg="http://www.w3.org/2000/svg"
   xmlns="http://www.w3.org/2000/svg"
   id="svg2502"
   viewBox="0 0 9.9518258 10.542113"
   version="1.1"
   height="10.542113"
   width="9.9518261">
  <defs
     id="defs2506" />
  <metadata
     id="metadata2">
    <rdf:RDF>
      <cc:Work
         rdf:about="">
        <dc:format>image/svg+xml</dc:format>
        <dc:type
           rdf:resource="http://purl.org/dc/dcmitype/StillImage" />
        <dc:title />
      </cc:Work>
    </rdf:RDF>
  </metadata>
  <g
     transform="translate(-219.32661,-580.47019)"
     style="stroke-width:0.16327"
     id="g2500">
    <path
       d="m 223.41,589.39 c 1.092,-0.37569 2.3799,-1.5135 2.8614,-2.528 0.17244,-0.36332 0.44017,-1.261 0.59494,-1.9948 0.23278,-1.1037 0.2463,-1.419 0.0782,-1.8249 -0.2979,-0.71917 -0.73721,-1.0439 -1.4338,-1.0598 -0.50077,-0.0114 -0.80807,0.13476 -1.6287,0.77473 -0.55629,0.43386 -1.2103,1.0924 -1.4534,1.4635 -0.2431,0.3711 -0.61445,0.84997 -0.82529,1.0643 -0.21084,0.21433 -0.38335,0.51755 -0.38335,0.67393 0,0.15639 -0.1102,0.54809 -0.24489,0.87046 -0.63847,1.528 -0.10513,2.6824 1.3214,2.8601 0.0982,0.0122 0.59926,-0.12251 1.1135,-0.29944 z m -2.9247,1.1745 c -1.0282,-0.56136 -1.2579,-1.1192 -1.1241,-2.7304 0.10585,-1.2752 0.42454,-2.1311 1.1838,-3.1792 0.28147,-0.38857 0.51177,-0.78929 0.51177,-0.8905 0,-0.37161 1.6141,-1.8636 2.6939,-2.4901 1.4004,-0.81254 1.7362,-0.91383 2.3847,-0.71951 0.33249,0.0996 0.97711,0.4374 1.4325,0.75066 0.45538,0.31324 1.0134,0.56954 1.2401,0.56954 0.41559,0 0.55069,0.2216 0.24883,0.40816 -0.0898,0.0555 -0.16379,0.40882 -0.16441,0.78514 0,0.37634 -0.14757,1.295 -0.32653,2.0415 -0.36593,1.5264 -0.42238,3.3692 -0.11891,3.8803 0.11093,0.18683 0.36449,0.58787 0.5635,0.89124 0.3352,0.51102 0.34235,0.57306 0.0971,0.84401 -0.5871,0.64872 -1.7965,0.13977 -2.2507,-0.94713 -0.25642,-0.61372 -0.71337,-0.73566 -1.0839,-0.28924 -0.38392,0.46259 -1.4888,1.0785 -2.3427,1.3059 -1.2507,0.33308 -2.0236,0.27262 -2.945,-0.23038 z"
       id="an_abv" />
  </g>
</svg>
