<svg xmlns="http://www.w3.org/2000/svg" height="35.019" width="39.641"><path d="M12.351 9.932c-.235-.235-.088-.792.32-1.219.236-.246.511-.589.612-.762.101-.174.321-.51.49-.748.168-.238.342-.757.387-1.154.071-.631.017-.801-.428-1.341-.507-.615-.675-1.403-.343-1.609.093-.057.488.051.878.24.598.29.78.501 1.157 1.339.485 1.08.485 1.89.002 2.425-.143.158-.332.548-.42.868-.228.826-1.476 2.07-2.077 2.07-.257 0-.517-.05-.577-.109zm7.518-1.728c.185-.202.45-.845.588-1.428.138-.584.448-1.534.689-2.11.241-.578.477-1.478.525-2 .08-.895.065-.952-.27-.952-.265 0-.434.188-.675.749-.176.411-.32.983-.32 1.27 0 .286-.108.674-.24.862-.228.327-.903 3.077-.903 3.683 0 .394.2.37.606-.074zm12.047 9.372c.614-.1.656-.143.704-.719.058-.698-.093-.755-.97-.37-.815.359-1.122.649-1.122 1.06 0 .308.06.35.368.252a9.245 9.245 0 011.02-.223zm-26.913.002c.435-.344.899-.84 1.031-1.102a6.41 6.41 0 01.592-.914c.427-.531.933-1.61 1.187-2.526.244-.88.054-1.37-.688-1.769-.566-.304-.603-.305-1.527-.014-.521.164-1.104.454-1.295.645-.192.19-.541.479-.777.64-.236.162-.576.566-.757.899-.18.332-.584 1.069-.897 1.638-.633 1.15-.68 1.46-.325 2.147.37.714.866.982 1.819.982.736 0 .95-.083 1.637-.626zm21.694 17.18c-.45-.45-.054-1.156 1.627-2.902.449-.467.943-1.066 1.098-1.332.155-.266.571-.888.925-1.381.98-1.368 1.964-3.36 2.402-4.866.217-.745.514-1.537.66-1.76.189-.289.288-.936.347-2.277.091-2.066.04-2.156-.917-1.638-.239.129-.861.36-1.384.515-1.32.391-2.044.206-2.45-.627-.28-.572-.283-.663-.042-1.388.242-.727.34-.82 1.543-1.459 1.683-.893 2.238-.993 3.096-.555.367.187.745.34.84.34.328 0 1.794-1.706 1.797-2.091.002-.208.19-.796.42-1.306.23-.511.514-1.15.634-1.419.75-1.689.929-3.955.453-5.714-.26-.962-1.337-1.878-2.207-1.878-.866 0-2.726.569-2.726.834 0 .077-.37.328-.824.558-.453.23-.872.543-.93.696-.06.154-.315.573-.569.933-.253.359-.714 1.02-1.024 1.469a27.517 27.517 0 01-1.62 2.146c-.23.282-.42.588-.42.68 0 .092-.063.192-.14.222-.078.03-.525.785-.993 1.678-.469.893-.942 1.701-1.052 1.796-.337.29-1.407 1.688-1.407 1.838 0 .171-1.343 1.471-2.748 2.658-.995.841-1.068.873-2.001.873-.834 0-1.054-.068-1.58-.493-.478-.386-.666-.7-.868-1.455-.314-1.176-.672-1.314-1.43-.556-.703.703-2.036 1.587-3.282 2.176-2.205 1.042-4.149.645-4.507-.921-.057-.253-.21-.5-.34-.55-.269-.104-.877.383-.877.7 0 .268-1.006 1.045-1.352 1.045-.144 0-.307.073-.362.163-.134.217-1.63.207-2.449-.017-.854-.234-1.19-.545-1.654-1.534-.516-1.099-.512-2.233.012-3.102.217-.36.547-.976.734-1.372.47-.994 2.216-2.664 3.42-3.272 1.855-.936 2.93-.814 4.223.478 1 1 1.021 1.423.213 4.162-.38 1.287-.417 1.927-.155 2.677.32.919.943 1.048 2.195.454a49.59 49.59 0 011.53-.691c.478-.203 1.29-.882 2.39-1.998 1.608-1.633 1.672-1.725 1.86-2.697.106-.554.298-1.511.427-2.129.128-.617.233-1.29.233-1.494 0-.205.192-.912.425-1.572.234-.66.525-1.774.646-2.477.292-1.683.75-2.872 1.492-3.866C21.063-.325 22.1-.354 22.972.978c.374.57.353 1.151-.098 2.695-.746 2.556-.924 3.129-1.22 3.918-.184.494-.422 1.009-.528 1.143-.106.135-.347.551-.535.926a15.67 15.67 0 01-.835 1.411c-.272.402-.494.808-.494.903 0 .095-.104.231-.231.303-.357.201-.889 1.715-1.006 2.858-.14 1.38.128 2.377.678 2.515 1.175.295 2.508-.578 4.143-2.712.31-.404.659-.845.777-.98.384-.44 1.294-1.897 2.056-3.294.41-.754.901-1.51 1.09-1.682.19-.172.516-.647.725-1.055.208-.41.682-1.068 1.053-1.465.371-.396.675-.802.675-.9 0-.372 1.545-1.927 2.594-2.612 1.242-.81 2.96-1.4 4.085-1.4.6 0 .916.11 1.452.505.377.277.685.61.685.74s.113.279.25.332c.314.12.603.671 1.06 2.023.292.858.34 1.266.257 2.197-.117 1.326-.515 2.752-.942 3.372-.164.238-.299.507-.299.596 0 .09-.17.668-.379 1.285-.404 1.194-1.188 2.527-2.065 3.512-.527.592-.537.633-.569 2.286-.044 2.332-1.07 6.628-1.863 7.795-.156.23-.427.75-.601 1.154-.448 1.038-1.341 2.496-1.627 2.656-.134.074-.242.232-.242.35 0 .441-3.573 4.664-3.948 4.666-.06 0-.229-.117-.373-.261z"/></svg>