<?xml version="1.0" encoding="UTF-8" standalone="no"?>
<svg
   xmlns:dc="http://purl.org/dc/elements/1.1/"
   xmlns:cc="http://creativecommons.org/ns#"
   xmlns:rdf="http://www.w3.org/1999/02/22-rdf-syntax-ns#"
   xmlns:svg="http://www.w3.org/2000/svg"
   xmlns="http://www.w3.org/2000/svg"
   id="svg2502"
   viewBox="0 0 39.641104 35.019276"
   version="1.1"
   height="35.019276"
   width="39.641106">
  <defs
     id="defs2506" />
  <metadata
     id="metadata2">
    <rdf:RDF>
      <cc:Work
         rdf:about="">
        <dc:format>image/svg+xml</dc:format>
        <dc:type
           rdf:resource="http://purl.org/dc/dcmitype/StillImage" />
        <dc:title />
      </cc:Work>
    </rdf:RDF>
  </metadata>
  <g
     transform="translate(-218.44902,-594.03785)"
     style="stroke-width:0.16327"
     id="g2500">
    <path
       d="m 230.8,603.97 c -0.23482,-0.23481 -0.0884,-0.79256 0.31989,-1.2187 0.2358,-0.24613 0.51131,-0.58941 0.61224,-0.76286 0.10093,-0.17344 0.32123,-0.5098 0.48955,-0.74746 0.16831,-0.23765 0.34266,-0.75718 0.38745,-1.1545 0.0711,-0.63089 0.0169,-0.8007 -0.42848,-1.341 -0.50649,-0.61447 -0.67425,-1.403 -0.34217,-1.6082 0.0923,-0.057 0.48729,0.051 0.87783,0.24008 0.59801,0.28949 0.78054,0.50074 1.1565,1.3385 0.48472,1.0801 0.48511,1.8904 0.002,2.4251 -0.14284,0.15783 -0.33187,0.54834 -0.42008,0.8678 -0.22813,0.82622 -1.4758,2.07 -2.0764,2.07 -0.25778,0 -0.51766,-0.049 -0.57751,-0.10885 z m 7.5181,-1.728 c 0.18531,-0.20204 0.44978,-0.8449 0.58771,-1.4286 0.13792,-0.58368 0.44806,-1.5333 0.68921,-2.1103 0.24114,-0.57701 0.47724,-1.477 0.52467,-2 0.081,-0.89391 0.0649,-0.95089 -0.26879,-0.95089 -0.2662,0 -0.43525,0.18717 -0.67574,0.74823 -0.17641,0.41153 -0.32073,0.98294 -0.32073,1.2698 0,0.28685 -0.1074,0.67489 -0.23866,0.8623 -0.22918,0.3272 -0.9042,3.077 -0.9042,3.6835 0,0.39386 0.19979,0.36949 0.60653,-0.074 z m 12.047,9.372 c 0.61437,-0.10033 0.65607,-0.14291 0.70374,-0.71889 0.0577,-0.69789 -0.0932,-0.75553 -0.96952,-0.37006 -0.81523,0.35862 -1.122,0.64846 -1.122,1.0602 0,0.3077 0.0605,0.34919 0.36734,0.2519 0.20205,-0.0641 0.66123,-0.16448 1.0204,-0.22312 z m -26.913,0.002 c 0.4346,-0.34408 0.89853,-0.84 1.031,-1.102 0.13244,-0.26206 0.39894,-0.67344 0.59223,-0.91417 0.42656,-0.53132 0.93318,-1.6095 1.187,-2.5263 0.24359,-0.8798 0.0533,-1.369 -0.68798,-1.7682 -0.56609,-0.30484 -0.60336,-0.30519 -1.5276,-0.0142 -0.52104,0.16405 -1.1039,0.45419 -1.2952,0.64475 -0.19133,0.19056 -0.54072,0.47879 -0.77644,0.64052 -0.23572,0.16172 -0.57629,0.5658 -0.75685,0.89796 -0.18054,0.33215 -0.58419,1.0693 -0.89703,1.6381 -0.63309,1.1512 -0.67993,1.4609 -0.3248,2.1477 0.36882,0.71322 0.86575,0.98139 1.8185,0.98139 0.73561,0 0.95086,-0.0823 1.6371,-0.62559 z m 21.694,17.18 c -0.4497,-0.44968 -0.0539,-1.156 1.6265,-2.9023 0.44898,-0.46659 0.94321,-1.0659 1.0983,-1.3318 0.15508,-0.26588 0.57154,-0.88756 0.92547,-1.3815 0.98003,-1.3678 1.9633,-3.3599 2.4015,-4.8653 0.21695,-0.7454 0.51368,-1.5372 0.6594,-1.7596 0.18971,-0.28952 0.28842,-0.93628 0.3476,-2.2774 0.0912,-2.0661 0.0404,-2.1567 -0.91729,-1.6386 -0.23835,0.12893 -0.86099,0.36103 -1.3836,0.51577 -1.3204,0.39089 -2.0436,0.20575 -2.4507,-0.62734 -0.27935,-0.57169 -0.28204,-0.66283 -0.0411,-1.3884 0.24135,-0.72664 0.34039,-0.82028 1.5424,-1.4583 1.6832,-0.89342 2.2389,-0.99316 3.0964,-0.55571 0.36731,0.18738 0.74527,0.3407 0.8399,0.3407 0.32781,0 1.7937,-1.7064 1.797,-2.0917 0.002,-0.2076 0.19074,-0.79536 0.41997,-1.3061 0.22922,-0.51077 0.51456,-1.1491 0.63407,-1.4185 0.74924,-1.6888 0.9289,-3.9554 0.45295,-5.7143 -0.2603,-0.96189 -1.3367,-1.8776 -2.2071,-1.8776 -0.8654,0 -2.7253,0.56875 -2.7253,0.83339 0,0.0774 -0.37079,0.3286 -0.824,0.55825 -0.45319,0.22965 -0.87218,0.54313 -0.93105,0.69664 -0.0589,0.15348 -0.31448,0.57294 -0.568,0.93213 -0.2535,0.35918 -0.71471,1.0204 -1.0249,1.4694 -0.59741,0.86473 -0.93666,1.3145 -1.6187,2.146 -0.23161,0.28235 -0.42109,0.58847 -0.42109,0.68026 0,0.0918 -0.0632,0.1914 -0.14056,0.22134 -0.0773,0.0299 -0.52385,0.78521 -0.99232,1.6784 -0.46848,0.8932 -0.94165,1.7014 -1.0515,1.7959 -0.33729,0.29043 -1.4075,1.6877 -1.4075,1.8377 0,0.17183 -1.3432,1.4715 -2.7475,2.6583 -0.99528,0.84121 -1.0687,0.87323 -2.0016,0.87323 -0.83367,0 -1.0535,-0.0686 -1.5791,-0.49274 -0.47902,-0.38658 -0.66617,-0.70028 -0.86847,-1.4558 -0.31466,-1.1751 -0.67222,-1.314 -1.4306,-0.55554 -0.70304,0.70305 -2.0356,1.5866 -3.2814,2.1756 -2.205,1.0426 -4.1491,0.64548 -4.5068,-0.92069 -0.0578,-0.253 -0.21109,-0.50069 -0.34065,-0.55042 -0.26859,-0.10305 -0.87649,0.38306 -0.87649,0.7009 0,0.26754 -1.0061,1.0442 -1.3527,1.0442 -0.14337,0 -0.30608,0.0735 -0.36157,0.16327 -0.13419,0.21711 -1.6306,0.20664 -2.449,-0.0172 -0.85435,-0.23361 -1.1894,-0.54428 -1.6542,-1.5339 -0.51607,-1.0987 -0.51142,-2.2332 0.0127,-3.102 0.21669,-0.35918 0.54681,-0.97626 0.7336,-1.3713 0.47029,-0.99451 2.2158,-2.6646 3.4206,-3.2728 1.8542,-0.93598 2.9295,-0.81405 4.2223,0.47876 0.99931,0.99932 1.021,1.4223 0.21314,4.1618 -0.37953,1.287 -0.41672,1.9272 -0.15553,2.6765 0.32046,0.91928 0.94381,1.0481 2.1957,0.45389 0.44414,-0.21084 1.1328,-0.52175 1.5304,-0.69091 0.47729,-0.20308 1.2887,-0.88174 2.3888,-1.998 1.6088,-1.6324 1.6727,-1.725 1.8599,-2.6968 0.10664,-0.55355 0.29902,-1.5114 0.42751,-2.1285 0.12847,-0.61712 0.2336,-1.2897 0.2336,-1.4946 0,-0.20486 0.19123,-0.91218 0.42498,-1.5718 0.23373,-0.65963 0.52441,-1.7743 0.64596,-2.477 0.29117,-1.6834 0.74983,-2.8719 1.492,-3.866 1.0337,-1.3846 2.0694,-1.4136 2.9422,-0.0822 0.37417,0.57079 0.35316,1.1513 -0.0975,2.6952 -0.74622,2.5563 -0.92431,3.1285 -1.2197,3.9184 -0.18466,0.49388 -0.42249,1.0082 -0.5285,1.1428 -0.10603,0.1347 -0.34668,0.55112 -0.53481,0.92539 -0.18811,0.37427 -0.56403,1.0094 -0.83535,1.4114 -0.27131,0.40203 -0.4933,0.80847 -0.4933,0.90323 0,0.0948 -0.10425,0.23106 -0.23164,0.30286 -0.35636,0.20085 -0.88882,1.7144 -1.0054,2.8578 -0.14072,1.3804 0.12771,2.3768 0.67745,2.5148 1.175,0.29491 2.5079,-0.57745 4.1429,-2.7114 0.30958,-0.40409 0.65923,-0.8449 0.77699,-0.9796 0.38454,-0.43985 1.2939,-1.8974 2.0558,-3.2952 0.41078,-0.75357 0.90186,-1.5104 1.0913,-1.6818 0.18944,-0.17143 0.5151,-0.64622 0.72371,-1.0551 0.2086,-0.40886 0.68276,-1.0678 1.0537,-1.4644 0.37092,-0.39657 0.6744,-0.80191 0.6744,-0.90077 0,-0.37121 1.5453,-1.9266 2.5946,-2.6116 1.2418,-0.8106 2.96,-1.3992 4.0843,-1.3992 0.60011,0 0.91603,0.10963 1.4522,0.50392 0.37687,0.27716 0.68523,0.61007 0.68523,0.73982 0,0.12975 0.11291,0.27923 0.25094,0.3322 0.31283,0.12005 0.60165,0.67144 1.06,2.0238 0.29066,0.85754 0.33828,1.2657 0.25626,2.1962 -0.11697,1.3268 -0.51537,2.7528 -0.94211,3.3722 -0.16423,0.23835 -0.29861,0.50682 -0.29861,0.5966 0,0.0898 -0.17073,0.66784 -0.37938,1.2846 -0.40398,1.1941 -1.1881,2.5275 -2.0653,3.5122 -0.52684,0.59139 -0.53713,0.6328 -0.56856,2.2857 -0.0443,2.3322 -1.0709,6.6278 -1.8628,7.7948 -0.15646,0.23056 -0.42709,0.74983 -0.6014,1.1539 -0.44796,1.0384 -1.341,2.496 -1.6274,2.6563 -0.13314,0.0745 -0.24207,0.23233 -0.24207,0.3507 0,0.44045 -3.5726,4.6631 -3.9475,4.6657 -0.0609,0 -0.22873,-0.11716 -0.37288,-0.26133 z"
       id="analysis" />
  </g>
</svg>
