<?xml version="1.0" encoding="UTF-8" standalone="no"?>
<svg
   xmlns:dc="http://purl.org/dc/elements/1.1/"
   xmlns:cc="http://creativecommons.org/ns#"
   xmlns:rdf="http://www.w3.org/1999/02/22-rdf-syntax-ns#"
   xmlns:svg="http://www.w3.org/2000/svg"
   xmlns="http://www.w3.org/2000/svg"
   id="svg2502"
   viewBox="0 0 51.043623 14.478407"
   version="1.1"
   height="14.478407"
   width="51.043625">
  <defs
     id="defs2506" />
  <metadata
     id="metadata2">
    <rdf:RDF>
      <cc:Work
         rdf:about="">
        <dc:format>image/svg+xml</dc:format>
        <dc:type
           rdf:resource="http://purl.org/dc/dcmitype/StillImage" />
        <dc:title />
      </cc:Work>
    </rdf:RDF>
  </metadata>
  <g
     transform="translate(-218.7815,-624.50755)"
     style="stroke-width:0.16327"
     id="g2500">
    <path
       d="m 218.98,632.22 c -0.35275,-0.13951 -0.22314,-0.83138 0.29187,-1.5579 1.441,-2.0328 1.3819,-1.8948 1.3769,-3.2186 -0.004,-1.024 -0.0682,-1.3217 -0.37447,-1.7348 -0.42886,-0.57847 -0.34174,-1.0086 0.23357,-1.153 0.58088,-0.14579 0.82953,0.0106 1.3848,0.87122 0.4746,0.73549 0.49878,0.84917 0.41963,1.973 -0.0635,0.90206 -0.20621,1.4274 -0.5857,2.1566 -0.27595,0.5302 -0.50172,1.0772 -0.50172,1.2156 0,0.13838 -0.0591,0.25159 -0.13136,0.25159 -0.0722,0 -0.40872,0.25406 -0.7477,0.56456 -0.6459,0.59162 -1.0246,0.76677 -1.3658,0.6318 z m 34.408,6.6876 c -1.3913,-0.24391 -2.1182,-0.57835 -2.7209,-1.2518 -1.0153,-1.1347 -1.1975,-1.395 -1.1975,-1.7117 0,-0.16516 -0.0806,-0.53167 -0.17923,-0.81447 -0.1502,-0.43087 -0.26307,-0.51415 -0.6968,-0.51415 -0.28465,0 -0.77339,0.17335 -1.0861,0.38522 -0.61226,0.41489 -2.7931,1.4107 -3.0895,1.4107 -0.0993,0 -1.0693,0.26325 -2.1556,0.58501 -2.1732,0.64367 -4.9256,1.0313 -7.5489,1.0632 -2.7546,0.0334 -7.456,-0.29639 -8.2481,-0.57866 -1.3527,-0.48206 -2.8534,-1.6207 -3.7081,-2.8134 -1.1895,-1.6599 -1.4811,-2.6914 -0.90756,-3.2104 0.55912,-0.50599 0.81575,-0.33038 1.4542,0.9951 0.41325,0.85793 0.92902,1.5889 1.6019,2.2703 1.369,1.3864 1.8234,1.5063 6.4086,1.6921 3.373,0.13667 8.2836,0 8.6738,-0.24085 0.0859,-0.0531 0.58292,-0.17417 1.1044,-0.26904 1.1557,-0.21024 2.3495,-0.56776 3.273,-0.98022 0.38066,-0.16999 0.84662,-0.30909 1.0355,-0.30909 0.18885,0 0.53017,-0.14694 0.75848,-0.32653 0.22833,-0.17959 0.53788,-0.32653 0.68792,-0.32653 0.15004,0 0.52585,-0.19009 0.83512,-0.42243 0.59156,-0.44438 2.1808,-1.2102 2.5113,-1.2102 0.10674,0 0.68132,-0.29388 1.2769,-0.65307 0.96841,-0.58408 1.195,-0.65306 2.1453,-0.65306 0.58436,0 1.2312,0.0684 1.4375,0.15197 0.20627,0.0836 0.57595,0.19491 0.82154,0.24738 0.29859,0.0638 0.48039,0.2305 0.54883,0.50322 0.18948,0.75494 -0.12792,0.89335 -2.0486,0.89335 -1.6782,0 -1.7781,0.02 -2.5055,0.50176 -0.58403,0.38686 -0.78168,0.63054 -0.863,1.064 -0.18807,1.0025 0.16496,1.5849 1.6299,2.6891 0.62064,0.46777 0.68537,0.47992 2.5576,0.47992 h 1.9208 l 1.2792,-0.66988 c 1.5028,-0.78697 2.9611,-2.1376 3.684,-3.4118 0.28018,-0.49387 0.64352,-1.0732 0.80741,-1.2873 0.1639,-0.21414 0.29799,-0.53342 0.29799,-0.70948 0,-0.17607 0.15193,-0.53351 0.33765,-0.79431 0.42387,-0.59526 0.99518,-0.6181 1.6513,-0.066 0.29024,0.24421 0.69318,0.40973 1.0032,0.41207 0.87411,0.007 1.8108,0.28992 2.0875,0.63152 0.37099,0.45791 0.49799,1.4729 0.30108,2.406 -0.39621,1.8774 -0.39027,2.1271 0.0614,2.5788 0.23131,0.23131 0.52511,0.42057 0.6529,0.42057 0.70698,0 0.73652,1.176 0.0375,1.4945 -0.31634,0.14415 -0.53668,0.10495 -1.1792,-0.2097 -0.71071,-0.34808 -0.81989,-0.47722 -1.0862,-1.2849 -0.24078,-0.73011 -0.27685,-1.1899 -0.19306,-2.4606 0.1202,-1.8228 0.0999,-1.8563 -1.2888,-2.1352 -0.87388,-0.17551 -0.94893,-0.1647 -1.3278,0.1912 -0.22083,0.20746 -0.55541,0.69512 -0.74351,1.0837 -0.1881,0.38855 -0.55091,0.85522 -0.80625,1.037 -0.25535,0.18183 -0.62815,0.59574 -0.82845,0.91981 -0.71546,1.1576 -2.4146,2.4851 -3.2002,2.5002 -0.19673,0.004 -0.39959,0.0746 -0.45078,0.15743 -0.26648,0.43119 -3.4385,0.79264 -4.8242,0.54972 z"
       id="anchor" />
  </g>
</svg>
