<svg xmlns="http://www.w3.org/2000/svg" height="14.478" width="51.044"><path d="M.198 7.712c-.352-.14-.223-.83.292-1.557 1.441-2.033 1.382-1.895 1.377-3.22-.004-1.023-.068-1.32-.374-1.734C1.063.623 1.15.193 1.726.048c.581-.146.83.01 1.385.871.475.736.499.85.42 1.973-.064.902-.206 1.428-.586 2.157-.276.53-.502 1.077-.502 1.216 0 .138-.059.251-.131.251-.072 0-.409.254-.748.565C.918 7.672.54 7.847.2 7.713zM34.606 14.4c-1.39-.244-2.118-.578-2.72-1.252-1.016-1.134-1.198-1.395-1.198-1.711 0-.166-.08-.532-.18-.815-.15-.43-.262-.514-.696-.514-.285 0-.773.173-1.086.385-.612.415-2.793 1.41-3.09 1.41-.099 0-1.069.264-2.155.586-2.173.644-4.926 1.031-7.549 1.063-2.755.033-7.456-.296-8.248-.579-1.353-.482-2.854-1.62-3.708-2.813-1.19-1.66-1.481-2.691-.908-3.21.56-.506.816-.33 1.454.995a8.257 8.257 0 001.602 2.27c1.37 1.386 1.824 1.506 6.409 1.692 3.373.137 8.284 0 8.674-.24.086-.054.583-.175 1.104-.27 1.156-.21 2.35-.568 3.273-.98.38-.17.847-.31 1.036-.31.188 0 .53-.146.758-.326.228-.18.538-.326.688-.326.15 0 .526-.19.835-.423.592-.444 2.18-1.21 2.511-1.21.107 0 .682-.294 1.277-.653.969-.584 1.195-.653 2.146-.653.584 0 1.23.068 1.437.152.206.084.576.195.822.247.298.064.48.23.548.504.19.755-.127.893-2.048.893-1.678 0-1.778.02-2.506.502-.584.387-.781.63-.863 1.064-.188 1.002.165 1.585 1.63 2.689.62.468.686.48 2.558.48h1.92l1.28-.67c1.503-.787 2.961-2.138 3.684-3.412.28-.494.643-1.073.807-1.287.164-.214.298-.534.298-.71 0-.176.152-.533.338-.794.424-.595.995-.618 1.651-.066.29.244.693.41 1.003.412.875.007 1.811.29 2.088.632.37.458.498 1.472.301 2.406-.396 1.877-.39 2.127.061 2.578.232.232.526.421.653.421.707 0 .737 1.176.038 1.494-.317.145-.537.105-1.18-.21-.71-.347-.82-.476-1.086-1.284-.24-.73-.276-1.19-.193-2.46.12-1.824.1-1.857-1.288-2.136-.874-.175-.95-.165-1.328.191-.221.208-.556.695-.744 1.084-.188.389-.55.855-.806 1.037-.255.182-.628.596-.828.92-.716 1.157-2.415 2.485-3.2 2.5-.197.004-.4.075-.451.157-.267.432-3.439.793-4.825.55z"/></svg>