<svg xmlns="http://www.w3.org/2000/svg" height="11.254" width="50.227"><path d="M21.484 4.585c.243-.154.353-1.526.14-1.74-.155-.155-1.34.377-1.684.757-.412.455-.235.873.42.989.85.15.877.15 1.124-.006zm-.788 3.264c.318-.317.478-.642.478-.972 0-.432-.077-.516-.613-.664-.336-.094-1.104-.17-1.706-.171-1.896-.002-2.44.555-1.372 1.407.656.523 1.443.831 2.193.858.399.014.67-.107 1.02-.458zM5.458 9.02c1.084-1.148 1.124-1.202 1.477-2 .419-.946 1.014-3.127 1.013-3.71 0-.334-.133-.528-.503-.738-.524-.299-1.86-.392-2.015-.141-.05.08-.33.19-.622.244-.79.149-2.362 1.971-2.94 3.41-.54 1.347-.545 1.451-.101 2.37.444.917 1.126 1.34 2.163 1.34.74 0 .85-.055 1.528-.775zm-3.024 2.032c-.295-.107-.887-.477-1.317-.82-.74-.594-.792-.689-.99-1.8-.18-1.016-.173-1.295.052-2.069.144-.491.39-1.086.546-1.32.157-.235.497-.75.755-1.143.52-.79 1.667-1.921 2.55-2.512C4.615.997 5.25.914 7.337.959c.83.018 1.012.087 1.572.593.374.338.675.783.736 1.087.11.546-.122 2.02-.508 3.239-.128.404-.273 1.213-.322 1.8-.104 1.228.039 1.442 1.053 1.578.737.099 2.076-.554 3.55-1.73 1.01-.806 1.108-1.178.652-2.47-.22-.626-.22-.74.004-1.082.315-.48.782-.486 1.438-.019.308.22.752.364 1.118.364.507 0 .731-.127 1.367-.772.419-.424.831-.771.917-.771.218 0 2.396-1.842 2.412-2.041.02-.239.957-.735 1.387-.735.574 0 .747.625.747 2.702v1.87l.857-.007c.472-.004 1.151-.116 1.51-.249.36-.132 1.095-.343 1.633-.468a180.28 180.28 0 005.551-1.41c.629-.174 1.344-.316 1.59-.316s.834-.15 1.306-.334c.901-.352 1.838-.57 3.472-.806a74.53 74.53 0 001.959-.316c1.395-.248 2.347-.22 4.534.138l1.922.313.935.854c.515.47 1.037 1.082 1.16 1.36.126.282.261 1.301.305 2.302.071 1.636.05 1.822-.243 2.085-.667.602-1.185-.238-1.185-1.922 0-.526-.092-1.213-.204-1.527-.238-.666-.917-1.493-1.226-1.493-.119 0-.503-.147-.854-.326-1.11-.566-2.765-.703-4.818-.398-.987.146-2.158.37-2.6.495-.444.126-1.018.229-1.278.229s-1.955.373-3.767.83c-4.166 1.048-5.94 1.472-6.559 1.566-.27.041-.637.138-.816.215-.18.077-.988.334-1.796.571-.808.237-1.561.46-1.673.497-.112.036-.392.49-.62 1.01-.23.519-.722 1.256-1.096 1.637l-.68.694h-1.26c-.855 0-1.333-.072-1.486-.226-.124-.124-.52-.376-.88-.56-.36-.183-.745-.444-.858-.58-.453-.545-1.713-.517-1.89.044-.052.161-.27.373-.484.47-.215.099-.723.433-1.13.743-1.79 1.367-3.804 1.453-5.527.236-.225-.16-.408-.124-.98.194-.385.214-.75.46-.807.548-.167.25-1.308.596-1.935.589a4.035 4.035 0 01-1.107-.202z"/></svg>