<?xml version="1.0" encoding="UTF-8" standalone="no"?>
<svg
   xmlns:dc="http://purl.org/dc/elements/1.1/"
   xmlns:cc="http://creativecommons.org/ns#"
   xmlns:rdf="http://www.w3.org/1999/02/22-rdf-syntax-ns#"
   xmlns:svg="http://www.w3.org/2000/svg"
   xmlns="http://www.w3.org/2000/svg"
   id="svg2502"
   viewBox="0 0 50.227358 11.254067"
   version="1.1"
   height="11.254067"
   width="50.22736">
  <defs
     id="defs2506" />
  <metadata
     id="metadata2">
    <rdf:RDF>
      <cc:Work
         rdf:about="">
        <dc:format>image/svg+xml</dc:format>
        <dc:type
           rdf:resource="http://purl.org/dc/dcmitype/StillImage" />
        <dc:title />
      </cc:Work>
    </rdf:RDF>
  </metadata>
  <g
     transform="translate(-219.15594,-651.26514)"
     style="stroke-width:0.16327"
     id="g2500">
    <path
       d="m 240.64,655.85 c 0.24271,-0.15364 0.35329,-1.5262 0.14015,-1.7395 -0.15553,-0.15562 -1.3406,0.37695 -1.6846,0.75703 -0.41159,0.45481 -0.23431,0.87257 0.41949,0.98846 0.85061,0.15076 0.87765,0.15061 1.125,-0.006 z m -0.78773,3.2645 c 0.31746,-0.31745 0.47724,-0.64284 0.47724,-0.97192 0,-0.43255 -0.0769,-0.51603 -0.61225,-0.6647 -0.33673,-0.0935 -1.1047,-0.17045 -1.7066,-0.17094 -1.8959,-0.002 -2.4391,0.55541 -1.372,1.4068 0.65605,0.52346 1.4432,0.83158 2.1932,0.85848 0.39877,0.0144 0.67004,-0.10739 1.0204,-0.45776 z m -15.238,1.1711 c 1.0836,-1.1483 1.1236,-1.2024 1.4766,-2 0.41891,-0.94647 1.0142,-3.1275 1.0129,-3.7108 0,-0.33376 -0.13269,-0.52736 -0.50304,-0.73814 -0.5238,-0.29814 -1.8602,-0.39161 -2.0151,-0.14096 -0.0492,0.0796 -0.32906,0.18979 -0.6219,0.24481 -0.78999,0.14848 -2.3613,1.9711 -2.9391,3.4091 -0.54159,1.348 -0.54605,1.4518 -0.10167,2.3698 0.44426,0.91771 1.1257,1.3403 2.1625,1.3411 0.73955,0 0.84973,-0.0553 1.5288,-0.77491 z m -3.0245,2.0316 c -0.29452,-0.10719 -0.88712,-0.47659 -1.3169,-0.82092 -0.74026,-0.59307 -0.79241,-0.68787 -0.98999,-1.7999 -0.18041,-1.0154 -0.17336,-1.2945 0.0523,-2.0678 0.14351,-0.49169 0.38916,-1.0861 0.5459,-1.321 0.15672,-0.23487 0.49662,-0.74916 0.75531,-1.1429 0.5191,-0.79006 1.6668,-1.9206 2.5501,-2.512 0.58359,-0.39076 1.2199,-0.47318 3.3056,-0.42815 0.8293,0.0179 1.0119,0.0867 1.5716,0.59238 0.37393,0.33783 0.67543,0.78297 0.73623,1.087 0.10918,0.54588 -0.12186,2.0193 -0.50785,3.2388 -0.12789,0.40408 -0.27293,1.2139 -0.32229,1.7997 -0.10359,1.2291 0.039,1.4428 1.0533,1.5788 0.73644,0.0988 2.0759,-0.55397 3.5492,-1.7296 1.0104,-0.80629 1.1089,-1.1787 0.65312,-2.4705 -0.22086,-0.62598 -0.22047,-0.73953 0.004,-1.0818 0.31445,-0.4799 0.78175,-0.48598 1.438,-0.0187 0.30769,0.2191 0.75176,0.36362 1.1172,0.36362 0.50699,0 0.73135,-0.12663 1.3674,-0.77178 0.41849,-0.42449 0.83095,-0.77181 0.91658,-0.77181 0.21844,0 2.3959,-1.8419 2.4126,-2.0408 0.02,-0.23823 0.95694,-0.7347 1.3864,-0.7347 0.57463,0 0.74767,0.62527 0.74767,2.7016 v 1.8699 l 0.85714,-0.007 c 0.47143,-0.004 1.151,-0.1156 1.5102,-0.2481 0.35918,-0.13252 1.0939,-0.34322 1.6326,-0.46821 1.4102,-0.32717 4.222,-1.0412 5.551,-1.4097 0.62857,-0.17427 1.3441,-0.31662 1.5901,-0.31634 0.24598,0 0.83373,-0.15025 1.3061,-0.33451 0.90089,-0.35143 1.8377,-0.56882 3.4711,-0.80554 0.53877,-0.0781 1.4204,-0.22031 1.9592,-0.31606 1.3954,-0.24804 2.3476,-0.21912 4.5344,0.13765 l 1.9222,0.3136 0.93497,0.85405 c 0.51422,0.46972 1.0364,1.0816 1.1605,1.3598 0.12565,0.28177 0.26036,1.3013 0.30413,2.3017 0.0715,1.6358 0.0499,1.8217 -0.24277,2.0856 -0.66704,0.60127 -1.1849,-0.23888 -1.1849,-1.9223 0,-0.52602 -0.0918,-1.2131 -0.20408,-1.5268 -0.23856,-0.66671 -0.91761,-1.4936 -1.2265,-1.4936 -0.11828,0 -0.50266,-0.14673 -0.8542,-0.32608 -1.1091,-0.56583 -2.765,-0.70268 -4.8172,-0.3981 -0.98775,0.14659 -2.1582,0.3695 -2.6011,0.49534 -0.44282,0.12586 -1.0177,0.22884 -1.2775,0.22884 -0.25979,0 -1.9546,0.37328 -3.7663,0.82951 -4.1664,1.0492 -5.9399,1.473 -6.5593,1.5672 -0.26939,0.041 -0.63673,0.13755 -0.81633,0.2146 -0.17959,0.0771 -0.98775,0.33399 -1.7959,0.57097 -0.80817,0.23696 -1.5611,0.46044 -1.6732,0.49662 -0.1121,0.0362 -0.39118,0.49055 -0.62016,1.0098 -0.229,0.5192 -0.72196,1.2562 -1.0955,1.6379 l -0.67912,0.69387 h -1.2605 c -0.85582,0 -1.333,-0.0725 -1.4864,-0.22597 -0.12428,-0.1243 -0.52016,-0.37607 -0.87972,-0.5595 -0.35956,-0.18344 -0.74575,-0.44437 -0.85819,-0.57985 -0.45344,-0.54637 -1.713,-0.51788 -1.891,0.0428 -0.0512,0.16137 -0.26868,0.37338 -0.48326,0.47116 -0.21458,0.0978 -0.72278,0.43168 -1.1293,0.74201 -1.7907,1.3668 -3.8042,1.4528 -5.5272,0.23582 -0.22567,-0.15938 -0.40834,-0.12321 -0.97959,0.19399 -0.38621,0.21445 -0.7498,0.46105 -0.80797,0.548 -0.16686,0.24939 -1.3073,0.59671 -1.935,0.58928 -0.31428,-0.004 -0.81239,-0.0944 -1.1069,-0.20162 z"
       id="ancient" />
  </g>
</svg>
