<svg xmlns="http://www.w3.org/2000/svg" height="7.867" width="30.878"><path d="M.138 7.69c-.116-.14-.17-.361-.119-.493.095-.248 1.18-.802 1.95-.995.244-.061.443-.168.443-.237 0-.14.415-.306 1.878-.753.54-.165 1.125-.394 1.302-.51.177-.115.471-.21.653-.21.182-.003.646-.183 1.03-.402.385-.22.973-.445 1.306-.5.334-.055.754-.164.934-.243.654-.288 3.795-1.351 5.306-1.797a67.416 67.416 0 002.122-.657c1.475-.514 1.968-.64 3.184-.81 1.509-.212 4.638.006 5.714.397 2.424.883 3.696 1.875 4.717 3.678.373.659.436 2.134.108 2.53-.4.481-.882.246-1.152-.561-.135-.405-.285-.772-.333-.817-.05-.045-.19-.394-.313-.776-.136-.422-.431-.853-.754-1.1a10.058 10.058 0 01-.79-.664c-.142-.142-.718-.451-1.279-.687-.985-.413-1.132-.428-4.204-.425-3.727.004-4.4.13-7.389 1.39-.607.257-1.242.466-1.412.466-.423 0-3.105.974-3.607 1.31-.224.15-.885.364-1.469.474-.583.11-1.288.332-1.564.493-.276.16-.79.38-1.143.488-.664.204-1.253.435-1.74.683-.156.079-.416.144-.58.144-.162 0-.365.069-.45.154-.086.084-.45.226-.809.315-.359.089-.805.208-.99.266a.499.499 0 01-.55-.15z" stroke-width=".163"/></svg>