<?xml version="1.0" encoding="UTF-8" standalone="no"?>
<svg
   xmlns:dc="http://purl.org/dc/elements/1.1/"
   xmlns:cc="http://creativecommons.org/ns#"
   xmlns:rdf="http://www.w3.org/1999/02/22-rdf-syntax-ns#"
   xmlns:svg="http://www.w3.org/2000/svg"
   xmlns="http://www.w3.org/2000/svg"
   id="svg2502"
   viewBox="0 0 30.878835 7.8673854"
   version="1.1"
   height="7.8673854"
   width="30.878836">
  <defs
     id="defs2506" />
  <metadata
     id="metadata2">
    <rdf:RDF>
      <cc:Work
         rdf:about="">
        <dc:format>image/svg+xml</dc:format>
        <dc:type
           rdf:resource="http://purl.org/dc/dcmitype/StillImage" />
        <dc:title />
      </cc:Work>
    </rdf:RDF>
  </metadata>
  <g
     transform="translate(-218.65184,-680.56922)"
     style="stroke-width:0.16327"
     id="g2500">
    <path
       d="m 218.79,688.26 c -0.11602,-0.1398 -0.16965,-0.36181 -0.11915,-0.49339 0.0953,-0.24844 1.1798,-0.80178 1.9504,-0.9952 0.24382,-0.0612 0.44331,-0.16785 0.44331,-0.23703 0,-0.13911 0.41504,-0.3056 1.8776,-0.75307 0.53878,-0.16485 1.1245,-0.39393 1.3016,-0.50907 0.17713,-0.11515 0.47101,-0.21023 0.65306,-0.21131 0.18206,-0.002 0.64572,-0.18189 1.0303,-0.4018 0.38462,-0.2199 0.97237,-0.4447 1.3061,-0.49957 0.33375,-0.0549 0.75375,-0.16434 0.93334,-0.24328 0.65481,-0.28781 3.7947,-1.3515 5.3061,-1.7975 0.85306,-0.25174 1.8082,-0.54725 2.1224,-0.6567 1.4754,-0.51385 1.9675,-0.63904 3.1837,-0.81006 1.5089,-0.21216 4.6382,0.006 5.7143,0.3976 2.4235,0.88291 3.6958,1.8749 4.7168,3.6778 0.37288,0.65849 0.43608,2.134 0.1083,2.5289 -0.39999,0.48194 -0.88232,0.24703 -1.1516,-0.56087 -0.13469,-0.40408 -0.28472,-0.77143 -0.33337,-0.81632 -0.0487,-0.0449 -0.18911,-0.39421 -0.3121,-0.77625 -0.13597,-0.42235 -0.43172,-0.85335 -0.75453,-1.0996 -0.292,-0.22273 -0.64731,-0.52134 -0.78957,-0.66361 -0.14227,-0.14226 -0.718,-0.45155 -1.2794,-0.6873 -0.985,-0.41362 -1.1324,-0.42852 -4.2045,-0.42545 -3.7265,0.004 -4.4003,0.13056 -7.3892,1.3909 -0.60691,0.25591 -1.2423,0.46532 -1.412,0.46532 -0.42336,0 -3.1049,0.97396 -3.607,1.3101 -0.22449,0.15029 -0.88572,0.3635 -1.4694,0.4738 -0.58368,0.1103 -1.2876,0.33202 -1.5643,0.4927 -0.2767,0.16069 -0.79099,0.38052 -1.1429,0.48854 -0.664,0.20382 -1.2526,0.43474 -1.7396,0.68248 -0.15593,0.0793 -0.41675,0.14421 -0.57959,0.14421 -0.16286,0 -0.36589,0.0693 -0.4512,0.15391 -0.0853,0.0846 -0.44898,0.22658 -0.80816,0.31543 -0.35919,0.0888 -0.80513,0.20838 -0.99101,0.26562 -0.21218,0.0653 -0.41642,0.009 -0.54886,-0.15009 z"
       id="and_abv" />
  </g>
</svg>
