<svg xmlns="http://www.w3.org/2000/svg" height="7.867" width="30.879"><path d="M.138 7.69c-.116-.139-.17-.361-.119-.493.095-.248 1.18-.801 1.95-.995.244-.061.444-.168.444-.237 0-.139.415-.305 1.877-.753.54-.165 1.125-.394 1.302-.509.177-.115.47-.21.653-.211.182-.002.646-.182 1.03-.402.385-.22.973-.445 1.306-.5.334-.055.754-.164.934-.243.655-.288 3.794-1.351 5.306-1.797a67.98 67.98 0 002.122-.657c1.476-.514 1.968-.64 3.184-.81 1.509-.212 4.638.006 5.714.397 2.424.883 3.696 1.875 4.717 3.678.373.659.436 2.134.108 2.53-.4.481-.882.246-1.151-.562-.135-.404-.285-.771-.334-.816-.048-.045-.189-.394-.312-.776-.136-.423-.431-.854-.754-1.1a10.062 10.062 0 01-.79-.664c-.142-.142-.718-.451-1.28-.687-.984-.413-1.132-.428-4.204-.425-3.726.004-4.4.13-7.389 1.39-.607.257-1.242.466-1.412.466-.423 0-3.105.974-3.607 1.31-.224.15-.886.364-1.47.474-.583.11-1.287.332-1.564.493-.276.16-.79.38-1.143.488a11.01 11.01 0 00-1.74.683 1.524 1.524 0 01-.579.144c-.163 0-.366.07-.45.154-.086.084-.45.226-.81.315-.358.089-.804.208-.99.266a.499.499 0 01-.549-.15z"/></svg>