<?xml version="1.0" encoding="UTF-8" standalone="no"?>
<svg
   xmlns:dc="http://purl.org/dc/elements/1.1/"
   xmlns:cc="http://creativecommons.org/ns#"
   xmlns:rdf="http://www.w3.org/1999/02/22-rdf-syntax-ns#"
   xmlns:svg="http://www.w3.org/2000/svg"
   xmlns="http://www.w3.org/2000/svg"
   id="svg2502"
   viewBox="0 0 45.370112 15.402687"
   version="1.1"
   height="15.402687"
   width="45.370113">
  <defs
     id="defs2506" />
  <metadata
     id="metadata2">
    <rdf:RDF>
      <cc:Work
         rdf:about="">
        <dc:format>image/svg+xml</dc:format>
        <dc:type
           rdf:resource="http://purl.org/dc/dcmitype/StillImage" />
        <dc:title />
      </cc:Work>
    </rdf:RDF>
  </metadata>
  <g
     transform="translate(-218.63105,-696.35736)"
     style="stroke-width:0.16327"
     id="g2500">
    <path
       d="m 218.9,704.31 c -0.39276,-0.22877 -0.3582,-0.56674 0.12245,-1.1969 0.22449,-0.29432 0.40817,-0.59693 0.40817,-0.67246 0,-0.0755 0.14547,-0.29218 0.32325,-0.48142 0.41828,-0.44525 1.0097,-2.7717 0.82515,-3.246 -0.0748,-0.19216 -0.36375,-0.56516 -0.64218,-0.82889 -0.64497,-0.61096 -0.69906,-1.3434 -0.11009,-1.4912 0.67724,-0.16997 1.2469,0.26077 1.8506,1.3993 0.51091,0.96358 0.55381,1.1478 0.46638,2.0023 -0.053,0.51758 -0.21386,1.1205 -0.35753,1.3398 -0.14369,0.21929 -0.21698,0.47032 -0.16287,0.55787 0.0541,0.0875 0.0226,0.206 -0.07,0.26324 -0.0926,0.0572 -0.27525,0.35981 -0.40584,0.67236 -0.25321,0.60601 -1.453,1.8617 -1.7709,1.8534 -0.10492,-0.003 -0.31933,-0.0798 -0.47648,-0.17138 z m 43.026,-0.4611 c 0.32709,-0.55371 0.35682,-0.83195 0.0889,-0.83195 -0.33725,0 -0.78836,0.52831 -0.78836,0.92327 0,0.52736 0.36194,0.48011 0.69949,-0.0913 z m -31.965,7.8346 c -1.5265,-0.0601 -3.1429,-0.20575 -3.5918,-0.32371 -1.9859,-0.52174 -2.6612,-0.66937 -3.0623,-0.66937 -0.23574,0 -0.47275,-0.0714 -0.52666,-0.15861 -0.0539,-0.0872 -0.42521,-0.30335 -0.82511,-0.48024 -0.42877,-0.18967 -0.80516,-0.493 -0.91741,-0.73935 -0.10466,-0.22975 -0.24501,-0.41772 -0.31186,-0.41772 -0.24815,0 -0.98701,-1.4816 -0.8905,-1.7857 0.27286,-0.8597 1.1063,-0.72739 1.6381,0.26005 0.43586,0.80933 0.98459,1.2192 2.2892,1.71 2.7083,1.0189 3.7589,1.1606 8.6064,1.1611 4.7912,0 5.6888,-0.10348 8.3675,-0.96889 1.5582,-0.50339 3.3469,-1.2992 3.3469,-1.4889 0,-0.0747 0.32325,-0.29729 0.71833,-0.49459 0.70373,-0.35146 2.8735,-2.329 2.8735,-2.6189 0,-0.0808 0.31964,-0.5039 0.7103,-0.94013 0.39066,-0.43625 0.79649,-1.0567 0.90183,-1.3788 0.37157,-1.1361 1.305,-1.643 1.9668,-1.068 0.31264,0.27161 1.6327,0.70666 2.5954,0.85533 0.48895,0.0755 0.78392,0.2294 0.96269,0.50224 0.24139,0.36842 0.22322,0.49874 -0.28638,2.0547 -0.29927,0.91373 -0.57584,2.0437 -0.61458,2.511 -0.0625,0.75427 -0.0209,0.89914 0.37065,1.2907 0.39002,0.39002 0.5296,0.43061 1.2056,0.35056 0.70506,-0.0835 1.5971,-0.49007 2.4015,-1.0946 0.63679,-0.47852 1.0233,-1.1604 1.1354,-2.0031 0.1279,-0.9609 0.93531,-3.1288 1.3547,-3.6374 0.15162,-0.18389 0.58596,-0.50854 0.96516,-0.72147 0.64431,-0.36178 0.73404,-0.37244 1.3698,-0.1626 0.71862,0.23716 1.2859,0.92715 1.287,1.5654 0.002,0.76497 -0.81954,2.1265 -2.0455,3.3928 -1.135,1.1724 -1.2406,1.3367 -1.15,1.79 0.0549,0.27452 0.28281,0.69011 0.50643,0.92355 0.26836,0.28008 0.42005,0.64297 0.44609,1.0671 0.0386,0.62901 0.0269,0.64376 -0.55121,0.6921 -0.55444,0.0463 -0.62761,-0.006 -1.1924,-0.85714 -0.53159,-0.8009 -0.6657,-0.90654 -1.1508,-0.90654 -0.30201,0 -0.57358,0.0732 -0.60353,0.16262 -0.0806,0.2408 -2.598,1.3025 -3.0939,1.3048 -0.79221,0.004 -2.0712,-0.65122 -2.4173,-1.2378 -0.51816,-0.87821 -0.5578,-1.5097 -0.18804,-2.9954 0.18627,-0.74841 0.33866,-1.6114 0.33866,-1.9177 0,-0.49702 -0.0747,-0.59089 -0.69387,-0.87194 -0.38164,-0.17324 -0.84712,-0.31659 -1.0344,-0.31854 -0.22289,-0.002 -0.86887,0.55977 -1.8701,1.6274 -0.84131,0.89708 -1.5983,1.7604 -1.6822,1.9184 -0.2777,0.5231 -2.1446,2.1563 -2.4745,2.1647 -0.0898,0.002 -0.96215,0.40573 -1.9386,0.89656 -0.97643,0.4908 -2.0417,0.9399 -2.3674,0.99796 -0.3256,0.0581 -1.4369,0.31898 -2.4696,0.5798 -2.1651,0.54684 -4.0049,0.65146 -8.4082,0.47817 z"
       id="angry" />
  </g>
</svg>
