<svg xmlns="http://www.w3.org/2000/svg" height="15.403" width="45.37"><path d="M.269 7.953c-.393-.23-.358-.567.122-1.197C.616 6.46.8 6.159.8 6.083c0-.075.145-.292.323-.481.418-.445 1.01-2.772.825-3.246-.075-.192-.364-.565-.642-.829C.66.916.606.184 1.196.036c.677-.17 1.247.26 1.85 1.4.511.963.554 1.147.467 2.001-.053.518-.214 1.12-.358 1.34-.144.22-.217.47-.163.558.054.088.023.206-.07.263-.092.057-.275.36-.406.673-.253.606-1.453 1.861-1.77 1.853-.105-.003-.32-.08-.477-.171zm43.026-.461c.327-.554.357-.832.089-.832-.337 0-.789.528-.789.923 0 .527.362.48.7-.091zM11.33 15.326c-1.527-.06-3.143-.206-3.592-.324-1.986-.521-2.661-.669-3.062-.669-.236 0-.473-.071-.527-.159-.054-.087-.425-.303-.825-.48-.429-.19-.805-.493-.917-.74-.105-.229-.245-.417-.312-.417-.248 0-.987-1.481-.89-1.786.272-.86 1.106-.727 1.637.26.436.81.985 1.22 2.29 1.71 2.708 1.02 3.759 1.161 8.606 1.162 4.791 0 5.689-.104 8.368-.97 1.558-.503 3.346-1.299 3.346-1.488 0-.075.324-.297.719-.495.703-.351 2.873-2.329 2.873-2.619 0-.08.32-.504.71-.94.391-.436.797-1.057.902-1.379.372-1.136 1.305-1.643 1.967-1.068.313.272 1.633.707 2.596.856.489.075.783.23.962.502.242.368.223.499-.286 2.055-.3.913-.576 2.043-.615 2.51-.062.755-.02.9.371 1.291.39.39.53.431 1.206.35.705-.083 1.597-.49 2.401-1.094.637-.478 1.023-1.16 1.135-2.003.128-.96.936-3.129 1.355-3.637.152-.184.586-.509.965-.722.645-.361.734-.372 1.37-.162.719.237 1.286.927 1.287 1.565.002.765-.82 2.127-2.045 3.393-1.135 1.172-1.241 1.337-1.15 1.79.055.274.282.69.506.923.268.28.42.643.446 1.068.039.629.027.643-.551.692-.555.046-.628-.006-1.192-.857-.532-.801-.666-.907-1.151-.907-.302 0-.574.073-.604.163-.08.24-2.598 1.302-3.094 1.304-.792.004-2.07-.65-2.417-1.237-.518-.879-.558-1.51-.188-2.996.186-.748.339-1.611.339-1.917 0-.497-.075-.591-.694-.872-.382-.174-.847-.317-1.035-.319-.223-.002-.869.56-1.87 1.627-.841.898-1.598 1.76-1.682 1.919-.278.523-2.145 2.156-2.474 2.165-.09.002-.963.405-1.94.896-.975.49-2.04.94-2.366.998-.326.058-1.437.319-2.47.58-2.165.547-4.005.651-8.408.478z" stroke-width=".163"/></svg>