<?xml version="1.0" encoding="UTF-8" standalone="no"?>
<svg
   xmlns:dc="http://purl.org/dc/elements/1.1/"
   xmlns:cc="http://creativecommons.org/ns#"
   xmlns:rdf="http://www.w3.org/1999/02/22-rdf-syntax-ns#"
   xmlns:svg="http://www.w3.org/2000/svg"
   xmlns="http://www.w3.org/2000/svg"
   id="svg2502"
   viewBox="0 0 17.002651 15.241677"
   version="1.1"
   height="15.241677"
   width="17.002651">
  <defs
     id="defs2506" />
  <metadata
     id="metadata2">
    <rdf:RDF>
      <cc:Work
         rdf:about="">
        <dc:format>image/svg+xml</dc:format>
        <dc:type
           rdf:resource="http://purl.org/dc/dcmitype/StillImage" />
        <dc:title />
      </cc:Work>
    </rdf:RDF>
  </metadata>
  <g
     transform="translate(-219.21838,-745.1404)"
     style="stroke-width:0.16327"
     id="g2500">
    <path
       d="m 234.08,746.76 c -0.64483,-0.37558 -0.11997,-1.6196 0.68333,-1.6196 0.35206,0 0.50596,0.10919 0.6525,0.46301 0.39989,0.9654 -0.43017,1.6841 -1.3358,1.1566 z m -11.04,12.054 c 1.0674,-0.81554 1.6117,-1.3071 1.6117,-1.4558 0,-0.0861 0.219,-0.6112 0.48669,-1.1668 0.71848,-1.4912 0.88018,-2.561 0.57009,-3.7714 -0.30147,-1.1768 -0.76047,-1.7286 -1.4379,-1.7286 -0.37914,0 -0.69027,0.20908 -1.4001,0.9409 -1.223,1.2608 -1.3172,1.394 -2.0194,2.8536 -0.60645,1.2606 -0.75289,1.974 -0.44428,2.1647 0.0898,0.0555 0.16326,0.23463 0.16326,0.39807 0,0.16345 0.18906,0.71012 0.42013,1.2149 0.39431,0.86125 0.45547,0.91768 0.99458,0.91768 0.34444,0 0.76699,-0.1471 1.0553,-0.36735 z m -1.9802,1.4372 c -0.60385,-0.15342 -0.79886,-0.30271 -1.095,-0.83825 -0.62272,-1.1261 -0.86716,-2.3786 -0.69036,-3.5374 0.23938,-1.5688 0.25773,-1.6183 1.0459,-2.8183 0.40672,-0.61925 0.73949,-1.2094 0.73949,-1.3115 0,-0.1021 0.441,-0.62661 0.97998,-1.1656 1.3122,-1.3122 2.2709,-1.6075 3.6731,-1.1313 0.57964,0.19686 0.72072,0.35762 1.2548,1.4299 l 0.60173,1.2081 -0.15367,1.7105 c -0.0845,0.94077 -0.19388,2.0044 -0.24305,2.3635 -0.0669,0.48838 0.005,0.83834 0.28663,1.3878 l 0.37603,0.73469 2.0485,0.0974 0.9568,-0.91262 c 1.372,-1.3086 2.555,-3.7215 2.7753,-5.6605 0.20392,-1.7945 0.41468,-2.259 1.0252,-2.259 0.72075,0 0.85504,0.55012 0.61767,2.5306 -0.50103,4.1806 -0.36959,5.757 0.51838,6.2162 0.53574,0.27705 0.55697,0.35729 0.22126,0.83659 -0.29665,0.42351 -1.0861,0.62452 -1.5267,0.38872 -0.44136,-0.23621 -1.0038,-1.1865 -1.0038,-1.696 0,-0.67935 -0.29503,-0.67323 -1.049,0.0217 -1.6014,1.4762 -3.5811,2.3823 -4.3257,1.9799 -0.14191,-0.0767 -0.53353,-0.26158 -0.87028,-0.41086 -0.33674,-0.14929 -0.70477,-0.46509 -0.81785,-0.70179 -0.34811,-0.72866 -0.86238,-0.64673 -1.7262,0.27503 -1.1811,1.2604 -2.212,1.6199 -3.6192,1.2624 z"
       id="annoy" />
  </g>
</svg>
