<svg xmlns="http://www.w3.org/2000/svg" height="11.068" width="62.226"><path d="M60.744 10.412c-.066-.106-.125-1.69-.132-3.52l-.014-3.327-.408-.313c-.522-.401-1.115-.4-1.632.006-.225.175-.468.32-.54.323-.346.009-1.496 1.145-1.833 1.81-.456.9-.893 2.515-.893 3.304 0 .441-.117.673-.502.997-.604.508-.67.514-1.046.099-.282-.311-.282-.375-.004-1.592.159-.697.321-1.955.36-2.796.067-1.412.045-1.558-.294-1.918-.297-.316-.531-.39-1.227-.39-.473 0-.904.07-.958.158-.054.088-.346.277-.65.421-1.299.616-2.401 2.195-2.844 4.074-.106.448-.392 1.22-.636 1.714-.497 1.005-.926 1.203-1.422.655-.3-.332-.3-.354.05-1.073.196-.404.357-.863.357-1.02 0-.159.154-.726.344-1.262.415-1.175.335-2.587-.194-3.444-.289-.467-.433-.55-.955-.55-.673 0-1.608.582-2.26 1.408-1.476 1.865-1.994 2.573-2.078 2.838-.15.47-1.965 2.28-2.651 2.642-1.152.607-1.514.65-2.285.277-1.03-.499-1.263-1.048-1.092-2.586.075-.678.14-1.721.143-2.319.006-.964-.05-1.165-.506-1.795-.49-.678-.555-.712-1.442-.76-.59-.03-1.024.029-1.187.164-.292.24-1.674 2.349-1.674 2.553 0 .452-1.798 4.317-2.205 4.742-.327.34-1.034.1-1.158-.394-.105-.42.024-.86.673-2.28.488-1.068.677-1.75.812-2.92l.11-.96-.924-.86c-.768-.715-.916-.94-.872-1.326.112-.977 1.628-.49 2.367.762.414.7 1.121.67 1.919-.082C32.688.62 35.106.557 35.716 1.758c.122.241.382.659.577.928.617.852.734 1.618.53 3.457-.102.913-.139 1.845-.082 2.07.145.58.65.687 1.31.28.5-.31.841-.64 2.506-2.43.292-.313.53-.663.53-.776 0-.114.357-.599.792-1.077.436-.48.882-1.042.993-1.252.11-.21.434-.482.719-.605a7.43 7.43 0 001.007-.557c.56-.38 1.908-.448 2.463-.124.665.387 1.168.868 1.281 1.224.145.457.3.452 1.374-.048.48-.224.98-.407 1.11-.407.13 0 .546-.153.923-.34 1.387-.686 3.268-.178 3.478.94.084.453.173.543.532.542.254 0 .648-.204.959-.495.29-.272 1.024-.718 1.632-.992 1.278-.576 1.893-.555 2.74.09.869.664 1.142 1.705 1.136 4.337-.003 1.212-.06 2.467-.125 2.788-.194.95-1.032 1.629-1.358 1.101zm-40.07-2.333c1.067-.875 1.325-1.53 1.366-3.457.033-1.574-.153-1.88-1.317-2.174-1.13-.284-1.887-.09-2.728.701-.905.853-1.288 1.8-1.303 3.227-.01 1.008.03 1.147.472 1.609.519.542 1.133.785 2.048.809.449.011.765-.144 1.462-.715zM4.434 9.156c.847-.525 2.21-1.95 2.476-2.59.14-.339.325-.659.41-.712.248-.156.634-2.3.525-2.923-.055-.314-.204-.737-.33-.94-.333-.53-1.481-.505-2.487.055-.936.522-2.48 2.315-2.735 3.175a6.569 6.569 0 01-.534 1.225c-.476.808-.433 1.328.186 2.236.501.735.571.779 1.265.778.432 0 .937-.125 1.225-.304zM1.66 10.747C1.003 10.237.818 10 .412 9.14-.09 8.075-.126 7.397.265 6.28.969 4.269 3.626.95 4.913.477c.276-.102.629-.252.785-.334.775-.41 2.35.11 3.143 1.035.722.843.807 1.332.566 3.233-.334 2.634-.356 2.925-.25 3.345.292 1.166 1.483 1.407 2.38.482.304-.315.648-.572.764-.572.116 0 .387-.275.602-.612.215-.337.574-.781.798-.988.223-.207.53-.653.683-.99.315-.698 2.612-3.146 3.676-3.916.676-.49.781-.514 2.251-.514 1.726 0 2 .124 2.765 1.251.384.567.42.764.417 2.256-.007 2.907-.837 4.522-2.813 5.482-1.313.637-2.255.672-3.614.132-.903-.359-1.002-.45-1.38-1.284-.552-1.22-.635-1.36-.84-1.428-.098-.033-.719.484-1.38 1.147-1.27 1.273-2.598 2.077-3.433 2.077-.469 0-2.134-.82-2.34-1.153-.191-.311-.795-.138-1.481.424-.914.75-2.282 1.37-3.275 1.486-.661.077-.867.031-1.278-.288z"/></svg>