<?xml version="1.0" encoding="UTF-8" standalone="no"?>
<svg
   xmlns:dc="http://purl.org/dc/elements/1.1/"
   xmlns:cc="http://creativecommons.org/ns#"
   xmlns:rdf="http://www.w3.org/1999/02/22-rdf-syntax-ns#"
   xmlns:svg="http://www.w3.org/2000/svg"
   xmlns="http://www.w3.org/2000/svg"
   id="svg2502"
   viewBox="0 0 32.359324 15.139317"
   version="1.1"
   height="15.139317"
   width="32.359325">
  <defs
     id="defs2506" />
  <metadata
     id="metadata2">
    <rdf:RDF>
      <cc:Work
         rdf:about="">
        <dc:format>image/svg+xml</dc:format>
        <dc:type
           rdf:resource="http://purl.org/dc/dcmitype/StillImage" />
        <dc:title />
      </cc:Work>
    </rdf:RDF>
  </metadata>
  <g
     transform="translate(-218.3783,-767.71031)"
     style="stroke-width:0.16327"
     id="g2500">
    <path
       d="m 234.67,769.44 c -0.7171,-0.34687 -0.5744,-1.5074 0.20953,-1.7041 0.51786,-0.12998 0.87834,0.24447 0.87834,0.91239 0,0.3312 -0.49897,1.0294 -0.69574,0.97362 -0.0214,-0.006 -0.19788,-0.0879 -0.39213,-0.1819 z m 6.6715,12.405 c -0.27329,-0.27329 -0.24614,-0.69074 0.13061,-2.0082 0.24991,-0.87388 0.32653,-1.6313 0.32653,-3.2276 v -2.0858 l -0.65306,-0.70849 c -0.75441,-0.81843 -0.8087,-1.1339 -0.25734,-1.4952 0.35174,-0.23048 0.44701,-0.23262 0.85715,-0.0193 0.61446,0.31962 1.1196,0.89606 1.3106,1.4955 0.25412,0.79775 0.73672,0.72515 1.8184,-0.27358 1.2184,-1.125 2.0491,-1.3933 3.3659,-1.0872 0.99538,0.23141 1.3553,0.56602 2.0572,1.9126 0.30882,0.59249 0.3633,1.0096 0.4206,3.2202 0.0777,2.9973 -0.0597,3.7399 -0.71647,3.8724 -0.77288,0.1559 -0.8637,-0.16614 -0.76181,-2.7012 0.0807,-2.0067 0.0526,-2.3789 -0.24745,-3.277 -0.64749,-1.9384 -2.1981,-2.3385 -3.4226,-0.88329 -1.2771,1.5178 -1.6102,2.2001 -2.1284,4.3598 -0.59148,2.4651 -1.4091,3.5968 -2.0998,2.9061 z m -17.861,-1.4636 c 1.277,-1.2417 1.7633,-2.3411 2.0273,-4.5832 l 0.18713,-1.5896 -0.64199,-0.56685 c -0.8126,-0.71746 -1.5211,-0.76013 -2.4408,-0.14697 -1.1113,0.7409 -1.307,0.99086 -2.278,2.9089 -0.73486,1.4516 -0.75089,2.1675 -0.0774,3.4574 0.98457,1.8857 1.7007,2.0013 3.2238,0.52032 z m -2.8247,2.2191 c -0.79035,-0.41106 -1.1977,-0.88126 -1.7496,-2.0194 -0.42005,-0.8663 -0.52083,-1.2797 -0.52767,-2.1647 -0.005,-0.66803 0.071,-1.1733 0.19562,-1.298 0.11225,-0.11224 0.20409,-0.36168 0.20409,-0.55428 0,-0.19262 0.14693,-0.48319 0.32653,-0.64572 0.17959,-0.16253 0.32653,-0.43028 0.32653,-0.595 0,-0.27672 0.98568,-1.5362 2.0704,-2.6456 1.1536,-1.1798 2.6498,-1.4156 3.7812,-0.59611 0.37188,0.26939 0.74632,0.48979 0.8321,0.48979 0.0858,0 0.41712,0.39349 0.73634,0.8744 0.55814,0.84089 0.57432,0.90652 0.42165,1.7115 -0.0873,0.46043 -0.20493,1.7016 -0.26134,2.7582 -0.1345,2.5189 -0.10678,2.5596 1.7489,2.568 1.3473,0.006 1.376,-0.002 2.2626,-0.66441 0.9811,-0.73267 1.9685,-2.06 2.2944,-3.0845 0.11429,-0.35918 0.37949,-1.1064 0.58934,-1.6605 0.20986,-0.55409 0.38155,-1.1626 0.38155,-1.3522 0,-0.47329 0.38266,-1.3486 0.70728,-1.6178 0.16154,-0.13396 0.43112,-0.18139 0.67835,-0.11933 0.36704,0.0921 0.40967,0.18439 0.40448,0.87538 -0.003,0.42481 -0.12639,1.2132 -0.27375,1.752 -0.14909,0.54509 -0.29556,1.8281 -0.33024,2.8926 -0.0597,1.8338 -0.045,1.9385 0.35538,2.5277 0.57228,0.84217 0.55127,1.2999 -0.0659,1.4355 -0.71048,0.15605 -1.0195,-0.10264 -1.4828,-1.2412 -0.3867,-0.95032 -0.80769,-1.4358 -0.81026,-0.93432 0,0.11972 -0.25454,0.39025 -0.56431,0.60119 -0.30974,0.21092 -0.80516,0.63259 -1.1009,0.93703 -0.29577,0.30444 -0.6207,0.55432 -0.72211,0.55528 -0.10139,0.002 -0.60219,0.19303 -1.1129,0.42683 -0.58818,0.26927 -1.0891,0.39386 -1.3667,0.33986 -1.0942,-0.21286 -1.9364,-0.48248 -2.7473,-0.87952 -0.82109,-0.40206 -0.89539,-0.4121 -1.1616,-0.15698 -0.6352,0.60883 -1.7697,1.4596 -2.1281,1.5958 -0.57599,0.21899 -1.3641,0.17295 -1.9113,-0.11167 z"
       id="annoyance" />
  </g>
</svg>
