<svg xmlns="http://www.w3.org/2000/svg" height="15.139" width="32.359"><path d="M16.292 1.73c-.717-.347-.575-1.508.21-1.704.517-.13.878.244.878.912 0 .331-.5 1.03-.696.974a7.79 7.79 0 01-.392-.182zm6.671 12.405c-.273-.274-.246-.691.13-2.009.25-.873.327-1.63.327-3.227V6.813l-.653-.708c-.754-.819-.808-1.134-.257-1.496.352-.23.447-.232.857-.019.615.32 1.12.896 1.31 1.496.255.797.737.725 1.82-.274 1.217-1.125 2.048-1.393 3.365-1.087.995.231 1.355.566 2.057 1.912.309.593.363 1.01.42 3.22.078 2.998-.059 3.74-.716 3.873-.773.156-.863-.166-.761-2.701.08-2.007.052-2.38-.248-3.277-.647-1.939-2.198-2.339-3.423-.883-1.277 1.517-1.61 2.2-2.128 4.36-.591 2.464-1.409 3.596-2.1 2.905zM5.103 12.67c1.276-1.242 1.762-2.341 2.026-4.583l.188-1.59-.642-.567c-.813-.717-1.521-.76-2.441-.147-1.111.741-1.307.991-2.278 2.91-.735 1.451-.751 2.167-.078 3.457.985 1.885 1.701 2.001 3.224.52zm-2.826 2.22c-.79-.412-1.197-.882-1.75-2.02-.42-.867-.52-1.28-.527-2.165-.005-.668.071-1.173.196-1.298.112-.112.204-.362.204-.554 0-.193.147-.483.326-.646.18-.162.327-.43.327-.595 0-.277.986-1.536 2.07-2.646 1.154-1.18 2.65-1.415 3.782-.596.371.27.746.49.832.49.085 0 .417.394.736.875.558.84.574.906.422 1.711-.088.46-.205 1.702-.262 2.758-.134 2.52-.106 2.56 1.75 2.568 1.347.006 1.375-.002 2.262-.664.98-.733 1.968-2.06 2.294-3.085.115-.359.38-1.106.59-1.66.21-.554.381-1.163.381-1.352 0-.474.383-1.349.707-1.618.162-.134.432-.182.679-.12.367.093.41.185.404.876-.003.425-.126 1.213-.274 1.752-.149.545-.295 1.828-.33 2.893-.06 1.833-.045 1.938.356 2.527.572.842.55 1.3-.066 1.436-.71.156-1.02-.103-1.483-1.241-.387-.95-.808-1.436-.81-.935 0 .12-.255.39-.565.601-.31.211-.805.633-1.1.937-.296.305-.621.555-.723.556-.101.002-.602.193-1.113.427-.588.269-1.089.393-1.366.34-1.094-.213-1.937-.483-2.748-.88-.82-.402-.895-.412-1.161-.157-.635.609-1.77 1.46-2.128 1.596-.576.219-1.364.173-1.912-.112z" stroke-width=".163"/></svg>