<svg xmlns="http://www.w3.org/2000/svg" height="15.242" width="17.003"><path d="M14.862 1.62c-.645-.376-.12-1.62.683-1.62.352 0 .506.11.652.463.4.965-.43 1.684-1.335 1.157zM3.822 13.674c1.067-.816 1.611-1.308 1.611-1.456 0-.086.22-.611.487-1.167.718-1.491.88-2.561.57-3.771C6.19 6.103 5.73 5.55 5.052 5.55c-.379 0-.69.21-1.4.94-1.223 1.262-1.317 1.395-2.02 2.854-.606 1.261-.752 1.974-.444 2.165.09.056.164.235.164.398 0 .164.189.71.42 1.215.394.861.455.918.994.918a1.88 1.88 0 001.056-.368zm-1.98 1.437c-.604-.154-.8-.303-1.096-.838-.622-1.127-.867-2.38-.69-3.538.24-1.569.258-1.618 1.046-2.818.407-.62.74-1.21.74-1.312 0-.102.44-.626.98-1.165 1.312-1.312 2.27-1.608 3.673-1.132.58.197.72.358 1.254 1.43l.602 1.208-.154 1.71a74.65 74.65 0 01-.243 2.364c-.067.489.005.839.287 1.388l.376.735 2.049.097.956-.912c1.372-1.309 2.555-3.722 2.776-5.66.204-1.795.414-2.26 1.025-2.26.72 0 .855.55.617 2.53-.5 4.181-.37 5.758.519 6.217.536.277.557.357.221.837-.297.423-1.086.624-1.527.388-.44-.236-1.003-1.186-1.003-1.696 0-.679-.295-.673-1.05.022-1.6 1.476-3.58 2.382-4.325 1.98a17.14 17.14 0 00-.87-.41c-.337-.15-.705-.466-.818-.703-.348-.728-.863-.646-1.726.275-1.182 1.26-2.212 1.62-3.62 1.263z" stroke-width=".163"/></svg>