<?xml version="1.0" encoding="UTF-8" standalone="no"?>
<svg
   xmlns:dc="http://purl.org/dc/elements/1.1/"
   xmlns:cc="http://creativecommons.org/ns#"
   xmlns:rdf="http://www.w3.org/1999/02/22-rdf-syntax-ns#"
   xmlns:svg="http://www.w3.org/2000/svg"
   xmlns="http://www.w3.org/2000/svg"
   id="svg2502"
   viewBox="0 0 62.225821 11.067789"
   version="1.1"
   height="11.067789"
   width="62.225822">
  <defs
     id="defs2506" />
  <metadata
     id="metadata2">
    <rdf:RDF>
      <cc:Work
         rdf:about="">
        <dc:format>image/svg+xml</dc:format>
        <dc:type
           rdf:resource="http://purl.org/dc/dcmitype/StillImage" />
        <dc:title />
      </cc:Work>
    </rdf:RDF>
  </metadata>
  <g
     transform="translate(-218.82623,-725.88797)"
     style="stroke-width:0.16327"
     id="g2500">
    <path
       d="m 279.57,736.3 c -0.0653,-0.10568 -0.12475,-1.6894 -0.13208,-3.5194 l -0.0134,-3.3272 -0.40816,-0.31372 c -0.52194,-0.40116 -1.1153,-0.39915 -1.6326,0.006 -0.22449,0.17559 -0.46758,0.3209 -0.54018,0.32291 -0.34569,0.009 -1.4949,1.1452 -1.8327,1.8112 -0.45596,0.89892 -0.89242,2.5146 -0.89242,3.3035 0,0.4407 -0.11675,0.67239 -0.50232,0.99683 -0.60344,0.50775 -0.67048,0.51407 -1.0464,0.0986 -0.28161,-0.31119 -0.28178,-0.37434 -0.004,-1.5918 0.15923,-0.69727 0.32178,-1.9554 0.36121,-2.7959 0.0662,-1.4117 0.0438,-1.5579 -0.29491,-1.9184 -0.29657,-0.31567 -0.53092,-0.39023 -1.2265,-0.39023 -0.47293,0 -0.90405,0.0715 -0.95808,0.15889 -0.054,0.0874 -0.34654,0.27675 -0.65009,0.4208 -1.2989,0.61636 -2.4012,2.1951 -2.8441,4.0734 -0.10586,0.44898 -0.39215,1.2204 -0.6362,1.7143 -0.49673,1.0053 -0.92569,1.2029 -1.4215,0.65506 -0.30061,-0.33218 -0.29963,-0.35352 0.0498,-1.0728 0.1961,-0.40362 0.35654,-0.86302 0.35654,-1.0209 0,-0.15786 0.15481,-0.72527 0.344,-1.261 0.41506,-1.1751 0.33561,-2.5874 -0.19374,-3.444 -0.2889,-0.46744 -0.43285,-0.55036 -0.9554,-0.55036 -0.67285,0 -1.6071,0.58186 -2.2603,1.4077 -1.4756,1.8657 -1.9936,2.5732 -2.0777,2.8382 -0.14947,0.47091 -1.9649,2.2801 -2.6509,2.6418 -1.1515,0.60713 -1.5132,0.65107 -2.2849,0.27752 -1.0304,-0.49881 -1.2625,-1.0484 -1.0922,-2.5858 0.0751,-0.67784 0.13973,-1.7213 0.14363,-2.3188 0.006,-0.96465 -0.0504,-1.1658 -0.5062,-1.7959 -0.49039,-0.67791 -0.55478,-0.71179 -1.4424,-0.75895 -0.58956,-0.0313 -1.0232,0.0283 -1.1866,0.16326 -0.29191,0.24098 -1.6741,2.3492 -1.6741,2.5535 0,0.45117 -1.798,4.3171 -2.2052,4.7415 -0.32692,0.34072 -1.0337,0.1001 -1.1577,-0.39417 -0.10537,-0.41984 0.0245,-0.85954 0.67334,-2.2801 0.48743,-1.0671 0.67705,-1.7489 0.81187,-2.9191 l 0.11061,-0.95995 -0.92475,-0.86062 c -0.76832,-0.71505 -0.91575,-0.93933 -0.87154,-1.3258 0.11184,-0.97738 1.6271,-0.48966 2.3663,0.76165 0.41371,0.70036 1.1212,0.67004 1.9188,-0.0822 1.3273,-1.2518 3.745,-1.3148 4.3552,-0.1134 0.12241,0.24103 0.38217,0.65863 0.57722,0.92801 0.61665,0.85169 0.73396,1.6175 0.52947,3.4565 -0.10155,0.91333 -0.13832,1.8452 -0.0817,2.0708 0.14549,0.57968 0.64977,0.68702 1.3101,0.27891 0.49984,-0.30891 0.84119,-0.63972 2.5064,-2.429 0.29183,-0.31357 0.53061,-0.66315 0.53061,-0.77684 0,-0.11368 0.35616,-0.59833 0.79148,-1.077 0.43533,-0.47866 0.88205,-1.0418 0.99273,-1.2515 0.11069,-0.20963 0.43412,-0.48201 0.71873,-0.60526 0.2846,-0.12325 0.73787,-0.37368 1.0073,-0.55652 0.55986,-0.38 1.9076,-0.44826 2.4626,-0.12473 0.66526,0.38785 1.1685,0.86891 1.2815,1.2249 0.14496,0.45672 0.30044,0.45122 1.3741,-0.0486 0.48034,-0.22361 0.9798,-0.40656 1.1099,-0.40656 0.1301,0 0.54528,-0.15287 0.92257,-0.33971 1.387,-0.68686 3.2679,-0.17843 3.4777,0.9401 0.0848,0.45197 0.17363,0.54233 0.53257,0.54171 0.25386,0 0.64753,-0.20388 0.95845,-0.4953 0.29019,-0.27198 1.0249,-0.71841 1.6326,-0.99206 1.2782,-0.57554 1.8926,-0.5553 2.739,0.0903 0.8697,0.66335 1.1425,1.7043 1.1366,4.3366 -0.003,1.2122 -0.0588,2.4667 -0.12449,2.7877 -0.19445,0.94963 -1.0318,1.6291 -1.3578,1.1018 z m -40.07,-2.3333 c 1.0668,-0.87512 1.3256,-1.5299 1.3661,-3.457 0.0331,-1.5735 -0.15283,-1.8805 -1.3167,-2.1735 -1.13,-0.28452 -1.8874,-0.0898 -2.728,0.70126 -0.90548,0.85211 -1.288,1.7991 -1.3032,3.2265 -0.0108,1.0076 0.0301,1.1467 0.47189,1.6087 0.51897,0.54262 1.1336,0.78537 2.0481,0.80888 0.44856,0.0116 0.76523,-0.1433 1.4619,-0.71476 z m -16.239,1.0774 c 0.84652,-0.52526 2.2084,-1.951 2.4748,-2.5908 0.14067,-0.33785 0.32501,-0.65783 0.40965,-0.71109 0.24878,-0.1565 0.6343,-2.3002 0.52566,-2.9229 -0.0549,-0.31466 -0.20347,-0.73742 -0.33017,-0.93946 -0.33291,-0.53096 -1.4812,-0.50583 -2.4864,0.0544 -0.93646,0.5219 -2.4811,2.315 -2.735,3.175 -0.10404,0.35236 -0.34435,0.90367 -0.53403,1.2251 -0.47623,0.80716 -0.43298,1.3277 0.18577,2.2356 0.5012,0.73543 0.57133,0.77855 1.2653,0.77827 0.43176,0 0.93665,-0.1256 1.2245,-0.30419 z m -2.7755,1.591 c -0.65633,-0.50949 -0.84132,-0.74789 -1.2471,-1.6072 -0.50288,-1.0648 -0.53782,-1.743 -0.14732,-2.8592 0.70423,-2.0131 3.3613,-5.3312 4.6485,-5.8051 0.27558,-0.10144 0.62861,-0.25177 0.78453,-0.33407 0.77543,-0.40933 2.3509,0.1096 3.1432,1.0353 0.72165,0.8431 0.80718,1.3317 0.56604,3.2335 -0.33404,2.6341 -0.35576,2.9243 -0.25027,3.3446 0.29259,1.1657 1.4834,1.4068 2.3799,0.48182 0.30462,-0.31428 0.64872,-0.57142 0.76467,-0.57142 0.11595,0 0.38663,-0.27551 0.6015,-0.61225 0.21488,-0.33673 0.5738,-0.78158 0.79762,-0.98855 0.22382,-0.20698 0.53141,-0.65233 0.68354,-0.98969 0.31471,-0.69792 2.6124,-3.1456 3.6763,-3.9163 0.67598,-0.48968 0.78096,-0.51363 2.2506,-0.51363 1.726,0 1.9996,0.12382 2.7648,1.2514 0.38421,0.56617 0.42072,0.76368 0.41693,2.256 -0.007,2.9069 -0.83623,4.522 -2.8131,5.4819 -1.3122,0.63709 -2.2543,0.67141 -3.6137,0.13162 -0.90302,-0.35858 -1.0016,-0.45038 -1.3795,-1.2842 -0.55238,-1.2188 -0.63494,-1.359 -0.84061,-1.4276 -0.0978,-0.0326 -0.71877,0.48348 -1.38,1.1468 -1.269,1.2731 -2.5973,2.0767 -3.4328,2.0767 -0.46901,0 -2.1337,-0.82046 -2.3392,-1.1529 -0.19205,-0.31075 -0.79538,-0.1378 -1.482,0.4248 -0.91409,0.74902 -2.282,1.3696 -3.2748,1.4857 -0.66121,0.0773 -0.86699,0.0309 -1.2779,-0.28808 z"
       id="announcement" />
  </g>
</svg>
