<svg xmlns="http://www.w3.org/2000/svg" height="28.558" width="21.766"><path d="M18.987 9.032c1.333-2.855 1.71-6.517.733-7.127-.543-.339-.74.064-.95 1.943-.105.943-.292 2.205-.415 2.804-.224 1.092-.154 3.237.105 3.237.07 0 .307-.386.527-.857zM4.285 20.47c1.199-.36 2.43-1.945 2.89-3.724.647-2.497.574-3.268-.38-3.995-.632-.483-1.336-.529-2.426-.157-.594.202-.809.38-1.031.857-.155.33-.55.895-.877 1.255-.517.567-.635.858-.903 2.226-.308 1.57-.308 1.577.027 2.368.237.558.5.878.886 1.079.649.337.944.352 1.814.091zM2.45 21.982c-.891-.178-1.26-.446-1.877-1.361C.04 19.828 0 19.684 0 18.488c0-1.225.347-2.903.69-3.33.088-.11.384-.661.658-1.224.536-1.104 1.816-2.457 2.68-2.834.286-.124.912-.272 1.392-.328 1.035-.122 1.907.226 3.052 1.216.838.724.846.786.554 4.432-.204 2.56-.101 3.003.834 3.58.744.46 1.666.347 2.645-.326 1.054-.724 1.611-1.472 2.573-3.452.907-1.867 1.412-3.616 1.412-4.896 0-.868.556-5.79.907-8.027.342-2.18.602-2.774 1.357-3.115.568-.256.636-.253 1.342.06.62.274.822.484 1.22 1.27.432.855.473 1.076.442 2.404-.018.805-.154 1.871-.303 2.37-.48 1.618-1.727 4.621-2.647 6.377-.494.942-.953 1.824-1.02 1.959-.507 1.028-.56 4.47-.076 4.954.885.884.454 2.124-.551 1.586-.461-.247-1.324-1.588-1.324-2.059 0-.644-.392-.479-1.584.668-1.44 1.384-2.265 1.87-3.362 1.984-1.117.115-1.791-.195-2.564-1.18-.693-.885-1.098-.928-1.751-.183-.464.528-1.092.917-2.377 1.473-.657.284-.845.296-1.75.115zm14.776 6.512c-.68-.275-4.653-4.587-4.653-5.05 0-.15.456-.656.59-.656.43 0 1.607.975 3.124 2.59 1.51 1.607 1.837 2.044 1.837 2.452 0 .57-.4.866-.898.664z"/></svg>