<?xml version="1.0" encoding="UTF-8" standalone="no"?>
<svg
   xmlns:dc="http://purl.org/dc/elements/1.1/"
   xmlns:cc="http://creativecommons.org/ns#"
   xmlns:rdf="http://www.w3.org/1999/02/22-rdf-syntax-ns#"
   xmlns:svg="http://www.w3.org/2000/svg"
   xmlns="http://www.w3.org/2000/svg"
   id="svg2502"
   viewBox="0 0 21.766296 28.557671"
   version="1.1"
   height="28.557671"
   width="21.766296">
  <defs
     id="defs2506" />
  <metadata
     id="metadata2">
    <rdf:RDF>
      <cc:Work
         rdf:about="">
        <dc:format>image/svg+xml</dc:format>
        <dc:type
           rdf:resource="http://purl.org/dc/dcmitype/StillImage" />
        <dc:title />
      </cc:Work>
    </rdf:RDF>
  </metadata>
  <g
     transform="translate(-219.43274,-784.558)"
     style="stroke-width:0.16327"
     id="g2500">
    <path
       d="m 238.42,793.59 c 1.333,-2.8554 1.7093,-6.5168 0.73247,-7.1268 -0.5432,-0.33925 -0.74036,0.0641 -0.94974,1.9432 -0.10508,0.94286 -0.29161,2.2044 -0.41452,2.8035 -0.22402,1.0919 -0.15486,3.2373 0.10438,3.2373 0.07,0 0.30731,-0.38572 0.52741,-0.85715 z m -14.702,11.438 c 1.1987,-0.35915 2.4296,-1.945 2.8901,-3.7237 0.64663,-2.4975 0.57334,-3.2688 -0.37975,-3.9957 -0.63282,-0.48268 -1.3367,-0.52816 -2.4265,-0.15681 -0.59377,0.20231 -0.80897,0.38111 -1.0316,0.85714 -0.15475,0.33082 -0.549,0.89538 -0.87612,1.2546 -0.51706,0.56774 -0.63512,0.8587 -0.90361,2.2269 -0.30787,1.5688 -0.30777,1.5764 0.0276,2.3673 0.23688,0.55868 0.49903,0.87803 0.88574,1.079 0.6488,0.33718 0.94397,0.35203 1.8142,0.0913 z m -1.8363,1.5122 c -0.89124,-0.17822 -1.2601,-0.44583 -1.8768,-1.3616 -0.53344,-0.79211 -0.57216,-0.93645 -0.57216,-2.1328 0,-1.2249 0.34746,-2.9024 0.68969,-3.3298 0.0883,-0.1102 0.38435,-0.66122 0.65795,-1.2245 0.53608,-1.1036 1.8164,-2.4566 2.6811,-2.8333 0.28521,-0.12427 0.9115,-0.2721 1.3917,-0.32856 1.0341,-0.12153 1.9063,0.22604 3.0514,1.2161 0.83824,0.72472 0.84598,0.78657 0.55453,4.4319 -0.20463,2.5596 -0.10139,3.0032 0.83367,3.5811 0.74392,0.45975 1.666,0.34576 2.6452,-0.32702 1.0534,-0.72386 1.611,-1.4718 2.5729,-3.4516 0.90717,-1.867 1.4116,-3.6166 1.4116,-4.8962 0,-0.86761 0.55664,-5.7898 0.90776,-8.027 0.34199,-2.179 0.60121,-2.774 1.357,-3.1148 0.56769,-0.256 0.63554,-0.25301 1.3413,0.0592 0.62026,0.27437 0.82219,0.48469 1.2198,1.2705 0.43263,0.8551 0.47337,1.0763 0.44282,2.4044 -0.0185,0.80444 -0.15484,1.8708 -0.30297,2.3698 -0.48031,1.6179 -1.7273,4.6212 -2.6476,6.3765 -0.49434,0.94285 -0.95315,1.8245 -1.0196,1.9592 -0.50722,1.0284 -0.56026,4.47 -0.0764,4.9539 0.88488,0.88487 0.45446,2.1245 -0.55084,1.5865 -0.46132,-0.24691 -1.3243,-1.5885 -1.3243,-2.0587 0,-0.64415 -0.39218,-0.47899 -1.5841,0.66711 -1.4393,1.384 -2.2647,1.8712 -3.3615,1.9844 -1.1174,0.11531 -1.7914,-0.19506 -2.5638,-1.1806 -0.69331,-0.88459 -1.0985,-0.92688 -1.7518,-0.18283 -0.46378,0.52823 -1.0918,0.91747 -2.3769,1.4733 -0.65616,0.28379 -0.84506,0.29623 -1.7496,0.11538 z m 14.776,6.5121 c -0.68,-0.27538 -4.6531,-4.5878 -4.6531,-5.0505 0,-0.14888 0.45583,-0.65624 0.5896,-0.65624 0.43095,0 1.6077,0.97552 3.1247,2.5904 1.5095,1.6069 1.8367,2.0438 1.8367,2.4522 0,0.57035 -0.39964,0.86591 -0.89796,0.6641 z"
       id="annual" />
  </g>
</svg>
