<?xml version="1.0" encoding="UTF-8" standalone="no"?>
<svg
   xmlns:dc="http://purl.org/dc/elements/1.1/"
   xmlns:cc="http://creativecommons.org/ns#"
   xmlns:rdf="http://www.w3.org/1999/02/22-rdf-syntax-ns#"
   xmlns:svg="http://www.w3.org/2000/svg"
   xmlns="http://www.w3.org/2000/svg"
   id="svg2502"
   viewBox="0 0 29.903699 20.215406"
   version="1.1"
   height="20.215406"
   width="29.9037">
  <defs
     id="defs2506" />
  <metadata
     id="metadata2">
    <rdf:RDF>
      <cc:Work
         rdf:about="">
        <dc:format>image/svg+xml</dc:format>
        <dc:type
           rdf:resource="http://purl.org/dc/dcmitype/StillImage" />
        <dc:title />
      </cc:Work>
    </rdf:RDF>
  </metadata>
  <g
     transform="translate(-218.14255,-813.24962)"
     style="stroke-width:0.16327"
     id="g2500">
    <path
       d="m 239.65,830.87 c 0.31164,-0.0894 0.81822,-0.46823 1.1884,-0.8888 0.35488,-0.40315 0.77803,-0.77517 0.94033,-0.82668 0.16232,-0.0515 0.51954,-0.40462 0.79388,-0.78467 0.27432,-0.38005 0.64922,-0.86299 0.83312,-1.0732 0.50898,-0.58174 2.0889,-3.4512 2.3066,-4.1892 0.10594,-0.35919 0.38132,-1.0131 0.61197,-1.4531 0.89445,-1.7065 0.60705,-4.5862 -0.59726,-5.9845 -0.60984,-0.7081 -0.64256,-0.72271 -1.5817,-0.7067 -0.52745,0.009 -1.221,0.1276 -1.5413,0.26356 -0.70053,0.29741 -3.3866,3.0219 -4.1764,4.2362 -0.65057,1.0002 -2.3434,4.4797 -2.3434,4.8168 0,0.12454 -0.18368,0.58891 -0.40817,1.0319 -0.33446,0.66003 -0.40816,1.0418 -0.40816,2.1146 0,1.1644 0.0532,1.3951 0.4811,2.0871 0.2646,0.42787 0.65031,0.88243 0.85714,1.0101 0.75561,0.46648 2.0946,0.61902 3.0438,0.34676 z m -17.42,1.0872 c 0.83498,-0.38087 2.4259,-2.0844 2.4259,-2.5976 0,-0.12023 0.22767,-0.49481 0.50592,-0.8324 0.5408,-0.65606 0.95837,-1.9295 0.96152,-2.9324 0.003,-0.82222 -0.80276,-1.7232 -1.6624,-1.8599 -1.5614,-0.24814 -2.6676,0.50918 -3.6316,2.4862 -1.3056,2.6774 -1.5492,4.2426 -0.79899,5.1341 0.66885,0.79487 1.3613,0.98438 2.1997,0.60198 z m -2.4313,1.2326 c -0.29183,-0.14524 -0.53061,-0.32421 -0.53061,-0.39771 0,-0.0735 -0.10183,-0.13365 -0.2263,-0.13365 -0.12446,0 -0.35096,-0.26271 -0.50332,-0.58379 -0.34417,-0.72532 -0.53738,-2.912 -0.27178,-3.0762 0.10179,-0.0629 0.18507,-0.29892 0.18507,-0.52447 0,-0.22553 0.21494,-0.82733 0.47765,-1.3373 0.2627,-0.50995 0.61168,-1.2063 0.77551,-1.5475 0.71891,-1.4971 3.2336,-3.543 4.3547,-3.543 0.61202,0 1.6095,0.53582 2.277,1.2231 0.30596,0.31504 0.63883,0.5728 0.73969,0.5728 0.10089,0 0.30438,0.23394 0.45223,0.51985 0.3449,0.66698 0.24616,1.6973 -0.36571,3.8157 l -0.45808,1.5859 0.78727,0.71275 c 1.3854,1.2542 2.1158,0.98684 4.0695,-1.4896 0.56816,-0.7202 1.3955,-2.1695 1.8342,-3.2128 0.28949,-0.68854 0.78332,-1.6804 1.0974,-2.2041 0.31409,-0.52371 1.0324,-1.8706 1.5962,-2.993 2.1153,-4.2113 4.9548,-6.8301 7.8812,-7.269 1.0975,-0.16457 1.7707,0.0121 2.4105,0.63254 1.4156,1.3729 1.6813,2.1198 1.6645,4.6803 -0.0116,1.7608 -0.0755,2.2357 -0.46152,3.4286 -0.24646,0.76157 -0.64535,1.6418 -0.88641,1.9561 -0.24108,0.31428 -0.71662,1.1959 -1.0568,1.9592 -0.34015,0.76327 -0.79277,1.5955 -1.0058,1.8493 -0.21307,0.25386 -0.43205,0.63958 -0.48667,0.85715 -0.0546,0.21756 -0.18853,0.39557 -0.29763,0.39557 -0.10911,0 -0.61224,0.40408 -1.1181,0.89796 -0.50584,0.49388 -0.97972,0.89796 -1.0531,0.89796 -0.0733,0 -0.53571,0.36553 -1.0275,0.81229 -0.53306,0.48428 -1.059,0.81977 -1.3023,0.83083 -1.1657,0.053 -2.1159,-0.068 -2.7755,-0.35329 -0.84042,-0.36353 -2.1072,-1.6396 -2.5307,-2.5493 -0.44088,-0.94692 -0.56835,-1.0687 -0.86273,-0.82439 -0.13646,0.11324 -0.52067,0.57334 -0.85383,1.0224 -0.33314,0.44909 -1.038,1.2509 -1.5665,1.7817 -1.1279,1.1331 -1.7589,1.3508 -3.1056,1.0712 -0.75386,-0.15649 -0.93049,-0.27142 -1.3274,-0.86355 -0.6422,-0.95807 -0.9745,-0.94992 -1.813,0.0444 -0.38193,0.45295 -0.77126,0.82355 -0.86521,0.82355 -0.0939,0 -0.38907,0.18367 -0.65587,0.40816 -0.41523,0.34941 -0.64192,0.40666 -1.5746,0.39772 -0.65645,-0.006 -1.3004,-0.1154 -1.6201,-0.27452 z"
       id="another" />
  </g>
</svg>
