<svg xmlns="http://www.w3.org/2000/svg" height="20.215" width="29.904"><path d="M21.507 17.62c.312-.089.819-.468 1.189-.888.355-.404.778-.776.94-.827.163-.052.52-.405.794-.785s.65-.863.833-1.073c.51-.582 2.09-3.451 2.307-4.19.106-.358.381-1.012.612-1.452.894-1.707.607-4.586-.598-5.985-.61-.708-.642-.722-1.581-.706-.528.009-1.221.127-1.542.263-.7.297-3.386 3.022-4.176 4.236-.65 1-2.343 4.48-2.343 4.817 0 .125-.184.589-.408 1.032-.335.66-.409 1.042-.409 2.115 0 1.164.054 1.395.481 2.087.265.428.65.882.858 1.01.755.466 2.094.619 3.043.347zm-17.42 1.088c.835-.381 2.426-2.085 2.426-2.598 0-.12.228-.495.506-.832.541-.656.959-1.93.962-2.933.003-.822-.803-1.723-1.663-1.86-1.561-.248-2.667.51-3.631 2.486-1.306 2.678-1.55 4.243-.8 5.135.67.794 1.362.984 2.2.602zm-2.43 1.232c-.293-.145-.531-.324-.531-.398 0-.073-.102-.133-.227-.133-.124 0-.35-.263-.503-.584-.344-.725-.537-2.912-.272-3.076.102-.063.185-.3.185-.525 0-.225.215-.827.478-1.337s.612-1.206.775-1.547c.72-1.498 3.234-3.543 4.355-3.543.612 0 1.61.535 2.277 1.223.306.315.639.572.74.572.1 0 .304.234.452.52.345.667.246 1.698-.366 3.816l-.458 1.586.787.713c1.386 1.254 2.116.986 4.07-1.49.568-.72 1.395-2.17 1.834-3.213.29-.688.783-1.68 1.098-2.204.314-.524 1.032-1.87 1.596-2.993 2.115-4.211 4.955-6.83 7.881-7.269 1.097-.164 1.77.012 2.41.633 1.416 1.373 1.682 2.12 1.665 4.68-.012 1.76-.076 2.236-.462 3.429-.246.761-.645 1.641-.886 1.956-.241.314-.717 1.196-1.057 1.959-.34.763-.793 1.595-1.006 1.85-.213.253-.432.639-.486.856-.055.218-.189.396-.298.396-.109 0-.612.404-1.118.898-.506.494-.98.898-1.053.898-.073 0-.536.365-1.028.812-.533.484-1.059.82-1.302.831-1.166.053-2.116-.068-2.775-.353-.84-.364-2.108-1.64-2.531-2.55-.44-.947-.568-1.068-.863-.824-.136.113-.52.573-.854 1.022-.333.45-1.038 1.251-1.566 1.782-1.128 1.133-1.759 1.35-3.106 1.071-.754-.156-.93-.271-1.327-.863-.642-.958-.975-.95-1.813.044-.382.453-.771.824-.865.824-.094 0-.39.183-.656.408-.415.35-.642.406-1.575.398-.656-.006-1.3-.116-1.62-.275z" stroke-width=".163"/></svg>