<svg xmlns="http://www.w3.org/2000/svg" height="10.239" width="56.554"><path d="M18.147 7.557c.542-.584.63-.99.637-2.907.004-1.376-.036-1.638-.26-1.682-.168-.033-.931.682-2.074 1.943l-1.81 1.995.844.544c1.106.712 2.066.751 2.663.107zm-14.657.86c.542-.28 1.86-1.657 2.303-2.404C7.541 3.067 7.705 2.595 7.096 2.27c-1.033-.553-3.856.796-4.79 2.29-.989 1.58-.957 3.816.056 3.972.234.037.485.077.557.09.072.014.329-.078.571-.204zm-2.063 1.688C.484 9.728-.151 8.173.03 6.69c.221-1.79 1.3-3.462 3.146-4.875C3.854 1.295 5.818.65 6.73.648c.704-.002 2.288.63 2.528 1.007.208.328.168 1.003-.08 1.363-.122.177-.271.59-.331.918-.06.328-.217.686-.35.795-.132.11-.24.377-.24.594 0 .216-.11.657-.245.98a3.951 3.951 0 00-.245 1.272c0 .558.074.727.39.896.477.256 1.951.091 2.234-.25.105-.126.276-.23.379-.23.473 0 3.45-2.51 4.936-4.163 3.914-4.354 4.837-4.799 4.83-2.328-.003 1.181-.295 4.979-.453 5.879-.095.544-.07.612.23.612.442 0 1.17-.333 1.548-.708.166-.165.534-.398.818-.519.284-.12.662-.39.84-.598.672-.79 1.449-1.851 1.781-2.435.19-.333.767-1.237 1.284-2.01.823-1.228 1-1.403 1.417-1.403.263 0 .599.121.747.27.156.156.824.358 1.588.48.725.116 1.385.307 1.465.424.08.118.09.618.023 1.111-.378 2.777.075 4.681 1.232 5.18l.915.395c.358.155 1.36.373 3.057.662.91.156 1.441.139 3.102-.1 3.355-.48 6.131-1.05 6.813-1.398.356-.182.762-.33.901-.33.14 0 .381-.07.537-.155.156-.085.725-.31 1.263-.501.54-.19 1.31-.555 1.715-.81.404-.255.992-.57 1.306-.698.314-.13.672-.356.795-.505.124-.149.33-.27.46-.27s.557-.22.949-.49c.392-.27.846-.489 1.009-.487 1.098.009.798 1.032-.475 1.615a17.35 17.35 0 00-1.751.97c-1.077.69-4.023 2.185-4.969 2.522-4.393 1.561-8.117 2.186-11.934 2.002-1.568-.075-2.36-.18-2.53-.332-.137-.123-.469-.276-.738-.34-.27-.065-.91-.346-1.423-.626-.815-.443-.988-.627-1.358-1.45-.603-1.34-.829-2.698-.608-3.663.21-.918.06-1.301-.575-1.464-1.321-.339-1.914-.035-2.606 1.335-.226.449-.628 1.064-.893 1.367-.264.303-.555.713-.645.912-.09.198-.36.477-.6.62-.24.141-.775.585-1.192.985-1.253 1.204-2.635 1.751-5.074 2.008-2.522.265-3.25.116-4.134-.849-.31-.34-.565-.676-.565-.749 0-.235-.421-.138-.758.176-.18.168-.481.354-.667.414-.186.059-.805.413-1.375.787-.923.605-1.165.687-2.2.746-1.43.08-1.739-.071-2.269-1.117-.226-.446-.502-.81-.615-.81-.112 0-.568.3-1.013.668-1.37 1.132-2.666 1.608-3.486 1.28z"/></svg>