<svg xmlns="http://www.w3.org/2000/svg" height="13.153" width="33.532"><path d="M3.783 11.902c.903-.347 2.172-1.946 2.436-3.07.102-.431.352-1.372.557-2.09.205-.719.422-1.66.482-2.092.096-.69.057-.855-.319-1.347-.387-.509-.505-.561-1.251-.561-.576 0-.978.105-1.339.352-.841.577-1.413 1.16-1.413 1.443 0 .146-.153.43-.341.632-.748.802-1.517 4.32-1.152 5.269.09.237.398.696.683 1.02.532.606.946.717 1.657.444zm-2.186.89c-.333-.231-.83-.745-1.102-1.142C.05 11.005-.002 10.8 0 9.733c.002-1.19.112-1.628.786-3.127.195-.434.354-.894.354-1.02 0-.128.063-.232.139-.232.076 0 .274-.301.44-.67.166-.368.747-1.133 1.29-1.7.83-.867 1.142-1.077 1.95-1.308.937-.27.977-.268 1.656.07.63.316 1.546 1.262 1.546 1.598 0 .075.147.227.326.34.42.26.422.898.01 2.21-.34 1.081-.662 2.732-.662 3.394 0 .223.21.656.466.963.455.546.494.558 1.727.565.95.005 1.308-.055 1.452-.245.105-.138.47-.422.812-.63.341-.209.744-.573.895-.81.15-.237.46-.621.685-.854.76-.783 1.222-1.37 1.406-1.784.1-.227.487-.763.859-1.192.371-.43.76-.94.865-1.136.105-.196.358-.488.563-.65.205-.16.613-.713.907-1.227 1.21-2.12 2.296-2.168 2.725-.121.469 2.238.567 3.637.36 5.147-.112.82-.163 1.531-.113 1.58.22.221 1.301-.177 2.016-.743 2.06-1.63 4.872-5.233 5.646-7.238.164-.426.432-.81.6-.864.52-.165 1.15.097 1.4.583.172.332.438.516.934.646 1.4.368 1.511.478 1.49 1.47a7.668 7.668 0 01-.306 1.79c-.611 1.922-.634 3.762-.062 5.182.186.464.178.566-.066.81-.262.262-.304.259-.72-.052-1.217-.909-1.515-2.753-.843-5.22.193-.71.359-1.55.367-1.863.015-.535-.044-.603-.92-1.062-1.105-.577-1.432-.48-1.633.485-.07.34-.316.847-.546 1.128-.23.28-.86 1.086-1.401 1.79-1.612 2.098-3.113 3.367-5.298 4.478-.792.403-1.589.56-3.266.644l-1.816.09-.603-.552c-.456-.418-.625-.721-.696-1.246l-.093-.694h.573c.315 0 .665.11.776.245.112.134.323.247.47.25.146.003.408.113.582.245.667.504 1.188.237 1.904-.976.27-.459.287-.71.163-2.485-.075-1.087-.188-2.058-.25-2.158-.2-.326-.545-.194-1.1.42-.3.33-.82.893-1.156 1.25-.337.357-.613.729-.614.827-.002.098-.26.503-.575.9-.316.396-.617.892-.67 1.102-.052.209-.16.38-.24.38-.176 0-.524.297-1.674 1.428-.48.472-.927.858-.995.858-.068 0-.403.22-.745.491-1.38 1.093-3.046 1.282-4.298.488-.902-.572-1.255-.609-1.653-.17-.733.81-1.959 1.46-2.944 1.56-.876.09-1.044.056-1.585-.32z"/></svg>