<?xml version="1.0" encoding="UTF-8" standalone="no"?>
<svg
   xmlns:dc="http://purl.org/dc/elements/1.1/"
   xmlns:cc="http://creativecommons.org/ns#"
   xmlns:rdf="http://www.w3.org/1999/02/22-rdf-syntax-ns#"
   xmlns:svg="http://www.w3.org/2000/svg"
   xmlns="http://www.w3.org/2000/svg"
   id="svg2502"
   viewBox="0 0 33.531699 13.152877"
   version="1.1"
   height="13.152877"
   width="33.5317">
  <defs
     id="defs2506" />
  <metadata
     id="metadata2">
    <rdf:RDF>
      <cc:Work
         rdf:about="">
        <dc:format>image/svg+xml</dc:format>
        <dc:type
           rdf:resource="http://purl.org/dc/dcmitype/StillImage" />
        <dc:title />
      </cc:Work>
    </rdf:RDF>
  </metadata>
  <g
     transform="translate(-218.28719,-844.92762)"
     style="stroke-width:0.16327"
     id="g2500">
    <path
       d="m 222.07,856.83 c 0.90308,-0.34711 2.1722,-1.9462 2.4364,-3.0702 0.10147,-0.4315 0.35205,-1.3723 0.55685,-2.0907 0.20482,-0.71837 0.42166,-1.6597 0.48191,-2.0919 0.0961,-0.68963 0.0572,-0.85445 -0.31848,-1.3469 -0.38797,-0.50866 -0.5051,-0.56116 -1.2516,-0.56116 -0.57635,0 -0.97826,0.10592 -1.3386,0.3528 -0.84149,0.57644 -1.413,1.16 -1.413,1.4429 0,0.14586 -0.1536,0.43007 -0.34133,0.63159 -0.74751,0.80235 -1.5167,4.3198 -1.1522,5.2689 0.091,0.23697 0.39843,0.69615 0.68313,1.0204 0.53227,0.60621 0.94655,0.71731 1.6569,0.44429 z m -2.1863,0.88947 c -0.33281,-0.23087 -0.82873,-0.74476 -1.102,-1.142 -0.44356,-0.64469 -0.49665,-0.85058 -0.49445,-1.9173 0.002,-1.1903 0.1123,-1.6273 0.78595,-3.127 0.19495,-0.43397 0.35445,-0.89316 0.35445,-1.0204 0,-0.12724 0.0623,-0.23136 0.13846,-0.23136 0.0762,0 0.2743,-0.30122 0.44033,-0.66937 0.16601,-0.36816 0.74655,-1.1337 1.2901,-1.7011 0.83009,-0.86663 1.142,-1.0759 1.949,-1.3078 0.93736,-0.26931 0.97769,-0.26756 1.6563,0.0713 0.63034,0.31481 1.5462,1.2611 1.5462,1.5976 0,0.0742 0.14694,0.22666 0.32654,0.3388 0.41905,0.26172 0.42158,0.89902 0.009,2.2114 -0.33987,1.0804 -0.66183,2.7313 -0.66183,3.3935 0,0.22246 0.20975,0.65574 0.46609,0.96279 0.45551,0.54563 0.4947,0.55847 1.7273,0.56527 0.95088,0.005 1.3083,-0.055 1.4523,-0.24475 0.10508,-0.13843 0.4703,-0.42225 0.81163,-0.63071 0.34132,-0.20845 0.74408,-0.57273 0.89502,-0.80952 0.15095,-0.23678 0.45944,-0.62116 0.68555,-0.85417 0.75946,-0.78269 1.2218,-1.3695 1.4059,-1.7842 0.10055,-0.22658 0.48674,-0.76312 0.8582,-1.1923 0.37146,-0.42918 0.76103,-0.94038 0.8657,-1.136 0.10469,-0.19559 0.35807,-0.48758 0.5631,-0.64885 0.20503,-0.16127 0.61287,-0.7137 0.90632,-1.2276 1.2103,-2.1196 2.2962,-2.1679 2.725,-0.12131 0.46903,2.2381 0.56717,3.6376 0.36093,5.1468 -0.1121,0.82026 -0.16335,1.5318 -0.11389,1.5813 0.22054,0.22054 1.3016,-0.17817 2.0166,-0.74371 2.0606,-1.63 4.8712,-5.2335 5.6456,-7.238 0.16454,-0.42598 0.43169,-0.81011 0.60068,-0.86374 0.51983,-0.16498 1.1488,0.0967 1.4,0.58251 0.17178,0.33217 0.43746,0.51618 0.93308,0.64626 1.4,0.36741 1.5115,0.47746 1.4898,1.4707 -0.0108,0.48981 -0.14802,1.2946 -0.30517,1.7885 -0.61168,1.9222 -0.63383,3.7628 -0.0624,5.1831 0.18638,0.46325 0.17813,0.56514 -0.0654,0.80872 -0.26274,0.26274 -0.30402,0.25979 -0.72124,-0.0517 -1.2163,-0.90812 -1.5139,-2.7524 -0.84212,-5.2201 0.19335,-0.71028 0.35866,-1.5486 0.36734,-1.8628 0.0149,-0.53489 -0.0441,-0.60275 -0.92108,-1.0612 -1.1043,-0.57735 -1.4316,-0.48019 -1.6321,0.48448 -0.0705,0.33956 -0.31621,0.84702 -0.54591,1.1277 -0.2297,0.28065 -0.86047,1.0867 -1.4017,1.7911 -1.6112,2.0971 -3.1127,3.3662 -5.2978,4.4778 -0.79203,0.40294 -1.5889,0.55993 -3.2662,0.64351 l -1.8153,0.0905 -0.60292,-0.55254 c -0.45647,-0.41834 -0.62554,-0.72106 -0.69598,-1.2463 l -0.0931,-0.69378 h 0.57293 c 0.31512,0 0.66439,0.11021 0.77618,0.2449 0.11179,0.13469 0.32283,0.24723 0.46896,0.25009 0.14616,0.003 0.40835,0.11306 0.58265,0.2449 0.66687,0.50439 1.1878,0.23727 1.9038,-0.97626 0.27029,-0.45811 0.28678,-0.70885 0.16336,-2.485 -0.0755,-1.0865 -0.18795,-2.0574 -0.24989,-2.1577 -0.20119,-0.32554 -0.54581,-0.19417 -1.1005,0.41952 -0.29912,0.33096 -0.81938,0.89367 -1.1561,1.2505 -0.33674,0.3568 -0.61297,0.72888 -0.61383,0.82682 -0.002,0.098 -0.25977,0.50291 -0.57532,0.89987 -0.31556,0.39698 -0.61668,0.8929 -0.66917,1.102 -0.0525,0.20916 -0.16095,0.38028 -0.24102,0.38028 -0.17526,0 -0.52337,0.29711 -1.6738,1.4286 -0.47933,0.47143 -0.92712,0.85715 -0.99507,0.85715 -0.0679,0 -0.40301,0.22132 -0.74456,0.49183 -1.3792,1.0923 -3.0461,1.2815 -4.2976,0.48776 -0.90272,-0.57249 -1.2558,-0.60875 -1.6531,-0.16978 -0.73285,0.80978 -1.959,1.4594 -2.9447,1.5601 -0.87572,0.0895 -1.0438,0.0556 -1.5847,-0.31963 z"
       id="answer" />
  </g>
</svg>
