<?xml version="1.0" encoding="UTF-8" standalone="no"?>
<svg
   xmlns:dc="http://purl.org/dc/elements/1.1/"
   xmlns:cc="http://creativecommons.org/ns#"
   xmlns:rdf="http://www.w3.org/1999/02/22-rdf-syntax-ns#"
   xmlns:svg="http://www.w3.org/2000/svg"
   xmlns="http://www.w3.org/2000/svg"
   id="svg2502"
   viewBox="0 0 56.554095 10.238544"
   version="1.1"
   height="10.238544"
   width="56.554096">
  <defs
     id="defs2506" />
  <metadata
     id="metadata2">
    <rdf:RDF>
      <cc:Work
         rdf:about="">
        <dc:format>image/svg+xml</dc:format>
        <dc:type
           rdf:resource="http://purl.org/dc/dcmitype/StillImage" />
        <dc:title />
      </cc:Work>
    </rdf:RDF>
  </metadata>
  <g
     transform="translate(-421.94255,-99.113068)"
     style="stroke-width:0.16327"
     id="g2500">
    <path
       d="m 440.09,106.67 c 0.54114,-0.58392 0.62986,-0.98938 0.63607,-2.9072 0.004,-1.3753 -0.036,-1.6373 -0.25973,-1.6814 -0.16741,-0.033 -0.93092,0.6821 -2.0739,1.9426 l -1.8089,1.9949 0.84392,0.54371 c 1.1064,0.71283 2.0656,0.75154 2.6626,0.10745 z m -14.657,0.86044 c 0.5414,-0.28107 1.86,-1.6577 2.3027,-2.404 1.7478,-2.9466 1.912,-3.4186 1.3033,-3.7444 -1.0334,-0.55305 -3.8565,0.79613 -4.7904,2.2894 -0.98871,1.5809 -0.95737,3.8168 0.0557,3.9731 0.23471,0.0362 0.48549,0.0769 0.55731,0.0903 0.0718,0.0135 0.32894,-0.0785 0.57143,-0.20441 z m -2.0638,1.6874 c -0.94215,-0.37672 -1.5778,-1.932 -1.3954,-3.4139 0.22057,-1.7912 1.2988,-3.4631 3.1444,-4.876 0.67813,-0.51913 2.6423,-1.1635 3.5556,-1.1664 0.70404,-0.0023 2.2879,0.6287 2.5278,1.007 0.20754,0.32732 0.16778,1.0024 -0.0802,1.3626 -0.12196,0.17712 -0.27084,0.59017 -0.33086,0.91788 -0.06,0.32771 -0.21737,0.68569 -0.3497,0.7955 -0.13231,0.10981 -0.24057,0.3767 -0.24057,0.59308 0,0.21638 -0.1102,0.65717 -0.2449,0.97954 -0.13469,0.32237 -0.24489,0.89535 -0.24489,1.2733 0,0.55731 0.0737,0.7266 0.38992,0.89585 0.47755,0.25557 1.9516,0.0911 2.2341,-0.24933 0.10532,-0.12689 0.27568,-0.23071 0.3786,-0.23071 0.47386,0 3.4514,-2.511 4.9363,-4.1628 3.9144,-4.3545 4.8367,-4.7991 4.8306,-2.3286 -0.003,1.1814 -0.29563,4.9789 -0.45316,5.8792 -0.0952,0.5442 -0.0697,0.61224 0.22956,0.61224 0.44221,0 1.1697,-0.33285 1.5478,-0.70819 0.16626,-0.16501 0.53462,-0.39853 0.81857,-0.51892 0.28396,-0.1204 0.66161,-0.38947 0.83921,-0.59794 0.67269,-0.7896 1.4496,-1.8514 1.7816,-2.435 0.18946,-0.33301 0.76737,-1.2372 1.2842,-2.0094 0.8223,-1.2285 0.99936,-1.404 1.4169,-1.404 0.26243,0 0.59848,0.12132 0.74678,0.2696 0.15613,0.15614 0.82458,0.35846 1.5883,0.48074 0.72527,0.11613 1.3843,0.30705 1.4646,0.42428 0.0803,0.11722 0.0908,0.61721 0.0235,1.1111 -0.37859,2.7766 0.0742,4.6807 1.2318,5.1795 0.32366,0.13945 0.73542,0.31732 0.91501,0.39525 0.35748,0.15514 1.3608,0.37237 3.0573,0.66197 0.91032,0.15539 1.4409,0.13834 3.102,-0.0997 3.3544,-0.48065 6.1308,-1.0506 6.8128,-1.3986 0.3561,-0.18166 0.76157,-0.33029 0.90105,-0.33029 0.13949,0 0.38119,-0.0696 0.53712,-0.15464 0.15592,-0.085 0.72431,-0.31054 1.2631,-0.50108 0.53877,-0.19053 1.3102,-0.55516 1.7143,-0.81028 0.40408,-0.25511 0.99184,-0.56927 1.3061,-0.69812 0.31428,-0.12885 0.67226,-0.35586 0.79549,-0.50447 0.12325,-0.1486 0.33042,-0.27019 0.46039,-0.27019 0.12996,0 0.55665,-0.2204 0.9482,-0.48979 0.39154,-0.26939 0.8456,-0.48867 1.009,-0.4873 1.0983,0.009 0.79757,1.0318 -0.47525,1.6157 -0.46521,0.21342 -1.2532,0.64934 -1.751,0.96871 -1.077,0.69091 -4.0224,2.1863 -4.9686,2.5226 -4.393,1.5613 -8.1173,2.1863 -11.934,2.0027 -1.568,-0.0754 -2.3605,-0.1797 -2.5306,-0.33295 -0.13626,-0.12271 -0.46815,-0.27578 -0.73754,-0.34015 -0.26939,-0.0644 -0.90984,-0.3456 -1.4232,-0.62496 -0.81484,-0.4434 -0.98728,-0.62757 -1.3574,-1.4496 -0.60376,-1.341 -0.82942,-2.6993 -0.6087,-3.6638 0.21012,-0.9183 0.0599,-1.3011 -0.5746,-1.4638 -1.3214,-0.33888 -1.9145,-0.0352 -2.6059,1.3346 -0.22663,0.44898 -0.62847,1.0642 -0.89296,1.367 -0.26449,0.3028 -0.55492,0.71319 -0.6454,0.91179 -0.0905,0.19859 -0.36031,0.47743 -0.5996,0.61963 -0.23928,0.14221 -0.77564,0.58588 -1.1919,0.98594 -1.253,1.2042 -2.6352,1.7511 -5.074,2.0076 -2.5222,0.2653 -3.2509,0.11574 -4.1341,-0.84847 -0.31111,-0.33967 -0.56568,-0.6767 -0.56568,-0.74894 0,-0.23567 -0.42075,-0.13833 -0.75727,0.17519 -0.18098,0.16861 -0.48139,0.35491 -0.66756,0.414 -0.18619,0.0591 -0.80503,0.41341 -1.3752,0.78738 -0.92237,0.60494 -1.165,0.68719 -2.1997,0.74566 -1.4305,0.0808 -1.7386,-0.0708 -2.2685,-1.1166 -0.22587,-0.44575 -0.50264,-0.81046 -0.61502,-0.81046 -0.11237,0 -0.56813,0.30064 -1.0128,0.66809 -1.37,1.1321 -2.6661,1.6081 -3.4861,1.2802 z"
       id="answering" />
  </g>
</svg>
