<?xml version="1.0" encoding="UTF-8" standalone="no"?>
<svg
   xmlns:dc="http://purl.org/dc/elements/1.1/"
   xmlns:cc="http://creativecommons.org/ns#"
   xmlns:rdf="http://www.w3.org/1999/02/22-rdf-syntax-ns#"
   xmlns:svg="http://www.w3.org/2000/svg"
   xmlns="http://www.w3.org/2000/svg"
   id="svg2502"
   viewBox="0 0 49.881525 30.946152"
   version="1.1"
   height="30.946152"
   width="49.881527">
  <defs
     id="defs2506" />
  <metadata
     id="metadata2">
    <rdf:RDF>
      <cc:Work
         rdf:about="">
        <dc:format>image/svg+xml</dc:format>
        <dc:type
           rdf:resource="http://purl.org/dc/dcmitype/StillImage" />
        <dc:title />
      </cc:Work>
    </rdf:RDF>
  </metadata>
  <g
     transform="translate(-419.29715,-113.34492)"
     style="stroke-width:0.16327"
     id="g2500">
    <path
       d="m 462.16,119.99 c -0.15715,-0.0915 -0.28572,-0.26637 -0.28572,-0.38854 0,-0.27931 0.82772,-1.5576 1.0086,-1.5576 0.0738,0 0.13427,-0.15059 0.13427,-0.33464 0,-0.18405 0.11414,-0.55535 0.25363,-0.8251 0.39798,-0.7696 0.49164,-1.9891 0.17308,-2.2534 -0.1449,-0.12025 -0.26345,-0.4251 -0.26345,-0.67744 0,-0.93256 1.1796,-0.75414 1.7837,0.2698 l 0.36202,0.61357 -0.36493,1.5628 c -0.28522,1.2215 -0.5065,1.7589 -1.0131,2.4608 -0.95131,1.3179 -1.1978,1.4736 -1.7881,1.1298 z m -37.301,11.544 c 0.28897,-0.12312 0.70348,-0.417 0.92118,-0.65306 0.2177,-0.23607 0.47946,-0.42921 0.5817,-0.42921 0.23515,0 0.87786,-0.70482 1.4143,-1.551 0.52377,-0.82617 1.7713,-3.6281 1.7719,-3.9798 0,-0.1458 0.26107,-0.77938 0.57954,-1.408 0.57522,-1.1353 1.2159,-3.4143 1.2159,-4.3252 0,-0.26168 0.0852,-0.66288 0.18944,-0.89154 0.28878,-0.63382 -0.0875,-1.5688 -0.90365,-2.245 -0.89911,-0.74503 -0.93965,-0.76569 -1.8463,-0.94097 -1.6118,-0.31161 -3.6125,0.69873 -4.474,2.2593 -0.17983,0.3258 -0.64893,1.1066 -1.0424,1.7352 -0.39349,0.62857 -0.72083,1.2811 -0.72741,1.4501 -0.007,0.16899 -0.15101,0.53634 -0.3209,0.81633 -0.16991,0.27998 -0.36134,0.7662 -0.42539,1.0805 -0.064,0.31429 -0.21664,0.79184 -0.33907,1.0612 -0.22336,0.49144 -0.5094,1.8367 -0.67089,3.1551 -0.0996,0.81331 0.38514,2.3287 1.0739,3.3572 0.23398,0.34938 0.52069,0.80746 0.63713,1.018 0.34511,0.62391 1.4933,0.86219 2.365,0.49079 z m -2.7399,1.1399 c -0.26939,-0.22799 -0.57974,-0.41716 -0.68968,-0.42039 -0.21922,-0.006 -0.69808,-0.83116 -0.69808,-1.2023 0,-0.12816 -0.0981,-0.31445 -0.21805,-0.41398 -0.70743,-0.58713 -1.345,-2.8553 -1.1937,-4.2466 0.23756,-2.1847 1.8372,-6.7488 2.7252,-7.7757 0.15532,-0.1796 0.44182,-0.6441 0.63669,-1.0322 0.48576,-0.96753 1.7438,-2.5593 2.1805,-2.7591 2.5142,-1.15 2.8842,-1.2498 4.2198,-1.1378 1.3333,0.11178 2.1396,0.59645 3.3495,2.0134 l 0.78988,0.92505 -0.0302,1.2759 c -0.0181,0.7652 -0.15877,1.6537 -0.35147,2.2198 -1.4655,4.3053 -1.5502,4.6891 -1.4433,6.5441 0.12372,2.1478 0.41667,3.2637 1.075,4.0948 0.58888,0.74351 0.64309,1.2401 0.16338,1.4968 -0.49282,0.26374 -1.1125,0.0531 -1.3008,-0.44219 -0.0889,-0.23371 -0.31573,-0.64145 -0.50416,-0.90609 -0.18844,-0.26463 -0.42986,-0.82443 -0.53649,-1.244 -0.24103,-0.94841 -0.73048,-1.1175 -1.1739,-0.40548 -0.44996,0.7225 -2.1836,2.4425 -3.0984,3.0741 -0.73112,0.50475 -0.99066,0.58616 -2.1224,0.66568 -1.2094,0.085 -1.3199,0.0649 -1.7792,-0.3239 z m 21.217,-2.1602 c 0.61068,-0.23434 1.1216,-2.2322 1.0387,-4.0618 l -0.0518,-1.1429 -0.50423,-0.0492 c -0.45926,-0.0448 -0.60831,0.0812 -1.671,1.412 -0.64175,0.80366 -1.3883,1.6476 -1.659,1.8754 -0.56312,0.47383 -0.64671,0.92506 -0.17138,0.92506 0.17647,0 0.56457,0.21398 0.86245,0.47552 0.47117,0.4137 0.75721,0.52179 1.7013,0.64287 0.1049,0.0135 0.30967,-0.0212 0.45502,-0.077 z m 13.31,0.33594 c 0.78058,-0.1639 2.3603,-1.7525 2.5996,-2.614 0.50055,-1.8029 -0.30454,-3.498 -1.6614,-3.498 -0.68138,0 -1.7993,0.5997 -2.4938,1.3378 -0.36705,0.39008 -1.0491,1.492 -1.5323,2.4756 -0.93527,1.9038 -0.93437,1.9609 0.034,2.1713 0.24882,0.0541 0.49571,0.16838 0.54866,0.25406 0.0981,0.15869 1.4788,0.0889 2.5054,-0.12669 z m -8.4094,11.072 c 0.0588,-0.54507 0.24826,-1.0531 0.41368,-1.5918 0.16542,-0.53877 0.34777,-1.5306 0.40524,-2.2041 0.28379,-3.3259 0.78862,-6.3035 1.301,-7.6735 0.32687,-0.874 0.47499,-2.2298 0.25822,-2.3638 -0.23642,-0.14612 -0.84206,0.25445 -1.5143,1.0016 -1.9272,2.1419 -2.5376,2.5144 -4.9404,3.0149 -1.5957,0.33242 -2.0646,0.30215 -3.1837,-0.20552 -0.58398,-0.26493 -0.81557,-0.49777 -1.129,-1.1351 -0.21688,-0.441 -0.43729,-0.80174 -0.4898,-0.80164 -0.13154,3.2e-4 -0.83686,0.7255 -1.7464,1.7957 -0.89622,1.0546 -1.258,1.2754 -1.6105,0.98282 -0.36038,-0.29908 -0.30632,-0.76591 0.15938,-1.3765 0.22449,-0.29432 0.40816,-0.57991 0.40816,-0.63464 0,-0.0547 0.98176,-1.1131 2.1817,-2.3519 1.2,-1.2388 2.8714,-2.9689 3.7143,-3.8445 1.298,-1.3484 1.6108,-1.5921 2.0432,-1.5918 0.62617,3.3e-4 0.74369,0.14783 1.1059,1.388 0.28822,0.98675 0.29255,3.0179 0.0108,5.0204 -0.10682,0.75905 -0.0999,0.77551 0.32748,0.77551 0.27538,0 0.65825,-0.21056 1.0368,-0.5702 0.33012,-0.31361 0.87512,-0.79823 1.2111,-1.0769 0.33597,-0.2787 0.70332,-0.67346 0.81633,-0.87725 0.11301,-0.20379 0.41589,-0.76611 0.67306,-1.2496 0.25718,-0.48349 0.55845,-0.98929 0.66949,-1.124 0.11105,-0.13469 0.32888,-0.64898 0.48406,-1.1429 0.40146,-1.2777 0.66666,-1.6326 1.2198,-1.6326 0.78271,0 0.87462,0.2735 0.67956,2.0227 -0.0954,0.85596 -0.17353,1.6327 -0.17353,1.726 0,0.39968 0.52171,0.11143 1.1746,-0.649 1.3858,-1.6139 3.0492,-2.4066 4.6027,-2.1932 0.96769,0.1329 1.5697,0.66363 2.2043,1.9433 0.35156,0.7089 0.37946,0.91976 0.28477,2.1518 -0.0783,1.0188 -0.0547,1.3658 0.0929,1.3658 0.3953,0 1.9188,-1.9125 2.6662,-3.3469 0.42108,-0.80816 0.85745,-1.5796 0.96971,-1.7143 0.60728,-0.72866 1.555,-2.6747 1.7888,-3.6735 0.40496,-1.7291 0.75966,-3.0341 1.0105,-3.7176 0.12425,-0.33855 0.2259,-0.73153 0.2259,-0.87328 0,-0.4836 0.52347,-1.3683 0.80963,-1.3683 0.15543,0 0.41239,0.14339 0.57099,0.31865 0.25407,0.28075 0.26547,0.41419 0.0957,1.1217 -0.10596,0.44169 -0.25318,1.1983 -0.32715,1.6814 -0.29136,1.9027 -0.54253,2.8781 -0.98289,3.817 -1.0401,2.2178 -2.2515,5.8812 -2.3932,7.2374 -0.10196,0.97548 0.15662,1.8088 0.65207,2.1014 0.43239,0.25537 0.61187,0.81344 0.40655,1.2641 -0.14784,0.32446 -0.30972,0.41749 -0.72647,0.41749 -0.46282,0 -0.62375,-0.12223 -1.1757,-0.89294 -0.35169,-0.49112 -0.73262,-1.2258 -0.84653,-1.6327 -0.11391,-0.40683 -0.27761,-0.7397 -0.3638,-0.7397 -0.0862,0 -0.55821,0.35786 -1.049,0.79524 -0.49072,0.43738 -1.2739,1.0019 -1.7404,1.2545 -0.46651,0.25258 -0.92168,0.54418 -1.0115,0.64801 -0.37515,0.43377 -3.497,1.2282 -4.7686,1.2135 -0.34052,-0.004 -0.91301,-0.11304 -1.2722,-0.24244 -0.9759,-0.35158 -1.2124,-0.30482 -1.4689,0.29042 -0.26798,0.62203 -1.073,4.0428 -1.5273,6.4898 -0.41267,2.2229 -0.81638,3.9006 -1.0569,4.392 -0.28728,0.58703 -0.7379,0.75163 -1.087,0.54555 -0.65629,-0.38739 -0.17133,-1.5268 -0.0895,-2.2845 z"
       id="anticipate" />
  </g>
</svg>
