<?xml version="1.0" encoding="UTF-8" standalone="no"?>
<svg
   xmlns:dc="http://purl.org/dc/elements/1.1/"
   xmlns:cc="http://creativecommons.org/ns#"
   xmlns:rdf="http://www.w3.org/1999/02/22-rdf-syntax-ns#"
   xmlns:svg="http://www.w3.org/2000/svg"
   xmlns="http://www.w3.org/2000/svg"
   id="svg2502"
   viewBox="0 0 34.656539 26.664211"
   version="1.1"
   height="26.664211"
   width="34.65654">
  <defs
     id="defs2506" />
  <metadata
     id="metadata2">
    <rdf:RDF>
      <cc:Work
         rdf:about="">
        <dc:format>image/svg+xml</dc:format>
        <dc:type
           rdf:resource="http://purl.org/dc/dcmitype/StillImage" />
        <dc:title />
      </cc:Work>
    </rdf:RDF>
  </metadata>
  <g
     transform="translate(-421.14319,-138.54132)"
     style="stroke-width:0.16327"
     id="g2500">
    <path
       d="m 442.17,155.51 c 0.5668,-0.71037 1.4214,-2.4926 1.4216,-2.9646 6e-5,-0.19375 0.18578,-0.71011 0.41268,-1.1474 0.64779,-1.2486 0.68505,-1.8452 0.15455,-2.4756 -0.94702,-1.1255 -2.3073,-1.4466 -3.4983,-0.82578 -0.88915,0.46346 -2.1668,1.9048 -2.4129,2.722 -0.31262,1.0381 -0.43823,2.426 -0.2312,2.5539 0.0983,0.0608 0.25649,0.39925 0.35155,0.75222 0.25591,0.95044 1.6795,1.9538 2.7748,1.9557 0.45797,8.2e-4 0.66194,-0.11244 1.0273,-0.57033 z m 5.0136,-9.72 c -0.20234,1.3322 -0.26414,2.4291 -0.74565,3.9732 -0.40396,1.2954 -0.54231,3.5926 -0.29178,4.8452 0.11105,0.55531 0.84538,1.1446 1.4277,1.1458 0.50385,9.8e-4 1.6718,-0.65825 2.2835,-1.2889 0.57697,-0.59485 2.244,-4.1464 2.572,-5.4796 0.0875,-0.35565 0.22322,-0.72389 0.30158,-0.81831 0.56443,-0.68008 1.1947,-3.5244 1.4645,-6.6089 0.18095,-2.0689 0.26795,-2.2885 0.90655,-2.2885 0.77602,0 0.79943,0.11079 0.5736,2.7137 -0.11567,1.3333 -0.2641,3.269 -0.32983,4.3017 -0.0707,1.1103 -0.25536,2.3112 -0.45197,2.9388 -1.3028,4.1587 -1.3184,5.1614 -0.0979,6.3182 1.1949,1.1326 0.17973,2.1467 -1.0843,1.0831 -0.7567,-0.63672 -1.2757,-1.5504 -1.3339,-2.3486 -0.0672,-0.92082 -0.38526,-0.99957 -0.71442,-0.1769 -0.17678,0.4418 -0.62935,0.96141 -1.3873,1.5928 -1.3693,1.1406 -1.8806,1.3683 -3.0702,1.3675 -1.1454,-8.2e-4 -1.8427,-0.39384 -2.3045,-1.2991 -0.46731,-0.91601 -0.86511,-0.87387 -1.3885,0.14708 -0.33614,0.65575 -0.86671,1.1395 -1.2582,1.1472 -0.15184,0.003 -0.32149,0.0789 -0.37698,0.1687 -0.15917,0.25753 -1.72,0.16109 -2.5582,-0.15807 h -6e-5 c -0.82594,-0.3145 -1.5926,-1.0708 -2.2976,-2.2664 -0.38825,-0.65845 -0.44784,-0.93477 -0.44898,-2.0818 0,-0.72741 0.0843,-1.5684 0.18906,-1.8688 0.4712,-1.3517 2.008,-3.1556 3.3397,-3.9203 1.1293,-0.6485 2.5824,-0.67662 3.7196,-0.072 0.42221,0.22449 0.8475,0.40817 0.9451,0.40817 0.31113,0 0.61105,-0.55306 0.6164,-1.1367 0.006,-0.65008 0.59249,-4.5527 0.88407,-5.8824 0.14813,-0.67558 0.29442,-0.94545 0.59321,-1.0944 0.32925,-0.16415 0.44715,-0.15199 0.69425,0.0716 0.26418,0.23909 0.1898,1.189 0.18614,1.7883 -0.01,1.6036 -0.31572,3.1932 -0.55651,4.7786 z m -20.413,11.304 c 0.33266,-0.16314 0.71434,-0.54752 0.9244,-0.93093 0.19678,-0.35919 0.46324,-0.76327 0.59213,-0.89796 0.83668,-0.87437 3.0597,-6.7717 3.0597,-8.1169 0,-0.27298 0.1143,-0.7699 0.25401,-1.1043 0.38395,-0.91889 0.49609,-3.1346 0.19497,-3.852 -0.53163,-1.2664 -1.9945,-2.4281 -3.0612,-2.4311 -0.22449,-6.6e-4 -0.67546,0.092 -1.0022,0.20582 -1.1264,0.39244 -3.2182,2.5947 -3.5606,3.7485 -0.11303,0.38097 -0.37156,1.06 -0.5745,1.509 -0.83192,1.8405 -0.82203,1.7697 -0.82049,5.8776 0.002,3.7677 0.0158,3.9454 0.37495,4.6207 0.46652,0.87718 1.6466,1.6684 2.4719,1.6572 0.31915,-0.004 0.83525,-0.13288 1.1469,-0.28571 z m -2.8626,1.4446 c -0.89228,-0.39726 -2.295,-2.078 -2.4223,-2.9025 -0.23731,-1.5363 -0.37892,-4.053 -0.33434,-5.9409 0.0401,-1.6983 0.12366,-2.2856 0.4761,-3.3469 0.2351,-0.70795 0.49228,-1.406 0.5715,-1.5513 0.0792,-0.14526 0.22489,-0.5644 0.32372,-0.93143 0.0988,-0.36703 0.27843,-0.76606 0.39912,-0.88673 0.12067,-0.12068 0.34566,-0.46358 0.49998,-0.762 0.37491,-0.72498 2.637,-2.9958 3.3536,-3.3665 0.415,-0.21469 0.95868,-0.29893 1.9861,-0.30773 1.2257,-0.0105 1.4816,0.0374 1.916,0.35837 0.27573,0.20377 0.67489,0.43648 0.88702,0.51714 0.45904,0.17452 1.5782,1.7971 1.5782,2.2881 0,0.18971 0.1102,0.60868 0.2449,0.93105 0.30551,0.73122 0.3088,1.4041 0.0137,2.7997 -0.45171,2.1358 -0.57896,3.081 -0.72962,5.42 -0.21209,3.2926 0.0206,4.6184 0.95968,5.4683 0.18026,0.16314 0.32774,0.46889 0.32774,0.67947 0,0.37262 -0.50939,1.0359 -0.79553,1.0359 -0.25125,0 -1.5071,-1.4699 -1.7475,-2.0454 -0.12784,-0.30598 -0.23244,-0.7701 -0.23244,-1.0314 0,-0.2613 -0.11021,-0.56651 -0.2449,-0.67829 -0.33303,-0.27639 -0.5819,-0.0522 -1.3367,1.2042 -0.74006,1.2319 -2.0427,2.7019 -2.7246,3.0747 -0.67187,0.36729 -2.1146,0.35474 -2.9693,-0.0258 z m 23.293,6.4615 c -0.24696,-0.29755 -0.0846,-0.68532 0.65969,-1.5752 1.1648,-1.3927 1.4882,-3.2618 0.69203,-3.9997 -0.77406,-0.71737 -0.18875,-1.6416 0.72307,-1.1418 1.069,0.58595 1.0917,0.63282 1.0917,2.2541 0,1.6192 -0.0314,1.7116 -1.1218,3.3061 -0.39813,0.58218 -0.83418,1.0086 -1.1784,1.1524 -0.66718,0.27878 -0.63848,0.27863 -0.8663,0.004 z"
       id="antidote" />
  </g>
</svg>
