<svg xmlns="http://www.w3.org/2000/svg" height="30.946" width="49.882"><path d="M42.863 6.645c-.157-.091-.286-.266-.286-.388 0-.28.828-1.558 1.009-1.558.074 0 .134-.15.134-.335 0-.184.114-.555.254-.825.398-.77.491-1.989.173-2.253-.145-.12-.264-.425-.264-.678 0-.932 1.18-.754 1.784.27l.362.614-.365 1.563c-.285 1.221-.506 1.758-1.013 2.46-.951 1.318-1.198 1.474-1.788 1.13zM5.562 18.19c.289-.123.703-.417.921-.653.218-.236.48-.43.582-.43.235 0 .878-.704 1.414-1.55.524-.826 1.771-3.628 1.772-3.98 0-.146.261-.78.58-1.408.575-1.135 1.215-3.414 1.215-4.325 0-.262.086-.663.19-.892.289-.634-.088-1.569-.904-2.245-.899-.745-.94-.765-1.846-.94-1.612-.312-3.613.698-4.474 2.259A49.27 49.27 0 013.969 5.76c-.393.628-.72 1.28-.727 1.45-.007.169-.151.536-.32.816-.17.28-.362.766-.426 1.08a5.978 5.978 0 01-.34 1.062c-.223.491-.509 1.837-.67 3.155-.1.813.385 2.329 1.074 3.357.234.35.52.808.637 1.018.345.624 1.493.862 2.365.491zm-2.74 1.14c-.27-.228-.58-.417-.69-.42-.219-.006-.698-.832-.698-1.203 0-.128-.098-.314-.218-.414-.707-.587-1.345-2.855-1.194-4.246C.26 10.86 1.86 6.296 2.748 5.27c.155-.18.441-.644.636-1.032.486-.968 1.744-2.56 2.18-2.76C8.08.329 8.45.229 9.785.342c1.334.112 2.14.596 3.35 2.013l.79.925-.03 1.276c-.018.765-.159 1.654-.352 2.22-1.465 4.305-1.55 4.69-1.443 6.544.124 2.148.417 3.264 1.075 4.095.589.743.643 1.24.163 1.497-.492.263-1.112.053-1.3-.442a4.98 4.98 0 00-.505-.907c-.188-.264-.43-.824-.536-1.244-.241-.948-.73-1.117-1.174-.405-.45.722-2.184 2.442-3.098 3.074-.731.505-.991.586-2.123.666-1.21.085-1.32.065-1.779-.324zm21.217-2.16c.61-.235 1.122-2.232 1.039-4.062l-.052-1.143-.504-.05c-.46-.044-.609.082-1.671 1.413-.642.804-1.389 1.647-1.66 1.875-.562.474-.646.925-.17.925.176 0 .564.214.862.476.47.414.757.522 1.701.643.105.013.31-.021.455-.077zm13.31.336c.78-.164 2.36-1.753 2.6-2.614.5-1.803-.305-3.498-1.662-3.498-.681 0-1.8.6-2.494 1.338-.367.39-1.049 1.492-1.532 2.475-.935 1.904-.934 1.961.034 2.171.249.055.496.169.549.254.098.16 1.479.09 2.505-.126zm-8.41 11.072c.06-.545.249-1.053.414-1.592.166-.539.348-1.53.405-2.204.284-3.326.79-6.304 1.301-7.674.327-.874.475-2.23.259-2.363-.237-.147-.842.254-1.515 1.001-1.927 2.142-2.537 2.515-4.94 3.015-1.596.332-2.065.302-3.184-.206-.584-.264-.815-.497-1.129-1.135-.217-.44-.437-.801-.49-.801-.131 0-.836.725-1.746 1.795-.896 1.055-1.258 1.276-1.61.983-.36-.299-.307-.766.159-1.376.224-.295.408-.58.408-.635 0-.055.982-1.113 2.182-2.352 1.2-1.239 2.871-2.969 3.714-3.844 1.298-1.349 1.61-1.592 2.043-1.592.627 0 .744.148 1.106 1.388.288.987.293 3.018.011 5.02-.107.76-.1.776.328.776.275 0 .658-.21 1.036-.57.33-.314.875-.799 1.211-1.077.336-.279.704-.674.817-.878.113-.203.416-.766.673-1.25.257-.483.558-.988.67-1.123.11-.135.328-.65.483-1.143.402-1.278.667-1.633 1.22-1.633.783 0 .875.274.68 2.023a47.906 47.906 0 00-.174 1.726c0 .4.522.112 1.175-.649 1.386-1.614 3.049-2.407 4.602-2.193.968.133 1.57.664 2.205 1.943.351.71.38.92.285 2.152-.079 1.019-.055 1.366.092 1.366.396 0 1.92-1.913 2.667-3.347.42-.808.857-1.58.97-1.714.607-.73 1.554-2.675 1.788-3.674.405-1.729.76-3.034 1.01-3.718.125-.338.227-.731.227-.873 0-.483.523-1.368.81-1.368.155 0 .412.143.57.319.254.28.266.414.096 1.121a24.882 24.882 0 00-.327 1.682c-.292 1.902-.543 2.878-.983 3.817-1.04 2.217-2.252 5.88-2.393 7.237-.102.976.156 1.809.652 2.101.432.256.612.814.406 1.265-.148.324-.31.417-.726.417-.463 0-.624-.122-1.176-.893-.352-.491-.733-1.226-.846-1.633-.114-.406-.278-.74-.364-.74-.086 0-.558.359-1.05.796-.49.437-1.273 1.002-1.74 1.254-.466.253-.921.545-1.011.648-.375.434-3.497 1.229-4.769 1.214a4.69 4.69 0 01-1.272-.242c-.976-.352-1.212-.305-1.469.29-.268.622-1.073 4.043-1.527 6.49-.413 2.223-.817 3.9-1.057 4.392-.287.587-.738.751-1.087.545-.656-.387-.171-1.527-.09-2.284z"/></svg>