<svg xmlns="http://www.w3.org/2000/svg" height="26.664" width="34.657"><path d="M21.027 16.969c.567-.71 1.421-2.493 1.421-2.965 0-.194.186-.71.413-1.147.648-1.249.685-1.846.155-2.476-.947-1.125-2.308-1.447-3.499-.826-.889.464-2.166 1.905-2.413 2.722-.312 1.038-.438 2.426-.23 2.554.098.061.256.4.35.752.257.95 1.68 1.954 2.776 1.956.458 0 .662-.112 1.027-.57zm5.013-9.72c-.202 1.332-.264 2.429-.745 3.973-.404 1.295-.543 3.592-.292 4.845.111.555.845 1.145 1.428 1.146.504 0 1.671-.658 2.283-1.289.577-.595 2.244-4.146 2.572-5.48.088-.355.223-.724.302-.818.564-.68 1.194-3.524 1.464-6.609C33.233.948 33.32.73 33.96.73c.776 0 .8.11.573 2.713a230.759 230.759 0 00-.33 4.302c-.07 1.11-.255 2.311-.451 2.939-1.303 4.159-1.319 5.161-.098 6.318 1.195 1.133.18 2.147-1.085 1.083-.756-.637-1.275-1.55-1.333-2.348-.068-.921-.386-1-.715-.177-.177.441-.63.961-1.387 1.592-1.37 1.141-1.88 1.369-3.07 1.368-1.146 0-1.843-.394-2.305-1.3-.467-.915-.865-.873-1.388.148-.337.656-.867 1.14-1.259 1.147-.151.003-.321.079-.377.169-.159.257-1.72.16-2.558-.158-.826-.315-1.592-1.071-2.297-2.267-.389-.658-.448-.934-.45-2.081 0-.728.085-1.569.19-1.87.47-1.35 2.008-3.155 3.34-3.92 1.129-.648 2.582-.676 3.719-.072.422.225.847.409.945.409.311 0 .611-.553.616-1.137.006-.65.593-4.553.885-5.882.148-.676.294-.946.593-1.095.329-.164.447-.152.694.072.264.239.19 1.189.186 1.788-.01 1.604-.316 3.193-.556 4.779zM5.627 18.553c.333-.163.715-.548.925-.931.197-.36.463-.764.592-.898.837-.875 3.06-6.772 3.06-8.117 0-.273.114-.77.254-1.104.384-.92.496-3.135.195-3.852-.532-1.267-1.995-2.429-3.062-2.432-.224 0-.675.092-1.002.206-1.126.393-3.218 2.595-3.56 3.749a14.51 14.51 0 01-.575 1.509c-.832 1.84-.822 1.77-.82 5.877.002 3.768.015 3.946.375 4.621.466.877 1.646 1.669 2.471 1.657.32-.004.836-.133 1.147-.285zm-2.862 1.444C1.873 19.6.47 17.92.343 17.095c-.238-1.537-.38-4.053-.335-5.941.04-1.698.124-2.286.476-3.347.235-.708.493-1.406.572-1.551.079-.146.225-.565.323-.932.1-.367.279-.766.4-.886.12-.121.345-.464.5-.762C2.654 2.95 4.916.68 5.632.309 6.047.094 6.591.01 7.618.001 8.844-.009 9.1.04 9.534.36c.276.203.675.436.887.517C10.881 1.05 12 2.674 12 3.165c0 .19.11.609.244.93.306.732.31 1.405.014 2.8-.452 2.136-.579 3.082-.73 5.42-.212 3.293.021 4.619.96 5.469.18.163.328.469.328.68 0 .372-.51 1.035-.796 1.035-.25 0-1.507-1.47-1.747-2.045-.128-.306-.233-.77-.233-1.031 0-.262-.11-.567-.244-.679-.333-.276-.582-.052-1.337 1.204-.74 1.232-2.043 2.702-2.725 3.075-.672.367-2.114.355-2.97-.026zm23.293 6.462c-.247-.298-.085-.686.66-1.575 1.164-1.393 1.488-3.262.692-4-.775-.717-.19-1.642.723-1.142 1.069.586 1.091.633 1.091 2.254 0 1.62-.031 1.712-1.121 3.306-.399.582-.835 1.009-1.179 1.153-.667.278-.638.278-.866.004z" stroke-width=".163"/></svg>