<?xml version="1.0" encoding="UTF-8" standalone="no"?>
<svg
   xmlns:dc="http://purl.org/dc/elements/1.1/"
   xmlns:cc="http://creativecommons.org/ns#"
   xmlns:rdf="http://www.w3.org/1999/02/22-rdf-syntax-ns#"
   xmlns:svg="http://www.w3.org/2000/svg"
   xmlns="http://www.w3.org/2000/svg"
   id="svg2502"
   viewBox="0 0 59.53219 13.999443"
   version="1.1"
   height="13.999443"
   width="59.532192">
  <defs
     id="defs2506" />
  <metadata
     id="metadata2">
    <rdf:RDF>
      <cc:Work
         rdf:about="">
        <dc:format>image/svg+xml</dc:format>
        <dc:type
           rdf:resource="http://purl.org/dc/dcmitype/StillImage" />
        <dc:title />
      </cc:Work>
    </rdf:RDF>
  </metadata>
  <g
     transform="translate(-421.57444,-168.28577)"
     style="stroke-width:0.16327"
     id="g2500">
    <path
       d="m 421.75,175.64 c -0.37566,-0.37566 -0.18828,-0.73749 0.95201,-1.8384 0.63138,-0.60954 1.2191,-1.2412 1.3061,-1.4038 0.087,-0.16256 0.15885,-0.72284 0.15965,-1.2451 0.002,-0.86796 -0.0428,-0.98587 -0.51386,-1.3731 -0.42197,-0.34685 -0.49583,-0.50129 -0.4077,-0.85242 0.23701,-0.94438 1.1604,-0.83255 2.0413,0.24718 0.60687,0.74387 0.73244,1.6179 0.40174,2.7965 -0.25324,0.90255 -0.42558,1.1458 -1.7248,2.4339 -1.4146,1.4025 -1.8207,1.629 -2.2145,1.2352 z m 46.835,0.35343 c 0.3375,-0.18062 0.44548,-1.0377 0.1535,-1.2182 -0.24405,-0.15083 -1.3071,0.72754 -1.3071,1.08 0,0.34947 0.62,0.42372 1.1536,0.13813 z m 9.3951,2.6789 c 0.7792,-0.52624 0.78658,-0.53775 1.1866,-1.8521 0.37671,-1.2376 0.53022,-2.21 0.40178,-2.5447 -0.12839,-0.33458 -0.93355,-0.29214 -1.7266,0.091 -0.37173,0.17959 -0.76712,0.32653 -0.8787,0.32653 -0.40165,0 -2.3481,0.99768 -2.3481,1.2036 0,0.11586 0.18367,0.30894 0.40816,0.42908 0.29037,0.1554 0.40816,0.35419 0.40816,0.68875 0,0.62291 0.37535,1.3213 0.93421,1.7381 0.59748,0.44566 0.85469,0.43288 1.6144,-0.0802 z m -9.873,1.1228 c 0.42374,-0.5121 0.66766,-1.4623 0.47012,-1.8314 -0.15874,-0.29662 -0.33663,-0.33191 -1.6733,-0.33191 -1.3501,0 -1.5562,0.0419 -2.1167,0.43037 -0.75049,0.52008 -0.78501,0.90002 -0.12447,1.3704 0.65881,0.46911 1.195,0.61732 2.2945,0.6342 0.68321,0.0104 0.97306,-0.058 1.1499,-0.27167 z m -34.945,2.2378 c -3.1768,-0.66354 -4.5771,-1.2608 -5.7311,-2.4442 -1.0633,-1.0904 -1.459,-1.6944 -1.5625,-2.3848 -0.0593,-0.39547 -0.17282,-0.75917 -0.25225,-0.80827 -0.23825,-0.14725 -0.16305,-1.0076 0.11213,-1.2828 0.46652,-0.4665 1.074,-0.18408 1.294,0.60155 0.0564,0.20152 0.17131,0.51332 0.25528,0.69291 0.084,0.1796 0.25193,0.62002 0.37321,0.97871 0.33838,1.0007 1.803,2.0622 3.372,2.4438 0.67347,0.1638 1.6286,0.44757 2.1224,0.63061 2.1796,0.80776 8.5146,-0.006 10.857,-1.3942 0.26939,-0.15967 0.6,-0.29105 0.73469,-0.29193 0.1347,-0.002 0.45533,-0.11136 0.71254,-0.24552 0.25721,-0.13414 0.62456,-0.24437 0.81633,-0.24496 0.19177,0 0.56909,-0.14704 0.83848,-0.32545 0.26939,-0.17842 0.60098,-0.32487 0.73687,-0.32546 0.1359,0 0.62891,-0.25822 1.0956,-0.5725 0.4667,-0.31429 0.91925,-0.57143 1.0057,-0.57143 0.0865,0 0.36487,-0.17293 0.6187,-0.3843 0.54264,-0.45185 2.3288,-1.4108 2.6287,-1.4113 0.11441,0 0.57352,-0.25177 1.0202,-0.55905 1.0011,-0.68862 1.831,-0.97435 2.5037,-0.86201 0.85762,0.1432 2.0278,0.72397 2.3021,1.1425 0.5649,0.86217 -0.31324,1.3774 -1.304,0.76514 -0.68151,-0.42119 -1.3468,-0.37474 -2.6052,0.1819 -1.3983,0.61853 -2.1785,1.8145 -1.8878,2.8939 0.43511,1.6158 2.8049,2.5175 5.1892,1.9744 1.0391,-0.23672 2.7953,-1.1245 2.9044,-1.4683 0.0803,-0.25306 -0.11138,-1.3978 -0.32906,-1.9651 -0.0502,-0.13068 0.0649,-0.40508 0.25557,-0.60978 0.32599,-0.34991 0.45156,-0.36912 2.0969,-0.3208 l 1.7501,0.0514 1.5398,-1.4418 c 1.5482,-1.4497 2.0104,-1.7768 2.7656,-1.957 0.67698,-0.16159 0.86462,0.0958 1.0011,1.3734 0.16733,1.566 0.35453,1.7523 1.3939,1.3875 0.433,-0.152 1.3353,-0.45797 2.0052,-0.67995 0.66986,-0.22199 1.3836,-0.51216 1.5861,-0.64485 0.20249,-0.13267 0.50524,-0.24122 0.67276,-0.24122 0.16755,0 0.66604,-0.18337 1.1078,-0.40748 0.44176,-0.22411 0.93275,-0.40779 1.0911,-0.40816 0.15835,0 0.45223,-0.0856 0.65306,-0.18944 0.79923,-0.41318 0.94754,-0.46431 1.3466,-0.46431 0.48712,0 0.68068,0.39657 0.83518,1.7112 0.10896,0.92707 -0.20121,3.0235 -0.44733,3.0235 -0.0796,0 -0.14707,0.16531 -0.14988,0.36735 -0.006,0.42351 -0.51201,1.293 -1.2227,2.1003 -0.75041,0.85256 -2.0699,1.1627 -3.3247,0.78155 -0.46227,-0.1404 -0.72964,-0.39724 -1.2322,-1.1837 -0.64537,-1.0099 -0.77246,-1.585 -0.53754,-2.4329 0.10843,-0.39135 0.0783,-0.44898 -0.23448,-0.44898 -0.38424,0 -1.2051,0.24011 -2.0394,0.59652 -0.28297,0.1209 -0.58382,0.2198 -0.66857,0.2198 -0.38859,0 -0.8451,0.89853 -1.1012,2.1674 -0.13172,0.65274 -1.0906,1.6401 -2.1124,2.175 -0.81708,0.42781 -0.94167,0.44897 -1.6717,0.28408 -1.2712,-0.2871 -2.4127,-0.76628 -2.9974,-1.2582 -0.69665,-0.5862 -1.1264,-0.51102 -2.7059,0.47344 -1.3943,0.86903 -2.5199,1.1304 -4.344,1.0088 -1.0121,-0.0675 -1.4276,-0.18183 -2.1224,-0.58397 -1.6987,-0.9831 -2.7732,-2.4037 -2.6917,-3.5586 0.0457,-0.6474 -0.42736,-0.677 -1.1187,-0.07 -0.31339,0.27517 -0.7705,0.54823 -1.0158,0.60681 -0.37841,0.0904 -2.923,1.2238 -3.8315,1.7067 -0.15593,0.0829 -0.4398,0.15067 -0.63084,0.15067 -0.3476,0 -0.61348,0.11605 -2.5959,1.133 -1.1102,0.56954 -0.98651,0.54988 -6.6267,1.0534 -0.63639,0.0568 -1.4878,-0.023 -2.4994,-0.23431 z"
       id="anxious" />
  </g>
</svg>
