<svg xmlns="http://www.w3.org/2000/svg" height="13.999" width="59.532"><path d="M.176 7.354c-.376-.375-.189-.737.952-1.838.631-.61 1.219-1.241 1.306-1.404.087-.163.159-.723.16-1.245.001-.868-.043-.986-.515-1.373-.422-.347-.495-.501-.407-.853.237-.944 1.16-.832 2.041.248.607.743.733 1.617.402 2.796-.253.903-.426 1.146-1.725 2.434C.975 7.521.57 7.748.176 7.354zm46.835.354c.337-.181.445-1.038.153-1.219-.244-.15-1.307.728-1.307 1.08 0 .35.62.424 1.154.139zm9.395 2.679c.779-.527.786-.538 1.186-1.853.377-1.237.53-2.21.402-2.544-.128-.335-.934-.292-1.727.09-.371.18-.767.327-.878.327-.402 0-2.348.998-2.348 1.204 0 .116.183.309.408.429.29.155.408.354.408.689 0 .623.375 1.321.934 1.738.598.445.855.433 1.615-.08zm-9.873 1.122c.423-.512.667-1.462.47-1.831-.159-.297-.337-.332-1.674-.332-1.35 0-1.556.042-2.116.43-.75.52-.785.9-.125 1.37.66.47 1.195.618 2.295.635.683.01.973-.058 1.15-.272zm-34.945 2.238c-3.177-.663-4.577-1.26-5.731-2.444-1.064-1.09-1.46-1.694-1.563-2.385-.06-.395-.173-.759-.252-.808-.238-.147-.163-1.008.112-1.283.466-.466 1.074-.184 1.294.602.056.201.171.513.255.693.084.18.252.62.373.978.339 1.001 1.803 2.062 3.372 2.444.674.164 1.629.448 2.123.63 2.18.808 8.514-.005 10.857-1.394.27-.16.6-.29.735-.291.134-.002.455-.112.712-.246.257-.134.625-.244.816-.245.192 0 .57-.147.839-.325.27-.179.6-.325.737-.326.136 0 .629-.258 1.095-.572.467-.315.92-.572 1.006-.572.087 0 .365-.173.619-.384.542-.452 2.329-1.41 2.628-1.411.115 0 .574-.252 1.02-.56 1.002-.688 1.832-.974 2.504-.861.858.143 2.028.724 2.302 1.142.565.862-.313 1.377-1.304.765-.681-.421-1.346-.375-2.605.182-1.398.619-2.178 1.815-1.888 2.894.436 1.616 2.805 2.517 5.19 1.974 1.039-.236 2.795-1.124 2.904-1.468.08-.253-.111-1.398-.329-1.965-.05-.13.065-.405.256-.61.326-.35.451-.369 2.096-.32l1.75.05 1.54-1.441c1.549-1.45 2.01-1.777 2.766-1.957.677-.162.865.096 1.001 1.373.167 1.566.355 1.753 1.394 1.388.433-.152 1.335-.458 2.005-.68.67-.222 1.384-.512 1.586-.645.203-.133.505-.241.673-.241.168 0 .666-.183 1.108-.408.442-.224.933-.407 1.09-.408.16 0 .453-.085.654-.19.8-.412.948-.463 1.347-.463.487 0 .68.396.835 1.71.109.928-.201 3.024-.448 3.024-.08 0-.147.166-.15.368-.005.423-.511 1.293-1.222 2.1-.75.852-2.07 1.163-3.325.781-.462-.14-.73-.397-1.232-1.183-.645-1.01-.773-1.585-.538-2.433.109-.392.079-.45-.234-.45-.384 0-1.205.24-2.04.597-.282.121-.583.22-.668.22-.389 0-.845.899-1.101 2.168-.132.652-1.09 1.64-2.113 2.175-.817.427-.941.449-1.671.284-1.272-.287-2.413-.767-2.998-1.259-.696-.586-1.126-.51-2.706.474-1.394.869-2.52 1.13-4.344 1.009-1.012-.068-1.427-.182-2.122-.584-1.699-.983-2.773-2.404-2.692-3.559.046-.647-.427-.677-1.118-.07-.314.275-.77.548-1.016.607-.379.09-2.923 1.224-3.832 1.707-.156.083-.44.15-.63.15-.348 0-.614.116-2.596 1.133-1.11.57-.987.55-6.627 1.054-.637.056-1.488-.023-2.5-.235z" stroke-width=".163"/></svg>