<?xml version="1.0" encoding="UTF-8" standalone="no"?>
<svg
   xmlns:dc="http://purl.org/dc/elements/1.1/"
   xmlns:cc="http://creativecommons.org/ns#"
   xmlns:rdf="http://www.w3.org/1999/02/22-rdf-syntax-ns#"
   xmlns:svg="http://www.w3.org/2000/svg"
   xmlns="http://www.w3.org/2000/svg"
   id="svg2502"
   viewBox="0 0 19.730972 9.7738419"
   version="1.1"
   height="9.7738419"
   width="19.730972">
  <defs
     id="defs2506" />
  <metadata
     id="metadata2">
    <rdf:RDF>
      <cc:Work
         rdf:about="">
        <dc:format>image/svg+xml</dc:format>
        <dc:type
           rdf:resource="http://purl.org/dc/dcmitype/StillImage" />
        <dc:title />
      </cc:Work>
    </rdf:RDF>
  </metadata>
  <g
     transform="translate(-422.55276,-196.82934)"
     style="stroke-width:0.16327"
     id="g2500">
    <path
       d="m 440.41,199.82 c 0.12235,-0.38546 0.0185,-0.56108 -0.23795,-0.40257 -0.21414,0.13235 -0.2321,0.74141 -0.0219,0.74141 0.0837,0 0.20065,-0.15248 0.25981,-0.33884 z m -0.62118,6.6433 c -0.23331,-0.10011 -0.5809,-0.38406 -0.77244,-0.631 -0.39883,-0.51416 -0.55321,-0.54061 -1.1966,-0.20505 -0.95993,0.50067 -2.6066,0.89892 -3.7168,0.89892 -1.1032,0 -1.1389,-0.0134 -1.7741,-0.66801 -0.39541,-0.40745 -0.69038,-0.89241 -0.75621,-1.2433 -0.13031,-0.69458 0.041,-2.737 0.26458,-3.1547 0.0884,-0.16513 0.16035,-0.65404 0.15994,-1.0865 0,-0.6507 -0.0865,-0.87772 -0.49807,-1.3168 -0.64846,-0.69187 -1.3721,-0.70351 -2.7336,-0.044 -0.78041,0.37804 -1.0289,0.58756 -1.1133,0.93877 -0.0598,0.24867 -0.27666,0.74601 -0.482,1.1052 -0.20533,0.35918 -0.59235,1.2041 -0.86001,1.8776 -0.6211,1.5627 -1.2694,2.7127 -1.6988,3.0135 -0.67924,0.47574 -1.2389,-0.37251 -0.77786,-1.179 0.0891,-0.15592 0.28013,-0.6141 0.42442,-1.0182 1.0753,-3.0113 0.77416,-4.7624 -0.96073,-5.5872 -0.70417,-0.33477 -0.77765,-0.42098 -0.7347,-0.86178 0.0457,-0.46881 0.0793,-0.4888 0.78474,-0.46666 0.90086,0.0283 2.186,0.75545 2.4839,1.4054 0.26975,0.58862 0.77672,0.5839 1.6648,-0.0155 1.8674,-1.2603 4.2977,-1.3009 5.3388,-0.0892 0.49311,0.57391 0.71961,1.9184 0.50126,2.9755 -0.10733,0.51959 -0.19513,1.535 -0.19513,2.2565 0,1.4653 0.21905,1.8522 1.0487,1.8522 0.66555,0 2.6241,-0.63031 3.236,-1.0414 0.46746,-0.31408 0.53637,-0.45502 0.57115,-1.1681 0.10339,-2.1206 0.39281,-3.9115 0.72867,-4.5091 0.44836,-0.79774 1.3766,-1.4446 2.073,-1.4446 0.5991,0 1.4853,0.78173 1.4853,1.3102 0,0.44157 -0.50218,2.3352 -0.67626,2.5501 -0.0832,0.10273 -0.36863,0.63538 -0.63423,1.1837 -0.2656,0.54827 -0.55049,0.99688 -0.63308,0.99688 -0.0826,0 -0.19829,0.28475 -0.25708,0.63278 -0.0916,0.54224 -0.0328,0.73798 0.41115,1.3678 0.76116,1.0799 0.37437,1.8285 -0.70532,1.3652 z"
       id="any" />
  </g>
</svg>
