<svg xmlns="http://www.w3.org/2000/svg" height="9.774" width="19.731"><path d="M17.857 2.99c.123-.385.019-.56-.238-.402-.214.132-.232.741-.022.741.084 0 .201-.152.26-.338zm-.62 6.644c-.234-.1-.582-.384-.773-.631-.4-.514-.554-.54-1.197-.205-.96.5-2.607.899-3.717.899-1.103 0-1.139-.014-1.774-.668-.395-.408-.69-.893-.756-1.243-.13-.695.04-2.737.264-3.155.089-.165.16-.654.16-1.087 0-.65-.086-.877-.498-1.316-.648-.692-1.372-.704-2.733-.044-.78.378-1.03.587-1.114.938-.06.249-.276.746-.482 1.105-.205.36-.592 1.205-.86 1.878-.62 1.563-1.269 2.713-1.698 3.014-.68.475-1.24-.373-.778-1.18.089-.155.28-.614.424-1.018 1.076-3.01.774-4.762-.96-5.587C.04 1-.034.914.01.472.055.004.09-.016.795.006c.9.028 2.186.755 2.483 1.405.27.589.777.584 1.665-.015 1.868-1.26 4.298-1.301 5.339-.09.493.574.72 1.919.501 2.976-.107.52-.195 1.535-.195 2.256 0 1.466.22 1.853 1.049 1.853.665 0 2.624-.63 3.236-1.042.467-.314.536-.455.571-1.168.103-2.12.393-3.911.729-4.509C16.62.874 17.549.227 18.246.227c.599 0 1.485.782 1.485 1.31 0 .442-.502 2.336-.676 2.55-.083.103-.369.636-.635 1.184-.265.549-.55.997-.633.997-.082 0-.198.285-.257.633-.091.542-.032.738.411 1.368.762 1.08.375 1.828-.705 1.365z" stroke-width=".163"/></svg>