<?xml version="1.0" encoding="UTF-8" standalone="no"?>
<svg
   xmlns:dc="http://purl.org/dc/elements/1.1/"
   xmlns:cc="http://creativecommons.org/ns#"
   xmlns:rdf="http://www.w3.org/1999/02/22-rdf-syntax-ns#"
   xmlns:svg="http://www.w3.org/2000/svg"
   xmlns="http://www.w3.org/2000/svg"
   id="svg2502"
   viewBox="0 0 55.980955 22.676922"
   version="1.1"
   height="22.676922"
   width="55.980957">
  <defs
     id="defs2506" />
  <metadata
     id="metadata2">
    <rdf:RDF>
      <cc:Work
         rdf:about="">
        <dc:format>image/svg+xml</dc:format>
        <dc:type
           rdf:resource="http://purl.org/dc/dcmitype/StillImage" />
        <dc:title />
      </cc:Work>
    </rdf:RDF>
  </metadata>
  <g
     transform="translate(-422.3867,-208.32343)"
     style="stroke-width:0.16327"
     id="g2500">
    <path
       d="m 451.73,216.73 c 0.0327,-0.17857 0.16193,-0.44039 0.28707,-0.58185 0.12515,-0.14145 0.38965,-0.72921 0.58781,-1.3061 0.42044,-1.2241 0.53432,-4.2207 0.17409,-4.5809 -0.27352,-0.27352 -0.3315,-0.18814 -0.78763,1.1601 -0.42194,1.2472 -0.63107,2.4023 -0.80899,4.4684 -0.10201,1.1848 -0.0879,1.2759 0.18893,1.2226 0.16455,-0.0317 0.32597,-0.20371 0.35872,-0.38227 z m -11.339,6.6108 c 0.31987,-0.79944 0.34533,-1.6294 0.05,-1.6294 -0.28493,0 -0.78949,1.4561 -0.66474,1.9184 0.14433,0.53475 0.3178,0.45318 0.61476,-0.28901 z m 35.349,1.0237 c 0.88109,-0.84661 1.4972,-2.9779 0.9244,-3.1977 -0.39116,-0.15009 -0.65009,0.0121 -0.94115,0.58954 -0.41231,0.81796 -0.62079,1.5787 -0.62079,2.2652 0,0.68679 0.17932,0.78327 0.63754,0.34299 z m -11.792,4.3265 c 1.2791,-1.3136 2.6024,-3.3845 2.7372,-4.2837 0.12996,-0.86654 -0.18831,-1.5531 -0.71997,-1.5531 -0.17223,0 -0.35855,-0.0735 -0.41404,-0.16326 -0.0555,-0.0898 -0.59647,-0.16327 -1.2022,-0.16327 -0.94134,0 -1.2126,0.0706 -1.8679,0.48621 -0.42167,0.26741 -0.76684,0.54292 -0.76704,0.61224 0,0.0693 -0.22552,0.38319 -0.50067,0.69747 -0.77899,0.88977 -1.4549,2.1525 -1.4566,2.7212 -0.002,0.28439 0.14408,0.85677 0.32204,1.272 0.38179,0.8907 0.96813,1.2153 2.2126,1.225 0.77987,0.006 0.86457,-0.0374 1.6565,-0.85076 z m -2.4784,2.1582 c -0.96745,-0.19639 -1.2766,-0.3463 -1.9608,-0.95073 -1.2291,-1.0858 -1.3961,-2.6936 -0.46769,-4.503 0.32552,-0.63442 0.8398,-1.4597 1.1429,-1.834 0.30303,-0.3743 0.55098,-0.76604 0.55098,-0.87055 0,-0.22742 -1.6157,-0.1525 -3.3469,0.1552 -1.312,0.2332 -1.7693,0.56572 -2.226,1.6187 -0.17,0.39195 -0.45657,0.91974 -0.63683,1.1729 -0.18024,0.25315 -0.43371,0.76067 -0.56326,1.1278 -0.38735,1.0979 -1.6262,2.4927 -2.507,2.8227 -0.9359,0.35064 -1.5299,0.3614 -2.1534,0.039 -0.47861,-0.24749 -1.6263,-1.6611 -1.9814,-2.4407 -0.10374,-0.22769 -0.28667,-0.41399 -0.4065,-0.41399 -0.11982,0 -0.60387,0.37798 -1.0757,0.83995 -0.47178,0.46196 -1.1518,1.024 -1.511,1.2489 -0.35928,0.22492 -0.68996,0.46207 -0.73485,0.52702 -0.0449,0.065 -0.47096,0.2009 -0.94681,0.30212 -1.8388,0.39117 -3.4889,0.1096 -3.9384,-0.67206 -0.33529,-0.58299 -0.85682,-0.58072 -1.6219,0.007 -0.97141,0.74628 -1.8348,1.0548 -2.5677,0.9176 -0.87217,-0.16335 -1.574,-0.47225 -1.8871,-0.83055 -0.6543,-0.74885 -0.71154,-1.0575 -0.71154,-3.8369 0,-2.5089 -0.0268,-2.7574 -0.34286,-3.1837 -0.51409,-0.69325 -1.4021,-0.70596 -2.8454,-0.0407 -0.91954,0.42384 -1.2249,0.66496 -1.6145,1.275 -0.57693,0.90332 -0.97074,1.9333 -1.1616,3.038 -0.0776,0.44898 -0.30115,1.1469 -0.49684,1.551 -0.1957,0.40408 -0.44084,0.91785 -0.54478,1.1417 -0.34828,0.75012 -1.239,0.54692 -1.239,-0.28263 0,-0.2239 0.11815,-0.78429 0.26256,-1.2453 0.14443,-0.46103 0.36519,-1.1688 0.49061,-1.5729 0.31509,-1.0152 0.30351,-3.1613 -0.0185,-3.4286 -0.13469,-0.11179 -0.24698,-0.28609 -0.24953,-0.38733 -0.003,-0.10126 -0.41065,-0.42988 -0.90688,-0.73026 -0.85652,-0.51848 -0.89973,-0.5764 -0.85252,-1.1428 0.0485,-0.58203 0.0652,-0.59577 0.67612,-0.55914 0.76731,0.046 2.5087,1.065 2.7591,1.6144 0.21229,0.46593 0.44011,0.488 0.95988,0.093 0.21416,-0.16276 0.83019,-0.50906 1.369,-0.76955 0.83324,-0.40286 1.165,-0.47117 2.2203,-0.45721 0.99046,0.0131 1.3856,0.0969 1.9592,0.41524 0.68008,0.3775 0.72415,0.44609 0.82477,1.2837 0.0585,0.48672 0.11356,1.8474 0.12245,3.0238 0.009,1.1764 0.0976,2.3725 0.19711,2.658 0.29325,0.8412 1.4221,1.2472 2.194,0.78912 0.92634,-0.54981 2.1815,-1.65 2.3295,-2.0418 0.0918,-0.24322 0.20557,-1.1779 0.25272,-2.0772 0.11174,-2.1307 0.5214,-3.2453 1.4314,-3.8946 0.52745,-0.37636 0.76908,-0.45007 1.2301,-0.37525 0.31558,0.0512 0.66756,0.17094 0.78217,0.26608 0.31212,0.25902 0.64764,2.0186 0.45613,2.3921 -0.0868,0.16933 -0.20418,0.55193 -0.26076,0.8502 -0.10213,0.53832 -0.80296,1.6743 -1.5428,2.5007 -0.55205,0.61663 -0.64803,1.5878 -0.20351,2.059 0.2847,0.30177 0.52175,0.36735 1.3279,0.36735 1.0592,0 1.6642,-0.23492 2.5978,-1.0087 2.5156,-2.0849 3.5096,-3.3518 3.7792,-4.8167 0.0962,-0.52256 0.28504,-1.2072 0.41965,-1.5215 0.46745,-1.0914 1.6707,-5.7088 1.6805,-6.449 0.004,-0.26939 0.15674,-1.1143 0.34034,-1.8776 0.18363,-0.76327 0.40443,-1.7815 0.49068,-2.2628 0.26389,-1.4723 0.76513,-2.1453 1.5977,-2.1453 1.0277,0 1.7221,0.92507 1.9511,2.5992 0.15872,1.1606 -0.14121,4.2867 -0.42022,4.3797 -0.10338,0.0345 -0.27575,0.33342 -0.38306,0.66436 -0.1073,0.33093 -0.33339,0.79889 -0.50242,1.0399 -0.16901,0.24101 -0.40701,0.7208 -0.52888,1.0662 -0.12186,0.34541 -0.56113,1.1529 -0.97615,1.7945 -0.41502,0.6416 -0.75458,1.2446 -0.75458,1.3401 0,0.0955 -0.31541,0.59694 -0.70091,1.1143 -0.38551,0.51734 -0.78211,1.1297 -0.88134,1.3608 -0.29594,0.68921 -0.43604,2.827 -0.22557,3.442 0.17832,0.52108 1.173,1.4469 1.5484,1.4413 0.38808,-0.006 1.4464,-0.75757 1.6627,-1.181 0.12616,-0.24694 0.34345,-0.65102 0.48286,-0.89796 0.91709,-1.6244 1.5424,-3.1086 1.5424,-3.6611 0,-0.84165 0.38185,-1.052 2.2857,-1.2595 1.721,-0.18751 3.6146,-0.44055 5.2245,-0.69817 1.2164,-0.19464 2.8916,-0.12051 4.3641,0.19316 0.92075,0.19615 1.0467,0.18994 1.3289,-0.0654 0.36868,-0.33365 0.87884,-2.5169 1.149,-4.9172 0.35414,-3.1465 0.52023,-4.0728 0.78212,-4.3622 0.37044,-0.40932 0.81189,-0.36139 1.129,0.12256 0.23535,0.35917 0.24712,0.56796 0.0898,1.5918 -0.0996,0.64815 -0.26121,1.8029 -0.35917,2.5662 -0.16379,1.2762 -0.38219,2.3235 -0.61286,2.9388 -0.0505,0.13469 -0.17716,0.86939 -0.28149,1.6326 -0.17133,1.2536 -0.66666,3.1878 -1.0848,4.2358 -0.0876,0.2195 -0.20122,1.1411 -0.25259,2.048 l -0.0934,1.649 0.52501,0.44176 c 0.67225,0.56565 1.2771,0.56456 2.4429,-0.004 1.5219,-0.74282 2.2503,-1.4406 2.3794,-2.2793 0.0526,-0.34175 0.16689,-0.84698 0.254,-1.1228 0.0871,-0.27575 0.1584,-0.89609 0.1584,-1.3785 0,-1.788 1.8327,-4.4062 3.0837,-4.4056 0.83318,0 1.651,1.0979 1.651,2.2156 0,0.18724 -0.21172,0.66528 -0.47048,1.0623 -0.25878,0.39701 -0.57102,1.0157 -0.69388,1.3749 -0.12287,0.35918 -0.57238,0.99727 -0.99891,1.418 -0.42653,0.42071 -0.77551,0.8468 -0.77551,0.94688 0,0.10009 -0.10816,0.39113 -0.24036,0.64679 -0.21164,0.40926 -0.21164,0.57507 0,1.3876 0.3176,1.2194 0.3034,1.5179 -0.078,1.639 -0.42366,0.13446 -1.2634,-0.31471 -1.4015,-0.74962 -0.0955,-0.30085 -0.20363,-0.33709 -0.80371,-0.26947 -0.38134,0.043 -0.90629,0.23492 -1.1665,0.42655 -0.26026,0.19161 -0.89564,0.49637 -1.412,0.67727 -0.93221,0.3266 -0.94506,0.32668 -1.8369,0.0132 -1.1183,-0.39306 -1.8128,-0.93945 -1.9371,-1.524 -0.0525,-0.24694 -0.19163,-0.44898 -0.30919,-0.44898 -0.11755,0 -0.6153,0.40674 -1.1061,0.90387 -0.71972,0.72898 -1.0931,0.96589 -1.93,1.2245 -0.5707,0.17634 -1.0482,0.31257 -1.0612,0.30272 -0.0131,-0.01 -0.3175,-0.0775 -0.67668,-0.15046 z"
       id="anybody" />
  </g>
</svg>
