<svg xmlns="http://www.w3.org/2000/svg" height="22.677" width="55.981"><path d="M29.343 8.407c.033-.179.162-.44.287-.582.126-.142.39-.73.588-1.306.42-1.224.535-4.221.174-4.581-.273-.274-.331-.188-.787 1.16-.422 1.247-.631 2.402-.81 4.468-.101 1.185-.087 1.276.19 1.223.164-.032.326-.204.358-.382zm-11.339 6.61c.32-.8.346-1.629.05-1.629-.285 0-.79 1.456-.664 1.918.144.535.317.454.614-.289zm35.35 1.024c.88-.847 1.496-2.978.924-3.198-.391-.15-.65.012-.941.59-.413.818-.621 1.579-.621 2.265 0 .687.18.783.637.343zM41.56 20.368c1.28-1.314 2.603-3.385 2.737-4.284.13-.867-.188-1.553-.72-1.553-.172 0-.358-.074-.414-.163-.055-.09-.596-.164-1.202-.164-.941 0-1.212.07-1.868.486-.421.268-.766.543-.767.613 0 .069-.225.383-.5.697-.78.89-1.455 2.153-1.457 2.721-.002.285.144.857.322 1.272.382.891.968 1.216 2.213 1.225.78.006.864-.037 1.656-.85zm-2.478 2.158c-.968-.197-1.277-.347-1.96-.951-1.23-1.086-1.397-2.694-.469-4.503.326-.634.84-1.46 1.143-1.834.303-.374.551-.766.551-.87 0-.228-1.615-.153-3.347.155-1.312.233-1.769.565-2.226 1.618-.17.392-.456.92-.636 1.173s-.434.761-.564 1.128c-.387 1.098-1.626 2.493-2.507 2.823-.936.35-1.53.361-2.153.039-.479-.248-1.626-1.661-1.982-2.44-.103-.229-.286-.415-.406-.415-.12 0-.604.378-1.076.84-.471.462-1.152 1.024-1.51 1.249-.36.225-.69.462-.736.527-.044.065-.47.2-.946.302-1.84.391-3.49.11-3.939-.672-.335-.583-.857-.58-1.622.007-.971.746-1.834 1.055-2.567.918-.873-.164-1.574-.473-1.887-.83-.655-.75-.712-1.058-.712-3.838 0-2.509-.027-2.757-.343-3.184-.514-.693-1.402-.705-2.845-.04-.92.424-1.225.665-1.615 1.275a8.233 8.233 0 00-1.161 3.038 7.032 7.032 0 01-.497 1.55c-.196.405-.441.919-.545 1.142-.348.75-1.239.547-1.239-.282 0-.224.118-.784.263-1.245l.49-1.573c.315-1.016.304-3.162-.018-3.429-.135-.112-.247-.286-.25-.387-.003-.102-.41-.43-.907-.73-.856-.519-.9-.577-.852-1.143.048-.582.065-.596.676-.56.767.047 2.509 1.066 2.759 1.615.212.466.44.488.96.093.214-.163.83-.51 1.369-.77.833-.402 1.165-.47 2.22-.457.99.013 1.386.097 1.96.415.68.378.724.446.824 1.284.059.487.114 1.847.123 3.024.009 1.176.097 2.372.197 2.658.293.841 1.422 1.247 2.194.789.926-.55 2.181-1.65 2.33-2.042.091-.243.205-1.178.252-2.077.112-2.13.521-3.245 1.431-3.895.528-.376.77-.45 1.23-.375.316.051.668.171.783.266.312.26.647 2.019.456 2.392-.087.17-.204.552-.261.85-.102.539-.803 1.675-1.543 2.501-.552.617-.648 1.588-.203 2.06.284.301.521.367 1.328.367 1.059 0 1.664-.235 2.597-1.01 2.516-2.084 3.51-3.35 3.78-4.816.096-.522.285-1.207.42-1.521.467-1.092 1.67-5.71 1.68-6.45.004-.269.156-1.114.34-1.877.184-.763.404-1.781.49-2.263C28.67.673 29.172 0 30.004 0c1.028 0 1.723.925 1.952 2.6.158 1.16-.142 4.286-.42 4.379-.104.034-.276.333-.384.664-.107.331-.333.8-.502 1.04-.17.241-.407.721-.53 1.066-.12.346-.56 1.153-.975 1.795-.415.641-.755 1.244-.755 1.34 0 .095-.315.597-.7 1.114-.386.518-.783 1.13-.882 1.361-.296.69-.436 2.827-.226 3.442.179.521 1.173 1.447 1.549 1.441.388-.006 1.446-.757 1.662-1.18.127-.248.344-.652.483-.899.917-1.624 1.543-3.108 1.543-3.66 0-.842.382-1.053 2.285-1.26a109.97 109.97 0 005.225-.698c1.216-.195 2.892-.12 4.364.193.92.196 1.047.19 1.329-.066.369-.333.879-2.517 1.149-4.917.354-3.146.52-4.073.782-4.362.37-.41.812-.361 1.13.123.234.359.246.568.089 1.591-.1.648-.261 1.803-.36 2.567-.163 1.276-.382 2.323-.612 2.938-.05.135-.177.87-.282 1.633-.171 1.254-.666 3.188-1.084 4.236-.088.22-.202 1.14-.253 2.048l-.093 1.649.525.442c.672.565 1.277.564 2.442-.004 1.522-.743 2.25-1.441 2.38-2.28a9.16 9.16 0 01.254-1.123c.087-.275.158-.896.158-1.378 0-1.788 1.833-4.406 3.084-4.406.833 0 1.651 1.098 1.651 2.216 0 .187-.212.665-.47 1.062-.26.397-.572 1.016-.694 1.375-.123.36-.573.997-1 1.418-.426.42-.775.847-.775.947 0 .1-.108.391-.24.647-.212.409-.212.575 0 1.387.317 1.22.303 1.518-.078 1.64-.424.134-1.264-.315-1.402-.75-.095-.301-.203-.337-.803-.27-.382.043-.907.235-1.167.427-.26.191-.896.496-1.412.677-.932.327-.945.327-1.837.013-1.118-.393-1.813-.94-1.937-1.524-.052-.247-.192-.449-.31-.449-.117 0-.614.407-1.105.904-.72.73-1.093.966-1.93 1.225-.57.176-1.048.312-1.061.302-.013-.01-.318-.077-.677-.15z" stroke-width=".163"/></svg>