<svg xmlns="http://www.w3.org/2000/svg" height="17.88" width="35.652"><path d="M19.082 3.752c.397-.45.525-1.572.209-1.834-.376-.312-.52-.067-.644 1.1-.114 1.053-.006 1.234.435.734zm12.82 12.22c1.174-.928 1.423-1.315 2.001-3.104.516-1.595.518-1.617.262-2.497-.382-1.314-.652-1.49-2.31-1.504l-1.386-.013-1.055 1.062c-.58.583-1.058 1.156-1.06 1.271-.004.116-.152.5-.332.851-.67 1.315-.306 3.01.841 3.905 1.112.869 1.966.877 3.04.028zm-2.557 1.767c-.396-.078-.842-.272-.993-.431a21.8 21.8 0 00-.95-.899c-.828-.743-1.178-1.532-1.168-2.636.012-1.459.564-2.914 1.505-3.968.175-.195.269-.434.21-.53-.183-.296-1.776-.197-4.048.25-2.627.518-4.973.48-5.946-.093-.31-.183-.636-.333-.724-.333-.16 0-1.01.56-1.407.926-.113.105-.427.239-.696.298-.27.06-.532.175-.583.258-.051.083-.677.151-1.392.151-1.238 0-1.326-.025-1.876-.53-.787-.723-.904-1.368-.78-4.294.116-2.782-.044-3.43-.992-4.015-.631-.39-1.983-.277-2.94.245-.946.515-2.325 2.59-2.653 3.994-.745 3.185-1.327 4.485-2.043 4.569-.6.07-.708-.392-.407-1.736.514-2.29.601-2.862.598-3.919-.002-.6-.096-1.457-.21-1.906-.185-.727-.285-.854-.925-1.163C.202 1.627-.128 1.143.045.69c.37-.964 2.844.325 3.372 1.756.171.464.536.334 1.408-.502C5.99.828 7.05.293 8.332.174c1.403-.132 1.914.096 2.71 1.209.992 1.384 1.211 2.229.996 3.83-.233 1.726-.223 2.892.028 3.386.29.573 1.105.74 2.308.473.781-.174 1.107-.35 1.607-.87.694-.723.672-.653.933-2.94.305-2.674.42-3.394.65-4.081.12-.36.24-.736.264-.837.059-.234 1.43-.445 1.91-.292.442.14.693.434 1.106 1.292.402.836.4 1.326-.005 2.084-.18.335-.327.694-.327.798 0 .104-.191.441-.426.748-.55.723-1.365 2.329-1.367 2.7-.002.158.236.438.528.623.474.3.698.325 2.082.238.853-.054 1.992-.198 2.53-.322 1.358-.31 3.049-.583 3.611-.583.26 0 .949-.103 1.532-.23 2.506-.544 3.096-.609 3.722-.407 2.627.846 3.374 2.526 2.687 6.048-.278 1.428-2.668 4.136-4.101 4.649-.674.24-.954.247-1.965.049z"/></svg>