<?xml version="1.0" encoding="UTF-8" standalone="no"?>
<svg
   xmlns:dc="http://purl.org/dc/elements/1.1/"
   xmlns:cc="http://creativecommons.org/ns#"
   xmlns:rdf="http://www.w3.org/1999/02/22-rdf-syntax-ns#"
   xmlns:svg="http://www.w3.org/2000/svg"
   xmlns="http://www.w3.org/2000/svg"
   id="svg2502"
   viewBox="0 0 35.651996 17.879723"
   version="1.1"
   height="17.879723"
   width="35.651997">
  <defs
     id="defs2506" />
  <metadata
     id="metadata2">
    <rdf:RDF>
      <cc:Work
         rdf:about="">
        <dc:format>image/svg+xml</dc:format>
        <dc:type
           rdf:resource="http://purl.org/dc/dcmitype/StillImage" />
        <dc:title />
      </cc:Work>
    </rdf:RDF>
  </metadata>
  <g
     transform="translate(-422.42847,-243.63775)"
     style="stroke-width:0.16327"
     id="g2500">
    <path
       d="m 441.51,247.39 c 0.39785,-0.45031 0.52564,-1.5718 0.20907,-1.8345 -0.37556,-0.31167 -0.5188,-0.0671 -0.64407,1.0998 -0.11311,1.0535 -0.006,1.2341 0.435,0.7347 z m 12.821,12.219 c 1.173,-0.92719 1.4227,-1.3145 2.0009,-3.1033 0.5154,-1.5945 0.51777,-1.6171 0.26203,-2.4968 -0.38201,-1.3141 -0.65258,-1.4902 -2.3113,-1.5046 l -1.3849,-0.0121 -1.0556,1.0612 c -0.58058,0.58368 -1.0577,1.156 -1.0603,1.2718 -0.003,0.11582 -0.15159,0.49861 -0.33118,0.85064 -0.67102,1.3153 -0.30611,3.0092 0.84132,3.9054 1.112,0.86852 1.9654,0.87631 3.039,0.0277 z m -2.558,1.7676 c -0.3952,-0.0776 -0.84168,-0.27159 -0.99218,-0.4311 -0.15048,-0.15949 -0.57848,-0.56379 -0.9511,-0.89838 -0.82763,-0.7432 -1.1772,-1.5324 -1.1677,-2.636 0.0126,-1.4592 0.56464,-2.9141 1.5057,-3.968 0.17448,-0.1954 0.26846,-0.43418 0.20886,-0.53062 -0.18251,-0.2953 -1.7752,-0.19655 -4.0472,0.25091 -2.6268,0.51731 -4.9731,0.48023 -5.9463,-0.094 -0.30975,-0.18276 -0.63543,-0.33229 -0.72374,-0.33229 -0.15935,0 -1.0099,0.55964 -1.4065,0.92543 -0.11375,0.1049 -0.42714,0.23914 -0.69641,0.29827 -0.26929,0.0591 -0.53153,0.17537 -0.58274,0.25824 -0.0512,0.0829 -0.67765,0.15071 -1.392,0.15071 -1.2381,0 -1.3259,-0.0248 -1.8765,-0.53061 -0.78642,-0.72235 -0.90376,-1.3678 -0.78064,-4.2938 0.11704,-2.7817 -0.0428,-3.4289 -0.9912,-4.0144 -0.63094,-0.38952 -1.9826,-0.27713 -2.9402,0.24451 -0.9461,0.51538 -2.3246,2.591 -2.653,3.9947 -0.74497,3.1842 -1.3264,4.4847 -2.0426,4.5683 -0.60001,0.0701 -0.70837,-0.39202 -0.40698,-1.7355 0.51381,-2.2903 0.60106,-2.8622 0.598,-3.9191 -0.002,-0.59926 -0.0963,-1.4569 -0.21015,-1.9059 -0.18447,-0.72739 -0.28519,-0.85415 -0.92459,-1.1636 -0.72344,-0.35008 -1.0538,-0.83337 -0.87972,-1.287 0.36989,-0.96395 2.8438,0.32508 3.3714,1.7567 0.17107,0.46414 0.53586,0.33395 1.4084,-0.50267 1.1632,-1.1153 2.2236,-1.6506 3.507,-1.7704 1.4023,-0.13095 1.9132,0.0971 2.7097,1.2093 0.99141,1.3845 1.2109,2.2292 0.99538,3.8306 -0.23228,1.726 -0.22263,2.8916 0.0281,3.3862 0.29005,0.57227 1.105,0.73905 2.3082,0.47236 0.78165,-0.17324 1.1069,-0.34926 1.6069,-0.86959 0.69458,-0.72274 0.67239,-0.65288 0.93335,-2.9395 0.30529,-2.675 0.41994,-3.3949 0.64993,-4.0816 0.1203,-0.35919 0.23923,-0.73568 0.26431,-0.83665 0.0582,-0.23455 1.4305,-0.44492 1.9098,-0.29277 0.44173,0.14019 0.69301,0.43392 1.1059,1.2927 0.40186,0.83582 0.40059,1.326 -0.005,2.0835 -0.17959,0.33507 -0.32653,0.6944 -0.32653,0.7985 0,0.1041 -0.19179,0.44072 -0.4262,0.74805 -0.55117,0.72261 -1.365,2.3286 -1.3676,2.6989 -0.002,0.15847 0.23671,0.4392 0.52854,0.62389 0.47352,0.29962 0.69749,0.32524 2.0816,0.23806 0.85306,-0.0538 1.9918,-0.19852 2.5306,-0.32173 1.358,-0.31053 3.0486,-0.58351 3.6107,-0.58301 0.25904,0 0.94852,-0.10336 1.5322,-0.23022 2.5054,-0.54452 3.0956,-0.60916 3.7216,-0.40757 2.6272,0.84596 3.3737,2.5261 2.6873,6.0483 -0.2783,1.428 -2.668,4.1364 -4.1014,4.6486 -0.67419,0.24088 -0.95378,0.24792 -1.9648,0.0494 z"
       id="anyhow" />
  </g>
</svg>
