<?xml version="1.0" encoding="UTF-8" standalone="no"?>
<svg
   xmlns:dc="http://purl.org/dc/elements/1.1/"
   xmlns:cc="http://creativecommons.org/ns#"
   xmlns:rdf="http://www.w3.org/1999/02/22-rdf-syntax-ns#"
   xmlns:svg="http://www.w3.org/2000/svg"
   xmlns="http://www.w3.org/2000/svg"
   id="svg2502"
   viewBox="0 0 57.075258 20.164709"
   version="1.1"
   height="20.164709"
   width="57.07526">
  <defs
     id="defs2506" />
  <metadata
     id="metadata2">
    <rdf:RDF>
      <cc:Work
         rdf:about="">
        <dc:format>image/svg+xml</dc:format>
        <dc:type
           rdf:resource="http://purl.org/dc/dcmitype/StillImage" />
        <dc:title />
      </cc:Work>
    </rdf:RDF>
  </metadata>
  <g
     transform="translate(-422.41959,-258.33636)"
     style="stroke-width:0.16327"
     id="g2500">
    <path
       d="m 442.28,271.22 c 0.11279,-0.24694 0.24506,-0.8347 0.29395,-1.3061 0.0736,-0.71004 0.0446,-0.85714 -0.16923,-0.85714 -0.36131,0 -0.39863,0.10085 -0.52978,1.4318 -0.12271,1.2453 0.0379,1.5354 0.40506,0.73147 z m -7.9894,7.0329 c -1.6674,-0.71946 -2.0654,-2.0047 -1.6063,-5.1877 0.22929,-1.5899 0.10916,-2.3426 -0.47943,-3.0046 -0.87615,-0.98531 -1.6397,-1.0548 -3.2276,-0.29388 -1.8595,0.89112 -2.8341,2.4689 -3.0211,4.8904 -0.17025,2.205 -0.77206,3.1889 -1.7265,2.8226 -0.21686,-0.0832 -0.24806,-0.25917 -0.1695,-0.95637 0.053,-0.46993 0.17892,-1.8815 0.27997,-3.1369 0.22667,-2.8164 0.13224,-3.2209 -0.98015,-4.1979 -0.94092,-0.8264 -1.1932,-1.4798 -0.67785,-1.7556 0.47785,-0.25574 1.4146,0.25324 2.5432,1.3819 0.49218,0.4922 0.96195,0.89489 1.0439,0.89489 0.082,0 0.50467,-0.29388 0.93933,-0.65306 0.43466,-0.35918 0.87545,-0.65306 0.97955,-0.65306 0.10408,0 0.5095,-0.14532 0.90094,-0.32294 1.6055,-0.72851 3.5405,-0.16681 4.5484,1.3203 0.53684,0.79205 0.57143,0.92329 0.57143,2.1678 0,0.72856 -0.0637,1.9663 -0.14153,2.7505 l -0.14152,1.4258 0.55953,0.55952 c 1.0154,1.0154 2.7179,0.95569 3.9684,-0.13923 0.35918,-0.31448 0.73352,-0.57321 0.83184,-0.57492 0.0983,-0.002 0.29996,-0.13705 0.44808,-0.30072 0.21086,-0.233 0.26077,-0.5785 0.22992,-1.5918 -0.0463,-1.5226 0.24069,-3.6473 0.61277,-4.536 0.5312,-1.2688 1.4256,-1.8459 2.3984,-1.5474 1.092,0.33514 1.3878,1.6405 0.78924,3.483 -0.63651,1.9594 -0.84779,2.4369 -1.2386,2.7991 -0.30613,0.28372 -0.39815,0.53551 -0.39815,1.0895 0,0.97695 0.4736,1.5808 1.2398,1.5808 0.78534,0 2.6026,-0.92378 3.4878,-1.7729 0.40801,-0.39145 0.97453,-0.81233 1.2589,-0.9353 0.28439,-0.12297 0.76194,-0.47757 1.0612,-0.788 0.77763,-0.80656 3.5896,-2.8711 3.9105,-2.8711 0.14869,0 0.69426,-0.40408 1.2124,-0.89796 0.51814,-0.49388 1.0134,-0.89796 1.1006,-0.89796 0.0872,0 0.64593,-0.45918 1.2416,-1.0204 0.59569,-0.56122 1.7929,-1.551 2.6604,-2.1994 0.86755,-0.64847 1.6851,-1.3329 1.8168,-1.5209 0.1317,-0.18803 0.66999,-0.65562 1.1962,-1.0391 0.5262,-0.38347 1.0576,-0.81947 1.1808,-0.96889 0.12325,-0.14942 0.31638,-0.27167 0.42919,-0.27167 0.11282,0 0.57432,-0.35213 1.0256,-0.78251 0.78482,-0.74851 2.5179,-1.7182 3.84,-2.1485 0.64748,-0.21073 1.4199,-0.12146 1.4199,0.16411 0,0.0911 0.23878,0.39667 0.53061,0.67904 0.29184,0.28237 0.60898,0.73415 0.70477,1.004 0.31092,0.87589 0.62774,0.91148 1.3505,0.15169 0.35345,-0.37156 0.9999,-0.83585 1.4366,-1.0318 0.43663,-0.19593 1.034,-0.46767 1.3274,-0.60387 0.70847,-0.32886 2.1849,-0.20934 2.7794,0.225 0.24321,0.17769 0.58483,0.61059 0.75913,0.96199 0.43135,0.86955 0.53086,2.9439 0.2033,4.238 -0.13638,0.53878 -0.29876,1.3837 -0.36087,1.8776 -0.11859,0.94309 -0.43619,1.4694 -0.88671,1.4694 -0.72867,0 -0.86589,-1.0562 -0.33387,-2.5698 0.24431,-0.69512 0.32653,-1.3476 0.32653,-2.5912 v -1.6622 l -0.57711,-0.50671 c -0.84159,-0.73892 -1.5114,-0.69396 -2.6734,0.17939 -0.50204,0.37738 -1.0099,0.78146 -1.1285,0.89796 -0.11866,0.11653 -0.28086,0.21186 -0.36047,0.21186 -0.0796,0 -0.34634,0.34898 -0.59274,0.77551 -0.24641,0.42653 -0.49675,0.81224 -0.55631,0.85714 -0.0596,0.0449 -0.16497,0.26531 -0.23426,0.4898 -0.0693,0.22448 -0.33633,0.86919 -0.59343,1.4326 -0.25711,0.56348 -0.46746,1.1239 -0.46746,1.2453 0,0.1214 -0.1102,0.31228 -0.24489,0.42407 -0.1347,0.11178 -0.2449,0.30011 -0.2449,0.41851 0,0.31465 -0.28957,0.44248 -0.74397,0.32844 -0.52771,-0.13244 -0.51254,-0.49037 0.0839,-1.98 0.40795,-1.0188 0.48982,-1.4688 0.52803,-2.9019 0.051,-1.9155 -0.23811,-2.7933 -0.96603,-2.9325 -0.58091,-0.11105 -2.0608,0.50057 -2.7234,1.1255 -0.32312,0.30479 -0.66299,0.55414 -0.75528,0.55414 -0.19017,0 -1.8628,1.3414 -3.3793,2.7102 -0.55946,0.50498 -1.3676,1.1397 -1.7959,1.4106 -0.8001,0.50601 -0.88065,0.57205 -2.2161,1.8168 -0.43141,0.40209 -1.0559,0.93378 -1.3878,1.1815 -0.33185,0.24775 -0.84148,0.68991 -1.1325,0.98258 -0.29102,0.29267 -0.70601,0.62829 -0.92219,0.74583 -0.96057,0.52227 -4.2043,2.9581 -5.8757,4.4123 -0.28037,0.24394 -0.82201,0.66684 -1.2036,0.93979 -0.38163,0.27296 -0.69388,0.58962 -0.69388,0.70368 0,0.31459 -1.1836,1.0157 -2.2414,1.3277 -0.51823,0.15287 -1.0698,0.34709 -1.2257,0.43161 -0.78142,0.42364 -1.6377,0.11362 -2.6195,-0.94834 -0.35592,-0.385 -0.76146,-0.47102 -1.0236,-0.21711 -0.32607,0.31585 -2.1499,1.1957 -2.9306,1.4138 -1.0372,0.28971 -2.1265,0.27397 -2.8572,-0.0413 z"
       id="anyone" />
  </g>
</svg>
