<svg xmlns="http://www.w3.org/2000/svg" height="20.165" width="57.075"><path d="M19.86 12.884c.113-.247.245-.835.294-1.306.074-.71.045-.858-.169-.858-.361 0-.399.101-.53 1.432-.122 1.246.038 1.536.405.732zm-7.989 7.033c-1.667-.72-2.065-2.005-1.606-5.188.229-1.59.109-2.343-.48-3.005-.876-.985-1.64-1.055-3.227-.294-1.86.891-2.834 2.47-3.021 4.89-.17 2.206-.772 3.19-1.727 2.823-.217-.083-.248-.259-.17-.956.054-.47.18-1.882.28-3.137.227-2.816.133-3.22-.98-4.198C0 10.026-.253 9.372.263 9.097c.477-.256 1.414.253 2.543 1.381.492.493.962.895 1.044.895.082 0 .504-.293.939-.653.435-.359.875-.653.98-.653.104 0 .509-.145.9-.323 1.606-.728 3.541-.166 4.549 1.32.537.793.571.924.571 2.168 0 .729-.063 1.967-.141 2.75l-.142 1.427.56.56c1.015 1.015 2.718.955 3.968-.14.36-.314.734-.573.832-.575.098-.002.3-.137.448-.3.211-.234.26-.58.23-1.592-.046-1.523.24-3.648.613-4.536.531-1.27 1.425-1.846 2.398-1.548 1.092.335 1.388 1.64.79 3.483-.637 1.96-.848 2.437-1.24 2.8-.305.283-.397.535-.397 1.089 0 .977.473 1.58 1.24 1.58.785 0 2.602-.923 3.487-1.772.408-.392.975-.813 1.26-.936.284-.123.761-.477 1.06-.788.778-.806 3.59-2.87 3.91-2.87.15 0 .695-.405 1.213-.899.518-.494 1.014-.898 1.1-.898.088 0 .647-.459 1.242-1.02.596-.561 1.793-1.551 2.66-2.2.868-.648 1.686-1.332 1.818-1.52.131-.188.67-.656 1.196-1.04.526-.383 1.057-.819 1.18-.968.124-.15.317-.272.43-.272.113 0 .574-.352 1.025-.783.785-.748 2.518-1.718 3.84-2.148.648-.21 1.42-.121 1.42.164 0 .091.24.397.531.68.292.282.609.733.705 1.003.31.876.627.912 1.35.152.354-.372 1-.836 1.437-1.032.436-.196 1.034-.468 1.327-.604.709-.329 2.185-.21 2.78.225.243.178.584.61.759.962.431.87.53 2.944.203 4.238a18.905 18.905 0 00-.36 1.878c-.12.943-.437 1.47-.888 1.47-.728 0-.865-1.057-.333-2.57.244-.696.326-1.348.326-2.592V2.428l-.577-.507c-.842-.739-1.511-.694-2.673.18-.502.377-1.01.781-1.129.898-.119.116-.28.211-.36.211-.08 0-.347.35-.593.776-.246.426-.497.812-.556.857-.06.045-.165.265-.235.49-.069.224-.336.87-.593 1.432-.257.564-.468 1.124-.468 1.246 0 .121-.11.312-.244.424-.135.112-.245.3-.245.418 0 .315-.29.443-.744.329-.528-.133-.513-.49.084-1.98.408-1.019.49-1.469.528-2.902.05-1.916-.238-2.793-.966-2.933-.581-.11-2.061.501-2.724 1.126-.323.305-.663.554-.755.554-.19 0-1.863 1.341-3.38 2.71-.559.505-1.367 1.14-1.795 1.41-.8.507-.88.573-2.216 1.818a20.78 20.78 0 01-1.388 1.181c-.332.248-.842.69-1.133.983-.29.292-.706.628-.922.746-.96.522-4.204 2.958-5.876 4.412-.28.244-.822.667-1.203.94-.382.273-.694.59-.694.703 0 .315-1.184 1.016-2.241 1.328-.519.153-1.07.347-1.226.432-.782.423-1.638.113-2.62-.949-.356-.385-.761-.47-1.023-.217-.326.316-2.15 1.196-2.93 1.414-1.038.29-2.127.274-2.858-.041z" stroke-width=".163"/></svg>