<?xml version="1.0" encoding="UTF-8" standalone="no"?>
<svg
   xmlns:dc="http://purl.org/dc/elements/1.1/"
   xmlns:cc="http://creativecommons.org/ns#"
   xmlns:rdf="http://www.w3.org/1999/02/22-rdf-syntax-ns#"
   xmlns:svg="http://www.w3.org/2000/svg"
   xmlns="http://www.w3.org/2000/svg"
   id="svg2502"
   viewBox="0 0 50.092394 11.886326"
   version="1.1"
   height="11.886326"
   width="50.092396">
  <defs
     id="defs2506" />
  <metadata
     id="metadata2">
    <rdf:RDF>
      <cc:Work
         rdf:about="">
        <dc:format>image/svg+xml</dc:format>
        <dc:type
           rdf:resource="http://purl.org/dc/dcmitype/StillImage" />
        <dc:title />
      </cc:Work>
    </rdf:RDF>
  </metadata>
  <g
     transform="translate(-422.53204,-290.48274)"
     style="stroke-width:0.16327"
     id="g2500">
    <path
       d="m 442.1,295.47 c 0.10555,-0.20204 0.37241,-0.69796 0.59303,-1.102 0.59634,-1.0922 0.50787,-2.2296 -0.16315,-2.0977 -0.37292,0.0733 -0.48714,0.31189 -0.7802,1.63 -0.33651,1.5135 -0.12212,2.4741 0.35032,1.5698 z m 7.8605,6.7264 c -0.40408,-0.0719 -1.1158,-0.13618 -1.5815,-0.14284 -0.46573,-0.007 -1.4208,-0.15063 -2.1224,-0.31994 -1.201,-0.28983 -1.4938,-0.38912 -2.7697,-0.93959 -0.28297,-0.12207 -0.59451,-0.22196 -0.69232,-0.22196 -0.0978,0 -0.48898,-0.33061 -0.86924,-0.73469 -0.38025,-0.40408 -0.81499,-0.7347 -0.96608,-0.7347 -0.35461,0 -1.9375,0.81924 -1.9375,1.0028 0,0.077 -0.0743,0.14008 -0.16505,0.14008 -0.0908,0 -0.47649,0.14225 -0.85714,0.31613 -1.854,0.84686 -2.5679,0.98219 -3.8397,0.72782 -0.73108,-0.1462 -1.5758,-1.0266 -1.8192,-1.8962 -0.18361,-0.65579 -0.16764,-0.90563 0.13429,-2.0996 0.59079,-2.3362 0.41254,-3.6263 -0.63465,-4.5932 -0.53477,-0.49378 -0.79675,-0.61818 -1.3019,-0.61818 -0.87022,0 -1.927,0.49233 -2.6737,1.2456 -0.98937,0.99807 -1.9042,3.1408 -1.9042,4.4601 0,1.0523 -0.39773,2.1279 -1.0828,2.9283 -0.63081,0.73695 -1.095,0.85229 -1.369,0.3402 -0.18018,-0.33666 -0.14762,-0.50286 0.43171,-2.2042 0.30715,-0.90204 0.29208,-3.7068 -0.0256,-4.7767 -0.17902,-0.60278 -0.41057,-0.964 -0.81633,-1.2735 -0.47492,-0.36224 -0.56645,-0.53445 -0.56645,-1.0657 0,-0.71111 0.13512,-0.76555 1.0005,-0.40303 0.85665,0.35887 1.6118,1.3166 1.6118,2.0443 0,0.56666 0.36472,0.38554 1.5541,-0.77177 1.0848,-1.0556 1.2138,-1.1301 2.6752,-1.5464 l 1.5355,-0.43737 1.0302,0.45386 c 0.75367,0.33203 1.1478,0.62658 1.4684,1.0974 0.97905,1.438 1.0882,2.3061 0.55299,4.3987 -0.4948,1.9347 -0.45077,2.4044 0.28209,3.0085 0.90044,0.74221 1.4602,0.67951 3.6092,-0.40426 0.98797,-0.49828 1.8697,-0.9944 1.9594,-1.1025 0.0897,-0.1081 0.23319,-1.1514 0.31885,-2.3185 0.17969,-2.4482 0.65486,-3.8588 1.6147,-4.7934 0.4649,-0.45265 0.64882,-0.53185 1.0492,-0.45178 0.55659,0.11133 1.2285,0.56021 1.3755,0.91903 0.0552,0.1347 0.13918,0.72245 0.18661,1.3061 0.0805,0.99045 0.0419,1.1543 -0.57866,2.457 -0.3657,0.76771 -0.85063,1.5703 -1.0776,1.7836 -0.22697,0.2133 -0.41274,0.52462 -0.41274,0.6919 0,0.43332 1.3009,1.6406 2.1436,1.9894 0.39244,0.16244 0.84109,0.36124 0.99701,0.44183 0.15594,0.0806 0.58165,0.1465 0.94604,0.1465 0.36439,0 1.1185,0.10389 1.6757,0.23086 2.2579,0.51448 2.8345,0.58534 4.7399,0.5825 1.7716,-0.003 3.651,-0.23318 6.559,-0.80451 1.2846,-0.25241 5.3202,-1.5306 6.6326,-2.1006 1.75,-0.76022 3.5218,-1.6847 3.9643,-2.0683 0.26091,-0.22622 0.54344,-0.41132 0.62787,-0.41132 0.0844,0 0.36671,-0.15184 0.62733,-0.3374 0.5488,-0.39079 1.3437,-0.37109 1.4207,0.0352 0.0644,0.33996 -0.88775,1.243 -1.4381,1.3639 -0.22848,0.0502 -0.67045,0.31426 -0.98216,0.58684 -0.67183,0.58748 -2.0409,1.29 -2.5157,1.2909 -0.18522,0 -0.55895,0.1361 -0.83049,0.3017 -0.27155,0.1656 -0.76814,0.39164 -1.1035,0.50233 -0.33541,0.1107 -0.70999,0.30142 -0.83241,0.42384 -0.20653,0.20655 -0.73631,0.36957 -4.0193,1.2368 -4.3079,1.138 -8.4486,1.5613 -10.939,1.1182 z"
       id="anything" />
  </g>
</svg>
