<svg xmlns="http://www.w3.org/2000/svg" height="11.886" width="50.092"><path d="M19.568 4.987c.106-.202.372-.698.593-1.102.596-1.092.508-2.23-.163-2.097-.373.073-.487.311-.78 1.63-.337 1.513-.122 2.474.35 1.57zm7.86 6.727a11.924 11.924 0 00-1.581-.143c-.466-.007-1.42-.15-2.122-.32-1.201-.29-1.494-.39-2.77-.94-.283-.122-.595-.222-.692-.222-.098 0-.49-.33-.87-.734-.38-.404-.815-.735-.966-.735-.354 0-1.937.82-1.937 1.003 0 .077-.075.14-.165.14-.091 0-.477.142-.857.316-1.854.847-2.568.982-3.84.728-.731-.146-1.576-1.027-1.82-1.896-.183-.656-.167-.906.135-2.1.59-2.336.412-3.626-.635-4.593-.534-.494-.796-.618-1.302-.618-.87 0-1.927.492-2.673 1.245-.99.998-1.905 3.141-1.905 4.46a4.588 4.588 0 01-1.082 2.929c-.631.737-1.095.852-1.37.34-.18-.337-.147-.503.432-2.204.308-.902.292-3.707-.025-4.777-.18-.603-.41-.964-.817-1.274C.092 1.957 0 1.785 0 1.254 0 .543.135.488 1 .85c.857.359 1.612 1.316 1.612 2.044 0 .567.365.386 1.554-.772C5.251 1.068 5.38.993 6.842.577L8.377.139l1.03.454c.754.332 1.148.627 1.469 1.098.979 1.438 1.088 2.306.553 4.398-.495 1.935-.451 2.405.282 3.009.9.742 1.46.68 3.609-.404.988-.499 1.87-.995 1.96-1.103.09-.108.233-1.151.318-2.318.18-2.449.655-3.86 1.615-4.794.465-.452.649-.532 1.05-.452.556.112 1.228.56 1.375.92.055.134.139.722.186 1.306.08.99.042 1.154-.578 2.457-.366.767-.851 1.57-1.078 1.783-.227.213-.413.525-.413.692 0 .433 1.301 1.64 2.144 1.99.392.162.84.36.997.441.156.08.582.147.946.147s1.118.104 1.676.23c2.257.515 2.834.586 4.74.583 1.771-.003 3.65-.233 6.558-.804 1.285-.253 5.32-1.53 6.633-2.1 1.75-.761 3.522-1.686 3.964-2.07.261-.225.544-.41.628-.41.085 0 .367-.152.628-.338.548-.39 1.343-.371 1.42.035.065.34-.887 1.243-1.438 1.364-.228.05-.67.314-.982.587-.672.587-2.04 1.29-2.516 1.29-.185 0-.559.137-.83.303a6.424 6.424 0 01-1.104.502c-.335.11-.71.301-.832.424-.207.206-.736.37-4.02 1.237-4.307 1.138-8.448 1.56-10.938 1.118z" stroke-width=".163"/></svg>