<?xml version="1.0" encoding="UTF-8" standalone="no"?>
<svg
   xmlns:dc="http://purl.org/dc/elements/1.1/"
   xmlns:cc="http://creativecommons.org/ns#"
   xmlns:rdf="http://www.w3.org/1999/02/22-rdf-syntax-ns#"
   xmlns:svg="http://www.w3.org/2000/svg"
   xmlns="http://www.w3.org/2000/svg"
   id="svg2502"
   viewBox="0 0 50.773436 24.087101"
   version="1.1"
   height="24.087101"
   width="50.773438">
  <defs
     id="defs2506" />
  <metadata
     id="metadata2">
    <rdf:RDF>
      <cc:Work
         rdf:about="">
        <dc:format>image/svg+xml</dc:format>
        <dc:type
           rdf:resource="http://purl.org/dc/dcmitype/StillImage" />
        <dc:title />
      </cc:Work>
    </rdf:RDF>
  </metadata>
  <g
     transform="translate(-423.00819,-300.31262)"
     style="stroke-width:0.16327"
     id="g2500">
    <path
       d="m 470.59,307.17 c -0.11722,-0.30551 0.12847,-0.79857 0.77478,-1.5548 0.26168,-0.30618 0.47843,-0.63014 0.48169,-0.71994 0.003,-0.0898 0.14787,-0.45714 0.32138,-0.81632 0.49884,-1.0327 0.42809,-1.6781 -0.26133,-2.3842 -0.43622,-0.44673 -0.56042,-0.68851 -0.48145,-0.93731 0.15115,-0.47625 0.64345,-0.5777 1.2974,-0.2674 0.84634,0.40162 1.1337,1.1483 1.0432,2.7108 -0.0685,1.1832 -0.12524,1.3505 -0.78085,2.3015 -1.1858,1.7202 -2.124,2.3735 -2.3948,1.6676 z m -28.527,10.906 c 0.29495,-0.19515 0.69941,-1.0975 0.81448,-1.8171 0.10137,-0.63396 0.0852,-0.6702 -0.2992,-0.6702 -0.34286,0 -0.46095,0.14261 -0.75556,0.91249 -0.52202,1.3641 -0.42292,2.0136 0.24028,1.5748 z m -17.983,6.157 c -0.14994,-0.24259 0.0822,-2.0611 0.36316,-2.8447 0.34295,-0.95661 0.54404,-3.179 0.36127,-3.9925 -0.18545,-0.82536 -0.71953,-1.5911 -1.3313,-1.9088 -0.60049,-0.31187 -0.62485,-0.99076 -0.0408,-1.1374 0.89682,-0.22507 2.0344,0.40095 2.5019,1.3769 0.24003,0.50101 0.3615,0.59136 0.75621,0.5624 0.28,-0.0205 0.70684,-0.26125 1.055,-0.59494 0.74449,-0.71349 1.5651,-1.1193 3.1724,-1.5689 1.0745,-0.30055 1.3582,-0.32672 1.7558,-0.16199 0.64674,0.26789 1.3987,1.1607 1.6059,1.9069 0.21043,0.75779 0.22359,2.0233 0.0263,2.5274 -0.0808,0.20627 -0.27605,0.83422 -0.43401,1.3954 -0.24169,0.85873 -0.25582,1.1251 -0.0892,1.6813 0.27016,0.9017 0.98291,1.3488 1.9547,1.2261 0.78077,-0.0986 2.6337,-0.86749 2.6337,-1.0929 0,-0.0775 0.10021,-0.14096 0.22269,-0.14096 0.51145,0 1.0578,-1.2016 1.4105,-3.102 0.44562,-2.4014 0.9555,-3.4805 1.9393,-4.1045 0.90847,-0.57613 1.4758,-0.59391 1.9756,-0.0619 0.31042,0.33042 0.38338,0.59403 0.39581,1.4301 0.0127,0.85232 -0.0775,1.2138 -0.53553,2.1457 -0.30292,0.61638 -0.83001,1.3999 -1.1713,1.7412 -1.113,1.113 -1.2002,1.5091 -0.49814,2.2607 0.32824,0.35139 0.6255,0.50707 0.96819,0.50707 0.64717,0 3.5012,-1.3828 4.2271,-2.048 0.19165,-0.17564 0.44555,-0.40038 0.56423,-0.49943 0.11867,-0.099 0.47293,-0.49133 0.78721,-0.87174 0.31429,-0.38039 0.80377,-0.78881 1.0877,-0.90762 0.28395,-0.11881 0.68648,-0.38774 0.89448,-0.59767 0.89946,-0.90772 3.2464,-2.6577 4.242,-3.163 0.59474,-0.30186 1.1265,-0.66656 1.1818,-0.81043 0.0552,-0.14387 0.41348,-0.40087 0.79618,-0.5711 0.38269,-0.17022 0.81954,-0.44199 0.97076,-0.6039 0.15123,-0.16193 0.57702,-0.51483 0.94622,-0.78422 0.36919,-0.26938 1.1238,-0.85714 1.677,-1.3061 0.55316,-0.44898 1.3136,-1 1.6898,-1.2245 0.79298,-0.47319 2.5577,-1.6674 2.6774,-1.8119 0.0449,-0.0542 0.38214,-0.28668 0.74943,-0.51665 0.3673,-0.22999 0.77171,-0.52206 0.8987,-0.64905 0.35365,-0.35364 1.2268,-0.47978 1.451,-0.20961 0.39257,0.47303 -0.33037,1.124 -2.5685,2.3128 -0.29184,0.155 -0.53061,0.34827 -0.53061,0.4295 0,0.22401 -0.69927,0.75985 -0.99964,0.76601 -0.14573,0.003 -0.76209,0.41293 -1.3697,0.91097 -0.60759,0.49804 -1.3333,1.0221 -1.6126,1.1646 -0.27933,0.14246 -0.80175,0.51295 -1.1609,0.82326 -0.94029,0.81238 -3.0708,2.324 -3.2808,2.3279 -0.0983,0.002 -0.31226,0.15075 -0.47539,0.33101 -0.16314,0.18026 -0.86965,0.69534 -1.5701,1.1446 -0.70039,0.44929 -1.509,1.11 -1.7968,1.4682 -0.28786,0.3582 -0.60292,0.65162 -0.70015,0.65203 -0.2297,0.002 -2.6573,1.9776 -2.9606,2.4106 -0.12815,0.18295 -0.69298,0.63314 -1.2552,1.0004 -0.5622,0.3673 -1.3882,0.9254 -1.8355,1.2403 -0.44732,0.31486 -0.92487,0.57274 -1.0612,0.57306 -0.13635,0 -0.47559,0.13945 -0.75384,0.30913 -0.86346,0.52653 -2.477,0.0366 -3.2458,-0.9855 -0.26078,-0.3467 -0.57463,-0.63035 -0.69745,-0.63035 -0.12281,0 -0.5411,0.26565 -0.92952,0.59033 -0.45643,0.38152 -1.2014,0.75365 -2.1061,1.052 -1.56,0.51453 -2.2072,0.50461 -3.3038,-0.0506 -0.5552,-0.28111 -0.72955,-0.49691 -1.0468,-1.2957 -0.40529,-1.0203 -0.41065,-0.92036 0.16462,-3.0715 0.27807,-1.0398 0.19404,-2.5369 -0.17778,-3.1671 -0.18612,-0.31542 -0.47505,-0.61689 -0.64208,-0.66991 -0.30164,-0.0957 -2.2669,0.46487 -2.4396,0.69589 -0.0496,0.0664 -0.38407,0.27837 -0.74325,0.47107 -0.35919,0.19268 -0.77021,0.57404 -0.91338,0.84746 -0.14316,0.27342 -0.48899,0.75758 -0.7685,1.0759 -0.5783,0.65865 -0.91038,1.6433 -1.183,3.5077 -0.16014,1.0953 -0.2712,1.383 -0.72496,1.8784 -0.53688,0.58615 -0.95126,0.73494 -1.1502,0.41301 z"
       id="anyway" />
  </g>
</svg>
