<?xml version="1.0" encoding="UTF-8" standalone="no"?>
<svg
   xmlns:dc="http://purl.org/dc/elements/1.1/"
   xmlns:cc="http://creativecommons.org/ns#"
   xmlns:rdf="http://www.w3.org/1999/02/22-rdf-syntax-ns#"
   xmlns:svg="http://www.w3.org/2000/svg"
   xmlns="http://www.w3.org/2000/svg"
   id="svg2502"
   viewBox="0 0 49.740008 22.643826"
   version="1.1"
   height="22.643826"
   width="49.740009">
  <defs
     id="defs2506" />
  <metadata
     id="metadata2">
    <rdf:RDF>
      <cc:Work
         rdf:about="">
        <dc:format>image/svg+xml</dc:format>
        <dc:type
           rdf:resource="http://purl.org/dc/dcmitype/StillImage" />
        <dc:title />
      </cc:Work>
    </rdf:RDF>
  </metadata>
  <g
     transform="translate(-422.91417,-326.85298)"
     style="stroke-width:0.16327"
     id="g2500">
    <path
       d="m 443.56,342.48 c 0.212,-0.44382 0.38823,-1.1488 0.40816,-1.6326 0.0311,-0.75442 -0.002,-0.85158 -0.29146,-0.85158 -0.50088,0 -1.0462,1.2516 -1.0545,2.4201 -0.006,0.81873 0.0329,0.94342 0.27899,0.89796 0.15714,-0.029 0.4536,-0.40426 0.65881,-0.83386 z m -9.4002,6.6369 c -1.2331,-0.73618 -1.2586,-0.82973 -1.2586,-4.6107 v -3.3387 l -0.71055,-0.23765 c -0.60945,-0.20382 -0.82832,-0.20588 -1.5384,-0.0144 -0.79791,0.21519 -1.0931,0.4938 -1.5342,1.4477 -0.0623,0.1347 -0.24675,0.44694 -0.40996,0.69388 -0.1632,0.24694 -0.42789,0.65102 -0.58818,0.89796 -0.1603,0.24694 -0.53238,1.2204 -0.82684,2.1633 -0.92665,2.967 -1.1724,3.3814 -1.8975,3.1994 -0.47793,-0.11995 -0.70132,-0.762 -0.45011,-1.2936 0.0922,-0.19513 0.25715,-0.61192 0.36653,-0.9262 0.10939,-0.31429 0.30959,-0.82213 0.44487,-1.1285 0.18584,-0.42089 0.22785,-0.96457 0.17184,-2.2241 -0.0633,-1.4226 -0.13661,-1.7736 -0.50025,-2.3941 -0.38279,-0.65318 -0.51933,-0.74945 -1.3432,-0.94712 -1.1304,-0.27118 -1.4691,-0.71358 -0.89941,-1.1749 0.53097,-0.42994 1.0049,-0.50787 1.7949,-0.29515 0.8738,0.2353 1.4886,0.8993 1.9814,2.1398 0.34414,0.86644 0.79624,1.2939 0.79624,0.75279 0,-0.32983 1.8378,-2.0865 2.4598,-2.3512 0.71445,-0.30408 2.3422,-0.15603 3.0558,0.27791 1.132,0.6884 1.3406,1.4827 1.1831,4.5037 -0.171,3.2796 0.12572,3.8231 2.0844,3.818 0.5121,-0.002 1.0862,-0.0932 1.2758,-0.20408 0.18956,-0.11093 0.70385,-0.40655 1.1428,-0.65695 0.98196,-0.56008 1.8903,-1.21 2.0564,-1.4712 0.0685,-0.10777 0.1288,-0.93065 0.13398,-1.8286 0.008,-1.3493 0.0906,-1.8732 0.47724,-3.019 0.54625,-1.6187 1.1642,-2.2871 2.1143,-2.2871 0.75009,0 1.6387,0.6072 1.6724,1.1429 0.0606,0.96125 -0.24799,2.7325 -0.512,2.9388 -0.0575,0.0449 -0.35176,0.52245 -0.65396,1.0612 -0.30221,0.53877 -0.71981,1.2069 -0.928,1.4848 -0.48634,0.64909 -0.47819,0.7605 0.1191,1.6286 0.45151,0.65625 0.55946,0.7233 1.1644,0.7233 0.39479,0 0.9077,-0.14486 1.2575,-0.35515 0.90994,-0.54708 2.5995,-2.0648 2.8316,-2.5437 0.11441,-0.23603 0.68558,-0.82432 1.2692,-1.3073 0.58368,-0.48299 1.4417,-1.2036 1.9068,-1.6013 0.46506,-0.39775 0.91626,-0.72317 1.0027,-0.72317 0.0864,0 0.56117,-0.40408 1.055,-0.89796 0.49383,-0.49388 0.97164,-0.89796 1.0617,-0.89796 0.0901,0 0.38339,-0.20517 0.65187,-0.45597 0.26845,-0.25077 0.77214,-0.66912 1.1193,-0.92964 0.34716,-0.26054 0.93115,-0.77169 1.2978,-1.1359 0.36663,-0.3642 1.426,-1.3601 2.3541,-2.2132 0.9281,-0.8531 2.4282,-2.2562 3.3334,-3.118 0.90524,-0.86184 1.9504,-1.8369 2.3226,-2.1668 0.3722,-0.32987 0.98727,-1.0023 1.3668,-1.4942 0.61691,-0.79964 0.75443,-0.89446 1.2971,-0.89446 0.49629,0 0.71471,0.11644 1.1978,0.63859 0.3559,0.38466 0.80455,0.68165 1.1283,0.74688 0.95391,0.19221 1.0563,0.2469 1.2473,0.66617 0.26289,0.57695 0.23257,1.371 -0.0744,1.9484 -0.4377,0.82325 -1.0525,3.062 -0.93905,3.4195 0.0586,0.1845 0.38916,0.59386 0.73464,0.90966 l 0.62818,0.57422 -0.40112,0.43259 c -0.50642,0.54615 -0.95956,0.46356 -1.6735,-0.30503 -0.5864,-0.63126 -0.7896,-1.3778 -0.62472,-2.2952 0.0606,-0.33729 0.14835,-1.0284 0.19494,-1.5359 0.0543,-0.59109 0.19715,-1.0434 0.39757,-1.2585 0.17205,-0.18469 0.31283,-0.43932 0.31283,-0.56583 0,-0.23107 -0.71085,-0.74887 -1.8212,-1.3266 l -0.59679,-0.31051 -2.0961,1.9472 c -1.1529,1.0709 -2.2251,2.0757 -2.3828,2.2329 -0.15768,0.15714 -0.34775,0.28571 -0.42236,0.28571 -0.0746,0 -0.2268,0.16531 -0.33814,0.36735 -0.11135,0.20204 -0.56307,0.65366 -1.0038,1.0036 -0.44073,0.34995 -0.83951,0.75403 -0.88617,0.89796 -0.0467,0.14394 -0.3845,0.43249 -0.75077,0.64123 -0.36626,0.20873 -0.8144,0.63118 -0.99589,0.93877 -0.18148,0.3076 -0.43771,0.55925 -0.5694,0.55925 -0.13169,0 -0.65003,0.40408 -1.1518,0.89796 -0.50183,0.49388 -0.99135,0.89796 -1.0878,0.89796 -0.0965,0 -0.43584,0.27551 -0.75416,0.61225 -0.31832,0.33673 -1.0126,0.90612 -1.543,1.2653 -0.53031,0.35919 -1.3439,1.002 -1.8079,1.4286 -0.46406,0.42653 -0.91012,0.77824 -0.99123,0.78159 -0.0811,0.003 -0.69852,0.60325 -1.372,1.3331 -2.3878,2.5878 -3.2937,3.3891 -4.492,3.9733 -0.63755,0.31079 -1.3503,0.5651 -1.584,0.5651 -0.38728,0 -1.787,-1.0054 -2.3795,-1.7092 -0.29552,-0.351 -0.71446,-0.31157 -1.3625,0.12821 -0.30655,0.20804 -1.1433,0.6952 -1.8595,1.0826 -1.148,0.62098 -1.4471,0.71079 -2.5266,0.75876 -1.0782,0.0479 -1.3082,0.004 -1.925,-0.36382 z"
       id="anywhere" />
  </g>
</svg>
