<svg xmlns="http://www.w3.org/2000/svg" height="22.644" width="49.74"><path d="M20.646 15.627a4.852 4.852 0 00.408-1.633c.031-.754-.002-.851-.291-.851-.501 0-1.047 1.251-1.055 2.42-.006.819.033.943.279.898.157-.03.454-.404.659-.834zm-9.4 6.637c-1.233-.736-1.259-.83-1.259-4.61v-3.34l-.71-.237c-.61-.204-.829-.206-1.539-.015-.798.216-1.093.494-1.534 1.448a7.137 7.137 0 01-.41.694c-.163.247-.428.651-.588.898-.16.247-.533 1.22-.827 2.163-.927 2.967-1.173 3.382-1.898 3.2-.478-.12-.7-.762-.45-1.294.092-.195.257-.612.367-.926.11-.314.31-.822.445-1.129.186-.42.228-.964.172-2.224-.064-1.422-.137-1.773-.5-2.394-.384-.653-.52-.75-1.344-.947-1.13-.271-1.469-.713-.9-1.175.532-.43 1.006-.508 1.796-.295.873.235 1.488.9 1.981 2.14.344.866.796 1.294.796.753 0-.33 1.838-2.087 2.46-2.352.714-.304 2.342-.156 3.056.278 1.132.689 1.34 1.483 1.183 4.504-.171 3.28.126 3.823 2.084 3.818.512-.002 1.087-.093 1.276-.204.19-.111.704-.407 1.143-.657.982-.56 1.89-1.21 2.056-1.471.069-.108.13-.93.134-1.829.008-1.35.09-1.873.478-3.019.546-1.618 1.164-2.287 2.114-2.287.75 0 1.639.607 1.672 1.143.06.961-.248 2.733-.512 2.939-.057.045-.352.522-.654 1.061-.302.539-.72 1.207-.928 1.485-.486.649-.478.76.12 1.628.45.657.559.724 1.164.724.395 0 .907-.145 1.257-.355.91-.548 2.6-2.065 2.832-2.544.114-.236.685-.824 1.27-1.307.583-.483 1.44-1.204 1.906-1.602.465-.397.916-.723 1.003-.723.086 0 .56-.404 1.055-.898.493-.494.971-.898 1.061-.898.09 0 .384-.205.652-.456.269-.25.772-.669 1.12-.93.347-.26.93-.771 1.297-1.135.367-.365 1.426-1.36 2.354-2.214.928-.853 2.429-2.256 3.334-3.118a128.53 128.53 0 012.322-2.166c.373-.33.988-1.003 1.367-1.495.617-.8.755-.894 1.297-.894.497 0 .715.116 1.198.639.356.384.805.681 1.128.746.954.193 1.057.247 1.248.667.263.577.232 1.37-.075 1.948-.437.823-1.052 3.062-.939 3.42.059.184.39.593.735.91l.628.573-.401.433c-.507.546-.96.464-1.674-.305-.586-.631-.79-1.378-.624-2.295.06-.338.148-1.029.195-1.536.054-.591.197-1.044.397-1.259.172-.184.313-.439.313-.565 0-.232-.71-.75-1.821-1.327l-.597-.31-2.096 1.947a233.02 233.02 0 00-2.383 2.233c-.158.157-.348.285-.422.285-.075 0-.227.166-.338.368-.112.202-.563.653-1.004 1.003-.44.35-.84.754-.886.898-.047.144-.385.433-.751.641-.366.21-.815.632-.996.94-.181.307-.438.558-.57.558-.131 0-.65.404-1.151.898-.502.494-.992.898-1.088.898-.097 0-.436.276-.754.613-.318.336-1.013.906-1.543 1.265-.53.36-1.344 1.002-1.808 1.428-.464.427-.91.779-.991.782-.081.003-.699.603-1.372 1.333-2.388 2.588-3.294 3.39-4.492 3.973-.638.311-1.35.566-1.584.566-.388 0-1.787-1.006-2.38-1.71-.295-.35-.714-.311-1.362.129-.307.208-1.144.695-1.86 1.082-1.148.621-1.447.711-2.526.759-1.079.048-1.309.004-1.925-.364z" stroke-width=".163"/></svg>