<svg xmlns="http://www.w3.org/2000/svg" height="24.087" width="50.773"><path d="M47.582 6.857c-.117-.305.128-.798.775-1.554.261-.307.478-.63.481-.72.003-.09.148-.457.322-.817.498-1.032.428-1.678-.262-2.384-.436-.447-.56-.688-.481-.937.151-.476.643-.578 1.297-.268.847.402 1.134 1.149 1.043 2.711-.068 1.183-.125 1.35-.78 2.302-1.186 1.72-2.124 2.373-2.395 1.667zM19.055 17.763c.295-.195.7-1.097.814-1.817.102-.634.085-.67-.299-.67-.343 0-.46.143-.755.913-.522 1.364-.423 2.013.24 1.574zM1.072 23.92c-.15-.242.082-2.06.363-2.844.343-.957.544-3.18.361-3.993-.185-.825-.72-1.59-1.331-1.909-.6-.311-.625-.99-.04-1.137.896-.225 2.034.4 2.501 1.377.24.5.362.591.756.562.28-.02.707-.261 1.055-.595.745-.713 1.565-1.119 3.173-1.569 1.074-.3 1.358-.326 1.755-.162.647.268 1.4 1.161 1.606 1.907.21.758.224 2.024.027 2.528-.081.206-.276.834-.434 1.395-.242.859-.256 1.125-.09 1.681.27.902.983 1.35 1.955 1.227.78-.099 2.634-.868 2.634-1.093 0-.078.1-.141.223-.141.511 0 1.057-1.202 1.41-3.102.446-2.402.956-3.48 1.94-4.105.908-.576 1.475-.594 1.975-.062.31.33.383.594.396 1.43.012.853-.078 1.214-.536 2.146-.303.616-.83 1.4-1.171 1.741-1.113 1.113-1.2 1.51-.498 2.261.328.351.625.507.968.507.647 0 3.501-1.383 4.227-2.048.192-.176.446-.4.564-.5.119-.098.473-.49.787-.871.315-.38.804-.789 1.088-.908.284-.119.687-.387.895-.597.9-.908 3.246-2.658 4.242-3.163.594-.302 1.126-.667 1.181-.81.056-.145.414-.402.797-.572.382-.17.82-.442.97-.604.152-.162.577-.515.947-.784.369-.27 1.123-.857 1.677-1.306.553-.45 1.313-1 1.69-1.225.792-.473 2.557-1.667 2.677-1.812.045-.054.382-.286.75-.516.367-.23.771-.522.898-.65.354-.353 1.227-.479 1.451-.209.393.473-.33 1.124-2.569 2.313-.291.155-.53.348-.53.43 0 .223-.7.76-1 .765-.146.003-.762.413-1.37.911-.607.498-1.333 1.023-1.612 1.165-.28.142-.802.513-1.161.823-.94.813-3.07 2.324-3.28 2.328-.1.002-.313.15-.476.331-.163.18-.87.696-1.57 1.145-.7.45-1.51 1.11-1.797 1.468-.288.358-.603.652-.7.652-.23.002-2.658 1.978-2.96 2.41-.129.184-.694.634-1.256 1.001a78.08 78.08 0 00-1.836 1.24c-.447.315-.924.573-1.06.573-.137 0-.476.14-.755.31-.863.526-2.477.036-3.245-.986-.261-.347-.575-.63-.698-.63s-.54.265-.93.59c-.456.382-1.2.754-2.105 1.052-1.56.515-2.208.505-3.304-.05-.555-.282-.73-.498-1.047-1.296-.405-1.02-.41-.92.165-3.072.278-1.04.194-2.537-.178-3.167-.186-.315-.475-.617-.642-.67-.302-.096-2.267.465-2.44.696-.05.066-.384.278-.743.471-.36.193-.77.574-.914.848-.143.273-.488.757-.768 1.076-.578.658-.91 1.643-1.183 3.507-.16 1.096-.271 1.383-.725 1.879-.537.586-.951.735-1.15.413z" stroke-width=".163"/></svg>