<svg xmlns="http://www.w3.org/2000/svg" height="29.684" width="53.126"><path d="M.092 10.21c-.268-.323.083-1.399.623-1.902.787-.735 1.149-1.657 1.149-2.926 0-1.078-.026-1.157-.49-1.487-.628-.447-.695-1.249-.116-1.394.555-.14 1.172.16 1.666.806.549.72.658 1.503.422 3.024-.149.96-.293 1.325-.742 1.873-.307.374-.63.87-.718 1.101-.09.237-.453.574-.83.77-.793.413-.739.406-.963.135zm22.87-.616c1.376-.488 3.124-1.539 3.836-2.305.337-.363.738-.78.89-.928.362-.352.612-1.476.617-2.771.004-.993-.025-1.07-.63-1.673-.59-.59-.699-.634-1.576-.634-1.485 0-2.686.664-4.046 2.237-.163.188-.478.88-.7 1.537-.222.657-.496 1.307-.608 1.445-.35.429-1.287 2.945-1.19 3.196.145.378 2.23.315 3.408-.103zm-12.19 6.774c.302-.143.801-.547 1.108-.898.508-.58.578-.785.767-2.269.273-2.143.106-2.708-1.053-3.558-.655-.48-.964-.602-1.503-.59-1.074.024-2.571 1.114-2.782 2.026a17.81 17.81 0 01-.333 1.141c-.131.403-.28 1.471-.331 2.373-.091 1.609-.086 1.644.297 1.827.61.293 3.176.258 3.829-.051zM2.34 29.388l-.377-.305.376-1.287c.206-.707.49-1.728.63-2.266.14-.539.352-1.21.472-1.494.12-.283.222-.724.225-.98.003-.255.12-.905.258-1.444.14-.54.361-1.604.493-2.367.133-.764.347-1.762.477-2.218.13-.457.236-1.112.236-1.456 0-1.06.593-4.521.867-5.06.489-.963 1.383-1.778 2.53-2.307 1.332-.616 1.985-.676 3.007-.28.825.318 1.251.673 2.123 1.764l.648.81-.038 1.803c-.056 2.646-.122 2.509.826 1.717.45-.378 1.003-.999 1.226-1.38.223-.38.551-.824.73-.986.179-.161.325-.384.325-.493 0-.11.103-.285.227-.389.125-.103.265-.388.311-.632.11-.575.465-1.518 1.086-2.873.275-.599.5-1.202.5-1.34 0-.422 1.07-2.578 1.443-2.908.194-.17.352-.375.352-.454 0-.232 1.13-1.16 1.99-1.632 1.327-.729 2.335-.993 3.502-.919 1.043.066 1.063.077 1.939 1.011 1.043 1.112 1.142 1.478.907 3.346-.141 1.127-.272 1.52-.745 2.232-.315.475-.573.94-.573 1.032 0 .092-.35.406-.776.696-.426.29-.835.625-.907.745-.152.251-2.024 1.215-2.93 1.51-.495.16-.611.277-.611.615 0 .23.14.646.312.926s.48 1.086.683 1.79c.204.706.468 1.32.586 1.365a.357.357 0 01.215.307c0 .123.202.269.449.324.247.055.583.136.746.181.887.242 3.318-1.604 4.428-3.363.233-.368.642-.865.91-1.104.268-.239.487-.528.487-.643 0-.31.91-.94 2.204-1.53.947-.43 1.293-.507 2.016-.45.963.075 1.443.455 2.062 1.63.39.741.645.763 1.42.123.328-.27 1.06-.71 1.63-.98 1.789-.846 3.193-.58 3.974.751.232.395.517.72.633.72.116 0 .622-.295 1.123-.654.501-.36 1.024-.653 1.16-.653.136 0 .294-.075.35-.166.184-.297 1.247-.65 1.959-.65.562 0 .747.078.963.408.148.224.375.408.505.408.526 0 1.22 2.034 1.223 3.585.002 1.11-.712 3.523-1.085 3.667-.337.13-.86-.096-.961-.416-.055-.172.025-.688.178-1.147.214-.644.26-1.216.203-2.496-.063-1.42-.13-1.736-.459-2.182-.53-.717-1.089-.686-2.384.132-.569.359-1.09.656-1.16.66-.353.018-1.195 1.017-1.716 2.033-1.565 3.054-1.989 3.602-2.479 3.195-.383-.317-.32-.723.313-2.04.357-.743.61-1.554.673-2.164.098-.93.078-1.002-.425-1.575-.423-.481-.642-.6-1.112-.6-.703 0-1.994.59-1.994.913 0 .126-.108.23-.24.23-.38 0-2.942 3.422-3.117 4.163-.214.909-.876 1.334-1.345.865-.266-.266-.246-.787.059-1.516.354-.848.883-3.002.886-3.61.004-.735-.639-1.372-1.383-1.372-.672 0-1.62.355-1.823.683-.077.123-.443.46-.814.749-.371.288-.805.799-.964 1.134-.16.335-.37.694-.468.796-.099.103-.583.663-1.077 1.246s-1.304 1.324-1.8 1.648c-1.67 1.09-4.07 1.185-4.94.196-.474-.541-1.097-1.84-1.097-2.289 0-1.134-1.051-2.476-2.122-2.711-.422-.093-.853-.314-1.012-.52-.376-.49-.376-.49-1.56 1.741-.136.258-.697.882-1.245 1.388a50.902 50.902 0 00-1.815 1.77c-.463.48-1.03.899-1.307.964-.27.063-.637.208-.817.322-.714.453-2.465.762-4.467.788-2.37.032-2.292-.032-2.624 2.136-.278 1.816-.476 2.733-.917 4.245-.708 2.426-.919 3.263-1.004 3.99-.134 1.131-.635 1.442-1.368.849z" stroke-width=".163"/></svg>