<?xml version="1.0" encoding="UTF-8" standalone="no"?>
<svg
   xmlns:dc="http://purl.org/dc/elements/1.1/"
   xmlns:cc="http://creativecommons.org/ns#"
   xmlns:rdf="http://www.w3.org/1999/02/22-rdf-syntax-ns#"
   xmlns:svg="http://www.w3.org/2000/svg"
   xmlns="http://www.w3.org/2000/svg"
   id="svg2502"
   viewBox="0 0 53.205294 26.188808"
   version="1.1"
   height="26.188808"
   width="53.205296">
  <defs
     id="defs2506" />
  <metadata
     id="metadata2">
    <rdf:RDF>
      <cc:Work
         rdf:about="">
        <dc:format>image/svg+xml</dc:format>
        <dc:type
           rdf:resource="http://purl.org/dc/dcmitype/StillImage" />
        <dc:title />
      </cc:Work>
    </rdf:RDF>
  </metadata>
  <g
     transform="translate(-428.41733,-383.2771)"
     style="stroke-width:0.16327"
     id="g2500">
    <path
       d="m 428.47,390.29 c -0.18147,-0.47288 0.10646,-1.0233 0.85709,-1.6383 0.41653,-0.34132 0.89351,-0.9204 1.0599,-1.2868 0.31923,-0.70291 0.42157,-2.2173 0.14983,-2.2173 -0.18511,0 -0.81964,-1.181 -0.81964,-1.5255 0,-0.2823 0.75299,-0.44969 1.2216,-0.27154 0.44093,0.16764 1.2274,1.6158 1.2274,2.2601 0,0.86952 -0.35187,2.2057 -0.77019,2.9247 -0.22204,0.38163 -0.45182,0.69479 -0.51063,0.69591 -0.0588,0.002 -0.42238,0.29499 -0.80792,0.65306 -0.72924,0.67728 -1.4349,0.85542 -1.6075,0.40577 z m 8.6845,6.6998 c 2.1513,-1.0726 3.5559,-4.0196 2.7897,-5.8533 -0.27313,-0.65368 -1.8934,-1.5808 -2.7627,-1.5808 -0.58656,0 -2.0108,0.83142 -2.249,1.3129 -0.0648,0.13095 -0.29997,0.60545 -0.52261,1.0544 -0.30418,0.61339 -0.45752,1.3198 -0.6168,2.8418 l -0.21197,2.0254 0.37184,0.30109 c 0.57177,0.46301 2.171,0.41227 3.2016,-0.10155 z m -7.2414,12.288 c -0.3182,-0.3182 -0.22788,-1.0057 0.30787,-2.3437 0.2771,-0.69199 0.53689,-1.671 0.57731,-2.1756 0.0404,-0.50458 0.1407,-1.2848 0.22282,-1.7338 0.0821,-0.44898 0.269,-1.6612 0.41529,-2.6939 0.14628,-1.0326 0.37033,-2.455 0.49787,-3.1609 0.12755,-0.70583 0.23191,-1.5764 0.23191,-1.9345 0,-0.35816 0.10447,-0.88268 0.23216,-1.1656 0.12769,-0.28296 0.26932,-0.77161 0.31474,-1.0859 0.26821,-1.8564 0.44532,-2.2395 1.5936,-3.448 1.1191,-1.1778 2.8064,-1.5639 4.4717,-1.0233 1.9346,0.628 2.0596,0.75034 2.7161,2.6584 0.22027,0.6402 0.2833,1.1278 0.21295,1.6469 -0.11992,0.88477 -0.53414,2.1085 -0.83428,2.4646 -0.61445,0.72908 0.20297,0.80886 1.5062,0.14702 0.72958,-0.3705 3.0112,-2.5553 3.0112,-2.8834 0,-0.11837 0.0631,-0.21522 0.14014,-0.21522 0.13375,0 0.58874,-0.62377 2.0836,-2.8564 0.87895,-1.3128 1.4249,-1.5648 2.4897,-1.1495 0.41573,0.16217 1.2702,0.38572 1.8987,0.49675 1.7088,0.30185 1.7582,0.33527 1.6601,1.1241 -0.0459,0.36895 -0.34234,1.4258 -0.65883,2.3484 -0.31733,0.92518 -0.59769,2.0929 -0.62507,2.6035 -0.0454,0.84658 -0.0147,0.94387 0.35849,1.1363 0.86799,0.44752 2.0736,0.26915 4.0728,-0.60257 1.0278,-0.44814 1.9473,-0.81482 2.0432,-0.81482 0.0959,0 0.44862,-0.14694 0.7837,-0.32653 0.33507,-0.17959 0.7521,-0.32653 0.9267,-0.32653 0.29472,0 2.561,-0.97641 3.6837,-1.5871 0.78746,-0.42833 0.93647,-0.50144 1.7959,-0.88109 1.7492,-0.77267 2.1624,-0.90408 4.5714,-1.4538 0.35918,-0.082 1.498,-0.19376 2.5306,-0.24842 1.4613,-0.0774 2.0766,-0.042 2.7755,0.15961 0.49388,0.14246 1.3625,0.38036 1.9303,0.52867 0.89623,0.23409 1.16,0.40046 2,1.2616 0.53221,0.54555 0.96801,1.103 0.96847,1.2389 0,0.13584 0.18185,0.54085 0.40307,0.90003 0.50999,0.82802 0.53432,1.6519 0.0609,2.0625 -0.19333,0.16767 -0.40235,0.30486 -0.46449,0.30486 -0.20481,0 -0.65338,-0.592 -0.65338,-0.86232 0,-0.36855 -0.30203,-1.0308 -0.92459,-2.0275 -0.74271,-1.189 -2.106,-1.8624 -4.8167,-2.3792 -0.69998,-0.13346 -1.2162,-0.12474 -2.1224,0.0358 -1.9916,0.35291 -3.724,0.80354 -4.0991,1.0663 -0.19509,0.13665 -0.51307,0.24845 -0.70662,0.24845 -0.47107,0 -1.4467,0.41156 -2.3811,1.0044 -0.42067,0.26693 -1.1186,0.61868 -1.551,0.78169 -0.43239,0.163 -1.4107,0.52849 -2.1739,0.81219 -0.76327,0.28369 -1.6193,0.6233 -1.9022,0.75466 -0.28298,0.13138 -0.65878,0.23886 -0.83514,0.23886 -0.17636,0 -0.49587,0.13518 -0.71001,0.30041 -0.21415,0.16521 -0.64334,0.3871 -0.95378,0.49308 -0.31041,0.10597 -0.72984,0.34809 -0.93203,0.53805 -0.32536,0.30565 -0.57027,0.34683 -2.1295,0.35796 -2.8084,0.0201 -3.4482,-0.47361 -3.2338,-2.4951 0.0518,-0.48796 0.15767,-0.96552 0.23534,-1.0612 0.24063,-0.29652 0.8287,-2.3848 0.82396,-2.9259 -0.004,-0.44237 -0.10529,-0.56426 -0.73286,-0.88077 -0.99768,-0.50317 -2.0382,-0.47342 -2.0382,0.0583 0,0.12507 -0.0645,0.22743 -0.14346,0.22743 -0.0789,0 -0.22864,0.20204 -0.33275,0.44897 -0.1041,0.24694 -0.55833,0.85307 -1.0094,1.3469 -0.45105,0.49388 -0.94165,1.1 -1.0902,1.3469 -0.14856,0.24694 -0.34611,0.44944 -0.43899,0.44999 -0.0929,0 -0.55283,0.38629 -1.0221,0.85715 -1.0597,1.0633 -1.0773,1.0779 -2.259,1.8688 -1.0284,0.68832 -1.4585,0.87494 -2.7653,1.2 -0.44898,0.11166 -1.1852,0.37321 -1.6361,0.58121 -0.80167,0.36983 -2.9806,0.69497 -4.3785,0.65337 l -0.62683,-0.0186 -0.38793,1.4694 c -0.21337,0.80816 -0.3905,1.7208 -0.3936,2.0281 -0.0142,1.4032 -1.1637,5.8899 -1.6633,6.4919 -0.22242,0.268 -0.66369,0.27702 -0.9219,0.0188 z"
       id="apparent" />
  </g>
</svg>
