<?xml version="1.0" encoding="UTF-8" standalone="no"?>
<svg
   xmlns:dc="http://purl.org/dc/elements/1.1/"
   xmlns:cc="http://creativecommons.org/ns#"
   xmlns:rdf="http://www.w3.org/1999/02/22-rdf-syntax-ns#"
   xmlns:svg="http://www.w3.org/2000/svg"
   xmlns="http://www.w3.org/2000/svg"
   id="svg2502"
   viewBox="0 0 64.48863 25.302149"
   version="1.1"
   height="25.302149"
   width="64.488632">
  <defs
     id="defs2506" />
  <metadata
     id="metadata2">
    <rdf:RDF>
      <cc:Work
         rdf:about="">
        <dc:format>image/svg+xml</dc:format>
        <dc:type
           rdf:resource="http://purl.org/dc/dcmitype/StillImage" />
        <dc:title />
      </cc:Work>
    </rdf:RDF>
  </metadata>
  <g
     transform="translate(-424.14811,-407.68951)"
     style="stroke-width:0.16327"
     id="g2500">
    <path
       d="m 424.27,415.73 c -0.30137,-0.30136 -0.0409,-0.93458 0.7483,-1.819 0.68326,-0.76576 0.9151,-1.1782 1.1429,-2.033 0.3909,-1.4671 0.36352,-1.8341 -0.21302,-2.8556 -0.39445,-0.69894 -0.45853,-0.9321 -0.30653,-1.1152 0.24882,-0.2998 0.5041,-0.29203 1.1926,0.0363 0.82384,0.39285 0.99316,0.84372 0.9946,2.6482 0.002,1.3854 -0.0543,1.6946 -0.46322,2.5841 -0.72517,1.5774 -2.5591,3.0907 -3.0956,2.5542 z m 55.013,2.0233 c -0.25124,-0.18542 -0.2733,-0.28791 -0.12262,-0.56946 0.23459,-0.43836 0.48243,-0.51143 2.3352,-0.68853 0.83734,-0.08 2.3673,-0.25848 3.4,-0.39654 3.2686,-0.43699 3.2301,-0.4352 3.5027,-0.16256 0.30564,0.30562 0.31282,0.41719 0.0483,0.74998 -0.14191,0.17856 -0.62684,0.2901 -1.5918,0.36612 -0.76326,0.0601 -1.8286,0.17868 -2.3673,0.26344 -0.53878,0.0848 -1.6321,0.22644 -2.4297,0.3148 -0.79754,0.0884 -1.6792,0.20302 -1.9592,0.25477 -0.31406,0.0581 -0.62646,0.008 -0.81548,-0.13202 z m -45.816,2.5154 c 0.90589,-0.15093 2.7885,-1.4785 3.0029,-2.1176 0.0802,-0.23892 0.28219,-0.62942 0.44898,-0.86777 0.44834,-0.6407 0.3922,-1.7015 -0.14573,-2.7534 -0.37442,-0.73221 -0.56238,-0.91824 -1.1319,-1.1202 -0.5856,-0.20771 -0.77886,-0.21058 -1.3561,-0.0201 -0.85097,0.28085 -1.4152,0.85818 -2.1755,2.2262 -0.67495,1.2144 -1.6301,3.8484 -1.5493,4.2728 0.0791,0.4159 1.5429,0.60735 2.9067,0.38015 z m -6.294,12.437 c -0.23515,-0.23515 -0.25996,-0.47954 -0.16615,-1.6358 0.0607,-0.74766 0.22165,-1.8906 0.35775,-2.5399 0.13609,-0.64927 0.30455,-1.9214 0.37436,-2.8269 0.1276,-1.6554 0.76462,-4.6027 1.3556,-6.272 0.17486,-0.49387 0.37311,-1.1551 0.44059,-1.4694 0.14405,-0.67102 1.2535,-3.2371 1.553,-3.5918 0.11372,-0.13469 0.25114,-0.37033 0.30539,-0.52364 0.0543,-0.15331 0.41442,-0.47654 0.80033,-0.71829 0.38592,-0.24174 0.73841,-0.48365 0.78331,-0.53758 0.26449,-0.31765 1.2749,-0.70669 2.0407,-0.78573 0.70318,-0.0726 0.98163,-0.0281 1.3417,0.21445 0.24988,0.16831 0.59824,0.38103 0.77412,0.47272 1.155,0.6021 1.8426,3.2321 1.3158,5.0332 -0.17795,0.60847 -0.44909,1.1033 -0.75278,1.3739 -0.26106,0.23261 -0.47466,0.56568 -0.47466,0.74017 0,0.26347 0.075,0.29841 0.44279,0.2061 0.24353,-0.0611 0.7615,-0.32622 1.151,-0.58912 0.38953,-0.26289 0.76921,-0.478 0.84372,-0.478 0.0745,0 0.44056,-0.40408 0.81342,-0.89796 0.37288,-0.49387 0.73923,-0.89795 0.81411,-0.89795 0.0749,0 0.4014,-0.34898 0.72561,-0.77552 0.32422,-0.42653 0.67088,-0.8709 0.77037,-0.98749 0.0995,-0.1166 0.4025,-0.70436 0.67336,-1.3061 0.56783,-1.2616 1.1952,-2.1554 1.5128,-2.1554 0.12121,0 0.61339,0.18295 1.0937,0.40656 0.57556,0.26793 1.163,0.40712 1.7228,0.40816 1.9814,0.004 2.2663,0.72044 1.4581,3.6686 -0.14672,0.5352 -0.26675,1.3899 -0.26675,1.8994 0,0.87902 0.0346,0.95752 0.67728,1.5382 l 0.67729,0.61189 1.2828,-0.10697 c 0.70552,-0.0588 1.4844,-0.18831 1.7309,-0.28769 0.24647,-0.0994 0.66853,-0.27298 0.93791,-0.38573 0.26939,-0.11276 0.93062,-0.33565 1.4694,-0.49529 0.94722,-0.28068 2.5689,-0.99817 3.9184,-1.7336 0.35918,-0.19575 0.83673,-0.45517 1.0612,-0.57647 3.1341,-1.6934 6.7092,-2.5785 10.367,-2.5666 2.1264,0.007 3.5035,0.2487 4.1975,0.73698 0.2433,0.1712 0.51528,0.31127 0.60441,0.31127 0.30245,0 1.1754,1.4703 1.4118,2.3779 0.27896,1.071 0.29226,1.5737 0.0635,2.3976 -0.1537,0.55343 -0.22312,0.61224 -0.72278,0.61224 -0.64579,0 -0.67554,-0.0641 -0.83294,-1.7959 -0.16423,-1.8067 -0.60531,-2.4698 -2.0275,-3.0482 -0.5951,-0.24201 -1.1845,-0.29878 -3.102,-0.29878 -3.1655,0 -5.472,0.42098 -7.1988,1.3139 -0.25218,0.1304 -0.59481,0.2371 -0.76142,0.2371 -0.1666,0 -0.55597,0.1904 -0.86524,0.42311 -0.49654,0.37362 -3.4271,1.8626 -3.666,1.8626 -0.0503,0 -0.28385,0.12601 -0.5189,0.28002 -0.48635,0.31866 -2.1629,1.0242 -2.4365,1.0254 -0.0998,0 -0.68758,0.23892 -1.3061,0.53003 -1.0466,0.49253 -1.2449,0.52935 -2.8577,0.53061 -1.7068,0.002 -1.7407,-0.006 -2.2315,-0.48846 -0.27414,-0.26939 -0.64887,-0.62857 -0.83273,-0.79819 -0.48827,-0.45041 -0.89106,-1.7894 -0.75738,-2.5176 0.14381,-0.78334 0.5548,-2.1537 0.76017,-2.5346 0.0888,-0.16469 0.11655,-0.50381 0.0617,-0.75357 -0.0913,-0.41553 -0.17887,-0.46275 -1.0304,-0.5553 -0.51186,-0.0556 -1.1317,-0.14735 -1.3774,-0.20382 -0.40392,-0.0928 -0.47889,-0.0343 -0.78121,0.60984 -0.44731,0.95307 -1.3279,2.1816 -2.2115,3.0854 -0.39805,0.40717 -0.72374,0.82704 -0.72374,0.93305 0,0.10599 -0.1653,0.28016 -0.36734,0.38703 -0.20204,0.10689 -0.7474,0.51764 -1.2119,0.91279 -1.243,1.0574 -3.41,2.0963 -4.8697,2.3345 -0.44898,0.0733 -1.2981,0.21666 -1.887,0.31862 -0.80286,0.13903 -1.252,0.13845 -1.7959,-0.002 -0.39891,-0.10325 -0.99037,-0.22372 -1.3143,-0.26771 -0.7195,-0.0977 -0.7948,0.0386 -0.96425,1.7458 -0.0668,0.67347 -0.27602,2.1796 -0.46483,3.3469 -0.18882,1.1673 -0.44524,2.789 -0.56985,3.6036 -0.32248,2.1081 -0.66135,2.5932 -1.3386,1.9159 z"
       id="apparently" />
  </g>
</svg>
