<svg xmlns="http://www.w3.org/2000/svg" height="25.302" width="64.489"><path d="M.122 8.04C-.18 7.74.08 7.106.87 6.221c.683-.765.915-1.178 1.143-2.033.391-1.467.364-1.834-.213-2.855C1.406.634 1.342.4 1.494.218c.248-.3.504-.292 1.192.036.824.393.993.844.995 2.648.002 1.386-.055 1.695-.463 2.584C2.492 7.064.658 8.577.122 8.04zm55.013 2.024c-.251-.186-.273-.288-.123-.57.235-.438.483-.511 2.335-.688.838-.08 2.368-.259 3.4-.397 3.27-.437 3.23-.435 3.503-.162.306.305.313.417.048.75-.141.178-.626.29-1.591.366a38.15 38.15 0 00-2.368.263 66.9 66.9 0 01-2.43.315 41.16 41.16 0 00-1.959.255c-.314.058-.626.008-.815-.132zM9.319 12.579c.906-.15 2.788-1.478 3.003-2.117.08-.24.282-.63.449-.868.448-.64.392-1.702-.146-2.754-.374-.732-.562-.918-1.132-1.12-.585-.207-.779-.21-1.356-.02-.85.281-1.415.858-2.175 2.226-.675 1.215-1.63 3.849-1.55 4.273.08.416 1.543.607 2.907.38zM3.025 25.016c-.235-.235-.26-.48-.166-1.636.06-.747.221-1.89.357-2.54.137-.649.305-1.92.375-2.826.127-1.656.764-4.603 1.355-6.272.175-.494.374-1.156.441-1.47.144-.67 1.254-3.237 1.553-3.592.114-.134.251-.37.305-.523.055-.154.415-.477.8-.719.387-.241.74-.483.784-.537.265-.318 1.275-.707 2.04-.786.704-.072.982-.028 1.342.215.25.168.599.38.775.472 1.155.602 1.842 3.232 1.315 5.034-.178.608-.449 1.103-.752 1.373-.261.233-.475.566-.475.74 0 .264.075.299.443.207.243-.061.761-.327 1.15-.59.39-.262.77-.477.844-.477.075 0 .441-.405.814-.898.373-.494.74-.898.814-.898.075 0 .401-.35.726-.776.324-.426.67-.87.77-.987.1-.117.402-.705.673-1.306.568-1.262 1.196-2.156 1.513-2.156.121 0 .614.183 1.094.407a4.124 4.124 0 001.723.408c1.981.004 2.266.72 1.458 3.668-.147.536-.267 1.39-.267 1.9 0 .879.035.957.677 1.538l.678.612 1.282-.107c.706-.059 1.485-.188 1.731-.288.247-.1.669-.273.938-.385.27-.113.93-.336 1.47-.496.947-.28 2.568-.998 3.918-1.733l1.061-.577c3.134-1.693 6.71-2.578 10.367-2.566 2.127.007 3.504.248 4.198.737.243.17.515.31.604.31.303 0 1.175 1.471 1.412 2.379.279 1.07.292 1.573.063 2.397-.153.554-.223.613-.722.613-.646 0-.676-.064-.833-1.796-.165-1.807-.606-2.47-2.028-3.048-.595-.243-1.184-.3-3.102-.3-3.165 0-5.472.422-7.199 1.315-.252.13-.594.237-.761.237-.167 0-.556.19-.865.423-.497.373-3.427 1.862-3.666 1.862-.05 0-.284.126-.52.28-.486.32-2.162 1.025-2.436 1.026-.1 0-.687.239-1.306.53-1.046.492-1.245.53-2.858.53-1.706.002-1.74-.006-2.231-.488-.274-.27-.649-.629-.833-.798-.488-.45-.89-1.79-.757-2.518.144-.783.555-2.153.76-2.534.089-.165.117-.504.062-.754-.092-.415-.18-.463-1.03-.555a15.91 15.91 0 01-1.378-.204c-.404-.093-.479-.034-.781.61-.448.953-1.328 2.181-2.212 3.085-.398.407-.724.827-.724.933 0 .106-.165.28-.367.387-.202.107-.747.518-1.212.913-1.243 1.057-3.41 2.096-4.87 2.335-.448.073-1.298.216-1.886.318-.803.14-1.252.139-1.796-.002a13.89 13.89 0 00-1.315-.268c-.72-.097-.794.04-.964 1.746-.067.674-.276 2.18-.465 3.347a529.574 529.574 0 00-.57 3.604c-.322 2.108-.66 2.593-1.338 1.916z" stroke-width=".163"/></svg>