<svg xmlns="http://www.w3.org/2000/svg" height="29.686" width="53.127"><path d="M.092 10.215c-.268-.323.083-1.399.623-1.902.786-.735 1.148-1.657 1.148-2.927 0-1.078-.026-1.156-.49-1.487-.627-.447-.694-1.248-.116-1.393.556-.14 1.173.158 1.666.806.55.72.659 1.502.423 3.024-.15.96-.294 1.325-.743 1.873-.307.374-.63.87-.717 1.1-.09.238-.453.574-.831.771-.793.413-.738.406-.963.135zm22.873-.616c1.377-.488 3.124-1.538 3.836-2.305.337-.363.738-.78.89-.929.362-.352.612-1.476.617-2.77.004-.993-.025-1.07-.63-1.674-.59-.59-.699-.634-1.576-.634-1.484 0-2.685.664-4.045 2.237-.164.189-.479.88-.701 1.537-.222.657-.496 1.307-.608 1.445-.35.429-1.287 2.945-1.19 3.196.145.378 2.23.315 3.407-.103zm-12.193 6.774c.302-.143.801-.547 1.109-.898.508-.58.577-.786.766-2.27.273-2.142.106-2.707-1.052-3.558-.656-.48-.964-.602-1.503-.59-1.075.024-2.57 1.114-2.782 2.026-.052.224-.202.738-.333 1.141-.13.403-.28 1.471-.33 2.373-.092 1.61-.086 1.644.296 1.828.61.292 3.176.258 3.83-.052zM2.34 29.39l-.377-.305.375-1.287c.207-.707.49-1.727.63-2.266.14-.539.352-1.211.473-1.494.12-.283.221-.724.225-.98.003-.255.119-.906.258-1.444.138-.54.36-1.604.493-2.368.132-.763.347-1.761.476-2.218.13-.457.236-1.112.236-1.456 0-1.059.594-4.521.868-5.06.488-.963 1.383-1.778 2.529-2.307 1.333-.615 1.986-.676 3.008-.28.825.318 1.25.673 2.123 1.765l.647.81-.038 1.802c-.055 2.646-.12 2.51.826 1.717.451-.378 1.003-.999 1.226-1.38.223-.38.552-.824.73-.986.18-.162.326-.384.326-.494 0-.11.102-.284.227-.388.125-.103.265-.388.311-.632.109-.575.465-1.518 1.086-2.873.274-.599.498-1.202.498-1.34 0-.423 1.07-2.578 1.445-2.909.193-.171.351-.375.351-.454 0-.232 1.132-1.16 1.99-1.632 1.327-.729 2.335-.993 3.502-.919 1.044.066 1.063.077 1.94 1.011 1.042 1.112 1.142 1.478.907 3.346-.141 1.127-.272 1.52-.745 2.232-.315.475-.573.94-.573 1.033 0 .092-.35.405-.776.695-.426.29-.835.626-.907.746-.152.25-2.025 1.215-2.93 1.509-.495.16-.612.277-.612.615 0 .23.14.646.313.926.171.28.479 1.086.683 1.791.204.705.467 1.32.585 1.365a.357.357 0 01.215.306c0 .124.202.27.45.325.246.055.582.136.746.18.887.243 3.318-1.603 4.428-3.362.232-.368.642-.865.91-1.104.267-.238.487-.528.487-.643 0-.31.909-.94 2.204-1.529.946-.43 1.292-.507 2.016-.45.963.075 1.443.455 2.062 1.63.39.74.645.762 1.421.122.327-.27 1.06-.71 1.63-.98 1.789-.845 3.193-.58 3.973.751.232.396.517.72.633.72.116 0 .622-.294 1.124-.654.501-.359 1.023-.653 1.16-.653.136 0 .293-.074.35-.165.183-.298 1.247-.651 1.958-.651.563 0 .748.078.964.408.147.225.374.408.504.408.527 0 1.22 2.034 1.223 3.586.002 1.11-.712 3.523-1.084 3.666-.337.13-.86-.096-.961-.415-.055-.172.025-.688.178-1.148.214-.643.26-1.215.204-2.495-.064-1.421-.13-1.737-.46-2.183-.53-.716-1.09-.685-2.384.132-.568.36-1.09.656-1.16.66-.352.018-1.195 1.018-1.715 2.034-1.565 3.054-1.99 3.602-2.48 3.195-.383-.318-.32-.724.313-2.041.357-.743.61-1.554.674-2.163.097-.93.077-1.001-.426-1.574-.422-.482-.642-.6-1.111-.6-.703 0-1.994.59-1.994.912 0 .127-.108.23-.241.23-.38 0-2.94 3.422-3.116 4.164-.214.909-.876 1.334-1.345.865-.266-.266-.246-.787.059-1.516.354-.849.882-3.002.885-3.611.004-.735-.638-1.371-1.382-1.371-.672 0-1.619.355-1.823.683-.076.123-.443.46-.814.748-.37.289-.804.8-.963 1.135-.16.335-.37.693-.469.796-.098.103-.583.663-1.077 1.246s-1.304 1.325-1.8 1.648c-1.67 1.09-4.07 1.186-4.938.196-.475-.54-1.098-1.84-1.098-2.289 0-1.134-1.051-2.476-2.123-2.711-.422-.093-.852-.314-1.011-.52-.377-.49-.376-.49-1.56 1.74-.136.258-.697.883-1.245 1.388a51.203 51.203 0 00-1.815 1.769c-.463.48-1.03.9-1.308.965a3.208 3.208 0 00-.816.322c-.714.453-2.465.762-4.467.788-2.37.032-2.292-.032-2.624 2.137-.278 1.816-.477 2.733-.918 4.245-.708 2.426-.918 3.262-1.004 3.99-.134 1.13-.635 1.441-1.368.847z"/></svg>