<svg xmlns="http://www.w3.org/2000/svg" height="26.189" width="53.205"><path d="M.053 7.013C-.13 6.54.159 5.99.91 5.375c.416-.342.893-.92 1.06-1.287.319-.703.421-2.217.15-2.217C1.933 1.87 1.3.69 1.3.345c0-.282.753-.45 1.221-.272.441.168 1.228 1.616 1.228 2.26 0 .87-.352 2.206-.77 2.925-.222.382-.452.695-.511.696-.059.002-.422.295-.808.653-.73.678-1.435.856-1.607.406zm8.684 6.7c2.151-1.073 3.556-4.02 2.79-5.854-.273-.653-1.894-1.58-2.763-1.58-.586 0-2.01.831-2.249 1.313l-.522 1.054c-.305.613-.458 1.32-.617 2.842l-.212 2.025.372.301c.571.463 2.17.412 3.201-.101zM1.496 26c-.318-.318-.228-1.006.308-2.344.277-.692.537-1.671.577-2.176.04-.504.14-1.284.223-1.733.082-.45.269-1.662.415-2.694.146-1.033.37-2.455.498-3.161.127-.706.232-1.577.232-1.935 0-.358.104-.882.232-1.165.128-.283.27-.772.315-1.086.268-1.857.445-2.24 1.593-3.448 1.12-1.178 2.807-1.564 4.472-1.023 1.935.628 2.06.75 2.716 2.658.22.64.283 1.128.213 1.647-.12.885-.534 2.108-.834 2.464-.615.73.203.81 1.506.147.73-.37 3.011-2.555 3.011-2.883 0-.118.063-.215.14-.215.134 0 .59-.624 2.084-2.857.879-1.312 1.425-1.564 2.49-1.15.415.163 1.27.387 1.898.498 1.71.302 1.759.335 1.66 1.124-.045.369-.342 1.426-.658 2.348-.318.925-.598 2.093-.625 2.604-.046.846-.015.944.358 1.136.868.447 2.074.27 4.073-.603 1.028-.448 1.947-.814 2.043-.814.096 0 .449-.147.784-.327.335-.18.752-.326.926-.326.295 0 2.561-.977 3.684-1.588a17.7 17.7 0 011.796-.88c1.75-.773 2.162-.905 4.571-1.454.36-.082 1.498-.194 2.531-.249 1.461-.077 2.077-.042 2.776.16.493.142 1.362.38 1.93.528.896.234 1.16.4 2 1.262.532.546.968 1.103.968 1.239 0 .136.182.54.403.9.51.828.535 1.652.061 2.062-.193.168-.402.305-.464.305-.205 0-.654-.592-.654-.862 0-.369-.302-1.03-.924-2.028-.743-1.189-2.106-1.862-4.817-2.379-.7-.133-1.216-.124-2.122.036-1.992.353-3.724.804-4.1 1.066-.194.137-.512.249-.706.249-.471 0-1.447.411-2.381 1.004-.42.267-1.119.619-1.551.782-.432.163-1.41.528-2.174.812a37.94 37.94 0 00-1.902.755c-.283.131-.659.239-.835.239-.177 0-.496.135-.71.3a3.98 3.98 0 01-.954.493c-.31.106-.73.348-.932.538-.326.306-.57.347-2.13.358-2.808.02-3.448-.474-3.233-2.495.051-.488.157-.966.235-1.061.24-.297.829-2.385.824-2.926-.004-.442-.105-.564-.733-.88-.998-.504-2.038-.474-2.038.057 0 .125-.065.228-.144.228-.079 0-.228.202-.332.449-.105.247-.559.853-1.01 1.347-.45.494-.941 1.1-1.09 1.347-.149.247-.346.45-.439.45-.093 0-.553.386-1.022.857-1.06 1.063-1.077 1.078-2.26 1.869-1.028.688-1.458.875-2.764 1.2-.45.111-1.186.373-1.637.58-.801.37-2.98.696-4.378.654l-.627-.018-.388 1.469c-.213.808-.39 1.72-.393 2.028-.015 1.403-1.164 5.89-1.664 6.492-.222.268-.663.277-.922.019z" stroke-width=".163"/></svg>