<?xml version="1.0" encoding="UTF-8" standalone="no"?>
<svg
   xmlns:dc="http://purl.org/dc/elements/1.1/"
   xmlns:cc="http://creativecommons.org/ns#"
   xmlns:rdf="http://www.w3.org/1999/02/22-rdf-syntax-ns#"
   xmlns:svg="http://www.w3.org/2000/svg"
   xmlns="http://www.w3.org/2000/svg"
   id="svg2502"
   viewBox="0 0 53.12744 29.685766"
   version="1.1"
   height="29.685766"
   width="53.127441">
  <defs
     id="defs2506" />
  <metadata
     id="metadata2">
    <rdf:RDF>
      <cc:Work
         rdf:about="">
        <dc:format>image/svg+xml</dc:format>
        <dc:type
           rdf:resource="http://purl.org/dc/dcmitype/StillImage" />
        <dc:title />
      </cc:Work>
    </rdf:RDF>
  </metadata>
  <g
     transform="translate(-424.09786,-355.77502)"
     style="stroke-width:0.16327"
     id="g2500">
    <path
       d="m 424.19,365.99 c -0.26848,-0.32348 0.0833,-1.3986 0.62246,-1.9022 0.78689,-0.73507 1.1486,-1.6566 1.1486,-2.9265 0,-1.0784 -0.0258,-1.1566 -0.48979,-1.487 -0.62764,-0.44692 -0.69442,-1.2485 -0.11608,-1.3937 0.5556,-0.13944 1.1722,0.15891 1.6658,0.80603 0.54924,0.72008 0.65856,1.5028 0.42246,3.0245 -0.14895,0.96003 -0.29365,1.325 -0.74256,1.8728 -0.30666,0.37424 -0.62952,0.86969 -0.71747,1.101 -0.09,0.2368 -0.45303,0.57336 -0.83084,0.77027 -0.79244,0.41305 -0.73795,0.40542 -0.96253,0.13479 z m 22.873,-0.61576 c 1.3765,-0.48872 3.1238,-1.5387 3.8361,-2.3053 0.33721,-0.36289 0.73756,-0.78083 0.88964,-0.92874 0.36207,-0.35211 0.61247,-1.4758 0.61745,-2.7708 0.004,-0.99215 -0.025,-1.0686 -0.62988,-1.6735 -0.58984,-0.58986 -0.69925,-0.63386 -1.5761,-0.63386 -1.4846,0 -2.6858,0.66423 -4.0458,2.2372 -0.16307,0.18863 -0.47831,0.88035 -0.70054,1.5372 -0.2222,0.65682 -0.4958,1.3069 -0.60798,1.4446 -0.34937,0.42891 -1.2867,2.9452 -1.1905,3.1959 0.14516,0.37827 2.2297,0.31538 3.4076,-0.10281 z m -12.193,6.774 c 0.30226,-0.14343 0.80102,-0.54764 1.1084,-0.89827 0.50812,-0.57967 0.57768,-0.78553 0.76676,-2.2692 0.27313,-2.1432 0.10612,-2.7076 -1.0527,-3.5583 -0.65536,-0.48104 -0.96379,-0.60215 -1.5027,-0.59009 -1.0745,0.0241 -2.5707,1.1136 -2.7817,2.0256 -0.0519,0.22449 -0.20172,0.73805 -0.33282,1.1412 -0.13108,0.4032 -0.28015,1.4711 -0.33123,2.3731 -0.0911,1.6095 -0.0856,1.6435 0.29709,1.8273 0.60983,0.29283 3.1761,0.25837 3.8289,-0.0514 z m -8.4326,13.017 -0.37677,-0.30509 0.3755,-1.2867 c 0.20651,-0.70773 0.48981,-1.7276 0.62955,-2.2664 0.13972,-0.53878 0.35257,-1.2111 0.47298,-1.4941 0.12041,-0.28297 0.22153,-0.72379 0.22473,-0.97959 0.003,-0.25582 0.11938,-0.90595 0.25816,-1.4447 0.13879,-0.53878 0.36067,-1.6041 0.49308,-2.3674 0.1324,-0.76326 0.34685,-1.7616 0.47654,-2.2184 0.12969,-0.45687 0.2358,-1.1121 0.2358,-1.456 0,-1.0588 0.59353,-4.5208 0.86753,-5.0602 0.48875,-0.96221 1.3833,-1.7781 2.5293,-2.3068 1.3333,-0.61518 1.9859,-0.67605 3.0081,-0.28057 0.8248,0.31912 1.2509,0.67349 2.123,1.7655 l 0.64746,0.81073 -0.038,1.8015 c -0.0558,2.6456 -0.12126,2.5095 0.8258,1.7166 0.45116,-0.37775 1.0028,-0.99829 1.2259,-1.379 0.2231,-0.3807 0.55192,-0.82456 0.73071,-0.98637 0.17879,-0.16179 0.32508,-0.384 0.32508,-0.49378 0,-0.10979 0.1022,-0.28444 0.22713,-0.38811 0.12493,-0.10369 0.26488,-0.3882 0.31102,-0.63225 0.10882,-0.57559 0.46493,-1.5181 1.0856,-2.8732 0.2743,-0.59888 0.49873,-1.2021 0.49873,-1.3404 0,-0.42242 1.0702,-2.5776 1.4443,-2.9085 0.19342,-0.17105 0.35166,-0.37534 0.35166,-0.45396 0,-0.23232 1.1313,-1.1602 1.9897,-1.6318 1.3265,-0.72888 2.3347,-0.9935 3.5021,-0.91917 1.0433,0.0664 1.0627,0.0765 1.9394,1.0111 1.0428,1.1116 1.1421,1.4778 0.90764,3.3463 -0.14146,1.127 -0.27264,1.52 -0.74506,2.2318 -0.31535,0.4751 -0.57338,0.93969 -0.57338,1.0324 0,0.0927 -0.34898,0.40583 -0.77551,0.69582 -0.42653,0.28997 -0.83497,0.62539 -0.90765,0.74535 -0.15212,0.25111 -2.0242,1.2154 -2.9291,1.5087 -0.4959,0.16076 -0.61225,0.27773 -0.61225,0.61552 0,0.22937 0.14056,0.64612 0.31236,0.92612 0.17179,0.27999 0.47917,1.086 0.68306,1.791 0.20388,0.70506 0.46741,1.319 0.5856,1.3644 0.1182,0.0453 0.2149,0.18341 0.2149,0.30677 0,0.12338 0.20204,0.26929 0.44898,0.32425 0.24694,0.055 0.58297,0.13649 0.74673,0.18119 0.88702,0.24214 3.3176,-1.6037 4.428,-3.3628 0.23254,-0.36836 0.64191,-0.86498 0.90971,-1.1036 0.26782,-0.23863 0.48694,-0.52818 0.48694,-0.64346 0,-0.30978 0.90939,-0.94054 2.2041,-1.5288 0.94666,-0.43011 1.2928,-0.50748 2.016,-0.45073 0.96312,0.0756 1.4432,0.45519 2.0624,1.6308 0.38992,0.74036 0.64485,0.76227 1.4214,0.12218 0.32699,-0.26953 1.0601,-0.7103 1.629,-0.97946 1.7891,-0.84636 3.1934,-0.58117 3.9738,0.7504 0.23179,0.39551 0.51659,0.71912 0.63288,0.71912 0.11628,0 0.62183,-0.29388 1.1234,-0.65306 0.50159,-0.35918 1.0235,-0.65306 1.1598,-0.65306 0.1363,0 0.29391,-0.0746 0.35025,-0.16575 0.18379,-0.29737 1.2472,-0.65058 1.9588,-0.65058 0.56222,0 0.74738,0.0784 0.96341,0.40817 0.14711,0.22449 0.37408,0.40816 0.5044,0.40816 0.52663,0 1.2206,2.0341 1.2232,3.5854 0.002,1.1096 -0.71204,3.5232 -1.0845,3.6667 -0.3371,0.12985 -0.85974,-0.0963 -0.96116,-0.41582 -0.0545,-0.17169 0.0257,-0.68793 0.17828,-1.1472 0.2138,-0.64369 0.26043,-1.2156 0.2035,-2.4958 -0.0632,-1.4207 -0.12959,-1.7361 -0.4593,-2.1821 -0.52993,-0.71677 -1.0895,-0.68585 -2.384,0.13174 -0.56874,0.35918 -1.091,0.65604 -1.1605,0.65969 -0.35175,0.0185 -1.1945,1.018 -1.7151,2.0342 -1.5647,3.0543 -1.9894,3.6016 -2.4793,3.195 -0.383,-0.31788 -0.32078,-0.72387 0.31288,-2.0413 0.35724,-0.74275 0.60965,-1.5534 0.67333,-2.1626 0.0972,-0.93017 0.0779,-1.0017 -0.42511,-1.5746 -0.42281,-0.48154 -0.64254,-0.60018 -1.1116,-0.60018 -0.70333,0 -1.9938,0.59063 -1.9938,0.91252 0,0.12668 -0.10849,0.23034 -0.2411,0.23034 -0.37983,0 -2.9409,3.422 -3.1158,4.1633 -0.21445,0.90893 -0.876,1.3345 -1.3452,0.86531 -0.26624,-0.26624 -0.24613,-0.78692 0.0586,-1.5162 0.35453,-0.84854 0.88284,-3.0021 0.88584,-3.611 0.004,-0.73422 -0.63845,-1.3708 -1.3827,-1.3708 -0.67143,0 -1.6187,0.35495 -1.8226,0.68299 -0.0765,0.12307 -0.44264,0.45983 -0.81361,0.74836 -0.37099,0.28852 -0.80474,0.799 -0.96389,1.1344 -0.15916,0.3354 -0.36992,0.69378 -0.46836,0.79639 -0.0984,0.10262 -0.58305,0.66332 -1.0769,1.246 -0.49387,0.58268 -1.3039,1.3245 -1.8001,1.6484 -1.6697,1.0902 -4.0699,1.1853 -4.9386,0.19581 -0.47499,-0.54103 -1.0981,-1.8399 -1.0981,-2.289 0,-1.134 -1.0509,-2.4764 -2.1224,-2.7113 -0.42206,-0.0925 -0.85252,-0.31414 -1.0116,-0.52087 -0.37612,-0.4888 -0.37592,-0.48903 -1.5589,1.7415 -0.13674,0.25779 -0.69745,0.88228 -1.246,1.3878 -0.54861,0.50545 -1.3653,1.3013 -1.8149,1.7686 -0.46229,0.48043 -1.0303,0.89954 -1.3073,0.96461 -0.26938,0.0633 -0.63673,0.20822 -0.81632,0.3221 -0.7145,0.45305 -2.4647,0.76206 -4.4673,0.78874 -2.3703,0.0316 -2.2916,-0.0325 -2.6239,2.1362 -0.27837,1.8165 -0.47653,2.7331 -0.91765,4.2449 -0.70789,2.426 -0.91855,3.2627 -1.0045,3.9897 -0.13372,1.1313 -0.63476,1.4419 -1.3681,0.84806 z"
       id="appartment" />
  </g>
</svg>
