<?xml version="1.0" encoding="UTF-8" standalone="no"?>
<svg
   xmlns:dc="http://purl.org/dc/elements/1.1/"
   xmlns:cc="http://creativecommons.org/ns#"
   xmlns:rdf="http://www.w3.org/1999/02/22-rdf-syntax-ns#"
   xmlns:svg="http://www.w3.org/2000/svg"
   xmlns="http://www.w3.org/2000/svg"
   id="svg2502"
   viewBox="0 0 38.149958 33.174286"
   version="1.1"
   height="33.174286"
   width="38.14996">
  <defs
     id="defs2506" />
  <metadata
     id="metadata2">
    <rdf:RDF>
      <cc:Work
         rdf:about="">
        <dc:format>image/svg+xml</dc:format>
        <dc:type
           rdf:resource="http://purl.org/dc/dcmitype/StillImage" />
        <dc:title />
      </cc:Work>
    </rdf:RDF>
  </metadata>
  <g
     transform="translate(-424.08508,-425.46617)"
     style="stroke-width:0.16327"
     id="g2500">
    <path
       d="m 424.18,441.33 c -0.23468,-0.43852 -0.032,-0.99896 0.58392,-1.6149 0.84453,-0.84454 1.1979,-1.6787 1.1979,-2.828 0,-0.91009 -0.0524,-1.0622 -0.57794,-1.6761 -0.6752,-0.78884 -0.68273,-1.2595 -0.0238,-1.4903 0.41595,-0.14568 0.51824,-0.0991 1.0807,0.492 0.97998,1.0299 1.3725,1.9349 1.27,2.928 -0.089,0.86234 -0.82066,2.4184 -1.418,3.0157 -0.18198,0.18197 -0.33088,0.42827 -0.33088,0.54731 0,0.35958 -0.72716,0.92642 -1.1884,0.92642 -0.25293,0 -0.49945,-0.12471 -0.59334,-0.30013 z m 34.388,-7.7134 c 0.37835,-0.48662 0.81346,-1.2154 0.96689,-1.6195 0.15346,-0.40408 0.33213,-0.80816 0.3971,-0.89796 0.20885,-0.28867 0.80525,-2.4688 0.80525,-2.9435 0,-0.53404 -0.41208,-1.0565 -0.83332,-1.0565 -0.39134,0 -1.0677,0.91251 -1.2731,1.7176 -0.0912,0.35738 -0.28452,1.0539 -0.42968,1.5478 -0.25558,0.8696 -0.48713,2.0954 -0.67455,3.5706 -0.11838,0.93188 0.12777,0.85659 1.0414,-0.31852 z m -12.232,5.2444 c 0.60834,-0.79542 0.6055,-1.0456 -0.0126,-1.119 -0.3609,-0.0428 -0.47029,0.0455 -0.68129,0.55054 -0.30758,0.73612 -0.33216,1.4319 -0.0473,1.338 0.11224,-0.037 0.44579,-0.38327 0.74122,-0.76953 z m -10.741,6.5134 c 1.2182,-0.19658 1.5985,-0.40552 2.2189,-1.2189 0.54604,-0.7159 0.748,-1.8605 0.57775,-3.2746 -0.10085,-0.83778 -0.22312,-1.1519 -0.60439,-1.553 -1.0281,-1.0814 -2.0814,-1.2388 -3.4168,-0.5106 -0.6787,0.37011 -0.89891,0.61329 -1.3061,1.4424 -0.73828,1.5031 -1.0184,2.1684 -1.3826,3.2834 -0.43143,1.3207 -0.42467,1.6522 0.0357,1.7522 1.2678,0.27559 2.504,0.30083 3.8776,0.0792 z m -7.7279,13.126 c -0.19806,-0.19806 -0.11296,-1.5245 0.13605,-2.1204 0.13469,-0.32237 0.2449,-0.91087 0.2449,-1.3078 0,-0.39693 0.10759,-1.2512 0.2391,-1.8984 0.13151,-0.64724 0.32206,-1.838 0.42344,-2.6462 0.10139,-0.80817 0.25697,-1.9469 0.34574,-2.5306 0.0888,-0.58367 0.19773,-1.3184 0.24212,-1.6326 0.12532,-0.88715 1.0206,-3.7458 1.458,-4.6554 0.21653,-0.45025 0.39367,-0.93022 0.39367,-1.0666 0,-0.42821 1.1533,-2.4413 1.3987,-2.4413 0.12868,0 0.23397,-0.0735 0.23397,-0.16327 0,-0.0898 0.0715,-0.16327 0.15881,-0.16327 0.0873,0 0.58325,-0.20204 1.102,-0.44898 0.76647,-0.36484 1.15,-0.4447 2.0464,-0.42617 1.2105,0.025 1.5897,0.20062 2.4866,1.1515 1.3126,1.3916 1.6628,2.8554 1.1449,4.7849 -0.13256,0.49388 -0.2419,0.91633 -0.24296,0.93877 -0.005,0.11465 0.6489,0.008 1.2605,-0.20466 0.91809,-0.31984 2.2252,-1.2735 2.4641,-1.7978 0.10552,-0.23158 0.19517,-0.76658 0.19922,-1.1889 0.005,-0.46723 0.24416,-1.407 0.61225,-2.4005 0.58292,-1.5734 0.63155,-1.6458 1.3396,-1.9933 0.86369,-0.42393 1.5126,-0.47061 1.7959,-0.12917 0.11179,0.13469 0.27799,0.2449 0.36934,0.2449 0.31342,0 0.59987,0.57188 0.60506,1.2079 0.007,0.90826 -1.2088,3.0792 -2.2584,4.0314 -0.95355,0.86502 -1.1205,1.3429 -0.80244,2.2971 0.19253,0.5776 0.32471,0.71778 0.79145,0.8394 1.2095,0.31515 3.4348,-0.67401 4.912,-2.1834 0.3281,-0.33525 0.74686,-0.65726 0.93058,-0.71558 0.18371,-0.0583 0.7723,-0.51104 1.308,-1.0061 0.91342,-0.84413 1.0051,-0.99835 1.4753,-2.4814 0.59344,-1.872 0.88005,-2.946 1.4023,-5.2548 0.67975,-3.0052 1.5689,-5.7878 2.1163,-6.6233 0.29303,-0.44721 1.5681,-1.0502 2.2208,-1.0502 0.76335,0 1.0533,0.23332 1.4629,1.1772 0.48929,1.1275 0.46771,2.406 -0.0622,3.6796 -0.21491,0.51654 -0.44485,1.1158 -0.51101,1.3316 -0.0661,0.21582 -0.47908,0.92655 -0.91763,1.5794 -0.43856,0.65281 -0.79737,1.23 -0.79737,1.2827 0,0.0527 -0.24697,0.44715 -0.54882,0.8766 -0.30186,0.42944 -0.70957,1.145 -0.90602,1.5902 -0.19646,0.44514 -0.6002,1.0665 -0.8972,1.3808 -0.91993,0.97347 -1.5312,2.0215 -1.8127,3.1077 -0.3199,1.2345 -0.22426,2.1892 0.3265,3.2596 0.53194,1.0338 0.58452,1.2544 0.40913,1.7157 -0.2179,0.57311 -0.88351,0.55055 -1.2463,-0.0422 -0.15115,-0.24694 -0.45117,-0.71649 -0.66671,-1.0434 -0.22971,-0.34846 -0.45126,-1.0144 -0.53531,-1.6091 -0.0789,-0.55804 -0.18229,-1.0535 -0.22978,-1.101 -0.1353,-0.13529 -1.0226,0.28053 -1.3348,0.62557 -0.1551,0.17138 -0.37009,0.31161 -0.47776,0.31161 -0.10766,0 -0.3744,0.16531 -0.59277,0.36735 -2.025,1.8737 -4.0528,2.5848 -5.9046,2.0706 -0.3417,-0.0949 -0.6618,-0.27815 -0.71135,-0.40726 -0.0495,-0.1291 -0.22776,-0.23473 -0.39602,-0.23473 -0.29001,0 -0.37982,-0.1859 -0.51177,-1.0594 -0.0831,-0.54996 -0.55505,-0.46215 -1.6889,0.31422 -0.59851,0.40983 -1.1925,0.74513 -1.3199,0.74513 -0.12741,0 -0.39436,0.10357 -0.59325,0.23015 -0.19888,0.12658 -1.2432,0.54859 -2.3208,0.93777 l -1.9592,0.70762 -4.7904,-0.0796 -0.0937,0.44894 c -0.0889,0.42587 -0.16795,1.0115 -0.65541,4.8571 -0.11383,0.89796 -0.29154,1.8395 -0.39492,2.0923 -0.10338,0.2528 -0.18797,0.80908 -0.18797,1.2362 0,1.6591 -1.0469,3.3253 -1.6871,2.6851 z"
       id="appeal" />
  </g>
</svg>
