<?xml version="1.0" encoding="UTF-8" standalone="no"?>
<svg
   xmlns:dc="http://purl.org/dc/elements/1.1/"
   xmlns:cc="http://creativecommons.org/ns#"
   xmlns:rdf="http://www.w3.org/1999/02/22-rdf-syntax-ns#"
   xmlns:svg="http://www.w3.org/2000/svg"
   xmlns="http://www.w3.org/2000/svg"
   id="svg2502"
   viewBox="0 0 35.427417 25.410595"
   version="1.1"
   height="25.410595"
   width="35.427418">
  <defs
     id="defs2506" />
  <metadata
     id="metadata2">
    <rdf:RDF>
      <cc:Work
         rdf:about="">
        <dc:format>image/svg+xml</dc:format>
        <dc:type
           rdf:resource="http://purl.org/dc/dcmitype/StillImage" />
        <dc:title />
      </cc:Work>
    </rdf:RDF>
  </metadata>
  <g
     transform="translate(-424.15998,-457.51777)"
     style="stroke-width:0.16327"
     id="g2500">
    <path
       d="m 424.16,465.06 c 0,-0.38774 0.18179,-0.83964 0.55748,-1.3858 0.56028,-0.8145 0.9119,-1.9809 0.9119,-3.0249 0,-0.45463 -0.14021,-0.69379 -0.73469,-1.2532 -0.5705,-0.53685 -0.73469,-0.80691 -0.73469,-1.2083 0,-0.56787 0.41066,-0.79114 1.1159,-0.60671 0.5647,0.14765 1.5911,1.8055 1.7112,2.7639 0.12289,0.98075 -0.2046,2.6038 -0.68086,3.3744 -0.19267,0.31172 -0.35031,0.66176 -0.35031,0.77784 0,0.33476 -1.0003,1.1382 -1.4172,1.1382 -0.32452,0 -0.37875,-0.0824 -0.37875,-0.57537 z m 22.365,-1.0519 c 0.11035,-0.26641 0.30293,-0.56929 0.42796,-0.67306 0.13091,-0.10865 0.22733,-0.4918 0.22733,-0.90336 0,-0.58171 -0.0552,-0.71471 -0.29647,-0.71471 -0.44645,0 -1.0096,1.128 -1.0096,2.0222 0,0.88822 0.33667,1.0273 0.65083,0.26889 z m -10.039,5.8721 c 0.0555,-0.0898 0.23786,-0.16326 0.40527,-0.16326 0.90294,0 2.6161,-2.7937 2.6142,-4.2631 -0.002,-1.0388 -0.27882,-1.8805 -0.7394,-2.2428 -0.2214,-0.17416 -0.40254,-0.39532 -0.40254,-0.49148 0,-0.48847 -2.2527,-0.87716 -2.9522,-0.50939 -0.72177,0.37951 -1.9551,1.5002 -2.2199,2.0172 -0.14365,0.28049 -0.31957,0.54806 -0.39092,0.59461 -0.2538,0.16555 -1.2941,3.3117 -1.2941,3.9136 0,0.59244 0.0253,0.61917 0.77551,0.82093 0.42653,0.1147 0.84531,0.27118 0.93062,0.34774 0.21823,0.19585 3.1509,0.1743 3.2735,-0.0241 z m -8.8119,12.749 c -0.10196,-0.32124 -0.0398,-0.69702 0.32641,-1.9731 0.11597,-0.40408 0.3002,-1.2857 0.40939,-1.9592 0.10921,-0.67347 0.37109,-2.0005 0.58196,-2.9489 0.21089,-0.94846 0.46013,-2.735 0.55388,-3.9701 0.18374,-2.4207 0.76108,-4.762 1.6668,-6.7596 0.57523,-1.2686 2.2698,-3.0893 3.552,-3.8163 1.1292,-0.64028 2.4601,-0.69445 3.6905,-0.1502 1.078,0.47683 1.4257,0.83557 1.9635,2.0254 0.65515,1.4496 0.70614,2.5904 0.16671,3.7306 -0.23419,0.49507 -0.42581,1.054 -0.42581,1.2421 0,0.18807 -0.0735,0.38737 -0.16327,0.44286 -0.0898,0.0555 -0.16327,0.24351 -0.16327,0.4178 0,0.22084 0.11134,0.3158 0.36735,0.3133 0.43796,-0.004 1.6684,-0.54042 1.8262,-0.79574 0.0613,-0.0991 0.22026,-0.18026 0.35329,-0.18026 0.42082,0 1.1954,-0.69015 1.3602,-1.2119 0.0873,-0.27631 0.2375,-0.97994 0.33385,-1.5636 0.21087,-1.2773 0.74018,-3.1339 1.1171,-3.9184 0.29958,-0.62341 0.68768,-1.018 1.3679,-1.3907 0.40008,-0.21923 0.49009,-0.21182 0.9871,0.0814 0.74942,0.44215 1.2666,1.1898 1.2666,1.831 0,0.6202 -0.71829,2.1278 -1.2568,2.6379 -0.20363,0.19286 -0.37148,0.45632 -0.37303,0.58545 -0.004,0.32599 -0.69705,1.3138 -0.92283,1.3151 -0.48196,0.003 -1.0036,1.5798 -0.7064,2.1352 0.37111,0.69341 1.5797,0.98253 2.7292,0.65288 0.5775,-0.16563 2.489,-1.7387 2.489,-2.0483 0,-0.10557 0.18483,-0.3656 0.41076,-0.57783 0.22591,-0.21224 0.60604,-0.72096 0.84475,-1.1305 0.23869,-0.40955 0.81732,-1.3324 1.2858,-2.0507 0.46852,-0.71837 0.90155,-1.5411 0.96229,-1.8283 0.0607,-0.28717 0.38346,-0.8298 0.71717,-1.2058 0.70751,-0.79727 1.0907,-0.78272 1.6911,0.0642 0.48233,0.68034 1.1241,1.215 1.973,1.6436 0.82305,0.41561 0.90617,0.74317 0.52938,2.0861 -0.4468,1.5924 -0.29807,4.6227 0.2433,4.9573 0.27504,0.16997 0.17251,0.99549 -0.16112,1.2974 -0.21143,0.19135 -0.45453,0.25579 -0.71669,0.18999 -0.4313,-0.10826 -0.51762,-0.26109 -0.84168,-1.4902 -0.42926,-1.6281 -0.45667,-2.3332 -0.15339,-3.9444 0.31425,-1.6694 0.26637,-1.9404 -0.40289,-2.2799 -0.19895,-0.10093 -0.58093,-0.39352 -0.84885,-0.65019 -0.4073,-0.39022 -0.51219,-0.42702 -0.64014,-0.22465 -0.0842,0.13311 -0.15418,0.29427 -0.15555,0.3581 -0.002,0.0639 -0.14158,0.24753 -0.31159,0.40817 -0.16999,0.16065 -0.52694,0.69616 -0.79321,1.19 -0.26627,0.49384 -0.7333,1.2518 -1.0379,1.6844 -0.30454,0.4325 -0.71143,1.0485 -0.90419,1.3688 -0.19276,0.32031 -0.63357,0.85796 -0.9796,1.1948 -0.346,0.33683 -0.8,0.8413 -1.0089,1.121 -0.20886,0.27973 -0.44276,0.5086 -0.51975,0.5086 -0.077,0 -0.51127,0.23079 -0.96502,0.51287 -0.73737,0.45836 -0.91864,0.5032 -1.7062,0.42191 -1.0796,-0.11143 -2.5904,-0.80195 -2.9477,-1.3472 -0.33966,-0.51839 -0.86111,-0.51702 -1.6293,0.004 -0.33079,0.22449 -0.65469,0.40816 -0.71973,0.40816 -0.0651,0 -0.64632,0.22185 -1.2917,0.493 -0.64535,0.27115 -1.8195,0.6826 -2.6092,0.91432 -1.266,0.37149 -1.6432,0.41203 -3.1905,0.34297 -1.5088,-0.0674 -1.8822,-0.14284 -2.6642,-0.5385 -1.1969,-0.6056 -1.2262,-0.56581 -1.3039,1.769 -0.0172,0.51696 -0.11128,1.2516 -0.20906,1.6326 -0.35956,1.4008 -0.80753,3.5007 -1.0011,4.6927 -0.27444,1.6903 -0.62512,2.7903 -1.028,3.2245 -0.41722,0.44968 -0.88091,0.47467 -1.0142,0.0547 z"
       id="appear" />
  </g>
</svg>
