<svg xmlns="http://www.w3.org/2000/svg" height="33.174" width="38.15"><path d="M.095 15.864c-.235-.439-.032-1 .584-1.615.844-.845 1.198-1.679 1.198-2.828 0-.91-.053-1.062-.578-1.676-.675-.789-.683-1.26-.024-1.49.416-.146.518-.1 1.08.492.98 1.03 1.373 1.934 1.27 2.928-.088.862-.82 2.418-1.417 3.015-.182.182-.331.429-.331.548 0 .36-.727.926-1.189.926-.253 0-.499-.125-.593-.3zM34.483 8.15c.378-.486.813-1.215.967-1.62.153-.403.332-.807.397-.897.209-.289.805-2.469.805-2.944 0-.534-.412-1.056-.833-1.056-.392 0-1.068.912-1.273 1.718a55.322 55.322 0 01-.43 1.547c-.256.87-.487 2.096-.674 3.571-.119.932.127.857 1.04-.319zM22.25 13.395c.608-.796.605-1.046-.013-1.12-.36-.042-.47.046-.681.551-.308.736-.332 1.432-.047 1.338.112-.037.446-.383.74-.77zM11.51 19.908c1.218-.196 1.598-.405 2.219-1.219.546-.716.748-1.86.578-3.274-.101-.838-.224-1.152-.605-1.553-1.028-1.082-2.081-1.24-3.417-.51-.678.37-.899.612-1.306 1.442-.738 1.503-1.018 2.168-1.382 3.283-.432 1.32-.425 1.652.035 1.752 1.268.276 2.504.301 3.878.08zM3.782 33.034c-.198-.198-.113-1.524.136-2.12.135-.323.245-.911.245-1.308s.108-1.251.24-1.898a43.31 43.31 0 00.423-2.647c.1-.808.256-1.946.345-2.53.09-.584.198-1.319.242-1.633.126-.887 1.021-3.746 1.458-4.655.217-.45.394-.93.394-1.067 0-.428 1.153-2.441 1.399-2.441.128 0 .234-.074.234-.163 0-.09.071-.164.159-.164.087 0 .583-.202 1.102-.449.766-.364 1.15-.444 2.046-.426 1.21.025 1.59.2 2.487 1.152 1.312 1.391 1.662 2.855 1.144 4.785-.132.494-.241.916-.243.938-.005.115.65.008 1.261-.204.918-.32 2.225-1.274 2.464-1.798.106-.232.195-.767.2-1.189.004-.467.243-1.407.612-2.4.582-1.574.631-1.646 1.34-1.994.863-.424 1.512-.47 1.795-.129.112.135.278.245.37.245.313 0 .6.572.604 1.208.007.908-1.208 3.08-2.258 4.031-.954.865-1.12 1.343-.802 2.297.192.578.324.718.791.84 1.21.315 3.435-.674 4.912-2.184.328-.335.747-.657.93-.715.184-.058.773-.511 1.309-1.006.913-.844 1.005-.999 1.475-2.482.593-1.872.88-2.946 1.402-5.254.68-3.006 1.57-5.788 2.117-6.624C34.408.603 35.683 0 36.335 0c.764 0 1.054.233 1.463 1.177.49 1.128.468 2.406-.062 3.68a21.12 21.12 0 00-.511 1.331c-.066.216-.48.927-.918 1.58-.438.653-.797 1.23-.797 1.283 0 .052-.247.447-.549.876a11.25 11.25 0 00-.906 1.59c-.196.445-.6 1.067-.897 1.381-.92.974-1.531 2.022-1.813 3.108-.32 1.234-.224 2.189.327 3.26.532 1.033.584 1.254.409 1.715-.218.573-.884.55-1.246-.042a45.46 45.46 0 00-.667-1.043c-.23-.349-.451-1.015-.535-1.61-.08-.558-.183-1.053-.23-1.1-.135-.136-1.023.28-1.335.625-.155.171-.37.312-.478.312-.107 0-.374.165-.593.367-2.025 1.874-4.052 2.585-5.904 2.07-.342-.094-.662-.278-.711-.407-.05-.129-.228-.234-.396-.234-.29 0-.38-.186-.512-1.06-.083-.55-.555-.462-1.69.314-.598.41-1.192.745-1.32.745-.126 0-.393.104-.592.23-.2.127-1.244.55-2.321.938l-1.96.708-4.79-.08-.093.45c-.09.425-.168 1.01-.656 4.856-.114.898-.291 1.84-.395 2.093-.103.253-.188.809-.188 1.236 0 1.66-1.047 3.325-1.687 2.685z" stroke-width=".163"/></svg>