<svg xmlns="http://www.w3.org/2000/svg" height="30.998" width="53.68"><path d="M.193 14.154c-.363-.364-.21-.946.433-1.648.763-.834 1.41-2.484 1.282-3.272-.049-.299-.282-.83-.52-1.178-.284-.42-.414-.804-.382-1.132.042-.425.123-.503.564-.546.644-.063 1.245.531 1.604 1.584.378 1.108.247 2.839-.29 3.854l-.369.7c-.25.476-1.346 1.667-1.535 1.667-.079 0-.243.038-.365.085-.123.047-.312-.005-.422-.114zm21.154-2.298c.093-.112.22-.48.283-.816.094-.5.067-.612-.146-.612-.252 0-.755.94-.755 1.407 0 .281.392.294.618.021zm-10.566 6.18c1.787-.674 2.292-1.436 2.527-3.815.132-1.348-.041-1.773-1.135-2.781-.915-.844-1.407-.879-2.687-.191-.706.38-1.059.712-1.515 1.429-1.047 1.644-1.181 2.07-1.544 4.883l-.11.847.798.053c1.362.089 2.718-.068 3.666-.425zM2.9 30.583c-.22-.484.033-2.649.534-4.563a17.07 17.07 0 00.403-2.286c.058-.629.313-2.208.568-3.51.255-1.302.505-2.772.555-3.265.136-1.348 1.414-4.716 2.053-5.413.477-.52 2.037-1.608 2.306-1.608.15 0 .482-.11.739-.244.625-.326 1.278-.309 2.351.062.686.236.955.43 1.166.833.15.29.444.709.653.931.358.382.38.53.391 2.707.015 2.808.113 2.96 1.308 2.029.426-.332.854-.605.952-.606.097-.002.452-.24.788-.53.48-.416.702-.808 1.039-1.835.9-2.749 1.13-3.252 1.792-3.95.839-.886 1.424-.936 2.267-.196.49.43.577.61.577 1.201 0 .472-.131.888-.408 1.297-.225.33-.408.7-.408.822 0 .121-.192.393-.425.605-.536.485-.825.772-1.517 1.51-.304.323-.626.589-.714.589-.096 0-.128.344-.08.85.069.716.17.924.627 1.307.3.25.732.455.96.455.657 0 2.46-1.143 2.793-1.771.16-.3.406-.668.547-.816.434-.458 1.325-1.715 1.816-2.564.256-.445.521-.847.587-.894.067-.047.3-.472.52-.945.722-1.56 1.083-1.754 2.194-1.174.375.195 1.13.368 1.883.432.692.058 1.32.187 1.397.286.402.518.368 1.237-.224 4.67-.182 1.058-.177 1.297.037 1.755.18.386.357.53.646.53.512 0 1.29-.4 2.024-1.042.32-.28.871-.727 1.225-.995 1.267-.959 5.471-5.12 6.945-6.875.144-.171.548-.57.898-.887.35-.317.746-.701.881-.854.524-.597 3.183-3.06 3.303-3.06.069 0 .126-.076.126-.167 0-.092.511-.661 1.137-1.266C52.353-.027 52.81-.294 53.388.23c.442.4.41.505-.292.954-.686.44-2.322 1.96-2.334 2.17-.004.075-.417.466-.916.87-.92.745-5.736 5.497-8.872 8.756-.943.98-2.383 2.367-3.2 3.084-2.937 2.58-3.923 3.082-5.209 2.657-1.27-.42-1.517-1.598-1.062-5.063.126-.962.181-1.798.122-1.857-.059-.059-.554-.21-1.1-.336-.902-.208-1.039-.204-1.469.05-.565.334-1.05.959-1.194 1.538-.058.23-.465.902-.905 1.49-.44.59-.828 1.149-.861 1.244-.034.094-.526.652-1.094 1.24-1.742 1.8-3.366 2.394-4.996 1.827-.69-.24-.978-.534-1.336-1.361-.43-.991-1.276-.831-3.655.692-.712.456-3.19 1.387-3.692 1.387-.136 0-.906.19-1.712.421-1.499.431-2.44.435-3.117.011-.205-.128-.338-.13-.463-.004-.166.166-.496 1.835-.804 4.061a38.474 38.474 0 01-.487 2.531c-.609 2.688-.643 2.845-.737 3.413-.17 1.018-.762 1.33-1.104.579z"/></svg>