<svg xmlns="http://www.w3.org/2000/svg" height="25.411" width="35.427"><path d="M0 7.542c0-.388.182-.84.558-1.386.56-.814.911-1.98.911-3.024 0-.455-.14-.694-.734-1.254C.165 1.341 0 1.071 0 .67 0 .102.41-.121 1.116.063 1.68.211 2.707 1.87 2.827 2.827c.123.981-.204 2.604-.68 3.375-.193.311-.351.661-.351.777 0 .335-1 1.139-1.417 1.139-.325 0-.379-.083-.379-.576zM22.365 6.49c.11-.266.303-.569.428-.673.13-.108.227-.492.227-.903 0-.582-.055-.715-.296-.715-.447 0-1.01 1.128-1.01 2.022 0 .889.337 1.028.651.27zm-10.039 5.872c.056-.09.238-.163.405-.163.903 0 2.616-2.794 2.614-4.263-.002-1.039-.278-1.88-.739-2.243-.221-.174-.402-.395-.402-.491 0-.489-2.253-.877-2.953-.51-.721.38-1.955 1.5-2.22 2.018-.143.28-.32.548-.39.594-.254.166-1.295 3.312-1.295 3.914 0 .592.026.619.776.82.426.115.845.272.93.348.219.196 3.151.175 3.274-.024zm-8.812 12.75c-.102-.322-.04-.698.327-1.974.116-.404.3-1.285.409-1.959.11-.673.371-2 .582-2.949.21-.948.46-2.735.554-3.97.184-2.42.76-4.762 1.667-6.76.575-1.268 2.27-3.089 3.552-3.816 1.129-.64 2.46-.694 3.69-.15 1.078.477 1.426.836 1.964 2.025.655 1.45.706 2.59.166 3.731-.234.495-.426 1.054-.426 1.242 0 .188-.073.388-.163.443-.09.055-.163.244-.163.418 0 .22.111.316.367.313.438-.004 1.669-.54 1.826-.796a.457.457 0 01.354-.18c.42 0 1.195-.69 1.36-1.212.087-.276.237-.98.334-1.563.21-1.278.74-3.134 1.117-3.919.3-.623.688-1.018 1.368-1.39.4-.22.49-.212.987.08.75.443 1.267 1.19 1.267 1.832 0 .62-.719 2.128-1.257 2.638-.204.193-.372.456-.373.585-.004.326-.697 1.314-.923 1.315-.482.003-1.004 1.58-.707 2.136.372.693 1.58.982 2.73.652.577-.165 2.489-1.738 2.489-2.048 0-.105.184-.365.41-.578.226-.212.606-.72.845-1.13.239-.41.817-1.333 1.286-2.05.468-.72.902-1.542.962-1.83.061-.286.384-.829.717-1.205.708-.797 1.091-.783 1.692.064.482.68 1.124 1.215 1.973 1.644.823.415.906.743.529 2.086-.447 1.592-.298 4.623.243 4.957.275.17.173.996-.16 1.298a.75.75 0 01-.718.19c-.43-.109-.517-.262-.841-1.49-.43-1.629-.457-2.334-.154-3.945.315-1.67.267-1.94-.403-2.28-.199-.1-.58-.393-.848-.65-.408-.39-.513-.427-.64-.225-.085.133-.155.295-.156.358-.002.064-.142.248-.312.409-.17.16-.527.696-.793 1.19a20.158 20.158 0 01-1.038 1.684 28.407 28.407 0 00-.904 1.369c-.193.32-.634.858-.98 1.195-.346.336-.8.84-1.008 1.12-.21.28-.443.51-.52.51-.077 0-.512.23-.965.512-.738.458-.919.503-1.706.422-1.08-.112-2.59-.802-2.948-1.347-.34-.519-.861-.517-1.63.004-.33.224-.654.408-.72.408-.064 0-.646.222-1.29.493-.646.271-1.82.682-2.61.914-1.266.372-1.643.412-3.19.343-1.51-.067-1.883-.143-2.665-.538-1.197-.606-1.226-.566-1.304 1.769-.017.517-.111 1.251-.209 1.632-.36 1.401-.807 3.5-1 4.693-.275 1.69-.626 2.79-1.029 3.224-.417.45-.88.475-1.014.055z"/></svg>