<?xml version="1.0" encoding="UTF-8" standalone="no"?>
<svg
   xmlns:dc="http://purl.org/dc/elements/1.1/"
   xmlns:cc="http://creativecommons.org/ns#"
   xmlns:rdf="http://www.w3.org/1999/02/22-rdf-syntax-ns#"
   xmlns:svg="http://www.w3.org/2000/svg"
   xmlns="http://www.w3.org/2000/svg"
   id="svg2502"
   viewBox="0 0 47.681899 24.139429"
   version="1.1"
   height="24.139429"
   width="47.6819">
  <defs
     id="defs2506" />
  <metadata
     id="metadata2">
    <rdf:RDF>
      <cc:Work
         rdf:about="">
        <dc:format>image/svg+xml</dc:format>
        <dc:type
           rdf:resource="http://purl.org/dc/dcmitype/StillImage" />
        <dc:title />
      </cc:Work>
    </rdf:RDF>
  </metadata>
  <g
     transform="translate(-422.96943,-480.01112)"
     style="stroke-width:0.16327"
     id="g2500">
    <path
       d="m 423.05,487.42 c -0.21753,-0.47745 0.01,-1.066 0.62696,-1.6248 0.50761,-0.45938 0.80281,-1.0914 0.99474,-2.1297 0.14257,-0.77115 0.12449,-0.95974 -0.12873,-1.3436 -1.0223,-1.5496 -1.117,-1.7753 -0.87003,-2.0729 0.29408,-0.35433 0.86188,-0.30935 1.4106,0.11174 0.60527,0.46453 0.75335,0.70147 0.99846,1.5977 0.41087,1.5023 0.0838,3.3182 -0.73456,4.0777 -0.24528,0.22764 -0.63541,0.64294 -0.86697,0.92289 -0.36049,0.43584 -0.95138,0.87695 -1.1747,0.87695 -0.0364,0 -0.15147,-0.18723 -0.25574,-0.41607 z m 45.464,5.7177 c -0.16678,-0.43463 -0.11845,-0.97861 0.14241,-1.603 0.13804,-0.33036 0.2449,-1.0816 0.2449,-1.7218 0,-0.6246 0.0847,-1.5026 0.18823,-1.9511 0.14643,-0.6344 0.14209,-0.98016 -0.0196,-1.5575 -0.29471,-1.0526 -0.72857,-1.2925 -2.2032,-1.218 -1.0268,0.0519 -1.2517,0.12227 -1.7488,0.54744 -1.062,0.90841 -1.5987,1.9162 -2.0234,3.7995 -0.12721,0.56423 -0.34213,1.2402 -0.47756,1.5021 -0.13545,0.26193 -0.24627,0.6472 -0.24627,0.85617 0,0.97453 -1.187,1.5555 -1.4048,0.68764 -0.0577,-0.22991 -0.0613,-0.6891 -0.008,-1.0204 0.27754,-1.7238 0.58131,-3.1262 0.7423,-3.427 0.0994,-0.18565 0.17834,-0.76483 0.1755,-1.2871 -0.006,-1.0188 -0.25886,-1.4603 -1.1796,-2.0553 -0.61101,-0.39487 -0.6156,-1.05 -0.008,-1.2024 0.57653,-0.1447 2.1412,0.65303 2.3481,1.1971 0.22821,0.60026 0.57623,0.61831 1.2735,0.0661 0.35141,-0.27832 0.71216,-0.50604 0.80168,-0.50604 0.0895,0 0.48302,-0.14532 0.87447,-0.32294 0.98837,-0.44849 2.0289,-0.41908 3.138,0.0887 0.78209,0.35804 0.96462,0.52972 1.2586,1.1837 0.31537,0.70155 0.32911,0.87302 0.16601,2.071 -0.0978,0.71837 -0.18212,1.8204 -0.18736,2.449 -0.0132,1.5884 -0.21089,2.6374 -0.59409,3.1529 -0.38265,0.51482 -1.0996,0.66999 -1.2527,0.27112 z m -24.265,-8.1723 c 0,-0.51147 -0.38343,-0.4555 -0.46034,0.0672 -0.0346,0.23546 0.0339,0.35456 0.20408,0.35456 0.16671,0 0.25626,-0.1474 0.25626,-0.42176 z m -9.9646,7.0368 c 0.76225,-0.39417 1.944,-1.6922 2.1419,-2.3525 0.10173,-0.33953 0.15856,-1.2373 0.12629,-1.995 -0.0635,-1.4912 -0.16374,-1.6866 -1.2929,-2.5196 -0.42715,-0.31513 -0.7424,-0.40099 -1.4724,-0.40099 -0.87956,0 -0.96083,0.0354 -1.5307,0.66617 -0.33102,0.3664 -0.74411,1.0093 -0.918,1.4286 -0.17388,0.41931 -0.41814,0.94607 -0.54281,1.1706 -0.33809,0.60884 -0.91411,2.6551 -0.91411,3.2472 0,0.34983 0.0928,0.54779 0.28572,0.60945 0.15714,0.0502 0.43265,0.15274 0.61224,0.22784 0.17959,0.0751 0.43673,0.17744 0.57143,0.22744 0.41766,0.15507 2.4498,-0.0591 2.9333,-0.30914 z m -8.2479,11.777 c -0.0551,-0.21957 0.0833,-0.93366 0.32343,-1.6689 0.23086,-0.70684 0.42038,-1.6178 0.42116,-2.0244 0.002,-0.89915 0.41167,-4.379 0.63527,-5.3923 0.0891,-0.40408 0.26958,-1.2517 0.40096,-1.8835 0.13136,-0.63187 0.38433,-1.4768 0.56211,-1.8776 0.17779,-0.4008 0.4076,-1.089 0.51071,-1.5294 0.22769,-0.97251 1.8035,-4.2583 2.3276,-4.8533 0.44288,-0.50281 1.0858,-0.85084 2.0518,-1.1107 0.55964,-0.15056 0.8564,-0.13845 1.5334,0.0626 1.4286,0.42424 2.1818,0.97031 2.7694,2.0078 0.48092,0.84911 0.53303,1.0723 0.54312,2.327 0.0119,1.4783 -0.19825,2.1546 -1.0053,3.2352 -0.22237,0.29774 -0.36382,0.5818 -0.31437,0.63125 0.13079,0.1308 1.8967,-0.60205 2.497,-1.0362 0.86958,-0.62898 1.859,-1.7274 1.9518,-2.167 0.0486,-0.23007 0.15673,-0.58708 0.24031,-0.79335 0.0836,-0.20625 0.15196,-0.48857 0.15196,-0.62736 0,-0.1388 0.19889,-0.81259 0.44198,-1.4973 0.5543,-1.5614 1.6457,-2.8064 2.4602,-2.8064 0.71974,0 1.3427,0.6971 1.3427,1.5024 0,0.9672 -0.57781,2.277 -1.3208,2.994 -0.97809,0.94389 -1.7813,2.2609 -1.7813,2.9208 0,1.3133 1.7914,1.8286 3.4541,0.99344 0.44421,-0.22312 0.98008,-0.60884 1.1908,-0.85715 0.21073,-0.24831 0.57438,-0.67188 0.80812,-0.94127 0.23371,-0.26939 0.53849,-0.72857 0.67729,-1.0204 0.13877,-0.29184 0.3174,-0.53061 0.39693,-0.53061 0.0795,0 0.18919,-0.14049 0.24369,-0.3122 0.0545,-0.17172 0.32168,-0.59229 0.59373,-0.93463 0.27205,-0.34231 0.72452,-1.0843 1.0055,-1.6489 0.28098,-0.56458 0.66606,-1.1723 0.85571,-1.3505 l 0.34482,-0.32395 0.77133,0.48917 c 0.42423,0.26903 0.97081,0.48998 1.2146,0.49096 0.98362,0.004 1.6955,0.21525 1.9297,0.57267 0.31667,0.48329 0.32748,1.6678 0.0233,2.5505 -0.39126,1.1354 -0.61172,2.2116 -0.61172,2.9863 0,0.64513 0.0703,0.77724 0.68612,1.2887 0.63749,0.52955 0.67246,0.59993 0.49329,0.99314 -0.47249,1.037 -2.205,0.17285 -2.6533,-1.3235 -0.20378,-0.68021 -0.0966,-1.4049 0.50232,-3.3962 0.10803,-0.35918 0.20554,-0.94078 0.21667,-1.2924 l 0.0202,-0.63938 -0.89796,-0.21086 c -1.4454,-0.33938 -1.4801,-0.32648 -2.2857,0.84885 -0.40408,0.58955 -0.80816,1.1941 -0.89796,1.3434 -0.0898,0.14935 -0.43534,0.59144 -0.76787,0.98241 -0.33253,0.39099 -0.75461,1.0208 -0.93796,1.3995 -0.24254,0.50105 -0.51036,0.76671 -0.98328,0.97535 -0.35747,0.15771 -0.79446,0.48973 -0.97112,0.73781 -0.73079,1.0263 -3.9339,1.3498 -4.8494,0.48975 -0.22303,-0.20954 -0.49402,-0.56658 -0.6022,-0.79341 -0.2568,-0.53851 -0.98779,-0.63268 -1.57,-0.20227 -0.23662,0.17496 -0.74022,0.47623 -1.1191,0.66952 -0.37887,0.19329 -0.68886,0.41334 -0.68886,0.48901 0,0.0757 -0.71633,0.38031 -1.5918,0.67702 -2.0294,0.6877 -4.8343,0.86547 -6.3137,0.40014 -0.49323,-0.15515 -0.99659,-0.24377 -1.1186,-0.19696 -0.27162,0.10423 -0.55435,1.3262 -0.78289,3.3838 -0.0947,0.85306 -0.23487,1.9184 -0.31139,2.3673 -0.0765,0.44898 -0.24821,1.5143 -0.38155,2.3674 -0.29491,1.8866 -0.34934,2.0293 -0.86361,2.2636 -0.61083,0.2783 -0.86477,0.22645 -0.9714,-0.19842 z"
       id="appearance" />
  </g>
</svg>
