<svg xmlns="http://www.w3.org/2000/svg" height="24.139" width="47.682"><path d="M.08 7.409c-.217-.478.01-1.066.628-1.625.507-.46.802-1.091.994-2.13.143-.77.125-.96-.128-1.343C.55.76.457.535.704.238c.294-.354.861-.31 1.41.112.605.464.753.701.999 1.597.41 1.503.083 3.319-.735 4.078a11.67 11.67 0 00-.867.923c-.36.436-.951.877-1.175.877-.036 0-.151-.187-.255-.416zm45.465 5.718c-.167-.435-.119-.979.142-1.603.138-.33.245-1.082.245-1.722 0-.625.085-1.503.188-1.951.147-.635.142-.98-.02-1.558-.294-1.052-.728-1.292-2.203-1.218-1.026.052-1.251.122-1.748.548-1.062.908-1.6 1.916-2.024 3.8-.127.563-.342 1.24-.477 1.501-.136.262-.247.647-.247.856 0 .975-1.187 1.556-1.405.688-.057-.23-.06-.69-.008-1.02.278-1.724.582-3.127.743-3.427.1-.186.178-.765.175-1.287-.006-1.02-.259-1.46-1.18-2.056-.61-.395-.615-1.05-.007-1.202.576-.145 2.14.653 2.348 1.197.228.6.576.618 1.273.066.352-.278.712-.506.802-.506.09 0 .483-.145.874-.323.989-.448 2.03-.419 3.138.089.783.358.965.53 1.259 1.183.315.702.33.873.166 2.071a23.53 23.53 0 00-.187 2.45c-.014 1.588-.211 2.637-.594 3.152-.383.515-1.1.67-1.253.271zM21.28 4.954c0-.511-.384-.455-.46.067-.035.236.033.355.203.355.167 0 .257-.147.257-.422zm-9.965 7.037c.762-.394 1.944-1.692 2.142-2.352.102-.34.158-1.238.126-1.995-.063-1.492-.164-1.687-1.293-2.52-.427-.315-.742-.401-1.472-.401-.88 0-.961.035-1.53.666-.332.367-.745 1.01-.919 1.429-.174.42-.418.946-.543 1.17-.338.61-.914 2.655-.914 3.248 0 .35.093.547.286.609.157.05.433.153.612.228.18.075.437.177.572.227.417.155 2.45-.059 2.933-.309zM3.067 23.768c-.055-.22.083-.934.324-1.669.23-.707.42-1.618.42-2.024.003-.9.412-4.38.636-5.393.089-.404.27-1.251.4-1.883.132-.632.385-1.477.563-1.878.178-.4.408-1.089.51-1.529.228-.973 1.804-4.258 2.328-4.853.443-.503 1.086-.851 2.052-1.111.56-.15.857-.138 1.534.063 1.428.424 2.181.97 2.769 2.007.48.85.533 1.073.543 2.327.012 1.479-.198 2.155-1.005 3.236-.223.297-.364.581-.315.63.131.132 1.897-.601 2.497-1.035.87-.63 1.86-1.728 1.952-2.167a5.68 5.68 0 01.24-.794c.084-.206.152-.488.152-.627s.2-.813.442-1.497c.555-1.562 1.646-2.807 2.46-2.807.72 0 1.343.697 1.343 1.503 0 .967-.577 2.277-1.32 2.994-.979.944-1.782 2.26-1.782 2.92 0 1.314 1.792 1.829 3.454.994.445-.223.98-.609 1.191-.857.21-.249.574-.672.808-.942a5.48 5.48 0 00.678-1.02c.138-.292.317-.53.396-.53.08 0 .19-.141.244-.313.055-.171.322-.592.594-.934.272-.343.724-1.085 1.005-1.65.281-.564.666-1.172.856-1.35l.345-.324.771.49c.424.268.971.49 1.215.49.983.004 1.695.216 1.93.573.316.483.327 1.668.023 2.55-.391 1.136-.612 2.212-.612 2.987 0 .645.07.777.686 1.289.638.53.673.6.494.993-.473 1.037-2.205.173-2.654-1.324-.204-.68-.096-1.405.503-3.396.108-.36.205-.94.216-1.292l.02-.64-.898-.21c-1.445-.34-1.48-.327-2.285.848-.404.59-.808 1.194-.898 1.344-.09.149-.436.591-.768.982-.333.391-.755 1.02-.938 1.4-.243.5-.51.766-.983.975-.358.158-.795.49-.971.738-.731 1.026-3.934 1.35-4.85.49-.223-.21-.494-.567-.602-.794-.257-.538-.988-.633-1.57-.202-.237.175-.74.476-1.12.67-.378.193-.688.413-.688.488 0 .076-.716.38-1.592.677-2.03.688-4.834.866-6.313.4-.494-.155-.997-.243-1.12-.197-.27.105-.553 1.327-.782 3.384a53.92 53.92 0 01-.311 2.368c-.077.449-.249 1.514-.382 2.367-.295 1.887-.35 2.03-.864 2.264-.61.278-.864.226-.97-.199z"/></svg>