<?xml version="1.0" encoding="UTF-8" standalone="no"?>
<svg
   xmlns:dc="http://purl.org/dc/elements/1.1/"
   xmlns:cc="http://creativecommons.org/ns#"
   xmlns:rdf="http://www.w3.org/1999/02/22-rdf-syntax-ns#"
   xmlns:svg="http://www.w3.org/2000/svg"
   xmlns="http://www.w3.org/2000/svg"
   id="svg2502"
   viewBox="0 0 53.679537 30.997877"
   version="1.1"
   height="30.997877"
   width="53.679539">
  <defs
     id="defs2506" />
  <metadata
     id="metadata2">
    <rdf:RDF>
      <cc:Work
         rdf:about="">
        <dc:format>image/svg+xml</dc:format>
        <dc:type
           rdf:resource="http://purl.org/dc/dcmitype/StillImage" />
        <dc:title />
      </cc:Work>
    </rdf:RDF>
  </metadata>
  <g
     transform="translate(-422.86694,-497.32619)"
     style="stroke-width:0.16327"
     id="g2500">
    <path
       d="m 423.06,511.48 c -0.36346,-0.36346 -0.21068,-0.9456 0.4325,-1.648 0.76319,-0.8335 1.41,-2.4842 1.2821,-3.2721 -0.0485,-0.29865 -0.28206,-0.82878 -0.5191,-1.1781 -0.28456,-0.41931 -0.41448,-0.80376 -0.38239,-1.1314 0.0416,-0.42508 0.12263,-0.50355 0.56407,-0.54639 0.64382,-0.0625 1.2451,0.53145 1.6038,1.5842 0.37762,1.1083 0.24738,2.8389 -0.28998,3.8536 -0.0951,0.17959 -0.26114,0.49491 -0.36894,0.70069 -0.24946,0.47614 -1.3461,1.6667 -1.5352,1.6667 -0.0788,0 -0.24325,0.0383 -0.36537,0.0852 -0.12211,0.0469 -0.31179,-0.005 -0.4215,-0.11429 z m 21.154,-2.2975 c 0.0928,-0.11225 0.22013,-0.47959 0.28306,-0.81633 0.0934,-0.49977 0.0665,-0.61224 -0.14647,-0.61224 -0.2512,0 -0.75505,0.93936 -0.75505,1.4077 0,0.28076 0.39273,0.29404 0.61846,0.0209 z m -10.566,6.1794 c 1.7872,-0.67324 2.292,-1.4356 2.5265,-3.8151 0.1328,-1.3477 -0.0406,-1.7729 -1.1342,-2.7809 -0.91499,-0.84341 -1.4072,-0.87835 -2.6872,-0.19081 -0.7065,0.3795 -1.0592,0.71199 -1.5152,1.4286 -1.0466,1.6446 -1.1812,2.07 -1.544,4.8833 l -0.10931,0.84731 0.79734,0.0524 c 1.3617,0.0894 2.7185,-0.0678 3.6661,-0.42473 z m -7.8819,12.547 c -0.22029,-0.48347 0.033,-2.6484 0.53375,-4.563 0.16441,-0.62857 0.34594,-1.6571 0.40341,-2.2857 0.0575,-0.62857 0.31311,-2.2082 0.56813,-3.5102 0.25502,-1.302 0.50453,-2.7714 0.55447,-3.2653 0.13621,-1.3471 1.4138,-4.7152 2.0531,-5.4125 0.47652,-0.51974 2.037,-1.608 2.3058,-1.608 0.14929,0 0.48188,-0.10975 0.73908,-0.24389 0.62469,-0.32581 1.2776,-0.30871 2.3515,0.0616 0.68519,0.23626 0.95506,0.42933 1.1653,0.83377 0.15052,0.28949 0.4444,0.70827 0.65307,0.93063 0.35859,0.38214 0.38006,0.53062 0.39146,2.7071 0.0147,2.8082 0.11249,2.9599 1.308,2.0284 0.42589,-0.33182 0.85414,-0.60439 0.95164,-0.60573 0.0975,-0.002 0.45213,-0.24011 0.78805,-0.53061 0.48018,-0.41526 0.70228,-0.80741 1.0389,-1.8343 0.90099,-2.7488 1.1294,-3.2524 1.7918,-3.9509 0.8393,-0.88505 1.4244,-0.9355 2.2672,-0.19548 0.49091,0.43102 0.57711,0.61053 0.57711,1.2017 0,0.47209 -0.1309,0.8879 -0.40816,1.2965 -0.22449,0.33079 -0.40816,0.70068 -0.40816,0.82196 0,0.12129 -0.19112,0.39353 -0.42472,0.60499 -0.53612,0.48536 -0.82453,0.77238 -1.5166,1.5093 -0.30446,0.32419 -0.62605,0.58945 -0.71467,0.58945 -0.0958,0 -0.12796,0.34488 -0.0793,0.85107 0.0687,0.71512 0.16887,0.92377 0.62686,1.3061 0.29979,0.25029 0.73185,0.45505 0.96013,0.45505 0.657,0 2.4598,-1.1428 2.7931,-1.7707 0.15949,-0.30039 0.40542,-0.66774 0.5465,-0.81632 0.43443,-0.45755 1.3248,-1.7149 1.8156,-2.564 0.25696,-0.44454 0.52147,-0.84662 0.58779,-0.89351 0.0663,-0.0469 0.29987,-0.47226 0.519,-0.94525 0.72309,-1.5607 1.0837,-1.7536 2.1952,-1.1743 0.37466,0.19528 1.1288,0.36841 1.8825,0.43211 0.69154,0.0584 1.3203,0.18733 1.3972,0.28642 0.40183,0.51776 0.36731,1.2365 -0.22424,4.6699 -0.18229,1.058 -0.17725,1.2966 0.0371,1.7551 0.18021,0.38551 0.35678,0.53061 0.64571,0.53061 0.51189,0 1.2899,-0.40072 2.0243,-1.0427 0.31989,-0.27959 0.87091,-0.72724 1.2245,-0.99475 1.2677,-0.95908 5.4716,-5.1203 6.9457,-6.8752 0.1441,-0.17154 0.54818,-0.57089 0.89796,-0.88744 0.34978,-0.31654 0.74617,-0.70087 0.88086,-0.85408 0.52425,-0.59626 3.1832,-3.0602 3.3025,-3.0602 0.0693,0 0.12609,-0.075 0.12609,-0.16669 0,-0.0917 0.51175,-0.66108 1.1372,-1.2653 2.2418,-2.1657 2.6994,-2.4322 3.2775,-1.909 0.44137,0.39943 0.40927,0.50417 -0.2923,0.95359 -0.68592,0.43941 -2.3222,1.9604 -2.3345,2.17 -0.004,0.0747 -0.41638,0.4664 -0.91559,0.87048 -0.91963,0.74436 -5.7355,5.4966 -8.8724,8.7553 -0.94286,0.97945 -2.3823,2.3673 -3.1987,3.0842 -2.938,2.5796 -3.9234,3.0822 -5.2097,2.6567 -1.2698,-0.42006 -1.5169,-1.5973 -1.0623,-5.0623 0.12625,-0.96241 0.18134,-1.798 0.1224,-1.857 -0.0589,-0.0589 -0.55435,-0.21046 -1.101,-0.33673 -0.90093,-0.20813 -1.0381,-0.20341 -1.468,0.0506 -0.56532,0.33394 -1.0507,0.95877 -1.1945,1.5376 -0.0574,0.23104 -0.46452,0.90191 -0.90475,1.4908 -0.44023,0.58891 -0.8278,1.1483 -0.86129,1.243 -0.0335,0.0947 -0.52558,0.65255 -1.0936,1.2396 -1.7421,1.8006 -3.3664,2.3947 -4.9962,1.8274 -0.69032,-0.24028 -0.97826,-0.53349 -1.3364,-1.3609 -0.42911,-0.99122 -1.2751,-0.83104 -3.655,0.6921 -0.71202,0.45569 -3.1904,1.3867 -3.6914,1.3867 -0.13594,0 -0.90647,0.18968 -1.7123,0.42152 -1.4986,0.43115 -2.4389,0.43458 -3.1165,0.0114 -0.20563,-0.12842 -0.33816,-0.12957 -0.46372,-0.004 -0.16519,0.16519 -0.49576,1.8346 -0.8041,4.0609 -0.0746,0.53877 -0.29368,1.6776 -0.48679,2.5306 -0.60861,2.6884 -0.64239,2.8449 -0.73677,3.413 -0.16919,1.0185 -0.76157,1.3291 -1.1035,0.57858 z"
       id="appears" />
  </g>
</svg>
