<svg xmlns="http://www.w3.org/2000/svg" height="31.832" width="55.359"><path d="M.258 16.233c-.261-.261-.356-.886-.134-.886.067 0 .337-.386.6-.857.262-.472.519-.894.57-.939.231-.199.56-1.297.626-2.083.065-.777.023-.914-.431-1.432C.826 9.28.672 8.674 1.07 8.383c.165-.12.352-.22.415-.22.224 0 1.432 1.069 1.646 1.456.318.577.26 3.04-.09 3.769-.707 1.478-1.939 3.102-2.353 3.102-.095 0-.289-.116-.43-.257zm50.22-1.58c.896-1.213 2.054-3.769 2.346-5.181.065-.313.227-.736.36-.94.389-.592.695-2.59.695-4.54 0-2.304-.269-2.673-1.258-1.728-.27.258-.563.496-.654.53-.232.09-2.006 3.11-2.006 3.417 0 .14-.073.327-.162.415-.418.419-.615 7.293-.237 8.28.162.422.481.335.915-.253zm2.234 5.785c-.032-.083-.425-.348-.874-.588s-1-.54-1.224-.665a5.928 5.928 0 00-.653-.318 2.73 2.73 0 01-.527-.291c-.225-.161-.39-.157-.816.018-1.174.483-4.356.604-4.62.175-.05-.081-.418-.292-.816-.468-.559-.247-.876-.553-1.381-1.336-.705-1.09-.807-1.607-.4-2.015.32-.32.9-.323 1.932-.01.441.134 1.102.245 1.47.246 1.056.003 1.402.148 1.402.584 0 .49-.721.883-1.624.883-.695 0-.934.353-.376.555.158.057.47.216.694.354.576.354 2.298.2 2.947-.262.558-.397.6-.77.235-2.116-.302-1.116-.351-4.612-.091-6.531.32-2.36 1.07-4.326 2.162-5.666.299-.367.748-.932 1-1.256.25-.323.55-.588.668-.588.117 0 .352-.155.523-.343C52.71.394 53.428 0 53.8 0c.412 0 1.366 1.12 1.482 1.74.208 1.108-.03 4.487-.41 5.852-.201.718-.517 1.853-.702 2.521-.185.668-.502 1.55-.704 1.96-.202.409-.56 1.156-.796 1.662a8.478 8.478 0 01-1.095 1.675c-.725.824-1.011 1.851-.64 2.298.23.277 1.468.993 2.007 1.16.767.238 1.284.738 1.232 1.19-.044.38-.132.438-.728.481-.372.027-.703-.018-.734-.101zm-40.357-1.705c1.042-.723 1.4-1.536 1.489-3.378l.075-1.568-1.813-1.918-1.142.096c-1.295.109-2.096.453-2.3.989a1.657 1.657 0 01-.4.583.792.792 0 00-.262.53c0 .17-.115.584-.255.918-.23.55-.584 2.6-.626 3.627-.015.363.064.42.717.514.404.057 1.44.094 2.3.081 1.425-.021 1.625-.064 2.217-.474zM3.598 31.598c-.217-.262-.132-1.125.233-2.373.118-.404.294-1.14.39-1.633.097-.494.326-1.596.51-2.449.184-.853.334-1.944.333-2.425 0-.481.138-1.62.307-2.53.17-.912.397-2.245.504-2.963.208-1.384.826-3.575 1.253-4.434.33-.664 1.324-1.371 2.7-1.92 1.85-.738 3.385-.331 4.588 1.216.903 1.162.995 1.554.867 3.688-.072 1.208-.054 1.858.053 1.858.34 0 1.779-.655 3.196-1.456.808-.456 1.587-.83 1.73-.83.144 0 .43-.147.638-.326.207-.18.45-.327.541-.327.091 0 .707-.257 1.37-.571.661-.315 1.287-.572 1.39-.572.102 0 .999-.25 1.993-.555.994-.305 2.175-.602 2.624-.658a20.616 20.616 0 001.615-.283c.934-.21 4.291.068 5.463.453.749.247 2.794 1.806 2.798 2.133.002.106.175.33.388.496.503.396.837 1.067 1.063 2.136.375 1.77.198 2.32-.674 2.098-.505-.129-.737-.564-.927-1.745-.208-1.291-.778-2.063-2.556-3.462-.657-.516-1.416-.617-4.743-.63l-3.124-.012-2.205.737a43.154 43.154 0 00-4.223 1.713c-1.11.536-2.348 1.123-2.752 1.304-.404.181-1.029.53-1.388.774-.36.244-1.278.752-2.04 1.127-.764.376-1.536.764-1.715.863-.653.36-1.733.695-2.248.696-.29 0-.82.082-1.177.18-.518.144-.922.123-2.005-.104-.746-.156-1.396-.245-1.445-.196-.048.049-.161.591-.25 1.206-.285 1.953-.832 4.989-1.159 6.423a44.263 44.263 0 00-.433 2.122c-.065.404-.209.9-.319 1.102-.23.422-.862.492-1.164.128z"/></svg>