<?xml version="1.0" encoding="UTF-8" standalone="no"?>
<svg
   xmlns:dc="http://purl.org/dc/elements/1.1/"
   xmlns:cc="http://creativecommons.org/ns#"
   xmlns:rdf="http://www.w3.org/1999/02/22-rdf-syntax-ns#"
   xmlns:svg="http://www.w3.org/2000/svg"
   xmlns="http://www.w3.org/2000/svg"
   id="svg2502"
   viewBox="0 0 55.359358 31.832409"
   version="1.1"
   height="31.832409"
   width="55.35936">
  <defs
     id="defs2506" />
  <metadata
     id="metadata2">
    <rdf:RDF>
      <cc:Work
         rdf:about="">
        <dc:format>image/svg+xml</dc:format>
        <dc:type
           rdf:resource="http://purl.org/dc/dcmitype/StillImage" />
        <dc:title />
      </cc:Work>
    </rdf:RDF>
  </metadata>
  <g
     transform="translate(-422.69172,-520.16665)"
     style="stroke-width:0.16327"
     id="g2500">
    <path
       d="m 422.95,536.4 c -0.26158,-0.2616 -0.35608,-0.88617 -0.1341,-0.88647 0.0673,-9e-5 0.33704,-0.38581 0.59931,-0.85714 0.26229,-0.47134 0.51943,-0.89371 0.57143,-0.93861 0.23053,-0.19902 0.55997,-1.2969 0.62521,-2.0836 0.0644,-0.77683 0.0231,-0.91388 -0.43143,-1.4316 -0.66287,-0.75499 -0.81662,-1.3621 -0.41861,-1.6531 0.16509,-0.12072 0.35165,-0.2195 0.41458,-0.2195 0.22444,0 1.4321,1.0682 1.6461,1.456 0.31801,0.57633 0.25987,3.0398 -0.0889,3.7684 -0.70784,1.4786 -1.9398,3.102 -2.3539,3.102 -0.0952,0 -0.28861,-0.11545 -0.42972,-0.25656 z m 50.219,-1.5802 c 0.89675,-1.2134 2.0543,-3.7688 2.347,-5.1813 0.0648,-0.31298 0.22707,-0.73561 0.36045,-0.93919 0.38831,-0.59263 0.69383,-2.5916 0.69404,-4.5408 0,-2.3038 -0.26849,-2.673 -1.2576,-1.7278 -0.26942,0.25747 -0.56361,0.49625 -0.65375,0.53062 -0.2322,0.0885 -2.0069,3.1097 -2.0069,3.4165 0,0.13977 -0.0725,0.32661 -0.16104,0.41518 -0.41862,0.41861 -0.61577,7.2929 -0.23744,8.2788 0.1624,0.42321 0.48091,0.33549 0.91514,-0.25207 z m 2.2345,5.7845 c -0.0315,-0.0831 -0.42464,-0.34755 -0.87362,-0.58774 -0.44898,-0.24018 -1,-0.5394 -1.2245,-0.66492 -0.22449,-0.12551 -0.51836,-0.26852 -0.65306,-0.31778 -0.13469,-0.0493 -0.37161,-0.18029 -0.52646,-0.29121 -0.22477,-0.16098 -0.38942,-0.15728 -0.81633,0.0184 -1.1738,0.48305 -4.3556,0.60315 -4.6206,0.17441 -0.05,-0.081 -0.41703,-0.29142 -0.81557,-0.46772 -0.55834,-0.24699 -0.87522,-0.55355 -1.381,-1.3361 -0.70444,-1.0899 -0.80712,-1.6072 -0.39984,-2.0145 0.32013,-0.32013 0.9002,-0.3231 1.9326,-0.01 0.4408,0.13373 1.102,0.24413 1.4694,0.24537 1.056,0.003 1.4026,0.14784 1.4026,0.58405 0,0.49068 -0.72188,0.88311 -1.6245,0.88311 -0.69508,0 -0.93396,0.35311 -0.37546,0.555 0.15714,0.0568 0.46939,0.21615 0.69388,0.35409 0.57521,0.35348 2.2977,0.20047 2.9468,-0.26176 0.55764,-0.39708 0.59911,-0.77101 0.23475,-2.1167 -0.30212,-1.1158 -0.35092,-4.6119 -0.0912,-6.5306 0.31954,-2.3602 1.0696,-4.3261 2.162,-5.6662 0.29892,-0.36674 0.74868,-0.93166 0.99944,-1.2554 0.25078,-0.32372 0.55163,-0.58859 0.66857,-0.58859 0.11697,0 0.35243,-0.15446 0.52328,-0.34325 0.36684,-0.40537 1.0853,-0.79961 1.4571,-0.79961 0.41213,0 1.3657,1.1195 1.4821,1.74 0.20788,1.1081 -0.0293,4.4867 -0.41075,5.8519 -0.20073,0.71837 -0.51634,1.8529 -0.70132,2.5212 -0.18499,0.66831 -0.50175,1.5499 -0.7039,1.9592 -0.20216,0.40924 -0.56033,1.1572 -0.79592,1.6623 -0.23561,0.50502 -0.72841,1.2591 -1.0951,1.6757 -0.72477,0.82338 -1.0113,1.8508 -0.64071,2.2973 0.23034,0.27755 1.4683,0.99324 2.0076,1.1607 0.7665,0.23794 1.284,0.73804 1.2316,1.1902 -0.0439,0.37937 -0.1316,0.43731 -0.72737,0.48075 -0.37258,0.0272 -0.7032,-0.0186 -0.73469,-0.10163 z m -40.357,-1.705 c 1.0418,-0.72258 1.4004,-1.5361 1.4891,-3.3774 l 0.0755,-1.5685 -1.8132,-1.9174 -1.1421,0.0957 c -1.2954,0.10861 -2.0957,0.45264 -2.2994,0.98848 -0.0766,0.20143 -0.25709,0.46404 -0.40114,0.58359 -0.14405,0.11956 -0.26191,0.35766 -0.26191,0.52916 0,0.17147 -0.11437,0.58493 -0.25414,0.91877 -0.23014,0.54967 -0.58447,2.5998 -0.62696,3.6274 -0.015,0.36293 0.0646,0.41979 0.71783,0.51311 0.40408,0.0577 1.4392,0.0945 2.3002,0.0816 1.4241,-0.0212 1.6243,-0.0641 2.2161,-0.47453 z m -8.7566,12.865 c -0.21719,-0.2617 -0.13247,-1.125 0.23287,-2.373 0.1183,-0.40408 0.29391,-1.1388 0.39025,-1.6326 0.0963,-0.49388 0.32561,-1.5959 0.5095,-2.449 0.18389,-0.8531 0.33383,-1.9444 0.33321,-2.4253 0,-0.48085 0.13768,-1.6196 0.30735,-2.5306 0.16966,-0.91098 0.3965,-2.2441 0.50406,-2.9625 0.20718,-1.3835 0.82606,-3.5742 1.2526,-4.434 0.32911,-0.66338 1.3237,-1.3706 2.6999,-1.9199 1.8493,-0.73811 3.3855,-0.33081 4.5877,1.2163 0.903,1.1622 0.99509,1.5536 0.86749,3.6877 -0.0722,1.2082 -0.0538,1.858 0.0528,1.858 0.34027,0 1.779,-0.65508 3.1964,-1.4553 0.80816,-0.45629 1.5867,-0.82981 1.7301,-0.83001 0.1434,0 0.43016,-0.14731 0.63723,-0.3269 0.20707,-0.17959 0.45081,-0.32653 0.54163,-0.32653 0.0908,0 0.70687,-0.25715 1.369,-0.57143 0.66212,-0.31429 1.2876,-0.57143 1.39,-0.57143 0.10235,0 0.99954,-0.24985 1.9938,-0.55523 0.99422,-0.30537 2.175,-0.6015 2.624,-0.65806 0.44898,-0.0566 1.1756,-0.18387 1.6148,-0.28289 0.93364,-0.21053 4.2913,0.0682 5.4629,0.45352 0.74905,0.24635 2.794,1.8053 2.7978,2.1328 0.002,0.10573 0.17588,0.32886 0.38818,0.49587 0.5032,0.3958 0.83712,1.0665 1.0635,2.1363 0.37455,1.7696 0.19798,2.3188 -0.67438,2.0973 -0.50515,-0.12826 -0.73675,-0.56418 -0.92683,-1.7444 -0.20801,-1.2916 -0.77778,-2.0634 -2.5562,-3.4623 -0.65654,-0.51643 -1.4156,-0.61728 -4.7426,-0.63006 l -3.1239,-0.0121 -2.2058,0.73709 c -1.2132,0.40539 -3.1136,1.1761 -4.223,1.7126 -1.1094,0.53656 -2.3478,1.1237 -2.7519,1.3048 -0.4041,0.1811 -1.0285,0.52925 -1.3877,0.77366 -0.35913,0.24441 -1.2775,0.75158 -2.0408,1.127 -0.7633,0.37547 -1.5348,0.76379 -1.7144,0.86294 -0.65305,0.36053 -1.7331,0.69466 -2.2482,0.69556 -0.29002,0 -0.81935,0.082 -1.1763,0.18108 -0.51797,0.1438 -0.92272,0.12271 -2.0053,-0.10447 -0.74597,-0.15654 -1.3961,-0.24485 -1.4447,-0.19623 -0.0486,0.0486 -0.16158,0.59113 -0.25103,1.2056 -0.28439,1.9536 -0.83164,4.9891 -1.158,6.4233 -0.1737,0.76327 -0.36885,1.7184 -0.43367,2.1224 -0.0648,0.40408 -0.20806,0.9 -0.31831,1.102 -0.23024,0.42191 -0.86231,0.49148 -1.1639,0.1281 z"
       id="appendicitis" />
  </g>
</svg>
