<svg xmlns="http://www.w3.org/2000/svg" height="30.712" width="33.627"><path d="M26.803 7.475c-.108-.108-.196-.51-.196-.892 0-.846.366-1.135 1.088-.86.552.209.702.422.705 1 .004.732-1.098 1.251-1.597.752zM.097 15.585c-.177-.46-.114-.835.206-1.243.415-.527.834-1.987.834-2.906 0-.567-.078-.796-.321-.948C.4 10.228-.03 9.394.09 9.082c.125-.327.374-.403 1.005-.31.438.065.617.233 1.041.975.785 1.37.69 2.76-.325 4.81-.529 1.068-.647 1.201-1.102 1.245-.354.035-.541-.032-.612-.217zm29.855 14.61c-.059-.184-.064-.606-.013-.939.863-5.603.94-5.911 1.477-5.911.559 0 .795.384.675 1.1-.057.337-.17 1.459-.25 2.491-.08 1.033-.199 2.119-.263 2.414-.205.943-1.398 1.564-1.626.845zm-8.667-21.26c.172-.29.447-.8.611-1.13.165-.332.366-.643.447-.693.328-.203.686-2.315.638-3.767-.047-1.453-.052-1.47-.48-1.52-.383-.044-.463.039-.708.735-.152.432-.343.913-.425 1.069-.082.156-.149.757-.149 1.336 0 .579-.067 1.23-.15 1.447-.215.567-.41 3.056-.238 3.055.079 0 .283-.24.454-.531zm-12.098 10c.966-.298 1.108-.4 1.527-1.102.564-.943 1.199-2.56 1.199-3.054 0-.533-.575-2.113-.923-2.534-.903-1.093-1.294-1.191-2.193-.551a18.8 18.8 0 01-1.081.717c-.39.229-.881 1.057-1.574 2.65-.302.696-.76 2.754-.76 3.419 0 .248.125.514.286.607.484.282 2.378.2 3.52-.152zM2.447 30.29c-.283-.527-.121-2.534.328-4.087.4-1.38.61-2.595.81-4.654.23-2.383.496-4.092.748-4.813.125-.361.23-.824.23-1.029.002-.205.186-.735.41-1.178.225-.443.41-.965.41-1.16 0-.207.248-.568.594-.863.327-.28.908-.82 1.291-1.201.384-.382.812-.694.953-.694.14 0 .496-.147.79-.326.692-.422.95-.412 1.911.075.76.385 1.48 1.086 1.48 1.44 0 .091.195.562.432 1.047.373.764.418 1.015.335 1.894-.052.557-.283 1.51-.512 2.118-.23.608-.418 1.251-.418 1.429 0 .486.545.404 1.433-.216 1.743-1.216 2.322-1.652 2.322-1.747 0-.055.339-.463.752-.907.756-.811 1.37-1.82 1.37-2.25 0-.126.264-1.1.587-2.163.389-1.284.659-2.62.803-3.98.325-3.046.669-4.543 1.23-5.358.266-.384.483-.765.483-.845 0-.08.194-.3.43-.485.511-.402 1.617-.455 2.123-.1 1.107.775.999 4.977-.187 7.295-.77 1.502-.696 1.376-1.44 2.492-.344.515-.706 1.17-.805 1.456-.099.285-.541.985-.983 1.555-.977 1.262-1.424 2.652-1.424 4.437 0 1.642.215 1.955 1.343 1.955.516 0 .933-.093 1.093-.244.142-.134.499-.436.793-.672.295-.235.88-.878 1.299-1.429.42-.551.81-1.039.869-1.084.058-.044.31-.407.558-.804.25-.398.71-.986 1.022-1.306.313-.321.632-.745.708-.943.148-.385 2.487-1.844 2.955-1.844.154 0 .32-.066.37-.145.048-.08.347-.193.662-.253 1.18-.221 3.022 1.077 3.022 2.132 0 .914-.763.912-1.62-.005-.906-.968-2.68-.225-3.858 1.617-.932 1.457-1.167 2.128-1.087 3.098.068.824.157 1.025.683 1.551.85.85 2.128 1.105 3.614.722 1.555-.401 2.175-.39 2.236.039.078.543-.953 1.297-1.98 1.448-1.077.158-1.4.155-2.842-.03-.888-.115-1.284-.25-1.6-.548-.592-.555-1.306-1.881-1.557-2.892-.218-.873-.539-1.113-.72-.539-.056.175-.329.561-.606.857-.277.297-.57.732-.653.967-.153.437-.44.615-2.193 1.355-1.216.512-1.702.526-2.638.073-1.006-.487-1.34-1.103-1.341-2.468 0-1.01-.03-1.102-.344-1.102-.19 0-.722.34-1.184.757-.462.417-1.11.928-1.439 1.136-.33.209-.646.456-.703.55-.058.093-.238.17-.4.17-.162 0-.488.151-.724.336-.235.186-1.084.55-1.886.81-1.298.42-1.63.465-3.024.403-.86-.039-1.707-.146-1.88-.238-.667-.358-.77-.196-.997 1.546-.24 1.844-.61 3.7-.895 4.49-.206.568-.24 1.02-.154 2 .078.881.057 1.265-.068 1.265-.1 0-.18.11-.18.245 0 .429-.892.306-1.14-.158z" stroke-width=".163"/></svg>