<svg xmlns="http://www.w3.org/2000/svg" height="31.208" width="31.361"><path d="M.064 15.054c-.19-.309.067-1.269.472-1.753.606-.726.914-1.45.914-2.147 0-.878-.121-1.134-.673-1.419-.38-.197-.47-.35-.47-.807 0-.464.072-.582.405-.666 1.014-.254 2.2 1.166 2.205 2.638.003.917-.383 2.23-.744 2.529a.703.703 0 00-.233.47c0 .63-1.593 1.612-1.876 1.155zm22.747-5.843c.177-.249.443-.855.59-1.347.148-.492.375-1.225.506-1.629.239-.735.335-3.637.138-4.15-.12-.311-.61-.339-.852-.048-.096.115-.248.758-.338 1.428-.09.67-.314 2.137-.497 3.26-.183 1.122-.333 2.243-.334 2.49-.003.586.368.585.787-.003zm-11.63 8.683c1.056-.557 1.489-.978 1.852-1.799 1.285-2.904-.29-5.166-3.21-4.608-.845.161-1.124.305-1.67.861-.787.803-1.424 2.47-1.579 4.136-.1 1.087-.09 1.134.347 1.478.389.306.658.355 1.956.355 1.303 0 1.611-.057 2.304-.423zm-7.789 12.94c-.122-.268-.122-1.026 0-2.571.26-3.273.5-5.59.61-5.865.053-.135.233-.98.4-1.878.167-.898.486-2.514.71-3.591.225-1.078.411-2.21.414-2.515.007-.68.962-2.442 1.626-3 .262-.222.954-.67 1.537-.995 1.859-1.04 3.36-.791 5.077.84 1.054 1.002 1.258 1.895.987 4.323-.117 1.044-.105 1.102.213 1.102.185 0 .544-.174.798-.385.254-.212.687-.501.963-.643.79-.404 2.845-2.396 2.845-2.756 0-.176.086-.48.191-.676.105-.196.284-.797.397-1.336.114-.539.325-1.494.47-2.123.305-1.318.525-2.808.725-4.912.163-1.712.45-2.357 1.438-3.238l.69-.615.615.301c1.507.738 1.892 3.305 1.012 6.75-.218.855-1.204 2.868-1.643 3.358-.167.185-.303.412-.303.505 0 .092-.155.308-.346.48-.19.17-.66.751-1.046 1.29-.598.836-.73 1.173-.903 2.298-.2 1.31-.199 1.322.25 2.086.82 1.4 2.474 1.796 4.242 1.014 1.577-.697 2.245-1.4 3.251-3.422.497-.997 1.02-2.23 1.164-2.738.32-1.134.586-1.4 1.148-1.143.365.166.502.476.408.925-.019.09-.183.751-.364 1.47-.932 3.683-1.004 4.677-.375 5.172.79.62.317 1.587-.656 1.343-.44-.11-1.22-.996-1.224-1.388-.007-.608-.274-.672-.833-.199-.668.566-.99.72-2.675 1.285-1.725.578-2.996.495-4.196-.275-.983-.63-1.206-.954-1.581-2.29-.366-1.3-.71-1.416-1.66-.559-.355.321-.73.584-.834.584-.103 0-.42.177-.703.393-.596.455-1.987 1.149-2.622 1.308-.24.06-.629.235-.863.388-1.077.706-3.982 1.184-5.172.85-1.415-.396-1.796-.038-2.058 1.936-.08.597-.218 1.562-.308 2.146-.09.583-.277 2.38-.416 3.99-.139 1.612-.332 3.026-.43 3.143-.278.336-.78.25-.97-.167z"/></svg>