<?xml version="1.0" encoding="UTF-8" standalone="no"?>
<svg
   xmlns:dc="http://purl.org/dc/elements/1.1/"
   xmlns:cc="http://creativecommons.org/ns#"
   xmlns:rdf="http://www.w3.org/1999/02/22-rdf-syntax-ns#"
   xmlns:svg="http://www.w3.org/2000/svg"
   xmlns="http://www.w3.org/2000/svg"
   id="svg2502"
   viewBox="0 0 33.627074 30.711853"
   version="1.1"
   height="30.711853"
   width="33.627075">
  <defs
     id="defs2506" />
  <metadata
     id="metadata2">
    <rdf:RDF>
      <cc:Work
         rdf:about="">
        <dc:format>image/svg+xml</dc:format>
        <dc:type
           rdf:resource="http://purl.org/dc/dcmitype/StillImage" />
        <dc:title />
      </cc:Work>
    </rdf:RDF>
  </metadata>
  <g
     transform="translate(-424.16742,-544.32483)"
     style="stroke-width:0.16327"
     id="g2500">
    <path
       d="m 450.97,551.8 c -0.10776,-0.10776 -0.19592,-0.50926 -0.19592,-0.89222 0,-0.84556 0.3662,-1.1353 1.088,-0.86086 0.55189,0.20983 0.70211,0.42299 0.70539,1.001 0.004,0.7321 -1.0984,1.2512 -1.5975,0.75212 z m -26.706,8.1097 c -0.17618,-0.45917 -0.11363,-0.83519 0.20671,-1.2424 0.41509,-0.52769 0.83368,-1.9871 0.83368,-2.9066 0,-0.56661 -0.0777,-0.79597 -0.32139,-0.94813 -0.41495,-0.25914 -0.84589,-1.0936 -0.72605,-1.4059 0.12524,-0.32637 0.3742,-0.40305 1.0051,-0.30962 0.4379,0.0649 0.61749,0.23284 1.0418,0.9745 0.78411,1.3705 0.68999,2.7612 -0.32555,4.8107 -0.52885,1.0673 -0.64693,1.2007 -1.1021,1.245 -0.3537,0.0344 -0.54115,-0.0322 -0.61225,-0.21742 z m 29.855,14.61 c -0.0582,-0.18338 -0.0638,-0.60583 -0.0126,-0.93878 0.86336,-5.603 0.94042,-5.9115 1.4768,-5.9115 0.55902,0 0.79517,0.38472 0.67507,1.0998 -0.0568,0.33798 -0.16922,1.4594 -0.24991,2.492 -0.0807,1.0326 -0.19898,2.1186 -0.26287,2.4132 -0.20465,0.9438 -1.3984,1.5642 -1.6265,0.84526 z m -8.6662,-21.259 c 0.17118,-0.29126 0.44615,-0.80042 0.61103,-1.1314 0.16488,-0.33104 0.36573,-0.64262 0.44632,-0.69243 0.32799,-0.20269 0.68616,-2.3153 0.63866,-3.7669 -0.0476,-1.4534 -0.0528,-1.4699 -0.48005,-1.5194 -0.38362,-0.0444 -0.46287,0.0378 -0.70834,0.7347 -0.15202,0.43159 -0.34335,0.91229 -0.42519,1.0682 -0.0818,0.15593 -0.14878,0.75727 -0.14878,1.3363 0,0.57905 -0.0675,1.2302 -0.14991,1.4471 -0.21555,0.56692 -0.4099,3.0557 -0.23852,3.0545 0.0789,0 0.28359,-0.23934 0.45478,-0.53061 z m -12.098,9.9989 c 0.96514,-0.29811 1.1072,-0.40066 1.5266,-1.102 0.56395,-0.94321 1.1988,-2.5601 1.1988,-3.0534 0,-0.53382 -0.5752,-2.1131 -0.923,-2.5342 -0.90274,-1.093 -1.294,-1.1915 -2.1923,-0.55158 -0.36123,0.25732 -0.84808,0.58021 -1.0819,0.71752 -0.38966,0.22885 -0.88096,1.0564 -1.5733,2.65 -0.30211,0.69544 -0.75981,2.7543 -0.76002,3.4187 -6e-5,0.24774 0.12503,0.51376 0.28558,0.60728 0.48435,0.2821 2.3784,0.20011 3.5196,-0.15234 z m -6.7411,11.355 c -0.28202,-0.52698 -0.1207,-2.5337 0.32859,-4.0872 0.39926,-1.3805 0.61053,-2.5943 0.80989,-4.6531 0.23078,-2.3831 0.49631,-4.0925 0.74777,-4.8139 0.12567,-0.36052 0.22955,-0.82325 0.23086,-1.0283 0.002,-0.20503 0.18606,-0.73525 0.41055,-1.1782 0.22449,-0.44301 0.40816,-0.96515 0.40816,-1.1603 0,-0.20637 0.2488,-0.56727 0.59466,-0.86258 0.32707,-0.27927 0.90828,-0.82 1.2916,-1.2016 0.3833,-0.38164 0.81189,-0.69388 0.95241,-0.69388 0.14054,0 0.49606,-0.14666 0.79007,-0.32593 0.69171,-0.42173 0.95037,-0.41149 1.9116,0.0756 0.75897,0.38459 1.4801,1.086 1.4801,1.4397 0,0.0912 0.19397,0.56227 0.43105,1.0468 0.37386,0.76413 0.4184,1.0155 0.33559,1.8938 -0.0525,0.55701 -0.28321,1.5104 -0.51268,2.1185 -0.22947,0.60818 -0.41723,1.251 -0.41723,1.4286 0,0.48608 0.5443,0.40418 1.4325,-0.21551 1.7431,-1.2162 2.3226,-1.6521 2.3226,-1.7472 0,-0.0551 0.33838,-0.46344 0.75195,-0.90734 0.75575,-0.81117 1.3705,-1.8201 1.3705,-2.2493 0,-0.12689 0.26365,-1.1004 0.58587,-2.1633 0.38919,-1.2838 0.65902,-2.6198 0.8038,-3.9799 0.32426,-3.046 0.66803,-4.5432 1.2304,-5.3582 0.26511,-0.38426 0.48203,-0.76466 0.48203,-0.84531 0,-0.0806 0.19358,-0.29891 0.43018,-0.48501 0.5113,-0.40219 1.6171,-0.45453 2.1226,-0.10046 1.1071,0.77546 0.99934,4.978 -0.18709,7.2959 -0.7688,1.5019 -0.69579,1.3756 -1.4395,2.4914 -0.34371,0.51561 -0.70586,1.1709 -0.80483,1.4562 -0.099,0.28527 -0.54133,0.98511 -0.98306,1.5552 -0.97765,1.2617 -1.424,2.6523 -1.424,4.4368 0,1.642 0.21504,1.9552 1.3425,1.9552 0.51602,0 0.93282,-0.0931 1.0928,-0.24404 0.14224,-0.13422 0.49945,-0.43637 0.79381,-0.67146 0.29439,-0.23507 0.87872,-0.87832 1.2985,-1.4294 0.41978,-0.55108 0.81082,-1.0388 0.86895,-1.0836 0.0581,-0.0449 0.3095,-0.40698 0.55867,-0.80465 0.24916,-0.39766 0.70905,-0.98542 1.022,-1.3061 0.31295,-0.32068 0.63113,-0.74474 0.7071,-0.94227 0.14805,-0.38498 2.487,-1.8449 2.9557,-1.8449 0.15371,0 0.31975,-0.0652 0.36894,-0.14476 0.0492,-0.0796 0.3476,-0.19319 0.66309,-0.25237 1.1806,-0.22149 3.0218,1.0771 3.0218,2.1314 0,0.91417 -0.76273,0.91182 -1.6203,-0.005 -0.90571,-0.96829 -2.6796,-0.22449 -3.858,1.6177 -0.93195,1.4569 -1.1672,2.1273 -1.0867,3.0972 0.0683,0.82382 0.1571,1.0254 0.68311,1.5514 0.84974,0.84975 2.1277,1.1051 3.6135,0.72201 1.5557,-0.40109 2.1752,-0.39036 2.2364,0.0387 0.0775,0.54323 -0.9526,1.2967 -1.9792,1.4477 -1.078,0.15861 -1.4016,0.1552 -2.8426,-0.03 -0.88855,-0.11422 -1.2844,-0.24947 -1.6011,-0.54702 -0.59146,-0.55566 -1.305,-1.8815 -1.5566,-2.8923 -0.21727,-0.87283 -0.53825,-1.113 -0.72042,-0.53892 -0.0556,0.17502 -0.32776,0.56073 -0.60488,0.85714 -0.27714,0.29641 -0.57114,0.73148 -0.65334,0.96684 -0.15267,0.43719 -0.43972,0.61442 -2.1934,1.3543 -1.2157,0.51288 -1.7016,0.52635 -2.6379,0.0731 -1.0054,-0.4867 -1.3404,-1.103 -1.3411,-2.4675 0,-1.011 -0.029,-1.102 -0.34397,-1.102 -0.18885,0 -0.7215,0.34072 -1.1837,0.75714 -0.46217,0.41644 -1.1096,0.92774 -1.4388,1.1362 -0.32919,0.2085 -0.64578,0.45554 -0.70352,0.54898 -0.0577,0.0934 -0.23769,0.16987 -0.39987,0.16987 -0.16218,0 -0.48771,0.15169 -0.7234,0.33708 -0.23569,0.18539 -1.0846,0.54975 -1.8866,0.80968 -1.2981,0.42075 -1.6298,0.46492 -3.0234,0.40266 -0.86093,-0.0385 -1.7069,-0.14566 -1.8798,-0.23823 -0.66713,-0.35706 -0.77123,-0.19569 -0.99724,1.546 -0.23938,1.8448 -0.60943,3.7007 -0.89521,4.4898 -0.20585,0.56839 -0.24074,1.0211 -0.15413,2 0.078,0.88181 0.0573,1.2653 -0.0683,1.2653 -0.0991,0 -0.18026,0.1102 -0.18026,0.2449 0,0.42948 -0.89166,0.3061 -1.1399,-0.15773 z"
       id="application" />
  </g>
</svg>
