<?xml version="1.0" encoding="UTF-8" standalone="no"?>
<svg
   xmlns:dc="http://purl.org/dc/elements/1.1/"
   xmlns:cc="http://creativecommons.org/ns#"
   xmlns:rdf="http://www.w3.org/1999/02/22-rdf-syntax-ns#"
   xmlns:svg="http://www.w3.org/2000/svg"
   xmlns="http://www.w3.org/2000/svg"
   id="svg2502"
   viewBox="0 0 35.681346 32.182171"
   version="1.1"
   height="32.182171"
   width="35.681347">
  <defs
     id="defs2506" />
  <metadata
     id="metadata2">
    <rdf:RDF>
      <cc:Work
         rdf:about="">
        <dc:format>image/svg+xml</dc:format>
        <dc:type
           rdf:resource="http://purl.org/dc/dcmitype/StillImage" />
        <dc:title />
      </cc:Work>
    </rdf:RDF>
  </metadata>
  <g
     transform="translate(-423.90625,-568.95258)"
     style="stroke-width:0.16327"
     id="g2500">
    <path
       d="m 423.97,584.09 c -0.2079,-0.4563 0.10213,-1.2824 0.79249,-2.1116 1.1424,-1.3722 1.3348,-2.6886 0.53961,-3.6925 -0.52997,-0.66916 -0.59902,-0.96833 -0.29388,-1.2735 0.3691,-0.36909 0.8875,-0.20348 1.5272,0.4879 0.57025,0.61634 0.63918,0.78573 0.69845,1.7166 0.0603,0.94635 0.008,1.1522 -0.62199,2.459 -0.66709,1.3834 -1.8085,2.814 -2.2452,2.814 -0.11793,0 -0.29643,-0.18 -0.39666,-0.39998 z m 26.483,8.6558 c -0.14018,-0.16892 -0.14631,-0.32366 -0.022,-0.55589 0.17879,-0.33405 1.1053,-0.53905 3.4423,-0.76161 0.58367,-0.0556 1.3551,-0.16454 1.7143,-0.24211 3.6213,-0.78215 4,-0.76684 4,0.16181 0,0.5985 -0.27236,0.7472 -1.6327,0.8914 -0.58367,0.0619 -1.6122,0.21244 -2.2857,0.33458 -0.67347,0.12215 -2.0789,0.26344 -3.1232,0.31397 -1.5324,0.0742 -1.9362,0.0467 -2.093,-0.14215 z m -4.5913,-15.643 c 0.59267,-0.94533 1.1342,-2.269 1.3775,-3.367 0.46562,-2.1015 0.28483,-3.2861 -0.50152,-3.2861 -0.79926,0 -1.1063,1.0016 -1.2692,4.1408 -0.0553,1.0652 -0.14296,2.1489 -0.19481,2.4082 -0.11682,0.5841 0.24681,0.64844 0.58808,0.10409 z m -12.674,11.246 c 1.3852,-0.20827 1.46,-0.24176 2.0902,-0.93525 0.81907,-0.90129 1.2894,-1.9416 1.2894,-2.8518 0,-0.99073 -0.20937,-1.4341 -1.0637,-2.2527 -0.9046,-0.86676 -2.0195,-1.1754 -3.1958,-0.88474 -0.66447,0.16418 -1.5933,0.93422 -1.6114,1.3359 -0.007,0.14826 -0.70309,1.7347 -0.98869,2.2522 -0.0842,0.15251 -0.20207,0.97505 -0.26202,1.8279 l -0.109,1.5506 0.96225,0.0596 c 0.52924,0.0328 1.0725,0.0719 1.2072,0.087 0.1347,0.015 0.8914,-0.0699 1.6816,-0.18867 z m -6.6584,12.572 c -0.28724,-0.21002 -0.2951,-0.36375 -0.13817,-2.7012 0.0963,-1.435 0.24582,-2.5579 0.35501,-2.6671 0.10372,-0.10372 0.18859,-0.5144 0.18859,-0.91262 0,-0.39822 0.072,-1.1733 0.16008,-1.7224 0.44189,-2.756 0.65624,-4.5974 0.65624,-5.6374 0,-1.2829 0.46872,-2.76 1.3093,-4.1262 0.26763,-0.43492 0.48658,-0.89197 0.48658,-1.0156 0,-0.38857 1.8602,-1.9746 2.5629,-2.1851 1.5788,-0.47303 2.6138,-0.18442 4.3072,1.201 1.2034,0.98451 1.6216,1.7806 1.6178,3.0797 -0.002,0.61034 -0.28308,1.8882 -0.56865,2.5832 -0.30929,0.75269 1.5432,-0.0688 2.5726,-1.1408 0.32444,-0.33785 0.85844,-0.82952 1.1867,-1.0926 0.32825,-0.26308 0.66529,-0.63043 0.74903,-0.81632 0.0837,-0.1859 0.32142,-0.56893 0.52822,-0.8512 0.25885,-0.35331 0.45978,-1.0146 0.64489,-2.1224 0.6424,-3.8444 0.93004,-5.9331 0.9312,-6.762 0.003,-2.0813 0.6803,-4.2199 1.5238,-4.8108 0.83611,-0.58563 2.1929,-0.17665 2.9027,0.87496 0.49316,0.73073 0.50833,0.80451 0.42487,2.066 -0.0778,1.1755 -0.38678,2.3245 -1.0105,3.7572 -0.11727,0.26939 -0.40971,0.96735 -0.64986,1.551 -0.24016,0.58368 -0.61125,1.3184 -0.82465,1.6327 -0.21342,0.31428 -0.64568,1.049 -0.96059,1.6326 -0.31491,0.58367 -0.72924,1.3449 -0.92074,1.6916 -0.41511,0.75159 -0.88484,2.7105 -0.86073,3.5896 0.0348,1.2684 1.2859,2.0171 3.0896,1.8486 1.5246,-0.14238 2.2106,-0.60846 3.2629,-2.2171 0.25902,-0.39595 0.59798,-0.91023 0.75323,-1.1428 0.65415,-0.98009 1.0722,-2.014 1.3504,-3.3394 0.28142,-1.341 0.31703,-1.41 0.72752,-1.41 0.23739,0 0.51979,0.0882 0.62755,0.19591 0.24712,0.24712 0.25474,1.8274 0.0124,2.5807 -0.18397,0.572 -0.40503,1.8469 -0.57491,3.3158 -0.0857,0.74135 -0.0521,0.83239 0.58973,1.5935 0.83927,0.99531 0.85069,1.5123 0.0352,1.5906 -0.44193,0.0424 -0.63994,-0.0523 -1.0757,-0.51432 -0.29375,-0.31146 -0.65959,-0.83076 -0.81298,-1.154 -0.15339,-0.32326 -0.39691,-0.58774 -0.54117,-0.58774 -0.14425,0 -0.64213,0.35924 -1.1064,0.79831 -1.0847,1.0258 -1.9087,1.438 -3.3091,1.6553 -1.007,0.15625 -1.2264,0.13837 -2.0408,-0.16635 -0.50186,-0.18777 -1.1115,-0.49791 -1.3547,-0.68921 -0.48862,-0.38436 -1.2135,-1.7993 -1.216,-2.3736 -0.002,-0.57591 -0.33781,-0.43929 -1.3077,0.5328 -0.49388,0.49499 -1.2469,1.1011 -1.6733,1.3469 -0.4264,0.2458 -0.77542,0.50198 -0.77552,0.56932 -8e-5,0.0674 -0.12873,0.12281 -0.28587,0.12325 -0.15715,0 -0.76327,0.2456 -1.3469,0.54479 -1.8466,0.94661 -4.9965,1.3703 -6.2605,0.84217 -0.32237,-0.1347 -0.76041,-0.2449 -0.97345,-0.2449 -0.458,0 -0.57689,0.44702 -1.0204,3.8367 -0.15273,1.1674 -0.33881,2.2851 -0.4135,2.4838 -0.0747,0.19876 -0.18523,1.3375 -0.24562,2.5306 -0.0604,1.1931 -0.18243,2.2611 -0.2712,2.3733 -0.21126,0.2671 -0.63655,0.25931 -1.0166,-0.0186 z"
       id="applied" />
  </g>
</svg>
