<svg xmlns="http://www.w3.org/2000/svg" height="32.182" width="35.681"><path d="M.064 15.137c-.208-.456.102-1.282.792-2.111 1.143-1.372 1.335-2.689.54-3.693-.53-.669-.6-.968-.294-1.273.37-.37.887-.204 1.527.488.57.616.64.785.699 1.716.06.947.008 1.153-.622 2.46C2.039 14.106.897 15.536.46 15.536c-.117 0-.296-.18-.396-.4zm26.483 8.656c-.14-.169-.147-.323-.022-.556.179-.334 1.105-.539 3.442-.761a18.641 18.641 0 001.714-.242c3.622-.783 4-.767 4 .161 0 .599-.272.748-1.632.892-.584.062-1.613.212-2.286.334-.674.123-2.079.264-3.123.314-1.533.075-1.936.047-2.093-.142zM21.955 8.15a11.645 11.645 0 001.378-3.367c.466-2.101.285-3.286-.502-3.286-.799 0-1.106 1.002-1.269 4.14-.055 1.066-.143 2.15-.195 2.41-.116.583.247.648.589.103zM9.281 19.396c1.386-.208 1.46-.242 2.09-.935.82-.901 1.29-1.942 1.29-2.852 0-.99-.21-1.434-1.064-2.253-.904-.866-2.02-1.175-3.195-.884-.665.164-1.594.934-1.612 1.336-.007.148-.703 1.734-.989 2.252-.084.152-.202.975-.262 1.828l-.109 1.55.963.06c.529.033 1.072.072 1.207.087s.891-.07 1.681-.189zM2.623 31.968c-.287-.21-.295-.364-.138-2.701.096-1.435.246-2.558.355-2.667.104-.104.188-.514.188-.913 0-.398.072-1.173.16-1.722.442-2.756.657-4.597.657-5.637 0-1.283.469-2.76 1.31-4.127.267-.435.486-.892.486-1.015 0-.389 1.86-1.975 2.563-2.185 1.578-.473 2.613-.185 4.307 1.2 1.203.985 1.621 1.781 1.618 3.08-.002.61-.283 1.889-.57 2.584-.308.752 1.544-.07 2.574-1.141.324-.338.858-.83 1.186-1.093.328-.263.666-.63.75-.816.083-.186.32-.57.527-.851.26-.354.46-1.015.645-2.123.643-3.844.93-5.933.932-6.762.003-2.081.68-4.22 1.523-4.81.836-.586 2.193-.177 2.903.874.493.731.508.805.425 2.066-.078 1.176-.387 2.325-1.01 3.758-.118.269-.41.967-.65 1.55-.24.584-.612 1.319-.825 1.633a24.06 24.06 0 00-.96 1.633c-.316.584-.73 1.345-.921 1.691-.416.752-.885 2.71-.861 3.59.035 1.268 1.286 2.017 3.09 1.849 1.524-.143 2.21-.609 3.262-2.217.26-.396.598-.91.754-1.143.654-.98 1.072-2.014 1.35-3.34.281-1.34.317-1.41.728-1.41.237 0 .52.089.627.196.247.247.255 1.828.012 2.581-.183.572-.405 1.847-.574 3.316-.086.741-.053.832.59 1.593.839.996.85 1.513.034 1.59-.441.043-.64-.051-1.075-.513-.294-.312-.66-.831-.813-1.154-.154-.324-.397-.588-.541-.588-.145 0-.642.359-1.107.798-1.084 1.026-1.908 1.438-3.309 1.655-1.007.157-1.226.139-2.04-.166-.503-.188-1.112-.498-1.355-.69-.489-.384-1.214-1.798-1.216-2.373-.002-.576-.338-.439-1.308.533-.494.495-1.247 1.101-1.673 1.347-.427.246-.776.502-.776.57 0 .067-.129.122-.286.123-.157 0-.763.245-1.347.544-1.846.947-4.996 1.37-6.26.842-.323-.134-.76-.244-.974-.244-.458 0-.576.447-1.02 3.836-.153 1.168-.339 2.285-.413 2.484-.075.199-.186 1.338-.246 2.53-.06 1.194-.183 2.262-.271 2.374-.212.267-.637.26-1.017-.019z" stroke-width=".163"/></svg>