<?xml version="1.0" encoding="UTF-8" standalone="no"?>
<svg
   xmlns:dc="http://purl.org/dc/elements/1.1/"
   xmlns:cc="http://creativecommons.org/ns#"
   xmlns:rdf="http://www.w3.org/1999/02/22-rdf-syntax-ns#"
   xmlns:svg="http://www.w3.org/2000/svg"
   xmlns="http://www.w3.org/2000/svg"
   id="svg2502"
   viewBox="0 0 31.360681 31.207863"
   version="1.1"
   height="31.207863"
   width="31.360682">
  <defs
     id="defs2506" />
  <metadata
     id="metadata2">
    <rdf:RDF>
      <cc:Work
         rdf:about="">
        <dc:format>image/svg+xml</dc:format>
        <dc:type
           rdf:resource="http://purl.org/dc/dcmitype/StillImage" />
        <dc:title />
      </cc:Work>
    </rdf:RDF>
  </metadata>
  <g
     transform="translate(-424.01591,-592.946)"
     style="stroke-width:0.16327"
     id="g2500">
    <path
       d="m 424.08,608 c -0.19083,-0.30875 0.0674,-1.2685 0.47168,-1.7529 0.60578,-0.72589 0.91444,-1.4504 0.91444,-2.1466 0,-0.87829 -0.12132,-1.1342 -0.67285,-1.4194 -0.38026,-0.19664 -0.47001,-0.35078 -0.47001,-0.80717 0,-0.46439 0.0716,-0.58211 0.40496,-0.66577 1.0132,-0.2543 2.1998,1.1655 2.2046,2.6378 0.003,0.9168 -0.38313,2.2293 -0.7439,2.5288 -0.12815,0.10635 -0.233,0.31757 -0.233,0.46937 0,0.63123 -1.5934,1.6132 -1.8759,1.156 z m 22.747,-5.8428 c 0.17713,-0.24877 0.44268,-0.85489 0.59007,-1.3469 0.14741,-0.49205 0.37519,-1.2252 0.50619,-1.6293 0.23827,-0.73498 0.33438,-3.6367 0.13745,-4.1499 -0.11947,-0.31136 -0.61014,-0.33911 -0.8516,-0.0482 -0.0959,0.11556 -0.24807,0.75842 -0.33816,1.4286 -0.0901,0.67017 -0.31355,2.1368 -0.49659,3.2593 -0.18302,1.1224 -0.33371,2.2429 -0.33487,2.4898 -0.003,0.58672 0.36847,0.58516 0.78751,-0.003 z m -11.63,8.683 c 1.0559,-0.55755 1.4887,-0.97808 1.852,-1.7992 1.2848,-2.9044 -0.29029,-5.1658 -3.2097,-4.6084 -0.84518,0.16137 -1.1242,0.30531 -1.6701,0.86157 -0.78766,0.80256 -1.4241,2.4696 -1.579,4.1356 -0.10106,1.0873 -0.09,1.1346 0.3466,1.478 0.38886,0.30588 0.65832,0.35476 1.9557,0.35476 1.3035,0 1.6116,-0.0565 2.3045,-0.42235 z m -7.7886,12.94 c -0.12217,-0.26815 -0.12206,-1.0262 0,-2.5714 0.25927,-3.2723 0.49994,-5.5895 0.6091,-5.8647 0.0534,-0.13469 0.23355,-0.97959 0.40024,-1.8776 0.16669,-0.89801 0.48665,-2.5143 0.71097,-3.5918 0.22434,-1.0776 0.41032,-2.2093 0.41331,-2.5149 0.007,-0.67904 0.9616,-2.4418 1.6254,-3.0004 0.26268,-0.22102 0.95432,-0.66845 1.537,-0.9943 1.8593,-1.0398 3.3597,-0.79149 5.0775,0.84026 1.0541,1.0013 1.258,1.8943 0.98681,4.3224 -0.11657,1.0438 -0.10529,1.102 0.21329,1.102 0.185,0 0.54403,-0.17333 0.79786,-0.38519 0.25383,-0.21185 0.6873,-0.5009 0.96325,-0.64233 0.78918,-0.40443 2.8452,-2.396 2.8452,-2.756 0,-0.17579 0.0859,-0.48003 0.19081,-0.67611 0.10493,-0.19609 0.28364,-0.79739 0.39713,-1.3362 0.11348,-0.53882 0.32502,-1.494 0.4701,-2.1225 0.30431,-1.3185 0.5241,-2.8082 0.72475,-4.9124 0.16324,-1.7118 0.44968,-2.357 1.4377,-3.2379 l 0.68987,-0.61513 0.61482,0.30107 c 1.5076,0.73829 1.8927,3.3049 1.0126,6.7501 -0.21826,0.85442 -1.2037,2.8678 -1.6434,3.3575 -0.16643,0.18537 -0.30261,0.41277 -0.30261,0.50531 0,0.0925 -0.15566,0.30821 -0.3459,0.47926 -0.19023,0.17107 -0.6612,0.75194 -1.0466,1.2908 -0.59794,0.83614 -0.73025,1.173 -0.90241,2.2976 -0.20049,1.3098 -0.19897,1.3226 0.24878,2.0866 0.82074,1.4005 2.4748,1.7955 4.2434,1.0133 1.5761,-0.69701 2.2441,-1.4001 3.2505,-3.4211 0.49664,-0.99731 1.0204,-2.2296 1.1638,-2.7384 0.31979,-1.1343 0.58614,-1.3994 1.1484,-1.1432 0.36485,0.16624 0.50157,0.47641 0.40797,0.92547 -0.0187,0.0898 -0.18273,0.75102 -0.36447,1.4694 -0.93199,3.6837 -1.004,4.6772 -0.37486,5.172 0.78975,0.62121 0.31767,1.5876 -0.65613,1.3432 -0.43886,-0.11014 -1.2196,-0.99549 -1.2239,-1.3878 -0.007,-0.60796 -0.27358,-0.67178 -0.83244,-0.19895 -0.66864,0.5657 -0.99086,0.72044 -2.6753,1.2848 -1.7255,0.57806 -2.9963,0.49479 -4.1958,-0.27497 -0.98292,-0.63074 -1.2059,-0.95357 -1.5816,-2.2897 -0.36568,-1.3004 -0.70979,-1.4163 -1.6589,-0.55886 -0.35538,0.32107 -0.73084,0.58376 -0.83435,0.58376 -0.10351,0 -0.41995,0.17677 -0.7032,0.39282 -0.59661,0.45503 -1.9868,1.1485 -2.6221,1.3079 -0.24087,0.0605 -0.62905,0.23514 -0.86261,0.38818 -1.0779,0.70625 -3.982,1.1836 -5.1728,0.85017 -1.4148,-0.39613 -1.7954,-0.0381 -2.058,1.9361 -0.0793,0.59621 -0.21785,1.5616 -0.30784,2.1452 -0.09,0.58367 -0.27716,2.3795 -0.41592,3.9908 -0.13877,1.6113 -0.33197,3.0256 -0.42931,3.1429 -0.27875,0.33589 -0.78053,0.24953 -0.97031,-0.16697 z"
       id="apply" />
  </g>
</svg>
