<?xml version="1.0" encoding="UTF-8" standalone="no"?>
<svg
   xmlns:dc="http://purl.org/dc/elements/1.1/"
   xmlns:cc="http://creativecommons.org/ns#"
   xmlns:rdf="http://www.w3.org/1999/02/22-rdf-syntax-ns#"
   xmlns:svg="http://www.w3.org/2000/svg"
   xmlns="http://www.w3.org/2000/svg"
   id="svg2502"
   viewBox="0 0 76.508756 25.298115"
   version="1.1"
   height="25.298115"
   width="76.508759">
  <defs
     id="defs2506" />
  <metadata
     id="metadata2">
    <rdf:RDF>
      <cc:Work
         rdf:about="">
        <dc:format>image/svg+xml</dc:format>
        <dc:type
           rdf:resource="http://purl.org/dc/dcmitype/StillImage" />
        <dc:title />
      </cc:Work>
    </rdf:RDF>
  </metadata>
  <g
     transform="translate(-425.46439,-645.72227)"
     style="stroke-width:0.16327"
     id="g2500">
    <path
       d="m 443.13,647.48 c -0.699,-0.69901 0.54776,-2.1884 1.3715,-1.6383 0.21399,0.14289 0.55505,0.76176 0.55505,1.0072 0,0.63017 -1.4518,1.1058 -1.9265,0.63114 z m -17.348,7.777 c -0.24715,-0.2978 -0.004,-1.1515 0.53529,-1.8813 0.38014,-0.51422 0.60738,-1.435 0.61258,-2.4823 0.004,-0.70459 -0.0693,-0.86072 -0.73079,-1.568 -0.40408,-0.432 -0.73469,-0.86443 -0.73469,-0.96095 0,-0.29378 0.49236,-0.68861 0.85869,-0.68861 1.6675,0 2.7664,3.4145 1.7602,5.4694 -0.21985,0.44898 -0.53171,0.95876 -0.69301,1.1328 -0.16129,0.17408 -0.29326,0.37325 -0.29326,0.44262 0,0.19192 -0.68852,0.7919 -0.90875,0.7919 -0.10678,0 -0.2896,-0.11504 -0.40629,-0.25564 z m 9.2707,3.5036 c 0.84284,-0.46851 1.1022,-0.71956 1.6903,-1.636 0.41786,-0.6512 0.51137,-0.97151 0.53248,-1.8242 0.0221,-0.89135 -0.0427,-1.1451 -0.46895,-1.836 -0.27202,-0.44093 -0.71283,-0.90707 -0.97959,-1.0358 -0.26676,-0.12878 -0.61261,-0.2957 -0.76853,-0.37093 -0.536,-0.25862 -1.5299,-0.14747 -2.0966,0.23445 -0.82245,0.55423 -1.1822,1.2006 -1.9253,3.4596 -0.72097,2.1915 -0.79076,2.6472 -0.47006,3.0691 0.41477,0.54557 3.4703,0.5046 4.4863,-0.0602 z m -6.9551,12.043 c -0.36636,-0.44142 -0.36489,-1.2274 0.007,-3.9451 0.20895,-1.5257 0.36304,-3.2148 0.3424,-3.7536 -0.0432,-1.1286 0.39226,-4.8646 0.63749,-5.4694 0.091,-0.22449 0.33355,-1.0694 0.53894,-1.8776 0.36052,-1.4186 1.2132,-3.1642 1.9355,-3.9623 0.18441,-0.20376 0.67658,-0.58947 1.0937,-0.85714 1.1125,-0.71387 2.2981,-0.68954 3.6529,0.0749 1.512,0.85318 2.2801,2.015 2.485,3.7591 0.0695,0.59135 0.0269,0.99003 -0.14151,1.3239 -0.13253,0.26279 -0.28425,0.7583 -0.33716,1.1012 l -0.0962,0.62334 0.52216,-0.10295 c 0.84609,-0.16683 1.4201,-0.43362 1.4201,-0.66003 0,-0.11625 0.33618,-0.56652 0.74709,-1.0006 1.0058,-1.0625 1.6551,-2.5372 2.1997,-4.9954 0.25042,-1.1304 0.48939,-1.3866 1.0536,-1.1295 0.70745,0.32233 0.7178,0.81757 0.0928,4.4377 -0.44619,2.5844 -0.41688,2.9006 0.31504,3.3994 0.54222,0.36952 0.66738,0.38509 2.449,0.30462 1.3157,-0.0594 2.1218,-0.18085 2.6939,-0.40573 1.5205,-0.59773 2.6244,-1.1404 2.8341,-1.393 0.11486,-0.1384 0.43047,-0.30031 0.70136,-0.35981 0.27089,-0.0595 0.97428,-0.46831 1.5631,-0.90846 0.58882,-0.44014 1.3508,-0.87573 1.6934,-0.96798 0.34255,-0.0922 0.66194,-0.23104 0.70978,-0.30844 0.0478,-0.0774 0.26986,-0.18665 0.49337,-0.24274 0.22351,-0.0561 0.77959,-0.32204 1.2357,-0.59099 0.45615,-0.26895 1.1372,-0.55869 1.5135,-0.64389 0.37629,-0.0852 1.0883,-0.29461 1.5821,-0.4654 2.2757,-0.78696 5.8845,-0.8758 8.0446,-0.19806 2.0336,0.63806 3.1343,1.4807 3.8455,2.9438 0.37912,0.77992 0.43649,1.101 0.43649,2.4426 0,1.4964 0.0134,1.5522 0.42756,1.7848 0.39471,0.22163 0.49825,0.20549 1.3476,-0.21006 0.59884,-0.29298 1.1906,-0.76726 1.6949,-1.3585 1.2628,-1.4804 2.874,-3.045 3.4771,-3.3762 0.30968,-0.17011 0.70999,-0.44072 0.88958,-0.60137 1.1487,-1.0276 3.7021,-0.77442 3.8666,0.38336 0.0394,0.27729 0.17732,0.37613 0.57892,0.4149 0.42941,0.0415 0.64141,-0.0647 1.1429,-0.57206 0.60962,-0.61685 1.2791,-0.96658 2.6086,-1.3626 0.55445,-0.16517 0.88488,-0.1636 1.7143,0.008 0.88969,0.18421 1.1351,0.32183 1.83,1.0263 0.65165,0.66056 0.85121,0.7799 1.0612,0.63463 1.7596,-1.2173 3.6908,-1.7939 5.2772,-1.5758 1.1756,0.16165 1.5151,0.66077 1.6509,2.427 0.11644,1.515 -0.0109,3.5945 -0.24858,4.0574 -0.0807,0.15714 -0.32517,0.28571 -0.54334,0.28571 -0.55853,0 -0.71731,-0.41858 -0.56799,-1.4973 0.12472,-0.90102 -0.13526,-3.4433 -0.3951,-3.8637 -0.0646,-0.10449 -0.35185,-0.18872 -0.63838,-0.18719 -0.76746,0.004 -2.7246,0.55027 -3.3543,0.936 -0.5992,0.36707 -1.3154,1.4021 -1.3273,1.9184 -0.0234,1.012 -0.82157,2.3673 -1.3942,2.3673 h -0.4044 v -2.1756 c 0,-2.0482 -0.0215,-2.1952 -0.36734,-2.5102 -0.56105,-0.51102 -1.0212,-0.70192 -1.692,-0.70192 -0.57022,0 -1.6741,0.29404 -1.859,0.4952 -0.0449,0.0488 -0.31445,0.2329 -0.59902,0.40903 -0.91202,0.56453 -2.503,2.9495 -2.503,3.752 0,0.21988 -0.20789,0.63247 -0.462,0.91684 -0.38435,0.43018 -0.53789,0.498 -0.91382,0.40364 -0.42231,-0.10599 -0.44653,-0.15831 -0.37042,-0.80019 0.0448,-0.37773 0.19628,-1.1643 0.33667,-1.748 0.14037,-0.58367 0.25781,-1.4008 0.26098,-1.8159 0.006,-0.74741 -1.3e-4,-0.75556 -0.60652,-0.85087 -0.56925,-0.0895 -1.3897,0.0286 -2.0226,0.29107 -0.14713,0.061 -0.84509,0.74334 -1.551,1.5163 -3.1616,3.4618 -4.0926,4.2177 -5.3954,4.3804 -1.0575,0.13213 -1.4658,0.0348 -2.0751,-0.495 -0.46382,-0.40322 -0.4703,-0.43172 -0.34418,-1.5144 0.19564,-1.6793 0.14114,-2.1505 -0.36261,-3.1357 -0.68402,-1.3378 -2.0038,-2.1836 -3.8342,-2.457 -0.74452,-0.11123 -2.1401,-0.19437 -3.1012,-0.18473 -1.544,0.0155 -1.953,0.0859 -3.5102,0.60491 -0.96946,0.32307 -1.9831,0.68516 -2.2524,0.80464 -1.0222,0.45339 -1.9738,0.90986 -2.3673,1.1355 -0.62629,0.35917 -1.8779,0.90439 -2.0762,0.90439 -0.0975,0 -0.61786,0.33127 -1.1565,0.73613 -0.5386,0.40488 -1.2622,0.85274 -1.608,0.99525 -0.34579,0.1425 -0.77567,0.39295 -0.95526,0.55652 -1.1474,1.0452 -5.4793,1.8001 -7.328,1.2771 -0.81582,-0.23081 -1.8448,-1.1619 -1.9838,-1.7951 -0.13274,-0.60436 -0.35932,-0.57869 -1.0543,0.11942 -0.61272,0.61551 -3.5247,2.1089 -5.2394,2.6871 -1.1029,0.37187 -3.1687,0.47592 -4.852,0.24439 -0.72269,-0.0994 -0.84392,-0.0731 -0.99879,0.21622 -0.0969,0.18112 -0.17624,0.66906 -0.17624,1.0843 0,0.41524 -0.0749,1.2466 -0.16632,1.8475 -0.0915,0.60088 -0.23956,1.9741 -0.32908,3.0517 -0.0895,1.0776 -0.20591,2.3265 -0.25866,2.7755 -0.1355,1.1533 -0.71886,1.7288 -1.1842,1.1681 z"
       id="appointment" />
  </g>
</svg>
