<svg xmlns="http://www.w3.org/2000/svg" height="25.298" width="76.509"><path d="M17.666 1.758c-.7-.7.547-2.189 1.371-1.639.214.143.555.762.555 1.008 0 .63-1.452 1.105-1.926.63zM.318 9.535C.07 9.237.314 8.383.853 7.653c.38-.514.607-1.435.612-2.482.004-.704-.069-.86-.73-1.568C.33 3.171 0 2.74 0 2.643c0-.295.492-.69.859-.69 1.667 0 2.766 3.415 1.76 5.47-.22.449-.532.959-.693 1.133-.161.174-.293.373-.293.442 0 .192-.689.792-.91.792-.106 0-.289-.115-.405-.255zm9.27 3.503c.843-.468 1.103-.72 1.69-1.636.418-.65.512-.971.533-1.824.022-.891-.043-1.145-.469-1.836-.272-.44-.713-.907-.98-1.036l-.768-.37c-.536-.26-1.53-.148-2.097.234-.822.554-1.182 1.2-1.925 3.46-.72 2.191-.79 2.647-.47 3.069.415.545 3.47.504 4.486-.06zM2.633 25.081c-.366-.441-.365-1.227.007-3.945.21-1.525.363-3.215.343-3.753-.044-1.129.392-4.865.637-5.47.091-.224.334-1.07.539-1.877.36-1.419 1.213-3.165 1.936-3.963.184-.203.676-.59 1.093-.857 1.113-.714 2.298-.69 3.653.075 1.512.853 2.28 2.015 2.485 3.76.07.59.027.99-.141 1.323a4.453 4.453 0 00-.338 1.101l-.096.624.522-.103c.847-.167 1.42-.434 1.42-.66 0-.117.337-.567.748-1 1.005-1.063 1.655-2.538 2.2-4.996.25-1.13.489-1.387 1.053-1.13.707.322.718.818.093 4.438-.446 2.584-.417 2.9.315 3.4.542.369.667.384 2.449.304 1.315-.06 2.122-.181 2.694-.406 1.52-.598 2.624-1.14 2.834-1.393.115-.138.43-.3.701-.36.271-.06.974-.468 1.563-.908s1.351-.876 1.694-.968c.342-.092.662-.231.71-.309.047-.077.27-.186.493-.242.223-.056.78-.322 1.235-.591.457-.27 1.138-.559 1.514-.644a18.458 18.458 0 001.582-.466c2.276-.787 5.885-.875 8.045-.198 2.033.638 3.134 1.481 3.845 2.944.38.78.437 1.101.437 2.443 0 1.496.013 1.552.427 1.785.395.221.498.205 1.348-.21.599-.293 1.19-.768 1.695-1.359 1.263-1.48 2.874-3.045 3.477-3.376.31-.17.71-.44.89-.602 1.148-1.027 3.702-.774 3.866.384.04.277.177.376.579.415.43.041.641-.065 1.143-.572.61-.617 1.279-.967 2.608-1.363.555-.165.885-.164 1.715.008.89.184 1.135.322 1.83 1.026.651.66.85.78 1.06.635 1.76-1.217 3.692-1.794 5.278-1.576 1.176.162 1.515.66 1.651 2.427.116 1.515-.01 3.595-.249 4.058-.08.157-.325.285-.543.285-.558 0-.717-.418-.568-1.497.125-.901-.135-3.443-.395-3.864-.065-.104-.352-.188-.638-.187-.768.004-2.725.55-3.355.936-.599.367-1.315 1.402-1.327 1.918-.023 1.012-.822 2.368-1.394 2.368h-.405v-2.176c0-2.048-.021-2.195-.367-2.51-.561-.511-1.021-.702-1.692-.702-.57 0-1.674.294-1.859.495-.045.05-.314.233-.599.41-.912.564-2.503 2.949-2.503 3.751 0 .22-.208.633-.462.917-.384.43-.538.498-.914.404-.422-.106-.446-.159-.37-.8.045-.378.196-1.165.336-1.748.14-.584.258-1.401.261-1.816.006-.748 0-.756-.606-.851-.57-.09-1.39.028-2.023.29-.147.062-.845.744-1.55 1.517-3.162 3.462-4.093 4.218-5.396 4.38-1.058.133-1.466.035-2.075-.494-.464-.404-.47-.432-.344-1.515.195-1.68.14-2.15-.363-3.136-.684-1.337-2.004-2.183-3.834-2.457-.745-.11-2.14-.194-3.101-.184-1.544.015-1.953.086-3.51.605-.97.323-1.984.685-2.253.804-1.022.454-1.974.91-2.367 1.136-.627.359-1.878.904-2.076.904-.098 0-.618.331-1.157.736-.539.405-1.262.853-1.608.996-.346.142-.776.393-.955.556-1.148 1.045-5.48 1.8-7.328 1.277-.816-.23-1.845-1.162-1.984-1.795-.133-.604-.36-.579-1.054.12-.613.615-3.525 2.108-5.24 2.687-1.103.371-3.168.476-4.852.244-.722-.1-.844-.073-.998.216-.097.181-.177.67-.177 1.085 0 .415-.075 1.246-.166 1.847-.092.6-.24 1.974-.33 3.052-.089 1.077-.205 2.326-.258 2.775-.135 1.154-.719 1.729-1.184 1.168z" stroke-width=".163"/></svg>