<?xml version="1.0" encoding="UTF-8" standalone="no"?>
<svg
   xmlns:dc="http://purl.org/dc/elements/1.1/"
   xmlns:cc="http://creativecommons.org/ns#"
   xmlns:rdf="http://www.w3.org/1999/02/22-rdf-syntax-ns#"
   xmlns:svg="http://www.w3.org/2000/svg"
   xmlns="http://www.w3.org/2000/svg"
   id="svg2502"
   viewBox="0 0 48.790316 25.757292"
   version="1.1"
   height="25.757292"
   width="48.790318">
  <defs
     id="defs2506" />
  <metadata
     id="metadata2">
    <rdf:RDF>
      <cc:Work
         rdf:about="">
        <dc:format>image/svg+xml</dc:format>
        <dc:type
           rdf:resource="http://purl.org/dc/dcmitype/StillImage" />
        <dc:title />
      </cc:Work>
    </rdf:RDF>
  </metadata>
  <g
     transform="translate(-425.16584,-622.22457)"
     style="stroke-width:0.16327"
     id="g2500">
    <path
       d="m 444.78,624.13 c -0.27298,-0.13166 -0.36735,-0.31817 -0.36735,-0.72604 0,-0.44405 0.10136,-0.61068 0.53062,-0.87241 0.64151,-0.39114 0.83764,-0.40255 1.172,-0.0682 0.39349,0.3935 0.30759,0.87089 -0.25051,1.3922 -0.56129,0.52432 -0.56474,0.5252 -1.0848,0.2744 z m -19.273,8.1661 c -0.2666,-0.26659 -0.247,-0.94617 0.0363,-1.2606 0.4132,-0.45854 0.79556,-1.7005 0.8668,-2.8153 0.0735,-1.1508 -0.0767,-1.5481 -0.89452,-2.3659 -0.43539,-0.4354 -0.45469,-0.59896 -0.11125,-0.94242 0.3903,-0.39028 0.68919,-0.3153 1.5218,0.38181 0.67163,0.56234 0.78683,0.75633 0.96696,1.6284 0.15596,0.75515 0.16174,1.2525 0.0243,2.0963 -0.19301,1.1854 -0.45324,2.0043 -0.63698,2.0043 -0.0624,0 -0.27422,0.28616 -0.47079,0.63591 -0.45078,0.80204 -0.91235,1.028 -1.3027,0.63756 z m 10.743,2.768 c 1.355,-0.90691 1.7019,-1.5273 1.7714,-3.1674 0.0665,-1.57 -0.18673,-2.1564 -1.2491,-2.8927 -0.76576,-0.53068 -1.9068,-0.5735 -2.9281,-0.10989 -0.60454,0.27443 -0.76031,0.46347 -1.2415,1.5066 -0.57818,1.2536 -0.911,2.6105 -0.97049,3.9569 l -0.0356,0.80488 0.89796,0.28965 c 0.54364,0.17536 1.2846,0.27448 1.8778,0.2512 0.82212,-0.0323 1.1243,-0.13517 1.8776,-0.63931 z m -8.2734,12.509 c -0.26543,-0.40511 -0.26542,-0.48281 0,-1.4286 1.0784,-3.8395 1.5791,-6.3439 1.5791,-7.8985 0,-1.0849 0.44344,-3.5231 1.0466,-5.7547 0.23058,-0.85306 0.50209,-1.8816 0.60335,-2.2857 0.26088,-1.0411 0.31285,-1.1192 1.344,-2.0196 l 0.92625,-0.80875 1.7542,-0.0144 c 1.698,-0.0139 1.7762,0.002 2.4418,0.47537 0.37824,0.26939 0.69048,0.56778 0.69388,0.66309 0.003,0.0953 0.15424,0.3322 0.33518,0.52642 0.7186,0.77133 0.92054,2.1446 0.56704,3.856 -0.14279,0.6913 -0.30047,1.3634 -0.35038,1.4935 -0.27853,0.72581 2.0394,-0.22271 2.8957,-1.185 0.88708,-0.99684 1.7832,-2.2112 1.7832,-2.4165 0,-0.11927 0.17728,-0.57184 0.39393,-1.0058 0.21667,-0.43391 0.44475,-1.1335 0.50686,-1.5546 0.12806,-0.86826 0.52699,-1.3266 1.0858,-1.2475 0.50435,0.0714 0.5478,0.47872 0.22831,2.1403 -0.38183,1.9857 -0.59517,4.6864 -0.39916,5.0526 0.33356,0.62325 1.6533,0.77926 3.7348,0.44155 0.89067,-0.14449 3.5794,-1.2573 4.7352,-1.9598 0.13469,-0.0819 0.65337,-0.36383 1.1526,-0.62659 0.49923,-0.26276 1.0042,-0.59395 1.122,-0.73597 0.11786,-0.14203 0.37061,-0.25838 0.56165,-0.25856 0.34666,0 1.9416,-0.76996 2.7147,-1.3099 0.58188,-0.40641 3.2298,-1.295 4.4418,-1.4906 0.56516,-0.0912 1.3949,-0.22767 1.8439,-0.30323 2.0801,-0.35004 3.6019,-0.10998 5.2385,0.82638 1.0736,0.61426 2.4658,2.126 2.7743,3.0124 0.30966,0.88993 0.29706,1.947 -0.0264,2.2154 -0.40627,0.33716 -0.70148,0.0288 -1.3531,-1.4131 -0.45274,-1.0019 -0.79496,-1.4909 -1.4513,-2.0738 -1.535,-1.3632 -2.2469,-1.5529 -4.7738,-1.2722 -3.1385,0.34864 -3.7003,0.48923 -5.6257,1.4079 -1.0271,0.49001 -1.9043,0.89092 -1.9494,0.89092 -0.0451,0 -0.50815,0.25715 -1.029,0.57143 -0.52083,0.31429 -1.2041,0.65553 -1.5184,0.7583 -0.31429,0.10278 -0.87855,0.39666 -1.2539,0.65307 -0.37537,0.2564 -0.73458,0.46618 -0.79827,0.46618 -0.0637,0 -0.4553,0.2089 -0.87027,0.46423 -0.41496,0.25533 -1.0476,0.55966 -1.4058,0.6763 -0.35822,0.11663 -0.79625,0.3118 -0.97337,0.43373 -0.17713,0.12191 -0.45628,0.22166 -0.62036,0.22166 -0.16407,0 -0.51693,0.11306 -0.78415,0.25125 -0.33128,0.1713 -0.97451,0.25422 -2.0218,0.26064 -1.3404,0.008 -1.6198,-0.0406 -2.194,-0.38301 -0.76264,-0.45477 -1.4862,-1.4351 -1.4862,-2.0137 0,-0.2205 -0.0469,-0.40091 -0.10419,-0.40091 -0.0573,0 -0.41803,0.28927 -0.8016,0.64284 -0.38356,0.35357 -1.0576,0.82539 -1.4979,1.0485 -0.44027,0.2231 -0.89335,0.51755 -1.0069,0.6543 -0.1135,0.13677 -0.62317,0.3328 -1.1326,0.43561 -0.50943,0.10282 -1.6977,0.37128 -2.6405,0.59657 -2.1614,0.51647 -3.5475,0.53203 -4.3661,0.0491 -0.53848,-0.31773 -0.61633,-0.32695 -0.78712,-0.0934 -0.10424,0.14257 -0.24014,0.75313 -0.30199,1.3568 -0.21254,2.0744 -0.77104,5.0249 -1.0863,5.7386 -0.18369,0.4159 -0.31564,1.08 -0.31564,1.5885 0,1.003 -0.39256,2.1231 -0.82523,2.3547 -0.41262,0.22082 -0.43863,0.21151 -0.75407,-0.26991 z"
       id="appoint" />
  </g>
</svg>
