<svg xmlns="http://www.w3.org/2000/svg" height="25.757" width="48.79"><path d="M19.614 1.905c-.273-.131-.367-.318-.367-.726 0-.444.101-.61.53-.872.642-.391.838-.403 1.172-.068.394.393.308.87-.25 1.392-.561.524-.565.525-1.085.274zM.341 10.072C.075 9.805.094 9.125.377 8.81c.414-.459.796-1.7.867-2.815.074-1.151-.076-1.548-.894-2.366-.436-.436-.455-.6-.112-.943.39-.39.69-.315 1.522.382.672.562.787.756.967 1.629.156.755.162 1.252.025 2.096-.193 1.185-.454 2.004-.637 2.004-.063 0-.275.286-.471.636-.451.802-.913 1.028-1.303.638zm10.743 2.768c1.355-.907 1.702-1.528 1.772-3.168.066-1.57-.187-2.156-1.25-2.893-.765-.53-1.906-.573-2.928-.11-.604.275-.76.464-1.241 1.507a10.62 10.62 0 00-.97 3.957l-.036.805.898.29a5.918 5.918 0 001.878.25c.822-.032 1.124-.134 1.877-.639zM2.811 25.349c-.266-.406-.266-.483 0-1.43 1.078-3.839 1.579-6.343 1.579-7.898 0-1.084.443-3.523 1.046-5.754.231-.853.503-1.882.604-2.286.26-1.041.313-1.12 1.344-2.02l.926-.808 1.754-.015c1.698-.014 1.776.002 2.442.476.378.269.69.567.694.663.003.095.154.332.335.526.719.771.92 2.145.567 3.856-.143.691-.3 1.364-.35 1.494-.279.725 2.04-.223 2.895-1.185.888-.997 1.784-2.212 1.784-2.417 0-.12.177-.572.394-1.006.216-.434.444-1.133.506-1.554.129-.868.527-1.327 1.086-1.248.505.072.548.479.229 2.14-.382 1.986-.596 4.687-.4 5.053.334.623 1.654.78 3.735.442.89-.145 3.58-1.258 4.735-1.96.135-.082.654-.364 1.153-.627.5-.262 1.004-.594 1.122-.736a.829.829 0 01.562-.258c.346 0 1.941-.77 2.714-1.31.582-.407 3.23-1.295 4.442-1.49.565-.092 1.395-.228 1.844-.304 2.08-.35 3.602-.11 5.239.826 1.073.615 2.465 2.126 2.774 3.013.31.89.297 1.947-.027 2.215-.406.337-.701.029-1.353-1.413-.452-1.002-.795-1.49-1.45-2.074-1.536-1.363-2.248-1.553-4.775-1.272-3.138.349-3.7.49-5.625 1.408-1.028.49-1.905.891-1.95.891-.045 0-.508.257-1.029.571-.52.315-1.204.656-1.518.759-.315.102-.879.396-1.254.653-.376.256-.735.466-.798.466-.064 0-.456.209-.87.464-.416.256-1.048.56-1.406.676-.359.117-.797.312-.974.434-.177.122-.456.222-.62.222-.164 0-.517.113-.784.251-.332.171-.975.254-2.022.26-1.34.009-1.62-.04-2.194-.382-.763-.455-1.486-1.435-1.486-2.014 0-.22-.047-.4-.105-.4-.057 0-.418.288-.801.642a8.018 8.018 0 01-1.498 1.048c-.44.224-.893.518-1.007.655-.113.137-.623.333-1.133.435-.509.103-1.697.372-2.64.597-2.161.516-3.548.532-4.366.05-.539-.319-.616-.328-.787-.094-.105.142-.24.753-.302 1.356-.213 2.075-.771 5.025-1.087 5.74-.183.415-.315 1.08-.315 1.588 0 1.003-.393 2.123-.825 2.354-.413.221-.44.212-.754-.27z" stroke-width=".163"/></svg>