<?xml version="1.0" encoding="UTF-8" standalone="no"?>
<svg
   xmlns:dc="http://purl.org/dc/elements/1.1/"
   xmlns:cc="http://creativecommons.org/ns#"
   xmlns:rdf="http://www.w3.org/1999/02/22-rdf-syntax-ns#"
   xmlns:svg="http://www.w3.org/2000/svg"
   xmlns="http://www.w3.org/2000/svg"
   id="svg2502"
   viewBox="0 0 44.564829 22.522739"
   version="1.1"
   height="22.522739"
   width="44.564831">
  <defs
     id="defs2506" />
  <metadata
     id="metadata2">
    <rdf:RDF>
      <cc:Work
         rdf:about="">
        <dc:format>image/svg+xml</dc:format>
        <dc:type
           rdf:resource="http://purl.org/dc/dcmitype/StillImage" />
        <dc:title />
      </cc:Work>
    </rdf:RDF>
  </metadata>
  <g
     transform="translate(-426.4444,-743.35115)"
     style="stroke-width:0.16327"
     id="g2500">
    <path
       d="m 426.65,750.59 c -0.35308,-0.14247 -0.22913,-0.81751 0.20198,-1.1 0.22334,-0.14634 0.56382,-0.57724 0.75663,-0.95755 0.1928,-0.38033 0.4242,-0.73876 0.51419,-0.79654 0.09,-0.0578 0.19518,-0.46186 0.23376,-0.89796 0.0742,-0.83874 0.0829,-0.82434 -1.2168,-2.0091 -0.6035,-0.5501 -0.40564,-1.4777 0.3152,-1.4777 0.15988,0 0.68649,0.25317 1.1702,0.56263 0.75543,0.48324 0.90562,0.66622 1.0644,1.2968 0.45046,1.7889 0.0649,3.1416 -1.2849,4.5083 -0.90036,0.91161 -1.2384,1.0794 -1.7547,0.87106 z m 29.878,12.685 c -0.29183,-0.17982 -0.53061,-0.43733 -0.53061,-0.57222 0,-0.13487 -0.29331,-0.4304 -0.6518,-0.6567 -0.3585,-0.22632 -0.83878,-0.70764 -1.0673,-1.0696 -0.2285,-0.362 -0.57805,-0.72622 -0.77676,-0.80941 -0.7115,-0.29786 -1.1214,-0.78178 -1.0665,-1.2592 0.0437,-0.38103 0.13859,-0.46272 0.58723,-0.50591 0.45342,-0.0436 0.70744,0.0973 1.665,0.92343 0.62147,0.53621 1.3624,1.2397 1.6465,1.5633 0.28412,0.32359 0.73205,0.71564 0.99542,0.8712 0.43204,0.25522 0.47412,0.35476 0.43067,1.0188 -0.0573,0.8764 -0.39451,1.0123 -1.2318,0.49631 z m -19.193,-7.9495 c 1.5318,-0.38479 2.3672,-1.2109 2.6604,-2.6309 0.22831,-1.1057 0.13016,-3.0739 -0.18379,-3.6853 -0.0993,-0.19348 -0.36907,-0.55382 -0.59939,-0.80076 -0.39061,-0.41881 -0.50722,-0.44874 -1.7352,-0.44536 -1.0547,0.003 -1.3975,0.0671 -1.7246,0.32291 -0.22449,0.17559 -0.48877,0.3209 -0.5873,0.3229 -0.30404,0.006 -1.2514,1.9869 -1.4853,3.1057 -0.35062,1.6769 -0.57983,3.4149 -0.48347,3.666 0.16978,0.4424 2.6134,0.52789 4.1385,0.14477 z m -7.7887,10.309 c -0.29159,-0.35133 -0.10356,-1.691 0.55863,-3.9804 0.57561,-1.9899 1.2428,-5.1778 1.2407,-5.9277 0,-0.24273 0.0639,-0.61007 0.14347,-0.81633 0.0796,-0.20626 0.23099,-0.85258 0.33643,-1.4363 0.23273,-1.2886 1.0603,-3.8997 1.5466,-4.8802 0.2687,-0.54168 0.60308,-0.86653 1.3681,-1.3291 0.97172,-0.58756 1.2984,-0.68684 3.0035,-0.91271 1.1007,-0.14581 1.5271,0.0136 2.5007,0.93424 1.0999,1.0402 1.4698,2.1941 1.3527,4.2186 -0.0585,1.01 -0.0268,1.316 0.13603,1.316 0.46908,0 1.3832,-1.0798 2.843,-3.3582 0.8479,-1.3234 1.6996,-2.4713 1.9022,-2.5635 0.27252,-0.12416 0.54757,-0.098 1.0708,0.10183 0.38729,0.1479 0.90012,0.26891 1.1396,0.26891 0.23952,0 0.80787,0.0799 1.263,0.17747 1.2293,0.26364 1.3521,0.59605 0.99133,2.684 -0.15556,0.90033 -0.36454,1.7896 -0.46439,1.9762 -0.0999,0.18658 -0.23272,0.8386 -0.29525,1.4489 -0.13048,1.2736 0.055,1.5501 1.0396,1.5501 0.46653,0 0.71354,-0.16887 1.6121,-1.102 0.58364,-0.60613 1.2176,-1.4327 1.4088,-1.8367 0.19116,-0.40408 0.38853,-0.77143 0.43858,-0.81633 0.05,-0.0449 0.19732,-0.2878 0.32731,-0.53978 0.42921,-0.83212 1.7482,-1.9824 2.927,-2.5527 1.0714,-0.51832 1.1866,-0.54181 1.5928,-0.32497 0.91676,0.48934 1.3658,1.0605 1.3658,1.7374 0,0.58098 -0.82359,3.1616 -1.1349,3.5561 -0.24034,0.30455 -0.35922,1.6911 -0.17456,2.0361 0.13836,0.25855 0.34063,0.33275 0.90703,0.33275 0.40092,0 0.72895,-0.0599 0.72895,-0.13321 0,-0.0732 0.28947,-0.29588 0.64325,-0.49472 0.35378,-0.19883 0.88454,-0.67154 1.1795,-1.0505 0.29491,-0.37892 0.57483,-0.72568 0.62206,-0.77058 0.5545,-0.52725 1.1471,-1.536 1.1471,-1.9527 0,-0.62187 0.72561,-2.7377 1.069,-3.1172 0.25167,-0.27809 0.73321,-0.35809 3.5075,-0.58272 1.3164,-0.10658 1.7202,0.0714 1.5982,0.70468 -0.0879,0.45622 -0.82153,0.70978 -2.3697,0.81904 -1.6266,0.11479 -2.0446,0.37595 -2.2361,1.3971 -0.0616,0.3281 -0.36285,1.0219 -0.66954,1.5417 -0.30669,0.51983 -0.71254,1.2267 -0.90186,1.5707 -0.34405,0.62519 -1.5584,1.8878 -2.5797,2.6821 -0.44931,0.34945 -0.76126,0.43383 -1.8334,0.49589 -1.2857,0.0744 -1.2944,0.0722 -1.7868,-0.45485 -0.27211,-0.29129 -0.54139,-0.71546 -0.5984,-0.94258 -0.0963,-0.38354 0.30131,-1.8447 0.61181,-2.2485 0.2696,-0.35059 0.96457,-2.5034 0.96457,-2.9879 0,-1.0764 -1.3835,-1.0668 -2.56,0.0177 -0.388,0.35765 -0.99787,1.18 -1.3553,1.8275 -0.92654,1.6785 -1.474,2.3862 -2.7942,3.612 -0.96047,0.89178 -1.2894,1.0466 -2.223,1.0466 -1.3344,0 -2.0062,-0.77244 -2.0062,-2.3068 0,-0.86842 0.0392,-1.0467 0.64136,-2.9177 0.40039,-1.244 0.43608,-2.1645 0.0949,-2.4476 -0.13381,-0.11107 -0.72003,-0.2402 -1.3027,-0.28697 -1.0444,-0.0838 -1.0693,-0.0762 -1.7567,0.53724 -0.38351,0.34225 -0.84423,0.92465 -1.0238,1.2942 -0.5558,1.1437 -1.7598,2.6446 -2.561,3.1924 -0.42082,0.28776 -0.80093,0.61649 -0.84469,0.73052 -0.0437,0.11402 -0.47575,0.43399 -0.95998,0.71105 -0.48425,0.27704 -1.013,0.65022 -1.175,0.82929 -0.32978,0.36437 -0.64391,0.47322 -2.8775,0.99709 -1.3728,0.32199 -1.7174,0.34617 -2.8572,0.20049 -0.7128,-0.0911 -1.3547,-0.1125 -1.4264,-0.0476 -0.0717,0.0649 -0.27141,0.84552 -0.44372,1.7346 -0.5557,2.8674 -0.84189,4.0375 -1.3329,5.4501 -0.56236,1.6177 -0.83904,1.918 -1.2787,1.3882 z"
       id="approve" />
  </g>
</svg>
