<?xml version="1.0" encoding="UTF-8" standalone="no"?>
<svg
   xmlns:dc="http://purl.org/dc/elements/1.1/"
   xmlns:cc="http://creativecommons.org/ns#"
   xmlns:rdf="http://www.w3.org/1999/02/22-rdf-syntax-ns#"
   xmlns:svg="http://www.w3.org/2000/svg"
   xmlns="http://www.w3.org/2000/svg"
   id="svg2502"
   viewBox="0 0 55.597773 31.695869"
   version="1.1"
   height="31.695869"
   width="55.597775">
  <defs
     id="defs2506" />
  <metadata
     id="metadata2">
    <rdf:RDF>
      <cc:Work
         rdf:about="">
        <dc:format>image/svg+xml</dc:format>
        <dc:type
           rdf:resource="http://purl.org/dc/dcmitype/StillImage" />
        <dc:title />
      </cc:Work>
    </rdf:RDF>
  </metadata>
  <g
     transform="translate(-426.46475,-711.15113)"
     style="stroke-width:0.16327"
     id="g2500">
    <path
       d="m 427.31,728.47 c -0.22369,-0.22369 -0.0671,-0.79768 0.48735,-1.7861 0.62661,-1.1171 0.69644,-1.765 0.29164,-2.706 -0.25027,-0.58177 -0.50815,-0.886 -0.9528,-1.1241 -0.51125,-0.27375 -0.61772,-0.42306 -0.65951,-0.92484 -0.0404,-0.4848 0.0139,-0.61858 0.28571,-0.70486 0.18456,-0.0586 0.48939,-0.0577 0.67742,0.002 0.53757,0.17061 1.7322,1.0262 1.8734,1.3418 0.29657,0.66274 0.49991,2.4135 0.36594,3.1505 -0.32544,1.7906 -1.7156,3.4052 -2.3692,2.7516 z m 51.711,-10.577 c 0.52929,-0.61719 0.81187,-1.102 0.81187,-1.3929 0,-0.1295 0.0961,-0.33254 0.21347,-0.4512 0.57965,-0.5858 0.79699,-3.1006 0.27632,-3.1971 -0.47041,-0.0873 -1.1151,0.72313 -1.2328,1.5497 -0.061,0.42824 -0.22092,1.1827 -0.35535,1.6766 -0.13443,0.4939 -0.28137,1.1009 -0.32653,1.3489 -0.0452,0.24805 -0.14712,0.49115 -0.22656,0.54026 -0.24771,0.15309 -0.15825,0.39652 0.14573,0.39652 0.15959,0 0.47184,-0.21183 0.69388,-0.47076 z m -45.973,14.415 c 0.22196,-0.30354 0.43685,-0.31556 2.632,-0.14722 1.921,0.14732 2.5442,5e-5 3.3002,-0.77995 1.0526,-1.086 1.3148,-2.9796 0.61935,-4.4731 -0.21618,-0.46427 -0.54124,-0.92346 -0.72237,-1.0204 -0.43729,-0.23403 -2.607,-0.22539 -3.306,0.0132 -0.30522,0.10418 -0.72924,0.32384 -0.94225,0.48816 -0.48404,0.37341 -1.4805,1.9184 -1.4861,2.3041 -0.002,0.15827 -0.15112,0.81802 -0.33071,1.4661 -0.5065,1.8278 -0.37894,2.99 0.23588,2.1492 z m -3.7726,10.291 c -0.0538,-0.14028 -0.008,-0.81987 0.1026,-1.5102 0.41446,-2.5952 0.844,-4.8741 1.0688,-5.6704 0.20801,-0.73703 0.49432,-2.3212 0.89863,-4.9725 0.22511,-1.4761 0.54556,-2.3129 1.4153,-3.6957 0.6219,-0.98874 1.6873,-1.9475 2.3056,-2.0749 1.8461,-0.38036 2.3502,-0.43494 3.2048,-0.34696 1.335,0.13746 1.7524,0.3963 2.2081,1.3693 0.21378,0.45643 0.44005,0.82985 0.50283,0.82985 0.0628,0 0.20612,0.32857 0.31856,0.73017 0.19624,0.70091 0.15634,2.0639 -0.0898,3.0658 -0.25124,1.0227 1.0518,0.19427 2.4715,-1.5713 0.99755,-1.2405 1.5234,-1.958 1.6306,-2.2246 0.53195,-1.3232 1.2952,-2.5971 1.6539,-2.7606 0.49899,-0.22734 1.4008,0.007 1.9498,0.50661 0.20271,0.18451 0.72962,0.36967 1.2547,0.44092 1.3266,0.18002 1.4528,0.33796 1.3751,1.7204 -0.0369,0.65654 -0.21794,1.5399 -0.42003,2.0495 -1.0482,2.6436 0.43278,3.9128 2.4794,2.1248 0.42144,-0.36818 2.0594,-2.4452 2.4703,-3.1324 0.44381,-0.74231 1.3877,-2.0415 1.665,-2.2919 0.45202,-0.40808 1.6144,-0.7798 2.4385,-0.7798 0.86415,0 1.273,0.35002 1.5319,1.3114 0.19107,0.70956 0.0701,2.3803 -0.18375,2.5372 -0.0793,0.049 -0.14418,0.2674 -0.14418,0.48531 0,0.21789 -0.0872,0.72215 -0.19375,1.1206 -0.2336,0.87339 -0.0699,1.1537 0.76514,1.3103 0.63443,0.11902 1.5586,-0.27283 2.1512,-0.91211 0.7004,-0.75561 2.5019,-4.2878 2.5019,-4.9055 0,-0.67644 0.61079,-1.0195 1.4166,-0.79576 1.5227,0.42283 2.9204,0.15584 4.7166,-0.90096 0.63449,-0.37332 1.3025,-0.72599 1.4844,-0.78372 0.57932,-0.18387 1.0023,-0.80002 1.4132,-2.0586 0.2199,-0.67347 0.63366,-1.702 0.91946,-2.2857 0.29177,-0.59587 0.54703,-1.4064 0.58209,-1.8483 0.0343,-0.43288 0.20669,-1.2043 0.38297,-1.7143 0.17628,-0.50996 0.37095,-1.1969 0.4326,-1.5265 0.0616,-0.3296 0.30704,-0.78694 0.54533,-1.0163 0.23828,-0.22937 0.61536,-0.60256 0.83797,-0.82931 0.3791,-0.38613 0.73314,-0.499 1.3052,-0.41605 0.20707,0.03 0.60145,0.40552 1.1328,1.0785 0.0768,0.0972 0.19146,0.5543 0.25492,1.0157 0.1282,0.93205 -0.15032,2.0049 -0.82821,3.1904 -0.21337,0.37311 -0.39024,0.78859 -0.39305,0.92328 -0.003,0.13469 -0.40106,0.77194 -0.88496,1.4161 -0.48392,0.64417 -0.92781,1.3223 -0.98642,1.5069 -0.0586,0.18465 -0.75076,0.98007 -1.5381,1.7676 -1.2452,1.2454 -1.4706,1.5594 -1.7316,2.4114 -0.29312,0.95721 -0.42145,1.2798 -1.2908,3.2442 -0.31114,0.70309 -0.42417,1.234 -0.42417,1.9923 0,1.0098 0.0152,1.046 0.65307,1.5586 0.75567,0.60728 0.79185,0.77267 0.27518,1.258 -0.52877,0.49676 -0.82059,0.44641 -1.4909,-0.25726 -1.074,-1.1274 -1.1451,-2.4927 -0.25303,-4.8571 0.6331,-1.678 0.77542,-2.4937 0.45641,-2.6161 -0.13027,-0.05 -0.8558,0.17622 -1.6123,0.50269 -1.0278,0.44357 -1.6849,0.61525 -2.5999,0.67926 -1.2848,0.0899 -1.7002,0.29584 -1.857,0.92049 -0.12012,0.4786 -1.6518,3.0177 -2.1318,3.534 -0.20872,0.22449 -0.46483,0.57405 -0.56912,0.7768 -0.10871,0.21128 -0.65733,0.58293 -1.2853,0.87064 -1.2668,0.58044 -2.1315,0.57502 -3.2741,-0.0206 -0.65096,-0.3393 -0.67866,-0.38536 -0.67866,-1.1282 0,-0.42598 0.15704,-1.2084 0.34898,-1.7386 0.42178,-1.1652 0.58205,-2.9149 0.29833,-3.2568 -0.52859,-0.6369 -2.0468,0.0259 -2.4924,1.0881 -0.2005,0.47804 -1.188,1.8244 -2.6556,3.6206 -0.61814,0.75658 -1.0927,1.1439 -1.8776,1.5324 -1.337,0.66188 -1.8956,0.67115 -2.9079,0.0483 -0.65019,-0.40006 -0.82191,-0.60334 -0.91105,-1.0785 -0.12072,-0.64351 0.11149,-1.8462 0.58506,-3.0302 0.35633,-0.89084 0.38782,-1.4423 0.10189,-1.7836 -0.26713,-0.31891 -1.9898,-1.0033 -2.3505,-0.93381 -0.15445,0.0297 -0.43265,0.32604 -0.61824,0.65841 -0.723,1.295 -2.5694,3.8659 -2.9605,4.1222 -0.22652,0.14841 -0.47711,0.44148 -0.55687,0.65126 -0.14273,0.37542 -0.94942,0.89062 -3.1143,1.989 -1.2005,0.60906 -2.8026,1.0264 -4.4317,1.1543 -1.3113,0.10299 -2.9047,-0.31551 -3.0304,-0.7959 -0.0427,-0.16333 -0.21153,-0.29695 -0.37515,-0.29695 -0.23138,0 -0.32069,0.17232 -0.40195,0.77552 -0.0574,0.42653 -0.20516,1.1428 -0.32824,1.5918 -0.12309,0.44898 -0.33396,1.5143 -0.46864,2.3674 -0.27683,1.7536 -1.031,4.7124 -1.2796,5.0204 -0.23053,0.2856 -0.76866,0.25464 -0.88593,-0.051 z m 27.386,-3.1061 c -0.27605,-0.2323 -1.2552,-1.193 -2.1758,-2.135 -0.92063,-0.94196 -1.7011,-1.7403 -1.7343,-1.7742 -0.0332,-0.0338 -0.0134,-0.24859 0.0439,-0.47726 0.15657,-0.62385 1.0057,-0.57964 1.6331,0.0851 0.78348,0.83011 3.6164,3.366 3.8456,3.4424 0.25463,0.0849 0.10844,0.66699 -0.26001,1.0355 -0.35803,0.35801 -0.7832,0.30253 -1.3525,-0.17647 z"
       id="approval" />
  </g>
</svg>
