<svg xmlns="http://www.w3.org/2000/svg" height="22.523" width="44.565"><path d="M.206 7.239c-.353-.143-.23-.818.202-1.1.223-.146.563-.577.756-.958.193-.38.424-.738.514-.796.09-.058.196-.462.234-.898.074-.839.083-.825-1.217-2.01C.092.928.29 0 1.011 0c.16 0 .686.253 1.17.563.755.483.905.666 1.064 1.296.45 1.79.065 3.142-1.285 4.509-.9.911-1.238 1.08-1.754.87zm29.878 12.685c-.292-.18-.531-.437-.531-.572 0-.135-.293-.43-.652-.657a4.087 4.087 0 01-1.067-1.07c-.229-.362-.578-.726-.777-.81-.711-.297-1.121-.78-1.066-1.258.043-.381.138-.463.587-.506.453-.044.707.097 1.665.923.621.536 1.362 1.24 1.646 1.564.284.323.732.715.996.87.432.256.474.356.43 1.02-.057.876-.394 1.012-1.231.496zm-19.193-7.95c1.531-.384 2.367-1.21 2.66-2.63.228-1.106.13-3.074-.184-3.686-.1-.193-.369-.554-.6-.8-.39-.42-.506-.45-1.734-.446-1.055.003-1.398.067-1.725.323-.224.176-.489.32-.587.323-.304.006-1.252 1.987-1.486 3.106-.35 1.676-.58 3.414-.483 3.666.17.442 2.613.527 4.138.144zM3.1 22.284c-.29-.352-.103-1.692.56-3.981.575-1.99 1.242-5.178 1.24-5.928 0-.242.064-.61.144-.816.08-.206.23-.853.336-1.436.233-1.289 1.06-3.9 1.547-4.88.268-.542.603-.867 1.368-1.33.972-.587 1.298-.687 3.003-.912 1.101-.146 1.527.013 2.501.934 1.1 1.04 1.47 2.194 1.353 4.218-.059 1.01-.027 1.316.136 1.316.469 0 1.383-1.08 2.843-3.358.848-1.323 1.7-2.471 1.902-2.563.272-.124.548-.098 1.07.102.388.147.9.268 1.14.268.24 0 .808.08 1.263.178 1.23.264 1.352.596.992 2.684-.156.9-.365 1.79-.465 1.976-.1.187-.232.839-.295 1.45-.13 1.273.055 1.55 1.04 1.55.466 0 .713-.17 1.612-1.103.583-.606 1.217-1.433 1.409-1.837.19-.404.388-.771.438-.816.05-.045.197-.288.327-.54.43-.832 1.749-1.982 2.927-2.552 1.072-.519 1.187-.542 1.593-.325.917.489 1.366 1.06 1.366 1.737 0 .581-.824 3.162-1.135 3.556-.24.305-.36 1.691-.174 2.036.138.259.34.333.907.333.4 0 .729-.06.729-.133 0-.073.289-.296.643-.495.354-.199.884-.671 1.18-1.05.294-.38.574-.726.621-.771.555-.527 1.147-1.536 1.147-1.953 0-.622.726-2.737 1.07-3.117.251-.278.733-.358 3.507-.583 1.316-.106 1.72.072 1.598.705-.088.456-.821.71-2.37.82-1.626.114-2.044.375-2.236 1.396-.061.328-.362 1.022-.67 1.542a81.03 81.03 0 00-.901 1.57c-.344.626-1.558 1.888-2.58 2.683-.449.35-.761.434-1.833.496-1.286.074-1.295.072-1.787-.455-.272-.292-.541-.716-.598-.943-.097-.383.301-1.845.611-2.248.27-.35.965-2.504.965-2.988 0-1.077-1.383-1.067-2.56.017-.388.358-.998 1.18-1.355 1.828-.927 1.678-1.474 2.386-2.794 3.612-.96.892-1.29 1.047-2.223 1.047-1.335 0-2.007-.773-2.007-2.307 0-.869.04-1.047.642-2.918.4-1.244.436-2.164.095-2.448-.134-.11-.72-.24-1.303-.286-1.044-.084-1.07-.077-1.757.537-.383.342-.844.924-1.024 1.294-.555 1.144-1.76 2.645-2.56 3.192-.421.288-.802.617-.845.73-.044.115-.476.435-.96.712-.485.277-1.013.65-1.175.83-.33.364-.644.472-2.878.996-1.373.322-1.717.346-2.857.2-.713-.09-1.355-.112-1.426-.047-.072.065-.272.846-.444 1.735-.556 2.867-.842 4.037-1.333 5.45-.562 1.618-.839 1.918-1.279 1.388z"/></svg>