<svg xmlns="http://www.w3.org/2000/svg" height="22.209" width="39.277"><path d="M.914 7.738c-.16-.193-.071-.468.47-1.448 1.05-1.904.905-3.159-.519-4.467C-.008 1.021-.187.607.18.24c.361-.36.538-.333 1.37.219.924.613 1.77 1.682 1.906 2.409.21 1.118-.021 2.773-.485 3.474-.236.357-.43.725-.43.816 0 .309-.65.82-1.04.82-.214 0-.478-.107-.587-.239zm34.156-.96c.066-.104.12-.427.122-.72.002-.41-.066-.53-.303-.53-.404 0-1.49 1.004-1.49 1.377 0 .257.095.279.775.177.427-.064.83-.201.896-.305zm-.382 3.664c.386-.361.507-.614.507-1.065 0-.733-.369-.91-1.894-.91-1.117 0-1.956.257-2.338.718-.203.245-.19.32.106.617.652.652 1.575 1.083 2.353 1.098.624.013.849-.068 1.266-.458zm-23.911 1.47c.05-.08.45-.233.89-.339 1.755-.42 2.602-2.509 1.88-4.63-.329-.963-1.346-1.844-2.307-1.998-.855-.137-2.33.306-2.845.854-.434.462-.691 1.29-1.128 3.63-.342 1.833-.282 2.14.419 2.14.203 0 .617.107.919.239.61.264 2.03.333 2.172.104zM3.63 22.072c-.203-.203-.11-.95.232-1.85.188-.492.44-1.52.563-2.285.122-.764.364-2.05.54-2.858.175-.808.364-1.874.42-2.368.096-.852.554-3.511.966-5.62.202-1.03.88-2.096 1.699-2.67 1.166-.82 3.547-.998 4.853-.366 1.707.827 2.775 3.423 2.213 5.381-.191.667-.146.735.396.598.873-.219 2.514-2.345 3.703-4.798.554-1.142 1.088-2.13 1.187-2.196.318-.21 1.017-.134 1.759.195a6.882 6.882 0 001.398.427c.372.06.834.254 1.025.433.34.316.347.414.27 3.613-.053 2.149-.022 3.36.09 3.493.092.112.472.204.843.204.546 0 .867-.143 1.694-.756 1.119-.83 1.186-1.017.781-2.165-.237-.673-.188-1.134.146-1.362.096-.066.726-.121 1.4-.123.91-.002 1.35-.082 1.714-.31.668-.417 1.174-.921 1.459-1.452.13-.244.499-.693.818-.998.319-.304.58-.686.58-.847 0-.4.616-.803 1.228-.803.42 0 .534.088.698.542.108.298.202.794.21 1.102.006.308.135 1 .285 1.54l.273.979.835.084c.908.092 1.369.366 1.369.814 0 .35-.84.728-1.332.6-.725-.19-1.138.34-1.7 2.182-.247.809-.871 1.507-1.591 1.78-.911.343-1.807.208-3.145-.477-.698-.357-1.345-.724-1.437-.816-.235-.235-.876-.208-1.032.044-.072.117-.48.429-.906.694-.426.266-.775.533-.775.594 0 .06-.404.261-.897.446-.818.306-.971.316-1.752.116-.836-.214-.865-.242-1.243-1.18-.355-.886-.372-1.052-.21-2.105.097-.629.201-1.829.23-2.666l.055-1.523-.798-.405c-.515-.26-1.004-.387-1.376-.354-.536.046-.604.116-.927.948-.52 1.336-1.16 2.48-1.638 2.926-.233.218-.424.474-.424.569 0 .22-2.308 2.382-2.543 2.382-.097 0-.348.184-.56.408-.21.225-.488.408-.616.408-.129 0-.56.22-.96.49-.399.27-.866.49-1.038.49-.171 0-.685.147-1.14.326-.985.388-2.254.42-3.362.084-1.509-.458-1.587-.381-1.864 1.805-.101.802-.284 1.79-.407 2.193a12.372 12.372 0 00-.331 1.47c-.06.404-.202.882-.316 1.063-.115.181-.263.585-.33.898-.189.889-.873 1.44-1.281 1.032z"/></svg>