<svg xmlns="http://www.w3.org/2000/svg" height="25.52" width="42.271"><path d="M.084 7.082c-.131-.212.048-.785.407-1.305.156-.225.376-.702.49-1.061.114-.36.283-.748.375-.864.092-.116.174-.53.182-.921.017-.778-.294-1.255-1.086-1.664C-.079.992-.16.325.306.076c.42-.225 1.441.078 1.887.56.463.499.969 2.111.836 2.668-.163.686-.801 2.208-1.026 2.444-.112.119-.204.31-.204.427 0 .444-.671 1.072-1.145 1.072-.258 0-.514-.074-.57-.165zm35.32.28c.123-.098.191-.415.163-.755-.04-.47-.124-.596-.429-.639-.432-.061-1.479.987-1.49 1.492-.007.26.086.282.768.184.426-.062.871-.189.988-.282zm-.545 3.83c.617-.361 1.26-1.293 1.197-1.735-.045-.313-.164-.333-2.007-.343-1.078-.006-2.106.059-2.286.143-.48.223-1.224.956-1.224 1.204 0 .117.459.432 1.02.7.864.41 1.157.472 1.913.402.49-.045 1.115-.212 1.387-.371zm-23.69 1.12c.608-.493 1.143-1.07 1.208-1.302.063-.229.116-1.228.117-2.219.002-1.448-.055-1.89-.286-2.242-.448-.684-1.207-1.005-2.362-.998-1.09.006-1.474.213-1.9 1.029-.123.232-.342.643-.488.912-.147.27-.267.677-.268.906 0 .23-.068.486-.15.572-.307.316-.83 2.128-.83 2.873v.77l.857.337c.626.247 1.147.326 1.934.294 1.034-.043 1.12-.08 2.168-.93zm-8.355 13.02c-.245-.245-.254-1.266-.017-1.875.415-1.066.67-2.369.812-4.133.082-1.033.224-2.208.314-2.612.09-.404.236-1.102.323-1.55.964-4.992 1.159-5.843 1.523-6.674.152-.347.277-.7.277-.784 0-.211.964-1.946 1.286-2.315.401-.459 1.49-1.048 2.251-1.219.868-.194 2.273.249 3.173 1 1.142.953 1.632 3.08 1.24 5.378-.121.705-.104.775.185.775.601 0 3.457-3.156 3.457-3.82 0-.144.065-.261.145-.261.08 0 .536-.771 1.013-1.714l.867-1.714h.631c.347 0 .791.086.987.191.197.105.968.282 1.715.392.747.11 1.398.241 1.448.29.266.267.21 1.572-.106 2.474-.188.539-.387 1.508-.442 2.153-.096 1.136-.084 1.188.374 1.646.617.617 1.653.803 2.393.429 1.519-.768 1.895-1.405 1.333-2.262-.23-.351-.23-.438-.006-.873.334-.645.62-.726 1.509-.424.415.141.94.21 1.179.153.26-.062 1.267-.967 2.558-2.3 1.858-1.917 2.194-2.196 2.649-2.196.708 0 .965.444 1.158 2.006.086.699.246 1.379.355 1.51.11.132.473.239.814.239 1.07 0 1.02.903-.084 1.522-.529.296-.682.504-.89 1.206-.347 1.166-1.493 2.383-2.52 2.678-1.403.402-4.142-.088-4.65-.833-.326-.476-1.026-.41-1.998.188-1.175.723-2.448 1.004-3.493.771-1.325-.295-1.403-.354-1.813-1.362-.45-1.107-.494-2.039-.144-3.032.322-.915.49-2.373.288-2.499-.087-.054-.753-.147-1.48-.208l-1.322-.11-.357.798c-.644 1.437-.841 1.77-1.394 2.353-.3.316-.593.81-.65 1.099-.072.356-.348.72-.861 1.134-.416.335-.809.694-.873.796-.195.309-2.436 1.779-3.393 2.225-1.608.75-3.847.98-5.733.59-1.323-.272-1.413-.165-1.499 1.797-.075 1.71-.352 3.712-.694 5.009-.118.449-.298 1.476-.4 2.283-.103.806-.264 1.56-.358 1.673-.218.262-.822.268-1.08.011zm29.49-9.024c-.139-.304-.136-.461.012-.64.21-.251.675-.308 4.75-.573 1.392-.09 2.926-.241 3.41-.335 1.15-.223 1.255-.218 1.558.086.348.348.324.506-.144.975-.393.393-.455.4-3.061.401-1.687 0-3.13.09-3.94.245-1.88.36-2.362.33-2.585-.159z" stroke-width=".163"/></svg>