<?xml version="1.0" encoding="UTF-8" standalone="no"?>
<svg
   xmlns:dc="http://purl.org/dc/elements/1.1/"
   xmlns:cc="http://creativecommons.org/ns#"
   xmlns:rdf="http://www.w3.org/1999/02/22-rdf-syntax-ns#"
   xmlns:svg="http://www.w3.org/2000/svg"
   xmlns="http://www.w3.org/2000/svg"
   id="svg2502"
   viewBox="0 0 35.150622 21.434549"
   version="1.1"
   height="21.434549"
   width="35.150623">
  <defs
     id="defs2506" />
  <metadata
     id="metadata2">
    <rdf:RDF>
      <cc:Work
         rdf:about="">
        <dc:format>image/svg+xml</dc:format>
        <dc:type
           rdf:resource="http://purl.org/dc/dcmitype/StillImage" />
        <dc:title />
      </cc:Work>
    </rdf:RDF>
  </metadata>
  <g
     transform="translate(-426.66329,-792.10405)"
     style="stroke-width:0.16327"
     id="g2500">
    <path
       d="m 426.67,799.1 c -0.0815,-0.21241 0.59169,-1.2032 1.3628,-2.0058 0.22782,-0.23709 0.70132,-1.721 0.70132,-2.1979 0,-0.1702 -0.22935,-0.53882 -0.50968,-0.81915 -0.60369,-0.60367 -0.81221,-1.5623 -0.41206,-1.8944 0.38132,-0.31647 1.5182,0.37206 1.9223,1.1642 0.41728,0.81797 0.46452,2.4662 0.091,3.1753 -0.15138,0.28738 -0.27634,0.61799 -0.27768,0.7347 -0.002,0.11672 -0.39455,0.63464 -0.87376,1.151 -0.70848,0.76333 -0.96833,0.93877 -1.3904,0.93877 -0.31254,0 -0.55679,-0.0982 -0.6138,-0.24672 z m 11.031,3.6223 c 0.28292,-0.11897 0.80565,-0.60389 1.1616,-1.0776 0.60509,-0.8053 0.64718,-0.93301 0.64718,-1.9634 0,-1.3595 -0.22679,-2.0523 -0.90187,-2.7551 -0.75703,-0.78809 -1.5866,-0.86558 -2.7835,-0.26001 -0.8586,0.43441 -0.95723,0.54793 -1.5691,1.8059 -0.54761,1.1259 -0.6571,1.521 -0.67883,2.4503 -0.0231,0.98891 0.009,1.1146 0.30062,1.1708 0.17959,0.0346 0.43674,0.15928 0.57143,0.27704 0.60002,0.52465 2.3831,0.71773 3.2524,0.3522 z m -8.5788,10.398 c -0.0595,-0.23696 0.0131,-1.0635 0.16124,-1.8367 0.14815,-0.77322 0.26888,-1.5145 0.26828,-1.6473 0,-0.13278 0.17038,-0.72054 0.37993,-1.3061 0.7434,-2.0773 1.2405,-3.6856 1.3384,-4.33 0.0966,-0.63594 0.63995,-2.5494 1.4904,-5.2485 0.4636,-1.4714 1.4437,-2.7945 2.3922,-3.2294 1.1844,-0.54315 2.3752,-0.77943 2.9583,-0.58702 1.0997,0.36294 1.8184,1.052 2.4176,2.3177 0.59965,1.2668 0.61151,1.4968 0.19402,3.7676 -0.10113,0.55008 -0.0775,0.61225 0.23295,0.61225 0.74408,0 2.7283,-2.5405 3.8826,-4.971 0.79722,-1.6787 1.0794,-1.8112 2.3538,-1.1052 0.52139,0.28883 1.1261,0.52514 1.3438,0.52514 0.2177,0 0.59029,0.18016 0.82789,0.40037 0.38075,0.35287 0.432,0.52476 0.432,1.4488 0,0.57667 -0.10098,1.3347 -0.22443,1.6846 -0.12342,0.34984 -0.27613,1.0121 -0.33933,1.4716 -0.10174,0.73987 -0.0725,0.87506 0.2552,1.1804 0.66355,0.61818 1.9033,0.35236 3.8459,-0.82463 1.6084,-0.97452 2.5035,-1.7463 2.5035,-2.1587 0,-0.19252 -0.37507,-0.81358 -0.83347,-1.3801 -1.0264,-1.2686 -1.2572,-2.2028 -0.58577,-2.3713 0.53316,-0.13381 0.83835,-0.0104 1.077,0.43548 0.45484,0.84963 0.6537,1.1412 1.0868,1.5933 0.25261,0.26366 0.55429,0.47938 0.67042,0.47938 0.22358,0 2.34,-1.9708 2.34,-2.179 0,-0.22914 1.4326,-1.5761 1.6763,-1.5761 0.38808,0 0.63349,0.41873 0.51713,0.88234 -0.0585,0.23309 -0.17187,0.42378 -0.25194,0.42378 -0.0801,0 -0.14556,0.0933 -0.14556,0.20732 0,0.11401 -0.69796,0.90235 -1.551,1.7519 -0.95081,0.94685 -1.551,1.6739 -1.551,1.8787 0,0.18377 0.29147,0.62604 0.64769,0.9828 0.35623,0.35679 0.65011,0.71196 0.65307,0.78929 0.003,0.0773 0.29924,0.49161 0.65843,0.92063 0.6823,0.81493 0.80821,1.3581 0.43357,1.8704 -0.2531,0.34614 -1.0866,0.23909 -1.0866,-0.13956 0,-0.12215 -0.31225,-0.53864 -0.69388,-0.92552 -0.38163,-0.38689 -0.84137,-1.0019 -1.0216,-1.3666 -0.29316,-0.59321 -0.39655,-0.66776 -0.97959,-0.70642 -0.58165,-0.0386 -0.76534,0.0538 -1.7055,0.85714 -0.57949,0.4952 -1.1305,0.901 -1.2245,0.90177 -0.094,0 -0.79533,0.31007 -1.5586,0.68734 -2.2826,1.1282 -3.5526,0.95081 -4.4119,-0.61636 -0.4368,-0.79667 -0.38763,-1.3183 0.41081,-4.3575 0.11009,-0.41904 0.0606,-0.47501 -0.75689,-0.85555 -0.48107,-0.22396 -0.99673,-0.40791 -1.1459,-0.40878 -0.31938,-0.002 -1.1166,0.89247 -1.1166,1.2527 0,0.13729 -0.1883,0.48062 -0.41845,0.76297 -0.82626,1.0137 -1.2175,1.5059 -1.8522,2.3304 -0.65895,0.85605 -2.913,2.5095 -3.421,2.5095 -0.15208,0 -0.45817,0.12857 -0.68019,0.28572 -0.33388,0.23631 -0.73367,0.28201 -2.3124,0.26426 -1.7336,-0.0195 -1.9788,-0.0607 -2.6736,-0.44898 -0.96524,-0.53948 -1.1793,-0.5362 -1.3967,0.0215 -0.31929,0.81912 -1.1405,3.8696 -1.5274,5.6735 -0.59237,2.7623 -0.82706,3.4587 -1.24,3.6797 -0.46403,0.24834 -0.62736,0.18818 -0.74331,-0.27383 z"
       id="approximate_abv" />
  </g>
</svg>
