<?xml version="1.0" encoding="UTF-8" standalone="no"?>
<svg
   xmlns:dc="http://purl.org/dc/elements/1.1/"
   xmlns:cc="http://creativecommons.org/ns#"
   xmlns:rdf="http://www.w3.org/1999/02/22-rdf-syntax-ns#"
   xmlns:svg="http://www.w3.org/2000/svg"
   xmlns="http://www.w3.org/2000/svg"
   id="svg2502"
   viewBox="0 0 44.376673 22.679247"
   version="1.1"
   height="22.679247"
   width="44.376675">
  <defs
     id="defs2506" />
  <metadata
     id="metadata2">
    <rdf:RDF>
      <cc:Work
         rdf:about="">
        <dc:format>image/svg+xml</dc:format>
        <dc:type
           rdf:resource="http://purl.org/dc/dcmitype/StillImage" />
        <dc:title />
      </cc:Work>
    </rdf:RDF>
  </metadata>
  <g
     transform="translate(-425.96,-767.2007)"
     style="stroke-width:0.16327"
     id="g2500">
    <path
       d="m 425.96,774.41 c 0,-0.4533 0.34346,-0.91732 1.2375,-1.6719 0.37987,-0.32061 0.52928,-0.63894 0.69695,-1.4849 0.24498,-1.2362 0.0729,-1.8817 -0.68893,-2.5843 -0.45679,-0.42124 -0.55523,-0.96389 -0.23329,-1.2858 0.37275,-0.37275 0.80877,-0.19212 1.7088,0.7079 l 0.90382,0.90382 -0.0574,1.3411 c -0.0431,1.0062 -0.15269,1.5245 -0.43892,2.0758 -0.48288,0.92989 -1.2217,1.7051 -2.0231,2.1229 -0.85977,0.44813 -1.1054,0.42048 -1.1054,-0.12454 z m 34.989,9.7295 c -0.40868,-0.20209 -0.61653,-0.61424 -0.41263,-0.81814 0.30983,-0.30983 4.3306,-0.72839 7.9541,-0.82802 1.3706,-0.0377 1.4726,-0.018 1.5171,0.293 0.0345,0.24075 -0.12435,0.42998 -0.57143,0.68091 -0.54154,0.30397 -1.049,0.36928 -4.0477,0.52098 -1.8857,0.0954 -3.5755,0.20826 -3.7551,0.25083 -0.17959,0.0426 -0.48754,-0.002 -0.68436,-0.0996 z m -3.5605,3.4215 c -0.1796,-0.10347 -0.84603,-0.72574 -1.481,-1.3828 -0.63494,-0.65706 -1.2133,-1.1946 -1.2853,-1.1946 -0.0719,0 -0.59938,-0.38018 -1.1721,-0.84484 -0.83146,-0.67461 -1.0413,-0.93715 -1.0413,-1.303 0,-0.71396 0.6649,-0.80194 1.4377,-0.19025 0.33172,0.26255 0.897,0.65016 1.2562,0.86136 0.35918,0.21118 0.72653,0.46568 0.81633,0.56553 0.0898,0.0999 0.48024,0.42913 0.86764,0.73169 0.62098,0.485 1.8262,2.022 1.8262,2.329 0,0.18692 -0.49927,0.62645 -0.70554,0.62112 -0.10583,-0.003 -0.33936,-0.0896 -0.51895,-0.19311 z m -20.722,-8.5306 c 1.2158,-0.672 1.6363,-1.1502 1.929,-2.1936 0.53547,-1.9084 0.14873,-3.7652 -0.89605,-4.302 -0.65634,-0.33721 -1.3319,-0.36093 -2.3701,-0.0833 -0.93486,0.25004 -1.9447,1.3182 -2.1838,2.3099 -0.089,0.36908 -0.32232,1.2221 -0.51847,1.8956 -0.19616,0.67347 -0.38793,1.5367 -0.42619,1.9184 -0.0692,0.69032 -0.0667,0.69395 0.47751,0.70536 0.30088,0.006 0.69399,0.0791 0.87358,0.16181 0.61194,0.28173 2.2517,0.0647 3.1145,-0.4122 z m -7.5877,10.702 c -0.27447,-0.17378 -0.15252,-1.7997 0.22939,-3.0585 0.13214,-0.43558 0.24106,-1.0178 0.24204,-1.2938 0.003,-0.84563 0.48264,-3.4477 1.1414,-6.192 0.3449,-1.4367 0.67138,-2.8754 0.72553,-3.1969 0.13047,-0.77481 1.4498,-3.417 1.9235,-3.8522 0.20601,-0.18928 0.77865,-0.55411 1.2725,-0.81076 1.0994,-0.57129 2.6395,-0.64315 3.6845,-0.17194 1.379,0.62185 2.1568,2.5743 1.9314,4.8482 -0.10631,1.0724 -0.26262,1.5272 -0.66205,1.9267 -0.33429,0.33428 -0.27481,0.84885 0.0981,0.84885 0.34392,0 2.2936,-1.7124 2.2972,-2.0176 0.002,-0.10258 0.14861,-0.37017 0.32754,-0.59466 0.86309,-1.0828 1.9855,-2.6862 2.2074,-3.1531 0.59372,-1.2499 1.1552,-1.9081 1.6279,-1.9081 0.11572,0 0.59252,0.25714 1.0595,0.57142 0.68702,0.46234 1.0039,0.57143 1.6598,0.57143 1.185,0 1.4422,0.18999 1.4422,1.0652 0,0.39995 -0.1406,1.0972 -0.31247,1.5495 -0.49899,1.3133 -0.76134,3.0342 -0.50891,3.3383 0.54969,0.66237 2.2952,0.0307 3.3714,-1.22 0.34849,-0.405 0.76369,-0.88255 0.92266,-1.0612 0.97107,-1.0914 2.2416,-2.7653 2.2416,-2.9533 0,-0.27348 1.5266,-1.5025 2.2397,-1.8031 1.2462,-0.52538 2.1933,-0.0348 2.6495,1.3723 0.19626,0.60535 0.19179,0.82833 -0.0345,1.7143 -0.14305,0.56014 -0.45817,1.4931 -0.70026,2.0733 -0.24209,0.58017 -0.44016,1.2373 -0.44016,1.4603 0,0.41995 0.69704,1.1583 1.0935,1.1583 0.36986,0 1.9194,-1.5091 2.1731,-2.1165 0.13205,-0.31605 0.42676,-0.79568 0.65493,-1.0658 0.58047,-0.68729 1.177,-2.0256 1.1789,-2.6448 0.002,-0.28653 0.0751,-0.56639 0.16486,-0.62188 0.0898,-0.0555 0.16327,-0.24181 0.16327,-0.41404 0,-0.57721 0.62398,-0.7672 2.8853,-0.87851 2.0659,-0.1017 2.1547,-0.0928 2.2559,0.226 0.15588,0.49115 -0.0533,0.97416 -0.45817,1.0578 -0.19605,0.0405 -0.96169,0.10193 -1.7014,0.13653 -1.0082,0.0472 -1.4272,0.13735 -1.6735,0.36022 -0.1807,0.16353 -0.32854,0.36972 -0.32854,0.45822 0,0.18383 -0.45081,1.1984 -1.1992,2.6987 -1.0174,2.0397 -3.2084,4.0843 -4.3992,4.1051 -0.6535,0.0114 -1.5105,-0.61394 -1.8942,-1.3822 -0.4736,-0.94828 -0.40807,-1.4756 0.38212,-3.0748 0.45327,-0.91737 0.57979,-1.3708 0.57979,-2.0781 0,-1.0422 -0.18141,-1.2965 -0.92477,-1.2965 -0.43851,0 -0.70963,0.18078 -1.5302,1.0204 -0.5485,0.56122 -1.0981,1.2585 -1.2213,1.5494 -0.12323,0.29099 -0.3934,0.69842 -0.60039,0.9054 -0.20697,0.20699 -0.72687,0.84809 -1.1553,1.4247 -0.42844,0.57655 -1.1631,1.3415 -1.6326,1.6999 l -0.85367,0.65164 -1.5666,0.007 c -1.7712,0.008 -2.0382,-0.11422 -2.2059,-1.0081 -0.10476,-0.5584 0.17287,-2.2487 0.42324,-2.5768 0.0685,-0.0898 0.16609,-0.38367 0.21683,-0.65306 0.0507,-0.26939 0.14207,-0.69226 0.20299,-0.93971 0.13794,-0.56044 -0.11062,-0.88135 -0.79612,-1.0278 -0.28563,-0.061 -0.60672,-0.18127 -0.71353,-0.26718 -0.45907,-0.36924 -1.0796,-0.0619 -1.7528,0.86813 -0.36589,0.50552 -0.95913,1.2886 -1.3183,1.7402 -0.35919,0.45156 -1.0896,1.3855 -1.6231,2.0754 -1.556,2.0122 -3.1131,2.8161 -6.1655,3.1832 -2.0112,0.24185 -3.0908,0.14467 -3.5933,-0.32348 -0.19429,-0.18099 -0.48348,-0.32909 -0.64266,-0.32909 -0.40206,0 -0.79187,1.3862 -0.79187,2.8159 0,0.61819 -0.087,1.2844 -0.19336,1.4806 -0.10635,0.19615 -0.24996,0.6505 -0.31915,1.0097 -0.39861,2.0693 -1.1062,4.1667 -1.4037,4.1608 -0.0685,-0.002 -0.22729,-0.0675 -0.35286,-0.14705 z"
       id="approved" />
  </g>
</svg>
