<?xml version="1.0" encoding="UTF-8" standalone="no"?>
<svg
   xmlns:dc="http://purl.org/dc/elements/1.1/"
   xmlns:cc="http://creativecommons.org/ns#"
   xmlns:rdf="http://www.w3.org/1999/02/22-rdf-syntax-ns#"
   xmlns:svg="http://www.w3.org/2000/svg"
   xmlns="http://www.w3.org/2000/svg"
   id="svg2502"
   viewBox="0 0 42.269145 25.525297"
   version="1.1"
   height="25.525297"
   width="42.269146">
  <defs
     id="defs2506" />
  <metadata
     id="metadata2">
    <rdf:RDF>
      <cc:Work
         rdf:about="">
        <dc:format>image/svg+xml</dc:format>
        <dc:type
           rdf:resource="http://purl.org/dc/dcmitype/StillImage" />
        <dc:title />
      </cc:Work>
    </rdf:RDF>
  </metadata>
  <g
     transform="translate(-425.95632,-694.46788)"
     style="stroke-width:0.16327"
     id="g2500">
    <path
       d="m 426.04,701.55 c -0.13089,-0.21177 0.0484,-0.78524 0.40782,-1.3047 0.15535,-0.22449 0.37569,-0.70204 0.48965,-1.0612 0.11396,-0.35916 0.2825,-0.74779 0.37451,-0.86356 0.092,-0.11577 0.17427,-0.53047 0.18279,-0.92157 0.017,-0.77737 -0.29484,-1.2552 -1.0861,-1.6644 -0.53142,-0.27479 -0.61317,-0.94116 -0.14613,-1.1911 0.41987,-0.2247 1.4408,0.078 1.8871,0.55954 0.46322,0.49981 0.96834,2.1124 0.83602,2.669 -0.16315,0.68627 -0.80173,2.2077 -1.0259,2.4441 -0.11249,0.11867 -0.20452,0.3108 -0.20452,0.42698 0,0.4437 -0.67094,1.0716 -1.1451,1.0716 -0.25756,0 -0.51412,-0.0741 -0.5701,-0.16472 z m 35.315,0.28054 c 0.1231,-0.0983 0.19171,-0.41551 0.16327,-0.7549 -0.0395,-0.4707 -0.12347,-0.59596 -0.42874,-0.63919 -0.4327,-0.0613 -1.4795,0.98635 -1.4911,1.4924 -0.006,0.2602 0.0864,0.28224 0.76872,0.18348 0.42653,-0.0617 0.87107,-0.18851 0.98785,-0.28175 z m -0.54496,3.829 c 0.61694,-0.36032 1.2599,-1.2921 1.1966,-1.7342 -0.0449,-0.31339 -0.16323,-0.33363 -2.0069,-0.34313 -1.0776,-0.006 -2.1061,0.0585 -2.2857,0.1424 -0.4788,0.2236 -1.2245,0.95673 -1.2245,1.2038 0,0.11759 0.45918,0.43241 1.0204,0.69959 0.86386,0.41125 1.1573,0.47311 1.9128,0.40314 0.49084,-0.0455 1.1151,-0.21269 1.3872,-0.37163 z m -23.688,1.1207 c 0.60801,-0.49331 1.1433,-1.0704 1.2078,-1.3022 0.0638,-0.229 0.1166,-1.2278 0.11737,-2.2195 0.002,-1.4476 -0.0553,-1.8895 -0.28586,-2.2415 -0.44823,-0.68407 -1.2069,-1.0048 -2.3618,-0.99853 -1.0907,0.006 -1.4742,0.21348 -1.9014,1.0287 -0.12178,0.23243 -0.34119,0.64299 -0.48757,0.91238 -0.1464,0.26939 -0.26663,0.67714 -0.26717,0.90612 0,0.22898 -0.0686,0.48612 -0.15123,0.57143 -0.30632,0.31626 -0.82937,2.128 -0.82937,2.8727 v 0.76975 l 0.85714,0.33799 c 0.62632,0.24698 1.147,0.32595 1.9336,0.29324 1.034,-0.043 1.1196,-0.0797 2.1684,-0.93064 z m -8.355,13.024 c -0.24485,-0.24485 -0.25411,-1.266 -0.017,-1.8751 0.41496,-1.0659 0.67102,-2.3691 0.81208,-4.1331 0.0826,-1.0326 0.22418,-2.2082 0.31468,-2.6122 0.0905,-0.404 0.23553,-1.102 0.32229,-1.551 0.96429,-4.9906 1.1587,-5.8422 1.5232,-6.673 0.15257,-0.3477 0.27739,-0.70065 0.27739,-0.78434 0,-0.21136 0.96385,-1.9462 1.286,-2.3147 0.40129,-0.45902 1.4899,-1.0484 2.2508,-1.2185 0.86752,-0.19403 2.273,0.24894 3.1729,1 1.1417,0.95286 1.6319,3.0801 1.2394,5.3783 -0.12041,0.70505 -0.10356,0.77551 0.18553,0.77551 0.60155,0 3.4571,-3.1562 3.4571,-3.8211 0,-0.14328 0.0655,-0.26051 0.14563,-0.26051 0.0801,0 0.53577,-0.77143 1.0126,-1.7143 l 0.86695,-1.7143 h 0.63079 c 0.34694,0 0.79129,0.086 0.98742,0.19122 0.19614,0.10516 0.96774,0.28158 1.7147,0.39206 0.74693,0.11047 1.3984,0.24121 1.4477,0.29052 0.26592,0.26592 0.20994,1.571 -0.10608,2.4731 -0.18873,0.53877 -0.38783,1.5075 -0.44246,2.1528 -0.0961,1.1357 -0.0842,1.1883 0.37378,1.6462 0.61755,0.61755 1.6529,0.80322 2.3927,0.42908 1.5193,-0.76831 1.8946,-1.4051 1.333,-2.2622 -0.22993,-0.35093 -0.23054,-0.43831 -0.006,-0.87243 0.33388,-0.64565 0.62,-0.72602 1.5095,-0.42403 0.41494,0.14088 0.94116,0.20882 1.1793,0.15226 0.26075,-0.0619 1.2674,-0.96664 2.5576,-2.2986 1.8575,-1.9177 2.1938,-2.1965 2.6493,-2.1965 0.70885,0 0.96519,0.44395 1.1583,2.0059 0.0864,0.69917 0.24638,1.3788 0.35547,1.5102 0.10995,0.13249 0.47267,0.23899 0.81395,0.23899 1.0687,0 1.0185,0.90309 -0.0845,1.5218 -0.52835,0.29636 -0.682,0.50444 -0.89052,1.206 -0.3465,1.1657 -1.4918,2.3834 -2.5187,2.6779 -1.4033,0.40246 -4.1422,-0.088 -4.6512,-0.83298 -0.32521,-0.47595 -1.0252,-0.41009 -1.997,0.18792 -1.1749,0.72295 -2.4477,1.004 -3.4933,0.77134 -1.3248,-0.29479 -1.4032,-0.35369 -1.8133,-1.3617 -0.45022,-1.1066 -0.49461,-2.0389 -0.14436,-3.0316 0.32273,-0.91471 0.49114,-2.3733 0.28848,-2.4986 -0.0869,-0.0537 -0.75306,-0.14728 -1.4804,-0.20794 l -1.3224,-0.11027 -0.35747,0.79824 c -0.64338,1.4366 -0.84106,1.7703 -1.3937,2.3526 -0.30005,0.31617 -0.59268,0.8105 -0.6503,1.0985 -0.0711,0.35578 -0.34705,0.71924 -0.86054,1.1337 -0.41569,0.33549 -0.80849,0.69357 -0.87286,0.79574 -0.19494,0.30931 -2.4356,1.7785 -3.3932,2.2249 -1.6083,0.74977 -3.8474,0.98066 -5.733,0.59117 -1.3229,-0.27324 -1.4127,-0.16563 -1.4989,1.7964 -0.0752,1.711 -0.3524,3.7119 -0.69394,5.0092 -0.1182,0.44898 -0.29858,1.4762 -0.40083,2.2828 -0.10225,0.80653 -0.26323,1.5596 -0.35773,1.6735 -0.21724,0.26175 -0.82193,0.26798 -1.0788,0.0111 z m 29.491,-9.0237 c -0.13856,-0.30413 -0.13555,-0.46142 0.0122,-0.63951 0.20927,-0.25217 0.67513,-0.30841 4.7499,-0.57344 1.3918,-0.0905 2.9264,-0.24145 3.41,-0.33538 1.15,-0.22335 1.2545,-0.2176 1.5579,0.0858 0.34801,0.34801 0.32457,0.50659 -0.14418,0.97536 -0.3927,0.39268 -0.45422,0.40073 -3.0612,0.40077 -1.687,1e-5 -3.1287,0.0896 -3.9402,0.24489 -1.879,0.35955 -2.362,0.32993 -2.5846,-0.15846 z"
       id="appreciated_abv" />
  </g>
</svg>
