<?xml version="1.0" encoding="UTF-8" standalone="no"?>
<svg
   xmlns:dc="http://purl.org/dc/elements/1.1/"
   xmlns:cc="http://creativecommons.org/ns#"
   xmlns:rdf="http://www.w3.org/1999/02/22-rdf-syntax-ns#"
   xmlns:svg="http://www.w3.org/2000/svg"
   xmlns="http://www.w3.org/2000/svg"
   id="svg2502"
   viewBox="0 0 39.276618 22.208666"
   version="1.1"
   height="22.208666"
   width="39.276619">
  <defs
     id="defs2506" />
  <metadata
     id="metadata2">
    <rdf:RDF>
      <cc:Work
         rdf:about="">
        <dc:format>image/svg+xml</dc:format>
        <dc:type
           rdf:resource="http://purl.org/dc/dcmitype/StillImage" />
        <dc:title />
      </cc:Work>
    </rdf:RDF>
  </metadata>
  <g
     transform="translate(-425.21619,-670.8816)"
     style="stroke-width:0.16327"
     id="g2500">
    <path
       d="m 426.13,678.62 c -0.1605,-0.19339 -0.0713,-0.46839 0.4698,-1.4487 1.0506,-1.9033 0.90493,-3.1585 -0.51844,-4.4663 -0.87364,-0.80273 -1.0526,-1.2167 -0.68507,-1.5842 0.36112,-0.36112 0.53819,-0.33284 1.3696,0.21876 0.92436,0.61324 1.77,1.6817 1.9064,2.4087 0.2098,1.1183 -0.0212,2.7735 -0.48483,3.4741 -0.23649,0.35736 -0.42998,0.72479 -0.42998,0.81651 0,0.30837 -0.64957,0.81982 -1.0412,0.81982 -0.21348,0 -0.47732,-0.10741 -0.58627,-0.23871 z m 34.156,-0.96097 c 0.066,-0.10344 0.12107,-0.42685 0.12245,-0.71869 0.002,-0.41079 -0.0666,-0.53061 -0.30351,-0.53061 -0.40361,0 -1.4899,1.004 -1.4899,1.3771 0,0.2566 0.0956,0.27835 0.77551,0.17649 0.42653,-0.0639 0.82948,-0.20082 0.89546,-0.30425 z m -0.38213,3.6648 c 0.38681,-0.36132 0.50707,-0.61398 0.50707,-1.0653 0,-0.73288 -0.3686,-0.91004 -1.8934,-0.91004 -1.1176,0 -1.9559,0.25756 -2.338,0.71831 -0.20295,0.24473 -0.18989,0.32065 0.10612,0.61667 0.65192,0.65193 1.5748,1.0828 2.353,1.0986 0.62336,0.0126 0.84846,-0.0689 1.2653,-0.45827 z m -23.911,1.4697 c 0.0499,-0.0808 0.4507,-0.2332 0.89061,-0.33874 1.7546,-0.42091 2.6018,-2.5088 1.8789,-4.6304 -0.32821,-0.96328 -1.3451,-1.844 -2.3065,-1.9978 -0.85476,-0.13668 -2.3299,0.30616 -2.8445,0.85393 -0.43398,0.46194 -0.69138,1.2904 -1.1282,3.631 -0.34194,1.8322 -0.28183,2.1391 0.41899,2.1391 0.20318,0 0.61664,0.10734 0.91879,0.23852 0.61022,0.26493 2.0305,0.33321 2.1719,0.10442 z m -7.1463,10.16 c -0.20338,-0.20336 -0.10968,-0.94973 0.2321,-1.849 0.18741,-0.49313 0.44044,-1.5217 0.56227,-2.2857 0.12183,-0.764 0.36472,-2.0503 0.53974,-2.8585 0.17502,-0.8082 0.36405,-1.8735 0.42006,-2.3674 0.0966,-0.852 0.55405,-3.5117 0.96668,-5.6209 0.20145,-1.0298 0.87932,-2.0954 1.6987,-2.6703 1.1662,-0.81822 3.547,-0.99717 4.8533,-0.36481 1.7069,0.82628 2.7746,3.4225 2.2129,5.381 -0.19121,0.66672 -0.14648,0.73425 0.39615,0.59805 0.87252,-0.21899 2.5134,-2.3454 3.7028,-4.7985 0.5535,-1.1416 1.0876,-2.1295 1.187,-2.1955 0.31799,-0.21115 1.0166,-0.13399 1.7587,0.19424 0.39685,0.17554 1.0261,0.36788 1.3984,0.42741 0.37224,0.0595 0.83365,0.25433 1.0253,0.43293 0.33905,0.31587 0.34636,0.41414 0.26888,3.6134 -0.052,2.1483 -0.0209,3.3595 0.0897,3.4928 0.0932,0.11226 0.47274,0.20411 0.84348,0.20411 0.54608,0 0.86781,-0.14361 1.6943,-0.75626 1.1188,-0.82934 1.1865,-1.017 0.78155,-2.1649 -0.23757,-0.67337 -0.18854,-1.1336 0.14514,-1.3621 0.0963,-0.066 0.72619,-0.12134 1.3997,-0.12305 0.91053,-0.002 1.3501,-0.0816 1.7143,-0.30937 0.66831,-0.4179 1.1748,-0.92203 1.4592,-1.4524 0.13102,-0.24434 0.49915,-0.69334 0.81805,-0.99778 0.31893,-0.30446 0.57986,-0.68601 0.57986,-0.84789 0,-0.3998 0.61634,-0.80266 1.228,-0.80266 0.42071,0 0.53416,0.0881 0.69837,0.54221 0.10784,0.2982 0.20194,0.79412 0.20913,1.102 0.007,0.3079 0.1359,1.0006 0.28604,1.5394 l 0.27298,0.97959 0.83466,0.0841 c 0.90792,0.0914 1.3688,0.36553 1.3688,0.81406 0,0.35017 -0.83917,0.72769 -1.3314,0.59897 -0.72555,-0.18973 -1.1385,0.34047 -1.7002,2.183 -0.24653,0.80859 -0.87112,1.5069 -1.5912,1.7789 -0.91112,0.34425 -1.8065,0.20884 -3.1449,-0.47559 -0.69824,-0.35708 -1.3447,-0.72442 -1.4366,-0.81633 -0.23539,-0.23539 -0.87668,-0.20787 -1.0324,0.0443 -0.0718,0.11628 -0.47941,0.42853 -0.90578,0.69388 -0.42636,0.26537 -0.77534,0.53231 -0.77551,0.59321 0,0.0609 -0.40362,0.26162 -0.89657,0.44606 -0.81794,0.30602 -0.97112,0.31619 -1.7522,0.11629 -0.83547,-0.21381 -0.86517,-0.24204 -1.2424,-1.1803 -0.35596,-0.88549 -0.37251,-1.0514 -0.21011,-2.1046 0.097,-0.62882 0.20062,-1.8287 0.23035,-2.6664 l 0.0541,-1.523 -0.79814,-0.40444 c -0.51468,-0.26081 -1.0034,-0.38672 -1.3761,-0.35453 -0.53545,0.0463 -0.60363,0.11597 -0.92702,0.94789 -0.51961,1.3367 -1.1599,2.4809 -1.6375,2.9264 -0.23338,0.2177 -0.42432,0.47372 -0.42432,0.56892 0,0.22013 -2.3079,2.382 -2.543,2.3821 -0.0966,5e-5 -0.34818,0.18375 -0.55907,0.40824 -0.21089,0.22449 -0.48856,0.40817 -0.61703,0.40817 -0.12848,0 -0.56017,0.2204 -0.95932,0.48979 -0.39915,0.26939 -0.86627,0.4898 -1.038,0.4898 -0.17173,0 -0.68509,0.14694 -1.1407,0.32653 -0.9844,0.38801 -2.2539,0.41951 -3.3618,0.0834 -1.5085,-0.45763 -1.5873,-0.38133 -1.8637,1.8056 -0.10137,0.80188 -0.28447,1.7886 -0.40692,2.1927 -0.12244,0.40408 -0.27146,1.0653 -0.33119,1.4694 -0.0597,0.40408 -0.20205,0.88271 -0.31636,1.0636 -0.11428,0.1809 -0.26233,0.58498 -0.32901,0.89796 -0.18929,0.88866 -0.8741,1.4397 -1.2821,1.0316 z"
       id="appreciate_abv" />
  </g>
</svg>
