<svg xmlns="http://www.w3.org/2000/svg" height="22.679" width="44.377"><path d="M0 7.21c0-.454.343-.918 1.238-1.673.38-.32.529-.639.696-1.485.245-1.236.073-1.881-.688-2.584C.789 1.047.69.504 1.012.182c.373-.372.809-.192 1.709.708l.904.904-.058 1.341c-.043 1.006-.152 1.525-.438 2.076-.483.93-1.222 1.705-2.024 2.123C.245 7.782 0 7.754 0 7.209zm34.989 9.729c-.409-.202-.617-.614-.413-.818.31-.31 4.331-.729 7.954-.828 1.371-.038 1.473-.018 1.518.293.034.24-.125.43-.572.68-.541.305-1.049.37-4.048.522-1.885.095-3.575.208-3.755.25-.18.043-.487-.002-.684-.1zm-3.56 3.421c-.18-.103-.847-.725-1.482-1.383-.634-.657-1.213-1.194-1.285-1.194-.072 0-.6-.38-1.172-.845-.831-.675-1.041-.937-1.041-1.303 0-.714.665-.802 1.437-.19.332.262.897.65 1.257.861.359.211.726.466.816.566.09.1.48.429.868.731.62.485 1.826 2.022 1.826 2.33 0 .186-.5.626-.706.62-.106-.002-.339-.09-.519-.193zm-20.723-8.53c1.216-.672 1.637-1.15 1.93-2.194.535-1.908.148-3.765-.897-4.302-.656-.337-1.331-.36-2.37-.083-.935.25-1.944 1.318-2.183 2.31-.09.369-.323 1.222-.519 1.895-.196.674-.388 1.537-.426 1.919-.07.69-.067.694.477.705.301.006.694.08.874.162.612.282 2.252.065 3.114-.412zM3.12 22.532c-.275-.174-.153-1.8.23-3.059.131-.435.24-1.018.241-1.294.003-.845.483-3.447 1.142-6.192.345-1.436.671-2.875.725-3.197.13-.774 1.45-3.417 1.924-3.852.206-.189.778-.554 1.272-.81 1.1-.572 2.64-.644 3.685-.172 1.379.621 2.156 2.574 1.931 4.848-.106 1.072-.263 1.527-.662 1.926-.334.335-.275.85.098.85.344 0 2.294-1.713 2.297-2.018.002-.103.149-.37.328-.595.863-1.083 1.985-2.686 2.207-3.153.594-1.25 1.155-1.908 1.628-1.908.116 0 .593.257 1.06.571.687.463 1.004.572 1.66.572 1.184 0 1.442.19 1.442 1.065 0 .4-.141 1.097-.313 1.55-.499 1.313-.761 3.034-.509 3.338.55.662 2.295.03 3.372-1.22.348-.405.763-.883.922-1.061.971-1.092 2.242-2.766 2.242-2.954 0-.273 1.527-1.502 2.24-1.803 1.246-.525 2.193-.035 2.65 1.372.195.606.19.829-.035 1.715-.143.56-.459 1.493-.7 2.073-.243.58-.44 1.237-.44 1.46 0 .42.696 1.159 1.093 1.159.37 0 1.92-1.51 2.173-2.117.132-.316.427-.796.655-1.066.58-.687 1.177-2.025 1.179-2.644.002-.287.075-.567.164-.622.09-.056.164-.242.164-.414 0-.578.624-.768 2.885-.879 2.066-.102 2.155-.093 2.256.226.156.491-.053.974-.458 1.058-.196.04-.962.102-1.702.136-1.008.048-1.427.138-1.673.36-.18.164-.329.37-.329.459 0 .184-.45 1.198-1.199 2.699-1.017 2.04-3.208 4.084-4.399 4.105-.654.011-1.51-.614-1.894-1.383-.474-.948-.408-1.475.382-3.074.453-.918.58-1.371.58-2.078 0-1.043-.182-1.297-.925-1.297-.439 0-.71.18-1.53 1.02-.549.562-1.098 1.259-1.222 1.55a3.405 3.405 0 01-.6.905c-.207.207-.727.848-1.155 1.425-.429.577-1.163 1.341-1.633 1.7l-.854.652-1.566.007c-1.771.008-2.038-.115-2.206-1.009-.105-.558.173-2.248.423-2.576.069-.09.166-.384.217-.653.05-.27.142-.693.203-.94.138-.56-.11-.882-.796-1.028-.286-.061-.607-.181-.714-.267-.459-.37-1.08-.062-1.752.868-.366.506-.96 1.289-1.319 1.74-.359.452-1.09 1.386-1.623 2.076-1.556 2.012-3.113 2.816-6.165 3.183-2.012.242-3.091.144-3.594-.324-.194-.18-.483-.329-.642-.329-.402 0-.792 1.386-.792 2.816 0 .618-.087 1.285-.194 1.48-.106.197-.25.651-.319 1.01-.398 2.07-1.106 4.167-1.403 4.161-.069-.002-.228-.067-.353-.147z" stroke-width=".163"/></svg>