<svg xmlns="http://www.w3.org/2000/svg" height="22.211" width="39.282"><path d="M.914 7.738c-.16-.193-.071-.468.47-1.449 1.05-1.903.905-3.158-.519-4.466C-.008 1.02-.188.606.18.24c.361-.36.538-.333 1.37.219.925.613 1.77 1.682 1.906 2.409.21 1.118-.021 2.774-.485 3.474-.236.357-.43.725-.43.816 0 .309-.65.82-1.04.82-.214 0-.478-.107-.587-.238zm34.16-.96c.066-.104.121-.428.122-.72.002-.41-.066-.53-.303-.53-.404 0-1.49 1.004-1.49 1.377 0 .256.095.278.775.176.427-.064.83-.2.896-.304zm-.382 3.664c.387-.361.507-.614.507-1.065 0-.733-.369-.91-1.893-.91-1.118 0-1.956.258-2.338.718-.203.245-.19.321.106.617.652.652 1.575 1.083 2.353 1.1.623.012.849-.07 1.265-.46zm-23.91 1.47c.05-.08.45-.233.89-.339 1.755-.42 2.602-2.509 1.88-4.63-.329-.963-1.346-1.844-2.308-1.998-.854-.136-2.33.307-2.844.854-.434.462-.691 1.29-1.128 3.631-.341 1.832-.281 2.14.42 2.14.203 0 .616.107.918.238.61.265 2.03.333 2.172.104zm-7.146 10.16c-.204-.203-.11-.95.232-1.849.187-.493.44-1.522.562-2.286.122-.764.365-2.05.54-2.858.175-.808.364-1.873.42-2.367.097-.852.554-3.512.967-5.62.201-1.03.879-2.096 1.699-2.67 1.166-.819 3.547-.998 4.853-.366 1.707.827 2.775 3.423 2.213 5.381-.191.667-.147.735.396.598.872-.219 2.513-2.345 3.703-4.798.553-1.142 1.088-2.13 1.187-2.195.318-.21 1.017-.134 1.759.195a6.884 6.884 0 001.398.427c.372.06.834.254 1.025.433.339.316.346.414.269 3.613-.052 2.148-.021 3.359.09 3.493.093.112.472.204.843.204.546 0 .868-.144 1.694-.756 1.119-.83 1.187-1.017.782-2.165-.238-.674-.189-1.134.145-1.362.096-.066.726-.122 1.4-.123.91-.002 1.35-.082 1.714-.31.668-.418 1.175-.922 1.459-1.452.13-.244.499-.693.818-.998.319-.304.58-.686.58-.847 0-.4.616-.803 1.228-.803.42 0 .534.088.698.542.108.298.202.794.21 1.102.006.308.135 1.001.285 1.54l.273.979.835.084c.908.091 1.369.365 1.369.814 0 .35-.84.728-1.331.599-.726-.19-1.14.34-1.7 2.183-.247.808-.871 1.507-1.591 1.779-.911.344-1.807.209-3.145-.476-.698-.357-1.345-.724-1.437-.816-.236-.235-.877-.208-1.032.044-.072.117-.48.429-.906.694-.426.266-.775.532-.775.593 0 .061-.404.262-.897.446-.818.306-.971.317-1.752.117-.836-.214-.865-.242-1.242-1.18-.356-.886-.373-1.051-.21-2.105.097-.629.2-1.83.23-2.666l.054-1.523-.798-.405c-.514-.26-1.003-.386-1.376-.354-.535.046-.603.116-.927.948-.52 1.337-1.16 2.48-1.637 2.926-.233.217-.424.473-.424.569 0 .22-2.308 2.382-2.543 2.382-.097 0-.348.183-.56.408-.21.224-.488.408-.616.408-.129 0-.56.22-.96.49-.399.27-.866.49-1.037.49-.172 0-.686.147-1.141.326-.985.388-2.254.42-3.362.084-1.51-.458-1.587-.382-1.864 1.806-.102.801-.285 1.789-.407 2.193a12.374 12.374 0 00-.332 1.469c-.06.404-.202.882-.316 1.064-.114.18-.262.585-.329.898-.19.888-.874 1.44-1.282 1.032z" stroke-width=".163"/></svg>