<svg xmlns="http://www.w3.org/2000/svg" height="25.525" width="42.269"><path d="M.084 7.082c-.131-.212.048-.785.408-1.305.155-.224.375-.702.49-1.06.113-.36.282-.749.374-.864.092-.116.174-.53.182-.922.017-.777-.294-1.255-1.086-1.664C-.079.992-.16.326.306.076c.42-.225 1.441.078 1.887.56.464.499.969 2.112.836 2.668-.163.686-.801 2.208-1.026 2.444-.112.119-.204.311-.204.427 0 .444-.671 1.072-1.145 1.072-.258 0-.514-.074-.57-.165zm35.315.28c.123-.098.191-.415.163-.754-.04-.47-.124-.596-.429-.64-.432-.06-1.48.987-1.49 1.493-.007.26.086.282.768.183.426-.061.87-.188.988-.281zm-.545 3.83c.617-.36 1.26-1.292 1.196-1.735-.045-.313-.163-.333-2.007-.343-1.077-.006-2.106.059-2.285.143-.48.223-1.225.956-1.225 1.204 0 .117.46.432 1.02.7.864.41 1.158.472 1.913.402.491-.045 1.116-.212 1.388-.371zm-23.688 1.12c.608-.493 1.143-1.07 1.208-1.302.063-.229.116-1.228.117-2.22.002-1.447-.055-1.889-.286-2.24-.448-.685-1.207-1.006-2.362-1-1.09.007-1.474.214-1.901 1.03a83.33 83.33 0 01-.488.912c-.146.27-.266.677-.267.906 0 .229-.069.486-.151.571-.306.317-.83 2.128-.83 2.873v.77l.858.338c.626.247 1.147.326 1.933.293 1.034-.043 1.12-.08 2.169-.93zM2.81 25.336c-.245-.244-.254-1.266-.017-1.875.415-1.066.67-2.369.812-4.133.082-1.032.224-2.208.314-2.612.091-.404.236-1.102.323-1.551.964-4.99 1.158-5.842 1.523-6.673.153-.348.277-.7.277-.784 0-.212.964-1.947 1.286-2.315.402-.46 1.49-1.048 2.251-1.219.868-.194 2.273.25 3.173 1 1.142.953 1.632 3.08 1.24 5.379-.12.705-.104.775.185.775.602 0 3.457-3.156 3.457-3.82 0-.144.066-.261.146-.261.08 0 .535-.772 1.012-1.715l.867-1.714h.631c.347 0 .791.086.987.191.197.105.968.282 1.715.392.747.11 1.399.242 1.448.29.266.267.21 1.572-.106 2.474-.189.539-.388 1.507-.443 2.153-.096 1.135-.084 1.188.374 1.646.618.617 1.653.803 2.393.429 1.52-.768 1.894-1.405 1.333-2.262-.23-.351-.23-.439-.006-.873.334-.645.62-.726 1.51-.424.414.141.94.21 1.179.153.26-.062 1.267-.967 2.557-2.299 1.858-1.918 2.194-2.197 2.65-2.197.708 0 .965.444 1.158 2.006.086.7.246 1.38.355 1.51.11.133.473.24.814.24 1.069 0 1.019.903-.084 1.521-.529.297-.682.505-.89 1.206-.347 1.166-1.493 2.384-2.52 2.678-1.403.403-4.142-.088-4.65-.833-.326-.476-1.026-.41-1.998.188-1.175.723-2.447 1.004-3.493.772-1.325-.295-1.403-.354-1.813-1.362-.45-1.107-.495-2.039-.145-3.032.323-.914.492-2.373.289-2.498-.087-.054-.753-.148-1.48-.208l-1.323-.11-.357.798c-.644 1.436-.841 1.77-1.394 2.352-.3.316-.593.81-.65 1.099-.072.356-.347.719-.861 1.133-.416.336-.808.694-.873.796-.195.31-2.435 1.779-3.393 2.225-1.608.75-3.847.98-5.733.591-1.323-.273-1.413-.165-1.499 1.797-.075 1.71-.352 3.712-.694 5.009-.118.449-.298 1.476-.4 2.283-.103.806-.264 1.56-.358 1.673-.218.262-.822.268-1.08.011zm29.49-9.023c-.138-.304-.135-.462.013-.64.21-.252.675-.308 4.75-.573 1.392-.09 2.926-.242 3.41-.336 1.15-.223 1.254-.217 1.558.086.348.348.324.507-.144.975-.393.393-.455.401-3.062.401-1.687 0-3.128.09-3.94.245-1.879.36-2.362.33-2.584-.158z"/></svg>