<svg xmlns="http://www.w3.org/2000/svg" height="21.438" width="35.149"><path d="M.007 6.996C-.075 6.784.598 5.793 1.37 4.99c.228-.237.701-1.721.701-2.198 0-.17-.23-.539-.51-.82C.958 1.37.75.412 1.15.08c.382-.317 1.518.372 1.922 1.164.418.818.465 2.466.091 3.175-.151.287-.276.618-.277.734-.002.117-.395.635-.874 1.151-.709.764-.969.94-1.39.94-.313 0-.557-.099-.614-.247zm11.03 3.622c.283-.12.805-.604 1.162-1.078.605-.805.647-.933.647-1.963 0-1.36-.227-2.052-.902-2.755-.757-.788-1.587-.866-2.783-.26-.859.434-.957.548-1.569 1.806-.548 1.126-.657 1.52-.679 2.45-.023.989.01 1.115.3 1.17.18.036.438.16.572.278.6.525 2.383.718 3.252.352zm-8.58 10.4c-.059-.237.014-1.063.162-1.837.148-.773.269-1.515.268-1.647 0-.133.17-.72.38-1.306.744-2.077 1.241-3.686 1.338-4.33.097-.636.64-2.55 1.49-5.248.464-1.471 1.444-2.794 2.392-3.23 1.184-.542 2.375-.778 2.958-.586 1.1.363 1.818 1.052 2.418 2.318.6 1.267.612 1.497.194 3.768-.101.55-.077.612.233.612.744 0 2.728-2.54 3.883-4.97.797-1.68 1.08-1.812 2.354-1.106.522.289 1.126.525 1.344.525.218 0 .59.18.828.4.38.354.432.525.432 1.45 0 .576-.101 1.335-.224 1.685a9.115 9.115 0 00-.34 1.472c-.101.74-.072.875.256 1.18.663.618 1.903.352 3.846-.825 1.608-.974 2.503-1.746 2.503-2.159 0-.192-.376-.814-.834-1.38-1.026-1.269-1.257-2.203-.586-2.371.533-.134.839-.01 1.077.436.455.85.654 1.14 1.087 1.593.253.263.555.479.67.479.224 0 2.34-1.971 2.34-2.18 0-.228 1.434-1.575 1.677-1.575.388 0 .633.419.517.882-.059.233-.172.424-.252.424-.08 0-.146.093-.146.207 0 .114-.698.903-1.55 1.752-.952.947-1.552 1.674-1.552 1.88 0 .183.292.625.648.982.356.357.65.712.653.79.003.077.3.491.658.92.683.815.809 1.358.434 1.87-.253.346-1.087.24-1.087-.14 0-.122-.312-.538-.694-.925-.381-.387-.841-1.002-1.022-1.367-.293-.593-.396-.668-.98-.706-.581-.04-.765.053-1.705.857-.58.495-1.131.9-1.224.901-.094 0-.796.31-1.56.688-2.282 1.128-3.552.95-4.411-.617-.437-.796-.388-1.318.41-4.357.11-.419.06-.475-.757-.855-.48-.224-.996-.408-1.146-.41-.319-.001-1.117.893-1.117 1.254 0 .137-.188.48-.418.763a93.23 93.23 0 00-1.852 2.33c-.659.856-2.913 2.509-3.421 2.509-.152 0-.458.129-.68.286-.334.236-.734.282-2.312.264-1.734-.02-1.98-.06-2.674-.45-.965-.539-1.18-.535-1.397.022-.32.82-1.141 3.87-1.527 5.673-.593 2.762-.827 3.46-1.24 3.68-.464.249-.628.189-.743-.273z" stroke-width=".163"/></svg>