<svg xmlns="http://www.w3.org/2000/svg" height="21.435" width="35.151"><path d="M.007 6.996C-.075 6.784.598 5.793 1.37 4.99c.227-.237.7-1.72.7-2.198 0-.17-.229-.539-.509-.819C.957 1.37.75.411 1.15.08 1.53-.238 2.667.45 3.071 1.243c.418.818.465 2.466.091 3.175-.151.288-.276.618-.277.735-.002.117-.395.635-.874 1.15-.709.764-.968.94-1.39.94-.313 0-.557-.099-.614-.247zm11.03 3.622c.284-.119.806-.604 1.162-1.077.605-.806.647-.933.647-1.964 0-1.36-.226-2.052-.901-2.755-.757-.788-1.587-.865-2.784-.26-.858.435-.957.548-1.569 1.806-.548 1.126-.657 1.521-.679 2.45-.023.99.01 1.115.3 1.171.18.035.438.16.572.277.6.525 2.383.718 3.253.352zM2.46 21.016c-.06-.237.013-1.063.161-1.836.148-.774.269-1.515.268-1.648 0-.133.17-.72.38-1.306.744-2.077 1.24-3.685 1.339-4.33.096-.636.64-2.55 1.49-5.248.464-1.472 1.444-2.795 2.392-3.23 1.185-.543 2.376-.78 2.959-.587 1.1.363 1.818 1.052 2.417 2.318.6 1.267.612 1.497.194 3.768-.1.55-.077.612.233.612.744 0 2.729-2.54 3.883-4.971.797-1.679 1.08-1.811 2.354-1.105.521.288 1.126.525 1.343.525.218 0 .59.18.828.4.381.353.432.525.432 1.449 0 .577-.1 1.335-.224 1.684a9.12 9.12 0 00-.34 1.472c-.101.74-.072.875.256 1.18.663.619 1.903.353 3.846-.824 1.608-.975 2.503-1.746 2.503-2.159 0-.192-.375-.813-.833-1.38-1.027-1.269-1.258-2.203-.586-2.371.533-.134.838-.01 1.077.435.455.85.654 1.141 1.087 1.594.252.263.554.479.67.479.224 0 2.34-1.97 2.34-2.18 0-.228 1.433-1.575 1.676-1.575.389 0 .634.419.518.882-.059.233-.172.424-.252.424-.08 0-.146.093-.146.207 0 .114-.698.903-1.55 1.752-.952.947-1.552 1.674-1.552 1.879 0 .184.292.626.648.983.356.356.65.712.653.789.003.077.3.492.658.92.683.816.808 1.359.434 1.871-.253.346-1.087.24-1.087-.14 0-.122-.312-.538-.694-.925-.381-.387-.841-1.002-1.021-1.367-.293-.593-.397-.667-.98-.706-.581-.039-.765.054-1.705.857-.58.495-1.13.901-1.225.902-.094 0-.795.31-1.558.687-2.283 1.128-3.553.95-4.412-.616-.437-.797-.388-1.319.41-4.358.11-.419.061-.475-.756-.855-.481-.224-.997-.408-1.146-.41-.32-.001-1.117.893-1.117 1.254 0 .137-.188.48-.418.763a91.207 91.207 0 00-1.853 2.33c-.659.856-2.913 2.51-3.42 2.51-.153 0-.459.128-.68.285-.335.237-.734.282-2.313.264-1.734-.019-1.979-.06-2.674-.448-.965-.54-1.18-.537-1.396.021-.32.82-1.141 3.87-1.528 5.674-.592 2.762-.827 3.458-1.24 3.68-.464.248-.627.187-.743-.275z" stroke-width=".163"/></svg>