<svg xmlns="http://www.w3.org/2000/svg" height="31.696" width="55.598"><path d="M.845 17.319c-.223-.224-.067-.798.488-1.786.626-1.117.696-1.765.291-2.706-.25-.582-.508-.886-.953-1.124-.51-.274-.617-.423-.66-.925-.04-.485.015-.619.287-.705.184-.059.489-.058.677.002.538.17 1.732 1.026 1.873 1.342.297.663.5 2.413.366 3.15C2.89 16.357 1.5 17.972.845 17.32zM52.556 6.742c.53-.617.812-1.102.812-1.393 0-.13.096-.333.214-.451.58-.586.797-3.1.276-3.197-.47-.088-1.115.723-1.233 1.55-.06.428-.22 1.182-.355 1.676-.135.494-.282 1.1-.327 1.349-.045.248-.147.491-.226.54-.248.153-.159.397.145.397.16 0 .472-.212.694-.471zM6.583 21.157c.222-.304.437-.316 2.632-.147 1.921.147 2.544 0 3.3-.78 1.053-1.086 1.315-2.98.62-4.473-.216-.465-.541-.924-.723-1.02-.437-.235-2.607-.226-3.306.012a3.93 3.93 0 00-.942.489c-.484.373-1.48 1.918-1.486 2.304-.002.158-.151.818-.33 1.466-.507 1.828-.38 2.99.235 2.149zm-3.772 10.29c-.054-.14-.008-.819.102-1.51.415-2.595.844-4.873 1.07-5.67.207-.737.493-2.32.898-4.972.225-1.476.545-2.313 1.415-3.696.622-.989 1.687-1.947 2.306-2.075 1.846-.38 2.35-.435 3.204-.347 1.335.138 1.753.397 2.208 1.37.214.456.44.83.503.83s.206.328.319.73c.196.7.156 2.063-.09 3.065-.251 1.023 1.052.195 2.472-1.571.997-1.24 1.523-1.958 1.63-2.225.532-1.323 1.295-2.597 1.654-2.76.5-.228 1.4.007 1.95.506.203.185.73.37 1.255.441 1.326.18 1.452.338 1.375 1.72-.037.657-.218 1.54-.42 2.05-1.049 2.644.432 3.913 2.479 2.125.421-.368 2.06-2.445 2.47-3.132.444-.743 1.388-2.042 1.665-2.292.452-.408 1.615-.78 2.439-.78.864 0 1.273.35 1.532 1.311.19.71.07 2.38-.184 2.538-.08.049-.144.267-.144.485 0 .218-.087.722-.194 1.12-.234.874-.07 1.154.765 1.31.635.12 1.559-.272 2.151-.911.7-.756 2.502-4.288 2.502-4.906 0-.676.611-1.02 1.417-.796 1.523.423 2.92.156 4.717-.9.634-.374 1.302-.727 1.484-.784.58-.184 1.002-.8 1.413-2.059.22-.673.634-1.702.92-2.286.291-.595.547-1.406.582-1.848.034-.433.206-1.204.383-1.714.176-.51.37-1.197.432-1.527.062-.33.307-.787.546-1.016.238-.23.615-.603.838-.83.379-.385.733-.498 1.305-.415.207.03.601.405 1.133 1.078.076.097.191.554.254 1.016.129.932-.15 2.005-.828 3.19-.213.373-.39.789-.393.924-.003.134-.4.771-.885 1.416-.484.644-.928 1.322-.986 1.507-.059.184-.751.98-1.538 1.767-1.245 1.246-1.47 1.56-1.732 2.412-.293.957-.421 1.28-1.29 3.244-.312.703-.425 1.234-.425 1.992 0 1.01.015 1.046.653 1.559.756.607.792.772.275 1.258-.528.496-.82.446-1.49-.258-1.075-1.127-1.146-2.492-.254-4.857.634-1.678.776-2.493.457-2.616-.13-.05-.856.176-1.612.503-1.028.443-1.685.615-2.6.68-1.285.089-1.7.295-1.857.92-.12.478-1.652 3.017-2.132 3.534a4.327 4.327 0 00-.57.776c-.108.212-.657.583-1.285.871-1.266.58-2.131.575-3.274-.02-.65-.34-.678-.386-.678-1.129 0-.426.157-1.208.349-1.738.421-1.166.582-2.915.298-3.257-.529-.637-2.047.026-2.492 1.088-.2.478-1.188 1.824-2.656 3.62-.618.757-1.093 1.144-1.878 1.533-1.337.662-1.895.671-2.908.048-.65-.4-.821-.603-.91-1.078-.121-.644.11-1.846.585-3.03.356-.891.387-1.443.101-1.784-.267-.319-1.99-1.003-2.35-.934-.155.03-.433.326-.618.659-.723 1.295-2.57 3.865-2.96 4.122-.227.148-.478.441-.558.651-.142.375-.95.89-3.114 1.989-1.2.61-2.803 1.026-4.432 1.154-1.311.103-2.904-.315-3.03-.796a.414.414 0 00-.375-.297c-.232 0-.321.173-.402.776a14.735 14.735 0 01-.328 1.592c-.124.449-.334 1.514-.47 2.367-.276 1.754-1.03 4.713-1.279 5.02-.23.286-.768.255-.886-.05zm27.386-3.105c-.276-.233-1.256-1.193-2.176-2.135l-1.734-1.774c-.034-.034-.014-.249.043-.478.157-.624 1.006-.58 1.634.085.783.83 3.616 3.366 3.845 3.443.255.085.109.667-.26 1.035-.358.358-.783.303-1.352-.176z" stroke-width=".163"/></svg>