<svg xmlns="http://www.w3.org/2000/svg" height="24.308" width="23.791"><path d="M.008 7.081c-.053-.138.16-.817.474-1.51C1.56 3.191 1.64 2.451.93 1.488.082.341 1.08-.587 2.049.45c.781.837 1.01 2.078.658 3.575-.185.79-.244.932-.828 1.984C1.284 7.081.24 7.681.01 7.081zm12.58 13.88c-.224-.342-.252-.649-.16-1.755.108-1.3.366-1.905.721-1.685.091.057.144.402.116.767-.062.836.043 1.244.35 1.362.347.133.813-.158 2.013-1.258 1.284-1.178 1.685-1.393 2.045-1.094.23.19.16.314-.608 1.082-.476.477-.942.868-1.036.87-.093.002-.534.38-.98.839-.727.75-1.573 1.288-2.025 1.288-.09 0-.287-.187-.437-.415zm-2.183-8.7c.75-.387.924-.564 1.086-1.102.255-.844.27-3.36.024-3.939-.281-.662-.96-1.355-1.328-1.355-1.177 0-2.726 1.054-3.06 2.084-.11.336-.25.647-.31.692-.264.192-.658 1.855-.658 2.77 0 1.21.12 1.286 2.044 1.302 1.129.009 1.432-.054 2.202-.452zM2.07 23.971c-.203-.38-.083-1.366.27-2.21.125-.299.226-.934.226-1.414 0-.478.07-.94.155-1.026.157-.156.494-1.294.917-3.094.127-.538.342-1.38.477-1.872.136-.49.247-1.175.247-1.52 0-.669.295-2.052.495-2.322.066-.09.172-.42.234-.734.063-.315.41-1.18.773-1.922.744-1.525 1.742-2.53 2.825-2.844.36-.105.748-.262.864-.35.381-.29 1.555-.212 2.043.136.923.659 1.817 3.348 1.7 5.125-.021.337.048.584.178.63.234.081 1.501-1.199 1.501-1.518 0-.109.116-.294.258-.411.141-.118.438-.55.659-.96 1.35-2.503 1.983-3.42 2.388-3.457.482-.044.858.07 1.292.39.306.226.79.366 1.427.412.89.065.986.11 1.25.6.247.46.268.758.154 2.226-.073.933-.12 2.21-.107 2.84.025 1.128.034 1.15.76 1.845.404.387.735.795.735.906 0 .637-1.16.805-1.842.267-.23-.18-.615-.676-.856-1.102-.423-.746-.434-.828-.311-2.325.07-.853.133-2.065.14-2.694l.012-1.143-2.255-.439-.426.465c-.235.255-.739.985-1.12 1.622-1.194 1.992-3.518 4.458-5.096 5.406-1.053.632-5.493 1.028-5.81.517-.158-.256-.706-.148-.879.174-.093.174-.169.528-.169.787 0 .466-.371 1.942-.647 2.57-.08.18-.179.731-.222 1.225-.043.494-.227 1.376-.407 1.959-.181.583-.456 1.484-.61 2-.255.854-.693 1.592-.943 1.592-.054 0-.18-.153-.28-.339z" stroke-width=".163"/></svg>