<svg xmlns="http://www.w3.org/2000/svg" height="24.313" width="23.788"><path d="M.008 7.082c-.053-.138.16-.818.474-1.51C1.559 3.192 1.64 2.45.93 1.489.082.342 1.08-.587 2.049.449c.781.837 1.01 2.078.659 3.576-.185.788-.245.931-.829 1.983C1.284 7.082.24 7.682.01 7.082zm12.577 13.877c-.224-.342-.252-.65-.16-1.755.108-1.301.366-1.905.722-1.685.09.056.143.4.115.766-.062.836.043 1.244.35 1.362.347.134.813-.158 2.013-1.258 1.284-1.178 1.685-1.392 2.045-1.094.229.19.16.314-.608 1.082-.476.477-.942.868-1.035.87-.094.002-.534.38-.98.839-.727.75-1.574 1.287-2.026 1.287-.09 0-.287-.186-.436-.414zm-2.183-8.7c.75-.388.924-.564 1.086-1.102.255-.844.27-3.36.024-3.94-.281-.662-.96-1.354-1.328-1.354-1.177 0-2.725 1.055-3.061 2.085-.11.335-.249.646-.31.69-.263.194-.658 1.856-.658 2.771 0 1.21.12 1.286 2.044 1.301 1.13.009 1.432-.053 2.203-.451zM2.067 23.974c-.203-.38-.083-1.366.27-2.211.125-.298.226-.934.226-1.413 0-.478.07-.94.155-1.025.157-.157.494-1.294.917-3.094.127-.539.342-1.381.477-1.872.136-.491.247-1.175.247-1.52 0-.67.295-2.052.495-2.322.066-.09.172-.42.234-.735.063-.314.41-1.18.773-1.922.744-1.525 1.742-2.53 2.825-2.844.359-.104.748-.261.863-.35.382-.29 1.555-.211 2.043.137.924.658 1.817 3.348 1.701 5.125-.022.337.048.583.178.629.234.082 1.5-1.198 1.5-1.517 0-.109.116-.294.258-.411.142-.118.438-.55.66-.96 1.35-2.504 1.982-3.42 2.388-3.457.482-.044.858.07 1.292.39.306.227.79.366 1.427.413.89.064.986.11 1.25.6.247.459.268.757.154 2.226-.073.933-.12 2.21-.107 2.839.026 1.13.034 1.151.76 1.846.404.386.735.794.735.906 0 .636-1.16.804-1.843.267-.229-.18-.614-.677-.855-1.102-.423-.747-.434-.829-.312-2.325.07-.853.133-2.065.14-2.694l.013-1.143-1.128-.22-1.128-.22-.426.465c-.235.256-.739.986-1.12 1.622-1.194 1.993-3.518 4.458-5.096 5.406-1.053.632-5.493 1.028-5.81.518-.158-.257-.706-.149-.878.173-.093.174-.17.528-.17.787 0 .467-.371 1.942-.647 2.571-.079.18-.179.73-.222 1.225-.043.493-.226 1.375-.407 1.959-.18.583-.455 1.484-.61 2.001-.255.853-.692 1.59-.943 1.59-.054 0-.18-.152-.279-.338z"/></svg>