<?xml version="1.0" encoding="UTF-8" standalone="no"?>
<svg
   xmlns:dc="http://purl.org/dc/elements/1.1/"
   xmlns:cc="http://creativecommons.org/ns#"
   xmlns:rdf="http://www.w3.org/1999/02/22-rdf-syntax-ns#"
   xmlns:svg="http://www.w3.org/2000/svg"
   xmlns="http://www.w3.org/2000/svg"
   id="svg2502"
   viewBox="0 0 23.787805 24.312607"
   version="1.1"
   height="24.312607"
   width="23.787806">
  <defs
     id="defs2506" />
  <metadata
     id="metadata2">
    <rdf:RDF>
      <cc:Work
         rdf:about="">
        <dc:format>image/svg+xml</dc:format>
        <dc:type
           rdf:resource="http://purl.org/dc/dcmitype/StillImage" />
        <dc:title />
      </cc:Work>
    </rdf:RDF>
  </metadata>
  <g
     transform="translate(-426.99191,-816.99816)"
     style="stroke-width:0.16327"
     id="g2500">
    <path
       d="m 427,824.08 c -0.053,-0.13813 0.1602,-0.81772 0.47377,-1.5102 1.0776,-2.3797 1.1589,-3.1213 0.44783,-4.0831 -0.848,-1.147 0.15164,-2.0752 1.1193,-1.0393 0.78144,0.83652 1.0101,2.0779 0.65871,3.5753 -0.18509,0.78869 -0.24468,0.93143 -0.82832,1.9839 -0.59528,1.0735 -1.641,1.6734 -1.8713,1.0734 z m 12.577,13.877 c -0.22411,-0.34206 -0.25213,-0.6489 -0.16026,-1.7551 0.10802,-1.3007 0.36665,-1.9046 0.7217,-1.6852 0.091,0.0562 0.14312,0.40119 0.11587,0.76658 -0.0624,0.83629 0.0422,1.2442 0.34939,1.362 0.34769,0.13342 0.81368,-0.15778 2.0129,-1.2579 1.2843,-1.1782 1.6853,-1.3926 2.0451,-1.094 0.22926,0.19027 0.15971,0.31409 -0.60739,1.0816 -0.47648,0.47669 -0.94253,0.86835 -1.0357,0.87037 -0.0932,0.002 -0.53399,0.37928 -0.97959,0.83837 -0.72758,0.74957 -1.5741,1.2878 -2.0257,1.2878 -0.0906,0 -0.28697,-0.18653 -0.43636,-0.41451 z m -2.1834,-8.7 c 0.75017,-0.38765 0.9239,-0.56389 1.0862,-1.102 0.25465,-0.84403 0.27017,-3.3605 0.0243,-3.939 -0.28149,-0.66235 -0.96002,-1.3546 -1.3278,-1.3546 -1.177,0 -2.7258,1.0544 -3.0615,2.0843 -0.10929,0.33528 -0.24882,0.64635 -0.31006,0.69125 -0.26312,0.19291 -0.65766,1.8551 -0.65766,2.7706 0,1.209 0.12016,1.2854 2.044,1.3006 1.1293,0.009 1.4321,-0.0531 2.2024,-0.45108 z m -8.3346,11.715 c -0.20346,-0.38018 -0.0831,-1.3659 0.26987,-2.2108 0.12456,-0.29811 0.22647,-0.93375 0.22647,-1.4126 0,-0.47879 0.0697,-0.94034 0.15484,-1.0256 0.15629,-0.15653 0.49329,-1.2938 0.91675,-3.0939 0.12675,-0.53878 0.34157,-1.3813 0.47739,-1.8723 0.13582,-0.49101 0.24694,-1.1748 0.24694,-1.5196 0,-0.66921 0.29448,-2.0522 0.49451,-2.3224 0.0665,-0.0898 0.17205,-0.42041 0.23462,-0.73469 0.0626,-0.31429 0.41018,-1.1791 0.77247,-1.9218 0.7437,-1.5247 1.7419,-2.5296 2.8249,-2.8438 0.35918,-0.10421 0.74779,-0.26147 0.86356,-0.34947 0.38155,-0.29003 1.5548,-0.2119 2.0428,0.136 0.92386,0.65858 1.8167,3.3485 1.7011,5.125 -0.0219,0.33696 0.0477,0.58343 0.1776,0.62904 0.23396,0.0821 1.5006,-1.1982 1.5006,-1.5168 0,-0.10877 0.11594,-0.29396 0.25764,-0.41156 0.14169,-0.1176 0.43831,-0.54905 0.65916,-0.95878 1.3498,-2.5043 1.9826,-3.4205 2.3882,-3.4576 0.48202,-0.0442 0.85845,0.0696 1.2925,0.39046 0.30582,0.22611 0.7898,0.3658 1.4271,0.41189 0.89068,0.0644 0.9861,0.11024 1.2499,0.60015 0.24737,0.45931 0.26799,0.75769 0.15385,2.2264 -0.0725,0.9328 -0.12038,2.2103 -0.10645,2.8389 0.0251,1.1293 0.034,1.1512 0.75987,1.8457 0.404,0.38656 0.73453,0.79432 0.73453,0.90612 0,0.63648 -1.1592,0.80448 -1.8424,0.26702 -0.22939,-0.18044 -0.61445,-0.67636 -0.85567,-1.102 -0.42319,-0.74676 -0.43412,-0.82847 -0.31137,-2.325 0.07,-0.85306 0.1329,-2.0653 0.13979,-2.6939 l 0.0126,-1.1428 -1.1277,-0.21974 -1.1277,-0.21976 -0.42644,0.46466 c -0.23453,0.25554 -0.73856,0.98547 -1.12,1.622 -1.194,1.9924 -3.5183,4.4579 -5.096,5.4057 -1.0528,0.63248 -5.4934,1.0283 -5.809,0.5178 -0.15871,-0.25682 -0.70673,-0.14859 -0.87917,0.17363 -0.093,0.17368 -0.16901,0.52769 -0.16901,0.7867 0,0.4665 -0.37174,1.9418 -0.6478,2.571 -0.0788,0.17959 -0.17863,0.73061 -0.22185,1.2245 -0.0432,0.49388 -0.22645,1.3755 -0.40721,1.9592 -0.18077,0.58368 -0.4552,1.4842 -0.60987,2.0012 -0.25518,0.85306 -0.69244,1.5906 -0.943,1.5906 -0.0537,0 -0.17913,-0.15244 -0.27886,-0.33876 z"
       id="April_abv" />
  </g>
</svg>
