<svg xmlns="http://www.w3.org/2000/svg" height="9.786" width="9.983"><path d="M.03 9.54c-.147-.385.256-1.488.98-2.682.896-1.475 1.086-1.843 1.088-2.103 0-.124.244-.565.542-.98.298-.415.752-1.292 1.01-1.95C4.099.68 4.657 0 5.148 0c.126 0 .452.164.724.366.399.294.782.381 1.977.449 1.372.077 1.507.116 1.808.52l.326.438-.445 1.741c-.492 1.93-.509 3.392-.05 4.567.269.691.147 1.226-.28 1.226-.343 0-1.375-1.29-1.558-1.949-.253-.912-.199-1.407.327-2.975.269-.804.49-1.603.49-1.776 0-.326-.131-.377-1.47-.569a90.528 90.528 0 01-1.263-.19c-.465-.076-.562-.024-.816.442a7.72 7.72 0 01-.645.967c-.196.241-.41.651-.475.91-.065.258-.371.802-.681 1.208-.31.405-.62.89-.691 1.075-.305.8-.922 2.01-1.353 2.653-.483.718-.871.881-1.042.436z" stroke-width=".163"/></svg>