<svg xmlns="http://www.w3.org/2000/svg" height="9.786" width="9.982"><path d="M.03 9.539c-.147-.384.256-1.489.98-2.682.896-1.475 1.086-1.843 1.087-2.103 0-.124.245-.565.543-.98.297-.414.752-1.292 1.01-1.95C4.099.68 4.656 0 5.147 0c.126 0 .452.165.724.366.399.294.782.381 1.977.449 1.372.077 1.506.116 1.808.52l.326.438-.445 1.74c-.492 1.93-.509 3.393-.05 4.568.269.691.147 1.225-.28 1.225-.343 0-1.375-1.29-1.557-1.948-.254-.913-.2-1.408.326-2.976.27-.804.49-1.603.49-1.776 0-.326-.13-.377-1.47-.569a90.286 90.286 0 01-1.263-.19c-.465-.076-.562-.024-.816.442-.158.29-.449.725-.645.967s-.41.651-.475.91c-.065.258-.371.802-.68 1.208-.31.406-.622.89-.692 1.075-.305.8-.922 2.01-1.353 2.653-.483.719-.871.882-1.042.437z" stroke-width=".163"/></svg>