<?xml version="1.0" encoding="UTF-8" standalone="no"?>
<svg
   xmlns:dc="http://purl.org/dc/elements/1.1/"
   xmlns:cc="http://creativecommons.org/ns#"
   xmlns:rdf="http://www.w3.org/1999/02/22-rdf-syntax-ns#"
   xmlns:svg="http://www.w3.org/2000/svg"
   xmlns="http://www.w3.org/2000/svg"
   id="svg2502"
   viewBox="0 0 9.9816501 9.7855663"
   version="1.1"
   height="9.7855663"
   width="9.9816504">
  <defs
     id="defs2506" />
  <metadata
     id="metadata2">
    <rdf:RDF>
      <cc:Work
         rdf:about="">
        <dc:format>image/svg+xml</dc:format>
        <dc:type
           rdf:resource="http://purl.org/dc/dcmitype/StillImage" />
        <dc:title />
      </cc:Work>
    </rdf:RDF>
  </metadata>
  <g
     transform="translate(-427.44986,-845.22111)"
     style="stroke-width:0.16327"
     id="g2500">
    <path
       d="m 427.48,854.76 c -0.14739,-0.38411 0.25633,-1.4884 0.98045,-2.6817 0.89526,-1.4754 1.0854,-1.8435 1.0866,-2.103 0,-0.12396 0.24462,-0.56478 0.54237,-0.97959 0.29774,-0.41481 0.75232,-1.2923 1.0102,-1.9501 0.44894,-1.1452 1.0065,-1.8245 1.4975,-1.8245 0.1262,0 0.45201,0.16452 0.72398,0.3656 0.39856,0.29467 0.78206,0.38178 1.9767,0.44898 1.3716,0.0772 1.5065,0.11601 1.808,0.52093 l 0.32571,0.43753 -0.44431,1.7405 c -0.4928,1.9304 -0.50909,3.392 -0.051,4.567 0.26963,0.69148 0.148,1.2255 -0.27914,1.2255 -0.34352,0 -1.3748,-1.29 -1.5577,-1.9485 -0.25339,-0.91213 -0.19908,-1.4074 0.32627,-2.9755 0.26939,-0.80407 0.4898,-1.6033 0.4898,-1.7761 0,-0.32604 -0.13045,-0.37656 -1.4694,-0.56891 -0.40408,-0.0581 -0.97234,-0.144 -1.2628,-0.19098 -0.46568,-0.0753 -0.5622,-0.023 -0.81633,0.44253 -0.15851,0.29037 -0.44875,0.72567 -0.64496,0.96732 -0.19619,0.24165 -0.40988,0.65108 -0.47481,0.90983 -0.0649,0.25874 -0.37147,0.80241 -0.68119,1.2082 -0.30971,0.40575 -0.62078,0.88939 -0.69125,1.0748 -0.30445,0.80078 -0.92148,2.0107 -1.3531,2.6533 -0.48273,0.71867 -0.87099,0.8815 -1.0416,0.43683 z"
       id="are_abv" />
  </g>
</svg>
