<svg xmlns="http://www.w3.org/2000/svg" height="9.871" width="39.511"><path d="M10.523 9.658c-1.649-.484-2.075-.948-2.279-2.476-.1-.76.096-2.36.433-3.525.171-.588.157-.719-.118-1.09-.389-.526-.907-.775-1.586-.763-.47.008-.602.133-1.296 1.228-.426.67-.823 1.42-.883 1.665-.06.245-.153.482-.206.527-.119.1-.695.915-1.498 2.119-.603.904-1.554 1.88-2.18 2.234C.518 9.8 0 9.59 0 9.207c0-.269 1.189-1.793 1.691-2.167.284-.211 2.064-2.843 2.064-3.05 0-.052.207-.402.46-.777s.594-1.05.759-1.499C5.364.652 5.827 0 6.193 0c.16 0 .779.22 1.373.49S8.765.98 8.91.98c.145 0 .484.156.753.348.489.348.49.352.432 1.755-.038.93-.156 1.6-.35 1.977-.318.624-.267 1.39.165 2.478.178.45.398.664.881.857 1.074.43 1.897.307 3.902-.586.225-.1.629-.27.898-.379.577-.232 2.453-1.108 3.548-1.656.425-.212.855-.386.956-.386.101 0 1.304-.551 2.674-1.224 1.37-.674 2.633-1.224 2.807-1.224.174 0 .387-.07.472-.156.328-.328 2.4-.987 3.106-.987.406 0 .95-.11 1.208-.243.283-.146 1.105-.27 2.074-.312 2.314-.102 3.515.2 4.749 1.195.38.307.693.655.693.775s.096.218.214.218.344.239.501.53c.158.292.428.788.602 1.102.457.83.415 1.56-.11 1.904-.413.27-.435.267-.727-.118-.165-.219-.344-.568-.396-.776-.128-.507-1.346-2.163-1.988-2.703-.972-.817-1.562-.959-3.471-.832-.95.063-2.425.29-3.278.505-1.915.483-4.892 1.504-5.233 1.795-.14.119-.58.331-.977.472-.398.14-1.24.532-1.87.871-.63.339-1.695.83-2.37 1.09-.673.26-1.481.673-1.795.915-.315.242-.976.552-1.47.687-.493.135-1.31.396-1.814.58-1.35.49-2.055.537-3.173.209z" stroke-width=".163"/></svg>