<svg xmlns="http://www.w3.org/2000/svg" height="9.87" width="39.51"><path d="M10.522 9.66c-1.649-.484-2.075-.948-2.279-2.476-.1-.76.096-2.361.433-3.526.171-.588.157-.719-.118-1.09-.389-.526-.907-.775-1.586-.763-.47.008-.602.133-1.296 1.227-.425.67-.822 1.42-.882 1.665-.06.245-.153.483-.207.527-.119.1-.695.915-1.498 2.12-.603.904-1.554 1.88-2.178 2.233C.517 9.8 0 9.59 0 9.207c0-.269 1.19-1.793 1.691-2.167.284-.211 2.064-2.842 2.064-3.05 0-.052.207-.402.46-.777a8.42 8.42 0 00.759-1.499C5.364.652 5.827 0 6.193 0c.16 0 .778.22 1.373.49.594.27 1.199.49 1.344.49.145 0 .484.156.754.348.488.348.489.352.431 1.755-.038.93-.156 1.6-.35 1.978-.318.624-.267 1.389.165 2.477.178.45.398.664.881.857 1.075.43 1.898.307 3.903-.586.224-.1.628-.27.898-.379.577-.232 2.452-1.108 3.548-1.656.425-.212.855-.386.956-.386.1 0 1.304-.551 2.674-1.225 1.37-.673 2.633-1.224 2.807-1.224.174 0 .387-.07.472-.156.328-.328 2.401-.987 3.105-.987.407 0 .95-.11 1.208-.242.283-.147 1.105-.27 2.074-.313 2.313-.102 3.514.2 4.749 1.195.38.306.692.655.692.775s.097.218.215.218.343.238.5.53c.158.292.429.788.602 1.102.458.83.416 1.56-.11 1.904-.412.27-.434.267-.726-.119-.166-.218-.344-.567-.397-.775-.128-.507-1.346-2.163-1.988-2.703-.971-.817-1.561-.959-3.47-.832-.95.063-2.426.29-3.279.505-1.915.483-4.892 1.504-5.232 1.795-.14.12-.58.332-.978.472-.398.14-1.239.533-1.869.871-.63.34-1.696.83-2.37 1.09-.673.261-1.481.673-1.796.916-.314.242-.975.551-1.469.686a28.39 28.39 0 00-1.815.58c-1.349.491-2.055.538-3.173.21z"/></svg>