<?xml version="1.0" encoding="UTF-8" standalone="no"?>
<svg
   xmlns:dc="http://purl.org/dc/elements/1.1/"
   xmlns:cc="http://creativecommons.org/ns#"
   xmlns:rdf="http://www.w3.org/1999/02/22-rdf-syntax-ns#"
   xmlns:svg="http://www.w3.org/2000/svg"
   xmlns="http://www.w3.org/2000/svg"
   id="svg2502"
   viewBox="0 0 39.510299 9.8704481"
   version="1.1"
   height="9.8704481"
   width="39.5103">
  <defs
     id="defs2506" />
  <metadata
     id="metadata2">
    <rdf:RDF>
      <cc:Work
         rdf:about="">
        <dc:format>image/svg+xml</dc:format>
        <dc:type
           rdf:resource="http://purl.org/dc/dcmitype/StillImage" />
        <dc:title />
      </cc:Work>
    </rdf:RDF>
  </metadata>
  <g
     transform="translate(-641.958,-100.40987)"
     style="stroke-width:0.16327"
     id="g2500">
    <path
       d="m 652.48,110.07 c -1.6488,-0.48418 -2.0754,-0.94782 -2.2786,-2.4764 -0.10104,-0.76025 0.0956,-2.361 0.43305,-3.5255 0.17055,-0.58843 0.15633,-0.71882 -0.11892,-1.0909 -0.38839,-0.52497 -0.90619,-0.77404 -1.5856,-0.76267 -0.46945,0.008 -0.60197,0.13339 -1.2961,1.2277 -0.42526,0.67042 -0.82229,1.4195 -0.88227,1.6647 -0.06,0.24518 -0.15288,0.48252 -0.2064,0.52741 -0.11884,0.0997 -0.69523,0.91503 -1.4978,2.1187 -0.60308,0.9045 -1.5544,1.88 -2.1786,2.234 -0.39364,0.22325 -0.91076,0.0132 -0.91076,-0.36996 0,-0.26875 1.1894,-1.7929 1.691,-2.167 0.2835,-0.21141 2.064,-2.8426 2.064,-3.0501 0,-0.052 0.20686,-0.40164 0.45969,-0.77701 0.25283,-0.37536 0.59438,-1.0498 0.75897,-1.4988 0.38942,-1.0622 0.85305,-1.7143 1.2189,-1.7143 0.16106,0 0.77892,0.22041 1.373,0.4898 0.59413,0.26939 1.1991,0.4898 1.3443,0.4898 0.14524,0 0.48441,0.15688 0.7537,0.34862 0.48839,0.34777 0.48945,0.35209 0.43166,1.7551 -0.0383,0.93046 -0.15662,1.5997 -0.34951,1.9773 -0.31874,0.62406 -0.26811,1.3893 0.16392,2.4777 0.1786,0.44991 0.3987,0.66388 0.88172,0.85715 1.0743,0.42985 1.8972,0.30625 3.9024,-0.58616 0.22449,-0.0999 0.62857,-0.27047 0.89796,-0.37903 0.57714,-0.23256 2.4525,-1.1079 3.548,-1.656 0.42488,-0.21259 0.8551,-0.38653 0.95605,-0.38653 0.10096,0 1.3044,-0.55102 2.6743,-1.2245 1.3699,-0.67347 2.6332,-1.2245 2.8072,-1.2245 0.17403,0 0.3863,-0.0699 0.47171,-0.15529 0.32847,-0.32847 2.4011,-0.98757 3.1055,-0.98757 0.40648,0 0.94996,-0.10905 1.2077,-0.24235 0.28284,-0.14626 1.1049,-0.27029 2.0735,-0.31283 2.3137,-0.10162 3.5145,0.20048 4.7489,1.1948 0.38099,0.30687 0.6927,0.65585 0.6927,0.77551 0,0.11967 0.0966,0.21758 0.21466,0.21758 0.11806,0 0.3435,0.23877 0.50098,0.53061 0.15747,0.29183 0.4281,0.78775 0.60141,1.102 0.45774,0.83012 0.41564,1.5596 -0.10993,1.9039 -0.41269,0.27041 -0.43461,0.26682 -0.72648,-0.11868 -0.16552,-0.21863 -0.34397,-0.56752 -0.39653,-0.77531 -0.12824,-0.50692 -1.3465,-2.1633 -1.9879,-2.7028 -0.9719,-0.81753 -1.5618,-0.95905 -3.471,-0.8327 -0.95001,0.0629 -2.4252,0.29029 -3.2783,0.50537 -1.9147,0.48272 -4.8919,1.5043 -5.2326,1.7954 -0.13917,0.11891 -0.57886,0.33117 -0.97713,0.47168 -0.39825,0.14052 -1.2395,0.5326 -1.8694,0.87129 -0.62995,0.3387 -1.6964,0.82928 -2.3698,1.0902 -0.6734,0.26092 -1.4816,0.67266 -1.7959,0.91502 -0.31429,0.24235 -0.97551,0.55147 -1.4694,0.68692 -0.49387,0.13545 -1.3106,0.39641 -1.8148,0.57991 -1.3487,0.49076 -2.0547,0.53718 -3.1734,0.20866 z"
       id="arent_abv" />
  </g>
</svg>
