<svg xmlns="http://www.w3.org/2000/svg" height="25.924" width="50.927"><path d="M.023 6.352c-.109-.344.168-.901.789-1.585.429-.472.76-1.424.762-2.195.002-.51-.099-.686-.65-1.13C.238.893.057.274.529.093 1.513-.286 2.48.52 2.965 2.118l.309 1.02-.726 1.381C1.59 6.34.314 7.267.023 6.352zm33.353 10.953c-.224-.176-.741-.395-1.149-.487-.83-.186-3.475-1.38-3.915-1.767-.342-.3-.353-.507-.047-.91.222-.294.26-.292 1.26.054.567.196 1.105.413 1.195.481.09.069.788.323 1.55.564 1.458.462 2.659 1.162 2.743 1.598.068.355-.4.788-.854.788-.206 0-.558-.144-.783-.32zm-11.947-6.03c.418-.19.813-.54 1.053-.936.211-.347.424-.668.474-.713.05-.045.18-.228.29-.408 1.444-2.35 1.613-2.965.996-3.622-.853-.908-3.871 0-4.591 1.381-.128.245-.463.875-.745 1.4-.6 1.12-.644 1.75-.166 2.42.593.833 1.537 1 2.69.478zm-.559 12.644c.238-.221.484-.644.545-.94.062-.295.204-.684.315-.863.244-.391.908-2.477.908-2.849 0-.144.1-.407.224-.584.123-.177.27-.763.326-1.302a55.49 55.49 0 01.202-1.673c.139-.974-.325-.962-.76.019-.173.392-.432.81-.575.929-.143.119-.468.629-.723 1.133-.255.505-.58 1.014-.721 1.132-.142.118-.259.3-.259.405 0 .104-.15.481-.334.837-.357.693-.613 2.96-.42 3.728.14.557.688.569 1.272.027zm-1.78 1.836c-.218-.106-.489-.511-.674-1.01-.71-1.906-.606-2.87.555-5.208.4-.806.728-1.56.728-1.675 0-.115.337-.601.747-1.08.411-.479.843-1.096.96-1.372.116-.276.429-.754.694-1.061 1.23-1.427 2.334-3.09 2.334-3.517 0-.441-.472-.215-1.387.663-1.22 1.173-2.166 1.633-3.061 1.49-.993-.158-1.682-.538-2.197-1.21-.434-.568-.456-.679-.431-2.19.027-1.732-.118-1.963-.77-1.224-.178.202-.707.793-1.176 1.314-.469.52-.93 1.091-1.025 1.269-.095.177-.635.541-1.2.808-1.632.772-2.868.613-3.365-.435-.369-.777-.488-2.048-.253-2.697.304-.841.661-2.24.661-2.59 0-.194-.142-.349-.367-.4-.202-.046-.735-.16-1.184-.254-.449-.094-.93-.205-1.07-.247-.25-.075-.964.887-2.006 2.7-.232.405-.755 1.082-1.163 1.505-.407.423-.74.846-.74.94 0 .093-.61.794-1.357 1.557C.808 13.4.271 13.616.271 12.66c0-.422.122-.66.502-.98.276-.232.563-.422.636-.422.074 0 .617-.643 1.206-1.429.59-.786 1.33-1.769 1.646-2.184.315-.416.906-1.424 1.313-2.241.956-1.92 1.268-2.113 2.536-1.566a4.77 4.77 0 001.824.393c1.172.008 1.733.22 1.843.694.048.205-.106 1.035-.343 1.843-.493 1.687-.663 3.322-.395 3.822.137.257.34.341.824.341.532 0 .79-.13 1.505-.762.474-.42.912-.879.974-1.02.166-.385 2.517-2.79 2.727-2.79.1 0 .456-.246.793-.547.984-.88 1.82-1.32 3.404-1.788 2.338-.693 3.08-.568 4.028.673.884 1.16.982 1.527.765 2.875-.203 1.267-.165 2.243.09 2.326.09.03.568-.277 1.06-.681.493-.404.946-.735 1.006-.735.06 0 .281-.144.491-.32l1.165-.977c.43-.362 1.539-1.027 2.462-1.477 1.362-.663 1.832-.815 2.482-.802 1.177.024 1.581.182 1.946.76.438.694 1.353.743 1.991.105.423-.423 2.239-1.044 3.053-1.044.547 0 2.03.795 2.141 1.149.051.16.203.382.337.493.27.225.145.268 2.403-.825 1.71-.829 2.532-.842 3.19-.052.744.894.886 1.48.97 3.996l.08 2.394-.42.42c-.782.782-.88.523-.96-2.521-.068-2.63-.09-2.784-.457-3.175-.684-.728-1.862-.41-3.552.958-1.138.92-1.447 1.444-1.625 2.756-.054.395-.231.73-.497.94-.938.737-1.105.32-.867-2.165.1-1.037.117-2.05.04-2.327-.127-.46-.19-.493-1.041-.538-1.076-.058-2.402.455-3.16 1.223-.266.269-.924 1.363-1.463 2.432-.99 1.965-1.279 2.256-1.864 1.878-.195-.127-.174-.318.136-1.236.43-1.273.613-3.237.36-3.882-.167-.43-.223-.449-1.31-.449-1.18 0-1.307.06-2.546 1.198-.18.165-.533.407-.785.54a4.51 4.51 0 00-.734.483c-.153.134-.655.516-1.117.848-.461.333-1.206.943-1.654 1.355-.448.413-.93.795-1.07.849-.624.24-1.065 1.577-1.408 4.272-.167 1.31-.53 2.808-.796 3.278-.1.176-.26.733-.356 1.237-.097.505-.281 1.056-.409 1.225-.128.169-.236.49-.24.715-.003.225-.193.813-.423 1.306-.87 1.877-2.41 2.834-3.618 2.251z"/></svg>