<?xml version="1.0" encoding="UTF-8" standalone="no"?>
<svg
   xmlns:dc="http://purl.org/dc/elements/1.1/"
   xmlns:cc="http://creativecommons.org/ns#"
   xmlns:rdf="http://www.w3.org/1999/02/22-rdf-syntax-ns#"
   xmlns:svg="http://www.w3.org/2000/svg"
   xmlns="http://www.w3.org/2000/svg"
   id="svg2502"
   viewBox="0 0 50.92668 25.924339"
   version="1.1"
   height="25.924339"
   width="50.926682">
  <defs
     id="defs2506" />
  <metadata
     id="metadata2">
    <rdf:RDF>
      <cc:Work
         rdf:about="">
        <dc:format>image/svg+xml</dc:format>
        <dc:type
           rdf:resource="http://purl.org/dc/dcmitype/StillImage" />
        <dc:title />
      </cc:Work>
    </rdf:RDF>
  </metadata>
  <g
     transform="translate(-642.99674,-120.8277)"
     style="stroke-width:0.16327"
     id="g2500">
    <path
       d="m 643.02,127.18 c -0.10921,-0.34405 0.16818,-0.9017 0.78848,-1.5851 0.42888,-0.47253 0.75947,-1.4241 0.76261,-2.1951 0.002,-0.51037 -0.0993,-0.68631 -0.6506,-1.1294 -0.68589,-0.55119 -0.86666,-1.1696 -0.39481,-1.3506 0.98427,-0.3777 1.9524,0.42749 2.4365,2.0263 l 0.30858,1.0192 -0.72617,1.3817 c -0.95658,1.8201 -2.2343,2.7478 -2.5246,1.8331 z m 33.353,10.953 c -0.22433,-0.17647 -0.74151,-0.39561 -1.1492,-0.48699 -0.83001,-0.186 -3.4749,-1.3796 -3.9155,-1.7671 -0.34163,-0.3004 -0.35218,-0.50734 -0.0464,-0.91094 0.22191,-0.29291 0.26043,-0.29124 1.2601,0.0547 0.56715,0.19628 1.1047,0.41285 1.1945,0.48127 0.0898,0.0684 0.78776,0.32228 1.551,0.56414 1.4577,0.4619 2.658,1.1613 2.742,1.5977 0.0684,0.35527 -0.40062,0.788 -0.85413,0.788 -0.20596,0 -0.55802,-0.14438 -0.78236,-0.32084 z m -11.947,-6.0308 c 0.41824,-0.18995 0.81242,-0.54016 1.0526,-0.93519 0.21117,-0.34734 0.42458,-0.66826 0.47421,-0.71316 0.0496,-0.0449 0.18052,-0.22857 0.29084,-0.40816 1.443,-2.3492 1.6124,-2.9654 0.99544,-3.6221 -0.8532,-0.90819 -3.8717,-1.7e-4 -4.5917,1.3813 -0.12756,0.24472 -0.46265,0.87485 -0.74464,1.4003 -0.60079,1.1195 -0.64395,1.7487 -0.16601,2.4199 0.59321,0.83307 1.5369,1.0005 2.6893,0.47715 z m -0.559,12.644 c 0.23805,-0.22074 0.48329,-0.64319 0.54496,-0.93877 0.0617,-0.29558 0.20351,-0.68436 0.31518,-0.86395 0.24312,-0.39098 0.90776,-2.4764 0.90776,-2.8483 0,-0.14449 0.10064,-0.40763 0.22362,-0.58475 0.12301,-0.17713 0.26975,-0.76286 0.32611,-1.3016 0.0564,-0.53877 0.1471,-1.2918 0.20168,-1.6735 0.1392,-0.97349 -0.32477,-0.96172 -0.75869,0.0192 -0.17351,0.39222 -0.43251,0.81027 -0.57558,0.92901 -0.14305,0.11873 -0.46854,0.62875 -0.72326,1.1334 -0.25473,0.50462 -0.57935,1.0139 -0.72138,1.1318 -0.14202,0.11786 -0.25822,0.29997 -0.25822,0.40469 0,0.10471 -0.15028,0.48143 -0.33397,0.83715 -0.35796,0.69321 -0.61349,2.9592 -0.42043,3.7284 0.13981,0.55698 0.68822,0.5687 1.2722,0.0272 z m -1.7802,1.836 c -0.21801,-0.1052 -0.48901,-0.51083 -0.67438,-1.0094 -0.70875,-1.9062 -0.60585,-2.8709 0.55562,-5.2083 0.40048,-0.80595 0.72813,-1.5596 0.72813,-1.6748 0,-0.11518 0.33612,-0.60113 0.74691,-1.0799 0.41081,-0.47876 0.84243,-1.0962 0.95917,-1.3722 0.11675,-0.27591 0.4294,-0.75346 0.6948,-1.0612 1.23,-1.4263 2.3338,-3.0897 2.3338,-3.517 0,-0.44098 -0.47217,-0.21497 -1.3867,0.66375 -1.2202,1.1724 -2.1667,1.633 -3.0617,1.4899 -0.99317,-0.15882 -1.6822,-0.53868 -2.1965,-1.2109 -0.43395,-0.56723 -0.45582,-0.67815 -0.4316,-2.1893 0.0278,-1.7321 -0.11755,-1.9634 -0.76942,-1.2245 -0.17825,0.20205 -0.70757,0.79332 -1.1763,1.3139 -0.46872,0.52063 -0.92993,1.0918 -1.0249,1.2693 -0.095,0.1775 -0.63496,0.54133 -1.1999,0.80851 -1.6324,0.77203 -2.8681,0.61234 -3.365,-0.4349 -0.36881,-0.77721 -0.48813,-2.048 -0.25327,-2.6975 0.30413,-0.84106 0.66127,-2.2403 0.66127,-2.5908 0,-0.19356 -0.14195,-0.34772 -0.36734,-0.39896 -0.20204,-0.0459 -0.7347,-0.16022 -1.1837,-0.25399 -0.44898,-0.0938 -0.93064,-0.20497 -1.0704,-0.2471 -0.24926,-0.0752 -0.96343,0.88656 -2.0056,2.7008 -0.23213,0.40408 -0.7554,1.081 -1.1628,1.5043 -0.40743,0.42326 -0.74077,0.84604 -0.74077,0.93949 0,0.0935 -0.61027,0.79409 -1.3562,1.557 -1.535,1.57 -2.0724,1.7852 -2.0724,0.83012 0,-0.42145 0.12219,-0.65972 0.50232,-0.97959 0.27628,-0.23247 0.56256,-0.42268 0.6362,-0.42268 0.0736,0 0.61624,-0.64285 1.2058,-1.4286 0.58955,-0.78571 1.3301,-1.7685 1.6456,-2.184 0.31552,-0.41547 0.90639,-1.424 1.3131,-2.2411 0.95587,-1.9206 1.2679,-2.1133 2.5366,-1.566 0.58108,0.25066 1.2208,0.38844 1.8233,0.3927 1.172,0.008 1.7328,0.21959 1.8437,0.69466 0.0479,0.20521 -0.10648,1.0343 -0.34307,1.8425 -0.49379,1.6869 -0.66305,3.3227 -0.39551,3.8226 0.13737,0.25669 0.34054,0.34066 0.82418,0.34066 0.53217,0 0.78931,-0.13028 1.5045,-0.76226 0.47443,-0.41925 0.91282,-0.87843 0.97419,-1.0204 0.16612,-0.3843 2.5173,-2.7888 2.727,-2.7888 0.0995,0 0.45664,-0.24657 0.79363,-0.54793 0.98371,-0.87971 1.8203,-1.3192 3.4038,-1.788 2.3382,-0.6922 3.0806,-0.56801 4.0275,0.6737 0.88412,1.1593 0.9819,1.5265 0.76575,2.8752 -0.20301,1.2668 -0.16529,2.2422 0.0899,2.3257 0.0902,0.0295 0.56728,-0.27707 1.0601,-0.68131 0.49278,-0.40423 0.94536,-0.73497 1.0057,-0.73497 0.0603,0 0.28128,-0.14374 0.49094,-0.31943 0.20969,-0.17568 0.73375,-0.6157 1.1646,-0.9778 0.43085,-0.36211 1.5391,-1.0265 2.4627,-1.4765 1.3615,-0.6633 1.8312,-0.81503 2.4819,-0.80184 1.1764,0.0238 1.5808,0.18177 1.9455,0.75978 0.4381,0.69431 1.3535,0.74243 1.9913,0.10467 0.42304,-0.42304 2.2388,-1.044 3.0528,-1.044 0.54715,0 2.0292,0.79521 2.1415,1.149 0.0508,0.15998 0.20219,0.38205 0.33646,0.49349 0.27036,0.22438 0.14467,0.26757 2.4028,-0.82569 1.7108,-0.82825 2.5326,-0.84152 3.1901,-0.0515 0.74431,0.89431 0.88642,1.4793 0.97071,3.9959 l 0.0802,2.3939 -0.42081,0.42082 c -0.78164,0.78163 -0.88018,0.52257 -0.9594,-2.5222 -0.0684,-2.6303 -0.0905,-2.7838 -0.45726,-3.1741 -0.68398,-0.72807 -1.8627,-0.41052 -3.5524,0.9571 -1.1382,0.92121 -1.4468,1.4446 -1.6251,2.7569 -0.0537,0.39507 -0.23067,0.72982 -0.49631,0.93878 -0.93857,0.73827 -1.1058,0.32104 -0.86754,-2.1646 0.0994,-1.0368 0.11706,-2.0505 0.0406,-2.3269 -0.12736,-0.46047 -0.18973,-0.49269 -1.0416,-0.53812 -1.0757,-0.0574 -2.4014,0.45587 -3.1603,1.2235 -0.26557,0.26862 -0.92367,1.3631 -1.4624,2.4321 -0.99043,1.9652 -1.2792,2.2562 -1.8637,1.8776 -0.19527,-0.12649 -0.17424,-0.31781 0.13582,-1.2357 0.43011,-1.2733 0.61242,-3.237 0.36041,-3.8818 -0.16803,-0.42988 -0.22376,-0.44898 -1.3099,-0.44898 -1.1807,0 -1.308,0.0598 -2.5472,1.1974 -0.17959,0.16485 -0.53247,0.40761 -0.78419,0.53946 -0.25171,0.13185 -0.58232,0.34945 -0.7347,0.48356 -0.15236,0.13411 -0.65467,0.51592 -1.1163,0.84846 -0.46158,0.33255 -1.2059,0.9424 -1.6541,1.3552 -0.44816,0.41283 -0.92948,0.7946 -1.0696,0.84837 -0.62467,0.23971 -1.0659,1.5775 -1.409,4.2718 -0.16692,1.3109 -0.53036,2.8084 -0.79578,3.2789 -0.0992,0.17586 -0.25953,0.73253 -0.35628,1.237 -0.0968,0.50452 -0.28061,1.0555 -0.40852,1.2245 -0.12792,0.16895 -0.23565,0.49086 -0.23938,0.71535 -0.004,0.22449 -0.19421,0.81224 -0.42327,1.3061 -0.87017,1.8762 -2.4099,2.8341 -3.6183,2.251 z"
       id="argument" />
  </g>
</svg>
