<?xml version="1.0" encoding="UTF-8" standalone="no"?>
<svg
   xmlns:dc="http://purl.org/dc/elements/1.1/"
   xmlns:cc="http://creativecommons.org/ns#"
   xmlns:rdf="http://www.w3.org/1999/02/22-rdf-syntax-ns#"
   xmlns:svg="http://www.w3.org/2000/svg"
   xmlns="http://www.w3.org/2000/svg"
   id="svg2502"
   viewBox="0 0 38.328357 13.845826"
   version="1.1"
   height="13.845826"
   width="38.328358">
  <defs
     id="defs2506" />
  <metadata
     id="metadata2">
    <rdf:RDF>
      <cc:Work
         rdf:about="">
        <dc:format>image/svg+xml</dc:format>
        <dc:type
           rdf:resource="http://purl.org/dc/dcmitype/StillImage" />
        <dc:title />
      </cc:Work>
    </rdf:RDF>
  </metadata>
  <g
     transform="translate(-643.4301,-145.33384)"
     style="stroke-width:0.16327"
     id="g2500">
    <path
       d="m 643.63,153.03 c -0.33473,-0.13507 -0.23182,-0.97633 0.17995,-1.4712 0.53959,-0.64845 1.0854,-2.2117 1.0854,-3.1088 0,-0.60785 -0.12044,-0.9323 -0.60984,-1.6429 l -0.60985,-0.88546 0.38304,-0.31016 c 0.5463,-0.44236 0.68576,-0.40043 1.4962,0.44994 0.69853,0.73295 0.72644,0.80147 0.78095,1.9184 0.0443,0.90744 -0.0326,1.4301 -0.35535,2.4135 -0.22654,0.69037 -0.54501,1.3997 -0.7077,1.5763 -0.16271,0.17659 -0.42782,0.51175 -0.58916,0.74479 -0.27866,0.40253 -0.59977,0.49871 -1.0536,0.31559 z m 0.65437,5.9628 c -0.13972,-0.13973 -0.0354,-0.40401 0.41633,-1.055 0.33152,-0.47774 0.6927,-0.87139 0.80264,-0.8748 0.10995,-0.003 0.32053,-0.23947 0.46797,-0.52458 0.14743,-0.28512 0.61899,-1.0014 1.0479,-1.5918 0.42892,-0.5904 1.0128,-1.5143 1.2976,-2.053 0.55931,-1.0583 1.1304,-1.9432 1.5661,-2.4268 0.29068,-0.32261 0.39326,-0.32126 3.0124,0.0397 1.3699,0.1888 1.5071,0.2532 1.8795,0.88204 0.26467,0.44696 0.31218,0.86307 0.31788,2.7844 l 0.007,2.2589 0.48127,0.41406 0.48126,0.41406 5.233,-0.11299 c 2.8782,-0.0621 6.0779,-0.21572 7.1106,-0.34128 1.0327,-0.12556 3.18,-0.30877 4.772,-0.40714 1.592,-0.0984 3.1343,-0.24764 3.4275,-0.33172 0.29317,-0.0841 1.498,-0.15287 2.6774,-0.15287 2.3194,0 2.7144,0.13099 2.3647,0.78432 -0.22849,0.42694 -0.83087,0.5218 -3.3136,0.5218 -1.162,0 -2.2518,0.0744 -2.4216,0.16528 -0.28575,0.15293 -1.3938,0.2582 -6.8534,0.65114 -1.1224,0.0808 -2.702,0.21715 -3.5102,0.30302 -3.6242,0.38513 -6.783,0.55235 -8.2906,0.4389 -1.4139,-0.1064 -1.685,-0.17913 -2.3674,-0.63517 -1.0739,-0.71769 -1.6056,-1.8214 -1.3557,-2.814 0.20883,-0.8293 0.23052,-2.6699 0.0351,-2.9781 -0.2569,-0.40516 -2.588,-0.70514 -3.0607,-0.39386 -0.10018,0.066 -0.33699,0.42542 -0.52624,0.79877 -0.18925,0.37335 -0.40853,0.70396 -0.48731,0.73469 -0.0788,0.0307 -0.3858,0.4967 -0.6823,1.0355 -0.6889,1.2518 -2.0069,3.0463 -2.9004,3.9491 -0.70047,0.70774 -1.2603,0.88567 -1.6284,0.51753 z"
       id="arm" />
  </g>
</svg>
