<svg xmlns="http://www.w3.org/2000/svg" height="13.846" width="38.328"><path d="M.2 7.696c-.335-.135-.232-.976.18-1.471.54-.648 1.085-2.212 1.085-3.109 0-.608-.12-.932-.61-1.643L.245.588.63.278c.546-.443.685-.4 1.496.45.698.733.726.801.78 1.918.045.907-.032 1.43-.355 2.413-.226.69-.545 1.4-.707 1.577a8.325 8.325 0 00-.59.745c-.278.402-.6.498-1.053.315zm.654 5.963c-.14-.14-.035-.404.417-1.055.331-.478.692-.871.802-.875.11-.003.32-.24.468-.524.148-.286.62-1.002 1.048-1.592A20.86 20.86 0 004.887 7.56c.559-1.059 1.13-1.943 1.566-2.427.29-.323.393-.321 3.012.04 1.37.188 1.507.253 1.88.882.264.447.312.863.318 2.784l.007 2.259.48.414.482.414 5.233-.113c2.878-.062 6.078-.216 7.11-.341 1.033-.126 3.18-.309 4.773-.407 1.592-.099 3.134-.248 3.427-.332.293-.084 1.498-.153 2.678-.153 2.319 0 2.714.131 2.364.784-.228.427-.83.522-3.313.522-1.162 0-2.252.075-2.422.166-.286.152-1.394.258-6.853.65a128.08 128.08 0 00-3.51.304c-3.625.385-6.783.552-8.291.439-1.414-.107-1.685-.18-2.367-.636-1.074-.717-1.606-1.821-1.356-2.814.209-.829.23-2.67.035-2.978-.257-.405-2.588-.705-3.06-.394-.101.066-.338.426-.527.8-.19.373-.409.703-.487.734-.08.03-.386.497-.683 1.035-.689 1.252-2.007 3.047-2.9 3.95-.7.707-1.26.885-1.628.517z"/></svg>