<svg xmlns="http://www.w3.org/2000/svg" height="13.282" width="42.717"><path d="M.014 7.118c-.08-.21.185-.858.876-2.138.161-.3.29-1.03.333-1.884.065-1.324.046-1.421-.37-1.916C.275.494.401 0 1.153 0c.696 0 1.324.656 1.593 1.663.547 2.055-.942 5.65-2.353 5.678-.16.003-.33-.097-.38-.223zm41.399-1.223c.258-.782.174-1.23-.24-1.284-.437-.056-.901.896-1.016 2.08l-.087.9.57-.54c.313-.297.661-.817.773-1.156zm-40.46 7.29c-.373-.375-.168-.785.956-1.908.628-.629 1.142-1.18 1.142-1.225 0-.046.35-.608.776-1.25.94-1.415.82-1.199 1.692-3.088.394-.853.826-1.645.96-1.76.176-.151.5-.177 1.144-.092.494.066 1.559.127 2.367.137 1.9.022 1.783-.018 2.119.728.256.568.269.792.106 1.884-.275 1.85-.24 2.803.116 3.159.382.381 2.112.727 3.011.601.63-.088 2.053-.185 8.444-.58a220.55 220.55 0 014.735-.226c2.526-.09 6.03-.333 7.265-.505.36-.05.971-.13 1.36-.18.64-.08.737-.152 1.017-.77.17-.374.311-.896.313-1.159.003-.414.343-1.242 1.426-3.473.28-.577.87-.799 1.663-.624.787.172 1.061.63 1.133 1.888.055.986.01 1.217-.363 1.854-.235.4-.426.837-.426.972 0 .316-.785 1.248-1.05 1.248-.412 0-1.073.738-1.073 1.197 0 .584.375 1.302.893 1.71.226.177.43.496.453.708.1.925-2.05.316-2.541-.72-.151-.317-.274-.676-.274-.798 0-.504-.532-.58-3.102-.443-1.392.075-4.074.216-5.96.314a212.18 212.18 0 00-6.159.417c-1.501.132-4.6.256-6.885.275l-4.155.034-.517-.49c-.946-.896-1.035-1.232-.917-3.453.067-1.246.047-2.031-.053-2.093-.088-.054-.695-.105-1.349-.113-2.102-.025-2.009-.056-2.4.802-.422.925-1.236 2.28-1.642 2.735-.161.18-.421.584-.578.898-.383.766-1.884 2.612-2.123 2.612-.105 0-.33.154-.5.342-.458.505-.805.653-1.023.434z" stroke-width=".163"/></svg>