<?xml version="1.0" encoding="UTF-8" standalone="no"?>
<svg
   xmlns:dc="http://purl.org/dc/elements/1.1/"
   xmlns:cc="http://creativecommons.org/ns#"
   xmlns:rdf="http://www.w3.org/1999/02/22-rdf-syntax-ns#"
   xmlns:svg="http://www.w3.org/2000/svg"
   xmlns="http://www.w3.org/2000/svg"
   id="svg2502"
   viewBox="0 0 42.717208 13.282178"
   version="1.1"
   height="13.282178"
   width="42.717209">
  <defs
     id="defs2506" />
  <metadata
     id="metadata2">
    <rdf:RDF>
      <cc:Work
         rdf:about="">
        <dc:format>image/svg+xml</dc:format>
        <dc:type
           rdf:resource="http://purl.org/dc/dcmitype/StillImage" />
        <dc:title />
      </cc:Work>
    </rdf:RDF>
  </metadata>
  <g
     transform="translate(-643.64607,-169.472)"
     style="stroke-width:0.16327"
     id="g2500">
    <path
       d="m 643.66,176.59 c -0.0805,-0.20975 0.1849,-0.85775 0.87574,-2.1384 0.16178,-0.2999 0.29091,-1.0304 0.33306,-1.884 0.0653,-1.3232 0.0465,-1.4208 -0.36963,-1.9154 -0.57765,-0.68649 -0.4519,-1.1802 0.30062,-1.1802 0.69518,0 1.3235,0.65626 1.5918,1.6626 0.54797,2.055 -0.94184,5.6505 -2.353,5.6786 -0.15995,0.003 -0.33036,-0.0972 -0.37869,-0.22317 z m 41.399,-1.2232 c 0.25786,-0.78131 0.17362,-1.2302 -0.24086,-1.2834 -0.43582,-0.0559 -0.90035,0.89571 -1.0147,2.0788 l -0.0871,0.90173 0.5697,-0.54046 c 0.31332,-0.29726 0.66118,-0.81772 0.77301,-1.1566 z m -40.459,7.2894 c -0.37398,-0.37398 -0.16856,-0.78451 0.95458,-1.9076 0.62857,-0.62857 1.1428,-1.1798 1.1428,-1.225 0,-0.0452 0.34898,-0.60762 0.77551,-1.2498 0.93979,-1.415 0.82106,-1.1984 1.6926,-3.0874 0.39357,-0.85306 0.82578,-1.6456 0.96047,-1.7611 0.17551,-0.15054 0.49935,-0.17637 1.1429,-0.0911 0.49388,0.0654 1.5592,0.12684 2.3674,0.13644 1.9003,0.0226 1.7824,-0.0179 2.1187,0.72794 0.25623,0.56821 0.26889,0.792 0.10644,1.8842 -0.2752,1.8503 -0.24031,2.8028 0.11574,3.1588 0.3815,0.3815 2.1122,0.72735 3.0112,0.60173 0.62938,-0.088 2.0531,-0.18578 8.4438,-0.58012 1.2122,-0.0748 3.3428,-0.17642 4.7347,-0.22582 2.5264,-0.0897 6.0301,-0.33331 7.2653,-0.50516 0.35918,-0.05 0.97131,-0.13068 1.3603,-0.17933 0.64054,-0.0801 0.73644,-0.15277 1.0168,-0.77032 0.17027,-0.37504 0.3112,-0.8968 0.31316,-1.1595 0.003,-0.41413 0.34306,-1.2425 1.4253,-3.4732 0.27978,-0.57672 0.87051,-0.79842 1.6634,-0.62428 0.7872,0.1729 1.0614,0.63014 1.1325,1.8887 0.0557,0.98567 0.0104,1.2172 -0.36268,1.8538 -0.23448,0.40011 -0.42633,0.83734 -0.42633,0.97159 0,0.31642 -0.78422,1.2488 -1.0504,1.2488 -0.41111,0 -1.0721,0.73799 -1.0721,1.197 0,0.58377 0.37512,1.3014 0.89337,1.709 0.22555,0.17742 0.42906,0.49616 0.45224,0.70829 0.10105,0.92483 -2.0498,0.31626 -2.541,-0.71897 -0.15068,-0.31752 -0.27396,-0.67711 -0.27396,-0.79909 0,-0.50396 -0.53184,-0.5798 -3.102,-0.44236 -1.3918,0.0744 -4.0735,0.21546 -5.9592,0.3134 -1.8857,0.0979 -4.6573,0.28588 -6.1591,0.41763 -1.5018,0.13178 -4.6001,0.2552 -6.8852,0.27429 l -4.1547,0.0347 -0.51713,-0.48979 c -0.94682,-0.89679 -1.0358,-1.2321 -0.91706,-3.454 0.0666,-1.2451 0.0465,-2.0308 -0.0534,-2.0926 -0.088,-0.0544 -0.69502,-0.1052 -1.3489,-0.1129 -2.1021,-0.0247 -2.009,-0.0559 -2.4002,0.80228 -0.42132,0.92438 -1.2353,2.2799 -1.6421,2.7347 -0.16065,0.17959 -0.42065,0.58367 -0.57778,0.89796 -0.38282,0.76578 -1.8835,2.6122 -2.1231,2.6122 -0.10509,0 -0.33022,0.15375 -0.50027,0.34165 -0.45726,0.50526 -0.80425,0.65267 -1.0225,0.43439 z"
       id="army" />
  </g>
</svg>
