<svg xmlns="http://www.w3.org/2000/svg" height="13.785" width="49.305"><path d="M.086 7.378C-.157 7.085.13 6.326.76 5.603c.471-.542.724-1.229.88-2.384.084-.628.023-.887-.395-1.67C.639.415.627.161 1.171.024c.566-.142 1.186.323 1.67 1.252.572 1.098.451 2.469-.358 4.072C1.77 6.76 1.384 7.226.739 7.451c-.35.122-.506.104-.653-.073zm23.604 4.57c.928-.708 1.254-1.439 1.346-3.022.114-1.944-.343-3.25-1.135-3.25-.476 0-1.454.555-2.2 1.248-.926.863-1.523 2.108-1.523 3.176 0 .777.055.898.713 1.556.64.64.792.713 1.48.713.573 0 .907-.106 1.32-.42zM1.678 13.65c-.152-.085-.276-.253-.276-.374 0-.258 1.751-2.54 1.949-2.54.074 0 .23-.238.347-.53.117-.292.401-.763.632-1.048.64-.79 1.317-1.943 1.317-2.245 0-.15.137-.544.304-.877.168-.333.432-1.01.588-1.504.352-1.116.765-1.508 1.457-1.385.28.05 1.42.194 2.534.321 1.255.144 2.08.312 2.166.444.077.117.085.69.019 1.273-.2 1.755-.113 4.263.172 4.943.215.515.33.609.755.609.406 0 .816-.29 2.142-1.51 1.606-1.479 2.73-2.464 3.985-3.494 1.213-.995 3-1.805 4.246-1.924.628-.06 1.471-.22 1.873-.356a20.867 20.867 0 011.878-.492l2.698-.575c1.083-.23 2.608-.372 5.06-.467 1.931-.076 4.034-.185 4.674-.243 1.848-.169 3.693.168 4.96.904 1.713.996 2.783 2.14 3.58 3.83.832 1.766.73 3.617-.191 3.479-.359-.054-.77-1.103-.775-1.977-.006-1.146-1.742-3.32-3.296-4.128-.543-.282-1.676-.653-2.39-.782-.729-.132-9.598.34-10.315.548a5.04 5.04 0 01-1.171.166c-.572 0-2.891.484-4.006.835-.288.09-.566.3-.618.463-.052.165.098.803.333 1.419.522 1.37.48 2.397-.167 4.005-.706 1.758-1.267 2.515-2.219 2.997-.81.41-.885.42-1.987.234-.937-.158-1.261-.299-1.79-.776-.975-.881-1.274-1.597-1.274-3.048 0-1.04-.043-1.231-.272-1.231-.305 0-.415.087-1.688 1.323-1.162 1.13-2.688 2.224-3.285 2.355-.778.17-1.574-.447-2.116-1.642-.573-1.263-.695-2.226-.507-3.995.083-.777.086-1.467.007-1.568-.193-.248-2.178-.415-2.676-.226-.237.09-.512.408-.664.77-.143.338-.4.91-.571 1.269-.171.359-.311.71-.31.782 0 .07-.257.51-.572.977-.314.467-.572.96-.573 1.096 0 .136-.403.688-.894 1.226-.49.54-.894 1.056-.896 1.15-.005.215-1.306 1.468-1.647 1.586-.14.048-.378.018-.53-.067z"/></svg>