<?xml version="1.0" encoding="UTF-8" standalone="no"?>
<svg
   xmlns:dc="http://purl.org/dc/elements/1.1/"
   xmlns:cc="http://creativecommons.org/ns#"
   xmlns:rdf="http://www.w3.org/1999/02/22-rdf-syntax-ns#"
   xmlns:svg="http://www.w3.org/2000/svg"
   xmlns="http://www.w3.org/2000/svg"
   id="svg2502"
   viewBox="0 0 49.304564 13.785215"
   version="1.1"
   height="13.785215"
   width="49.304565">
  <defs
     id="defs2506" />
  <metadata
     id="metadata2">
    <rdf:RDF>
      <cc:Work
         rdf:about="">
        <dc:format>image/svg+xml</dc:format>
        <dc:type
           rdf:resource="http://purl.org/dc/dcmitype/StillImage" />
        <dc:title />
      </cc:Work>
    </rdf:RDF>
  </metadata>
  <g
     transform="translate(-642.84381,-194.00168)"
     style="stroke-width:0.16327"
     id="g2500">
    <path
       d="m 642.93,201.38 c -0.24346,-0.29337 0.0439,-1.0519 0.67257,-1.7752 0.47124,-0.54218 0.72467,-1.2288 0.88018,-2.3844 0.0845,-0.62784 0.0233,-0.88662 -0.39494,-1.6704 -0.60452,-1.1328 -0.6166,-1.3866 -0.0725,-1.5232 0.56555,-0.14194 1.1857,0.3232 1.6695,1.2522 0.57171,1.0978 0.45113,2.4686 -0.35814,4.0721 -0.71161,1.4099 -1.0989,1.8766 -1.7438,2.1014 -0.3499,0.12198 -0.5059,0.10467 -0.65292,-0.0725 z m 23.604,4.5699 c 0.92809,-0.7079 1.2536,-1.4389 1.346,-3.0226 0.11332,-1.9434 -0.34312,-3.2503 -1.1352,-3.2503 -0.47592,0 -1.4544,0.55571 -2.1991,1.249 -0.92653,0.86249 -1.5242,2.1076 -1.5242,3.1752 0,0.77795 0.0552,0.89847 0.71321,1.5565 0.63971,0.63971 0.79228,0.71321 1.4803,0.71321 0.57291,0 0.90679,-0.10656 1.3191,-0.42103 z m -22.012,1.702 c -0.15173,-0.0849 -0.27586,-0.25342 -0.27586,-0.37448 0,-0.25752 1.7511,-2.5392 1.9487,-2.5392 0.0738,0 0.22985,-0.23878 0.34685,-0.53062 0.11698,-0.29183 0.4014,-0.76323 0.63204,-1.0476 0.64102,-0.79018 1.3173,-1.943 1.3173,-2.2454 0,-0.14906 0.13687,-0.54361 0.30415,-0.87677 0.16728,-0.33316 0.43164,-1.0098 0.58744,-1.5037 0.35208,-1.116 0.76475,-1.5084 1.457,-1.3858 0.27967,0.0495 1.4202,0.19425 2.5346,0.32155 1.255,0.14338 2.0792,0.31228 2.1657,0.44379 0.0768,0.11677 0.0853,0.68986 0.0189,1.2735 -0.19969,1.7541 -0.11258,4.2627 0.17164,4.9429 0.21511,0.51486 0.33102,0.60815 0.75554,0.60815 0.40539,0 0.81567,-0.28929 2.1418,-1.5102 1.6056,-1.4782 2.7293,-2.4632 3.9847,-3.493 1.2129,-0.99486 3.0009,-1.8052 4.2459,-1.9242 0.62857,-0.0601 1.4717,-0.22055 1.8736,-0.35662 0.40193,-0.13608 1.2468,-0.35721 1.8776,-0.49141 0.63073,-0.13422 1.8447,-0.39283 2.6978,-0.57471 1.0836,-0.23102 2.6089,-0.37202 5.0612,-0.4678 1.9306,-0.0754 4.0335,-0.18477 4.673,-0.24301 1.8482,-0.16831 3.6936,0.16805 4.9596,0.90395 1.7137,0.99618 2.7841,2.1414 3.5802,3.8304 0.83254,1.7664 0.73091,3.6168 -0.19107,3.4787 -0.35851,-0.0537 -0.76966,-1.1031 -0.7744,-1.9766 -0.006,-1.1465 -1.7424,-3.3209 -3.2959,-4.1278 -0.54327,-0.2822 -1.6763,-0.65314 -2.3895,-0.78227 -0.72932,-0.13206 -9.5988,0.33912 -10.316,0.54803 -0.3137,0.0914 -0.84054,0.16613 -1.1708,0.16613 -0.57195,0 -2.8914,0.48339 -4.0062,0.8349 -0.28754,0.0907 -0.56545,0.29922 -0.61758,0.46343 -0.0521,0.16421 0.0976,0.80253 0.33258,1.4185 0.52272,1.3698 0.47997,2.3972 -0.16662,4.0054 -0.70658,1.7574 -1.2674,2.5147 -2.2191,2.997 -0.81004,0.41048 -0.88537,0.41933 -1.9866,0.2336 -0.93713,-0.15808 -1.2616,-0.29875 -1.79,-0.77614 -0.97541,-0.88122 -1.2748,-1.597 -1.2748,-3.0478 0,-1.0399 -0.0422,-1.231 -0.27202,-1.231 -0.30416,0 -0.41451,0.0866 -1.6872,1.3233 -1.1623,1.1296 -2.6887,2.2235 -3.2853,2.3545 -0.77856,0.17099 -1.5745,-0.44639 -2.1165,-1.6417 -0.57273,-1.2632 -0.69481,-2.226 -0.50651,-3.9953 0.0827,-0.77699 0.0858,-1.4672 0.007,-1.5683 -0.19277,-0.24757 -2.1776,-0.41495 -2.6756,-0.22563 -0.23747,0.0903 -0.51206,0.40826 -0.66478,0.76978 -0.14309,0.33877 -0.40005,0.90983 -0.57101,1.269 -0.17095,0.35918 -0.31063,0.71107 -0.31038,0.78196 0,0.0709 -0.25669,0.51071 -0.57097,0.9774 -0.31429,0.4667 -0.57208,0.95971 -0.57287,1.0956 0,0.13589 -0.40315,0.68789 -0.89412,1.2267 -0.49097,0.53878 -0.8944,1.0561 -0.89652,1.1497 -0.005,0.21515 -1.3061,1.4684 -1.6464,1.5857 -0.14012,0.0483 -0.37889,0.0183 -0.53062,-0.0666 z"
       id="around" />
  </g>
</svg>
