<svg xmlns="http://www.w3.org/2000/svg" height="32.301" width="63.648"><path d="M22.237 4.403c-.17-.442.1-1.068.531-1.231.467-.178.64-.113.875.325.121.226.078.405-.174.725-.37.472-1.08.576-1.232.18zM.26 11.003c-.43-.252-.354-.486.438-1.337 1.372-1.472 1.74-3.416.821-4.334-.288-.288-.402-.58-.402-1.033 0-.58.036-.63.45-.625.876.01 1.862 1.281 1.966 2.533.101 1.222-.595 2.915-1.679 4.079-.844.907-1.083 1.014-1.594.716zm16.741 19.114c.077-.314.24-.938.363-1.387.539-1.967.743-3.837.42-3.837-.33 0-.667.21-.667.416 0 .12-.343.89-.763 1.71-1.185 2.319-1.181 3.836.009 3.719.42-.041.52-.14.638-.62zm-1.286 2.128c-.277-.064-.59-.17-.696-.235-.399-.246-.84-1.4-.84-2.196 0-.844.547-2.878.82-3.046.088-.054.159-.224.159-.377s.146-.535.325-.848c.18-.313.547-.973.818-1.467.646-1.179.747-1.332 1.755-2.684.471-.633.857-1.255.857-1.383 0-.128.096-.35.213-.491.117-.142.38-.993.585-1.89.205-.899.44-1.859.522-2.135.21-.706.187-1.539-.044-1.539-.106 0-.53.284-.942.63-1.116.942-2.43 1.735-3.408 2.057-.744.245-.975.258-1.589.086-.395-.111-.802-.303-.905-.426-.102-.124-.28-.225-.394-.225-.426 0-1.192-1.117-1.398-2.037-.177-.788-.164-1.112.089-2.337.444-2.153.465-2.4.224-2.597-.279-.227-1.969-.707-2.871-.815-.676-.081-.694-.071-.694.39 0 .276-.27.891-.648 1.471a24.086 24.086 0 00-1.01 1.706c-.2.39-.642 1.03-.983 1.423-.34.393-.891 1.128-1.223 1.633-1.143 1.739-2.473 2.521-2.758 1.623-.09-.286.02-.473.563-.939.372-.32.675-.662.674-.76-.002-.098.144-.355.324-.571 1.003-1.207 1.338-1.651 2.1-2.79.461-.688.838-1.292.838-1.341 0-.05.184-.491.409-.982.224-.49.408-.953.408-1.027 0-.222.849-1.755 1.043-1.884.35-.231.734-.12 1.438.417.674.515 1.59.765 3.549.968.286.03.434.178.53.531.157.571.016 1.782-.274 2.367-.29.584-.558 2.284-.45 2.859.17.919 1.371 2.036 2.191 2.038.545.002 1.782-.52 2.077-.874.122-.147.306-.267.41-.267.244 0 1.404-.957 1.404-1.159 0-.085.354-.612.787-1.171 1.182-1.528 1.676-2.488 1.826-3.553.133-.938.56-1.775.91-1.786.096-.003.349.18.56.405.374.398.377.424.114.977-.15.313-.385 1.25-.524 2.08a72.699 72.699 0 01-.506 2.691c-.44 2.048-.047 2.034 1.744-.06a78.943 78.943 0 012.218-2.49c.48-.502.871-.968.871-1.036 0-.068.095-.123.21-.123.115 0 .34-.22.499-.489.34-.577 2.328-1.73 3.252-1.885.502-.085.738-.03 1.187.277.64.436.893 1.016.893 2.04 0 .885.19.904 1.214.122 1.151-.88 2.614-1.413 3.516-1.282.935.135 1.8.978 1.803 1.76.005.956.218 1.038.948.363.984-.91 2.326-1.722 2.848-1.722.551 0 1.228.326 1.655.798.408.452.542 2.428.268 3.962-.331 1.853.032 2.438 1.3 2.097.358-.097.652-.23.652-.298 0-.067.235-.26.523-.43.287-.17.874-.645 1.304-1.056 1.506-1.438 1.827-1.73 2.406-2.183.9-.706 2.302-1.95 2.686-2.383.49-.554.974-1.038 2.725-2.726 1.802-1.737 2.601-2.595 2.601-2.794 0-.185 1.269-1.355 1.47-1.355.083 0 .236-.157.339-.35C61.807.41 63.648-.503 63.648.313c0 .318-.986 1.675-1.306 1.798-.135.051-.46.385-.724.742-.264.357-.597.687-.74.732-.144.046-.382.287-.529.536-.28.474-2.139 2.365-2.418 2.459-.088.03-.16.155-.16.278 0 .122-.127.294-.282.38-.266.15-2.687 2.39-4.83 4.471-.53.516-1.052.939-1.159.939-.106 0-.94.722-1.855 1.604-2.504 2.416-3.998 3.002-5.267 2.066-.307-.226-.624-.53-.705-.675-.2-.358-.16-2.48.074-3.936.26-1.613.07-2.082-.785-1.943-.33.054-.816.308-1.096.573-.277.261-.67.56-.871.664-.202.104-.368.278-.368.387 0 .11-.225.456-.5.77-.532.61-1.382 2.117-1.786 3.172-.28.731-.916 1.03-1.415.665-.274-.2-.275-.255-.018-1.004l.69-2.011c.458-1.339.58-3.37.221-3.728-.574-.575-2.158.035-3.416 1.316-.914.93-2.429 3.628-2.429 4.325 0 .2-.202.583-.449.854-.348.382-.536.469-.836.387-.36-.099-.381-.167-.3-.94a8.97 8.97 0 01.36-1.626c.646-1.89.916-4.864.489-5.408-.252-.322-.264-.32-1.162.15-.5.262-1.103.667-1.342.9-.238.234-.787.712-1.22 1.062-.433.351-.927.912-1.098 1.248-.171.335-.95 1.259-1.73 2.052-1.394 1.418-2.186 2.517-2.394 3.322-.058.224-.283.61-.5.86a3.82 3.82 0 00-.589.98c-.107.29-.263.655-.346.812-.083.158-.23.855-.327 1.55-.097.694-.266 1.484-.376 1.754-.218.538-.36 1.176-1.082 4.859-.366 1.864-.707 3.163-.94 3.57-.432.759-1.488 1.18-2.417.966z" stroke-width=".163"/></svg>