<?xml version="1.0" encoding="UTF-8" standalone="no"?>
<svg
   xmlns:dc="http://purl.org/dc/elements/1.1/"
   xmlns:cc="http://creativecommons.org/ns#"
   xmlns:rdf="http://www.w3.org/1999/02/22-rdf-syntax-ns#"
   xmlns:svg="http://www.w3.org/2000/svg"
   xmlns="http://www.w3.org/2000/svg"
   id="svg2502"
   viewBox="0 0 20.846628 28.269159"
   version="1.1"
   height="28.269159"
   width="20.846628">
  <defs
     id="defs2506" />
  <metadata
     id="metadata2">
    <rdf:RDF>
      <cc:Work
         rdf:about="">
        <dc:format>image/svg+xml</dc:format>
        <dc:type
           rdf:resource="http://purl.org/dc/dcmitype/StillImage" />
        <dc:title />
      </cc:Work>
    </rdf:RDF>
  </metadata>
  <g
     transform="translate(-643.97273,-216.82567)"
     style="stroke-width:0.16327"
     id="g2500">
    <path
       d="m 663.28,218.36 c -0.5919,-0.59192 -0.14805,-1.5232 0.7312,-1.5342 0.53236,-0.007 0.80816,0.27269 0.80816,0.81848 0,0.81517 -0.9829,1.2722 -1.5394,0.71569 z m -19.299,8.0121 c -0.0516,-0.13447 0.14375,-0.61468 0.43412,-1.0672 0.46523,-0.72498 0.53765,-0.9932 0.60976,-2.258 0.065,-1.1395 0.0245,-1.5562 -0.19667,-2.0221 -0.21706,-0.45745 -0.23844,-0.66171 -0.0969,-0.92615 0.21703,-0.40555 0.46189,-0.42704 0.95226,-0.0836 0.97434,0.68245 1.2995,2.6458 0.73484,4.4371 -0.41828,1.3269 -2.1435,2.6858 -2.4374,1.9199 z m 16.693,18.436 c -0.17731,-0.46202 -0.10053,-1.7385 0.2447,-4.0683 0.37917,-2.5589 0.74684,-5.1834 0.94921,-6.7755 0.0742,-0.58368 0.17653,-1.2449 0.22744,-1.4694 0.0509,-0.22449 0.13677,-0.97755 0.19081,-1.6735 0.0951,-1.2238 0.0865,-1.2653 -0.26015,-1.2653 -0.20547,0 -0.60899,0.26849 -0.94558,0.62916 -0.32294,0.34604 -0.95313,0.83163 -1.4004,1.0791 -0.4473,0.24743 -0.98986,0.5888 -1.2057,0.75858 -0.78997,0.6214 -2.225,0.35182 -3.1897,-0.59922 -1.0178,-1.0034 -1.1719,-1.7579 -0.91838,-4.497 0.14223,-1.5368 0.14705,-2.1784 0.0175,-2.3346 -0.18129,-0.21845 -2.8601,-0.4598 -3.4349,-0.30949 -0.19662,0.0514 -0.35187,0.36711 -0.49218,1.0008 -0.34594,1.5624 -0.49363,1.9416 -1.008,2.588 -0.27282,0.34288 -0.69801,1.03 -0.94485,1.527 -0.24686,0.497 -0.69918,1.2394 -1.0052,1.6498 -0.30599,0.4104 -0.63451,0.88015 -0.73004,1.0439 -0.20111,0.34468 -0.67303,0.23645 -0.83747,-0.19208 -0.0986,-0.25685 0.45244,-1.4955 1.1153,-2.5072 1.1513,-1.7572 1.447,-2.2775 1.4479,-2.5475 0,-0.17031 0.14704,-0.53004 0.32545,-0.79943 0.17842,-0.26939 0.32487,-0.57537 0.32545,-0.67994 0,-0.10457 0.23,-0.78961 0.5098,-1.5223 0.63104,-1.6525 0.87961,-1.8097 2.1269,-1.3454 0.48103,0.17907 1.4256,0.37906 2.0991,0.44441 2.2849,0.22173 2.6934,0.6719 2.1762,2.3982 -0.34807,1.1618 -0.45589,3.2804 -0.21136,4.1537 0.25515,0.91131 0.68,1.284 1.4411,1.264 0.54988,-0.0144 0.98985,-0.20052 2.3791,-1.0063 0.55709,-0.32314 1.2228,-1.0135 1.2303,-1.2757 0.003,-0.0999 0.22556,-0.45897 0.49495,-0.79796 0.26939,-0.33899 0.4898,-0.69915 0.4898,-0.80037 0,-0.10123 0.15198,-0.46761 0.33773,-0.81419 0.18574,-0.34657 0.4414,-1.2271 0.56813,-1.9568 0.18295,-1.0534 0.31699,-1.4023 0.65095,-1.694 0.52635,-0.45973 0.82808,-0.46675 0.94439,-0.022 0.15367,0.58763 -0.4884,7.7488 -0.96445,10.757 -0.13502,0.85306 -0.35239,2.6163 -0.48306,3.9184 -0.13066,1.302 -0.38445,3.0939 -0.564,3.9819 -0.17954,0.88801 -0.32671,1.9166 -0.32703,2.2857 -0.002,1.1765 -1.0505,2.3059 -1.3697,1.4741 z"
       id="arrange" />
  </g>
</svg>
