<?xml version="1.0" encoding="UTF-8" standalone="no"?>
<svg
   xmlns:dc="http://purl.org/dc/elements/1.1/"
   xmlns:cc="http://creativecommons.org/ns#"
   xmlns:rdf="http://www.w3.org/1999/02/22-rdf-syntax-ns#"
   xmlns:svg="http://www.w3.org/2000/svg"
   xmlns="http://www.w3.org/2000/svg"
   id="svg2502"
   viewBox="0 0 45.162993 27.918509"
   version="1.1"
   height="27.918509"
   width="45.162994">
  <defs
     id="defs2506" />
  <metadata
     id="metadata2">
    <rdf:RDF>
      <cc:Work
         rdf:about="">
        <dc:format>image/svg+xml</dc:format>
        <dc:type
           rdf:resource="http://purl.org/dc/dcmitype/StillImage" />
        <dc:title />
      </cc:Work>
    </rdf:RDF>
  </metadata>
  <g
     transform="translate(-643.43817,-265.78014)"
     style="stroke-width:0.16327"
     id="g2500">
    <path
       d="m 663.76,267.65 c -0.57403,-0.57404 0.16361,-1.5063 0.95941,-1.2125 0.44601,0.16462 0.51868,0.57636 0.19022,1.0776 -0.30251,0.46168 -0.76818,0.51633 -1.1496,0.13489 z m -20.221,4.5646 c -0.2276,-0.22759 -0.0865,-0.55898 0.594,-1.395 0.38658,-0.47492 0.82848,-1.248 0.98201,-1.7179 0.26857,-0.82204 0.26689,-0.88923 -0.0446,-1.7755 -0.52199,-1.4852 0.084,-2.0308 1.1735,-1.0566 0.51044,0.45644 0.53316,0.52786 0.53226,1.6735 -0.002,1.0912 -0.28734,2.2579 -0.55443,2.2579 -0.0592,0 -0.39719,0.39973 -0.75115,0.88828 -0.74686,1.0308 -1.5552,1.5017 -1.9316,1.1253 z m 16.043,19.354 c 0.4776,-0.64598 1.0908,-3.5874 1.2482,-5.9872 l 0.11469,-1.7487 -0.33404,0.29738 c -0.44664,0.39765 -1.507,2.5953 -1.507,3.1233 0,0.23124 -0.0645,0.54801 -0.14333,0.70395 -0.74036,1.4643 -0.92768,3.2417 -0.4028,3.8217 0.37878,0.41853 0.59161,0.37481 1.0243,-0.21041 z m -1.4152,1.7959 c -0.50573,-0.23251 -0.7161,-0.43765 -0.78118,-0.76176 -0.049,-0.24395 -0.16289,-0.67728 -0.25314,-0.96293 -0.34008,-1.0763 0.18619,-3.5471 1.3152,-6.1745 0.19291,-0.44898 0.40873,-0.96327 0.47959,-1.1429 0.43801,-1.1102 0.8673,-1.91 1.2829,-2.39 0.90571,-1.0462 1.3157,-1.9631 1.5593,-3.4875 0.12918,-0.80816 0.20242,-1.5245 0.16276,-1.5918 -0.12398,-0.21057 -0.87513,-0.13355 -0.96432,0.0989 -0.1219,0.31764 -2.008,1.6423 -2.664,1.871 -0.30516,0.10638 -1.003,0.19097 -1.5509,0.18798 -1.1905,-0.007 -1.4762,-0.20153 -2.2163,-1.5129 -0.47706,-0.84529 -0.51486,-1.0169 -0.44683,-2.0291 0.0409,-0.60811 0.16996,-1.6861 0.28684,-2.3954 0.2088,-1.2672 0.20603,-1.295 -0.15862,-1.5903 -0.82271,-0.66618 -2.7877,-0.94104 -2.7877,-0.38994 0,0.11262 -0.22208,0.48418 -0.49349,0.82572 -0.27141,0.34153 -0.53293,0.81082 -0.58116,1.0428 -0.0482,0.23205 -0.1561,0.5321 -0.23974,0.6668 -0.0837,0.13469 -0.34573,0.61224 -0.58241,1.0612 -0.23667,0.44898 -0.52879,0.87373 -0.64913,0.94387 -0.12034,0.0702 -0.36,0.4375 -0.53256,0.81633 -0.6709,1.4729 -2.8146,3.2017 -3.1989,2.5798 -0.13452,-0.21763 0.44065,-1.196 0.9421,-1.6026 0.19563,-0.15861 0.55496,-0.58227 0.79852,-0.94145 0.24354,-0.35919 0.64762,-0.94722 0.89796,-1.3067 0.38091,-0.54708 1.2493,-2.2454 2.7947,-5.4655 0.37041,-0.77185 0.97841,-0.97716 1.6004,-0.54044 0.25749,0.18077 0.98245,0.41938 1.611,0.53024 1.4431,0.2545 2.1978,0.57412 2.2267,0.94307 0.0723,0.92256 -0.0911,2.7798 -0.28559,3.2452 -0.27384,0.65543 -0.29782,2.2342 -0.0414,2.7274 0.37752,0.72613 0.81143,0.99016 1.6075,0.97814 0.71039,-0.0108 1.6986,-0.36901 1.825,-0.6617 0.0305,-0.0708 0.39807,-0.40648 0.81669,-0.746 0.89438,-0.72541 1.7332,-2.3165 2.426,-4.6016 0.42338,-1.3964 0.46983,-1.4718 0.93522,-1.519 0.89193,-0.0904 1.0747,0.2961 0.94522,1.9984 -0.0619,0.81391 -0.252,2.2065 -0.42236,3.0946 -0.44384,2.3137 -0.30306,2.4088 1.1944,0.80718 1.8551,-1.9842 3.83,-3.9729 3.9453,-3.9729 0.0625,0 0.29715,-0.21804 0.52138,-0.48452 0.54898,-0.65242 2.2207,-1.4342 3.3444,-1.564 1.1277,-0.13029 1.8848,0.19231 2.0368,0.86785 0.30334,1.348 0.42661,1.6705 0.63843,1.6705 0.12743,0 0.62052,-0.39483 1.0958,-0.87737 1.1226,-1.14 1.7645,-1.457 2.9865,-1.4753 1.2337,-0.0185 1.7303,0.31668 2.2156,1.4955 0.19409,0.47142 0.40079,0.85714 0.4593,0.85714 0.23261,0 1.3274,-0.84209 1.4901,-1.1462 0.47572,-0.88888 2.8037,-1.4483 3.6686,-0.88162 0.61207,0.40105 1.3113,3.0109 1.1505,4.2944 -0.0407,0.3248 -0.15923,1.3037 -0.26343,2.1752 -0.20483,1.7134 -0.45556,2.1603 -1.1563,2.0611 -0.32413,-0.0459 -0.38922,-0.1633 -0.4373,-0.78864 -0.0311,-0.40408 0.0294,-1.7091 0.13443,-2.9 0.21404,-2.4275 0.0989,-3.1339 -0.55964,-3.4339 -0.54797,-0.24968 -1.3434,0.0678 -1.9614,0.78292 -0.27164,0.31429 -0.76193,0.82857 -1.0895,1.1429 -0.79107,0.75889 -1.1176,1.4503 -1.1335,2.4 -0.0205,1.2291 -0.47074,2.3797 -1.0041,2.5661 -0.24519,0.0857 -0.50233,0.0993 -0.57143,0.0302 -0.0691,-0.0691 -0.12563,-1.6683 -0.12563,-3.5537 0,-3.238 -0.0181,-3.4415 -0.32653,-3.6715 -0.38779,-0.28909 -1.2932,-0.19304 -1.7066,0.18106 -0.15308,0.13853 -0.39736,0.25187 -0.54286,0.25187 -0.2461,0 -1.0975,0.9415 -1.0975,1.2136 0,0.0669 -0.3135,0.4273 -0.69667,0.80092 -0.56811,0.55394 -0.84268,1.056 -1.4878,2.7201 -0.43512,1.1224 -0.87468,2.0948 -0.9768,2.1608 -0.30437,0.19662 -0.71701,0.14173 -0.9905,-0.13175 -0.27508,-0.27509 -0.22974,-0.75252 0.1539,-1.6208 0.28201,-0.6383 0.89525,-3.8909 0.89556,-4.7502 0,-0.91364 -0.39896,-1.2703 -1.2487,-1.1152 -0.34574,0.0631 -0.82365,0.25147 -1.062,0.41862 -0.23835,0.16715 -0.5128,0.30392 -0.60991,0.30392 -0.19176,0 -2.2406,2.0313 -3.9363,3.9026 -0.58368,0.64411 -1.3735,1.5026 -1.7551,1.9078 -0.38163,0.40518 -0.69387,0.83706 -0.69387,0.95972 0,0.12266 -0.0556,0.24751 -0.12366,0.27746 -0.2336,0.10279 -1.1243,1.3608 -1.3101,1.8503 -0.10222,0.26939 -0.29864,1.5551 -0.43652,2.8571 -0.4344,4.1026 -1.2297,7.6886 -1.9302,8.7029 -0.25855,0.37438 -1.4608,1.2938 -1.6249,1.2425 -0.0242,-0.008 -0.35552,-0.15693 -0.73619,-0.33193 z"
       id="arrangement" />
  </g>
</svg>
