<?xml version="1.0" encoding="UTF-8" standalone="no"?>
<svg
   xmlns:dc="http://purl.org/dc/elements/1.1/"
   xmlns:cc="http://creativecommons.org/ns#"
   xmlns:rdf="http://www.w3.org/1999/02/22-rdf-syntax-ns#"
   xmlns:svg="http://www.w3.org/2000/svg"
   xmlns="http://www.w3.org/2000/svg"
   id="svg2502"
   viewBox="0 0 63.647959 32.300552"
   version="1.1"
   height="32.300552"
   width="63.647961">
  <defs
     id="defs2506" />
  <metadata
     id="metadata2">
    <rdf:RDF>
      <cc:Work
         rdf:about="">
        <dc:format>image/svg+xml</dc:format>
        <dc:type
           rdf:resource="http://purl.org/dc/dcmitype/StillImage" />
        <dc:title />
      </cc:Work>
    </rdf:RDF>
  </metadata>
  <g
     transform="translate(-643.78271,-285.96714)"
     style="stroke-width:0.16327"
     id="g2500">
    <path
       d="m 666.02,290.37 c -0.16941,-0.44147 0.1005,-1.0675 0.53077,-1.2311 0.46679,-0.17747 0.64087,-0.11282 0.87523,0.32511 0.1209,0.22589 0.0779,0.40513 -0.17423,0.7256 -0.37076,0.47135 -1.0802,0.57522 -1.2318,0.18036 z m -21.977,6.5995 c -0.43105,-0.25107 -0.35422,-0.48551 0.43796,-1.3361 1.3714,-1.4726 1.7394,-3.4159 0.82082,-4.3345 -0.28807,-0.28805 -0.40164,-0.57998 -0.40164,-1.0324 0,-0.58061 0.0357,-0.63037 0.44898,-0.62536 0.87626,0.0106 1.8628,1.2814 1.9666,2.5331 0.10132,1.2218 -0.59546,2.9147 -1.6788,4.0788 -0.84373,0.90662 -1.083,1.0141 -1.5939,0.71653 z m 16.741,19.115 c 0.0766,-0.31429 0.23994,-0.93878 0.36292,-1.3878 0.53858,-1.9662 0.74306,-3.8367 0.4194,-3.8367 -0.32957,0 -0.66642,0.21015 -0.66642,0.41575 0,0.11966 -0.34346,0.88954 -0.76323,1.7108 -1.1851,2.3186 -1.1812,3.8359 0.009,3.7185 0.41914,-0.0413 0.52074,-0.14019 0.63785,-0.62058 z m -1.2861,2.1277 c -0.27723,-0.064 -0.59052,-0.16989 -0.69622,-0.23521 -0.39858,-0.24634 -0.84055,-1.4007 -0.84055,-2.1954 0,-0.84434 0.54788,-2.8782 0.82075,-3.0469 0.0874,-0.054 0.15884,-0.22354 0.15884,-0.37678 0,-0.15324 0.14634,-0.53463 0.32519,-0.84751 0.17886,-0.31288 0.54678,-0.97296 0.8176,-1.4668 0.64661,-1.1792 0.74712,-1.3329 1.7552,-2.6849 0.47143,-0.63224 0.85714,-1.2545 0.85714,-1.3828 0,-0.12826 0.0957,-0.34919 0.21257,-0.49095 0.11692,-0.14176 0.38041,-0.99244 0.58557,-1.8904 0.20516,-0.89796 0.44012,-1.8583 0.52212,-2.134 0.21024,-0.70686 0.18619,-1.5394 -0.0444,-1.5394 -0.10646,0 -0.53028,0.28392 -0.94181,0.63092 -1.1164,0.94136 -2.4307,1.7343 -3.4085,2.0562 -0.74416,0.24507 -0.97454,0.25747 -1.5887,0.0855 -0.3951,-0.11061 -0.80222,-0.30217 -0.90472,-0.42567 -0.1025,-0.12351 -0.27997,-0.22455 -0.39437,-0.22455 -0.42561,0 -1.1922,-1.117 -1.3981,-2.0373 -0.17642,-0.78833 -0.16414,-1.1117 0.0887,-2.3368 0.44437,-2.153 0.46581,-2.4009 0.22463,-2.5974 -0.27877,-0.22705 -1.9689,-0.70678 -2.8713,-0.81499 -0.67604,-0.0811 -0.69388,-0.071 -0.69388,0.39058 0,0.27574 -0.27078,0.89048 -0.64782,1.4707 -0.35631,0.54835 -0.81117,1.316 -1.0108,1.706 -0.19965,0.38991 -0.64169,1.0302 -0.98232,1.423 -0.34064,0.3927 -0.89104,1.1274 -1.2231,1.6327 -1.1429,1.739 -2.4727,2.5215 -2.7579,1.6229 -0.0908,-0.28614 0.0209,-0.47247 0.56295,-0.93878 0.37194,-0.31998 0.67512,-0.66197 0.67373,-0.76 -0.002,-0.098 0.14459,-0.35516 0.32441,-0.57142 1.0032,-1.2065 1.3377,-1.6509 2.0996,-2.7889 0.46132,-0.68905 0.83876,-1.293 0.83876,-1.3421 0,-0.0491 0.18367,-0.49083 0.40816,-0.98162 0.22449,-0.49077 0.40817,-0.95273 0.40817,-1.0266 0,-0.22236 0.84893,-1.7553 1.0435,-1.8842 0.34947,-0.23156 0.73386,-0.12005 1.4375,0.41703 0.67464,0.51497 1.59,0.76459 3.5489,0.96784 0.28667,0.0297 0.43442,0.17748 0.53104,0.531 0.15611,0.57122 0.0153,1.7817 -0.27518,2.3674 -0.28934,0.58313 -0.55729,2.2834 -0.45047,2.8585 0.1707,0.919 1.3723,2.0363 2.1921,2.0384 0.54525,0.002 1.782,-0.51948 2.0766,-0.87458 0.12198,-0.14695 0.30624,-0.2672 0.40947,-0.2672 0.24429,0 1.405,-0.95687 1.405,-1.1582 0,-0.0852 0.35414,-0.61249 0.78699,-1.1718 1.182,-1.5273 1.6754,-2.4871 1.8259,-3.5521 0.1326,-0.93817 0.55927,-1.7759 0.90967,-1.7862 0.0966,-0.003 0.3487,0.17912 0.56024,0.40429 0.37421,0.39832 0.37729,0.42483 0.11362,0.97773 -0.14905,0.31259 -0.3847,1.2488 -0.52368,2.0804 -0.13897,0.83164 -0.36669,2.0425 -0.50605,2.6907 -0.44015,2.0473 -0.0473,2.0337 1.7439,-0.0604 0.74124,-0.86658 1.7396,-1.9867 2.2186,-2.4892 0.47899,-0.50247 0.87087,-0.96897 0.87087,-1.0366 0,-0.0677 0.0944,-0.12307 0.2097,-0.12307 0.11533,0 0.33972,-0.22011 0.49863,-0.48914 0.34095,-0.57718 2.3283,-1.7292 3.2522,-1.8853 0.50173,-0.0848 0.73833,-0.0295 1.1876,0.27717 0.63877,0.43605 0.89262,1.0162 0.89262,2.04 0,0.88496 0.18924,0.90396 1.2135,0.12186 1.1514,-0.87917 2.614,-1.4124 3.5164,-1.2821 0.93495,0.13505 1.7994,0.97866 1.8032,1.7597 0.005,0.95627 0.21822,1.0382 0.94748,0.36347 0.98426,-0.91066 2.3264,-1.722 2.8485,-1.722 0.55108,0 1.2276,0.32649 1.6549,0.79868 0.40823,0.4511 0.54172,2.4278 0.26755,3.962 -0.33099,1.8521 0.0322,2.4377 1.3001,2.0963 0.3588,-0.0966 0.65237,-0.23047 0.65237,-0.29744 0,-0.067 0.23512,-0.26065 0.52247,-0.4304 0.28736,-0.16975 0.87438,-0.64478 1.3045,-1.0556 1.5058,-1.4383 1.8273,-1.7301 2.4061,-2.1836 0.90023,-0.70532 2.3022,-1.9491 2.6862,-2.3831 0.49019,-0.55404 0.97401,-1.038 2.7248,-2.7255 1.8021,-1.737 2.6009,-2.5952 2.6009,-2.7944 0,-0.18452 1.269,-1.3543 1.4692,-1.3543 0.0836,0 0.23634,-0.15759 0.33943,-0.35021 0.59507,-1.1119 2.4363,-2.0256 2.4363,-1.209 0,0.31804 -0.98585,1.6747 -1.3061,1.7974 -0.1347,0.0516 -0.46056,0.38583 -0.72415,0.74273 -0.26359,0.35691 -0.59667,0.6862 -0.74018,0.73175 -0.14353,0.0455 -0.38129,0.28653 -0.52838,0.53553 -0.27995,0.47393 -2.1392,2.3652 -2.4177,2.4593 -0.0886,0.0299 -0.16106,0.15486 -0.16106,0.2776 0,0.12276 -0.12684,0.29418 -0.28186,0.38092 -0.26572,0.14872 -2.6863,2.3899 -4.8286,4.4707 -0.53158,0.51633 -1.0534,0.93878 -1.1597,0.93878 -0.10623,0 -0.94104,0.72168 -1.8551,1.6037 -2.5037,2.416 -3.9984,3.0024 -5.267,2.0664 -0.30673,-0.22628 -0.62402,-0.52997 -0.70509,-0.67487 -0.20072,-0.35864 -0.16082,-2.481 0.074,-3.9365 0.26018,-1.6128 0.0709,-2.0812 -0.78496,-1.9423 -0.32963,0.0535 -0.8161,0.30743 -1.0962,0.57225 -0.27699,0.26186 -0.66894,0.56096 -0.87098,0.6647 -0.20204,0.10372 -0.36753,0.27784 -0.36773,0.38694 0,0.10908 -0.22519,0.45548 -0.49993,0.76976 -0.53269,0.60932 -1.3818,2.117 -1.7867,3.1723 -0.28031,0.73065 -0.91548,1.0291 -1.4142,0.66441 -0.27437,-0.2006 -0.27535,-0.25481 -0.0183,-1.004 0.14943,-0.43554 0.45969,-1.3403 0.68945,-2.0107 0.45892,-1.3388 0.5798,-3.3702 0.22185,-3.7282 -0.57471,-0.57471 -2.1583,0.0354 -3.4165,1.3162 -0.91397,0.93037 -2.4284,3.6278 -2.4284,4.3253 0,0.19881 -0.20204,0.58311 -0.44898,0.85398 -0.34812,0.38186 -0.53607,0.46867 -0.83666,0.38638 -0.35955,-0.0984 -0.3813,-0.16653 -0.29978,-0.9389 0.0483,-0.45803 0.21018,-1.1901 0.35964,-1.6268 0.64676,-1.89 0.91585,-4.864 0.48932,-5.4082 -0.25187,-0.32132 -0.26397,-0.31976 -1.1624,0.15066 -0.49937,0.26145 -1.1029,0.6664 -1.3413,0.8999 -0.23832,0.23351 -0.78749,0.71146 -1.2204,1.0621 -0.43287,0.35068 -0.92701,0.91192 -1.0981,1.2472 -0.17106,0.3353 -0.94949,1.2589 -1.7299,2.0525 -1.3943,1.4179 -2.1862,2.5166 -2.394,3.3215 -0.0578,0.2239 -0.28259,0.61118 -0.49954,0.8606 -0.21695,0.24942 -0.48212,0.69024 -0.58927,0.97959 -0.10715,0.28936 -0.26293,0.65491 -0.34617,0.81235 -0.0833,0.15743 -0.23042,0.85459 -0.32704,1.5492 -0.0966,0.69464 -0.26562,1.4842 -0.37554,1.7546 -0.21857,0.53753 -0.36089,1.1762 -1.0828,4.8589 -0.36537,1.864 -0.70702,3.1628 -0.93902,3.5697 -0.43269,0.75897 -1.4882,1.1808 -2.4174,0.96618 z"
       id="arrangements" />
  </g>
</svg>
