<svg xmlns="http://www.w3.org/2000/svg" height="26.578" width="25.097"><path d="M20.598 1.743c-.108-.108-.196-.466-.196-.796 0-.51.072-.63.474-.797.26-.108.646-.172.857-.143.315.045.392.166.435.683.034.423-.04.73-.23.939-.316.349-1.044.411-1.34.114zM.103 8.198c-.22-.22-.084-.64.387-1.192.266-.31.483-.7.483-.864 0-.164.12-.779.268-1.365.262-1.044.26-1.081-.093-1.789C.453 1.596 1.072.972 2.182 1.947l.587.516v1.524c0 .839-.065 1.565-.145 1.614-.08.05-.195.36-.257.69-.153.813-1.179 2.003-1.734 2.01-.232.003-.47-.044-.53-.103zM17.72 26.336c-.142-.142-.257-.307-.257-.368 0-.162.443-2.283.646-3.097.096-.385.192-1.597.213-2.693l.039-1.994-.844-.049c-1.143-.066-1.44-.412-.815-.95.279-.24.66-.389.99-.389.307 0 .643-.122.786-.286.266-.305.762-3.87.565-4.065-.17-.171-1.46.307-1.839.68-.187.186-.708.573-1.157.861-.755.485-.922.524-2.2.524-1.236 0-1.458-.048-2.11-.462-.401-.254-.93-.7-1.175-.992-.556-.66-.583-1.537-.12-3.77.374-1.798.42-2.923.123-3.006a83.123 83.123 0 01-.9-.267 6.207 6.207 0 00-1.376-.223c-.67-.014-.69.003-1.295 1.047-.339.584-.62 1.14-.624 1.237-.005.097-.35.795-.765 1.551-.415.756-.887 1.632-1.049 1.947-.162.314-.552.812-.867 1.105-.315.294-.702.827-.86 1.184-.261.593-.34.65-.908.65-.824 0-.807-.244.113-1.56.404-.578.735-1.114.735-1.191 0-.078.183-.338.408-.58.602-.65 2.64-4.514 3.024-5.73.492-1.564.483-1.552 1.119-1.551.325 0 1.033.182 1.572.404.6.248 1.306.405 1.824.408.717.003.897.07 1.184.434.422.536.461 2.07.084 3.258-.14.44-.322 1.343-.403 2.004-.202 1.646.005 2.128 1.081 2.512 1.683.602 3.048.197 4.755-1.411.667-.63 1.237-1.314 1.291-1.551.142-.625.482-1.602.944-2.712.224-.539.498-1.494.608-2.122.11-.629.28-1.197.375-1.263.338-.232 1.06-.129 1.222.175.181.338-.163 2.11-.867 4.463-.332 1.11-.458 2.01-.581 4.164-.087 1.51-.201 2.894-.254 3.073-.052.18 0 .452.116.605.193.252.383.262 2.04.102 1.945-.187 2.569-.125 2.72.271.301.783-.406 1.084-2.786 1.187-1.628.07-2.047.138-2.158.349-.075.144-.26 1.535-.41 3.09-.15 1.557-.335 2.99-.41 3.184a18.62 18.62 0 00-.347 1.059c-.115.387-.339.773-.496.857-.376.201-.404.197-.704-.103z" stroke-width=".163"/></svg>