<svg xmlns="http://www.w3.org/2000/svg" height="27.919" width="45.163"><path d="M20.322 1.87c-.574-.574.163-1.506.96-1.213.445.165.518.577.19 1.078-.303.462-.769.516-1.15.135zM.1 6.434c-.228-.227-.087-.559.594-1.395.386-.474.828-1.248.982-1.717.268-.822.267-.89-.045-1.776C1.11.061 1.716-.484 2.806.49c.51.457.533.528.532 1.674-.002 1.091-.287 2.258-.554 2.258-.06 0-.398.4-.752.888C1.286 6.34.477 6.811.101 6.434zm16.043 19.354c.477-.646 1.09-3.587 1.248-5.987l.115-1.748-.334.297c-.447.398-1.507 2.595-1.507 3.123 0 .231-.065.548-.144.704-.74 1.464-.927 3.242-.402 3.822.378.418.591.375 1.024-.21zm-1.415 1.796c-.506-.232-.716-.437-.782-.761a11.27 11.27 0 00-.253-.963c-.34-1.077.186-3.547 1.316-6.175.192-.449.408-.963.48-1.143.437-1.11.866-1.91 1.282-2.39.906-1.046 1.316-1.963 1.56-3.487.128-.808.202-1.525.162-1.592-.124-.21-.875-.134-.964.099-.122.318-2.008 1.642-2.664 1.87-.305.107-1.003.192-1.551.189-1.19-.007-1.476-.202-2.216-1.513-.478-.845-.515-1.017-.447-2.03.04-.607.17-1.685.287-2.395.208-1.267.206-1.295-.16-1.59-.822-.666-2.787-.94-2.787-.39 0 .113-.222.484-.493.826-.272.341-.533.81-.581 1.043a2.52 2.52 0 01-.24.667c-.084.134-.346.612-.583 1.06-.236.45-.528.874-.649.945-.12.07-.36.437-.532.816-.671 1.473-2.815 3.202-3.2 2.58-.134-.218.441-1.196.943-1.603.196-.158.555-.582.798-.941.244-.36.648-.948.898-1.307.381-.547 1.25-2.245 2.795-5.466.37-.771.979-.977 1.6-.54.258.18.983.42 1.612.53 1.443.255 2.197.574 2.226.943.073.923-.09 2.78-.285 3.246-.274.655-.298 2.234-.042 2.727.378.726.812.99 1.608.978.71-.01 1.698-.369 1.825-.662.03-.07.398-.406.816-.746.895-.725 1.734-2.316 2.426-4.601.424-1.397.47-1.472.936-1.52.892-.09 1.074.297.945 2a33.377 33.377 0 01-.423 3.094c-.443 2.313-.303 2.409 1.195.807 1.855-1.984 3.83-3.973 3.945-3.973.063 0 .297-.218.522-.484.549-.653 2.22-1.435 3.344-1.564 1.128-.13 1.885.192 2.037.867.303 1.348.426 1.67.638 1.67.128 0 .62-.394 1.096-.876 1.123-1.14 1.765-1.457 2.987-1.476 1.233-.018 1.73.317 2.215 1.496.194.471.4.857.46.857.232 0 1.327-.842 1.49-1.146.475-.89 2.803-1.449 3.668-.882.612.401 1.311 3.01 1.15 4.294-.04.325-.159 1.304-.263 2.176-.205 1.713-.455 2.16-1.156 2.06-.324-.045-.39-.163-.437-.788-.032-.404.029-1.709.134-2.9.214-2.427.099-3.134-.56-3.434-.548-.25-1.343.068-1.961.783-.272.314-.762.829-1.09 1.143-.79.759-1.117 1.45-1.133 2.4-.02 1.23-.47 2.38-1.004 2.566-.245.086-.502.1-.572.03-.069-.069-.125-1.668-.125-3.553 0-3.238-.018-3.442-.327-3.672-.388-.289-1.293-.193-1.706.181-.153.139-.398.252-.543.252-.246 0-1.098.942-1.098 1.214 0 .067-.313.427-.696.8-.568.555-.843 1.057-1.488 2.72-.435 1.123-.875 2.095-.977 2.161-.304.197-.717.142-.99-.131-.276-.275-.23-.753.153-1.621.282-.638.896-3.891.896-4.75 0-.914-.399-1.27-1.249-1.115-.345.063-.823.251-1.062.418-.238.167-.512.304-.61.304-.191 0-2.24 2.031-3.936 3.903-.584.644-1.373 1.502-1.755 1.907-.382.406-.694.838-.694.96 0 .123-.055.248-.124.278-.233.102-1.124 1.36-1.31 1.85-.102.27-.298 1.555-.436 2.857-.435 4.103-1.23 7.689-1.93 8.703-.259.374-1.461 1.294-1.625 1.242a32.917 32.917 0 01-.736-.331z" stroke-width=".163"/></svg>