<?xml version="1.0" encoding="UTF-8" standalone="no"?>
<svg
   xmlns:dc="http://purl.org/dc/elements/1.1/"
   xmlns:cc="http://creativecommons.org/ns#"
   xmlns:rdf="http://www.w3.org/1999/02/22-rdf-syntax-ns#"
   xmlns:svg="http://www.w3.org/2000/svg"
   xmlns="http://www.w3.org/2000/svg"
   id="svg2502"
   viewBox="0 0 25.096772 26.577856"
   version="1.1"
   height="26.577856"
   width="25.096773">
  <defs
     id="defs2506" />
  <metadata
     id="metadata2">
    <rdf:RDF>
      <cc:Work
         rdf:about="">
        <dc:format>image/svg+xml</dc:format>
        <dc:type
           rdf:resource="http://purl.org/dc/dcmitype/StillImage" />
        <dc:title />
      </cc:Work>
    </rdf:RDF>
  </metadata>
  <g
     transform="translate(-643.92247,-241.65684)"
     style="stroke-width:0.16327"
     id="g2500">
    <path
       d="m 664.52,243.4 c -0.10775,-0.10775 -0.19591,-0.46619 -0.19591,-0.79652 0,-0.50905 0.0723,-0.63055 0.4743,-0.79706 0.26085,-0.10805 0.64656,-0.17207 0.85714,-0.14226 0.31468,0.0446 0.39203,0.16608 0.43447,0.68247 0.0348,0.42289 -0.0402,0.72976 -0.22939,0.93877 -0.31602,0.34921 -1.0438,0.41142 -1.3406,0.1146 z m -20.495,6.4544 c -0.22013,-0.22013 -0.0835,-0.63995 0.38758,-1.1911 0.26574,-0.31089 0.48316,-0.69988 0.48316,-0.8644 0,-0.16454 0.12051,-0.77888 0.26779,-1.3652 0.26219,-1.0438 0.26025,-1.0812 -0.093,-1.7885 -0.69518,-1.392 -0.0761,-2.0159 1.0335,-1.0416 l 0.58762,0.51595 v 1.5245 c 0,0.83845 -0.0651,1.5647 -0.14475,1.6139 -0.0796,0.0492 -0.19548,0.35982 -0.25747,0.69024 -0.15247,0.81278 -1.179,2.0027 -1.7338,2.0097 -0.23198,0.003 -0.47076,-0.0436 -0.53061,-0.10349 z m 17.617,18.138 c -0.14111,-0.14111 -0.25648,-0.30641 -0.25636,-0.36734 0,-0.16239 0.44253,-2.2834 0.64573,-3.0968 0.0962,-0.3852 0.19229,-1.5974 0.21348,-2.6939 l 0.0385,-1.9936 -0.84385,-0.0489 c -1.1432,-0.0662 -1.44,-0.41196 -0.8152,-0.94941 0.27871,-0.23974 0.65923,-0.38947 0.98979,-0.38947 0.30771,0 0.6434,-0.12201 0.78614,-0.28571 0.26603,-0.30511 0.76191,-3.8695 0.56563,-4.0658 -0.17079,-0.17077 -1.4606,0.30691 -1.8394,0.68123 -0.18732,0.18511 -0.70803,0.57236 -1.1572,0.86057 -0.75466,0.48426 -0.92141,0.524 -2.1989,0.524 -1.2372,0 -1.4588,-0.0485 -2.1114,-0.46235 -0.40098,-0.25429 -0.92965,-0.70075 -1.1748,-0.99212 -0.55534,-0.66001 -0.5831,-1.5373 -0.11923,-3.77 0.37347,-1.7976 0.4193,-2.923 0.12245,-3.0063 -0.11224,-0.0315 -0.51737,-0.15149 -0.90028,-0.26666 -0.3829,-0.11518 -1.0022,-0.21567 -1.3761,-0.22333 -0.6692,-0.0137 -0.68969,0.003 -1.2949,1.0473 -0.33824,0.58367 -0.61897,1.1403 -0.62386,1.237 -0.005,0.0967 -0.34891,0.79463 -0.7645,1.551 -0.41561,0.7564 -0.88777,1.6324 -1.0493,1.9467 -0.16148,0.31429 -0.55154,0.81184 -0.86681,1.1057 -0.31525,0.29383 -0.70212,0.82649 -0.8597,1.1837 -0.26172,0.59317 -0.34038,0.64942 -0.90817,0.64942 -0.82475,0 -0.80711,-0.24319 0.11305,-1.5596 0.40408,-0.57813 0.73469,-1.1142 0.73469,-1.1913 0,-0.0771 0.18341,-0.33807 0.40758,-0.57995 0.60206,-0.64963 2.6413,-4.5135 3.0243,-5.7304 0.49202,-1.5632 0.48326,-1.5511 1.1186,-1.5503 0.32584,0 1.0333,0.18235 1.572,0.4043 0.60049,0.24736 1.3067,0.40503 1.8249,0.40741 0.71626,0.003 0.89695,0.0695 1.1837,0.43406 0.42171,0.53611 0.46107,2.0708 0.0835,3.2582 -0.14015,0.4408 -0.32122,1.3427 -0.40237,2.0042 -0.20186,1.6456 0.005,2.1274 1.081,2.5123 1.6823,0.60201 3.0475,0.19662 4.7547,-1.4119 0.66746,-0.6289 1.2371,-1.3132 1.2912,-1.551 0.14207,-0.62476 0.48202,-1.6015 0.94372,-2.7113 0.22412,-0.53877 0.4978,-1.4939 0.60818,-2.1224 0.11037,-0.62857 0.27925,-1.1968 0.37528,-1.2628 0.33785,-0.23209 1.059,-0.12878 1.2216,0.17501 0.1811,0.33837 -0.16287,2.1094 -0.8668,4.4632 -0.33197,1.11 -0.45772,2.0102 -0.58154,4.1633 -0.0869,1.5109 -0.20098,2.894 -0.2535,3.0736 -0.0525,0.17959 -1.3e-4,0.4518 0.11641,0.60491 0.19206,0.25231 0.38297,0.2619 2.0393,0.1024 1.9451,-0.18728 2.5689,-0.12519 2.7209,0.27087 0.30035,0.78268 -0.40718,1.084 -2.7868,1.1868 -1.6274,0.0703 -2.0473,0.1382 -2.1577,0.34893 -0.0754,0.1439 -0.26001,1.5347 -0.41032,3.0907 -0.1503,1.556 -0.3349,2.9886 -0.41025,3.1837 -0.0754,0.19507 -0.23135,0.67142 -0.34669,1.0586 -0.11533,0.38713 -0.33857,0.77285 -0.49607,0.85714 -0.37608,0.20128 -0.4038,0.19721 -0.70432,-0.1033 z"
       id="arranged" />
  </g>
</svg>
