<svg xmlns="http://www.w3.org/2000/svg" height="28.269" width="20.847"><path d="M19.307 1.534C18.715.942 19.16.011 20.038 0c.533-.007.809.273.809.819 0 .815-.983 1.272-1.54.715zM.008 9.546c-.051-.134.144-.614.434-1.067.466-.725.538-.993.61-2.258.065-1.14.025-1.556-.197-2.022-.217-.457-.238-.662-.096-.926.217-.406.461-.427.952-.084.974.683 1.3 2.646.735 4.437C2.027 8.953.302 10.312.008 9.546zm16.693 18.436c-.177-.462-.1-1.738.245-4.068.38-2.559.747-5.183.95-6.775.073-.584.176-1.245.227-1.47.05-.224.136-.977.19-1.673.096-1.224.087-1.266-.26-1.266-.205 0-.609.269-.945.63-.323.346-.953.831-1.4 1.079-.448.247-.99.588-1.206.758-.79.622-2.225.352-3.19-.599-1.018-1.003-1.172-1.758-.918-4.497.142-1.537.147-2.178.017-2.335-.181-.218-2.86-.46-3.435-.309-.196.051-.352.367-.492 1-.346 1.563-.494 1.942-1.008 2.589-.273.343-.698 1.03-.945 1.527-.247.497-.7 1.24-1.005 1.65-.306.41-.635.88-.73 1.043-.201.345-.673.237-.838-.192-.098-.256.453-1.495 1.116-2.507C4.225 10.81 4.52 10.29 4.522 10.02c0-.17.147-.53.325-.8.178-.27.325-.575.325-.68 0-.104.23-.79.51-1.522.631-1.652.88-1.81 2.127-1.345.481.179 1.426.379 2.1.444 2.284.222 2.693.672 2.175 2.398-.348 1.162-.455 3.28-.21 4.154.254.911.68 1.284 1.44 1.264.55-.014.99-.2 2.38-1.006.556-.324 1.222-1.014 1.23-1.276.003-.1.225-.459.495-.798.269-.339.49-.7.49-.8 0-.102.151-.468.337-.815.186-.346.442-1.227.568-1.956.183-1.054.317-1.403.651-1.694.527-.46.828-.467.945-.022.153.587-.489 7.748-.965 10.757a87.063 87.063 0 00-.483 3.918c-.13 1.302-.384 3.094-.564 3.982-.18.888-.327 1.917-.327 2.286-.002 1.176-1.05 2.306-1.37 1.474z" stroke-width=".163"/></svg>