<?xml version="1.0" encoding="UTF-8" standalone="no"?>
<svg
   xmlns:dc="http://purl.org/dc/elements/1.1/"
   xmlns:cc="http://creativecommons.org/ns#"
   xmlns:rdf="http://www.w3.org/1999/02/22-rdf-syntax-ns#"
   xmlns:svg="http://www.w3.org/2000/svg"
   xmlns="http://www.w3.org/2000/svg"
   id="svg2502"
   viewBox="0 0 44.710566 15.118408"
   version="1.1"
   height="15.118408"
   width="44.710567">
  <defs
     id="defs2506" />
  <metadata
     id="metadata2">
    <rdf:RDF>
      <cc:Work
         rdf:about="">
        <dc:format>image/svg+xml</dc:format>
        <dc:type
           rdf:resource="http://purl.org/dc/dcmitype/StillImage" />
        <dc:title />
      </cc:Work>
    </rdf:RDF>
  </metadata>
  <g
     transform="translate(-643.59057,-336.38919)"
     style="stroke-width:0.16327"
     id="g2500">
    <path
       d="m 643.7,343.73 c -0.25151,-0.2515 -0.0692,-0.67994 0.54421,-1.2789 0.35919,-0.35072 0.65306,-0.724 0.65306,-0.82947 0,-0.10547 0.11156,-0.28436 0.24792,-0.39752 0.44273,-0.36744 0.79354,-1.3366 0.78115,-2.158 -0.01,-0.64312 -0.10116,-0.89597 -0.45932,-1.2698 -0.77425,-0.80815 -0.23112,-1.7032 0.79644,-1.3126 0.23636,0.0899 0.42973,0.26402 0.42973,0.38702 0,0.12299 0.13842,0.3489 0.30761,0.50201 0.16918,0.1531 0.39678,0.5969 0.50578,0.98622 0.16374,0.58483 0.1574,0.77496 -0.0364,1.0939 -0.12905,0.21231 -0.37502,0.84993 -0.54661,1.417 -0.30477,1.0072 -0.61326,1.426 -1.8561,2.5201 -0.48037,0.42289 -1.1245,0.5831 -1.3675,0.34013 z m 2.2993,7.606 c -0.45833,-0.26695 -0.34409,-0.51867 0.66946,-1.4752 0.52532,-0.49579 1.3886,-1.5092 1.9184,-2.2521 0.52976,-0.74287 1.0582,-1.4821 1.1742,-1.6427 0.25912,-0.35863 0.6426,-1.3776 1.6146,-4.2904 l 0.74918,-2.2449 h 0.54537 c 0.29997,0 0.78593,0.14667 1.0799,0.32593 0.294,0.17925 0.67262,0.32619 0.84133,0.32653 0.52007,0.002 2.6202,0.81576 2.8361,1.1002 0.26246,0.34584 0.25637,1.3342 -0.0214,3.4718 -0.40462,3.1138 -0.11099,3.6836 1.8164,3.525 1.2282,-0.10113 1.3595,-0.1695 2.4426,-1.2721 1.9324,-1.9672 2.7454,-3.282 3.0572,-4.9439 0.0634,-0.33799 0.17583,-0.73405 0.24982,-0.88014 0.074,-0.14609 0.21433,-0.46766 0.31187,-0.7146 0.21609,-0.54714 0.74677,-0.59683 1.0153,-0.0951 0.27022,0.50488 0.055,2.1393 -0.87552,6.6478 -0.17138,0.83044 -0.16061,0.89609 0.19453,1.1837 0.41732,0.33793 1.1818,0.39236 1.916,0.13641 0.50702,-0.17674 1.8361,-1.5833 2.5409,-2.6891 0.22895,-0.35918 0.60973,-0.87347 0.84617,-1.1428 0.23646,-0.26939 0.50044,-0.74694 0.58665,-1.0612 0.0862,-0.31428 0.44924,-0.93877 0.80674,-1.3878 0.35749,-0.44898 0.79985,-1.0114 0.983,-1.2498 0.43081,-0.56076 1.5531,-0.94738 2.2114,-0.76178 0.26939,0.076 0.69987,0.41269 0.95664,0.74831 0.4581,0.59881 0.46501,0.63911 0.36947,2.1547 -0.073,1.1572 -0.19697,1.7508 -0.49455,2.3674 -0.8119,1.682 -0.95086,2.6312 -0.45136,3.0833 0.16421,0.14862 0.36909,0.2702 0.45528,0.2702 0.20393,0 1.311,-0.56527 1.6371,-0.83588 0.60841,-0.50494 2.507,-3.821 2.507,-4.3786 0,-0.11185 0.14694,-0.39018 0.32653,-0.61849 0.17959,-0.22833 0.32653,-0.6259 0.32653,-0.8835 0,-0.49959 0.50993,-1.5839 0.84113,-1.7886 0.1098,-0.0679 0.49363,0.0266 0.85298,0.20995 0.58784,0.2999 0.74441,0.31415 1.5613,0.14209 0.49934,-0.10518 1.0548,-0.2497 1.2344,-0.32118 1.6708,-0.66498 2.2458,-0.7669 2.5126,-0.44543 0.29109,0.35075 0.17399,0.74803 -0.33164,1.1252 -0.44374,0.33097 -1.1783,0.53381 -2.7643,0.76331 -0.50045,0.0724 -1.065,0.21468 -1.2546,0.31614 -0.18958,0.10146 -0.5313,0.18447 -0.75939,0.18447 -0.4176,0 -0.91289,0.65456 -0.91289,1.2065 0,0.13372 -0.25678,0.74348 -0.57062,1.3551 -0.31385,0.61157 -0.57099,1.1924 -0.57143,1.2907 0,0.0983 -0.14774,0.31176 -0.32733,0.47429 -0.17959,0.16253 -0.32758,0.37595 -0.32884,0.47429 -0.002,0.0983 -0.30244,0.50938 -0.66929,0.91346 -0.36685,0.40409 -0.79204,0.89138 -0.94489,1.0829 -0.39612,0.49629 -1.8685,1.2032 -2.5005,1.2006 -0.98581,-0.004 -1.2707,-0.17179 -1.6868,-0.99304 -0.49223,-0.97137 -0.50854,-1.8225 -0.0567,-2.9579 0.86678,-2.178 1.1914,-4.1435 0.74558,-4.5135 -0.61608,-0.5113 -1.3259,0.0912 -2.2324,1.8948 -0.1917,0.38141 -0.43998,0.78549 -0.55172,0.89796 -0.11174,0.11247 -0.44553,0.65992 -0.74175,1.2166 -0.32034,0.60196 -1.11,1.5974 -1.9488,2.4566 -1.5647,1.6028 -2.0415,1.8374 -3.7337,1.8374 -1.4431,0 -1.8424,-0.38769 -2.2391,-2.1739 -0.0796,-0.35836 -0.1817,-0.44826 -0.46365,-0.40816 -0.19887,0.0283 -0.42886,0.20454 -0.5111,0.39169 -0.0822,0.18717 -0.27397,0.40757 -0.4261,0.48979 -0.15215,0.0822 -0.68247,0.42978 -1.1785,0.77233 -0.70446,0.48645 -1.1524,0.65999 -2.0462,0.79264 -1.0987,0.16307 -1.1743,0.15226 -1.8965,-0.27097 -0.4137,-0.24245 -0.75335,-0.48893 -0.75479,-0.54774 -0.002,-0.0588 -0.22185,-0.35568 -0.4898,-0.65968 -0.57007,-0.64679 -0.59884,-1.0187 -0.22233,-2.8758 0.42581,-2.1003 0.51982,-2.9206 0.36821,-3.2128 -0.13711,-0.26418 -1.2175,-0.64872 -2.4504,-0.87213 -0.50196,-0.091 -0.63332,-0.0496 -0.85714,0.26994 -0.14537,0.20757 -0.26433,0.54037 -0.26433,0.73959 0,0.19922 -0.0653,0.40258 -0.14517,0.45192 -0.0799,0.0494 -0.19233,0.29247 -0.24994,0.54026 -0.16951,0.72882 -1.1096,2.8586 -1.496,3.3893 -0.19618,0.26939 -0.40416,0.6465 -0.46221,0.83802 -0.1488,0.49112 -2.1487,2.6978 -3.0766,3.3948 -0.4273,0.32095 -0.79464,0.58131 -0.81632,0.57858 -0.0217,-0.003 -0.16797,-0.0799 -0.32512,-0.17138 z"
       id="arrive" />
  </g>
</svg>
