<svg xmlns="http://www.w3.org/2000/svg" height="21.435" width="55.95"><path d="M.044 14.437c-.13-.407.017-.744.592-1.359.792-.848 1.115-1.696 1.115-2.932 0-.607-.083-1.286-.184-1.508-.269-.59-.06-1.244.395-1.244.845 0 1.586 1.061 1.583 2.264-.004 1.346-.818 3.163-1.928 4.307-.798.822-1.404 1.004-1.573.472zM52.638 7.04c.207-.196.378-.438.378-.54 0-.1.286-.624.636-1.163.729-1.122.994-1.935.995-3.056.002-.708-.033-.781-.342-.734-.395.06-1.272 1.47-1.283 2.062-.01.53-.453 1.959-.83 2.675-.558 1.057-.314 1.47.446.756zM3.253 21.24c-.325-.325-.237-.489.95-1.762.627-.672 1.14-1.356 1.14-1.52 0-.34.273-.901.597-1.225.12-.12.219-.322.219-.449 0-.126.218-.69.484-1.253 1.245-2.631 1.638-3.523 1.638-3.713 0-.113.16-.49.357-.84.269-.479.459-.634.775-.635.43-.002 2.803.795 2.95.988.045.06.348.195.674.301.326.107.723.338.883.514.278.308.275.38-.077 1.816-.423 1.726-.586 3.045-.444 3.592.055.21.354.657.666.994.53.573.628.612 1.514.61.52-.002 1.204-.095 1.518-.209 2.026-.73 4.726-3.692 5.465-5.993.352-1.096.59-1.375 1.047-1.23.552.175.59.797.132 2.178-.542 1.639-.807 3.285-.739 4.6.051.993.083 1.068.516 1.22.385.134.606.083 1.335-.312.48-.26 1.279-.808 1.774-1.22.495-.41 1.08-.871 1.298-1.025.22-.153.45-.484.513-.734.063-.251.237-.581.387-.733.15-.152.53-.63.844-1.06.924-1.268 1.976-2.227 3.057-2.79 1.288-.67 1.892-.681 2.488-.043.868.93.898 2.646.086 4.986-.813 2.342-.747 2.936.322 2.906.653-.019 1.757-.812 2.402-1.727.204-.29.428-.6.498-.69.462-.595 1.308-2.012 1.677-2.81.24-.52.494-1.055.563-1.19.097-.187.465-.248 1.578-.261 1.392-.016 3.396-.43 3.588-.74.048-.078.248-.142.444-.143.485-.002 1.875-.666 2.5-1.194.359-.303.541-.63.618-1.107.06-.373.307-1.017.551-1.432.583-.991 1.177-2.46 1.178-2.909 0-.196.066-.398.146-.447.08-.05.195-.286.255-.525.165-.657 1.517-3.412 1.784-3.633.788-.654 1.97-.46 2.356.387.231.509.258 2.095.042 2.497-.084.156-.234.64-.333 1.078-.16.698-.49 1.299-1.585 2.879a14.77 14.77 0 01-.804 1.002c-.286.327-.57.75-.63.939-.06.19-.167.344-.238.344-.072 0-.474.304-.896.675-.804.707-1.729 2.298-1.729 2.974 0 .404-.327 1.45-.723 2.31-.9 1.959-.98 2.771-.338 3.414.662.662.49 1.482-.326 1.569-.629.067-.733-.01-1.157-.846-.605-1.195-.586-2.158.077-3.892.546-1.427.993-2.763.996-2.98.003-.23-.63-.122-1.58.27-.521.217-1.81.592-2.862.835-2.158.499-2.15.493-3.061 2.283-.781 1.535-2.548 3.441-3.798 4.098-.584.306-1.75.46-2.467.326-.446-.083-.64-.243-.896-.733-.18-.345-.347-.765-.373-.934-.056-.38.166-1.555.336-1.777.07-.09.242-.494.385-.898.142-.404.374-1.053.516-1.442.3-.82.187-2.285-.186-2.428-.683-.262-2.677 1.142-3.4 2.395-1.257 2.177-1.547 2.53-3.02 3.679-.494.385-1.217.996-1.606 1.358-.598.557-.883.69-1.842.861-.864.155-1.18.158-1.325.013a.741.741 0 00-.454-.19c-.145 0-.469-.216-.72-.478-.4-.417-.46-.613-.48-1.551-.012-.59-.054-1.074-.093-1.074-.04 0-.42.294-.846.653-.426.36-.844.653-.93.653-.084 0-.246.11-.357.245a.733.733 0 01-.488.245c-.157 0-.478.152-.714.338-.244.192-.897.415-1.51.517-2.113.35-3.707-.625-4.24-2.593-.247-.914-.255-1.176-.068-2.22.382-2.138.387-2.397.058-2.76a2.44 2.44 0 00-1.827-.792c-.68 0-.895.16-1.087.816a9.167 9.167 0 01-.335.898l-.569 1.306c-.398.918-.666 1.48-.936 1.96a3.13 3.13 0 00-.268.738c-.047.227-.364.738-.704 1.135-.34.397-.729.958-.863 1.247-.255.546-1.516 1.696-1.86 1.696-.109 0-.286-.089-.394-.196z"/></svg>