<svg xmlns="http://www.w3.org/2000/svg" height="15.118" width="44.711"><path d="M.11 7.34c-.252-.25-.07-.68.544-1.278.359-.35.653-.724.653-.83 0-.105.111-.284.248-.397.442-.368.793-1.337.78-2.158-.01-.643-.1-.896-.459-1.27C1.102.6 1.646-.296 2.673.095c.236.09.43.264.43.387s.138.348.307.502c.17.153.397.596.506.986.164.585.157.775-.036 1.094-.13.212-.375.85-.547 1.417C3.028 5.488 2.72 5.907 1.477 7c-.48.423-1.125.583-1.368.34zm2.299 7.607c-.459-.267-.344-.519.67-1.475.525-.496 1.388-1.51 1.918-2.252A634.93 634.93 0 016.17 9.577c.259-.359.642-1.378 1.614-4.29l.75-2.245h.545c.3 0 .786.146 1.08.325.294.18.672.327.841.327.52.002 2.62.816 2.836 1.1.263.346.257 1.334-.021 3.472-.405 3.114-.111 3.684 1.816 3.525 1.228-.101 1.36-.17 2.443-1.272 1.932-1.967 2.745-3.282 3.057-4.944.063-.338.176-.734.25-.88.074-.146.214-.468.312-.715.216-.547.747-.597 1.015-.095.27.505.055 2.14-.875 6.648-.172.83-.161.896.194 1.184.417.338 1.182.392 1.916.136.507-.177 1.836-1.583 2.541-2.69.229-.358.61-.873.846-1.142.237-.27.5-.747.587-1.061.086-.314.449-.939.807-1.388.357-.449.8-1.011.983-1.25.43-.56 1.553-.947 2.21-.761.27.076.7.412.958.748.458.599.465.639.369 2.155-.073 1.157-.197 1.75-.495 2.367-.811 1.682-.95 2.631-.45 3.083.163.149.368.27.454.27.204 0 1.311-.565 1.638-.835.608-.505 2.507-3.821 2.507-4.379 0-.112.146-.39.326-.618.18-.229.327-.626.327-.884 0-.5.51-1.584.84-1.789.11-.067.494.027.854.21.588.3.744.315 1.561.142.5-.105 1.055-.25 1.234-.32 1.671-.666 2.246-.768 2.513-.446.291.35.174.748-.332 1.125-.443.331-1.178.534-2.764.763-.5.073-1.065.215-1.255.316a1.91 1.91 0 01-.759.185c-.418 0-.913.655-.913 1.206 0 .134-.257.744-.57 1.356-.314.611-.571 1.192-.572 1.29 0 .099-.148.312-.327.475-.18.162-.328.375-.33.474-.001.098-.301.51-.668.913-.367.404-.792.892-.945 1.083-.396.496-1.869 1.203-2.5 1.2-.987-.003-1.271-.171-1.688-.992-.492-.972-.508-1.823-.056-2.958.867-2.178 1.191-4.144.745-4.514-.616-.51-1.326.092-2.232 1.895-.192.382-.44.786-.552.898-.112.113-.445.66-.742 1.217-.32.602-1.11 1.597-1.948 2.456-1.565 1.603-2.042 1.838-3.734 1.838-1.443 0-1.842-.388-2.24-2.174-.079-.359-.18-.448-.463-.408a.738.738 0 00-.51.391c-.083.188-.275.408-.427.49-.152.082-.682.43-1.178.772-.705.487-1.153.66-2.047.793-1.098.163-1.174.152-1.896-.27-.414-.243-.754-.49-.755-.549-.002-.058-.222-.355-.49-.66-.57-.646-.599-1.018-.222-2.875.426-2.1.52-2.92.368-3.213-.137-.264-1.217-.649-2.45-.872-.502-.091-.634-.05-.857.27-.146.207-.265.54-.265.74 0 .199-.065.402-.145.451-.08.05-.192.293-.25.54-.17.73-1.11 2.86-1.496 3.39-.196.27-.404.646-.462.838-.149.491-2.149 2.698-3.077 3.395-.427.32-.794.581-.816.578a2.661 2.661 0 01-.325-.171z"/></svg>