<?xml version="1.0" encoding="UTF-8" standalone="no"?>
<svg
   xmlns:dc="http://purl.org/dc/elements/1.1/"
   xmlns:cc="http://creativecommons.org/ns#"
   xmlns:rdf="http://www.w3.org/1999/02/22-rdf-syntax-ns#"
   xmlns:svg="http://www.w3.org/2000/svg"
   xmlns="http://www.w3.org/2000/svg"
   id="svg2502"
   viewBox="0 0 41.985057 16.609234"
   version="1.1"
   height="16.609234"
   width="41.985058">
  <defs
     id="defs2506" />
  <metadata
     id="metadata2">
    <rdf:RDF>
      <cc:Work
         rdf:about="">
        <dc:format>image/svg+xml</dc:format>
        <dc:type
           rdf:resource="http://purl.org/dc/dcmitype/StillImage" />
        <dc:title />
      </cc:Work>
    </rdf:RDF>
  </metadata>
  <g
     transform="translate(-643.83308,-361.50772)"
     style="stroke-width:0.16327"
     id="g2500">
    <path
       d="m 643.91,368.31 c -0.15555,-0.29063 -0.0969,-0.4743 0.37794,-1.1837 1.2398,-1.8521 1.469,-2.8241 0.9503,-4.0299 -0.39182,-0.91081 -0.33678,-1.3898 0.17847,-1.5534 0.88627,-0.28129 1.6993,1.1652 1.5192,2.7028 -0.23064,1.969 -0.37939,2.3496 -1.3292,3.4011 -0.95814,1.0607 -1.3929,1.2306 -1.6966,0.66304 z m 2.0094,6.3488 c -0.45237,-0.21817 -0.45236,-0.24135 0,-0.92844 0.20172,-0.30596 0.56577,-0.85698 0.80903,-1.2245 1.5629,-2.3612 2.6156,-4.4776 3.3994,-6.8341 0.42431,-1.2757 0.66545,-1.4153 1.7707,-1.0251 0.44903,0.15853 1.2815,0.25221 2.2412,0.25221 1.4682,0 1.5375,0.0165 1.8078,0.42905 0.26656,0.40684 0.26575,0.48499 -0.0157,1.5102 -0.16325,0.59465 -0.3339,1.9042 -0.37924,2.9102 l -0.0824,1.829 0.49749,0.49749 c 0.96511,0.96511 2.81,0.58145 4.7675,-0.99143 0.37776,-0.30355 0.79025,-0.75181 0.91662,-0.99615 0.12638,-0.24433 0.3624,-0.57494 0.52451,-0.73469 0.30426,-0.29984 1.3344,-2.7792 1.3344,-3.2116 0,-0.1341 0.15419,-0.50517 0.34266,-0.82459 0.24273,-0.41141 0.45801,-0.58076 0.73819,-0.58076 0.61538,0 0.81348,0.60934 0.57115,1.7568 -0.72142,3.4161 -0.90328,4.7405 -0.68679,5.0014 0.29249,0.35241 0.77962,0.33019 1.9182,-0.0875 0.74236,-0.27233 1.1972,-0.60031 2.0553,-1.4823 0.60613,-0.6229 1.102,-1.1977 1.102,-1.2773 0,-0.0796 0.23878,-0.41511 0.53062,-0.74563 0.29183,-0.3305 0.82449,-1.0473 1.1837,-1.5928 0.40441,-0.61425 0.90171,-1.1325 1.3061,-1.3613 1.1389,-0.64413 2.475,-0.41086 3.0987,0.54103 0.40122,0.61234 0.26567,3.0083 -0.24838,4.3904 -0.47503,1.2772 -0.52035,2.4188 -0.0993,2.5015 0.99758,0.19594 2.5959,-0.85805 3.1085,-2.0499 0.14546,-0.33818 0.32979,-0.72511 0.40963,-0.8598 0.39712,-0.67014 1.3286,-2.9529 1.499,-3.6735 0.10613,-0.44898 0.2752,-0.90473 0.37567,-1.0128 0.30475,-0.32774 2.0666,-0.75533 3.3955,-0.82405 1.1911,-0.0616 1.267,-0.0444 1.5215,0.34394 0.24564,0.37492 0.24626,0.44168 0.008,0.80599 -0.23568,0.35966 -0.39958,0.40514 -1.7346,0.48126 -1.245,0.071 -1.5364,0.1424 -1.8735,0.45903 -0.21953,0.20624 -0.3996,0.45401 -0.40015,0.5506 0,0.0966 -0.11523,0.39469 -0.25484,0.66245 -0.22544,0.43234 -0.72532,1.6682 -1.2559,3.105 -0.0995,0.26939 -0.35105,0.66513 -0.55903,0.87941 -0.20799,0.21429 -0.37816,0.44741 -0.37816,0.51808 0,0.31631 -0.87672,1.1331 -1.2162,1.1331 -0.20398,0 -0.62994,0.17581 -0.94658,0.3907 -0.81342,0.55198 -1.7523,0.68184 -2.4346,0.33675 -0.75336,-0.381 -1.2801,-0.89174 -1.2801,-1.2412 0,-0.40919 0.73938,-3.2821 0.94271,-3.663 0.0919,-0.17216 0.21881,-0.72795 0.28199,-1.2351 0.10069,-0.80823 0.0725,-0.96443 -0.22839,-1.2653 -0.71353,-0.71353 -1.3741,-0.33538 -2.7922,1.5986 -0.40408,0.55106 -0.93378,1.2344 -1.1771,1.5184 -0.24333,0.28408 -0.48682,0.71866 -0.54109,0.96571 -0.0559,0.25471 -0.35922,0.64173 -0.70043,0.89386 -0.33098,0.24457 -0.82716,0.65522 -1.1027,0.91256 -0.63949,0.59738 -2.0592,1.118 -3.007,1.1026 -0.93471,-0.0152 -1.6272,-0.41564 -2.0431,-1.1817 -0.17959,-0.33076 -0.38979,-0.60158 -0.46713,-0.60182 -0.0773,0 -0.48142,0.28182 -0.89796,0.62682 -1.1726,0.97115 -3.5943,1.9776 -4.7714,1.983 -0.23224,0.002 -0.83647,-0.27357 -1.3427,-0.61031 -0.71597,-0.47619 -0.99737,-0.79007 -1.2664,-1.4125 -0.32556,-0.75316 -0.3344,-0.89261 -0.15032,-2.3674 0.10757,-0.86188 0.23291,-1.9051 0.27853,-2.3182 l 0.0829,-0.75116 -0.63068,-0.10418 c -1.2127,-0.20035 -2.2778,-0.12611 -2.5525,0.17792 -0.14199,0.15715 -0.42395,0.8 -0.62656,1.4286 -0.20262,0.62857 -0.5019,1.3181 -0.6651,1.5322 -0.16318,0.21414 -0.29688,0.50802 -0.29707,0.65307 0,0.14502 -0.21837,0.51872 -0.48477,0.83044 -0.26642,0.31171 -0.5266,0.75894 -0.57819,0.99383 -0.10078,0.45886 -0.447,0.95239 -1.4473,2.063 -0.69096,0.76723 -0.67287,0.75966 -1.2037,0.50364 z m 29.216,3.2687 c -0.24549,-0.24548 -0.25548,-0.89085 -0.0162,-1.0388 0.17191,-0.10626 0.99606,-0.21903 4.0651,-0.55617 0.76326,-0.0839 2.2326,-0.33268 3.2653,-0.55294 1.7069,-0.36409 1.9035,-0.37736 2.1633,-0.14588 0.33951,0.30254 0.35793,0.48165 0.0783,0.7613 -0.44194,0.44195 -1.0716,0.65592 -2.4864,0.84493 -1.6864,0.22528 -3.4052,0.50022 -4.5431,0.72667 -1.0823,0.21539 -2.2905,0.1967 -2.5263,-0.0391 z"
       id="arrived" />
  </g>
</svg>
