<svg xmlns="http://www.w3.org/2000/svg" height="16.609" width="41.985"><path d="M.077 6.802c-.156-.29-.097-.474.378-1.183 1.24-1.853 1.469-2.825.95-4.03-.392-.911-.337-1.39.179-1.554C2.47-.246 3.283 1.2 3.103 2.738c-.23 1.97-.38 2.35-1.33 3.401C.816 7.2.382 7.37.078 6.802zm2.01 6.35c-.453-.22-.453-.242 0-.93l.808-1.224c1.563-2.361 2.616-4.477 3.4-6.834.424-1.276.665-1.415 1.77-1.025.45.158 1.282.252 2.242.252 1.468 0 1.537.017 1.807.43.267.406.266.484-.015 1.51-.164.594-.334 1.904-.38 2.91l-.082 1.829.498.497c.965.965 2.81.582 4.767-.991.378-.304.79-.752.917-.996.126-.245.362-.575.524-.735.304-.3 1.335-2.78 1.335-3.212 0-.134.154-.505.342-.824.243-.412.458-.581.738-.581.616 0 .814.61.572 1.757-.722 3.416-.904 4.74-.687 5.001.292.352.78.33 1.918-.087.742-.273 1.197-.6 2.055-1.483.606-.623 1.102-1.197 1.102-1.277 0-.08.24-.415.531-.746.292-.33.824-1.047 1.184-1.592.404-.615.901-1.133 1.306-1.362 1.139-.644 2.475-.41 3.098.541.402.613.266 3.009-.248 4.39-.475 1.278-.52 2.42-.1 2.502.998.196 2.597-.858 3.11-2.05.145-.338.33-.725.409-.86.397-.67 1.329-2.952 1.499-3.673.106-.449.275-.905.376-1.013.304-.328 2.066-.755 3.395-.824 1.191-.061 1.267-.044 1.522.344.245.375.246.442.008.806-.236.36-.4.405-1.735.481-1.245.071-1.536.143-1.874.46-.22.206-.4.453-.4.55 0 .097-.115.395-.255.662-.225.433-.725 1.669-1.255 3.105-.1.27-.351.666-.56.88-.207.214-.378.447-.378.518 0 .316-.876 1.133-1.216 1.133-.204 0-.63.176-.946.39-.814.553-1.753.683-2.435.337-.753-.38-1.28-.891-1.28-1.24 0-.41.74-3.283.943-3.664.092-.172.218-.728.282-1.235.1-.808.072-.964-.229-1.265-.713-.714-1.374-.336-2.792 1.598a33.16 33.16 0 01-1.177 1.519c-.243.284-.487.718-.541.966-.056.254-.36.641-.7.893-.332.245-.828.656-1.103.913-.64.597-2.06 1.118-3.007 1.103-.935-.016-1.627-.416-2.043-1.182-.18-.33-.39-.602-.468-.602-.077 0-.48.282-.897.627-1.173.971-3.595 1.977-4.772 1.983-.232.002-.836-.274-1.343-.61-.716-.477-.997-.79-1.266-1.413-.326-.753-.334-.893-.15-2.367.107-.862.233-1.905.278-2.319l.083-.75-.63-.105c-1.213-.2-2.278-.126-2.553.178-.142.157-.424.8-.627 1.429-.202.628-.502 1.318-.665 1.532-.163.214-.297.508-.297.653 0 .145-.218.519-.485.83-.266.312-.526.76-.578.994-.1.459-.447.953-1.447 2.063-.691.767-.673.76-1.204.504zm29.215 3.268c-.245-.246-.255-.891-.016-1.039.172-.106.996-.22 4.065-.556.763-.084 2.233-.333 3.266-.553 1.706-.364 1.903-.377 2.163-.146.34.303.358.482.078.761-.442.442-1.071.656-2.486.845-1.687.225-3.405.5-4.543.727-1.083.215-2.29.197-2.527-.04z"/></svg>