<?xml version="1.0" encoding="UTF-8" standalone="no"?>
<svg
   xmlns:dc="http://purl.org/dc/elements/1.1/"
   xmlns:cc="http://creativecommons.org/ns#"
   xmlns:rdf="http://www.w3.org/1999/02/22-rdf-syntax-ns#"
   xmlns:svg="http://www.w3.org/2000/svg"
   xmlns="http://www.w3.org/2000/svg"
   id="svg2502"
   viewBox="0 0 55.949942 21.434687"
   version="1.1"
   height="21.434687"
   width="55.949944">
  <defs
     id="defs2506" />
  <metadata
     id="metadata2">
    <rdf:RDF>
      <cc:Work
         rdf:about="">
        <dc:format>image/svg+xml</dc:format>
        <dc:type
           rdf:resource="http://purl.org/dc/dcmitype/StillImage" />
        <dc:title />
      </cc:Work>
    </rdf:RDF>
  </metadata>
  <g
     transform="translate(-643.14638,-304.60292)"
     style="stroke-width:0.16327"
     id="g2500">
    <path
       d="m 643.19,319.04 c -0.12924,-0.40721 0.0174,-0.74382 0.59191,-1.3589 0.79276,-0.84865 1.1151,-1.6962 1.1151,-2.932 0,-0.60747 -0.0828,-1.2862 -0.18398,-1.5083 -0.26844,-0.58915 -0.0601,-1.2442 0.39566,-1.2442 0.8445,0 1.5861,1.0613 1.5825,2.2648 -0.004,1.3451 -0.81749,3.1628 -1.9274,4.3066 -0.79796,0.82237 -1.4048,1.0044 -1.5738,0.47198 z m 52.594,-7.3984 c 0.20784,-0.19524 0.37788,-0.43777 0.37788,-0.53897 0,-0.10117 0.28635,-0.62467 0.63634,-1.1633 0.72905,-1.122 0.99411,-1.9358 0.9954,-3.0562 0.002,-0.70779 -0.0336,-0.78162 -0.34268,-0.7347 -0.39427,0.0599 -1.2715,1.4708 -1.2822,2.0623 -0.01,0.53089 -0.45329,1.9589 -0.8312,2.6753 -0.55727,1.0564 -0.31329,1.4693 0.44648,0.75552 z m -49.385,14.2 c -0.32473,-0.32473 -0.23627,-0.48872 0.95009,-1.7613 0.62685,-0.67239 1.1397,-1.3568 1.1397,-1.5209 0,-0.33952 0.27372,-0.90052 0.59721,-1.224 0.12052,-0.12051 0.21912,-0.32268 0.21912,-0.44926 0,-0.12658 0.21792,-0.69073 0.48427,-1.2536 1.2448,-2.6308 1.6382,-3.5223 1.6382,-3.7123 0,-0.11304 0.16047,-0.49105 0.35658,-0.84 0.26924,-0.47903 0.45924,-0.63467 0.77551,-0.63526 0.42957,-0.002 2.8028,0.7945 2.9495,0.98842 0.0449,0.0593 0.34826,0.19478 0.67414,0.30097 0.32588,0.10618 0.72313,0.33742 0.88279,0.51384 0.27869,0.30795 0.27562,0.38062 -0.0764,1.816 -0.42311,1.7253 -0.58643,3.0451 -0.44437,3.5916 0.0546,0.21002 0.35432,0.65737 0.66607,0.9941 0.53034,0.57285 0.62776,0.61209 1.5139,0.60978 0.52092,-0.002 1.2042,-0.0952 1.5185,-0.2085 2.0252,-0.73027 4.7256,-3.6919 5.4644,-5.9931 0.35192,-1.0961 0.58996,-1.3756 1.0476,-1.2304 0.55139,0.17501 0.58912,0.79733 0.13204,2.1778 -0.54269,1.6392 -0.80733,3.2854 -0.73949,4.6003 0.0513,0.99356 0.0827,1.0678 0.51587,1.2195 0.38495,0.13484 0.60586,0.0834 1.3351,-0.31112 0.48061,-0.25999 1.2789,-0.80875 1.774,-1.2195 0.49505,-0.41076 1.0794,-0.87221 1.2985,-1.0255 0.2191,-0.15329 0.44983,-0.48387 0.51273,-0.7347 0.0629,-0.25082 0.23697,-0.58055 0.38681,-0.73273 0.14986,-0.15218 0.52962,-0.62936 0.8439,-1.0604 0.92397,-1.2672 1.9757,-2.2269 3.0569,-2.7896 1.2886,-0.67064 1.8922,-0.68093 2.4887,-0.0424 0.86769,0.92885 0.89703,2.646 0.0852,4.9854 -0.81294,2.3425 -0.74718,2.9362 0.32188,2.9058 0.65367,-0.0185 1.7576,-0.81197 2.4023,-1.7266 0.20402,-0.28942 0.42797,-0.59971 0.4977,-0.6895 0.46245,-0.59559 1.308,-2.0126 1.6775,-2.8111 0.24024,-0.51923 0.49361,-1.0542 0.56307,-1.1889 0.0968,-0.18779 0.46478,-0.24879 1.5778,-0.26159 1.3922,-0.016 3.3958,-0.42966 3.588,-0.74076 0.0478,-0.0773 0.24782,-0.14123 0.44455,-0.14211 0.48426,-0.002 1.8747,-0.66635 2.4996,-1.194 0.35846,-0.30269 0.54124,-0.63045 0.61748,-1.1072 0.0596,-0.37249 0.30787,-1.0169 0.55181,-1.4321 0.5824,-0.99122 1.177,-2.4593 1.1779,-2.9085 0,-0.19673 0.0661,-0.39809 0.14593,-0.44743 0.0799,-0.0494 0.19437,-0.28566 0.25446,-0.52516 0.16493,-0.65716 1.5178,-3.4113 1.7842,-3.6325 0.78787,-0.65386 1.9701,-0.45976 2.3558,0.38682 0.23171,0.50852 0.25878,2.0946 0.0426,2.4966 -0.0838,0.15592 -0.23398,0.64103 -0.33367,1.078 -0.15936,0.69871 -0.48999,1.2993 -1.585,2.879 -0.1556,0.22449 -0.51717,0.67556 -0.80347,1.0024 -0.28632,0.32681 -0.5698,0.74926 -0.62995,0.93878 -0.0601,0.18952 -0.16754,0.34457 -0.23864,0.34457 -0.0711,0 -0.47401,0.30345 -0.89533,0.6743 -0.8041,0.70781 -1.7289,2.2986 -1.7289,2.974 0,0.40419 -0.32723,1.4498 -0.72323,2.3109 -0.90059,1.9583 -0.98102,2.7707 -0.33799,3.4137 0.66156,0.66156 0.49084,1.4818 -0.32654,1.5687 -0.6285,0.0668 -0.73237,-0.009 -1.1565,-0.84609 -0.60548,-1.1949 -0.58643,-2.1581 0.077,-3.8915 0.54623,-1.4272 0.99296,-2.7635 0.99608,-2.9796 0.003,-0.23066 -0.63004,-0.12233 -1.5793,0.27011 -0.52223,0.2159 -1.8106,0.59149 -2.8631,0.83463 -2.1575,0.49843 -2.1495,0.49245 -3.0608,2.283 -0.78108,1.5347 -2.548,3.4409 -3.7984,4.0976 -0.5831,0.30628 -1.7499,0.46062 -2.4662,0.32623 -0.44595,-0.0837 -0.64082,-0.24312 -0.89641,-0.73347 -0.17963,-0.3446 -0.34725,-0.76491 -0.37252,-0.93401 -0.0567,-0.37952 0.16561,-1.5551 0.33606,-1.7768 0.069,-0.0898 0.2419,-0.49388 0.38415,-0.89796 0.14224,-0.40408 0.37479,-1.053 0.51677,-1.442 0.29928,-0.82008 0.18662,-2.2852 -0.18673,-2.4284 -0.6826,-0.26194 -2.6764,1.1428 -3.3995,2.3951 -1.2573,2.1774 -1.5469,2.5302 -3.0204,3.6789 -0.49388,0.38503 -1.2164,0.9963 -1.6056,1.3584 -0.59847,0.5567 -0.88273,0.68955 -1.8423,0.86105 -0.8642,0.15443 -1.18,0.15739 -1.325,0.0124 -0.10472,-0.10472 -0.3089,-0.1904 -0.45373,-0.1904 -0.14483,0 -0.46903,-0.21471 -0.72045,-0.47713 -0.39911,-0.41657 -0.45996,-0.61342 -0.47953,-1.551 -0.0122,-0.59063 -0.0544,-1.0739 -0.0935,-1.0739 -0.0391,-2e-5 -0.41966,0.29384 -0.84562,0.65303 -0.42597,0.35918 -0.84416,0.65306 -0.9293,0.65306 -0.0851,0 -0.24626,0.1102 -0.35804,0.2449 -0.11179,0.13469 -0.33128,0.24489 -0.48777,0.24489 -0.15649,0 -0.47788,0.1521 -0.71423,0.33801 -0.24406,0.19199 -0.89662,0.41536 -1.5105,0.5171 -2.1124,0.35004 -3.706,-0.62476 -4.2387,-2.5928 -0.24735,-0.9138 -0.25549,-1.1765 -0.0688,-2.2208 0.38215,-2.1371 0.38769,-2.3967 0.0587,-2.7603 -0.4592,-0.50741 -1.1149,-0.79146 -1.827,-0.79146 -0.68118,0 -0.89507,0.16055 -1.0875,0.81633 -0.0659,0.22449 -0.2165,0.62857 -0.33472,0.89796 -0.11821,0.26938 -0.37422,0.85714 -0.56892,1.3061 -0.39783,0.91742 -0.66607,1.479 -0.93583,1.9592 -0.1009,0.17959 -0.2219,0.51218 -0.2689,0.73907 -0.047,0.22691 -0.36369,0.73729 -0.70374,1.1342 -0.34007,0.39691 -0.72849,0.95822 -0.86318,1.2474 -0.25418,0.54561 -1.5159,1.6957 -1.8604,1.6957 -0.10824,0 -0.28496,-0.0882 -0.39272,-0.19592 z"
       id="arrival" />
  </g>
</svg>
