<?xml version="1.0" encoding="UTF-8" standalone="no"?>
<svg
   xmlns:dc="http://purl.org/dc/elements/1.1/"
   xmlns:cc="http://creativecommons.org/ns#"
   xmlns:rdf="http://www.w3.org/1999/02/22-rdf-syntax-ns#"
   xmlns:svg="http://www.w3.org/2000/svg"
   xmlns="http://www.w3.org/2000/svg"
   id="svg2502"
   viewBox="0 0 16.886669 17.858765"
   version="1.1"
   height="17.858765"
   width="16.886669">
  <defs
     id="defs2506" />
  <metadata
     id="metadata2">
    <rdf:RDF>
      <cc:Work
         rdf:about="">
        <dc:format>image/svg+xml</dc:format>
        <dc:type
           rdf:resource="http://purl.org/dc/dcmitype/StillImage" />
        <dc:title />
      </cc:Work>
    </rdf:RDF>
  </metadata>
  <g
     transform="translate(-644.08991,-381.51333)"
     style="stroke-width:0.16327"
     id="g2500">
    <path
       d="m 644.45,391.66 c -0.51026,-0.19758 -0.47392,-0.83058 0.0816,-1.4217 1.35,-1.4363 1.562,-1.8243 1.5772,-2.8866 0.0122,-0.85268 -0.0564,-1.1156 -0.4344,-1.662 -0.68981,-0.99723 -0.55991,-1.5295 0.37328,-1.5295 0.37681,0 1.1024,0.70421 1.3227,1.2838 0.09,0.23677 0.17164,0.94477 0.18139,1.5733 0.023,1.4873 -0.48888,2.5922 -1.7892,3.8618 -0.8056,0.78654 -0.99969,0.90199 -1.3127,0.78076 z m 10.277,0.97782 c 1.2731,-0.40381 1.6543,-0.66477 3.0856,-2.1124 0.88865,-0.89874 1.2697,-1.4114 1.3452,-1.8096 0.0579,-0.30556 0.18225,-0.92292 0.27634,-1.3719 0.13577,-0.64787 0.11564,-1.0522 -0.0975,-1.9592 -0.14774,-0.62857 -0.32198,-1.2502 -0.38719,-1.3814 -0.20455,-0.41159 -1.0938,-0.79993 -2.0802,-0.90846 -0.84866,-0.0934 -1.0449,-0.0533 -1.8475,0.37679 -0.49387,0.26468 -0.98054,0.64279 -1.0815,0.84024 -0.10093,0.19746 -0.36836,0.55636 -0.59428,0.79757 -0.50247,0.53646 -1.079,1.6587 -1.3576,2.6426 -0.11442,0.40408 -0.46593,1.4027 -0.78114,2.2191 -0.31522,0.81643 -0.59612,1.7712 -0.62423,2.1218 -0.0505,0.62996 -0.0425,0.63965 0.68359,0.83227 0.86972,0.2307 2.1662,0.12299 3.4604,-0.28747 z m -7.1828,6.5102 c -0.10775,-0.10775 -0.19592,-0.40008 -0.19592,-0.64963 0,-0.62421 1.1943,-4.9893 2.0691,-7.5626 0.39687,-1.1674 0.7799,-2.3429 0.8512,-2.6122 0.24705,-0.93351 2.5003,-4.9779 2.7748,-4.9806 0.0554,0 0.48821,-0.35806 0.96176,-0.79444 0.74805,-0.68932 0.99391,-0.81482 1.8739,-0.95654 0.59669,-0.0961 1.2152,-0.10509 1.5053,-0.0219 0.27081,0.0777 0.7177,0.14123 0.99309,0.14123 0.98488,0 2.2288,1.675 2.4999,3.3661 0.39015,2.4339 -0.35702,4.4008 -2.4714,6.5059 -1.127,1.1221 -3.2346,2.5362 -3.78,2.5362 -0.14147,0 -0.25723,0.11532 -0.25723,0.25625 0,0.4072 2.067,2.9441 2.706,3.3211 0.4961,0.2927 0.57256,0.41643 0.52883,0.85576 -0.0784,0.78778 -0.46651,0.93226 -1.3506,0.50276 -0.40775,-0.19811 -0.74137,-0.43618 -0.74137,-0.52908 0,-0.0929 -0.40408,-0.57948 -0.89796,-1.0813 -0.49388,-0.50182 -0.89796,-1.0077 -0.89796,-1.1242 0,-0.11649 -0.37087,-0.54524 -0.82416,-0.9528 -0.83032,-0.74651 -1.6642,-1.0327 -2.6107,-0.8958 -0.40816,0.059 -0.663,0.69819 -1.2256,3.0739 -0.38195,1.6129 -0.92471,2.1883 -1.511,1.602 z"
       id="art" />
  </g>
</svg>
