<svg xmlns="http://www.w3.org/2000/svg" height="17.859" width="16.887"><path d="M.36 10.147c-.51-.198-.474-.83.082-1.422 1.35-1.436 1.562-1.824 1.577-2.887.012-.852-.057-1.115-.435-1.662-.69-.997-.56-1.53.374-1.53.377 0 1.102.705 1.322 1.285.09.236.172.944.182 1.573.023 1.487-.489 2.592-1.79 3.862-.805.786-.999.902-1.312.78zm10.277.977c1.273-.403 1.654-.664 3.086-2.112.888-.899 1.27-1.411 1.345-1.81.058-.305.182-.922.276-1.371.136-.648.116-1.053-.097-1.96-.148-.628-.322-1.25-.387-1.381-.205-.412-1.094-.8-2.08-.908-.85-.094-1.046-.054-1.848.376-.494.265-.98.643-1.082.84-.1.198-.368.557-.594.798-.502.537-1.079 1.659-1.358 2.643-.114.404-.465 1.402-.78 2.219-.316.816-.597 1.771-.625 2.122-.05.63-.042.64.684.832.87.23 2.166.123 3.46-.288zm-7.183 6.51c-.107-.107-.196-.4-.196-.649 0-.624 1.195-4.99 2.07-7.563.396-1.167.78-2.342.85-2.612.248-.933 2.501-4.978 2.775-4.98.056 0 .489-.358.962-.795.748-.69.994-.815 1.874-.956.597-.096 1.215-.105 1.505-.022.271.077.718.141.994.141.984 0 2.228 1.675 2.5 3.366.39 2.434-.358 4.4-2.472 6.506-1.127 1.122-3.235 2.536-3.78 2.536a.258.258 0 00-.257.256c0 .408 2.067 2.945 2.706 3.322.496.292.572.416.529.855-.079.788-.467.933-1.351.503-.408-.198-.741-.436-.741-.529 0-.093-.404-.58-.898-1.081-.494-.502-.898-1.008-.898-1.124 0-.117-.371-.546-.824-.953-.83-.747-1.665-1.033-2.611-.896-.408.059-.663.698-1.226 3.074-.382 1.613-.924 2.188-1.51 1.602z"/></svg>