<svg xmlns="http://www.w3.org/2000/svg" height="20.378" width="39.99"><path d="M19.227 7.915c-.158-.346-.135-.484.142-.857.623-.839 1.738-.483 1.44.459-.275.863-1.257 1.11-1.582.398zM.198 12.465c-.323-.13-.238-.968.163-1.595C1.563 8.992 1.51 9.141 1.4 7.95c-.057-.612-.253-1.406-.436-1.764-.522-1.024-.1-1.689.78-1.228.9.471 1.33 3.428.739 5.09-.18.508-.6 1.13-1.123 1.668-.459.471-.862.851-.896.844a2.653 2.653 0 01-.265-.095zm35.605-3.28c.684-.945 1.252-1.839 1.252-1.97 0-.067.127-.302.282-.523.5-.713 1.178-2.964 1.183-3.923.004-.887-.183-1.298-.592-1.298-.24 0-1.289 1.822-1.456 2.53-.063.27-.172.564-.241.653-.07.09-.174.457-.232.817-.18 1.115-.615 2.93-.743 3.102-.068.09-.174.402-.236.694-.158.74.216.701.783-.082zM9.747 12.882a16.76 16.76 0 001.594-.477c.45-.163.982-.344 1.184-.402.202-.058.367-.175.367-.26 0-.085.386-.341.857-.57.821-.4 1.961-1.587 2.551-2.658.379-.688.15-2.086-.552-3.363-.995-1.81-1.367-2.049-3.196-2.049-.93 0-1.253.074-1.782.409-.356.224-.703.408-.772.41-.407.005-2.33 2.497-2.33 3.017 0 .21-.103.59-.228.845-.126.254-.342.866-.48 1.36-.814 2.913-.924 3.663-.557 3.81.384.156 2.566.109 3.344-.072zm9.966 7.156c-1.22-.775-1.575-1.285-1.823-2.608-.063-.339-.21-.612-.33-.612-.117 0-.463.3-.767.667-.305.367-1.024 1.028-1.599 1.47-.95.728-1.123.801-1.912.801-.48 0-1.129-.124-1.449-.276-.597-.285-1.433-1.415-1.609-2.177-.154-.666-1.292-2.164-1.74-2.29a156.48 156.48 0 00-1.143-.314c-.404-.11-.862-.265-1.018-.346-.313-.163-.778-.198-.778-.06 0 .405-.605 2.909-1.013 4.195-.52 1.638-.845 2.017-1.362 1.588-.41-.34-.312-1.161.42-3.503.195-.629.418-1.437.494-1.796.31-1.475.445-1.998.708-2.759.403-1.167 1.08-3.768 1.08-4.15 0-.401.79-2.025 1.064-2.189.11-.065.353-.47.541-.898.243-.551.56-.923 1.083-1.27.407-.269.74-.542.74-.607 0-.169.882-.603 1.772-.873.951-.289 2.117-.288 3.332.003.94.225 2.045.954 2.068 1.363.007.117.264.606.571 1.087.886 1.384 1.139 2.795.722 4.024-.3.882-1.416 2.37-2.136 2.847-.363.24-.91.686-1.214.99-.305.305-.632.555-.726.555-.095 0-.649.22-1.23.49-.583.269-1.118.49-1.19.49-.073 0-.22.104-.326.233-.151.181-.135.407.07 1.02.523 1.551 1.182 2.755 1.616 2.953.57.26 1.888.014 2.111-.395.091-.166.453-.592.805-.946.35-.354.862-.956 1.136-1.338.274-.38.593-.73.71-.774.116-.044.513-.49.882-.989.368-.5.772-.908.897-.908s.444-.182.709-.405c.558-.469 1.73-1 2.547-1.153.722-.136 2.514.453 2.911.956.368.465.364.974-.009 1.312-.395.358-.518.343-1.17-.138-.422-.312-.754-.408-1.398-.408-.791 0-.895.05-1.658.801-1.004.989-1.52 1.95-1.633 3.042-.082.8-.058.865.562 1.516.607.64.702.68 1.53.673 1.928-.02 4.772-.766 5.765-1.515.278-.21.946-.619 1.485-.909 1.707-.92 3.14-2.744 3.446-4.384.063-.337.283-.882.49-1.21.208-.33.427-.808.487-1.062s.208-.575.326-.712c.119-.138.322-.652.452-1.143.46-1.737.89-3.188 1.158-3.914.15-.404.427-1.175.615-1.714.395-1.131.76-1.655 1.444-2.071 1.062-.646 2.218-.207 2.573.977.325 1.084.304 1.232-.668 4.686-.206.733-.512 1.276-1.056 1.876-.203.223-.372.517-.374.653-.003.135-.168.506-.368.823-.487.775-2.9 3.587-3.077 3.587-.078 0-.142.136-.142.302 0 .166-.18.552-.401.857-.78 1.078-.944 1.503-.965 2.502-.016.768.062 1.125.346 1.582.202.325.367.813.367 1.083 0 .405-.078.508-.438.576-.24.046-.557.01-.703-.082-.315-.197-1.145-1.73-1.145-2.116 0-1.008-.54-1.015-1.757-.023-.777.634-2.263 1.428-4.039 2.16-.938.385-1.668.518-3.284.598-1.668.081-1.814.063-2.385-.3z" stroke-width=".163"/></svg>