<?xml version="1.0" encoding="UTF-8" standalone="no"?>
<svg
   xmlns:dc="http://purl.org/dc/elements/1.1/"
   xmlns:cc="http://creativecommons.org/ns#"
   xmlns:rdf="http://www.w3.org/1999/02/22-rdf-syntax-ns#"
   xmlns:svg="http://www.w3.org/2000/svg"
   xmlns="http://www.w3.org/2000/svg"
   id="svg2502"
   viewBox="0 0 54.152613 21.09067"
   version="1.1"
   height="21.09067"
   width="54.152615">
  <defs
     id="defs2506" />
  <metadata
     id="metadata2">
    <rdf:RDF>
      <cc:Work
         rdf:about="">
        <dc:format>image/svg+xml</dc:format>
        <dc:type
           rdf:resource="http://purl.org/dc/dcmitype/StillImage" />
        <dc:title />
      </cc:Work>
    </rdf:RDF>
  </metadata>
  <g
     transform="translate(-643.27075,-427.7862)"
     style="stroke-width:0.16327"
     id="g2500">
    <path
       d="m 661.75,437.35 c -0.76605,-0.36919 -0.61203,-1.61 0.24007,-1.9339 0.61205,-0.2327 1.0997,-0.0753 1.3295,0.42909 0.16467,0.36144 0.14286,0.49564 -0.14662,0.90221 -0.28947,0.40651 -0.8244,0.83018 -1.0005,0.79242 -0.0283,-0.006 -0.21845,-0.0915 -0.42244,-0.1898 z m -18.387,2.3916 c -0.15358,-0.40021 -0.11691,-0.76594 0.12141,-1.2111 0.12018,-0.22449 0.48707,-0.90093 0.81533,-1.5032 0.79252,-1.4541 0.82369,-2.5115 0.10215,-3.4651 -0.43376,-0.57327 -0.46176,-0.67779 -0.26246,-0.97959 0.38245,-0.57909 0.83103,-0.49958 1.6594,0.29409 l 0.76487,0.73286 -0.0687,1.3584 c -0.0614,1.2135 -0.13235,1.4629 -0.6651,2.338 -0.328,0.53877 -0.79768,1.3653 -1.0437,1.8367 -0.37062,0.71007 -0.52258,0.85714 -0.88569,0.85714 -0.24907,0 -0.48111,-0.11149 -0.53742,-0.25825 z m 35.607,-3.2999 c 0.60111,-0.38213 2.1575,-4.9581 2.167,-6.3713 0.005,-0.66755 -0.0181,-0.702 -0.4281,-0.65307 -0.66909,0.0799 -0.99954,0.70149 -1.5029,2.8272 -0.95948,4.052 -0.99476,4.6795 -0.23602,4.1972 z m -24.441,5.1473 c 1.1038,-0.38946 2.55,-1.5638 3.1772,-2.5799 1.6098,-2.6082 0.91828,-5.413 -1.6623,-6.7421 -0.65584,-0.33778 -1.6151,-0.16095 -2.7469,0.50633 -0.61912,0.36505 -0.8885,0.68379 -1.4159,1.6753 -0.35824,0.67347 -0.86412,1.4957 -1.1242,1.8272 -0.26007,0.33146 -0.47285,0.697 -0.47285,0.81228 0,0.11528 -0.17504,0.68898 -0.38898,1.2749 -0.62545,1.7128 -0.75388,2.1953 -0.75388,2.832 v 0.60065 l 2.4082,-0.002 c 1.4872,-0.002 2.6267,-0.0796 2.9796,-0.20408 z m -8.3772,7.2018 c -0.35936,-0.20113 -0.36607,-1.4185 -0.0134,-2.4239 0.14176,-0.40408 0.36077,-1.1755 0.48668,-1.7143 0.37535,-1.6061 1.1384,-4.3785 1.3257,-4.8163 0.096,-0.22449 0.34638,-0.9896 0.55637,-1.7002 0.20999,-0.71064 0.59283,-1.5834 0.85075,-1.9394 0.25791,-0.35605 0.6719,-1.0971 0.91998,-1.6467 0.55154,-1.222 1.9573,-2.7223 3.0782,-3.2853 0.44867,-0.22535 1.2604,-0.45621 1.8038,-0.51301 0.85665,-0.0895 1.1028,-0.0471 1.852,0.31951 1.8298,0.8953 2.9478,2.7982 2.9478,5.0172 0,1.02 -0.0814,1.4303 -0.42965,2.1665 -0.23631,0.49951 -0.42965,1.0097 -0.42965,1.1338 0,0.12406 -0.1653,0.37862 -0.36734,0.56569 -0.20204,0.18707 -0.55102,0.54298 -0.77551,0.79091 -0.52585,0.58075 -1.9412,1.7034 -2.1476,1.7034 -0.34699,0 -1.9341,0.82379 -1.9341,1.0039 0,0.20697 0.90495,1.6772 1.3061,2.122 0.13469,0.14934 0.37689,0.4622 0.53823,0.69525 0.33434,0.48295 0.89083,0.55061 1.559,0.18957 0.23835,-0.12879 0.63726,-0.2776 0.88648,-0.3307 0.24923,-0.0531 0.59821,-0.24158 0.77551,-0.41889 0.17731,-0.1773 0.38848,-0.32238 0.46928,-0.32238 0.22532,0 1.7696,-1.7455 2.3699,-2.6786 0.60185,-0.93561 3.0577,-3.1989 3.4711,-3.1989 0.0772,0 0.41073,-0.18368 0.7411,-0.40817 0.7413,-0.50372 1.8348,-0.54373 2.7061,-0.099 0.88491,0.45164 1.2374,0.89799 1.11,1.4055 -0.14671,0.58456 -0.4822,0.66175 -1.1316,0.26036 -0.54759,-0.33841 -1.5337,-0.43657 -2.0944,-0.20847 -0.15001,0.061 -0.62817,0.44815 -1.0625,0.86025 -0.67252,0.63802 -0.82275,0.89779 -1.0117,1.7497 -0.32798,1.4784 -0.17897,1.9592 0.89988,2.9039 1.1239,0.98409 1.2092,1.0204 2.4312,1.0346 0.89015,0.0104 1.4952,-0.19518 1.8731,-0.63634 0.0449,-0.0524 0.41095,-0.35056 0.81345,-0.66251 0.4025,-0.31197 0.85919,-0.69329 1.0149,-0.84738 0.15566,-0.15409 0.56994,-0.46128 0.92062,-0.68265 0.35068,-0.22137 1.1006,-0.9133 1.6664,-1.5376 0.90253,-0.99574 1.108,-1.3529 1.6734,-2.9092 0.35453,-0.97574 0.71308,-2.1414 0.79678,-2.5904 0.0837,-0.449 0.36338,-1.4776 0.62152,-2.2857 0.25814,-0.80817 0.51772,-1.7633 0.57684,-2.1224 0.0591,-0.35919 0.24809,-1.0758 0.41993,-1.5925 0.17184,-0.51669 0.31243,-1.091 0.31243,-1.2762 0,-0.50478 0.70462,-1.3267 1.5145,-1.7666 0.92684,-0.50346 1.8009,-0.39071 2.1342,0.27529 0.53022,1.0595 -0.11621,5.4351 -0.94562,6.4008 -0.11569,0.1347 -0.2606,0.46531 -0.32205,0.7347 -0.12495,0.54774 -1.028,1.9671 -1.8442,2.8984 -0.29532,0.337 -0.53693,0.72682 -0.53693,0.8663 0,0.13948 -0.3656,0.70542 -0.81245,1.2577 -0.94178,1.1639 -1.2821,2.0373 -1.4148,3.6306 -0.0842,1.0119 -0.0543,1.1943 0.26155,1.5918 0.23706,0.2984 0.51035,0.44898 0.81485,0.44898 0.7592,0 2.6414,-1.2218 4.8056,-3.1197 1.3629,-1.1952 1.739,-1.5757 3.5322,-3.5742 1.0072,-1.1224 2.5939,-2.7869 3.5262,-3.6988 0.93224,-0.91187 1.695,-1.696 1.695,-1.7426 0,-0.14788 0.95329,-1.0443 1.219,-1.1462 0.14042,-0.0539 0.31923,-0.26515 0.39736,-0.4695 0.0781,-0.20434 0.46274,-0.66684 0.85469,-1.0278 0.39197,-0.36093 0.85959,-0.87064 1.0392,-1.1327 0.17959,-0.26204 0.72428,-0.87045 1.2104,-1.352 0.68069,-0.6743 0.98061,-0.86429 1.3047,-0.82648 0.65128,0.0759 0.61024,0.54527 -0.10803,1.2354 -0.35073,0.33698 -0.68799,0.81311 -0.74947,1.0581 -0.0615,0.24495 -0.31265,0.57302 -0.55817,0.72902 -0.50302,0.31962 -1.1806,1.036 -1.1809,1.2486 0,0.14552 -1.7978,2.0082 -5.1022,5.287 -1.0551,1.0469 -1.9218,1.9806 -1.9261,2.0748 -0.004,0.0942 -0.40833,0.49182 -0.89796,0.88356 -0.48963,0.39174 -0.89024,0.80214 -0.89024,0.91199 0,0.31467 -3.5522,3.5196 -4.596,4.1467 -0.32782,0.19695 -0.63475,0.45901 -0.68209,0.58235 -0.0473,0.12333 -0.44034,0.39729 -0.87335,0.60879 -0.433,0.21149 -0.82402,0.42778 -0.86891,0.48067 -0.0449,0.0529 -0.43016,0.18245 -0.85614,0.28796 -0.71745,0.17769 -0.83506,0.16015 -1.5966,-0.23802 -0.91827,-0.48016 -1.0061,-0.60189 -1.312,-1.8192 -0.14986,-0.59638 -0.29655,-0.85714 -0.48214,-0.85714 -0.14671,0 -0.87603,0.45918 -1.6207,1.0204 -2.7982,2.1088 -3.2333,2.3763 -4.1893,2.5748 -1.1274,0.23405 -1.8459,0.13525 -3.0604,-0.42075 -1.3377,-0.61242 -2.4216,-2.021 -2.6298,-3.4176 l -0.12145,-0.81454 -0.31783,0.40638 c -0.76185,0.97414 -2.8693,2.9577 -3.2423,3.0517 -0.22449,0.0566 -0.84898,0.31099 -1.3878,0.56537 -1.122,0.52978 -1.4859,0.56258 -2.3296,0.21009 -0.80892,-0.33799 -1.3087,-0.82757 -1.7089,-1.6741 -0.55923,-1.1829 -1.5503,-2.1195 -2.6415,-2.4962 -0.5311,-0.18335 -1.3083,-0.37394 -1.727,-0.42354 l -0.7614,-0.0902 -0.43794,1.2336 c -0.24087,0.67848 -0.48417,1.5708 -0.54066,1.983 -0.0565,0.41219 -0.16594,0.78852 -0.2432,0.83626 -0.0772,0.0478 -0.14045,0.27099 -0.14045,0.49608 0,0.81569 -0.5025,1.3111 -1.0303,1.0157 z"
       id="articles" />
  </g>
</svg>
