<?xml version="1.0" encoding="UTF-8" standalone="no"?>
<svg
   xmlns:dc="http://purl.org/dc/elements/1.1/"
   xmlns:cc="http://creativecommons.org/ns#"
   xmlns:rdf="http://www.w3.org/1999/02/22-rdf-syntax-ns#"
   xmlns:svg="http://www.w3.org/2000/svg"
   xmlns="http://www.w3.org/2000/svg"
   id="svg2502"
   viewBox="0 0 39.990172 20.37845"
   version="1.1"
   height="20.37845"
   width="39.990173">
  <defs
     id="defs2506" />
  <metadata
     id="metadata2">
    <rdf:RDF>
      <cc:Work
         rdf:about="">
        <dc:format>image/svg+xml</dc:format>
        <dc:type
           rdf:resource="http://purl.org/dc/dcmitype/StillImage" />
        <dc:title />
      </cc:Work>
    </rdf:RDF>
  </metadata>
  <g
     transform="translate(-644.41299,-402.44485)"
     style="stroke-width:0.16327"
     id="g2500">
    <path
       d="m 663.64,410.36 c -0.15779,-0.34632 -0.13489,-0.48451 0.14209,-0.85714 0.62332,-0.8386 1.7381,-0.48312 1.4391,0.4589 -0.27396,0.86316 -1.2566,1.1106 -1.5812,0.39824 z m -19.029,4.5496 c -0.32346,-0.13051 -0.23776,-0.96759 0.16327,-1.5945 1.2018,-1.8786 1.1486,-1.729 1.0379,-2.9203 -0.0569,-0.612 -0.253,-1.406 -0.43584,-1.7644 -0.5221,-1.0234 -0.0996,-1.6885 0.77992,-1.2276 0.89995,0.47154 1.3289,3.4284 0.73845,5.0906 -0.18028,0.50749 -0.59954,1.1302 -1.1225,1.6672 -0.45912,0.47143 -0.86229,0.85134 -0.89592,0.84426 -0.0336,-0.007 -0.153,-0.05 -0.26524,-0.0953 z m 35.605,-3.2798 c 0.68447,-0.94531 1.252,-1.8387 1.252,-1.9709 0,-0.0658 0.12678,-0.30068 0.28173,-0.52192 0.49955,-0.71319 1.1783,-2.964 1.1831,-3.9235 0.004,-0.88709 -0.1828,-1.298 -0.59155,-1.298 -0.24036,0 -1.2891,1.8228 -1.4559,2.5306 -0.0635,0.26939 -0.17222,0.56327 -0.2416,0.65306 -0.0694,0.0898 -0.17364,0.45715 -0.2317,0.81633 -0.18033,1.1156 -0.61535,2.9308 -0.74343,3.102 -0.0672,0.0898 -0.17318,0.40204 -0.23558,0.69388 -0.15836,0.74068 0.21579,0.70168 0.78296,-0.0816 z m -26.056,3.6972 c 0.42782,-0.0992 1.1452,-0.31377 1.5942,-0.4768 0.44898,-0.16304 0.98163,-0.34396 1.1837,-0.40205 0.20204,-0.0581 0.36735,-0.1751 0.36735,-0.26 0,-0.0849 0.38571,-0.34176 0.85714,-0.57077 0.82067,-0.39868 1.9608,-1.5867 2.5507,-2.6577 0.37886,-0.68787 0.14916,-2.086 -0.55242,-3.3628 -0.99493,-1.8106 -1.3663,-2.0487 -3.1958,-2.0487 -0.92991,0 -1.2525,0.0739 -1.782,0.40817 -0.35561,0.22449 -0.70314,0.40894 -0.77226,0.40989 -0.40614,0.006 -2.3298,2.4975 -2.3298,3.018 0,0.21033 -0.10273,0.59042 -0.22826,0.84464 -0.12555,0.2542 -0.34121,0.86628 -0.47927,1.3602 -0.81399,2.9123 -0.92382,3.6625 -0.55778,3.8102 0.38483,0.15528 2.5667,0.10814 3.3446,-0.0723 z m 9.9659,7.1563 c -1.219,-0.77577 -1.575,-1.2852 -1.8229,-2.6086 -0.0634,-0.33859 -0.21051,-0.61224 -0.32913,-0.61224 -0.11796,0 -0.4636,0.30028 -0.76811,0.66726 -0.30449,0.36701 -1.0238,1.0282 -1.5984,1.4694 -0.94964,0.72908 -1.1238,0.80212 -1.9128,0.80212 -0.47897,0 -1.1282,-0.12406 -1.4485,-0.27676 -0.59709,-0.28474 -1.4326,-1.415 -1.6088,-2.1765 -0.15415,-0.66612 -1.2924,-2.1641 -1.7402,-2.2902 -0.22449,-0.0632 -0.73877,-0.20447 -1.1428,-0.31393 -0.40408,-0.10943 -0.86227,-0.2653 -1.0182,-0.34635 -0.31265,-0.1625 -0.77773,-0.19768 -0.77773,-0.0588 0,0.40408 -0.60505,2.908 -1.0134,4.1939 -0.52029,1.6384 -0.84519,2.0174 -1.3618,1.5887 -0.40987,-0.34018 -0.31164,-1.1615 0.41911,-3.5037 0.19609,-0.62857 0.41854,-1.4367 0.49432,-1.7959 0.3112,-1.475 0.44529,-1.9974 0.70816,-2.7584 0.40331,-1.1677 1.0801,-3.7686 1.0801,-4.1507 0,-0.401 0.7895,-2.0245 1.0644,-2.1888 0.10886,-0.0651 0.35231,-0.46916 0.54098,-0.89796 0.24248,-0.55115 0.55982,-0.92318 1.0827,-1.2694 0.40686,-0.26939 0.73989,-0.54301 0.74008,-0.60805 0,-0.16821 0.88247,-0.60239 1.7722,-0.87241 0.95102,-0.28864 2.1173,-0.28771 3.3323,0.003 0.93892,0.22438 2.0449,0.95357 2.0677,1.3632 0.007,0.11657 0.26354,0.6055 0.57125,1.0865 0.88547,1.3842 1.1385,2.7955 0.72161,4.0241 -0.29917,0.88165 -1.4164,2.3706 -2.1361,2.8469 -0.36315,0.24031 -0.90953,0.6862 -1.2142,0.99087 -0.30467,0.30466 -0.63144,0.55393 -0.72617,0.55393 -0.0947,0 -0.64842,0.22041 -1.2304,0.4898 -0.58203,0.26938 -1.1176,0.48979 -1.1901,0.48979 -0.0725,0 -0.21904,0.105 -0.32554,0.23334 -0.1508,0.18171 -0.135,0.40751 0.0714,1.0204 0.52245,1.5511 1.181,2.7554 1.615,2.9531 0.57045,0.25991 1.888,0.0137 2.1115,-0.39457 0.091,-0.16616 0.4528,-0.59207 0.80412,-0.9465 0.35131,-0.35442 0.86274,-0.95628 1.1365,-1.3375 0.27376,-0.38119 0.59293,-0.72961 0.70929,-0.77425 0.11634,-0.0446 0.51334,-0.48972 0.88222,-0.98905 0.36886,-0.49933 0.77293,-0.90787 0.89789,-0.90787 0.12498,0 0.44377,-0.18222 0.70844,-0.40491 0.55777,-0.46934 1.7305,-1.0005 2.5474,-1.1537 0.72152,-0.13537 2.514,0.4536 2.9112,0.95653 0.36737,0.46518 0.36377,0.97391 -0.009,1.3115 -0.39549,0.35791 -0.51833,0.34343 -1.1708,-0.13796 -0.42209,-0.31139 -0.75334,-0.40816 -1.3973,-0.40816 -0.79141,0 -0.89491,0.05 -1.6584,0.80157 -1.0043,0.9886 -1.5199,1.9492 -1.6327,3.0418 -0.0825,0.79914 -0.058,0.86533 0.5615,1.5165 0.60763,0.63875 0.7024,0.68039 1.5302,0.67227 1.9283,-0.0189 4.7716,-0.76615 5.765,-1.5151 0.27784,-0.20947 0.94597,-0.61837 1.4848,-0.90867 1.7068,-0.91966 3.1409,-2.7442 3.4462,-4.3843 0.0626,-0.33651 0.2834,-0.88124 0.4906,-1.2105 0.2072,-0.32928 0.42625,-0.80683 0.48679,-1.0612 0.0605,-0.2544 0.20712,-0.5749 0.32573,-0.71221 0.11862,-0.13732 0.32208,-0.65161 0.45213,-1.1429 0.45995,-1.7373 0.88918,-3.1878 1.1581,-3.9136 0.14971,-0.40408 0.42616,-1.1755 0.61429,-1.7143 0.39503,-1.1312 0.76021,-1.6547 1.4447,-2.071 1.0619,-0.64576 2.2181,-0.20676 2.5727,0.9768 0.32485,1.0843 0.30378,1.232 -0.6681,4.686 -0.20617,0.73272 -0.51223,1.2762 -1.0563,1.8759 -0.20288,0.22358 -0.37114,0.51745 -0.37395,0.65306 -0.003,0.13561 -0.16811,0.50596 -0.36734,0.823 -0.4873,0.77545 -2.8996,3.5868 -3.0776,3.5868 -0.078,0 -0.14176,0.13608 -0.14176,0.30238 0,0.16632 -0.18056,0.55204 -0.40123,0.85715 -0.77978,1.0782 -0.94337,1.5027 -0.96431,2.5024 -0.016,0.76785 0.0619,1.1242 0.34587,1.5818 0.20163,0.3249 0.36661,0.81225 0.36661,1.083 0,0.40432 -0.0782,0.50725 -0.43762,0.57596 -0.24068,0.046 -0.55699,0.009 -0.70289,-0.082 -0.3151,-0.19679 -1.1452,-1.7306 -1.1452,-2.1161 0,-1.008 -0.54047,-1.015 -1.7574,-0.0227 -0.77683,0.63337 -2.2633,1.428 -4.0385,2.1588 -0.93803,0.38618 -1.6683,0.51922 -3.284,0.59832 -1.6682,0.0817 -1.8146,0.0633 -2.3852,-0.29985 z"
       id="article" />
  </g>
</svg>
