<svg xmlns="http://www.w3.org/2000/svg" height="21.091" width="54.153"><path d="M18.48 9.564c-.767-.37-.613-1.61.24-1.934.611-.233 1.099-.075 1.329.429.164.361.143.496-.147.902-.29.407-.824.83-1 .793a5.264 5.264 0 01-.423-.19zM.091 11.955c-.153-.4-.117-.766.122-1.21.12-.225.487-.902.815-1.504.793-1.454.824-2.511.102-3.465-.434-.573-.462-.678-.262-.98.382-.579.83-.5 1.66.295l.764.732-.069 1.359c-.061 1.213-.132 1.463-.665 2.338a39.114 39.114 0 00-1.044 1.836c-.37.71-.522.858-.885.858-.25 0-.481-.112-.538-.259zm35.607-3.3c.601-.382 2.158-4.958 2.167-6.37.005-.668-.018-.703-.428-.654-.669.08-1 .702-1.503 2.827-.96 4.052-.995 4.68-.236 4.198zm-24.44 5.148c1.103-.39 2.55-1.564 3.176-2.58 1.61-2.608.919-5.413-1.662-6.742-.656-.338-1.615-.161-2.747.506-.619.365-.888.684-1.416 1.675-.358.674-.864 1.496-1.124 1.828-.26.331-.473.697-.473.812 0 .115-.175.689-.389 1.275C6 12.29 5.87 12.772 5.87 13.409v.6l2.409-.002c1.487-.002 2.626-.08 2.98-.204zM2.88 21.005c-.36-.202-.366-1.419-.013-2.424.141-.404.36-1.176.486-1.715.376-1.606 1.139-4.378 1.326-4.816.096-.224.346-.99.556-1.7.21-.71.593-1.583.851-1.94.258-.356.672-1.097.92-1.646.552-1.222 1.957-2.722 3.078-3.285.449-.226 1.26-.457 1.804-.514.857-.089 1.103-.047 1.852.32 1.83.895 2.948 2.798 2.948 5.017 0 1.02-.081 1.43-.43 2.167-.236.5-.43 1.01-.43 1.134 0 .124-.165.378-.367.565-.202.187-.55.543-.775.791-.526.58-1.941 1.704-2.148 1.704-.347 0-1.934.823-1.934 1.003 0 .207.905 1.678 1.306 2.122.135.15.377.463.538.696.335.483.891.55 1.56.19.238-.13.637-.278.886-.331.25-.054.598-.242.775-.42.178-.177.389-.322.47-.322.225 0 1.77-1.745 2.37-2.678.601-.936 3.057-3.2 3.47-3.2.078 0 .411-.183.742-.407.741-.504 1.835-.544 2.706-.1.885.452 1.237.899 1.11 1.406-.147.585-.482.662-1.132.26-.547-.338-1.533-.436-2.094-.208-.15.061-.628.448-1.063.86-.672.638-.822.898-1.011 1.75-.328 1.478-.18 1.96.9 2.904 1.123.984 1.209 1.02 2.43 1.034.89.01 1.496-.195 1.874-.636.045-.052.41-.35.813-.662.403-.312.86-.694 1.015-.848.156-.154.57-.461.92-.682.352-.222 1.101-.914 1.667-1.538.903-.996 1.108-1.353 1.674-2.91.354-.975.713-2.14.796-2.59.084-.449.364-1.477.622-2.285.258-.809.518-1.764.577-2.123.059-.359.248-1.076.42-1.592.172-.517.312-1.091.312-1.276 0-.505.705-1.327 1.515-1.767.926-.504 1.8-.39 2.134.275.53 1.06-.116 5.435-.946 6.401-.115.135-.26.465-.322.735-.125.547-1.028 1.967-1.844 2.898-.295.337-.537.727-.537.866 0 .14-.366.706-.812 1.258-.942 1.164-1.283 2.037-1.415 3.63-.084 1.013-.055 1.195.261 1.593.237.298.51.449.815.449.76 0 2.642-1.222 4.806-3.12 1.363-1.195 1.739-1.576 3.532-3.574a95.553 95.553 0 013.526-3.7c.932-.911 1.695-1.695 1.695-1.742 0-.148.953-1.044 1.22-1.146.14-.054.318-.265.397-.47.078-.204.462-.666.854-1.027.392-.361.86-.87 1.04-1.133.179-.262.724-.87 1.21-1.352.68-.674.98-.864 1.305-.826.65.075.61.545-.109 1.235-.35.337-.687.813-.749 1.058-.061.245-.313.573-.558.73-.503.319-1.18 1.035-1.181 1.248 0 .145-1.798 2.008-5.102 5.287-1.055 1.047-1.922 1.98-1.926 2.074-.004.095-.409.492-.898.884-.49.392-.89.802-.89.912 0 .315-3.553 3.52-4.597 4.147-.327.197-.634.459-.682.582-.047.123-.44.397-.873.609-.433.211-.824.428-.869.48-.045.053-.43.183-.856.288-.717.178-.835.16-1.597-.238-.918-.48-1.006-.601-1.312-1.819-.15-.596-.296-.857-.482-.857-.146 0-.876.46-1.62 1.02-2.799 2.11-3.234 2.377-4.19 2.575-1.127.234-1.846.136-3.06-.42-1.338-.613-2.422-2.021-2.63-3.418l-.121-.815-.318.407c-.762.974-2.87 2.958-3.243 3.052-.224.056-.849.31-1.387.565-1.122.53-1.486.562-2.33.21-.809-.338-1.309-.828-1.709-1.674-.56-1.183-1.55-2.12-2.641-2.496-.531-.184-1.309-.374-1.727-.424l-.762-.09-.438 1.234c-.24.678-.484 1.57-.54 1.983-.057.412-.166.788-.244.836-.077.048-.14.27-.14.496 0 .816-.503 1.311-1.03 1.016z"/></svg>