<svg xmlns="http://www.w3.org/2000/svg" height="13.29" width="13.891"><path d="M.312 7.301C.212 7.235.08 7.023.02 6.83c-.087-.279.095-.583.867-1.454.858-.966.99-1.207 1.086-1.97.127-1.015.012-1.592-.428-2.151-.71-.904-.09-1.58 1-1.089.755.341 1.133 1.143 1.133 2.407 0 1.16-.685 2.537-1.907 3.834C.807 7.428.65 7.524.31 7.3zm.95 5.807c-.108-.108-.197-.298-.197-.423 0-.357.856-1.466 1.306-1.694.225-.114.829-.577 1.343-1.029.513-.452 1.234-1.079 1.602-1.393.776-.663 3.4-3.241 4.25-4.176 1.07-1.175 1.864-1.636 2.533-1.468.277.07.459.41.852 1.6.275.833.618 2.025.762 2.65.252 1.092.248 1.18-.085 2.285-.19.632-.478 1.297-.638 1.476-.16.18-.377.492-.481.694-.29.563-1.34 1.02-2.345 1.02-.712 0-1.052-.107-1.842-.583-.533-.321-1.098-.722-1.256-.891-.383-.412-.362-1.012.044-1.265.375-.234.608-.144 1.705.658.598.437.746.474 1.616.397.527-.046 1.024-.15 1.106-.232.268-.268.794-1.906.794-2.475 0-.515-.328-1.865-.669-2.751-.242-.63-.737-.43-1.921.775-.618.629-1.192 1.143-1.275 1.143-.084 0-.536.404-1.004.898-.468.494-.95.898-1.07.898-.12 0-.59.386-1.044.857-1.075 1.114-2.612 2.462-2.96 2.594a1.44 1.44 0 00-.491.367c-.261.315-.376.327-.636.068z"/></svg>