<?xml version="1.0" encoding="UTF-8" standalone="no"?>
<svg
   xmlns:dc="http://purl.org/dc/elements/1.1/"
   xmlns:cc="http://creativecommons.org/ns#"
   xmlns:rdf="http://www.w3.org/1999/02/22-rdf-syntax-ns#"
   xmlns:svg="http://www.w3.org/2000/svg"
   xmlns="http://www.w3.org/2000/svg"
   id="svg2502"
   viewBox="0 0 13.891 13.290424"
   version="1.1"
   height="13.290424"
   width="13.891001">
  <defs
     id="defs2506" />
  <metadata
     id="metadata2">
    <rdf:RDF>
      <cc:Work
         rdf:about="">
        <dc:format>image/svg+xml</dc:format>
        <dc:type
           rdf:resource="http://purl.org/dc/dcmitype/StillImage" />
        <dc:title />
      </cc:Work>
    </rdf:RDF>
  </metadata>
  <g
     transform="translate(-644.80811,-459.18884)"
     style="stroke-width:0.16327"
     id="g2500">
    <path
       d="m 645.12,466.49 c -0.10014,-0.066 -0.23154,-0.27856 -0.292,-0.47242 -0.0869,-0.27868 0.0947,-0.58293 0.8673,-1.4533 0.85798,-0.96653 0.9905,-1.2071 1.086,-1.9711 0.12671,-1.0143 0.0119,-1.5913 -0.42808,-2.1506 -0.71097,-0.90387 -0.0902,-1.5799 0.99951,-1.0885 0.75574,0.34078 1.1331,1.1426 1.1329,2.407 0,1.1599 -0.68488,2.5363 -1.907,3.8334 -0.96331,1.0225 -1.1199,1.1186 -1.4586,0.89546 z m 0.94942,5.8066 c -0.10775,-0.10775 -0.19591,-0.29806 -0.19591,-0.42289 0,-0.35654 0.85516,-1.4656 1.3061,-1.6939 0.22449,-0.11365 0.82847,-0.57651 1.3422,-1.0286 0.51371,-0.45207 1.2348,-1.0791 1.6025,-1.3934 0.77531,-0.66278 3.3995,-3.2414 4.25,-4.1762 1.0692,-1.1752 1.8638,-1.6357 2.5327,-1.4678 0.27731,0.0696 0.45879,0.41056 0.85213,1.6009 0.27489,0.83185 0.61762,2.0237 0.76162,2.6486 0.25187,1.0929 0.24864,1.1799 -0.0847,2.2857 -0.1906,0.63228 -0.47778,1.2965 -0.63821,1.4761 -0.16042,0.17959 -0.3768,0.49159 -0.48081,0.69334 -0.29065,0.56374 -1.3406,1.021 -2.3446,1.021 -0.71188,0 -1.0524,-0.10785 -1.8425,-0.58364 -0.53307,-0.321 -1.0981,-0.72201 -1.2557,-0.89114 -0.38334,-0.41147 -0.36258,-1.0114 0.0438,-1.2652 0.37458,-0.23393 0.60761,-0.14395 1.7055,0.65853 0.59803,0.43713 0.74554,0.47337 1.6158,0.39705 0.52671,-0.0462 1.0242,-0.15049 1.1054,-0.23174 0.26878,-0.26879 0.79407,-1.9063 0.79407,-2.4754 0,-0.51479 -0.32795,-1.865 -0.66828,-2.7514 -0.24192,-0.63007 -0.73732,-0.43015 -1.9216,0.77551 -0.61746,0.62857 -1.1914,1.1429 -1.2753,1.1429 -0.084,0 -0.53568,0.40408 -1.0038,0.89796 -0.46812,0.49388 -0.94918,0.89796 -1.069,0.89796 -0.11987,0 -0.58998,0.38571 -1.0447,0.85714 -1.0747,1.1142 -2.6119,2.4617 -2.9592,2.594 -0.15042,0.0573 -0.37176,0.22261 -0.49189,0.36734 -0.26107,0.31458 -0.37606,0.32675 -0.63556,0.0673 z"
       id="as" />
  </g>
</svg>
