<?xml version="1.0" encoding="UTF-8" standalone="no"?>
<svg
   xmlns:dc="http://purl.org/dc/elements/1.1/"
   xmlns:cc="http://creativecommons.org/ns#"
   xmlns:rdf="http://www.w3.org/1999/02/22-rdf-syntax-ns#"
   xmlns:svg="http://www.w3.org/2000/svg"
   xmlns="http://www.w3.org/2000/svg"
   id="svg2502"
   viewBox="0 0 44.305586 18.099096"
   version="1.1"
   height="18.099096"
   width="44.305588">
  <defs
     id="defs2506" />
  <metadata
     id="metadata2">
    <rdf:RDF>
      <cc:Work
         rdf:about="">
        <dc:format>image/svg+xml</dc:format>
        <dc:type
           rdf:resource="http://purl.org/dc/dcmitype/StillImage" />
        <dc:title />
      </cc:Work>
    </rdf:RDF>
  </metadata>
  <g
     transform="translate(-644.88921,-476.59192)"
     style="stroke-width:0.16327"
     id="g2500">
    <path
       d="m 676.16,484.72 c -0.0596,-0.0963 0.13417,-0.55553 0.43048,-1.0204 0.29631,-0.46486 0.75329,-1.2845 1.0155,-1.8215 0.44166,-0.90436 0.46292,-1.0306 0.28854,-1.7143 -0.30274,-1.187 -0.29703,-1.2233 0.20108,-1.2804 0.61291,-0.0703 0.88747,0.19032 1.1526,1.094 0.18911,0.64449 0.18663,0.87362 -0.0171,1.5709 -0.13115,0.44898 -0.34152,0.93231 -0.46748,1.0741 -0.12594,0.14176 -0.23062,0.36217 -0.23262,0.48979 -0.005,0.32374 -0.46625,0.88293 -1.1301,1.3703 -0.59583,0.43741 -1.0623,0.52671 -1.2409,0.23762 z m -31.149,3.9847 c -0.2678,-0.26779 -0.0755,-1.1917 0.39633,-1.904 0.27786,-0.41946 0.55812,-0.76268 0.62282,-0.76268 0.28804,0 0.66792,-1.2189 0.66792,-2.143 0,-0.7419 -0.0816,-1.0929 -0.32653,-1.4042 -0.43717,-0.55579 -0.41143,-0.961 0.0816,-1.2841 0.37865,-0.24808 0.43826,-0.24772 0.82412,0.005 0.4824,0.31609 0.99997,1.1091 1.14,1.7467 0.13807,0.62867 -0.49058,2.6125 -1.159,3.6574 -0.30814,0.4817 -0.56026,0.94521 -0.56026,1.03 0,0.21813 -1.111,1.1676 -1.3662,1.1676 -0.1166,0 -0.26099,-0.049 -0.32085,-0.10885 z m 0.61659,5.587 c -0.16148,-0.24645 -0.20981,-0.48929 -0.12622,-0.63417 0.18273,-0.31665 2.2403,-2.1671 2.6586,-2.391 0.18373,-0.0983 0.33406,-0.28225 0.33406,-0.40872 0,-0.12646 0.30369,-0.47286 0.67487,-0.76976 0.37117,-0.29691 1.1637,-0.98065 1.7611,-1.5194 3.6671,-3.3071 4.1994,-3.7492 5.0486,-4.1929 0.56326,-0.29433 1.2118,0.11189 1.3589,0.85114 0.062,0.31144 0.26274,1.0805 0.44616,1.7091 0.40068,1.3732 0.42062,2.0826 0.10093,3.5919 -0.32495,1.5341 -0.31555,1.7142 0.0895,1.7142 0.60254,0 1.1336,-0.36535 2.7289,-1.8776 1.089,-1.0322 1.995,-2.1962 1.995,-2.5629 0,-0.12013 0.17964,-0.48276 0.39919,-0.80586 0.68454,-1.0074 1.1776,-1.9844 1.472,-2.9169 0.38286,-1.2126 1.0321,-2.9291 1.2967,-3.4286 0.11894,-0.22448 0.2625,-0.60272 0.31902,-0.84052 0.13348,-0.56163 2.0253,-2.5111 2.5539,-2.6316 0.22449,-0.0512 0.70204,-0.20604 1.0612,-0.34411 0.93339,-0.35878 1.6123,-0.32255 2.5134,0.1341 0.83708,0.42418 1.6216,1.4473 1.9472,2.5393 0.0937,0.31428 0.26717,0.90204 0.38549,1.3061 0.11833,0.40408 0.21515,1.1755 0.21515,1.7143 0,1.1572 -0.53132,2.3271 -1.7291,3.8074 -0.62663,0.77442 -1.0107,1.0568 -2.2899,1.6836 -0.84535,0.4142 -1.8436,0.80488 -2.2182,0.86818 -0.57618,0.0973 -0.69689,0.18653 -0.78299,0.57856 -0.15491,0.70531 0.0672,1.5635 0.51309,1.9824 0.31731,0.29809 0.63057,0.38927 1.5076,0.43884 1.5253,0.0862 2.3258,-0.3453 4.3104,-2.3235 1.5042,-1.4993 2.8592,-2.6748 3.711,-3.2194 0.70976,-0.45371 2.037,-0.65734 2.9051,-0.4457 1.2803,0.31213 1.3382,0.37143 1.3382,1.3701 0,0.49071 0.0377,0.89221 0.0839,0.89221 0.19023,0 0.8545,-0.44351 1.4672,-0.97959 0.63477,-0.55543 1.5098,-0.9009 3.3132,-1.308 0.99099,-0.22376 1.6121,-0.0575 1.9788,0.52961 0.31614,0.50624 0.29298,4.4546 -0.0284,4.8346 -0.12575,0.14869 -0.35739,0.61945 -0.51479,1.0461 -0.15739,0.42667 -0.43388,0.87923 -0.61442,1.0057 -0.28576,0.20016 -0.36851,0.19544 -0.63945,-0.0366 -0.36827,-0.31533 -0.39472,-0.71732 -0.0863,-1.3116 0.39193,-0.75507 0.63513,-1.8614 0.70704,-3.2162 0.0668,-1.2593 0.0532,-1.3222 -0.32977,-1.5272 -0.33518,-0.17938 -0.48803,-0.17391 -0.94981,0.0341 -0.30269,0.13631 -0.84423,0.33877 -1.2034,0.44992 -0.57545,0.17808 -1.0187,0.53003 -2.8048,2.2268 -0.20837,0.19796 -0.37886,0.46448 -0.37886,0.59226 0,0.12779 -0.1221,0.33316 -0.27136,0.45641 -0.14924,0.12323 -0.38801,0.41334 -0.53061,0.64469 -0.14258,0.23133 -0.46291,0.66134 -0.71182,0.95556 -0.87171,1.0304 -1.7379,0.18295 -0.96369,-0.94281 0.63825,-0.9281 1.1389,-3.2518 0.85912,-3.9876 -0.14555,-0.38282 -0.26155,-0.44574 -0.82168,-0.44574 -0.87871,0 -2.5477,0.85378 -2.8638,1.4649 -0.1316,0.2545 -0.5029,0.62564 -0.82509,0.82477 -0.3222,0.19912 -0.76571,0.64704 -0.9856,0.99535 -0.21989,0.34833 -0.47847,0.6333 -0.57461,0.6333 -0.0962,0 -0.40748,0.23947 -0.69184,0.53215 -1.2806,1.3181 -2.9105,1.859 -4.6803,1.5533 -1.8851,-0.3256 -2.5733,-1.0865 -2.7978,-3.0933 -0.10294,-0.92005 -0.27273,-1.5262 -0.56937,-2.0323 -0.34274,-0.58485 -0.38474,-0.76699 -0.22206,-0.963 0.29252,-0.35248 0.62679,-0.2987 1.2881,0.20725 1.2522,0.95804 3.3351,0.34965 5.1699,-1.51 1.2343,-1.2511 1.4631,-1.934 1.331,-3.9732 -0.11039,-1.7038 -0.4474,-2.6277 -1.1993,-3.2879 -0.69789,-0.61275 -1.2297,-0.75058 -2.0027,-0.51899 -0.84535,0.25327 -2.1407,1.1438 -2.1407,1.4716 0,0.15029 -0.17335,0.52908 -0.38522,0.84177 -0.50434,0.74427 -1.4107,2.8203 -1.4107,3.2312 0,0.37143 -1.3708,3.2163 -1.6257,3.3739 -0.0936,0.0578 -0.17018,0.2424 -0.17018,0.41012 0,0.33027 -1.284,2.288 -1.5006,2.288 -0.0727,0 -0.1321,0.14075 -0.1321,0.31276 0,0.17202 -0.30171,0.59447 -0.67048,0.93878 -0.36877,0.34431 -0.97972,0.91989 -1.3577,1.2791 -0.77108,0.73275 -3.0585,2.0118 -4.1759,2.3349 -1.0556,0.30532 -3.0474,-0.005 -4.2449,-0.66044 -0.49387,-0.27052 -1.0654,-0.57426 -1.2699,-0.67501 -0.41892,-0.20628 -0.60839,-0.72751 -0.44808,-1.2326 0.0848,-0.26728 0.24325,-0.33832 0.75456,-0.33832 0.39853,0 0.68028,0.0863 0.73332,0.22451 0.1531,0.39894 2.0785,1.1075 2.8562,1.0511 0.6057,-0.044 0.75037,-0.12946 1.029,-0.60817 0.49296,-0.84692 0.78388,-3.1214 0.56566,-4.4226 -0.0979,-0.58368 -0.2902,-1.1891 -0.42738,-1.3454 -0.23618,-0.26915 -0.28063,-0.26565 -0.8377,0.0658 -0.80535,0.47925 -3.1121,2.6648 -3.1169,2.9531 -0.002,0.0673 -0.10219,0.12245 -0.22461,0.12245 -0.1224,0 -0.55392,0.35427 -0.95895,0.78728 -0.40503,0.43299 -1.1077,1.0598 -1.5615,1.393 -0.45379,0.33311 -0.84878,0.66839 -0.87778,0.74506 -0.0854,0.22607 -2.2489,2.1359 -2.4195,2.1359 -0.0859,0 -0.27401,-0.17972 -0.41793,-0.39938 z"
       id="ascertain" />
  </g>
</svg>
