<svg xmlns="http://www.w3.org/2000/svg" height="18.099" width="44.306"><path d="M31.27 8.128c-.059-.096.135-.555.431-1.02a22.34 22.34 0 001.016-1.822c.441-.904.463-1.03.288-1.714-.302-1.187-.297-1.223.201-1.28.613-.07.888.19 1.153 1.093.19.645.187.874-.017 1.571-.131.45-.342.933-.468 1.074-.126.142-.23.363-.232.49-.005.324-.466.883-1.13 1.37-.596.438-1.063.527-1.241.238zM.123 12.113c-.268-.268-.076-1.192.396-1.904.278-.42.558-.763.623-.763.288 0 .668-1.219.668-2.143 0-.742-.082-1.093-.327-1.404-.437-.556-.411-.961.082-1.284.379-.248.438-.248.824.005.482.316 1 1.109 1.14 1.747.138.628-.49 2.612-1.159 3.657-.308.482-.56.945-.56 1.03 0 .218-1.111 1.168-1.366 1.168a.522.522 0 01-.321-.11zM.738 17.7c-.161-.247-.21-.49-.126-.634.183-.317 2.24-2.167 2.659-2.391.183-.099.334-.283.334-.41 0-.126.304-.472.675-.769.37-.297 1.163-.98 1.76-1.52 3.668-3.306 4.2-3.748 5.05-4.192.563-.294 1.211.112 1.358.851.062.311.263 1.08.446 1.71.401 1.372.421 2.082.101 3.591-.325 1.534-.315 1.714.09 1.714.602 0 1.133-.365 2.729-1.877 1.089-1.033 1.995-2.197 1.995-2.563 0-.12.18-.483.399-.806.685-1.008 1.178-1.985 1.472-2.917.383-1.213 1.032-2.93 1.297-3.429.119-.224.262-.602.319-.84.133-.562 2.025-2.511 2.554-2.632a9.993 9.993 0 001.06-.344c.934-.359 1.613-.322 2.514.134.837.424 1.622 1.447 1.947 2.54.094.314.268.902.386 1.306s.215 1.175.215 1.714c0 1.157-.531 2.327-1.73 3.807-.626.775-1.01 1.057-2.289 1.684-.845.414-1.844.805-2.218.868-.576.097-.697.187-.783.579-.155.705.067 1.563.513 1.982.317.298.63.39 1.508.439 1.525.086 2.325-.345 4.31-2.324 1.504-1.499 2.86-2.674 3.71-3.219.71-.454 2.038-.657 2.906-.446 1.28.312 1.338.372 1.338 1.37 0 .491.038.893.084.893.19 0 .855-.444 1.467-.98.635-.555 1.51-.9 3.314-1.308.99-.224 1.612-.058 1.978.53.316.506.293 4.454-.028 4.834-.126.149-.357.62-.515 1.046-.157.427-.434.88-.614 1.006-.286.2-.369.195-.64-.037-.368-.315-.394-.717-.086-1.311.392-.755.635-1.862.707-3.216.067-1.26.053-1.323-.33-1.528-.335-.179-.488-.174-.95.034-.302.137-.844.34-1.203.45-.575.178-1.019.53-2.805 2.227-.208.198-.379.465-.379.592 0 .128-.122.334-.271.457-.15.123-.388.413-.53.645a9.88 9.88 0 01-.712.955c-.872 1.03-1.738.183-.964-.943.638-.928 1.139-3.251.859-3.987-.146-.383-.262-.446-.822-.446-.878 0-2.547.854-2.863 1.465-.132.254-.503.626-.826.825-.322.199-.765.647-.985.995-.22.348-.479.633-.575.633-.096 0-.407.24-.692.532-1.28 1.319-2.91 1.86-4.68 1.554-1.885-.326-2.573-1.087-2.798-3.094-.103-.92-.272-1.526-.57-2.032-.342-.585-.384-.767-.221-.963.292-.352.627-.299 1.288.207 1.252.958 3.335.35 5.17-1.51 1.234-1.25 1.463-1.934 1.33-3.973-.11-1.704-.447-2.627-1.198-3.288-.698-.612-1.23-.75-2.003-.519-.845.254-2.14 1.144-2.14 1.472 0 .15-.174.529-.386.842-.504.744-1.41 2.82-1.41 3.23 0 .372-1.372 3.217-1.626 3.375-.094.058-.17.242-.17.41 0 .33-1.285 2.288-1.501 2.288-.073 0-.132.14-.132.313 0 .172-.302.594-.67.938-.37.345-.98.92-1.359 1.28-.77.732-3.058 2.011-4.175 2.334-1.056.306-3.048-.005-4.245-.66a47.439 47.439 0 00-1.27-.675c-.42-.206-.609-.728-.448-1.233.084-.267.243-.338.754-.338.399 0 .68.086.734.225.153.399 2.078 1.107 2.856 1.05.605-.043.75-.129 1.029-.607.493-.847.784-3.122.565-4.423-.097-.584-.29-1.19-.427-1.345-.236-.27-.28-.266-.838.065-.805.48-3.112 2.665-3.117 2.953-.002.068-.102.123-.224.123-.123 0-.554.354-.96.787a13.668 13.668 0 01-1.56 1.393c-.454.333-.85.669-.878.745-.086.226-2.25 2.136-2.42 2.136-.086 0-.274-.18-.418-.4z"/></svg>