<svg xmlns="http://www.w3.org/2000/svg" height="16.958" width="46.506"><path d="M16.114 6.986c-.372-.217-.354-.895.043-1.62.749-1.362 1.304-2.632 1.304-2.98 0-.206-.1-.52-.22-.697-.384-.56-.458-1.172-.177-1.454.343-.342.452-.326 1.02.151.748.63 1.054 1.561.86 2.615-.15.808-.45 1.62-.813 2.202a5.775 5.775 0 00-.358.795c-.113.303-.43.688-.707.857-.58.353-.573.352-.952.131zM.046 9.667C.11 9.265.35 8.871.778 8.46c.427-.41.697-.854.823-1.352.284-1.13.225-1.594-.306-2.377-.268-.395-.487-.891-.487-1.102 0-.337.077-.384.638-.384.58 0 .684.07 1.149.772.281.425.554.944.607 1.153.199.793-.387 3.056-.95 3.673l-.842.92c-.322.352-.61.503-.96.503-.485 0-.498-.019-.404-.598zm34.027 5.32c-.168-.099-.286-.362-.286-.642 0-.53.055-.548 2.204-.733.629-.054 1.878-.177 2.776-.274.898-.097 2.073-.2 2.612-.23 1.382-.078 2.84-.23 3.51-.369.314-.064.741-.09.948-.059.41.064.782.687.637 1.066-.11.287-1.983.56-4.687.683-1.033.047-2.355.159-2.939.249-3.162.486-4.338.562-4.775.308zM11.715 9.58c.066-.798-.248-1.929-.536-1.929-.437 0-2.371 1.88-2.371 2.304 0 .299.1.318 1.428.274l1.429-.047zm-.5 4.294c.598-.546.695-.726.695-1.295 0-.824-.057-.844-2.47-.891-1.72-.034-1.896-.008-2.397.348-.74.528-.668 1.087.214 1.67.881.581 1.478.774 2.449.79.729.01.89-.056 1.51-.622zM.646 16.564c0-.546.16-.912.4-.912.11 0 .427-.239.703-.53a8.24 8.24 0 011.1-.94c1.338-.915 1.486-1.312.817-2.189-.477-.625-.502-.868-.146-1.377.242-.345.34-.365 1.288-.264 1.343.144 1.975-.007 2.302-.55.144-.24.546-.656.891-.925.346-.27.748-.733.893-1.03.146-.296.627-.799 1.07-1.117.442-.318.804-.68.804-.803 0-.326.945-.768 1.4-.654.443.111.563.481.944 2.923.138.883.337 1.71.443 1.837.233.281 3.656.33 4.561.064.649-.19 5.936-.435 13.713-.637 3.183-.082 5.49-.21 5.766-.32.253-.1 1.031-.182 1.73-.182 1.075 0 1.317.052 1.574.336.233.257.264.401.131.613-.208.331-1.543.433-8.659.661-2.62.084-4.832.195-4.917.247-.084.052-1.724.137-3.644.188-1.92.052-4.078.173-4.797.27-.718.098-2.16.193-3.204.212-1.044.02-2.012.079-2.152.132-.156.06-.295.4-.361.883-.06.432-.231.968-.381 1.193-.15.224-.377.61-.503.856-.298.584-.747.866-1.83 1.15-.868.226-1.09.212-3.36-.204-.019-.004-.407-.337-.862-.74-.455-.405-.94-.736-1.078-.736-.265 0-1.234.668-1.78 1.227-.766.786-2.099 1.712-2.463 1.712-.307 0-.393-.086-.393-.395z" stroke-width=".163"/></svg>