<?xml version="1.0" encoding="UTF-8" standalone="no"?>
<svg
   xmlns:dc="http://purl.org/dc/elements/1.1/"
   xmlns:cc="http://creativecommons.org/ns#"
   xmlns:rdf="http://www.w3.org/1999/02/22-rdf-syntax-ns#"
   xmlns:svg="http://www.w3.org/2000/svg"
   xmlns="http://www.w3.org/2000/svg"
   id="svg2502"
   viewBox="0 0 46.506026 16.958296"
   version="1.1"
   height="16.958296"
   width="46.506027">
  <defs
     id="defs2506" />
  <metadata
     id="metadata2">
    <rdf:RDF>
      <cc:Work
         rdf:about="">
        <dc:format>image/svg+xml</dc:format>
        <dc:type
           rdf:resource="http://purl.org/dc/dcmitype/StillImage" />
        <dc:title />
      </cc:Work>
    </rdf:RDF>
  </metadata>
  <g
     transform="translate(-644.74612,-502.22383)"
     style="stroke-width:0.16327"
     id="g2500">
    <path
       d="m 660.86,509.21 c -0.37223,-0.2168 -0.35396,-0.89527 0.0436,-1.6196 0.74806,-1.3628 1.3033,-2.6326 1.3033,-2.9805 0,-0.20648 -0.0992,-0.52034 -0.22054,-0.69747 -0.38307,-0.55938 -0.45731,-1.1719 -0.17612,-1.4531 0.34293,-0.34291 0.45151,-0.32684 1.0192,0.15085 0.74888,0.63014 1.0551,1.5609 0.86026,2.6149 -0.14922,0.80728 -0.4494,1.6203 -0.81299,2.2021 -0.0842,0.13469 -0.24511,0.49235 -0.35762,0.79482 -0.11251,0.30245 -0.43083,0.68789 -0.70736,0.85652 -0.57876,0.35293 -0.57298,0.35213 -0.95179,0.1315 z m -16.068,2.6812 c 0.0653,-0.40257 0.30405,-0.79621 0.7325,-1.2079 0.42652,-0.40985 0.69705,-0.8548 0.8224,-1.3527 0.28467,-1.1305 0.22511,-1.5933 -0.30594,-2.377 -0.26776,-0.39513 -0.48682,-0.89105 -0.48682,-1.102 0,-0.33714 0.0772,-0.38359 0.63768,-0.38359 0.57941,0 0.68441,0.0706 1.1492,0.7722 0.2813,0.42472 0.55445,0.94344 0.60698,1.1527 0.19904,0.79306 -0.38651,3.0564 -0.95018,3.6728 -0.21034,0.22999 -0.58908,0.6442 -0.84167,0.92044 -0.32176,0.35192 -0.60917,0.50227 -0.96013,0.50227 -0.48539,0 -0.49789,-0.0185 -0.40398,-0.59719 z m 34.027,5.3188 c -0.16834,-0.0981 -0.28571,-0.36124 -0.28571,-0.64071 0,-0.53023 0.0546,-0.54842 2.2041,-0.73317 0.62857,-0.054 1.8776,-0.17749 2.7755,-0.27432 0.89796,-0.0969 2.0735,-0.20073 2.6122,-0.23084 1.3821,-0.0773 2.8409,-0.23006 3.5102,-0.36769 0.31428,-0.0646 0.74088,-0.0913 0.948,-0.0592 0.40983,0.0635 0.78215,0.68653 0.63675,1.0654 -0.11014,0.28699 -1.983,0.56002 -4.6868,0.68323 -1.0327,0.0471 -2.3551,0.15906 -2.9388,0.2489 -3.1619,0.48668 -4.3388,0.56266 -4.7755,0.3083 z m -22.358,-5.4047 c 0.0664,-0.79813 -0.24777,-1.9292 -0.53585,-1.9292 -0.43701,0 -2.3713,1.8791 -2.3713,2.3037 0,0.29863 0.10066,0.31795 1.4286,0.27409 l 1.4286,-0.0472 z m -0.49894,4.2937 c 0.59754,-0.54618 0.69382,-0.72591 0.69382,-1.2951 0,-0.82384 -0.0566,-0.84427 -2.4692,-0.89148 -1.7209,-0.0337 -1.897,-0.008 -2.3971,0.34863 -0.73987,0.52771 -0.66847,1.0866 0.21322,1.669 0.88141,0.58222 1.4787,0.77494 2.449,0.79027 0.72893,0.0114 0.89074,-0.0551 1.5102,-0.62133 z m -10.571,2.6884 c 0,-0.54565 0.16026,-0.91131 0.3994,-0.91131 0.11066,0 0.42749,-0.23878 0.70406,-0.53062 0.27657,-0.29183 0.77133,-0.71428 1.0995,-0.93877 1.3383,-0.91556 1.4864,-1.3125 0.81749,-2.1896 -0.47713,-0.62555 -0.50286,-0.8679 -0.14619,-1.3771 0.24201,-0.3455 0.34018,-0.36565 1.2876,-0.26418 1.3431,0.14382 1.9749,-0.007 2.3018,-0.54906 0.14475,-0.24003 0.54596,-0.65682 0.89157,-0.92621 0.34562,-0.26938 0.74759,-0.7325 0.89329,-1.0292 0.1457,-0.29665 0.62694,-0.79946 1.0694,-1.1174 0.44248,-0.31787 0.80451,-0.67939 0.80451,-0.80336 0,-0.32615 0.94508,-0.76764 1.3993,-0.65365 0.4434,0.1113 0.56296,0.48134 0.94438,2.923 0.13791,0.88284 0.33722,1.7094 0.44292,1.8367 0.23342,0.28125 3.6562,0.32965 4.5615,0.0645 0.64824,-0.18988 5.9353,-0.43558 13.713,-0.63729 3.1825,-0.0825 5.4901,-0.21048 5.7657,-0.31969 0.25279,-0.10015 1.0312,-0.18209 1.7298,-0.18209 1.0749,0 1.317,0.0517 1.5744,0.33608 0.23269,0.25713 0.2634,0.40098 0.1307,0.61224 -0.20817,0.3314 -1.5434,0.43341 -8.6586,0.66151 -2.6203,0.084 -4.8329,0.19528 -4.9171,0.24728 -0.0841,0.052 -1.724,0.1366 -3.644,0.188 -1.9201,0.0514 -4.0788,0.17308 -4.7972,0.27036 -0.71837,0.0973 -2.1602,0.19251 -3.2042,0.21156 -1.0439,0.0191 -2.0122,0.0785 -2.1518,0.13207 -0.15635,0.06 -0.29515,0.39882 -0.36149,0.88242 -0.0592,0.43175 -0.23074,0.96868 -0.38113,1.1932 -0.15038,0.22449 -0.37635,0.60972 -0.50217,0.85607 -0.29828,0.58406 -0.74787,0.86617 -1.8313,1.1491 -0.86732,0.22648 -1.0888,0.21311 -3.3584,-0.20276 -0.0195,-0.004 -0.40762,-0.33709 -0.86259,-0.74117 -0.45498,-0.40409 -0.93989,-0.7347 -1.0776,-0.7347 -0.26547,0 -1.2343,0.66766 -1.7796,1.2263 -0.76734,0.78625 -2.0998,1.7125 -2.4636,1.7125 -0.30734,0 -0.3935,-0.0865 -0.3935,-0.39481 z"
       id="ashamed" />
  </g>
</svg>
