<?xml version="1.0" encoding="UTF-8" standalone="no"?>
<svg
   xmlns:dc="http://purl.org/dc/elements/1.1/"
   xmlns:cc="http://creativecommons.org/ns#"
   xmlns:rdf="http://www.w3.org/1999/02/22-rdf-syntax-ns#"
   xmlns:svg="http://www.w3.org/2000/svg"
   xmlns="http://www.w3.org/2000/svg"
   id="svg2502"
   viewBox="0 0 22.32591 13.163466"
   version="1.1"
   height="13.163466"
   width="22.325911">
  <defs
     id="defs2506" />
  <metadata
     id="metadata2">
    <rdf:RDF>
      <cc:Work
         rdf:about="">
        <dc:format>image/svg+xml</dc:format>
        <dc:type
           rdf:resource="http://purl.org/dc/dcmitype/StillImage" />
        <dc:title />
      </cc:Work>
    </rdf:RDF>
  </metadata>
  <g
     transform="translate(-644.43758,-529.49247)"
     style="stroke-width:0.16327"
     id="g2500">
    <path
       d="m 644.59,536.83 c -0.33105,-0.20965 -0.10815,-0.89211 0.52616,-1.611 0.89893,-1.0188 1.2858,-1.8357 1.3727,-2.899 0.0725,-0.88612 0.0377,-1.0356 -0.3471,-1.493 -0.49643,-0.58994 -0.52157,-0.75201 -0.1711,-1.1025 0.38168,-0.38168 0.57702,-0.32231 1.3236,0.40232 0.46694,0.4532 0.71094,0.84896 0.78171,1.2679 0.21806,1.2907 -0.87032,3.9401 -2.0602,5.015 -0.63404,0.57283 -1.0099,0.6836 -1.4258,0.42019 z m 11.393,3.571 c 1.0519,-0.84531 1.3236,-1.5202 1.3216,-3.2818 -0.002,-0.84083 -0.0473,-1.8043 -0.10299,-2.141 -0.0923,-0.55831 -0.14707,-0.61225 -0.62174,-0.61225 -0.43285,0 -0.77997,0.24795 -2.0603,1.4717 -2.259,2.1592 -2.4373,2.3462 -2.4375,2.5573 -1e-4,0.10573 -0.18386,0.33672 -0.40835,0.51329 -0.48863,0.38438 -0.52782,0.68224 -0.0897,0.68224 0.17513,0 0.37717,0.10126 0.44898,0.22501 0.0718,0.12376 0.41632,0.41764 0.76558,0.65306 0.50761,0.34216 0.82895,0.42805 1.6014,0.42805 0.83197,0 1.0522,-0.0689 1.583,-0.49557 z m -3.3071,2.0378 c -0.80759,-0.45905 -1.8944,-1.7398 -1.8974,-2.2361 -0.003,-0.44902 -0.21882,-0.59654 -0.41315,-0.28209 -0.0567,0.0918 -0.50951,0.4775 -1.0062,0.85714 -2.5092,1.918 -2.7523,2.0296 -2.9249,1.3421 -0.11345,-0.45205 0.29014,-1.2233 0.64017,-1.2233 0.11528,0 0.59877,-0.40408 1.0744,-0.89796 0.47565,-0.49387 0.94281,-0.89796 1.0381,-0.89796 0.14659,0 0.59054,-0.37962 2.5379,-2.1702 0.11794,-0.10844 0.86963,-0.87676 1.6704,-1.7074 0.8008,-0.83061 1.5196,-1.5102 1.5974,-1.5102 0.0778,0 0.50158,-0.33096 0.94181,-0.73546 1.5427,-1.4175 2.0207,-1.169 2.5325,1.3165 0.39628,1.9247 0.36232,4.2404 -0.0746,5.0852 -0.14834,0.28689 -0.26973,0.64515 -0.26973,0.79612 0,0.4254 1.1418,0.20236 2.078,-0.40595 0.42852,-0.27841 0.97019,-0.58285 1.2037,-0.67653 0.54138,-0.2172 2.6758,-2.5619 3.1556,-3.4664 0.20099,-0.37893 0.41889,-0.90936 0.48424,-1.1788 0.35574,-1.4665 0.96448,-2.1476 1.5128,-1.6926 0.43007,0.35693 0.21247,1.6331 -0.87905,5.1555 -0.409,1.3199 -0.43196,2.4197 -0.0604,2.8963 0.33682,0.43205 0.34493,1.0663 0.0178,1.3934 -0.18095,0.18095 -0.40248,0.32902 -0.49228,0.32902 -0.27139,0 -0.81632,-0.63308 -0.81632,-0.9484 0,-0.16241 -0.10787,-0.43792 -0.23971,-0.61224 -0.13184,-0.1743 -0.24204,-0.63146 -0.2449,-1.0159 -0.007,-0.97001 -0.36963,-1.0753 -1.07,-0.31087 -0.56436,0.61603 -2.0125,1.3598 -4.5679,2.3462 -1.2719,0.49094 -1.7108,0.57721 -3.2653,0.64173 -1.4571,0.0605 -1.884,0.0244 -2.2631,-0.19102 z"
       id="aside_abv" />
  </g>
</svg>
