<svg xmlns="http://www.w3.org/2000/svg" height="13.163" width="22.323"><path d="M.152 7.337c-.33-.21-.108-.892.527-1.611.899-1.019 1.286-1.836 1.373-2.899.072-.886.037-1.036-.347-1.493-.497-.59-.522-.752-.172-1.102.382-.382.577-.322 1.324.402.467.454.711.85.782 1.268.218 1.291-.87 3.94-2.06 5.015-.634.573-1.01.684-1.426.42zm11.39 3.571c1.052-.845 1.324-1.52 1.322-3.282-.002-.84-.047-1.804-.103-2.141-.092-.558-.147-.612-.621-.612-.433 0-.78.248-2.06 1.472C7.82 8.504 7.643 8.69 7.642 8.902c0 .106-.184.337-.409.513-.488.385-.527.682-.09.682.176 0 .378.102.45.225.071.124.416.418.765.653.508.343.83.428 1.601.428.832 0 1.052-.068 1.583-.495zm-3.307 2.038c-.807-.459-1.894-1.74-1.897-2.236-.003-.449-.218-.596-.413-.282-.056.092-.51.477-1.006.857-2.509 1.918-2.752 2.03-2.925 1.342-.113-.452.29-1.223.64-1.223.116 0 .6-.404 1.074-.898.476-.494.943-.898 1.038-.898.147 0 .59-.38 2.538-2.17.118-.108.87-.877 1.67-1.707.801-.83 1.52-1.51 1.597-1.51.078 0 .502-.331.942-.735 1.543-1.418 2.021-1.17 2.532 1.316.397 1.925.363 4.24-.074 5.085-.149.286-.27.645-.27.796 0 .425 1.142.202 2.078-.406.428-.279.97-.583 1.204-.677.541-.217 2.676-2.562 3.156-3.466.2-.379.419-.91.484-1.179.356-1.467.965-2.148 1.513-1.693.43.357.213 1.633-.879 5.156-.409 1.32-.432 2.42-.06 2.896.337.432.345 1.066.018 1.393-.181.181-.403.33-.493.33-.271 0-.816-.634-.816-.95 0-.162-.108-.437-.24-.611-.132-.175-.242-.632-.245-1.016-.007-.97-.37-1.075-1.07-.311-.564.616-2.012 1.36-4.568 2.346-1.272.49-1.71.577-3.265.641-1.457.06-1.884.025-2.263-.19z" stroke-width=".163"/></svg>