<svg xmlns="http://www.w3.org/2000/svg" height="13.163" width="22.326"><path d="M.152 7.338c-.33-.21-.108-.893.527-1.611.899-1.02 1.285-1.836 1.372-2.9.073-.886.038-1.035-.347-1.492-.496-.59-.521-.752-.17-1.103.38-.382.576-.322 1.323.402.467.454.71.85.781 1.268.218 1.291-.87 3.94-2.06 5.015-.634.573-1.01.684-1.426.42zm11.393 3.57c1.052-.845 1.324-1.52 1.322-3.281-.002-.841-.047-1.805-.103-2.141-.092-.559-.147-.613-.622-.613-.433 0-.78.248-2.06 1.472-2.259 2.16-2.437 2.346-2.438 2.557 0 .106-.183.337-.408.514-.488.384-.528.682-.09.682.176 0 .378.101.45.225.071.124.416.418.765.653.508.342.829.428 1.601.428.832 0 1.053-.069 1.583-.495zm-3.307 2.038c-.807-.459-1.894-1.74-1.897-2.236-.003-.449-.219-.596-.413-.282-.057.092-.51.478-1.006.857-2.51 1.918-2.753 2.03-2.925 1.342-.114-.452.29-1.223.64-1.223.115 0 .599-.404 1.074-.898.476-.494.943-.898 1.038-.898.147 0 .59-.38 2.538-2.17.118-.108.87-.877 1.67-1.707.801-.831 1.52-1.51 1.598-1.51.078 0 .502-.332.942-.736 1.543-1.418 2.02-1.17 2.532 1.316.397 1.925.363 4.24-.074 5.086-.149.286-.27.645-.27.796 0 .425 1.142.202 2.078-.406.429-.279.97-.583 1.204-.677.541-.217 2.676-2.562 3.155-3.466.201-.38.42-.91.485-1.179.355-1.466.964-2.148 1.512-1.693.43.357.213 1.634-.879 5.156-.409 1.32-.432 2.42-.06 2.896.337.432.345 1.067.018 1.394-.181.18-.403.329-.493.329-.271 0-.816-.633-.816-.949 0-.162-.108-.438-.24-.612-.131-.174-.242-.631-.244-1.016-.007-.97-.37-1.075-1.07-.31-.565.615-2.013 1.36-4.568 2.345-1.272.491-1.711.578-3.266.642-1.457.06-1.884.025-2.263-.19z" stroke-width=".163"/></svg>