<svg xmlns="http://www.w3.org/2000/svg" height="14.065" width="27.999"><path d="M.022 7.596c-.077-.307.044-.603.503-1.228.962-1.311 1.388-2.33 1.388-3.325 0-.688-.08-.96-.371-1.266C.632.822.565 0 1.396 0 2.01 0 2.589.468 3.14 1.408c.439.75.441.77.237 2.001-.114.684-.26 1.317-.325 1.407-.065.09-.202.426-.305.746C2.512 6.294.909 8 .458 8c-.22 0-.37-.139-.436-.404zm.585 6.03c0-.427.597-1.381.865-1.381.083 0 1.318-1.157 2.745-2.572 1.427-1.414 2.691-2.592 2.81-2.618.119-.026.505-.428.857-.894.353-.466.894-1.069 1.203-1.34.31-.272.744-.697.966-.943.222-.247.478-.45.57-.45.092 0 .333-.155.535-.346.444-.417 1.015-.328 1.349.211.606.98.886 4.604.489 6.34-.267 1.166-.257 1.535.043 1.596.148.03.457-.134.687-.363.229-.23.504-.417.611-.417.32 0 1.585-1.1 3.576-3.112 3.014-3.046 3.926-3.748 5.58-4.296.824-.273 1.576-.43 1.796-.374.42.107 1.44.978 1.44 1.23 0 .342-.538.7-.882.587a3.875 3.875 0 00-2.309-.033c-.79.23-.816.26-1.507 1.661-.582 1.183-.72 1.644-.8 2.703l-.1 1.276.787.91c.479.555 1.007.984 1.351 1.097.824.272 2.084.067 3.263-.53.95-.483 1.047-.502 1.294-.255.433.433.056.946-1.15 1.56-.973.497-1.214.55-2.603.572-1.46.023-1.56.002-2.172-.459-.353-.265-.666-.54-.696-.612-.03-.07-.15-.129-.266-.129-.117 0-.423-.418-.68-.929-.426-.844-.465-1.06-.424-2.367.039-1.214.006-1.439-.21-1.439-.14 0-.85.625-1.578 1.388-2.19 2.298-3.763 3.286-6.665 4.188-.325.101-1.17.143-1.96.097-2.346-.136-3.828-1.113-3.525-2.323.066-.262.218-.411.419-.411.31 0 1.7.848 1.888 1.152.052.085.46.154.906.154.717 0 .89-.074 1.514-.649.896-.826 1.126-1.718 1.055-4.086l-.052-1.714-.685-.05c-.612-.044-.711 0-.928.42-.133.257-.743.9-1.356 1.426-.612.526-1.206 1.072-1.32 1.213-.417.513-2.168 2.297-2.255 2.297-.099 0-.336.216-2.339 2.122-1.483 1.412-2.137 1.685-2.137.892z" stroke-width=".163"/></svg>