<?xml version="1.0" encoding="UTF-8" standalone="no"?>
<svg
   xmlns:dc="http://purl.org/dc/elements/1.1/"
   xmlns:cc="http://creativecommons.org/ns#"
   xmlns:rdf="http://www.w3.org/1999/02/22-rdf-syntax-ns#"
   xmlns:svg="http://www.w3.org/2000/svg"
   xmlns="http://www.w3.org/2000/svg"
   id="svg2502"
   viewBox="0 0 27.999421 14.064715"
   version="1.1"
   height="14.064715"
   width="27.999422">
  <defs
     id="defs2506" />
  <metadata
     id="metadata2">
    <rdf:RDF>
      <cc:Work
         rdf:about="">
        <dc:format>image/svg+xml</dc:format>
        <dc:type
           rdf:resource="http://purl.org/dc/dcmitype/StillImage" />
        <dc:title />
      </cc:Work>
    </rdf:RDF>
  </metadata>
  <g
     transform="translate(-645.5985,-553.3043)"
     style="stroke-width:0.16327"
     id="g2500">
    <path
       d="m 645.62,560.9 c -0.077,-0.30684 0.0443,-0.60284 0.50302,-1.2278 0.96232,-1.3109 1.3882,-2.3307 1.3882,-3.3244 0,-0.68819 -0.0797,-0.96021 -0.37083,-1.2661 -0.90968,-0.95581 -0.97722,-1.7774 -0.1461,-1.7774 0.6143,0 1.1935,0.46751 1.745,1.4085 0.43879,0.74872 0.4413,0.76997 0.23686,2.0006 -0.11366,0.68413 -0.25977,1.3174 -0.32469,1.4072 -0.0649,0.0898 -0.20231,0.42524 -0.30532,0.74544 -0.23559,0.73233 -1.8382,2.4382 -2.2905,2.4382 -0.21929,0 -0.36889,-0.13889 -0.4355,-0.40431 z m 0.58505,6.0304 c 0,-0.42753 0.59756,-1.3812 0.86547,-1.3812 0.083,0 1.3183,-1.1571 2.7449,-2.5714 1.4267,-1.4143 2.6912,-2.5927 2.8101,-2.6187 0.11887,-0.026 0.50454,-0.42825 0.85701,-0.8939 0.35247,-0.46563 0.89388,-1.0688 1.2031,-1.3405 0.30924,-0.27163 0.74384,-0.6959 0.96577,-0.94284 0.22192,-0.24694 0.47845,-0.44898 0.57005,-0.44898 0.0916,0 0.33256,-0.15592 0.53542,-0.3465 0.44406,-0.41718 1.015,-0.32774 1.3483,0.2112 0.60637,0.98057 0.88586,4.6042 0.48897,6.3394 -0.2668,1.1664 -0.25672,1.5358 0.0436,1.5962 0.14819,0.0298 0.45711,-0.13352 0.68644,-0.36288 0.22936,-0.22934 0.50462,-0.41699 0.61171,-0.41699 0.32015,0 1.5844,-1.1005 3.5752,-3.1123 3.0144,-3.046 3.9262,-3.748 5.5805,-4.296 0.82426,-0.27306 1.5757,-0.42927 1.7959,-0.37334 0.41992,0.10665 1.4399,0.97804 1.4399,1.2302 0,0.34165 -0.53787,0.69948 -0.88149,0.58643 -0.74562,-0.24529 -1.5413,-0.25657 -2.309,-0.0327 -0.7904,0.23047 -0.81688,0.25966 -1.5071,1.6608 -0.58256,1.1826 -0.71939,1.6442 -0.80101,2.7026 l -0.0984,1.2764 0.78594,0.91034 c 0.47906,0.55489 1.0068,0.98324 1.3516,1.097 0.82358,0.2718 2.0833,0.0667 3.2624,-0.5313 0.95082,-0.48217 1.0473,-0.50111 1.2942,-0.25415 0.43341,0.4334 0.0558,0.94615 -1.1495,1.5608 -0.97375,0.49657 -1.2146,0.54944 -2.6036,0.57143 -1.4602,0.0231 -1.5601,0.002 -2.172,-0.45879 -0.35277,-0.26567 -0.66589,-0.54118 -0.69582,-0.61225 -0.0299,-0.0711 -0.14975,-0.12921 -0.26625,-0.12921 -0.11651,0 -0.42263,-0.41792 -0.68028,-0.92873 -0.42584,-0.84429 -0.46433,-1.0595 -0.4232,-2.3674 0.0382,-1.2141 0.006,-1.4386 -0.20955,-1.4386 -0.14015,0 -0.85045,0.62465 -1.5784,1.3881 -2.1906,2.2973 -3.763,3.2852 -6.6654,4.1878 -0.32482,0.101 -1.1704,0.14296 -1.9592,0.0972 -2.3466,-0.13613 -3.8292,-1.113 -3.5256,-2.323 0.0657,-0.26193 0.21773,-0.41133 0.41846,-0.41133 0.30967,0 1.7006,0.84839 1.888,1.1515 0.0525,0.085 0.46018,0.15458 0.90588,0.15458 0.7176,0 0.89089,-0.0743 1.5143,-0.6489 0.89635,-0.82622 1.1266,-1.718 1.0549,-4.0858 l -0.0519,-1.7143 -0.68506,-0.0498 c -0.61214,-0.0445 -0.71085,1.5e-4 -0.92756,0.41922 -0.13338,0.25792 -0.74347,0.89975 -1.3558,1.4263 -0.61227,0.52649 -1.2068,1.0726 -1.3211,1.2134 -0.41593,0.51256 -2.1671,2.297 -2.2541,2.297 -0.0989,0 -0.33618,0.2153 -2.339,2.122 -1.4828,1.4116 -2.1377,1.6848 -2.1377,0.89179 z"
       id="ask" />
  </g>
</svg>
