<svg xmlns="http://www.w3.org/2000/svg" height="18.399" width="33.198"><path d="M.016 7.696c-.053-.139.03-.451.187-.693.28-.434.423-.615 1.258-1.584.534-.62.659-1.06.655-2.302-.002-.83-.076-1.093-.448-1.58C.967.616 1.152-.22 1.997.05 3.223.443 3.6 1.212 3.563 3.246 3.527 5.22 3.185 5.896 1.412 7.5c-.546.494-1.244.591-1.396.195zm11.794 4.308c.278-.284.59-.772.693-1.084.268-.813-.015-3.247-.54-4.644-.276-.732-.902-.526-1.7.56-.22.298-1.17 1.323-2.109 2.276-.94.954-1.709 1.854-1.709 2 0 .192.15.267.531.267.292 0 .788.163 1.102.361.314.199.718.449.898.555.18.107.777.202 1.328.21.918.015 1.042-.026 1.506-.5zm11.615 2.809c-1.083-.347-1.933-.832-2.373-1.356-.992-1.182-1.233-1.527-1.648-2.363-.234-.472-.45-.857-.48-.857-.16 0-1.335.891-1.78 1.35-.669.688-3.283 1.959-4.759 2.313-.64.154-1.67.292-2.29.308-1.096.028-1.162.006-2.384-.788-.942-.612-1.301-.949-1.437-1.347-.099-.291-.282-.53-.406-.53-.124 0-.852.631-1.619 1.403-1.183 1.191-1.492 1.416-2.047 1.49-1.009.136-.853-.312.61-1.763a81.46 81.46 0 001.775-1.804c1.074-1.162 6.059-5.976 6.804-6.57 1.348-1.077 1.927-.577 2.152 1.856.062.674.223 1.662.358 2.197.236.94.224 2.092-.034 3.094-.12.464-.111.472.41.367 1.166-.233 2.21-1.116 5.488-4.638.606-.651 1.457-1.412 1.891-1.69.434-.279.79-.562.79-.628 0-.208 1.181-.664 2.122-.819.758-.125.961-.103 1.306.144.225.16.48.494.568.74.209.588-.225.967-.84.733-1.006-.383-2.113.027-3.436 1.27-1.885 1.772-1.991 3.499-.319 5.171 1.557 1.557 2.722 1.745 4.703.758 1.707-.85 2.495-.428 1.459.782-.389.455-.712.608-1.985.94-1.603.417-1.94.448-2.599.237zm-.576 3.255c-.27-.3-.275-.356-.047-.584.139-.14.759-.321 1.377-.404 1.47-.197 5.643-.616 7.441-.746l1.42-.104.108.432c.06.237.068.537.018.666-.146.381-1.212.58-3.129.584-.988.002-2.494.112-3.347.243-2.28.352-3.469.325-3.841-.087z"/></svg>