<?xml version="1.0" encoding="UTF-8" standalone="no"?>
<svg
   xmlns:dc="http://purl.org/dc/elements/1.1/"
   xmlns:cc="http://creativecommons.org/ns#"
   xmlns:rdf="http://www.w3.org/1999/02/22-rdf-syntax-ns#"
   xmlns:svg="http://www.w3.org/2000/svg"
   xmlns="http://www.w3.org/2000/svg"
   id="svg2502"
   viewBox="0 0 33.198428 18.399326"
   version="1.1"
   height="18.399326"
   width="33.198429">
  <defs
     id="defs2506" />
  <metadata
     id="metadata2">
    <rdf:RDF>
      <cc:Work
         rdf:about="">
        <dc:format>image/svg+xml</dc:format>
        <dc:type
           rdf:resource="http://purl.org/dc/dcmitype/StillImage" />
        <dc:title />
      </cc:Work>
    </rdf:RDF>
  </metadata>
  <g
     transform="translate(-645.47387,-576.05352)"
     style="stroke-width:0.16327"
     id="g2500">
    <path
       d="m 645.49,583.75 c -0.0535,-0.1394 0.0305,-0.45161 0.18661,-0.6938 0.27974,-0.43394 0.42357,-0.61497 1.258,-1.5834 0.53394,-0.61964 0.6592,-1.0594 0.65575,-2.302 -0.002,-0.83094 -0.0767,-1.0928 -0.44898,-1.581 -0.70085,-0.91884 -0.51544,-1.7548 0.32929,-1.4848 1.2258,0.39177 1.6029,1.1608 1.566,3.1942 -0.0358,1.9744 -0.37761,2.6505 -2.151,4.2552 -0.54565,0.49375 -1.2437,0.59155 -1.3956,0.19553 z m 11.794,4.3079 c 0.27801,-0.28437 0.5897,-0.77221 0.69264,-1.0841 0.26831,-0.81301 -0.0149,-3.2472 -0.54031,-4.6438 -0.27553,-0.73241 -0.90129,-0.52667 -1.7003,0.55903 -0.21977,0.29866 -1.1685,1.3232 -2.1082,2.2767 -0.93972,0.95355 -1.7086,1.8536 -1.7086,2 0,0.19148 0.1491,0.26649 0.53061,0.26691 0.29184,0 0.78776,0.16296 1.102,0.36136 0.31428,0.1984 0.71836,0.44806 0.89795,0.5548 0.1796,0.10675 0.777,0.20128 1.3276,0.21009 0.91862,0.0147 1.0427,-0.0266 1.5066,-0.50103 z m 11.615,2.8083 c -1.0836,-0.34655 -1.9327,-0.83168 -2.3729,-1.3556 -0.99263,-1.1817 -1.2334,-1.5269 -1.6484,-2.3633 -0.23388,-0.47143 -0.45008,-0.85714 -0.48044,-0.85714 -0.15896,0 -1.3343,0.89151 -1.7798,1.35 -0.66843,0.68792 -3.2829,1.9592 -4.7584,2.3137 -0.63925,0.15362 -1.6697,0.29212 -2.2899,0.30778 -1.0965,0.0277 -1.1624,0.006 -2.384,-0.78786 -0.9419,-0.612 -1.3016,-0.94914 -1.437,-1.3469 -0.0993,-0.29183 -0.28201,-0.53061 -0.40593,-0.53061 -0.1239,0 -0.85246,0.63143 -1.619,1.4032 -1.1835,1.1915 -1.4924,1.4164 -2.0478,1.4909 -1.0081,0.13522 -0.8527,-0.31311 0.61125,-1.7636 0.69592,-0.68951 1.4944,-1.5014 1.7744,-1.8043 1.0738,-1.1615 6.0585,-5.9757 6.8034,-6.5706 1.348,-1.0767 1.9276,-0.57682 2.1526,1.8567 0.0622,0.67347 0.22322,1.662 0.35768,2.1968 0.23656,0.94087 0.22391,2.092 -0.034,3.0937 -0.11962,0.4646 -0.11135,0.47201 0.41084,0.36757 1.1655,-0.23311 2.2101,-1.116 5.4877,-4.6381 0.60604,-0.65126 1.457,-1.412 1.891,-1.6905 0.43401,-0.2785 0.78911,-0.56102 0.78911,-0.62782 0,-0.20756 1.1816,-0.66329 2.1224,-0.81862 0.75829,-0.12517 0.96145,-0.10279 1.3061,0.1439 0.22449,0.16067 0.47997,0.49382 0.56771,0.74032 0.20927,0.58785 -0.2249,0.9664 -0.84013,0.73248 -1.006,-0.38249 -2.1125,0.0268 -3.436,1.271 -1.8845,1.7715 -1.9907,3.4978 -0.3183,5.1703 1.557,1.5569 2.7214,1.7447 4.7024,0.75819 1.7076,-0.85042 2.4949,-0.42836 1.4591,0.78223 -0.38862,0.45422 -0.71205,0.6072 -1.9847,0.93878 -1.6033,0.4177 -1.9394,0.44842 -2.5989,0.23752 z m -0.57605,3.2556 c -0.27099,-0.29945 -0.27557,-0.35615 -0.0472,-0.58456 0.13912,-0.1391 0.7587,-0.3207 1.3768,-0.40356 1.471,-0.19714 5.6437,-0.6158 7.4414,-0.74659 l 1.4195,-0.1033 0.10826,0.43138 c 0.0596,0.23725 0.0677,0.53717 0.0181,0.66648 -0.14621,0.38103 -1.2116,0.57988 -3.1287,0.58398 -0.98776,0.002 -2.4939,0.1114 -3.3469,0.24288 -2.281,0.35154 -3.469,0.32471 -3.8413,-0.0867 z"
       id="asked" />
  </g>
</svg>
