<svg xmlns="http://www.w3.org/2000/svg" height="13.438" width="50.928"><path d="M.105 7.489c-.259-.312-.066-.65.874-1.53.412-.386.75-.812.75-.946 0-.135.11-.455.242-.713.317-.613.117-1.743-.456-2.579C.962.915.825.326 1.13.073 1.482-.22 2.602.414 3.037 1.15c.804 1.363.777 3.608-.056 4.526a24.419 24.419 0 00-1.219 1.478c-.376.526-1.337.72-1.657.334zm1.632 5.337c.007-.543.11-.696.92-1.347.5-.404 1.039-.809 1.196-.898.293-.169 2.553-2.164 3.188-2.817.197-.202.434-.367.526-.367.092 0 .448-.367.79-.816.343-.45.694-.817.78-.817.087 0 .641-.497 1.232-1.104 1.525-1.569 2.205-2.057 2.694-1.934.583.146.772.964 1.125 4.866.112 1.23.257 2.29.323 2.356.066.066.358-.007.649-.162.29-.155.932-.49 1.426-.746.494-.256 1.151-.73 1.46-1.054.31-.324.651-.589.758-.589.108 0 .897-.691 1.754-1.536 1.183-1.166 1.826-1.66 2.67-2.056a68.517 68.517 0 001.392-.666c.515-.267 1.526-.346 2.178-.17.725.195 1.287.985 1.19 1.672-.066.467-.785.615-1.396.288-.578-.31-2.018.033-2.78.662-.657.541-1.673 2.315-1.674 2.922-.002.503.904 1.748 1.537 2.115.47.272.838.4 2.707.94 1.588.459 4.676.55 7.429.219.808-.097 1.542-.234 1.632-.304.09-.07.384-.168.653-.218 2.074-.388 2.325-.485 5.878-2.266 1.078-.54 2.09-1.121 2.251-1.292.16-.17.386-.31.501-.31.115 0 .498-.241.851-.536.353-.295.856-.63 1.117-.743.608-.265 2.709-1.823 2.709-2.009 0-.077.29-.14.647-.14.473 0 .693.084.816.315.143.268.063.4-.525.87-.381.305-1.061.763-1.51 1.018-.449.254-1.044.634-1.321.844-.278.21-.574.38-.658.38-.084 0-.53.285-.993.633-.462.347-1.383.93-2.047 1.293-.663.364-1.294.769-1.402.898-.108.13-.544.363-.969.517-.425.155-1.378.569-2.117.92-.739.35-1.477.638-1.64.638-.164 0-.369.07-.455.157-.16.16-2.324.542-4.806.847-1.797.221-5.57.087-6.53-.232a46.788 46.788 0 00-1.47-.456c-.94-.271-2.09-.857-2.615-1.332-.561-.509-1.303-1.973-1.303-2.573 0-.406-.067-.493-.378-.493-.208 0-.589.22-.847.49s-.559.49-.669.49c-.11 0-.372.203-.582.451-.397.47-4.542 2.65-5.038 2.65-.156 0-.568.12-.915.266-.397.167-1.099.266-1.882.267-1.235.002-1.262-.008-2.223-.748-.724-.557-1-.885-1.08-1.277-.17-.852.043-.897 1.979-.422 2.158.53 2.863.644 3.191.518.418-.16.663-1.6.554-3.243-.135-2.018-.256-2.544-.585-2.544-.285 0-2.073 1.57-4.047 3.551-.648.651-1.244 1.184-1.323 1.184-.08 0-.286.158-.457.35-.17.194-.843.747-1.494 1.232-.651.484-1.184.937-1.184 1.008 0 .179-1.286 1.002-1.566 1.002-.158 0-.228-.19-.222-.612z" stroke-width=".163"/></svg>