<?xml version="1.0" encoding="UTF-8" standalone="no"?>
<svg
   xmlns:dc="http://purl.org/dc/elements/1.1/"
   xmlns:cc="http://creativecommons.org/ns#"
   xmlns:rdf="http://www.w3.org/1999/02/22-rdf-syntax-ns#"
   xmlns:svg="http://www.w3.org/2000/svg"
   xmlns="http://www.w3.org/2000/svg"
   id="svg2502"
   viewBox="0 0 50.927706 13.437858"
   version="1.1"
   height="13.437858"
   width="50.927708">
  <defs
     id="defs2506" />
  <metadata
     id="metadata2">
    <rdf:RDF>
      <cc:Work
         rdf:about="">
        <dc:format>image/svg+xml</dc:format>
        <dc:type
           rdf:resource="http://purl.org/dc/dcmitype/StillImage" />
        <dc:title />
      </cc:Work>
    </rdf:RDF>
  </metadata>
  <g
     transform="translate(-644.96495,-600.60096)"
     style="stroke-width:0.16327"
     id="g2500">
    <path
       d="m 645.07,608.09 c -0.25878,-0.31179 -0.0656,-0.65007 0.87352,-1.5296 0.41275,-0.38657 0.75046,-0.81267 0.75046,-0.94688 0,-0.1342 0.10908,-0.45493 0.24239,-0.71275 0.31686,-0.61273 0.11683,-1.7431 -0.45631,-2.5785 -0.55315,-0.80628 -0.69052,-1.3949 -0.38474,-1.6486 0.35182,-0.29198 1.4719,0.34155 1.9067,1.0785 0.80405,1.3628 0.77644,3.6077 -0.0557,4.5254 -0.35734,0.39406 -1.0075,1.1825 -1.2194,1.4787 -0.37634,0.52607 -1.3368,0.71961 -1.6569,0.33386 z m 1.6317,5.3365 c 0.007,-0.54298 0.11088,-0.69537 0.91943,-1.3469 0.50144,-0.40408 1.0398,-0.80817 1.1964,-0.89796 0.29342,-0.16826 2.5531,-2.1641 3.1886,-2.8163 0.19686,-0.20204 0.43343,-0.36735 0.52573,-0.36735 0.0923,0 0.44793,-0.36734 0.79033,-0.81632 0.3424,-0.44898 0.69344,-0.81633 0.7801,-0.81633 0.0867,0 0.64095,-0.49716 1.2318,-1.1048 1.5247,-1.5681 2.2048,-2.0562 2.6943,-1.9333 0.58217,0.14611 0.77115,0.96346 1.125,4.8658 0.11151,1.2297 0.25672,2.2898 0.32268,2.3558 0.066,0.066 0.35779,-0.007 0.6485,-0.16162 0.29071,-0.15484 0.93264,-0.49079 1.4265,-0.74653 0.49387,-0.25576 1.1512,-0.72999 1.4606,-1.0539 0.30945,-0.32386 0.65043,-0.58884 0.75775,-0.58884 0.10731,0 0.89632,-0.69102 1.7534,-1.5356 1.1832,-1.166 1.826,-1.661 2.6708,-2.0568 0.61192,-0.28663 1.2379,-0.58608 1.3912,-0.66541 0.51541,-0.26689 1.5262,-0.34584 2.1786,-0.17017 0.7246,0.19512 1.2867,0.98509 1.1896,1.6718 -0.066,0.4667 -0.78517,0.61538 -1.3958,0.28858 -0.57827,-0.30947 -2.0178,0.0331 -2.7804,0.66171 -0.65651,0.54114 -1.6728,2.3151 -1.674,2.922 -0.002,0.5031 0.90382,1.7475 1.5374,2.1144 0.47003,0.27218 0.83728,0.39976 2.7068,0.94027 1.5884,0.45923 4.6764,0.55033 7.4286,0.21918 0.80816,-0.0973 1.5428,-0.23393 1.6326,-0.30372 0.0898,-0.0698 0.38367,-0.16813 0.65306,-0.2185 2.0736,-0.38771 2.3242,-0.4843 5.8776,-2.2653 1.0776,-0.54006 2.0906,-1.1216 2.2513,-1.2922 0.16063,-0.17066 0.38618,-0.31031 0.50122,-0.31031 0.11502,0 0.49788,-0.24115 0.85078,-0.5359 0.35289,-0.29474 0.85549,-0.62916 1.1169,-0.74315 0.60784,-0.26508 2.7084,-1.823 2.7084,-2.0087 0,-0.0774 0.2913,-0.14082 0.64732,-0.14082 0.4728,0 0.69286,0.0851 0.81626,0.31566 0.14321,0.26761 0.0633,0.40007 -0.52487,0.86996 -0.3816,0.30486 -1.0612,0.76279 -1.5101,1.0176 -0.44898,0.25482 -1.0437,0.63476 -1.3215,0.84433 -0.27786,0.20956 -0.57371,0.38102 -0.65745,0.38102 -0.0837,0 -0.53057,0.28427 -0.99297,0.63169 -0.46238,0.34745 -1.3835,0.92962 -2.047,1.2937 -0.66343,0.36411 -1.2944,0.76822 -1.4021,0.89802 -0.1077,0.1298 -0.5438,0.36248 -0.96906,0.51708 -0.42526,0.15459 -1.3778,0.56826 -2.1168,0.91926 -0.73897,0.35099 -1.4773,0.63817 -1.6408,0.63817 -0.16348,0 -0.36802,0.0708 -0.45453,0.15729 -0.1608,0.1608 -2.3243,0.54222 -4.806,0.84732 -1.7966,0.22086 -5.5696,0.0865 -6.5306,-0.23257 -0.40408,-0.13417 -1.0653,-0.33929 -1.4694,-0.45581 -0.94024,-0.27113 -2.0898,-0.85681 -2.6146,-1.3321 -0.56177,-0.50879 -1.3037,-1.973 -1.3037,-2.5729 0,-0.40619 -0.0664,-0.4928 -0.37761,-0.4928 -0.20769,0 -0.58879,0.22041 -0.84688,0.4898 -0.25809,0.26938 -0.55918,0.48979 -0.66909,0.48979 -0.10991,0 -0.37167,0.20312 -0.5817,0.45137 -0.39776,0.47014 -4.5421,2.6507 -5.0379,2.6507 -0.15605,0 -0.5682,0.11942 -0.9159,0.26536 -0.39628,0.16633 -1.0986,0.26573 -1.882,0.26638 -1.235,0.002 -1.2612,-0.008 -2.223,-0.74787 -0.72348,-0.5567 -1.0003,-0.88432 -1.0788,-1.2766 -0.17035,-0.85176 0.0421,-0.89713 1.9778,-0.42234 2.1589,0.52957 2.8638,0.64403 3.1917,0.51822 0.4174,-0.16016 0.66302,-1.5993 0.55345,-3.2427 -0.13456,-2.0184 -0.25536,-2.5441 -0.58454,-2.5441 -0.28522,0 -2.0735,1.5692 -4.0468,3.551 -0.64821,0.65102 -1.2439,1.1837 -1.3238,1.1837 -0.0798,0 -0.28516,0.1578 -0.45621,0.35068 -0.17107,0.19287 -0.84368,0.74678 -1.4947,1.2309 -0.65102,0.48414 -1.1837,0.93778 -1.1837,1.0081 0,0.17904 -1.286,1.0022 -1.5657,1.0022 -0.1586,0 -0.22786,-0.19053 -0.22254,-0.61224 z"
       id="asking" />
  </g>
</svg>
