<?xml version="1.0" encoding="UTF-8" standalone="no"?>
<svg
   xmlns:dc="http://purl.org/dc/elements/1.1/"
   xmlns:cc="http://creativecommons.org/ns#"
   xmlns:rdf="http://www.w3.org/1999/02/22-rdf-syntax-ns#"
   xmlns:svg="http://www.w3.org/2000/svg"
   xmlns="http://www.w3.org/2000/svg"
   id="svg2502"
   viewBox="0 0 45.85961 28.185743"
   version="1.1"
   height="28.185743"
   width="45.859612">
  <defs
     id="defs2506" />
  <metadata
     id="metadata2">
    <rdf:RDF>
      <cc:Work
         rdf:about="">
        <dc:format>image/svg+xml</dc:format>
        <dc:type
           rdf:resource="http://purl.org/dc/dcmitype/StillImage" />
        <dc:title />
      </cc:Work>
    </rdf:RDF>
  </metadata>
  <g
     transform="translate(-646.68996,-618.94232)"
     style="stroke-width:0.16327"
     id="g2500">
    <path
       d="m 646.69,631.92 c 0,-0.41479 0.10276,-0.635 0.38152,-0.81765 0.20985,-0.1375 0.61393,-0.60863 0.89796,-1.047 0.4424,-0.68273 0.51634,-0.94586 0.51574,-1.8354 0,-0.87988 -0.0752,-1.1506 -0.4891,-1.7731 -0.57564,-0.86592 -0.60135,-1.0717 -0.16326,-1.3061 0.90358,-0.48357 2.2857,1.402 2.2857,3.1183 0,1.366 -2.2822,4.2287 -3.3713,4.2287 -0.0315,0 -0.0573,-0.25544 -0.0573,-0.56766 z m 21.826,-7.3109 c 0.77166,-1.5129 1.1118,-2.6833 0.92998,-3.2002 -0.22723,-0.64613 -0.67781,-0.64338 -0.94903,0.006 -0.3674,0.8793 -0.86547,4.216 -0.62916,4.2149 0.0704,0 0.36214,-0.45951 0.64821,-1.0204 z m 6.7106,5.8782 c 0.0928,-0.11224 0.22013,-0.47959 0.28305,-0.81633 0.10217,-0.54671 0.0783,-0.61224 -0.22261,-0.61224 -0.25039,0 -0.38074,0.1574 -0.50706,0.61224 -0.2263,0.81486 -0.2156,1.0204 0.0531,1.0204 0.12369,0 0.30079,-0.0918 0.39356,-0.20408 z m 2.9819,16.459 c -0.35755,-0.43082 -0.12472,-1.8379 0.53584,-3.2383 0.32918,-0.6979 0.59851,-1.3437 0.59851,-1.4351 0,-0.0914 0.14485,-0.45011 0.32188,-0.79713 0.17705,-0.34702 0.43582,-1.2074 0.57509,-1.9119 0.13925,-0.7045 0.355,-1.4646 0.47946,-1.6891 0.12444,-0.22449 0.27807,-0.68449 0.34139,-1.0222 0.0633,-0.33773 0.17464,-0.65084 0.24739,-0.6958 0.0728,-0.045 0.2562,-0.45483 0.40764,-0.91083 0.19759,-0.59485 0.22546,-0.87898 0.0986,-1.0058 -0.25443,-0.25443 -1.236,0.29564 -2.0135,1.1284 -0.84752,0.90774 -2.2508,1.567 -3.343,1.5706 -0.84344,0.003 -3.5592,-0.75161 -3.736,-1.0378 -0.15343,-0.24826 -0.84769,-0.16712 -1.1491,0.1343 -0.15582,0.15583 -0.54678,0.38152 -0.8688,0.50154 -2.1126,0.78741 -3.1647,0.88224 -4.0957,0.36911 -0.31429,-0.17322 -0.7281,-0.38842 -0.91959,-0.4782 -0.41133,-0.1929 -0.9523,-0.91672 -1.291,-1.7275 -0.30262,-0.72423 -0.59076,-0.73152 -1.446,-0.0366 -0.36844,0.29936 -1.0005,0.74333 -1.4046,0.98658 -0.40409,0.24325 -0.8449,0.50872 -0.9796,0.58993 -2.3444,1.4134 -5.0836,1.6841 -6.5192,0.64418 -0.3639,-0.26361 -0.72294,-0.4793 -0.79786,-0.4793 -0.17936,0 -0.7559,-0.6387 -0.99481,-1.102 -0.25035,-0.48552 0.029,-1.0204 0.53285,-1.0204 0.20503,0 0.66162,0.25846 1.0147,0.57435 0.35307,0.3159 0.95991,0.72932 1.3486,0.91871 0.61928,0.30178 0.75724,0.31729 1.1158,0.12539 0.95089,-0.50892 1.1257,-1.2418 1.058,-4.4348 -0.0234,-1.1015 -0.0236,-1.102 -0.49624,-1.102 -0.33403,0 -0.61702,0.16415 -0.96373,0.55902 -0.26994,0.30746 -0.70664,0.67063 -0.97041,0.80704 -0.26377,0.13641 -0.65664,0.43459 -0.87302,0.66264 -0.21639,0.22805 -0.4669,0.41702 -0.5567,0.41991 -0.0898,0.003 -0.5975,0.40826 -1.1282,0.90078 -0.53075,0.49254 -1.0614,0.89551 -1.1793,0.89551 -0.24734,0 -1.3306,0.94377 -2.7641,2.4082 -1.1771,1.2024 -1.7038,1.3455 -1.7038,0.4627 0,-0.4553 0.11953,-0.65236 0.65094,-1.0733 0.35803,-0.28356 0.77724,-0.72937 0.93161,-0.99068 0.15437,-0.2613 0.52973,-0.5933 0.83417,-0.73778 0.30443,-0.14445 0.85868,-0.55143 1.2317,-0.90437 0.37298,-0.35297 1.1557,-0.93137 1.7394,-1.2854 0.58367,-0.35399 1.4631,-1.0686 1.9544,-1.588 1.1835,-1.2515 3.2417,-2.822 3.6982,-2.822 0.43223,0 0.8418,0.37032 0.96869,0.87585 0.15023,0.5986 0.15423,5.1873 0.005,6.0221 -0.10377,0.5815 -0.0879,0.77551 0.0634,0.77551 0.2153,0 2.3183,-1.1598 3.2714,-1.8041 1.0971,-0.74173 2.9367,-3.404 2.9367,-4.2501 0,-0.16163 0.0722,-0.3385 0.16043,-0.39303 0.2161,-0.13357 0.90782,-2.5055 1.1432,-3.9201 0.36103,-2.1698 0.82829,-3.8476 1.397,-5.016 0.31381,-0.64481 0.66109,-1.2299 0.77173,-1.3002 0.31183,-0.19807 1.1005,-0.15547 1.3199,0.0713 0.30209,0.31218 0.85055,1.3003 0.96516,1.7388 0.13564,0.51902 -0.10765,1.7478 -0.59414,3.0005 -0.21696,0.55871 -0.43748,1.1995 -0.49004,1.424 -0.0525,0.22449 -0.46161,0.88571 -0.90904,1.4694 -0.44743,0.58367 -0.81618,1.2012 -0.81945,1.3723 -0.003,0.17112 -0.17546,0.53846 -0.38266,0.81632 -1.2864,1.7252 -1.9872,4.0136 -1.5939,5.2052 0.10705,0.32437 0.44986,0.81384 0.7618,1.0877 0.49753,0.43685 0.68744,0.49796 1.5475,0.49796 1.2016,0 2.044,-0.38733 3.1435,-1.4455 0.94404,-0.90849 1.1836,-1.3302 1.3372,-2.3546 0.0639,-0.42645 0.18128,-0.81553 0.26071,-0.86463 0.0794,-0.0491 0.14442,-0.30261 0.14442,-0.56337 0,-0.67648 0.60217,-2.1222 1.1035,-2.6495 0.32999,-0.34704 0.57857,-0.44898 1.0948,-0.44898 0.85545,0 1.2804,0.30522 1.5462,1.1107 0.3288,0.99631 -0.13935,2.1602 -1.3653,3.3943 -1.3464,1.3553 -1.5836,1.7013 -1.532,2.2336 0.0685,0.70642 1.0264,1.2385 2.4456,1.3587 0.89659,0.0759 1.1078,0.0374 1.592,-0.29061 0.30706,-0.20799 0.69876,-0.46137 0.87045,-0.56311 0.50634,-0.3 1.4284,-1.25 1.4284,-1.4716 0,-0.11262 0.0938,-0.26351 0.20849,-0.33532 0.41315,-0.25872 1.2957,-1.5359 1.5858,-2.2947 0.16284,-0.42607 0.40885,-1.0686 0.54668,-1.4277 0.13784,-0.35918 0.29404,-0.8576 0.3471,-1.1076 0.1246,-0.58691 0.67461,-0.84903 1.2903,-0.61492 l 0.45888,0.17446 -0.11548,1.3863 c -0.13097,1.5724 -0.0185,1.7049 0.69171,0.81484 0.25076,-0.31428 0.53338,-0.57143 0.62805,-0.57143 0.0947,0 0.53547,-0.23569 0.97959,-0.52373 1.0744,-0.69685 1.7853,-0.94023 2.7552,-0.94319 0.75131,-0.002 0.85301,0.0492 1.5271,0.77305 1.0268,1.1026 1.2256,1.5711 1.308,3.0829 0.0882,1.6183 -0.1875,2.5681 -1.0969,3.7784 -0.88936,1.1836 -1.0271,1.3021 -2.0673,1.7783 -0.81329,0.37233 -1.0491,0.40895 -2.0048,0.3113 -1.1294,-0.11538 -1.3388,-0.2139 -2.3483,-1.1047 -0.75834,-0.66916 -0.87166,-1.2745 -0.27889,-1.4898 0.3445,-0.12511 0.57237,-0.0502 1.3391,0.44028 0.77597,0.49637 1.0684,0.59105 1.8258,0.59105 1.2953,0 2.053,-0.52364 2.7642,-1.9102 0.31596,-0.61607 0.37248,-2.969 0.0848,-3.529 -0.10076,-0.19614 -0.37165,-0.55866 -0.60197,-0.8056 -0.3418,-0.36646 -0.5595,-0.44898 -1.1845,-0.44898 -0.69873,0 -0.87012,0.0874 -1.9573,0.99793 -1.2368,1.0358 -1.6929,1.5689 -2.2896,2.6755 -0.19365,0.35919 -0.44405,0.76327 -0.55642,0.89796 -0.11239,0.1347 -0.24655,0.67786 -0.29812,1.207 -0.0747,0.76671 -0.19138,1.0652 -0.57422,1.4694 -0.51261,0.54124 -1.171,1.8967 -1.171,2.4107 0,0.3574 -0.57641,2.1981 -0.82521,2.6352 -0.30625,0.53805 -0.97071,2.516 -0.97071,2.8896 0,0.2026 -0.23454,0.85494 -0.52122,1.4496 -0.28668,0.5947 -0.5256,1.0936 -0.53096,1.1088 -0.005,0.0152 -0.19869,0.075 -0.42966,0.13295 -0.28425,0.0713 -0.48849,0.0228 -0.6321,-0.15024 z"
       id="asleep" />
  </g>
</svg>
