<svg xmlns="http://www.w3.org/2000/svg" height="28.186" width="45.86"><path d="M0 12.978c0-.415.103-.635.382-.818.21-.137.613-.609.898-1.047.442-.683.516-.946.515-1.835 0-.88-.075-1.151-.489-1.773-.575-.866-.601-1.072-.163-1.307.903-.483 2.286 1.402 2.286 3.119 0 1.366-2.283 4.228-3.372 4.228-.031 0-.057-.255-.057-.567zm21.826-7.311c.772-1.513 1.112-2.684.93-3.2-.227-.647-.678-.644-.949.006-.367.879-.865 4.216-.63 4.214.071 0 .363-.459.649-1.02zm6.71 5.878c.093-.112.22-.48.284-.816.102-.547.078-.613-.223-.613-.25 0-.38.158-.507.613-.226.815-.216 1.02.053 1.02.124 0 .3-.092.394-.204zm2.983 16.459c-.358-.43-.125-1.838.535-3.238.33-.698.599-1.344.599-1.435 0-.092.145-.45.322-.798.177-.347.436-1.207.575-1.911.14-.705.355-1.465.48-1.69.124-.224.277-.684.34-1.022.064-.337.175-.65.248-.696.073-.045.256-.454.408-.91.197-.595.225-.88.098-1.006-.254-.255-1.236.295-2.013 1.128-.848.908-2.251 1.567-3.343 1.57-.844.004-3.56-.75-3.736-1.037-.154-.248-.848-.167-1.15.134-.155.156-.546.382-.868.502-2.113.787-3.165.882-4.096.369a20.38 20.38 0 00-.92-.478c-.41-.193-.952-.917-1.29-1.728-.303-.724-.591-.731-1.446-.036-.369.299-1 .743-1.405.986l-.98.59c-2.344 1.414-5.083 1.684-6.519.644-.364-.263-.723-.479-.798-.479-.179 0-.756-.639-.994-1.102-.25-.485.029-1.02.532-1.02.205 0 .662.258 1.015.574.353.316.96.73 1.349.919.619.301.757.317 1.116.125.95-.509 1.125-1.242 1.058-4.435-.024-1.101-.024-1.102-.497-1.102-.334 0-.617.164-.963.56-.27.307-.707.67-.97.806a3.958 3.958 0 00-.874.663c-.216.228-.467.417-.557.42-.09.003-.597.408-1.128.9-.53.493-1.061.896-1.18.896-.246 0-1.33.944-2.763 2.408C.527 19.278 0 19.421 0 18.538c0-.455.12-.652.651-1.073.358-.284.777-.73.932-.99.154-.262.53-.594.834-.739.304-.144.858-.551 1.231-.904.373-.353 1.156-.931 1.74-1.285.584-.354 1.463-1.069 1.954-1.588 1.184-1.252 3.242-2.822 3.698-2.822.433 0 .842.37.97.875.15.599.153 5.188.004 6.023-.104.581-.088.775.064.775.215 0 2.318-1.16 3.27-1.804 1.098-.742 2.938-3.404 2.938-4.25 0-.162.072-.339.16-.393.216-.134.908-2.506 1.143-3.92.361-2.17.829-3.848 1.397-5.016.314-.645.661-1.23.772-1.3.312-.199 1.1-.156 1.32.07.302.313.85 1.301.965 1.74.136.519-.108 1.747-.594 3-.217.559-.438 1.2-.49 1.424-.053.225-.462.886-.91 1.47-.447.583-.815 1.2-.819 1.372-.003.17-.175.538-.382.816-1.287 1.725-1.987 4.014-1.594 5.205.107.325.45.814.762 1.088.497.437.687.498 1.547.498 1.202 0 2.044-.387 3.144-1.446.944-.908 1.183-1.33 1.337-2.354.064-.427.181-.816.26-.865.08-.049.145-.302.145-.563 0-.677.602-2.122 1.103-2.65.33-.347.579-.449 1.095-.449.856 0 1.28.306 1.546 1.111.33.996-.139 2.16-1.365 3.394-1.346 1.356-1.583 1.702-1.532 2.234.069.706 1.027 1.239 2.446 1.359.896.076 1.108.037 1.592-.29.307-.209.699-.462.87-.564.507-.3 1.429-1.25 1.429-1.472 0-.112.093-.263.208-.335.413-.259 1.296-1.536 1.586-2.295l.547-1.427c.137-.36.294-.858.347-1.108.124-.587.674-.849 1.29-.615l.459.175-.116 1.386c-.13 1.572-.018 1.705.692.815.25-.315.533-.572.628-.572.095 0 .536-.235.98-.523 1.074-.697 1.785-.94 2.755-.944.751-.002.853.05 1.527.773 1.027 1.103 1.226 1.572 1.308 3.083.088 1.619-.187 2.568-1.097 3.779-.89 1.183-1.027 1.302-2.067 1.778-.813.372-1.05.409-2.005.311-1.13-.115-1.339-.214-2.348-1.104-.759-.67-.872-1.275-.28-1.49.345-.125.573-.05 1.34.44.776.496 1.068.591 1.826.591 1.295 0 2.053-.523 2.764-1.91.316-.616.372-2.969.085-3.529-.101-.196-.372-.559-.602-.806-.342-.366-.56-.449-1.185-.449-.698 0-.87.088-1.957.998-1.237 1.036-1.693 1.57-2.29 2.676-.193.359-.444.763-.556.898-.112.134-.247.678-.298 1.207-.075.766-.192 1.065-.574 1.47-.513.54-1.171 1.896-1.171 2.41 0 .357-.577 2.198-.826 2.635-.306.538-.97 2.516-.97 2.89 0 .202-.235.855-.522 1.45a123.62 123.62 0 00-.53 1.108c-.005.015-.2.075-.43.133-.284.071-.489.023-.632-.15z"/></svg>