<svg xmlns="http://www.w3.org/2000/svg" height="13.049" width="63.594"><path d="M.025 6.934c-.074-.294.014-.587.308-1.02 1.282-1.891 1.425-3.65.354-4.352C.177 1.228-.047.79.067.352.144.066.282 0 .814 0c.543 0 .745.1 1.202.6.302.33.634.855.737 1.166.439 1.332-.267 3.924-1.354 4.969-.751.722-1.225.791-1.373.199zm.356 5.86c-.129-.336.26-.945.845-1.322.246-.159.815-.662 1.264-1.118.449-.457.892-.86.984-.898.092-.038.457-.417.81-.844.353-.426.737-.775.852-.775.116 0 .21-.062.21-.138 0-.289 2.467-2.607 3.469-3.259.234-.152.83-.63 1.325-1.063.787-.688.977-.78 1.522-.735.703.058.589-.253 1.116 3.037.246 1.534.242 2.112-.025 3.505-.076.398-.037.449.346.449.238 0 .567-.072.731-.16.968-.518 3.925-3.551 3.925-4.026 0-.109.172-.405.383-.659.211-.254.435-.79.498-1.192.188-1.203.963-1.727 1.386-.937.219.409.216.422-.634 3.463-.276.988-.545 2.098-.596 2.466-.087.613-.051.7.419 1.035.475.339.575.351 1.33.17.47-.112 1.11-.435 1.505-.759 1.082-.885 2.725-2.687 3.083-3.38.628-1.218 2.83-2.984 3.81-3.055 1.113-.081 1.174-.041 1.585 1.033.237.622.497 1.04.666 1.073.152.03.59-.2.972-.51.884-.717 2.278-1.364 3.237-1.503.651-.094.81-.054 1.248.315.443.372.527.584.707 1.797.163 1.096.164 1.63.003 2.626-.258 1.602-.083 2.119.807 2.386 1.145.342 2.36-.357 3.836-2.207.27-.338.526-.709.571-.824.045-.115.486-.684.98-1.263 1.65-1.934 3.323-2.794 4.359-2.24.455.244 1.192 1.29 1.192 1.694 0 .323.426.322.55-.002.053-.137.41-.4.793-.583a37.38 37.38 0 001.269-.64c.832-.447 1.993-.718 2.513-.587.25.062.898.553 1.442 1.09.955.943 1.002.968 1.374.728.212-.137.587-.375.834-.53.247-.155.486-.332.53-.393.176-.236 1.992-.943 2.698-1.049.717-.107.769-.086 1.379.555.524.55.682.883.912 1.918.287 1.288.271 1.927-.107 4.475-.234 1.577-.388 1.96-.792 1.96-.546 0-.873-.694-.75-1.59.058-.428.145-1.667.192-2.753.068-1.552.033-2.102-.163-2.571-.236-.564-.29-.597-.999-.597a3.54 3.54 0 00-1.437.349c-.967.49-2.728 2.304-2.728 2.81 0 .334-.344 1.282-1.136 3.127-.077.18-.182.455-.232.612-.111.349-.954.39-1.228.06-.183-.22-.126-.507.293-1.488.459-1.074.546-1.418.626-2.47.155-2.044-.2-2.738-1.514-2.95-.464-.076-.756.02-1.587.521-.56.338-1.228.844-1.485 1.124-.521.568-1.41 1.816-1.41 1.98 0 .058-.258.64-.572 1.294-.314.653-.571 1.33-.571 1.505 0 .615-.719.922-1.298.555-.358-.226-.26-1.131.22-2.033.233-.44.425-.911.425-1.048s.108-.368.24-.515c.136-.15.289-.777.35-1.443.13-1.387-.112-1.827-1.002-1.827-.42 0-.715.19-1.485.952-.528.523-1.144 1.225-1.369 1.56-.224.336-.647.906-.939 1.269-.291.362-.53.713-.53.78 0 .156-1.834 1.633-2.508 2.02-.772.443-2.486.326-3.159-.217-.938-.755-1.05-1.217-.927-3.816.139-2.93.088-3.058-1.114-2.828-.952.181-1.882.817-3.016 2.062-.762.836-1.521 2.136-1.521 2.605 0 .452-.794 1.794-1.186 2.004-.275.147-.38.126-.553-.11-.204-.28-.181-.653.097-1.546 1.065-3.424 1.202-5.05.438-5.197-.592-.114-1.765.691-2.288 1.572-.554.931-.991 1.475-2.114 2.628-2.347 2.413-3.71 3.223-5.181 3.082-.984-.095-1.456-.487-1.94-1.611-.38-.884-.737-1.021-1.232-.474-.163.18-.381.327-.486.327-.105 0-.479.243-.832.54-.904.76-1.623 1.16-2.846 1.58-1.383.475-2.465.454-4.177-.08-1.168-.363-1.445-.518-1.71-.951-.736-1.208-.07-1.558 1.52-.801 1.852.883 2.76.841 3.251-.149.663-1.339.771-2.305.44-3.951-.279-1.39-.594-1.393-2.28-.02-1.501 1.221-2.797 2.458-3.32 3.166-.19.257-.674.738-1.075 1.068-.678.556-1.768 1.5-2.979 2.577-.565.503-1.174.586-1.33.181z"/></svg>