<svg xmlns="http://www.w3.org/2000/svg" height="34.758" width="37.026"><path d="M.098 12.357c-.228-.275-.043-.955.4-1.462.413-.474.566-1.014.668-2.366.07-.92.035-1.07-.345-1.522C.59 6.73.4 6.369.4 6.203c0-.295.4-.816.627-.816.34 0 1.325.88 1.575 1.406.553 1.165.052 3.534-1.108 5.246-.385.567-1.06.721-1.395.318zm35.467 7.37c-.065-.105-.128-1.262-.14-2.572-.02-2.064-.07-2.483-.376-3.156-.331-.728-.391-.775-.977-.775-.464 0-.785.135-1.258.53-1.197 1-2.019 1.933-2.379 2.701-.198.423-.49.953-.647 1.177a3.1 3.1 0 00-.404.944c-.142.656-.743 1.091-1.31.948-.52-.13-.531-.551-.07-2.498.333-1.405.35-2.721.055-4.235-.077-.394-.02-.595.242-.857.188-.189.402-.343.475-.343.393 0 .725.53.95 1.514.187.822.319 1.097.523 1.093.313-.006 1.007-.541 1.007-.777 0-.363 2.473-1.695 3.182-1.715.325-.009.771.142 1.116.379.483.33.648.616 1.03 1.787.407 1.245.454 1.614.44 3.475-.01 1.397-.082 2.163-.218 2.327-.24.29-1.073.325-1.24.053zM11.07 18.6c.579-.455.558-.805-.046-.805-.761 0-.993.157-.993.67 0 .581.405.634 1.04.135zM9.186 33.093c.277-.223.845-1.332.845-1.653 0-.135.105-.487.232-.782.382-.883 1.237-3.67 1.237-4.034 0-.718-1.183-.255-1.638.641-.115.225-.527.784-.918 1.242-.39.459-.709.932-.709 1.05 0 .12-.159.545-.353.946a5.284 5.284 0 00-.426 1.495c-.066.685-.026.803.378 1.121.455.358.883.35 1.352-.026zm2.478-1.728c-.488 1.083-1.458 2.387-2.055 2.91-.536.471-.696.527-1.308.458-.853-.096-1.615-.668-1.872-1.405-.46-1.322.306-3.815 1.602-5.213.112-.121.204-.318.204-.437 0-.196.638-.959 2.69-3.217 1.028-1.132 1.408-1.974 1.512-3.349.108-1.433-.081-1.6-1.2-1.056-.394.191-1 .394-1.344.449-.58.092-.666.053-1.142-.526-.284-.343-.513-.737-.51-.873.014-.472.568-1.269 1.35-1.94 1.147-.986 1.335-1.057 2.502-.937l1.03.106.445-.698c.78-1.225 1.563-2.934 2.151-4.698.55-1.648.575-1.825.636-4.572.062-2.759.051-2.882-.325-3.592-.42-.792-.938-1.13-1.939-1.264-.68-.091-2.324.198-3.216.566-.891.367-2.66 1.743-3.609 2.806-.602.676-1.008.995-1.265.995-.517 0-.503-.584.03-1.307.224-.304.408-.649.408-.766 0-.117.1-.213.223-.213.122 0 .56-.36.971-.8.412-.441 1.138-.99 1.614-1.221.476-.23.976-.49 1.11-.577A6.155 6.155 0 0113.674 0c3.353 0 4.52 1.98 4.15 7.04-.178 2.443-.747 4.583-1.753 6.593-.45.898-.817 1.721-.817 1.83 0 .11-.21.44-.466.735-.635.728-1.167 1.814-1.158 2.367.004.25.1.86.215 1.353.283 1.217.656 1.272 1.74.258.44-.411.865-.748.944-.748.08 0 .396-.238.701-.53.306-.292.786-.72 1.067-.953.281-.232.56-.577.62-.767.061-.19.473-.735.915-1.21.443-.477.807-.948.808-1.048.002-.1.174-.357.383-.571.52-.535 1.416-1.874 1.416-2.118 0-.11.27-.683.6-1.273.33-.59.66-1.369.733-1.73.073-.361.237-1.208.363-1.881.303-1.608.488-2.048 1.001-2.385.406-.265.44-.264.726.033.29.301.29.365.006 2.025-.287 1.671-.621 2.913-.952 3.531-.253.474-.844 2.414-.844 2.771 0 .176-.123.495-.273.71-.28.4-.833 2.125-.984 3.075-.065.406.018.687.34 1.152.54.78.546 1.226.02 1.466-.925.421-1.646-.406-1.822-2.088-.122-1.168-.331-1.243-.932-.335-.237.357-.602.762-.811.9-.21.137-.476.424-.59.639-.115.214-.5.599-.857.856a18.95 18.95 0 00-1.247.996c-.33.291-.664.53-.743.53-.078 0-.664.493-1.3 1.093-1.2 1.132-1.56 1.795-1.89 3.48-.079.404-.271 1.12-.405 1.681-.308 1.295-.368 2.674-.914 3.888z"/></svg>