<svg xmlns="http://www.w3.org/2000/svg" height="34.785" width="51.558"><path d="M.06 13.376c-.179-.29.051-.87.548-1.382.704-.725 1.011-1.439 1.12-2.602.082-.878.04-1.154-.257-1.726-.46-.88-.338-1.302.374-1.302.94 0 1.568.96 1.568 2.395 0 1.118-.472 2.424-1.256 3.469-.297.396-.54.81-.54.921 0 .384-1.339.579-1.556.227zm12.246 5.707c.603-.53.751-.963.328-.963-.429 0-1.547.842-1.547 1.165 0 .467.562.374 1.219-.202zm-2.68 13.97c.266-.136.658-.522.87-.856.214-.335.555-.792.757-1.016.608-.674 1.956-3.842 1.956-4.597 0-.166-.094-.301-.208-.301-.253 0-2.567 2.302-2.567 2.553 0 .098-.224.427-.497.73-1.093 1.219-1.734 2.969-1.284 3.51.239.288.379.285.973-.022zm-1.965 1.233c-.506-.541-.732-1.405-.567-2.159.105-.477 1.027-2.24 1.762-3.366.325-.5 2.056-2.371 4.257-4.602.492-.5.936-1.117.997-1.388.06-.268.176-.745.257-1.06.08-.314.147-.92.147-1.346.002-.69-.038-.776-.355-.776-.197 0-.509.14-.694.311-.609.561-1.859 1.158-2.426 1.158-.753 0-1.558-.298-1.745-.647-.404-.755 1.163-3.107 2.364-3.545 1.213-.442 1.678-.507 2.354-.326.62.165.692.147 1.154-.295.27-.26.492-.537.492-.616 0-.079.181-.381.403-.672.879-1.151 1.724-3.531 2.124-5.98.14-.853.363-2.137.497-2.854.249-1.328.156-2.595-.245-3.344-.607-1.135-2.672-1.706-4.503-1.246-.57.143-1.176.26-1.347.26-.17 0-.647.257-1.059.572-.412.314-.793.571-.849.571-.232 0-2.033 1.915-2.19 2.329-.189.496-.83.871-1.229.718-.164-.063-.255-.302-.255-.673 0-.5.165-.74 1.272-1.842C9.802 1.949 10.759 1.14 11.03 1.14c.11 0 .46-.153.777-.34.857-.506 2.147-.799 3.524-.8 1.453-.002 2.328.215 3.027.749.283.215.563.391.623.391.274 0 1.081 1.13 1.26 1.761.223.793.124 3.067-.156 3.59-.098.183-.257 1.056-.354 1.94-.203 1.86-.68 3.928-1.056 4.582l-.826 1.433c-.31.54-.64 1.164-.735 1.388-.094.225-.4.645-.679.935-.577.599-.611.925-.29 2.78.18 1.04.247 1.182.552 1.174.192-.005.605-.191.92-.412.314-.222.81-.556 1.101-.742.292-.186.531-.401.531-.478 0-.077.258-.262.574-.412.316-.15.902-.576 1.302-.946 1.93-1.787 3.349-3.249 3.349-3.45 0-.121.189-.37.42-.552.473-.372 1.375-1.562 1.375-1.814 0-.09.066-.165.147-.165.24 0 1.603-2.32 1.727-2.938.15-.745.507-1.822.93-2.805.265-.616.42-.787.716-.787.491 0 .625.44.486 1.61-.152 1.28-.343 1.856-1.151 3.451-.387.763-.79 1.718-.899 2.122a9.355 9.355 0 01-.343 1.062c-.38.846-1.004 2.843-1.073 3.44-.07.6-.022.714.494 1.167.366.32.828.54 1.28.607.389.057 1.012.182 1.385.278 1.415.363 9.813-.173 11.485-.733 1.224-.41 2.015-.72 2.53-.99a4.49 4.49 0 011.062-.363c.314-.057.755-.233.98-.39.224-.158 1.048-.59 1.83-.962.781-.372 1.465-.747 1.52-.835.186-.303 1.562-.829 1.892-.724.47.15.346.878-.203 1.207l-1.102.654c-.37.219-.672.452-.672.518s-.386.246-.857.4c-.472.155-1.042.41-1.267.568-.46.322-2.311 1.141-3.427 1.517-3.456 1.164-4.277 1.42-5.062 1.582-.583.12-2.527.166-5.55.131l-4.654-.052-.898-.447c-.494-.245-1.255-.778-1.692-1.183l-.795-.737.114-1.061c.095-.892.074-1.062-.135-1.062-.137 0-.345.136-.462.3-.117.166-.52.495-.896.73-.375.236-.78.626-.898.867-.118.24-.472.573-.787.738-.314.165-.681.431-.816.592-.135.16-.583.488-.996.73-.673.391-1.392.93-2.577 1.932a5.37 5.37 0 01-.816.552c-.694.361-1.093.926-1.387 1.967-.442 1.56-.956 3.087-1.106 3.282-.076.1-.182.505-.237.902-.096.699-.416 1.305-1.764 3.342-1.715 2.59-3.57 3.527-4.665 2.355z" stroke-width=".163"/></svg>