<?xml version="1.0" encoding="UTF-8" standalone="no"?>
<svg
   xmlns:dc="http://purl.org/dc/elements/1.1/"
   xmlns:cc="http://creativecommons.org/ns#"
   xmlns:rdf="http://www.w3.org/1999/02/22-rdf-syntax-ns#"
   xmlns:svg="http://www.w3.org/2000/svg"
   xmlns="http://www.w3.org/2000/svg"
   id="svg2502"
   viewBox="0 0 51.558092 34.784561"
   version="1.1"
   height="34.784561"
   width="51.558094">
  <defs
     id="defs2506" />
  <metadata
     id="metadata2">
    <rdf:RDF>
      <cc:Work
         rdf:about="">
        <dc:format>image/svg+xml</dc:format>
        <dc:type
           rdf:resource="http://purl.org/dc/dcmitype/StillImage" />
        <dc:title />
      </cc:Work>
    </rdf:RDF>
  </metadata>
  <g
     transform="translate(-659.27944,-760.81444)"
     style="stroke-width:0.16327"
     id="g2500">
    <path
       d="m 659.34,774.19 c -0.17938,-0.29023 0.0505,-0.87044 0.54745,-1.3819 0.70419,-0.72467 1.0114,-1.4383 1.12,-2.6019 0.082,-0.87756 0.0407,-1.1542 -0.25731,-1.7259 -0.45898,-0.88059 -0.33804,-1.3015 0.37403,-1.3015 0.94015,0 1.5685,0.95915 1.5685,2.3943 0,1.1187 -0.4725,2.424 -1.2558,3.4693 -0.29703,0.39637 -0.54007,0.81095 -0.54007,0.9213 0,0.38372 -1.3392,0.57839 -1.5568,0.2263 z m 12.245,5.7072 c 0.60387,-0.53021 0.75154,-0.96268 0.32872,-0.96268 -0.4289,0 -1.5475,0.8418 -1.5475,1.1646 0,0.46749 0.56257,0.37431 1.2188,-0.20188 z m -2.6792,13.971 c 0.26542,-0.13725 0.65718,-0.52297 0.87056,-0.85714 0.21339,-0.33417 0.5538,-0.79127 0.75644,-1.0158 0.6081,-0.67367 1.9558,-3.8414 1.9558,-4.597 0,-0.16552 -0.0937,-0.30096 -0.20816,-0.30096 -0.25256,0 -2.5674,2.302 -2.5674,2.5531 0,0.098 -0.22336,0.42686 -0.49634,0.73086 -1.0936,1.2178 -1.7341,2.968 -1.2844,3.5098 0.23889,0.28785 0.37886,0.28457 0.97344,-0.0229 z m -1.9656,1.2319 c -0.50549,-0.54112 -0.73223,-1.4046 -0.56671,-2.1583 0.1048,-0.47713 1.0269,-2.2396 1.7615,-3.3668 0.32503,-0.49874 2.0566,-2.3706 4.257,-4.6017 0.49277,-0.49966 0.93623,-1.1166 0.99757,-1.3878 0.0607,-0.2685 0.17636,-0.74534 0.25695,-1.0596 0.0806,-0.31429 0.14692,-0.92041 0.14741,-1.3469 0.002,-0.6889 -0.0389,-0.77551 -0.3559,-0.77551 -0.19626,0 -0.50851,0.13992 -0.69388,0.31095 -0.60856,0.56141 -1.8587,1.1584 -2.4258,1.1584 -0.75276,0 -1.5584,-0.29873 -1.7448,-0.64694 -0.40458,-0.75595 1.1633,-3.1073 2.3641,-3.5452 1.2132,-0.44248 1.6778,-0.50694 2.3536,-0.32653 0.62064,0.16565 0.6921,0.14738 1.154,-0.29515 0.27081,-0.25946 0.49239,-0.53638 0.49239,-0.61537 0,-0.079 0.18126,-0.38125 0.40281,-0.67172 0.87855,-1.1518 1.7238,-3.5318 2.124,-5.9807 0.13941,-0.85306 0.36323,-2.1372 0.49735,-2.8536 0.24864,-1.3282 0.15568,-2.5949 -0.24545,-3.3444 -0.60718,-1.1345 -2.6723,-1.7059 -4.5032,-1.246 -0.57011,0.1432 -1.1762,0.26038 -1.3469,0.26038 -0.17067,0 -0.64708,0.25714 -1.0587,0.57143 -0.41161,0.31428 -0.7936,0.57143 -0.84887,0.57143 -0.23209,0 -2.0329,1.9145 -2.1902,2.3285 -0.18868,0.4966 -0.82986,0.87151 -1.2287,0.71844 -0.16473,-0.0632 -0.25531,-0.30207 -0.25531,-0.67324 0,-0.50055 0.16519,-0.73978 1.2718,-1.8419 1.5247,-1.5185 2.4823,-2.3278 2.7542,-2.3278 0.11017,0 0.45978,-0.1531 0.77693,-0.34021 0.85735,-0.50586 2.1473,-0.79865 3.5237,-0.79981 1.4531,-0.002 2.3286,0.21523 3.0278,0.74861 0.28224,0.21526 0.56237,0.39141 0.62252,0.39141 0.27366,0 1.0813,1.1294 1.2594,1.7612 0.22348,0.79268 0.12485,3.0663 -0.15575,3.5906 -0.0977,0.18263 -0.25671,1.0552 -0.35326,1.9392 -0.20322,1.8603 -0.68008,3.9276 -1.0568,4.5815 -0.14392,0.24978 -0.51533,0.89498 -0.82535,1.4338 -0.31003,0.53878 -0.64069,1.1633 -0.73481,1.3878 -0.0941,0.22449 -0.3998,0.64525 -0.67932,0.93505 -0.57728,0.59851 -0.61141,0.92514 -0.29035,2.7792 0.1801,1.0401 0.24714,1.1825 0.55259,1.1743 0.1912,-0.005 0.60477,-0.19066 0.91905,-0.41218 0.31429,-0.22152 0.81021,-0.55515 1.102,-0.7414 0.29183,-0.18627 0.53061,-0.40142 0.53061,-0.47814 0,-0.0767 0.2584,-0.26209 0.57423,-0.41197 0.31583,-0.14986 0.90172,-0.57575 1.302,-0.94643 1.9297,-1.787 3.3483,-3.2482 3.3483,-3.4488 0,-0.12204 0.18911,-0.37066 0.42024,-0.55248 0.47293,-0.372 1.3757,-1.5625 1.3757,-1.8142 0,-0.0906 0.0659,-0.16469 0.14636,-0.16469 0.23927,0 1.6031,-2.32 1.7276,-2.9388 0.1499,-0.74495 0.50674,-1.8216 0.92944,-2.8042 0.26508,-0.61616 0.42093,-0.78764 0.7159,-0.78764 0.49174,0 0.62488,0.44054 0.48643,1.6095 -0.1517,1.2809 -0.34362,1.8563 -1.1513,3.4517 -0.38639,0.76326 -0.79073,1.7184 -0.89852,2.1224 -0.1078,0.40409 -0.26212,0.88164 -0.34294,1.0612 -0.38081,0.84627 -1.0043,2.8435 -1.0739,3.4401 -0.0699,0.59943 -0.0214,0.71385 0.4948,1.1671 0.36563,0.32103 0.8277,0.54018 1.2794,0.60683 0.3889,0.0574 1.0122,0.18258 1.3851,0.27825 1.4151,0.36304 9.813,-0.17277 11.485,-0.73277 1.2238,-0.40986 2.0155,-0.71964 2.5306,-0.99022 0.26939,-0.14152 0.74694,-0.30462 1.0612,-0.36243 0.31428,-0.0578 0.7552,-0.23389 0.97982,-0.39127 0.22462,-0.15738 1.0481,-0.59004 1.8299,-0.96148 0.78181,-0.37145 1.4658,-0.74699 1.5199,-0.83453 0.18705,-0.30268 1.5627,-0.82874 1.893,-0.7239 0.46894,0.14883 0.34591,0.87814 -0.20356,1.2065 -0.23651,0.14135 -0.73243,0.43583 -1.102,0.6544 -0.36962,0.21858 -0.67204,0.45146 -0.67204,0.5175 0,0.066 -0.38571,0.24653 -0.85714,0.40106 -0.47143,0.15455 -1.0414,0.40994 -1.2666,0.56753 -0.45946,0.32152 -2.3109,1.141 -3.4273,1.517 -3.4556,1.1638 -4.2765,1.4203 -5.0612,1.5814 -0.58353,0.1198 -2.5273,0.16597 -5.551,0.13185 l -4.6531,-0.0525 -0.89796,-0.44648 c -0.49388,-0.24556 -1.2555,-0.77811 -1.6925,-1.1834 l -0.79456,-0.73698 0.11368,-1.0614 c 0.0955,-0.89151 0.0739,-1.0614 -0.13497,-1.0614 -0.13675,0 -0.34464,0.13525 -0.46198,0.30057 -0.11733,0.16531 -0.52047,0.49362 -0.89585,0.72957 -0.37538,0.23595 -0.77946,0.62591 -0.89796,0.8666 -0.1185,0.24067 -0.47259,0.57275 -0.78687,0.73794 -0.31429,0.16519 -0.68163,0.43149 -0.81633,0.59179 -0.13469,0.16029 -0.583,0.48847 -0.99626,0.7293 -0.67254,0.39192 -1.392,0.93182 -2.5766,1.9334 -0.21406,0.181 -0.58141,0.42911 -0.81633,0.55136 -0.69417,0.36124 -1.0927,0.92652 -1.3872,1.9676 -0.44142,1.5603 -0.95559,3.0868 -1.1054,3.2818 -0.076,0.0989 -0.18262,0.50464 -0.23706,0.90172 -0.0957,0.69856 -0.41605,1.3052 -1.7644,3.3419 -1.7149,2.5903 -3.5703,3.5269 -4.6651,2.3549 z"
       id="assisting" />
  </g>
</svg>
