<svg xmlns="http://www.w3.org/2000/svg" height="31.722" width="28.959"><path d="M.099 12.542c0-.473.227-.958.676-1.44.383-.41.628-1.272.629-2.213 0-.566-.096-.827-.438-1.184-.241-.252-.526-.458-.634-.458-.2 0-.427-.798-.29-1.02.042-.067.425-.123.852-.123.657 0 .827.069 1.108.45.965 1.305 1.18 2.505.7 3.901-.179.52-.434 1.007-.566 1.081-.133.075-.241.231-.241.348 0 .425-.786 1.077-1.299 1.077-.425 0-.497-.06-.497-.419zm11.66 4.728c.142-.054.258-.206.258-.338 0-.335-.555-.198-.622.154-.06.31-.02.332.364.184zm-1.076 12.1c.031-.18.298-.841.593-1.47.587-1.25 1.23-3.044 1.23-3.43 0-.46-.485-.244-.889.396-.222.352-.476.684-.564.739-.333.205-1.485 2.835-1.485 3.388 0 .687.109.814.646.751.263-.03.433-.166.47-.375zm-1.051 2.19c-.636-.184-1.318-1.143-1.463-2.053-.088-.555.002-.962.493-2.227.34-.878.844-1.835 1.165-2.21.311-.363.671-.913.8-1.221.13-.31.825-1.151 1.547-1.872l1.312-1.31v-.883c0-.514-.098-1.015-.235-1.2-.23-.31-.253-.307-1.057.14-.452.25-1.18.498-1.615.55-.725.086-.824.055-1.147-.356-.466-.593-.46-1.395.014-1.847.202-.193.624-.605.938-.916.75-.742 2.182-1.394 3.067-1.396.514-.002.728-.077.808-.288.06-.157.303-.58.538-.938.979-1.494 1.706-4.132 1.898-6.888.09-1.283.052-1.671-.261-2.693-.201-.657-.448-1.366-.549-1.576-.29-.603-1.047-.913-2.246-.92-.899-.005-1.235.08-2.084.526-.557.291-1.115.53-1.242.53-.236 0-1.398 1.253-1.398 1.508 0 .078-.219.377-.486.663-.268.286-.57.72-.67.965-.321.774-1.293.785-1.293.015 0-.695 1.479-3.15 1.897-3.15.112 0 .348-.204.524-.451C9.552 1.128 12.395.012 14.14 0c.852-.006 1.222.08 1.877.435 1.001.541 1.447 1.185 1.78 2.567.493 2.047.552 2.882.32 4.459-.456 3.077-.694 3.908-1.612 5.633-.223.42-.406.874-.406 1.01 0 .137-.258.542-.573.9-.761.865-.827 1.203-.555 2.848.208 1.26.267 1.4.613 1.45.226.031.535-.089.753-.293.203-.191.627-.419.944-.506.515-.142 1.346-.676 2.112-1.356.15-.134.444-.33.653-.438.434-.224 2.91-2.725 2.91-2.94 0-.078.313-.53.696-1.006.986-1.224 1.263-1.694 1.263-2.141 0-.216.135-.568.3-.782.164-.214.472-.83.685-1.369.213-.538.445-1.05.517-1.134.072-.086.13-.312.13-.502 0-.411.663-2.41 1.043-3.144.147-.284.41-.593.587-.687.264-.141.367-.098.596.252.264.403.26.49-.092 1.758-.618 2.23-.847 2.886-1.004 2.886-.082 0-.15.134-.15.299 0 .164-.183.66-.407 1.102-.224.442-.408.919-.408 1.06 0 .255-.56 1.737-1.136 3.008-.39.86-.727 2.573-.603 3.065.054.215.323.675.599 1.021.594.748.576 1.217-.058 1.52-.423.202-.499.188-.868-.159a3.555 3.555 0 01-1.123-2.143c-.063-.427-.182-.818-.264-.869-.159-.098-.746.337-2.232 1.654-1.163 1.031-2.078 1.707-2.309 1.707-.098 0-.552.257-1.009.572-.457.314-.918.571-1.025.571-.107 0-.498.223-.868.496-.664.488-.81.763-1.343 2.525a28.18 28.18 0 01-1.336 3.448c-.257.55-.511 1.248-.566 1.551-.178.983-.746 2.005-1.509 2.715-.41.381-.785.687-.834.679a11.66 11.66 0 01-.596-.162z" stroke-width=".163"/></svg>