<?xml version="1.0" encoding="UTF-8" standalone="no"?>
<svg
   xmlns:dc="http://purl.org/dc/elements/1.1/"
   xmlns:cc="http://creativecommons.org/ns#"
   xmlns:rdf="http://www.w3.org/1999/02/22-rdf-syntax-ns#"
   xmlns:svg="http://www.w3.org/2000/svg"
   xmlns="http://www.w3.org/2000/svg"
   id="svg2502"
   viewBox="0 0 63.594042 13.049477"
   version="1.1"
   height="13.049477"
   width="63.594044">
  <defs
     id="defs2506" />
  <metadata
     id="metadata2">
    <rdf:RDF>
      <cc:Work
         rdf:about="">
        <dc:format>image/svg+xml</dc:format>
        <dc:type
           rdf:resource="http://purl.org/dc/dcmitype/StillImage" />
        <dc:title />
      </cc:Work>
    </rdf:RDF>
  </metadata>
  <g
     transform="translate(-646.57527,-672.65597)"
     style="stroke-width:0.16327"
     id="g2500">
    <path
       d="m 646.6,679.59 c -0.0739,-0.29431 0.0147,-0.58744 0.3082,-1.0204 1.282,-1.8909 1.4251,-3.6501 0.35419,-4.3518 -0.51005,-0.33419 -0.73372,-0.77089 -0.61917,-1.2089 0.0752,-0.2875 0.21332,-0.35293 0.74511,-0.35293 0.54339,0 0.74488,0.10052 1.2021,0.59969 0.30213,0.32984 0.63351,0.85484 0.73643,1.1667 0.43941,1.3314 -0.26663,3.9232 -1.3534,4.9683 -0.75139,0.72255 -1.2248,0.79127 -1.3734,0.19931 z m 0.35608,5.8593 c -0.12883,-0.33574 0.26071,-0.94456 0.84565,-1.3217 0.2457,-0.15838 0.81413,-0.66147 1.2632,-1.118 0.44906,-0.45649 0.892,-0.86057 0.9843,-0.89796 0.0923,-0.0374 0.45676,-0.41695 0.80992,-0.84348 0.35316,-0.42653 0.73675,-0.77551 0.85244,-0.77551 0.11568,0 0.21032,-0.0618 0.21032,-0.13729 0,-0.28917 2.4668,-2.6074 3.4681,-3.2592 0.23399,-0.15231 0.8302,-0.63066 1.3249,-1.063 0.78695,-0.68771 0.97739,-0.77959 1.5226,-0.7347 0.70309,0.0579 0.58872,-0.25338 1.1157,3.0365 0.2458,1.5345 0.24177,2.1125 -0.0245,3.5046 -0.0762,0.39829 -0.0371,0.44898 0.34601,0.44898 0.23752,0 0.56627,-0.0719 0.73056,-0.15985 0.9683,-0.51822 3.9247,-3.551 3.9247,-4.0261 0,-0.10841 0.17262,-0.4048 0.3836,-0.65863 0.21099,-0.25383 0.43489,-0.79019 0.49757,-1.1919 0.18766,-1.2027 0.96301,-1.7272 1.3857,-0.93745 0.21901,0.40919 0.21657,0.42247 -0.63361,3.4638 -0.27612,0.98775 -0.54448,2.0972 -0.59635,2.4655 -0.0863,0.61265 -0.0506,0.7007 0.41943,1.0354 0.47489,0.33816 0.57541,0.35101 1.3303,0.16991 0.4695,-0.11263 1.1091,-0.43516 1.5048,-0.75885 1.0819,-0.88505 2.7253,-2.6871 3.0828,-3.3804 0.62821,-1.2183 2.8299,-2.9842 3.8094,-3.0554 1.1136,-0.0809 1.1751,-0.0408 1.5853,1.0333 0.2374,0.62175 0.49744,1.0405 0.6663,1.073 0.15233,0.0293 0.58967,-0.20021 0.97187,-0.51012 0.88403,-0.71683 2.2784,-1.3642 3.237,-1.5029 0.6514,-0.0942 0.80998,-0.0543 1.2484,0.31468 0.44306,0.3728 0.52637,0.58469 0.70681,1.7975 0.16301,1.0956 0.16356,1.629 0.003,2.6257 -0.2584,1.6018 -0.0834,2.1189 0.80739,2.3858 1.1446,0.34292 2.3599,-0.35644 3.8353,-2.207 0.26939,-0.33789 0.52654,-0.7086 0.57143,-0.8238 0.0449,-0.11522 0.48572,-0.68332 0.97959,-1.2625 1.6497,-1.9345 3.3228,-2.7942 4.3588,-2.2398 0.4558,0.24395 1.1922,1.2901 1.1922,1.6938 0,0.32281 0.42653,0.32197 0.55049,-0.002 0.0526,-0.13708 0.40944,-0.39937 0.79298,-0.58288 0.38353,-0.18351 0.95448,-0.47169 1.2688,-0.64042 0.83215,-0.44674 1.9926,-0.71794 2.5131,-0.5873 0.24914,0.0625 0.89801,0.55323 1.4419,1.0904 0.95483,0.94305 1.0022,0.96818 1.3741,0.72816 0.21183,-0.13673 0.5872,-0.37547 0.83414,-0.53054 0.24693,-0.15507 0.48571,-0.3316 0.53061,-0.39228 0.17528,-0.23688 1.9912,-0.94323 2.6971,-1.0491 0.71678,-0.10749 0.76878,-0.0866 1.3787,0.5546 0.52387,0.55071 0.68213,0.88344 0.91232,1.9181 0.28665,1.2884 0.27145,1.9271 -0.10656,4.4751 -0.23399,1.5773 -0.38851,1.9592 -0.79265,1.9592 -0.54555,0 -0.87297,-0.69306 -0.75052,-1.5886 0.0585,-0.42828 0.14528,-1.6673 0.19274,-2.7534 0.0678,-1.5522 0.0329,-2.1023 -0.16307,-2.5714 -0.23564,-0.56399 -0.29053,-0.59677 -0.99888,-0.59677 -0.44168,0 -1.0318,0.14312 -1.4369,0.34844 -0.96699,0.49017 -2.7282,2.3047 -2.7282,2.8108 0,0.33406 -0.34441,1.2816 -1.1363,3.1265 -0.0771,0.17959 -0.18126,0.4551 -0.23148,0.61225 -0.11143,0.34862 -0.9544,0.39027 -1.228,0.0607 -0.18289,-0.22036 -0.12625,-0.50815 0.29309,-1.4892 0.45871,-1.0732 0.54606,-1.4179 0.62583,-2.4693 0.15507,-2.0444 -0.20072,-2.7381 -1.5136,-2.9512 -0.4646,-0.0754 -0.75662,0.0206 -1.5874,0.52196 -0.55992,0.33787 -1.2284,0.84359 -1.4855,1.1238 -0.52083,0.56763 -1.4101,1.8164 -1.4101,1.9802 0,0.0582 -0.25714,0.64041 -0.57143,1.2938 -0.31428,0.65342 -0.57143,1.3309 -0.57143,1.5056 0,0.61461 -0.71812,0.92145 -1.298,0.55463 -0.35755,-0.22619 -0.25977,-1.1316 0.21952,-2.0328 0.23396,-0.43992 0.42539,-0.91168 0.42539,-1.0484 0,-0.13672 0.10833,-0.36824 0.24074,-0.51455 0.13618,-0.15048 0.28824,-0.77725 0.35014,-1.4433 0.12888,-1.3866 -0.11263,-1.8266 -1.0026,-1.8266 -0.42041,0 -0.7148,0.18859 -1.4849,0.95129 -0.5283,0.5232 -1.1442,1.2256 -1.3687,1.5608 -0.22449,0.33523 -0.64694,0.90594 -0.93878,1.2682 -0.29184,0.36226 -0.53061,0.71345 -0.53061,0.78036 0,0.15556 -1.8342,1.6325 -2.5078,2.0194 -0.77216,0.44345 -2.4856,0.32608 -3.159,-0.21639 -0.93771,-0.75548 -1.0498,-1.2167 -0.92694,-3.8159 0.13847,-2.9307 0.0884,-3.0578 -1.1144,-2.8285 -0.95149,0.1814 -1.8819,0.81754 -3.0156,2.0618 -0.76212,0.83644 -1.5212,2.1365 -1.5212,2.6053 0,0.45254 -0.79411,1.7943 -1.1861,2.0041 -0.27445,0.14689 -0.37977,0.12582 -0.55257,-0.1105 -0.2047,-0.27994 -0.18149,-0.65248 0.0963,-1.5453 1.0652,-3.4238 1.2024,-5.0502 0.43846,-5.1973 -0.592,-0.11401 -1.7647,0.69148 -2.2882,1.5717 -0.55425,0.93195 -0.99089,1.475 -2.1134,2.6285 -2.3478,2.4126 -3.7104,3.223 -5.1815,3.0816 -0.98355,-0.0945 -1.4554,-0.48649 -1.9391,-1.6107 -0.38013,-0.88364 -0.73783,-1.021 -1.2331,-0.47373 -0.16254,0.17959 -0.3811,0.32653 -0.48572,0.32653 -0.1046,0 -0.47894,0.24305 -0.83184,0.54013 -0.90377,0.7608 -1.6227,1.1599 -2.8457,1.5799 -1.3837,0.47513 -2.4651,0.45471 -4.1772,-0.0789 -1.1681,-0.36404 -1.4457,-0.51864 -1.7101,-0.95216 -0.73615,-1.2073 -0.0707,-1.558 1.5191,-0.80067 1.8529,0.88268 2.7613,0.8411 3.2518,-0.14888 0.66332,-1.3388 0.77099,-2.3051 0.44031,-3.9516 -0.27915,-1.3901 -0.59384,-1.3927 -2.2812,-0.0193 -1.5002,1.2211 -2.7964,2.4575 -3.3189,3.1656 -0.18991,0.25741 -0.67381,0.73788 -1.0754,1.0677 -0.678,0.55693 -1.7674,1.4998 -2.9784,2.5778 -0.56498,0.50294 -1.1744,0.58593 -1.3298,0.18108 z"
       id="assignment" />
  </g>
</svg>
