<?xml version="1.0" encoding="UTF-8" standalone="no"?>
<svg
   xmlns:dc="http://purl.org/dc/elements/1.1/"
   xmlns:cc="http://creativecommons.org/ns#"
   xmlns:rdf="http://www.w3.org/1999/02/22-rdf-syntax-ns#"
   xmlns:svg="http://www.w3.org/2000/svg"
   xmlns="http://www.w3.org/2000/svg"
   id="svg2502"
   viewBox="0 0 37.026034 34.757561"
   version="1.1"
   height="34.757561"
   width="37.026035">
  <defs
     id="defs2506" />
  <metadata
     id="metadata2">
    <rdf:RDF>
      <cc:Work
         rdf:about="">
        <dc:format>image/svg+xml</dc:format>
        <dc:type
           rdf:resource="http://purl.org/dc/dcmitype/StillImage" />
        <dc:title />
      </cc:Work>
    </rdf:RDF>
  </metadata>
  <g
     transform="translate(-659.68174,-714.12296)"
     style="stroke-width:0.16327"
     id="g2500">
    <path
       d="m 659.78,726.48 c -0.22863,-0.27551 -0.0431,-0.95546 0.39909,-1.4623 0.41375,-0.47422 0.5664,-1.0142 0.66864,-2.3654 0.0696,-0.9196 0.0353,-1.0709 -0.34487,-1.5227 -0.23216,-0.2759 -0.42212,-0.63771 -0.42212,-0.804 0,-0.29508 0.4,-0.81546 0.62682,-0.81546 0.34008,0 1.3249,0.87904 1.5748,1.4056 0.55298,1.1653 0.0527,3.5341 -1.108,5.2464 -0.38447,0.56718 -1.0597,0.72114 -1.3944,0.31791 z m 35.467,7.3698 c -0.0649,-0.10496 -0.12794,-1.2621 -0.14013,-2.5714 -0.0192,-2.064 -0.0692,-2.4837 -0.37568,-3.1561 -0.3319,-0.72811 -0.39162,-0.77551 -0.97711,-0.77551 -0.46441,0 -0.78578,0.13547 -1.2588,0.53062 -1.1967,0.99956 -2.0181,1.9323 -2.3784,2.7007 -0.19822,0.42279 -0.48961,0.95239 -0.64754,1.1769 -0.15792,0.22449 -0.33939,0.64942 -0.40326,0.94431 -0.14198,0.65554 -0.74351,1.0906 -1.311,0.94813 -0.51904,-0.13027 -0.53071,-0.55148 -0.0692,-2.4984 0.33304,-1.4051 0.35001,-2.7215 0.0545,-4.235 -0.0769,-0.3938 -0.02,-0.59484 0.24225,-0.85714 0.18849,-0.18849 0.40213,-0.3427 0.47476,-0.3427 0.39341,0 0.72555,0.52913 0.95011,1.5136 0.18749,0.82197 0.3192,1.0973 0.52299,1.0932 0.31374,-0.006 1.0071,-0.54152 1.0071,-0.77747 0,-0.36209 2.4731,-1.6944 3.1825,-1.7146 0.32469,-0.009 0.7707,0.14212 1.1157,0.37854 0.48283,0.33084 0.64769,0.61685 1.0301,1.787 0.40694,1.2452 0.45365,1.6142 0.43984,3.4757 -0.0103,1.3967 -0.0821,2.1629 -0.21793,2.3265 -0.24019,0.28942 -1.0727,0.32508 -1.2408,0.0531 z m -24.495,-1.127 c 0.57827,-0.45486 0.55816,-0.80448 -0.0462,-0.80448 -0.76108,0 -0.99295,0.15657 -0.99295,0.67053 0,0.5804 0.40523,0.63264 1.0392,0.13395 z m -1.8844,14.493 c 0.27759,-0.22253 0.84521,-1.3322 0.84521,-1.6524 0,-0.13524 0.10444,-0.48714 0.23208,-0.78203 0.38229,-0.88317 1.2373,-3.6712 1.2373,-4.0346 0,-0.71744 -1.183,-0.2545 -1.6389,0.64132 -0.11422,0.22449 -0.5269,0.78343 -0.91706,1.2421 -0.39017,0.45866 -0.70939,0.93138 -0.70939,1.0505 0,0.1191 -0.15877,0.54454 -0.35283,0.9454 -0.19404,0.40087 -0.38593,1.0735 -0.42642,1.4947 -0.0659,0.68542 -0.0261,0.80325 0.37849,1.1215 0.45448,0.35749 0.88295,0.34908 1.3515,-0.0265 z m 2.4778,-1.7277 c -0.48741,1.083 -1.4576,2.3865 -2.0547,2.9107 -0.53591,0.47055 -0.69565,0.5264 -1.308,0.45739 -0.85331,-0.0962 -1.6148,-0.66805 -1.8716,-1.4055 -0.46021,-1.3218 0.3058,-3.8149 1.6016,-5.2127 0.11225,-0.12109 0.20408,-0.31769 0.20408,-0.43693 0,-0.19587 0.63775,-0.95877 2.6895,-3.2173 1.028,-1.1316 1.4082,-1.9736 1.5122,-3.3484 0.10839,-1.4332 -0.081,-1.6001 -1.1992,-1.0568 -0.39489,0.19184 -1,0.39391 -1.3447,0.44903 -0.5793,0.0926 -0.66583,0.0529 -1.1423,-0.52516 -0.28353,-0.34396 -0.51241,-0.73722 -0.50866,-0.87389 0.0129,-0.47154 0.56697,-1.2684 1.3487,-1.94 1.1477,-0.98596 1.3354,-1.0562 2.5029,-0.93657 l 1.0302,0.10555 0.44461,-0.69794 c 0.78019,-1.2248 1.5629,-2.9341 2.1512,-4.698 0.54968,-1.6481 0.57423,-1.8247 0.63585,-4.5714 0.0619,-2.7592 0.0507,-2.8823 -0.32537,-3.5918 -0.42015,-0.79258 -0.93775,-1.1301 -1.939,-1.2644 -0.68032,-0.0912 -2.324,0.19786 -3.2159,0.56566 -0.8914,0.36759 -2.6608,1.7436 -3.6087,2.8064 -0.60276,0.67579 -1.0082,0.99444 -1.2653,0.99444 -0.51658,0 -0.50324,-0.58358 0.0298,-1.3061 0.22449,-0.30427 0.40816,-0.64916 0.40816,-0.76641 0,-0.11724 0.10015,-0.21318 0.22257,-0.21318 0.1224,0 0.55956,-0.36028 0.97144,-0.80064 0.4119,-0.44034 1.1383,-0.98948 1.6142,-1.2203 0.4759,-0.23082 0.97548,-0.49053 1.1102,-0.57714 1.0071,-0.64756 2.1626,-0.99375 3.3169,-0.99375 3.3527,0 4.5199,1.9796 4.1505,7.0392 -0.1784,2.4436 -0.74787,4.5842 -1.7541,6.5934 -0.44968,0.89796 -0.81711,1.7219 -0.81647,1.831 0,0.10913 -0.20937,0.43974 -0.46668,0.73469 -0.63499,0.72792 -1.1663,1.8138 -1.1579,2.3665 0.004,0.25051 0.10085,0.85955 0.21567,1.3534 0.28289,1.2169 0.65537,1.272 1.7399,0.2576 0.43946,-0.41107 0.86437,-0.74739 0.94424,-0.74739 0.0799,0 0.39525,-0.23878 0.70087,-0.53062 0.30561,-0.29183 0.78561,-0.72049 1.0667,-0.95258 0.28109,-0.23209 0.56036,-0.57738 0.62065,-0.76733 0.0603,-0.18995 0.47189,-0.73476 0.91468,-1.2107 0.44278,-0.47594 0.80635,-0.94714 0.80792,-1.0471 0.002,-0.1 0.17368,-0.35714 0.38246,-0.57143 0.52049,-0.53422 1.4163,-1.8736 1.4163,-2.1176 0,-0.10988 0.27006,-0.68269 0.60012,-1.2729 0.33007,-0.59022 0.65987,-1.3687 0.73288,-1.73 0.073,-0.36128 0.23651,-1.2079 0.36331,-1.8814 0.30278,-1.6079 0.48758,-2.0482 1.0008,-2.3845 0.40557,-0.26573 0.44044,-0.26418 0.72587,0.0323 0.29033,0.30155 0.29049,0.36583 0.006,2.0257 -0.2868,1.671 -0.62155,2.9126 -0.95213,3.5312 -0.25292,0.47326 -0.84387,2.4134 -0.84387,2.7706 0,0.17572 -0.1228,0.49482 -0.27289,0.70911 -0.28066,0.4007 -0.8328,2.1257 -0.9846,3.0762 -0.0647,0.40518 0.0185,0.68624 0.34105,1.1516 0.53991,0.77912 0.54556,1.2262 0.0185,1.4664 -0.92381,0.42092 -1.6455,-0.40669 -1.8213,-2.0886 -0.12204,-1.1677 -0.33125,-1.2428 -0.93225,-0.3346 -0.23626,0.35701 -0.6012,0.76157 -0.81102,0.89904 -0.20979,0.13747 -0.47523,0.42517 -0.58986,0.63934 -0.11461,0.21417 -0.50013,0.5994 -0.8567,0.85607 -0.35657,0.25667 -0.91779,0.70509 -1.2472,0.99649 -0.32937,0.29141 -0.66341,0.53019 -0.74229,0.53061 -0.0789,0 -0.66421,0.49207 -1.3007,1.0925 -1.1999,1.1319 -1.5601,1.7953 -1.8893,3.4797 -0.079,0.40408 -0.27152,1.1206 -0.40506,1.6814 -0.30838,1.2952 -0.36849,2.6738 -0.91488,3.8879 z"
       id="assistance" />
  </g>
</svg>
