<?xml version="1.0" encoding="UTF-8" standalone="no"?>
<svg
   xmlns:dc="http://purl.org/dc/elements/1.1/"
   xmlns:cc="http://creativecommons.org/ns#"
   xmlns:rdf="http://www.w3.org/1999/02/22-rdf-syntax-ns#"
   xmlns:svg="http://www.w3.org/2000/svg"
   xmlns="http://www.w3.org/2000/svg"
   id="svg2502"
   viewBox="0 0 28.959098 31.722176"
   version="1.1"
   height="31.722176"
   width="28.959099">
  <defs
     id="defs2506" />
  <metadata
     id="metadata2">
    <rdf:RDF>
      <cc:Work
         rdf:about="">
        <dc:format>image/svg+xml</dc:format>
        <dc:type
           rdf:resource="http://purl.org/dc/dcmitype/StillImage" />
        <dc:title />
      </cc:Work>
    </rdf:RDF>
  </metadata>
  <g
     transform="translate(-646.59124,-690.38756)"
     style="stroke-width:0.16327"
     id="g2500">
    <path
       d="m 646.69,702.93 c 0,-0.47351 0.22759,-0.95794 0.67633,-1.4396 0.38312,-0.41125 0.62771,-1.2724 0.62888,-2.2142 0,-0.56591 -0.0957,-0.82661 -0.4378,-1.1837 -0.24129,-0.25185 -0.52659,-0.45791 -0.63402,-0.45791 -0.20023,0 -0.42743,-0.79772 -0.29037,-1.0195 0.042,-0.0679 0.42546,-0.12338 0.85225,-0.12338 0.65721,0 0.82679,0.0687 1.1079,0.44898 0.96555,1.306 1.181,2.5059 0.70058,3.9022 -0.17903,0.52037 -0.43405,1.0069 -0.56669,1.0811 -0.13264,0.0742 -0.24116,0.23079 -0.24116,0.34792 0,0.42503 -0.78593,1.0769 -1.2983,1.0769 -0.42531,0 -0.49759,-0.0608 -0.49759,-0.41889 z m 11.66,4.728 c 0.14204,-0.0545 0.25825,-0.20683 0.25825,-0.3385 0,-0.33501 -0.5546,-0.19798 -0.62233,0.15376 -0.0599,0.3112 -0.0193,0.33184 0.36408,0.18474 z m -1.0756,12.099 c 0.0312,-0.17959 0.29813,-0.84082 0.59316,-1.4694 0.58711,-1.2508 1.2304,-3.0438 1.2304,-3.4292 0,-0.46014 -0.48562,-0.24438 -0.88929,0.39508 -0.22198,0.35164 -0.47607,0.68413 -0.56466,0.73887 -0.33245,0.20547 -1.4848,2.8353 -1.4848,3.3886 0,0.68689 0.10901,0.81369 0.64555,0.75092 0.26319,-0.0308 0.43345,-0.16671 0.46963,-0.37484 z m -1.0512,2.1907 c -0.63548,-0.18435 -1.3184,-1.1431 -1.4627,-2.0533 -0.088,-0.55504 0.002,-0.96144 0.49232,-2.2272 0.34013,-0.87784 0.84482,-1.8344 1.1655,-2.209 0.31106,-0.36339 0.67109,-0.91329 0.80007,-1.222 0.12898,-0.3087 0.82508,-1.151 1.5469,-1.8719 l 1.3124,-1.3106 v -0.88247 c 0,-0.51347 -0.0985,-1.015 -0.23551,-1.1994 -0.23065,-0.31035 -0.25252,-0.30748 -1.0573,0.1393 -0.452,0.25092 -1.1787,0.49848 -1.6148,0.55014 -0.72467,0.0858 -0.8235,0.0552 -1.1467,-0.35579 -0.46601,-0.59242 -0.46009,-1.3954 0.0135,-1.8471 0.20204,-0.19267 0.62449,-0.60488 0.93877,-0.91601 0.74945,-0.74198 2.1817,-1.3941 3.0664,-1.3961 0.51414,-0.002 0.72799,-0.0772 0.80861,-0.28731 0.0603,-0.15714 0.30227,-0.57959 0.53773,-0.93878 0.97889,-1.4932 1.7059,-4.1313 1.898,-6.8872 0.0895,-1.2832 0.0517,-1.6718 -0.26135,-2.6939 -0.20124,-0.65693 -0.44818,-1.366 -0.54877,-1.5757 -0.28911,-0.60278 -1.0474,-0.91319 -2.2458,-0.91935 -0.89901,-0.005 -1.2349,0.08 -2.084,0.52511 -0.55675,0.29184 -1.1157,0.53061 -1.2421,0.53061 -0.23647,0 -1.3981,1.2526 -1.3981,1.5076 0,0.0785 -0.21884,0.3769 -0.48631,0.66308 -0.26747,0.28621 -0.56925,0.72059 -0.67062,0.96533 -0.32052,0.77378 -1.292,0.78478 -1.292,0.0147 0,-0.69513 1.4786,-3.1507 1.8972,-3.1507 0.11169,0 0.34743,-0.20273 0.52387,-0.45051 0.66499,-0.93391 3.5075,-2.0495 5.2524,-2.0614 0.85215,-0.006 1.2221,0.0798 1.8776,0.43432 1.001,0.54142 1.4472,1.1851 1.7799,2.5674 0.49257,2.0466 0.55234,2.8818 0.31903,4.4586 -0.45538,3.0777 -0.69283,3.9079 -1.6113,5.6333 -0.2233,0.41946 -0.40599,0.87423 -0.40599,1.0106 0,0.13639 -0.25768,0.54104 -0.57261,0.89925 -0.76116,0.86573 -0.827,1.2033 -0.55556,2.8481 0.20797,1.2602 0.26724,1.4002 0.61354,1.4492 0.22606,0.032 0.53476,-0.088 0.75244,-0.2925 0.20302,-0.19073 0.62782,-0.41821 0.94402,-0.50552 0.51523,-0.14225 1.3463,-0.67585 2.1119,-1.356 0.15035,-0.13357 0.44423,-0.3308 0.65306,-0.43829 0.43408,-0.22341 2.9103,-2.7248 2.9103,-2.9399 0,-0.0781 0.31308,-0.53053 0.69572,-1.0054 0.98624,-1.2241 1.2635,-1.694 1.2635,-2.1419 0,-0.21553 0.13462,-0.5671 0.29916,-0.78124 0.16453,-0.21416 0.47309,-0.83019 0.68569,-1.369 0.21259,-0.53877 0.44533,-1.0494 0.51716,-1.1347 0.0719,-0.0853 0.13065,-0.31122 0.13065,-0.50201 0,-0.41089 0.66259,-2.4088 1.0425,-3.1435 0.14683,-0.28391 0.41063,-0.59311 0.58622,-0.68708 0.26405,-0.14131 0.36724,-0.0977 0.59663,0.25242 0.26373,0.40253 0.2592,0.48874 -0.0926,1.7579 -0.61803,2.2296 -0.84606,2.8856 -1.0031,2.8856 -0.0826,0 -0.15014,0.13449 -0.15014,0.29886 0,0.16438 -0.18336,0.6603 -0.40748,1.102 -0.22411,0.44175 -0.40779,0.91909 -0.40816,1.0608 0,0.25416 -0.56049,1.7362 -1.1361,3.0077 -0.38945,0.86025 -0.72625,2.5729 -0.60274,3.065 0.054,0.21507 0.32346,0.67455 0.59884,1.0211 0.59386,0.74728 0.5759,1.2168 -0.0581,1.5198 -0.4222,0.20173 -0.49822,0.18781 -0.86733,-0.15895 -0.62931,-0.5912 -0.99819,-1.2948 -1.1234,-2.1428 -0.0631,-0.42764 -0.18174,-0.81889 -0.26356,-0.86946 -0.15905,-0.0983 -0.74609,0.33667 -2.2319,1.6538 -1.1635,1.0314 -2.0779,1.7075 -2.3094,1.7075 -0.098,0 -0.55192,0.25714 -1.0088,0.57143 -0.4569,0.31429 -0.91821,0.57143 -1.0251,0.57143 -0.10689,0 -0.4977,0.22304 -0.86836,0.49562 -0.66352,0.48797 -0.80971,0.76291 -1.3424,2.5248 -0.3082,1.0193 -0.82621,2.3562 -1.3362,3.4484 -0.25664,0.54964 -0.51146,1.2476 -0.56627,1.551 -0.17749,0.98262 -0.74571,2.0054 -1.5084,2.7149 -0.41024,0.38163 -0.78568,0.68725 -0.83435,0.67915 -0.0487,-0.008 -0.31685,-0.081 -0.59597,-0.16194 z"
       id="assist" />
  </g>
</svg>
