<?xml version="1.0" encoding="UTF-8" standalone="no"?>
<svg
   xmlns:dc="http://purl.org/dc/elements/1.1/"
   xmlns:cc="http://creativecommons.org/ns#"
   xmlns:rdf="http://www.w3.org/1999/02/22-rdf-syntax-ns#"
   xmlns:svg="http://www.w3.org/2000/svg"
   xmlns="http://www.w3.org/2000/svg"
   id="svg2502"
   viewBox="0 0 53.274206 33.127026"
   version="1.1"
   height="33.127026"
   width="53.274208">
  <defs
     id="defs2506" />
  <metadata
     id="metadata2">
    <rdf:RDF>
      <cc:Work
         rdf:about="">
        <dc:format>image/svg+xml</dc:format>
        <dc:type
           rdf:resource="http://purl.org/dc/dcmitype/StillImage" />
        <dc:title />
      </cc:Work>
    </rdf:RDF>
  </metadata>
  <g
     transform="translate(-646.15483,-739.59154)"
     style="stroke-width:0.16327"
     id="g2500">
    <path
       d="m 646.16,747.88 c -0.0721,-0.2032 0.63016,-1.7629 0.86371,-1.9184 0.0674,-0.0449 0.24148,-0.43318 0.38674,-0.86284 0.33768,-0.99886 0.34738,-2.2934 0.0192,-2.5657 -0.5192,-0.43089 -0.1228,-1.4694 0.56088,-1.4694 0.48103,0 1.1623,1.1598 1.2604,2.1456 0.13022,1.3092 -0.70131,3.5165 -1.6214,4.3041 -0.67344,0.57644 -1.3364,0.74184 -1.4695,0.36663 z m 8.9126,22.44 c 0.24129,-0.25186 0.43871,-0.51197 0.43871,-0.57804 0,-0.0661 0.13554,-0.3192 0.30121,-0.5625 0.82824,-1.2164 1.4947,-2.4943 1.4947,-2.8661 0,-0.22844 0.25714,-0.97959 0.57143,-1.6692 0.63957,-1.4035 0.71108,-1.8662 0.28836,-1.8662 -0.32004,0 -2.6557,2.3612 -2.6557,2.6848 0,0.11548 -0.15528,0.40736 -0.34506,0.64864 -0.1898,0.24127 -0.44351,0.7471 -0.56384,1.1241 -0.12031,0.37695 -0.32916,0.97925 -0.46408,1.3384 -0.13494,0.35919 -0.24857,1.002 -0.25251,1.4286 -0.007,0.7037 0.0278,0.77551 0.37045,0.77551 0.20769,0 0.57504,-0.20606 0.81633,-0.45791 z m 17.747,-27.217 c 0.18996,-0.11145 0.48706,-0.22413 0.65467,0.0891 0.26008,0.48594 -0.24481,4.2477 -0.68625,5.113 -0.60976,1.1952 -1.1464,2.7856 -1.3026,3.8601 -0.32256,2.2191 -0.3463,2.6122 -0.15777,2.6122 0.1012,0 0.18403,0.10916 0.18403,0.24258 0,0.13342 0.28135,0.42876 0.62522,0.65634 0.58433,0.38668 0.69383,0.40385 1.6735,0.26235 1.075,-0.15527 2.3406,-0.53435 3.1218,-0.9351 0.24248,-0.12439 0.6192,-0.22617 0.83715,-0.22617 0.21796,0 0.48177,-0.10299 0.58624,-0.22889 0.10447,-0.12587 0.38898,-0.27729 0.63223,-0.33647 0.24327,-0.0592 0.71185,-0.28388 1.0413,-0.49938 0.32947,-0.21549 0.80702,-0.44117 1.0612,-0.50152 0.59249,-0.14063 1.7278,-0.61688 2.6751,-1.1221 0.40895,-0.21812 1.4008,-0.59004 2.2041,-0.82651 0.80328,-0.23646 1.8279,-0.54005 2.2768,-0.67465 1.0815,-0.32419 5.942,-0.4878 6.8905,-0.23193 0.37755,0.10183 0.90245,0.3669 1.1664,0.58903 0.26398,0.22212 0.54746,0.40386 0.62994,0.40386 0.18315,0 1.0274,0.86312 1.0274,1.0504 0,0.074 0.25226,0.41377 0.56057,0.75502 0.54374,0.60186 0.90604,1.4908 0.9079,2.2277 0.002,0.50085 -0.33685,1.1914 -0.58336,1.1914 -0.11295,0 -0.31659,0.0427 -0.45256,0.0949 -0.28597,0.10973 -0.75698,-0.67488 -0.76267,-1.2704 -0.0106,-1.1212 -1.4076,-2.7847 -2.931,-3.4905 -0.72111,-0.33409 -1.103,-0.39517 -2.4711,-0.39517 -2.2469,0 -4.5351,0.39402 -6.1045,1.0511 -0.71836,0.3008 -1.5685,0.59231 -1.8893,0.64779 -0.32074,0.0555 -0.8281,0.28159 -1.1274,0.50244 -0.29936,0.22086 -1.1022,0.63051 -1.7842,0.91035 -0.68194,0.27982 -1.927,0.83294 -2.7667,1.2291 -0.83972,0.39621 -1.6112,0.7207 -1.7143,0.72109 -0.10312,0 -0.70178,0.1841 -1.3304,0.40826 -0.62857,0.22415 -1.5637,0.45453 -2.0781,0.51197 -0.84307,0.0941 -1.037,0.0522 -1.9675,-0.42503 -1.3686,-0.70197 -1.7503,-1.2662 -1.7503,-2.5876 0,-1.1568 -0.21394,-1.299 -0.84459,-0.56133 -0.21108,0.24694 -0.86047,0.86791 -1.4431,1.3799 -0.5826,0.51202 -1.5655,1.412 -2.1842,2 -0.61873,0.58799 -1.2138,1.0691 -1.3224,1.0691 -0.10862,0 -0.52075,0.23706 -0.91586,0.52681 -1.2579,0.92247 -1.7899,1.2691 -1.9478,1.2691 -0.33618,0 -0.94137,1.2532 -1.0379,2.1492 -0.0548,0.50859 -0.2546,1.28 -0.44405,1.7143 -0.18947,0.43425 -0.47685,1.2304 -0.63864,1.7692 -0.1618,0.53878 -0.43871,1.2735 -0.61535,1.6327 -0.17664,0.35918 -0.52764,1.0934 -0.78002,1.6316 -0.25237,0.5382 -0.76096,1.3096 -1.1302,1.7143 -0.36923,0.40464 -0.79554,0.93411 -0.94736,1.1766 -0.24815,0.39634 -1.1938,0.82648 -1.6669,0.75824 -0.0898,-0.0129 -0.36597,-0.0542 -0.61373,-0.0917 l -2.8e-4,-7e-5 c -0.28398,-0.043 -0.53196,-0.23004 -0.67097,-0.50615 -0.43605,-0.86616 -0.44003,-1.2908 -0.0244,-2.5923 0.22382,-0.70084 0.40788,-1.3866 0.40902,-1.5239 0.003,-0.32021 0.89893,-2.451 1.0879,-2.5865 0.0788,-0.0565 0.56833,-0.66356 1.0878,-1.3491 0.51952,-0.68549 1.2532,-1.5458 1.6304,-1.9119 0.37717,-0.36606 0.76537,-0.76247 0.86266,-0.88093 0.0973,-0.11848 0.49273,-0.48575 0.87874,-0.81617 0.58518,-0.50088 0.70505,-0.70362 0.72106,-1.2196 l 0.0192,-0.61891 -1.5737,0.059 c -1.4274,0.0535 -1.6057,0.0269 -1.9184,-0.28572 -0.69465,-0.69464 -0.37122,-2.1029 0.68589,-2.9865 0.96544,-0.807 2.3774,-1.2072 3.324,-0.94214 0.73655,0.20623 1.1964,0.0471 1.1964,-0.414 0,-0.1116 0.14239,-0.38391 0.31641,-0.60515 0.17403,-0.22122 0.3663,-0.61685 0.4273,-0.87915 0.061,-0.2623 0.28007,-0.88099 0.48687,-1.3749 0.59641,-1.4244 1.1326,-4.0128 1.133,-5.4694 0,-1.4766 -0.45359,-3.5791 -0.90085,-4.1721 -0.26312,-0.3488 -0.45063,-0.40284 -1.5746,-0.45371 -1.9952,-0.0903 -4.0721,0.55903 -5.1943,1.624 -1.1265,1.0692 -2.231,1.9405 -2.4596,1.9405 -0.31237,0 -0.45982,-0.38289 -0.33655,-0.87401 0.16522,-0.65827 2.8339,-3.0444 3.4049,-3.0444 0.10235,0 0.4848,-0.13567 0.84989,-0.3015 2.4618,-1.1182 4.8162,-1.125 6.0919,-0.0176 0.82424,0.71548 0.92927,0.95426 1.2535,2.8497 0.40805,2.3856 0.40645,2.3523 0.15868,3.3036 -0.12544,0.48156 -0.2281,1.221 -0.22815,1.6431 -8e-5,0.78846 -0.25085,1.5698 -1.1289,3.5175 -0.27703,0.6145 -0.50803,1.239 -0.51332,1.3878 -0.005,0.14877 -0.18418,0.60111 -0.39752,1.0052 -1.3004,2.4632 -1.5629,3.2746 -1.2897,3.9866 0.14418,0.37574 0.89198,0.31719 1.3961,-0.10929 0.23866,-0.20193 1.1286,-0.90405 1.9776,-1.5603 1.5462,-1.1951 3.2259,-2.8991 4.215,-4.2763 0.29023,-0.40408 0.58476,-0.7729 0.65453,-0.81961 0.0698,-0.0467 0.27232,-0.42431 0.45014,-0.83915 0.17783,-0.41484 0.40148,-0.80256 0.49703,-0.86161 0.42816,-0.26462 0.9674,-2.3334 1.438,-3.5053 0.40521,-1.0092 0.25504,-2.4862 1.193,-3.0365 z m -14.205,13.796 c 0.26854,-0.1912 0.48825,-0.48958 0.48825,-0.66306 0,-0.26147 -0.11687,-0.31542 -0.68335,-0.31542 -0.80398,0 -1.4391,0.49035 -1.4391,1.1111 0,0.36738 0.0481,0.39325 0.57298,0.30808 0.31513,-0.0512 0.79268,-0.24944 1.0612,-0.44066 z"
       id="assistant" />
  </g>
</svg>
