<?xml version="1.0" encoding="UTF-8" standalone="no"?>
<svg
   xmlns:dc="http://purl.org/dc/elements/1.1/"
   xmlns:cc="http://creativecommons.org/ns#"
   xmlns:rdf="http://www.w3.org/1999/02/22-rdf-syntax-ns#"
   xmlns:svg="http://www.w3.org/2000/svg"
   xmlns="http://www.w3.org/2000/svg"
   id="svg2502"
   viewBox="0 0 45.55099 16.285257"
   version="1.1"
   height="16.285257"
   width="45.550991">
  <defs
     id="defs2506" />
  <metadata
     id="metadata2">
    <rdf:RDF>
      <cc:Work
         rdf:about="">
        <dc:format>image/svg+xml</dc:format>
        <dc:type
           rdf:resource="http://purl.org/dc/dcmitype/StillImage" />
        <dc:title />
      </cc:Work>
    </rdf:RDF>
  </metadata>
  <g
     transform="translate(-646.69,-648.65807)"
     style="stroke-width:0.16327"
     id="g2500">
    <path
       d="m 646.69,655.5 c 0,-0.45299 0.24425,-0.88485 1.0874,-1.9226 0.65391,-0.80485 0.70855,-0.94501 0.70855,-1.8175 0,-0.88821 -0.0403,-0.98568 -0.66532,-1.6107 -0.75976,-0.75976 -0.83318,-1.3751 -0.17522,-1.4683 0.73785,-0.10444 1.1587,0.13639 1.7358,0.99339 0.48623,0.722 0.57356,0.99031 0.57053,1.7527 -0.004,0.99257 -0.3633,1.9273 -1.0365,2.696 -0.23591,0.26939 -0.429,0.57173 -0.42911,0.67186 -1.2e-4,0.10014 -0.15248,0.37565 -0.33858,0.61224 -0.44247,0.56252 -1.4575,0.62722 -1.4575,0.0929 z m 0.92518,6.2693 c -0.29883,-0.29883 -0.0384,-0.86988 0.75342,-1.6518 0.47425,-0.46836 0.94441,-0.85156 1.0448,-0.85156 0.10037,0 0.65347,-0.42245 1.2291,-0.93877 0.57564,-0.51633 1.9542,-1.7469 3.0634,-2.7347 1.1092,-0.98775 2.7212,-2.4773 3.5821,-3.3102 1.6973,-1.6419 2.1294,-1.8744 2.6345,-1.4173 0.31445,0.28457 0.42133,0.5905 0.80641,2.3082 0.24212,1.08 0.25174,3.8589 0.0164,4.733 -0.20622,0.76588 -0.1019,1.1965 0.28988,1.1965 0.14816,0 1.0036,-0.36534 1.9009,-0.81187 1.5374,-0.76506 1.7021,-0.89775 2.856,-2.3012 0.67347,-0.8191 1.3916,-1.6786 1.5958,-1.9101 0.20421,-0.23145 0.40889,-0.61022 0.45485,-0.84172 0.20139,-1.0143 0.58552,-2.115 0.8003,-2.2933 0.12822,-0.10642 0.40249,-0.16949 0.60948,-0.14015 0.34637,0.0491 0.38025,0.14435 0.42559,1.1962 0.0354,0.82135 -0.0649,1.5792 -0.35658,2.6939 -0.69255,2.647 -0.78101,3.2459 -0.5504,3.7271 0.25589,0.53391 0.86982,0.76109 1.6574,0.61334 0.71685,-0.13448 2.2821,-1.4727 2.8247,-2.415 0.19752,-0.343 0.61984,-0.89817 0.9385,-1.2337 0.31866,-0.33553 0.61754,-0.72709 0.66415,-0.87009 0.0466,-0.14302 0.50591,-0.72269 1.0207,-1.2882 1.0514,-1.155 2.2022,-1.7961 3.2216,-1.7946 0.80207,0.002 0.99102,0.11481 1.3716,0.82538 0.16449,0.30705 0.41533,0.58132 0.55744,0.60947 0.14209,0.0281 0.62733,-0.24048 1.0783,-0.59695 1.1508,-0.90965 2.0608,-1.225 3.2805,-1.1368 1.91,0.13815 2.4416,1.2553 2.4448,5.1384 0.002,1.9392 -0.0499,2.4339 -0.31879,3.0612 -0.31916,0.74455 -0.63282,0.91505 -1.1177,0.60756 -0.26348,-0.1671 -0.28887,-0.70281 -0.15241,-3.215 0.11913,-2.1931 -0.11954,-3.7282 -0.64028,-4.118 -0.30103,-0.22531 -1.6558,-0.16173 -2.1228,0.0996 -0.64019,0.35827 -1.7371,1.6453 -2.1531,2.5263 -0.77615,1.6436 -1.003,2.1904 -1.0056,2.4235 -0.004,0.39247 -0.431,1.4637 -0.71507,1.7954 -0.15923,0.18598 -0.42948,0.30139 -0.6367,0.27192 -0.3122,-0.0444 -0.36666,-0.16691 -0.40986,-0.92162 -0.0274,-0.47871 0.025,-0.96047 0.11632,-1.0706 0.5451,-0.6568 0.90631,-4.2046 0.47227,-4.6386 -0.10776,-0.10775 -0.36782,-0.19592 -0.57793,-0.19592 -0.43995,0 -1.5949,0.55269 -1.7888,0.856 -0.0722,0.11287 -0.27814,0.28587 -0.45773,0.38443 -0.1796,0.0986 -0.55369,0.61285 -0.8313,1.1429 -0.66372,1.2671 -1.301,2.1888 -1.7131,2.4774 -0.18337,0.12844 -0.3995,0.40738 -0.48028,0.61987 -0.21892,0.57577 -2.1978,1.8039 -3.2842,2.0383 -0.86291,0.18614 -0.96598,0.17406 -1.6327,-0.19154 -1.0014,-0.54918 -1.3299,-1.2437 -1.2067,-2.5518 0.0528,-0.56122 0.0343,-1.0204 -0.0412,-1.0204 -0.0755,0 -0.35304,0.22718 -0.61678,0.50483 -2.0644,2.1734 -6.0331,4.0707 -8.0275,3.8377 -1.4434,-0.16862 -2.4363,-0.42907 -2.7574,-0.72333 -0.16877,-0.15463 -0.55071,-0.45309 -0.84879,-0.66325 -0.59712,-0.42099 -0.90671,-1.0375 -0.75734,-1.5081 0.14027,-0.4419 0.92859,-0.38973 1.5106,0.0999 0.54067,0.45494 1.8662,1.0645 2.3148,1.0645 0.5884,0 0.9945,-0.54966 1.3187,-1.7849 0.345,-1.3144 0.40538,-2.4633 0.16874,-3.2112 -0.0824,-0.26032 -0.19398,-0.67538 -0.24802,-0.92232 -0.0569,-0.25991 -0.20734,-0.44898 -0.35734,-0.44898 -0.40042,0 -1.9423,1.2864 -4.8157,4.0176 -0.41496,0.39443 -0.83322,0.71714 -0.92947,0.71714 -0.0962,0 -0.60165,0.38774 -1.1231,0.86163 -0.52145,0.47391 -1.4256,1.2591 -2.0093,1.745 -0.5837,0.4859 -1.2295,1.0532 -1.4352,1.2608 -0.3736,0.37717 -0.69965,0.47397 -0.90494,0.26867 z m 33.702,2.984 c -0.29887,-0.36011 -0.11933,-0.71043 0.51061,-0.99629 0.5295,-0.24028 3.8238,-0.64023 7.1479,-0.86782 0.94285,-0.0645 1.8076,-0.17674 1.9216,-0.24929 0.2293,-0.14596 1.3437,0.16558 1.3437,0.37565 0,0.44356 -0.64147,0.84123 -1.6048,0.99481 -2.1734,0.34653 -3.6125,0.50834 -5.7422,0.64558 -1.2122,0.0781 -2.4646,0.19023 -2.7831,0.2491 -0.42723,0.079 -0.6353,0.0392 -0.79378,-0.15174 z"
       id="assigned" />
  </g>
</svg>
