<svg xmlns="http://www.w3.org/2000/svg" height="16.285" width="45.551"><path d="M0 6.842c0-.453.244-.885 1.087-1.923.654-.805.709-.945.709-1.817 0-.888-.04-.986-.665-1.61C.37.731.297.115.955.021c.738-.104 1.16.137 1.736.994.486.722.574.99.57 1.753a4.077 4.077 0 01-1.036 2.696c-.236.27-.429.572-.429.672 0 .1-.152.375-.338.612C1.015 7.312 0 7.376 0 6.842zm.925 6.27c-.299-.3-.038-.87.754-1.653.474-.468.944-.851 1.044-.851.1 0 .654-.423 1.23-.939.575-.516 1.954-1.747 3.063-2.735 1.11-.987 2.721-2.477 3.582-3.31 1.697-1.642 2.13-1.874 2.635-1.417.314.284.42.59.806 2.308.242 1.08.252 3.859.016 4.733-.206.766-.102 1.197.29 1.197.148 0 1.004-.366 1.901-.812 1.537-.765 1.702-.898 2.856-2.301.674-.82 1.392-1.68 1.596-1.91.204-.232.409-.61.455-.842.201-1.015.585-2.115.8-2.294.128-.106.403-.17.61-.14.346.05.38.145.425 1.196.036.822-.065 1.58-.356 2.694-.693 2.647-.781 3.246-.55 3.727.255.534.869.762 1.657.614.716-.135 2.282-1.473 2.824-2.415.198-.343.62-.898.939-1.234.318-.335.617-.727.664-.87.046-.143.506-.723 1.02-1.288 1.052-1.155 2.203-1.796 3.222-1.795.802.002.991.115 1.372.826.164.307.415.58.557.61.142.027.628-.241 1.079-.598 1.15-.91 2.06-1.225 3.28-1.137 1.91.138 2.442 1.256 2.445 5.139.002 1.939-.05 2.434-.319 3.06-.32.745-.633.916-1.118.608-.263-.167-.289-.702-.152-3.215.12-2.193-.12-3.728-.64-4.118-.301-.225-1.656-.161-2.123.1-.64.358-1.737 1.645-2.153 2.526C33.86 8.22 33.633 8.766 33.63 9c-.004.392-.43 1.464-.715 1.795-.16.186-.43.302-.637.272-.312-.044-.366-.167-.41-.921-.027-.48.026-.96.117-1.071.545-.657.906-4.205.472-4.639-.108-.107-.368-.196-.578-.196-.44 0-1.595.553-1.789.856-.072.113-.278.286-.457.385-.18.098-.554.613-.832 1.143-.663 1.267-1.3 2.189-1.713 2.477a1.57 1.57 0 00-.48.62c-.219.576-2.198 1.804-3.284 2.038-.863.186-.966.174-1.633-.191-1.001-.55-1.33-1.244-1.207-2.552.053-.561.035-1.02-.04-1.02-.076 0-.354.227-.618.504-2.064 2.174-6.033 4.071-8.027 3.838-1.444-.168-2.436-.429-2.758-.723-.168-.155-.55-.453-.848-.663-.597-.421-.907-1.038-.758-1.509.14-.441.929-.39 1.511.1.54.455 1.866 1.065 2.315 1.065.588 0 .994-.55 1.318-1.785.345-1.314.406-2.463.17-3.211-.083-.26-.195-.676-.249-.923-.057-.26-.207-.449-.357-.449-.4 0-1.942 1.287-4.816 4.018-.415.394-.833.717-.93.717-.096 0-.601.388-1.122.862a74.308 74.308 0 01-2.01 1.745c-.583.486-1.23 1.053-1.435 1.26-.374.378-.7.475-.905.27zm33.702 2.983c-.299-.36-.12-.71.51-.996.53-.24 3.825-.64 7.149-.868.943-.064 1.807-.177 1.921-.25.23-.145 1.344.166 1.344.376 0 .444-.641.842-1.605.995a54.835 54.835 0 01-5.742.646c-1.212.078-2.465.19-2.783.249-.427.079-.635.04-.794-.152z" stroke-width=".163"/></svg>