<svg xmlns="http://www.w3.org/2000/svg" height="23.94" width="50.514"><path d="M.105 11.586c-.262-.262-.048-.75.81-1.847.847-1.083.923-1.252 1-2.208.07-.866.026-1.127-.268-1.603-.299-.483-.323-.633-.159-.993.125-.273.324-.423.56-.423.434 0 1.172.812 1.309 1.44.052.24.129.543.17.673.041.13-.047.8-.197 1.493-.325 1.507-1.084 2.623-2.176 3.198-.776.41-.883.437-1.049.27zm24.268-2.53c.556-.2 1.048-.406 1.093-.46.045-.052.469-.376.942-.719.473-.342 1.083-.946 1.355-1.341.271-.395.552-.718.623-.718.507 0 .706-2.735.262-3.596-.359-.692-.827-.88-2.203-.882-1.806-.003-2.614.283-3.674 1.301-.493.474-.897.99-.897 1.144 0 .155-.289.877-.642 1.606-.353.728-.692 1.527-.753 1.775-.06.248-.176.491-.256.54-.08.05-.145.449-.145.887v.797l.612.074c1.108.133 2.656-.038 3.683-.408zm-13.275 5.99c.225-.129.578-.311.785-.404.208-.094.526-.51.713-.931.293-.664.322-.951.227-2.246-.144-1.94-.184-2.056-.72-2.056-.34 0-.793.351-1.969 1.527-.84.84-1.594 1.648-1.677 1.796-.083.148-.239.27-.346.27-.108 0-.284.19-.391.421-.233.501.014 1.207.425 1.218.143.004.517.147.83.32.684.373 1.562.41 2.123.086zM27.773.105c.709.12 1.482.339 1.928.966.388.545.99 2.305.99 2.897 0 .473-.357 1.366-.677 1.694-.128.131-.432.582-.676 1.003-.633 1.09-2.3 2.635-3.006 2.787a3.371 3.371 0 00-1.005.42c-.238.164-.858.397-1.378.517-1.336.31-1.533.482-1.273 1.109.245.592.817 1.25 1.785 2.057.631.525.811.59 1.633.59 1.033 0 1.448-.255 3.595-2.21a61.265 61.265 0 011.981-1.72c.96-.786 2.966-1.784 3.586-1.784.586 0 1.37.573 1.778 1.298.204.364.437.661.518.661.081 0 .399-.22.705-.49.307-.269.643-.49.747-.49.103 0 .373-.12.6-.27.25-.163.889-.3 1.623-.347 1.394-.09 1.84.106 2.397 1.05.288.488.4.556.761.465.234-.059.462-.163.508-.233.228-.345 2.041-.986 2.798-.989.57-.002 1.557.42 2.018.865.206.198.467.757.585 1.256.448 1.884.168 5.266-.456 5.505-.126.049-.394.014-.595-.078-.36-.164-.364-.207-.298-2.624.064-2.32.048-2.485-.288-2.957-.31-.436-.453-.5-1.12-.498-1.004.002-2.156.57-2.885 1.42-.315.37-.574.751-.574.85 0 .097-.055.177-.123.177-.147 0-.491.749-.778 1.69-.46 1.513-.813 1.89-1.548 1.657-.262-.083-.326-.247-.326-.833 0-.4.107-.893.238-1.093.385-.587.784-2.4.688-3.12-.11-.818-.45-1.076-1.425-1.076-.733 0-.812.05-2.037 1.265-1.726 1.714-1.833 1.846-1.967 2.408-.064.27-.265.784-.447 1.143-.182.36-.38.764-.442.898-.06.135-.337.268-.615.296-.391.039-.565-.043-.776-.365-.262-.4-.253-.449.235-1.313.279-.494.507-1.012.507-1.152 0-.139.107-.417.239-.618.131-.2.287-.776.347-1.28.094-.805.064-.958-.25-1.273-.282-.282-.467-.334-.877-.247-1.03.217-2.181.99-3.749 2.519-1.993 1.943-2.201 2.127-2.407 2.127-.092 0-.477.198-.857.44-1.276.814-3.45.684-4.33-.258-.82-.876-1.475-1.754-1.817-2.433-.194-.385-.576-.836-.848-1.002-.273-.165-.605-.456-.738-.646-.472-.675-1.227-.273-1.539.819-.086.302-.494.917-.907 1.366-.413.449-.816.983-.894 1.188-.08.204-.273.418-.432.476-.158.058-.63.388-1.048.733-1.18.975-2.064 1.29-4.111 1.466-2.11.181-2.92-.022-3.797-.952-.282-.299-.626-.544-.763-.544-.138 0-.51.24-.826.53-1.048.968-2.79 2.246-3.06 2.246-.072 0-.175-.14-.23-.313a1.142 1.142 0 01.628-1.397c.496-.221 2.024-1.664 3.858-3.644 1.04-1.122.893-.972 2.871-2.952.84-.842 1.568-1.65 1.616-1.796.048-.146.454-.446.904-.666 1.095-.536 1.215-.394 1.648 1.957.276 1.5.324 2.205.24 3.546l-.106 1.673h.414c.227 0 .413-.072.413-.16 0-.087.274-.4.608-.693.986-.867 1.524-1.463 1.814-2.01.936-1.768 1.372-2.694 1.573-3.341.126-.404.424-1.249.663-1.878.239-.628.509-1.398.6-1.71.301-1.033.975-2.127 1.859-3.018.48-.483.702-.757 1.163-.957 1.431-.62 3.102-.86 4.64-.6zm-12.51 23.514c-.12-.38.325-1.398.737-1.686.347-.244.647-1.255.649-2.184 0-.493-.114-.818-.417-1.177-.343-.408-.385-.555-.239-.829.258-.482.74-.41 1.419.212.517.474.604.662.67 1.452.09 1.087-.256 2.254-.952 3.215-.264.364-.48.725-.48.802 0 .16-.728.517-1.058.517-.125 0-.273-.145-.329-.322z"/></svg>