<?xml version="1.0" encoding="UTF-8" standalone="no"?>
<svg
   xmlns:dc="http://purl.org/dc/elements/1.1/"
   xmlns:cc="http://creativecommons.org/ns#"
   xmlns:rdf="http://www.w3.org/1999/02/22-rdf-syntax-ns#"
   xmlns:svg="http://www.w3.org/2000/svg"
   xmlns="http://www.w3.org/2000/svg"
   id="svg2502"
   viewBox="0 0 30.673219 21.211012"
   version="1.1"
   height="21.211012"
   width="30.67322">
  <defs
     id="defs2506" />
  <metadata
     id="metadata2">
    <rdf:RDF>
      <cc:Work
         rdf:about="">
        <dc:format>image/svg+xml</dc:format>
        <dc:type
           rdf:resource="http://purl.org/dc/dcmitype/StillImage" />
        <dc:title />
      </cc:Work>
    </rdf:RDF>
  </metadata>
  <g
     transform="translate(-646.03901,-793.03462)"
     style="stroke-width:0.16327"
     id="g2500">
    <path
       d="m 646.15,800.38 c -0.2305,-0.23048 -0.0912,-0.83056 0.31791,-1.3696 0.65287,-0.86026 1.5324,-2.8796 1.5324,-3.5183 0,-0.31376 -0.11617,-0.79515 -0.25818,-1.0698 -0.31698,-0.61297 -0.18888,-1.2202 0.28945,-1.372 0.47448,-0.15059 1.3749,0.81289 1.5294,1.6366 0.13001,0.69304 -0.29477,2.391 -0.76342,3.0516 -0.1691,0.23835 -0.30745,0.55378 -0.30745,0.70095 0,0.14718 -0.39141,0.66849 -0.8698,1.1585 -0.81312,0.83281 -1.209,1.0434 -1.4703,0.78202 z m 26.551,-1.3747 c 0.20536,-0.3277 0.004,-1.457 -0.25874,-1.4498 -0.4168,0.0114 -1.4212,1.1358 -1.4212,1.5909 0,0.32016 1.4682,0.19687 1.6799,-0.14108 z m -1.6473,4.4727 c 0.24257,-0.23239 0.64671,-0.82057 0.89809,-1.307 0.44781,-0.86662 0.45065,-0.88925 0.14013,-1.12 -0.45222,-0.3361 -2.1976,-0.30254 -3.1507,0.0606 -0.4275,0.16289 -1.0711,0.56764 -1.4303,0.89944 l -0.65306,0.6033 0.56315,0.4475 c 1.339,1.064 2.7838,1.2296 3.6327,0.41624 z m -13.424,0.23533 c 0.39539,-0.20204 0.85884,-0.55964 1.0299,-0.79466 0.37283,-0.51229 0.6717,-2.7911 0.51678,-3.94 -0.15422,-1.1436 -0.52127,-1.0479 -2.1964,0.57263 -1.2874,1.2455 -2.7755,3.0462 -2.7755,3.3586 0,0.20994 0.69165,0.80748 1.1429,0.98743 0.68031,0.27128 1.5246,0.20325 2.2823,-0.18392 z m -8.7042,2.381 c -0.31474,-0.31473 0.29194,-1.6871 0.74581,-1.6871 0.0986,0 0.36915,-0.18171 0.60113,-0.4038 0.23197,-0.22209 0.89766,-0.71801 1.4793,-1.102 0.65616,-0.43322 1.3334,-1.07 1.7842,-1.6778 0.39967,-0.53878 1.3499,-1.5674 2.1117,-2.2857 0.7618,-0.7183 1.8961,-1.802 2.5207,-2.4082 1.2094,-1.1736 1.7781,-1.3775 2.3229,-0.83265 0.23664,0.23662 0.26044,0.63857 0.19577,3.3061 -0.0563,2.322 -0.13616,3.1796 -0.33935,3.6437 -0.38955,0.88978 -0.35015,1.2705 0.13143,1.2705 0.45026,0 2.6297,-0.8391 2.9116,-1.121 0.10183,-0.10182 0.30839,-0.18514 0.45904,-0.18514 0.5447,0 0.70939,-0.43384 0.50341,-1.3262 -0.45221,-1.9591 -0.23567,-2.1816 1.9559,-2.0102 1.8255,0.1428 2.507,-0.0538 3.2627,-0.94142 1.2668,-1.4878 3.61,-3.7222 3.9033,-3.7222 0.53907,0 0.81094,0.81383 0.81094,2.4275 0,1.9561 0.0132,1.9806 1.067,1.9806 0.95931,0 1.4335,0.3024 1.3498,0.86082 -0.0627,0.41824 -0.29745,0.53794 -1.558,0.79443 -0.95811,0.19496 -1.0298,0.24175 -1.204,0.78622 -0.39636,1.239 -0.95742,2.2641 -1.4436,2.6376 -0.27942,0.21466 -0.71702,0.58111 -0.97245,0.81435 -0.87386,0.79792 -2.6546,0.74712 -3.9187,-0.11182 -0.31879,-0.21664 -0.70535,-0.39388 -0.859,-0.39388 -0.15367,0 -0.37538,-0.13528 -0.49272,-0.30062 -0.50805,-0.7159 -1.3757,-0.76443 -2.0268,-0.11332 -0.13081,0.13082 -0.51099,0.28677 -0.84483,0.34658 -0.33386,0.0598 -0.71721,0.20018 -0.8519,0.31196 -0.50005,0.41499 -0.97187,0.56376 -2.6288,0.82887 -2.3409,0.37455 -4.9718,0.25977 -5.6849,-0.24802 -0.27643,-0.19685 -0.5026,-0.4513 -0.5026,-0.56547 0,-0.21477 -0.66588,-0.58651 -1.0506,-0.58651 -0.28357,0 -1.8351,1.0532 -2.4382,1.655 -0.43835,0.43746 -1.0522,0.60671 -1.3003,0.35855 z m 13.312,6.7706 c -0.30051,-0.3005 -0.23621,-0.66645 0.22532,-1.2826 0.23169,-0.30929 0.64426,-0.99951 0.91684,-1.5338 0.43861,-0.85982 0.48158,-1.0663 0.37386,-1.7959 -0.0669,-0.45343 -0.13053,-1.0816 -0.14133,-1.3958 -0.0181,-0.52831 0.0198,-0.57525 0.50275,-0.62198 0.46524,-0.045 0.55892,0.0212 0.85714,0.60575 0.7616,1.4929 0.2194,3.7354 -1.277,5.2815 -0.94457,0.97595 -1.13,1.0704 -1.4576,0.74285 z m 8.7837,1.1913 c -0.35854,-0.345 0.10444,-0.97479 0.2321,-1.4746 0.12764,-0.49978 0.31409,-1.5332 0.41432,-2.2964 0.23941,-1.8232 0.51303,-3.1349 0.70668,-3.3878 0.21608,-0.28219 0.84968,-0.25586 1.1,0.0457 0.16454,0.19827 0.16862,0.52664 0.0198,1.5918 -0.10315,0.73812 -0.18985,1.7461 -0.19266,2.24 -0.003,0.49387 0.17646,2.2249 -0.51892,2.934 -0.41897,0.42724 -1.3301,0.76207 -1.7613,0.34717 z"
       id="association" />
  </g>
</svg>
