<?xml version="1.0" encoding="UTF-8" standalone="no"?>
<svg
   xmlns:dc="http://purl.org/dc/elements/1.1/"
   xmlns:cc="http://creativecommons.org/ns#"
   xmlns:rdf="http://www.w3.org/1999/02/22-rdf-syntax-ns#"
   xmlns:svg="http://www.w3.org/2000/svg"
   xmlns="http://www.w3.org/2000/svg"
   id="svg2502"
   viewBox="0 0 50.513625 23.939917"
   version="1.1"
   height="23.939917"
   width="50.513626">
  <defs
     id="defs2506" />
  <metadata
     id="metadata2">
    <rdf:RDF>
      <cc:Work
         rdf:about="">
        <dc:format>image/svg+xml</dc:format>
        <dc:type
           rdf:resource="http://purl.org/dc/dcmitype/StillImage" />
        <dc:title />
      </cc:Work>
    </rdf:RDF>
  </metadata>
  <g
     transform="translate(-646.04479,-814.42368)"
     style="stroke-width:0.16327"
     id="g2500">
    <path
       d="m 646.15,826.01 c -0.26253,-0.26253 -0.0485,-0.75124 0.809,-1.8471 0.84769,-1.0834 0.92419,-1.2521 1.0009,-2.2078 0.0696,-0.86667 0.026,-1.1272 -0.2684,-1.6035 -0.29852,-0.48299 -0.32239,-0.63259 -0.15839,-0.99254 0.12462,-0.2735 0.32343,-0.42382 0.56056,-0.42382 0.43343,0 1.171,0.81252 1.3081,1.4412 0.0524,0.24002 0.12893,0.54235 0.17014,0.67184 0.0412,0.1295 -0.0474,0.8013 -0.19678,1.4929 -0.3258,1.5079 -1.0847,2.6235 -2.176,3.1986 -0.77649,0.40922 -0.88287,0.43664 -1.0491,0.27037 z m 24.268,-2.5299 c 0.5559,-0.19992 1.0475,-0.40675 1.0924,-0.45961 0.0449,-0.0529 0.46891,-0.37662 0.94225,-0.71945 0.47336,-0.34282 1.083,-0.94653 1.3548,-1.3416 0.27179,-0.39504 0.5523,-0.71824 0.62337,-0.71824 0.50733,0 0.70633,-2.735 0.26157,-3.5951 -0.35826,-0.6928 -0.82652,-0.88045 -2.2024,-0.88266 -1.8061,-0.003 -2.6144,0.28345 -3.6737,1.3013 -0.49374,0.47442 -0.89773,0.98918 -0.89773,1.1439 0,0.15475 -0.28878,0.87742 -0.64173,1.606 -0.35294,0.72852 -0.6917,1.5273 -0.75278,1.7751 -0.0611,0.24779 -0.17638,0.4909 -0.25623,0.54026 -0.0799,0.0493 -0.14518,0.44829 -0.14518,0.88656 v 0.79683 l 0.61225,0.0738 c 1.1077,0.1335 2.6557,-0.0376 3.6832,-0.40708 z m -13.275,5.9902 c 0.22449,-0.12952 0.57747,-0.31181 0.78439,-0.4051 0.20805,-0.0938 0.52675,-0.50986 0.71293,-0.93074 0.29357,-0.66366 0.32263,-0.95125 0.22701,-2.2456 -0.14341,-1.941 -0.18361,-2.0558 -0.71938,-2.0558 -0.34074,0 -0.79342,0.35105 -1.969,1.5269 -0.83963,0.83978 -1.5943,1.648 -1.6771,1.7959 -0.0828,0.14795 -0.23873,0.26958 -0.34651,0.27028 -0.10779,0 -0.28361,0.19012 -0.39073,0.42095 -0.23247,0.50096 0.0139,1.2064 0.42504,1.2173 0.14273,0.004 0.51666,0.14763 0.83094,0.31969 0.68328,0.37409 1.5616,0.40978 2.1224,0.0862 z m 16.675,-14.943 c 0.70877,0.12014 1.4816,0.33894 1.9281,0.96612 0.38805,0.54495 0.98919,2.3056 0.98919,2.8971 0,0.4728 -0.35664,1.3657 -0.67672,1.6942 -0.12774,0.13112 -0.43193,0.5823 -0.67598,1.0026 -0.63321,1.0906 -2.2992,2.6357 -3.0058,2.7878 -0.31541,0.0679 -0.76787,0.25711 -1.0054,0.4205 -0.2376,0.16338 -0.85744,0.39581 -1.3774,0.51648 -1.3365,0.31018 -1.5331,0.48124 -1.2733,1.1083 0.24544,0.59254 0.81666,1.2508 1.7852,2.0571 0.6311,0.52541 0.81121,0.59053 1.6333,0.59053 1.0322,0 1.4479,-0.25552 3.595,-2.2101 0.5955,-0.54207 1.4868,-1.3164 1.9807,-1.7207 0.95959,-0.78553 2.966,-1.7835 3.5856,-1.7835 0.58599,0 1.3703,0.57257 1.778,1.2981 0.20436,0.36362 0.43778,0.66112 0.51871,0.66112 0.0809,0 0.39817,-0.22041 0.70498,-0.48979 0.30682,-0.26939 0.64258,-0.4898 0.74612,-0.4898 0.10354,0 0.37373,-0.12152 0.60041,-0.27004 0.24981,-0.16369 0.88913,-0.30065 1.6232,-0.34775 1.3936,-0.0894 1.8404,0.10623 2.3971,1.0499 0.28775,0.48772 0.39915,0.55574 0.76127,0.46483 0.23332,-0.0586 0.46168,-0.1631 0.50748,-0.23234 0.22831,-0.34515 2.0414,-0.98621 2.798,-0.98933 0.56968,-0.002 1.5568,0.42064 2.0181,0.86479 0.20637,0.19867 0.46671,0.75748 0.58515,1.2559 0.44772,1.8843 0.1677,5.2664 -0.45582,5.5057 -0.12647,0.0485 -0.39437,0.0134 -0.59535,-0.0783 -0.35938,-0.16375 -0.3643,-0.20699 -0.29804,-2.624 0.0636,-2.3204 0.0475,-2.4853 -0.28836,-2.957 -0.31045,-0.43599 -0.453,-0.49937 -1.1201,-0.49808 -1.0032,0.002 -2.156,0.5698 -2.8844,1.4208 -0.31562,0.36875 -0.57388,0.75061 -0.57388,0.84859 0,0.0979 -0.0555,0.17812 -0.12341,0.17812 -0.14667,0 -0.49103,0.74819 -0.77768,1.6897 -0.46057,1.5128 -0.81327,1.8904 -1.5479,1.6573 -0.26234,-0.0833 -0.32654,-0.24702 -0.32654,-0.83308 0,-0.40119 0.10729,-0.89316 0.23839,-1.0933 0.38442,-0.58671 0.78423,-2.4 0.68775,-3.1192 -0.10989,-0.81932 -0.45064,-1.0769 -1.4247,-1.0769 -0.73286,0 -0.81255,0.0495 -2.037,1.2653 -1.7257,1.7135 -1.8334,1.8453 -1.9671,2.4082 -0.064,0.26938 -0.26514,0.78367 -0.44697,1.1428 -0.18183,0.35919 -0.38056,0.76327 -0.44165,0.89796 -0.0611,0.1347 -0.33789,0.26758 -0.61515,0.29532 -0.39141,0.0391 -0.5649,-0.0424 -0.7761,-0.36474 -0.26189,-0.39969 -0.25314,-0.44857 0.23484,-1.3132 0.27878,-0.49396 0.50686,-1.012 0.50686,-1.1512 0,-0.13922 0.10757,-0.41731 0.23905,-0.61796 0.13148,-0.20067 0.28748,-0.77679 0.34665,-1.2803 0.0947,-0.80554 0.0647,-0.95829 -0.24969,-1.2727 -0.28197,-0.28197 -0.46689,-0.33415 -0.87725,-0.24751 -1.0302,0.21749 -2.1809,0.99076 -3.7484,2.519 -1.993,1.943 -2.2015,2.1272 -2.4074,2.1272 -0.0916,0 -0.47729,0.19825 -0.85714,0.44056 -1.2753,0.81348 -3.4488,0.68377 -4.3299,-0.25842 -0.81909,-0.87592 -1.4746,-1.7538 -1.817,-2.4334 -0.19404,-0.38516 -0.57578,-0.83588 -0.84828,-1.0016 -0.27252,-0.16572 -0.60433,-0.45672 -0.73737,-0.64665 -0.47228,-0.67427 -1.2273,-0.27241 -1.5388,0.81902 -0.0863,0.30247 -0.49479,0.91728 -0.9077,1.3663 -0.41292,0.44897 -0.81522,0.98351 -0.894,1.1878 -0.0788,0.20434 -0.27291,0.41872 -0.43141,0.47641 -0.15848,0.0577 -0.63028,0.38751 -1.0484,0.73294 -1.1796,0.9745 -2.0635,1.2896 -4.1112,1.4656 -2.1099,0.18129 -2.9201,-0.0217 -3.797,-0.95164 -0.28207,-0.29907 -0.6254,-0.54377 -0.76297,-0.54377 -0.13755,0 -0.50896,0.23878 -0.82534,0.53061 -1.048,0.96671 -2.7909,2.2449 -3.061,2.2449 -0.0712,0 -0.17412,-0.14068 -0.2287,-0.31265 l -10e-6,6e-5 c -0.17839,-0.56203 0.0883,-1.1562 0.62698,-1.3968 0.49662,-0.22183 2.0239,-1.6643 3.8584,-3.6443 1.0397,-1.1221 0.89338,-0.97164 2.871,-2.9525 0.84051,-0.84191 1.5675,-1.6501 1.6155,-1.7959 0.048,-0.14586 0.45496,-0.44539 0.90436,-0.66562 1.0948,-0.53649 1.2147,-0.39402 1.648,1.9573 0.27637,1.4996 0.32403,2.2044 0.23973,3.5452 l -0.1052,1.6735 h 0.4133 c 0.22733,0 0.41332,-0.0717 0.41332,-0.1593 0,-0.0876 0.27367,-0.39987 0.60815,-0.69388 0.98573,-0.8665 1.5243,-1.4634 1.8138,-2.0102 0.93578,-1.7674 1.3719,-2.6937 1.573,-3.3407 0.12559,-0.40408 0.42384,-1.249 0.66278,-1.8776 0.23895,-0.62857 0.50906,-1.3985 0.60024,-1.7109 0.30147,-1.033 0.97507,-2.1264 1.8588,-3.0172 0.47955,-0.4834 0.70246,-0.75771 1.1633,-0.95724 1.431,-0.61958 3.102,-0.86094 4.6394,-0.60034 z m -12.51,23.514 c -0.1202,-0.37872 0.32488,-1.3977 0.7364,-1.686 0.34719,-0.24317 0.64786,-1.2545 0.6491,-2.1833 0,-0.49345 -0.11417,-0.8181 -0.41641,-1.1773 -0.34297,-0.40761 -0.38558,-0.55525 -0.23915,-0.82885 0.25793,-0.48193 0.74046,-0.40996 1.4187,0.21162 0.51693,0.47373 0.60398,0.66258 0.66947,1.4523 0.0901,1.0866 -0.25525,2.2538 -0.95112,3.2145 -0.26433,0.3649 -0.48059,0.72575 -0.48059,0.80191 0,0.16144 -0.72785,0.51742 -1.0579,0.51742 -0.12441,0 -0.27224,-0.14504 -0.3285,-0.32231 z"
       id="assortment" />
  </g>
</svg>
