<svg xmlns="http://www.w3.org/2000/svg" height="21.211" width="30.673"><path d="M.111 7.345c-.23-.23-.091-.83.318-1.37.653-.86 1.532-2.879 1.532-3.518a2.77 2.77 0 00-.258-1.07c-.317-.612-.189-1.22.29-1.371.474-.15 1.374.813 1.529 1.636.13.693-.295 2.391-.763 3.052-.17.238-.308.554-.308.7 0 .148-.391.67-.87 1.16-.813.832-1.209 1.043-1.47.781zm26.551-1.374c.205-.328.004-1.457-.259-1.45-.417.011-1.42 1.136-1.42 1.59 0 .32 1.467.198 1.679-.14zm-1.647 4.472c.242-.232.646-.82.898-1.307.448-.866.45-.889.14-1.12-.452-.336-2.198-.302-3.15.061-.428.163-1.072.568-1.431.9l-.653.603.563.447c1.339 1.064 2.784 1.23 3.633.416zm-13.424.236c.395-.202.859-.56 1.03-.795.372-.512.671-2.791.516-3.94-.154-1.144-.52-1.048-2.196.573-1.287 1.245-2.776 3.046-2.776 3.358 0 .21.692.808 1.143.988.68.271 1.525.203 2.283-.184zm-8.705 2.38c-.314-.314.292-1.686.746-1.686.099 0 .37-.182.601-.404.232-.222.898-.718 1.48-1.102a7.514 7.514 0 001.784-1.678c.4-.539 1.35-1.567 2.112-2.286a294.82 294.82 0 002.52-2.408c1.21-1.173 1.778-1.377 2.323-.833.237.237.26.639.196 3.307-.056 2.322-.136 3.18-.34 3.643-.389.89-.35 1.27.132 1.27.45 0 2.63-.838 2.912-1.12a.746.746 0 01.459-.185c.544 0 .71-.434.503-1.327-.452-1.959-.236-2.181 1.956-2.01 1.826.143 2.507-.054 3.263-.941 1.267-1.488 3.61-3.722 3.903-3.722.54 0 .811.813.811 2.427 0 1.956.013 1.98 1.067 1.98.96 0 1.433.303 1.35.862-.063.418-.298.537-1.558.794-.958.195-1.03.242-1.204.786-.397 1.24-.958 2.264-1.444 2.638-.28.214-.717.58-.972.814-.874.798-2.655.747-3.919-.112-.319-.216-.705-.394-.859-.394-.154 0-.375-.135-.493-.3-.508-.716-1.375-.765-2.026-.114-.131.131-.511.287-.845.347-.334.06-.718.2-.852.312-.5.415-.972.564-2.629.829-2.34.374-4.972.26-5.685-.248-.276-.197-.503-.451-.503-.566 0-.214-.665-.586-1.05-.586-.284 0-1.835 1.053-2.438 1.655-.439.437-1.053.607-1.3.358zm13.312 6.771c-.3-.3-.236-.666.226-1.282.232-.31.644-1 .917-1.534.438-.86.481-1.066.374-1.796a15.615 15.615 0 01-.142-1.396c-.018-.528.02-.575.503-.622.465-.045.559.021.857.606.762 1.493.22 3.735-1.277 5.281-.944.976-1.13 1.07-1.458.743zm8.784 1.192c-.358-.345.105-.975.232-1.475.128-.5.314-1.533.415-2.296.239-1.824.513-3.135.706-3.388.216-.282.85-.256 1.1.046.165.198.169.526.02 1.591-.103.738-.19 1.746-.193 2.24-.003.494.177 2.225-.518 2.934-.42.428-1.33.762-1.762.347z"/></svg>