<svg xmlns="http://www.w3.org/2000/svg" height="19.546" width="32.412"><path d="M.183 5.914c-.342-.341-.222-.743.503-1.694.673-.881.767-1.223.641-2.332C1.123.096 1.2-.132 1.937.053c.649.163 1.089 1.005 1.089 2.084 0 .5-.066.95-.146 1-.08.049-.195.292-.257.54-.062.247-.309.697-.549 1-.24.303-.552.743-.693.98-.31.516-.828.628-1.198.257zm7.249 2.133c.265-.319.094-.736-.3-.736-.324 0-.901.701-.724.879.189.189.822.1 1.024-.143zm-.12 4.202c.348-.388.53-1.706.295-2.144-.161-.301-.331-.345-1.33-.345-.997 0-1.195.051-1.545.4-.576.577-.535 1.302.107 1.901.426.398.644.474 1.362.474.609 0 .93-.082 1.111-.286zm9.884 2.286c-.364-.42-.62-1.658-.62-3 0-1.213.137-1.83.672-3.045.353-.801.402-1.718.104-1.953-.694-.547-1.715-.32-2.059.455-.116.263-.444.637-.73.832-.284.194-.59.438-.68.54-.33.378-1.72 1.041-2.401 1.147-1.095.17-1.752.414-1.91.71-.081.15-.2.64-.265 1.09-.1.687-.238.928-.874 1.527-.984.926-1.57 1.22-2.472 1.235-.63.011-.898-.1-1.825-.762-.598-.427-1.221-.773-1.385-.77-.362.007-1.084.596-1.342 1.094-.26.504-.981.67-1.259.29-.177-.241-.169-.375.047-.791.142-.276.36-.603.485-.727.807-.807 1.073-1.343.968-1.952-.37-2.137-.415-2.07 1.395-2.078l1.243-.006.716-.798c.394-.44.823-.954.955-1.143.131-.19.407-.527.612-.75.205-.224.373-.455.373-.513 0-.058.19-.23.423-.382.351-.23.503-.245.888-.085.563.233.763.75.909 2.363.073.812.185 1.238.34 1.297.127.049.782.007 1.455-.093 1.766-.263 2.177-.595 3.71-2.996.286-.448.66-.841.83-.874.37-.07 2.384.692 3.24 1.228.756.473.786.863.188 2.441-.959 2.529-1.116 3.86-.624 5.275.34.976.204 1.48-.398 1.48-.254 0-.573-.13-.709-.286zm6.238.286c-.423-.423-.416-.498.148-1.513.622-1.12.884-2.387.808-3.905-.059-1.16-.1-1.273-.683-1.919-.8-.887-.774-1.377.079-1.448.513-.042.654.027 1.001.49.223.297.455.705.516.907.126.415.814.517.957.143.048-.124.424-.453.837-.731.62-.419.972-.525 2.028-.613 1.474-.123 2.244.07 2.685.677.357.491.601 1.879.602 3.43.002 1.17-.456 3.648-.787 4.266-.284.531-.716.617-1.047.208-.343-.424-.352-.832-.038-1.706.16-.446.236-1.356.238-2.863l.002-2.21-.474-.28c-.26-.154-.615-.28-.787-.28-.72 0-1.818.536-2.478 1.209-.617.628-.73.868-1.016 2.149-.485 2.174-1.575 4.315-2.197 4.315-.038 0-.215-.147-.395-.326zm-10.531 2.54c-1.723-1.765-2.123-2.263-2.123-2.643 0-.405.07-.475.507-.518.414-.04.647.087 1.272.694.42.409.867.743.992.743s.273.141.327.314c.055.173.372.562.705.866.333.304.777.864.987 1.244.359.65.366.716.119 1.093-.145.221-.353.397-.464.392-.11-.005-1.155-.988-2.322-2.184z" stroke-width=".163"/></svg>