<?xml version="1.0" encoding="UTF-8" standalone="no"?>
<svg
   xmlns:dc="http://purl.org/dc/elements/1.1/"
   xmlns:cc="http://creativecommons.org/ns#"
   xmlns:rdf="http://www.w3.org/1999/02/22-rdf-syntax-ns#"
   xmlns:svg="http://www.w3.org/2000/svg"
   xmlns="http://www.w3.org/2000/svg"
   id="svg2502"
   viewBox="0 0 37.27714 18.881956"
   version="1.1"
   height="18.881956"
   width="37.277142">
  <defs
     id="defs2506" />
  <metadata
     id="metadata2">
    <rdf:RDF>
      <cc:Work
         rdf:about="">
        <dc:format>image/svg+xml</dc:format>
        <dc:type
           rdf:resource="http://purl.org/dc/dcmitype/StillImage" />
        <dc:title />
      </cc:Work>
    </rdf:RDF>
  </metadata>
  <g
     transform="translate(-646.10547,-843.29813)"
     style="stroke-width:0.16327"
     id="g2500">
    <path
       d="m 646.3,850.56 c -0.27995,-0.2047 -0.27399,-0.25447 0.12449,-1.0408 0.23017,-0.45422 0.53211,-0.86947 0.67097,-0.92274 0.13886,-0.0533 0.25247,-0.17011 0.25247,-0.25961 0,-0.0895 0.22041,-0.51027 0.4898,-0.93505 0.27851,-0.43916 0.4898,-0.99535 0.4898,-1.2893 0,-0.32866 -0.17845,-0.74155 -0.4898,-1.1333 -0.57411,-0.72242 -0.61161,-1.0636 -0.16168,-1.4708 0.28997,-0.26243 0.37698,-0.27079 0.74847,-0.072 0.75172,0.4023 1.1153,1.1072 1.1822,2.2921 0.0504,0.89259 -0.008,1.2235 -0.33006,1.8812 -0.65345,1.3329 -1.4392,2.4903 -1.9259,2.8369 -0.54323,0.38682 -0.65987,0.39942 -1.0508,0.11358 z m 11.466,2.7334 c 0.79767,-0.68278 1.2575,-1.9301 1.091,-2.9591 -0.25442,-1.5719 -0.44586,-2.172 -0.69283,-2.172 -0.28325,0 -1.4306,0.9114 -3.1416,2.4955 -1.2561,1.1629 -1.4901,1.7849 -0.77702,2.065 0.20204,0.0793 0.66123,0.36936 1.0204,0.64448 0.91946,0.70429 1.615,0.68375 2.5001,-0.0738 z m -9.1667,2.76 c -0.32137,-0.32135 -0.0374,-0.86098 0.88989,-1.691 0.54931,-0.4917 1.082,-0.98785 1.1837,-1.1026 0.24385,-0.27502 1.9495,-1.9336 5.9395,-5.7758 2.2303,-2.1476 2.5484,-2.2873 3.0298,-1.3302 0.32483,0.64586 0.64707,3.6958 0.5791,5.4812 l -0.0574,1.5068 0.65306,-0.0119 c 0.35919,-0.007 1.4245,-0.0975 2.3674,-0.20196 0.94286,-0.10449 2.9633,-0.22737 4.4898,-0.27303 1.5265,-0.0457 3.0694,-0.15476 3.4286,-0.24239 0.35918,-0.0876 1.7918,-0.23982 3.1837,-0.33818 2.3932,-0.16913 3.074,-0.24435 5.9184,-0.65393 1.3829,-0.19914 2.7897,-0.0751 3.0772,0.2713 0.165,0.19881 0.13635,0.30925 -0.15613,0.60192 -0.295,0.29522 -0.62383,0.37857 -1.8641,0.47251 -2.2823,0.17287 -4.1244,0.39153 -4.3208,0.5129 -0.0968,0.0598 -1.0092,0.17959 -2.0275,0.26615 -1.0183,0.0866 -2.6596,0.23488 -3.6474,0.32959 -0.98775,0.0947 -3.4122,0.24168 -5.3878,0.32661 -3.7817,0.16258 -6.0578,0.43887 -7.245,0.87944 -1.4761,0.54779 -4.1056,0.17529 -4.9182,-0.69671 -0.36472,-0.39135 -1.0973,-0.83408 -1.3802,-0.83408 -0.30432,0 -0.74409,0.33538 -1.7616,1.3434 -0.4286,0.42462 -0.99542,0.8838 -1.2596,1.0204 -0.54829,0.28354 -0.56664,0.28711 -0.71422,0.13954 z m 16.509,5.6818 c -0.29496,-0.25729 -0.95875,-0.66671 -1.4751,-0.90981 -0.51633,-0.24311 -0.93878,-0.50518 -0.93878,-0.5824 0,-0.0772 -0.15146,-0.18849 -0.33658,-0.24724 -1.1533,-0.36605 -2.1238,-1.5695 -1.7814,-2.2092 0.23648,-0.44186 0.72735,-0.39747 1.435,0.12981 0.33074,0.24644 0.63808,0.48875 0.68298,0.53848 0.22647,0.25086 1.1391,0.81023 1.3313,0.81601 0.29963,0.009 1.9074,1.2776 2.3146,1.8261 0.32067,0.43207 0.32157,0.45462 0.0312,0.77551 -0.4001,0.44209 -0.62735,0.41741 -1.2632,-0.1373 z"
       id="assume" />
  </g>
</svg>
