<svg xmlns="http://www.w3.org/2000/svg" height="18.087" width="22.089"><path d="M.196 7.217c-.335-.136-.232-.628.245-1.17 1.07-1.213 1.441-1.756 1.63-2.382.347-1.145.27-1.515-.457-2.228C.705.546.762.077 1.788.014c.735-.045.735-.044 1.367.942.574.896.625 1.066.558 1.841-.115 1.313-.702 2.42-1.975 3.724-.736.754-1.048.895-1.542.696zm9.838-.22c.172-.279-.088-.815-.395-.815-.16 0-.427.151-.595.336-.26.288-.27.359-.066.488.319.201.93.196 1.056-.01zm-.614 3.817c.734-.197.831-1.97.122-2.243-.148-.057-.736-.103-1.306-.103-.875 0-1.112.065-1.537.422-.612.515-.618.617-.073 1.268.526.63 1.788.925 2.794.656zM1.3 12.632c-.164-.197-.151-.324.064-.653.148-.225.333-.41.412-.41.08 0 .61-.433 1.178-.963l1.035-.963-.311-.917c-.172-.504-.41-.998-.53-1.098-.34-.283-.255-.76.188-1.051.352-.23.52-.239 1.266-.064.473.111.995.272 1.16.357.52.269 1.052-.006 2.19-1.13 1.578-1.558 2.156-2.007 2.588-2.007.5 0 .674.363.987 2.05.233 1.253.306 1.419.689 1.565.577.22 2.055-.204 2.629-.754.237-.226.483-.412.546-.412.19 0 1.081-1.044 1.086-1.27.003-.116.104-.248.226-.294.121-.047.465-.412.765-.812.337-.45.672-.726.881-.726.185 0 .668.294 1.072.653.449.399.957.687 1.306.74.774.12 1.393.457 1.36.74-.067.584-.372 1.787-.68 2.683-.693 2.022-.858 2.79-.747 3.487.086.536.047.755-.182 1.007-.93 1.027-1.708-.608-1.206-2.535.094-.359.23-.91.302-1.224.072-.314.25-.792.396-1.061.398-.736.351-1.527-.1-1.7a2.136 2.136 0 01-.679-.486c-.541-.6-.944-.439-1.988.8-.531.628-1.223 1.3-1.537 1.49-.738.447-2.705 1.12-3.276 1.12-.343 0-.502.125-.706.555-.145.306-.263.619-.263.696 0 .273-.87 1.774-1.193 2.055-.18.157-.59.292-.914.3-2.184.054-3.233-.275-3.69-1.159-.362-.699-.95-.655-1.698.125-1.359 1.42-2.173 1.812-2.627 1.266zm15.51 4.477c-2.06-1.915-3.282-3.126-3.523-3.494-.309-.47-.024-1.23.46-1.23.178 0 .944.624 1.754 1.43.791.785 1.7 1.63 2.019 1.878.319.247.778.709 1.02 1.026.376.494.413.633.255.979-.298.654-.813.501-1.986-.59z" stroke-width=".163"/></svg>