<?xml version="1.0" encoding="UTF-8" standalone="no"?>
<svg
   xmlns:dc="http://purl.org/dc/elements/1.1/"
   xmlns:cc="http://creativecommons.org/ns#"
   xmlns:rdf="http://www.w3.org/1999/02/22-rdf-syntax-ns#"
   xmlns:svg="http://www.w3.org/2000/svg"
   xmlns="http://www.w3.org/2000/svg"
   id="svg2094"
   viewBox="0 0 32.412311 19.546179"
   version="1.1"
   height="19.546179"
   width="32.412312">
  <defs
     id="defs2098" />
  <metadata
     id="metadata2">
    <rdf:RDF>
      <cc:Work
         rdf:about="">
        <dc:format>image/svg+xml</dc:format>
        <dc:type
           rdf:resource="http://purl.org/dc/dcmitype/StillImage" />
        <dc:title />
      </cc:Work>
    </rdf:RDF>
  </metadata>
  <g
     transform="translate(-193.38683,-103.70565)"
     id="g2092">
    <g
       style="stroke-width:0.16327"
       id="g2081">
      <path
         d="m 193.57,109.62 c -0.34174,-0.34174 -0.22243,-0.74355 0.50297,-1.6939 0.67307,-0.88172 0.76696,-1.2234 0.64095,-2.3323 -0.2037,-1.7926 -0.12792,-2.0203 0.61076,-1.8349 0.64816,0.16267 1.0877,1.0045 1.0877,2.0833 0,0.50043 -0.0653,0.95025 -0.14518,0.99959 -0.0798,0.0494 -0.19577,0.29247 -0.25761,0.54025 -0.0618,0.24779 -0.30876,0.69805 -0.54871,1.0006 -0.23993,0.30253 -0.55201,0.74335 -0.69348,0.9796 -0.30937,0.5166 -0.82707,0.62805 -1.1974,0.25776 z m 7.2488,2.1331 c 0.26475,-0.319 0.0941,-0.73677 -0.3009,-0.73677 -0.32352,0 -0.90044,0.7017 -0.72289,0.87924 0.18875,0.18876 0.82204,0.10063 1.0238,-0.14247 z m -0.11972,4.202 c 0.34783,-0.38867 0.52898,-1.7068 0.29471,-2.1446 -0.16111,-0.30103 -0.3312,-0.3452 -1.3293,-0.3452 -0.9975,0 -1.196,0.0515 -1.5453,0.40074 -0.57626,0.57626 -0.5357,1.3014 0.10634,1.9011 0.42598,0.39792 0.64385,0.47367 1.3624,0.47367 0.60841,0 0.92921,-0.0825 1.1111,-0.28572 z m 9.884,2.2857 c -0.36412,-0.42086 -0.61974,-1.6581 -0.61974,-2.9995 0,-1.2134 0.13603,-1.8301 0.67184,-3.0457 0.35309,-0.8011 0.40177,-1.7183 0.10367,-1.9531 -0.69406,-0.54668 -1.7155,-0.32078 -2.059,0.45536 -0.11629,0.26274 -0.44447,0.63695 -0.72927,0.83157 -0.2848,0.19461 -0.59128,0.43783 -0.68108,0.54047 -0.33011,0.37734 -1.7196,1.0408 -2.4008,1.1463 -1.0949,0.16964 -1.7519,0.41413 -1.9108,0.71113 -0.0803,0.14996 -0.19919,0.63999 -0.26431,1.089 -0.0997,0.68756 -0.23747,0.92844 -0.87326,1.5271 -0.98408,0.92666 -1.5701,1.2194 -2.4725,1.2354 -0.62973,0.0111 -0.89771,-0.10084 -1.8252,-0.76248 -0.5979,-0.42653 -1.2208,-0.77287 -1.3844,-0.76964 -0.36215,0.007 -1.0848,0.59625 -1.3422,1.0942 -0.2606,0.50403 -0.98129,0.67006 -1.2591,0.29008 -0.17666,-0.24161 -0.16881,-0.37509 0.0466,-0.7916 0.1425,-0.27555 0.36086,-0.60278 0.48527,-0.72719 0.80679,-0.80678 1.0727,-1.343 0.96776,-1.9513 -0.36892,-2.1376 -0.41453,-2.0697 1.3951,-2.0778 l 1.2436,-0.006 0.71556,-0.79857 c 0.39357,-0.43921 0.82312,-0.9535 0.95456,-1.1429 0.13145,-0.18936 0.40696,-0.52721 0.61225,-0.75078 0.20529,-0.22357 0.37326,-0.4539 0.37326,-0.51183 0,-0.0579 0.19041,-0.23011 0.42316,-0.38261 0.35102,-0.23001 0.50229,-0.24449 0.88737,-0.085 0.56387,0.23356 0.76297,0.75111 0.90902,2.3629 0.0736,0.81206 0.18534,1.2379 0.34051,1.2974 0.12704,0.0487 0.78155,0.007 1.4545,-0.0934 1.7663,-0.2627 2.1776,-0.59481 3.7102,-2.9958 0.28604,-0.44811 0.65928,-0.84126 0.82942,-0.87366 0.37097,-0.0707 2.3847,0.69219 3.2417,1.2281 0.75537,0.4723 0.78531,0.86305 0.18699,2.4409 -0.95882,2.5285 -1.1163,3.8603 -0.62369,5.275 0.33959,0.97531 0.20395,1.4791 -0.39825,1.4791 -0.25375,0 -0.57261,-0.12857 -0.70857,-0.28571 z m 6.2374,0.28571 c -0.42284,-0.42284 -0.41548,-0.49792 0.14836,-1.5127 0.62238,-1.1201 0.88436,-2.3868 0.80769,-3.9052 -0.0585,-1.1595 -0.0989,-1.2729 -0.68227,-1.9186 -0.80135,-0.88702 -0.77482,-1.3769 0.0784,-1.448 0.513,-0.0428 0.65406,0.0262 1.0015,0.4898 0.2224,0.29676 0.45456,0.70487 0.51593,0.90691 0.12594,0.41463 0.81349,0.51715 0.95718,0.14272 0.0474,-0.12354 0.4239,-0.45254 0.83667,-0.73111 0.62016,-0.41854 0.97224,-0.52499 2.0276,-0.613 1.4746,-0.12298 2.2441,0.0711 2.6851,0.67731 0.35752,0.49136 0.60121,1.8788 0.60249,3.4303 0.002,1.17 -0.45635,3.6474 -0.78751,4.2662 -0.28418,0.53101 -0.71553,0.61641 -1.0468,0.20726 -0.34343,-0.42411 -0.35241,-0.83222 -0.0376,-1.7062 0.16051,-0.44552 0.23607,-1.3553 0.23774,-2.8628 l 0.002,-2.2097 -0.47417,-0.2801 c -0.26078,-0.15405 -0.61503,-0.2801 -0.78723,-0.2801 -0.71909,0 -1.8179,0.53594 -2.4782,1.2087 -0.6168,0.62848 -0.73038,0.8688 -1.0157,2.1492 -0.48439,2.174 -1.5746,4.3155 -2.1968,4.3155 -0.0376,0 -0.21522,-0.14694 -0.39481,-0.32653 z m -10.531,2.5407 c -1.7228,-1.7654 -2.1224,-2.2632 -2.1224,-2.6435 0,-0.40465 0.0691,-0.47528 0.50681,-0.51793 0.41415,-0.0404 0.64663,0.0865 1.2716,0.69388 0.42062,0.40879 0.8672,0.74326 0.9924,0.74326 0.12519,0 0.27245,0.14122 0.32723,0.31383 0.0548,0.17261 0.37198,0.56239 0.70488,0.86618 0.3329,0.30379 0.77701,0.8636 0.98691,1.244 0.35862,0.64998 0.36579,0.71589 0.11869,1.093 -0.14462,0.22072 -0.35309,0.39703 -0.46328,0.39179 -0.11017,-0.005 -1.1554,-0.98827 -2.3228,-2.1845 z"
         id="assurance" />
    </g>
  </g>
</svg>
