<?xml version="1.0" encoding="UTF-8" standalone="no"?>
<svg
   xmlns:dc="http://purl.org/dc/elements/1.1/"
   xmlns:cc="http://creativecommons.org/ns#"
   xmlns:rdf="http://www.w3.org/1999/02/22-rdf-syntax-ns#"
   xmlns:svg="http://www.w3.org/2000/svg"
   xmlns="http://www.w3.org/2000/svg"
   id="svg2094"
   viewBox="0 0 32.32632 16.699642"
   version="1.1"
   height="16.699642"
   width="32.326321">
  <defs
     id="defs2098" />
  <metadata
     id="metadata2">
    <rdf:RDF>
      <cc:Work
         rdf:about="">
        <dc:format>image/svg+xml</dc:format>
        <dc:type
           rdf:resource="http://purl.org/dc/dcmitype/StillImage" />
        <dc:title />
      </cc:Work>
    </rdf:RDF>
  </metadata>
  <g
     transform="translate(-194.12,-153.98697)"
     id="g2092">
    <g
       style="stroke-width:0.16327"
       id="g2081">
      <path
         d="m 194.12,160.85 c 0,-0.30331 0.17333,-0.62207 0.51045,-0.93877 0.7305,-0.68625 1.2821,-1.945 1.2833,-2.9285 0.002,-0.77268 -0.1167,-1.0602 -0.85176,-2.0816 -0.26352,-0.36622 0.002,-0.83484 0.51631,-0.91102 0.49037,-0.0726 1.6013,1.1309 1.7435,1.8888 0.13832,0.73729 -0.0234,2.0439 -0.37331,3.0171 -0.39642,1.1024 -1.6573,2.4133 -2.3212,2.4133 -0.44723,0 -0.50722,-0.0543 -0.50722,-0.45925 z m 10.823,-0.20841 c 0.11482,-0.18321 0.0772,-0.48338 -0.1279,-1.0204 -0.15981,-0.41846 -0.33697,-0.76084 -0.39368,-0.76084 -0.21109,0 -1.6484,1.4893 -1.6484,1.708 0,0.28651 0.37563,0.39091 1.2894,0.35837 0.45729,-0.0163 0.77703,-0.1198 0.88062,-0.28513 z m -0.51948,4.0188 c 0.47675,-0.31278 0.61091,-0.5216 0.7023,-1.0932 0.0984,-0.61523 0.0644,-0.74611 -0.26279,-1.0126 -0.33193,-0.27033 -0.58253,-0.29634 -2.1484,-0.22305 -1.5348,0.0718 -1.8195,0.13023 -2.1224,0.43532 l -0.34986,0.35234 0.41837,0.75459 c 0.56393,1.0172 1.2807,1.4042 2.3571,1.2728 0.44898,-0.0548 1.0815,-0.27361 1.4056,-0.48627 z m 11.24,2.3224 c -0.44268,-0.46898 -0.73941,-1.0439 -0.88305,-1.711 -0.13003,-0.60383 0.17115,-2.26 0.4953,-2.7237 0.12006,-0.17175 0.34235,-0.70666 0.49395,-1.1887 0.33728,-1.0723 0.15467,-1.6827 -0.50338,-1.6827 -0.22641,0 -0.41165,-0.0611 -0.41165,-0.13568 0,-0.0746 -0.17492,-0.22929 -0.3887,-0.3437 -0.44908,-0.24034 -1.0807,-0.0969 -1.0807,0.24549 0,0.12864 -0.0551,0.23397 -0.12245,0.23406 -0.0674,9e-5 -0.49619,0.35869 -0.95299,0.79688 -0.4568,0.4382 -1.0078,0.8496 -1.2245,0.91423 -0.21667,0.0646 -0.7732,0.29924 -1.2367,0.52137 -0.46353,0.22212 -1.2486,0.45893 -1.7445,0.52623 -1.1279,0.15306 -1.3503,0.3373 -1.4841,1.2297 -0.13982,0.9324 -0.98164,2.2153 -1.4542,2.2161 -0.19359,0 -0.6034,0.15389 -0.9107,0.34124 -0.30729,0.18733 -0.93518,0.37946 -1.3953,0.42695 -0.72075,0.0744 -0.97112,0.0147 -1.8086,-0.43099 -0.53463,-0.28453 -1.1427,-0.73409 -1.3512,-0.999 -0.49799,-0.63259 -0.93242,-0.60808 -1.5906,0.0898 -0.2964,0.31429 -0.60452,0.57143 -0.68468,0.57143 -0.0802,0 -0.32119,0.18673 -0.53561,0.41496 -0.22439,0.23885 -0.53092,0.39474 -0.72233,0.36734 -0.46141,-0.0661 -0.51978,-0.69505 -0.098,-1.0562 0.1853,-0.15866 0.33693,-0.35955 0.33693,-0.44641 0,-0.0869 0.37745,-0.50676 0.83877,-0.93311 0.77641,-0.71752 0.83009,-0.81538 0.72206,-1.316 -0.45468,-2.1068 -0.36246,-2.2628 1.265,-2.1397 l 1.1752,0.0889 1.02,-0.86253 c 0.56096,-0.4744 1.0199,-0.92389 1.0199,-0.99888 0,-0.21983 2.1362,-2.2612 2.3663,-2.2612 0.46313,0 0.90841,0.63548 1.3016,1.8576 0.22757,0.70738 0.4149,1.4421 0.41627,1.6326 0.005,0.69424 0.24337,0.83501 1.3372,0.78976 1.5679,-0.0649 3.4206,-0.98582 4.1538,-2.0649 0.21463,-0.31586 0.53577,-0.65217 0.71365,-0.74736 0.17787,-0.0952 0.32341,-0.26932 0.32341,-0.38694 0,-0.31479 0.54601,-0.75425 0.93711,-0.75425 0.18699,0 0.52673,0.22192 0.75495,0.49316 0.22825,0.27125 0.88348,0.70338 1.4561,0.96029 1.3548,0.60784 1.6303,1.139 1.1829,2.2805 -0.68678,1.7525 -0.9137,2.5292 -1.0111,3.4609 -0.0889,0.85031 -0.0548,1.0514 0.24764,1.4604 0.41547,0.56198 0.44694,1.0211 0.0941,1.3739 -0.3527,0.35271 -0.64886,0.32167 -1.0571,-0.11079 z m -3.666,2.8163 c -0.531,-0.44898 -1.0431,-0.81633 -1.138,-0.81633 -0.0949,0 -0.50214,-0.32821 -0.90501,-0.72935 -0.40289,-0.40114 -0.81437,-0.73176 -0.9144,-0.7347 -0.1992,-0.006 -1.0426,-1.1476 -1.0426,-1.4115 0,-0.0903 0.0959,-0.2953 0.21318,-0.45566 0.19406,-0.26537 0.26367,-0.27045 0.77551,-0.0565 0.30929,0.12925 0.92952,0.57703 1.3783,0.99503 0.44878,0.41801 0.86597,0.76002 0.9271,0.76002 0.0611,0 0.20823,0.0934 0.32689,0.20759 0.11866,0.11417 0.70279,0.55238 1.2981,0.97378 1.1822,0.83688 1.2924,0.99216 1.1675,1.6453 -0.07,0.36635 -0.16931,0.43863 -0.6025,0.43863 -0.3848,0 -0.76778,-0.21067 -1.4841,-0.81633 z m 4.2179,0.85216 c -0.65649,-0.10199 -0.65319,-0.95541 0.004,-1.0895 0.19213,-0.0392 2.3931,-0.19499 4.8911,-0.34624 5.0558,-0.30612 5.3358,-0.27598 5.3358,0.57434 0,0.29866 -0.11069,0.54534 -0.28571,0.6367 -0.2696,0.14075 -9.1887,0.34225 -9.9454,0.2247 z"
         id="assured" />
    </g>
  </g>
</svg>
