<svg xmlns="http://www.w3.org/2000/svg" height="16.7" width="32.326"><path d="M0 6.863c0-.303.173-.622.51-.939.731-.686 1.283-1.945 1.284-2.928.002-.773-.117-1.06-.852-2.082C.678.548.944.08 1.458.004c.49-.073 1.602 1.13 1.744 1.888.138.737-.024 2.044-.374 3.017-.396 1.102-1.657 2.413-2.32 2.413C.06 7.322 0 7.268 0 6.863zm10.823-.208c.115-.184.077-.484-.128-1.02-.16-.42-.337-.762-.394-.762-.21 0-1.648 1.49-1.648 1.708 0 .287.376.391 1.29.359.457-.017.776-.12.88-.285zm-.52 4.018c.477-.312.611-.521.703-1.093.098-.615.064-.746-.263-1.012-.332-.27-.583-.297-2.148-.223-1.535.071-1.82.13-2.123.435l-.35.352.419.755c.564 1.017 1.28 1.404 2.357 1.273.449-.055 1.081-.274 1.405-.487zm11.24 2.323a3.532 3.532 0 01-.883-1.711c-.13-.604.172-2.26.496-2.724.12-.172.342-.707.494-1.189.337-1.072.154-1.682-.504-1.682-.226 0-.411-.061-.411-.136 0-.075-.175-.23-.389-.344-.45-.24-1.08-.097-1.08.246 0 .128-.056.234-.123.234-.068 0-.496.359-.953.797-.457.438-1.008.85-1.225.914-.216.065-.773.3-1.236.521a7.053 7.053 0 01-1.745.527c-1.128.153-1.35.337-1.484 1.23-.14.932-.982 2.215-1.454 2.215-.194 0-.604.154-.91.342-.308.187-.936.38-1.396.427-.72.074-.971.014-1.809-.431-.534-.285-1.142-.734-1.35-1-.499-.632-.933-.607-1.592.09-.296.315-.604.572-.684.572-.08 0-.321.187-.536.415-.224.239-.53.395-.722.367-.462-.066-.52-.695-.098-1.056.185-.159.337-.36.337-.446 0-.087.377-.507.839-.934.776-.717.83-.815.722-1.316-.455-2.106-.363-2.262 1.265-2.14l1.175.09 1.02-.863c.56-.474 1.02-.924 1.02-.999 0-.22 2.136-2.261 2.366-2.261.463 0 .908.635 1.302 1.858.227.707.414 1.442.416 1.632.005.694.243.835 1.337.79 1.568-.065 3.42-.986 4.154-2.065.214-.316.536-.652.714-.747.177-.096.323-.27.323-.387 0-.315.546-.754.937-.754.187 0 .527.221.755.493.228.27.883.703 1.456.96 1.355.608 1.63 1.139 1.183 2.28-.687 1.753-.914 2.53-1.011 3.461-.089.85-.055 1.052.248 1.46.415.563.446 1.022.094 1.375-.353.352-.65.321-1.057-.111zm-3.665 2.816c-.531-.449-1.044-.816-1.138-.816-.095 0-.503-.328-.905-.73-.403-.4-.815-.731-.915-.734-.2-.006-1.042-1.148-1.042-1.412 0-.09.095-.295.213-.455.194-.266.263-.27.775-.057.31.13.93.577 1.378.995.45.418.866.76.928.76.06 0 .208.094.326.208.12.114.703.552 1.299.973 1.182.837 1.292.993 1.167 1.646-.07.366-.17.438-.602.438-.385 0-.768-.21-1.485-.816zm4.217.852c-.656-.102-.653-.955.004-1.09.193-.038 2.394-.194 4.892-.345 5.055-.307 5.335-.276 5.335.574 0 .299-.11.545-.285.637-.27.14-9.19.342-9.946.224z"/></svg>