<svg xmlns="http://www.w3.org/2000/svg" height="15.598" width="50.353"><path d="M.188 7.093c-.342-.342-.213-.927.344-1.56C1.728 4.177 1.788 4.05 1.788 2.89c0-1.022-.03-1.113-.49-1.452C.704.997.673.529 1.214.174c.38-.248.438-.243.984.095 1.41.87 1.64 3.033.513 4.834C1.968 6.289 1.032 7.288.664 7.288a.775.775 0 01-.476-.195zm11.69-.49c.383-.383.169-1.766-.272-1.76-.28.004-1.817 1.38-1.817 1.626 0 .326 1.783.44 2.09.134zm-.44 3.25c.474-.32.555-.467.555-1.02v-.647L10.18 8.14c-1.594-.04-1.86-.008-2.204.272l-.392.318.409.444c1.027 1.117 2.395 1.387 3.445.68zm17.779 3.534c-1.728-.292-2.36-.466-2.795-.772-.209-.146-.492-.266-.63-.267-.372-.003-2.108-1.762-2.38-2.411-.319-.764-.291-1.562.095-2.715.367-1.098.418-2.103.118-2.343-.272-.217-1.932-.41-2.438-.283-.22.055-.526.311-.678.568-.152.257-.55.636-.886.842-.336.206-.757.511-.937.68-.779.727-2.581 1.396-3.806 1.412-.654.008-1.173.262-1.173.573 0 .125-.234.67-.52 1.21-.382.726-.65 1.032-1.02 1.165-.276.1-.71.286-.963.416-1.048.532-2.587.17-3.701-.87-.842-.786-1.212-.83-1.93-.223-.33.28-1.035.77-1.565 1.09-.745.45-.995.535-1.1.37-.294-.465-.094-.841 1.022-1.913l1.16-1.117-.116-1.308c-.08-.912-.06-1.342.07-1.422.102-.063.678-.028 1.28.077.637.112 1.242.134 1.444.055.192-.076 1.063-.815 1.937-1.643 1.634-1.55 2.489-2.05 2.974-1.745.169.107.379.729.577 1.71.228 1.13.416 1.648.704 1.942.377.385.432.394 1.416.225 1.873-.322 2.623-.8 4.372-2.786 1.055-1.198 1.236-1.235 3.49-.721 1.781.406 2.386.878 2.386 1.861 0 .348-.07.764-.156.924-.086.16-.31.865-.497 1.565-.314 1.174-.321 1.314-.09 1.803.23.485.721.978 1.745 1.754.211.16.678.37 1.038.466.36.096 1.143.314 1.74.484.85.242 1.624.31 3.545.31 2.17 0 2.608-.048 3.73-.406.7-.224 1.361-.407 1.471-.409.11-.002.6-.185 1.092-.41.49-.224 1.035-.408 1.21-.408.176 0 .823-.23 1.44-.51l1.967-.899c.466-.213.919-.387 1.007-.387.088 0 .184-.06.214-.132.068-.164 1.307-1.01 2.177-1.487.36-.196.947-.536 1.306-.754.722-.439 1.63-.53 1.766-.176.132.344-.32.877-.996 1.17a10.53 10.53 0 00-.852.409c-.134.08-.473.26-.753.402-.28.142-.653.393-.83.557-.177.165-.547.35-.822.41-.275.06-.783.324-1.13.585-.345.262-.71.478-.812.481-.101.002-.276.115-.387.25-.112.134-.38.244-.597.244-.217 0-.756.184-1.2.408-.442.225-.908.409-1.035.409-.127 0-.318.105-.425.234-.107.128-.501.31-.877.403-.826.205-2.711.745-3.05.873-1.21.46-5.126.556-7.347.18zm-10.122 2.008c-.314-.113-1.045-.514-1.624-.89-.58-.378-1.15-.686-1.269-.686-.317 0-1.516-.79-1.623-1.07-.171-.446.285-.767.962-.676.606.081.845.186 2.737 1.207.494.267 1.085.531 1.314.588.229.057.706.362 1.061.679.624.555.635.583.329.821-.38.296-1.11.307-1.887.027z"/></svg>