<svg xmlns="http://www.w3.org/2000/svg" height="18.882" width="37.277"><path d="M.195 7.262c-.28-.205-.274-.255.124-1.04.23-.455.532-.87.671-.924.139-.053.252-.17.252-.26 0-.089.22-.51.49-.934.279-.44.49-.996.49-1.29 0-.328-.178-.741-.49-1.133C1.158.96 1.121.617 1.571.211c.29-.263.377-.272.748-.073.752.403 1.115 1.107 1.182 2.292.05.893-.008 1.224-.33 1.882-.653 1.332-1.439 2.49-1.926 2.836-.543.387-.66.4-1.05.114zM11.66 9.995c.797-.683 1.257-1.93 1.09-2.959-.254-1.572-.445-2.172-.692-2.172-.284 0-1.43.912-3.142 2.496-1.256 1.163-1.49 1.785-.777 2.065.202.079.661.369 1.02.644.92.704 1.615.684 2.5-.074zm-9.167 2.76c-.322-.321-.038-.86.89-1.69.549-.492 1.082-.989 1.183-1.103.244-.275 1.95-1.934 5.94-5.776 2.23-2.148 2.548-2.287 3.03-1.33.325.646.647 3.695.579 5.48l-.058 1.508.653-.012c.36-.007 1.425-.098 2.368-.202.943-.105 2.963-.228 4.49-.273 1.526-.046 3.07-.155 3.428-.243.36-.087 1.792-.24 3.184-.338 2.393-.169 3.074-.244 5.918-.654 1.383-.199 2.79-.075 3.078.272.165.198.136.309-.157.601-.295.296-.623.38-1.864.473-2.282.173-4.124.392-4.32.513-.097.06-1.01.18-2.028.266-1.018.087-2.66.235-3.647.33-.988.094-3.413.241-5.388.326-3.782.163-6.058.44-7.245.88-1.476.547-4.106.175-4.918-.697-.365-.391-1.098-.834-1.38-.834-.305 0-.745.335-1.762 1.343-.429.425-.996.884-1.26 1.02-.548.284-.566.288-.714.14zm16.509 5.682c-.295-.257-.959-.667-1.475-.91-.517-.243-.94-.505-.94-.582 0-.077-.15-.189-.336-.247-1.153-.366-2.123-1.57-1.781-2.21.236-.441.727-.397 1.435.13.33.247.638.489.683.539.226.25 1.139.81 1.331.816.3.009 1.908 1.277 2.315 1.826.32.432.321.454.031.775-.4.442-.627.418-1.263-.137z"/></svg>