<?xml version="1.0" encoding="UTF-8" standalone="no"?>
<svg
   xmlns:dc="http://purl.org/dc/elements/1.1/"
   xmlns:cc="http://creativecommons.org/ns#"
   xmlns:rdf="http://www.w3.org/1999/02/22-rdf-syntax-ns#"
   xmlns:svg="http://www.w3.org/2000/svg"
   xmlns="http://www.w3.org/2000/svg"
   id="svg2094"
   viewBox="0 0 22.088928 18.08707"
   version="1.1"
   height="18.08707"
   width="22.088928">
  <defs
     id="defs2098" />
  <metadata
     id="metadata2">
    <rdf:RDF>
      <cc:Work
         rdf:about="">
        <dc:format>image/svg+xml</dc:format>
        <dc:type
           rdf:resource="http://purl.org/dc/dcmitype/StillImage" />
        <dc:title />
      </cc:Work>
    </rdf:RDF>
  </metadata>
  <g
     transform="translate(-193.80361,-130.30337)"
     id="g2092">
    <g
       style="stroke-width:0.16327"
       id="g2081">
      <path
         d="m 194,137.52 c -0.33569,-0.13546 -0.23265,-0.62736 0.2449,-1.1692 1.0693,-1.2132 1.4408,-1.7561 1.6302,-2.3824 0.34618,-1.145 0.27016,-1.5154 -0.4573,-2.2284 -0.90911,-0.8911 -0.85179,-1.3593 0.17407,-1.4222 0.73456,-0.045 0.73481,-0.0448 1.3669,0.94184 0.57389,0.89583 0.62532,1.0656 0.5577,1.8409 -0.11457,1.3132 -0.70138,2.4199 -1.9745,3.7239 -0.73592,0.75381 -1.0483,0.89469 -1.542,0.69549 z m 9.8376,-0.21984 c 0.17203,-0.27836 -0.0879,-0.81486 -0.39476,-0.81486 -0.15963,0 -0.42727,0.15142 -0.59474,0.33649 -0.26063,0.28799 -0.27016,0.35824 -0.0661,0.4873 0.31829,0.20133 0.92888,0.19616 1.0556,-0.009 z m -0.6144,3.8172 c 0.73428,-0.19679 0.83146,-1.9706 0.12285,-2.2425 -0.14891,-0.0571 -0.73665,-0.1039 -1.3061,-0.1039 -0.87564,0 -1.1128,0.0652 -1.5377,0.42268 -0.61162,0.51465 -0.6175,0.61701 -0.0728,1.268 0.52613,0.62882 1.7885,0.9251 2.7937,0.65568 z m -8.1205,1.8177 c -0.16325,-0.19669 -0.15055,-0.32348 0.0654,-0.65306 0.14737,-0.22494 0.3326,-0.40898 0.41159,-0.40898 0.079,0 0.60925,-0.43359 1.1784,-0.96354 l 1.0347,-0.96353 -0.31164,-0.91683 c -0.1714,-0.50425 -0.40947,-0.99802 -0.52906,-1.0973 -0.34105,-0.28304 -0.25563,-0.76096 0.18795,-1.0516 0.35146,-0.23028 0.51977,-0.23877 1.2653,-0.0638 0.47296,0.11099 0.99534,0.2718 1.1608,0.35737 0.51903,0.26832 1.0511,-0.006 2.1889,-1.1301 1.5783,-1.5588 2.1567,-2.0074 2.5881,-2.0074 0.49975,0 0.67477,0.36342 0.98783,2.051 0.23228,1.2523 0.30526,1.418 0.68836,1.5637 0.57765,0.21962 2.0556,-0.20376 2.629,-0.75315 0.23688,-0.22693 0.48281,-0.41261 0.5465,-0.41261 0.18893,0 1.0808,-1.0434 1.086,-1.2704 0.003,-0.11507 0.10408,-0.24732 0.22546,-0.29389 0.12138,-0.0466 0.46564,-0.41162 0.76503,-0.8112 0.33697,-0.44973 0.67275,-0.72644 0.88137,-0.7263 0.18534,1.3e-4 0.66761,0.29397 1.0717,0.653 0.44894,0.39887 0.95695,0.68695 1.3061,0.74066 0.77412,0.11906 1.3936,0.45579 1.3608,0.73975 -0.0673,0.58353 -0.37222,1.7866 -0.67989,2.6827 -0.69412,2.0216 -0.85881,2.7898 -0.74741,3.4864 0.0858,0.53637 0.0462,0.75521 -0.18217,1.0076 -0.92972,1.0273 -1.708,-0.6086 -1.206,-2.5348 0.0936,-0.35919 0.22921,-0.91021 0.30129,-1.2245 0.0721,-0.31429 0.25042,-0.79184 0.3963,-1.0612 0.39822,-0.73532 0.3516,-1.5268 -0.10009,-1.6996 -0.20204,-0.0773 -0.50729,-0.29586 -0.67836,-0.48575 -0.54141,-0.60103 -0.94394,-0.43936 -1.9888,0.79878 -0.531,0.62922 -1.2226,1.3 -1.5369,1.4907 -0.73734,0.44732 -2.7049,1.1203 -3.2753,1.1203 -0.34289,0 -0.50195,0.12511 -0.7061,0.55529 -0.14492,0.30541 -0.2635,0.61824 -0.2635,0.69518 0,0.27365 -0.87056,1.7747 -1.1923,2.0556 -0.1799,0.15715 -0.59136,0.29225 -0.91435,0.30023 -2.1841,0.0539 -3.2333,-0.27555 -3.6901,-1.159 -0.36156,-0.6992 -0.95002,-0.65585 -1.6977,0.12504 -1.3592,1.4196 -2.1736,1.8118 -2.6273,1.2651 z m 15.51,4.4772 c -2.0598,-1.9145 -3.2811,-3.126 -3.5224,-3.4942 -0.30832,-0.47055 -0.0238,-1.2288 0.46116,-1.2288 0.17749,0 0.94278,0.62349 1.7534,1.4286 0.79118,0.78571 1.6995,1.631 2.0185,1.8784 0.31902,0.2474 0.77779,0.70911 1.0195,1.026 0.37696,0.49422 0.41339,0.63345 0.25606,0.97875 -0.29804,0.65413 -0.81342,0.50138 -1.9863,-0.58875 z"
         id="assure" />
    </g>
  </g>
</svg>
