<?xml version="1.0" encoding="UTF-8" standalone="no"?>
<svg
   xmlns:dc="http://purl.org/dc/elements/1.1/"
   xmlns:cc="http://creativecommons.org/ns#"
   xmlns:rdf="http://www.w3.org/1999/02/22-rdf-syntax-ns#"
   xmlns:svg="http://www.w3.org/2000/svg"
   xmlns="http://www.w3.org/2000/svg"
   id="svg2094"
   viewBox="0 0 50.353037 15.597855"
   version="1.1"
   height="15.597855"
   width="50.353039">
  <defs
     id="defs2098" />
  <metadata
     id="metadata2">
    <rdf:RDF>
      <cc:Work
         rdf:about="">
        <dc:format>image/svg+xml</dc:format>
        <dc:type
           rdf:resource="http://purl.org/dc/dcmitype/StillImage" />
        <dc:title />
      </cc:Work>
    </rdf:RDF>
  </metadata>
  <g
     transform="translate(-192.99165,-178.34741)"
     id="g2092">
    <g
       style="stroke-width:0.16327"
       id="g2081">
      <path
         d="m 193.18,185.44 c -0.34197,-0.34198 -0.21299,-0.92662 0.34384,-1.5587 1.1958,-1.3575 1.2562,-1.4845 1.2562,-2.6448 0,-1.022 -0.0306,-1.1128 -0.48979,-1.4523 -0.59525,-0.44009 -0.62709,-0.90792 -0.0859,-1.2625 0.37969,-0.24879 0.43866,-0.24314 0.98467,0.0943 1.4096,0.87116 1.6388,3.0335 0.51238,4.8343 -0.74186,1.186 -1.6773,2.1856 -2.0453,2.1856 -0.15406,0 -0.36828,-0.0882 -0.47604,-0.19591 z m 11.69,-0.48984 c 0.3824,-0.3824 0.16847,-1.7657 -0.2721,-1.7595 -0.27957,0.004 -1.8177,1.3798 -1.8177,1.6259 0,0.32581 1.7836,0.43984 2.0898,0.1336 z m -0.44047,3.2506 c 0.47451,-0.31978 0.55476,-0.46738 0.55476,-1.0204 v -0.64657 l -1.8123,-0.0459 c -1.5941,-0.0404 -1.8595,-0.008 -2.2041,0.27185 l -0.39176,0.31778 0.40817,0.44376 c 1.0277,1.1174 2.3953,1.3871 3.4452,0.67953 z m 17.779,3.5337 c -1.7276,-0.29209 -2.3596,-0.46653 -2.7951,-0.77158 -0.20875,-0.14622 -0.49179,-0.26678 -0.62894,-0.2679 -0.37277,-0.003 -2.1091,-1.7616 -2.3804,-2.4109 -0.31923,-0.76403 -0.29157,-1.5614 0.0942,-2.7145 0.36739,-1.0983 0.41818,-2.1031 0.11843,-2.3427 -0.27197,-0.21736 -1.9321,-0.41042 -2.4378,-0.2835 -0.22115,0.0555 -0.52634,0.31125 -0.67819,0.56831 -0.15185,0.25708 -0.55065,0.63577 -0.88621,0.84154 -0.33554,0.20578 -0.75702,0.51144 -0.93662,0.67926 -0.7792,0.72813 -2.5816,1.397 -3.8066,1.4126 -0.65344,0.008 -1.173,0.26212 -1.173,0.57296 0,0.12541 -0.23368,0.67043 -0.5193,1.2112 -0.38277,0.72467 -0.65105,1.0307 -1.0204,1.164 -0.27561,0.0995 -0.70911,0.28655 -0.96332,0.41576 -1.0481,0.53268 -2.5862,0.17103 -3.7011,-0.87021 -0.84124,-0.7857 -1.2117,-0.82846 -1.9286,-0.22259 -0.33111,0.2798 -1.0358,0.7708 -1.566,1.0911 -0.74476,0.44996 -0.99482,0.53381 -1.0995,0.36869 -0.29489,-0.46498 -0.0941,-0.84108 1.0211,-1.913 l 1.1617,-1.1165 -0.11576,-1.3077 c -0.0807,-0.91203 -0.0598,-1.3423 0.0693,-1.4221 0.10179,-0.0629 0.67807,-0.0282 1.2806,0.0771 0.63661,0.11128 1.2414,0.1341 1.4438,0.0545 0.19153,-0.0754 1.0631,-0.81484 1.9368,-1.6433 1.634,-1.5493 2.4886,-2.0505 2.9743,-1.7441 0.16876,0.10645 0.37858,0.72821 0.57671,1.7089 0.22827,1.13 0.41614,1.6486 0.7037,1.9426 0.37698,0.38544 0.43223,0.39422 1.4161,0.225 1.8734,-0.32225 2.6232,-0.80003 4.3726,-2.7864 1.0545,-1.1973 1.2358,-1.2348 3.4893,-0.72064 1.7813,0.40643 2.3864,0.87827 2.3864,1.861 0,0.3483 -0.0702,0.76433 -0.15589,0.92454 -0.0857,0.16021 -0.3094,0.86413 -0.49702,1.5643 -0.31457,1.1738 -0.32156,1.3143 -0.0896,1.803 0.23004,0.48478 0.72087,0.97833 1.7443,1.754 0.21125,0.1601 0.6784,0.36993 1.0381,0.46629 0.35972,0.0963 1.143,0.31433 1.7406,0.4844 0.84914,0.24165 1.6237,0.30923 3.5448,0.30923 2.1691,0 2.6078,-0.0478 3.7298,-0.40607 0.69935,-0.22335 1.3612,-0.40702 1.4708,-0.40817 0.10958,-0.002 0.60078,-0.18576 1.0916,-0.41025 0.49077,-0.22449 1.0357,-0.40816 1.211,-0.40816 0.17527,0 0.82284,-0.22987 1.439,-0.5108 0.61621,-0.28093 1.5015,-0.68501 1.9674,-0.89796 0.46586,-0.21294 0.91892,-0.38716 1.0068,-0.38716 0.0879,0 0.18427,-0.0594 0.21421,-0.13195 0.0678,-0.16449 1.3069,-1.0108 2.1769,-1.4869 0.35919,-0.19656 0.94694,-0.53602 1.3061,-0.75435 0.72161,-0.43866 1.6306,-0.52934 1.7661,-0.1762 0.13225,0.34464 -0.32096,0.87692 -0.99645,1.1703 -0.33354,0.14486 -0.71662,0.3287 -0.85132,0.40855 -0.13469,0.0798 -0.47374,0.26106 -0.75347,0.40271 -0.2797,0.14165 -0.65319,0.39231 -0.82997,0.55702 -0.1768,0.1647 -0.54661,0.34891 -0.82181,0.40935 -0.27522,0.0604 -0.78335,0.32407 -1.1292,0.58581 -0.34584,0.26177 -0.71165,0.47798 -0.81291,0.48048 -0.10124,0.002 -0.27554,0.11474 -0.38733,0.24943 -0.11179,0.1347 -0.38036,0.2449 -0.59685,0.2449 -0.21647,0 -0.75606,0.18367 -1.1991,0.40816 -0.443,0.22449 -0.90913,0.40817 -1.0358,0.40817 -0.1267,0 -0.31773,0.1053 -0.42456,0.23401 -0.10681,0.12871 -0.50152,0.31025 -0.87712,0.40342 -0.82649,0.20502 -2.7113,0.74464 -3.0503,0.87328 -1.2108,0.45951 -5.1257,0.55531 -7.3469,0.17979 z m -10.122,2.0081 c -0.31429,-0.11298 -1.0452,-0.51384 -1.6243,-0.89079 -0.57908,-0.37697 -1.1499,-0.68537 -1.2686,-0.68537 -0.31649,0 -1.5158,-0.79086 -1.623,-1.0703 -0.17113,-0.44596 0.28549,-0.7667 0.96229,-0.67592 0.60547,0.0812 0.84444,0.18664 2.7372,1.2075 0.49388,0.26638 1.085,0.53092 1.3137,0.58788 0.22864,0.057 0.70619,0.36229 1.0612,0.67852 0.62398,0.55577 0.63494,0.58316 0.32858,0.82155 -0.38063,0.29621 -1.1091,0.30658 -1.8872,0.0269 z"
         id="assuring" />
    </g>
  </g>
</svg>
