<?xml version="1.0" encoding="UTF-8" standalone="no"?>
<svg
   xmlns:dc="http://purl.org/dc/elements/1.1/"
   xmlns:cc="http://creativecommons.org/ns#"
   xmlns:rdf="http://www.w3.org/1999/02/22-rdf-syntax-ns#"
   xmlns:svg="http://www.w3.org/2000/svg"
   xmlns="http://www.w3.org/2000/svg"
   id="svg2094"
   viewBox="0 0 3.3809627 15.309745"
   version="1.1"
   height="15.309745"
   width="3.3809628">
  <defs
     id="defs2098" />
  <metadata
     id="metadata2">
    <rdf:RDF>
      <cc:Work
         rdf:about="">
        <dc:format>image/svg+xml</dc:format>
        <dc:type
           rdf:resource="http://purl.org/dc/dcmitype/StillImage" />
        <dc:title />
      </cc:Work>
    </rdf:RDF>
  </metadata>
  <g
     transform="translate(-195.31544,-200.18733)"
     id="g2092">
    <g
       style="stroke-width:0.16327"
       id="g2081">
      <path
         d="m 196.32,214.64 c -0.99413,-1.0264 -1.1603,-1.6748 -0.88665,-3.4595 0.2489,-1.6232 0.44217,-3.9916 0.57923,-7.0978 0.13027,-2.9521 0.31777,-3.808 0.85156,-3.8875 0.56531,-0.0841 0.74369,0.49912 0.63594,2.0793 -0.0525,0.77002 -0.17292,2.5751 -0.26756,4.0114 -0.0947,1.4362 -0.28154,3.1413 -0.41533,3.789 -0.31569,1.5283 -0.30258,2.1063 0.0662,2.9182 0.28493,0.62735 0.49066,0.77687 1.5273,1.11 0.18974,0.061 0.28571,0.25939 0.28571,0.59077 0,0.38537 -0.0953,0.5352 -0.41879,0.65819 -0.77575,0.29494 -1.0946,0.17895 -1.9576,-0.712 z"
         id="at_abv" />
    </g>
  </g>
</svg>
