<svg xmlns="http://www.w3.org/2000/svg" height="16.179" width="7.614"><path d="M.196 6.903C-.16 6.76-.027 6.295.56 5.622c.312-.358.57-.743.571-.855.002-.113.065-.205.14-.205.226 0 .516-.791.516-1.406 0-.654-.16-1.01-.737-1.633C.562.998.545.785.958.411c.293-.266.351-.267.877-.017.32.152.671.493.812.79.686 1.44.673 1.37.454 2.356C2.62 5.7 1.223 7.318.196 6.903zm5.54 8.688c-.467-.422-.672-.773-.817-1.4-.236-1.023-.247-1.739-.03-1.873.09-.056.164-.299.164-.54 0-.242.108-.957.24-1.589.296-1.422.374-2.128.575-5.218.172-2.635.436-4.449.695-4.776.263-.33.588-.235.835.245.181.353.202.765.096 1.918a52.72 52.72 0 00-.17 2.94c-.02.808-.245 2.524-.5 3.815-.676 3.412-.613 5.4.179 5.65.428.137.71.658.578 1.071-.173.548-1.105.425-1.845-.243z"/></svg>