<?xml version="1.0" encoding="UTF-8" standalone="no"?>
<svg
   xmlns:dc="http://purl.org/dc/elements/1.1/"
   xmlns:cc="http://creativecommons.org/ns#"
   xmlns:rdf="http://www.w3.org/1999/02/22-rdf-syntax-ns#"
   xmlns:svg="http://www.w3.org/2000/svg"
   xmlns="http://www.w3.org/2000/svg"
   id="svg2094"
   viewBox="0 0 7.6138938 16.17882"
   version="1.1"
   height="16.17882"
   width="7.613894">
  <defs
     id="defs2098" />
  <metadata
     id="metadata2">
    <rdf:RDF>
      <cc:Work
         rdf:about="">
        <dc:format>image/svg+xml</dc:format>
        <dc:type
           rdf:resource="http://purl.org/dc/dcmitype/StillImage" />
        <dc:title />
      </cc:Work>
    </rdf:RDF>
  </metadata>
  <g
     transform="translate(-193.6444,-223.19672)"
     id="g2092">
    <g
       style="stroke-width:0.16327"
       id="g2081">
      <path
         d="m 193.84,230.1 c -0.35504,-0.14326 -0.22273,-0.60875 0.36421,-1.2814 0.31257,-0.35821 0.56972,-0.74312 0.57143,-0.85536 0.002,-0.11225 0.0648,-0.20409 0.1402,-0.20409 0.22553,0 0.516,-0.79156 0.516,-1.4062 0,-0.6545 -0.16079,-1.0104 -0.73764,-1.6328 -0.48736,-0.52588 -0.50485,-0.7386 -0.0915,-1.1127 0.29311,-0.26527 0.35074,-0.26636 0.87688,-0.0167 0.31943,0.15158 0.67081,0.49314 0.81192,0.78924 0.68633,1.4401 0.67281,1.3698 0.45356,2.3566 -0.47988,2.1599 -1.8775,3.778 -2.9051,3.3634 z m 5.5406,8.6876 c -0.46716,-0.42206 -0.67209,-0.77337 -0.81678,-1.4002 -0.23611,-1.0229 -0.24753,-1.7386 -0.0299,-1.8731 0.0898,-0.0555 0.16333,-0.29862 0.16339,-0.54025 8e-5,-0.24165 0.10799,-0.95631 0.23981,-1.5882 0.2966,-1.4217 0.37451,-2.128 0.57552,-5.2185 0.17137,-2.6345 0.4354,-4.4482 0.6952,-4.7755 0.2626,-0.33086 0.5872,-0.23558 0.83435,0.24489 0.18134,0.35254 0.20195,0.76459 0.0959,1.9184 -0.0743,0.80817 -0.15092,2.1306 -0.17033,2.9388 -0.0194,0.80841 -0.24428,2.525 -0.49987,3.816 -0.67545,3.4118 -0.61238,5.3992 0.17931,5.6505 0.42825,0.13592 0.70988,0.65683 0.57865,1.0703 -0.17391,0.54792 -1.1055,0.42521 -1.8452,-0.24307 z"
         id="ate" />
    </g>
  </g>
</svg>
