<svg xmlns="http://www.w3.org/2000/svg" height="29.544" width="58.997"><path d="M24.473 12.123c-.344-.139-.2-1.198.162-1.198.171 0 .94-.757.94-.925 0-.051.22-.344.49-.65.553-.631.616-1.219.24-2.262-.32-.886-.315-.898.306-.898.976 0 1.591 1.242 1.262 2.55-.214.85-1.005 2.012-1.574 2.312-.218.115-.397.267-.397.337s-.15.288-.333.485c-.32.344-.666.422-1.096.249zm-24.45.42c-.077-.243.035-.52.392-.963.507-.632 1.164-2.13 1.164-2.66 0-.16-.184-.727-.408-1.26-.495-1.174-.498-1.247-.072-1.475.421-.226 1.297-.047 1.297.265 0 .129.155.564.345.968.29.618.327.903.233 1.784-.063.585-.216 1.135-.345 1.243-.129.107-.233.37-.233.586 0 .59-1.231 1.854-1.806 1.854-.322 0-.49-.102-.567-.341zm19.29-2.638c.15-.292.323-.567.384-.612.224-.162 1.311-2.364 1.311-2.654 0-.164.138-.57.306-.903.382-.757.837-2.563.837-3.32 0-.314-.103-.711-.228-.883-.585-.8-1.748.84-2.262 3.189-.315 1.438-.775 4.033-.89 5.02-.098.841.155.917.542.163zm35.41 12.21c-.359-.22-.757-.404-.885-.407-.336-.007-1.972-1.79-1.972-2.15 0-.58-.58-.306-1.753.83-.838.812-1.365 1.187-1.853 1.318-.375.101-.813.266-.973.366-.23.143-.496.095-1.243-.224-1.036-.442-1.485-1.015-1.91-2.431-.293-.978-.614-1.003-1.188-.095-.257.406-.615.785-.794.843-.18.057-.547.308-.816.558-.778.72-1.463.983-2.837 1.089-1.125.087-1.373.053-2.024-.272-.882-.44-.993-.783-.677-2.1.343-1.438.299-2.899-.106-3.467-.303-.425-.431-.474-1.236-.474-.74 0-1.033.091-1.662.518-1.16.786-2.182 1.924-2.697 3.002-.483 1.01-.558 1.144-1.09 1.95-.177.27-.345.556-.373.638-.027.081-.248.098-.49.038-.383-.097-.44-.193-.44-.74 0-.351.104-.718.235-.827.354-.293.712-1.567.833-2.966.135-1.546-.031-1.94-.82-1.94-.306 0-.601.074-.657.164-.055.09-.225.165-.377.167-.285.004-2.66 1.984-2.807 2.339-.045.11-.43.518-.857.908-.426.39-.775.801-.775.914 0 .262-1.13 1.286-1.805 1.635-1.957 1.012-4.537-.154-5.343-2.413-.152-.427-.34-.776-.418-.776-.078 0-.667.513-1.31 1.14-.642.626-1.622 1.434-2.18 1.795-.96.623-1.078.657-2.27.657-1.36 0-1.801-.212-2.864-1.379-.761-.834-.846-1.344-.737-4.407.31-8.72.508-10.38 1.235-10.38.618 0 .712.377.604 2.405a494.633 494.633 0 00-.236 5.35c-.074 1.886-.189 3.553-.256 3.704-.225.51.21 1.972.79 2.66.526.625.586.65 1.521.65.791 0 1.102-.084 1.657-.452.802-.53 1.435-1.046 1.845-1.5a33.049 33.049 0 011.58-1.599c.992-.903 1.965-2.767 1.978-3.787.002-.177.185-.802.405-1.388.4-1.065.631-2.098 1.228-5.486.352-2 .416-2.204 1.234-3.905.896-1.863 1.44-2.276 2.86-2.174.644.047.757.12 1.097.705.332.573.372.824.322 2.054-.042 1.053-.14 1.544-.397 1.978-.188.318-.395.973-.46 1.457-.066.483-.296 1.209-.512 1.614-.95 1.785-1.51 2.705-1.884 3.093-1.216 1.268-2.272 3.12-2.9 5.087-.586 1.836-.602 2.082-.19 2.888.457.896.893 1.216 1.77 1.296 1.09.1 1.8-.256 2.745-1.374a30.84 30.84 0 011.636-1.765c.459-.449.88-.943.935-1.097.055-.154.343-.383.638-.508.296-.125.685-.392.864-.593.51-.572 1.107-.81 2.32-.922 1.05-.098 1.15-.077 1.64.334.32.27.56.655.626 1.001.058.31.171.604.251.654.08.05.483-.136.893-.414 1.493-1.008 3.563-1.659 4.515-1.42.227.057.652.478 1.016 1.007l.627.91-.106 2.098c-.119 2.337-.136 2.297 1.009 2.295 1.184-.002 1.767-.297 3.04-1.537.677-.66 1.232-1.319 1.232-1.464 0-.145.064-.263.143-.263.185 0 1.326-2.21 1.326-2.57 0-.152.32-1.05.711-1.996 1.075-2.598 1.561-4.208 1.755-5.815.173-1.426.44-2.027.9-2.027.421 0 .592.675.512 2.025-.073 1.225-.303 2.257-1.113 4.995-.173.583-.36 1.282-.417 1.55-.056.27-.252.966-.435 1.548-.25.795-.337 1.53-.348 2.967-.013 1.806.007 1.932.381 2.33.721.767 2.12.433 3.4-.812.472-.458.858-.901.859-.984 0-.083.35-.563.776-1.067.425-.504.884-1.08 1.019-1.279.134-.2.465-.476.734-.616.27-.139.549-.353.62-.476.186-.317.988-.702 2.019-.97 1.613-.42 2.202-.258 2.885.794.525.81.55 1.187.092 1.432-.286.153-.414.117-.775-.22-.893-.832-1.367-.923-2.631-.51-.992.324-1.395.751-1.8 1.902-.297.844-.302.969-.076 1.732.219.735.346.884 1.201 1.404.81.492 1.104.581 1.915.58.536 0 1.167-.11 1.432-.248.52-.27.996-.198 1.14.174.152.397-.03.627-.864 1.097-1.08.607-2.419.625-3.362.044zm-16.26 7.162c-.238-.287-.421-3.037-.248-3.727.122-.488.64-.803 1.085-.662.272.087.32.252.32 1.092v.99l.589-.095c.324-.053 1.308-.503 2.188-1.001.88-.498 1.715-.905 1.857-.905.354 0 .534.781.245 1.063-.466.453-1.884 1.406-2.593 1.74-.404.19-1.092.666-1.528 1.057-.852.763-1.523.92-1.915.448z" stroke-width=".163"/></svg>