<svg xmlns="http://www.w3.org/2000/svg" height="29.54" width="58.996"><path d="M24.477 12.122c-.344-.139-.2-1.198.162-1.198.171 0 .94-.757.94-.926 0-.05.22-.343.49-.65.554-.63.616-1.218.24-2.26-.32-.887-.315-.899.306-.899.977 0 1.591 1.242 1.262 2.55-.214.85-1.005 2.012-1.574 2.312-.219.116-.397.267-.397.337s-.15.288-.333.485c-.321.344-.666.422-1.096.249zm-24.454.42c-.077-.243.035-.52.392-.963.507-.632 1.164-2.131 1.164-2.66 0-.16-.184-.727-.408-1.26-.494-1.174-.498-1.247-.072-1.475.421-.226 1.296-.047 1.296.265 0 .128.156.564.345.968.29.617.328.903.233 1.784-.062.585-.215 1.135-.345 1.243-.128.106-.233.37-.233.585 0 .59-1.23 1.854-1.806 1.854-.32 0-.49-.102-.566-.341zm19.29-2.639c.149-.291.322-.567.383-.612.224-.162 1.312-2.364 1.312-2.654 0-.164.137-.57.305-.903.382-.757.838-2.563.838-3.32 0-.314-.103-.711-.229-.883-.584-.8-1.748.84-2.262 3.189-.315 1.437-.775 4.033-.89 5.02-.098.841.156.918.542.163zm35.41 12.208c-.36-.22-.758-.404-.886-.407-.336-.007-1.972-1.79-1.972-2.15 0-.58-.58-.306-1.753.83-.838.812-1.365 1.188-1.853 1.319-.375.1-.813.265-.974.366-.229.143-.495.095-1.242-.224-1.036-.442-1.486-1.015-1.91-2.432-.293-.977-.614-1.003-1.188-.095-.257.406-.615.785-.794.843-.18.058-.547.309-.817.558-.777.72-1.463.983-2.837 1.09-1.125.086-1.372.053-2.023-.272-.882-.44-.993-.783-.677-2.102.343-1.436.299-2.897-.106-3.466-.303-.425-.431-.474-1.236-.474-.74 0-1.034.091-1.663.518-1.16.786-2.182 1.924-2.697 3.001-.483 1.012-.557 1.145-1.089 1.95-.178.27-.346.557-.374.638-.027.082-.248.099-.49.038-.383-.096-.44-.192-.44-.74 0-.35.104-.717.236-.826.353-.294.71-1.567.833-2.966.134-1.546-.032-1.94-.82-1.94-.306 0-.602.074-.657.164-.056.09-.226.165-.377.167-.285.004-2.662 1.984-2.807 2.339-.045.11-.43.518-.857.908s-.776.801-.776.914c0 .263-1.13 1.287-1.804 1.635-1.957 1.012-4.538-.153-5.343-2.412-.152-.427-.34-.776-.418-.776-.078 0-.667.513-1.309 1.139-.641.626-1.623 1.435-2.18 1.796-.96.623-1.08.657-2.27.657-1.361 0-1.802-.212-2.865-1.378-.76-.835-.846-1.345-.737-4.408.311-8.72.508-10.378 1.235-10.378.618 0 .712.377.604 2.406a492.504 492.504 0 00-.236 5.35c-.074 1.885-.189 3.552-.256 3.704-.225.509.21 1.972.79 2.66.526.624.586.65 1.521.65.79 0 1.102-.085 1.658-.452.801-.53 1.434-1.046 1.844-1.501a32.973 32.973 0 011.58-1.598c.992-.903 1.965-2.767 1.978-3.787.002-.177.184-.802.405-1.387.4-1.066.631-2.098 1.227-5.486.352-2.002.416-2.204 1.234-3.905.897-1.864 1.44-2.277 2.861-2.175.644.047.757.12 1.097.705.332.573.372.824.322 2.054-.042 1.053-.14 1.543-.397 1.978-.188.318-.395.973-.46 1.456-.066.484-.296 1.21-.511 1.614-.952 1.785-1.512 2.705-1.884 3.093-1.216 1.269-2.272 3.12-2.9 5.087-.586 1.837-.602 2.082-.19 2.888.457.896.893 1.215 1.77 1.295 1.09.1 1.8-.255 2.745-1.373a31.037 31.037 0 011.635-1.765c.459-.45.88-.943.935-1.097.055-.155.343-.383.639-.508.295-.126.684-.392.863-.594.51-.57 1.108-.809 2.32-.921 1.05-.098 1.15-.077 1.639.334.32.27.561.654.626 1.001.058.31.172.604.252.654.08.05.483-.136.893-.413 1.493-1.008 3.563-1.66 4.515-1.42.227.057.651.478 1.016 1.007l.626.91-.106 2.098c-.118 2.337-.136 2.296 1.009 2.295 1.184-.002 1.767-.297 3.04-1.538.678-.66 1.232-1.319 1.232-1.464 0-.144.064-.263.143-.263.186 0 1.326-2.21 1.326-2.57 0-.152.32-1.05.712-1.996 1.075-2.598 1.561-4.208 1.755-5.815.173-1.426.44-2.027.9-2.027.421 0 .592.675.512 2.025-.073 1.225-.302 2.257-1.113 4.996-.173.583-.36 1.281-.417 1.55-.056.27-.252.966-.435 1.548-.25.795-.337 1.53-.347 2.966-.014 1.806.007 1.933.38 2.33.721.768 2.12.434 3.4-.81.472-.46.858-.902.859-.985 0-.083.35-.563.776-1.067.425-.504.884-1.08 1.019-1.28.134-.199.465-.476.734-.615.27-.14.549-.353.62-.476.186-.317.988-.703 2.019-.971 1.613-.42 2.202-.258 2.885.795.525.81.55 1.187.092 1.432-.287.153-.414.117-.775-.22-.893-.832-1.367-.924-2.631-.51-.992.324-1.395.75-1.8 1.902-.297.844-.302.969-.076 1.732.219.735.346.884 1.201 1.404.81.491 1.104.58 1.915.58.536 0 1.167-.11 1.432-.248.52-.271.996-.199 1.139.173.152.398-.029.628-.863 1.097-1.08.607-2.42.625-3.362.044zm-16.26 7.163c-.238-.287-.421-3.037-.248-3.728.122-.488.64-.803 1.085-.662.272.087.32.252.32 1.092v.99l.589-.095c.323-.053 1.308-.503 2.188-1.001.879-.498 1.715-.906 1.857-.906.353 0 .533.782.244 1.064-.465.453-1.884 1.406-2.592 1.74-.404.19-1.092.666-1.528 1.057-.852.763-1.523.92-1.915.449z"/></svg>
