<?xml version="1.0" encoding="UTF-8" standalone="no"?>
<svg
   xmlns:dc="http://purl.org/dc/elements/1.1/"
   xmlns:cc="http://creativecommons.org/ns#"
   xmlns:rdf="http://www.w3.org/1999/02/22-rdf-syntax-ns#"
   xmlns:svg="http://www.w3.org/2000/svg"
   xmlns="http://www.w3.org/2000/svg"
   id="svg2094"
   viewBox="0 0 58.995783 29.540113"
   version="1.1"
   height="29.540113"
   width="58.995785">
  <defs
     id="defs2098" />
  <metadata
     id="metadata2">
    <rdf:RDF>
      <cc:Work
         rdf:about="">
        <dc:format>image/svg+xml</dc:format>
        <dc:type
           rdf:resource="http://purl.org/dc/dcmitype/StillImage" />
        <dc:title />
      </cc:Work>
    </rdf:RDF>
  </metadata>
  <g
     transform="translate(-192.38285,-241.80818)"
     id="g2092">
    <g
       style="stroke-width:0.16327"
       id="g2081">
      <path
         d="m 216.86,253.93 c -0.34377,-0.13871 -0.20052,-1.198 0.16201,-1.198 0.171,0 0.94003,-0.75724 0.94003,-0.92564 0,-0.0509 0.22041,-0.34351 0.48979,-0.65033 0.55352,-0.63042 0.61592,-1.2178 0.2402,-2.2608 -0.31933,-0.88635 -0.31538,-0.89794 0.30593,-0.89794 0.97641,0 1.5913,1.242 1.2621,2.5493 -0.2144,0.85144 -1.005,2.013 -1.5744,2.313 -0.21842,0.11512 -0.39711,0.26658 -0.39711,0.33657 0,0.07 -0.1498,0.28805 -0.3329,0.48458 -0.3208,0.34434 -0.66555,0.42276 -1.0957,0.24919 z m -24.454,0.4201 c -0.0772,-0.24332 0.035,-0.51937 0.39152,-0.96301 0.50779,-0.63187 1.1639,-2.1312 1.164,-2.66 5e-5,-0.15985 -0.1836,-0.72702 -0.40809,-1.2604 -0.49407,-1.1738 -0.49763,-1.2468 -0.072,-1.4745 0.42187,-0.22578 1.2965,-0.0472 1.2965,0.26478 0,0.12852 0.15542,0.56433 0.34536,0.96841 0.29007,0.61711 0.32738,0.90267 0.23298,1.784 -0.0626,0.58485 -0.21549,1.1349 -0.34536,1.2427 -0.12813,0.10634 -0.23298,0.36967 -0.23298,0.58518 0,0.5904 -1.2307,1.8539 -1.8057,1.8539 -0.32113,0 -0.49035,-0.10193 -0.56625,-0.34109 z m 19.289,-2.6385 c 0.14952,-0.29184 0.32242,-0.56735 0.3842,-0.61225 0.22365,-0.16253 1.3115,-2.3641 1.3115,-2.6542 0,-0.16365 0.1375,-0.57014 0.30558,-0.9033 0.38165,-0.75655 0.83728,-2.563 0.83728,-3.3197 0,-0.31383 -0.10283,-0.71122 -0.22849,-0.88307 -0.58456,-0.79943 -1.7482,0.84087 -2.2623,3.1888 -0.31472,1.4376 -0.77472,4.0329 -0.88981,5.0204 -0.0981,0.84137 0.15546,0.91773 0.54204,0.16327 z m 35.41,12.208 c -0.35919,-0.22122 -0.75744,-0.40452 -0.88502,-0.40733 -0.33644,-0.007 -1.9721,-1.7904 -1.9721,-2.1497 0,-0.58074 -0.58031,-0.3059 -1.7531,0.83025 -0.83795,0.81177 -1.3652,1.1869 -1.8531,1.3182 -0.37506,0.10099 -0.81313,0.26555 -0.97347,0.36568 -0.22908,0.14307 -0.49533,0.0951 -1.2428,-0.22389 -1.0358,-0.44206 -1.4855,-1.0146 -1.9097,-2.4314 -0.29269,-0.97753 -0.61342,-1.0032 -1.1883,-0.095 -0.25701,0.40601 -0.61422,0.78526 -0.79381,0.84278 -0.17959,0.0575 -0.54694,0.30867 -0.81633,0.5581 -0.77783,0.7202 -1.4631,0.9833 -2.8371,1.0893 -1.1251,0.0868 -1.3727,0.0535 -2.0238,-0.27166 -0.8818,-0.44039 -0.99211,-0.78285 -0.67683,-2.1013 0.34351,-1.4366 0.29882,-2.8978 -0.10601,-3.4663 -0.30265,-0.42503 -0.43076,-0.47419 -1.2359,-0.47419 -0.73946,0 -1.0333,0.0915 -1.6624,0.51793 -1.1599,0.78619 -2.1822,1.9241 -2.6969,3.0016 -0.48299,1.0113 -0.55739,1.1445 -1.0894,1.9498 -0.17793,0.26939 -0.34604,0.55651 -0.37359,0.63803 -0.0275,0.0815 -0.24823,0.0985 -0.49043,0.0377 -0.38315,-0.0962 -0.44039,-0.19241 -0.44039,-0.74049 0,-0.35017 0.1048,-0.71693 0.23595,-0.82578 0.3534,-0.2933 0.71115,-1.567 0.83295,-2.9656 0.13462,-1.546 -0.0318,-1.9397 -0.82012,-1.9397 -0.30583,0 -0.60145,0.0735 -0.65695,0.16327 -0.0555,0.0898 -0.22514,0.16496 -0.37698,0.16704 -0.28483,0.004 -2.6615,1.9845 -2.8067,2.339 -0.0449,0.10958 -0.43061,0.51829 -0.85714,0.90821 -0.42653,0.38993 -0.77551,0.80126 -0.77551,0.91408 0,0.26248 -1.13,1.2865 -1.8045,1.6353 -1.9567,1.0119 -4.5373,-0.15347 -5.3426,-2.4126 -0.15205,-0.42653 -0.34014,-0.77551 -0.41802,-0.77551 -0.0779,0 -0.66674,0.51247 -1.3086,1.1388 -0.64186,0.62633 -1.6231,1.4345 -2.1804,1.7959 -0.96024,0.62263 -1.0793,0.6571 -2.2703,0.6571 -1.3608,0 -1.8022,-0.2124 -2.8647,-1.3785 -0.76066,-0.83488 -0.84578,-1.3441 -0.73664,-4.4071 0.31074,-8.7208 0.50784,-10.378 1.2346,-10.378 0.61757,0 0.71203,0.37618 0.60403,2.4054 -0.0562,1.0566 -0.16244,3.464 -0.23606,5.3497 -0.0736,1.8857 -0.18865,3.5527 -0.25564,3.7043 -0.22495,0.50919 0.20891,1.9721 0.78898,2.6603 0.5262,0.62431 0.58713,0.65035 1.5218,0.65035 0.79071,0 1.1022,-0.085 1.6575,-0.45252 0.80171,-0.53055 1.4346,-1.0456 1.8447,-1.5012 0.36529,-0.40583 1.2213,-1.2719 1.5791,-1.5976 0.99237,-0.9034 1.966,-2.7667 1.9787,-3.7867 0.002,-0.17768 0.18418,-0.80217 0.40439,-1.3878 0.40065,-1.0654 0.63172,-2.098 1.2276,-5.486 0.35202,-2.0013 0.41602,-2.2038 1.2343,-3.9051 0.89627,-1.8634 1.4396,-2.2763 2.8609,-2.1742 0.64336,0.0462 0.7566,0.11901 1.0965,0.70462 0.33268,0.57324 0.37211,0.82425 0.32255,2.0536 -0.0425,1.0532 -0.14102,1.5438 -0.39739,1.9783 -0.18751,0.3178 -0.39471,0.97329 -0.46046,1.4566 -0.0657,0.48336 -0.29569,1.2094 -0.51099,1.6135 -0.95128,1.7853 -1.5113,2.7051 -1.8835,3.0932 -1.2164,1.2684 -2.272,3.1203 -2.8997,5.087 -0.58614,1.8365 -0.6024,2.082 -0.19127,2.8876 0.45755,0.89649 0.89378,1.2157 1.7708,1.2957 1.0901,0.0995 1.7996,-0.25557 2.7448,-1.3737 0.44123,-0.5219 1.1773,-1.3163 1.6357,-1.7652 0.4584,-0.44897 0.87892,-0.94257 0.9345,-1.0969 0.0556,-0.1543 0.34302,-0.38294 0.63876,-0.50808 0.29574,-0.12514 0.68447,-0.39211 0.86385,-0.5933 0.50937,-0.57125 1.1075,-0.80895 2.3188,-0.92154 1.0505,-0.0976 1.151,-0.0771 1.6397,0.33407 0.32074,0.26988 0.5612,0.65437 0.62632,1.0015 0.0581,0.30986 0.1715,0.60406 0.25194,0.65378 0.0804,0.0497 0.48232,-0.13641 0.89304,-0.41362 1.4932,-1.0078 3.5628,-1.6586 4.5146,-1.4197 0.22664,0.0569 0.65146,0.47809 1.016,1.0073 l 0.62643,0.90955 -0.10617,2.098 c -0.1183,2.3373 -0.13611,2.2968 1.0087,2.295 1.1838,-0.002 1.7667,-0.29656 3.0401,-1.5374 0.67773,-0.66035 1.2322,-1.3191 1.2322,-1.4638 0,-0.1447 0.0643,-0.26318 0.14294,-0.26318 0.18591,0 1.3264,-2.2102 1.3264,-2.5704 0,-0.15196 0.3202,-1.05 0.71155,-1.9958 1.0753,-2.5984 1.5611,-4.2077 1.7554,-5.815 0.17241,-1.4261 0.43907,-2.0269 0.89956,-2.0269 0.42123,0 0.59186,0.67494 0.51199,2.0251 -0.0725,1.2248 -0.30236,2.2565 -1.113,4.9953 -0.17277,0.58368 -0.36021,1.2816 -0.41657,1.551 -0.0563,0.26939 -0.25228,0.96559 -0.43541,1.5471 -0.25037,0.79507 -0.33654,1.5309 -0.34742,2.9667 -0.0137,1.8057 0.007,1.9323 0.38108,2.3305 0.72062,0.76707 2.12,0.43303 3.3998,-0.81155 0.47143,-0.45846 0.8578,-0.90135 0.8586,-0.98418 0,-0.0828 0.34978,-0.56313 0.77551,-1.0673 0.42573,-0.50417 0.88426,-1.0798 1.019,-1.2791 0.1347,-0.19933 0.46531,-0.47636 0.7347,-0.61563 0.26939,-0.13926 0.54855,-0.35347 0.62036,-0.476 0.18578,-0.31699 0.9872,-0.70264 2.0183,-0.97121 1.6127,-0.42005 2.2023,-0.2576 2.8847,0.79472 0.52521,0.80998 0.54963,1.1874 0.0927,1.432 -0.28683,0.1535 -0.41413,0.11752 -0.77551,-0.2192 -0.89315,-0.83217 -1.367,-0.92413 -2.631,-0.51068 -0.99164,0.32434 -1.3953,0.75099 -1.8,1.9023 -0.29659,0.84383 -0.30204,0.96898 -0.0755,1.7319 0.21827,0.73497 0.34591,0.88415 1.2009,1.4036 0.80986,0.49195 1.1038,0.58101 1.9149,0.58014 0.53597,0 1.167,-0.10986 1.432,-0.24805 0.51936,-0.27084 0.99606,-0.19815 1.1387,0.17365 0.15249,0.39737 -0.0286,0.62743 -0.86305,1.0965 -1.0804,0.60731 -2.419,0.62499 -3.3616,0.0444 z m -16.259,7.1624 c -0.23835,-0.2872 -0.42143,-3.0371 -0.24816,-3.7275 0.12247,-0.48788 0.63925,-0.80321 1.0847,-0.66184 0.2719,0.0863 0.32036,0.25141 0.32036,1.0916 v 0.98996 l 0.58865,-0.0955 c 0.32377,-0.0525 1.3083,-0.50297 2.1878,-1.001 0.87953,-0.49797 1.7153,-0.90542 1.8572,-0.90542 0.35372,0 0.53362,0.78189 0.24467,1.0634 -0.46569,0.45379 -1.8844,1.406 -2.5926,1.7401 -0.40408,0.19063 -1.0916,0.66639 -1.5279,1.0572 -0.85161,0.76302 -1.5233,0.92048 -1.9147,0.44885 z"
         id="Atlantic" />
    </g>
  </g>
</svg>
