<svg xmlns="http://www.w3.org/2000/svg" height="15.468" width="42.505"><path d="M9.85 5.946c-.11-.284.173-.837.692-1.356.977-.977 1.317-2.545.757-3.493-.341-.578-.148-1.015.484-1.091.312-.038.537.101.922.568.437.53.509.748.509 1.542 0 .629-.071.952-.222 1.01-.122.047-.264.296-.315.554-.052.258-.318.724-.592 1.035-.274.31-.5.645-.501.744-.008.582-1.534 1.01-1.735.487zm-9.665.852c-.283-.283-.24-.57.121-.823.174-.122.652-.653 1.061-1.18.7-.902.745-1.02.745-1.967 0-.781-.075-1.095-.334-1.393-.194-.224-.314-.56-.286-.8.096-.821 1.173-.555 1.79.444.285.461.328.728.258 1.598-.05.622-.231 1.326-.45 1.742-.2.384-.485.934-.63 1.223-.147.29-.326.528-.4.53-.073.004-.374.19-.668.414C.8 7.037.48 7.094.185 6.8zm7.56 8.533c-1.962-.477-2.995-2.136-2.782-4.467.06-.647.183-1.58.274-2.074.092-.494.227-1.596.3-2.449C5.867 2.498 6.34.467 6.961.23c.317-.122.677.063.785.401.09.286-.24 2.343-.578 3.608-.087.324-.158 1.096-.158 1.714 0 .619-.147 1.896-.327 2.838-.18.943-.326 2.088-.326 2.546 0 .625.081.906.326 1.128.18.162.327.422.327.577 0 .386.354.646 1.029.755.723.118 1.604-.169 2.661-.865.459-.302.982-.549 1.164-.549.586 0 .746-.393.623-1.534-.094-.88-.058-1.152.226-1.709.186-.364.338-.849.338-1.077 0-.228.055-.415.122-.416.068 0 .29-.246.494-.546.625-.918 1.227-1.504 2.01-1.958 1.22-.706 2.19-.485 2.082.473-.05.438-.122.49-.79.57-.404.05-.905.197-1.112.327-.512.322-1.408 1.587-1.656 2.339-.21.633-.117 1.648.165 1.823.088.054.607-.237 1.153-.648.546-.41 1.093-.746 1.216-.746s.57-.22.995-.49c.918-.582 1.3-.616 1.453-.132.117.368.117.368-1.39 1.643-.292.246-.668.449-.836.449-.518 0-1.784.997-1.784 1.405 0 .946 2.466 1.417 3.755.718.315-.17.753-.391.974-.491.475-.215 2.222-1.887 2.503-2.397.353-.64 1.62-2.404 2.206-3.072.8-.912 2.074-1.594 2.718-1.456 1.071.23 1.368.507 1.697 1.58.322 1.05.718 1.382 1.075.902.096-.128.648-.577 1.227-.997.98-.71 1.122-.764 2.041-.761 1.125.003 1.167.022 1.791.854.666.887 1.276.807 2.92-.384 1.109-.803 2.83-.53 3.393.539.109.207.242.413.296.458.226.188.514.855.67 1.557.174.77-.02 3.235-.308 3.912-.076.18-.279.694-.45 1.143-.254.662-.394.826-.742.866-.36.042-.447-.028-.536-.435-.059-.267-.033-.62.057-.785.256-.469.674-3.663.574-4.384-.185-1.324-.772-1.874-2-1.874-.551 0-.783.125-1.582.857-.953.873-1.707 2.186-1.707 2.974 0 .217-.067.435-.148.485-.08.05-.304.609-.496 1.241-.389 1.28-.81 1.658-1.458 1.31-.447-.238-.449-.816-.006-2.067.794-2.241.88-2.725.655-3.725-.167-.75-.288-.961-.622-1.088-.592-.225-1.4-.029-1.954.476-.262.239-.704.625-.981.858-.794.665-1.662 1.983-2.27 3.445a58.886 58.886 0 00-.557 1.37c0 .016-.216.118-.48.227-.91.377-.999-.038-.416-1.955.92-3.02.941-4.87.062-5.148-.559-.178-1.582.57-2.27 1.658-.352.558-.717 1.062-.811 1.12-.095.059-.27.34-.39.626-.288.69-2.963 3.35-3.504 3.486-.235.06-.673.252-.973.43-.685.404-2.527.559-3.363.283-.33-.109-.972-.449-1.428-.755-.455-.307-.952-.557-1.105-.557-.342 0-3.016 1.292-3.093 1.494-.083.22-1.276.794-1.61.775a5.599 5.599 0 01-.783-.136z"/></svg>