<?xml version="1.0" encoding="UTF-8" standalone="no"?>
<svg
   xmlns:dc="http://purl.org/dc/elements/1.1/"
   xmlns:cc="http://creativecommons.org/ns#"
   xmlns:rdf="http://www.w3.org/1999/02/22-rdf-syntax-ns#"
   xmlns:svg="http://www.w3.org/2000/svg"
   xmlns="http://www.w3.org/2000/svg"
   id="svg2094"
   viewBox="0 0 42.505042 15.468153"
   version="1.1"
   height="15.468153"
   width="42.505043">
  <defs
     id="defs2098" />
  <metadata
     id="metadata2">
    <rdf:RDF>
      <cc:Work
         rdf:about="">
        <dc:format>image/svg+xml</dc:format>
        <dc:type
           rdf:resource="http://purl.org/dc/dcmitype/StillImage" />
        <dc:title />
      </cc:Work>
    </rdf:RDF>
  </metadata>
  <g
     transform="translate(-192.50062,-294.55407)"
     id="g2092">
    <g
       style="stroke-width:0.16327"
       id="g2081">
      <path
         d="m 202.35,300.5 c -0.10889,-0.28379 0.17347,-0.83643 0.69262,-1.3556 0.97685,-0.97685 1.3168,-2.5454 0.75695,-3.493 -0.34142,-0.57798 -0.14757,-1.0154 0.48367,-1.0915 0.31209,-0.0376 0.53783,0.10136 0.92231,0.56781 0.43735,0.53057 0.50909,0.74795 0.50909,1.5425 0,0.62849 -0.0711,0.95218 -0.22168,1.01 -0.12193,0.0468 -0.2639,0.29615 -0.3155,0.55413 -0.0516,0.25799 -0.31802,0.72349 -0.59203,1.0344 -0.27402,0.31095 -0.49939,0.64582 -0.50083,0.74414 -0.008,0.58217 -1.5338,1.0104 -1.7346,0.48704 z m -9.6639,0.85255 c -0.28332,-0.28331 -0.24127,-0.57012 0.12073,-0.82369 0.17416,-0.12197 0.65171,-0.65327 1.0612,-1.1806 0.69993,-0.90135 0.74457,-1.0193 0.74457,-1.9666 0,-0.781 -0.0752,-1.0944 -0.33412,-1.393 -0.19409,-0.22379 -0.31383,-0.55869 -0.28572,-0.7991 0.0961,-0.8217 1.1726,-0.5551 1.7896,0.4432 0.28507,0.46127 0.32826,0.72824 0.25846,1.5979 -0.05,0.62222 -0.23166,1.3261 -0.44973,1.7422 -0.20124,0.38393 -0.48537,0.93445 -0.63138,1.2234 -0.14601,0.28892 -0.32547,0.52769 -0.39881,0.53061 -0.0733,0.003 -0.37415,0.189 -0.66847,0.41349 -0.59143,0.4511 -0.91123,0.50736 -1.2064,0.21224 z m 7.5592,8.533 c -1.9614,-0.4775 -2.9943,-2.1367 -2.7812,-4.4675 0.0591,-0.64665 0.18235,-1.5798 0.27384,-2.0737 0.0915,-0.49388 0.22634,-1.5959 0.29964,-2.449 0.33027,-3.8437 0.80317,-5.8741 1.4236,-6.1122 0.31722,-0.12173 0.67769,0.0625 0.78525,0.4014 0.0905,0.28523 -0.23895,2.3426 -0.57768,3.6073 -0.087,0.3247 -0.15812,1.0963 -0.15812,1.7146 0,0.61834 -0.14694,1.8954 -0.32653,2.8379 -0.17959,0.9425 -0.32653,2.0881 -0.32653,2.5458 0,0.62481 0.0814,0.90579 0.32653,1.1277 0.17959,0.16253 0.32653,0.42206 0.32653,0.57674 0,0.38615 0.35415,0.64626 1.029,0.75578 0.72286,0.11729 1.6042,-0.1693 2.6614,-0.86548 0.45827,-0.30177 0.98192,-0.54867 1.1637,-0.54867 0.58591,0 0.7454,-0.3927 0.62315,-1.5343 -0.0943,-0.88033 -0.0584,-1.1518 0.22576,-1.7088 0.18581,-0.36423 0.33785,-0.84885 0.33785,-1.0769 0,-0.22807 0.0551,-0.41517 0.12244,-0.41578 0.0674,0 0.28949,-0.24646 0.49365,-0.54635 0.62497,-0.91794 1.2272,-1.5044 2.0105,-1.9578 1.2197,-0.70596 2.1903,-0.48563 2.0813,0.47246 -0.0498,0.43794 -0.12162,0.48986 -0.78952,0.57097 -0.40408,0.0491 -0.90475,0.19601 -1.1126,0.32653 -0.51195,0.32147 -1.4077,1.5865 -1.6559,2.3385 -0.20901,0.6333 -0.11678,1.6484 0.16564,1.823 0.088,0.0544 0.60672,-0.23691 1.1527,-0.64734 0.54598,-0.41042 1.0931,-0.74622 1.2158,-0.74622 0.1227,0 0.57059,-0.22041 0.99538,-0.4898 0.91766,-0.58196 1.2992,-0.61665 1.453,-0.13208 0.11673,0.36775 0.11644,0.3681 -1.3902,1.6423 -0.29196,0.24693 -0.66809,0.44897 -0.83583,0.44897 -0.51773,0 -1.7839,0.99785 -1.7839,1.4059 0,0.94525 2.466,1.4165 3.7551,0.71763 0.31428,-0.17038 0.75222,-0.39135 0.97322,-0.49101 0.47572,-0.21454 2.2226,-1.8869 2.5038,-2.397 0.35258,-0.63956 1.6193,-2.4043 2.2053,-3.0722 0.79951,-0.91136 2.0743,-1.5939 2.7182,-1.4554 1.0714,0.2304 1.3678,0.50636 1.6968,1.5792 0.32199,1.0501 0.71793,1.3824 1.0755,0.90271 0.0957,-0.12843 0.64793,-0.57723 1.2271,-0.99734 0.97987,-0.71076 1.1217,-0.76367 2.0408,-0.76136 1.1251,0.003 1.1665,0.0226 1.7913,0.85465 0.66593,0.88686 1.2753,0.80659 2.9196,-0.38456 1.1085,-0.803 2.83,-0.52948 3.3929,0.53909 0.10897,0.20684 0.24222,0.41282 0.29613,0.45771 0.22632,0.18851 0.51347,0.85504 0.6708,1.557 0.17286,0.77141 -0.0216,3.2351 -0.30884,3.9124 -0.0761,0.17959 -0.27892,0.69388 -0.45059,1.1429 -0.25305,0.66179 -0.39344,0.82583 -0.74159,0.86653 -0.36027,0.0421 -0.44662,-0.028 -0.53608,-0.43525 -0.0586,-0.267 -0.033,-0.62021 0.057,-0.7849 0.25624,-0.46898 0.67422,-3.663 0.57376,-4.3845 -0.18424,-1.3233 -0.77198,-1.8741 -1.9997,-1.8741 -0.55086,0 -0.78248,0.12555 -1.5814,0.85715 -0.95381,0.87345 -1.7078,2.1867 -1.7078,2.9746 0,0.21664 -0.0663,0.43484 -0.14729,0.4849 -0.081,0.0501 -0.30443,0.60837 -0.49648,1.2407 -0.38872,1.2798 -0.80942,1.658 -1.458,1.3109 -0.44714,-0.2393 -0.4487,-0.81665 -0.006,-2.0674 0.79405,-2.2415 0.87923,-2.7256 0.65547,-3.7255 -0.1678,-0.7498 -0.28881,-0.96127 -0.62279,-1.0882 -0.59197,-0.22507 -1.3989,-0.0283 -1.9531,0.47614 -0.26265,0.23909 -0.70449,0.62502 -0.98188,0.85762 -0.79316,0.66506 -1.6614,1.9837 -2.2687,3.4454 -0.30706,0.7391 -0.55829,1.356 -0.55829,1.371 0,0.0149 -0.21597,0.11662 -0.47993,0.22596 -0.91044,0.37711 -0.99858,-0.038 -0.4152,-1.9551 0.9188,-3.0192 0.94102,-4.8692 0.0619,-5.1482 -0.55926,-0.1775 -1.5822,0.56999 -2.2697,1.6586 -0.35226,0.55777 -0.71768,1.0618 -0.81204,1.1202 -0.0944,0.0583 -0.26939,0.33978 -0.38895,0.62548 -0.28865,0.6898 -2.9634,3.3504 -3.5048,3.4863 -0.23456,0.0589 -0.67236,0.25212 -0.97288,0.42942 -0.68521,0.40428 -2.5267,0.5594 -3.3633,0.28328 -0.32958,-0.10876 -0.97185,-0.4485 -1.4272,-0.75497 -0.45541,-0.30646 -0.95273,-0.55721 -1.1052,-0.55721 -0.34211,0 -3.0158,1.292 -3.0928,1.4945 -0.0838,0.22033 -1.2764,0.79365 -1.6111,0.7745 -0.16072,-0.009 -0.51262,-0.0704 -0.78201,-0.13595 z"
         id="attachment" />
    </g>
  </g>
</svg>
