<?xml version="1.0" encoding="UTF-8" standalone="no"?>
<svg
   xmlns:dc="http://purl.org/dc/elements/1.1/"
   xmlns:cc="http://creativecommons.org/ns#"
   xmlns:rdf="http://www.w3.org/1999/02/22-rdf-syntax-ns#"
   xmlns:svg="http://www.w3.org/2000/svg"
   xmlns="http://www.w3.org/2000/svg"
   id="svg2094"
   viewBox="0 0 26.347221 20.504402"
   version="1.1"
   height="20.504402"
   width="26.347221">
  <defs
     id="defs2098" />
  <metadata
     id="metadata2">
    <rdf:RDF>
      <cc:Work
         rdf:about="">
        <dc:format>image/svg+xml</dc:format>
        <dc:type
           rdf:resource="http://purl.org/dc/dcmitype/StillImage" />
        <dc:title />
      </cc:Work>
    </rdf:RDF>
  </metadata>
  <g
     transform="translate(-192.22469,-270.89356)"
     id="g2092">
    <g
       style="stroke-width:0.16327"
       id="g2081">
      <path
         d="m 202.34,277.47 c -0.11081,-0.28877 0.31091,-1.2466 0.68589,-1.5578 0.30975,-0.25708 0.95945,-1.5181 1.1152,-2.1646 0.0608,-0.25213 0.0294,-0.90557 -0.0697,-1.4521 -0.15151,-0.8355 -0.14109,-1.0328 0.0654,-1.2393 0.2065,-0.20649 0.32495,-0.21275 0.74366,-0.0393 0.52921,0.2192 0.82684,0.90162 0.82864,1.8999 0.002,0.77479 -0.71512,2.5783 -1.3891,3.4965 -0.80578,1.0977 -1.7674,1.6109 -1.98,1.0568 z m -10.081,1.2956 c -0.11847,-0.30873 0.0706,-0.69419 0.55562,-1.1329 0.19747,-0.17858 0.50771,-0.61858 0.68942,-0.97777 0.18174,-0.35918 0.43106,-0.71182 0.55406,-0.78362 0.38916,-0.22717 0.27919,-1.7246 -0.18646,-2.5392 -0.46511,-0.81357 -0.52229,-1.4141 -0.14833,-1.5576 0.57502,-0.22067 0.96361,0.0792 1.4196,1.0954 0.65548,1.4608 0.72049,2.0819 0.30191,2.8849 -0.19069,0.36587 -0.34672,0.79466 -0.34672,0.95286 0,0.15821 -0.34843,0.74369 -0.77429,1.3011 -0.69977,0.91595 -0.83161,1.0134 -1.3703,1.0134 -0.39138,0 -0.62982,-0.0881 -0.69451,-0.25672 z m 15.529,8.1284 c -0.51872,-0.25345 -1.1669,-0.73234 -1.4404,-1.0642 -0.58828,-0.71368 -1.0941,-0.77676 -1.9429,-0.2423 -1.682,1.059 -5.0423,1.5708 -5.8776,0.89505 -0.3784,-0.30614 -1.2095,-1.447 -1.4442,-1.9824 -0.16222,-0.37012 -0.1714,-0.70981 -0.0397,-1.4694 0.53382,-3.078 0.67388,-4.1879 0.8457,-6.7023 0.18818,-2.7534 0.45765,-4.3205 0.81754,-4.7541 0.5327,-0.64188 1.2564,0.12947 0.96979,1.0337 -0.0793,0.2503 -0.22163,1.7041 -0.31626,3.2306 -0.0946,1.5265 -0.27966,3.2898 -0.4112,3.9184 -0.13153,0.62858 -0.28934,1.8462 -0.35069,2.706 l -0.11155,1.5631 0.52012,0.59236 c 0.28606,0.32581 0.65933,0.63657 0.8295,0.69058 0.17017,0.054 0.91869,0.0155 1.6634,-0.0854 1.0198,-0.1383 1.5556,-0.30881 2.1704,-0.69074 1.4129,-0.87773 1.4946,-0.99456 1.7199,-2.4606 0.18942,-1.2324 0.27355,-1.4239 1.089,-2.4784 1.0878,-1.4068 2.1969,-2.1877 3.2674,-2.3006 0.42942,-0.0453 0.88956,-0.009 1.0226,0.0808 0.20857,0.14077 0.19529,0.22552 -0.0965,0.61641 -0.18609,0.24924 -0.55205,0.49763 -0.81324,0.55197 -0.75705,0.15747 -1.5105,0.6136 -1.8096,1.0956 -0.15211,0.24508 -0.41619,0.6039 -0.58682,0.79739 -0.32718,0.371 -0.67801,1.6086 -0.52581,1.8549 0.11753,0.19017 1.1978,-0.28065 2.5674,-1.119 0.7504,-0.45933 1.3208,-0.68709 1.7959,-0.71715 0.65432,-0.0414 0.69944,-0.0164 0.7489,0.41481 0.0664,0.5791 -0.17901,0.87737 -0.83942,1.0203 -0.60302,0.13049 -2.3524,0.9837 -2.6718,1.303 -0.12009,0.12008 -0.4747,0.31104 -0.78804,0.42435 -0.90364,0.32676 -0.76571,1.0177 0.35401,1.7734 0.87197,0.58849 1.7526,0.63847 2.8084,0.15938 0.94557,-0.42906 1.6015,-0.42428 1.7402,0.0127 0.17307,0.54533 -0.26962,0.98849 -1.3154,1.3167 -1.7105,0.5369 -2.4746,0.54016 -3.549,0.0152 z m 1.4329,4.4192 c -0.75152,-0.18308 -1.1508,-0.94076 -0.69387,-1.3165 0.12031,-0.0989 1.8795,-0.20674 4.2857,-0.26267 2.2449,-0.0522 4.3388,-0.13382 4.6531,-0.18137 0.74968,-0.11346 1.2221,0.23382 1.0813,0.79484 -0.14368,0.57245 -1.1149,0.74648 -5.163,0.92519 -3.6059,0.15918 -3.6736,0.15985 -4.1633,0.0405 z"
         id="attached" />
    </g>
  </g>
</svg>
