<?xml version="1.0" encoding="UTF-8" standalone="no"?>
<svg
   xmlns:dc="http://purl.org/dc/elements/1.1/"
   xmlns:cc="http://creativecommons.org/ns#"
   xmlns:rdf="http://www.w3.org/1999/02/22-rdf-syntax-ns#"
   xmlns:svg="http://www.w3.org/2000/svg"
   xmlns="http://www.w3.org/2000/svg"
   id="svg2094"
   viewBox="0 0 21.277309 15.498325"
   version="1.1"
   height="15.498325"
   width="21.277309">
  <defs
     id="defs2098" />
  <metadata
     id="metadata2">
    <rdf:RDF>
      <cc:Work
         rdf:about="">
        <dc:format>image/svg+xml</dc:format>
        <dc:type
           rdf:resource="http://purl.org/dc/dcmitype/StillImage" />
        <dc:title />
      </cc:Work>
    </rdf:RDF>
  </metadata>
  <g
     transform="translate(-193.31481,-318.0214)"
     id="g2092">
    <g
       style="stroke-width:0.16327"
       id="g2081">
      <path
         d="m 204.03,324.79 c -0.31348,-0.31348 -0.0729,-1.0803 0.55136,-1.7576 0.36312,-0.39394 0.73047,-0.96119 0.81633,-1.2606 0.24449,-0.85247 0.18727,-2.18 -0.1168,-2.7098 -0.62885,-1.0957 0.50934,-1.4563 1.3989,-0.44322 0.56798,0.64691 0.57538,0.70142 0.33229,2.4492 -0.15889,1.1424 -0.2478,1.3474 -0.99915,2.3034 -0.4536,0.57721 -1.0327,1.157 -1.2869,1.2884 -0.52894,0.27352 -0.54891,0.27726 -0.69603,0.13012 z m -10.612,1.4694 c -0.23875,-0.23874 -0.0761,-0.61208 0.62318,-1.4306 1.4777,-1.7296 1.9806,-3.7627 1.139,-4.6043 -0.27074,-0.27074 -0.42656,-0.62232 -0.44898,-1.013 -0.0308,-0.53621 0.0106,-0.60354 0.39842,-0.64842 0.61678,-0.0714 1.516,0.76788 1.8393,1.7167 0.34386,1.0091 0.32786,1.2029 -0.23301,2.8232 -0.42617,1.2312 -0.59241,1.4937 -1.4733,2.3265 -0.91953,0.86938 -1.5304,1.1442 -1.8446,0.82993 z m 6.9617,7.0724 c -0.9625,-0.26439 -1.7952,-1.3576 -2.0241,-2.6574 -0.17409,-0.98839 -0.14429,-1.2592 0.59058,-5.3674 0.36843,-2.0596 0.55156,-3.5974 0.55992,-4.702 0.0104,-1.3833 0.5424,-2.2338 1.2317,-1.9693 0.44457,0.1706 0.25636,4.1983 -0.3232,6.9162 -0.72575,3.4034 -0.81848,4.5954 -0.42931,5.5179 0.25336,0.60062 0.91027,1.0146 1.6015,1.0091 0.59794,-0.005 1.7395,-0.52924 2.2392,-1.0289 0.21799,-0.21799 0.62364,-0.5582 0.90145,-0.75601 0.2778,-0.19782 0.61595,-0.57403 0.75143,-0.83602 0.22686,-0.43869 1.3484,-1.7204 2.6467,-3.0246 0.29184,-0.29316 0.53251,-0.59306 0.53481,-0.66643 0.002,-0.0734 0.62619,-0.40128 1.3864,-0.72866 1.2509,-0.53869 1.4453,-0.57921 2.0464,-0.42664 1.0851,0.27543 2.094,1.4912 1.7625,2.1239 -0.19765,0.37719 -0.75685,0.36044 -1.3627,-0.0408 -0.6334,-0.41948 -1.5521,-0.41948 -2.0854,0 -0.22831,0.17959 -0.56382,0.32653 -0.74558,0.32653 -0.35377,0 -0.81849,0.5711 -1.1581,1.4232 -0.16659,0.41798 -0.16917,0.69264 -0.0127,1.345 0.22935,0.95608 0.64509,1.5421 1.3541,1.9087 0.66498,0.34387 2.3783,0.20076 3.1669,-0.26453 0.69152,-0.40802 1.2967,-0.42448 1.502,-0.0409 0.23135,0.43226 -0.0303,0.7634 -1.0845,1.3728 -0.89657,0.51821 -1.0094,0.54141 -2.6334,0.54141 h -1.6967 l -0.34415,-0.48761 c -0.18927,-0.2682 -0.58668,-0.71767 -0.8831,-0.99884 -0.29644,-0.28116 -0.59559,-0.72298 -0.66482,-0.98177 -0.18753,-0.70127 -0.57729,-0.65783 -1.3603,0.15164 -0.38568,0.39871 -0.85285,0.77142 -1.0381,0.82822 -0.18531,0.0568 -0.61295,0.35611 -0.95032,0.66514 -0.35822,0.32813 -0.97562,0.66715 -1.4842,0.81499 -0.99187,0.28834 -1.0612,0.28948 -1.9948,0.033 z"
         id="attack" />
    </g>
  </g>
</svg>
