<svg xmlns="http://www.w3.org/2000/svg" height="15.498" width="21.277"><path d="M10.715 6.769c-.313-.314-.073-1.08.552-1.758.363-.394.73-.961.816-1.26.244-.853.187-2.18-.117-2.71-.629-1.096.51-1.457 1.399-.444.568.647.575.702.332 2.45-.159 1.142-.248 1.347-.999 2.303-.453.577-1.033 1.157-1.287 1.288-.529.274-.549.278-.696.13zM.103 8.238c-.239-.239-.076-.612.623-1.43 1.478-1.73 1.981-3.763 1.14-4.605a1.536 1.536 0 01-.45-1.013c-.03-.536.011-.603.399-.648.617-.072 1.516.768 1.84 1.716.343 1.01.327 1.203-.234 2.824-.426 1.23-.592 1.493-1.473 2.326-.92.87-1.53 1.144-1.845.83zm6.962 7.072c-.963-.264-1.795-1.357-2.024-2.657-.174-.988-.144-1.26.59-5.367.369-2.06.552-3.598.56-4.702C6.201 1.2 6.734.35 7.423.614c.445.17.256 4.199-.323 6.916-.726 3.404-.819 4.596-.43 5.518.254.601.91 1.015 1.602 1.01.598-.006 1.74-.53 2.24-1.03.217-.217.623-.558.9-.755.278-.198.617-.574.752-.836.227-.44 1.348-1.72 2.647-3.025.292-.293.532-.593.535-.666.002-.074.626-.402 1.386-.73 1.25-.538 1.445-.578 2.046-.426 1.085.276 2.094 1.491 1.763 2.124-.198.377-.757.36-1.363-.04-.633-.42-1.552-.42-2.085 0-.229.179-.564.326-.746.326-.354 0-.818.571-1.158 1.423-.166.418-.17.693-.013 1.345.23.956.645 1.542 1.354 1.909.665.344 2.379.2 3.167-.265.692-.408 1.297-.424 1.502-.04.232.432-.03.763-1.084 1.372-.897.518-1.01.542-2.634.542h-1.696l-.344-.488a8.262 8.262 0 00-.883-.999c-.297-.281-.596-.723-.665-.982-.188-.7-.578-.658-1.36.152-.386.399-.853.771-1.039.828-.185.057-.613.356-.95.665-.358.328-.976.667-1.484.815-.992.289-1.061.29-1.995.033z"/></svg>