<?xml version="1.0" encoding="UTF-8" standalone="no"?>
<svg
   xmlns:dc="http://purl.org/dc/elements/1.1/"
   xmlns:cc="http://creativecommons.org/ns#"
   xmlns:rdf="http://www.w3.org/1999/02/22-rdf-syntax-ns#"
   xmlns:svg="http://www.w3.org/2000/svg"
   xmlns="http://www.w3.org/2000/svg"
   id="svg2094"
   viewBox="0 0 38.23482 16.753592"
   version="1.1"
   height="16.753592"
   width="38.234821">
  <defs
     id="defs2098" />
  <metadata
     id="metadata2">
    <rdf:RDF>
      <cc:Work
         rdf:about="">
        <dc:format>image/svg+xml</dc:format>
        <dc:type
           rdf:resource="http://purl.org/dc/dcmitype/StillImage" />
        <dc:title />
      </cc:Work>
    </rdf:RDF>
  </metadata>
  <g
     transform="translate(-192.76988,-365.42476)"
     id="g2092">
    <g
       style="stroke-width:0.16327"
       id="g2081">
      <path
         d="m 193.02,373.02 c -0.0887,-0.11224 -0.19777,-0.31428 -0.24229,-0.44898 -0.0847,-0.25618 0.535,-1.4782 1.036,-2.043 0.8472,-0.95513 0.95432,-2.5327 0.21982,-3.2372 -0.53433,-0.51254 -0.62901,-0.97915 -0.26543,-1.3082 0.41005,-0.3711 0.84594,-0.18857 1.5027,0.62928 0.85345,1.0627 1.024,1.6016 0.72981,2.3056 -0.1359,0.32525 -0.24708,0.78553 -0.24708,1.0228 0,0.5649 -0.52031,1.518 -1.3627,2.4962 -0.6831,0.79321 -1.0737,0.95946 -1.3709,0.58351 z m 10.325,9.0684 c -1.2614,-0.11659 -3.6713,-1.2934 -4.0604,-1.9828 -0.1015,-0.17985 -0.376,-0.65334 -0.60999,-1.0522 -0.52103,-0.88803 -0.6841,-2.1988 -0.48152,-3.8702 0.47906,-3.9524 0.65574,-5.6513 0.60281,-5.7959 -0.0328,-0.0898 0.0321,-0.92368 0.14439,-1.8531 0.23391,-1.9364 0.45437,-2.3255 1.1405,-2.0128 l 0.42138,0.192 -0.0977,2.3267 c -0.0538,1.2797 -0.16307,2.6206 -0.24286,2.9798 -0.21685,0.97602 -0.41161,3.7198 -0.38472,5.4198 0.0315,1.9891 0.3786,2.6552 1.7839,3.4234 1.2002,0.65609 2.2751,0.86822 3.5801,0.70653 1.6102,-0.19951 5.3462,-1.2807 6.9068,-1.9988 0.38649,-0.17785 1.1212,-0.37909 1.6327,-0.44718 0.51146,-0.0681 1.3708,-0.28453 1.9095,-0.48094 1.4112,-0.51446 2.7949,-0.92008 3.9184,-1.1486 0.53877,-0.1096 1.1633,-0.27828 1.3878,-0.37485 0.22449,-0.0966 1.4015,-0.20766 2.6156,-0.24684 2.358,-0.0761 4.3572,0.18321 5.4647,0.70878 0.75354,0.35757 1.6022,1.8753 1.8916,3.3827 0.2026,1.0554 0.19649,1.1234 -0.13011,1.45 -0.2488,0.24878 -0.45698,0.31399 -0.75985,0.23797 -0.43615,-0.10947 -0.45063,-0.14498 -0.92615,-2.2723 -0.24712,-1.1054 -0.91538,-1.8149 -1.9074,-2.0252 -1.1113,-0.23553 -5.2482,-0.12942 -6.6524,0.17065 -0.71605,0.15301 -1.3736,0.34989 -1.4612,0.43751 -0.0876,0.0876 -0.42379,0.1593 -0.74705,0.1593 -0.32327,0 -0.65755,0.0621 -0.74286,0.1379 -0.18573,0.16514 -1.654,0.67698 -3.3388,1.1639 -1.6248,0.46959 -3.5145,1.143 -4.2272,1.5063 -0.3171,0.16166 -0.76304,0.29498 -0.99099,0.29631 -0.22795,0.002 -0.73714,0.11474 -1.1315,0.25208 -0.85822,0.29886 -3.0694,0.73614 -3.5278,0.69765 -0.1796,-0.015 -0.62041,-0.0546 -0.9796,-0.0878 z"
         id="attend" />
    </g>
  </g>
</svg>
