<?xml version="1.0" encoding="UTF-8" standalone="no"?>
<svg
   xmlns:dc="http://purl.org/dc/elements/1.1/"
   xmlns:cc="http://creativecommons.org/ns#"
   xmlns:rdf="http://www.w3.org/1999/02/22-rdf-syntax-ns#"
   xmlns:svg="http://www.w3.org/2000/svg"
   xmlns="http://www.w3.org/2000/svg"
   id="svg2094"
   viewBox="0 0 25.757364 23.286114"
   version="1.1"
   height="23.286114"
   width="25.757364">
  <defs
     id="defs2098" />
  <metadata
     id="metadata2">
    <rdf:RDF>
      <cc:Work
         rdf:about="">
        <dc:format>image/svg+xml</dc:format>
        <dc:type
           rdf:resource="http://purl.org/dc/dcmitype/StillImage" />
        <dc:title />
      </cc:Work>
    </rdf:RDF>
  </metadata>
  <g
     transform="translate(-193.73651,-413.89542)"
     id="g2092">
    <g
       style="stroke-width:0.16327"
       id="g2081">
      <path
         d="m 193.8,422.04 c -0.19902,-0.37185 0.0939,-1.2422 0.54363,-1.6151 0.33998,-0.28194 0.76051,-1.6747 0.76051,-2.5188 0,-0.35328 -0.12294,-0.98848 -0.2732,-1.4115 -0.32336,-0.91046 -0.21774,-1.3154 0.34309,-1.3154 0.45655,0 1.2362,0.73939 1.2362,1.1724 0,0.15275 0.0735,0.32315 0.16326,0.37865 0.22165,0.13698 0.19404,1.4513 -0.0514,2.449 -0.33077,1.3444 -1.6864,3.1837 -2.3465,3.1837 -0.11156,0 -0.28057,-0.14526 -0.3756,-0.32281 z m 23.995,6.5219 c -0.12676,-0.23685 -0.12839,-0.7712 -0.006,-1.8711 0.27521,-2.4682 0.23402,-3.2333 -0.19568,-3.6344 -0.57622,-0.53785 -1.0999,-0.58764 -2.1294,-0.20249 -0.97173,0.36358 -1.7397,1.1204 -2.3179,2.2844 -0.15613,0.31429 -0.45172,0.7551 -0.65686,0.97959 -0.20515,0.22449 -0.47445,0.7745 -0.59845,1.2223 -0.17553,0.63389 -0.3216,0.84791 -0.65984,0.96687 -0.31402,0.11043 -0.5088,0.091 -0.70294,-0.0701 -0.30671,-0.25455 -0.2966,-0.34017 0.32598,-2.761 0.46256,-1.7986 0.4537,-2.6099 -0.0344,-3.1539 -0.44932,-0.50071 -1.5239,-0.25376 -2.3845,0.54797 -0.18252,0.17004 -0.41362,0.30918 -0.51354,0.30918 -0.0999,0 -0.49678,0.33061 -0.88189,0.73469 -0.38511,0.40408 -0.76557,0.73469 -0.84544,0.73469 -0.0799,0 -0.29082,0.28539 -0.46878,0.63421 -0.47327,0.9277 -2.1053,2.4678 -2.615,2.4678 -0.17274,0 -0.35948,0.0735 -0.41498,0.16326 -0.16063,0.25992 -1.5855,0.16624 -2.1224,-0.13954 -0.29997,-0.17083 -0.67391,-0.64531 -0.96484,-1.2243 -0.46254,-0.92047 -0.46986,-0.97345 -0.27818,-2.0138 0.10827,-0.58763 0.26164,-1.9824 0.34081,-3.0996 0.22501,-3.1752 0.6546,-6.2842 0.95483,-6.9106 0.29941,-0.62462 0.82956,-0.82062 1.156,-0.42734 0.21393,0.25778 0.0611,2.1983 -0.38734,4.9171 -0.11848,0.71837 -0.22526,1.7837 -0.23729,2.3674 -0.0121,0.58367 -0.10756,1.5388 -0.21233,2.1224 -0.10475,0.58367 -0.18309,1.343 -0.17406,1.6873 0.0206,0.78574 0.56528,1.4147 1.2252,1.4147 0.68916,0 1.718,-0.58611 2.0058,-1.1427 0.3557,-0.68786 1.6591,-2.1295 2.3619,-2.6124 0.32671,-0.22449 0.74541,-0.5634 0.93042,-0.75311 0.38029,-0.38996 2.3,-1.3368 2.9903,-1.4748 0.66647,-0.13329 1.496,0.33189 1.9215,1.0775 0.20204,0.35403 0.36735,0.75772 0.36735,0.89706 0,0.16143 0.14813,0.25338 0.40816,0.25338 0.22449,0 0.40816,-0.0599 0.40816,-0.13321 0,-0.0733 0.31225,-0.30655 0.69388,-0.51843 0.38163,-0.21187 0.73061,-0.42867 0.77551,-0.48175 0.14692,-0.1737 1.6232,-0.49927 2.2639,-0.49927 0.70057,0 1.5122,0.47302 2.0446,1.1916 0.26161,0.35311 0.33562,0.68694 0.32576,1.4694 -0.0167,1.3288 -0.44189,4.179 -0.69288,4.6451 -0.24621,0.45729 -0.76973,0.47595 -1.0053,0.0358 z m -2.6504,8.5455 c -0.39691,-0.10372 -0.38052,-1.3103 0.0338,-2.4888 0.2975,-0.84627 0.4162,-1.2766 0.84523,-3.0648 0.18106,-0.75461 0.56628,-0.99804 1.1148,-0.70447 0.38327,0.20511 0.45739,1.1005 0.13971,1.6875 -0.17297,0.31963 -0.44116,1.5179 -0.72826,3.2538 -0.0556,0.33631 -0.27166,0.79549 -0.4801,1.0204 -0.38546,0.4159 -0.42244,0.42775 -0.92518,0.29637 z"
         id="attention" />
    </g>
  </g>
</svg>
