<svg xmlns="http://www.w3.org/2000/svg" height="32.308" width="52.16"><path d="M.182 9.435c-.333-.333-.235-.603.515-1.407.965-1.036 1.36-2.362 1.089-3.666-.103-.493-.291-1.035-.42-1.204-.31-.41-.303-1.114.013-1.376.336-.28 1-.045 1.403.498.427.575.739 3.067.487 3.906-.102.342-.188.796-.19 1.01-.006.554-1.572 2.22-2.203 2.343-.296.058-.574.017-.694-.104zm37.602 10.622c.744-.187.747-.19 1.565-1.81.176-.347.305-.947.305-1.41 0-.666-.093-.923-.53-1.47-.445-.554-.63-.663-1.137-.67-.388-.005-.71.101-.898.297-.16.168-.534.43-.83.58-.297.151-.583.4-.636.552-.053.152-.41.607-.792 1.011-.383.405-.863 1.13-1.066 1.611l-.371.876.395.304c.316.243.686.305 1.834.308.79.002 1.763-.078 2.16-.178zM28.44 32.192c-.51-.324-.551-1.757-.086-2.973.086-.225.357-1.217.603-2.204.245-.988.544-1.98.664-2.205.247-.463 1.037-3.096 1.15-3.836.175-1.13.468-2.308.65-2.612.262-.435.636-2.423.516-2.736-.105-.274-1.313-.267-7.63.044-1.75.086-4.542.2-6.204.25-1.66.052-4.217.206-5.68.341-2.896.27-3.578.207-5.25-.475-1.097-.449-1.56-.895-1.868-1.806-.218-.64-.21-.836.08-2.141.176-.79.31-1.886.3-2.436-.012-.55.051-1.699.14-2.552.096-.916.105-1.91.023-2.43-.137-.86.033-3.566.26-4.141.13-.33.776-.382 1.018-.082.167.206.473 2.442.397 2.898-.022.135-.098 1.898-.169 3.919-.072 2.075-.205 3.815-.305 4-.097.18-.23.811-.292 1.404-.114 1.072-.112 1.082.432 1.596.768.726 1.988 1.046 3.945 1.035.886-.005 1.953-.088 2.372-.185.418-.096 2.818-.258 5.332-.36 6.396-.258 6.44-.26 10.498-.485 4.207-.232 4.074-.27 4.228 1.214.053.517.175.92.276.917.1-.003.549-.436.998-.962.614-.72 1.058-1.06 1.796-1.375 1.494-.639 1.701-.655 2.7-.213.853.377.923.454 1.345 1.48.507 1.236.548 1.916.195 3.27-.136.525-.215.988-.174 1.029.117.117 1.076-.132 1.076-.28 0-.072.28-.243.62-.38.577-.23 3.215-2.672 4.639-4.294.596-.679 1.13-1.606 1.352-2.35.068-.225.323-.85.568-1.388.245-.539.618-1.384.83-1.878.21-.494.485-1.02.608-1.17.124-.148.246-.516.273-.815.18-2.044.357-2.706.782-2.933.532-.285.804.207.685 1.237-.162 1.396-.582 3.24-.894 3.926-.163.36-.34.85-.39 1.09-.052.242-.204.549-.338.683-.135.135-.245.379-.245.542 0 .164-.148.538-.327.832-.18.294-.326.668-.326.831 0 .163-.151.878-.336 1.588-.185.71-.433 1.88-.551 2.598-.202 1.225-.196 1.334.102 1.755.175.247.38.449.457.449.076 0 .19.233.253.518.088.401.047.568-.182.735-.472.345-.88.255-1.459-.324-.555-.555-.579-.641-.82-2.93-.055-.516-.168-.938-.251-.938-.083 0-.152.108-.152.24 0 .13-.165.326-.367.434-.202.107-.735.577-1.184 1.044-.449.468-1.055.972-1.347 1.121-.291.15-.53.337-.53.418 0 .08-.267.234-.594.342a5.608 5.608 0 00-1.15.574c-.307.208-.977.464-1.489.57-.512.104-1.143.255-1.404.335a3.72 3.72 0 01-.906.146c-.238 0-.514.082-.614.181-.107.108-.468.145-.89.091-.39-.049-1.132-.14-1.65-.2-.518-.062-.982-.177-1.03-.255-.148-.24-.657-.16-.92.143-.136.157-.297.506-.357.775-.1.445-.365 1.096-.795 1.948-.326.645-.57 1.589-.937 3.603-.25 1.374-1.12 3.879-1.432 4.123-.302.235-.374.244-.638.075z"/></svg>