<svg xmlns="http://www.w3.org/2000/svg" height="15.98" width="51.588"><path d="M0 7.83c0-.434.41-1.22.777-1.492.716-.529.937-1.142.937-2.589 0-1.053-.07-1.502-.286-1.831-.59-.902-.144-1.616.729-1.164.74.382 1.108 1.319 1.108 2.813 0 1.453-.215 2.109-1.111 3.393C1.393 8.05 0 8.612 0 7.83zm50.231 7.083c-.06-.06-.109-1.294-.109-2.743 0-1.449-.067-2.704-.15-2.789-.081-.085-.173-.339-.203-.563-.042-.312-.21-.46-.708-.625-.561-.187-.768-.181-1.47.043-1.293.412-2.41 1.606-2.612 2.791-.06.357-.25.96-.422 1.34-.172.38-.313.858-.313 1.061-.002.495-.586 1.43-.895 1.43-.274 0-.9-.563-.9-.81 0-.086.14-.512.31-.946.185-.468.36-1.463.43-2.444.107-1.52.088-1.7-.232-2.219-.192-.31-.495-.602-.673-.649-.23-.06-.325-.223-.325-.557 0-.962.875-1.179 1.498-.372 1.13 1.467 1.144 1.48 1.5 1.368.192-.06.386-.153.43-.209.045-.055.513-.316 1.04-.58.767-.383 1.233-.493 2.327-.55 1.34-.07 1.377-.062 1.792.397.712.787 1.046 2.037 1.042 3.892-.004 1.45-.063 1.952-.41 3.476-.08.357-.684.522-.947.258zm-41.48.87c-.612-.131-.979-.351-1.563-.936-1.211-1.21-1.351-1.641-1.26-3.878.042-1.049.158-2.56.258-3.358s.206-2.751.236-4.34.108-2.974.173-3.08c.18-.29 1.188-.237 1.305.069.174.45.106 2.662-.181 5.945-.39 4.452-.38 6.273.036 7.095.292.577.437.677 1.386.956.934.274 1.187.288 2.123.115l2.205-.407c1.122-.206 2.299-.54 3.591-1.017.876-.323 2.985-1.027 3.593-1.2.269-.076 1.114-.37 1.877-.652 1.515-.56 1.72-.619 4.245-1.208 4.21-.982 8.928-.576 10.803.931.929.747 1.237 1.349 1.366 2.67.113 1.149-.05 1.86-.427 1.86-.44 0-.925-.79-1.038-1.693-.142-1.131-.76-1.932-1.882-2.436-.666-.3-1.06-.332-3.924-.325-3.423.01-5.737.297-6.939.862-.359.17-1.02.392-1.469.495-1.19.273-2.337.644-3.265 1.056-.854.379-1.467.585-2.694.907-.404.105-1.029.325-1.388.489-1.194.542-4.601 1.31-5.665 1.276-.386-.012-1.062-.1-1.502-.195z"/></svg>