<svg xmlns="http://www.w3.org/2000/svg" height="23.286" width="25.757"><path d="M.063 8.145c-.199-.372.094-1.243.544-1.616.34-.281.76-1.674.76-2.518 0-.354-.122-.989-.273-1.412-.323-.91-.217-1.315.344-1.315.456 0 1.236.74 1.236 1.172 0 .153.073.323.163.379.222.137.194 1.451-.051 2.449C2.455 6.628 1.099 8.468.439 8.468c-.111 0-.28-.146-.376-.323zm23.995 6.521c-.126-.236-.128-.77-.006-1.87.276-2.469.235-3.234-.195-3.635-.576-.538-1.1-.588-2.13-.203-.971.364-1.74 1.12-2.317 2.285a5.124 5.124 0 01-.657.98c-.205.224-.475.774-.599 1.222-.175.634-.321.848-.66.967-.314.11-.508.09-.703-.07-.306-.255-.296-.34.326-2.761.463-1.799.454-2.61-.034-3.154-.45-.501-1.524-.254-2.384.548-.183.17-.414.309-.514.309-.1 0-.497.33-.882.734-.385.405-.765.735-.845.735-.08 0-.291.286-.47.634-.472.928-2.104 2.468-2.614 2.468-.173 0-.36.074-.415.163-.16.26-1.586.167-2.123-.14-.3-.17-.673-.644-.964-1.223-.463-.92-.47-.974-.279-2.014.109-.588.262-1.983.341-3.1.225-3.175.655-6.284.955-6.91.3-.625.83-.821 1.156-.428.214.258.061 2.199-.387 4.917a20.377 20.377 0 00-.238 2.368 16.463 16.463 0 01-.212 2.122c-.105.584-.183 1.343-.174 1.687.02.786.565 1.415 1.225 1.415.69 0 1.718-.586 2.006-1.143.356-.687 1.66-2.129 2.362-2.612.327-.224.745-.563.93-.753.38-.39 2.3-1.337 2.99-1.475.667-.133 1.497.332 1.922 1.078.202.354.368.757.368.897 0 .161.148.253.408.253.224 0 .408-.06.408-.133 0-.073.312-.307.694-.519.381-.211.73-.428.775-.481.147-.174 1.623-.5 2.264-.5.7 0 1.512.473 2.045 1.192.261.353.335.687.326 1.47-.017 1.328-.442 4.178-.693 4.645-.247.457-.77.475-1.006.035zm-2.65 8.546c-.397-.104-.38-1.31.034-2.489.297-.846.416-1.276.845-3.065.181-.754.566-.998 1.115-.704.383.205.457 1.1.14 1.687-.173.32-.442 1.518-.729 3.254-.055.337-.271.796-.48 1.02-.385.417-.422.428-.925.297z" stroke-width=".163"/></svg>