<?xml version="1.0" encoding="UTF-8" standalone="no"?>
<svg
   xmlns:dc="http://purl.org/dc/elements/1.1/"
   xmlns:cc="http://creativecommons.org/ns#"
   xmlns:rdf="http://www.w3.org/1999/02/22-rdf-syntax-ns#"
   xmlns:svg="http://www.w3.org/2000/svg"
   xmlns="http://www.w3.org/2000/svg"
   id="svg2094"
   viewBox="0 0 52.160368 32.307579"
   version="1.1"
   height="32.307579"
   width="52.16037">
  <defs
     id="defs2098" />
  <metadata
     id="metadata2">
    <rdf:RDF>
      <cc:Work
         rdf:about="">
        <dc:format>image/svg+xml</dc:format>
        <dc:type
           rdf:resource="http://purl.org/dc/dcmitype/StillImage" />
        <dc:title />
      </cc:Work>
    </rdf:RDF>
  </metadata>
  <g
     transform="translate(-193.3284,-339.43458)"
     id="g2092">
    <g
       style="stroke-width:0.16327"
       id="g2081">
      <path
         d="m 193.51,348.87 c -0.33308,-0.33308 -0.23411,-0.60328 0.5156,-1.4077 0.96518,-1.0356 1.359,-2.3618 1.0883,-3.6655 -0.1024,-0.49325 -0.29086,-1.0351 -0.41877,-1.204 -0.30996,-0.40937 -0.30399,-1.1145 0.0118,-1.3765 0.33695,-0.27964 1.0002,-0.0443 1.4031,0.4979 0.42769,0.57551 0.73887,3.0677 0.48772,3.906 -0.10243,0.34192 -0.18803,0.79681 -0.19022,1.0109 -0.006,0.55378 -1.5718,2.219 -2.2035,2.3428 -0.29581,0.058 -0.57352,0.0164 -0.69388,-0.10397 z m 37.602,10.622 c 0.74471,-0.18751 0.74787,-0.19117 1.5656,-1.8101 0.17541,-0.34728 0.30526,-0.94743 0.30526,-1.4109 0,-0.66526 -0.093,-0.92257 -0.53062,-1.4688 -0.44444,-0.55474 -0.62899,-0.66367 -1.1365,-0.67072 -0.38796,-0.005 -0.71096,0.10156 -0.89796,0.29735 -0.16066,0.16818 -0.53465,0.42916 -0.83109,0.57997 -0.29646,0.15079 -0.58232,0.3989 -0.63522,0.55136 -0.0529,0.15244 -0.40933,0.60779 -0.79206,1.0119 -0.38271,0.40408 -0.86263,1.1289 -1.0665,1.6107 l -0.37061,0.87597 0.39556,0.30406 c 0.31587,0.24281 0.68524,0.3048 1.8335,0.30771 0.79084,0.002 1.7631,-0.0783 2.1606,-0.17837 z m -9.3434,12.135 c -0.50978,-0.32415 -0.55135,-1.7577 -0.0862,-2.9738 0.0859,-0.22449 0.35703,-1.2163 0.60256,-2.2041 0.24554,-0.98775 0.54444,-1.9796 0.66421,-2.2041 0.24727,-0.4634 1.037,-3.096 1.151,-3.8367 0.17395,-1.1306 0.46675,-2.3074 0.64993,-2.6122 0.26109,-0.43455 0.6358,-2.4224 0.51564,-2.7356 -0.10498,-0.27357 -1.3137,-0.26658 -7.6298,0.0442 -1.751,0.0862 -4.5429,0.19894 -6.2041,0.25065 -1.6612,0.0517 -4.2173,0.20501 -5.6802,0.3407 -2.8967,0.26865 -3.5781,0.20689 -5.2495,-0.47572 -1.0977,-0.4483 -1.5599,-0.89488 -1.8692,-1.8058 -0.21753,-0.64075 -0.21019,-0.83632 0.0805,-2.141 0.17596,-0.78968 0.31057,-1.886 0.29914,-2.4362 -0.0114,-0.55025 0.0522,-1.6984 0.14134,-2.5515 0.0958,-0.91654 0.10491,-1.9108 0.0222,-2.4305 -0.13682,-0.86005 0.0328,-3.5657 0.25955,-4.141 0.13011,-0.33001 0.77635,-0.38176 1.0192,-0.0816 0.16625,0.20547 0.47226,2.4421 0.3965,2.898 -0.0224,0.1347 -0.0983,1.898 -0.16863,3.9184 -0.0723,2.075 -0.20511,3.8156 -0.30529,4 -0.0975,0.17959 -0.2291,0.81179 -0.2923,1.4049 -0.11417,1.0713 -0.11134,1.0817 0.43217,1.5957 0.7681,0.72627 1.9877,1.0461 3.9453,1.0345 0.88565,-0.005 1.9528,-0.0881 2.3713,-0.18418 0.41858,-0.0961 2.8182,-0.25802 5.3325,-0.35985 6.3958,-0.25905 6.4399,-0.26108 10.498,-0.48545 4.207,-0.23259 4.0743,-0.27068 4.2275,1.2134 0.0534,0.51722 0.17511,0.92103 0.27658,0.9175 0.0997,-0.003 0.54859,-0.43657 0.99757,-0.96242 0.61469,-0.71993 1.0583,-1.0595 1.7959,-1.3749 1.494,-0.63872 1.7014,-0.6551 2.7006,-0.2132 0.85295,0.37722 0.92327,0.45466 1.3446,1.4807 0.50758,1.236 0.54826,1.9157 0.19572,3.2692 -0.13688,0.52552 -0.21559,0.98877 -0.17494,1.0294 0.11695,0.11693 1.0769,-0.13169 1.0769,-0.27892 0,-0.0729 0.27882,-0.24413 0.61962,-0.38049 0.57724,-0.23096 3.2146,-2.6726 4.6386,-4.2943 0.59607,-0.67882 1.13,-1.6066 1.3527,-2.3504 0.0672,-0.22449 0.32254,-0.84898 0.56744,-1.3878 0.24488,-0.53877 0.61819,-1.3837 0.82955,-1.8776 0.21137,-0.49388 0.48531,-1.0201 0.60879,-1.1694 0.12347,-0.14932 0.24615,-0.51667 0.27262,-0.81632 0.18054,-2.0441 0.35689,-2.7054 0.78231,-2.933 0.53178,-0.28459 0.80373,0.20701 0.68458,1.2375 -0.16138,1.3956 -0.58126,3.2406 -0.89355,3.9262 -0.1636,0.35918 -0.33932,0.84996 -0.39049,1.0906 -0.0512,0.24065 -0.20313,0.54765 -0.33769,0.6822 -0.13457,0.13456 -0.24494,0.37848 -0.24526,0.54204 0,0.16356 -0.14728,0.53793 -0.32653,0.83194 -0.17927,0.294 -0.32593,0.66796 -0.32593,0.83102 0,0.16305 -0.15133,0.87761 -0.33631,1.5879 -0.18496,0.71029 -0.43308,1.8792 -0.55136,2.5976 -0.20172,1.2251 -0.19535,1.334 0.10253,1.7551 0.17466,0.24693 0.38021,0.44898 0.45675,0.44898 0.0765,0 0.19045,0.2334 0.25311,0.51867 0.088,0.40072 0.0467,0.56781 -0.1815,0.7347 -0.47215,0.34524 -0.88025,0.2545 -1.4592,-0.32444 -0.55476,-0.55476 -0.5788,-0.64059 -0.82058,-2.9289 -0.0546,-0.51633 -0.16737,-0.93878 -0.25071,-0.93878 -0.0833,0 -0.15151,0.10762 -0.15151,0.23915 0,0.13154 -0.16531,0.32709 -0.36735,0.43455 -0.20204,0.10746 -0.7347,0.5776 -1.1837,1.0447 -0.44898,0.46715 -1.0551,0.97145 -1.3469,1.1207 -0.29184,0.14923 -0.53062,0.33721 -0.53062,0.41773 0,0.0805 -0.26713,0.23458 -0.59363,0.34234 -0.3265,0.10775 -0.8445,0.36615 -1.1511,0.57422 -0.30659,0.20808 -0.97619,0.464 -1.488,0.56873 -0.51179,0.10474 -1.1435,0.25612 -1.4039,0.33639 -0.26034,0.0803 -0.6681,0.14598 -0.90612,0.14598 -0.23804,0 -0.51419,0.0814 -0.61368,0.1809 -0.10753,0.10752 -0.46841,0.14447 -0.8898,0.0911 -0.38989,-0.0494 -1.1327,-0.14001 -1.6507,-0.20137 -0.51798,-0.0613 -0.98151,-0.1758 -1.03,-0.25435 -0.14766,-0.23892 -0.65663,-0.15984 -0.91971,0.14292 -0.13656,0.15715 -0.29742,0.50613 -0.35747,0.77551 -0.0991,0.44458 -0.36487,1.0958 -0.79491,1.948 -0.32538,0.64478 -0.57076,1.5888 -0.93647,3.603 -0.24947,1.3739 -1.1198,3.8784 -1.4327,4.1224 -0.30199,0.23563 -0.37326,0.2441 -0.63791,0.0758 z"
         id="attempt" />
    </g>
  </g>
</svg>
