<svg xmlns="http://www.w3.org/2000/svg" height="16.754" width="38.235"><path d="M.25 7.595a1.76 1.76 0 01-.242-.449c-.085-.256.535-1.478 1.036-2.043.847-.955.954-2.532.22-3.237C.729 1.354.634.886.998.558c.41-.371.846-.189 1.503.63.853 1.062 1.024 1.6.73 2.305-.136.325-.247.785-.247 1.023 0 .564-.52 1.518-1.363 2.496-.683.793-1.074.96-1.37.583zm10.325 9.069c-1.261-.117-3.671-1.294-4.06-1.983-.102-.18-.376-.654-.61-1.052-.521-.888-.684-2.2-.482-3.87.48-3.953.656-5.652.603-5.796-.033-.09.032-.924.144-1.854C6.404.173 6.625-.216 7.31.097l.422.192-.097 2.326c-.054 1.28-.163 2.62-.243 2.98-.217.976-.412 3.72-.385 5.42.032 1.989.379 2.655 1.784 3.423 1.2.656 2.275.869 3.58.707 1.61-.2 5.346-1.28 6.907-1.999.386-.178 1.121-.379 1.633-.447.511-.068 1.37-.285 1.909-.481 1.411-.515 2.795-.92 3.918-1.149.54-.11 1.164-.278 1.388-.375.225-.096 1.402-.207 2.616-.246 2.358-.076 4.357.183 5.465.708.753.358 1.602 1.876 1.891 3.383.203 1.056.197 1.124-.13 1.45-.249.249-.457.314-.76.238-.436-.11-.45-.145-.926-2.272-.247-1.106-.915-1.815-1.907-2.025-1.112-.236-5.249-.13-6.653.17-.716.153-1.373.35-1.461.438-.088.087-.424.16-.747.16s-.658.061-.743.137c-.186.165-1.654.677-3.339 1.164-1.625.47-3.514 1.143-4.227 1.506-.317.162-.763.295-.99.296-.229.002-.738.115-1.132.253-.859.298-3.07.736-3.528.697-.18-.015-.62-.054-.98-.088z" stroke-width=".163"/></svg>