<?xml version="1.0" encoding="UTF-8" standalone="no"?>
<svg
   xmlns:dc="http://purl.org/dc/elements/1.1/"
   xmlns:cc="http://creativecommons.org/ns#"
   xmlns:rdf="http://www.w3.org/1999/02/22-rdf-syntax-ns#"
   xmlns:svg="http://www.w3.org/2000/svg"
   xmlns="http://www.w3.org/2000/svg"
   id="svg2094"
   viewBox="0 0 51.587592 15.980027"
   version="1.1"
   height="15.980027"
   width="51.587593">
  <defs
     id="defs2098" />
  <metadata
     id="metadata2">
    <rdf:RDF>
      <cc:Work
         rdf:about="">
        <dc:format>image/svg+xml</dc:format>
        <dc:type
           rdf:resource="http://purl.org/dc/dcmitype/StillImage" />
        <dc:title />
      </cc:Work>
    </rdf:RDF>
  </metadata>
  <g
     transform="translate(-193.14,-390.52985)"
     id="g2092">
    <g
       style="stroke-width:0.16327"
       id="g2081">
      <path
         d="m 193.14,398.36 c 0,-0.43453 0.40923,-1.22 0.77742,-1.4922 0.71512,-0.52864 0.93688,-1.1416 0.93657,-2.589 0,-1.0531 -0.0703,-1.5022 -0.28571,-1.831 -0.5911,-0.90214 -0.14472,-1.6156 0.72834,-1.1641 0.73951,0.38242 1.1087,1.3191 1.1087,2.813 0,1.4532 -0.21486,2.109 -1.1115,3.3927 -0.76105,1.0896 -2.1538,1.6525 -2.1538,0.87052 z m 50.231,7.0828 c -0.0599,-0.0598 -0.10885,-1.2941 -0.10885,-2.7428 0,-1.4487 -0.0673,-2.7038 -0.14944,-2.7891 -0.0822,-0.0853 -0.17404,-0.33871 -0.20408,-0.56314 -0.0417,-0.31151 -0.20912,-0.45943 -0.7077,-0.6253 -0.56124,-0.18675 -0.76784,-0.18071 -1.4694,0.043 -1.2937,0.41241 -2.411,1.6064 -2.6128,2.7918 -0.0606,0.35615 -0.25058,0.95899 -0.42219,1.3396 -0.17159,0.38066 -0.31228,0.85821 -0.3126,1.0612 -0.002,0.49474 -0.58622,1.4304 -0.89496,1.4304 -0.27401,0 -0.90036,-0.56369 -0.90036,-0.81029 0,-0.0865 0.14,-0.51239 0.3111,-0.94648 0.18441,-0.46785 0.35886,-1.463 0.4284,-2.4438 0.10775,-1.5199 0.0889,-1.7005 -0.2313,-2.2186 -0.19174,-0.31023 -0.49473,-0.60228 -0.67331,-0.64898 -0.2297,-0.0601 -0.32468,-0.2231 -0.32468,-0.55734 0,-0.96165 0.87538,-1.1789 1.4978,-0.37177 1.1306,1.4662 1.1447,1.4791 1.5006,1.3681 0.19172,-0.0598 0.38532,-0.15388 0.43022,-0.20913 0.0449,-0.0553 0.51291,-0.31611 1.04,-0.57972 0.76641,-0.38325 1.2325,-0.49366 2.3266,-0.55108 1.3394,-0.0703 1.3771,-0.062 1.7924,0.39764 0.71125,0.78707 1.0456,2.0369 1.0411,3.8918 -0.004,1.4499 -0.0625,1.9517 -0.40861,3.4757 -0.0812,0.35748 -0.68446,0.52199 -0.94795,0.25849 z m -41.48,0.87082 c -0.61182,-0.1321 -0.979,-0.35203 -1.5635,-0.93649 -1.2107,-1.2107 -1.3506,-1.6413 -1.26,-3.8784 0.0425,-1.0484 0.1587,-2.5594 0.2583,-3.3577 0.0996,-0.7983 0.20595,-2.7514 0.23628,-4.3401 0.0303,-1.5888 0.10815,-2.9744 0.1729,-3.0792 0.17941,-0.29031 1.1882,-0.23793 1.3055,0.0678 0.17304,0.45094 0.1055,2.6622 -0.1816,5.9458 -0.38927,4.452 -0.38008,6.2724 0.0358,7.0941 0.29238,0.57765 0.43742,0.67768 1.3867,0.95631 0.93404,0.27417 1.1865,0.28787 2.1224,0.1151 0.58426,-0.10785 1.5766,-0.29081 2.2051,-0.40655 1.1224,-0.20669 2.2988,-0.53983 3.5913,-1.0171 0.87592,-0.32338 2.9851,-1.0278 3.5924,-1.1998 0.26939,-0.0763 1.1143,-0.36984 1.8776,-0.65234 1.5148,-0.56065 1.7191,-0.61883 4.2449,-1.2082 4.2096,-0.98233 8.9276,-0.57554 10.803,0.93141 0.92869,0.74632 1.237,1.3486 1.3661,2.6689 0.11244,1.1496 -0.0508,1.861 -0.42697,1.861 -0.44116,0 -0.92551,-0.78981 -1.0384,-1.6933 -0.14135,-1.1313 -0.75985,-1.9322 -1.8817,-2.4363 -0.66568,-0.29917 -1.0608,-0.33182 -3.9239,-0.32425 -3.4236,0.009 -5.7374,0.29646 -6.9388,0.86188 -0.35919,0.16905 -1.0204,0.39166 -1.4694,0.49469 -1.1895,0.273 -2.3366,0.64399 -3.2653,1.0561 -0.85381,0.37884 -1.4669,0.58513 -2.6939,0.90642 -0.40408,0.10579 -1.0286,0.32594 -1.3878,0.48919 -1.1938,0.54259 -4.6013,1.3102 -5.6649,1.2762 -0.38635,-0.0124 -1.0623,-0.10018 -1.5021,-0.19513 z"
         id="attendance" />
    </g>
  </g>
</svg>
