<svg xmlns="http://www.w3.org/2000/svg" height="23.771" width="33.309"><path d="M11.162 4.163c-.364-.364-.088-1.481.414-1.674.416-.16 1.1.285 1.155.75.085.737-1.073 1.42-1.569.924zM.136 8.17c-.314-.315-.07-1.118.583-1.91.38-.461.753-.883.828-.937.226-.164.432-1.306.436-2.423.003-.926-.05-1.109-.44-1.517-.355-.37-.41-.52-.27-.743.096-.154.366-.303.598-.33C3.231.144 4.04 2.415 3.345 4.451c-.257.757-1.1 2.296-1.56 2.85-.582.7-1.39 1.125-1.649.866zm27.377 6.773c.418-.376.76-.774.76-.886 0-.111.185-.422.41-.691.547-.649 1.222-2.201 1.222-2.807 0-.999-.892-1.36-2.367-.958-.955.26-2.198 1.597-2.657 2.857-.745 2.044-.351 3.167 1.11 3.167.666 0 .86-.087 1.522-.682zM7.505 17.118c-.89-.156-2.254-1.125-2.903-2.06-.511-.738-.568-.93-.56-1.883.006-.705.111-1.253.312-1.632.272-.513.782-2.934 1.239-5.878.405-2.61 1.044-5.186 1.37-5.527.27-.282.853-.107.98.294.085.267-.078 1.197-.589 3.356-.141.598-.245 1.31-.557 3.836-.139 1.12-.664 2.927-1.162 4-.209.45-.38.968-.381 1.153-.003.579.642 1.709 1.067 1.87.22.084.4.212.4.285 0 .263.963.692 1.552.692 1.231 0 2.352-.473 3.408-1.44 1.124-1.028 1.837-1.865 1.984-2.33.055-.17.153-.311.218-.311.11 0 1.256-2.222 1.727-3.347.407-.974.784-2.137.927-2.857.08-.404.25-1.066.379-1.47.408-1.283.581-2.063.581-2.613 0-.938 1.193-1.406 1.407-.553.169.672-.055 2.513-.42 3.45-.182.472-.511 1.868-.732 3.103-.22 1.235-.506 2.687-.636 3.226-.13.538-.285 1.647-.346 2.464-.108 1.462-.103 1.489.303 1.755.227.149.623.27.88.27.817 0 1.974-.493 2.361-1.008.202-.268.68-.787 1.06-1.153.382-.365.695-.766.695-.89 0-.123.12-.27.266-.326.147-.057.648-.477 1.113-.934 1.535-1.508 3.123-2.5 4.455-2.785.328-.07.878-.01 1.452.157.764.222.96.231 1.13.053.181-.19.46-1.282.892-3.481.347-1.77.724-3.286.863-3.47.213-.28.685-.255.939.051.378.456-.083 3.536-1.233 8.235a39.895 39.895 0 00-.479 2.368 27.18 27.18 0 01-.406 1.996c-.19.701-.04 1.183.682 2.208.275.39-.02.84-.596.91-.335.04-.586-.099-1.045-.574-.333-.344-.694-.772-.802-.95-.188-.31-.227-.292-.816.357-.34.375-1.01.88-1.485 1.124-.732.373-.998.426-1.715.345-.74-.084-.925-.185-1.451-.788-.637-.73-.888-1.552-.804-2.628.064-.821-.286-.81-.95.028-.764.964-1.636 1.797-2.175 2.075-.265.137-1.117.328-1.893.423-1.34.166-1.443.156-2.03-.196-.912-.546-1.11-1.038-.927-2.305.083-.575.152-1.138.154-1.25.007-.439-.43-.168-.896.556l-.733 1.143c-.135.21-.288.382-.34.383-.054 0-.4.287-.769.64-.802.762-2.796 1.767-3.707 1.867-.36.04-.926.025-1.258-.034zm17.872 6.273c-.26-.219-1.091-.814-1.849-1.324-.758-.51-1.414-.978-1.46-1.04-.044-.063-.353-.28-.685-.481-.751-.456-1.118-1.122-.894-1.625.306-.685.778-.506 2.824 1.07.612.472 1.215.858 1.342.858.126 0 .52.33.876.735.356.404.743.734.86.734.48 0 .557 1.054.097 1.3-.454.243-.583.217-1.11-.227z" stroke-width=".163"/></svg>