<?xml version="1.0" encoding="UTF-8" standalone="no"?>
<svg
   xmlns:dc="http://purl.org/dc/elements/1.1/"
   xmlns:cc="http://creativecommons.org/ns#"
   xmlns:rdf="http://www.w3.org/1999/02/22-rdf-syntax-ns#"
   xmlns:svg="http://www.w3.org/2000/svg"
   xmlns="http://www.w3.org/2000/svg"
   id="svg2094"
   viewBox="0 0 33.308673 23.771036"
   version="1.1"
   height="23.771036"
   width="33.308674">
  <defs
     id="defs2098" />
  <metadata
     id="metadata2">
    <rdf:RDF>
      <cc:Work
         rdf:about="">
        <dc:format>image/svg+xml</dc:format>
        <dc:type
           rdf:resource="http://purl.org/dc/dcmitype/StillImage" />
        <dc:title />
      </cc:Work>
    </rdf:RDF>
  </metadata>
  <g
     transform="translate(-192.78765,-437.92686)"
     id="g2092">
    <g
       style="stroke-width:0.16327"
       id="g2081">
      <path
         d="m 203.95,442.09 c -0.36443,-0.36443 -0.0883,-1.4811 0.41387,-1.6738 0.41617,-0.15969 1.1003,0.28473 1.1543,0.74991 0.0856,0.73665 -1.0729,1.4192 -1.5682,0.92385 z m -11.026,4.0054 c -0.31481,-0.3148 -0.0697,-1.1178 0.58279,-1.9093 0.38039,-0.46144 0.75305,-0.88335 0.82813,-0.93755 0.22608,-0.16325 0.43138,-1.3055 0.43551,-2.4231 0.003,-0.92566 -0.0496,-1.1081 -0.44049,-1.5162 -0.35422,-0.36971 -0.40886,-0.52062 -0.26925,-0.74362 0.0963,-0.15388 0.36555,-0.30261 0.59825,-0.33053 1.3598,-0.1631 2.1675,2.108 1.474,4.1441 -0.25762,0.75633 -1.1005,2.2955 -1.5602,2.8492 -0.58217,0.70114 -1.3898,1.1258 -1.6487,0.86691 z m 27.377,6.7733 c 0.41772,-0.37534 0.75948,-0.77379 0.75948,-0.88543 0,-0.11164 0.18496,-0.42279 0.41102,-0.69145 0.54598,-0.64886 1.2216,-2.2011 1.2216,-2.8065 0,-0.99911 -0.89262,-1.3604 -2.3673,-0.95831 -0.9555,0.26054 -2.1979,1.5964 -2.6573,2.8573 -0.74484,2.044 -0.35125,3.1669 1.11,3.1669 0.66576,0 0.85993,-0.087 1.5226,-0.68245 z m -20.008,2.1763 c -0.88995,-0.15627 -2.2544,-1.1248 -2.9034,-2.061 -0.51117,-0.73739 -0.56795,-0.9283 -0.55972,-1.8819 0.006,-0.70483 0.11092,-1.2531 0.31218,-1.6326 0.27159,-0.51218 0.78179,-2.9334 1.2385,-5.8776 0.40478,-2.6093 1.0438,-5.1859 1.3706,-5.527 0.26996,-0.28168 0.85288,-0.10677 0.9801,0.29408 0.0847,0.26679 -0.0787,1.1972 -0.58922,3.3554 -0.14149,0.59811 -0.24503,1.3107 -0.55752,3.8367 -0.1385,1.1196 -0.66338,2.9263 -1.1621,4 -0.20854,0.44898 -0.37988,0.96784 -0.38075,1.153 -0.003,0.57838 0.64193,1.7086 1.0667,1.8701 0.22062,0.0839 0.40111,0.21195 0.40111,0.2846 0,0.26289 0.9621,0.69231 1.5511,0.69231 1.2315,0 2.3521,-0.4735 3.4082,-1.44 1.1239,-1.0286 1.8368,-1.8656 1.984,-2.3294 0.0545,-0.17171 0.1526,-0.3122 0.21802,-0.3122 0.11009,0 1.2562,-2.2215 1.7267,-3.3469 0.40698,-0.97343 0.78453,-2.1371 0.92696,-2.8571 0.0799,-0.40408 0.25043,-1.0653 0.37891,-1.4694 0.40804,-1.2835 0.58158,-2.0632 0.58158,-2.6132 0,-0.93802 1.1925,-1.4065 1.4068,-0.55262 0.16851,0.67135 -0.0552,2.5122 -0.41933,3.4504 -0.18271,0.47078 -0.51224,1.8667 -0.73229,3.102 -0.22005,1.2353 -0.50634,2.6869 -0.6362,3.2257 -0.12984,0.53877 -0.28553,1.6477 -0.34597,2.4643 -0.1082,1.4619 -0.10356,1.4888 0.30281,1.7551 0.22697,0.14872 0.62258,0.2704 0.87913,0.2704 0.81822,0 1.9745,-0.49376 2.3618,-1.0085 0.20182,-0.26828 0.67919,-0.78689 1.0608,-1.1525 0.38161,-0.36561 0.69388,-0.76593 0.69388,-0.88963 0,-0.12371 0.11992,-0.27092 0.26648,-0.32717 0.14656,-0.0562 0.6473,-0.47639 1.1128,-0.93365 1.5349,-1.5079 3.1233,-2.5007 4.4548,-2.7845 0.3279,-0.0699 0.87801,-0.0108 1.4521,0.15619 0.76457,0.22227 0.95984,0.23147 1.1302,0.0532 0.1809,-0.18931 0.46065,-1.2814 0.89166,-3.4808 0.347,-1.7708 0.7239,-3.286 0.86294,-3.4694 0.21329,-0.28128 0.68494,-0.25579 0.93934,0.0508 0.37829,0.45578 -0.0829,3.5353 -1.2332,8.235 -0.14286,0.58368 -0.3583,1.649 -0.47874,2.3674 -0.12045,0.71837 -0.30304,1.6166 -0.40578,1.9962 -0.18982,0.70122 -0.041,1.1834 0.68176,2.2079 0.27499,0.38985 -0.0209,0.84103 -0.59641,0.90954 -0.33446,0.0398 -0.58531,-0.0979 -1.0448,-0.57351 -0.33254,-0.34426 -0.6934,-0.77191 -0.80193,-0.95036 -0.1879,-0.309 -0.22676,-0.29197 -0.81632,0.3575 -0.34046,0.37507 -1.0087,0.88075 -1.485,1.1237 -0.7312,0.37307 -0.99789,0.42677 -1.7143,0.34516 -0.73972,-0.0843 -0.9256,-0.18518 -1.4516,-0.78818 -0.63662,-0.7298 -0.888,-1.5514 -0.80411,-2.628 0.064,-0.82069 -0.2859,-0.81027 -0.95005,0.0283 -0.7637,0.96426 -1.6359,1.7966 -2.1744,2.0751 -0.26485,0.13696 -1.1168,0.32741 -1.8932,0.42321 -1.3395,0.16531 -1.4433,0.15528 -2.0299,-0.19582 -0.91241,-0.54614 -1.1104,-1.0384 -0.92725,-2.3056 0.0831,-0.57507 0.15262,-1.1374 0.15443,-1.2497 0.007,-0.43923 -0.43066,-0.16771 -0.89587,0.55574 -0.26873,0.41789 -0.5988,0.93205 -0.7335,1.1426 -0.13469,0.21052 -0.28805,0.38287 -0.34077,0.38304 -0.0527,0 -0.39823,0.28792 -0.7678,0.63948 -0.80233,0.76324 -2.7962,1.768 -3.7078,1.8684 -0.35919,0.0396 -0.92502,0.0242 -1.2574,-0.0342 z m 17.872,6.2725 c -0.25945,-0.21831 -1.0916,-0.81389 -1.8493,-1.3235 -0.75765,-0.50963 -1.4143,-0.97776 -1.4592,-1.0403 -0.0449,-0.0625 -0.35368,-0.27896 -0.68619,-0.48098 -0.75112,-0.45633 -1.1173,-1.1223 -0.89318,-1.6245 0.30585,-0.68539 0.77774,-0.50652 2.8235,1.0703 0.61163,0.47143 1.2155,0.85714 1.3419,0.85714 0.12644,0 0.52089,0.33062 0.87658,0.7347 0.35569,0.40408 0.7428,0.73469 0.86026,0.73469 0.47874,0 0.5565,1.0539 0.0959,1.3004 -0.45328,0.24259 -0.58292,0.21598 -1.1104,-0.22791 z"
         id="attitude" />
    </g>
  </g>
</svg>
