<?xml version="1.0" encoding="UTF-8" standalone="no"?>
<svg
   xmlns:dc="http://purl.org/dc/elements/1.1/"
   xmlns:cc="http://creativecommons.org/ns#"
   xmlns:rdf="http://www.w3.org/1999/02/22-rdf-syntax-ns#"
   xmlns:svg="http://www.w3.org/2000/svg"
   xmlns="http://www.w3.org/2000/svg"
   id="svg2094"
   viewBox="0 0 49.843764 18.445286"
   version="1.1"
   height="18.445286"
   width="49.843765">
  <defs
     id="defs2098" />
  <metadata
     id="metadata2">
    <rdf:RDF>
      <cc:Work
         rdf:about="">
        <dc:format>image/svg+xml</dc:format>
        <dc:type
           rdf:resource="http://purl.org/dc/dcmitype/StillImage" />
        <dc:title />
      </cc:Work>
    </rdf:RDF>
  </metadata>
  <g
     transform="translate(-191.69102,-461.22204)"
     id="g2092">
    <g
       style="stroke-width:0.16327"
       id="g2081">
      <path
         d="m 191.87,470.5 c -0.33205,-0.33205 -0.22305,-0.63903 0.50405,-1.4198 0.385,-0.41339 0.98131,-1.2564 1.3251,-1.8734 0.53716,-0.96384 0.61356,-1.2248 0.54267,-1.8537 -0.0454,-0.4026 -0.24575,-0.95277 -0.44526,-1.2226 -0.29977,-0.40545 -0.33187,-0.5584 -0.18492,-0.88097 0.37705,-0.82749 1.4208,-0.3064 1.9975,0.99718 0.36348,0.82171 0.32653,1.5705 -0.1316,2.667 -0.329,0.78738 -1.4823,2.5022 -1.8615,2.7678 -0.17011,0.11915 -0.30927,0.31087 -0.30927,0.42606 0,0.21244 -0.66209,0.58837 -1.0363,0.58837 -0.11251,0 -0.29272,-0.0882 -0.40048,-0.19592 z m 46.859,3.3388 c 0.45768,-0.48696 1.1085,-1.6301 1.1085,-1.9471 0,-0.3381 -0.32563,-0.41753 -0.70165,-0.17116 -0.44686,0.2928 -1.0943,1.5566 -1.0943,2.1362 0,0.54791 0.15954,0.54377 0.68743,-0.0179 z m -1.2809,4.9436 c -0.52666,-0.49122 -1.0509,-0.8953 -1.1649,-0.89796 -0.11402,-0.003 -0.49363,0.1759 -0.84357,0.39681 -0.34995,0.2209 -0.8444,0.45259 -1.0988,0.51486 -0.2544,0.0623 -0.71859,0.24887 -1.0316,0.41468 -1.1804,0.62542 -3.3256,0.16655 -3.8207,-0.81729 -0.41974,-0.83406 -0.4224,-1.2663 -0.0168,-2.7321 0.40821,-1.4753 0.42367,-2.8051 0.0383,-3.292 -0.64488,-0.81474 -3.4073,0.70833 -4.8036,2.6485 -0.3817,0.53035 -1.4343,2.304 -1.8436,3.1066 -0.19374,0.37987 -0.35974,0.4898 -0.73961,0.4898 -0.419,0 -0.4976,-0.0683 -0.54373,-0.47267 -0.0474,-0.41497 0.17895,-1.2478 0.62574,-2.3028 0.47357,-1.1182 0.60542,-3.1814 0.23904,-3.7406 -0.3328,-0.50792 -0.77022,-0.53617 -1.7361,-0.11212 -0.61315,0.26919 -1.6054,1.2463 -1.6054,1.5808 0,0.0621 -0.27551,0.41963 -0.61225,0.79448 -1.603,1.7845 -2,2.2788 -2,2.4901 0,0.12565 -0.25884,0.3366 -0.5752,0.46878 -0.31634,0.13218 -0.70431,0.3672 -0.86214,0.52229 -0.40857,0.40144 -1.7354,0.84653 -2.1835,0.73242 -0.55791,-0.14207 -1.5376,-0.79074 -1.8345,-1.2147 -0.29439,-0.42029 -0.32573,-0.99064 -0.1088,-1.9798 0.66651,-3.0393 0.62584,-3.3998 -0.43649,-3.8697 -1.2458,-0.55109 -1.3905,-0.4872 -2.0865,0.92134 -0.77027,1.5589 -3.5904,5.1148 -4.3463,5.48 -1.808,0.87377 -3.0778,1.045 -4.0441,0.54529 -1.0974,-0.56747 -2.1347,-1.421 -2.1347,-1.7564 0,-0.18239 -0.19721,-0.77104 -0.43824,-1.3081 -0.47476,-1.0579 -0.48119,-0.89022 0.13334,-3.4725 0.0855,-0.35918 0.223,-1.3143 0.30563,-2.1224 0.0826,-0.80816 0.22647,-1.726 0.31964,-2.0397 0.0932,-0.31369 0.16942,-1.0252 0.16942,-1.5812 0,-0.55597 0.0771,-1.2136 0.1713,-1.4614 0.0942,-0.2478 0.23959,-0.98919 0.32307,-1.6475 0.0835,-0.65834 0.22937,-1.342 0.32423,-1.5192 0.26356,-0.49247 0.89954,-0.41443 1.1286,0.13846 0.18898,0.45625 0.12812,1.0813 -0.3367,3.4576 -0.079,0.40408 -0.22117,1.5429 -0.31585,2.5306 -0.0947,0.98776 -0.27581,2.3102 -0.40247,2.9388 -0.70821,3.5143 -0.70991,3.7962 -0.0304,5.0598 0.40044,0.74462 0.69922,1.0733 1.2515,1.3766 l 0.72545,0.39844 1.066,-0.27958 c 1.1832,-0.31033 1.8096,-0.65275 1.8096,-0.98919 0,-0.1223 0.16904,-0.33313 0.37564,-0.46849 0.5848,-0.38317 2.7264,-3.5839 2.7264,-4.0747 0,-0.4414 0.89466,-2.087 1.1847,-2.179 0.45382,-0.14403 1.3346,0.0565 1.7784,0.40486 0.21113,0.16577 0.69327,0.35347 1.0714,0.41715 0.45395,0.0764 0.86144,0.29151 1.1996,0.63311 l 0.5121,0.51734 -0.10727,1.3619 c -0.059,0.74904 -0.17636,1.5436 -0.2608,1.7657 -0.22378,0.5886 -0.19033,2.1097 0.0505,2.2982 0.64823,0.50718 1.371,0.32764 2.3968,-0.59535 0.30802,-0.27716 0.61027,-0.50393 0.67167,-0.50393 0.0614,0 0.32369,-0.30996 0.58285,-0.68879 0.25915,-0.37884 0.70644,-0.89765 0.99399,-1.1529 0.28752,-0.25527 0.57371,-0.62492 0.63595,-0.82142 0.17613,-0.55608 1.5432,-1.8242 2.4763,-2.297 0.57331,-0.29053 1.1037,-0.42766 1.6541,-0.42766 0.68984,0 0.89356,0.0788 1.3722,0.53061 0.39919,0.37685 0.5968,0.73661 0.6819,1.2415 0.11541,0.68463 0.13786,0.70723 0.60868,0.61307 0.26885,-0.0538 0.69734,-0.26344 0.95218,-0.46594 0.90872,-0.72209 1.3834,-1.0228 1.7878,-1.1325 0.2256,-0.0612 0.71074,-0.19575 1.0781,-0.299 0.497,-0.13967 0.84183,-0.14088 1.3474,-0.005 1.3615,0.36659 1.8718,2.4376 1.1683,4.7415 -0.43479,1.424 -0.41311,1.694 0.17579,2.1896 0.63876,0.53747 1.3396,0.54348 2.1916,0.0188 0.35918,-0.22122 0.80901,-0.40452 0.99961,-0.40733 0.19696,-0.003 0.63745,-0.32068 1.0204,-0.73614 0.56651,-0.6146 0.67477,-0.84216 0.67964,-1.4286 0.003,-0.38362 0.11079,-0.88119 0.23912,-1.1057 0.12832,-0.22449 0.23593,-0.55853 0.23911,-0.7423 0.003,-0.18377 0.11687,-0.47765 0.25266,-0.65306 0.13577,-0.17541 0.58269,-0.75974 0.99316,-1.2985 1.4842,-1.9482 3.2201,-2.3264 3.6433,-0.79375 0.26565,0.96214 -0.14384,2.1762 -1.1381,3.3742 -0.46165,0.55626 -0.97891,1.0777 -1.1494,1.1588 -0.17055,0.0811 -0.31007,0.23647 -0.31007,0.34534 0,0.10885 -0.14694,0.38471 -0.32653,0.61304 -0.51914,0.65995 -0.41736,1.1287 0.40816,1.88 0.78648,0.71575 0.88434,1.0045 0.47814,1.4107 -0.46127,0.46127 -0.96815,0.29743 -1.9696,-0.63657 z"
         id="attourney" />
    </g>
  </g>
</svg>
