<svg xmlns="http://www.w3.org/2000/svg" height="18.445" width="49.844"><path d="M.179 9.278c-.332-.332-.223-.64.504-1.42.385-.413.981-1.256 1.325-1.873.537-.964.614-1.225.543-1.854-.046-.403-.246-.953-.445-1.223-.3-.405-.332-.558-.185-.88.377-.828 1.42-.307 1.997.997.364.821.327 1.57-.131 2.667-.33.787-1.483 2.502-1.862 2.767-.17.12-.31.311-.31.427 0 .212-.661.588-1.036.588-.112 0-.292-.088-.4-.196zm46.859 3.339c.458-.487 1.108-1.63 1.108-1.947 0-.338-.325-.418-.701-.171-.447.292-1.094 1.556-1.094 2.136 0 .548.16.543.687-.018zm-1.28 4.943c-.528-.49-1.052-.895-1.166-.898-.114-.003-.493.176-.843.397-.35.221-.845.453-1.1.515a5.547 5.547 0 00-1.03.415c-1.181.625-3.326.166-3.821-.818-.42-.834-.423-1.266-.017-2.732.408-1.475.423-2.805.038-3.292-.645-.814-3.407.709-4.804 2.649-.381.53-1.434 2.304-1.843 3.106-.194.38-.36.49-.74.49-.419 0-.497-.068-.544-.472-.047-.415.18-1.248.626-2.303.474-1.118.606-3.182.24-3.74-.334-.509-.771-.537-1.737-.113-.613.27-1.605 1.246-1.605 1.58 0 .063-.276.42-.613.795-1.603 1.785-2 2.28-2 2.49 0 .126-.258.337-.575.47-.316.131-.704.366-.862.522-.408.401-1.735.846-2.183.732-.558-.142-1.538-.79-1.835-1.215-.294-.42-.326-.99-.109-1.98.667-3.039.626-3.4-.436-3.87-1.246-.55-1.39-.486-2.087.922-.77 1.559-3.59 5.115-4.346 5.48-1.808.874-3.078 1.045-4.044.545-1.097-.567-2.135-1.42-2.135-1.756 0-.182-.197-.771-.438-1.308-.475-1.058-.481-.89.133-3.473.086-.359.223-1.314.306-2.122.083-.808.226-1.726.32-2.04.093-.313.17-1.025.17-1.58 0-.557.076-1.215.17-1.462.095-.248.24-.99.323-1.648.084-.658.23-1.342.325-1.519.263-.492.9-.414 1.128.138.19.457.128 1.082-.336 3.458-.08.404-.222 1.543-.316 2.53-.095.988-.276 2.31-.403 2.94-.708 3.514-.71 3.796-.03 5.06.4.744.7 1.073 1.251 1.376l.726.398 1.066-.28c1.183-.31 1.81-.652 1.81-.988 0-.123.168-.334.375-.469.585-.383 2.726-3.584 2.726-4.075 0-.441.895-2.087 1.185-2.179.454-.144 1.335.057 1.779.405.21.166.693.354 1.07.417.455.077.862.292 1.2.633l.513.518-.108 1.362c-.059.749-.176 1.543-.26 1.765-.224.589-.19 2.11.05 2.299.648.507 1.371.327 2.397-.596.308-.277.61-.504.672-.504.06 0 .323-.31.582-.688.26-.38.707-.898.994-1.153.288-.256.574-.625.636-.822.176-.556 1.544-1.824 2.477-2.297.573-.29 1.103-.427 1.654-.427.69 0 .893.078 1.372.53.4.377.597.737.682 1.242.115.684.138.707.608.613.27-.054.698-.264.953-.466.908-.722 1.383-1.023 1.787-1.133.226-.06.711-.195 1.079-.299.497-.14.841-.14 1.347-.005 1.361.367 1.872 2.438 1.168 4.742-.435 1.424-.413 1.694.176 2.19.639.537 1.34.543 2.192.018.359-.221.809-.404 1-.407.196-.003.637-.32 1.02-.736.566-.615.674-.842.68-1.429.002-.384.11-.881.238-1.106.129-.224.236-.558.24-.742.003-.184.116-.478.252-.653.136-.175.583-.76.993-1.298 1.485-1.949 3.22-2.327 3.644-.794.265.962-.144 2.176-1.138 3.374-.462.556-.98 1.078-1.15 1.159-.17.08-.31.236-.31.345 0 .109-.147.385-.326.613-.52.66-.418 1.129.408 1.88.786.716.884 1.005.478 1.41-.461.462-.968.298-1.97-.636z"/></svg>