<svg xmlns="http://www.w3.org/2000/svg" height="16.532" width="63.506"><path d="M24.2 7.526c-.32-.129-.238-.725.206-1.5.223-.391.406-.906.407-1.143 0-.238.08-.72.178-1.07.196-.708-.04-1.902-.444-2.237-.124-.102-.225-.36-.225-.571 0-.852 1.452-.617 1.92.31.557 1.108.356 3.553-.416 5.058-.532 1.037-1.033 1.392-1.626 1.153zM.2 8.832c-.408-.164-.187-.904.62-2.076.747-1.086.832-1.304.92-2.352.082-.982.045-1.255-.252-1.824-.466-.894-.445-1.277.081-1.517.398-.18.47-.15.939.395.534.62.918 1.618.914 2.377C3.418 4.84 2.73 6.72 2.156 7.293c-.136.136-.346.485-.468.778-.301.72-.87 1.01-1.488.761zm30.653 7.641c-1.648-.14-2.693-.71-3.309-1.807-.251-.448-.446-1.045-.446-1.37 0-.675-.136-1.09-.356-1.09-.197 0-1.78 1.718-2.011 2.182a1.403 1.403 0 01-.544.528 4.73 4.73 0 00-.788.546c-.598.52-1.782.988-2.499.988-.89 0-1.753-.41-2.043-.972-.346-.668-.315-2.324.075-3.995.34-1.46.317-1.798-.131-1.95-.151-.052-.53-.243-.844-.425-.896-.522-1.167-.438-1.845.569-.333.495-.606.97-.606 1.058 0 .203-1.647 2.49-1.917 2.662a.493.493 0 00-.206.372c0 .296-1.38 1.702-1.671 1.702-.116 0-.467.136-.78.302-1.305.694-2.258.514-3.588-.68-1.23-1.104-1.49-3.319-.724-6.153.23-.853.491-1.992.578-2.53.088-.54.225-1.2.305-1.47.08-.27.233-1.296.339-2.28.221-2.05.38-2.505.925-2.642.471-.118.904.353.772.84-.048.18-.16 1.088-.246 2.019-.087.93-.205 1.767-.262 1.86-.093.15-.41 1.62-1.118 5.183-.446 2.241-.256 3.469.67 4.326.522.484 1.347.539 2.275.15.687-.286 1.006-.607 1.731-1.742.273-.426.556-.775.63-.775.075 0 .3-.34.5-.754s.615-1.125.92-1.58c.307-.454.644-1.153.752-1.553.152-.569.31-.783.723-.98.58-.277.699-.242 2.086.606.359.22.976.46 1.37.533.395.074.817.218.939.319.296.245.28 1.376-.034 2.544-.14.52-.296 1.501-.347 2.179-.077 1.025-.046 1.28.185 1.51.373.373 1.341.354 2.08-.041.51-.274.883-.62 2.215-2.05.112-.122.204-.295.204-.387 0-.092.104-.226.231-.297.238-.135.97-1.025 1.402-1.704.396-.624 1.732-1.896 2.3-2.19.29-.15.665-.401.835-.56.57-.53 2.905-.581 2.905-.064 0 .123.069.224.153.224.292 0 .852.97.748 1.298-.154.485-.672.571-1.09.181-.277-.257-.579-.336-1.282-.336-1.103 0-1.419.269-1.92 1.635-.702 1.914-.627 3.168.239 3.952.538.487 2.272.83 3.739.738 1.47-.091 1.787-.218 2.824-1.126.394-.345.799-.63.898-.633.1-.003.38-.315.624-.694a71.73 71.73 0 011.123-1.668c.77-1.11 1.686-3.09 1.928-4.173.09-.4.283-1.015.43-1.365.267-.64.686-2.413.844-3.576.104-.764.625-1.089 1.273-.794.34.156.408.3.408.866 0 .374-.137 1.165-.304 1.759a28.892 28.892 0 00-.512 2.222c-.114.628-.345 1.415-.512 1.748-.186.37-.305.953-.305 1.495 0 .518-.17 1.39-.407 2.088-.53 1.561-.54 2.57-.031 3.048.584.549 1.245.459 2.196-.298.45-.359.903-.653 1.006-.653.102 0 .232-.128.289-.286.056-.157.403-.624.77-1.037.367-.413.837-1.038 1.044-1.388.701-1.183 1.669-2.049 2.889-2.582 1.03-.45 1.286-.437 2.131.115.71.464.814.604.86 1.161.028.349-.184 1.577-.471 2.729-.497 1.989-.51 2.116-.253 2.508.203.31.412.413.833.413.478 0 .724-.165 1.646-1.102.596-.606 1.192-1.36 1.325-1.674.234-.557 1.034-2.304 1.41-3.083.376-.775.74-.869 3.443-.882 2.554-.013 3.035.086 3.035.629 0 .526-.689.724-2.526.724-1.392 0-1.928.065-2.36.286-.607.31-.581.273-1.319 1.878-.279.607-.694 1.305-.922 1.551a4.88 4.88 0 00-.635.87c-.12.233-.499.633-.84.89-.343.257-.66.51-.704.563-.651.764-1.778 1.028-2.645.619-.497-.235-1.437-1.543-1.437-2 0-.174.231-1.223.513-2.33.417-1.637.479-2.09.33-2.416-.345-.758-1.303-.413-2.394.86-.314.368-.571.746-.571.842 0 .095-.22.336-.49.535-.27.2-.49.457-.49.573 0 .285-2.199 2.455-3.162 3.12-.81.56-1.879.812-2.637.622-.55-.138-1.492-1.154-1.727-1.863-.102-.306-.133-.858-.072-1.265.07-.47.047-.723-.065-.723-.096 0-.174.129-.175.286 0 .157-.257.46-.571.674-.314.213-.57.447-.57.519 0 .27-1.088 1.265-1.756 1.604-.381.194-.693.41-.693.482 0 .071-.253.25-.561.397-.667.318-2.478.451-4.174.306z"/></svg>