<?xml version="1.0" encoding="UTF-8" standalone="no"?>
<svg
   xmlns:dc="http://purl.org/dc/elements/1.1/"
   xmlns:cc="http://creativecommons.org/ns#"
   xmlns:rdf="http://www.w3.org/1999/02/22-rdf-syntax-ns#"
   xmlns:svg="http://www.w3.org/2000/svg"
   xmlns="http://www.w3.org/2000/svg"
   id="svg2094"
   viewBox="0 0 63.505926 16.531557"
   version="1.1"
   height="16.531557"
   width="63.505928">
  <defs
     id="defs2098" />
  <metadata
     id="metadata2">
    <rdf:RDF>
      <cc:Work
         rdf:about="">
        <dc:format>image/svg+xml</dc:format>
        <dc:type
           rdf:resource="http://purl.org/dc/dcmitype/StillImage" />
        <dc:title />
      </cc:Work>
    </rdf:RDF>
  </metadata>
  <g
     transform="translate(-191.68022,-484.1241)"
     id="g2092">
    <g
       style="stroke-width:0.16327"
       id="g2081">
      <path
         d="m 215.88,491.65 c -0.31932,-0.12885 -0.23752,-0.72448 0.20604,-1.5004 0.22341,-0.39079 0.40661,-0.90508 0.40712,-1.1429 0,-0.23776 0.0804,-0.71877 0.17766,-1.0689 0.1968,-0.70882 -0.0399,-1.9022 -0.44382,-2.2374 -0.12351,-0.1025 -0.22456,-0.35964 -0.22456,-0.57143 0,-0.85174 1.4521,-0.61649 1.9192,0.31094 0.5577,1.1073 0.35706,3.5518 -0.41507,5.0572 -0.53193,1.0371 -1.0331,1.3923 -1.6265,1.1529 z m -24,1.3061 c -0.40763,-0.16448 -0.1868,-0.90423 0.61975,-2.0761 0.74722,-1.0856 0.83285,-1.3043 0.92064,-2.3516 0.0823,-0.9819 0.0446,-1.2549 -0.25241,-1.8247 -0.46568,-0.89344 -0.44513,-1.2763 0.0814,-1.5162 0.39767,-0.18119 0.46952,-0.15101 0.93878,0.3945 0.53427,0.62104 0.91765,1.6179 0.91438,2.3776 -0.004,1.0038 -0.69303,2.8841 -1.2664,3.4575 -0.13552,0.13553 -0.34628,0.48545 -0.46836,0.77762 -0.30068,0.71964 -0.86963,1.0108 -1.4878,0.76137 z m 30.653,7.6414 c -1.6482,-0.14092 -2.6924,-0.71129 -3.3085,-1.8072 -0.25166,-0.44771 -0.44664,-1.0455 -0.44664,-1.3694 0,-0.67597 -0.13551,-1.0913 -0.35602,-1.0913 -0.19633,0 -1.7792,1.7182 -2.0107,2.1826 -0.0937,0.18786 -0.33862,0.42547 -0.54435,0.52804 -0.20573,0.10256 -0.56029,0.3484 -0.7879,0.54631 -0.59778,0.51978 -1.7818,0.98792 -2.4987,0.98792 -0.88907,0 -1.7532,-0.41108 -2.0433,-0.97205 -0.34578,-0.66865 -0.31474,-2.3243 0.0749,-3.9953 0.34057,-1.4606 0.31791,-1.7984 -0.13089,-1.9509 -0.15092,-0.0513 -0.53041,-0.2422 -0.8433,-0.42424 -0.8964,-0.52157 -1.1673,-0.43808 -1.8454,0.5689 -0.33334,0.49495 -0.60607,0.97093 -0.60607,1.0578 0,0.20341 -1.647,2.4909 -1.9172,2.6627 -0.11292,0.0718 -0.20529,0.23906 -0.20529,0.37164 0,0.29644 -1.3804,1.7019 -1.6716,1.7019 -0.11594,0 -0.46686,0.13618 -0.77981,0.30261 -1.3048,0.69393 -2.2577,0.51323 -3.5878,-0.68036 -1.23,-1.1038 -1.4907,-3.3188 -0.72407,-6.1529 0.23074,-0.85306 0.49099,-1.9918 0.57832,-2.5306 0.0873,-0.53878 0.22433,-1.2 0.30442,-1.4694 0.0801,-0.26939 0.23272,-1.2958 0.33912,-2.2809 0.22144,-2.0502 0.38043,-2.5042 0.9247,-2.6408 0.47163,-0.11836 0.90431,0.35218 0.77243,0.84004 -0.0485,0.17959 -0.15933,1.0879 -0.24622,2.0185 -0.0869,0.93058 -0.20456,1.7674 -0.26152,1.8595 -0.0933,0.15096 -0.41056,1.6209 -1.1188,5.1832 -0.44557,2.2413 -0.25544,3.4689 0.67004,4.3266 0.52196,0.48373 1.347,0.53835 2.275,0.15059 0.68717,-0.28712 1.006,-0.60803 1.7314,-1.7426 0.2727,-0.42653 0.55644,-0.77551 0.63053,-0.77551 0.0741,0 0.29881,-0.339 0.49938,-0.75335 0.20059,-0.41434 0.61497,-1.1252 0.92085,-1.5798 0.30587,-0.45455 0.6437,-1.1538 0.75072,-1.5539 0.152,-0.56835 0.31032,-0.78266 0.72374,-0.97982 0.58031,-0.27672 0.69858,-0.24237 2.0855,0.60576 0.35918,0.21966 0.97583,0.45985 1.3704,0.53376 0.39451,0.0739 0.81696,0.2171 0.93877,0.31819 0.29594,0.24562 0.28098,1.3765 -0.0336,2.544 -0.14031,0.52071 -0.29673,1.5014 -0.34761,2.1793 -0.077,1.0252 -0.0458,1.2793 0.18514,1.5102 0.37333,0.37332 1.3412,0.35397 2.0792,-0.0416 0.51078,-0.27375 0.88439,-0.61946 2.2159,-2.0504 0.11224,-0.12063 0.20408,-0.29438 0.20408,-0.38613 0,-0.0917 0.10402,-0.22557 0.23114,-0.29738 0.23831,-0.13461 0.9701,-1.0243 1.4015,-1.7039 0.39615,-0.62408 1.732,-1.8954 2.3006,-2.1894 0.2892,-0.14955 0.66497,-0.40155 0.83506,-0.56 0.56922,-0.53032 2.9051,-0.58176 2.9051,-0.064 0,0.12296 0.0685,0.22355 0.15215,0.22355 0.29214,0 0.85219,0.97093 0.7485,1.2977 -0.15397,0.48511 -0.67254,0.5714 -1.091,0.18155 -0.27602,-0.25716 -0.57775,-0.33636 -1.2814,-0.33636 -1.1024,0 -1.4184,0.26924 -1.9198,1.6355 -0.70229,1.9137 -0.62642,3.1682 0.23899,3.9514 0.53856,0.4874 2.272,0.82986 3.7387,0.73866 1.4695,-0.0914 1.7875,-0.2182 2.8246,-1.1264 0.39427,-0.34529 0.79835,-0.63013 0.89796,-0.63297 0.0996,-0.003 0.38044,-0.31508 0.62408,-0.69388 0.24366,-0.37879 0.74893,-1.1295 1.1228,-1.6683 0.77066,-1.1104 1.6857,-3.0907 1.9282,-4.1729 0.0897,-0.40028 0.28291,-1.0145 0.42932,-1.365 0.2675,-0.64016 0.68622,-2.4132 0.84452,-3.576 0.10397,-0.76365 0.62516,-1.0885 1.2729,-0.7934 0.34025,0.15504 0.40817,0.2991 0.40817,0.86575 0,0.37387 -0.13703,1.1652 -0.30449,1.7586 -0.16748,0.59335 -0.39783,1.5931 -0.51187,2.2217 -0.11406,0.62857 -0.34438,1.4154 -0.51184,1.7486 -0.18563,0.36934 -0.30446,0.95261 -0.30446,1.4946 0,0.51786 -0.16987,1.3894 -0.40702,2.0881 -0.52984,1.5612 -0.54026,2.5704 -0.0314,3.0484 0.58364,0.54831 1.2454,0.45846 2.1956,-0.29808 0.45111,-0.35918 0.90383,-0.65306 1.006,-0.65306 0.10222,0 0.23223,-0.12857 0.28891,-0.28571 0.0567,-0.15715 0.40336,-0.62394 0.77038,-1.0373 0.36703,-0.41339 0.83685,-1.0379 1.0441,-1.3878 0.70103,-1.1837 1.6688,-2.049 2.8886,-2.5825 1.0296,-0.45039 1.2861,-0.43648 2.1317,0.11555 0.70968,0.4633 0.81339,0.60343 0.85913,1.1608 0.0286,0.34867 -0.18328,1.5766 -0.47087,2.7288 -0.49652,1.9891 -0.50926,2.1157 -0.25236,2.5078 0.20274,0.30941 0.41151,0.41293 0.8328,0.41293 0.47824,0 0.72415,-0.16463 1.646,-1.102 0.59605,-0.60612 1.1921,-1.3592 1.3245,-1.6735 0.23491,-0.55753 1.0345,-2.3043 1.4114,-3.0833 0.37504,-0.77514 0.73886,-0.86838 3.442,-0.88217 2.5545,-0.0131 3.035,0.0866 3.035,0.62922 0,0.52655 -0.6886,0.72397 -2.5261,0.72423 -1.3916,0 -1.9274,0.0651 -2.3596,0.28572 -0.60769,0.3102 -0.58136,0.2727 -1.3191,1.8785 -0.27878,0.60679 -0.69393,1.3048 -0.92255,1.551 -0.22862,0.2462 -0.51415,0.6378 -0.63451,0.87004 -0.12036,0.23223 -0.49868,0.63245 -0.84072,0.88933 -0.34202,0.25688 -0.6586,0.51022 -0.70349,0.56295 -0.65091,0.76461 -1.7777,1.0284 -2.6448,0.61914 -0.49678,-0.23445 -1.4368,-1.543 -1.4368,-2.0002 0,-0.17385 0.23081,-1.2223 0.51292,-2.3299 0.41696,-1.6372 0.47869,-2.089 0.33002,-2.4153 -0.34532,-0.75791 -1.3035,-0.4135 -2.394,0.86047 -0.31428,0.36719 -0.57143,0.74556 -0.57143,0.84084 0,0.0953 -0.2204,0.33619 -0.48979,0.53536 -0.26939,0.19917 -0.4898,0.45695 -0.4898,0.57285 0,0.28467 -2.1992,2.4548 -3.1617,3.1199 -0.8106,0.56015 -1.879,0.81207 -2.6372,0.62178 -0.55019,-0.13809 -1.4922,-1.1538 -1.7277,-1.8628 -0.1016,-0.30589 -0.13299,-0.8582 -0.072,-1.2653 0.0703,-0.46865 0.0475,-0.72245 -0.0649,-0.72245 -0.0953,0 -0.17378,0.12858 -0.17438,0.28572 0,0.15714 -0.25777,0.46049 -0.57143,0.6741 -0.31368,0.21362 -0.57032,0.44717 -0.57032,0.51899 0,0.27065 -1.0878,1.2647 -1.7551,1.6038 -0.38163,0.19394 -0.69388,0.41099 -0.69388,0.48232 0,0.0713 -0.25229,0.25002 -0.56064,0.39706 -0.66736,0.31824 -2.478,0.45097 -4.174,0.30598 z"
         id="attractive" />
    </g>
  </g>
</svg>
