<?xml version="1.0" encoding="UTF-8" standalone="no"?>
<svg
   xmlns:dc="http://purl.org/dc/elements/1.1/"
   xmlns:cc="http://creativecommons.org/ns#"
   xmlns:rdf="http://www.w3.org/1999/02/22-rdf-syntax-ns#"
   xmlns:svg="http://www.w3.org/2000/svg"
   xmlns="http://www.w3.org/2000/svg"
   id="svg2094"
   viewBox="0 0 13.22415 25.010109"
   version="1.1"
   height="25.010109"
   width="13.224151">
  <defs
     id="defs2098" />
  <metadata
     id="metadata2">
    <rdf:RDF>
      <cc:Work
         rdf:about="">
        <dc:format>image/svg+xml</dc:format>
        <dc:type
           rdf:resource="http://purl.org/dc/dcmitype/StillImage" />
        <dc:title />
      </cc:Work>
    </rdf:RDF>
  </metadata>
  <g
     transform="translate(-192.81465,-508.68749)"
     id="g2092">
    <g
       style="stroke-width:0.16327"
       id="g2081">
      <path
         d="m 193.07,516.64 c -0.14044,-0.14046 -0.25535,-0.34929 -0.25535,-0.4641 0,-0.24428 0.79829,-1.3777 1.208,-1.7152 0.588,-0.48433 0.80317,-1.1948 0.813,-2.6845 0.009,-1.4019 -0.005,-1.46 -0.45631,-1.8196 -0.36607,-0.2919 -0.44405,-0.45838 -0.36402,-0.77726 0.19971,-0.7957 1.3799,-0.59005 2.0551,0.35809 0.33366,0.46859 0.36003,0.66319 0.30958,2.2844 -0.055,1.7688 -0.0564,1.774 -0.7082,2.6996 -0.35918,0.51004 -0.72653,1.0496 -0.81632,1.1991 -0.20941,0.34854 -0.54177,0.63304 -1.0916,0.93443 -0.38954,0.21352 -0.46706,0.21184 -0.69388,-0.015 z m 1.8127,14.843 c -0.0599,-0.0598 -0.10885,-0.96188 -0.10885,-2.0045 0,-2.2111 0.16446,-2.6214 1.0509,-2.6214 h 0.54255 l 0.0706,0.97616 c 0.0388,0.53688 0.10921,1.0147 0.15639,1.0619 0.0472,0.0472 0.33648,-0.036 0.64289,-0.18497 0.51282,-0.2492 0.74776,-0.43409 1.888,-1.4858 0.25559,-0.23573 0.60387,-0.36734 0.97213,-0.36734 0.56201,0 0.57282,0.0124 0.5232,0.60387 -0.0423,0.50406 -0.18818,0.71317 -0.88269,1.2653 -0.4576,0.36379 -1.0821,0.80753 -1.3878,0.98609 -1.4113,0.82448 -1.8678,1.1097 -1.9435,1.2142 -0.33902,0.46825 -1.2715,0.80874 -1.5238,0.55641 z m 5.9068,-8.8358 c 0.23835,-0.16039 0.64537,-0.39853 0.90448,-0.52923 0.2591,-0.13069 0.58971,-0.41056 0.73469,-0.62191 0.14498,-0.21136 0.37447,-0.50653 0.50998,-0.65593 0.5454,-0.60134 1.0404,-1.6188 1.1633,-2.3911 0.34378,-2.1607 0.34843,-2.291 0.0895,-2.5059 -0.1387,-0.1151 -0.64888,-0.25022 -1.1338,-0.30028 -0.82239,-0.0849 -0.9522,-0.0464 -1.9332,0.57315 -1.2554,0.79285 -1.973,1.6676 -2.8692,3.4975 -0.64283,1.3126 -0.48955,2.0132 0.61951,2.8314 0.6334,0.46731 1.3178,0.50389 1.9146,0.10232 z m 1.1117,10.769 c -0.36697,-0.40552 -0.34086,-0.86231 0.1369,-2.3953 0.22389,-0.71837 0.45398,-1.8204 0.5113,-2.449 0.0573,-0.62857 0.20352,-1.3876 0.32486,-1.6868 0.28773,-0.70937 0.63974,-3.1568 0.50469,-3.5088 -0.14911,-0.38859 -0.56172,-0.33926 -1.1247,0.13442 -0.26679,0.22449 -0.61167,0.40816 -0.76642,0.40816 -0.15474,0 -0.35115,0.0657 -0.43645,0.14606 -0.0853,0.0803 -0.49302,0.21601 -0.90601,0.3015 -0.64844,0.13422 -0.88857,0.0989 -1.76,-0.25855 -0.95359,-0.39118 -1.0371,-0.47071 -1.5162,-1.444 -0.61507,-1.2494 -0.57113,-2.0042 0.20613,-3.5403 1.4444,-2.8547 4.0553,-4.9869 6.1068,-4.9871 1.4447,-1.3e-4 2.8576,1.1962 2.8567,2.4188 0,0.32345 -0.2574,1.8339 -0.57142,3.3565 -0.31405,1.5226 -0.57098,3.1581 -0.57098,3.6344 0,0.47626 -0.15177,1.5448 -0.33725,2.3744 -0.43653,1.9525 -0.64954,2.9682 -0.81282,3.8758 -0.2434,1.3531 -0.74901,3.18 -0.98276,3.551 -0.2806,0.44541 -0.50521,0.46332 -0.86227,0.0688 z"
         id="August_abv" />
    </g>
  </g>
</svg>
