<svg xmlns="http://www.w3.org/2000/svg" height="25.01" width="13.224"><path d="M.255 7.953C.115 7.812 0 7.603 0 7.488c0-.244.798-1.377 1.208-1.715.588-.484.803-1.195.813-2.684.009-1.402-.005-1.46-.456-1.82C1.199.977 1.12.811 1.2.492c.2-.796 1.38-.59 2.055.358.333.469.36.663.31 2.284-.056 1.77-.057 1.774-.709 2.7-.359.51-.726 1.05-.816 1.199-.21.349-.542.633-1.092.934-.39.214-.467.212-.694-.015zm1.813 14.843c-.06-.06-.109-.962-.109-2.005 0-2.211.165-2.621 1.051-2.621h.543l.07.976c.039.537.11 1.014.157 1.062.047.047.336-.036.643-.185.512-.25.747-.434 1.888-1.486.255-.236.603-.367.972-.367.562 0 .572.012.523.603-.042.504-.188.714-.883 1.266-.457.364-1.082.807-1.388.986-1.41.824-1.867 1.11-1.943 1.214-.34.468-1.272.809-1.524.556zm5.907-8.836c.238-.16.645-.399.904-.53.26-.13.59-.41.735-.621a7.28 7.28 0 01.51-.656c.545-.602 1.04-1.62 1.163-2.391.344-2.161.349-2.291.09-2.506-.139-.115-.65-.25-1.134-.3-.822-.086-.952-.047-1.933.573-1.256.792-1.973 1.667-2.87 3.497-.642 1.313-.489 2.013.62 2.831.634.468 1.318.504 1.915.103zm1.112 10.769c-.367-.406-.341-.863.136-2.396.224-.718.454-1.82.512-2.449.057-.628.203-1.387.325-1.686.287-.71.64-3.157.504-3.51-.149-.388-.561-.338-1.124.135-.267.225-.612.408-.767.408-.155 0-.351.066-.436.146-.086.08-.493.216-.906.302-.649.134-.889.099-1.76-.259-.954-.39-1.037-.47-1.516-1.444-.616-1.249-.572-2.004.206-3.54C5.705 7.581 8.316 5.45 10.367 5.45c1.445 0 2.858 1.196 2.857 2.419 0 .323-.257 1.834-.571 3.356-.314 1.523-.571 3.158-.571 3.635 0 .476-.152 1.544-.338 2.374-.436 1.953-.649 2.968-.812 3.876-.244 1.353-.75 3.18-.983 3.55-.28.446-.505.464-.862.07z"/></svg>