<svg xmlns="http://www.w3.org/2000/svg" height="25.009" width="13.226"><path d="M.255 7.953C.115 7.813 0 7.603 0 7.49c0-.244.798-1.378 1.208-1.715.588-.484.803-1.195.813-2.685.009-1.402-.005-1.46-.456-1.82C1.199.977 1.12.811 1.2.492c.2-.796 1.38-.59 2.055.358.333.469.36.663.31 2.284-.056 1.769-.057 1.774-.709 2.7-.36.51-.726 1.05-.816 1.199-.21.348-.542.633-1.092.934-.39.214-.467.212-.694-.015zm1.813 14.84c-.06-.06-.108-.962-.108-2.004 0-2.21.164-2.62 1.05-2.62h.543l.07.975c.04.537.11 1.015.157 1.062.047.048.337-.036.643-.185.513-.249.748-.434 1.888-1.486.256-.235.604-.367.972-.367.562 0 .573.013.523.604-.042.504-.188.713-.882 1.265-.458.364-1.082.808-1.388.986-1.411.825-1.868 1.11-1.943 1.214-.34.468-1.272.809-1.524.557zm5.907-8.836c.239-.16.646-.398.905-.529.259-.13.59-.41.735-.622.145-.211.374-.506.51-.656.545-.601 1.04-1.619 1.163-2.39.343-2.162.348-2.292.09-2.507-.14-.115-.65-.25-1.135-.3-.822-.085-.952-.046-1.933.573-1.255.793-1.973 1.668-2.869 3.498-.643 1.313-.49 2.013.62 2.831.633.467 1.318.504 1.915.102zm1.112 10.77c-.367-.405-.34-.862.137-2.395.224-.718.454-1.82.512-2.449.057-.628.203-1.388.324-1.687.288-.71.64-3.157.505-3.509-.149-.388-.562-.34-1.125.135-.267.224-.612.408-.766.408-.155 0-.351.066-.437.146-.085.08-.493.216-.906.301-.648.135-.888.1-1.76-.258-.953-.391-1.037-.47-1.516-1.444-.615-1.25-.57-2.004.206-3.54 1.444-2.855 4.055-4.987 6.107-4.987 1.445 0 2.858 1.196 2.857 2.419 0 .323-.257 1.834-.57 3.357-.315 1.523-.572 3.158-.572 3.634s-.152 1.545-.337 2.374c-.437 1.952-.65 2.968-.813 3.876-.243 1.353-.749 3.18-.983 3.55-.28.446-.505.464-.862.07z" stroke-width=".163"/></svg>