<?xml version="1.0" encoding="UTF-8" standalone="no"?>
<svg
   xmlns:dc="http://purl.org/dc/elements/1.1/"
   xmlns:cc="http://creativecommons.org/ns#"
   xmlns:rdf="http://www.w3.org/1999/02/22-rdf-syntax-ns#"
   xmlns:svg="http://www.w3.org/2000/svg"
   xmlns="http://www.w3.org/2000/svg"
   id="svg2094"
   viewBox="0 0 27.239778 13.321584"
   version="1.1"
   height="13.321584"
   width="27.239779">
  <defs
     id="defs2098" />
  <metadata
     id="metadata2">
    <rdf:RDF>
      <cc:Work
         rdf:about="">
        <dc:format>image/svg+xml</dc:format>
        <dc:type
           rdf:resource="http://purl.org/dc/dcmitype/StillImage" />
        <dc:title />
      </cc:Work>
    </rdf:RDF>
  </metadata>
  <g
     transform="translate(-191.34744,-534.89034)"
     id="g2092">
    <g
       style="stroke-width:0.16327"
       id="g2081">
      <path
         d="m 192.49,541.71 c -0.18924,-0.35362 -0.0448,-0.76694 0.39587,-1.1326 0.13773,-0.11431 0.35399,-0.40214 0.48059,-0.63963 0.12661,-0.2375 0.38527,-0.72284 0.57482,-1.0786 0.45763,-0.85883 0.43639,-1.1762 -0.15267,-2.28 -0.52971,-0.99264 -0.52506,-1.4756 0.0158,-1.6473 0.3855,-0.12236 0.97123,0.0426 0.97123,0.27362 0,0.092 0.1467,0.35381 0.32598,0.58173 0.75192,0.9559 0.75218,3.0819 0,3.8821 -0.17956,0.19111 -0.32647,0.45572 -0.32647,0.588 0,0.32924 -1.4968,1.7793 -1.8366,1.7793 -0.15089,0 -0.353,-0.14694 -0.44911,-0.32653 z m -0.94003,6.2059 c -0.11139,-0.17838 -0.20253,-0.35517 -0.20253,-0.39285 0,-0.0377 0.38572,-0.34594 0.85715,-0.68498 0.88502,-0.6365 3.1802,-1.7636 4.6122,-2.265 0.44898,-0.15719 0.96327,-0.3394 1.1429,-0.4049 0.97595,-0.35593 3.1108,-1.0493 4.3265,-1.4053 0.76326,-0.22346 1.6082,-0.48653 1.8776,-0.58459 0.26939,-0.0981 0.93061,-0.27268 1.4694,-0.38806 0.53877,-0.11538 1.2,-0.28244 1.4694,-0.37122 1.9432,-0.64044 5.7607,-0.75956 7.3735,-0.23009 1.1518,0.37811 2.0142,0.80073 2.0142,0.98702 0,0.0723 0.1743,0.22477 0.38735,0.33878 0.46903,0.25102 0.90741,1.027 1.42,2.5135 0.35203,1.0209 0.36374,1.1513 0.13938,1.551 -0.31839,0.56727 -0.91174,0.58121 -1.2019,0.0283 -0.11782,-0.22449 -0.3463,-0.84898 -0.50776,-1.3878 -0.16145,-0.53877 -0.39895,-1.0669 -0.52777,-1.1737 -0.12882,-0.1068 -0.52359,-0.46185 -0.87726,-0.78908 -0.35366,-0.32723 -0.87841,-0.66609 -1.1661,-0.75303 -0.28769,-0.0869 -1.5562,-0.15628 -2.8188,-0.15411 -1.9742,0.003 -2.5999,0.0743 -4.4672,0.50575 -1.1943,0.27597 -2.549,0.64526 -3.0104,0.82064 -0.4614,0.17538 -1.0734,0.3189 -1.3599,0.31895 -0.28653,5e-5 -0.56638,0.0736 -0.62187,0.16335 -0.0555,0.0898 -0.25029,0.16326 -0.43287,0.16326 -0.18258,0 -0.51876,0.14694 -0.74707,0.32654 -0.22833,0.17959 -0.53745,0.32653 -0.68699,0.32653 -0.14952,0 -0.34165,0.0643 -0.42695,0.14279 -0.0853,0.0785 -0.67688,0.25773 -1.3146,0.39819 -0.63773,0.14045 -1.7875,0.55376 -2.5551,0.91843 -0.7676,0.36467 -1.4457,0.66304 -1.5069,0.66304 -0.0612,0 -0.55005,0.25714 -1.0863,0.57142 -1.1285,0.66141 -1.2961,0.68778 -1.5713,0.24712 z"
         id="aunt" />
    </g>
  </g>
</svg>
