<svg xmlns="http://www.w3.org/2000/svg" height="13.322" width="27.24"><path d="M1.143 6.82c-.19-.354-.045-.767.395-1.133.138-.114.354-.402.481-.64l.575-1.078c.457-.859.436-1.176-.153-2.28-.53-.993-.525-1.476.016-1.647.385-.123.971.042.971.273 0 .092.147.354.326.582.752.956.752 3.082 0 3.882-.18.191-.326.456-.326.588 0 .33-1.497 1.78-1.837 1.78-.15 0-.353-.148-.449-.327zm-.94 6.206C.09 12.847 0 12.67 0 12.633c0-.038.386-.346.857-.685.885-.637 3.18-1.764 4.612-2.265.45-.157.964-.34 1.143-.405.976-.356 3.111-1.05 4.327-1.405a45.813 45.813 0 001.877-.585c.27-.098.931-.273 1.47-.388.539-.116 1.2-.283 1.47-.371 1.942-.64 5.76-.76 7.373-.23 1.151.378 2.014.8 2.014.987 0 .072.174.224.387.338.47.251.908 1.027 1.42 2.514.352 1.02.364 1.151.14 1.55-.319.568-.912.582-1.202.03-.118-.225-.347-.85-.508-1.389-.162-.538-.399-1.067-.528-1.173a32.961 32.961 0 01-.877-.79c-.354-.327-.879-.666-1.166-.752-.288-.087-1.556-.157-2.819-.155-1.974.003-2.6.075-4.467.506-1.195.276-2.55.645-3.01.82-.462.176-1.074.32-1.36.32-.287 0-.567.073-.622.163-.056.09-.25.163-.433.163s-.519.147-.747.327c-.229.18-.538.326-.687.326-.15 0-.342.065-.427.143-.086.079-.677.258-1.315.398-.638.14-1.787.554-2.555.919-.768.365-1.446.663-1.507.663-.061 0-.55.257-1.086.571-1.129.662-1.296.688-1.571.247z" stroke-width=".163"/></svg>