<svg xmlns="http://www.w3.org/2000/svg" height="17.602" width="28.272"><path d="M.098 8.404c-.239-.288-.034-.845.535-1.455 1.11-1.192 1.565-3.168.918-3.99-.388-.493-.433-1.32-.079-1.456.4-.154 1.136.243 1.456.784.163.276.333.964.379 1.53.07.87.029 1.103-.266 1.517-.19.268-.347.647-.347.841 0 .427-.813 1.645-1.41 2.115-.499.393-.921.433-1.186.114zm4.5 8.932c-.168-.168-.128-2.278.051-2.7.088-.206.234-1.44.324-2.742s.234-2.808.319-3.347c.084-.539.246-2.212.359-3.72.132-1.756.278-2.8.408-2.907.143-.119.359-.088.728.102l.524.272-.14 1.739a50.942 50.942 0 00-.145 3.126L7.02 8.547l.735-.034c.404-.019 1.947-.098 3.429-.177 1.481-.078 2.785-.11 2.898-.07.224.078.27.66.077.963-.199.312-1.447.518-3.74.615-1.184.05-2.33.159-2.547.24-.446.17-.826.877-1.11 2.062a11.71 11.71 0 01-.322 1.136c-.07.18-.172.73-.225 1.224-.185 1.737-.375 2.503-.673 2.721-.32.234-.767.286-.943.11zm18.777-6.412c.375-.17 1.058-.664 1.517-1.098.75-.706.886-.948 1.319-2.333.646-2.067.661-3.472.05-4.595-.372-.684-.557-.841-1.323-1.128-.953-.356-1.831-.316-2.177.1a.708.708 0 01-.477.228c-.263 0-.582.361-1.081 1.225-.5.864-1.394 2.814-1.529 3.335-.083.32-.336 1.097-.561 1.726-.226.628-.413 1.413-.415 1.742-.004.535.053.618.526.767 1.377.433 3.236.447 4.152.031zM15.537 17.5c-.234-.233-.081-1.67.318-2.993.23-.763.49-1.755.579-2.204.18-.915.283-1.241.988-3.102.272-.718.602-1.747.733-2.286.13-.538.563-1.65.96-2.47.397-.82.721-1.576.721-1.68 0-.273 1.634-1.846 2.21-2.128.266-.131.612-.343.767-.472.317-.262 2.1-.196 2.665.098.175.09.524.262.777.38.671.316 1.385 1.383 1.77 2.646.375 1.235.333 1.978-.203 3.58-.171.514-.315 1.138-.318 1.388-.003.25-.095.609-.204.797-.328.567-1.802 2.183-2.07 2.269-.138.044-.464.264-.725.49-.26.225-.573.409-.694.409-.134 0-.22.186-.22.477 0 .53.4 1.077 1.841 2.515.816.815.947 1.027.904 1.468-.107 1.097-1.167.713-2.511-.91-2.114-2.55-2.504-2.887-3.58-3.088-.54-.1-1.271-.19-1.627-.2l-.647-.017-.458 1.306a25.299 25.299 0 00-.704 2.442c-.136.625-.337 1.193-.447 1.263-.246.156-.68.168-.825.023z"/></svg>