<?xml version="1.0" encoding="UTF-8" standalone="no"?>
<svg
   xmlns:dc="http://purl.org/dc/elements/1.1/"
   xmlns:cc="http://creativecommons.org/ns#"
   xmlns:rdf="http://www.w3.org/1999/02/22-rdf-syntax-ns#"
   xmlns:svg="http://www.w3.org/2000/svg"
   xmlns="http://www.w3.org/2000/svg"
   id="svg2094"
   viewBox="0 0 43.870692 28.564392"
   version="1.1"
   height="28.564392"
   width="43.870693">
  <defs
     id="defs2098" />
  <metadata
     id="metadata2">
    <rdf:RDF>
      <cc:Work
         rdf:about="">
        <dc:format>image/svg+xml</dc:format>
        <dc:type
           rdf:resource="http://purl.org/dc/dcmitype/StillImage" />
        <dc:title />
      </cc:Work>
    </rdf:RDF>
  </metadata>
  <g
     transform="translate(-191.64944,-604.40839)"
     id="g2092">
    <g
       style="stroke-width:0.16327"
       id="g2081">
      <path
         d="m 191.88,612.79 c -0.52048,-0.21 -0.12156,-1.3943 0.81306,-2.4137 0.6062,-0.66119 0.83495,-2.807 0.36542,-3.4277 -0.30761,-0.4067 -0.30683,-0.97515 0.002,-1.2312 0.19384,-0.16087 0.34379,-0.14053 0.76121,0.10326 0.65002,0.37964 0.92793,1.1183 0.94416,2.5095 0.0114,0.97766 -0.0476,1.1672 -0.72227,2.3197 -0.40408,0.69029 -0.73469,1.3188 -0.73469,1.3967 0,0.0779 -0.17004,0.30137 -0.37788,0.49662 -0.37022,0.34782 -0.64215,0.4117 -1.0507,0.24685 z m 37.161,5.7412 c 0,-0.15238 -0.2948,-0.40115 -0.54878,-0.40115 -0.25397,0 -0.72066,0.37375 -0.72066,0.52615 0,0.15237 0.46669,0.30739 0.72066,0.30739 0.25398,0 0.54878,-0.28 0.54878,-0.43239 z m -4.7665,14.34 c -0.31788,-0.31786 0.28932,-1.7207 0.97757,-2.2585 0.18661,-0.14583 0.89494,-1.3601 1.6342,-2.8015 0.34379,-0.67031 0.19701,-1.0352 -0.41637,-1.0352 -0.7049,0 -0.99808,-0.15571 -0.99808,-0.53008 0,-0.44707 0.45604,-0.76454 1.1073,-0.77086 0.76162,-0.007 1.5533,-0.37859 1.7852,-0.83709 0.18341,-0.36264 0.77987,-2.5689 0.97828,-3.6186 0.13653,-0.72219 -0.21069,-0.98857 -1.1719,-0.89908 -0.45171,0.0421 -1.1519,-0.008 -1.556,-0.11027 -0.70216,-0.17845 -0.73683,-0.21533 -0.78291,-0.83289 -0.0443,-0.59314 0.015,-0.69978 0.72302,-1.2992 0.42418,-0.35915 0.92343,-0.74224 1.1094,-0.8513 0.43718,-0.25632 2.4169,-0.26996 2.6685,-0.0184 0.14226,0.14225 0.29325,0.14512 0.58725,0.0111 0.55702,-0.2538 0.98152,-1.6014 0.98959,-3.1414 0.006,-1.0836 -0.0463,-1.2996 -0.452,-1.8776 -1.1381,-1.6214 -2.2795,-1.4309 -3.976,0.66328 -0.4319,0.53316 -0.86731,1.0428 -0.96761,1.1326 -0.10031,0.0898 -0.32072,0.42041 -0.48979,0.73469 -0.1691,0.31429 -0.3523,0.60816 -0.40712,0.65306 -0.0548,0.0449 -0.2145,0.3059 -0.35486,0.58 -0.46527,0.90862 -2.5069,2.8396 -3.467,3.2792 -1.0762,0.49272 -1.4904,0.43723 -2.8699,-0.38455 -0.69247,-0.41251 -0.96424,-0.67203 -0.96586,-0.9223 -0.002,-0.19155 -0.0484,-0.52067 -0.1048,-0.73138 -0.086,-0.32124 -0.17835,-0.36797 -0.57179,-0.28928 -0.25809,0.0516 -0.77683,0.38941 -1.1528,0.75065 -1.7266,1.6591 -4.0622,2.1799 -5.7026,1.2715 -0.68003,-0.37659 -0.9405,-0.84755 -1.0691,-1.933 -0.0856,-0.72263 0.26373,-2.2394 0.62023,-2.6932 0.0754,-0.0959 0.22206,-0.57347 0.32599,-1.0612 0.10394,-0.48776 0.2897,-1.0317 0.4128,-1.2089 0.59938,-0.86236 -0.0451,-2.3972 -1.1478,-2.7337 -0.59597,-0.18188 -0.6538,-0.16926 -0.89796,0.19587 -0.45504,0.68047 -1.661,1.7776 -2.4206,2.2022 -1.0122,0.5657 -1.6157,0.70245 -3.9152,0.88708 -1.0962,0.088 -2.1348,0.23584 -2.3079,0.32849 -0.69525,0.37208 -1.2239,1.9287 -1.7375,5.1156 -0.0543,0.33674 -0.16025,0.61225 -0.2355,0.61225 -0.0752,0 -0.17525,0.14694 -0.2222,0.32653 -0.0887,0.33915 -0.52392,0.42509 -0.91099,0.17989 -0.26229,-0.16616 -0.18568,-1.5038 0.2207,-3.8534 0.31701,-1.8329 0.54544,-3.6936 0.66139,-5.3878 0.11479,-1.677 0.56193,-4.6506 0.75491,-5.0204 0.082,-0.15715 0.3288,-0.28572 0.5484,-0.28572 0.55605,0 0.64322,0.48665 0.47922,2.675 -0.0748,0.99813 -0.14036,2.2923 -0.14567,2.876 l -0.01,1.0612 1.2353,0.0471 c 1.1749,0.0448 2.8252,-0.12072 4.0708,-0.40838 1.2746,-0.29436 2.2643,-1.051 3.0548,-2.3354 0.85468,-1.3888 1.4666,-1.5586 2.4468,-0.67927 2.6321,2.3613 2.5862,2.2399 1.7706,4.6821 -0.11995,0.35918 -0.31413,0.98367 -0.43148,1.3878 -0.11737,0.40408 -0.34539,0.9757 -0.5067,1.2703 -0.3292,0.6012 -0.38256,1.5232 -0.11686,2.0196 0.21494,0.40161 1.0998,0.79177 1.7957,0.79177 0.48617,0 3.2488,-1.4989 3.255,-1.7661 0.002,-0.0613 0.23014,-0.36864 0.50825,-0.68292 0.72323,-0.81732 1.3847,-1.8116 1.5206,-2.2857 0.27221,-0.94973 0.82717,-2.2265 1.095,-2.5192 0.24767,-0.27064 0.34906,-0.28741 0.71892,-0.11889 0.39809,0.18139 0.42409,0.2545 0.3442,0.96815 -0.0475,0.42456 -0.16495,1.176 -0.26091,1.6699 -0.096,0.49388 -0.25138,1.5552 -0.34536,2.3584 -0.15623,1.3354 -0.14431,1.4962 0.13909,1.8776 0.70822,0.9531 2.3783,0.3762 3.6698,-1.2677 0.42411,-0.53984 0.77112,-1.055 0.77112,-1.1449 0,-0.0898 0.30205,-0.48176 0.67125,-0.87092 0.36919,-0.38918 0.77257,-0.9423 0.89639,-1.2292 0.12383,-0.28691 0.32986,-0.58079 0.45786,-0.65307 0.12798,-0.0723 0.44914,-0.40427 0.71368,-0.73773 0.26454,-0.33347 0.79197,-0.86612 1.1721,-1.1837 0.63229,-0.52828 0.77954,-0.57739 1.7313,-0.57739 1.4558,0 2.0052,0.30887 2.8666,1.6118 0.71287,1.0782 0.71535,1.0872 0.71217,2.5514 -0.003,1.5597 -0.0412,1.6792 -1.1363,3.5918 -0.95396,1.6662 -1.3912,2.6813 -1.3907,3.2292 0,0.62214 -0.42358,2.5467 -0.76012,3.4496 -0.19415,0.52087 -0.19871,0.6627 -0.0248,0.77302 0.28721,0.18217 1.823,0.17704 2.0171,-0.007 0.0853,-0.0808 0.82018,-0.19761 1.633,-0.25967 1.2227,-0.0933 1.5137,-0.0698 1.6848,0.13642 0.27884,0.33599 0.0103,0.82247 -0.58508,1.06 -0.56431,0.22511 -3.3349,0.56545 -5.3918,0.66232 -0.24357,0.0114 -0.44741,0.19386 -0.61224,0.5478 -0.37911,0.81411 -1.042,1.9506 -1.3112,2.2481 -0.13309,0.14708 -0.24199,0.37484 -0.24199,0.50614 0,0.39195 -1.5959,2.8214 -1.9965,3.0393 -0.41068,0.22335 -0.8299,0.26441 -0.99667,0.0976 z"
         id="authorized" />
    </g>
  </g>
</svg>
