<svg xmlns="http://www.w3.org/2000/svg" height="28.564" width="43.871"><path d="M.23 8.382c-.52-.21-.121-1.395.814-2.414.606-.661.835-2.807.365-3.428-.308-.406-.307-.975.002-1.231.194-.16.344-.14.761.103.65.38.928 1.119.944 2.51.012.977-.047 1.167-.722 2.32-.404.69-.735 1.318-.735 1.396 0 .078-.17.302-.377.497-.37.348-.643.411-1.051.247zm37.162 5.74c0-.152-.295-.4-.55-.4-.253 0-.72.373-.72.526 0 .152.467.307.72.307.255 0 .55-.28.55-.432zm-4.767 14.34c-.318-.317.29-1.72.978-2.258.186-.146.895-1.36 1.634-2.801.344-.67.197-1.035-.417-1.035-.704 0-.998-.156-.998-.53 0-.448.456-.765 1.108-.771.761-.007 1.553-.379 1.785-.837.183-.363.78-2.57.978-3.619.137-.722-.21-.989-1.172-.9-.451.043-1.152-.007-1.556-.11-.702-.178-.737-.215-.783-.832-.044-.593.015-.7.723-1.3.425-.359.924-.742 1.11-.85.437-.257 2.417-.27 2.668-.02.143.143.294.146.588.012.557-.254.981-1.601.99-3.141.005-1.084-.047-1.3-.453-1.878-1.138-1.621-2.28-1.431-3.976.663-.432.533-.867 1.043-.968 1.133-.1.09-.32.42-.49.735-.168.314-.352.608-.406.653-.055.044-.215.305-.355.58-.466.908-2.507 2.84-3.467 3.279-1.076.492-1.49.437-2.87-.385-.693-.412-.964-.672-.966-.922a3.566 3.566 0 00-.105-.731c-.086-.322-.178-.368-.572-.29-.258.052-.776.39-1.152.75-1.727 1.66-4.063 2.18-5.703 1.272-.68-.376-.94-.847-1.07-1.933-.085-.722.265-2.239.621-2.693.076-.096.222-.573.326-1.061.104-.488.29-1.032.413-1.209.6-.862-.045-2.397-1.148-2.734-.596-.181-.654-.169-.898.196-.455.68-1.66 1.778-2.42 2.202-1.013.566-1.616.703-3.916.888-1.096.088-2.134.235-2.308.328-.695.372-1.223 1.929-1.737 5.116-.054.336-.16.612-.236.612-.075 0-.175.147-.222.326-.088.34-.524.426-.91.18-.263-.166-.186-1.503.22-3.853.317-1.833.545-3.694.661-5.388.115-1.677.562-4.65.755-5.02C6.991.129 7.238 0 7.458 0c.556 0 .643.487.479 2.675-.075.998-.14 2.292-.146 2.876l-.01 1.061 1.235.047c1.175.045 2.826-.12 4.071-.408 1.275-.294 2.265-1.051 3.055-2.335.855-1.39 1.467-1.56 2.447-.68 2.632 2.362 2.586 2.24 1.77 4.682-.12.36-.314.984-.431 1.388a7.66 7.66 0 01-.507 1.27c-.329.602-.382 1.524-.117 2.02.215.402 1.1.792 1.796.792.486 0 3.249-1.5 3.255-1.766.002-.062.23-.369.508-.683.724-.818 1.385-1.812 1.521-2.286.272-.95.827-2.226 1.095-2.52.248-.27.35-.287.719-.118.398.181.424.255.344.968a25.592 25.592 0 01-.26 1.67 40.085 40.085 0 00-.346 2.358c-.156 1.336-.144 1.497.139 1.878.708.953 2.378.376 3.67-1.268.424-.54.77-1.055.77-1.145 0-.09.303-.481.672-.87.37-.39.773-.943.897-1.23.123-.287.33-.58.457-.653.128-.072.45-.404.714-.737a9.92 9.92 0 011.172-1.184c.632-.528.78-.578 1.731-.578 1.456 0 2.006.31 2.867 1.612.713 1.078.715 1.087.712 2.552-.003 1.56-.041 1.679-1.136 3.591-.954 1.667-1.391 2.682-1.39 3.23 0 .622-.424 2.546-.76 3.45-.195.52-.2.662-.026.772.288.182 1.823.177 2.017-.007.086-.08.82-.197 1.633-.26 1.223-.093 1.514-.07 1.685.137.279.336.01.822-.585 1.06-.564.225-3.335.565-5.392.662-.243.012-.447.194-.612.548-.379.814-1.042 1.95-1.311 2.248-.133.147-.242.375-.242.506 0 .392-1.596 2.822-1.997 3.04-.41.223-.83.264-.996.097z" stroke-width=".163"/></svg>