<?xml version="1.0" encoding="UTF-8" standalone="no"?>
<svg
   xmlns:dc="http://purl.org/dc/elements/1.1/"
   xmlns:cc="http://creativecommons.org/ns#"
   xmlns:rdf="http://www.w3.org/1999/02/22-rdf-syntax-ns#"
   xmlns:svg="http://www.w3.org/2000/svg"
   xmlns="http://www.w3.org/2000/svg"
   id="svg2094"
   viewBox="0 0 28.27159 17.601805"
   version="1.1"
   height="17.601805"
   width="28.271591">
  <defs
     id="defs2098" />
  <metadata
     id="metadata2">
    <rdf:RDF>
      <cc:Work
         rdf:about="">
        <dc:format>image/svg+xml</dc:format>
        <dc:type
           rdf:resource="http://purl.org/dc/dcmitype/StillImage" />
        <dc:title />
      </cc:Work>
    </rdf:RDF>
  </metadata>
  <g
     transform="translate(-192.08216,-579.12637)"
     id="g2092">
    <g
       style="stroke-width:0.16327"
       id="g2081">
      <path
         d="m 192.18,587.53 c -0.23854,-0.28744 -0.0336,-0.84478 0.53522,-1.4551 1.1101,-1.1911 1.5646,-3.1672 0.9177,-3.9896 -0.38771,-0.49289 -0.43243,-1.3203 -0.0787,-1.456 0.40007,-0.15352 1.1359,0.24286 1.4556,0.78408 0.16298,0.27591 0.33346,0.96436 0.37886,1.5299 0.0698,0.86985 0.029,1.1035 -0.26521,1.5166 -0.19125,0.26861 -0.34774,0.64747 -0.34774,0.84191 0,0.42613 -0.81216,1.6447 -1.4091,2.1143 -0.49943,0.39283 -0.92153,0.43334 -1.1867,0.11386 z m 4.5006,8.9326 c -0.16836,-0.16834 -0.12849,-2.2787 0.051,-2.6998 0.0879,-0.20627 0.23361,-1.4404 0.32378,-2.7424 0.0902,-1.302 0.23341,-2.8082 0.31829,-3.3469 0.0849,-0.53877 0.24664,-2.2125 0.35944,-3.7193 0.13155,-1.757 0.27793,-2.8002 0.4081,-2.9082 0.14276,-0.11846 0.35866,-0.088 0.72753,0.10278 l 0.52452,0.27125 -0.13917,1.739 c -0.0765,0.95646 -0.14199,2.3635 -0.14545,3.1268 l -0.006,1.3878 0.7347,-0.0342 c 0.40408,-0.0188 1.9469,-0.0983 3.4286,-0.17677 1.4816,-0.0784 2.7857,-0.11029 2.898,-0.0708 0.22385,0.0788 0.27025,0.65967 0.077,0.96356 -0.19866,0.31234 -1.4471,0.51757 -3.7401,0.61486 -1.1841,0.0502 -2.33,0.15866 -2.5464,0.24093 -0.44598,0.16956 -0.82671,0.87655 -1.1099,2.0611 -0.10645,0.44521 -0.25153,0.95641 -0.32237,1.136 -0.0709,0.17959 -0.17201,0.73061 -0.22481,1.2245 -0.18567,1.7369 -0.37525,2.503 -0.67339,2.721 -0.31998,0.23398 -0.76635,0.28557 -0.94294,0.10896 z m 18.777,-6.412 c 0.37502,-0.17027 1.0577,-0.66428 1.517,-1.0978 0.74869,-0.70661 0.88516,-0.94823 1.3182,-2.3334 0.64597,-2.0666 0.66135,-3.472 0.0503,-4.5947 -0.3722,-0.68387 -0.55729,-0.84168 -1.3234,-1.1283 -0.95261,-0.35643 -1.831,-0.31592 -2.1764,0.10032 -0.104,0.12531 -0.31857,0.22782 -0.47684,0.22782 -0.26326,0 -0.58231,0.36118 -1.0816,1.2245 -0.50003,0.86449 -1.3937,2.8143 -1.5285,3.335 -0.0831,0.32085 -0.33577,1.0976 -0.56155,1.7262 -0.22576,0.62857 -0.41237,1.4127 -0.41469,1.7424 -0.004,0.53484 0.0531,0.6176 0.5264,0.76642 1.3771,0.43298 3.236,0.4471 4.1512,0.0315 z m -7.8383,6.5752 c -0.2338,-0.2338 -0.0812,-1.6707 0.31788,-2.9932 0.23031,-0.76327 0.49085,-1.7551 0.57895,-2.2041 0.17967,-0.91556 0.28349,-1.2414 0.98829,-3.102 0.27212,-0.71837 0.60182,-1.7469 0.73266,-2.2857 0.13082,-0.53877 0.56271,-1.6505 0.9597,-2.4705 0.39702,-0.81997 0.72183,-1.5762 0.72183,-1.6806 0,-0.27191 1.6338,-1.8456 2.2089,-2.1276 0.26676,-0.1308 0.61223,-0.34302 0.76774,-0.47157 0.3168,-0.2619 2.1004,-0.19657 2.6649,0.0976 0.17474,0.0911 0.52433,0.2625 0.77687,0.38093 0.67157,0.31499 1.3855,1.3819 1.7697,2.6449 0.37586,1.2354 0.3339,1.9785 -0.20223,3.5809 -0.17181,0.51349 -0.31497,1.138 -0.31816,1.3878 -0.003,0.24976 -0.095,0.60845 -0.20408,0.79709 -0.32787,0.56709 -1.8021,2.1823 -2.0705,2.2686 -0.13764,0.0442 -0.46371,0.2645 -0.72461,0.48953 -0.26091,0.22503 -0.57316,0.40914 -0.69388,0.40914 -0.13378,0 -0.21951,0.18642 -0.21951,0.47728 0,0.53094 0.39961,1.0771 1.8406,2.5154 0.81568,0.81417 0.94637,1.0266 0.90345,1.468 -0.10661,1.0966 -1.1671,0.71234 -2.5109,-0.90988 -2.1134,-2.5512 -2.5037,-2.8878 -3.5801,-3.0883 -0.53878,-0.10036 -1.2708,-0.19039 -1.6267,-0.20005 l -0.64712,-0.0176 -0.45742,1.3061 c -0.25158,0.71837 -0.56874,1.8175 -0.70479,2.4424 -0.13605,0.62495 -0.33696,1.1932 -0.44648,1.2628 -0.24619,0.15644 -0.67931,0.16834 -0.82496,0.0227 z"
         id="authority" />
    </g>
  </g>
</svg>
