<svg xmlns="http://www.w3.org/2000/svg" height="15.481" width="20.421"><path d="M.238 8.307c-.325-.325-.315-.92.019-1.137.071-.047.355-.513.63-1.037.407-.772.502-1.15.502-1.985 0-.863-.067-1.112-.408-1.518-.225-.266-.408-.678-.408-.915 0-1.02 1.374-.568 1.96.644.327.675.357.913.26 2.069-.113 1.364-.41 2.1-1.421 3.52-.563.79-.67.823-1.134.359zm17.359 6.87c-.622-.38-.777-.87-.63-1.985.128-.96.878-3.367 1.09-3.5.082-.049.148-.244.148-.433s.12-.726.268-1.194c.255-.811.254-.87-.041-1.269-.314-.424-.883-.766-1.275-.766-.118 0-.721.502-1.34 1.115-1.526 1.515-2.838 2.146-4.493 2.162-1.776.017-3.7.218-3.888.406-.091.09-.24.556-.33 1.033-.09.477-.302 1.136-.471 1.464-.168.327-.454 1.073-.635 1.656-.32 1.031-.345 1.062-.878 1.062h-.55l.016-.817c.01-.449.175-1.395.368-2.102.193-.707.35-1.516.35-1.797 0-.281.077-.768.171-1.081.094-.314.238-1.195.32-1.959.295-2.716.5-4.17.657-4.636.087-.26.159-.825.159-1.254 0-1.055.489-1.547 1.133-1.14.334.212.258 2.303-.185 5.115C7.287 6.998 7.25 7.55 7.4 7.7c.264.264 3.74.355 4.837.127.47-.097.995-.285 1.166-.416.17-.132.561-.404.867-.606.306-.202.636-.503.735-.669.098-.166.49-.643.87-1.061.381-.418.693-.815.694-.882.005-.332.97-.08 1.483.387.308.28.91.728 1.338.995.428.267.852.623.941.791.205.383.03 1.554-.27 1.803-.124.103-.225.282-.225.4 0 .117-.262 1.006-.583 1.975-.747 2.255-.858 3.128-.475 3.713.233.355.253.516.105.84-.22.485-.586.508-1.287.08z"/></svg>