<?xml version="1.0" encoding="UTF-8" standalone="no"?>
<svg
   xmlns:dc="http://purl.org/dc/elements/1.1/"
   xmlns:cc="http://creativecommons.org/ns#"
   xmlns:rdf="http://www.w3.org/1999/02/22-rdf-syntax-ns#"
   xmlns:svg="http://www.w3.org/2000/svg"
   xmlns="http://www.w3.org/2000/svg"
   id="svg2094"
   viewBox="0 0 20.420951 15.480582"
   version="1.1"
   height="15.480582"
   width="20.420952">
  <defs
     id="defs2098" />
  <metadata
     id="metadata2">
    <rdf:RDF>
      <cc:Work
         rdf:about="">
        <dc:format>image/svg+xml</dc:format>
        <dc:type
           rdf:resource="http://purl.org/dc/dcmitype/StillImage" />
        <dc:title />
      </cc:Work>
    </rdf:RDF>
  </metadata>
  <g
     transform="translate(-192.08223,-556.91336)"
     id="g2092">
    <g
       style="stroke-width:0.16327"
       id="g2081">
      <path
         d="m 192.32,565.22 c -0.325,-0.32499 -0.31506,-0.92045 0.019,-1.1371 0.0714,-0.0463 0.35542,-0.51298 0.63106,-1.037 0.40605,-0.77193 0.50117,-1.1486 0.50117,-1.9849 0,-0.86273 -0.067,-1.1117 -0.40816,-1.5172 -0.22449,-0.2668 -0.40816,-0.67883 -0.40816,-0.91561 0,-1.0195 1.3739,-0.56817 1.9608,0.64416 0.32679,0.67507 0.35675,0.91316 0.26037,2.0688 -0.11378,1.3644 -0.41105,2.1002 -1.422,3.5198 -0.56255,0.78991 -0.66929,0.82369 -1.134,0.35898 z m 17.359,6.8704 c -0.62186,-0.37916 -0.77721,-0.86919 -0.62922,-1.9848 0.12737,-0.96023 0.87758,-3.3677 1.0904,-3.4993 0.0807,-0.0499 0.14669,-0.24517 0.14669,-0.43402 0,-0.18885 0.12068,-0.72621 0.26818,-1.1941 0.25562,-0.81094 0.25371,-0.87028 -0.0408,-1.2685 -0.31376,-0.42421 -0.88313,-0.76661 -1.2748,-0.76661 -0.11864,0 -0.72163,0.50193 -1.34,1.1154 -1.5267,1.5146 -2.8382,2.1455 -4.4931,2.1615 -1.776,0.0172 -3.7004,0.21827 -3.8884,0.40631 -0.0907,0.0907 -0.23907,0.55564 -0.32963,1.0331 -0.0906,0.47745 -0.30252,1.1361 -0.47104,1.4636 -0.16852,0.32754 -0.45437,1.0731 -0.6352,1.6568 -0.3194,1.0308 -0.34457,1.0612 -0.87834,1.0612 h -0.54951 l 0.0164,-0.81633 c 0.009,-0.44898 0.17437,-1.395 0.36735,-2.1023 0.193,-0.7073 0.35089,-1.5159 0.35089,-1.797 0,-0.28106 0.0767,-0.76767 0.17046,-1.0814 0.0937,-0.31369 0.23811,-1.1948 0.32079,-1.9581 0.29428,-2.7168 0.49998,-4.1698 0.65633,-4.6366 0.0872,-0.26034 0.15854,-0.82449 0.15854,-1.2536 0,-1.0555 0.48905,-1.5472 1.1334,-1.1395 0.33364,0.2111 0.25786,2.3025 -0.1853,5.1144 -0.27435,1.7408 -0.31034,2.2918 -0.15953,2.4427 0.26372,0.26372 3.7392,0.35514 4.837,0.12722 0.46978,-0.0975 0.99419,-0.28492 1.1653,-0.41643 0.17113,-0.13149 0.56142,-0.40418 0.86728,-0.60594 0.30586,-0.20178 0.63647,-0.50264 0.73469,-0.6686 0.0982,-0.16595 0.49004,-0.6435 0.87071,-1.0612 0.38069,-0.41771 0.69293,-0.81458 0.69388,-0.88192 0.005,-0.33163 0.96927,-0.0799 1.4826,0.38684 0.30801,0.28009 0.91017,0.72793 1.3381,0.9952 0.42797,0.26724 0.85168,0.62336 0.94159,0.79134 0.20481,0.38271 0.0289,1.554 -0.2707,1.8027 -0.12349,0.10248 -0.22452,0.28235 -0.22452,0.39969 0,0.11736 -0.26254,1.0064 -0.58344,1.9757 -0.74637,2.2545 -0.8579,3.1271 -0.47445,3.7123 0.2326,0.35501 0.25277,0.51648 0.10496,0.84087 -0.22083,0.48465 -0.58599,0.50717 -1.2876,0.0794 z"
         id="author" />
    </g>
  </g>
</svg>
