<?xml version="1.0" encoding="UTF-8" standalone="no"?>
<svg
   xmlns:dc="http://purl.org/dc/elements/1.1/"
   xmlns:cc="http://creativecommons.org/ns#"
   xmlns:rdf="http://www.w3.org/1999/02/22-rdf-syntax-ns#"
   xmlns:svg="http://www.w3.org/2000/svg"
   xmlns="http://www.w3.org/2000/svg"
   id="svg2094"
   viewBox="0 0 12.162754 23.587748"
   version="1.1"
   height="23.587748"
   width="12.162754">
  <defs
     id="defs2098" />
  <metadata
     id="metadata2">
    <rdf:RDF>
      <cc:Work
         rdf:about="">
        <dc:format>image/svg+xml</dc:format>
        <dc:type
           rdf:resource="http://purl.org/dc/dcmitype/StillImage" />
        <dc:title />
      </cc:Work>
    </rdf:RDF>
  </metadata>
  <g
     transform="translate(-193.30153,-627.34759)"
     id="g2092">
    <g
       style="stroke-width:0.16327"
       id="g2081">
      <path
         d="m 193.41,634.99 c -0.19178,-0.19176 -0.11651,-0.83977 0.12566,-1.0819 0.12898,-0.12898 0.45959,-0.58944 0.7347,-1.0232 0.43634,-0.68805 0.50014,-0.9357 0.49998,-1.9404 0,-0.99277 -0.0565,-1.2172 -0.40816,-1.6261 -0.46967,-0.54613 -0.46041,-0.51034 -0.23896,-0.92412 0.27259,-0.50935 0.86054,-0.38157 1.519,0.33014 0.59303,0.64096 0.59765,0.65696 0.59765,2.0709 0,1.5624 -0.36537,2.6355 -1.0941,3.2134 -0.2064,0.16366 -0.37527,0.39985 -0.37527,0.52486 0,0.40466 -1.0576,0.75946 -1.3605,0.45648 z m 5.5826,8.1689 c -0.79172,-0.2428 -0.92181,-0.42047 -1.2569,-1.7165 -0.2488,-0.96237 0.25156,-4.2609 0.96977,-6.3928 0.20122,-0.59736 0.39361,-1.7949 0.48834,-3.0397 0.33553,-4.4096 0.33755,-4.4239 0.65048,-4.5913 0.19945,-0.10674 0.4375,-0.0933 0.73314,0.0414 0.42911,0.19551 0.43551,0.22062 0.3232,1.266 -0.063,0.58662 -0.17862,1.9115 -0.25688,2.9441 -0.14228,1.8775 -0.40872,3.2571 -0.86813,4.4951 -0.38104,1.0269 -0.7784,4.4153 -0.57921,4.9392 0.19665,0.51721 0.35391,0.6329 1.166,0.85773 0.49076,0.13589 0.61225,0.24743 0.61225,0.56213 0,0.41446 -0.54988,0.91291 -0.97511,0.88393 -0.13715,-0.009 -0.59027,-0.12153 -1.0069,-0.24931 z m 4.0321,7.4136 c -0.34784,-0.49662 -0.34078,-0.5321 0.39891,-2.0045 0.82156,-1.6354 0.85885,-2.3637 0.1678,-3.277 -0.57167,-0.75554 -0.62648,-1.2938 -0.15731,-1.5449 0.27814,-0.14886 0.43507,-0.10561 0.89796,0.24747 0.30853,0.23531 0.56093,0.51013 0.56093,0.61075 0,0.10061 0.12858,0.32498 0.28572,0.49862 0.2118,0.23405 0.28568,0.59634 0.28557,1.4006 -1.4e-4,0.9469 -0.0925,1.2785 -0.72654,2.6068 -0.62359,1.3066 -1.0144,1.825 -1.3758,1.825 -0.0457,0 -0.19747,-0.16328 -0.33726,-0.36285 z"
         id="auto" />
    </g>
  </g>
</svg>
