<svg xmlns="http://www.w3.org/2000/svg" height="23.588" width="12.163"><path d="M.108 7.642c-.191-.191-.116-.84.126-1.081.13-.13.46-.59.735-1.024.436-.688.5-.935.5-1.94 0-.993-.057-1.217-.408-1.626-.47-.546-.46-.51-.24-.924.273-.51.861-.382 1.52.33.593.64.597.657.597 2.07 0 1.563-.365 2.636-1.094 3.214-.206.164-.375.4-.375.525 0 .405-1.058.76-1.36.456zm5.583 8.17c-.792-.243-.922-.421-1.257-1.717-.249-.963.252-4.261.97-6.393.201-.597.394-1.795.488-3.04.336-4.41.338-4.424.65-4.591.2-.107.438-.093.734.041.429.196.435.221.323 1.266-.063.587-.179 1.912-.257 2.945C7.2 6.2 6.933 7.58 6.474 8.818c-.381 1.027-.778 4.415-.58 4.939.198.517.355.633 1.167.858.49.135.612.247.612.562 0 .414-.55.913-.975.884-.137-.01-.59-.122-1.007-.25zm4.032 7.413c-.348-.497-.34-.532.4-2.005.82-1.635.858-2.363.167-3.277-.572-.755-.627-1.293-.157-1.544.278-.15.435-.106.898.247.308.235.56.51.56.61 0 .101.129.326.286.5.212.233.286.596.286 1.4 0 .947-.093 1.278-.727 2.607-.623 1.306-1.014 1.825-1.376 1.825-.045 0-.197-.164-.337-.363z" stroke-width=".163"/></svg>