<?xml version="1.0" encoding="UTF-8" standalone="no"?>
<svg
   xmlns:dc="http://purl.org/dc/elements/1.1/"
   xmlns:cc="http://creativecommons.org/ns#"
   xmlns:rdf="http://www.w3.org/1999/02/22-rdf-syntax-ns#"
   xmlns:svg="http://www.w3.org/2000/svg"
   xmlns="http://www.w3.org/2000/svg"
   id="svg2094"
   viewBox="0 0 55.347037 19.680965"
   version="1.1"
   height="19.680965"
   width="55.347038">
  <defs
     id="defs2098" />
  <metadata
     id="metadata2">
    <rdf:RDF>
      <cc:Work
         rdf:about="">
        <dc:format>image/svg+xml</dc:format>
        <dc:type
           rdf:resource="http://purl.org/dc/dcmitype/StillImage" />
        <dc:title />
      </cc:Work>
    </rdf:RDF>
  </metadata>
  <g
     transform="translate(-192.65,-647.39857)"
     id="g2092">
    <g
       style="stroke-width:0.16327"
       id="g2081">
      <path
         d="m 192.65,658.85 c 0,-0.22807 0.13846,-0.68725 0.30769,-1.0204 0.4077,-0.80266 0.99843,-2.939 0.99843,-3.6108 0,-0.29439 -0.14694,-0.72206 -0.32653,-0.95037 -0.17959,-0.22833 -0.32653,-0.5863 -0.32653,-0.79553 0,-0.2133 0.14343,-0.45716 0.32653,-0.55515 0.46037,-0.24638 0.90589,0.0318 1.3056,0.81528 0.55796,1.0937 0.42278,2.9672 -0.36908,5.1155 -0.42331,1.1485 -1.9161,1.9287 -1.9161,1.0015 z m 52.803,-5.562 c 0.14204,-0.0545 0.25825,-0.18366 0.25825,-0.28701 0,-0.10336 0.17492,-0.51794 0.38872,-0.92132 0.50834,-0.9591 0.87143,-2.559 0.63451,-2.7959 -0.30463,-0.30463 -0.82991,0.003 -0.95165,0.55729 -0.0629,0.28645 -0.2067,0.66883 -0.31951,0.84973 -0.11282,0.18092 -0.29326,0.73301 -0.40102,1.2269 -0.10773,0.49388 -0.23116,1.0265 -0.27426,1.1837 -0.0815,0.29722 0.18315,0.37149 0.66496,0.18661 z m -12.665,0.0991 c 1.0083,-2.5752 1.3687,-4.3713 0.90751,-4.5229 -0.27477,-0.0903 -1.1548,1.7312 -1.2701,2.6289 -0.0565,0.43991 -0.1696,0.88073 -0.25133,0.97959 -0.0817,0.0988 -0.19545,0.80423 -0.2527,1.5675 -0.0962,1.2828 -0.0855,1.3569 0.14155,0.97959 0.13508,-0.22449 0.46137,-0.95918 0.72507,-1.6326 z m -3.1845,13.378 c -0.55435,-0.2744 -0.74021,-0.49142 -1.0136,-1.1836 -0.18415,-0.46614 -0.35623,-1.0679 -0.38241,-1.3373 -0.0388,-0.39856 -0.13125,-0.49941 -0.49661,-0.54145 -0.24694,-0.0284 -0.44898,0.0258 -0.44898,0.12039 0,0.0947 -0.29242,0.35667 -0.64981,0.58229 -0.56568,0.35709 -0.8352,0.4104 -2.0816,0.41169 -0.78751,0 -2.3869,0.11564 -3.5543,0.25516 -1.1674,0.13955 -2.7469,0.25215 -3.5102,0.25026 -0.76326,-0.002 -1.8653,0.0738 -2.449,0.16821 -0.58367,0.0944 -2.5673,0.19646 -4.4082,0.22676 -1.8409,0.0303 -4.8264,0.10558 -6.6346,0.1673 -3.6013,0.12292 -4.3089,0.0155 -5.4525,-0.8283 -1.1611,-0.85662 -1.2109,-1.9196 -0.39398,-8.4041 0.13011,-1.0327 0.23646,-2.4422 0.23635,-3.1322 -1e-4,-0.69008 0.0691,-1.4368 0.15371,-1.6595 0.17783,-0.46773 0.77016,-0.71706 1.0462,-0.44039 0.22164,0.22217 0.18401,4.0125 -0.0615,6.1956 -0.0868,0.7721 -0.23661,2.3752 -0.3328,3.5625 -0.20247,2.499 -0.0884,2.8383 1.0627,3.1603 0.7576,0.2119 13.336,0.0736 14.785,-0.16251 0.49388,-0.0805 2.2572,-0.19579 3.9184,-0.25617 1.6984,-0.0617 3.342,-0.20498 3.7551,-0.32726 0.40408,-0.11963 1.249,-0.26124 1.8776,-0.31469 1.5,-0.12756 2.1872,-0.38405 3.0026,-1.1208 0.36949,-0.33379 0.74044,-0.6069 0.82435,-0.6069 0.0839,0 0.37023,-0.45919 0.63629,-1.0204 0.43714,-0.92213 0.66328,-1.8896 1.1926,-5.102 0.0888,-0.53878 0.22916,-1.3102 0.31195,-1.7143 0.0828,-0.40408 0.19853,-1.0653 0.25718,-1.4694 0.0586,-0.40408 0.24323,-1.0073 0.4102,-1.3404 0.16698,-0.33316 0.30358,-0.70713 0.30358,-0.83105 0,-0.12394 0.21714,-0.65951 0.48253,-1.1902 0.39976,-0.79933 0.60209,-1.0165 1.1795,-1.266 0.76844,-0.33199 1.6639,-0.27958 2.0643,0.12081 0.20957,0.20955 0.20505,0.44149 -0.0369,1.894 -0.15165,0.91034 -0.41711,1.9625 -0.58989,2.3381 -0.17279,0.37561 -0.50387,1.1972 -0.73574,1.8258 -0.56416,1.5293 -1.4177,3.3469 -1.5716,3.3469 -0.0684,0 -0.17308,0.25987 -0.23265,0.5775 -0.0596,0.31762 -0.46701,1.1742 -0.90538,1.9036 -0.46679,0.77669 -0.79701,1.5227 -0.79701,1.8006 0,0.26095 -0.0741,0.61291 -0.16465,0.78214 -0.0906,0.16921 -0.20759,0.84398 -0.26007,1.4995 -0.10669,1.3327 0.038,1.6718 0.79098,1.8534 0.37069,0.0894 0.53951,0.0116 0.97959,-0.45166 0.60307,-0.63476 1.5929,-2.2193 1.5929,-2.5499 0,-0.34313 0.912,-2.1813 1.334,-2.6887 0.37321,-0.44873 0.92337,-0.6589 2.4211,-0.92493 2.3921,-0.42488 3.9269,-0.99944 4.1378,-1.549 0.0533,-0.13886 0.21643,-0.25248 0.36253,-0.25248 0.14611,0 0.46745,-0.1192 0.71408,-0.2649 0.44563,-0.26323 0.64447,-0.77908 0.92124,-2.39 0.058,-0.33774 0.17063,-0.65432 0.25025,-0.70353 0.0796,-0.0492 0.14475,-0.33793 0.14475,-0.64162 0,-0.30369 0.0735,-0.59757 0.16327,-0.65306 0.0898,-0.0555 0.16264,-0.26188 0.16189,-0.45861 -0.002,-0.40557 0.52581,-2.6003 0.65478,-2.7251 0.0464,-0.0449 0.23064,-0.36443 0.40938,-0.71008 0.41979,-0.8118 0.82187,-1.0858 1.5932,-1.0858 0.445,0 0.73919,0.11504 1.0249,0.40073 0.35274,0.35275 0.40074,0.54441 0.40074,1.6 0,0.6596 -0.0646,1.2691 -0.14355,1.3544 -0.0789,0.0853 -0.23516,0.44898 -0.34716,0.80816 -0.112,0.35919 -0.29871,0.76327 -0.41491,0.89796 -0.11621,0.1347 -0.48813,0.75919 -0.82651,1.3878 -0.33839,0.62857 -0.9051,1.4367 -1.2594,1.7959 -0.53726,0.54468 -0.74934,0.97818 -1.278,2.6122 -0.68512,2.1176 -1.2815,4.7648 -1.2815,5.6885 0,0.31679 0.0753,0.77412 0.16742,1.0163 0.37122,0.97639 -0.41975,1.525 -1.147,0.79557 -0.38148,-0.38261 -0.40627,-0.50772 -0.37913,-1.9141 0.0229,-1.1855 0.13543,-1.8282 0.53061,-3.0296 0.27587,-0.83871 0.50158,-1.702 0.50158,-1.9184 0,-0.33897 -0.0772,-0.39344 -0.55782,-0.39344 -0.3068,0 -0.58231,0.0641 -0.61225,0.14245 -0.11076,0.28991 -1.7719,0.99685 -2.9355,1.2492 -1.0987,0.23832 -1.5842,0.39396 -2.2617,0.725 -0.1347,0.0658 -0.33001,0.29606 -0.43404,0.51169 -0.6378,1.322 -1.1378,2.259 -1.471,2.7564 -0.20939,0.31269 -0.38385,0.68004 -0.38767,0.81633 -0.0113,0.39941 -1.1593,1.5714 -1.9049,1.9446 -0.8548,0.42785 -1.1,0.42883 -1.9506,0.008 z"
         id="automobile_abv" />
    </g>
  </g>
</svg>
