<svg xmlns="http://www.w3.org/2000/svg" height="19.681" width="55.347"><path d="M0 11.451c0-.228.138-.687.308-1.02.407-.803.998-2.939.998-3.61 0-.295-.147-.723-.326-.951-.18-.228-.327-.586-.327-.796A.68.68 0 01.98 4.52c.46-.246.905.032 1.305.815.558 1.094.423 2.968-.369 5.116C1.493 11.598 0 12.379 0 11.451zM52.803 5.89c.142-.054.258-.183.258-.287 0-.103.175-.518.389-.92.508-.96.871-2.56.634-2.797-.304-.304-.83.003-.951.557-.063.287-.207.67-.32.85-.113.181-.293.733-.4 1.227a36.075 36.075 0 01-.275 1.184c-.081.297.183.371.665.186zm-12.665.1c1.008-2.576 1.369-4.372.908-4.523-.275-.09-1.155 1.73-1.27 2.629-.057.44-.17.88-.252.98-.082.098-.195.803-.253 1.567-.096 1.282-.085 1.357.142.98.135-.225.461-.96.725-1.633zm-3.184 13.378c-.555-.275-.74-.492-1.014-1.184-.184-.466-.356-1.068-.383-1.337-.038-.399-.13-.5-.496-.542-.247-.028-.45.026-.45.12 0 .095-.292.357-.649.583-.566.357-.835.41-2.082.412-.787 0-2.386.115-3.554.255-1.167.14-2.747.252-3.51.25-.763-.002-1.865.074-2.449.168-.584.095-2.567.197-4.408.227-1.841.03-4.827.106-6.635.167-3.601.123-4.309.016-5.452-.828-1.161-.857-1.211-1.92-.394-8.404.13-1.033.236-2.442.236-3.132s.07-1.437.154-1.66c.178-.468.77-.717 1.046-.44.222.222.184 4.012-.062 6.195-.086.772-.236 2.376-.332 3.563-.203 2.499-.089 2.838 1.062 3.16.758.212 13.336.074 14.785-.162.494-.08 2.258-.196 3.919-.257 1.698-.061 3.342-.205 3.755-.327.404-.12 1.249-.261 1.877-.314 1.5-.128 2.188-.385 3.003-1.121.37-.334.74-.607.824-.607.084 0 .37-.46.637-1.02.437-.923.663-1.89 1.192-5.103.09-.538.23-1.31.312-1.714.083-.404.199-1.065.257-1.47a5.287 5.287 0 01.41-1.34c.168-.333.304-.707.304-.83 0-.125.217-.66.483-1.19.4-.8.602-1.017 1.18-1.267.768-.332 1.663-.28 2.064.12.21.21.205.442-.037 1.895-.152.91-.417 1.962-.59 2.338a32.182 32.182 0 00-.736 1.826c-.564 1.53-1.418 3.347-1.572 3.347-.068 0-.173.26-.232.577-.06.318-.467 1.174-.906 1.904-.466.776-.797 1.522-.797 1.8 0 .261-.074.613-.164.783-.09.169-.208.844-.26 1.499-.107 1.333.038 1.672.79 1.853.371.09.54.012.98-.451.603-.635 1.593-2.22 1.593-2.55 0-.343.912-2.181 1.334-2.689.373-.449.924-.659 2.421-.925 2.392-.425 3.927-1 4.138-1.549a.42.42 0 01.363-.252c.146 0 .467-.12.714-.265.445-.263.644-.78.92-2.39.059-.338.172-.654.251-.704.08-.049.145-.338.145-.641 0-.304.073-.598.163-.653.09-.056.163-.262.162-.459-.002-.406.526-2.6.655-2.725.046-.045.23-.364.41-.71C52.747.385 53.15.11 53.92.11c.445 0 .74.115 1.025.4.353.354.401.545.401 1.6 0 .66-.065 1.27-.144 1.355-.078.085-.235.45-.347.808-.112.36-.298.764-.415.898-.116.135-.488.76-.826 1.388-.338.629-.905 1.437-1.26 1.796-.537.545-.749.978-1.277 2.612-.686 2.118-1.282 4.765-1.282 5.689 0 .316.075.774.167 1.016.372.976-.42 1.525-1.147.796-.381-.383-.406-.508-.379-1.915.023-1.185.136-1.828.53-3.03.277-.838.502-1.701.502-1.918 0-.338-.077-.393-.557-.393-.307 0-.583.064-.613.142-.11.29-1.771.997-2.935 1.25-1.099.238-1.584.394-2.262.725-.134.065-.33.296-.434.511-.638 1.322-1.138 2.26-1.47 2.757-.21.312-.385.68-.388.816-.012.4-1.16 1.572-1.905 1.945-.855.428-1.1.429-1.951.008z" stroke-width=".163"/></svg>