<svg xmlns="http://www.w3.org/2000/svg" height="19.679" width="55.343"><path d="M0 11.448c0-.228.139-.687.308-1.02.407-.802.998-2.939.998-3.61 0-.295-.147-.723-.326-.95-.18-.23-.327-.587-.327-.796a.68.68 0 01.327-.556c.46-.246.905.032 1.306.816.558 1.094.422 2.967-.37 5.115C1.493 11.595 0 12.376 0 11.449zm52.8-5.562c.142-.054.258-.183.258-.287 0-.103.175-.517.389-.92.508-.96.871-2.56.634-2.797-.304-.304-.83.003-.951.557-.063.287-.207.67-.32.85-.112.181-.293.733-.4 1.227a35.897 35.897 0 01-.275 1.184c-.081.297.183.372.665.187zm-12.66.1c1.008-2.575 1.369-4.371.907-4.523-.274-.09-1.154 1.73-1.27 2.629-.056.44-.17.88-.25.98-.083.098-.196.803-.254 1.566-.096 1.283-.085 1.357.142.98.135-.225.461-.96.725-1.633zm-3.185 13.38c-.554-.275-.74-.492-1.014-1.184-.184-.467-.356-1.068-.382-1.337-.04-.399-.132-.5-.497-.542-.247-.028-.449.026-.449.12 0 .095-.292.357-.65.583-.566.357-.835.41-2.082.412-.787 0-2.387.115-3.554.255-1.167.14-2.747.252-3.51.25-.763-.002-1.865.074-2.449.168-.583.095-2.567.197-4.408.227-1.84.03-4.826.106-6.635.167-3.6.123-4.309.016-5.453-.828-1.16-.857-1.21-1.92-.394-8.404.13-1.033.237-2.442.237-3.132s.069-1.437.153-1.66c.178-.468.77-.717 1.046-.44.222.222.184 4.012-.061 6.196-.087.772-.237 2.375-.333 3.562-.202 2.499-.088 2.838 1.063 3.16.758.212 13.34.073 14.78-.163.494-.08 2.257-.196 3.918-.256 1.698-.062 3.342-.205 3.755-.327.404-.12 1.249-.262 1.878-.315 1.5-.128 2.187-.384 3.003-1.121.37-.334.74-.607.824-.607.084 0 .37-.46.637-1.02.437-.922.663-1.89 1.193-5.102.088-.539.229-1.31.312-1.714.082-.404.198-1.065.257-1.469a5.28 5.28 0 01.41-1.34c.167-.333.304-.707.304-.83 0-.125.217-.66.482-1.19.4-.8.602-1.017 1.18-1.267.769-.332 1.664-.28 2.064.12.21.21.205.442-.037 1.895-.151.91-.417 1.962-.59 2.338a32.015 32.015 0 00-.735 1.826c-.565 1.529-1.418 3.347-1.572 3.347-.069 0-.173.26-.233.577-.06.318-.467 1.174-.905 1.904-.467.777-.797 1.523-.797 1.801 0 .261-.074.613-.165.782-.09.17-.208.844-.26 1.5-.107 1.332.038 1.671.791 1.852.37.09.54.012.98-.451.603-.635 1.593-2.22 1.593-2.55 0-.343.912-2.181 1.334-2.69.373-.448.923-.658 2.42-.924 2.393-.425 3.928-1 4.139-1.55a.42.42 0 01.362-.252c.146 0 .467-.119.714-.265.446-.263.645-.779.921-2.39.058-.337.171-.654.25-.703.08-.05.145-.338.145-.642 0-.303.074-.597.164-.653.09-.055.162-.262.162-.458-.002-.406.525-2.6.654-2.725.047-.045.231-.365.41-.71.42-.812.822-1.086 1.593-1.086.445 0 .739.115 1.025.4.352.353.4.545.4 1.6 0 .66-.064 1.27-.143 1.354-.079.086-.235.45-.347.808-.112.36-.299.764-.415.898-.116.135-.488.76-.827 1.388-.338.63-.905 1.437-1.259 1.796-.537.545-.749.979-1.278 2.612-.685 2.118-1.28 4.765-1.28 5.688 0 .317.075.775.167 1.016.37.977-.42 1.525-1.147.796-.382-.383-.407-.508-.38-1.914.023-1.186.136-1.828.531-3.03.276-.839.502-1.702.502-1.918 0-.339-.077-.393-.558-.393-.307 0-.582.064-.612.142-.111.29-1.772.997-2.936 1.25-1.1.237-1.584.393-2.262.724-.135.066-.33.296-.434.512-.638 1.322-1.138 2.259-1.471 2.756-.21.312-.384.68-.388.816-.011.4-1.159 1.571-1.905 1.945-.855.428-1.1.429-1.95.008z" stroke-width=".163"/></svg>