<svg xmlns="http://www.w3.org/2000/svg" height="20.265" width="46.536"><path d="M14.7 7.216c0-.222.259-.586.668-.939 1.026-.884 1.615-2.804 1.051-3.427-.39-.431-.274-1.215.19-1.281 1.056-.15 1.747 1.367 1.302 2.863-.561 1.891-1.63 3.147-2.677 3.147-.444 0-.535-.062-.535-.363zM.114 11.878c-.248-.248-.08-.894.366-1.4.705-.803 1.32-2.056 1.32-2.687 0-.636-.302-1.299-.8-1.748-.621-.563-.28-1.356.5-1.155 1.65.426 2.204 2.913 1.106 4.973-.781 1.465-2.032 2.477-2.493 2.017zm32.38-8.381c0-.906-.155-1.02-.555-.409-.337.513-.745 2.905-.306 2.905.262 0 .862-1.804.862-2.496zm-9.722 1.634c.144-.337.216-.585.295-.74.232-.459.154-1.874-.104-1.874-.356 0-.541.346-.658 1.225-.06.449-.502 1.748-.55 1.994-.131.665.245 1.02.553.301zm21.73 1.346c.487-1.032.613-1.514.685-2.613.082-1.263.068-1.347-.236-1.347-.44 0-.679.593-.81 2.007-.063.681-.269 1.521-.489 1.993-.463.998-.475 1.225-.065 1.225.236 0 .471-.325.915-1.265zm-37.89 13.69a1.747 1.747 0 01-.552-.407c-.12-.145-.305-.263-.41-.263-.349 0-.794-1.567-.674-2.368.06-.4.17-.764.243-.81.074-.046.188-.506.252-1.024.064-.517.22-1.189.345-1.491.286-.686.295-1.396.021-1.624-.114-.095-.574-.195-1.02-.224-.697-.044-.82-.103-.864-.415-.043-.297.11-.443.836-.799l.887-.435.67.31c.369.17.672.403.675.518.002.116.123.393.27.616.21.32.242.62.154 1.422-.113 1.034-.156 1.212-.742 3.019-.421 1.298-.417 1.382.091 1.986.6.713 1.154.67 2.087-.166.966-.864 2.315-3.384 2.579-4.816.165-.894.25-1.053.652-1.22.38-.157.534-.144.865.073.222.145.589.264.816.264.688 0 3.49-.787 3.967-1.115.247-.169.647-.427.89-.574.545-.33.967-1.264 1.34-2.964.157-.718.399-1.563.536-1.877.138-.315.315-1.086.394-1.715C21.118 2.5 22.196.325 22.898.081c1.304-.455 1.73 1.023 1.19 4.123-.235 1.34-.584 2.355-.994 2.885-.104.135-.43.686-.724 1.224-.294.54-.738 1.213-.985 1.498-.248.286-.5.763-.56 1.062-.122.594-.64 2.08-.886 2.539-.414.771-.782 3.609-.529 4.081.27.503 1.763.77 2.893.518.847-.19 1.042-.335 2.857-2.124 1.07-1.056 1.947-1.986 1.947-2.066 0-.081.251-.398.558-.705.517-.518 1.728-2.935 1.728-3.45a.63.63 0 01.152-.381c.239-.244.664-2.293.67-3.227.008-1.48.544-3.782 1.05-4.512.426-.614.513-.661 1.227-.661.966 0 1.285.322 1.416 1.426.07.592.005 1.104-.238 1.859a18.617 18.617 0 00-.448 1.613 4.886 4.886 0 01-.36 1.06c-.138.27-.306.606-.373.747-.493 1.027-1.118 2.147-1.568 2.81-.29.428-.573.942-.626 1.142a52.96 52.96 0 01-.818 2.808c-.226.715-.41 1.398-.41 1.515 0 .118-.119.395-.263.616-.307.467-.22.977.271 1.602.976 1.24 2.703-.241 4.146-3.555.843-1.936 1.22-2.282 2.197-2.013.888.246 2.238.047 2.969-.437.348-.23.767-.418.932-.418.376 0 1.666-.976 1.666-1.26 0-.115.07-.21.157-.21.086 0 .24-.311.342-.693.102-.382.392-1.318.645-2.082.252-.763.498-1.82.546-2.35.048-.529.165-1.04.26-1.134.095-.095.172-.338.172-.54 0-.577.773-2.56 1.087-2.79 1.114-.814 2.342.609 2.342 2.715 0 .933-.667 3.267-1.085 3.795-.48.605-1.364 1.95-1.364 2.073 0 .077-.33.441-.735.809-.43.39-.734.812-.734 1.015 0 .374-.466 1.937-.657 2.203-.064.09-.21.457-.325.816-.114.36-.307.798-.43.976a1.41 1.41 0 00-.221.673c0 .194-.11.616-.245.939-.312.746-.314 1.748-.005 2.157.367.484.3.877-.18 1.06-.55.209-1.068-.106-1.369-.832-.33-.796.109-2.895.97-4.645.498-1.011.664-2.042.329-2.042-.248 0-.811.319-1.194.675-.18.168-.43.305-.556.305-.127 0-.429.141-.672.315-.268.19-.858.355-1.495.417-1.644.161-1.673.176-2.109 1.068-.222.456-.525.96-.675 1.12-.149.16-.321.518-.382.797-.249 1.132-2.604 2.977-3.8 2.977-1.303 0-2.058-1.04-2.075-2.855-.01-.993-.052-1.149-.327-1.202-.174-.033-.394.044-.49.171-.095.128-.3.28-.453.337-.153.057-.466.402-.695.765-.23.364-.524.661-.654.661s-.44.258-.691.572c-.642.805-1.674 1.12-3.373 1.03-1.114-.06-1.447-.147-2.063-.541-.404-.26-.83-.585-.948-.725-.282-.335-.13-1.67.407-3.556.601-2.118.642-2.494.273-2.493-.167 0-.524.146-.793.324-.27.178-.894.441-1.388.585a38.58 38.58 0 00-1.556.492c-.363.127-.847.23-1.077.23-.57 0-1.009.582-2.135 2.83-.51 1.018-1.783 2.55-2.55 3.066-.754.51-1.841.73-2.402.488z"/></svg>