<?xml version="1.0" encoding="UTF-8" standalone="no"?>
<svg
   xmlns:dc="http://purl.org/dc/elements/1.1/"
   xmlns:cc="http://creativecommons.org/ns#"
   xmlns:rdf="http://www.w3.org/1999/02/22-rdf-syntax-ns#"
   xmlns:svg="http://www.w3.org/2000/svg"
   xmlns="http://www.w3.org/2000/svg"
   id="svg2094"
   viewBox="0 0 24.186107 20.361492"
   version="1.1"
   height="20.361492"
   width="24.186108">
  <defs
     id="defs2098" />
  <metadata
     id="metadata2">
    <rdf:RDF>
      <cc:Work
         rdf:about="">
        <dc:format>image/svg+xml</dc:format>
        <dc:type
           rdf:resource="http://purl.org/dc/dcmitype/StillImage" />
        <dc:title />
      </cc:Work>
    </rdf:RDF>
  </metadata>
  <g
     transform="translate(-192.27977,-671.22162)"
     id="g2092">
    <g
       style="stroke-width:0.16327"
       id="g2081">
      <path
         d="m 206.01,679.89 c -0.15293,-0.0403 -0.32583,-0.22376 -0.38425,-0.40779 -0.0814,-0.25648 0.0835,-0.53045 0.70593,-1.1732 1.1652,-1.2032 1.4396,-2.2202 0.92875,-3.4429 -0.31066,-0.74353 -0.18382,-1.2324 0.31976,-1.2324 0.55474,0 0.99067,0.47739 1.2306,1.3476 0.37286,1.3525 -0.0317,2.7708 -1.0809,3.7899 -0.2991,0.2905 -0.54383,0.60078 -0.54383,0.68955 0,0.13234 -0.75215,0.58579 -0.86483,0.52139 -0.0182,-0.0104 -0.15826,-0.0519 -0.31117,-0.0921 z m -13.586,2.5304 c -0.23314,-0.33285 -0.2144,-0.39977 0.28584,-1.0204 0.29444,-0.36531 0.65969,-0.93245 0.81168,-1.2603 0.34555,-0.74545 0.36411,-2.6587 0.0314,-3.2406 -0.31446,-0.5501 -0.30868,-1.2919 0.0111,-1.4146 0.41368,-0.15874 1.0546,0.29341 1.4137,0.99729 0.29182,0.57202 0.32145,0.84436 0.23503,2.1598 -0.12266,1.8674 -0.50284,2.7467 -1.5355,3.5512 -0.41211,0.32108 -0.80656,0.58379 -0.87652,0.58379 -0.07,0 -0.2395,-0.1603 -0.37672,-0.35622 z m 21.03,-4.9101 c 1.1138,-1.9085 1.3991,-2.6558 1.4022,-3.6724 0.003,-0.86508 -0.0404,-1.02 -0.28266,-1.0179 -0.63265,0.006 -0.93448,0.52411 -1.2814,2.2016 -0.11141,0.53878 -0.2797,1.3284 -0.37397,1.7548 -0.16214,0.73333 -0.11076,1.2669 0.12179,1.2646 0.0577,0 0.24407,-0.23934 0.41404,-0.53061 z m -14.84,13.919 c -0.0555,-0.0898 -0.23184,-0.16327 -0.39185,-0.16327 -0.40116,0 -1.1592,-1.4357 -1.1592,-2.1955 0,-0.33013 0.17939,-0.98142 0.39868,-1.4473 0.21926,-0.46588 0.52086,-1.3877 0.6702,-2.0486 0.3194,-1.4134 0.21869,-1.615 -0.9472,-1.8969 -0.72762,-0.17592 -0.96491,-0.55732 -0.61161,-0.98303 0.27266,-0.32854 1.5581,-0.48239 2.2638,-0.27094 0.55076,0.16499 0.61494,0.24979 0.80376,1.0619 0.14566,0.62657 0.15677,1.01 0.0383,1.3216 -0.0918,0.24149 -0.16694,0.65631 -0.16694,0.92183 0,0.2655 -0.22041,0.96885 -0.4898,1.563 -0.65203,1.438 -0.65177,2.2036 0.002,2.6683 l 0.49067,0.3494 0.68644,-0.3791 c 0.70796,-0.39097 1.6998,-1.5601 2.1852,-2.5757 0.15216,-0.31836 0.33591,-0.70099 0.40834,-0.85027 0.0724,-0.14929 0.36098,-0.86596 0.64121,-1.5926 0.28023,-0.72666 0.64614,-1.3943 0.81314,-1.4837 0.16699,-0.0894 0.697,-0.1625 1.1778,-0.1625 0.93321,0 2.1348,-0.35833 3.0657,-0.91422 0.31429,-0.18767 0.81803,-0.43825 1.1194,-0.55683 0.40898,-0.16092 0.63013,-0.4055 0.87171,-0.96412 0.3728,-0.86204 0.98949,-3.394 1.2758,-5.2383 0.35115,-2.2614 1.3052,-3.841 2.5725,-4.2593 0.73695,-0.24322 1.2003,-0.0972 1.6586,0.52272 0.70583,0.95468 0.62731,2.3286 -0.24823,4.3436 -0.20361,0.46857 -0.45003,0.94612 -0.54761,1.0612 -0.44671,0.52687 -1.2698,1.6915 -1.641,2.3218 -0.64219,1.0905 -1.0157,1.6167 -1.3975,1.969 -0.35303,0.32571 -0.75218,1.4586 -1.3754,3.9037 -0.41404,1.6245 -0.41446,2.4095 -0.002,3.6086 0.2975,0.86474 0.30457,0.98569 0.0779,1.3317 -0.31416,0.47948 -0.58046,0.48089 -1.0271,0.005 -0.37625,-0.40049 -1.0129,-2.063 -1.0072,-2.63 0.002,-0.18797 0.18605,-0.85607 0.40921,-1.4846 0.22319,-0.62857 0.45217,-1.5286 0.50884,-2 0.10171,-0.84593 0.0974,-0.85714 -0.33333,-0.85714 -0.24001,0 -0.5991,0.1065 -0.79799,0.23667 -0.19887,0.13015 -1.0842,0.49151 -1.9673,0.80298 -0.88314,0.31148 -1.6274,0.5907 -1.6538,0.62048 -0.0265,0.0298 -0.24131,0.4215 -0.47744,0.87048 -0.23615,0.44898 -0.64599,1.1837 -0.91081,1.6326 -0.2648,0.44898 -0.61309,1.0712 -0.77397,1.3826 -0.4707,0.9112 -1.7229,2.1442 -2.4261,2.389 -0.75672,0.26338 -1.6423,0.29567 -1.7848,0.0651 z"
         id="avail" />
    </g>
  </g>
</svg>
