<svg xmlns="http://www.w3.org/2000/svg" height="20.361" width="24.186"><path d="M13.73 8.668c-.153-.04-.326-.223-.384-.407-.081-.257.083-.53.706-1.174 1.165-1.203 1.44-2.22.929-3.443-.311-.743-.184-1.232.32-1.232.554 0 .99.477 1.23 1.348.373 1.352-.032 2.77-1.08 3.79-.3.29-.545.6-.545.69 0 .131-.752.585-.865.52a3.27 3.27 0 00-.31-.092zM.144 11.198c-.233-.332-.214-.399.286-1.02.295-.365.66-.932.812-1.26.345-.745.364-2.659.031-3.24-.314-.55-.309-1.292.011-1.415.414-.159 1.055.293 1.414.997.292.572.321.845.235 2.16-.123 1.867-.503 2.747-1.536 3.551-.412.321-.806.584-.876.584-.07 0-.24-.16-.377-.356zm21.03-4.91c1.114-1.908 1.4-2.655 1.402-3.672.003-.865-.04-1.02-.282-1.018-.633.006-.935.524-1.282 2.202-.111.539-.28 1.328-.374 1.755-.162.733-.11 1.267.122 1.264.058 0 .244-.239.414-.53zm-14.84 13.92c-.055-.09-.232-.164-.392-.164-.4 0-1.159-1.435-1.159-2.195 0-.33.18-.982.399-1.447.22-.466.52-1.388.67-2.049.32-1.413.219-1.615-.947-1.897-.728-.176-.965-.557-.612-.983.273-.328 1.558-.482 2.264-.27.55.164.615.249.804 1.061.145.627.157 1.01.038 1.322a3.11 3.11 0 00-.167.921c0 .266-.22.97-.49 1.563-.652 1.438-.651 2.204.002 2.669l.491.35.686-.38c.708-.39 1.7-1.56 2.186-2.576l.408-.85c.072-.15.361-.866.641-1.593.28-.726.646-1.394.813-1.483.167-.09.697-.163 1.178-.163.933 0 2.135-.358 3.066-.914a9.291 9.291 0 011.12-.557c.408-.16.63-.405.871-.964.373-.862.99-3.394 1.276-5.238.35-2.262 1.305-3.841 2.572-4.26.737-.243 1.2-.097 1.659.523.706.955.627 2.329-.248 4.344-.204.468-.45.946-.548 1.061-.447.527-1.27 1.692-1.641 2.322-.642 1.09-1.016 1.617-1.397 1.969-.353.326-.753 1.458-1.376 3.904-.414 1.624-.414 2.409-.002 3.608.298.865.305.986.078 1.332-.314.48-.58.48-1.027.005-.376-.4-1.013-2.063-1.007-2.63.002-.188.186-.856.409-1.485.223-.628.452-1.528.509-2 .101-.846.097-.857-.334-.857-.24 0-.599.107-.798.237-.198.13-1.084.491-1.967.803-.883.311-1.627.59-1.654.62-.026.03-.24.422-.477.87a46.461 46.461 0 01-.91 1.633 35.42 35.42 0 00-.775 1.383c-.47.911-1.723 2.144-2.426 2.389-.757.263-1.642.296-1.785.065z" stroke-width=".163"/></svg>