<?xml version="1.0" encoding="UTF-8" standalone="no"?>
<svg
   xmlns:dc="http://purl.org/dc/elements/1.1/"
   xmlns:cc="http://creativecommons.org/ns#"
   xmlns:rdf="http://www.w3.org/1999/02/22-rdf-syntax-ns#"
   xmlns:svg="http://www.w3.org/2000/svg"
   xmlns="http://www.w3.org/2000/svg"
   id="svg2094"
   viewBox="0 0 46.536025 20.264582"
   version="1.1"
   height="20.264582"
   width="46.536026">
  <defs
     id="defs2098" />
  <metadata
     id="metadata2">
    <rdf:RDF>
      <cc:Work
         rdf:about="">
        <dc:format>image/svg+xml</dc:format>
        <dc:type
           rdf:resource="http://purl.org/dc/dcmitype/StillImage" />
        <dc:title />
      </cc:Work>
    </rdf:RDF>
  </metadata>
  <g
     transform="translate(-192.4805,-694.95422)"
     id="g2092">
    <g
       style="stroke-width:0.16327"
       id="g2081">
      <path
         d="m 207.18,702.17 c 0,-0.22214 0.25925,-0.58627 0.66837,-0.93878 1.0259,-0.88396 1.6152,-2.804 1.0516,-3.4267 -0.39027,-0.43125 -0.27476,-1.2157 0.18875,-1.2817 1.0568,-0.15042 1.7476,1.3674 1.3032,2.8638 -0.56147,1.8907 -1.6301,3.1463 -2.6777,3.1463 -0.44323,0 -0.53423,-0.0618 -0.53423,-0.36289 z m -14.585,4.6622 c -0.24782,-0.2478 -0.0788,-0.89358 0.36663,-1.4009 0.70444,-0.80232 1.3204,-2.0553 1.3204,-2.6859 0,-0.63639 -0.30302,-1.299 -0.79961,-1.7484 -0.62229,-0.56317 -0.28029,-1.3558 0.49827,-1.1548 1.6512,0.42617 2.2044,2.9127 1.1064,4.9728 -0.78078,1.4649 -2.0318,2.4776 -2.4922,2.0172 z m 32.381,-8.381 c 0,-0.90568 -0.1555,-1.02 -0.55595,-0.40888 -0.33623,0.51316 -0.74504,2.9046 -0.30532,2.9046 0.26177,0 0.86127,-1.8038 0.86127,-2.4957 z m -9.7224,1.6342 c 0.14419,-0.33673 0.21619,-0.58514 0.29503,-0.74106 0.23161,-0.4581 0.15405,-1.8727 -0.1037,-1.8727 -0.35603,0 -0.54191,0.34557 -0.65863,1.2245 -0.0596,0.44898 -0.50176,1.7476 -0.55038,1.9945 -0.13087,0.66452 0.24576,1.0196 0.55362,0.30077 z m 21.73,1.3454 c 0.48702,-1.032 0.61331,-1.5136 0.6849,-2.6122 0.0823,-1.2632 0.0677,-1.3469 -0.23554,-1.3469 -0.43992,0 -0.67932,0.59285 -0.81026,2.0065 -0.0631,0.68107 -0.26904,1.5212 -0.48873,1.9935 -0.46382,0.99718 -0.47592,1.2245 -0.0652,1.2245 0.23608,0 0.47114,-0.32511 0.91481,-1.2653 z m -37.891,13.69 c -0.18271,-0.0788 -0.43048,-0.26173 -0.55061,-0.40647 -0.12012,-0.14475 -0.3051,-0.26316 -0.41106,-0.26316 -0.34809,0 -0.79392,-1.5667 -0.67379,-2.3677 0.0599,-0.39969 0.16962,-0.76417 0.24372,-0.80998 0.0741,-0.0458 0.18723,-0.50669 0.2514,-1.0242 0.0641,-0.51752 0.21967,-1.1887 0.34561,-1.4915 0.28529,-0.68597 0.29437,-1.396 0.0207,-1.6231 -0.11453,-0.0951 -0.57372,-0.19589 -1.0204,-0.22407 -0.69678,-0.044 -0.81953,-0.10295 -0.86389,-0.41505 -0.0423,-0.2976 0.10975,-0.44295 0.83591,-0.7991 l 0.8876,-0.43532 0.67009,0.30931 c 0.36856,0.17012 0.67199,0.40372 0.67431,0.51914 0.002,0.11539 0.12375,0.39226 0.26986,0.61524 0.20953,0.31981 0.24219,0.6203 0.15456,1.4228 -0.11286,1.0338 -0.1566,1.2117 -0.74224,3.0181 -0.42098,1.2985 -0.41711,1.3822 0.0916,1.9868 0.60004,0.71309 1.1536,0.66898 2.0868,-0.16624 0.96556,-0.86419 2.3149,-3.3843 2.5787,-4.8163 0.1647,-0.89384 0.24985,-1.0532 0.65168,-1.2196 0.37952,-0.15721 0.53441,-0.14418 0.86561,0.0728 0.22186,0.14537 0.58872,0.26431 0.81525,0.26431 0.68856,0 3.4896,-0.78717 3.9675,-1.1149 0.24666,-0.16921 0.64673,-0.42759 0.88904,-0.57418 0.54569,-0.33018 0.9682,-1.2642 1.3406,-2.9639 0.15742,-0.71837 0.39887,-1.5633 0.53659,-1.8776 0.13771,-0.31429 0.31495,-1.0857 0.39386,-1.7143 0.19686,-1.5681 1.2749,-3.7432 1.9764,-3.9877 1.304,-0.45457 1.7304,1.0232 1.1897,4.1236 -0.23373,1.3403 -0.58301,2.3546 -0.99325,2.8845 -0.10427,0.1347 -0.43018,0.68572 -0.72424,1.2245 -0.29406,0.53878 -0.73726,1.2129 -0.9849,1.4981 -0.24762,0.28517 -0.4999,0.76272 -0.56062,1.0612 -0.12081,0.59398 -0.63889,2.0801 -0.88514,2.5391 -0.41385,0.77136 -0.7817,3.6093 -0.52903,4.0814 0.26919,0.50301 1.7632,0.77035 2.8925,0.51763 0.8473,-0.18963 1.0425,-0.33469 2.8572,-2.1235 1.0712,-1.056 1.9477,-1.986 1.9477,-2.0667 0,-0.0807 0.25078,-0.3977 0.55729,-0.70449 0.51716,-0.51768 1.7284,-2.9351 1.7284,-3.4496 0,-0.12463 0.0684,-0.2964 0.15191,-0.38171 0.23896,-0.24397 0.66391,-2.2924 0.66934,-3.2265 0.009,-1.4804 0.54446,-3.7819 1.0506,-4.5122 0.42579,-0.61443 0.51283,-0.66134 1.2271,-0.66134 0.96565,0 1.2854,0.32199 1.4162,1.4261 0.0702,0.59269 0.005,1.1045 -0.23852,1.8591 -0.18445,0.57272 -0.38574,1.2984 -0.44728,1.6127 -0.0616,0.31429 -0.22411,0.79184 -0.36127,1.0612 -0.13714,0.26939 -0.30478,0.60529 -0.37252,0.74644 -0.49271,1.0265 -1.1178,2.1469 -1.5672,2.8089 -0.29117,0.4289 -0.57305,0.94318 -0.62639,1.1429 -0.3088,1.1559 -0.44754,1.6321 -0.81809,2.8075 -0.22566,0.71586 -0.41031,1.398 -0.41031,1.5159 0,0.11791 -0.11831,0.39492 -0.26289,0.61559 -0.30631,0.46746 -0.22,0.97713 0.2712,1.6016 0.97551,1.2402 2.703,-0.24083 4.1461,-3.5546 0.8432,-1.9362 1.2208,-2.2821 2.1966,-2.0127 0.88813,0.24521 2.2387,0.0464 2.9693,-0.43708 0.34751,-0.22996 0.767,-0.41812 0.93219,-0.41812 0.37537,0 1.6658,-0.97564 1.6658,-1.2594 0,-0.11548 0.0705,-0.20996 0.15672,-0.20996 0.0862,0 0.24013,-0.31224 0.34209,-0.69387 0.10196,-0.38164 0.39212,-1.3184 0.6448,-2.0816 0.2527,-0.76326 0.49861,-1.8207 0.54648,-2.3498 0.0479,-0.52912 0.16474,-1.0397 0.25969,-1.1347 0.095,-0.095 0.17267,-0.3383 0.17267,-0.54075 0,-0.57599 0.77244,-2.5593 1.0861,-2.7887 1.1143,-0.81479 2.3425,0.60869 2.3425,2.7149 0,0.93279 -0.66741,3.2672 -1.0848,3.7943 -0.47948,0.60548 -1.3642,1.9504 -1.3642,2.0738 0,0.0769 -0.33061,0.44072 -0.73469,0.80847 -0.42957,0.39094 -0.73469,0.81241 -0.73469,1.0148 0,0.3744 -0.46575,1.9372 -0.65671,2.2035 -0.0644,0.0898 -0.21056,0.45714 -0.32484,0.81633 -0.11427,0.35918 -0.30752,0.79797 -0.42944,0.9751 -0.12191,0.17713 -0.22167,0.48039 -0.22167,0.67394 0,0.19354 -0.1102,0.61566 -0.24489,0.93803 -0.31174,0.74609 -0.31416,1.7488 -0.005,2.1572 0.36663,0.48472 0.29989,0.87748 -0.18011,1.06 -0.55004,0.20913 -1.0678,-0.10545 -1.3685,-0.83151 -0.32988,-0.79639 0.10829,-2.8954 0.96963,-4.645 0.49799,-1.0116 0.6638,-2.042 0.32859,-2.042 -0.24741,0 -0.81097,0.31881 -1.1935,0.67515 -0.17972,0.16745 -0.43015,0.30444 -0.5565,0.30444 -0.12635,0 -0.42867,0.14165 -0.67181,0.3148 -0.26752,0.19049 -0.85768,0.35542 -1.4946,0.41769 -1.6448,0.1608 -1.6738,0.17546 -2.109,1.0682 -0.2219,0.45513 -0.52562,0.95864 -0.67494,1.1189 -0.14932,0.16029 -0.3215,0.5191 -0.38263,0.79737 -0.24865,1.1322 -2.6037,2.9769 -3.8004,2.9769 -1.3019,0 -2.0576,-1.0398 -2.0748,-2.8549 -0.009,-0.99314 -0.0516,-1.1485 -0.32652,-1.2014 -0.17365,-0.0334 -0.39405,0.0436 -0.48979,0.17114 -0.0957,0.12757 -0.2995,0.279 -0.4528,0.33649 -0.15331,0.0575 -0.46648,0.40193 -0.69592,0.76539 -0.22945,0.36347 -0.52335,0.66086 -0.65308,0.66086 -0.12975,0 -0.44106,0.25728 -0.69184,0.57172 -0.64179,0.8048 -1.6734,1.1196 -3.373,1.0293 -1.1132,-0.0591 -1.4466,-0.14653 -2.0625,-0.54072 -0.40408,-0.2586 -0.83086,-0.58459 -0.94838,-0.72443 -0.28171,-0.33523 -0.12903,-1.6699 0.40684,-3.5564 0.6016,-2.1179 0.64289,-2.494 0.27369,-2.4927 -0.16698,0 -0.52399,0.14642 -0.79338,0.32407 -0.26938,0.17763 -0.89387,0.44093 -1.3878,0.58508 -0.49388,0.14416 -1.1943,0.36568 -1.5565,0.49226 -0.36219,0.12659 -0.84673,0.23017 -1.0767,0.23017 -0.56947,0 -1.0086,0.58188 -2.1346,2.8287 -0.51051,1.0187 -1.7834,2.5498 -2.5498,3.067 -0.75404,0.5089 -1.8419,0.72996 -2.4024,0.4882 z"
         id="available" />
    </g>
  </g>
</svg>
