<svg xmlns="http://www.w3.org/2000/svg" height="20.726" width="34.525"><path d="M.093 6.68c-.144-.27-.126-.402.091-.642.15-.165.41-.545.576-.843 1.276-2.285 1.379-2.846.725-3.961C1.006.417 1.085 0 1.718 0 2.425 0 3.14.883 3.27 1.913c.127 1.02-.243 2.363-.825 2.994-.211.23-.384.526-.384.66C2.06 5.821.727 7.02.442 7.02c-.092 0-.249-.153-.349-.34zm5.935 7.57c-1.06-.528-1.27-2.35-.473-4.124.546-1.216.759-2.94.402-3.251-.123-.108-.481-.33-.795-.494-.675-.35-.732-.753-.159-1.101.634-.385 1.594-.057 2.118.724.534.796.536 2.322.004 3.635-.199.49-.428 1.06-.51 1.267-.225.57-.176 1.388.107 1.792.321.46 1.028.476 1.586.037.228-.18.484-.327.568-.327.255 0 1.51-1.343 1.95-2.085.343-.581.732-1.881 1.117-3.732.097-.468.798-.585 1.593-.267.494.197.9.224 1.883.122 1.59-.164 2.886-.134 3.278.076.169.09.536.57.816 1.066.523.927.96 1.153 1.111.575.047-.18.154-.326.237-.326.181 0 1.175-.683 1.254-.862.031-.07.34-.272.688-.449.472-.24.96-.322 1.93-.322.715 0 1.42.046 1.565.102.315.12.8 1.023 1.051 1.96.29 1.079-.25 5.484-.712 5.813-.093.066-.369.121-.613.122-.712.004-.833-.447-.442-1.656.384-1.19.572-2.929.41-3.79-.215-1.148-1.088-1.499-2.6-1.046-1.227.368-3.155 2.585-4.201 4.83-.676 1.452-.718 1.502-1.242 1.502-.532 0-.543-.015-.543-.714 0-.393.184-1.277.409-1.964.25-.764.408-1.628.408-2.221 0-.86-.048-1.003-.414-1.242-.315-.207-.615-.247-1.265-.168-2.812.34-3.247.405-3.337.494-.054.055-.232.479-.396.943-.49 1.39-1.522 2.975-2.252 3.458-.365.242-.663.501-.663.577 0 .076-.347.314-.771.528-.424.215-.87.482-.991.594-.303.281-1.475.238-2.106-.076zM32.2 19.682c-.78-.588-1.488-1.07-1.573-1.07-.085 0-.56-.367-1.057-.816-.495-.45-.962-.816-1.036-.816-.075 0-.22-.186-.324-.413-.144-.316-.14-.488.013-.735.11-.177.262-.322.336-.322.259 0 .854.382 1.565 1.005.394.345.847.628 1.007.628.16 0 .314.056.344.125.089.205 1.659 1.294 2.029 1.408.62.19 1.074.828 1.017 1.428-.09.936-.658.832-2.321-.422z" stroke-width=".163"/></svg>