<?xml version="1.0" encoding="UTF-8" standalone="no"?>
<svg
   xmlns:dc="http://purl.org/dc/elements/1.1/"
   xmlns:cc="http://creativecommons.org/ns#"
   xmlns:rdf="http://www.w3.org/1999/02/22-rdf-syntax-ns#"
   xmlns:svg="http://www.w3.org/2000/svg"
   xmlns="http://www.w3.org/2000/svg"
   id="svg2094"
   viewBox="0 0 34.524684 20.726173"
   version="1.1"
   height="20.726173"
   width="34.524685">
  <defs
     id="defs2098" />
  <metadata
     id="metadata2">
    <rdf:RDF>
      <cc:Work
         rdf:about="">
        <dc:format>image/svg+xml</dc:format>
        <dc:type
           rdf:resource="http://purl.org/dc/dcmitype/StillImage" />
        <dc:title />
      </cc:Work>
    </rdf:RDF>
  </metadata>
  <g
     transform="translate(-192.71693,-725.21974)"
     id="g2092">
    <g
       style="stroke-width:0.16327"
       id="g2081">
      <path
         d="m 192.81,731.9 c -0.14446,-0.26991 -0.12567,-0.40238 0.091,-0.64178 0.15016,-0.16593 0.4092,-0.54553 0.57563,-0.84358 1.2761,-2.2852 1.3788,-2.8459 0.72537,-3.9609 -0.479,-0.81734 -0.4002,-1.234 0.23337,-1.234 0.70627,0 1.4218,0.88289 1.5506,1.9134 0.12741,1.0191 -0.2427,2.3623 -0.82485,2.9935 -0.21156,0.2294 -0.38466,0.52609 -0.38466,0.65931 0,0.25608 -1.3324,1.4542 -1.6172,1.4542 -0.092,0 -0.24914,-0.15304 -0.34925,-0.34011 z m 5.935,7.5698 c -1.0606,-0.5283 -1.2695,-2.3495 -0.47305,-4.1242 0.54572,-1.216 0.75896,-2.939 0.40236,-3.2511 -0.12342,-0.10804 -0.48154,-0.33022 -0.79582,-0.49378 -0.67408,-0.3508 -0.73197,-0.75321 -0.15844,-1.1012 0.63416,-0.38479 1.594,-0.0566 2.1176,0.7239 0.53437,0.79664 0.53605,2.3219 0.004,3.6355 -0.19857,0.49022 -0.42763,1.0601 -0.50903,1.2664 -0.22547,0.57122 -0.17709,1.3884 0.10612,1.7927 0.32165,0.45924 1.0281,0.4754 1.5863,0.0363 0.22831,-0.17959 0.48392,-0.32653 0.568,-0.32653 0.25517,0 1.5105,-1.3428 1.9491,-2.0849 0.34369,-0.58154 0.73293,-1.8815 1.1177,-3.7325 0.0972,-0.46784 0.79779,-0.58508 1.5935,-0.2667 0.49314,0.19733 0.90036,0.22379 1.8823,0.12235 1.59,-0.16424 2.8859,-0.13418 3.2787,0.0761 0.16846,0.0901 0.5353,0.56968 0.81517,1.0656 0.52312,0.92691 0.96067,1.1533 1.1118,0.57515 0.047,-0.17959 0.15326,-0.32653 0.23621,-0.32653 0.18177,0 1.1759,-0.68258 1.2547,-0.8615 0.0308,-0.0697 0.34007,-0.27179 0.68738,-0.44898 0.47205,-0.24083 0.95956,-0.32217 1.9308,-0.32217 0.71459,0 1.4186,0.0458 1.5645,0.10176 0.31499,0.12088 0.79909,1.0234 1.0513,1.96 0.29055,1.079 -0.24947,5.4847 -0.71254,5.8133 -0.093,0.066 -0.36853,0.12108 -0.61231,0.12245 -0.71211,0.004 -0.83298,-0.44797 -0.44289,-1.6563 0.38405,-1.1896 0.57253,-2.9288 0.4108,-3.7909 -0.2153,-1.1476 -1.0879,-1.4982 -2.6008,-1.0449 -1.2269,0.36758 -3.1548,2.5842 -4.2008,4.8299 -0.67608,1.4515 -0.7174,1.5014 -1.2418,1.5014 -0.5317,0 -0.54245,-0.0142 -0.54245,-0.71386 0,-0.39262 0.18368,-1.2765 0.40817,-1.9642 0.24942,-0.76406 0.40816,-1.6279 0.40816,-2.2211 0,-0.85871 -0.0477,-1.0021 -0.41352,-1.2418 -0.31546,-0.20669 -0.61553,-0.24648 -1.2653,-0.16782 -2.8123,0.34046 -3.2472,0.40492 -3.3368,0.4945 -0.0545,0.0544 -0.23267,0.47856 -0.39604,0.94247 -0.4896,1.3903 -1.5217,2.9749 -2.2526,3.4586 -0.36426,0.24106 -0.66228,0.50051 -0.66228,0.57654 0,0.076 -0.34709,0.31378 -0.77132,0.52829 -0.42422,0.21453 -0.87028,0.48188 -0.99125,0.59413 -0.30236,0.28057 -1.4743,0.23802 -2.1056,-0.0764 z m 26.171,5.4319 c -0.7801,-0.58836 -1.4881,-1.0698 -1.5733,-1.0698 -0.0852,0 -0.56059,-0.36735 -1.0564,-0.81633 -0.49581,-0.44898 -0.96232,-0.81632 -1.0368,-0.81632 -0.0744,0 -0.21994,-0.18572 -0.32336,-0.41269 -0.14409,-0.31624 -0.14103,-0.48793 0.0131,-0.73469 0.11059,-0.17711 0.26171,-0.32201 0.33582,-0.32201 0.25877,0 0.85343,0.38186 1.5648,1.0048 0.39427,0.34529 0.84733,0.6278 1.0068,0.6278 0.15946,0 0.31442,0.0564 0.34436,0.12524 0.0889,0.20457 1.6587,1.2941 2.0286,1.4079 0.6205,0.19096 1.0745,0.82864 1.0171,1.4286 -0.0895,0.93527 -0.65757,0.83184 -2.3208,-0.42259 z"
         id="avenue" />
    </g>
  </g>
</svg>
