<svg xmlns="http://www.w3.org/2000/svg" height="27.4" width="30.507"><path d="M0 6.233c.003-.463.126-.731.5-1.098.698-.685 1.035-1.488 1.035-2.463 0-.675-.087-.943-.443-1.366C.622.747.592.654.748.246c.258-.671 1.81.137 2.191 1.142.25.659.19 2.323-.108 2.95-.147.31-.515.797-.817 1.081-.302.285-.549.601-.549.702 0 .318-.58.724-1.033.724-.396 0-.436-.056-.432-.612zm24.518 20.988c-.32-.32-.293-.565.384-3.56.152-.673.332-1.297.4-1.387.11-.144.565-1.899 1.145-4.408.555-2.404.98-5.633.74-5.633-.056 0-.711.523-1.456 1.163-1.943 1.669-3.196 2.062-4.754 1.49-1.438-.529-1.905-1.816-1.316-3.632.806-2.488.882-2.988.524-3.459-.115-.151-.408-.325-.65-.385-.242-.061-.48-.176-.53-.256-.05-.08-.443-.145-.874-.145-.644 0-.884.089-1.338.496-.819.736-1.222.9-2.814 1.14-1.423.214-1.449.226-1.71.8-.146.322-.543 1.002-.882 1.514-.339.511-.616 1.038-.616 1.17 0 .422-1.809 2.037-2.573 2.297-.636.217-.781.217-1.316-.005-.33-.136-.88-.593-1.221-1.014-.72-.889-.735-1.262-.136-3.592.485-1.892.46-2.215-.223-2.899-.683-.683-.732-1.147-.148-1.413.555-.253 1.116.05 1.728.937.558.806.596 1.735.132 3.186-.18.565-.373 1.41-.428 1.879-.086.729-.05.9.247 1.198.47.47 1.329.46 1.765-.02.658-.726 2.173-3.088 2.173-3.388 0-.168.194-.753.43-1.299.483-1.112.865-1.33 1.714-.979 1.262.523 2.587.1 3.766-1.202.766-.846 1.257-.854 2.825-.048.628.323 1.333.587 1.566.588.65.002.964.47.964 1.436 0 .462-.102 1.08-.226 1.375-.46 1.091-.916 2.719-.916 3.274 0 .413.102.639.367.812.66.432 1.085.479 1.98.219 1.015-.296 1.896-1.03 3.686-3.076.453-.518.824-1.032.824-1.143.002-.236.72-2.038.874-2.193.058-.058.105-.21.105-.339 0-.433.52-1.331.826-1.429.168-.053.461-.013.652.09.298.159.337.294.272.947-.097.976-.478 2.42-.804 3.048-.14.27-.303.894-.363 1.388a25.98 25.98 0 01-.255 1.632c-.08.404-.303 1.58-.493 2.613-.19 1.032-.446 2.244-.567 2.693a31.762 31.762 0 00-.411 1.796c-.106.54-.265 1.118-.355 1.286-.218.41-.54 1.674-.858 3.367-.39 2.073-.688 2.86-1.167 3.079-.5.227-.452.228-.689-.01z" stroke-width=".163"/></svg>