<?xml version="1.0" encoding="UTF-8" standalone="no"?>
<svg
   xmlns:dc="http://purl.org/dc/elements/1.1/"
   xmlns:cc="http://creativecommons.org/ns#"
   xmlns:rdf="http://www.w3.org/1999/02/22-rdf-syntax-ns#"
   xmlns:svg="http://www.w3.org/2000/svg"
   xmlns="http://www.w3.org/2000/svg"
   id="svg2094"
   viewBox="0 0 30.50689 27.399576"
   version="1.1"
   height="27.399576"
   width="30.506891">
  <defs
     id="defs2098" />
  <metadata
     id="metadata2">
    <rdf:RDF>
      <cc:Work
         rdf:about="">
        <dc:format>image/svg+xml</dc:format>
        <dc:type
           rdf:resource="http://purl.org/dc/dcmitype/StillImage" />
        <dc:title />
      </cc:Work>
    </rdf:RDF>
  </metadata>
  <g
     transform="translate(-193.30974,-747.76704)"
     id="g2092">
    <g
       style="stroke-width:0.16327"
       id="g2081">
      <path
         d="m 193.31,754 c 0.003,-0.46252 0.12564,-0.73116 0.49978,-1.0984 0.69765,-0.68486 1.035,-1.4876 1.035,-2.4628 0,-0.67452 -0.0869,-0.94242 -0.44315,-1.3658 -0.47034,-0.55897 -0.50052,-0.65191 -0.34405,-1.0597 0.25768,-0.67154 1.8093,0.13714 2.1914,1.1421 0.25027,0.65827 0.18893,2.3228 -0.10872,2.9501 -0.14693,0.30967 -0.51428,0.79611 -0.81632,1.081 -0.30203,0.28488 -0.54915,0.60062 -0.54915,0.70165 0,0.31807 -0.57936,0.72406 -1.0332,0.72406 -0.39594,0 -0.43571,-0.0564 -0.43159,-0.61224 z m 24.518,20.988 c -0.31979,-0.31979 -0.29331,-0.56539 0.38356,-3.5592 0.15226,-0.67347 0.3325,-1.298 0.40052,-1.3878 0.10895,-0.14382 0.56454,-1.899 1.1442,-4.4082 0.55527,-2.4034 0.97963,-5.6326 0.7402,-5.6326 -0.0562,0 -0.7111,0.5231 -1.4553,1.1624 -1.9432,1.6694 -3.1962,2.062 -4.7544,1.4898 -1.4384,-0.52822 -1.905,-1.8156 -1.3162,-3.6318 0.8064,-2.4875 0.88206,-2.9871 0.52368,-3.4586 -0.11493,-0.15118 -0.40717,-0.32464 -0.64941,-0.38544 -0.24223,-0.0608 -0.48081,-0.17587 -0.53017,-0.25572 -0.0493,-0.0799 -0.44277,-0.14517 -0.87428,-0.14517 -0.64415,0 -0.8835,0.0889 -1.3373,0.49662 -0.81941,0.73623 -1.2226,0.89944 -2.814,1.1393 -1.4236,0.21453 -1.4489,0.2264 -1.7104,0.80114 -0.14596,0.32085 -0.54266,1.0018 -0.88155,1.5132 -0.33891,0.51141 -0.61618,1.0378 -0.61618,1.1697 0,0.42213 -1.809,2.0375 -2.5734,2.2979 -0.63631,0.21682 -0.78127,0.21626 -1.3158,-0.005 -0.33036,-0.13672 -0.87991,-0.59322 -1.2212,-1.0144 -0.72041,-0.88907 -0.73453,-1.2619 -0.1361,-3.5925 0.4857,-1.8916 0.46083,-2.2147 -0.22292,-2.8985 -0.68327,-0.68327 -0.73189,-1.1475 -0.14807,-1.4135 0.55512,-0.25293 1.1158,0.0512 1.7286,0.93757 0.55729,0.8061 0.59577,1.7345 0.13205,3.186 -0.18053,0.56509 -0.37326,1.4105 -0.42828,1.8787 -0.0857,0.72916 -0.0503,0.901 0.2466,1.1979 0.47082,0.47083 1.3291,0.46077 1.7657,-0.0207 0.65754,-0.72498 2.1727,-3.0868 2.1727,-3.3867 0,-0.16834 0.19376,-0.75287 0.43059,-1.2989 0.48263,-1.1128 0.86391,-1.3308 1.7129,-0.97912 1.2622,0.52283 2.5877,0.0996 3.7666,-1.2027 0.76544,-0.84555 1.2564,-0.85389 2.8246,-0.048 0.62857,0.323 1.3335,0.58764 1.5665,0.58808 0.64913,0.002 0.96408,0.47058 0.96408,1.4367 0,0.4613 -0.10191,1.08 -0.22646,1.3749 -0.46082,1.0909 -0.91639,2.7184 -0.91639,3.2735 0,0.41322 0.10199,0.63869 0.36734,0.81217 0.66054,0.43181 1.0848,0.47865 1.9794,0.2186 1.0158,-0.29531 1.8963,-1.0298 3.6872,-3.076 0.45275,-0.51728 0.82352,-1.0316 0.82393,-1.1429 0.002,-0.23589 0.71892,-2.0377 0.87376,-2.1925 0.0578,-0.0578 0.10508,-0.2103 0.10508,-0.3389 0,-0.43368 0.51897,-1.3317 0.82591,-1.4291 0.16754,-0.0532 0.461,-0.0131 0.65215,0.0893 0.29797,0.15947 0.3367,0.29461 0.27159,0.94782 -0.0972,0.97546 -0.47824,2.4193 -0.80418,3.0475 -0.13977,0.26939 -0.30284,0.89388 -0.36237,1.3878 -0.0595,0.49388 -0.17445,1.2286 -0.25533,1.6327 -0.0809,0.40408 -0.30289,1.5796 -0.49334,2.6122 -0.19043,1.0327 -0.44537,2.2449 -0.56653,2.6939 -0.12114,0.44898 -0.30635,1.2571 -0.41156,1.7959 -0.1052,0.53877 -0.26473,1.1175 -0.35448,1.286 -0.21776,0.40895 -0.54011,1.6735 -0.85827,3.367 -0.38934,2.0723 -0.6879,2.8601 -1.1667,3.0782 -0.50025,0.22792 -0.45181,0.22854 -0.68916,-0.009 z"
         id="average" />
    </g>
  </g>
</svg>
