<svg xmlns="http://www.w3.org/2000/svg" height="18.031" width="39.267"><path d="M21.25 4.937c-.107-.067-.276-.338-.376-.6-.151-.4-.13-.546.129-.895.377-.508 1.034-.617 1.415-.236.678.678-.373 2.237-1.168 1.731zM.17 8.298c-.285-.284-.261-.38.457-1.864.773-1.598.892-2.93.327-3.654C.09 1.676 1.118.75 2.148 1.705c.55.51.652.96.564 2.502-.072 1.242-.28 1.827-1.37 3.838-.26.48-.824.601-1.172.253zm32.558 7.571c.474-.33.931-.783 1.016-1.007.084-.225.379-.636.655-.913.68-.685.84-1.18.84-2.61 0-1.198-.008-1.222-.53-1.54-.885-.54-1.738-.435-2.697.328-.45.36-.89.653-.976.653-.22 0-1.15 1.537-1.524 2.52-.406 1.07-.39 1.503.084 2.273.756 1.231 1.664 1.317 3.132.296zm-2.156 2.159c-.082-.02-.353-.08-.602-.136-.687-.152-1.505-1.049-1.85-2.03-.168-.483-.397-.912-.506-.954-.11-.042-.684.334-1.275.835-.591.502-1.273.953-1.516 1.003-.243.05-.863.208-1.378.353-.878.245-.983.244-1.633-.027-1.967-.819-2.623-1.366-2.912-2.428-.142-.52-.11-.797.182-1.633.194-.554.39-1.282.435-1.619.078-.575.057-.612-.353-.612-.24 0-.584.079-.764.175-.632.338-2.126.641-3.163.641-1.164 0-1.295.11-1.628 1.36-.19.715-1.851 2.818-2.683 3.396-.631.438-1.67.79-2.348.793-.714.004-1.387-.435-1.745-1.137-.44-.864-.416-1.352.161-3.132.33-1.02.49-1.843.49-2.53 0-.972-.026-1.039-.571-1.455-.668-.509-.735-.983-.176-1.237.51-.233 1.084-.083 1.714.447.495.416.502.445.502 1.945 0 1.305-.059 1.642-.413 2.347-.25.496-.453 1.245-.513 1.882-.097 1.043-.092 1.06.334 1.167.238.06.75.062 1.139.003.582-.087.79-.222 1.182-.768.261-.365.677-.852.924-1.082.247-.231.45-.546.45-.7 0-.155.11-.492.243-.75.134-.256.249-.577.255-.712.006-.134.173-.575.373-.98.405-.823.62-.87 2.112-.476 1.646.437 3.511-.177 4.792-1.576.553-.603 1.038-.71 1.376-.304.374.45.21 2.305-.336 3.802-.603 1.65-.613 2.137-.06 2.794.67.797 1.527 1.163 2.459 1.05 1.28-.156 2.087-.615 2.816-1.602.36-.488.732-.935.825-.993.093-.057.321-.401.506-.765.498-.975 2.635-2.984 3.876-3.643 1.506-.799 2.962-1.081 4.204-.814.694.149.975-.328 1.211-2.06.183-1.344.662-3.584 1.009-4.718C38.049.06 38.79-.353 39.162.34c.211.395.112 1.465-.365 3.91-.183.942-.393 2.044-.466 2.449-.073.404-.32 1.277-.55 1.94-.288.826-.42 1.546-.42 2.293 0 .618-.083 1.172-.192 1.281-.106.106-.225.81-.264 1.564-.067 1.272-.041 1.417.355 2 .51.752.532.977.112 1.202-.529.283-.804.196-1.543-.484-.82-.758-1.133-.81-1.5-.25-.372.567-1.66 1.322-2.716 1.591-.49.125-.96.211-1.041.192z" stroke-width=".163"/></svg>