<?xml version="1.0" encoding="UTF-8" standalone="no"?>
<svg
   xmlns:dc="http://purl.org/dc/elements/1.1/"
   xmlns:cc="http://creativecommons.org/ns#"
   xmlns:rdf="http://www.w3.org/1999/02/22-rdf-syntax-ns#"
   xmlns:svg="http://www.w3.org/2000/svg"
   xmlns="http://www.w3.org/2000/svg"
   id="svg2094"
   viewBox="0 0 39.267367 18.030676"
   version="1.1"
   height="18.030676"
   width="39.267368">
  <defs
     id="defs2098" />
  <metadata
     id="metadata2">
    <rdf:RDF>
      <cc:Work
         rdf:about="">
        <dc:format>image/svg+xml</dc:format>
        <dc:type
           rdf:resource="http://purl.org/dc/dcmitype/StillImage" />
        <dc:title />
      </cc:Work>
    </rdf:RDF>
  </metadata>
  <g
     transform="translate(-192.03013,-768.81258)"
     id="g2092">
    <g
       style="stroke-width:0.16327"
       id="g2081">
      <path
         d="m 213.28,773.75 c -0.10663,-0.0678 -0.27557,-0.33816 -0.37543,-0.6008 -0.15172,-0.39905 -0.13063,-0.54609 0.12838,-0.89463 0.37711,-0.50749 1.034,-0.61703 1.415,-0.23598 0.67833,0.67833 -0.37305,2.2369 -1.168,1.7314 z m -21.08,3.3609 c -0.28463,-0.28464 -0.26129,-0.37989 0.45715,-1.8642 0.77337,-1.5978 0.89247,-2.9307 0.32653,-3.6542 -0.86374,-1.1042 0.16408,-2.0297 1.194,-1.0751 0.5512,0.51082 0.65239,0.95977 0.56398,2.5023 -0.0712,1.2421 -0.27972,1.8266 -1.3694,3.8381 -0.2596,0.47922 -0.8243,0.60111 -1.1724,0.25306 z m 32.558,7.5711 c 0.47435,-0.32983 0.93146,-0.78336 1.0158,-1.0078 0.0843,-0.22449 0.37923,-0.6354 0.65535,-0.91311 0.68034,-0.68433 0.83998,-1.1804 0.83998,-2.6101 0,-1.197 -0.008,-1.2214 -0.53061,-1.5398 -0.88395,-0.53893 -1.7372,-0.43503 -2.6959,0.32833 -0.45112,0.35919 -0.89055,0.65306 -0.97652,0.65306 -0.22065,0 -1.1496,1.537 -1.5235,2.5205 -0.40616,1.0686 -0.39029,1.5026 0.0831,2.2729 0.75644,1.2309 1.6644,1.3167 3.1322,0.2961 z m -2.1561,2.1582 c -0.082,-0.0195 -0.3529,-0.0804 -0.60203,-0.13542 -0.68723,-0.15176 -1.5044,-1.0492 -1.8488,-2.0305 -0.16937,-0.4826 -0.39771,-0.9119 -0.50743,-0.95399 -0.1097,-0.0421 -0.68325,0.33388 -1.2745,0.83552 -0.5913,0.50164 -1.2735,0.95267 -1.5161,1.0023 -0.24254,0.0496 -0.8628,0.2085 -1.3784,0.35306 -0.87702,0.24589 -0.98216,0.24418 -1.6327,-0.0267 -1.9665,-0.8188 -2.6226,-1.3659 -2.912,-2.4282 -0.14155,-0.51954 -0.11059,-0.79709 0.18208,-1.6326 0.19392,-0.55369 0.38981,-1.2822 0.4353,-1.6189 0.0777,-0.5753 0.0564,-0.61225 -0.35338,-0.61225 -0.23982,0 -0.58337,0.0789 -0.76346,0.17524 -0.63209,0.33828 -2.1263,0.64109 -3.1635,0.64109 -1.1634,0 -1.2952,0.11007 -1.6275,1.3595 -0.1903,0.7155 -1.8516,2.818 -2.6831,3.3958 -0.6315,0.4388 -1.6699,0.78955 -2.3483,0.79323 -0.7139,0.004 -1.387,-0.43468 -1.7454,-1.1372 -0.44046,-0.86338 -0.41524,-1.352 0.16166,-3.1319 0.33044,-1.0194 0.4898,-1.8426 0.4898,-2.5298 0,-0.97238 -0.026,-1.0385 -0.57143,-1.4546 -0.66713,-0.50885 -0.73429,-0.98295 -0.1753,-1.2376 0.51043,-0.23255 1.084,-0.083 1.7137,0.44686 0.49489,0.41642 0.50239,0.44544 0.50239,1.9458 0,1.3046 -0.0594,1.6413 -0.41375,2.3469 -0.24914,0.49603 -0.45306,1.2448 -0.51259,1.8821 -0.0973,1.0425 -0.0923,1.06 0.33422,1.1671 0.23817,0.0598 0.75063,0.0611 1.1388,0.003 0.58209,-0.0873 0.78918,-0.22198 1.1816,-0.76851 0.2617,-0.36446 0.67785,-0.85146 0.92479,-1.0822 0.24694,-0.23077 0.44898,-0.54597 0.44898,-0.70046 0,-0.15448 0.10974,-0.49131 0.24388,-0.74852 0.13416,-0.25721 0.24869,-0.57784 0.25455,-0.71254 0.006,-0.13469 0.17357,-0.57551 0.37272,-0.97959 0.40568,-0.82317 0.62029,-0.87154 2.1123,-0.47624 1.6462,0.43618 3.5112,-0.17716 4.7926,-1.5761 0.553,-0.60375 1.038,-0.71112 1.3754,-0.30449 0.37427,0.45094 0.21035,2.3047 -0.33618,3.8023 -0.60235,1.6505 -0.61284,2.1372 -0.0601,2.7941 0.67068,0.79706 1.5274,1.1625 2.4593,1.0491 1.2804,-0.15579 2.0869,-0.6143 2.8157,-1.6009 0.36101,-0.48868 0.73252,-0.93557 0.8256,-0.99309 0.0931,-0.0575 0.32082,-0.40172 0.50607,-0.76488 0.49744,-0.97504 2.635,-2.9842 3.8761,-3.6432 1.5052,-0.79925 2.9612,-1.0815 4.2032,-0.81472 0.69458,0.14919 0.97509,-0.32778 1.2114,-2.0598 0.18329,-1.3435 0.66241,-3.5841 1.0089,-4.7182 0.33184,-1.0861 1.0743,-1.5007 1.4454,-0.80723 0.2112,0.39461 0.11129,1.4648 -0.36499,3.9093 -0.18371,0.94286 -0.39344,2.0449 -0.46608,2.449 -0.0727,0.40408 -0.32055,1.277 -0.5509,1.9397 -0.28725,0.8265 -0.41881,1.5471 -0.41881,2.2939 0,0.61795 -0.0832,1.172 -0.19234,1.2812 -0.1058,0.1058 -0.22474,0.80949 -0.26433,1.5638 -0.0668,1.2717 -0.0409,1.4171 0.35561,2.0006 0.5104,0.75112 0.53136,0.97623 0.11179,1.2008 -0.52877,0.283 -0.80456,0.19647 -1.5428,-0.48405 -0.82134,-0.75708 -1.1338,-0.80892 -1.5006,-0.249 -0.37135,0.56676 -1.6606,1.3218 -2.7159,1.5906 -0.49063,0.12497 -0.95914,0.21127 -1.0411,0.19179 z"
         id="avoid" />
    </g>
  </g>
</svg>
