<svg xmlns="http://www.w3.org/2000/svg" height="18.893" width="33.517"><path d="M4.264 6.964c-.286-.285-.245-.567.205-1.415.221-.416.554-1.22.739-1.784l.337-1.028-.358-1.044C4.89.827 4.865.604 5.039.393 5.5-.16 6.051.17 6.572 1.31c.23.503.248.78.112 1.742-.276 1.94-.858 3.39-1.541 3.839-.49.32-.62.331-.88.073zm-4.074.25c-.344-.138-.231-.64.426-1.889.837-1.588 1.03-3.074.53-4.082-.31-.63-.316-.7-.07-.973.376-.414.578-.371 1.254.266.634.598.687.824.602 2.542C2.873 4.247 1.715 6.61.99 7.038c-.266.156-.51.28-.54.272a2.987 2.987 0 01-.261-.095zM13.344 18.67c-.51-.112-1.126-.36-1.369-.55-.243-.192-.57-.348-.728-.348-.157 0-.716-.405-1.243-.9l-.957-.899.037-2.08c.038-2.075.143-3.04.601-5.509.133-.718.246-1.691.25-2.163.006-.471.075-.857.154-.857.08 0 .189-.753.242-1.674.137-2.355.255-3 .605-3.316.287-.26.333-.26.725-.003.347.227.403.363.329.797-.11.639-.412 3.566-.518 5.012-.042.584-.142 1.208-.222 1.388-.248.562-.684 4.158-.701 5.788-.015 1.396.025 1.622.383 2.164.22.333.478.609.573.613.094.004.425.193.734.422.838.618 1.95.863 4.4.968 2.285.098 4.246-.128 5.877-.677a56.919 56.919 0 011.72-.537c.944-.277 2.665-.996 3.178-1.327.135-.087.385-.204.556-.26.17-.057.685-.302 1.143-.545.457-.243 1.01-.498 1.227-.566.218-.068.475-.187.572-.265 1.61-1.29 1.807-1.38 2.304-1.055.348.229.414.746.095.746-.06 0-.468.331-.908.735-.44.404-.88.736-.976.737-.097.002-.48.166-.85.367l-1.505.815c-.457.246-.942.449-1.077.449s-.737.265-1.337.589c-1.295.698-2.422 1.103-4.305 1.544-.763.178-1.654.396-1.978.483-.824.222-5.908.16-7.031-.086z" stroke-width=".163"/></svg>