<svg xmlns="http://www.w3.org/2000/svg" height="18.731" width="12.169"><path d="M.17 8.082c-.225-.344-.226-.434-.005-.857.135-.26.247-.537.247-.613 0-.077.185-.358.41-.625.326-.388.408-.664.408-1.379 0-.88-.346-1.857-.658-1.857-.225 0-.197-.712.037-.947.335-.334.758-.218 1.437.395l.653.59v1.308c0 1.593-.503 2.945-1.51 4.054-.38.42-.714.397-1.02-.07zm4.092.454c-.36-.361-.323-.607.213-1.41.258-.385.593-1.203.745-1.816.252-1.014.253-1.149.02-1.504-.14-.215-.255-.503-.255-.64 0-.139-.066-.251-.146-.251-.247 0-.352-.497-.174-.829.424-.792 1.767-.009 2.115 1.233.114.407.168 1.015.121 1.351-.102.73-.718 2.406-.989 2.694-.106.112-.398.48-.65.816-.51.683-.63.726-1 .356zm4.957 9.77c-1.16-.863-1.335-1.897-.734-4.343.237-.968.536-1.994.663-2.281.484-1.094 1.237-5.652 1.378-8.337.077-1.449.191-2.764.256-2.922.064-.158.304-.334.532-.391.65-.163.855.277.855 1.848 0 1.93-.715 6.878-1.223 8.463a29.75 29.75 0 00-.49 1.878c-.154.673-.386 1.463-.516 1.754-.15.338-.218.927-.187 1.623l.048 1.092.735.428c.855.499 1.018.983.463 1.373-.533.373-1.11.313-1.78-.184z"/></svg>