<?xml version="1.0" encoding="UTF-8" standalone="no"?>
<svg
   xmlns:dc="http://purl.org/dc/elements/1.1/"
   xmlns:cc="http://creativecommons.org/ns#"
   xmlns:rdf="http://www.w3.org/1999/02/22-rdf-syntax-ns#"
   xmlns:svg="http://www.w3.org/2000/svg"
   xmlns="http://www.w3.org/2000/svg"
   id="svg2094"
   viewBox="0 0 12.168686 18.731339"
   version="1.1"
   height="18.731339"
   width="12.168686">
  <defs
     id="defs2098" />
  <metadata
     id="metadata2">
    <rdf:RDF>
      <cc:Work
         rdf:about="">
        <dc:format>image/svg+xml</dc:format>
        <dc:type
           rdf:resource="http://purl.org/dc/dcmitype/StillImage" />
        <dc:title />
      </cc:Work>
    </rdf:RDF>
  </metadata>
  <g
     transform="translate(-192.89042,-792.18834)"
     id="g2092">
    <g
       style="stroke-width:0.16327"
       id="g2081">
      <path
         d="m 193.06,800.27 c -0.22501,-0.34343 -0.22551,-0.43385 -0.005,-0.85714 0.13574,-0.26028 0.24725,-0.53609 0.24779,-0.61292 0,-0.0768 0.18468,-0.35799 0.40917,-0.62478 0.32657,-0.3881 0.40817,-0.66369 0.40817,-1.3786 0,-0.87971 -0.34588,-1.8569 -0.65726,-1.8569 -0.22549,0 -0.19776,-0.71232 0.0369,-0.94694 0.33481,-0.33481 0.75753,-0.21867 1.4363,0.39452 l 0.65353,0.59041 v 1.3075 c 0,1.5928 -0.50365,2.9448 -1.5102,4.0539 -0.38085,0.41966 -0.71409,0.39708 -1.0195,-0.0691 z m 4.0924,0.45389 c -0.36061,-0.3606 -0.32346,-0.60656 0.2127,-1.4087 0.25809,-0.38612 0.59354,-1.2035 0.7454,-1.8164 0.25143,-1.0146 0.25328,-1.1493 0.0205,-1.5045 -0.14058,-0.21456 -0.2556,-0.5029 -0.2556,-0.64075 0,-0.13786 -0.0656,-0.25064 -0.1458,-0.25064 -0.24725,0 -0.35184,-0.49662 -0.1744,-0.82815 0.42398,-0.79224 1.7674,-0.009 2.1151,1.2326 0.11391,0.40684 0.16849,1.0149 0.12129,1.3513 -0.10234,0.72924 -0.71808,2.4058 -0.98918,2.6933 -0.10576,0.11218 -0.39809,0.47948 -0.6496,0.81621 -0.51014,0.68301 -0.63037,0.72575 -1.0004,0.35569 z m 4.9574,9.7709 c -1.1607,-0.86309 -1.3357,-1.8972 -0.73476,-4.3436 0.23761,-0.96737 0.53598,-1.9938 0.66305,-2.2811 0.48402,-1.0942 1.2378,-5.6519 1.3788,-8.3365 0.0761,-1.4491 0.19095,-2.764 0.25523,-2.9219 0.0643,-0.15793 0.30389,-0.33406 0.53244,-0.39143 0.6507,-0.16332 0.85455,0.27744 0.85455,1.8477 0,1.9307 -0.71494,6.8788 -1.2229,8.4635 -0.11514,0.35918 -0.33543,1.2041 -0.48956,1.8776 -0.15412,0.67347 -0.38625,1.4631 -0.51585,1.7547 -0.15015,0.33788 -0.21812,0.9265 -0.18735,1.6226 l 0.0483,1.0924 0.7347,0.42805 c 0.85482,0.49804 1.0184,0.98302 0.46276,1.3722 -0.53246,0.37295 -1.1107,0.31311 -1.7794,-0.18416 z"
         id="await" />
    </g>
  </g>
</svg>
