<?xml version="1.0" encoding="UTF-8" standalone="no"?>
<svg
   xmlns:dc="http://purl.org/dc/elements/1.1/"
   xmlns:cc="http://creativecommons.org/ns#"
   xmlns:rdf="http://www.w3.org/1999/02/22-rdf-syntax-ns#"
   xmlns:svg="http://www.w3.org/2000/svg"
   xmlns="http://www.w3.org/2000/svg"
   id="svg2094"
   viewBox="0 0 33.517497 18.892601"
   version="1.1"
   height="18.892601"
   width="33.517498">
  <defs
     id="defs2098" />
  <metadata
     id="metadata2">
    <rdf:RDF>
      <cc:Work
         rdf:about="">
        <dc:format>image/svg+xml</dc:format>
        <dc:type
           rdf:resource="http://purl.org/dc/dcmitype/StillImage" />
        <dc:title />
      </cc:Work>
    </rdf:RDF>
  </metadata>
  <g
     transform="translate(-193.48647,-819.12628)"
     id="g2092">
    <g
       style="stroke-width:0.16327"
       id="g2081">
      <path
         d="m 197.75,826.09 c -0.2852,-0.28521 -0.24429,-0.56668 0.20564,-1.4146 0.22086,-0.41623 0.55335,-1.2192 0.73887,-1.7844 l 0.33731,-1.0276 -0.3585,-1.0446 c -0.29688,-0.86509 -0.32222,-1.0883 -0.14745,-1.2989 0.46018,-0.55449 1.0115,-0.22501 1.5328,0.91599 0.23012,0.50374 0.2478,0.7805 0.1114,1.7423 -0.2752,1.9404 -0.85738,3.391 -1.5406,3.8387 -0.48976,0.32091 -0.6208,0.33182 -0.8794,0.0732 z m -4.0735,0.25106 c -0.34445,-0.13899 -0.23116,-0.64125 0.42616,-1.8893 0.83652,-1.5884 1.0296,-3.0743 0.53064,-4.0828 -0.31138,-0.62936 -0.3165,-0.70051 -0.0701,-0.97285 0.37492,-0.41427 0.57735,-0.37122 1.2537,0.26664 0.63352,0.59751 0.687,0.82358 0.60124,2.5416 -0.0584,1.1687 -1.2167,3.5317 -1.9408,3.9592 -0.26615,0.15714 -0.50934,0.27992 -0.54037,0.27283 -0.031,-0.007 -0.14828,-0.0499 -0.26053,-0.0952 z m 13.154,11.455 c -0.50994,-0.11146 -1.126,-0.35905 -1.369,-0.55018 -0.24299,-0.19114 -0.57045,-0.34751 -0.7277,-0.34751 -0.15724,0 -0.71672,-0.40476 -1.2433,-0.89945 l -0.95738,-0.89946 0.0377,-2.0801 c 0.0377,-2.0752 0.1428,-3.0392 0.60072,-5.5087 0.13321,-0.71837 0.24609,-1.6918 0.25084,-2.1633 0.005,-0.47143 0.0738,-0.85715 0.15341,-0.85715 0.0796,0 0.18849,-0.75306 0.24196,-1.6735 0.13683,-2.3553 0.25433,-2.9997 0.60483,-3.3169 0.28695,-0.25969 0.33252,-0.25988 0.72452,-0.003 0.34697,0.22735 0.40307,0.36325 0.32896,0.79703 -0.10924,0.63936 -0.41116,3.566 -0.51714,5.0127 -0.0428,0.58368 -0.14276,1.2082 -0.22222,1.3878 -0.24873,0.56212 -0.6846,4.1577 -0.70163,5.7879 -0.0145,1.3962 0.0255,1.6223 0.3837,2.1644 0.22002,0.33293 0.47759,0.60844 0.57238,0.61224 0.0948,0.004 0.42542,0.19376 0.73469,0.42212 0.8378,0.61863 1.95,0.86345 4.3991,0.96836 2.2851,0.0979 4.2466,-0.12816 5.8776,-0.6773 0.40409,-0.13607 1.1777,-0.37754 1.7191,-0.53664 0.94464,-0.27757 2.6661,-0.99628 3.1789,-1.3272 0.1347,-0.0869 0.38467,-0.20413 0.55553,-0.26049 0.17084,-0.0563 0.68513,-0.30135 1.1429,-0.54449 0.45771,-0.24312 1.0102,-0.49776 1.2278,-0.56584 0.21758,-0.0681 0.47473,-0.18719 0.57143,-0.26464 1.6108,-1.2903 1.8074,-1.3803 2.304,-1.055 0.34829,0.22821 0.41473,0.74598 0.0957,0.74598 -0.0597,0 -0.46863,0.33061 -0.90876,0.73469 -0.44013,0.40408 -0.87935,0.73545 -0.97604,0.73638 -0.0967,0.002 -0.47902,0.16623 -0.84961,0.36734 -0.37062,0.20111 -1.0478,0.56771 -1.5048,0.81465 -0.457,0.24694 -0.94176,0.44898 -1.0772,0.44898 -0.13544,0 -0.73714,0.26506 -1.3372,0.58904 -1.2944,0.69891 -2.4221,1.1034 -4.305,1.5442 -0.76327,0.17867 -1.6534,0.39629 -1.9781,0.48359 -0.82387,0.22148 -5.908,0.15899 -7.0307,-0.0865 z"
         id="awaiting" />
    </g>
  </g>
</svg>
