<svg xmlns="http://www.w3.org/2000/svg" height="16.635" width="21.074"><path d="M.114 6.773c-.24-.239-.1-.76.396-1.48.512-.745.76-1.429.906-2.5.058-.431-.026-.723-.344-1.19C.424.648.556.18 1.474.18c.368 0 1.1.7 1.31 1.254.484 1.27-.098 3.244-1.315 4.463a3.105 3.105 0 00-.426.571c-.185.334-.723.51-.929.304zm4.496.157c-.295-.119-.25-.764.085-1.217 1.04-1.406 1.454-3.235.957-4.232-.555-1.113-.195-1.842.64-1.295C7.305.85 7.57 2 7.083 3.632c-.405 1.358-.822 2.153-1.52 2.9-.474.508-.576.55-.954.398zm11.151 3.245c.355-.183.754-.486.886-.673.132-.188.323-.341.424-.341.287 0 1.854-1.787 2.205-2.513.241-.5.314-1.005.314-2.17 0-.837-.064-1.521-.143-1.521-.079 0-.236-.224-.35-.498-.274-.661-.925-.972-2.04-.972-1.214 0-1.505.164-3.08 1.731-1.072 1.066-2.06 2.902-2.06 3.828 0 .23-.062.486-.137.572-.21.239-.843 2.105-.843 2.49 0 .288.12.352.776.412 1.622.15 3.38-.002 4.048-.345zm.638 5.892c-.257-.341-.607-.722-.778-.846-.171-.124-.696-.822-1.166-1.551-.895-1.387-1.146-1.563-2.579-1.807-.337-.058-.78-.272-.984-.477l-.373-.372-.378.828c-.208.456-.436.976-.507 1.155-.07.18-.296.694-.502 1.143-.205.45-.45.988-.543 1.197-.245.55-.731.773-1.031.473-.21-.21-.208-.334.027-1.024.146-.432.368-.974.492-1.205.124-.231.424-1.008.668-1.726.243-.719.624-1.71.845-2.205.725-1.616.826-1.871.931-2.367.146-.682.757-2.204 1.082-2.694.15-.224.318-.555.376-.734.112-.35 2.129-2.53 2.341-2.531.07 0 .385-.22.699-.49.314-.269.732-.49.93-.49.196 0 .402-.073.458-.163.192-.311 1.474-.17 2.365.259 1.273.614 1.827 1.388 2.117 2.959.33 1.785.237 2.55-.437 3.595-.334.518-.72 1.157-.857 1.42-.137.262-.395.556-.574.653a2.649 2.649 0 00-.607.502c-.562.648-.788.845-1.23 1.073-.248.128-.487.276-.532.33-.045.054-.296.2-.557.327-.751.363-.858.67-.506 1.451.169.374.477.813.685.977.208.163.378.358.378.432 0 .074.171.283.38.466.719.626.937 1.104.711 1.558-.318.64-.806.598-1.344-.116z" stroke-width=".163"/></svg>