<?xml version="1.0" encoding="UTF-8" standalone="no"?>
<svg
   xmlns:dc="http://purl.org/dc/elements/1.1/"
   xmlns:cc="http://creativecommons.org/ns#"
   xmlns:rdf="http://www.w3.org/1999/02/22-rdf-syntax-ns#"
   xmlns:svg="http://www.w3.org/2000/svg"
   xmlns="http://www.w3.org/2000/svg"
   id="svg2094"
   viewBox="0 0 16.092596 13.541338"
   version="1.1"
   height="13.541338"
   width="16.092596">
  <defs
     id="defs2098" />
  <metadata
     id="metadata2">
    <rdf:RDF>
      <cc:Work
         rdf:about="">
        <dc:format>image/svg+xml</dc:format>
        <dc:type
           rdf:resource="http://purl.org/dc/dcmitype/StillImage" />
        <dc:title />
      </cc:Work>
    </rdf:RDF>
  </metadata>
  <g
     transform="translate(-403.76164,-102.70805)"
     id="g2092">
    <g
       style="stroke-width:0.16327"
       id="g2081">
      <path
         d="m 403.95,108.38 c -0.30103,-0.30103 -0.23313,-0.86265 0.14573,-1.2055 0.44769,-0.40515 0.64029,-0.78113 0.89523,-1.7476 l 0.21019,-0.79676 -0.56026,-0.5441 c -0.59318,-0.57604 -0.68376,-0.87233 -0.36436,-1.1917 0.35771,-0.35772 0.84516,-0.20357 1.553,0.49113 0.90132,0.88458 0.90819,1.3453 0.047,3.1497 -0.35918,0.75257 -0.65306,1.448 -0.65306,1.5453 0,0.0974 -0.18846,0.24868 -0.41879,0.33625 -0.53641,0.20395 -0.61752,0.20046 -0.85468,-0.0367 z m 3.7876,0.45677 c -0.0815,-0.21228 0.49887,-1.7094 0.73396,-1.8935 0.11742,-0.0919 0.507,-1.519 0.507,-1.8571 0,-0.12088 -0.18984,-0.49952 -0.42186,-0.84143 -0.34459,-0.50778 -0.39079,-0.68988 -0.25216,-0.99411 0.16107,-0.35354 0.20512,-0.36221 0.8671,-0.17055 0.6454,0.18686 0.71435,0.26193 0.92472,1.0068 0.52599,1.8623 -0.74735,4.9789 -2.0342,4.9789 -0.13017,0 -0.2762,-0.10303 -0.32452,-0.22895 z m 2.1214,7.1544 c 0.0545,-0.14204 0.0991,-0.32529 0.0991,-0.40722 0,-0.0819 0.33062,-0.48432 0.7347,-0.89421 0.40408,-0.40988 0.73469,-0.83832 0.73469,-0.95208 0,-0.11376 0.17776,-0.37383 0.39504,-0.57795 0.21727,-0.20411 0.4886,-0.60263 0.60297,-0.8856 0.11437,-0.28297 0.24984,-0.55122 0.30106,-0.59612 0.0512,-0.0449 0.30091,-0.48571 0.55487,-0.97959 1.4272,-2.7756 1.5885,-2.9224 2.6335,-2.3982 0.75329,0.37789 1.5469,0.60225 2.1304,0.60225 0.98433,0 1.2688,1.0542 0.89704,3.3242 -0.22204,1.3558 -0.0616,2.2549 0.51494,2.8862 0.26797,0.29338 0.43894,0.62934 0.38794,0.76227 -0.0502,0.13073 -0.0912,0.26842 -0.0912,0.30597 0,0.0375 -0.24339,0.0683 -0.54088,0.0683 -1.0834,0 -2.1092,-1.78 -1.7568,-3.0488 0.0954,-0.34357 0.17388,-1.074 0.17437,-1.6232 l 0.002,-0.99854 -1.0005,-0.3648 c -1.1052,-0.40299 -1.5928,-0.30507 -1.8913,0.37984 -0.87216,2.001 -1.3621,2.7572 -3.0632,4.7276 -0.68285,0.79092 -0.8834,0.92787 -1.3588,0.92787 -0.44153,0 -0.53711,-0.0538 -0.45866,-0.25825 z"
         id="aware" />
    </g>
  </g>
</svg>
