<?xml version="1.0" encoding="UTF-8" standalone="no"?>
<svg
   xmlns:dc="http://purl.org/dc/elements/1.1/"
   xmlns:cc="http://creativecommons.org/ns#"
   xmlns:rdf="http://www.w3.org/1999/02/22-rdf-syntax-ns#"
   xmlns:svg="http://www.w3.org/2000/svg"
   xmlns="http://www.w3.org/2000/svg"
   id="svg2094"
   viewBox="0 0 21.073631 16.634581"
   version="1.1"
   height="16.634581"
   width="21.073631">
  <defs
     id="defs2098" />
  <metadata
     id="metadata2">
    <rdf:RDF>
      <cc:Work
         rdf:about="">
        <dc:format>image/svg+xml</dc:format>
        <dc:type
           rdf:resource="http://purl.org/dc/dcmitype/StillImage" />
        <dc:title />
      </cc:Work>
    </rdf:RDF>
  </metadata>
  <g
     transform="translate(-192.16606,-844.71689)"
     id="g2092">
    <g
       style="stroke-width:0.16327"
       id="g2081">
      <path
         d="m 192.28,851.49 c -0.23903,-0.23903 -0.0996,-0.76057 0.39582,-1.4807 0.51212,-0.74431 0.76002,-1.4283 0.90575,-2.499 0.0587,-0.43146 -0.0253,-0.72317 -0.34323,-1.1909 -0.64835,-0.95403 -0.51643,-1.4213 0.40125,-1.4213 0.36856,0 1.1008,0.70004 1.3113,1.2536 0.48273,1.2696 -0.0993,3.2445 -1.3154,4.463 -0.13567,0.13595 -0.32767,0.3931 -0.42663,0.57143 -0.18499,0.33334 -0.72326,0.50946 -0.92883,0.3039 z m 4.4965,0.1571 c -0.29515,-0.11909 -0.25051,-0.7647 0.0841,-1.2168 1.0411,-1.4065 1.4549,-3.2355 0.95758,-4.2324 -0.5553,-1.1131 -0.19548,-1.8421 0.63935,-1.2953 1.0145,0.66449 1.279,1.8143 0.79252,3.4462 -0.4047,1.3576 -0.82155,2.1532 -1.52,2.9008 -0.47404,0.50748 -0.57591,0.54995 -0.9536,0.39754 z m 11.151,3.2445 c 0.35484,-0.18284 0.75322,-0.48576 0.8853,-0.67319 0.13207,-0.18741 0.32312,-0.34075 0.42458,-0.34075 0.28626,0 1.8539,-1.7868 2.2048,-2.513 0.24105,-0.49892 0.31421,-1.0043 0.31421,-2.1707 0,-0.8362 -0.0646,-1.5204 -0.14346,-1.5204 -0.0789,0 -0.23618,-0.22387 -0.34952,-0.49751 -0.27399,-0.66147 -0.92565,-0.97188 -2.0403,-0.97188 -1.2143,0 -1.5054,0.16354 -3.0804,1.7308 -1.0716,1.0663 -2.0594,2.9024 -2.0597,3.8283 -7e-5,0.22898 -0.0617,0.48612 -0.13698,0.57143 -0.21092,0.23905 -0.84274,2.1054 -0.84274,2.4894 0,0.28872 0.12013,0.35269 0.77551,0.41295 1.6222,0.14918 3.3796,-0.002 4.0487,-0.3456 z m 0.63721,5.892 c -0.2569,-0.34114 -0.60691,-0.72181 -0.77777,-0.84592 -0.17087,-0.1241 -0.69562,-0.82206 -1.1661,-1.551 -0.89522,-1.387 -1.1456,-1.5624 -2.5787,-1.8071 -0.33671,-0.0575 -0.77977,-0.27206 -0.98454,-0.47683 l -0.37232,-0.37233 -0.37848,0.82871 c -0.20817,0.45577 -0.43602,0.97562 -0.50632,1.1552 -0.0703,0.17958 -0.29621,0.69388 -0.50201,1.1429 -0.20578,0.44898 -0.45037,0.98731 -0.54349,1.1963 -0.24529,0.55045 -0.73129,0.77362 -1.0313,0.47357 -0.21055,-0.21057 -0.2073,-0.33457 0.027,-1.0246 0.14658,-0.43176 0.368,-0.97398 0.49203,-1.205 0.12405,-0.23097 0.42472,-1.0077 0.66816,-1.7261 0.24346,-0.71837 0.62389,-1.7102 0.84541,-2.2041 0.72509,-1.6166 0.82542,-1.8716 0.93126,-2.3673 0.1456,-0.68196 0.75695,-2.2044 1.0818,-2.6939 0.14896,-0.22449 0.31784,-0.5551 0.37531,-0.73469 0.11192,-0.34983 2.1294,-2.5304 2.3417,-2.531 0.07,0 0.38439,-0.22046 0.69868,-0.48942 0.31428,-0.26897 0.73239,-0.48921 0.92914,-0.48942 0.19674,0 0.40312,-0.0738 0.45861,-0.16364 0.19223,-0.31104 1.4747,-0.17062 2.3652,0.25898 1.2729,0.61408 1.8267,1.3881 2.1171,2.9589 0.33,1.7852 0.23699,2.5507 -0.4369,3.5953 -0.33422,0.51808 -0.71994,1.1568 -0.85715,1.4195 -0.13722,0.26266 -0.39539,0.55653 -0.57371,0.65306 -0.17833,0.0965 -0.45161,0.32243 -0.60728,0.50202 -0.5618,0.6481 -0.78798,0.84542 -1.2306,1.0736 -0.24756,0.12761 -0.48684,0.27591 -0.53174,0.32952 -0.0449,0.0536 -0.29526,0.20069 -0.55637,0.32679 -0.75153,0.36298 -0.85842,0.66972 -0.50583,1.4516 0.16839,0.37342 0.47627,0.81277 0.68418,0.97631 0.20792,0.16355 0.37802,0.3579 0.37802,0.43192 0,0.074 0.17138,0.28385 0.38083,0.4663 0.71849,0.62585 0.93643,1.1038 0.71062,1.5584 -0.31798,0.64009 -0.80632,0.59771 -1.3443,-0.11666 z"
         id="award" />
    </g>
  </g>
</svg>
