<svg xmlns="http://www.w3.org/2000/svg" height="13.541" width="16.093"><path d="M.188 5.672c-.3-.301-.233-.863.146-1.206.448-.405.64-.78.895-1.747l.21-.797-.56-.544C.286.802.195.506.515.186c.358-.357.845-.203 1.553.491.901.885.908 1.346.047 3.15-.36.753-.653 1.448-.653 1.545 0 .098-.189.25-.419.337-.536.204-.617.2-.855-.037zm3.788.457c-.082-.213.499-1.71.734-1.894.117-.092.507-1.519.507-1.857 0-.12-.19-.5-.422-.841-.345-.508-.39-.69-.252-.994.161-.354.205-.363.867-.171.645.187.714.262.925 1.007C6.86 3.24 5.587 6.358 4.3 6.358a.378.378 0 01-.325-.23zm2.121 7.154c.055-.142.1-.325.1-.407 0-.082.33-.484.734-.894.404-.41.735-.839.735-.952 0-.114.178-.374.395-.578a2.98 2.98 0 00.603-.886c.114-.283.25-.551.3-.596.052-.045.302-.486.556-.98 1.427-2.775 1.588-2.922 2.633-2.398.754.378 1.547.602 2.13.602.985 0 1.27 1.055.898 3.325-.222 1.355-.062 2.254.515 2.886.268.293.439.63.388.762-.05.13-.092.268-.092.306 0 .038-.243.068-.54.068-1.084 0-2.11-1.78-1.757-3.048.095-.344.174-1.074.174-1.624l.002-.998-1-.365c-1.106-.403-1.593-.305-1.892.38-.872 2-1.362 2.757-3.063 4.727-.683.791-.883.928-1.359.928-.441 0-.537-.053-.458-.258z" stroke-width=".163"/></svg>