<svg xmlns="http://www.w3.org/2000/svg" height="7.343" width="6.786"><path d="M.154 6.219C-.173 6.007.026 5.403.7 4.554c.53-.666.574-.807.575-1.843.002-1.052-.03-1.149-.508-1.566C.325.758.283.655.448.348c.24-.451.968-.466 1.52-.031.613.481.838 1.18.729 2.256-.132 1.297-.35 1.946-.969 2.892-.543.83-1.07 1.082-1.574.754zm3.612.8c-.272-.436-.255-.764.044-.879.135-.052.33-.298.434-.548.104-.25.37-.84.591-1.314.496-1.06.442-2.22-.124-2.679-.484-.392-.404-1.173.127-1.249.582-.082 1.102.363 1.59 1.36.438.896.441.925.185 1.68-.47 1.391-.702 1.986-.815 2.1-.062.06-.112.238-.112.394 0 .36-1.089 1.459-1.447 1.459-.149 0-.362-.146-.473-.325z"/></svg>