<?xml version="1.0" encoding="UTF-8" standalone="no"?>
<svg
   xmlns:dc="http://purl.org/dc/elements/1.1/"
   xmlns:cc="http://creativecommons.org/ns#"
   xmlns:rdf="http://www.w3.org/1999/02/22-rdf-syntax-ns#"
   xmlns:svg="http://www.w3.org/2000/svg"
   xmlns="http://www.w3.org/2000/svg"
   id="svg2094"
   viewBox="0 0 6.785959 7.3425064"
   version="1.1"
   height="7.3425064"
   width="6.7859592">
  <defs
     id="defs2098" />
  <metadata
     id="metadata2">
    <rdf:RDF>
      <cc:Work
         rdf:about="">
        <dc:format>image/svg+xml</dc:format>
        <dc:type
           rdf:resource="http://purl.org/dc/dcmitype/StillImage" />
        <dc:title />
      </cc:Work>
    </rdf:RDF>
  </metadata>
  <g
     transform="translate(-403.9465,-125.55112)"
     id="g2092">
    <g
       style="stroke-width:0.16327"
       id="g2081">
      <path
         d="m 404.1,131.77 c -0.32603,-0.2122 -0.12769,-0.81552 0.54723,-1.6646 0.52981,-0.66652 0.57385,-0.80761 0.57532,-1.8431 0.002,-1.0525 -0.0297,-1.1487 -0.50776,-1.5661 -0.44375,-0.38744 -0.48506,-0.49006 -0.32078,-0.79701 0.24142,-0.45109 0.96801,-0.46605 1.5207,-0.0313 0.61231,0.48164 0.83768,1.1798 0.72833,2.2561 -0.13179,1.297 -0.3491,1.946 -0.96853,2.8923 -0.54256,0.82888 -1.0706,1.0817 -1.5745,0.75369 z m 3.6124,0.79955 c -0.2717,-0.4351 -0.25534,-0.76334 0.0438,-0.87813 0.13546,-0.052 0.33112,-0.29862 0.43478,-0.54808 0.10365,-0.24946 0.36955,-0.84083 0.59085,-1.3142 0.49548,-1.0597 0.44164,-2.2203 -0.12427,-2.6786 -0.48405,-0.39196 -0.40453,-1.1736 0.12707,-1.249 0.5816,-0.0824 1.1018,0.3627 1.59,1.3604 0.4382,0.89565 0.4413,0.92386 0.18532,1.6795 -0.47112,1.3907 -0.70224,1.9854 -0.81572,2.0988 -0.0615,0.0615 -0.11189,0.23924 -0.11189,0.39489 0,0.36083 -1.0886,1.4585 -1.4464,1.4585 -0.14901,0 -0.36207,-0.14594 -0.47347,-0.32431 z"
         id="away_abv" />
    </g>
  </g>
</svg>
