<svg xmlns="http://www.w3.org/2000/svg" height="7.342" width="6.786"><path d="M.153 6.22c-.326-.213-.127-.816.548-1.666.53-.666.573-.808.575-1.843.002-1.053-.03-1.149-.508-1.566C.324.758.283.655.448.348c.24-.451.967-.466 1.52-.031.613.481.838 1.18.729 2.256-.132 1.297-.35 1.946-.969 2.892-.542.829-1.07 1.082-1.575.753zm3.612.799c-.271-.435-.255-.764.044-.878.136-.052.331-.299.435-.549.104-.249.37-.84.59-1.314.496-1.06.442-2.22-.123-2.679-.484-.392-.405-1.174.127-1.249.581-.082 1.102.363 1.59 1.36.438.896.441.924.185 1.68-.471 1.391-.702 1.985-.816 2.1-.061.061-.112.239-.112.394 0 .361-1.089 1.458-1.446 1.458-.149 0-.362-.146-.473-.324z" stroke-width=".163"/></svg>