<?xml version="1.0" encoding="UTF-8" standalone="no"?>
<svg
   xmlns:dc="http://purl.org/dc/elements/1.1/"
   xmlns:cc="http://creativecommons.org/ns#"
   xmlns:rdf="http://www.w3.org/1999/02/22-rdf-syntax-ns#"
   xmlns:svg="http://www.w3.org/2000/svg"
   xmlns="http://www.w3.org/2000/svg"
   id="svg2094"
   viewBox="0 0 21.845672 33.302814"
   version="1.1"
   height="33.302814"
   width="21.845673">
  <defs
     id="defs2098" />
  <metadata
     id="metadata2">
    <rdf:RDF>
      <cc:Work
         rdf:about="">
        <dc:format>image/svg+xml</dc:format>
        <dc:type
           rdf:resource="http://purl.org/dc/dcmitype/StillImage" />
        <dc:title />
      </cc:Work>
    </rdf:RDF>
  </metadata>
  <g
     transform="translate(-403.47183,-145.79151)"
     id="g2092">
    <g
       style="stroke-width:0.16327"
       id="g2081">
      <path
         d="m 403.5,156.84 c -0.11684,-0.30446 0.12538,-0.86709 0.80994,-1.8813 0.32428,-0.48046 0.5896,-1.0088 0.5896,-1.174 0,-0.1652 0.0735,-0.3459 0.16326,-0.40139 0.30415,-0.18797 0.16539,-1.258 -0.26587,-2.0504 -0.43932,-0.80718 -0.43084,-1.2274 0.0283,-1.4036 0.42011,-0.16122 0.95406,0.23489 1.3677,1.0147 0.33909,0.63917 0.37501,0.87537 0.29468,1.9375 -0.0773,1.0219 -0.18227,1.3515 -0.67652,2.1242 -0.32177,0.50301 -0.58503,1.0095 -0.58503,1.1256 0,0.29195 -0.89309,0.9255 -1.3046,0.9255 -0.18604,0 -0.37569,-0.0975 -0.42143,-0.21675 z m 18.359,-4.1506 c 0.16124,-0.15714 0.45901,-0.65306 0.66173,-1.102 0.20271,-0.44898 0.57739,-1.2571 0.83261,-1.7959 0.58347,-1.2317 0.73952,-1.9785 0.47903,-2.2924 -0.24217,-0.29181 -0.87861,-0.31177 -1.0879,-0.0341 -0.22942,0.30431 -0.51224,1.4024 -0.60057,2.3318 -0.0898,0.94515 -0.44984,2.1988 -0.63145,2.1988 -0.0679,0 -0.12351,0.22041 -0.12351,0.4898 0,0.56657 0.0679,0.59605 0.47006,0.20408 z m -13.24,24.654 c 0.85378,-0.54877 1.7998,-2.1423 2.1578,-3.6348 0.2422,-1.0096 0.1172,-4.9722 -0.19697,-6.2436 -0.18406,-0.7449 -0.6189,-1.0882 -0.62041,-0.4898 0,0.15715 -0.18937,0.8 -0.41995,1.4286 -0.45681,1.2453 -0.55654,1.6234 -0.95249,3.6115 -0.32308,1.6222 -1.0211,3.9909 -1.2408,4.2106 -0.1817,0.1817 -0.22021,1.1261 -0.0528,1.2936 0.20118,0.20119 0.87855,0.11121 1.3255,-0.17605 z m -2.3229,1.2646 c -0.64916,-0.63654 -0.63722,-1.5615 0.0456,-3.5297 0.28404,-0.81882 0.51645,-1.6952 0.51645,-1.9476 0,-0.2524 0.0675,-0.68446 0.1499,-0.96021 0.0824,-0.27577 0.28021,-1.0891 0.43947,-1.8075 0.15927,-0.71837 0.37772,-1.4531 0.48546,-1.6326 0.10775,-0.1796 0.24472,-0.69388 0.30437,-1.1429 0.17955,-1.3511 0.44851,-2.7554 0.59416,-3.102 0.2473,-0.58867 0.82953,-4.045 0.98266,-5.8334 0.0825,-0.96345 0.36948,-2.6031 0.63779,-3.6437 0.2683,-1.0406 0.49197,-2.2727 0.49703,-2.7381 0.005,-0.46536 0.0969,-1.1032 0.20408,-1.4175 0.17294,-0.5071 0.2592,-0.57142 0.76631,-0.57142 h 0.57143 l -0.0333,0.73469 c -0.0676,1.491 -0.33751,3.3823 -0.66418,4.6531 -0.18469,0.71837 -0.38471,1.8571 -0.44449,2.5306 -0.0598,0.67347 -0.2456,2.004 -0.41289,2.9566 -0.30212,1.7206 -0.2853,2.4311 0.0575,2.4311 0.0984,0 0.80705,-0.26036 1.5748,-0.57859 1.4363,-0.59535 2.0294,-1.0034 3.6085,-2.4826 0.50325,-0.47143 1.0025,-0.85714 1.1094,-0.85714 0.1069,0 0.24083,-0.12857 0.29752,-0.28571 0.0567,-0.15715 0.4096,-0.61858 0.78424,-1.0254 0.61987,-0.67312 0.69047,-0.83905 0.78425,-1.8434 0.0567,-0.60703 0.16038,-1.1925 0.23042,-1.3011 0.07,-0.10858 0.21054,-0.56477 0.31224,-1.0138 0.24944,-1.1013 0.77185,-3.2902 1.1884,-4.9796 0.34928,-1.4163 0.84764,-2.6314 1.2891,-3.1429 0.18619,-0.21572 0.49831,-0.28571 1.2742,-0.28571 0.97343,0 1.0496,0.0288 1.4441,0.54602 0.52197,0.68434 0.572,2.002 0.11291,2.9743 -0.16695,0.35361 -0.44246,0.97196 -0.61224,1.3741 -0.31592,0.74833 -0.76359,1.639 -1.6719,3.3262 -0.28287,0.52545 -0.51432,1.0328 -0.51432,1.1274 0,0.0947 -0.17153,0.39943 -0.38117,0.6773 -0.75537,1.0012 -1.5875,2.8187 -1.7486,3.8194 -0.0893,0.55441 -0.23435,1.1974 -0.32238,1.429 -0.088,0.23153 -0.16005,0.85441 -0.16005,1.3842 0,0.83273 0.0498,0.98941 0.36734,1.1567 0.66177,0.34851 0.80769,0.90539 0.35569,1.3574 -0.36958,0.36956 -0.75229,0.318 -1.4285,-0.19243 -0.75469,-0.56966 -0.96547,-1.2859 -0.82455,-2.8021 0.10896,-1.1724 -0.008,-1.4202 -0.42915,-0.91218 -0.11179,0.13469 -0.2959,0.24489 -0.40916,0.24489 -0.11324,0 -0.48725,0.31225 -0.83111,0.69388 -0.57924,0.64285 -0.90466,0.89929 -1.5352,1.2098 -0.13469,0.0663 -0.3862,0.25186 -0.55892,0.41227 -0.1727,0.16039 -0.68699,0.48491 -1.1429,0.72114 -1.4409,0.74671 -1.3596,0.27128 -0.91941,5.3761 0.16826,1.9511 0.16109,2.4716 -0.0484,3.5102 -0.27073,1.3426 -0.97623,3.3374 -1.292,3.6534 -0.11092,0.11097 -0.37672,0.45361 -0.59066,0.76142 -0.5001,0.71949 -1.9934,1.4744 -2.8763,1.454 -0.48751,-0.0113 -0.77484,-0.13446 -1.1334,-0.4861 z"
         id="awful" />
    </g>
  </g>
</svg>
