<svg xmlns="http://www.w3.org/2000/svg" height="33.303" width="21.846"><path d="M.028 11.048c-.117-.304.126-.867.81-1.88.324-.481.59-1.01.59-1.175 0-.165.073-.346.163-.401.304-.188.165-1.258-.266-2.05-.44-.808-.43-1.228.028-1.404.42-.161.954.235 1.368 1.015.34.639.375.875.295 1.937-.078 1.022-.182 1.352-.677 2.124-.322.503-.585 1.01-.585 1.126 0 .292-.893.925-1.304.925-.186 0-.376-.097-.422-.216zm18.36-4.15c.16-.157.458-.653.66-1.102.204-.45.578-1.257.834-1.796.583-1.232.739-1.979.479-2.292-.243-.292-.88-.312-1.088-.035-.23.305-.513 1.403-.6 2.332-.09.945-.45 2.2-.632 2.2-.068 0-.124.22-.124.489 0 .566.068.596.47.204zM5.147 31.552c.853-.549 1.799-2.142 2.157-3.635.242-1.01.117-4.972-.197-6.244-.184-.744-.619-1.088-.62-.49 0 .158-.19.8-.42 1.43-.457 1.245-.557 1.623-.953 3.61-.323 1.623-1.021 3.992-1.24 4.211-.182.182-.22 1.126-.053 1.294.2.201.878.111 1.325-.176zm-2.324 1.264c-.649-.636-.637-1.561.046-3.53.284-.818.516-1.694.516-1.947 0-.252.068-.684.15-.96.083-.276.28-1.09.44-1.808.159-.718.377-1.453.485-1.632.108-.18.245-.694.305-1.143.18-1.351.448-2.755.594-3.102.247-.589.83-4.045.982-5.833.083-.964.37-2.604.638-3.644s.492-2.273.497-2.738c.005-.466.097-1.103.204-1.418.173-.507.26-.571.767-.571h.571l-.033.735c-.068 1.49-.338 3.382-.665 4.653a19.106 19.106 0 00-.444 2.53 43.56 43.56 0 01-.413 2.957c-.302 1.72-.285 2.431.058 2.431.098 0 .807-.26 1.574-.579 1.437-.595 2.03-1.003 3.609-2.482.503-.472 1.002-.857 1.11-.857.106 0 .24-.129.297-.286.057-.157.41-.619.784-1.025.62-.674.69-.84.784-1.844.057-.607.16-1.192.23-1.301.07-.109.211-.565.313-1.014.25-1.101.772-3.29 1.188-4.98.35-1.416.848-2.63 1.29-3.142C18.886.07 19.198 0 19.974 0c.973 0 1.05.029 1.444.546.522.684.572 2.002.113 2.974-.167.354-.443.972-.613 1.374-.315.749-.763 1.64-1.671 3.327-.283.525-.515 1.032-.515 1.127 0 .095-.171.4-.38.677-.756 1.002-1.588 2.819-1.75 3.82-.089.554-.234 1.197-.322 1.429-.088.231-.16.854-.16 1.384 0 .833.05.99.367 1.157.662.348.808.905.356 1.357-.37.37-.752.318-1.428-.192-.755-.57-.966-1.286-.825-2.803.109-1.172-.008-1.42-.43-.912-.11.135-.295.245-.408.245-.114 0-.488.312-.831.694-.58.643-.905.9-1.536 1.21a3.008 3.008 0 00-.559.412c-.172.16-.687.485-1.142.721-1.441.747-1.36.272-.92 5.376.168 1.951.161 2.472-.048 3.51-.271 1.343-.976 3.338-1.292 3.654-.111.111-.377.454-.59.761-.501.72-1.994 1.475-2.877 1.454-.488-.01-.775-.134-1.134-.486z" stroke-width=".163"/></svg>