<svg xmlns="http://www.w3.org/2000/svg" height="29.476" width="17.333"><path d="M.18 8.578c-.284-.314-.274-.347.342-1.098.633-.773.634-.777.675-2.402.049-1.928.246-2.226 1.043-1.578.363.295.383.407.346 1.883-.022.864-.115 1.66-.207 1.768-.091.11-.426.548-.743.974-.624.84-1 .957-1.456.453zm8.682 4.627c-.153-.153-.146-1.164.009-1.254.067-.039 1.935-.123 4.15-.187 3.93-.113 4.032-.108 4.203.213.233.434.093.754-.433.994-.474.216-7.733.43-7.929.234zM3.809 28.063c.202-.054.368-.198.368-.32 0-.123.19-.347.423-.5.232-.152.49-.43.57-.616.082-.186.215-.449.295-.583.397-.663.997-3.325.997-4.423 0-1.303-.76-4.394-1.08-4.394-.313 0-.535.39-.724 1.275-.1.465-.249.887-.331.938-.083.05-.15.346-.15.656 0 .31-.07.692-.153.848-.294.545-1.013 3.07-1.243 4.365-.328 1.854-.307 2.3.126 2.603.41.287.401.285.902.151zm-1.855.906c-.349-.277-.684-.626-.745-.775-.2-.488-.129-2.058.11-2.477.129-.224.236-.637.24-.916.003-.28.192-1.088.42-1.796.229-.708.48-1.582.557-1.941.132-.607.584-2.254 1.32-4.816.169-.584.354-1.466.413-1.96.06-.493.162-.971.228-1.06.066-.09.213-.642.327-1.225.113-.584.339-1.612.502-2.286.162-.673.42-2.07.57-3.102C6.568 2.025 7 .409 7.64.065c.472-.252 1.003.265.851.829-.361 1.334-.684 2.902-1.213 5.884a96.39 96.39 0 01-.97 4.735c-.271 1.122-.494 2.236-.496 2.474-.002.238.247.875.552 1.415.306.54.677 1.484.826 2.098.15.613.339 1.372.421 1.686.207.791.195 3.635-.018 4.194-.096.253-.244.827-.328 1.276-.167.887-.78 2.258-1.245 2.787-.16.183-.373.475-.472.648-.099.173-.503.55-.898.837-.986.717-1.827.73-2.696.041z" stroke-width=".163"/></svg>