<?xml version="1.0" encoding="UTF-8" standalone="no"?>
<svg
   xmlns:dc="http://purl.org/dc/elements/1.1/"
   xmlns:cc="http://creativecommons.org/ns#"
   xmlns:rdf="http://www.w3.org/1999/02/22-rdf-syntax-ns#"
   xmlns:svg="http://www.w3.org/2000/svg"
   xmlns="http://www.w3.org/2000/svg"
   id="svg2094"
   viewBox="0 0 17.332624 29.475817"
   version="1.1"
   height="29.475817"
   width="17.332624">
  <defs
     id="defs2098" />
  <metadata
     id="metadata2">
    <rdf:RDF>
      <cc:Work
         rdf:about="">
        <dc:format>image/svg+xml</dc:format>
        <dc:type
           rdf:resource="http://purl.org/dc/dcmitype/StillImage" />
        <dc:title />
      </cc:Work>
    </rdf:RDF>
  </metadata>
  <g
     transform="translate(-413.46042,-172.8124)"
     id="g2092">
    <g
       style="stroke-width:0.16327"
       id="g2081">
      <path
         d="m 413.64,181.39 c -0.28387,-0.31366 -0.27372,-0.34623 0.34204,-1.0977 0.63376,-0.77339 0.63464,-0.77657 0.67572,-2.402 0.0487,-1.9282 0.24575,-2.2263 1.0428,-1.5777 0.36246,0.29496 0.38306,0.40716 0.34569,1.8833 -0.0219,0.86332 -0.11479,1.6589 -0.20651,1.768 -0.0917,0.10908 -0.42617,0.54732 -0.74323,0.97385 -0.62438,0.83992 -1.0001,0.95658 -1.4565,0.45224 z m 8.6823,4.6275 c -0.1527,-0.1527 -0.1457,-1.1645 0.009,-1.2538 0.0673,-0.0389 1.9348,-0.1231 4.15,-0.18697 3.9303,-0.11334 4.0318,-0.10819 4.2035,0.21264 0.23215,0.43378 0.0924,0.75405 -0.43375,0.99376 -0.47366,0.21582 -7.7324,0.43038 -7.9284,0.23437 z m -5.0526,14.858 c 0.20204,-0.0541 0.36734,-0.19839 0.36734,-0.32054 0,-0.12216 0.19037,-0.34683 0.42306,-0.49928 0.23268,-0.15246 0.48964,-0.42967 0.57103,-0.61602 0.0814,-0.18633 0.21399,-0.44901 0.29466,-0.58371 0.397,-0.66289 0.99697,-3.3244 0.99697,-4.4227 0,-1.3026 -0.75963,-4.3936 -1.0798,-4.3936 -0.31306,0 -0.53507,0.39056 -0.72473,1.275 -0.0996,0.46449 -0.24864,0.88627 -0.33117,0.93727 -0.0825,0.051 -0.15006,0.34655 -0.15006,0.65675 0,0.31021 -0.0688,0.69158 -0.1529,0.84751 -0.29413,0.54536 -1.0127,3.0704 -1.2422,4.3651 -0.3287,1.8542 -0.30723,2.3 0.12531,2.603 0.4096,0.28689 0.40142,0.28552 0.90245,0.15125 z m -1.8551,0.90592 c -0.34907,-0.2767 -0.68463,-0.62568 -0.74566,-0.77551 -0.19861,-0.48752 -0.12823,-2.058 0.11097,-2.4765 0.12833,-0.22449 0.23593,-0.63671 0.23912,-0.91606 0.003,-0.27936 0.1925,-1.0875 0.42072,-1.7959 0.22821,-0.70841 0.4788,-1.5819 0.55685,-1.9411 0.13183,-0.60664 0.58336,-2.2535 1.3205,-4.8163 0.16789,-0.58368 0.35352,-1.4653 0.41251,-1.9592 0.059,-0.49388 0.16152,-0.97143 0.22782,-1.0612 0.0663,-0.0898 0.21327,-0.64082 0.32661,-1.2245 0.11332,-0.58368 0.3392,-1.6122 0.50194,-2.2857 0.16275,-0.67347 0.41958,-2.0694 0.57075,-3.102 0.67191,-4.5899 1.1022,-6.2059 1.7438,-6.5493 0.47177,-0.25247 1.0032,0.26462 0.85087,0.82784 -0.36093,1.334 -0.68414,2.9026 -1.2126,5.8847 -0.26255,1.4816 -0.69922,3.6122 -0.9704,4.7347 -0.27118,1.1225 -0.49432,2.2358 -0.49587,2.4741 -0.002,0.23832 0.24696,0.87521 0.55226,1.4154 0.30529,0.54011 0.67705,1.4839 0.82611,2.0973 0.14906,0.61341 0.33835,1.3724 0.42062,1.6867 0.20705,0.79096 0.1951,3.6348 -0.0176,4.1934 -0.0962,0.25279 -0.24422,0.82696 -0.32882,1.2759 -0.16712,0.88697 -0.77946,2.2582 -1.2448,2.7875 -0.16069,0.18278 -0.373,0.47426 -0.4718,0.64772 -0.0988,0.17347 -0.50289,0.55029 -0.89796,0.83739 -0.98601,0.71654 -1.8271,0.72919 -2.6959,0.0406 z"
         id="awfully" />
    </g>
  </g>
</svg>
