<?xml version="1.0" encoding="UTF-8" standalone="no"?>
<svg
   xmlns:dc="http://purl.org/dc/elements/1.1/"
   xmlns:cc="http://creativecommons.org/ns#"
   xmlns:rdf="http://www.w3.org/1999/02/22-rdf-syntax-ns#"
   xmlns:svg="http://www.w3.org/2000/svg"
   xmlns="http://www.w3.org/2000/svg"
   id="svg2094"
   viewBox="0 0 27.048392 32.56847"
   version="1.1"
   height="32.56847"
   width="27.048393">
  <defs
     id="defs2098" />
  <metadata
     id="metadata2">
    <rdf:RDF>
      <cc:Work
         rdf:about="">
        <dc:format>image/svg+xml</dc:format>
        <dc:type
           rdf:resource="http://purl.org/dc/dcmitype/StillImage" />
        <dc:title />
      </cc:Work>
    </rdf:RDF>
  </metadata>
  <g
     transform="translate(-400.81994,-194.34627)"
     id="g2092">
    <g
       style="stroke-width:0.16327"
       id="g2081">
      <path
         d="m 404.17,206.15 c -0.28343,-0.20725 -0.28413,-0.24411 -0.0155,-0.81032 0.15481,-0.32627 0.42116,-0.63753 0.59189,-0.69172 0.17071,-0.0542 0.35972,-0.29566 0.42003,-0.53662 0.0603,-0.24095 0.24387,-0.6585 0.40793,-0.92788 0.40387,-0.66317 0.37712,-1.0924 -0.13996,-2.2446 -0.42614,-0.94955 -0.43014,-0.98613 -0.13207,-1.2041 0.9695,-0.70893 1.8777,0.39363 1.8777,2.2796 0,1.3782 -0.40826,2.4097 -1.3575,3.4296 -0.89298,0.95951 -1.1536,1.0709 -1.6526,0.70602 z m 19.931,-3.9064 c 0.85681,-1.2973 1.188,-1.9147 1.3502,-2.5171 0.0957,-0.35525 0.35844,-0.81925 0.58394,-1.0311 0.32687,-0.3071 0.40999,-0.54333 0.40999,-1.1654 0,-0.78322 -0.26335,-1.6119 -0.51225,-1.6119 -0.2254,0 -0.58819,0.70189 -0.70422,1.3625 -0.0607,0.34529 -0.36454,1.2061 -0.6753,1.9129 -0.31076,0.70681 -0.6336,1.5998 -0.71744,1.9844 -0.0838,0.38465 -0.20083,0.9014 -0.26002,1.1483 -0.14463,0.60343 0.097,0.56534 0.52507,-0.0827 z m -18.794,19.041 c -0.41034,0.6451 -0.88251,1.6111 -1.1929,1.959 -0.17055,0.19122 -0.4704,0.61587 -0.66634,0.94371 -0.19593,0.32782 -0.45263,0.63303 -0.57046,0.67825 -0.11781,0.0452 -0.42154,0.49195 -0.67493,0.99277 -0.46924,0.92744 -0.98731,1.2993 -1.2446,0.89326 -0.28509,-0.44993 -0.12986,-0.98058 0.48379,-1.6538 0.34604,-0.37964 0.6819,-0.91064 0.74634,-1.18 0.0644,-0.26939 0.31126,-0.69385 0.54849,-0.94323 0.5454,-0.57334 2.0816,-2.9428 2.4316,-3.7506 0.14591,-0.33673 0.32469,-0.61224 0.39724,-0.61224 0.0726,0 0.22449,-0.31225 0.33759,-0.69388 0.11309,-0.38163 0.45188,-0.94931 0.75288,-1.2615 0.30098,-0.3122 0.88733,-1.1916 1.303,-1.9541 0.41567,-0.76255 0.9823,-1.6459 1.2592,-1.963 0.2769,-0.3171 0.6479,-0.85837 0.82446,-1.2028 0.17657,-0.34444 0.44566,-0.69391 0.59799,-0.77657 0.28199,-0.15303 1.8298,-3.2049 2.3213,-4.5772 0.28927,-0.80759 0.61633,-1.1816 1.1845,-1.3544 0.2696,-0.082 0.37998,-0.0265 0.46217,0.23247 0.14882,0.46885 -0.0562,1.5987 -0.41466,2.2856 -0.56656,1.0857 -0.94718,3.0224 -0.74908,3.8117 0.21128,0.84182 1.9029,0.87058 2.8793,0.049 0.28247,-0.23768 0.59096,-0.43215 0.68552,-0.43215 0.17948,0 1.4062,-1.0988 1.9935,-1.7855 0.18707,-0.21876 0.61923,-0.67842 0.96036,-1.0215 0.52418,-0.52714 0.73254,-0.9712 1.3455,-2.8676 0.39891,-1.2341 0.76795,-2.501 0.8201,-2.8153 0.0521,-0.31429 0.15939,-0.71837 0.23833,-0.89796 0.3007,-0.68415 1.3423,-3.7805 1.4554,-4.3265 0.35757,-1.7259 1.6258,-2.9629 2.7391,-2.6717 0.3783,0.0989 0.91745,1.099 1.1977,2.2217 0.16281,0.65228 0.14963,0.9099 -0.0836,1.6327 -0.15229,0.47198 -0.3813,1.0209 -0.50891,1.2198 -0.12763,0.19889 -0.23203,0.44279 -0.23203,0.54201 0,0.0992 -0.20732,0.48753 -0.46069,0.86289 -0.25339,0.37536 -0.81385,1.3437 -1.2455,2.1519 -0.43164,0.80816 -0.83087,1.5061 -0.88718,1.551 -0.0563,0.0449 -0.31499,0.37551 -0.57481,0.73469 -0.25984,0.35919 -0.55329,0.72774 -0.65213,0.81899 -0.55886,0.516 -0.8001,0.98565 -1.0998,2.1412 -0.49543,1.9099 -0.52531,2.345 -0.21714,3.1623 0.62201,1.6498 0.41308,2.5316 -0.51922,2.1914 -0.31566,-0.1152 -0.52398,-0.43793 -0.88761,-1.375 -0.26132,-0.67347 -0.47539,-1.3531 -0.47572,-1.5102 0,-0.36061 -0.38393,-0.36885 -0.73691,-0.0158 -0.23264,0.23264 -1.5543,1.1435 -2.6106,1.7992 -0.81321,0.50476 -1.2204,0.61244 -2.3391,0.61845 -1.1672,0.006 -1.2093,-0.008 -1.7325,-0.57873 -0.29493,-0.32183 -0.57179,-0.68918 -0.61525,-0.81633 -0.0574,-0.168 -0.21457,-0.087 -0.57509,0.29638 -0.50681,0.53895 -1.5136,2.021 -1.5136,2.228 0,0.10658 -0.62843,1.0607 -0.81966,1.2444 -0.0467,0.0449 -0.17482,0.2653 -0.28469,0.48979 -0.2832,0.57876 -0.80129,1.368 -1.2247,2.0379 -0.69413,1.0983 -1.4587,2.1509 -2.156,3.2472 z"
         id="awhile" />
    </g>
  </g>
</svg>
