<svg xmlns="http://www.w3.org/2000/svg" height="32.568" width="27.048"><path d="M3.35 11.804c-.283-.208-.284-.244-.015-.81.154-.327.42-.638.591-.692.171-.055.36-.296.42-.537.06-.24.244-.658.408-.928.404-.663.378-1.092-.14-2.244-.426-.95-.43-.987-.132-1.205.97-.708 1.878.394 1.878 2.28 0 1.378-.408 2.41-1.357 3.43-.893.96-1.154 1.07-1.653.706zm19.931-3.907c.857-1.297 1.188-1.914 1.35-2.517.096-.355.359-.819.584-1.03.327-.308.41-.544.41-1.166 0-.783-.263-1.612-.512-1.612-.225 0-.588.702-.704 1.362-.061.346-.365 1.206-.676 1.913-.31.707-.633 1.6-.717 1.985-.084.384-.2.901-.26 1.148-.145.603.097.565.525-.083zM4.487 26.938c-.41.645-.882 1.611-1.193 1.96-.17.19-.47.615-.666.943-.196.328-.453.633-.57.678-.118.045-.422.492-.676.993-.469.927-.987 1.3-1.244.893-.285-.45-.13-.98.484-1.653.346-.38.682-.911.746-1.18.064-.27.311-.694.548-.944.546-.573 2.082-2.943 2.432-3.75.146-.337.325-.613.397-.613.073 0 .225-.312.338-.693.113-.382.452-.95.753-1.262.3-.312.887-1.192 1.303-1.954.415-.763.982-1.646 1.259-1.963.277-.317.648-.858.824-1.203.177-.344.446-.694.598-.776.282-.153 1.83-3.205 2.322-4.578.289-.807.616-1.181 1.184-1.354.27-.082.38-.027.462.232.15.47-.056 1.6-.414 2.286-.567 1.086-.947 3.022-.75 3.812.212.842 1.904.87 2.88.049.282-.238.59-.432.685-.432.18 0 1.407-1.1 1.994-1.786.187-.219.62-.678.96-1.021.525-.528.733-.972 1.346-2.868.399-1.234.768-2.501.82-2.815a4.76 4.76 0 01.238-.898c.301-.684 1.343-3.78 1.456-4.327C23.36.988 24.628-.249 25.742.043c.378.098.917 1.099 1.197 2.221.163.653.15.91-.083 1.633-.152.472-.381 1.02-.51 1.22-.127.199-.231.443-.231.542 0 .099-.207.487-.46.863-.254.375-.815 1.343-1.246 2.152-.432.808-.831 1.506-.887 1.55-.057.045-.315.376-.575.735-.26.36-.554.728-.652.82-.56.515-.8.985-1.1 2.14-.496 1.91-.526 2.345-.217 3.163.622 1.65.413 2.531-.52 2.191-.315-.115-.524-.438-.887-1.375-.261-.673-.476-1.353-.476-1.51 0-.36-.384-.369-.737-.016-.232.233-1.554 1.144-2.61 1.8-.814.504-1.22.612-2.34.618-1.167.006-1.209-.008-1.732-.579-.295-.322-.572-.69-.615-.816-.058-.168-.215-.087-.575.296-.507.54-1.514 2.021-1.514 2.228 0 .107-.628 1.06-.82 1.245-.046.044-.174.265-.284.49-.283.578-.802 1.367-1.225 2.037-.694 1.098-1.459 2.151-2.156 3.247z"/></svg>