<svg xmlns="http://www.w3.org/2000/svg" height="20.351" width="29.634"><path d="M28.218 11.79c.3-.3.167-.753-.197-.753-.18 0-.636.377-.636.46 0 .082-.354.486-.408.628-.119.31.421.485.71.195zM9.63 7.047c-.406-.16-.189-.807.54-1.605.409-.449.813-.985.898-1.193.28-.688.178-1.447-.266-1.974-.738-.877-.215-1.841.704-1.295.543.323 1.179 1.366 1.183 1.939.005.692-.488 2.348-.74 2.49-.13.072-.35.348-.486.612-.358.692-1.318 1.23-1.833 1.026zm8.063-.506c.281-.424.552-.955.602-1.18.05-.224.208-.849.35-1.388.326-1.24.21-2.367-.244-2.367-.37 0-.58.349-.734 1.228-.063.357-.206.797-.317.976-.111.18-.255.878-.319 1.551-.064.674-.156 1.39-.205 1.592-.154.637.32.411.867-.412zM2.817 1.415c.703.188.762.85.561 2.11-.094.592-.215 1.145-.267 1.23-.227.368-.431 1.449-.546 2.892-.231 2.915-.484 5.251-.585 5.415-.126.205-.547 3.137-.551 3.844-.005.8.702 1.4 1.53 1.295.35-.044.68-.146.735-.227.054-.08.219-.19.366-.245.318-.117 1.132-1.226 1.647-2.245.205-.404.419-.772.476-.816.174-.137.63-1.327.63-1.644 0-.583 1.422-1.116 1.715-.642.197.32 1.724.159 3.304-.347 1.609-.515 2.459-1.04 2.71-1.675.385-.968.824-2.742 1.095-4.427.087-.539.23-1.193.32-1.453s.163-.75.163-1.089c0-.887.574-2.099 1.33-2.805.826-.771 1.267-.78 2.011-.035.573.573.577.586.577 2.016 0 1.424-.115 2.01-.61 3.121-.523 1.17-.753 1.563-1.192 2.04-.247.27-.64.874-.874 1.342-.234.468-.56.923-.725 1.012-.286.153-.54.846-1.732 4.718-.503 1.634-.588 3.686-.16 3.85.677.26 1.51.094 2.165-.431.364-.292.666-.604.671-.694.005-.09.232-.494.503-.898.667-.991 1.138-2.07 1.138-2.605 0-.257.167-.597.401-.818.344-.323.491-.358 1.02-.242.34.075 1.461.14 2.49.145l1.87.01.367-.572c1.077-1.679 1.736-2.413 2.349-2.615.912-.301 1.561-.003 1.811.832.176.585.156.668-.285 1.22-.26.327-.539.716-.62.864-.08.149-.69.527-1.357.842-.666.314-1.308.681-1.427.816-.249.283-.579 1.72-.579 2.524 0 .404.124.653.47.944.257.217.56.566.673.777.294.55-.173.875-1.061.74-1.192-.182-1.601-1.037-1.525-3.19l.055-1.55h-3.428l-.408.825a32.76 32.76 0 00-.68 1.47c-.424 1.008-1.726 2.565-2.477 2.963-.707.374-1.35.44-2.096.215-.24-.072-.742-.303-1.116-.513l-.68-.382.078-1.636c.042-.9.205-2.04.361-2.534.157-.493.32-1.173.363-1.51.068-.544.037-.612-.28-.612-.196 0-.907.19-1.58.422a8.521 8.521 0 01-2.54.468c-1.55.054-1.506.015-2.688 2.334-.423.831-.826 1.51-.896 1.51-.07 0-.22.18-.335.397-.384.728-2.205 1.726-3.15 1.726-.201 0-.455-.106-.562-.235a.99.99 0 00-.535-.286c-.22-.032-.51-.365-.818-.936-.514-.954-.517-1.026-.144-3.686.089-.628.24-1.839.338-2.69.097-.85.281-2.1.41-2.775.127-.676.277-1.963.333-2.861.068-1.107.202-1.847.417-2.297.348-.726-.108-1.248.142-1.792.18-.393.496-1.03.914-.919z" stroke-width=".163"/></svg>