<?xml version="1.0" encoding="UTF-8" standalone="no"?>
<svg
   xmlns:dc="http://purl.org/dc/elements/1.1/"
   xmlns:cc="http://creativecommons.org/ns#"
   xmlns:rdf="http://www.w3.org/1999/02/22-rdf-syntax-ns#"
   xmlns:svg="http://www.w3.org/2000/svg"
   xmlns="http://www.w3.org/2000/svg"
   id="svg2094"
   viewBox="0 0 29.633502 20.351263"
   version="1.1"
   height="20.351263"
   width="29.633503">
  <defs
     id="defs2098" />
  <metadata
     id="metadata2">
    <rdf:RDF>
      <cc:Work
         rdf:about="">
        <dc:format>image/svg+xml</dc:format>
        <dc:type
           rdf:resource="http://purl.org/dc/dcmitype/StillImage" />
        <dc:title />
      </cc:Work>
    </rdf:RDF>
  </metadata>
  <g
     transform="translate(-404.61198,-217.82005)"
     id="g2092">
    <g
       style="stroke-width:0.16327"
       id="g2090">
      <path
         d="m 432.83,229.61 c 0.30044,-0.30044 0.16678,-0.75299 -0.19691,-0.75299 -0.17959,0 -0.63589,0.37686 -0.63589,0.45927 0,0.0824 -0.35395,0.48709 -0.40845,0.62913 -0.11849,0.30875 0.42134,0.48449 0.71091,0.19488 z m -18.588,-4.7425 c -0.40619,-0.16065 -0.1889,-0.80702 0.53977,-1.6056 0.40913,-0.44837 0.81321,-0.98532 0.89796,-1.1932 0.28018,-0.6872 0.17794,-1.4462 -0.26585,-1.9736 -0.73836,-0.87751 -0.2144,-1.8412 0.70392,-1.2947 0.54289,0.32308 1.179,1.3657 1.1827,1.9385 0.005,0.69228 -0.48779,2.3482 -0.74005,2.4894 -0.13027,0.0729 -0.34859,0.34862 -0.48514,0.61271 -0.35809,0.69247 -1.3184,1.2302 -1.8333,1.0265 z m 8.0626,-0.50669 c 0.28138,-0.42422 0.55265,-0.95498 0.60282,-1.1795 0.0502,-0.22449 0.20733,-0.84898 0.34926,-1.3878 0.32671,-1.2403 0.21081,-2.3674 -0.24346,-2.3674 -0.37094,0 -0.57956,0.34875 -0.73427,1.2275 -0.0629,0.35753 -0.2055,0.79699 -0.31679,0.97658 -0.11128,0.1796 -0.25476,0.87756 -0.3188,1.551 -0.0641,0.67346 -0.15641,1.3898 -0.20521,1.5918 -0.15385,0.637 0.31998,0.41148 0.86645,-0.41237 z m -14.876,-5.126 c 0.70318,0.18797 0.76271,0.8511 0.56157,2.1102 -0.0945,0.59169 -0.21487,1.1454 -0.26745,1.2305 -0.227,0.3673 -0.4309,1.4481 -0.54553,2.8917 -0.23153,2.9153 -0.48387,5.2513 -0.58495,5.4149 -0.12643,0.20455 -0.54721,3.1374 -0.55151,3.8438 -0.005,0.80078 0.70275,1.3996 1.5306,1.2952 0.34968,-0.0441 0.68029,-0.14619 0.73469,-0.22689 0.0544,-0.0807 0.21887,-0.19088 0.36547,-0.2448 0.31869,-0.11724 1.1326,-1.2264 1.6478,-2.2455 0.20426,-0.40408 0.41824,-0.77143 0.47549,-0.81633 0.17401,-0.13644 0.6306,-1.3263 0.6306,-1.6433 0,-0.58364 1.4214,-1.1163 1.7143,-0.64238 0.19727,0.3192 1.724,0.15889 3.3042,-0.34693 1.6088,-0.51495 2.4588,-1.04 2.7108,-1.6745 0.38471,-0.96837 0.8233,-2.7426 1.0945,-4.4276 0.0867,-0.53878 0.23073,-1.1926 0.32002,-1.4529 0.0893,-0.26035 0.16236,-0.75018 0.16236,-1.0885 0,-0.88785 0.5747,-2.0992 1.331,-2.8055 0.82591,-0.7713 1.2668,-0.77907 2.0105,-0.0354 0.57307,0.57309 0.57686,0.58632 0.57686,2.0165 0,1.4244 -0.11474,2.0109 -0.61064,3.121 -0.52237,1.1694 -0.75222,1.5632 -1.1908,2.0408 -0.24743,0.26939 -0.64118,0.87287 -0.87499,1.3411 -0.23383,0.4682 -0.55999,0.92345 -0.7248,1.0117 -0.28601,0.15306 -0.54061,0.84663 -1.7322,4.7186 -0.50291,1.6342 -0.58782,3.6856 -0.15935,3.85 0.67654,0.25961 1.5092,0.0936 2.1646,-0.43151 0.36426,-0.29184 0.6664,-0.60408 0.67143,-0.69388 0.005,-0.0898 0.23143,-0.49387 0.50313,-0.89796 0.66629,-0.9909 1.1372,-2.0695 1.1372,-2.6045 0,-0.25698 0.16742,-0.59787 0.40172,-0.81798 0.34387,-0.32305 0.49084,-0.35791 1.0204,-0.24207 0.34027,0.0744 1.4605,0.13962 2.4893,0.14486 l 1.8706,0.009 0.3665,-0.57143 c 1.0766,-1.6785 1.7359,-2.4124 2.349,-2.6148 0.91241,-0.30111 1.5612,-0.003 1.8114,0.83234 0.1752,0.58477 0.15581,0.6678 -0.28501,1.2206 -0.26015,0.32624 -0.539,0.7147 -0.61969,0.86323 -0.0807,0.14853 -0.69157,0.5272 -1.3575,0.84149 -0.66598,0.31429 -1.308,0.68163 -1.4268,0.81633 -0.24919,0.28266 -0.57922,1.7208 -0.57922,2.5241 0,0.40405 0.12377,0.65303 0.46908,0.94359 0.25801,0.21709 0.56117,0.56677 0.67373,0.77709 0.29417,0.54967 -0.17264,0.87509 -1.0612,0.73977 -1.1921,-0.18155 -1.601,-1.0368 -1.5245,-3.1887 l 0.0551,-1.551 h -3.4286 l -0.40816,0.82524 c -0.22449,0.45388 -0.53022,1.1151 -0.67938,1.4694 -0.42478,1.0088 -1.7263,2.5656 -2.4774,2.9633 -0.70652,0.37406 -1.3502,0.44005 -2.096,0.21489 v 4.7e-4 c -0.24008,-0.0725 -0.74221,-0.3036 -1.1158,-0.51357 l -0.6793,-0.3818 0.0769,-1.6357 c 0.0423,-0.89961 0.20506,-2.0397 0.36173,-2.5336 0.15666,-0.49387 0.31966,-1.1735 0.36221,-1.5102 0.0688,-0.54444 0.0378,-0.61225 -0.27973,-0.61225 -0.19639,0 -0.90697,0.1898 -1.5791,0.42178 -0.82899,0.28613 -1.6461,0.43658 -2.5407,0.46779 -1.5502,0.0541 -1.5061,0.0158 -2.688,2.3349 -0.4233,0.83062 -0.82648,1.5102 -0.89595,1.5102 -0.0695,0 -0.22052,0.17855 -0.33564,0.39677 -0.38384,0.72765 -2.2048,1.7257 -3.1486,1.7257 -0.20221,0 -0.45545,-0.1058 -0.56276,-0.2351 -0.10732,-0.12929 -0.34822,-0.25787 -0.53535,-0.28572 -0.21933,-0.0326 -0.50998,-0.3655 -0.81789,-0.93673 -0.51419,-0.9539 -0.51698,-1.0257 -0.14358,-3.6853 0.0883,-0.62857 0.24002,-1.839 0.33724,-2.6897 0.0972,-0.85079 0.2815,-2.0998 0.40952,-2.7755 0.128,-0.67576 0.27806,-1.9633 0.33347,-2.8613 0.0683,-1.1071 0.20284,-1.8463 0.41786,-2.2964 0.34709,-0.72652 -0.10849,-1.248 0.14178,-1.7927 0.18028,-0.39236 0.49617,-1.0301 0.91332,-0.91862 z"
         id="baby" />
    </g>
  </g>
</svg>
