<svg xmlns="http://www.w3.org/2000/svg" height="21.84" width="41.563"><path d="M13.464 6.64c-.437-.244-.335-.776.295-1.546.642-.783 1.056-1.656 1.055-2.222 0-.205-.182-.667-.403-1.026-.637-1.034-.505-1.55.397-1.55.17 0 .542.36.885.858.492.715.591 1 .591 1.701 0 .73-.1.993-.747 1.958-1.177 1.758-1.574 2.107-2.073 1.828zm2.703 11.099C15.18 17.517 14 16.135 14 15.199c0-.735.264-1.635.592-2.016.121-.141.308-.508.415-.815.107-.307.365-.743.573-.967.208-.225.379-.546.379-.714 0-.262-.086-.29-.612-.2-1.476.252-2.99.401-4.171.41-1.126.01-1.319.057-1.674.411-.22.22-.401.57-.402.776-.003.671-.792 2.093-1.629 2.934-.45.453-.818.882-.818.954 0 .294-1.507.835-2.575.925-1.994.167-3.274-.504-3.881-2.034-.257-.648-.259-.818-.02-2.368.495-3.218.598-3.74.79-3.982.084-.104.22-.84.303-1.633.084-.793.22-1.676.304-1.962.083-.286.205-1.335.27-2.332.092-1.424.184-1.897.434-2.214.438-.558.592-.51.937.29.242.562.274.881.17 1.674-.072.539-.215 1.678-.32 2.53-.173 1.42-.867 4.577-1.082 4.925-.12.195-.552 3.494-.553 4.234-.002.667.266.97 1.202 1.356 1.37.566 2.235.288 3.81-1.226.915-.878.97-.977 1.344-2.449.643-2.52.551-2.436 2.393-2.224 1.416.163 4.187-.07 6.188-.518a15.466 15.466 0 013.006-.336c1.347-.006 1.622.044 2.226.398.765.448.938.737.791 1.323-.126.501-.709.525-1.735.07-.687-.303-.786-.308-1.566-.076-.796.236-2.097 1.167-2.41 1.726-1.258 2.235-1.454 2.99-.96 3.695.369.526 1.304.714 2.959.595 1.385-.1 2.342-.384 2.802-.833.575-.56 1.56-.472 1.631.146.04.348-.073.52-.568.856-.34.231-.688.42-.772.42-.085 0-.27.1-.412.22-.735.627-3.555.937-5.19.57zm6.43 3.998c-.285-.285-.003-.716 1.155-1.768.69-.629 1.847-1.701 2.568-2.384 1.824-1.725 2.932-2.715 4.168-3.723.584-.475 1.407-1.307 1.83-1.847.942-1.207 2.46-2.85 5.395-5.836 1.235-1.257 2.245-2.36 2.245-2.452 0-.092.078-.166.175-.166.096 0 .289-.115.428-.254.39-.39.938-.236.998.281.042.36-.216.709-1.47 1.992-3.089 3.164-5.278 5.516-5.422 5.826-.08.175-.246.318-.367.318-.12 0-.22.075-.22.168 0 .316-3.333 3.479-5.365 5.09-.571.454-1.262 1.141-1.534 1.528-.273.387-.834.944-1.247 1.238-.414.294-.971.751-1.239 1.016-.874.863-1.785 1.286-2.098.973z" stroke-width=".163"/></svg>