<svg xmlns="http://www.w3.org/2000/svg" height="18.495" width="21.658"><path d="M16.661 18.424c-1.451-.178-2.39-.836-3.16-2.215-.308-.55-.56-1.16-.56-1.356 0-.389.56-2.214.82-2.671.088-.156.16-.458.16-.672v-.388l-4.813.039-.747 1.482c-1.331 2.642-2.654 4.122-4.055 4.537-1.202.356-1.923.211-2.836-.569-1.438-1.229-1.8-2.827-1.18-5.216.15-.579.336-1.383.412-1.787.076-.404.254-1.139.395-1.632.14-.494.326-2.054.411-3.466C1.695 1.443 2 .187 2.593.038c.223-.056.456-.05.52.015.364.37-.386 8.08-.914 9.392-.48 1.195-.686 2.28-.686 3.628v1.468l.775.716c1.103 1.016 1.698 1.002 2.766-.068 1.055-1.056 1.36-1.464 1.873-2.499.407-.821.493-1.125.737-2.592.052-.314.177-.626.278-.691.303-.199 1.167-.141 1.79.12.778.324 3.088.316 5.495-.022 2.836-.397 3.72-.441 4.27-.213.54.224.857.831.697 1.337-.108.338-.13.339-1.831.02-.782-.146-1.868.33-2.737 1.198-.408.408-.785.955-.836 1.214-.052.26-.159.512-.237.56-.078.048-.142.38-.142.738 0 .763.809 1.995 1.47 2.238 1.706.63 3.104.667 4.147.113 1.153-.613 1.762-.489 1.606.328-.195 1.022-2.562 1.681-4.973 1.386z"/></svg>