<?xml version="1.0" encoding="UTF-8" standalone="no"?>
<svg
   xmlns:dc="http://purl.org/dc/elements/1.1/"
   xmlns:cc="http://creativecommons.org/ns#"
   xmlns:rdf="http://www.w3.org/1999/02/22-rdf-syntax-ns#"
   xmlns:svg="http://www.w3.org/2000/svg"
   xmlns="http://www.w3.org/2000/svg"
   id="svg2094"
   viewBox="0 0 41.563319 21.839958"
   version="1.1"
   height="21.839958"
   width="41.56332">
  <defs
     id="defs2098" />
  <metadata
     id="metadata2">
    <rdf:RDF>
      <cc:Work
         rdf:about="">
        <dc:format>image/svg+xml</dc:format>
        <dc:type
           rdf:resource="http://purl.org/dc/dcmitype/StillImage" />
        <dc:title />
      </cc:Work>
    </rdf:RDF>
  </metadata>
  <g
     transform="translate(-403.95621,-267.29947)"
     id="g2092">
    <g
       style="stroke-width:0.16327"
       id="g2081">
      <path
         d="m 417.42,273.94 c -0.43695,-0.24452 -0.33523,-0.7768 0.29556,-1.5466 0.64137,-0.78271 1.056,-1.6563 1.0548,-2.2221 0,-0.20492 -0.18185,-0.66647 -0.40307,-1.0256 -0.63724,-1.0346 -0.50495,-1.551 0.39737,-1.551 0.17007,0 0.54173,0.36072 0.8846,0.85856 0.49236,0.71487 0.59132,0.99961 0.59132,1.7015 0,0.72985 -0.10025,0.99256 -0.74702,1.9578 -1.1778,1.7576 -1.5742,2.107 -2.0735,1.8276 z m 2.7034,11.098 c -0.98769,-0.22139 -2.1686,-1.6038 -2.1686,-2.5386 0,-0.7355 0.26446,-1.6359 0.59251,-2.0174 0.12086,-0.14052 0.30743,-0.50707 0.41461,-0.81453 0.10719,-0.30748 0.36526,-0.74276 0.57347,-0.96733 0.20823,-0.22455 0.3786,-0.54565 0.3786,-0.71353 0,-0.2625 -0.0858,-0.29058 -0.61225,-0.20056 -1.4751,0.25223 -2.9894,0.40137 -4.1707,0.41074 -1.1263,0.009 -1.3188,0.0562 -1.6735,0.41083 -0.22041,0.22041 -0.40145,0.56939 -0.40234,0.77551 -0.003,0.67151 -0.79185,2.093 -1.6286,2.9342 -0.4503,0.45267 -0.81873,0.88198 -0.81873,0.95401 0,0.29399 -1.5067,0.83527 -2.5742,0.92477 -1.9947,0.16722 -3.2744,-0.50343 -3.8816,-2.0341 -0.25696,-0.64785 -0.2584,-0.81791 -0.0201,-2.3674 0.49489,-3.2179 0.59868,-3.7407 0.79059,-3.982 0.0832,-0.10462 0.21951,-0.83932 0.30299,-1.6327 0.0835,-0.79335 0.2201,-1.6764 0.30361,-1.9624 0.0835,-0.28598 0.20467,-1.3352 0.26926,-2.3316 0.0923,-1.4244 0.18519,-1.8978 0.43446,-2.2147 0.43845,-0.5574 0.5923,-0.50966 0.93719,0.29083 0.2419,0.56142 0.27426,0.88088 0.16954,1.6735 -0.0712,0.53877 -0.21466,1.6776 -0.31884,2.5306 -0.17342,1.4199 -0.86709,4.5761 -1.0822,4.9242 -0.12065,0.19523 -0.55212,3.4939 -0.55383,4.2341 -0.002,0.66742 0.26607,0.96925 1.2022,1.356 1.371,0.56637 2.2349,0.2885 3.8111,-1.2256 0.91411,-0.87817 0.96874,-0.97776 1.3435,-2.449 0.64218,-2.5211 0.55077,-2.4362 2.393,-2.2243 1.4154,0.16279 4.1868,-0.0692 6.1876,-0.51796 0.8838,-0.19822 2.0818,-0.33212 3.0061,-0.33597 1.3469,-0.006 1.6218,0.0435 2.2258,0.39744 0.76534,0.44852 0.93815,0.73761 0.79113,1.3234 -0.12578,0.50115 -0.70854,0.52494 -1.7351,0.0709 -0.68715,-0.30397 -0.78552,-0.3088 -1.566,-0.077 -0.79576,0.23632 -2.0964,1.1676 -2.4105,1.726 -1.2573,2.2353 -1.453,2.9896 -0.95855,3.6955 0.36814,0.52558 1.3036,0.71352 2.9582,0.59435 1.3851,-0.0997 2.3422,-0.38413 2.8024,-0.83262 0.57493,-0.56033 1.5592,-0.47234 1.6309,0.1458 0.0404,0.34803 -0.0734,0.51933 -0.56852,0.85574 -0.34042,0.23133 -0.68797,0.4206 -0.77229,0.4206 -0.0843,0 -0.26933,0.0989 -0.41109,0.21987 -0.73543,0.62736 -3.555,0.93718 -5.1912,0.57042 z m 6.4301,3.9988 c -0.28485,-0.28485 -0.003,-0.71613 1.1543,-1.7687 0.69133,-0.62857 1.8471,-1.7011 2.5683,-2.3833 1.8243,-1.7256 2.9325,-2.7154 4.1685,-3.7229 0.58367,-0.4758 1.4066,-1.3072 1.8288,-1.8477 0.9424,-1.2063 2.4609,-2.8488 5.3957,-5.8362 1.2347,-1.2569 2.2449,-2.3601 2.2449,-2.4516 0,-0.0915 0.0787,-0.16642 0.17492,-0.16642 0.0962,0 0.28904,-0.1141 0.42852,-0.25358 0.39016,-0.39015 0.93819,-0.23572 0.99796,0.28123 0.0416,0.35941 -0.21601,0.70862 -1.4694,1.9921 -3.0894,3.1637 -5.2789,5.516 -5.4223,5.8254 -0.0811,0.17497 -0.24638,0.31812 -0.36734,0.31812 -0.12098,0 -0.21995,0.0757 -0.21995,0.16813 0,0.31584 -3.3336,3.479 -5.3652,5.0909 -0.57128,0.45327 -1.2617,1.1406 -1.5344,1.5273 -0.2726,0.38675 -0.83376,0.94383 -1.247,1.238 -0.41324,0.29413 -0.97058,0.75112 -1.2385,1.0156 -0.87453,0.86308 -1.7856,1.286 -2.0979,0.97376 z"
         id="backward" />
    </g>
  </g>
</svg>
