<?xml version="1.0" encoding="UTF-8" standalone="no"?>
<svg
   xmlns:dc="http://purl.org/dc/elements/1.1/"
   xmlns:cc="http://creativecommons.org/ns#"
   xmlns:rdf="http://www.w3.org/1999/02/22-rdf-syntax-ns#"
   xmlns:svg="http://www.w3.org/2000/svg"
   xmlns="http://www.w3.org/2000/svg"
   id="svg2094"
   viewBox="0 0 21.658292 18.494707"
   version="1.1"
   height="18.494707"
   width="21.658293">
  <defs
     id="defs2098" />
  <metadata
     id="metadata2">
    <rdf:RDF>
      <cc:Work
         rdf:about="">
        <dc:format>image/svg+xml</dc:format>
        <dc:type
           rdf:resource="http://purl.org/dc/dcmitype/StillImage" />
        <dc:title />
      </cc:Work>
    </rdf:RDF>
  </metadata>
  <g
     transform="translate(-403.70895,-243.6162)"
     id="g2092">
    <g
       style="stroke-width:0.16327"
       id="g2081">
      <path
         d="m 420.37,262.04 c -1.4511,-0.17791 -2.3893,-0.83534 -3.1608,-2.2148 -0.30741,-0.54968 -0.55892,-1.16 -0.55892,-1.3562 0,-0.38838 0.55967,-2.214 0.81879,-2.6708 0.0884,-0.15593 0.1608,-0.45811 0.1608,-0.67151 v -0.388 l -4.8125,0.0384 -0.747,1.4823 c -1.3314,2.642 -2.6543,4.122 -4.0558,4.5372 -1.2013,0.35595 -1.923,0.21108 -2.8358,-0.56914 -1.4381,-1.2292 -1.7991,-2.827 -1.1785,-5.2162 0.1503,-0.57868 0.33554,-1.3828 0.41165,-1.7868 0.0761,-0.40408 0.2537,-1.1388 0.39463,-1.6326 0.14095,-0.49388 0.32624,-2.0535 0.41177,-3.4658 0.18575,-3.0672 0.49009,-4.3229 1.0838,-4.472 0.22234,-0.0558 0.45594,-0.0491 0.5191,0.0148 0.36469,0.36959 -0.38478,8.0805 -0.91291,9.3922 -0.48122,1.1953 -0.68653,2.2803 -0.68653,3.6283 v 1.4683 l 0.77551,0.71525 c 1.1022,1.0166 1.6979,1.002 2.7659,-0.0676 1.055,-1.0566 1.3606,-1.4645 1.8729,-2.499 0.40669,-0.82123 0.49311,-1.1252 0.73693,-2.5922 0.0522,-0.31429 0.17732,-0.62541 0.27798,-0.69138 0.30266,-0.19839 1.1672,-0.14048 1.7905,0.11995 0.77786,0.32501 3.0871,0.31616 5.4946,-0.021 2.8362,-0.39729 3.7196,-0.44143 4.27,-0.21343 0.54048,0.22388 0.85698,0.83111 0.69659,1.3365 -0.10749,0.33873 -0.12981,0.33899 -1.8307,0.0207 -0.78177,-0.14627 -1.8684,0.32934 -2.7371,1.1981 -0.40812,0.40812 -0.78451,0.95442 -0.83641,1.214 -0.0519,0.25959 -0.15839,0.51152 -0.23659,0.55985 -0.0782,0.0483 -0.14217,0.3805 -0.14217,0.73817 0,0.76271 0.80877,1.9946 1.4694,2.238 1.7068,0.62905 3.1051,0.66707 4.1476,0.1128 1.1533,-0.61319 1.7625,-0.4889 1.6064,0.32772 -0.19536,1.022 -2.5618,1.6815 -4.9731,1.3858 z"
         id="back" />
    </g>
  </g>
</svg>
