<svg xmlns="http://www.w3.org/2000/svg" height="18.411" width="24.354"><path d="M12.492 6.194c-.133-.249-.055-.474.392-1.124a3.98 3.98 0 00.488-3.61c-.286-.794-.286-.831.005-1.153.425-.47.658-.416 1.18.269.42.552.457.714.454 2.02-.003 1.246-.061 1.526-.473 2.297-.257.483-.618 1.043-.8 1.246-.406.449-1.021.476-1.246.055zm5.012 10.231c.301-.292.693-.942.886-1.47.19-.522.406-.987.48-1.032.218-.135.798-1.548.798-1.943 0-.459-.422-.835-1.098-.978-1.618-.344-4.617 2.168-4.617 3.867 0 .48 1.223 2.046 1.67 2.139.691.143 1.34-.058 1.881-.583zm-3.087 1.75c-.596-.324-1.93-2.553-1.932-3.228-.002-.41 1.103-2.727 1.3-2.727.175 0 .658-.847.658-1.156 0-.198-.701-.171-3.987.149-1.67.163-1.847.294-2.31 1.704-.153.47-.416 1.049-.583 1.287-.167.239-.303.57-.303.737 0 .541-1.856 2.419-2.787 2.82-.987.424-1.417.362-2.288-.327-.333-.264-.688-.48-.79-.48-.101 0-.249-.169-.328-.376-.078-.207-.322-.593-.541-.857-.22-.264-.44-.648-.492-.853-.142-.566.185-3.648.556-5.237.18-.776.388-2.152.46-3.058.071-.906.175-1.789.23-1.961.054-.172.131-.9.171-1.618.087-1.573.157-1.778.687-2.02.354-.16.452-.138.692.158.233.288.26.534.16 1.512-.31 3.05-.64 5.384-.961 6.8-.604 2.671-.692 3.363-.57 4.5.107 1.003.177 1.16.805 1.796.442.449.89.735 1.25.8.519.093.636.028 1.521-.845 1.145-1.127 2.075-2.933 2.19-4.253.06-.692.165-.936.536-1.247.436-.368.617-.393 3.449-.49 7.263-.246 7.512-.245 8.281.016l.739.25.413-.495c.227-.274.496-.741.598-1.04.102-.298.48-1.387.839-2.42.418-1.2.692-2.32.758-3.102.11-1.28.317-1.658 1.028-1.87.288-.086.382-.03.456.269.129.513-.151 2.967-.452 3.968-.135.45-.474 1.625-.754 2.612-.28.988-.726 2.494-.993 3.347-.267.853-.533 2.15-.592 2.88l-.107 1.33.673.73c.37.401.673.846.673.988 0 .265-.59.766-.9.766-.31 0-1.393-1.138-1.787-1.88-.352-.662-.39-.69-.479-.339-.12.483-1.829 2.243-2.434 2.509-.616.27-2.218.242-2.753-.049z" stroke-width=".163"/></svg>