<?xml version="1.0" encoding="UTF-8" standalone="no"?>
<svg
   xmlns:dc="http://purl.org/dc/elements/1.1/"
   xmlns:cc="http://creativecommons.org/ns#"
   xmlns:rdf="http://www.w3.org/1999/02/22-rdf-syntax-ns#"
   xmlns:svg="http://www.w3.org/2000/svg"
   xmlns="http://www.w3.org/2000/svg"
   id="svg2094"
   viewBox="0 0 24.35431 18.410791"
   version="1.1"
   height="18.410791"
   width="24.354311">
  <defs
     id="defs2098" />
  <metadata
     id="metadata2">
    <rdf:RDF>
      <cc:Work
         rdf:about="">
        <dc:format>image/svg+xml</dc:format>
        <dc:type
           rdf:resource="http://purl.org/dc/dcmitype/StillImage" />
        <dc:title />
      </cc:Work>
    </rdf:RDF>
  </metadata>
  <g
     transform="translate(-404.16804,-289.98569)"
     id="g2092">
    <g
       style="stroke-width:0.16327"
       id="g2081">
      <path
         d="m 416.66,296.18 c -0.13342,-0.2493 -0.0551,-0.47383 0.39218,-1.124 0.73866,-1.0738 0.91906,-2.4099 0.48743,-3.6102 -0.28555,-0.79413 -0.28539,-0.83153 0.005,-1.1528 0.42519,-0.46983 0.6586,-0.4167 1.1803,0.26864 0.42066,0.55252 0.45701,0.7144 0.45373,2.02 -0.003,1.2462 -0.0607,1.5265 -0.47221,2.2973 -0.25775,0.48286 -0.61793,1.0432 -0.80039,1.2453 -0.40562,0.4491 -1.0212,0.47667 -1.2464,0.0558 z m 5.0124,10.231 c 0.30111,-0.29185 0.69239,-0.94207 0.88532,-1.4712 0.19015,-0.52151 0.40645,-0.98573 0.48065,-1.0316 0.21719,-0.13423 0.79727,-1.5478 0.79727,-1.9428 0,-0.45847 -0.42204,-0.83444 -1.0979,-0.97805 -1.6176,-0.3437 -4.6164,2.1684 -4.6164,3.8672 0,0.48014 1.2227,2.0464 1.6698,2.139 0.69118,0.14318 1.3396,-0.0576 1.8812,-0.58255 z m -3.0871,1.7499 c -0.59624,-0.32386 -1.931,-2.5534 -1.9326,-3.2281 -0.002,-0.4095 1.1035,-2.7272 1.2996,-2.7272 0.17586,0 0.65892,-0.84728 0.65892,-1.1557 0,-0.19787 -0.7012,-0.17171 -3.987,0.14873 -1.6694,0.16281 -1.8475,0.29419 -2.3096,1.7041 -0.15397,0.46966 -0.41653,1.049 -0.58349,1.2873 -0.16696,0.2383 -0.30356,0.56998 -0.30356,0.73696 0,0.54093 -1.856,2.4186 -2.7864,2.8188 -0.98728,0.42471 -1.4175,0.36331 -2.2886,-0.32658 -0.33256,-0.26338 -0.68773,-0.47888 -0.78928,-0.47888 -0.10153,0 -0.24904,-0.16945 -0.32778,-0.37655 -0.0787,-0.2071 -0.3224,-0.59282 -0.54147,-0.85715 -0.21907,-0.26432 -0.44048,-0.64832 -0.49199,-0.85335 -0.14227,-0.56609 0.18477,-3.648 0.55566,-5.2367 0.18119,-0.77603 0.38815,-2.1522 0.45992,-3.0582 0.0718,-0.906 0.17525,-1.7883 0.22997,-1.9607 0.0547,-0.17239 0.13189,-0.9005 0.17151,-1.618 0.0868,-1.573 0.15651,-1.7776 0.68735,-2.0195 0.35367,-0.16115 0.45146,-0.13893 0.6911,0.15704 0.23373,0.28862 0.25981,0.53483 0.16023,1.5125 -0.31068,3.0507 -0.64039,5.3843 -0.96082,6.8004 -0.60429,2.6707 -0.69201,3.363 -0.57023,4.5002 0.10731,1.002 0.17755,1.1586 0.80571,1.7958 0.44186,0.4482 0.88919,0.73416 1.2498,0.79896 0.51845,0.0932 0.6354,0.0283 1.521,-0.84392 1.1451,-1.1278 2.0751,-2.9339 2.1902,-4.2537 0.0603,-0.69164 0.16505,-0.93559 0.53542,-1.2472 0.43631,-0.36712 0.61703,-0.39274 3.4489,-0.48882 7.2633,-0.24645 7.5118,-0.24599 8.2817,0.0154 l 0.73855,0.25074 0.4127,-0.49639 c 0.22699,-0.27302 0.49606,-0.74066 0.59796,-1.0392 0.10189,-0.29855 0.47959,-1.3877 0.83934,-2.4204 0.41801,-1.1999 0.69171,-2.3195 0.75832,-3.102 0.10898,-1.2803 0.31633,-1.6575 1.028,-1.8698 0.28764,-0.0858 0.38124,-0.0307 0.45608,0.26866 0.12829,0.51301 -0.15167,2.9668 -0.45277,3.9684 -0.13497,0.44898 -0.474,1.6245 -0.75338,2.6122 -0.2794,0.98775 -0.7264,2.4939 -0.99338,3.3469 -0.26695,0.85306 -0.5333,2.1492 -0.59188,2.8804 l -0.1065,1.3294 0.67262,0.7297 c 0.36993,0.40132 0.67261,0.84587 0.67261,0.98788 0,0.26519 -0.5888,0.76652 -0.90028,0.76652 -0.31026,0 -1.3923,-1.1385 -1.7863,-1.8794 -0.35221,-0.66244 -0.39089,-0.68983 -0.47886,-0.33933 -0.12121,0.48292 -1.8291,2.2428 -2.4341,2.5082 -0.61641,0.27043 -2.2177,0.24222 -2.7529,-0.0485 z"
         id="bad" />
    </g>
  </g>
</svg>
