<?xml version="1.0" encoding="UTF-8" standalone="no"?>
<svg
   xmlns:dc="http://purl.org/dc/elements/1.1/"
   xmlns:cc="http://creativecommons.org/ns#"
   xmlns:rdf="http://www.w3.org/1999/02/22-rdf-syntax-ns#"
   xmlns:svg="http://www.w3.org/2000/svg"
   xmlns="http://www.w3.org/2000/svg"
   id="svg2094"
   viewBox="0 0 35.547831 17.911436"
   version="1.1"
   height="17.911436"
   width="35.547832">
  <defs
     id="defs2098" />
  <metadata
     id="metadata2">
    <rdf:RDF>
      <cc:Work
         rdf:about="">
        <dc:format>image/svg+xml</dc:format>
        <dc:type
           rdf:resource="http://purl.org/dc/dcmitype/StillImage" />
        <dc:title />
      </cc:Work>
    </rdf:RDF>
  </metadata>
  <g
     transform="translate(-402.14757,-314.13488)"
     id="g2092">
    <g
       style="stroke-width:0.16327"
       id="g2081">
      <path
         d="m 414.47,320.39 c -0.20232,-0.5272 -0.0813,-0.9034 0.63324,-1.9688 0.93615,-1.3959 1.0317,-1.8967 0.56774,-2.9752 -0.29267,-0.68034 -0.3223,-0.88446 -0.15731,-1.0833 0.26725,-0.32201 0.65352,-0.30204 1.0819,0.0559 0.94749,0.79177 1.1907,2.5669 0.46922,3.4244 -0.22449,0.2668 -0.40816,0.55822 -0.40816,0.64763 0,0.0894 -0.33046,0.61146 -0.73435,1.1601 -0.73718,1.0014 -1.2513,1.2631 -1.4523,0.7393 z m 15.772,7.4537 c -1.5305,-0.0713 -2.0428,-0.15154 -2.1608,-0.33838 -0.22609,-0.35819 -0.2025,-0.42412 0.26013,-0.72724 0.35826,-0.23474 0.89006,-0.27431 3.6327,-0.27031 1.7671,0.003 3.764,-0.0108 4.4374,-0.0295 1.2168,-0.034 1.2248,-0.0314 1.2751,0.4038 0.0673,0.58224 -0.21461,0.71303 -2.0098,0.93248 -1.5155,0.18527 -2.0252,0.188 -5.4348,0.0291 z m -10.5,1.6886 c 0.54768,-0.41169 0.99577,-0.80903 0.99577,-0.88299 0,-0.074 0.31654,-0.52691 0.70343,-1.0066 0.81682,-1.0127 1.5823,-2.3408 1.5823,-2.7454 0,-0.51079 -1.1496,-0.88168 -2.3513,-0.75856 -1.3956,0.14298 -2.0063,0.41916 -3.0575,1.3828 -1.2822,1.1755 -1.6134,2.4962 -0.9512,3.7942 0.62143,1.2181 1.6499,1.2904 3.0785,0.21656 z m -15.402,2.323 c -0.60443,-0.2352 -1.5002,-1.1456 -1.9042,-1.9353 -0.44733,-0.87439 -0.38612,-1.8695 0.26903,-4.3738 0.86155,-3.2933 0.91747,-3.6073 1.381,-7.7535 0.21835,-1.9532 0.41265,-2.432 1.0152,-2.5017 0.61484,-0.0711 0.67256,0.28882 0.45463,2.8346 -0.22918,2.677 -0.3977,3.8436 -0.71824,4.9716 -1.0613,3.7351 -1.3418,5.7343 -0.9161,6.5296 0.23809,0.44489 1.5254,1.0438 1.9856,0.92378 0.73846,-0.19258 1.4143,-0.74197 1.9729,-1.6038 0.7952,-1.2269 1.9197,-3.5508 1.9197,-3.9675 0,-0.73375 0.36648,-0.94728 2.1415,-1.2478 0.93236,-0.15783 2.6136,-0.36833 3.736,-0.46778 1.1224,-0.0994 2.5918,-0.25626 3.2653,-0.34847 1.1181,-0.15309 3.2688,-0.20243 4.4898,-0.10297 0.45095,0.0367 0.50648,-0.0183 0.70096,-0.69481 0.11617,-0.40408 0.42843,-1.2907 0.69391,-1.9704 0.26549,-0.67962 0.48271,-1.435 0.48271,-1.6787 0,-0.24367 0.10191,-0.68693 0.22647,-0.98504 0.12455,-0.29809 0.27632,-0.83716 0.33727,-1.1979 0.082,-0.48543 0.21889,-0.70517 0.52652,-0.84534 0.57325,-0.2612 0.86893,0.0177 0.86893,0.81976 0,1.5623 -0.93071,5.6222 -1.3954,6.0868 -0.11936,0.11938 -0.33714,0.68602 -0.48395,1.2592 -0.14681,0.57318 -0.40851,1.2852 -0.58155,1.5821 -0.17303,0.29697 -0.31517,0.73778 -0.31586,0.9796 0,0.24179 -0.14706,0.91719 -0.32528,1.5009 -0.41561,1.3611 -0.41295,2.189 0.009,2.8721 0.41189,0.66644 0.21706,1.2095 -0.43389,1.2095 -0.71458,0 -1.0176,-0.29214 -1.3142,-1.2668 -0.15681,-0.51547 -0.3055,-0.96605 -0.33041,-1.0013 -0.0249,-0.0352 -0.4585,0.29538 -0.96353,0.7347 -1.3761,1.197 -2.0758,1.5334 -3.1893,1.5334 -0.52042,0 -1.115,-0.0769 -1.3214,-0.17092 -0.20632,-0.094 -0.68733,-0.6989 -1.0689,-1.3442 -0.53574,-0.90602 -0.69378,-1.3384 -0.69378,-1.8979 0,-0.67004 0.65807,-2.6701 0.99621,-3.0278 0.0807,-0.0853 0.14665,-0.2952 0.14665,-0.46645 0,-0.22395 -0.0767,-0.28193 -0.27308,-0.20655 -0.15019,0.0576 -1.0502,0.18275 -2,0.27801 -1.5521,0.15569 -2.6249,0.48684 -2.6249,0.81025 0,0.17341 -0.47324,1.1666 -0.8096,1.699 -0.17016,0.26939 -0.31476,0.6298 -0.32132,0.80092 -0.0136,0.35357 -0.71626,1.338 -1.2723,1.7824 -0.20479,0.16365 -0.37233,0.39371 -0.37233,0.51123 0,0.3297 -0.96901,0.9824 -1.9082,1.2853 -0.9583,0.30911 -1.3927,0.3199 -2.0818,0.0518 z"
         id="badly" />
    </g>
  </g>
</svg>
