<svg xmlns="http://www.w3.org/2000/svg" height="17.911" width="35.548"><path d="M12.322 6.255c-.202-.527-.08-.903.634-1.969.936-1.396 1.031-1.896.567-2.975-.292-.68-.322-.884-.157-1.083.267-.322.654-.302 1.082.056.947.791 1.19 2.567.47 3.424-.225.267-.409.558-.409.648 0 .09-.33.611-.734 1.16-.737 1.001-1.252 1.263-1.453.74zm15.772 7.454c-1.53-.071-2.042-.152-2.16-.339-.226-.358-.203-.424.26-.727.358-.235.89-.274 3.632-.27 1.768.003 3.764-.01 4.438-.03 1.217-.034 1.225-.031 1.275.404.067.582-.215.713-2.01.933-1.515.185-2.025.188-5.435.029zm-10.5 1.688c.548-.411.996-.809.996-.883 0-.074.317-.526.704-1.006.816-1.013 1.582-2.341 1.582-2.746 0-.51-1.15-.881-2.351-.758-1.396.143-2.007.419-3.058 1.383-1.282 1.175-1.613 2.496-.951 3.794.621 1.218 1.65 1.29 3.078.216zM2.192 17.72c-.604-.235-1.5-1.145-1.904-1.935-.447-.874-.386-1.87.27-4.374.86-3.293.917-3.607 1.38-7.753.219-1.953.413-2.432 1.015-2.502.615-.071.673.289.455 2.835-.23 2.677-.398 3.843-.718 4.971-1.061 3.735-1.342 5.735-.916 6.53.238.445 1.525 1.044 1.985.924.739-.193 1.415-.742 1.973-1.604.795-1.227 1.92-3.55 1.92-3.968 0-.733.366-.947 2.141-1.247a57.894 57.894 0 013.736-.468c1.123-.1 2.592-.256 3.266-.349 1.118-.153 3.269-.202 4.49-.103.45.037.506-.018.7-.694.117-.405.429-1.291.694-1.97.266-.68.483-1.436.483-1.68 0-.243.102-.686.227-.985.124-.298.276-.837.337-1.197.082-.486.219-.706.526-.846.574-.261.87.018.87.82 0 1.562-.931 5.622-1.396 6.087-.12.12-.337.686-.484 1.259-.147.573-.409 1.285-.582 1.582-.173.297-.315.738-.315.98 0 .241-.147.917-.326 1.5-.415 1.362-.413 2.19.01 2.873.411.666.216 1.21-.435 1.21-.714 0-1.017-.293-1.314-1.268-.157-.515-.305-.966-.33-1.001-.025-.035-.459.295-.964.735-1.376 1.197-2.076 1.533-3.189 1.533-.52 0-1.115-.077-1.321-.17-.207-.095-.688-.7-1.07-1.345-.535-.906-.693-1.338-.693-1.898 0-.67.658-2.67.996-3.028.08-.085.147-.295.147-.466 0-.224-.077-.282-.273-.207-.15.058-1.05.183-2 .278-1.552.156-2.625.487-2.625.81 0 .174-.473 1.167-.81 1.7-.17.269-.315.63-.321.8-.014.354-.716 1.339-1.272 1.783-.205.164-.373.394-.373.511 0 .33-.969.983-1.908 1.285-.958.31-1.393.32-2.082.052z" stroke-width=".163"/></svg>