<svg xmlns="http://www.w3.org/2000/svg" height="30.344" width="21.252"><path d="M11.58 6.573c-.215-.215-.103-.91.22-1.365.767-1.076 1.035-2.772.569-3.587-.319-.558-.313-1.454.01-1.578.49-.188 1.03.246 1.474 1.186.402.85.425 1 .266 1.762-.326 1.572-.86 2.852-1.368 3.28-.476.4-.95.523-1.171.302zm4.83 10.78c.157-.044.285-.153.285-.242s.367-.535.816-.991c.45-.456.817-.913.817-1.014 0-.102.294-.77.653-1.485.902-1.795.854-2.165-.358-2.792-.456-.236-.565-.227-1.576.124-.904.314-1.287.576-2.275 1.555-1.268 1.256-1.669 1.96-1.669 2.933 0 .82.576 1.976 1.03 2.07.376.078 1.789-.02 2.276-.158zm.072 12.711c-.242-.266-.243-.39-.014-1.429.138-.625.46-1.797.714-2.606.255-.808.541-1.947.636-2.53.571-3.528.783-6.041.51-6.041-.103 0-.53.28-.95.623-1.003.818-1.492 1.01-2.578 1.01-1.182 0-2.348-.716-2.773-1.703-.594-1.381-.593-1.248-.005-3.341.178-.63.429-1.048.885-1.47.35-.323.776-.83.946-1.126.269-.468.277-.557.065-.691-.352-.224-1.235-.184-2.447.109-.584.14-1.415.292-1.847.337-.85.087-.929.185-1.418 1.762-.112.36-.378 1.041-.591 1.515-.214.474-.389.929-.389 1.01 0 .082-.294.489-.653.904-.36.415-.653.807-.653.87 0 .065-.485.363-1.078.664-.947.482-1.18.536-1.916.449-1.159-.138-1.56-.486-2.292-1.988L0 15.092l.197-1.846c.109-1.014.344-2.374.524-3.02.545-1.959 1.08-4.539 1.19-5.748.17-1.839.394-2.518.873-2.638.295-.075.474-.019.63.196.286.39.277.613-.116 2.85-.494 2.809-.588 3.265-.873 4.245-.484 1.664-.913 4.044-.913 5.068 0 1.197.361 1.91 1.246 2.456.508.314.65.334 1.176.168.717-.226 1.986-1.335 1.986-1.735 0-.157.14-.515.31-.795.17-.28.423-.913.562-1.407.139-.494.374-1.321.523-1.84.152-.53.399-1.01.566-1.1.604-.323 8.643-.96 10.023-.794 1.358.164 1.855.427 2.69 1.424.736.88.815 1.29.433 2.266-.132.339-.317 1.204-.412 1.922-.254 1.932-.448 2.962-.62 3.295-.085.163-.204.943-.266 1.733-.107 1.37-.41 3.36-.726 4.768-.355 1.587-1.335 5.18-1.492 5.473-.215.402-.68.416-1.028.03z" stroke-width=".163"/></svg>