<?xml version="1.0" encoding="UTF-8" standalone="no"?>
<svg
   xmlns:dc="http://purl.org/dc/elements/1.1/"
   xmlns:cc="http://creativecommons.org/ns#"
   xmlns:rdf="http://www.w3.org/1999/02/22-rdf-syntax-ns#"
   xmlns:svg="http://www.w3.org/2000/svg"
   xmlns="http://www.w3.org/2000/svg"
   id="svg2094"
   viewBox="0 0 21.252014 30.343592"
   version="1.1"
   height="30.343592"
   width="21.252014">
  <defs
     id="defs2098" />
  <metadata
     id="metadata2">
    <rdf:RDF>
      <cc:Work
         rdf:about="">
        <dc:format>image/svg+xml</dc:format>
        <dc:type
           rdf:resource="http://purl.org/dc/dcmitype/StillImage" />
        <dc:title />
      </cc:Work>
    </rdf:RDF>
  </metadata>
  <g
     transform="translate(-402.41017,-337.47693)"
     id="g2092">
    <g
       style="stroke-width:0.16327"
       id="g2081">
      <path
         d="m 413.99,344.05 c -0.21518,-0.21518 -0.10251,-0.91086 0.22111,-1.3654 0.76567,-1.0753 1.0342,-2.7714 0.568,-3.587 -0.31892,-0.55789 -0.31301,-1.4535 0.0105,-1.5776 0.49006,-0.18806 1.029,0.24555 1.4738,1.1858 0.40179,0.84932 0.42459,1.0001 0.26624,1.7624 -0.32663,1.5722 -0.86066,2.8522 -1.3682,3.2792 -0.47597,0.40051 -0.95081,0.52317 -1.1714,0.30258 z m 4.8296,10.78 c 0.15714,-0.0445 0.28571,-0.15349 0.28571,-0.24227 0,-0.0888 0.36735,-0.53465 0.81633,-0.99076 0.44898,-0.45612 0.81632,-0.91256 0.81632,-1.0143 0,-0.10175 0.29388,-0.77 0.65306,-1.485 0.90169,-1.7949 0.85427,-2.1649 -0.35777,-2.7917 -0.45641,-0.23602 -0.56479,-0.22749 -1.5764,0.12395 -0.90329,0.31381 -1.2865,0.57576 -2.2748,1.555 -1.2679,1.2563 -1.6686,1.9608 -1.6686,2.9334 0,0.81963 0.5753,1.9757 1.0301,2.0699 0.37573,0.0779 1.7884,-0.0205 2.276,-0.1584 z m 0.0722,12.711 c -0.24116,-0.26648 -0.24232,-0.39059 -0.0132,-1.4286 0.13799,-0.62519 0.45931,-1.7979 0.71404,-2.6061 0.25472,-0.80817 0.5405,-1.9469 0.63507,-2.5306 0.57151,-3.5276 0.78367,-6.0408 0.50996,-6.0408 -0.10231,0 -0.5298,0.28041 -0.94999,0.62313 -1.003,0.81804 -1.4918,1.0095 -2.5774,1.0095 -1.1824,0 -2.3479,-0.7159 -2.7727,-1.7031 -0.59409,-1.3807 -0.59388,-1.2477 -0.005,-3.3405 0.1772,-0.63009 0.42861,-1.0478 0.88446,-1.4694 0.35029,-0.32398 0.77594,-0.83094 0.94589,-1.1266 0.26926,-0.46836 0.2777,-0.5573 0.0657,-0.69138 -0.35296,-0.22315 -1.2352,-0.18385 -2.4474,0.109 -0.58367,0.14101 -1.4149,0.29278 -1.8472,0.33726 -0.8505,0.0875 -0.9288,0.1848 -1.4183,1.7622 -0.11146,0.35919 -0.37742,1.041 -0.59102,1.515 -0.2136,0.474 -0.38836,0.92882 -0.38836,1.0105 0,0.0817 -0.29388,0.48805 -0.65306,0.90305 -0.35918,0.41501 -0.65306,0.80693 -0.65306,0.87094 0,0.064 -0.48503,0.36276 -1.0778,0.6639 -0.947,0.48107 -1.1796,0.53548 -1.916,0.44825 -1.1591,-0.13727 -1.5606,-0.48542 -2.2927,-1.9881 l -0.63356,-1.3003 0.19713,-1.8449 c 0.10841,-1.0147 0.34434,-2.3741 0.5243,-3.0208 0.54491,-1.9584 1.0791,-4.5382 1.1901,-5.7474 0.16885,-1.8392 0.3934,-2.5185 0.87223,-2.6387 0.29523,-0.0741 0.47378,-0.0184 0.63118,0.19686 0.28506,0.38985 0.2759,0.61221 -0.11735,2.85 -0.49351,2.8082 -0.58737,3.2648 -0.87258,4.2449 -0.48411,1.6636 -0.91302,4.0442 -0.91302,5.0676 0,1.1971 0.36133,1.9092 1.2464,2.4561 0.50733,0.31355 0.649,0.3338 1.1754,0.16795 0.71676,-0.22578 1.9864,-1.335 1.9864,-1.7354 0,-0.1568 0.13925,-0.51416 0.30944,-0.79416 0.1702,-0.27998 0.42323,-0.91314 0.5623,-1.407 0.13908,-0.49388 0.37441,-1.3217 0.52298,-1.8396 0.15253,-0.5317 0.39899,-1.0106 0.56611,-1.1 0.60428,-0.32339 8.6428,-0.96068 10.023,-0.79458 1.3578,0.16346 1.8549,0.42658 2.6899,1.4239 0.73626,0.87939 0.81467,1.2892 0.43356,2.2662 -0.13205,0.33854 -0.31755,1.2033 -0.41221,1.9217 -0.25461,1.9322 -0.44865,2.9624 -0.62072,3.2953 -0.0843,0.16311 -0.20385,0.94305 -0.26563,1.7332 -0.10713,1.3703 -0.4098,3.3591 -0.72553,4.7674 -0.35574,1.5868 -1.3356,5.1793 -1.4928,5.473 -0.21502,0.40176 -0.6797,0.41579 -1.0279,0.031 z"
         id="bag" />
    </g>
  </g>
</svg>
