<?xml version="1.0" encoding="UTF-8" standalone="no"?>
<svg
   xmlns:dc="http://purl.org/dc/elements/1.1/"
   xmlns:cc="http://creativecommons.org/ns#"
   xmlns:rdf="http://www.w3.org/1999/02/22-rdf-syntax-ns#"
   xmlns:svg="http://www.w3.org/2000/svg"
   xmlns="http://www.w3.org/2000/svg"
   id="svg2094"
   viewBox="0 0 33.510795 19.097095"
   version="1.1"
   height="19.097095"
   width="33.510796">
  <defs
     id="defs2098" />
  <metadata
     id="metadata2">
    <rdf:RDF>
      <cc:Work
         rdf:about="">
        <dc:format>image/svg+xml</dc:format>
        <dc:type
           rdf:resource="http://purl.org/dc/dcmitype/StillImage" />
        <dc:title />
      </cc:Work>
    </rdf:RDF>
  </metadata>
  <g
     transform="translate(-404.02659,-360.64982)"
     id="g2092">
    <g
       style="stroke-width:0.16327"
       id="g2081">
      <path
         d="m 413.51,369.29 c -0.45309,-0.2639 -0.33549,-0.70861 0.32851,-1.2422 0.67881,-0.5455 1.9379,-2.2851 2.0886,-2.8857 0.053,-0.21121 -0.0192,-0.66058 -0.16037,-0.99859 -0.34185,-0.81814 -0.32368,-1.1805 0.0697,-1.391 0.39733,-0.21263 0.80825,-0.0244 1.2935,0.59241 0.43223,0.54949 0.43889,1.5395 0.0166,2.4698 -0.43328,0.95457 -1.7576,2.7812 -2.1804,3.0075 -0.19107,0.10227 -0.44602,0.28454 -0.56653,0.40504 -0.25873,0.25873 -0.49905,0.27029 -0.88967,0.0428 z m 13.685,10.042 c -0.34529,-0.3453 -0.33136,-0.45506 0.2338,-1.842 0.26907,-0.66032 0.48924,-1.3626 0.48924,-1.5606 0,-0.19803 0.10787,-0.50265 0.2397,-0.67697 0.16438,-0.21732 0.23971,-0.72736 0.23971,-1.623 0,-0.89568 -0.0753,-1.4057 -0.23971,-1.623 -0.35619,-0.47094 -0.29131,-0.89107 0.17008,-1.1013 0.35335,-0.161 0.46845,-0.13241 0.836,0.20759 0.23443,0.21685 0.56169,0.70653 0.72728,1.0882 0.16558,0.38164 0.34276,0.69388 0.39373,0.69388 0.25949,0 1.1715,-0.47314 1.3675,-0.7094 0.12325,-0.14861 0.3895,-0.27019 0.59169,-0.27019 0.20218,0 0.69991,-0.18573 1.1061,-0.41273 0.47915,-0.26781 1.1168,-0.44807 1.8158,-0.51334 l 1.0773,-0.10061 0.56023,0.59401 c 0.44653,0.47347 0.58328,0.77852 0.67381,1.5031 0.11193,0.8958 0.0853,1.2744 -0.23229,3.3015 -0.17849,1.1393 -0.61519,2.4451 -0.93512,2.7961 -0.17875,0.19611 -0.2714,0.18837 -0.64051,-0.0535 -0.4032,-0.2642 -0.42405,-0.33718 -0.31757,-1.1114 0.0627,-0.45573 0.21649,-1.074 0.3418,-1.3739 0.34023,-0.81427 0.46059,-3.3061 0.18418,-3.813 -0.19202,-0.35208 -0.32679,-0.40462 -0.98087,-0.38244 -0.41702,0.0142 -1.0375,0.16761 -1.3788,0.34103 -0.34128,0.17341 -0.90381,0.45311 -1.2501,0.62154 -0.73499,0.35753 -1.9894,1.7584 -2.151,2.4021 -0.0616,0.24532 -0.2864,0.61141 -0.49963,0.81353 -0.21322,0.20211 -0.38894,0.46077 -0.3905,0.57481 -0.002,0.11403 -0.18649,0.49829 -0.41098,0.8539 -0.22449,0.3556 -0.40817,0.74685 -0.40817,0.8694 0,0.25853 -0.51361,0.76325 -0.7767,0.76325 -0.0988,0 -0.29502,-0.11545 -0.43613,-0.25656 z m -2.5423,-10.274 c 0.11179,-0.1347 0.28862,-0.2449 0.39295,-0.2449 0.10434,0 0.3134,-0.20939 0.46457,-0.46531 0.15117,-0.25592 0.49175,-0.67836 0.75686,-0.93877 1.5724,-1.5446 2.4204,-5.1265 1.2138,-5.1265 -0.50749,0 -1.3828,0.92465 -1.8546,1.9592 -0.1843,0.40408 -0.50877,1.102 -0.72105,1.551 -0.57409,1.2142 -1.0688,2.6529 -1.0688,3.1082 0,0.46474 0.48376,0.55787 0.81633,0.15715 z m -19.27,10.174 c -0.28605,-0.28604 -0.71263,-0.81102 -0.94796,-1.1666 -0.39317,-0.59413 -0.42581,-0.77368 -0.40244,-2.2146 0.0142,-0.8745 0.13242,-1.893 0.26734,-2.3028 0.36598,-1.1115 0.92495,-3.5149 0.92495,-3.9771 0,-0.22497 0.22924,-1.2773 0.50944,-2.3384 0.28018,-1.0612 0.57508,-2.3335 0.65533,-2.8274 0.19191,-1.1811 0.43703,-1.6327 0.88617,-1.6327 0.72654,0 0.75159,1.1964 0.0752,3.5918 -0.26622,0.94286 -0.48617,2.0227 -0.48878,2.3997 -0.003,0.37699 -0.18253,1.2586 -0.39982,1.9592 -0.58699,1.8924 -1.099,4.8166 -0.97703,5.5797 0.13788,0.8622 0.61848,1.6231 1.1538,1.8266 0.41453,0.1576 1.7209,0.0635 2.1219,-0.15287 0.10413,-0.0562 0.57339,-0.57969 1.0428,-1.1634 0.92426,-1.1493 1.5412,-2.3655 1.7077,-3.3668 0.1454,-0.87417 0.41138,-1.5275 0.63103,-1.5501 0.10136,-0.0104 1.6537,-0.0348 3.4496,-0.0541 1.9398,-0.0209 3.431,-0.10815 3.6735,-0.21493 0.22449,-0.0988 0.83678,-0.3069 1.3606,-0.46233 1.0517,-0.31207 1.3718,-0.65337 1.5306,-1.6325 0.0555,-0.3418 0.19859,-0.80875 0.31805,-1.0377 0.11948,-0.22892 0.21769,-0.50386 0.21823,-0.61096 0,-0.10712 0.14857,-0.44485 0.32891,-0.75051 0.18036,-0.30567 0.44496,-0.95272 0.58802,-1.4379 0.14307,-0.48518 0.50034,-1.2181 0.79395,-1.6288 0.2936,-0.41066 0.63196,-1.0352 0.75189,-1.3878 0.11994,-0.3526 0.33143,-0.7792 0.46998,-0.94798 0.43378,-0.52841 1.4481,-1.0809 1.9845,-1.0809 0.94798,0 1.9372,1.4415 1.94,2.8269 0.002,0.44529 -0.44156,1.7 -0.91191,2.5861 -0.12653,0.23835 -0.23004,0.53829 -0.23004,0.66655 0,0.12826 -0.2887,0.46521 -0.64156,0.74878 -0.35287,0.28358 -0.69174,0.68159 -0.75305,0.88448 -0.14277,0.47247 -1.3708,1.6233 -2.5238,2.3651 -1.5694,1.0097 -1.6596,1.0931 -1.9011,1.7589 -0.45521,1.2547 -1.0338,3.7611 -1.0366,4.4898 -0.002,0.40409 0.11912,1.0747 0.26806,1.4903 0.36273,1.0121 0.23006,1.3194 -0.54147,1.2543 -0.83799,-0.0707 -1.1694,-0.67318 -1.1852,-2.1543 -0.0109,-1.0301 0.0797,-1.5905 0.47853,-2.9577 0.25022,-0.85781 0.33678,-1.6267 0.20532,-1.8236 -0.0951,-0.14257 -0.45819,-0.10804 -1.432,0.13621 -0.9534,0.2391 -1.9199,0.33446 -3.5903,0.35425 -1.2571,0.0149 -2.3719,0.083 -2.4772,0.15138 -0.10532,0.0684 -0.23899,0.34043 -0.297,0.60457 -0.058,0.26415 -0.23753,0.64902 -0.39895,0.85527 -0.1614,0.20627 -0.53383,0.85224 -0.82762,1.4355 -0.54281,1.0776 -2.0165,2.8588 -2.6637,3.2194 -0.1999,0.11138 -0.97649,0.20084 -1.7719,0.20409 -1.3773,0.006 -1.4302,-0.008 -1.9361,-0.51431 z"
         id="balance" />
    </g>
  </g>
</svg>
