<svg xmlns="http://www.w3.org/2000/svg" height="19.097" width="33.511"><path d="M9.483 8.64c-.453-.264-.335-.708.329-1.242.679-.546 1.938-2.285 2.089-2.886.053-.21-.02-.66-.16-.998-.343-.818-.325-1.18.069-1.391.397-.213.808-.025 1.293.592.433.55.44 1.54.017 2.47-.433.954-1.758 2.781-2.18 3.007a2.897 2.897 0 00-.567.405c-.259.26-.499.27-.89.043zm13.685 10.042c-.345-.345-.331-.455.234-1.842.27-.66.49-1.362.49-1.56 0-.198.107-.503.24-.677.164-.218.239-.728.239-1.623 0-.896-.075-1.406-.24-1.623-.356-.471-.291-.891.17-1.102.354-.16.469-.132.836.208.235.217.562.706.728 1.088.165.382.342.694.393.694.26 0 1.172-.473 1.368-.71a.871.871 0 01.591-.27c.203 0 .7-.185 1.107-.412.479-.268 1.116-.448 1.815-.514l1.078-.1.56.594c.446.473.583.778.674 1.503.112.896.085 1.274-.233 3.301-.178 1.14-.615 2.445-.935 2.796-.178.197-.271.189-.64-.053-.403-.264-.424-.337-.318-1.111.063-.456.217-1.074.342-1.374.34-.815.46-3.306.184-3.813-.192-.352-.327-.405-.98-.383-.418.014-1.038.168-1.38.341-.34.174-.903.453-1.25.622-.735.357-1.989 1.758-2.15 2.402-.062.245-.287.611-.5.813-.213.202-.39.461-.39.575-.003.114-.187.498-.412.854-.224.356-.408.747-.408.87 0 .258-.514.763-.777.763-.098 0-.295-.116-.436-.257zM20.626 8.408c.112-.135.289-.245.393-.245.104 0 .313-.21.465-.465.15-.256.491-.678.756-.939 1.573-1.544 2.42-5.126 1.214-5.126-.507 0-1.383.924-1.854 1.959a151.45 151.45 0 01-.721 1.55c-.574 1.215-1.07 2.654-1.07 3.11 0 .464.485.557.817.156zM1.356 18.582a9.065 9.065 0 01-.948-1.166c-.393-.595-.426-.774-.402-2.215.014-.875.132-1.893.267-2.303.366-1.111.925-3.515.925-3.977 0-.225.23-1.277.51-2.338.28-1.062.575-2.334.655-2.828.192-1.18.437-1.632.886-1.632.726 0 .752 1.196.075 3.591-.266.943-.486 2.023-.489 2.4-.003.377-.182 1.259-.4 1.96-.586 1.892-1.098 4.816-.976 5.579.137.862.618 1.623 1.153 1.827.415.157 1.721.063 2.122-.153.104-.056.574-.58 1.043-1.164.924-1.149 1.541-2.365 1.708-3.366.145-.875.411-1.528.63-1.55a190.55 190.55 0 013.45-.055c1.94-.02 3.431-.108 3.674-.215a15.9 15.9 0 011.36-.462c1.052-.312 1.372-.653 1.531-1.632.056-.342.199-.81.318-1.038.12-.23.218-.504.218-.611 0-.107.149-.445.33-.75.18-.306.444-.953.587-1.439.143-.485.5-1.218.794-1.628.294-.411.632-1.036.752-1.388.12-.353.332-.78.47-.948C22.033.552 23.047 0 23.584 0c.948 0 1.937 1.442 1.94 2.827.002.445-.442 1.7-.912 2.586-.127.238-.23.538-.23.667 0 .128-.29.465-.642.748-.353.284-.692.682-.753.885-.143.472-1.37 1.623-2.524 2.365-1.57 1.01-1.66 1.093-1.9 1.759-.456 1.255-1.035 3.76-1.037 4.49-.002.404.119 1.074.268 1.49.362 1.012.23 1.32-.542 1.254-.838-.07-1.17-.673-1.185-2.154-.011-1.03.08-1.59.478-2.958.25-.858.337-1.626.206-1.823-.095-.143-.458-.108-1.432.136-.954.239-1.92.334-3.59.354-1.258.015-2.372.083-2.478.151-.105.069-.239.34-.297.605a2.534 2.534 0 01-.399.855c-.161.207-.534.853-.827 1.436-.543 1.077-2.017 2.859-2.664 3.22-.2.11-.977.2-1.772.203-1.377.006-1.43-.008-1.936-.514z"/></svg>