<?xml version="1.0" encoding="UTF-8" standalone="no"?>
<svg
   xmlns:dc="http://purl.org/dc/elements/1.1/"
   xmlns:cc="http://creativecommons.org/ns#"
   xmlns:rdf="http://www.w3.org/1999/02/22-rdf-syntax-ns#"
   xmlns:svg="http://www.w3.org/2000/svg"
   xmlns="http://www.w3.org/2000/svg"
   id="svg2094"
   viewBox="0 0 20.13598 19.904295"
   version="1.1"
   height="19.904295"
   width="20.135981">
  <defs
     id="defs2098" />
  <metadata
     id="metadata2">
    <rdf:RDF>
      <cc:Work
         rdf:about="">
        <dc:format>image/svg+xml</dc:format>
        <dc:type
           rdf:resource="http://purl.org/dc/dcmitype/StillImage" />
        <dc:title />
      </cc:Work>
    </rdf:RDF>
  </metadata>
  <g
     transform="translate(-403.31681,-383.48587)"
     id="g2092">
    <g
       style="stroke-width:0.16327"
       id="g2081">
      <path
         d="m 412.52,392.05 c -0.28844,-0.28843 -0.0612,-1.0645 0.54892,-1.8748 0.88307,-1.1728 1.0867,-1.8805 0.82757,-2.8767 -0.38898,-1.4956 -0.39791,-1.6593 -0.0967,-1.7749 0.77502,-0.2974 1.6882,0.6937 1.7056,1.8511 0.004,0.28715 -0.22456,1.1643 -0.50859,1.9493 -0.39469,1.0908 -0.68232,1.5931 -1.2202,2.131 -0.67108,0.6711 -1.0168,0.83474 -1.2566,0.59492 z m 7.88,-1.9981 c 0.18572,-0.2608 0.33765,-0.54495 0.33765,-0.63145 0,-0.0865 0.3028,-0.68026 0.67287,-1.3195 0.82326,-1.422 0.98263,-2.3725 0.49706,-2.9646 -0.27122,-0.33072 -0.38815,-0.37308 -0.62909,-0.22787 -0.36208,0.21824 -0.9729,1.4135 -1.1187,2.189 -0.0591,0.31429 -0.28385,1.1446 -0.49948,1.8452 -0.48302,1.5693 -0.48297,1.5834 0.005,1.5834 0.25191,0 0.52047,-0.17334 0.73469,-0.47418 z m -15.122,13.066 c -0.99649,-0.39613 -1.4209,-0.87571 -1.7514,-1.9792 -0.27318,-0.91197 -0.27535,-1.0264 -0.0311,-1.6368 0.14443,-0.36093 0.2626,-0.8568 0.2626,-1.1019 10e-6,-0.24513 0.18272,-1.0334 0.40601,-1.7518 0.22329,-0.71836 0.59409,-2.1878 0.82398,-3.2653 1.3823,-6.4791 1.438,-6.6769 1.9269,-6.8489 0.35001,-0.12308 0.49035,-0.10491 0.61212,0.0793 0.22795,0.3448 0.0883,2.2117 -0.24381,3.2594 -0.15655,0.49388 -0.3472,1.2653 -0.42364,1.7143 -0.20346,1.1948 -0.46993,2.3671 -0.5777,2.5415 -0.21911,0.35454 -1.2302,4.7192 -1.322,5.7066 -0.0992,1.0675 -0.0957,1.0798 0.4431,1.5332 0.43812,0.36865 0.65515,0.44111 1.1225,0.3748 1.2476,-0.17699 1.465,-0.35939 2.5694,-2.1561 0.30253,-0.49218 0.62393,-1.187 1.1193,-2.4196 0.48877,-1.2163 0.95256,-1.653 1.5866,-1.4939 0.54181,0.136 2.1471,-0.1738 2.967,-0.57259 0.36504,-0.17755 0.9576,-0.58021 1.3168,-0.89481 0.35919,-0.31458 0.69925,-0.57339 0.75571,-0.5751 0.12083,-0.004 0.35388,-0.612 0.62668,-1.6358 0.10765,-0.40408 0.2964,-1.102 0.41944,-1.551 0.12304,-0.449 0.33309,-1.2204 0.46679,-1.7143 0.1337,-0.49388 0.36743,-1.2653 0.5194,-1.7143 1.0733,-3.171 2.522,-4.3185 3.7617,-2.9796 0.70449,0.76083 0.91146,1.3446 0.78223,2.2062 -0.13069,0.87161 -0.61889,2.2595 -0.9254,2.6309 -0.12025,0.1457 -0.36194,0.55014 -0.53708,0.89876 -0.17515,0.34862 -0.50212,0.8314 -0.72661,1.0728 -0.22449,0.24144 -0.6234,0.80479 -0.88648,1.2519 -0.26307,0.4471 -0.80046,1.0602 -1.1942,1.3625 -0.81621,0.6266 -1.2596,1.3933 -1.4194,2.4544 -0.2001,1.3285 -0.47123,2.4624 -0.60917,2.5477 -0.26782,0.16552 -0.1476,2.0836 0.16266,2.5952 0.92948,1.5326 0.69446,2.557 -0.45075,1.9648 -1.0133,-0.52398 -1.5442,-2.7023 -1.0904,-4.4737 0.1448,-0.56521 0.26328,-1.3523 0.26328,-1.7492 0,-0.62364 -0.0464,-0.72151 -0.34214,-0.72151 -0.18818,0 -0.53716,0.1376 -0.77551,0.30578 -0.23835,0.1682 -0.69051,0.34464 -1.0048,0.3921 -1.4403,0.21755 -2.2003,0.53803 -2.4334,1.0261 -0.12611,0.26406 -0.28764,0.51887 -0.35896,0.56622 -0.0713,0.0473 -0.39213,0.70855 -0.71291,1.4694 -0.75473,1.79 -1.843,2.9762 -3.0627,3.3384 -1.0037,0.29806 -1.152,0.29391 -2.0345,-0.0569 z"
         id="ball" />
    </g>
  </g>
</svg>
