<svg xmlns="http://www.w3.org/2000/svg" height="19.904" width="20.136"><path d="M9.203 8.564c-.288-.288-.061-1.064.55-1.875.882-1.172 1.086-1.88.827-2.876-.39-1.496-.398-1.66-.097-1.775.775-.298 1.688.693 1.706 1.85.004.288-.225 1.165-.509 1.95-.395 1.09-.682 1.593-1.22 2.131-.671.671-1.017.835-1.257.595zm7.88-1.998c.186-.26.338-.545.338-.631 0-.087.303-.68.673-1.32.823-1.422.982-2.372.497-2.965-.271-.33-.388-.373-.63-.227-.361.218-.972 1.413-1.118 2.189-.06.314-.284 1.144-.5 1.845-.483 1.57-.482 1.583.006 1.583.251 0 .52-.173.734-.474zM1.961 19.632c-.996-.396-1.42-.876-1.751-1.98-.273-.911-.276-1.026-.031-1.636.144-.36.262-.857.262-1.102 0-.245.183-1.033.406-1.752.224-.718.594-2.187.824-3.265C3.054 3.417 3.11 3.22 3.598 3.048c.35-.123.49-.105.612.08.228.344.089 2.211-.244 3.259A15.515 15.515 0 003.543 8.1c-.204 1.195-.47 2.367-.578 2.542-.219.354-1.23 4.719-1.322 5.706-.099 1.068-.096 1.08.443 1.533.438.37.655.442 1.123.375 1.247-.177 1.465-.36 2.57-2.156.302-.492.623-1.187 1.118-2.42.49-1.216.953-1.652 1.587-1.493.542.136 2.147-.174 2.967-.573.365-.178.958-.58 1.317-.895.359-.314.7-.573.756-.575.12-.004.353-.612.626-1.636.108-.404.297-1.102.42-1.55.123-.45.333-1.221.466-1.715.134-.494.368-1.265.52-1.714C16.629.359 18.078-.79 19.318.55c.704.761.911 1.345.782 2.206-.13.872-.62 2.26-.926 2.631-.12.146-.362.55-.537.899a5.554 5.554 0 01-.726 1.073c-.225.241-.624.805-.887 1.252-.263.447-.8 1.06-1.194 1.362-.816.627-1.26 1.393-1.42 2.455-.2 1.328-.47 2.462-.609 2.547-.267.166-.147 2.084.163 2.595.93 1.533.695 2.557-.45 1.965-1.014-.524-1.545-2.702-1.091-4.473.145-.566.263-1.353.263-1.75 0-.623-.046-.721-.342-.721-.188 0-.537.137-.775.306-.239.168-.69.344-1.005.392-1.44.217-2.2.538-2.434 1.026-.126.264-.287.519-.359.566-.07.047-.392.709-.712 1.47-.755 1.79-1.843 2.976-3.063 3.338-1.004.298-1.152.294-2.035-.057z"/></svg>