<?xml version="1.0" encoding="UTF-8" standalone="no"?>
<svg
   xmlns:dc="http://purl.org/dc/elements/1.1/"
   xmlns:cc="http://creativecommons.org/ns#"
   xmlns:rdf="http://www.w3.org/1999/02/22-rdf-syntax-ns#"
   xmlns:svg="http://www.w3.org/2000/svg"
   xmlns="http://www.w3.org/2000/svg"
   id="svg2094"
   viewBox="0 0 32.093287 17.853519"
   version="1.1"
   height="17.853519"
   width="32.093288">
  <defs
     id="defs2098" />
  <metadata
     id="metadata2">
    <rdf:RDF>
      <cc:Work
         rdf:about="">
        <dc:format>image/svg+xml</dc:format>
        <dc:type
           rdf:resource="http://purl.org/dc/dcmitype/StillImage" />
        <dc:title />
      </cc:Work>
    </rdf:RDF>
  </metadata>
  <g
     transform="translate(-403.63697,-408.6576)"
     id="g2092">
    <g
       style="stroke-width:0.16327"
       id="g2081">
      <path
         d="m 413.26,414.66 c -0.31077,-0.31078 -0.24263,-0.54753 0.5505,-1.9125 0.72421,-1.2464 0.74506,-1.3204 0.70155,-2.4888 -0.0247,-0.66233 0.0111,-1.2948 0.0796,-1.4055 0.2098,-0.33947 0.71602,-0.22455 1.091,0.24769 0.52059,0.65556 0.36829,2.2653 -0.3529,3.7303 -0.8261,1.678 -1.5664,2.3322 -2.0697,1.8289 z m -7.195,11.756 c -0.67384,-0.15007 -0.98441,-0.35373 -1.8931,-1.2415 -0.48932,-0.47804 -0.67405,-1.8886 -0.42328,-3.232 0.099,-0.53051 0.25249,-1.6558 0.34103,-2.5006 0.0885,-0.84484 0.22379,-1.6163 0.30054,-1.7143 0.0768,-0.098 0.14965,-0.28844 0.16201,-0.42313 0.0124,-0.1347 0.0636,-0.53878 0.11378,-0.89796 0.0502,-0.35919 0.23944,-1.7184 0.4205,-3.0204 0.18108,-1.302 0.38808,-2.4282 0.46002,-2.5026 0.072,-0.0744 0.3392,-0.11111 0.59388,-0.0816 0.62485,0.0723 0.77356,0.80696 0.47355,2.3393 -0.25427,1.2986 -0.58059,3.4044 -0.69488,4.4841 -0.0424,0.40093 -0.17075,0.87848 -0.28514,1.0612 -0.26447,0.42245 -0.61623,4.2297 -0.47335,5.1233 0.0856,0.53537 0.21018,0.72601 0.60222,0.92159 0.61975,0.30917 0.90721,0.30929 1.6459,0 0.39882,-0.16663 0.69582,-0.45614 0.92122,-0.89796 0.18296,-0.35862 0.40462,-0.65204 0.49259,-0.65204 0.088,0 0.15995,-0.10803 0.15995,-0.24006 0,-0.13203 0.17331,-0.62795 0.38511,-1.102 0.21182,-0.47409 0.4802,-1.3268 0.59641,-1.895 0.15894,-0.77703 0.31011,-1.0978 0.60999,-1.2942 0.37117,-0.24319 0.44552,-0.2378 1.0771,0.078 2.0882,1.0442 6.072,1.232 9.658,0.45527 1.4501,-0.31406 5.3188,-1.3305 5.8428,-1.5351 0.25031,-0.0977 1.297,-0.26542 2.3259,-0.37269 1.6692,-0.17399 1.9676,-0.16447 2.7694,0.0883 0.49424,0.15581 0.89862,0.34624 0.89862,0.4232 0,0.077 0.33048,0.34872 0.7344,0.60391 0.40392,0.25518 0.73453,0.54569 0.73469,0.6456 0,0.0999 0.21207,0.44809 0.47089,0.77379 0.36186,0.45533 0.49677,0.83669 0.58392,1.6504 0.15388,1.437 0.038,1.753 -0.61949,1.6892 -0.54667,-0.053 -0.59963,-0.16509 -0.8427,-1.7832 -0.0637,-0.42426 -0.33246,-0.84192 -0.95574,-1.4854 -1.2834,-1.3251 -2.5109,-1.6661 -4.5469,-1.2634 -0.99029,0.19587 -3.0322,0.77277 -3.3958,0.95943 -0.26684,0.13698 -1.3654,0.39682 -2.7755,0.65651 -0.49388,0.0909 -1.3755,0.28413 -1.9592,0.42929 -1.5956,0.3968 -5.697,0.49391 -6.9665,0.16495 -1.4386,-0.37277 -2.081,-0.34263 -2.3122,0.10849 -0.10356,0.20204 -0.25877,0.47755 -0.34493,0.61224 -0.0861,0.13469 -0.44916,0.86939 -0.80669,1.6326 -0.83824,1.7894 -1.7455,2.9734 -2.3881,3.1164 -0.26821,0.0597 -0.59788,0.1463 -0.73257,0.19249 -0.1347,0.0462 -0.56591,0.0124 -0.95824,-0.0749 z"
         id="band" />
    </g>
  </g>
</svg>
