<svg xmlns="http://www.w3.org/2000/svg" height="17.854" width="32.093"><path d="M9.623 6.002c-.31-.31-.243-.547.55-1.912.725-1.246.746-1.32.702-2.489-.025-.662.011-1.295.08-1.405.21-.34.716-.225 1.09.247.521.656.369 2.266-.352 3.73-.826 1.679-1.567 2.333-2.07 1.83zM2.428 17.758c-.674-.15-.984-.353-1.893-1.241-.49-.478-.674-1.889-.423-3.232.099-.53.252-1.656.34-2.5.09-.846.224-1.617.301-1.715a.947.947 0 00.162-.423c.013-.135.064-.539.114-.898.05-.36.24-1.718.42-3.02.182-1.302.389-2.429.46-2.503.073-.074.34-.111.594-.082.625.073.774.807.474 2.34-.254 1.298-.58 3.404-.695 4.484-.042.4-.17.878-.285 1.06-.265.423-.616 4.23-.473 5.124.085.536.21.726.602.922.62.309.907.31 1.646 0 .399-.167.696-.456.92-.898.184-.359.406-.652.494-.652.088 0 .16-.108.16-.24s.173-.628.385-1.102c.211-.474.48-1.327.596-1.895.159-.777.31-1.098.61-1.294.371-.244.445-.238 1.077.078 2.088 1.044 6.072 1.232 9.658.455 1.45-.314 5.319-1.33 5.843-1.535.25-.098 1.297-.266 2.326-.373 1.669-.174 1.967-.164 2.77.088.493.156.898.347.898.424 0 .077.33.348.734.603.404.256.735.546.735.646 0 .1.212.448.47.774.363.455.498.837.585 1.65.154 1.437.038 1.753-.62 1.69-.546-.054-.6-.166-.842-1.784-.064-.424-.333-.842-.956-1.485-1.284-1.325-2.511-1.666-4.547-1.264-.99.196-3.032.773-3.396.96-.267.137-1.365.397-2.775.656a39.65 39.65 0 00-1.96.43c-1.595.396-5.697.494-6.966.165-1.439-.373-2.081-.343-2.312.108a9.152 9.152 0 01-.345.612c-.086.135-.45.87-.807 1.633-.838 1.79-1.745 2.973-2.388 3.116-.268.06-.598.147-.733.193-.134.046-.566.012-.958-.075z" stroke-width=".163"/></svg>