<?xml version="1.0" encoding="UTF-8" standalone="no"?>
<svg
   xmlns:dc="http://purl.org/dc/elements/1.1/"
   xmlns:cc="http://creativecommons.org/ns#"
   xmlns:rdf="http://www.w3.org/1999/02/22-rdf-syntax-ns#"
   xmlns:svg="http://www.w3.org/2000/svg"
   xmlns="http://www.w3.org/2000/svg"
   id="svg2094"
   viewBox="0 0 38.124076 17.907846"
   version="1.1"
   height="17.907846"
   width="38.124077">
  <defs
     id="defs2098" />
  <metadata
     id="metadata2">
    <rdf:RDF>
      <cc:Work
         rdf:about="">
        <dc:format>image/svg+xml</dc:format>
        <dc:type
           rdf:resource="http://purl.org/dc/dcmitype/StillImage" />
        <dc:title />
      </cc:Work>
    </rdf:RDF>
  </metadata>
  <g
     transform="translate(-403.8401,-434.66695)"
     id="g2092">
    <g
       style="stroke-width:0.16327"
       id="g2081">
      <path
         d="m 412.44,441.58 c -0.22498,-0.2711 -0.0713,-0.87608 0.38155,-1.5017 0.19499,-0.26939 0.55825,-0.84722 0.80726,-1.284 0.50286,-0.88217 0.49527,-1.5454 -0.0303,-2.6476 -0.27017,-0.56657 -0.26891,-0.59798 0.0328,-0.81858 0.17254,-0.12617 0.41296,-0.22941 0.53423,-0.22941 0.5856,0 1.3497,1.3255 1.3497,2.3414 0,0.56953 -0.53654,1.9755 -0.82098,2.1513 -0.0872,0.0539 -0.15861,0.23029 -0.15861,0.39194 0,0.40232 -1.2649,1.8093 -1.6265,1.8093 -0.16098,0 -0.37206,-0.0957 -0.46909,-0.21257 z m -6.4532,10.678 c -0.81364,-0.5364 -1.897,-1.8471 -2.0759,-2.5114 -0.19148,-0.71109 0.0333,-3.6399 0.34163,-4.4508 0.23876,-0.62795 0.48851,-2.6571 0.97936,-7.9568 0.18972,-2.0483 0.65174,-2.9073 1.4077,-2.6172 0.23543,0.0904 0.2539,0.3268 0.15486,1.9832 -0.0618,1.0344 -0.16263,1.9594 -0.22398,2.0556 -0.0613,0.0962 -0.12062,0.35856 -0.13172,0.58305 -0.12595,2.5465 -0.29462,4.3067 -0.4772,4.9796 -0.28476,1.0497 -0.53383,2.4965 -0.66044,3.8367 -0.0948,1.0036 -0.0716,1.104 0.42797,1.85 0.72253,1.0788 1.5082,1.3229 2.9603,0.91957 0.5174,-0.1437 0.66436,-0.29967 1.0374,-1.1011 0.23905,-0.51355 0.64181,-1.3745 0.895,-1.9133 0.2532,-0.53877 0.53806,-1.452 0.63305,-2.0293 0.095,-0.57735 0.26586,-1.1127 0.37975,-1.1896 0.38459,-0.25974 1.274,-0.002 1.6414,0.47569 0.63396,0.82424 1.8205,1.839 2.3616,2.0198 0.29184,0.0975 0.53061,0.24299 0.53061,0.32332 0,0.0803 0.42245,0.26248 0.93878,0.40481 0.51633,0.14232 1.2083,0.37324 1.5378,0.51316 0.94462,0.40121 5.7661,0.23429 7.7276,-0.26753 1.4483,-0.37053 3.6735,-1.2734 3.6735,-1.4904 0,-0.0613 0.23877,-0.15667 0.53061,-0.21207 0.29184,-0.0554 1.0082,-0.35651 1.5918,-0.66911 2.5032,-1.3407 3.8966,-1.8498 6.1224,-2.2368 1.4231,-0.24748 1.9229,-0.27528 2.4078,-0.13395 0.69379,0.20226 1.2657,0.73538 1.2657,1.1799 0,0.44103 -0.69221,0.65281 -1.2557,0.38416 -0.55572,-0.26496 -2.7352,-0.0689 -3.4725,0.31231 -1.0899,0.56364 -1.6766,1.9802 -1.2192,2.944 0.14865,0.31327 0.28132,0.56958 0.29481,0.56958 0.0136,0 0.42651,0.14694 0.91786,0.32653 1.221,0.4463 2.807,0.44258 3.4399,-0.008 0.6162,-0.43876 1.1777,-0.19998 1.1005,0.46802 -0.0386,0.33456 -0.23987,0.54006 -0.85219,0.87027 -0.44089,0.23776 -1.0917,0.47867 -1.4462,0.53536 -0.87403,0.13977 -2.4679,-0.19561 -3.1592,-0.66472 -0.31167,-0.21151 -0.59636,-0.38455 -0.63265,-0.38455 -0.0363,0 -0.25652,-0.17661 -0.48944,-0.39246 -0.56953,-0.52784 -0.76971,-1.2903 -0.64202,-2.4455 l 0.10617,-0.96042 -0.63079,0.11709 c -0.34694,0.0644 -0.74678,0.22109 -0.88854,0.34818 -0.14177,0.1271 -0.33481,0.23109 -0.429,0.23109 -0.0942,0 -0.25949,0.10633 -0.36734,0.23631 -0.10787,0.12995 -0.53932,0.36076 -0.95878,0.51289 -0.75342,0.27326 -1.9203,0.77607 -3.2338,1.3934 -0.37136,0.17456 -1.0693,0.38478 -1.551,0.46717 -0.48171,0.0824 -1.133,0.23151 -1.4473,0.33139 -0.86072,0.27354 -5.7545,0.21431 -6.8572,-0.083 -0.49387,-0.13316 -1.0816,-0.24405 -1.3061,-0.24645 -0.22449,-0.002 -0.59184,-0.10761 -0.81633,-0.23383 -0.22448,-0.12621 -0.84912,-0.45685 -1.3881,-0.73476 -0.53897,-0.27791 -1.2216,-0.7311 -1.5168,-1.0071 -0.66902,-0.62525 -0.79108,-0.54016 -1.488,1.0373 -0.82591,1.8695 -1.0228,2.2258 -1.5137,2.7395 -0.25343,0.26519 -0.46077,0.54268 -0.46077,0.61667 0,0.074 -0.25964,0.25832 -0.57697,0.40965 -0.81928,0.39067 -2.621,0.37121 -3.2371,-0.035 z"
         id="bank" />
    </g>
  </g>
</svg>
