<svg xmlns="http://www.w3.org/2000/svg" height="17.908" width="38.124"><path d="M8.6 6.913c-.225-.271-.071-.876.381-1.502.195-.269.559-.847.808-1.284.503-.882.495-1.545-.03-2.647-.27-.567-.27-.598.032-.819.173-.126.413-.23.534-.23.586 0 1.35 1.326 1.35 2.342 0 .57-.536 1.976-.82 2.151-.088.054-.16.23-.16.392 0 .403-1.264 1.81-1.626 1.81a.69.69 0 01-.469-.213zM2.147 17.591C1.333 17.055.25 15.744.07 15.08c-.192-.711.033-3.64.341-4.451.24-.628.489-2.657.98-7.957.19-2.048.652-2.907 1.407-2.617.236.09.254.327.155 1.983-.061 1.034-.162 1.96-.224 2.056-.06.096-.12.358-.131.583-.126 2.546-.295 4.306-.478 4.98-.284 1.049-.533 2.496-.66 3.836-.095 1.004-.072 1.104.428 1.85.723 1.079 1.508 1.323 2.96.92.518-.144.665-.3 1.038-1.102.239-.513.641-1.374.895-1.913a9.3 9.3 0 00.633-2.03c.095-.576.266-1.112.38-1.189.384-.26 1.273-.002 1.64.476.635.824 1.821 1.839 2.362 2.02.292.097.531.243.531.323 0 .08.423.263.939.405.516.142 1.208.373 1.538.513.944.401 5.766.234 7.727-.267 1.449-.371 3.674-1.274 3.674-1.49 0-.062.239-.158.53-.213.292-.055 1.009-.356 1.592-.67 2.503-1.34 3.897-1.849 6.123-2.236 1.423-.247 1.922-.275 2.407-.134.694.202 1.266.736 1.266 1.18 0 .441-.692.653-1.256.384-.555-.265-2.735-.069-3.472.313-1.09.563-1.677 1.98-1.22 2.944.15.313.282.57.295.57.014 0 .427.146.918.326 1.221.446 2.807.442 3.44-.008.616-.44 1.178-.2 1.1.468-.038.334-.24.54-.851.87-.441.238-1.092.479-1.447.535-.874.14-2.468-.195-3.159-.664-.312-.212-.596-.385-.632-.385-.037 0-.257-.177-.49-.392-.57-.528-.77-1.29-.642-2.446l.106-.96-.63.117c-.348.064-.747.22-.89.348-.14.127-.334.231-.428.231-.094 0-.26.106-.367.236-.108.13-.54.361-.96.513-.753.273-1.92.776-3.233 1.394-.371.174-1.07.384-1.551.467a13.43 13.43 0 00-1.447.331c-.861.274-5.755.214-6.858-.083-.493-.133-1.081-.244-1.306-.246-.224-.002-.591-.108-.816-.234-.224-.126-.85-.457-1.388-.735-.539-.278-1.222-.731-1.517-1.007-.669-.625-.79-.54-1.488 1.037-.826 1.87-1.023 2.226-1.514 2.74-.253.265-.46.543-.46.617 0 .074-.26.258-.577.41-.82.39-2.621.37-3.237-.036z"/></svg>