<svg xmlns="http://www.w3.org/2000/svg" height="32.58" width="54.117"><path d="M10.657 6.854c-.316-.317-.316-.323.008-.702.146-.17.474-.776.73-1.348.53-1.18.632-2.705.23-3.408-.362-.634-.31-1.25.115-1.362.597-.156 1.161.234 1.378.954.549 1.822.007 4.337-1.187 5.51-.69.677-.895.735-1.274.356zm25.834 9.45c1.021-1.1 2.175-3.14 2.274-4.022.077-.684.066-.704-.585-.997-1.11-.5-2.841-.01-4.109 1.163-.98.908-1.368 1.731-1.377 2.923-.011 1.497.448 1.895 2.083 1.809.904-.048.983-.089 1.714-.876zm-.5 14.304c.83-.927 1.325-1.793 1.746-3.058.23-.691.42-1.404.42-1.583 0-.18.11-.533.241-.787.273-.522.574-2.657.574-4.065 0-.692-.06-.943-.225-.943-.33 0-.547.328-.676 1.02-.063.337-.177.612-.252.612-.076 0-.189.27-.25.602-.063.33-.323 1.063-.58 1.628a21.163 21.163 0 00-.802 2.134c-.185.608-.445 1.444-.579 1.856-.33 1.02-.499 3.086-.253 3.086.103 0 .389-.226.636-.502zm-1.755 1.441c-.414-.679-.416-1.843-.007-3.796.338-1.614.768-2.929 1.297-3.965.19-.371.344-.807.344-.97 0-.161.155-.697.345-1.19.618-1.604 1.288-3.662 1.288-3.955 0-.394-.563-.37-1.25.055-.389.24-.937.369-1.841.43l-1.287.089-.888-.895c-.963-.97-1.134-1.449-.985-2.766.095-.847-.18-1.208-.544-.712-.592.81-2.565 2.696-2.82 2.696-.078 0-.561.192-1.074.427-.678.31-1.228.432-2.02.449-.967.02-1.162-.032-1.766-.468-.374-.27-.714-.663-.757-.876-.042-.212.135-1.121.394-2.02.852-2.96.597-3.857-1.037-3.657-2.385.292-3.914 1.432-5.163 3.85-.211.409-.435.78-.497.825-.062.045-.183.369-.268.72-.176.717-.834 1.314-1.266 1.148-.317-.122-.369-.827-.117-1.611.088-.276.35-1.15.58-1.944.39-1.337.402-1.471.164-1.834-.421-.643-1.117-.699-2.864-.23-.404.109-1.468.213-2.364.233l-1.63.035-.365 1.023c-.317.885-2.056 3.757-2.36 3.897-.059.028-.309.223-.556.435-.588.506-1.7.809-2.452.668-.378-.071-.875-.373-1.358-.825-.641-.6-.795-.867-.98-1.695-.165-.748-.174-1.109-.035-1.506.1-.287.182-.83.182-1.206s.109-1.045.243-1.486c.133-.44.244-1.132.245-1.536.002-.404.111-1.396.244-2.204.137-.831.243-2.547.244-3.951.002-1.53.076-2.642.193-2.898.204-.448.746-.558 1.084-.22.245.245.254 3.612.016 5.926a723.87 723.87 0 00-.312 3.102 37.127 37.127 0 01-.413 2.857c-.468 2.41-.468 2.431-.078 3.213.698 1.398 1.788 1.38 3.093-.047.456-.499.828-.97.828-1.05 0-.078.184-.413.408-.744.363-.534.409-.77.409-2.118 0-1.16.06-1.576.256-1.773.296-.296.978-.34 1.143-.075.186.301 1.838.962 2.401.96.29 0 1.333-.184 2.32-.408.985-.224 1.964-.407 2.173-.407.46 0 1.013.275 1.013.505 0 .26.875 1.291 1.096 1.291.11 0 .27-.133.356-.295.191-.357 2.212-1.381 3.424-1.735a7.609 7.609 0 011.77-.255c1.066 0 1.666.358 2.087 1.244.251.53.261.737.088 1.813-.108.668-.3 1.464-.427 1.767-.375.897-.302 1.652.19 1.975.373.244.519.252 1.266.063 1.29-.325 2.396-.948 3.252-1.829.426-.44.775-.837.775-.884 0-.119 1.836-1.806 2.485-2.283.295-.217 1.22-.738 2.057-1.158 1.335-.67 1.68-.773 2.81-.838 1.23-.072 1.327-.051 2.1.444.445.286.898.627 1.007.759.363.437.449 1.493.202 2.479-1.028 4.108-1.025 4.284.073 4.284.845 0 2.573-.646 3.159-1.18.281-.258.717-.51.969-.56.475-.095 2.636-2.097 3.832-3.551.36-.437.818-.958 1.02-1.158.203-.2.368-.411.368-.47 0-.107.405-1.06 1.015-2.387.477-1.036.943-2.318.95-2.61.003-.136.147-.541.32-.9.174-.36.319-.752.322-.874.005-.201.257-.84.702-1.78.096-.201.307-.367.468-.367.484 0 .68.596.555 1.695-.133 1.18-.844 4.307-1.071 4.711a1.62 1.62 0 00-.16.668c0 .211-.218.821-.485 1.356-.788 1.577-1.191 4.152-1.001 6.388.01.113.315.325.68.47.562.225.654.328.612.688-.065.55-.73.93-1.353.774-.255-.064-.714-.366-1.02-.673l-.557-.556.071-1.516c.04-.833.16-1.845.27-2.25.482-1.784.356-2.508-.263-1.51-.422.68-1.07 1.347-1.31 1.347-.118 0-.215.117-.215.26 0 .542-2.945 3.472-3.627 3.608a1.506 1.506 0 00-.762.472c-.164.208-.62.506-1.015.661-.395.156-.755.332-.8.391-.044.06-.37.154-.723.21-1.044.165-1.102.304-1.329 3.164-.227 2.858-.427 4.055-.8 4.777-.138.265-.25.66-.25.878 0 .522-.367 1.382-.976 2.284-.271.402-.493.8-.493.887 0 .086-.406.534-.903.996-.729.678-1.013.84-1.472.84-.466 0-.627-.095-.892-.53z"/></svg>