<?xml version="1.0" encoding="UTF-8" standalone="no"?>
<svg
   xmlns:dc="http://purl.org/dc/elements/1.1/"
   xmlns:cc="http://creativecommons.org/ns#"
   xmlns:rdf="http://www.w3.org/1999/02/22-rdf-syntax-ns#"
   xmlns:svg="http://www.w3.org/2000/svg"
   xmlns="http://www.w3.org/2000/svg"
   id="svg2094"
   viewBox="0 0 54.11685 32.579754"
   version="1.1"
   height="32.579754"
   width="54.116852">
  <defs
     id="defs2098" />
  <metadata
     id="metadata2">
    <rdf:RDF>
      <cc:Work
         rdf:about="">
        <dc:format>image/svg+xml</dc:format>
        <dc:type
           rdf:resource="http://purl.org/dc/dcmitype/StillImage" />
        <dc:title />
      </cc:Work>
    </rdf:RDF>
  </metadata>
  <g
     transform="translate(-404.94274,-458.68611)"
     id="g2092">
    <g
       style="stroke-width:0.16327"
       id="g2081">
      <path
         d="m 415.6,465.54 c -0.3166,-0.31661 -0.31654,-0.32273 0.008,-0.70141 0.14534,-0.16973 0.47389,-0.7767 0.73012,-1.3488 0.52867,-1.1804 0.63164,-2.7051 0.23012,-3.4075 -0.36264,-0.63437 -0.31092,-1.2508 0.11429,-1.362 0.59763,-0.15628 1.1615,0.23391 1.3782,0.95381 0.54872,1.8222 0.007,4.337 -1.1872,5.5102 -0.68927,0.67722 -0.89445,0.73453 -1.2733,0.35569 z m 25.834,9.4499 c 1.0208,-1.0989 2.1747,-3.1394 2.2741,-4.0213 0.0771,-0.68431 0.0653,-0.70449 -0.58546,-0.99794 -1.1093,-0.50022 -2.8409,-0.01 -4.1088,1.1639 -0.98014,0.9072 -1.3683,1.731 -1.3772,2.9227 -0.0111,1.497 0.44769,1.8953 2.0831,1.8084 0.90417,-0.048 0.98271,-0.0882 1.7143,-0.87573 z m -0.49987,14.304 c 0.83038,-0.92708 1.3246,-1.7926 1.746,-3.058 0.23019,-0.6912 0.41899,-1.4034 0.41954,-1.5827 0,-0.17928 0.10913,-0.53327 0.24128,-0.78663 0.27258,-0.52263 0.57404,-2.6577 0.57404,-4.0657 0,-0.69216 -0.0598,-0.94305 -0.22492,-0.94305 -0.32955,0 -0.54728,0.32837 -0.6766,1.0204 -0.0629,0.33674 -0.17638,0.61225 -0.25212,0.61225 -0.0757,0 -0.18845,0.27056 -0.25049,0.60126 -0.062,0.33069 -0.32242,1.0636 -0.57863,1.6287 -0.25621,0.56506 -0.61723,1.5251 -0.80222,2.1334 -0.18501,0.60832 -0.44557,1.4438 -0.57902,1.8565 -0.3297,1.0198 -0.49896,3.0862 -0.25279,3.0862 0.10214,0 0.3883,-0.2262 0.63594,-0.50268 z m -1.7556,1.4415 c -0.41414,-0.67927 -0.41625,-1.8429 -0.007,-3.7959 0.33842,-1.6144 0.76856,-2.9293 1.2972,-3.9655 0.18926,-0.37099 0.34412,-0.80707 0.34412,-0.96906 0,-0.16199 0.15518,-0.69757 0.34486,-1.1902 0.61793,-1.6048 1.2878,-3.6625 1.2878,-3.9558 0,-0.39427 -0.56263,-0.3693 -1.2499,0.0555 -0.3888,0.24029 -0.9372,0.36851 -1.841,0.43046 l -1.2872,0.0882 -0.88744,-0.89456 c -0.96361,-0.97136 -1.1338,-1.4491 -0.98526,-2.7666 0.0955,-0.84684 -0.18057,-1.2081 -0.54364,-0.71161 -0.59234,0.81008 -2.5651,2.6956 -2.8203,2.6956 -0.0779,0 -0.5611,0.19201 -1.0737,0.42671 -0.67788,0.31035 -1.2287,0.43278 -2.0197,0.44898 -0.9674,0.0198 -1.1628,-0.0319 -1.7668,-0.46753 -0.37355,-0.26939 -0.71393,-0.66336 -0.75638,-0.87549 -0.0425,-0.21212 0.13461,-1.1216 0.39347,-2.0211 0.85161,-2.9591 0.59732,-3.8559 -1.0368,-3.6562 -2.3848,0.29136 -3.914,1.4314 -5.1629,3.8491 -0.21151,0.40947 -0.43522,0.78124 -0.49709,0.82614 -0.0619,0.0449 -0.1827,0.36847 -0.26848,0.71905 -0.17559,0.7176 -0.83356,1.3144 -1.2661,1.1485 -0.31699,-0.12164 -0.36818,-0.82728 -0.11685,-1.611 0.0884,-0.27577 0.34987,-1.1506 0.58097,-1.944 0.38934,-1.3367 0.40135,-1.4714 0.16369,-1.8341 -0.42133,-0.64302 -1.117,-0.69879 -2.8646,-0.2296 -0.40408,0.10849 -1.4679,0.21314 -2.3639,0.23257 l -1.6292,0.0353 -0.36606,1.0225 c -0.31699,0.88554 -2.056,3.7578 -2.3598,3.8978 -0.0588,0.0271 -0.30872,0.2227 -0.55548,0.43473 -0.58836,0.50557 -1.7006,0.80834 -2.4519,0.66741 -0.3783,-0.071 -0.87518,-0.37251 -1.358,-0.82415 -0.64164,-0.60018 -0.79578,-0.86698 -0.97961,-1.6957 -0.16586,-0.74764 -0.17457,-1.1086 -0.0362,-1.5053 0.10007,-0.28703 0.18193,-0.82986 0.18193,-1.2063 0,-0.3764 0.1094,-1.045 0.24313,-1.4858 0.13372,-0.4408 0.2442,-1.1321 0.24552,-1.5362 0.002,-0.40408 0.11102,-1.3959 0.24381,-2.2041 0.13662,-0.83149 0.24267,-2.5469 0.24427,-3.9515 0.002,-1.5298 0.0756,-2.6417 0.19233,-2.898 0.2039,-0.44751 0.74637,-0.55757 1.084,-0.21994 0.24539,0.24539 0.25448,3.6126 0.016,5.9265 -0.0925,0.89796 -0.23288,2.2939 -0.31185,3.102 -0.079,0.80817 -0.26479,2.0939 -0.41293,2.8572 -0.46771,2.4097 -0.46823,2.4311 -0.0778,3.2129 0.69796,1.3975 1.7879,1.3807 3.0933,-0.0476 0.45536,-0.49824 0.82793,-0.97017 0.82793,-1.0488 0,-0.0786 0.18368,-0.41352 0.40817,-0.74431 0.3629,-0.5348 0.40816,-0.7696 0.40816,-2.118 0,-1.161 0.0601,-1.5767 0.25656,-1.7731 0.29632,-0.29631 0.97804,-0.34111 1.1425,-0.0751 0.18594,0.30088 1.8387,0.96147 2.4016,0.95989 0.28928,0 1.3328,-0.18448 2.3189,-0.40816 0.9861,-0.22368 1.9644,-0.40668 2.174,-0.40668 0.46011,0 1.0126,0.27513 1.0126,0.50426 0,0.26034 0.87533,1.2916 1.0963,1.2917 0.10909,0 0.26947,-0.13292 0.35641,-0.29537 0.19102,-0.3569 2.2118,-1.3809 3.4232,-1.7346 0.48175,-0.14067 1.2786,-0.25576 1.7707,-0.25576 1.0654,0 1.6661,0.35827 2.0866,1.2445 0.2512,0.52935 0.26124,0.73699 0.0877,1.8129 -0.1078,0.6683 -0.29988,1.4637 -0.42682,1.7675 -0.37462,0.89655 -0.3017,1.6518 0.19061,1.9744 0.37304,0.24442 0.51832,0.25169 1.2653,0.0633 1.2894,-0.32514 2.3967,-0.94793 3.252,-1.8291 0.42654,-0.43943 0.77551,-0.83722 0.77551,-0.88402 0,-0.11893 1.8362,-1.8065 2.4846,-2.2834 0.29471,-0.21679 1.2205,-0.73778 2.0573,-1.1578 1.3348,-0.66991 1.6797,-0.77277 2.8107,-0.83825 1.23,-0.0712 1.3263,-0.0508 2.0986,0.44478 0.44519,0.28568 0.89866,0.62694 1.0077,0.75834 0.36263,0.43694 0.44859,1.493 0.20178,2.479 -1.0283,4.1086 -1.0253,4.2845 0.0726,4.2845 0.84549,0 2.5737,-0.64575 3.159,-1.1804 0.28176,-0.25735 0.71784,-0.50903 0.96908,-0.55928 0.47539,-0.0951 2.636,-2.0973 3.8325,-3.5516 0.35919,-0.43657 0.81837,-0.95755 1.0204,-1.1578 0.20204,-0.20019 0.36735,-0.41146 0.36735,-0.4695 0,-0.10726 0.40519,-1.0599 1.0156,-2.3877 0.47636,-1.0362 0.94262,-2.3183 0.94915,-2.6099 0.003,-0.13595 0.14749,-0.54108 0.32099,-0.90026 0.1735,-0.35918 0.31795,-0.75216 0.321,-0.87329 0.005,-0.20168 0.25704,-0.83976 0.70282,-1.7798 0.0958,-0.20204 0.30616,-0.36735 0.46742,-0.36735 0.48463,0 0.67986,0.59579 0.55549,1.6951 -0.13341,1.1792 -0.8447,4.3068 -1.0714,4.7108 -0.0875,0.15594 -0.15904,0.45645 -0.15904,0.66781 0,0.21136 -0.21843,0.82142 -0.48541,1.3557 -0.78829,1.5775 -1.1919,4.152 -1.0015,6.3882 0.01,0.11298 0.31531,0.32457 0.67934,0.47022 0.56275,0.22518 0.65442,0.32812 0.61225,0.68741 -0.0646,0.55029 -0.72934,0.93122 -1.3522,0.77489 -0.25499,-0.064 -0.71419,-0.36692 -1.0204,-0.67316 l -0.5568,-0.5568 0.0709,-1.5152 c 0.039,-0.83337 0.16028,-1.8458 0.26952,-2.2499 0.48243,-1.7846 0.35681,-2.5084 -0.26212,-1.5102 -0.42198,0.68052 -1.0704,1.3469 -1.3107,1.3469 -0.11789,0 -0.21435,0.1168 -0.21435,0.25956 0,0.54245 -2.945,3.4723 -3.6274,3.6088 -0.2553,0.0511 -0.59818,0.2632 -0.76195,0.47141 -0.16379,0.20822 -0.62073,0.50577 -1.0154,0.66123 -0.39469,0.15546 -0.75436,0.33146 -0.79926,0.3911 -0.0449,0.0596 -0.37042,0.15407 -0.72338,0.20984 -1.0437,0.16492 -1.102,0.3036 -1.329,3.1644 -0.22681,2.858 -0.42741,4.0549 -0.80052,4.7765 -0.13703,0.26498 -0.24914,0.66014 -0.24914,0.87812 0,0.52191 -0.36753,1.3815 -0.97636,2.2837 -0.27117,0.40179 -0.49303,0.80088 -0.49303,0.88689 0,0.086 -0.40632,0.53453 -0.90292,0.99673 -0.72857,0.67809 -1.0128,0.84036 -1.4718,0.84036 -0.4666,0 -0.62704,-0.0954 -0.89239,-0.53061 z"
         id="banquet" />
    </g>
  </g>
</svg>
