<?xml version="1.0" encoding="UTF-8" standalone="no"?>
<svg
   xmlns:dc="http://purl.org/dc/elements/1.1/"
   xmlns:cc="http://creativecommons.org/ns#"
   xmlns:rdf="http://www.w3.org/1999/02/22-rdf-syntax-ns#"
   xmlns:svg="http://www.w3.org/2000/svg"
   xmlns="http://www.w3.org/2000/svg"
   id="svg2094"
   viewBox="0 0 33.563296 16.902872"
   version="1.1"
   height="16.902872"
   width="33.563297">
  <defs
     id="defs2098" />
  <metadata
     id="metadata2">
    <rdf:RDF>
      <cc:Work
         rdf:about="">
        <dc:format>image/svg+xml</dc:format>
        <dc:type
           rdf:resource="http://purl.org/dc/dcmitype/StillImage" />
        <dc:title />
      </cc:Work>
    </rdf:RDF>
  </metadata>
  <g
     transform="translate(-405.8758,-481.97614)"
     id="g2092">
    <g
       style="stroke-width:0.16327"
       id="g2081">
      <path
         d="m 414.56,487.64 c -0.30068,-0.30069 -0.23913,-0.56057 0.27142,-1.1458 1.0596,-1.2147 1.5296,-3.0507 0.91205,-3.5632 -0.13902,-0.1154 -0.23086,-0.36317 -0.20409,-0.55061 0.04,-0.28002 0.18173,-0.34947 0.79434,-0.38936 0.70054,-0.0456 0.76375,-0.0149 1.045,0.50738 0.47223,0.87687 0.15216,2.1221 -1.1188,4.353 -0.35766,0.62779 -1.3844,1.1042 -1.6999,0.7887 z m -6.9837,10.98 c -0.27588,-0.18206 -0.75206,-0.71754 -1.0582,-1.1899 -0.80322,-1.2396 -0.84552,-2.4072 -0.16945,-4.6772 0.2776,-0.9321 0.50473,-1.9694 0.50473,-2.3052 0,-0.33579 0.1784,-1.4834 0.39643,-2.5502 0.21804,-1.0668 0.47885,-2.6376 0.57959,-3.4907 0.17344,-1.4686 0.46788,-2.2857 0.82367,-2.2857 0.0877,0 0.30557,0.14608 0.4841,0.32461 0.28686,0.28685 0.31383,0.47205 0.23192,1.5918 -0.051,0.69698 -0.19852,1.7815 -0.32787,2.4101 -0.12936,0.62857 -0.30516,1.6572 -0.39068,2.2857 -0.24624,1.8099 -0.64369,3.8889 -0.81151,4.2449 -0.27926,0.5924 -0.49402,1.6211 -0.49494,2.371 -0.002,1.0139 0.74459,1.9556 1.5489,1.9556 0.4498,0 0.70038,-0.16048 1.4167,-0.90725 0.47862,-0.49899 0.93413,-1.0684 1.0123,-1.2653 0.0781,-0.19693 0.19624,-0.50499 0.26254,-0.68459 0.0663,-0.17959 0.28689,-0.73061 0.49024,-1.2245 0.20333,-0.49387 0.48384,-1.2286 0.62335,-1.6326 0.13951,-0.404 0.33254,-0.78867 0.42896,-0.85464 0.2787,-0.19067 0.79003,-0.14294 1.296,0.12096 0.90379,0.47135 2.1444,0.20563 2.9726,-0.63667 0.43682,-0.44431 1.6015,-1.0786 1.9804,-1.0786 0.16209,0 0.65029,0.2528 1.0849,0.5618 0.43459,0.30898 1.0036,0.60867 1.2646,0.66599 0.59569,0.13082 0.96461,0.64496 0.96461,1.3443 0,0.5926 -0.53698,2.3198 -0.89344,2.8738 -0.3374,0.52432 -0.46986,1.4892 -0.25863,1.8839 0.11514,0.21512 0.34394,0.34372 0.61151,0.34372 0.56031,0 2.4145,-1.0427 2.7827,-1.5648 1.0568,-1.4987 3.532,-3.9862 3.9666,-3.9862 0.18595,0 0.56589,-0.1178 0.84427,-0.26175 1.2164,-0.62899 2.0469,-0.21484 2.4076,1.2005 0.11124,0.43657 0.26934,0.69387 0.42635,0.69387 0.13726,0 0.64622,-0.29947 1.131,-0.66552 0.86679,-0.65444 2.7563,-1.4467 3.4663,-1.4535 0.40175,-0.004 1.5303,0.4767 1.7174,0.73125 0.066,0.0898 0.23253,0.54614 0.37008,1.0141 0.36811,1.2524 0.13154,4.1122 -0.42353,5.1203 -0.48271,0.87667 -1.0411,1.0535 -1.2867,0.40754 -0.0968,-0.25467 -0.10215,-0.57026 -0.0136,-0.80329 0.0803,-0.21112 0.19247,-1.2213 0.24935,-2.2449 0.13703,-2.4656 0.0286,-2.6902 -1.2775,-2.645 -0.60944,0.0211 -1.1247,0.14799 -1.4716,0.36237 -0.9741,0.60204 -2.5545,2.4838 -3.4846,4.1491 -0.45177,0.80887 -1.4177,1.2097 -1.6234,0.67368 -0.0531,-0.13848 0.13285,-0.95028 0.41329,-1.804 0.96643,-2.9419 0.47603,-3.9899 -1.3872,-2.9646 -0.66008,0.36322 -2.1845,1.9386 -2.1845,2.2575 0,0.37867 -1.8972,2.0081 -3.037,2.6084 -1.9724,1.0388 -2.9266,0.85559 -3.7636,-0.72247 -0.24344,-0.45899 -0.19405,-1.4267 0.0927,-1.8169 0.30246,-0.41151 0.99363,-2.2714 0.99363,-2.6739 0,-0.53689 -0.53651,-1.1629 -0.99669,-1.1629 -0.18199,0 -0.47985,-0.0797 -0.66191,-0.17714 -0.47459,-0.25399 -1.0358,-0.0619 -1.7289,0.59183 -0.67634,0.63796 -1.3882,0.88918 -2.5232,0.89052 -1.4232,0.002 -1.7675,0.37118 -2.2476,2.4125 -0.12377,0.52612 -0.32203,0.92455 -0.51017,1.0252 -0.16926,0.0906 -0.41938,0.3806 -0.55584,0.64447 -0.27744,0.53649 -1.372,1.6052 -1.9675,1.9211 -0.73436,0.38953 -1.7396,0.41043 -2.2894,0.0476 z"
         id="barn" />
    </g>
  </g>
</svg>
