<svg xmlns="http://www.w3.org/2000/svg" height="16.903" width="33.563"><path d="M8.684 5.664c-.3-.3-.239-.56.272-1.146 1.06-1.215 1.53-3.05.912-3.563a.67.67 0 01-.204-.55c.04-.28.181-.35.794-.39.7-.046.764-.015 1.045.507.472.877.152 2.122-1.119 4.353-.358.628-1.384 1.104-1.7.789zM1.7 16.644c-.275-.182-.752-.718-1.058-1.19-.803-1.24-.845-2.407-.17-4.677.278-.932.506-1.97.506-2.305 0-.336.178-1.484.396-2.55.218-1.067.479-2.638.58-3.491C2.127.962 2.42.145 2.777.145c.088 0 .306.146.484.325.287.286.314.472.232 1.591a22.715 22.715 0 01-.328 2.41 41.499 41.499 0 00-.39 2.286c-.247 1.81-.644 3.89-.812 4.245-.279.592-.494 1.621-.495 2.371-.002 1.014.745 1.956 1.55 1.956.449 0 .7-.16 1.416-.908.479-.499.934-1.068 1.012-1.265.078-.197.196-.505.263-.684.066-.18.287-.731.49-1.225.203-.494.484-1.229.623-1.633.14-.404.333-.788.43-.854.278-.19.79-.143 1.295.12.904.472 2.145.206 2.973-.636.437-.444 1.601-1.079 1.98-1.079.162 0 .65.253 1.085.562.435.31 1.004.609 1.265.666.595.131.964.645.964 1.345 0 .592-.537 2.32-.893 2.873-.337.525-.47 1.49-.259 1.884a.674.674 0 00.612.344c.56 0 2.414-1.043 2.783-1.565 1.056-1.499 3.532-3.986 3.966-3.986.186 0 .566-.118.844-.262 1.217-.629 2.047-.215 2.408 1.2.111.437.27.695.426.695.138 0 .647-.3 1.131-.666.867-.654 2.757-1.447 3.467-1.453.401-.004 1.53.476 1.717.73.066.09.233.547.37 1.015.368 1.252.132 4.112-.423 5.12-.483.877-1.042 1.054-1.287.408a1.197 1.197 0 01-.014-.804c.08-.21.193-1.22.25-2.244.137-2.466.028-2.69-1.278-2.645-.61.02-1.125.148-1.471.362-.975.602-2.555 2.484-3.485 4.15-.452.808-1.418 1.209-1.623.673-.054-.139.132-.95.413-1.804.966-2.942.476-3.99-1.387-2.965-.66.363-2.185 1.939-2.185 2.258 0 .378-1.897 2.008-3.037 2.608-1.972 1.039-2.926.856-3.763-.722-.244-.46-.195-1.427.092-1.817.303-.412.994-2.272.994-2.674 0-.537-.537-1.163-.997-1.163-.182 0-.48-.08-.662-.177-.474-.254-1.036-.062-1.729.592-.676.638-1.388.889-2.523.89-1.423.002-1.767.371-2.247 2.413-.124.526-.322.924-.51 1.025-.17.09-.42.38-.556.644-.278.537-1.372 1.605-1.968 1.921-.734.39-1.74.41-2.29.048z"/></svg>