<svg xmlns="http://www.w3.org/2000/svg" height="19.79" width="30.799"><path d="M10.23 8.046c-.324-.324-.34-.239.234-1.212.269-.457.49-.923.49-1.036 0-.113.08-.286.178-.384.174-.174.134-1.237-.104-2.769-.093-.597-.064-.69.244-.789.718-.227 1.64.903 1.64 2.01 0 .623-.452 2.415-.763 3.02-.27.527-1.184 1.405-1.47 1.412-.105.003-.307-.11-.449-.252zm17.39-.355c.38-.786.814-1.613.967-1.837.346-.51.978-2.585.978-3.214 0-.627-.42-1.194-.887-1.194-.542 0-.699.268-.912 1.554-.104.627-.246 1.252-.317 1.39-.07.138-.177.505-.236.816-.211 1.098-.473 2.037-.61 2.19-.077.086-.14.509-.14.94 0 1.203.364 1 1.157-.645zM16.715 19.494c-.917-.426-1.264-.847-1.417-1.723-.114-.649.226-2.449.6-3.183.555-1.09.643-1.38.54-1.79-.059-.235-.234-.474-.388-.53-.154-.057-.489-.274-.742-.483-.56-.461-1.266-.49-1.648-.069-.155.172-.473.36-.707.419-.233.058-.743.336-1.134.616-.615.442-.92.53-2.299.672l-1.59.162-.364.747c-.2.41-.511.967-.69 1.236-.18.27-.395.637-.478.816-.169.365-1.675 1.847-2.298 2.262-.44.293-1.881.37-2.043.11-.054-.087-.354-.28-.668-.43C.478 17.895.003 16.916 0 15.463c-.003-1.306.398-4.61.67-5.527.185-.625.772-3.788.973-5.24.256-1.86.637-2.466 1.322-2.1.42.225.415 1.403-.015 3.259-.34 1.465-1.133 5.727-1.246 6.694-.037.314-.14.982-.229 1.484-.231 1.31.083 2.458.824 3.005.305.225.691.409.858.409.358 0 1.592-.949 1.592-1.224 0-.104.19-.367.423-.585.423-.396 1.16-1.824 1.524-2.957.22-.685.763-1.439 1.035-1.439.101 0 .463.194.803.43.522.361.746.417 1.428.351.445-.043 1.008-.218 1.251-.388a18.03 18.03 0 011.111-.696c.368-.212.94-.597 1.272-.857.759-.594 1.058-.592 1.858.013.353.267.716.487.807.49.09.002.352.178.58.39.229.212.577.472.774.577.299.16.358.334.358 1.051 0 .473-.065.93-.145 1.015-.198.212-1.16 3.095-1.16 3.477 0 .17.151.501.337.738.838 1.065 2.62.24 5.223-2.417 1.657-1.692 2.098-2.804 2.596-6.557.072-.548.214-1.15.314-1.336.1-.188.182-.49.182-.672 0-.183.102-.573.227-.868.125-.295.468-1.381.762-2.414C27.183.502 27.663-.16 28.874.03c.75.117 1.59 1.01 1.858 1.975.227.815-.163 3.025-.65 3.683-.169.23-.362.6-.43.822a3.967 3.967 0 01-.38.813c-.143.225-.521.923-.84 1.552-.32.629-1.076 1.88-1.681 2.782-1.819 2.71-2.237 4.833-1.218 6.17.663.868.52 1.578-.316 1.578-.46 0-1.445-1.172-1.647-1.96-.217-.846-.808-.865-1.513-.049-.592.685-1.223 1.112-2.696 1.825-1.426.69-1.688.716-2.646.273z"/></svg>