<?xml version="1.0" encoding="UTF-8" standalone="no"?>
<svg
   xmlns:dc="http://purl.org/dc/elements/1.1/"
   xmlns:cc="http://creativecommons.org/ns#"
   xmlns:rdf="http://www.w3.org/1999/02/22-rdf-syntax-ns#"
   xmlns:svg="http://www.w3.org/2000/svg"
   xmlns="http://www.w3.org/2000/svg"
   id="svg2094"
   viewBox="0 0 30.798589 19.789751"
   version="1.1"
   height="19.789751"
   width="30.79859">
  <defs
     id="defs2098" />
  <metadata
     id="metadata2">
    <rdf:RDF>
      <cc:Work
         rdf:about="">
        <dc:format>image/svg+xml</dc:format>
        <dc:type
           rdf:resource="http://purl.org/dc/dcmitype/StillImage" />
        <dc:title />
      </cc:Work>
    </rdf:RDF>
  </metadata>
  <g
     transform="translate(-406.67963,-502.39365)"
     id="g2092">
    <g
       style="stroke-width:0.16327"
       id="g2081">
      <path
         d="m 416.91,510.44 c -0.3244,-0.32441 -0.34076,-0.23933 0.23324,-1.2128 0.26938,-0.45688 0.48979,-0.92297 0.48979,-1.0358 0,-0.11279 0.0804,-0.28545 0.17865,-0.38371 0.17404,-0.17404 0.13397,-1.2367 -0.10441,-2.7686 -0.093,-0.5977 -0.0641,-0.69107 0.24467,-0.78906 0.71724,-0.22764 1.6403,0.90292 1.6403,2.0091 0,0.62387 -0.45285,2.4158 -0.76324,3.0202 -0.27102,0.52767 -1.1845,1.4054 -1.47,1.4125 -0.10583,0.003 -0.30787,-0.11066 -0.44898,-0.25177 z m 17.39,-0.3557 c 0.37889,-0.78572 0.81382,-1.6122 0.96652,-1.8367 0.34645,-0.50935 0.97858,-2.5852 0.97858,-3.2135 0,-0.62766 -0.4211,-1.1947 -0.88723,-1.1947 -0.5419,0 -0.69919,0.268 -0.9124,1.5546 -0.10383,0.62662 -0.24633,1.2519 -0.31668,1.3895 -0.0703,0.13765 -0.1768,0.505 -0.23657,0.81633 -0.21083,1.098 -0.47236,2.0372 -0.60996,2.1906 -0.0766,0.0853 -0.1392,0.50775 -0.1392,0.93877 0,1.2035 0.36325,1.001 1.1569,-0.64489 z m -10.905,11.803 c -0.91787,-0.42527 -1.2648,-0.84674 -1.4176,-1.7224 -0.11329,-0.64927 0.22586,-2.4492 0.59974,-3.183 0.55554,-1.0903 0.64336,-1.3811 0.54065,-1.7903 -0.059,-0.23525 -0.23373,-0.47383 -0.38819,-0.53015 -0.15447,-0.0564 -0.48852,-0.2736 -0.74235,-0.48281 -0.55963,-0.46124 -1.2657,-0.49061 -1.6477,-0.0685 -0.15522,0.17151 -0.47326,0.35978 -0.70674,0.41838 -0.23349,0.0586 -0.74363,0.33572 -1.1337,0.61582 -0.61526,0.44186 -0.91961,0.53079 -2.2993,0.67195 l -1.5902,0.16269 -0.36436,0.74639 c -0.20039,0.41051 -0.51102,0.96679 -0.69027,1.2362 -0.17926,0.26939 -0.39394,0.63673 -0.47707,0.81632 -0.16892,0.3649 -1.6749,1.8472 -2.2982,2.262 -0.44039,0.2931 -1.8814,0.37052 -2.0426,0.10977 -0.054,-0.0874 -0.35473,-0.28064 -0.66826,-0.42942 -0.91133,-0.43246 -1.3862,-1.4116 -1.3892,-2.8644 -0.003,-1.3057 0.39791,-4.6105 0.66987,-5.5269 0.18556,-0.62527 0.77251,-3.7879 0.97267,-5.2411 0.25613,-1.8594 0.63785,-2.4656 1.322,-2.0995 0.42064,0.22511 0.41537,1.4033 -0.0145,3.259 -0.33959,1.4656 -1.133,5.7272 -1.2462,6.6939 -0.0368,0.31429 -0.13964,0.98238 -0.22847,1.4847 -0.23178,1.3103 0.0827,2.4579 0.82331,3.0043 0.3049,0.22495 0.69133,0.409 0.85874,0.409 0.35765,0 1.5914,-0.94841 1.5914,-1.2234 0,-0.104 0.19038,-0.36722 0.42307,-0.58492 0.42329,-0.39602 1.1595,-1.8244 1.5241,-2.957 0.22062,-0.68527 0.76289,-1.4388 1.0354,-1.4388 0.1009,0 0.4621,0.19309 0.80266,0.42911 0.52215,0.36186 0.74599,0.41693 1.4281,0.35139 0.44489,-0.0428 1.0078,-0.21748 1.2509,-0.38829 0.24315,-0.17083 0.74325,-0.48387 1.1113,-0.69566 0.36809,-0.21179 0.94044,-0.5975 1.2719,-0.85714 0.7585,-0.59412 1.0582,-0.592 1.858,0.0132 0.35272,0.26689 0.71555,0.4873 0.80626,0.4898 0.0907,0.002 0.35204,0.17804 0.58075,0.39009 0.22868,0.21206 0.57691,0.47179 0.77383,0.57717 0.29893,0.15999 0.35804,0.33351 0.35804,1.0512 0,0.47275 -0.0653,0.92935 -0.1452,1.0147 -0.1982,0.21174 -1.1609,3.0953 -1.1609,3.4772 0,0.16903 0.15228,0.5009 0.33839,0.73749 0.83781,1.0651 2.6198,0.24046 5.223,-2.417 1.657,-1.6915 2.0973,-2.804 2.5953,-6.5569 0.0727,-0.54774 0.2141,-1.149 0.31427,-1.3362 0.10018,-0.18718 0.18214,-0.4896 0.18214,-0.67205 0,-0.18245 0.10218,-0.57299 0.22708,-0.86788 0.1249,-0.29488 0.46782,-1.381 0.76206,-2.4137 0.87368,-3.0662 1.3533,-3.7278 2.565,-3.5382 0.74986,0.11734 1.5899,1.0103 1.8582,1.9753 0.22655,0.8148 -0.16347,3.0248 -0.64992,3.6828 -0.1696,0.2294 -0.36307,0.59934 -0.42994,0.82209 -0.0669,0.22276 -0.23839,0.58868 -0.38112,0.81317 -0.14274,0.22449 -0.52081,0.9227 -0.84014,1.5516 -0.31935,0.62886 -1.0756,1.8811 -1.6805,2.7827 -1.8184,2.7104 -2.2372,4.8324 -1.2174,6.1695 0.66231,0.86832 0.51989,1.5779 -0.3167,1.5779 -0.45993,0 -1.4445,-1.1715 -1.6465,-1.9592 -0.21704,-0.84624 -0.80793,-0.86548 -1.5136,-0.0493 -0.59213,0.68484 -1.2231,1.1118 -2.6957,1.8243 -1.4255,0.68963 -1.6884,0.71678 -2.6456,0.27329 z"
         id="barrel" />
    </g>
  </g>
</svg>
