<svg xmlns="http://www.w3.org/2000/svg" height="16.911" width="44.979"><path d="M12.156 5.54c-.21-.21-.105-.756.259-1.341.318-.512.368-.816.371-2.278.003-1.42.048-1.712.284-1.844.426-.238.86.082 1.174.866.221.553.243.823.11 1.351a14.87 14.87 0 00-.269 1.443c-.07.544-.252.955-.596 1.347-.46.524-1.06.729-1.333.456zm5.647 8.15c.752-.77 1.102-1.75 1.102-3.082 0-1.224.044-1.208-1.75-.635-.699.224-1.565.411-1.924.418-1.137.02-1.952.225-2.006.504-.028.144.126.473.34.732.216.259.437.654.492.879.055.224.379.717.719 1.094.582.645.672.686 1.524.693.836.008.951-.038 1.503-.603zm-16.64 2.669C.43 15.579.14 14.939.026 13.857c-.114-1.105.162-4.497.509-6.249.134-.673.39-2.143.569-3.265.479-3.004.594-3.469.92-3.707.391-.286.602-.196.79.336.155.436.115.793-.489 4.432-.134.808-.397 2.608-.584 4-.187 1.392-.378 2.77-.423 3.064-.147.95.104 1.972.635 2.576.57.649.94.698 1.958.26.617-.265.785-.458 1.317-1.51.886-1.753 1.105-2.384 1.105-3.182 0-1.124.289-1.232 2.865-1.067 1.268.081 2.31.074 2.604-.017.27-.084.968-.21 1.551-.28 1.657-.196 3.433-.508 4.327-.758a13.97 13.97 0 011.575-.33c.678-.091.784-.06.998.285.346.56-.004 4.012-.507 4.993-.435.849-.437.978-.024 1.11.647.205 2.629-1.028 4.037-2.512a86.147 86.147 0 011.52-1.57c.185-.18.645-.625 1.022-.988 1.006-.971 2.15-1.441 3.28-1.347.966.08 1.429.366 1.78 1.1.255.536.81.616 1.219.177.662-.71 3.121-1.35 4.174-1.087.2.05.583.387.85.747.312.422.614.656.851.659.202.002.368-.056.368-.13 0-.073.312-.306.693-.518.382-.212.732-.441.78-.51.158-.233 1.654-.798 2.112-.798.58 0 1.616.424 2.079.852.533.493.633 1.742.3 3.758-.308 1.856-.754 3.064-1.133 3.064-.279 0-.916-.623-.908-.888.003-.095.148-.577.322-1.071.226-.645.317-1.345.32-2.484.007-1.785-.082-1.924-1.226-1.924-.461 0-.78.15-1.38.653-.43.359-.894.653-1.032.653-.29 0-.927.825-.927 1.199 0 .138-.068.292-.15.343-.212.131-1.32 2.408-1.32 2.712 0 .382-.34.644-.838.644-.592 0-.713-.427-.377-1.33.332-.894.54-1.976.552-2.882.02-1.387-1.455-2.024-2.536-1.095-.26.225-.576.408-.701.409-.309 0-1.724 1.521-2.045 2.197-.142.3-.259.718-.259.927 0 .21-.192.762-.428 1.227-.471.932-.982 1.218-1.337.748-.217-.286-.2-.506.135-1.834.416-1.643.54-3.191.298-3.69-.199-.409-.319-.472-.883-.462-.437.008-.798.137-1.087.388a4.763 4.763 0 01-.807.564 1.52 1.52 0 00-.575.588c-.19.382-.76 1.003-1.99 2.17-1.425 1.353-1.917 1.748-2.174 1.748a.52.52 0 00-.41.224c-.07.124-.534.436-1.028.694-.828.433-1.03.47-2.612.46-2.537-.014-3.415-.32-4.653-1.622-1.075-1.13-1.631-2.44-1.354-3.189.214-.577-.085-.663-2.127-.613l-1.85.046-.472.572c-.26.314-.476.681-.479.816-.003.135-.134.465-.292.735a7.593 7.593 0 00-.513 1.142c-.123.36-.269.69-.324.735-.054.045-.237.353-.405.684-.169.332-.426.651-.572.71-.72.289-2.077.565-2.763.562-.658-.003-.84-.081-1.284-.552z"/></svg>