<?xml version="1.0" encoding="UTF-8" standalone="no"?>
<svg
   xmlns:dc="http://purl.org/dc/elements/1.1/"
   xmlns:cc="http://creativecommons.org/ns#"
   xmlns:rdf="http://www.w3.org/1999/02/22-rdf-syntax-ns#"
   xmlns:svg="http://www.w3.org/2000/svg"
   xmlns="http://www.w3.org/2000/svg"
   id="svg2094"
   viewBox="0 0 19.782054 17.358128"
   version="1.1"
   height="17.358128"
   width="19.782055">
  <defs
     id="defs2098" />
  <metadata
     id="metadata2">
    <rdf:RDF>
      <cc:Work
         rdf:about="">
        <dc:format>image/svg+xml</dc:format>
        <dc:type
           rdf:resource="http://purl.org/dc/dcmitype/StillImage" />
        <dc:title />
      </cc:Work>
    </rdf:RDF>
  </metadata>
  <g
     transform="translate(-405.72106,-528.40395)"
     id="g2092">
    <g
       style="stroke-width:0.16327"
       id="g2081">
      <path
         d="m 416.6,534.75 c -0.25413,-0.25412 -0.0734,-0.87411 0.40348,-1.3841 0.56991,-0.60949 1.1203,-2.0181 1.1203,-2.8673 0,-0.30468 -0.10968,-0.76609 -0.24374,-1.0253 -0.28627,-0.55359 -0.19113,-0.91541 0.27255,-1.0367 0.5121,-0.13391 1.0721,0.15322 1.3511,0.69278 0.35922,0.69465 0.32327,2.0934 -0.0738,2.8723 -0.17959,0.35227 -0.32653,0.73514 -0.32653,0.85084 0,0.11571 -0.0561,0.21039 -0.1246,0.21039 -0.0685,0 -0.44018,0.40408 -0.82591,0.89796 -0.66237,0.8481 -1.2137,1.1283 -1.5529,0.78911 z m -8.8909,10.691 c -0.73676,-0.35722 -1.4745,-1.2732 -1.804,-2.2398 -0.23206,-0.68086 -0.24906,-2.2459 -0.0259,-2.3838 0.0898,-0.0555 0.16327,-0.40931 0.16327,-0.78625 0,-0.37695 0.17861,-1.493 0.39693,-2.4802 0.21831,-0.98713 0.4428,-2.5295 0.49887,-3.4275 0.0561,-0.89796 0.21762,-2.1971 0.359,-2.887 0.22795,-1.1123 0.30898,-1.2758 0.71576,-1.4443 0.25229,-0.10449 0.5366,-0.14184 0.63182,-0.083 0.23863,0.14748 0.2074,1.386 -0.0743,2.9449 -0.1298,0.71836 -0.23744,1.822 -0.2392,2.4525 -0.002,0.67665 -0.14211,1.6133 -0.34218,2.2857 -0.18641,0.62662 -0.37113,1.3597 -0.41046,1.6291 -0.54033,3.7004 -0.4872,4.2034 0.50898,4.8191 1.2965,0.80126 2.6983,-0.12208 3.6332,-2.393 0.29055,-0.70578 0.5284,-1.4302 0.52856,-1.6098 1.5e-4,-0.17959 0.18349,-0.72015 0.40746,-1.2012 0.37628,-0.80829 0.44046,-0.86633 0.84558,-0.76465 0.24113,0.0605 0.62657,0.24346 0.85653,0.40653 0.58411,0.41419 2.203,0.71724 3.2034,0.59966 0.74148,-0.0871 2.1449,-0.47706 4.8882,-1.3581 0.44898,-0.14418 1.1166,-0.43474 1.4837,-0.64567 0.36707,-0.21092 0.78692,-0.38349 0.93303,-0.38349 0.63629,0 0.76731,1.0942 0.51578,4.3076 -0.17805,2.2746 -0.95484,3.6316 -2.4322,4.2489 -1.6665,0.69632 -3.4431,-0.25277 -4.0564,-2.1671 -0.33801,-1.0549 -0.3429,-1.1806 -0.0611,-1.5661 0.21318,-0.29153 0.23443,-0.29151 0.72867,0 0.30052,0.17752 0.54947,0.48455 0.60764,0.74942 0.0542,0.24679 0.31453,0.74682 0.57848,1.1112 0.37977,0.52427 0.58363,0.66252 0.9768,0.66252 1.3788,0 2.0526,-1.1144 2.1394,-3.5383 0.0295,-0.82362 0.005,-1.5467 -0.0556,-1.6068 -0.1,-0.1 -0.77885,0.069 -1.7333,0.43135 -0.20625,0.0783 -0.52143,0.14238 -0.70037,0.14238 -0.17894,0 -0.59793,0.13595 -0.93109,0.30211 -0.91358,0.45562 -2.8369,0.7088 -4.9323,0.64922 l -1.8776,-0.0534 -0.48979,1.4378 c -0.47419,1.392 -0.84761,1.9536 -2.2041,3.3149 -0.89983,0.90302 -2.0611,1.0913 -3.2313,0.52398 z"
         id="base" />
    </g>
  </g>
</svg>
