<?xml version="1.0" encoding="UTF-8" standalone="no"?>
<svg
   xmlns:dc="http://purl.org/dc/elements/1.1/"
   xmlns:cc="http://creativecommons.org/ns#"
   xmlns:rdf="http://www.w3.org/1999/02/22-rdf-syntax-ns#"
   xmlns:svg="http://www.w3.org/2000/svg"
   xmlns="http://www.w3.org/2000/svg"
   id="svg2094"
   viewBox="0 0 44.978957 16.911316"
   version="1.1"
   height="16.911316"
   width="44.978958">
  <defs
     id="defs2098" />
  <metadata
     id="metadata2">
    <rdf:RDF>
      <cc:Work
         rdf:about="">
        <dc:format>image/svg+xml</dc:format>
        <dc:type
           rdf:resource="http://purl.org/dc/dcmitype/StillImage" />
        <dc:title />
      </cc:Work>
    </rdf:RDF>
  </metadata>
  <g
     transform="translate(-405.09364,-601.85996)"
     id="g2092">
    <g
       style="stroke-width:0.16327"
       id="g2081">
      <path
         d="m 417.25,607.4 c -0.2104,-0.2104 -0.10516,-0.75652 0.25849,-1.3413 0.31827,-0.51178 0.36787,-0.81612 0.3712,-2.2778 0.003,-1.4206 0.048,-1.7118 0.28355,-1.8436 0.42623,-0.23853 0.86075,0.0816 1.1743,0.86524 0.22124,0.55296 0.24305,0.82294 0.10916,1.3517 -0.092,0.36339 -0.21257,1.0128 -0.26789,1.4431 -0.0698,0.54333 -0.25201,0.95491 -0.59623,1.3469 -0.45957,0.52343 -1.0596,0.72864 -1.3326,0.45569 z m 5.6469,8.1496 c 0.75158,-0.77006 1.1014,-1.7488 1.1014,-3.0818 0,-1.2236 0.0447,-1.2074 -1.7489,-0.63463 -0.69935,0.22335 -1.5654,0.41125 -1.9246,0.41758 -1.1371,0.02 -1.9523,0.22482 -2.006,0.504 -0.0277,0.14381 0.12564,0.47329 0.34076,0.73222 0.21511,0.2589 0.43617,0.65441 0.49125,0.8789 0.0551,0.22449 0.3785,0.71664 0.71871,1.0937 0.58217,0.64517 0.67184,0.68599 1.5242,0.69387 0.83628,0.008 0.9514,-0.0385 1.5032,-0.60386 z m -16.64,2.6694 c -0.73294,-0.7793 -1.0244,-1.4206 -1.1368,-2.502 -0.11495,-1.1048 0.16115,-4.4974 0.50857,-6.249 0.13359,-0.67347 0.38942,-2.1428 0.56854,-3.2653 0.47928,-3.0036 0.59476,-3.4685 0.92067,-3.7068 0.39104,-0.28593 0.60222,-0.19618 0.79026,0.33587 0.1541,0.43605 0.11469,0.79335 -0.48902,4.4322 -0.13409,0.80816 -0.39706,2.6082 -0.58439,4 -0.18733,1.3918 -0.37778,2.7705 -0.42323,3.0638 -0.14732,0.95056 0.10431,1.9717 0.63471,2.5758 0.56973,0.6489 0.94019,0.69818 1.9585,0.26049 0.61734,-0.26535 0.78502,-0.45765 1.3168,-1.5102 0.88571,-1.7531 1.1049,-2.3841 1.1049,-3.1815 0,-1.1245 0.28896,-1.2322 2.865,-1.0674 1.2678,0.0811 2.3107,0.0741 2.6044,-0.0174 0.26939,-0.0839 0.96735,-0.20939 1.551,-0.27882 1.6568,-0.19707 3.4332,-0.50858 4.3265,-0.75871 0.44898,-0.12574 1.1578,-0.27434 1.575,-0.33026 0.67838,-0.0909 0.78409,-0.0607 0.99836,0.28557 0.34642,0.55975 -0.004,4.0117 -0.50687,4.993 -0.43474,0.84834 -0.4376,0.97781 -0.0245,1.1089 0.6471,0.20539 2.6293,-1.0273 4.0374,-2.5108 0.6498,-0.68457 1.3335,-1.3916 1.5193,-1.5712 0.18581,-0.1796 0.64599,-0.62404 1.0226,-0.98765 1.0058,-0.97098 2.1499,-1.4408 3.2806,-1.347 0.96577,0.0801 1.4283,0.36605 1.7788,1.0998 0.25613,0.53619 0.81012,0.61686 1.2194,0.17757 0.66216,-0.71076 3.1216,-1.3509 4.1746,-1.0866 0.20023,0.0503 0.58219,0.38616 0.84877,0.74644 0.31241,0.4222 0.61528,0.65642 0.85205,0.65892 0.20204,0.002 0.36735,-0.0561 0.36735,-0.12936 0,-0.0732 0.31224,-0.30654 0.69388,-0.51843 0.38163,-0.21187 0.73208,-0.44117 0.77879,-0.50957 0.1591,-0.23299 1.655,-0.79797 2.1128,-0.79797 0.58076,0 1.6155,0.42395 2.0788,0.85172 0.53353,0.49262 0.63309,1.7416 0.29957,3.7578 -0.307,1.8559 -0.75329,3.0639 -1.1319,3.0639 -0.27927,0 -0.91633,-0.62288 -0.90818,-0.88794 0.003,-0.0953 0.14747,-0.57737 0.32121,-1.0712 0.22679,-0.64473 0.31737,-1.3452 0.3212,-2.484 0.006,-1.7845 -0.083,-1.9241 -1.2266,-1.9241 -0.46152,0 -0.78066,0.15099 -1.3803,0.65306 -0.42901,0.35919 -0.89339,0.65306 -1.032,0.65306 -0.28909,0 -0.92723,0.82534 -0.92723,1.1992 0,0.13798 -0.0674,0.29252 -0.14975,0.34341 -0.21144,0.1307 -1.3196,2.408 -1.3196,2.7119 0,0.38152 -0.34113,0.64344 -0.83798,0.64344 -0.59198,0 -0.71309,-0.42641 -0.3775,-1.3291 0.33267,-0.89486 0.54012,-1.9767 0.55269,-2.8824 0.0192,-1.3876 -1.4556,-2.0243 -2.5363,-1.0948 -0.2609,0.22438 -0.57652,0.40805 -0.70141,0.40817 -0.30826,0 -1.7238,1.5217 -2.0445,2.1974 -0.1425,0.30033 -0.2591,0.71756 -0.2591,0.92719 0,0.20963 -0.19252,0.76165 -0.42782,1.2267 -0.47176,0.93241 -0.98208,1.2179 -1.3376,0.7484 -0.21683,-0.28635 -0.20057,-0.50668 0.13533,-1.8342 0.41571,-1.643 0.54075,-3.1912 0.29806,-3.6903 -0.19866,-0.4085 -0.31907,-0.47141 -0.88343,-0.46147 -0.43623,0.008 -0.79739,0.13671 -1.0866,0.38817 -0.23823,0.20715 -0.6015,0.46057 -0.80723,0.56313 -0.20573,0.10256 -0.46426,0.36743 -0.57451,0.58857 -0.19045,0.38198 -0.7595,1.0026 -1.99,2.1703 -1.4253,1.3526 -1.9169,1.7477 -2.1744,1.7477 -0.15316,0 -0.33724,0.10088 -0.40904,0.2242 -0.0718,0.1233 -0.53465,0.43554 -1.0285,0.69387 -0.82834,0.43328 -1.0309,0.46894 -2.6122,0.45999 -2.5369,-0.0144 -3.4151,-0.32054 -4.6531,-1.6224 -1.0748,-1.1302 -1.6311,-2.44 -1.3542,-3.1886 0.2137,-0.57768 -0.0847,-0.66369 -2.1272,-0.613 l -1.8488,0.0459 -0.47334,0.57143 c -0.26034,0.31429 -0.47561,0.68163 -0.47835,0.81633 -0.003,0.13469 -0.13442,0.4653 -0.29257,0.73469 -0.15816,0.26939 -0.38864,0.78367 -0.5122,1.1429 -0.12354,0.35918 -0.26937,0.68979 -0.32406,0.73469 -0.0547,0.0449 -0.23726,0.35283 -0.40572,0.6843 -0.16844,0.33146 -0.42558,0.65056 -0.57143,0.70909 -0.72052,0.28919 -2.0769,0.56547 -2.7629,0.56277 -0.65809,-0.003 -0.84119,-0.0813 -1.284,-0.55209 z"
         id="basement" />
    </g>
  </g>
</svg>
