<svg xmlns="http://www.w3.org/2000/svg" height="20.728" width="23.621"><path d="M10.667 5.953c-.068-.213.043-.585.307-1.036.78-1.33 1.147-2.897.772-3.294-.08-.085-.195-.457-.255-.827-.098-.599-.07-.682.245-.765.473-.124 1.123.138 1.232.496.049.158.206.528.35.82.27.552.269.567-.265 2.581-.073.276-.4.919-.726 1.429-.501.783-.668.927-1.074.927-.34 0-.512-.097-.586-.331zm-8.86 11.162C1.272 17 .122 15.372.015 14.575c-.048-.36.03-1.362.175-2.228.145-.865.38-3.19.523-5.165.337-4.665.522-6.277.75-6.552.283-.342.762-.267 1.044.164.215.327.228.576.083 1.592-.094.662-.242 2.526-.327 4.143-.16 3.009-.189 3.31-.498 5.143a29.253 29.253 0 00-.262 2.157c-.078 1.014-.053 1.128.332 1.513.362.362.508.403 1.115.313 1.215-.182 2.773-2.054 3.17-3.808.181-.805.777-2.38.948-2.508.244-.181 1.264-.006 1.418.244.202.326 2.473.358 4.225.06 1.87-.319 2.803-.604 4.373-1.335 1.892-.882 2.255-.752 2.204.787-.065 1.98-.412 4.455-.704 5.026-.408.796-1.07 1.354-2.1 1.768-1.077.434-1.423.44-2.35.043-.777-.333-1.131-.742-1.811-2.091-.7-1.388-.463-2.223.458-1.62.386.253.45.378.652 1.287.061.277.345.611.74.873.59.39.691.408 1.263.225.341-.11.731-.29.866-.4.135-.11.375-.245.533-.301.159-.056.351-.27.428-.474.214-.571.554-3.2.449-3.475-.128-.333-.566-.305-1.328.083-.353.18-.756.327-.897.327-.14 0-.4.098-.577.217-.441.298-3.731.656-5.67.618-1.432-.029-1.591-.002-1.592.26 0 .161-.104.49-.23.73-.125.241-.281.68-.346.976-.225 1.024-1.91 3.154-2.878 3.637-.547.272-1.798.436-2.385.31zm12.175 3.506c-.573-.201-.751-.733-.35-1.038.229-.173.968-.23 3.077-.238 1.526-.006 3.477-.11 4.335-.233 1.89-.27 2.407-.2 2.544.346.209.831-.481.999-4.594 1.115-1.706.048-3.432.114-3.836.145-.404.032-.934-.012-1.176-.097z"/></svg>