<?xml version="1.0" encoding="UTF-8" standalone="no"?>
<svg
   xmlns:dc="http://purl.org/dc/elements/1.1/"
   xmlns:cc="http://creativecommons.org/ns#"
   xmlns:rdf="http://www.w3.org/1999/02/22-rdf-syntax-ns#"
   xmlns:svg="http://www.w3.org/2000/svg"
   xmlns="http://www.w3.org/2000/svg"
   id="svg2094"
   viewBox="0 0 47.977782 20.204029"
   version="1.1"
   height="20.204029"
   width="47.977783">
  <defs
     id="defs2098" />
  <metadata
     id="metadata2">
    <rdf:RDF>
      <cc:Work
         rdf:about="">
        <dc:format>image/svg+xml</dc:format>
        <dc:type
           rdf:resource="http://purl.org/dc/dcmitype/StillImage" />
        <dc:title />
      </cc:Work>
    </rdf:RDF>
  </metadata>
  <g
     transform="translate(-405.65388,-550.07728)"
     id="g2092">
    <g
       style="stroke-width:0.16327"
       id="g2081">
      <path
         d="m 418.29,559.18 c -0.18103,-0.33826 0.11432,-1.1576 0.50408,-1.3986 0.26369,-0.16296 1.1275,-2.0527 1.1277,-2.4669 6e-5,-0.1946 -0.14436,-0.69089 -0.32097,-1.1029 -0.36889,-0.86062 -0.29476,-1.2372 0.24358,-1.2372 0.66134,0 0.8991,0.18449 1.3276,1.0302 0.33794,0.66689 0.39938,0.96662 0.31874,1.555 -0.0549,0.40087 -0.16096,0.80972 -0.23559,0.90858 -0.0746,0.0988 -0.23771,0.43688 -0.3624,0.75116 -0.21502,0.54199 -0.60202,1.0654 -1.4124,1.9104 -0.44268,0.46155 -0.95853,0.48333 -1.1903,0.0502 z m 23.945,0.30004 c -0.11904,-0.45521 0.20797,-1.0461 1.0089,-1.8231 0.53729,-0.52124 0.66069,-0.76635 0.75143,-1.4926 0.0781,-0.625 0.0368,-1.0407 -0.14703,-1.4807 -0.49406,-1.1824 0.40538,-1.4319 1.2757,-0.35375 0.42171,0.52242 0.49915,0.75551 0.4888,1.4714 -0.0157,1.0811 -0.42872,1.8817 -1.5952,3.0916 -0.98663,1.0234 -1.6144,1.2302 -1.7826,0.58723 z m -5.9023,-4.0156 c 0.49492,-1.0338 0.72197,-1.7584 0.84844,-2.7077 0.0771,-0.57844 0.0551,-0.62186 -0.28962,-0.57142 -0.23275,0.0341 -0.41642,0.20806 -0.48844,0.46276 -0.43206,1.528 -0.55368,1.8952 -0.67324,2.0326 -0.18122,0.20841 -0.17308,1.7224 0.009,1.7224 0.0793,0 0.3464,-0.42245 0.59358,-0.93878 z m 14.401,2.3092 c -0.0545,-0.0545 0.0397,-0.24788 0.20918,-0.42981 0.42099,-0.45189 1.0978,-1.8775 1.2216,-2.5732 0.24955,-1.4023 0.26857,-1.763 0.0985,-1.8681 -0.0982,-0.0607 -0.1786,-0.28971 -0.1786,-0.5089 0,-0.2192 -0.0718,-0.39853 -0.15949,-0.39853 -0.29721,0 -0.63218,0.73037 -0.82366,1.7959 -0.1049,0.58368 -0.33068,1.6992 -0.50174,2.479 -0.37504,1.7096 -0.37245,1.6026 -0.0389,1.6026 0.14965,0 0.22754,-0.0446 0.17309,-0.099 z m -43.976,11.895 c -1.0446,-1.1121 -1.1084,-1.2738 -1.1036,-2.798 0.003,-0.97781 0.15878,-2.0774 0.51133,-3.6101 0.27884,-1.2122 0.58916,-2.8286 0.6896,-3.5918 0.23884,-1.8151 0.79592,-4.5578 1.0179,-5.0118 0.20982,-0.42895 0.46894,-0.54803 0.93011,-0.42743 0.29843,0.078 0.34229,0.21215 0.34229,1.0468 0,0.84202 -0.15622,1.4794 -0.65641,2.6781 -0.0749,0.17959 -0.1707,1.098 -0.21277,2.0408 -0.0494,1.1066 -0.19348,2.0616 -0.40643,2.6939 -0.18145,0.53878 -0.37585,1.3469 -0.43202,1.7959 -0.0561,0.44898 -0.18013,1.1841 -0.27551,1.6335 -0.22132,1.043 0.0333,2.0948 0.59643,2.4638 0.69348,0.4544 1.5827,0.17742 2.2724,-0.70782 0.32104,-0.41206 0.5837,-0.82205 0.5837,-0.91108 0,-0.089 0.1729,-0.38923 0.38423,-0.66709 0.21132,-0.27786 0.43884,-0.87159 0.5056,-1.3194 0.0668,-0.4478 0.22222,-1.0092 0.3455,-1.2476 0.23764,-0.45952 1.1363,-0.88932 1.3013,-0.62235 0.0523,0.0846 1.1723,0.15352 2.4939,0.15352 1.8454,0 2.6438,-0.0698 3.4598,-0.30258 0.58338,-0.16642 1.4036,-0.35368 1.8228,-0.41615 0.41911,-0.0625 1.5212,-0.40251 2.449,-0.75565 2.1423,-0.81542 2.1656,-0.79744 2.0117,1.556 -0.10872,1.6629 -0.36883,2.8666 -0.75202,3.4801 -0.3055,0.48921 -0.12819,0.56903 0.97866,0.44058 0.79772,-0.0926 1.2012,-0.26209 2.1733,-0.91303 0.65654,-0.43963 1.2672,-0.80075 1.357,-0.80252 0.0898,-0.002 0.5784,-0.39667 1.0858,-0.8776 1.6376,-1.5522 2.7198,-3.5946 2.9959,-5.6541 0.0662,-0.49388 0.22099,-1.1551 0.34397,-1.4694 0.12297,-0.31428 0.43428,-1.3796 0.69178,-2.3673 0.66848,-2.5641 1.8944,-4.8396 2.7188,-5.0465 1.5926,-0.39972 2.1958,1.4254 1.2902,3.9037 -0.2297,0.62857 -0.47504,1.3633 -0.54521,1.6326 -0.26134,1.0032 -2.1397,4.5261 -2.7856,5.2245 -0.8315,0.89901 -1.6258,3.022 -1.9749,5.2786 -0.24086,1.5568 -0.15524,1.8203 0.66825,2.0565 0.47162,0.13526 0.57399,0.10576 0.84544,-0.24366 0.16987,-0.21866 0.44114,-0.54451 0.6028,-0.7241 0.16169,-0.17959 0.50554,-0.69388 0.76413,-1.1429 0.2586,-0.44898 0.52706,-0.84049 0.59656,-0.87004 0.0695,-0.0295 0.39358,-0.56219 0.72016,-1.1837 0.66435,-1.2642 0.99862,-1.4048 1.9547,-0.82176 0.74189,0.45239 1.3488,0.53768 2.3538,0.33074 0.49388,-0.1017 1.1918,-0.23778 1.551,-0.3024 0.75383,-0.13559 3.905,-1.6275 4.449,-2.1063 0.20204,-0.17784 0.36783,-0.45853 0.36842,-0.62372 0,-0.16519 0.14704,-0.52077 0.32546,-0.79015 0.17841,-0.26939 0.32486,-0.72702 0.32545,-1.017 0,-0.28996 0.18145,-1.0645 0.40191,-1.7212 0.22046,-0.65673 0.636,-2.1792 0.92344,-3.3833 0.58169,-2.4366 0.88833,-2.9397 1.7919,-2.9397 0.65735,0 1.6185,0.58394 1.6185,0.98327 0,0.16697 0.065,0.34375 0.14442,0.39285 0.24827,0.15342 0.34951,1.4509 0.16652,2.1341 -0.0962,0.35918 -0.22901,1.0016 -0.29515,1.4276 -0.0677,0.43569 -0.27597,0.94025 -0.47618,1.1534 -0.19577,0.20838 -0.35594,0.45698 -0.35594,0.55244 0,0.0955 -0.11445,0.26856 -0.25433,0.38464 -0.13989,0.1161 -0.36018,0.46441 -0.48955,0.77404 -0.12937,0.30963 -0.54758,0.88021 -0.92934,1.268 -1.7059,1.7326 -2.0687,2.1708 -2.1672,2.6171 -0.15533,0.70328 -0.48167,1.6317 -1.0568,3.0065 -0.44012,1.0522 -0.50265,1.3738 -0.44426,2.2857 0.0374,0.58368 0.11551,1.2082 0.17365,1.3878 0.15907,0.49148 -0.27444,0.96065 -0.77217,0.83572 -0.6429,-0.16135 -1.1542,-1.0173 -1.1171,-1.8701 0.0303,-0.69545 0.65197,-2.7141 1.1285,-3.6643 0.44155,-0.88042 0.0319,-0.96568 -1.6633,-0.34614 -0.62857,0.22973 -1.4279,0.48784 -1.7762,0.57357 -0.34837,0.0857 -0.77345,0.23082 -0.94463,0.32243 -0.17119,0.0916 -1.0655,0.16774 -1.9873,0.16918 l -1.6761,0.003 -1.0936,1.2924 c -0.60146,0.71084 -1.0936,1.3575 -1.0936,1.4371 0,0.28976 -1.4314,1.4546 -2.0305,1.6522 -0.6322,0.20865 -1.6749,0.12889 -2.2351,-0.17094 -0.6921,-0.3704 -0.97943,-2.1597 -0.53345,-3.322 0.16661,-0.43417 -0.51969,-0.30852 -1.1136,0.2039 -0.29495,0.25447 -0.79343,0.60345 -1.1077,0.77551 -0.31429,0.17205 -0.60816,0.35949 -0.65306,0.41656 -0.22777,0.28945 -2.3578,1.2973 -3.0471,1.4418 -0.4343,0.091 -1.2132,0.28844 -1.7309,0.43864 -0.99725,0.28934 -1.9603,0.21117 -3.742,-0.30378 -1.3024,-0.37641 -2.743,-1.7835 -2.7446,-2.6808 -0.002,-0.87314 1.3322,-0.93273 1.8164,-0.0812 0.29777,0.52373 1.8198,1.3265 2.5151,1.3265 1.1286,0 2.1941,-1.6124 2.197,-3.3246 l 0.002,-0.95732 -0.77336,0.11597 c -0.42535,0.0638 -0.97004,0.21768 -1.2104,0.34199 -0.24036,0.12431 -0.86585,0.27415 -1.3899,0.33298 -0.52405,0.0588 -1.0263,0.16039 -1.1161,0.2257 -0.28733,0.20894 -1.5736,0.36677 -3.8341,0.47048 l -2.2015,0.10098 -0.39009,0.73469 c -0.21454,0.40408 -0.63815,1.1193 -0.94137,1.5893 -0.30321,0.47006 -0.5513,0.95455 -0.5513,1.0767 0,0.28592 -0.56556,0.93347 -1.3694,1.5678 -0.55878,0.44098 -0.75996,0.5009 -1.6818,0.5009 -0.99891,0 -1.0736,-0.0282 -1.6222,-0.61225 z"
         id="baseball" />
    </g>
  </g>
</svg>
