<svg xmlns="http://www.w3.org/2000/svg" height="20.204" width="47.978"><path d="M12.636 9.103c-.18-.339.114-1.158.504-1.399.264-.163 1.128-2.053 1.128-2.467 0-.194-.144-.69-.321-1.103-.369-.86-.295-1.237.244-1.237.66 0 .899.185 1.327 1.03.338.667.4.967.319 1.555-.055.401-.161.81-.236.909-.074.099-.237.437-.362.751-.215.542-.602 1.065-1.413 1.91-.442.462-.958.484-1.19.05zm23.945.3c-.119-.455.208-1.046 1.009-1.823.537-.522.66-.767.751-1.493.079-.625.037-1.04-.147-1.48-.494-1.183.406-1.433 1.276-.354.422.522.5.755.489 1.471-.016 1.081-.429 1.882-1.595 3.092-.987 1.023-1.615 1.23-1.783.587zM30.68 5.387c.495-1.034.722-1.758.848-2.708.077-.578.055-.621-.29-.571-.232.034-.416.208-.488.463-.432 1.528-.553 1.895-.673 2.032-.181.209-.173 1.723.009 1.723.08 0 .346-.423.594-.939zm14.4 2.31c-.054-.055.04-.249.21-.43.421-.452 1.098-1.878 1.222-2.574.25-1.402.268-1.763.098-1.868-.098-.06-.178-.29-.178-.509 0-.219-.072-.398-.16-.398-.297 0-.632.73-.824 1.796-.105.583-.33 1.699-.501 2.479-.375 1.71-.373 1.602-.04 1.602.15 0 .228-.044.174-.099zM1.105 19.59C.059 18.48-.005 18.318 0 16.793c.003-.977.159-2.077.512-3.61.278-1.212.589-2.828.69-3.592.238-1.815.795-4.557 1.017-5.011.21-.43.469-.548.93-.428.299.078.342.212.342 1.047 0 .842-.156 1.48-.656 2.678-.075.18-.17 1.098-.213 2.04-.05 1.108-.193 2.063-.406 2.695-.182.539-.376 1.347-.432 1.796-.056.449-.18 1.184-.276 1.633-.221 1.043.034 2.095.597 2.464.693.454 1.582.177 2.272-.708.321-.412.584-.822.584-.91 0-.09.173-.39.384-.668.211-.278.439-.872.506-1.32.066-.447.222-1.009.345-1.247.238-.46 1.136-.89 1.301-.622.053.084 1.173.153 2.494.153 1.846 0 2.644-.07 3.46-.302a17.898 17.898 0 011.823-.417c.42-.062 1.521-.402 2.449-.755 2.142-.816 2.166-.798 2.012 1.556-.109 1.663-.37 2.866-.752 3.48-.306.49-.129.569.978.44.798-.092 1.202-.262 2.174-.913.656-.44 1.267-.8 1.357-.802.09-.002.578-.397 1.085-.878 1.638-1.552 2.72-3.594 2.996-5.654.067-.494.221-1.155.344-1.47.123-.313.435-1.379.692-2.366.669-2.565 1.894-4.84 2.719-5.047 1.592-.4 2.196 1.425 1.29 3.904-.23.628-.475 1.363-.545 1.632-.261 1.004-2.14 4.526-2.786 5.225-.831.899-1.626 3.022-1.975 5.278-.24 1.557-.155 1.82.669 2.057.471.135.574.106.845-.244.17-.218.441-.544.603-.724.162-.18.505-.694.764-1.143.259-.449.527-.84.597-.87.069-.03.393-.562.72-1.183.664-1.265.998-1.405 1.954-.822.742.452 1.35.537 2.354.33a78.025 78.025 0 011.551-.302c.754-.135 3.905-1.627 4.45-2.106.201-.178.367-.459.368-.624 0-.165.147-.52.325-.79.178-.27.325-.727.326-1.017 0-.29.181-1.065.401-1.721.22-.657.636-2.18.924-3.384.582-2.436.888-2.94 1.792-2.94.657 0 1.618.585 1.618.984 0 .167.065.344.145.393.248.153.35 1.45.166 2.134a16.48 16.48 0 00-.295 1.428c-.068.435-.276.94-.476 1.153-.196.208-.356.457-.356.552 0 .096-.115.269-.254.385-.14.116-.36.464-.49.774s-.548.88-.93 1.268c-1.705 1.733-2.068 2.17-2.166 2.617-.156.703-.482 1.632-1.057 3.007-.44 1.052-.503 1.374-.445 2.285.038.584.116 1.209.174 1.388a.648.648 0 01-.772.836c-.643-.161-1.154-1.017-1.117-1.87.03-.696.652-2.714 1.128-3.664.442-.88.032-.966-1.663-.347-.629.23-1.428.488-1.776.574-.349.086-.774.23-.945.322-.171.092-1.065.168-1.987.17l-1.676.003-1.094 1.292c-.601.71-1.093 1.357-1.093 1.437 0 .29-1.432 1.455-2.03 1.652-.633.209-1.676.13-2.236-.17-.692-.371-.98-2.16-.533-3.323.166-.434-.52-.308-1.114.204a7.767 7.767 0 01-1.108.776c-.314.172-.608.36-.653.416-.228.29-2.358 1.298-3.047 1.442-.434.091-1.213.289-1.73.439-.998.29-1.961.21-3.743-.304-1.302-.376-2.743-1.784-2.744-2.68-.002-.874 1.332-.934 1.816-.082.298.524 1.82 1.326 2.515 1.326 1.129 0 2.194-1.612 2.197-3.324l.002-.957-.773.116c-.426.063-.97.217-1.21.341-.241.125-.867.275-1.39.333-.525.06-1.027.16-1.117.226-.287.21-1.573.367-3.834.47l-2.201.102-.39.734c-.215.404-.639 1.12-.942 1.59-.303.47-.551.954-.551 1.076 0 .286-.566.934-1.37 1.568-.558.441-.76.501-1.681.501-1 0-1.074-.028-1.622-.612z" stroke-width=".163"/></svg>