<svg xmlns="http://www.w3.org/2000/svg" height="17.358" width="19.782"><path d="M10.879 6.346c-.254-.254-.073-.874.403-1.384.57-.61 1.12-2.018 1.12-2.867 0-.305-.109-.766-.243-1.026-.286-.553-.191-.915.273-1.036.512-.134 1.072.153 1.35.692.36.695.324 2.094-.073 2.873-.18.352-.327.735-.327.85 0 .116-.056.211-.124.211-.069 0-.44.404-.826.898-.663.848-1.214 1.128-1.553.789zM1.988 17.037c-.737-.357-1.474-1.273-1.804-2.24-.232-.68-.249-2.246-.026-2.384.09-.055.163-.409.163-.786 0-.377.179-1.493.397-2.48.219-.987.443-2.53.5-3.428.055-.897.217-2.197.358-2.887.228-1.112.31-1.275.716-1.444.252-.104.537-.142.632-.083.238.148.207 1.386-.075 2.945-.13.718-.237 1.822-.239 2.453a9.097 9.097 0 01-.342 2.285c-.186.627-.371 1.36-.41 1.63-.54 3.7-.488 4.203.509 4.818 1.296.802 2.698-.122 3.633-2.393.29-.705.528-1.43.528-1.61 0-.179.184-.72.408-1.2.376-.809.44-.867.845-.765.242.06.627.243.857.406.584.415 2.203.718 3.203.6.742-.087 2.145-.477 4.889-1.358a9.31 9.31 0 001.483-.646c.367-.21.787-.383.933-.383.637 0 .768 1.094.516 4.307-.178 2.275-.955 3.632-2.432 4.25-1.667.696-3.443-.253-4.057-2.168-.338-1.055-.342-1.18-.06-1.566.213-.291.234-.291.728 0 .3.178.55.485.608.75.054.246.314.746.578 1.11.38.525.584.663.977.663 1.379 0 2.053-1.114 2.14-3.538.029-.824.004-1.547-.056-1.607-.1-.1-.78.07-1.734.431a2.397 2.397 0 01-.7.143c-.179 0-.598.136-.931.302-.914.456-2.837.709-4.932.65l-1.878-.054-.49 1.438c-.474 1.392-.847 1.953-2.204 3.314-.9.903-2.06 1.092-3.231.524z"/></svg>