<?xml version="1.0" encoding="UTF-8" standalone="no"?>
<svg
   xmlns:dc="http://purl.org/dc/elements/1.1/"
   xmlns:cc="http://creativecommons.org/ns#"
   xmlns:rdf="http://www.w3.org/1999/02/22-rdf-syntax-ns#"
   xmlns:svg="http://www.w3.org/2000/svg"
   xmlns="http://www.w3.org/2000/svg"
   id="svg2094"
   viewBox="0 0 23.621429 20.728315"
   version="1.1"
   height="20.728315"
   width="23.621429">
  <defs
     id="defs2098" />
  <metadata
     id="metadata2">
    <rdf:RDF>
      <cc:Work
         rdf:about="">
        <dc:format>image/svg+xml</dc:format>
        <dc:type
           rdf:resource="http://purl.org/dc/dcmitype/StillImage" />
        <dc:title />
      </cc:Work>
    </rdf:RDF>
  </metadata>
  <g
     transform="translate(-406.06338,-578.03737)"
     id="g2092">
    <g
       style="stroke-width:0.16327"
       id="g2081">
      <path
         d="m 416.73,583.99 c -0.0674,-0.21225 0.0433,-0.585 0.30766,-1.036 0.77949,-1.3301 1.1467,-2.8968 0.77195,-3.2936 -0.0806,-0.0853 -0.19556,-0.45752 -0.25556,-0.82715 -0.0972,-0.59865 -0.0703,-0.68217 0.24562,-0.7648 0.4728,-0.12364 1.1232,0.13796 1.2322,0.49562 0.0483,0.15849 0.20551,0.528 0.34931,0.82111 0.27061,0.55161 0.26918,0.5657 -0.265,2.5805 -0.0731,0.27567 -0.39983,0.91853 -0.72612,1.4286 -0.50114,0.78343 -0.66785,0.92737 -1.074,0.92737 -0.33985,0 -0.51167,-0.0972 -0.58604,-0.33153 z m -8.8591,11.162 c -0.53638,-0.11399 -1.6864,-1.7427 -1.7933,-2.5397 -0.0483,-0.35985 0.0305,-1.3623 0.17497,-2.2277 0.14451,-0.8654 0.37963,-3.1898 0.52249,-5.1653 0.33737,-4.6653 0.52182,-6.2772 0.74978,-6.5519 0.2838,-0.34196 0.76277,-0.26684 1.045,0.16387 0.21419,0.3269 0.22707,0.57569 0.0824,1.5918 -0.0943,0.6624 -0.24157,2.5268 -0.32727,4.1432 -0.15952,3.0088 -0.18862,3.3098 -0.49717,5.1429 -0.0982,0.58367 -0.21651,1.5546 -0.26281,2.1575 -0.0779,1.014 -0.0529,1.1276 0.33241,1.5129 0.36192,0.36193 0.50829,0.40292 1.1152,0.31238 1.2143,-0.18116 2.773,-2.0538 3.169,-3.8073 0.18192,-0.80557 0.77789,-2.3804 0.94903,-2.5079 0.24349,-0.18134 1.2633,-0.006 1.4176,0.24351 0.20177,0.32645 2.4732,0.35858 4.2256,0.0598 1.8688,-0.31867 2.8028,-0.60383 4.3722,-1.3349 1.8925,-0.88159 2.2557,-0.75194 2.2047,0.78717 -0.0656,1.9801 -0.41274,4.4551 -0.70485,5.0259 -0.40732,0.79584 -1.0704,1.3544 -2.0992,1.7686 -1.0778,0.43389 -1.4232,0.44013 -2.3509,0.0425 -0.77657,-0.33288 -1.1304,-0.74166 -1.8105,-2.0914 -0.69906,-1.3876 -0.46297,-2.2228 0.45774,-1.6196 0.38653,0.25327 0.44969,0.37794 0.65204,1.2873 0.0616,0.27689 0.34524,0.61107 0.74076,0.87282 0.58959,0.39017 0.69068,0.40815 1.2623,0.22456 0.34175,-0.10977 0.73156,-0.28933 0.86626,-0.39901 0.13469,-0.1097 0.37458,-0.24547 0.53306,-0.30171 0.1585,-0.0562 0.35099,-0.26946 0.42779,-0.4738 0.21464,-0.57118 0.5544,-3.2002 0.44906,-3.4747 -0.12782,-0.33309 -0.56616,-0.30578 -1.3283,0.0828 -0.35226,0.17959 -0.75553,0.32653 -0.89615,0.32653 -0.14063,0 -0.4006,0.0979 -0.57773,0.21753 -0.44098,0.29786 -3.7307,0.65617 -5.669,0.61744 -1.4324,-0.0286 -1.5919,-0.002 -1.5928,0.26049 0,0.16077 -0.10382,0.48939 -0.2295,0.73027 -0.12568,0.2409 -0.28162,0.67977 -0.34651,0.97526 -0.2249,1.024 -1.9108,3.1542 -2.8783,3.6369 -0.54689,0.27282 -1.7977,0.43603 -2.385,0.3112 z m 12.174,3.506 c -0.57214,-0.20067 -0.75102,-0.73262 -0.34881,-1.0374 0.22832,-0.17302 0.96728,-0.23022 3.076,-0.23809 1.5265,-0.006 3.4775,-0.1108 4.3355,-0.23354 1.8902,-0.2704 2.4069,-0.20001 2.5441,0.34647 0.20864,0.83126 -0.4813,0.99872 -4.5939,1.115 -1.7061,0.0483 -3.4326,0.11352 -3.8367,0.14504 -0.40408,0.0315 -0.93337,-0.0124 -1.1762,-0.0975 z"
         id="based" />
    </g>
  </g>
</svg>
