<svg xmlns="http://www.w3.org/2000/svg" height="30.822" width="26.304"><path d="M10.346 6.643c-.107-.108-.196-.28-.196-.383 0-.31.512-1.272.908-1.707.204-.224.499-.802.655-1.283.276-.855.275-.895-.066-1.701-.382-.904-.278-1.265.36-1.256 1.325.02 1.888 2.79.82 4.03-.215.25-.5.685-.635.967-.31.654-1.124 1.529-1.421 1.529a.71.71 0 01-.425-.196zM19.42 16.96c.294-.18.637-.326.763-.326.302 0 .906-.778.906-1.165 0-.78-2.82.23-3.035 1.086-.198.787.432.974 1.366.405zm-3.106 13.766c-.599-.157-.282-.786 1.339-2.663 1.211-1.403 1.86-2.26 2.162-2.857.136-.27.516-.957.844-1.529.328-.571.638-1.232.69-1.47.05-.236.15-.577.222-.756.378-.947.66-2.251.659-3.035-.004-1.316-.136-1.418-1.026-.79-.419.295-1.093.588-1.533.666-.432.077-1.05.184-1.371.239-.846.142-1.555-.263-1.666-.952-.137-.847.396-1.73 1.563-2.593 1.415-1.046 2.243-1.341 3.388-1.208l.917.106.62-1.278c1.119-2.312 1.344-3.097 1.57-5.495.236-2.482.06-4.64-.42-5.17-.29-.323-1.3-.655-1.977-.651-.792.004-2.08.551-2.736 1.162-.18.168-.394.305-.475.305-.18 0-2.24 2.113-2.24 2.299 0 .073-.349.559-.776 1.08a28.723 28.723 0 00-1.221 1.6c-.245.36-.633.87-.861 1.133-.229.264-.457.642-.507.84-.05.2-.378.593-.73.876-.351.282-.64.605-.64.716 0 .237-.832.762-1.208.762-.143 0-.26.065-.26.144 0 .079-.321.224-.714.323-.888.224-1.663 1.044-2.348 2.486-.546 1.149-1.836 2.41-2.935 2.869-.732.306-2.15.211-2.751-.183C1.277 17.3.7 16.304.335 15.01L0 13.827l.335-1.575A55.47 55.47 0 001.34 5.088c.16-2.195.397-2.82 1.074-2.82h.39v2.295c0 1.262-.069 2.603-.152 2.98-.191.863-.59 3.227-.83 4.929-.22 1.552-.069 2.42.583 3.36.724 1.045 1.498 1.06 2.708.05.881-.735 2.074-2.554 2.204-3.359.147-.915.574-1.275 1.511-1.275.57 0 .953-.113 1.389-.409.33-.224.657-.408.725-.408.16 0 1.168-1.037 1.168-1.203 0-.07.092-.228.204-.353.112-.124.461-.578.775-1.008.315-.43.91-1.12 1.324-1.536.414-.415.799-.938.855-1.162.097-.388 1.019-1.432 1.263-1.432.063 0 .157-.166.208-.37.05-.203.465-.653.921-1.001.456-.348.903-.77.992-.937a.637.637 0 01.51-.304c.19 0 .573-.172.85-.383.792-.6 1.641-.808 2.957-.724 1.145.074 1.602.253 2.594 1.02.377.293.738 2.001.741 3.516.006 2.675-.728 6.622-1.366 7.337-.124.14-.31.567-.411.948-.102.382-.243.694-.314.694-.07 0-.299.363-.507.807-.35.748-.363.87-.171 1.674.268 1.122.397 3.358.209 3.61-.08.107-.247.525-.369.93-.122.404-.274.808-.337.898-.063.09-.167.408-.231.707-.064.3-.403 1.05-.754 1.668-.35.619-.637 1.231-.637 1.36 0 .13-.149.408-.33.618-.183.21-.629.785-.991 1.28-.363.493-.749.97-.857 1.06-.108.09-.551.664-.984 1.276-.433.611-.969 1.18-1.19 1.265-.222.084-.418.145-.434.134a3.083 3.083 0 00-.316-.093z"/></svg>