<?xml version="1.0" encoding="UTF-8" standalone="no"?>
<svg
   xmlns:dc="http://purl.org/dc/elements/1.1/"
   xmlns:cc="http://creativecommons.org/ns#"
   xmlns:rdf="http://www.w3.org/1999/02/22-rdf-syntax-ns#"
   xmlns:svg="http://www.w3.org/2000/svg"
   xmlns="http://www.w3.org/2000/svg"
   id="svg2094"
   viewBox="0 0 26.304496 30.821592"
   version="1.1"
   height="30.821592"
   width="26.304497">
  <defs
     id="defs2098" />
  <metadata
     id="metadata2">
    <rdf:RDF>
      <cc:Work
         rdf:about="">
        <dc:format>image/svg+xml</dc:format>
        <dc:type
           rdf:resource="http://purl.org/dc/dcmitype/StillImage" />
        <dc:title />
      </cc:Work>
    </rdf:RDF>
  </metadata>
  <g
     transform="translate(-405.52359,-623.36713)"
     id="g2092">
    <g
       style="stroke-width:0.16327"
       id="g2081">
      <path
         d="m 415.87,630.01 c -0.10776,-0.10776 -0.19592,-0.28015 -0.19592,-0.38309 0,-0.30996 0.51117,-1.2716 0.90722,-1.7067 0.20432,-0.22449 0.499,-0.80204 0.65484,-1.2835 0.27673,-0.85495 0.27521,-0.8945 -0.0654,-1.7006 -0.38209,-0.90438 -0.27864,-1.2651 0.36004,-1.2556 1.3244,0.0198 1.8878,2.7897 0.81979,4.0302 -0.21519,0.24993 -0.50085,0.6849 -0.63483,0.9666 -0.31082,0.65353 -1.1246,1.5286 -1.4215,1.5286 -0.1256,0 -0.31654,-0.0882 -0.42429,-0.19592 z m 9.0734,10.318 c 0.294,-0.17927 0.63765,-0.32593 0.76365,-0.32593 0.30128,0 0.90586,-0.77745 0.90586,-1.1649 0,-0.77948 -2.8208,0.22983 -3.0357,1.0862 -0.19752,0.78699 0.43286,0.97367 1.3662,0.40461 z m -3.106,13.766 c -0.59854,-0.15642 -0.28181,-0.78637 1.339,-2.663 1.2115,-1.4027 1.8603,-2.2601 2.1619,-2.8571 0.1361,-0.26939 0.51598,-0.95723 0.84416,-1.5285 0.3282,-0.57129 0.6385,-1.2325 0.68957,-1.4694 0.0511,-0.23687 0.15143,-0.5776 0.22304,-0.75719 0.37765,-0.94711 0.66045,-2.251 0.65823,-3.0348 -0.004,-1.3156 -0.136,-1.4176 -1.0255,-0.79058 -0.41881,0.2952 -1.0934,0.58855 -1.5334,0.66674 -0.43205,0.0768 -1.0491,0.1841 -1.3712,0.23846 -0.84565,0.14275 -1.555,-0.26241 -1.6661,-0.95159 -0.13651,-0.84685 0.39631,-1.7307 1.563,-2.5928 1.4158,-1.0462 2.2431,-1.3412 3.388,-1.2083 l 0.91771,0.10651 0.61891,-1.2781 c 1.1197,-2.3123 1.3444,-3.0977 1.5718,-5.4952 0.23541,-2.4816 0.06,-4.6403 -0.42009,-5.1708 -0.2912,-0.32177 -1.3014,-0.65395 -1.978,-0.6504 -0.79222,0.004 -2.0803,0.55137 -2.7363,1.1625 -0.17972,0.16744 -0.39314,0.30444 -0.47425,0.30444 -0.18083,0 -2.2399,2.1133 -2.2399,2.2989 0,0.0732 -0.34934,0.55936 -0.77633,1.0804 -0.42697,0.52098 -0.97662,1.2411 -1.2214,1.6003 -0.24482,0.35918 -0.63225,0.86895 -0.86095,1.1328 -0.22869,0.26385 -0.45657,0.64219 -0.5064,0.84073 -0.0498,0.19855 -0.37837,0.59225 -0.73009,0.87489 -0.35171,0.28265 -0.63948,0.6048 -0.63948,0.71591 0,0.2373 -0.83249,0.7622 -1.2089,0.7622 -0.14328,0 -0.26053,0.0648 -0.26053,0.14389 0,0.0791 -0.32078,0.22465 -0.71284,0.32338 -0.88809,0.22362 -1.6631,1.0441 -2.3482,2.4859 -0.54578,1.1486 -1.8359,2.4095 -2.9353,2.8688 -0.73154,0.30565 -2.1496,0.21143 -2.7512,-0.18281 -0.61596,-0.40359 -1.1918,-1.3988 -1.5579,-2.6927 l -0.33487,-1.1833 0.33521,-1.5755 c 0.46583,-2.1893 0.83324,-4.8098 1.0043,-7.1631 0.15961,-2.1955 0.39777,-2.8205 1.0748,-2.8205 h 0.38939 v 2.295 c 0,1.2623 -0.0682,2.6031 -0.15164,2.9796 -0.19132,0.86364 -0.5894,3.2276 -0.83012,4.9294 -0.21948,1.5517 -0.0689,2.4198 0.58284,3.3603 0.72405,1.0448 1.4983,1.0588 2.7087,0.0491 0.88059,-0.73461 2.0737,-2.5533 2.2033,-3.3584 0.14716,-0.91461 0.57471,-1.2754 1.5113,-1.2754 0.57043,0 0.9528,-0.11239 1.3887,-0.40816 0.33079,-0.22449 0.65725,-0.40816 0.72543,-0.40816 0.16059,0 1.1676,-1.0376 1.1676,-1.2031 0,-0.0695 0.0918,-0.22827 0.20408,-0.35286 0.11225,-0.12459 0.46123,-0.57814 0.77551,-1.0079 0.31429,-0.42974 0.90998,-1.1209 1.3238,-1.5359 0.41378,-0.41501 0.79844,-0.93831 0.8548,-1.1629 0.0972,-0.38724 1.0187,-1.4312 1.2633,-1.4312 0.063,0 0.15632,-0.16632 0.20734,-0.3696 0.051,-0.2033 0.46585,-0.65412 0.92183,-1.0019 0.45599,-0.34776 0.90234,-0.76918 0.9919,-0.93652 0.0896,-0.16735 0.31863,-0.30427 0.50903,-0.30427 0.1904,0 0.57354,-0.17252 0.8514,-0.38339 0.79076,-0.6001 1.6406,-0.80813 2.9563,-0.72369 1.1453,0.0735 1.6022,0.25329 2.594,1.0206 0.37732,0.29195 0.73775,2.0008 0.74136,3.515 0.006,2.6749 -0.72864,6.6219 -1.3664,7.3377 -0.12453,0.13975 -0.30956,0.56635 -0.41116,0.94798 -0.10161,0.38163 -0.24282,0.69388 -0.31381,0.69388 -0.071,0 -0.29913,0.3631 -0.507,0.8069 -0.35045,0.74823 -0.36289,0.86993 -0.17107,1.6735 0.26793,1.1224 0.39727,3.3588 0.20878,3.61 -0.0806,0.10742 -0.24651,0.52591 -0.36865,0.93 -0.12214,0.40408 -0.27383,0.80816 -0.33709,0.89796 -0.0632,0.0898 -0.1674,0.40811 -0.23143,0.70739 -0.064,0.29927 -0.40312,1.0501 -0.75354,1.6685 -0.35041,0.61838 -0.63712,1.2306 -0.63712,1.3604 0,0.1298 -0.14889,0.40758 -0.33085,0.61724 -0.18195,0.20969 -0.62764,0.78531 -0.99041,1.2792 -0.36276,0.49388 -0.74826,0.97143 -0.85669,1.0612 -0.10841,0.0898 -0.55123,0.66361 -0.98405,1.2752 -0.43281,0.61155 -0.9685,1.1809 -1.1904,1.2653 -0.22192,0.0844 -0.41709,0.1449 -0.43369,0.13448 -0.0166,-0.0104 -0.15876,-0.0525 -0.31591,-0.0936 z"
         id="basis" />
    </g>
  </g>
</svg>
