<?xml version="1.0" encoding="UTF-8" standalone="no"?>
<svg
   xmlns:dc="http://purl.org/dc/elements/1.1/"
   xmlns:cc="http://creativecommons.org/ns#"
   xmlns:rdf="http://www.w3.org/1999/02/22-rdf-syntax-ns#"
   xmlns:svg="http://www.w3.org/2000/svg"
   xmlns="http://www.w3.org/2000/svg"
   id="svg2094"
   viewBox="0 0 71.068014 22.024706"
   version="1.1"
   height="22.024706"
   width="71.068016">
  <defs
     id="defs2098" />
  <metadata
     id="metadata2">
    <rdf:RDF>
      <cc:Work
         rdf:about="">
        <dc:format>image/svg+xml</dc:format>
        <dc:type
           rdf:resource="http://purl.org/dc/dcmitype/StillImage" />
        <dc:title />
      </cc:Work>
    </rdf:RDF>
  </metadata>
  <g
     transform="translate(-406.16148,-667.28359)"
     id="g2092">
    <g
       style="stroke-width:0.16327"
       id="g2081">
      <path
         d="m 465.86,674.91 c 0.0575,-0.28753 0.24176,-0.67324 0.40947,-0.85715 0.87538,-0.95995 1.1469,-2.2105 0.73105,-3.3669 -0.29404,-0.81773 -0.29375,-0.83969 0.0147,-1.0652 0.38281,-0.2799 0.82541,-0.15842 1.356,0.37223 0.33834,0.33833 0.39651,0.54676 0.38479,1.3787 -0.009,0.67637 -0.10874,1.116 -0.32013,1.4186 -0.16848,0.24115 -0.35564,0.64232 -0.41592,0.89153 -0.18013,0.74485 -1.1991,1.751 -1.7734,1.751 -0.46558,0 -0.48574,-0.0273 -0.38664,-0.52276 z m -48.023,1.7208 c -0.31756,-0.12813 -0.24292,-0.61977 0.22396,-1.4751 0.23542,-0.43128 0.52884,-0.96782 0.65206,-1.1923 0.32789,-0.59741 0.2775,-1.0844 -0.18214,-1.7608 -0.51732,-0.76131 -0.52086,-1.1434 -0.0118,-1.2712 0.69051,-0.17331 1.0815,0.0795 1.4945,0.96609 0.50743,1.0896 0.40216,2.091 -0.34392,3.2718 -0.90153,1.4268 -1.2433,1.6994 -1.8326,1.4616 z m 56.457,-2.2634 c 0.26491,-0.137 0.48168,-0.32147 0.48168,-0.40995 0,-0.0884 0.14274,-0.47229 0.31721,-0.85294 0.57136,-1.2466 0.8466,-2.3391 0.79487,-3.1551 -0.0469,-0.7391 -0.0862,-0.80633 -0.49983,-0.85392 -0.32071,-0.0369 -0.44898,0.0214 -0.44898,0.20408 0,0.14065 -0.0735,0.25574 -0.16327,0.25574 -0.0898,0 -0.16326,0.17469 -0.16326,0.38822 0,0.21352 -0.10799,0.64667 -0.23996,0.96252 -0.35701,0.85443 -0.87044,3.7105 -0.66705,3.7105 0.0588,0 0.32366,-0.1121 0.58859,-0.24909 z m -14.187,0.0447 c 0.23852,-0.38146 0.51985,-1.0242 0.62516,-1.4283 0.10532,-0.40408 0.25768,-0.99184 0.33856,-1.3061 0.0809,-0.31428 0.16691,-1.0857 0.19116,-1.7143 0.0535,-1.3869 -0.18054,-1.498 -0.92487,-0.43901 -0.37545,0.53421 -0.52333,0.96709 -0.61352,1.7959 -0.26452,2.4311 -0.33453,3.7859 -0.19564,3.7856 0.08,0 0.34062,-0.31241 0.57915,-0.69388 z m -36.778,11.887 c 0.61205,-0.31649 0.93324,-1.245 1.1491,-3.3216 0.29965,-2.8832 0.26607,-2.9414 -1.3038,-2.2606 -0.58839,0.25519 -1.5785,0.49751 -2.4811,0.60725 -1.5247,0.18539 -2.3561,0.49901 -1.8438,0.69556 0.13874,0.0532 0.25226,0.19758 0.25226,0.32075 0,0.28611 0.95001,2.2259 1.2752,2.6038 0.13576,0.15776 0.32756,0.44878 0.42624,0.64671 0.10654,0.2137 0.40041,0.40506 0.72351,0.47113 0.29925,0.0612 0.62543,0.19264 0.72486,0.29207 0.24244,0.24243 0.53081,0.22769 1.0776,-0.055 z m 12.236,2.8445 c -0.41867,-0.0707 -1.0419,-0.31917 -1.3848,-0.55223 -0.3429,-0.23306 -0.70651,-0.42374 -0.80787,-0.42374 -0.24261,0 -1.3726,-2.4813 -1.3726,-3.0141 0,-0.65006 -0.20828,-0.5751 -2.1374,0.76917 -0.48325,0.33674 -0.96532,0.61225 -1.0713,0.61225 -0.10598,0 -0.21715,0.0551 -0.24709,0.12245 -0.13952,0.31394 -2.0221,0.89575 -3.6462,1.1269 -3.9964,0.5687 -5.1351,0.054 -6.4195,-2.9014 -0.75081,-1.7276 -0.81625,-2.166 -0.4099,-2.7461 l 0.27261,-0.3892 -1.3746,0.10699 c -0.75605,0.0588 -1.7248,0.10743 -2.1528,0.10797 -0.72206,0.002 -0.79453,0.0392 -1.0055,0.53159 -0.29187,0.68116 -0.74694,2.2134 -0.74694,2.515 0,0.30885 -0.62565,1.5258 -0.78444,1.5258 -0.0686,0 -0.25925,0.22769 -0.42364,0.50597 -0.37964,0.64268 -1.1469,0.96342 -2.3047,0.96342 -0.76003,0 -1.0573,-0.0936 -1.7933,-0.5644 -1.7662,-1.1298 -1.8786,-1.9725 -1.2316,-9.2315 0.084,-0.94286 0.20258,-2.6327 0.26344,-3.7551 0.0609,-1.1224 0.1776,-2.1694 0.25945,-2.3265 0.21603,-0.41482 0.74065,-0.35009 1.0554,0.13024 0.23574,0.35979 0.2552,0.67393 0.14406,2.3265 -0.0707,1.0508 -0.14752,2.6117 -0.17079,3.4685 -0.0263,0.9692 -0.14105,1.7942 -0.30358,2.1832 -0.19755,0.47282 -0.25959,1.1677 -0.25444,2.8502 l 0.007,2.225 0.5514,0.62413 c 0.51693,0.58514 0.61352,0.62594 1.5456,0.65306 0.92282,0.0269 1.023,-0.006 1.3951,-0.46087 0.22047,-0.26938 0.40351,-0.57237 0.40672,-0.6733 0.003,-0.10095 0.18537,-0.50503 0.40474,-0.89796 0.25208,-0.45151 0.45681,-1.1822 0.55631,-1.9853 0.0866,-0.69899 0.27389,-1.4486 0.41623,-1.6658 0.29583,-0.45151 1.0497,-0.64449 2.0944,-0.53611 1.6986,0.17623 6.8561,-0.29961 7.3914,-0.68193 0.30235,-0.21597 2.1166,-0.80922 2.8107,-0.9191 0.62823,-0.0994 0.70478,-0.0727 0.8774,0.30615 0.23364,0.51275 -0.0385,5.2634 -0.33306,5.8138 -0.10503,0.19625 -0.16819,0.59218 -0.14036,0.87987 0.046,0.47543 0.0984,0.52093 0.5754,0.49962 0.5202,-0.0232 1.8611,-0.57629 2.3323,-0.96199 0.1347,-0.11023 0.42857,-0.25528 0.65306,-0.32233 0.43839,-0.13092 1.1927,-0.77747 3.5153,-3.0132 0.81096,-0.78062 1.8095,-1.6157 2.219,-1.8557 0.97427,-0.57095 2.7118,-1.1358 3.1466,-1.0229 0.416,0.10802 1.0782,1.0458 1.0782,1.5269 0,0.7041 -1.0131,0.99796 -1.484,0.43048 -0.30912,-0.37247 -1.0458,-0.26064 -1.998,0.30336 -0.75393,0.44652 -0.97718,0.69537 -1.4087,1.5702 -0.32981,0.6686 -0.54635,1.3987 -0.60678,2.0458 l -0.094,1.0062 0.77011,0.79239 c 0.69713,0.71729 0.88085,0.8138 1.9386,1.0184 0.93001,0.17992 1.3348,0.18688 1.9834,0.0341 1.43,-0.33695 3.0772,-1.5226 4.6181,-3.3242 0.38405,-0.44901 0.8065,-0.93273 0.93878,-1.075 0.13228,-0.14222 0.24051,-0.32753 0.24051,-0.41177 0,-0.0843 0.22191,-0.42242 0.49314,-0.75146 0.54348,-0.65935 1.1303,-1.8452 1.1359,-2.2955 0.002,-0.15879 0.18578,-0.63714 0.40844,-1.063 0.46052,-0.88072 1.0645,-3.0885 1.0645,-3.8909 0,-0.74756 0.44535,-2.3827 0.69291,-2.544 0.11277,-0.0735 0.35199,-0.11484 0.53158,-0.0919 0.29619,0.0379 0.3262,0.16312 0.32292,1.3479 -0.002,0.81156 -0.14064,1.8316 -0.3655,2.6939 -0.19906,0.76326 -0.55576,2.2326 -0.7927,3.2653 -0.23694,1.0327 -0.51124,2.0245 -0.60956,2.2041 -0.30726,0.56127 -0.58127,1.763 -0.58878,2.5822 -0.0116,1.2727 0.36263,1.73 1.8704,2.2851 1.3608,0.50103 1.6749,0.51244 2.5867,0.094 0.46304,-0.21252 0.87863,-0.42432 0.92353,-0.47067 0.0449,-0.0464 0.37551,-0.30067 0.73469,-0.56516 2.1172,-1.559 4.4122,-4.6136 4.728,-6.2928 0.0591,-0.31429 0.25009,-0.9599 0.4244,-1.4347 0.17434,-0.4748 0.32059,-1.0993 0.325,-1.3878 0.0127,-0.82655 0.56415,-3.7363 1.1979,-6.3204 0.47352,-1.9308 0.6584,-2.4351 1.0026,-2.7347 0.52757,-0.4593 1.2579,-0.47153 1.9675,-0.033 0.44601,0.27564 0.56157,0.46924 0.65778,1.102 0.15009,0.98722 -0.1641,3.511 -0.49611,3.985 -0.1408,0.20103 -0.25602,0.46849 -0.25602,0.59434 0,0.2868 -1.2443,2.7882 -1.5612,3.1383 -0.12913,0.14268 -0.23476,0.32913 -0.23476,0.41433 0,0.18294 -1.1335,2.4245 -1.5388,3.0431 -0.39175,0.59787 -0.7021,2.0458 -0.83814,3.91 l -0.11547,1.5827 0.49894,0.49894 c 0.79387,0.79388 2.1726,0.64791 2.9269,-0.30989 0.47528,-0.60348 1.3508,-2.4591 1.51,-3.2002 0.0953,-0.44405 0.28962,-1.0738 0.43171,-1.3995 l 0.25833,-0.5921 1.9027,0.0111 c 1.6464,0.009 1.9906,-0.0361 2.5557,-0.33906 0.35918,-0.19254 0.94694,-0.49036 1.3061,-0.66184 0.92247,-0.44041 2.4282,-1.7071 2.8213,-2.3733 0.23351,-0.39575 0.38978,-1.1149 0.52508,-2.4162 0.10594,-1.019 0.25961,-1.9226 0.34149,-2.0078 0.0819,-0.0853 0.14885,-0.36537 0.14885,-0.62239 0,-1.0632 0.87773,-3.2394 1.5964,-3.9581 0.3067,-0.30671 0.57899,-0.40727 1.1028,-0.40727 0.59177,0 0.7711,0.0861 1.2022,0.57711 0.43832,0.49922 0.50738,0.70304 0.51169,1.5102 0.005,0.86731 -0.72091,3.5715 -1.0183,3.7955 -0.0635,0.0478 -0.2104,0.30623 -0.32653,0.57433 -0.2527,0.58335 -0.67231,1.1766 -1.4123,1.9967 -0.30144,0.33408 -0.73365,0.88291 -0.96047,1.2196 -0.22683,0.33674 -0.47614,0.61225 -0.554,0.61225 -0.0779,0 -0.14156,0.17154 -0.14156,0.38119 0,0.36754 -0.51142,2.1307 -0.81287,2.8025 -0.0806,0.17959 -0.23022,0.95592 -0.33251,1.7252 -0.21665,1.6293 -0.0106,3.2012 0.51663,3.9416 0.18659,0.26206 0.30205,0.64552 0.27227,0.9043 -0.0451,0.39203 -0.12248,0.44932 -0.60685,0.44932 -0.50489,0 -0.59942,-0.0813 -1.0436,-0.89796 -0.44766,-0.82295 -0.48911,-1.0343 -0.49638,-2.5306 -0.006,-1.2471 0.0765,-1.897 0.34973,-2.7519 0.37326,-1.168 0.46369,-2.0644 0.20828,-2.0644 -0.0822,0 -0.68828,0.28462 -1.3469,0.63249 -1.7519,0.92527 -3.4398,1.49 -4.4538,1.49 -0.74395,0 -0.90751,0.0581 -1.1331,0.40242 -0.14501,0.22134 -0.26367,0.52396 -0.26367,0.67252 0,0.14855 -0.24751,0.68379 -0.55003,1.1894 -0.30251,0.50562 -0.5965,1.1162 -0.6533,1.3569 -0.11843,0.50175 -0.5136,0.95019 -0.83729,0.95019 -0.12176,0 -0.3627,0.17962 -0.53538,0.39917 -0.86887,1.1046 -2.379,1.1537 -3.7737,0.12279 -0.91041,-0.67293 -0.9918,-0.85252 -0.99498,-2.1954 -0.002,-0.51633 -0.0497,-0.93878 -0.10768,-0.93878 -0.058,0 -0.83361,0.73535 -1.7236,1.6341 -0.89,0.89876 -1.8895,1.7812 -2.2211,1.9609 -0.3316,0.1797 -0.71313,0.39058 -0.84782,0.46854 -1.1828,0.68462 -2.226,0.83158 -3.1373,0.44196 -0.29488,-0.12606 -0.85419,-0.32341 -1.2429,-0.43855 -1.042,-0.30863 -1.8896,-1.3383 -2.1371,-2.5961 -0.10617,-0.53957 -0.25433,-0.98106 -0.32929,-0.98106 -0.075,0 -0.26846,0.20204 -0.43001,0.44898 -0.35262,0.53895 -2.5095,2.6531 -2.7067,2.6531 -0.0765,0 -0.27589,0.13677 -0.44305,0.30394 -0.16715,0.16715 -0.83826,0.57123 -1.4913,0.89795 -1.2636,0.63215 -2.1576,0.72894 -3.9456,0.42714 z"
         id="basketball" />
    </g>
  </g>
</svg>
