<?xml version="1.0" encoding="UTF-8" standalone="no"?>
<svg
   xmlns:dc="http://purl.org/dc/elements/1.1/"
   xmlns:cc="http://creativecommons.org/ns#"
   xmlns:rdf="http://www.w3.org/1999/02/22-rdf-syntax-ns#"
   xmlns:svg="http://www.w3.org/2000/svg"
   xmlns="http://www.w3.org/2000/svg"
   id="svg2094"
   viewBox="0 0 40.994212 18.07884"
   version="1.1"
   height="18.07884"
   width="40.994213">
  <defs
     id="defs2098" />
  <metadata
     id="metadata2">
    <rdf:RDF>
      <cc:Work
         rdf:about="">
        <dc:format>image/svg+xml</dc:format>
        <dc:type
           rdf:resource="http://purl.org/dc/dcmitype/StillImage" />
        <dc:title />
      </cc:Work>
    </rdf:RDF>
  </metadata>
  <g
     transform="translate(-405.65216,-647.85998)"
     id="g2092">
    <g
       style="stroke-width:0.16327"
       id="g2081">
      <path
         d="m 415.94,654.44 c -0.11288,-0.29415 0.23035,-1.1129 0.7178,-1.7122 0.18575,-0.22838 0.44715,-0.83431 0.58091,-1.3465 0.23755,-0.90968 0.23334,-0.9521 -0.18142,-1.8288 -0.49329,-1.0427 -0.48174,-1.6109 0.0342,-1.6844 0.83932,-0.11955 1.5378,1.0947 1.5787,2.7443 0.0212,0.85452 -0.0658,1.2679 -0.44628,2.1224 -0.25992,0.58368 -0.6956,1.2633 -0.96818,1.5102 -0.54766,0.49613 -1.165,0.5876 -1.3157,0.19495 z m 5.6386,7.9005 c 0.34539,-0.37412 0.62798,-0.80595 0.62798,-0.95965 0,-0.15368 0.11021,-0.54319 0.2449,-0.86555 0.31747,-0.75982 0.33079,-2.5331 0.0199,-2.6524 -0.2567,-0.0985 -1.8568,0.38843 -1.9912,0.60599 -0.0488,0.079 -0.35474,0.14366 -0.6798,0.14366 -0.76449,0 -1.6754,0.33148 -1.6754,0.60965 0,0.11964 0.17477,0.56406 0.38841,0.98761 0.21361,0.42356 0.44044,1.082 0.50403,1.4633 0.13621,0.81657 0.70379,1.3476 1.4404,1.3476 0.36895,0 0.65073,-0.171 1.1208,-0.68023 z m 12.301,3.418 c -0.26939,-0.0964 -0.74563,-0.34775 -1.0583,-0.55854 -0.31269,-0.21079 -0.65283,-0.38327 -0.7559,-0.38327 -0.17641,0 -1.3835,-1.4658 -1.8088,-2.1965 -0.12383,-0.21276 -0.15987,-0.67511 -0.0992,-1.2729 0.0839,-0.82643 0.0606,-0.93877 -0.19485,-0.93877 -0.15959,0 -0.96443,0.66122 -1.7885,1.4694 -0.8241,0.80816 -1.5871,1.4694 -1.6955,1.4694 -0.10846,0 -0.48815,0.18368 -0.84376,0.40817 -0.35561,0.22449 -0.73987,0.40862 -0.85389,0.40917 -0.11404,0 -0.42611,0.11509 -0.6935,0.25452 -0.62781,0.32734 -2.2015,0.47121 -3.5614,0.32556 -1.3009,-0.13931 -2.0551,-0.64352 -2.5786,-1.724 -0.19579,-0.40408 -0.45257,-0.936 -0.57066,-1.182 -0.11808,-0.24603 -0.30067,-0.88436 -0.40577,-1.4185 -0.10507,-0.53414 -0.27422,-1.0026 -0.37588,-1.041 -0.10165,-0.0384 -0.91951,-0.0335 -1.8175,0.0108 l -1.6326,0.0806 -0.62284,1.4893 c -1.1705,2.7989 -1.3434,3.0603 -2.6751,4.0441 -0.78772,0.58192 -0.96349,0.64684 -1.4859,0.54883 -1.299,-0.24369 -2.0703,-0.94638 -2.4584,-2.2398 -0.30496,-1.0162 -0.33662,-2.8467 -0.0672,-3.8842 0.39501,-1.521 0.8152,-4.8959 0.99607,-8 l 0.10938,-1.8776 0.43965,-0.0508 c 0.57116,-0.066 0.94938,0.62096 0.94493,1.7161 -0.006,1.3515 -0.59746,5.4916 -1.0862,7.5964 -0.17389,0.74896 -0.23422,1.6168 -0.18962,2.7274 0.058,1.4435 0.10983,1.6761 0.45576,2.0443 0.21468,0.22852 0.56483,0.4155 0.77814,0.4155 0.50642,0 1.3583,-0.43374 1.7182,-0.87478 0.62066,-0.76065 1.3793,-2.6421 1.486,-3.6854 0.13306,-1.301 0.43557,-1.8072 1.0799,-1.8072 0.26203,0 0.52181,0.0735 0.57731,0.16326 0.15361,0.24856 2.7251,0.19476 4.0494,-0.0847 0.6463,-0.13639 1.5792,-0.32885 2.073,-0.42769 0.49387,-0.0988 1.5224,-0.42217 2.2857,-0.71855 2.0282,-0.78749 2.0582,-0.79246 2.4461,-0.40457 0.31158,0.31158 0.33229,0.46743 0.24511,1.8451 -0.12008,1.8977 -0.38478,3.4992 -0.67241,4.0681 -0.37716,0.74608 -0.29425,0.94717 0.38937,0.94449 0.33674,-0.002 0.76706,-0.0932 0.95625,-0.20408 1.1091,-0.65022 1.939,-1.3117 3.2478,-2.5889 2.6256,-2.5621 4.1895,-3.5264 6.3481,-3.9147 1.2388,-0.22284 1.7054,-0.0617 2.1268,0.73448 0.25453,0.4809 0.27763,0.66364 0.12596,0.99656 -0.22936,0.50334 -0.83633,0.54263 -1.254,0.0811 -0.22339,-0.24684 -0.50285,-0.32653 -1.1452,-0.32653 -1.5749,0 -2.8548,1.4441 -2.8548,3.2209 0,0.48231 0.108,1.0858 0.23999,1.341 0.46676,0.9026 2.1289,1.9314 3.5453,2.1943 0.98911,0.18363 2.9612,-0.55929 4.1282,-1.5551 1.3909,-1.1869 3.0178,-3.3168 3.0229,-3.9574 0.002,-0.16898 0.15616,-0.55605 0.34411,-0.86015 0.56129,-0.90819 0.97387,-2.1625 1.2933,-3.932 0.16591,-0.91898 0.35747,-1.7612 0.42569,-1.8716 0.0682,-0.1104 0.17914,-0.49729 0.24645,-0.85976 0.26593,-1.432 0.54102,-2.2375 0.81401,-2.3836 0.40647,-0.21754 1.1873,0.0988 1.0604,0.42957 -0.0531,0.13833 -0.17114,0.70671 -0.26235,1.263 -0.0912,0.55635 -0.281,1.4524 -0.42175,1.9911 -0.14075,0.53878 -0.32212,1.3837 -0.40305,1.8776 -0.27217,1.661 -1.2286,5.2199 -1.4669,5.4582 -0.087,0.087 -0.15814,0.71982 -0.15814,1.4063 0,1.0019 0.0589,1.3015 0.29856,1.5184 0.16421,0.14862 0.38294,0.2702 0.48604,0.2702 0.31047,0 0.72155,0.76983 0.60581,1.1345 -0.26256,0.82728 -1.8822,0.43431 -2.2964,-0.55718 -0.13267,-0.31752 -0.31369,-0.57731 -0.40228,-0.57731 -0.0886,0 -0.16108,-0.21606 -0.16108,-0.48016 0,-0.26408 -0.0749,-0.52648 -0.16655,-0.58309 -0.0916,-0.0566 -0.80034,0.49008 -1.575,1.2149 -0.77466,0.72479 -1.4923,1.3178 -1.5948,1.3178 -0.10251,0 -0.47744,0.15236 -0.83316,0.3386 -1.3972,0.73143 -3.3107,0.99366 -4.4019,0.60321 z"
         id="basket" />
    </g>
  </g>
</svg>
