<svg xmlns="http://www.w3.org/2000/svg" height="22.025" width="71.068"><path d="M59.699 7.626c.057-.287.241-.673.409-.857.875-.96 1.147-2.21.731-3.367-.294-.817-.294-.84.015-1.065.383-.28.825-.158 1.356.372.338.339.396.547.385 1.38-.01.675-.11 1.115-.32 1.418a3.196 3.196 0 00-.417.891c-.18.745-1.199 1.751-1.773 1.751-.465 0-.486-.027-.387-.523zM11.676 9.347c-.318-.128-.243-.62.223-1.475l.653-1.192c.327-.598.277-1.085-.183-1.761-.517-.761-.52-1.143-.011-1.271.69-.174 1.081.08 1.494.966.508 1.09.402 2.09-.344 3.272-.901 1.426-1.243 1.7-1.832 1.461zm56.457-2.263c.264-.137.481-.322.481-.41 0-.089.143-.472.317-.853.572-1.247.847-2.34.795-3.155-.047-.74-.086-.807-.5-.854-.32-.037-.449.021-.449.204 0 .14-.073.256-.163.256-.09 0-.163.174-.163.388 0 .213-.108.647-.24.962-.357.855-.87 3.711-.667 3.711.059 0 .324-.112.589-.25zm-14.187.045c.238-.382.52-1.025.625-1.429l.338-1.306c.081-.314.167-1.086.191-1.714.054-1.387-.18-1.498-.924-.44-.376.535-.524.968-.614 1.797-.265 2.43-.335 3.786-.196 3.785.08 0 .341-.312.58-.694zM17.168 19.016c.612-.317.933-1.245 1.149-3.322.3-2.883.266-2.941-1.304-2.26-.589.254-1.579.497-2.481.607-1.525.185-2.356.499-1.844.695.139.053.252.198.252.32 0 .287.95 2.227 1.275 2.605.136.157.328.448.427.646.106.214.4.405.723.472.3.06.626.192.725.292.242.242.53.227 1.078-.055zm12.236 2.844a4.175 4.175 0 01-1.385-.552c-.343-.233-.707-.424-.808-.424-.243 0-1.373-2.481-1.373-3.014 0-.65-.208-.575-2.137.77-.483.336-.965.611-1.071.611-.106 0-.218.055-.248.123-.14.314-2.022.896-3.646 1.127-3.996.568-5.135.054-6.42-2.902-.75-1.727-.815-2.166-.41-2.746l.273-.389-1.374.107c-.756.059-1.725.107-2.153.108-.722.002-.794.04-1.005.532-.292.68-.747 2.213-.747 2.515 0 .308-.626 1.525-.785 1.525-.068 0-.26.228-.423.506-.38.643-1.147.964-2.305.964-.76 0-1.057-.094-1.793-.565-1.767-1.13-1.879-1.972-1.232-9.231.084-.943.203-2.633.263-3.755.061-1.123.178-2.17.26-2.327.216-.415.74-.35 1.055.13.236.36.255.674.144 2.327-.07 1.05-.147 2.612-.17 3.468-.027.97-.142 1.795-.304 2.184-.198.473-.26 1.167-.255 2.85l.007 2.225.552.624c.517.585.613.626 1.545.653.923.027 1.023-.006 1.396-.46.22-.27.403-.573.406-.674.003-.101.186-.505.405-.898.252-.452.457-1.182.556-1.985.087-.7.274-1.449.417-1.666.295-.452 1.05-.645 2.094-.536 1.699.176 6.856-.3 7.391-.682.303-.216 2.117-.81 2.811-.92.628-.099.705-.072.877.307.234.513-.038 5.263-.333 5.814-.105.196-.168.592-.14.88.046.475.098.52.575.5.52-.024 1.862-.577 2.333-.963a2.26 2.26 0 01.653-.322c.438-.131 1.193-.778 3.515-3.013.811-.781 1.81-1.616 2.22-1.856.973-.571 2.71-1.136 3.146-1.023.416.108 1.078 1.046 1.078 1.527 0 .704-1.013.998-1.484.43-.31-.372-1.046-.26-1.998.304-.754.446-.977.695-1.409 1.57-.33.669-.546 1.399-.607 2.046l-.094 1.006.77.792c.698.718.881.814 1.94 1.019.93.18 1.334.187 1.983.034 1.43-.337 3.077-1.523 4.618-3.324.384-.45.806-.933.938-1.075.133-.143.241-.328.241-.412 0-.084.222-.423.493-.752.544-.659 1.13-1.845 1.136-2.295.002-.159.186-.637.408-1.063.461-.88 1.065-3.089 1.065-3.891 0-.748.445-2.383.693-2.544.113-.073.352-.115.531-.092.297.038.327.163.323 1.348-.002.812-.14 1.832-.365 2.694-.2.763-.556 2.233-.793 3.265-.237 1.033-.511 2.025-.61 2.204-.307.562-.58 1.763-.588 2.583-.012 1.272.362 1.73 1.87 2.285 1.361.5 1.675.512 2.587.094.463-.213.879-.425.923-.471.045-.046.376-.3.735-.565 2.117-1.56 4.412-4.614 4.728-6.293.06-.314.25-.96.425-1.435.174-.475.32-1.099.325-1.388.012-.826.564-3.736 1.197-6.32.474-1.93.659-2.435 1.003-2.735.528-.459 1.258-.471 1.968-.033.446.276.561.47.657 1.102.15.988-.164 3.511-.496 3.985-.14.201-.256.469-.256.595 0 .287-1.244 2.788-1.561 3.138-.13.143-.235.33-.235.414 0 .183-1.133 2.425-1.539 3.043-.391.598-.702 2.046-.838 3.91l-.115 1.583.499.5c.794.793 2.172.647 2.927-.31.475-.604 1.35-2.46 1.51-3.201.095-.444.29-1.074.431-1.4l.259-.592 1.902.012c1.647.009 1.991-.037 2.556-.34.36-.192.947-.49 1.306-.661.923-.44 2.428-1.707 2.821-2.374.234-.395.39-1.115.526-2.416.106-1.019.26-1.922.341-2.008.082-.085.149-.365.149-.622 0-1.063.878-3.24 1.596-3.958.307-.307.58-.407 1.103-.407.592 0 .771.086 1.202.577.439.499.508.703.512 1.51.005.867-.72 3.571-1.018 3.795-.064.048-.21.307-.327.575-.253.583-.672 1.176-1.412 1.996a13.34 13.34 0 00-.96 1.22c-.227.337-.477.612-.555.612-.078 0-.141.172-.141.381 0 .368-.512 2.131-.813 2.803-.08.18-.23.956-.333 1.725-.216 1.63-.01 3.201.517 3.942.187.262.302.645.272.904-.045.392-.122.45-.606.45-.505 0-.6-.082-1.044-.899-.448-.823-.49-1.034-.496-2.53-.006-1.247.076-1.897.35-2.752.373-1.168.463-2.065.208-2.065-.083 0-.689.285-1.347.633-1.752.925-3.44 1.49-4.454 1.49-.744 0-.908.058-1.133.402-.145.222-.264.524-.264.673 0 .148-.247.684-.55 1.19-.302.505-.596 1.116-.653 1.356-.119.502-.514.95-.838.95-.121 0-.362.18-.535.4-.869 1.104-2.379 1.153-3.774.122-.91-.673-.991-.852-.995-2.195-.002-.516-.05-.939-.107-.939-.058 0-.834.736-1.724 1.634-.89.9-1.89 1.781-2.221 1.961-.332.18-.713.39-.848.469-1.183.684-2.226.831-3.137.442a13.922 13.922 0 00-1.243-.439c-1.042-.308-1.89-1.338-2.137-2.596-.106-.54-.254-.981-.33-.981-.074 0-.268.202-.43.449-.352.539-2.509 2.653-2.706 2.653-.077 0-.276.137-.443.304-.167.167-.838.571-1.491.898-1.264.632-2.158.729-3.946.427z"/></svg>