<svg xmlns="http://www.w3.org/2000/svg" height="18.765" width="17.743"><path d="M8.81 6.912c-.339-.137-.232-.7.311-1.65.476-.833.513-1.006.491-2.306-.012-.773-.042-1.7-.066-2.058-.035-.547.008-.654.266-.654.17 0 .538.283.817.628.476.589.508.713.508 1.967 0 1.209-.054 1.44-.558 2.392-.523.987-1.19 1.806-1.45 1.776a1.617 1.617 0 01-.319-.095zM1.681 18.456c-.905-.462-1.519-1.394-1.665-2.53-.08-.617.158-7.503.4-11.633.06-1.006.192-1.912.294-2.014.102-.101.351-.16.554-.13.655.097.733.454.519 2.38a39.742 39.742 0 00-.196 3.642c0 1.028-.085 3.171-.19 4.762l-.19 2.891.448.649c.55.793 1.203 1.063 1.88.779.573-.241 1.643-1.183 1.643-1.447 0-.103.112-.312.25-.464.3-.331.891-2.325.895-3.014.002-.27.049-.665.106-.878.099-.37.148-.382 1.12-.283 1.13.116 2.76-.185 3.45-.637.723-.474 3.321-3.157 3.321-3.43 0-.144.19-.68.422-1.19.231-.512.48-1.076.55-1.256l.314-.783c.101-.251.184-.668.184-.926 0-.596.472-2.471.69-2.74.091-.112.376-.204.633-.204.539 0 .738.467.575 1.349-.054.29-.165.933-.246 1.427-.082.493-.34 1.33-.574 1.857-.234.527-.425 1.239-.425 1.581 0 .343-.113 1.107-.25 1.699-.137.592-.321 1.753-.41 2.581-.088.828-.234 1.873-.325 2.322-.091.45-.21 1.348-.265 1.997-.12 1.433.126 1.953.96 2.034.415.04.547.135.588.427.105.743-.758 1.282-1.588.993-1.11-.387-1.655-1.863-1.318-3.573.236-1.195.631-4.193.64-4.857.005-.296-.075-.53-.18-.53-.103 0-.563.385-1.022.856a14.064 14.064 0 01-1.77 1.495c-.856.586-1.273.726-3.034 1.024-.54.091-1.167.81-1.169 1.341 0 .125-.14.529-.312.898-.171.369-.405.92-.52 1.226-.252.674-1.665 2.097-2.387 2.405-.74.315-1.667.278-2.4-.096z" stroke-width=".163"/></svg>