<?xml version="1.0" encoding="UTF-8" standalone="no"?>
<svg
   xmlns:dc="http://purl.org/dc/elements/1.1/"
   xmlns:cc="http://creativecommons.org/ns#"
   xmlns:rdf="http://www.w3.org/1999/02/22-rdf-syntax-ns#"
   xmlns:svg="http://www.w3.org/2000/svg"
   xmlns="http://www.w3.org/2000/svg"
   id="svg2094"
   viewBox="0 0 17.743007 18.764647"
   version="1.1"
   height="18.764647"
   width="17.743008">
  <defs
     id="defs2098" />
  <metadata
     id="metadata2">
    <rdf:RDF>
      <cc:Work
         rdf:about="">
        <dc:format>image/svg+xml</dc:format>
        <dc:type
           rdf:resource="http://purl.org/dc/dcmitype/StillImage" />
        <dc:title />
      </cc:Work>
    </rdf:RDF>
  </metadata>
  <g
     transform="translate(-406.40996,-694.20814)"
     id="g2092">
    <g
       style="stroke-width:0.16327"
       id="g2081">
      <path
         d="m 415.22,701.12 c -0.33865,-0.13665 -0.23241,-0.70058 0.31092,-1.6502 0.47621,-0.83234 0.51323,-1.006 0.49145,-2.3056 -0.0129,-0.77302 -0.0427,-1.6994 -0.066,-2.0585 -0.0355,-0.5465 0.008,-0.65307 0.26606,-0.65307 0.1697,0 0.53704,0.28257 0.81633,0.62792 0.47587,0.58843 0.5078,0.7121 0.5078,1.9664 0,1.2089 -0.054,1.4405 -0.5578,2.3925 -0.52238,0.98714 -1.1907,1.8052 -1.4506,1.7759 -0.0627,-0.007 -0.20588,-0.05 -0.31812,-0.0952 z m -7.1287,11.544 c -0.90527,-0.46154 -1.5192,-1.3942 -1.6657,-2.5306 -0.0795,-0.6166 0.15786,-7.5018 0.40106,-11.632 0.0592,-1.0061 0.19107,-1.9123 0.29296,-2.0138 0.10188,-0.1015 0.35153,-0.15997 0.55474,-0.12993 0.6546,0.0968 0.73238,0.4538 0.51831,2.3789 -0.10839,0.97482 -0.19666,2.6139 -0.19613,3.6424 0,1.0285 -0.0849,3.1713 -0.18978,4.7618 l -0.19075,2.8917 0.44938,0.64845 c 0.54971,0.79324 1.2027,1.0637 1.8803,0.77879 0.57272,-0.24082 1.6418,-1.1828 1.6418,-1.4467 0,-0.103 0.11252,-0.3116 0.25005,-0.46357 0.29981,-0.33128 0.89191,-2.3253 0.89504,-3.0142 0.002,-0.26968 0.0489,-0.66465 0.10591,-0.87773 0.0991,-0.37034 0.14854,-0.38281 1.1214,-0.28312 1.1294,0.11571 2.7596,-0.1856 3.4494,-0.63758 0.72305,-0.47375 3.321,-3.1566 3.321,-3.4295 0,-0.14421 0.1896,-0.68011 0.42134,-1.1909 0.23172,-0.51078 0.47972,-1.0756 0.5511,-1.2552 0.0714,-0.17959 0.21238,-0.53203 0.31336,-0.7832 0.10098,-0.25115 0.18359,-0.66768 0.18359,-0.92559 0,-0.59676 0.47251,-2.4715 0.69063,-2.7402 0.0911,-0.11225 0.37569,-0.20408 0.63238,-0.20408 0.53926,0 0.7381,0.46667 0.5748,1.349 -0.0538,0.29069 -0.16447,0.9326 -0.24594,1.4265 -0.0815,0.49387 -0.33954,1.3296 -0.57348,1.857 -0.23393,0.52751 -0.42533,1.2393 -0.42533,1.5817 0,0.34243 -0.11229,1.1068 -0.24953,1.6986 -0.13724,0.5918 -0.32165,1.7535 -0.4098,2.5816 -0.0881,0.82807 -0.23476,1.8729 -0.32583,2.3219 -0.0911,0.44898 -0.2101,1.3473 -0.2645,1.9963 -0.12018,1.4336 0.12542,1.9535 0.96078,2.034 0.41412,0.0399 0.54573,0.13576 0.58714,0.42772 0.10525,0.74255 -0.75809,1.282 -1.5885,0.99251 -1.1101,-0.38697 -1.6543,-1.863 -1.3174,-3.5729 0.2355,-1.1952 0.63081,-4.1925 0.64062,-4.8571 0.004,-0.29575 -0.0753,-0.53061 -0.18003,-0.53061 -0.10331,0 -0.56366,0.38571 -1.023,0.85714 -0.45929,0.47143 -1.2553,1.1442 -1.769,1.4949 -0.85719,0.58539 -1.2736,0.72583 -3.0345,1.0235 -0.54116,0.0915 -1.1674,0.8101 -1.1688,1.3413 0,0.12484 -0.14088,0.52893 -0.31233,0.89796 -0.17144,0.36901 -0.4053,0.92068 -0.51969,1.2259 -0.2526,0.67407 -1.6655,2.0971 -2.3878,2.4048 -0.73945,0.31508 -1.6664,0.2782 -2.3993,-0.0955 z"
         id="bat" />
    </g>
  </g>
</svg>
