<?xml version="1.0" encoding="UTF-8" standalone="no"?>
<svg
   xmlns:dc="http://purl.org/dc/elements/1.1/"
   xmlns:cc="http://creativecommons.org/ns#"
   xmlns:rdf="http://www.w3.org/1999/02/22-rdf-syntax-ns#"
   xmlns:svg="http://www.w3.org/2000/svg"
   xmlns="http://www.w3.org/2000/svg"
   id="svg2094"
   viewBox="0 0 21.573373 19.21253"
   version="1.1"
   height="19.21253"
   width="21.573374">
  <defs
     id="defs2098" />
  <metadata
     id="metadata2">
    <rdf:RDF>
      <cc:Work
         rdf:about="">
        <dc:format>image/svg+xml</dc:format>
        <dc:type
           rdf:resource="http://purl.org/dc/dcmitype/StillImage" />
        <dc:title />
      </cc:Work>
    </rdf:RDF>
  </metadata>
  <g
     transform="translate(-405.94419,-719.05242)"
     id="g2092">
    <g
       style="stroke-width:0.16327"
       id="g2081">
      <path
         d="m 414.04,725.71 c -0.14167,-0.26469 -0.086,-0.55558 0.27352,-1.4286 0.45289,-1.0998 0.48504,-1.4407 0.34973,-3.7084 -0.0427,-0.71591 -0.008,-0.82218 0.2838,-0.86393 0.1934,-0.0277 0.50077,0.13146 0.73469,0.38041 0.34941,0.37182 0.40982,0.61012 0.46028,1.8155 0.0652,1.5581 -0.15624,2.3543 -0.96584,3.4719 -0.53362,0.73664 -0.86779,0.83459 -1.1362,0.33308 z m -6.201,12.195 c -0.52455,-0.26642 -0.88192,-0.61736 -1.2494,-1.2269 -0.67837,-1.1252 -0.80528,-2.4404 -0.4591,-4.7581 0.45209,-3.027 0.61071,-5.3956 0.57462,-8.5814 -0.0297,-2.626 0.004,-3.1444 0.21498,-3.3196 0.35462,-0.29434 0.7927,-0.16431 1.0464,0.31056 0.31409,0.58795 0.17479,7.6775 -0.19244,9.7945 -0.8123,4.6826 -0.79901,5.3296 0.12491,6.078 0.80146,0.64919 2.3277,0.18781 2.7931,-0.84439 0.1647,-0.36524 0.39359,-0.74219 0.50864,-0.83768 0.11505,-0.0955 0.26028,-0.40622 0.32273,-0.69053 0.0624,-0.28433 0.22868,-0.6927 0.36943,-0.90751 0.14075,-0.21481 0.30728,-0.8263 0.37009,-1.3589 0.15648,-1.3271 0.43757,-1.6023 1.6367,-1.6023 0.87359,0 2.1027,-0.38557 2.1027,-0.65963 0,-0.0601 0.33084,-0.31848 0.73522,-0.57407 0.96442,-0.60961 2.0161,-2.0764 2.4776,-3.4556 0.56901,-1.7006 1.1538,-3.9827 1.2806,-4.9975 0.12909,-1.0332 0.37722,-1.3352 0.97384,-1.1855 0.3818,0.0958 0.41029,0.17174 0.41029,1.0935 0,1.0151 -0.36031,2.7521 -0.76705,3.6978 -0.1963,0.45644 -0.5089,1.9539 -0.81785,3.9177 -0.0831,0.5284 -0.0806,0.53062 0.60933,0.53062 0.38102,0 0.95846,-0.076 1.2832,-0.16879 0.94515,-0.27022 3.9417,-0.59546 4.559,-0.49482 0.58792,0.0958 0.93508,0.58457 0.6932,0.97592 -0.19487,0.31531 -1.3764,0.52305 -3.6822,0.64743 -1.7837,0.0962 -2.251,0.17859 -2.9275,0.51614 -0.53381,0.26634 -0.84469,0.53919 -0.92268,0.80983 -0.0647,0.22449 -0.23527,0.78989 -0.37904,1.2564 -0.14378,0.46655 -0.3308,1.519 -0.41562,2.3387 -0.18137,1.7531 -0.78985,3.2455 -1.329,3.2595 -0.0529,0.002 -0.1809,-0.18332 -0.28438,-0.41042 -0.22147,-0.48606 -0.0792,-1.5925 0.64292,-4.9997 0.25982,-1.226 0.47239,-2.3096 0.47239,-2.4082 0,-0.36809 -0.60733,-0.15089 -1.7874,0.63927 -0.68191,0.45659 -1.4026,0.81419 -1.6408,0.81419 -0.23365,0 -0.49461,0.0673 -0.57992,0.14943 -0.0853,0.0822 -0.33366,0.17404 -0.5519,0.20408 -0.34008,0.0469 -0.45949,0.24776 -0.83523,1.4053 -0.24113,0.74287 -0.54835,1.4776 -0.68268,1.6326 -0.13435,0.15509 -0.35928,0.62839 -0.49987,1.0518 -0.24238,0.73002 -1.3002,2.0873 -1.6267,2.0873 -0.0837,0 -0.33891,0.14694 -0.56722,0.32653 -0.53673,0.42219 -1.0931,0.40669 -2.0037,-0.0558 z"
         id="bath" />
    </g>
  </g>
</svg>
