<svg xmlns="http://www.w3.org/2000/svg" height="19.213" width="21.573"><path d="M8.096 6.658c-.142-.265-.086-.556.273-1.429.453-1.1.485-1.44.35-3.708-.043-.716-.008-.823.284-.864.193-.028.5.131.735.38.349.372.41.61.46 1.816.065 1.558-.156 2.354-.966 3.471-.534.737-.868.835-1.136.334zM1.895 18.853c-.525-.267-.882-.618-1.25-1.227-.678-1.126-.805-2.44-.459-4.758.452-3.027.611-5.396.575-8.582C.73 1.66.765 1.142.976.966c.355-.294.793-.164 1.046.311.314.588.175 7.678-.192 9.795-.812 4.682-.8 5.33.125 6.078.801.649 2.327.187 2.793-.845.165-.365.393-.742.509-.837.115-.096.26-.407.322-.691.063-.284.229-.693.37-.907.14-.215.307-.827.37-1.36.156-1.326.437-1.602 1.636-1.602.874 0 2.103-.385 2.103-.66 0-.06.331-.318.735-.573.965-.61 2.016-2.077 2.478-3.456.569-1.7 1.154-3.983 1.28-4.997.13-1.034.378-1.336.974-1.186.382.096.41.172.41 1.094 0 1.015-.36 2.752-.766 3.697-.197.457-.51 1.954-.818 3.918-.083.528-.08.53.61.53.38 0 .958-.075 1.282-.168.946-.27 3.942-.596 4.56-.495.587.096.934.585.693.976-.195.315-1.377.523-3.683.647-1.783.097-2.25.179-2.927.517-.534.266-.845.539-.923.81-.065.224-.235.79-.379 1.256-.144.466-.33 1.519-.415 2.338-.182 1.754-.79 3.246-1.33 3.26-.052.002-.18-.183-.284-.41-.221-.487-.08-1.593.643-5 .26-1.226.472-2.31.472-2.408 0-.368-.607-.151-1.787.639-.682.457-1.403.814-1.64.814-.234 0-.495.067-.58.15-.086.082-.334.174-.553.204-.34.047-.46.247-.835 1.405-.24.743-.548 1.478-.682 1.633-.135.155-.36.628-.5 1.051-.243.73-1.3 2.088-1.627 2.088-.084 0-.339.147-.567.326-.537.422-1.093.407-2.004-.056z"/></svg>