<?xml version="1.0" encoding="UTF-8" standalone="no"?>
<svg
   xmlns:dc="http://purl.org/dc/elements/1.1/"
   xmlns:cc="http://creativecommons.org/ns#"
   xmlns:rdf="http://www.w3.org/1999/02/22-rdf-syntax-ns#"
   xmlns:svg="http://www.w3.org/2000/svg"
   xmlns="http://www.w3.org/2000/svg"
   id="svg2094"
   viewBox="0 0 29.190759 22.082766"
   version="1.1"
   height="22.082766"
   width="29.19076">
  <defs
     id="defs2098" />
  <metadata
     id="metadata2">
    <rdf:RDF>
      <cc:Work
         rdf:about="">
        <dc:format>image/svg+xml</dc:format>
        <dc:type
           rdf:resource="http://purl.org/dc/dcmitype/StillImage" />
        <dc:title />
      </cc:Work>
    </rdf:RDF>
  </metadata>
  <g
     transform="translate(-404.7388,-738.89193)"
     id="g2092">
    <g
       style="stroke-width:0.16327"
       id="g2081">
      <path
         d="m 413.97,748.8 c -0.14111,-0.14112 -0.25655,-0.28797 -0.25655,-0.32634 0,-0.0384 0.26331,-0.58645 0.58512,-1.2179 0.5491,-1.0774 0.57917,-1.2157 0.4881,-2.2451 -0.22235,-2.5134 -0.21799,-2.5613 0.23829,-2.6146 0.7184,-0.0838 1.1926,0.60994 1.2723,1.8614 0.12119,1.9033 -0.43051,3.5963 -1.4641,4.4927 -0.42977,0.37272 -0.5343,0.37878 -0.86317,0.0499 z m 17.015,-1.4608 c 0.28865,-0.58537 0.52483,-1.2055 0.52483,-1.3781 0,-0.1726 0.0647,-0.35376 0.14366,-0.4026 0.23598,-0.14584 0.63646,-1.5601 0.82005,-2.896 0.31753,-2.3105 -0.52609,-3.2081 -0.957,-1.0182 -0.0866,0.44006 -0.2358,1.0573 -0.33159,1.3716 -0.31907,1.047 -0.97956,4.3192 -0.98041,4.8571 0,0.29184 0.0569,0.53061 0.1274,0.53061 0.0705,0 0.36439,-0.47894 0.65306,-1.0643 z m -25.231,13.236 c -0.93727,-0.78867 -1.2401,-2.9208 -0.8477,-5.9679 0.0867,-0.67347 0.22822,-2.1061 0.31441,-3.1837 0.0862,-1.0776 0.22596,-2.2531 0.3106,-2.6122 0.0846,-0.35918 0.23882,-1.5714 0.34266,-2.6939 0.17461,-1.8874 0.42993,-2.7755 0.79794,-2.7755 0.0738,0 0.26918,0.14916 0.43417,0.33147 0.28085,0.31034 0.28675,0.44823 0.0924,2.1633 -0.11418,1.0075 -0.26681,2.7502 -0.3392,3.8726 -0.0724,1.1224 -0.24231,2.6653 -0.37759,3.4286 -0.34253,1.9324 -0.508,5.2846 -0.28173,5.7074 0.0981,0.18338 0.35829,0.45125 0.57807,0.59527 0.33984,0.22267 0.5193,0.23316 1.1994,0.07 1.5034,-0.36066 2.604,-2.1787 2.9635,-4.8953 0.0885,-0.66906 0.23806,-1.2935 0.33223,-1.3877 0.0957,-0.0957 0.66075,-0.15129 1.281,-0.12607 0.93553,0.0381 1.2772,-0.03 2.1768,-0.4336 0.58687,-0.26331 1.1155,-0.55721 1.1748,-0.65308 0.0592,-0.0959 0.36589,-0.29683 0.68144,-0.44658 0.31554,-0.14973 0.7716,-0.53498 1.0135,-0.85611 0.24188,-0.32114 0.56445,-0.71097 0.7168,-0.8663 0.63718,-0.64957 1.1496,-2.2398 1.3592,-4.2182 0.12413,-1.1717 0.64196,-2.2857 1.0624,-2.2857 0.14913,0 0.40173,0.14427 0.56132,0.32063 0.27865,0.30791 0.2732,0.4068 -0.13734,2.4898 -0.23513,1.193 -0.49826,2.5365 -0.58473,2.9855 -0.16958,0.88052 -0.52371,3.5605 -0.59326,4.4898 -0.0858,1.1463 -0.36867,2.7504 -0.5422,3.0746 -0.29411,0.54955 -0.20621,0.91236 0.37469,1.5466 0.52322,0.57122 0.60647,0.60333 1.5642,0.60333 0.88022,0 1.1211,-0.0729 1.8555,-0.56155 1.5194,-1.0109 2.8318,-2.4781 4.1703,-4.6622 0.41215,-0.67254 0.58488,-1.1863 0.68637,-2.0416 0.21086,-1.7771 0.4466,-3.2042 0.64723,-3.9184 0.10092,-0.35919 0.28428,-1.2408 0.40748,-1.9592 0.12318,-0.71836 0.33401,-1.6735 0.46851,-2.1224 0.13448,-0.44898 0.36871,-1.4041 0.52052,-2.1224 0.35247,-1.6679 0.57598,-2.099 1.2556,-2.4215 0.6391,-0.30327 1.5591,-0.13599 2.0718,0.3767 0.53975,0.53975 0.62774,2.8428 0.16542,4.3305 -0.0837,0.26939 -0.31019,1.0041 -0.50327,1.6326 -0.3974,1.2937 -1.7298,4.0676 -2.3348,4.8608 -0.86434,1.1332 -1.4995,3.4017 -1.6888,6.0314 -0.0703,0.9768 -0.0236,1.2145 0.42898,2.1816 0.56145,1.1998 0.64914,1.9391 0.24826,2.093 -0.64093,0.24596 -2.0261,-1.3319 -2.0261,-2.308 0,-0.86577 -0.20356,-2.0016 -0.35872,-2.0016 -0.0831,0 -0.82618,0.68821 -1.6513,1.5294 -2.2113,2.2543 -3.7936,2.9582 -5.593,2.4883 -0.53068,-0.13858 -0.99059,-0.32912 -1.022,-0.42344 -0.0314,-0.0943 -0.14243,-0.26555 -0.24666,-0.38053 -0.43055,-0.47492 -0.92412,-1.5995 -0.92305,-2.1032 0,-0.29651 0.14168,-1.1268 0.31345,-1.8452 0.17175,-0.71836 0.36441,-1.8388 0.42811,-2.4898 0.13364,-1.3658 0.0405,-1.4414 -0.88248,-0.71625 -0.3272,0.25708 -0.81533,0.58864 -1.0847,0.73677 -0.26938,0.14815 -0.6,0.33446 -0.73469,0.41406 -0.76867,0.45422 -2.0066,0.97278 -2.7452,1.15 -0.52826,0.12673 -0.84668,0.2905 -0.84668,0.43546 0,0.23961 -0.81265,2.3319 -1.2843,3.3066 -0.14668,0.30312 -0.46874,0.70266 -0.71568,0.88783 -0.24694,0.1852 -0.44898,0.42693 -0.44898,0.53718 0,0.11027 -0.28609,0.42707 -0.63574,0.704 -0.58287,0.46163 -0.73797,0.50351 -1.865,0.50351 -1.0659,0 -1.2924,-0.0531 -1.704,-0.39943 z"
         id="battle" />
    </g>
  </g>
</svg>
