<svg xmlns="http://www.w3.org/2000/svg" height="22.083" width="29.191"><path d="M9.231 9.908c-.14-.141-.256-.288-.256-.326 0-.039.263-.587.585-1.218.549-1.078.579-1.216.488-2.245-.222-2.514-.218-2.562.238-2.615.719-.084 1.193.61 1.272 1.862.122 1.903-.43 3.596-1.464 4.492-.43.373-.534.379-.863.05zm17.015-1.46c.289-.586.525-1.206.525-1.379 0-.172.065-.354.144-.402.236-.146.636-1.56.82-2.896.317-2.31-.526-3.209-.957-1.019-.087.44-.236 1.058-.332 1.372-.319 1.047-.98 4.32-.98 4.857 0 .292.057.53.127.53s.365-.478.653-1.064zM1.016 21.682c-.938-.788-1.24-2.92-.848-5.968.086-.673.228-2.106.314-3.183.086-1.078.226-2.253.31-2.613.085-.359.24-1.57.343-2.693.175-1.888.43-2.776.798-2.776.074 0 .27.15.434.332.281.31.287.448.093 2.163a97.482 97.482 0 00-.34 3.872c-.072 1.123-.242 2.666-.377 3.429-.343 1.932-.508 5.285-.282 5.707.098.184.358.452.578.596.34.222.52.233 1.2.07 1.503-.361 2.604-2.179 2.963-4.896.089-.669.238-1.293.332-1.387.096-.096.661-.152 1.281-.126.936.038 1.278-.03 2.177-.434.587-.263 1.116-.557 1.175-.653.06-.096.366-.297.681-.447.316-.15.772-.535 1.014-.856.242-.32.564-.71.717-.866.637-.65 1.15-2.24 1.359-4.218.124-1.172.642-2.286 1.062-2.286.15 0 .402.144.562.32.278.309.273.407-.138 2.49a1030.93 1030.93 0 00-.584 2.986c-.17.88-.524 3.56-.594 4.49-.086 1.146-.368 2.75-.542 3.074-.294.55-.206.913.375 1.547.523.571.606.603 1.564.603.88 0 1.121-.073 1.855-.561 1.52-1.011 2.832-2.478 4.17-4.662.413-.673.586-1.187.687-2.042.211-1.777.447-3.204.647-3.918.101-.36.285-1.241.408-1.96.123-.718.334-1.673.468-2.122a33.37 33.37 0 00.52-2.122c.353-1.668.577-2.1 1.256-2.422.64-.303 1.56-.136 2.072.377.54.54.628 2.843.166 4.33l-.504 1.633c-.397 1.294-1.73 4.067-2.334 4.86-.865 1.134-1.5 3.402-1.69 6.032-.07.977-.023 1.215.43 2.182.561 1.2.649 1.939.248 2.093-.64.246-2.026-1.332-2.026-2.308 0-.866-.204-2.002-.359-2.002-.083 0-.826.688-1.651 1.53-2.211 2.254-3.794 2.958-5.593 2.488-.53-.139-.99-.33-1.022-.424a1.372 1.372 0 00-.247-.38c-.43-.475-.924-1.6-.923-2.103 0-.297.142-1.127.314-1.846a22.38 22.38 0 00.428-2.49c.133-1.365.04-1.44-.883-.716a9.917 9.917 0 01-1.084.737c-.27.148-.6.335-.735.414-.769.454-2.007.973-2.745 1.15-.529.127-.847.29-.847.436 0 .24-.813 2.332-1.284 3.306-.147.303-.469.703-.716.888-.247.185-.449.427-.449.537 0 .11-.286.427-.636.704-.583.462-.738.504-1.865.504-1.066 0-1.292-.053-1.704-.4z"/></svg>