<svg xmlns="http://www.w3.org/2000/svg" height="18.752" width="15.636"><path d="M12.673 6.311c-.055-.62.065-1.127.397-1.673.19-.314.397-.608.459-.653.166-.12.474-1.316.475-1.845 0-.251-.114-.68-.255-.951-.232-.449-.232-.53.002-.886.225-.343.307-.369.664-.206.224.102.407.228.407.281 0 .053.184.31.408.571.273.318.407.668.406 1.061-.002.585-.41 1.977-.626 2.136-.062.046-.207.267-.322.492-.64 1.247-.823 1.539-1.097 1.739-.42.308-.887.274-.917-.066zM1.678 18.723c-.982-.19-1.224-.402-1.486-1.304-.2-.684-.234-1.24-.148-2.387.061-.823.137-2.713.17-4.2.05-2.38.211-5.11.509-8.643.091-1.085.324-1.47.887-1.47.42 0 .484.37.307 1.758-.088.694-.166 2.291-.173 3.548-.007 1.258-.078 3.02-.158 3.919-.08.898-.181 2.257-.226 3.02-.044.763-.128 1.77-.185 2.236-.176 1.442.471 2.33 1.529 2.099.277-.061.833-.455 1.268-.898.665-.677.854-1.03 1.323-2.461.3-.92.546-1.873.546-2.118 0-.246.16-.648.353-.895.343-.436.386-.446 1.484-.337.738.072 1.414.039 1.943-.097.582-.15.89-.159 1.088-.035.39.247.433.682.1 1.05-.238.263-.51.313-1.697.313-.873 0-1.519.078-1.69.205-.153.112-.436.791-.63 1.51-.193.718-.398 1.343-.456 1.388-.058.044-.206.338-.33.653a4.98 4.98 0 01-.562 1.01c-.186.241-.464.62-.618.84-.548.784-2.226 1.475-3.148 1.296z"/></svg>