<?xml version="1.0" encoding="UTF-8" standalone="no"?>
<svg
   xmlns:dc="http://purl.org/dc/elements/1.1/"
   xmlns:cc="http://creativecommons.org/ns#"
   xmlns:rdf="http://www.w3.org/1999/02/22-rdf-syntax-ns#"
   xmlns:svg="http://www.w3.org/2000/svg"
   xmlns="http://www.w3.org/2000/svg"
   id="svg2094"
   viewBox="0 0 15.635799 18.751656"
   version="1.1"
   height="18.751656"
   width="15.635799">
  <defs
     id="defs2098" />
  <metadata
     id="metadata2">
    <rdf:RDF>
      <cc:Work
         rdf:about="">
        <dc:format>image/svg+xml</dc:format>
        <dc:type
           rdf:resource="http://purl.org/dc/dcmitype/StillImage" />
        <dc:title />
      </cc:Work>
    </rdf:RDF>
  </metadata>
  <g
     transform="translate(-404.93685,-766.13869)"
     id="g2092">
    <g
       style="stroke-width:0.16327"
       id="g2081">
      <path
         d="m 417.61,772.45 c -0.0551,-0.61969 0.0651,-1.127 0.39641,-1.6735 0.19055,-0.31429 0.39724,-0.60817 0.45933,-0.65307 0.16591,-0.11996 0.47382,-1.3162 0.47486,-1.8448 0,-0.2514 -0.11407,-0.67945 -0.25461,-0.95122 -0.23199,-0.4486 -0.23187,-0.5302 0.002,-0.88583 0.22482,-0.34313 0.30712,-0.3687 0.66367,-0.20625 0.22387,0.10201 0.40712,0.22877 0.40724,0.2817 1.1e-4,0.0529 0.18379,0.30971 0.40816,0.57061 0.27318,0.31765 0.40718,0.66828 0.40558,1.0612 -0.002,0.58438 -0.41041,1.9772 -0.62581,2.136 -0.0622,0.0459 -0.20726,0.26714 -0.3223,0.49163 -0.6393,1.2476 -0.82312,1.5391 -1.0965,1.739 -0.42102,0.30785 -0.88697,0.27456 -0.9172,-0.0655 z m -10.995,12.412 c -0.98215,-0.18983 -1.2244,-0.4023 -1.4865,-1.3039 -0.19883,-0.68395 -0.23327,-1.2404 -0.14777,-2.3878 0.0613,-0.82281 0.13756,-2.713 0.16942,-4.2005 0.051,-2.3787 0.21187,-5.1087 0.50939,-8.6424 0.0913,-1.0843 0.32388,-1.4694 0.88752,-1.4694 0.41891,0 0.48338,0.36921 0.30688,1.7573 -0.0883,0.69471 -0.16634,2.2917 -0.17331,3.5488 -0.007,1.2571 -0.0779,3.0204 -0.15768,3.9184 -0.0797,0.89796 -0.18144,2.2571 -0.22599,3.0204 -0.0445,0.76326 -0.12776,1.7694 -0.1849,2.2359 -0.17665,1.442 0.47081,2.3308 1.5287,2.0984 0.27671,-0.0608 0.83331,-0.4548 1.2684,-0.89795 0.66435,-0.67655 0.85369,-1.0289 1.3222,-2.461 0.30077,-0.91925 0.54684,-1.8722 0.54684,-2.1177 0,-0.24546 0.15882,-0.64821 0.35293,-0.89498 0.34263,-0.43559 0.38593,-0.44542 1.484,-0.33723 0.73757,0.0727 1.4136,0.0391 1.943,-0.0966 0.58217,-0.1492 0.8899,-0.15901 1.0874,-0.0346 0.39092,0.24617 0.43297,0.68194 0.10119,1.0486 -0.2391,0.26419 -0.51005,0.31438 -1.6974,0.31438 -0.87326,0 -1.519,0.0779 -1.6907,0.20408 -0.15284,0.11225 -0.43599,0.79184 -0.62921,1.5102 -0.19323,0.71836 -0.39865,1.3428 -0.45647,1.3878 -0.0578,0.0449 -0.20626,0.33878 -0.32982,0.65306 -0.12356,0.31429 -0.37652,0.76888 -0.56215,1.0102 -0.18563,0.24132 -0.46381,0.61951 -0.61819,0.84039 -0.54753,0.78334 -2.2258,1.4744 -3.1479,1.2962 z"
         id="bay" />
    </g>
  </g>
</svg>
