<svg xmlns="http://www.w3.org/2000/svg" height="16.719" width="11.044"><path d="M1.785 16.581c-.18-.073-.628-.459-.995-.856-.651-.707-.668-.755-.762-2.183-.053-.803-.028-2.526.057-3.828.084-1.302.19-3.837.236-5.633C.366 2.285.438.659.48.468c.092-.413.703-.616 1.031-.344.192.159.215.69.131 3.054-.1 2.821-.16 8.023-.12 10.49.017 1.15.049 1.265.346 1.265.18 0 .326.073.326.163 0 .411.934.112 1.741-.558.78-.647 1.851-3.256 1.851-4.505 0-.295.114-.537.3-.637.595-.318 1.75-.662 2.23-.664.27-.002.802-.167 1.182-.368.66-.35.711-.354 1.143-.091.325.198.435.38.393.651-.076.5-.12.52-1.928.876-1.379.271-1.605.365-1.93.802a3.087 3.087 0 00-.473 1.066c-.174.933-.949 2.837-1.271 3.12-.165.146-.305.33-.311.409-.007.08-.377.456-.823.838-.684.586-.917.692-1.498.683-.378-.006-.835-.07-1.016-.143z" stroke-width=".163"/></svg>