<svg xmlns="http://www.w3.org/2000/svg" height="16.725" width="11.044"><path d="M1.785 16.58c-.18-.073-.628-.458-.995-.856-.651-.707-.668-.754-.762-2.183-.053-.803-.028-2.525.057-3.827.084-1.302.19-3.837.236-5.633C.366 2.285.438.66.48.468c.092-.413.703-.616 1.031-.344.192.159.215.69.131 3.054-.1 2.821-.159 8.024-.12 10.495.017 1.15.049 1.266.346 1.266.18 0 .326.073.326.163 0 .411.934.112 1.74-.558.78-.647 1.852-3.256 1.852-4.505 0-.296.114-.538.3-.637.595-.319 1.75-.663 2.23-.664.27-.002.802-.167 1.182-.369.66-.35.711-.354 1.143-.09.325.198.435.38.393.65-.076.5-.12.521-1.928.876-1.38.272-1.605.366-1.93.802a3.087 3.087 0 00-.473 1.066c-.174.934-.949 2.837-1.27 3.122-.165.145-.306.329-.312.408-.007.08-.377.456-.822.838-.685.586-.918.692-1.499.683-.378-.006-.835-.07-1.016-.143z"/></svg>