<?xml version="1.0" encoding="UTF-8" standalone="no"?>
<svg
   xmlns:dc="http://purl.org/dc/elements/1.1/"
   xmlns:cc="http://creativecommons.org/ns#"
   xmlns:rdf="http://www.w3.org/1999/02/22-rdf-syntax-ns#"
   xmlns:svg="http://www.w3.org/2000/svg"
   xmlns="http://www.w3.org/2000/svg"
   id="svg2094"
   viewBox="0 0 11.043787 16.724775"
   version="1.1"
   height="16.724775"
   width="11.043787">
  <defs
     id="defs2098" />
  <metadata
     id="metadata2">
    <rdf:RDF>
      <cc:Work
         rdf:about="">
        <dc:format>image/svg+xml</dc:format>
        <dc:type
           rdf:resource="http://purl.org/dc/dcmitype/StillImage" />
        <dc:title />
      </cc:Work>
    </rdf:RDF>
  </metadata>
  <g
     transform="translate(-405.31494,-791.75986)"
     id="g2092">
    <g
       style="stroke-width:0.16327"
       id="g2081">
      <path
         d="m 407.1,808.34 c -0.18064,-0.0733 -0.6282,-0.45848 -0.9946,-0.85595 -0.65165,-0.70699 -0.66824,-0.75446 -0.76274,-2.1829 -0.0531,-0.80314 -0.0276,-2.5255 0.0568,-3.8276 0.0843,-1.302 0.19058,-3.8367 0.23611,-5.6326 0.0455,-1.7959 0.11777,-3.4218 0.16054,-3.6131 0.0923,-0.41264 0.70281,-0.61633 1.031,-0.34395 0.19157,0.159 0.2144,0.69081 0.1311,3.0544 -0.0994,2.8206 -0.15932,8.0232 -0.12087,10.495 0.0179,1.1499 0.0495,1.2653 0.34622,1.2653 0.17959,0 0.32653,0.0735 0.32653,0.16327 0,0.41105 0.93403,0.11157 1.7407,-0.55811 0.7792,-0.64689 1.8511,-3.2558 1.8511,-4.5053 0,-0.29531 0.11416,-0.53717 0.30062,-0.63698 0.59458,-0.3182 1.7497,-0.6622 2.23,-0.66409 0.26939,-0.002 0.80097,-0.16673 1.1813,-0.36817 0.66081,-0.35 0.71151,-0.35405 1.1428,-0.0911 0.32536,0.19835 0.43528,0.38026 0.39373,0.65151 -0.0766,0.50013 -0.12098,0.52029 -1.9284,0.87565 -1.3795,0.27124 -1.6053,0.3651 -1.9295,0.8019 -0.20196,0.2721 -0.41502,0.75185 -0.47349,1.0661 -0.1736,0.93321 -0.94878,2.8369 -1.2709,3.1212 -0.16457,0.14522 -0.30464,0.3289 -0.31125,0.40816 -0.007,0.0793 -0.37668,0.45636 -0.82236,0.83799 -0.68425,0.5859 -0.91739,0.69227 -1.4982,0.68353 -0.3783,-0.006 -0.83564,-0.0703 -1.0163,-0.14361 z"
         id="be_abv" />
    </g>
  </g>
</svg>
