<svg xmlns="http://www.w3.org/2000/svg" height="18.182" width="26.076"><path d="M14.658 8.777c.238-.444.214-1.318-.035-1.312-.531.014-1.023.78-.85 1.324.126.397.67.39.885-.012zM1.991 17.838c-.698-.427-1.05-.858-1.61-1.97-.307-.609-.332-1.013-.373-6.04C-.044 3.468.16.44.666.125c.67-.418.692-.183.692 7.221V14.4l.475.816c.261.45.555.945.652 1.102.119.193.382.286.813.286.52 0 .797-.137 1.512-.747.48-.411.875-.823.875-.914 0-.092.101-.399.226-.682.124-.283.349-1.102.499-1.82.15-.719.386-1.538.525-1.82l.252-.514 2.178.017c2.547.02 2.724-.063 3.005-1.414.096-.462.37-1.222.61-1.688.384-.745.513-.861 1.057-.953.84-.142 1.642.152 1.98.725.34.574.35 1.132.03 1.556-.132.174-.24.416-.24.537 0 .121-.075.31-.166.418-.092.108-.294.351-.45.54-.155.189-.514.463-.797.609-.987.508-1.036.628-1.036 2.539 0 1.147.07 1.848.204 2.027.256.345 1.395.93 1.808.93.504 0 2.14-.95 2.802-1.63.613-.627.616-.636.736-2.397.15-2.203.669-3.41 1.971-4.59 1.158-1.05 1.504-1.218 2.152-1.05.445.115.531.214.531.61 0 .397-.135.551-.854.97-.47.272-.856.558-.857.634-.002.076-.296.471-.654.878-.632.718-.98 1.53-.981 2.295-.002.632.422.59 1.149-.115.377-.366.785-.665.906-.665.122 0 .335-.22.475-.49.139-.27.31-.49.379-.49s.56-.407 1.09-.905c1.065-1 1.596-1.121 1.682-.386.039.334-.157.622-.932 1.371-.54.522-1.157 1.067-1.372 1.21-.671.448-3.049 2.764-3.05 2.972 0 .054.167.348.372.653.765 1.138 3.001 1.152 3.502.022.23-.519.966-.994 1.39-.897.71.163-.075 1.839-1.299 2.771-.54.412-.711.452-1.853.432-1.042-.019-1.385-.097-1.998-.456-.407-.24-.859-.615-1.003-.835-.38-.579-.827-.497-1.76.32-.836.73-2.276 1.402-3.008 1.402-.535 0-1.324-.412-1.99-1.04-.9-.846-1.007-1.195-1.007-3.302v-1.908l-.857.108c-.472.06-1.302.152-1.846.206-1.183.119-1.367.349-1.789 2.245-.367 1.651-1.122 2.72-2.524 3.576-1.36.83-1.998.912-2.882.37z" stroke-width=".163"/></svg>