<?xml version="1.0" encoding="UTF-8" standalone="no"?>
<svg
   xmlns:dc="http://purl.org/dc/elements/1.1/"
   xmlns:cc="http://creativecommons.org/ns#"
   xmlns:rdf="http://www.w3.org/1999/02/22-rdf-syntax-ns#"
   xmlns:svg="http://www.w3.org/2000/svg"
   xmlns="http://www.w3.org/2000/svg"
   id="svg2094"
   viewBox="0 0 26.076469 18.181517"
   version="1.1"
   height="18.181517"
   width="26.076469">
  <defs
     id="defs2098" />
  <metadata
     id="metadata2">
    <rdf:RDF>
      <cc:Work
         rdf:about="">
        <dc:format>image/svg+xml</dc:format>
        <dc:type
           rdf:resource="http://purl.org/dc/dcmitype/StillImage" />
        <dc:title />
      </cc:Work>
    </rdf:RDF>
  </metadata>
  <g
     transform="translate(-405.74188,-816.70289)"
     id="g2092">
    <g
       style="stroke-width:0.16327"
       id="g2081">
      <path
         d="m 420.4,825.48 c 0.23763,-0.44402 0.21427,-1.318 -0.0351,-1.3117 -0.53114,0.0136 -1.0227,0.7793 -0.84985,1.3239 0.12606,0.39717 0.66981,0.38965 0.88492,-0.0122 z m -12.667,9.0613 c -0.69786,-0.42778 -1.0495,-0.8581 -1.6098,-1.97 -0.30706,-0.60934 -0.33206,-1.0137 -0.3734,-6.0408 -0.0523,-6.359 0.15316,-9.3877 0.65817,-9.7031 0.66932,-0.41799 0.69192,-0.18222 0.69192,7.2217 v 7.0528 l 0.4751,0.81632 c 0.26131,0.44898 0.5545,0.9449 0.65153,1.102 0.11925,0.19315 0.38279,0.28572 0.8134,0.28572 0.52033,0 0.79724,-0.1369 1.5118,-0.74732 0.48111,-0.41103 0.87474,-0.82236 0.87474,-0.9141 0,-0.0917 0.10183,-0.39829 0.22629,-0.68126 0.12444,-0.28295 0.34888,-1.1022 0.49876,-1.8206 0.14986,-0.71836 0.3861,-1.5373 0.52499,-1.8198 l 0.25251,-0.51365 2.1778,0.0171 c 2.5468,0.02 2.7243,-0.0635 3.0047,-1.4141 0.096,-0.46252 0.37099,-1.2224 0.61107,-1.6887 0.38312,-0.74413 0.51233,-0.86061 1.0566,-0.95256 0.83964,-0.14186 1.6417,0.15169 1.9802,0.72479 0.33944,0.57462 0.34991,1.1318 0.0292,1.5557 -0.13184,0.17432 -0.23971,0.41618 -0.23971,0.53751 0,0.12132 -0.0748,0.30932 -0.16629,0.41778 -0.0915,0.10845 -0.2935,0.35162 -0.44898,0.54037 -0.15547,0.18875 -0.51451,0.46255 -0.79784,0.60844 -0.98666,0.50805 -1.0359,0.62867 -1.0359,2.539 0,1.147 0.0705,1.848 0.20408,2.0278 0.25566,0.34422 1.3946,0.93048 1.8076,0.93048 0.50404,0 2.1396,-0.95159 2.8026,-1.6306 0.61254,-0.62728 0.61546,-0.63681 0.73574,-2.3976 0.15051,-2.203 0.66896,-3.4103 1.971,-4.5899 1.1584,-1.0494 1.5036,-1.2178 2.1517,-1.0499 0.44542,0.11542 0.53131,0.21404 0.53131,0.61003 0,0.39747 -0.13543,0.55112 -0.85428,0.96921 -0.46986,0.27327 -0.85558,0.55905 -0.85715,0.63508 -0.002,0.076 -0.29587,0.47109 -0.65399,0.87793 -0.63167,0.71763 -0.97874,1.5299 -0.9806,2.2951 -0.002,0.63203 0.4225,0.58953 1.1486,-0.1151 0.37718,-0.36604 0.78523,-0.66554 0.90679,-0.66554 0.12157,0 0.33501,-0.22041 0.47431,-0.48979 0.13929,-0.26939 0.30989,-0.4898 0.37907,-0.4898 0.0692,0 0.55986,-0.40722 1.0904,-0.90493 1.0652,-0.99926 1.5963,-1.1213 1.6817,-0.38653 0.0388,0.33402 -0.15695,0.62219 -0.93205,1.3719 -0.53966,0.52201 -1.157,1.0664 -1.3718,1.2098 -0.671,0.44792 -3.049,2.764 -3.0506,2.9713 0,0.0541 0.1671,0.34795 0.37228,0.65306 0.7656,1.1385 3.0016,1.1526 3.502,0.0221 0.22952,-0.51853 0.96607,-0.99348 1.3903,-0.8965 0.71061,0.16248 -0.0748,1.8388 -1.2985,2.7712 -0.54069,0.412 -0.71172,0.4518 -1.8536,0.43138 -1.042,-0.0186 -1.385,-0.097 -1.9981,-0.45631 -0.40712,-0.23858 -0.8584,-0.61417 -1.0028,-0.83463 -0.37904,-0.5785 -0.82696,-0.49722 -1.7605,0.31943 -0.8353,0.73069 -2.2753,1.4022 -3.007,1.4022 -0.53572,0 -1.3248,-0.41159 -1.9913,-1.0387 -0.89995,-0.84671 -1.0065,-1.1963 -1.0065,-3.3025 v -1.9084 l -0.85714,0.10794 c -0.47143,0.0594 -1.3019,0.15236 -1.8456,0.20664 -1.1834,0.11816 -1.3666,0.34813 -1.7886,2.245 -0.36723,1.6507 -1.1225,2.7204 -2.5248,3.5759 -1.3597,0.82952 -1.9978,0.91144 -2.8813,0.36984 z"
         id="beach" />
    </g>
  </g>
</svg>
