<svg xmlns="http://www.w3.org/2000/svg" height="18.425" width="17.839"><path d="M9.213 6.724c-.255-.255-.063-.957.626-2.285.404-.779.734-1.599.734-1.823 0-.224-.189-.73-.42-1.125-.397-.676-.406-.74-.16-1.116.7-1.07 1.887.303 1.887 2.182 0 .77-.086 1.092-.425 1.59a6.777 6.777 0 00-.684 1.432c-.21.647-.368.852-.796 1.03-.617.259-.618.26-.762.115zM2.618 18.29c-.2-.06-.513-.238-.696-.395-.182-.157-.386-.286-.452-.286-.166 0-1.095-1.435-1.336-2.062-.201-.525-.194-.86.146-6.265C.79 1.14.88.444 1.458.083c.196-.122.344-.11.53.045.21.174.258.578.256 2.113-.002 1.044-.078 2.56-.17 3.368-.093.808-.24 2.461-.326 3.674-.437 6.126-.453 5.871.44 6.86.477.528.697.65 1.174.65.505 0 .706-.13 1.449-.939.474-.516.863-1.035.863-1.152 0-.117.151-.542.335-.944.183-.402.405-1.151.494-1.664.265-1.537.303-1.643.632-1.747a.904.904 0 01.612.06c.839.455 1.458.671 1.923.671.702 0 2.01-.671 2.682-1.377.304-.32.651-.582.771-.582s.339-.183.486-.408c.147-.224.392-.408.543-.408.152 0 .525.184.83.408.304.225.62.408.703.408.155 0 1.736 1.258 1.947 1.55.186.255.147 1.81-.058 2.32-.101.251-.24.604-.307.783-.067.18-.205.532-.306.784-.338.84-.203 2.237.217 2.237.111 0 .324.135.473.3.224.246.24.39.091.816-.152.437-.262.516-.712.516-.698 0-1.563-.814-1.779-1.674-.114-.453-.08-.624.626-3.219.483-1.778.417-2.161-.497-2.858-.794-.606-1.497-.711-1.805-.271-.134.192-.382.349-.55.349-.168 0-.44.166-.603.368-.703.87-2.346 1.488-3.526 1.326-.9-.123-1.261.09-1.261.746 0 .739-.506 2.012-1.085 2.73-.301.375-.548.755-.548.846 0 .092-.145.212-.322.268-.178.057-.583.356-.901.664-.319.31-.706.563-.862.564-.155.002-.43.033-.609.07-.18.036-.49.017-.69-.044z" stroke-width=".163"/></svg>