<?xml version="1.0" encoding="UTF-8" standalone="no"?>
<svg
   xmlns:dc="http://purl.org/dc/elements/1.1/"
   xmlns:cc="http://creativecommons.org/ns#"
   xmlns:rdf="http://www.w3.org/1999/02/22-rdf-syntax-ns#"
   xmlns:svg="http://www.w3.org/2000/svg"
   xmlns="http://www.w3.org/2000/svg"
   id="svg2094"
   viewBox="0 0 17.838996 18.425461"
   version="1.1"
   height="18.425461"
   width="17.838997">
  <defs
     id="defs2098" />
  <metadata
     id="metadata2">
    <rdf:RDF>
      <cc:Work
         rdf:about="">
        <dc:format>image/svg+xml</dc:format>
        <dc:type
           rdf:resource="http://purl.org/dc/dcmitype/StillImage" />
        <dc:title />
      </cc:Work>
    </rdf:RDF>
  </metadata>
  <g
     transform="translate(-405.4271,-841.65571)"
     id="g2092">
    <g
       style="stroke-width:0.16327"
       id="g2081">
      <path
         d="m 414.64,848.38 c -0.25525,-0.25525 -0.0629,-0.95758 0.62585,-2.285 0.40408,-0.77883 0.73469,-1.5993 0.73469,-1.8233 0,-0.22396 -0.18929,-0.73022 -0.42067,-1.125 -0.39638,-0.67639 -0.40558,-0.74082 -0.15949,-1.1164 0.70042,-1.069 1.8863,0.30328 1.8863,2.1828 0,0.76974 -0.0858,1.0914 -0.42418,1.59 -0.2333,0.34378 -0.54148,0.98824 -0.68485,1.4321 -0.20873,0.64632 -0.3671,0.85155 -0.79505,1.0304 -0.61773,0.25811 -0.61878,0.25825 -0.76258,0.11443 z m -6.595,11.566 c -0.20005,-0.0604 -0.51313,-0.23835 -0.69576,-0.39549 -0.18261,-0.15715 -0.38628,-0.28586 -0.4526,-0.28603 -0.16539,0 -1.0944,-1.4348 -1.3353,-2.0617 -0.20163,-0.52467 -0.19386,-0.85942 0.14544,-6.2646 0.51117,-8.1434 0.6002,-8.8385 1.1781,-9.1991 0.19608,-0.12235 0.34421,-0.10983 0.53061,0.0449 0.20914,0.17359 0.25802,0.57759 0.25567,2.113 -0.002,1.0441 -0.0784,2.5596 -0.17076,3.3678 -0.0923,0.80817 -0.23864,2.4612 -0.32516,3.6735 -0.43719,6.1262 -0.45351,5.8719 0.44033,6.8613 0.47638,0.52728 0.69629,0.64895 1.1731,0.64895 0.5055,0 0.70619,-0.13001 1.4491,-0.93878 0.47427,-0.51633 0.86291,-1.0346 0.86363,-1.1518 0,-0.11716 0.1512,-0.54204 0.3344,-0.94418 0.18318,-0.40212 0.40555,-1.1512 0.49414,-1.6645 0.26516,-1.5366 0.30336,-1.6422 0.63234,-1.7466 0.17376,-0.0551 0.44911,-0.028 0.61187,0.0602 0.83886,0.45504 1.4584,0.67133 1.9231,0.67133 0.70198,0 2.0094,-0.67175 2.6814,-1.3777 0.30446,-0.31982 0.65174,-0.58148 0.77176,-0.58148 0.12002,0 0.33855,-0.18368 0.48565,-0.40817 0.14708,-0.22449 0.39164,-0.40816 0.54346,-0.40816 0.15182,0 0.525,0.18367 0.82927,0.40816 0.30428,0.22449 0.62061,0.40817 0.70294,0.40817 0.15527,0 1.7364,1.2574 1.9476,1.5488 0.18563,0.25615 0.14635,1.8112 -0.0587,2.3211 -0.10098,0.25117 -0.23877,0.60361 -0.3062,0.7832 -0.0674,0.17959 -0.20523,0.53203 -0.30621,0.7832 -0.33815,0.84111 -0.2029,2.2372 0.21674,2.2372 0.11117,0 0.32413,0.1348 0.47324,0.29957 0.22351,0.24697 0.23948,0.39027 0.091,0.81633 -0.1525,0.43747 -0.26169,0.51675 -0.71175,0.51675 -0.69817,0 -1.5632,-0.81403 -1.7791,-1.6741 -0.11381,-0.45342 -0.0806,-0.62416 0.62534,-3.2194 0.4838,-1.7784 0.41735,-2.161 -0.49646,-2.858 -0.79432,-0.60586 -1.4968,-0.71128 -1.8052,-0.27092 -0.1344,0.1919 -0.38181,0.3489 -0.54979,0.3489 -0.16799,0 -0.43934,0.16568 -0.60299,0.36816 -0.70286,0.86964 -2.3462,1.4876 -3.526,1.3259 -0.90006,-0.12336 -1.2614,0.0903 -1.2614,0.74587 0,0.73895 -0.50571,2.0124 -1.0843,2.7304 -0.30162,0.37431 -0.54838,0.75506 -0.54838,0.84614 0,0.0911 -0.14514,0.21168 -0.32255,0.26797 -0.17738,0.0563 -0.5828,0.35514 -0.90091,0.66407 -0.31812,0.30893 -0.70563,0.56269 -0.86114,0.56393 -0.15551,0.002 -0.42968,0.0322 -0.60928,0.069 -0.17959,0.0367 -0.4902,0.0173 -0.69023,-0.043 z"
         id="bear" />
    </g>
  </g>
</svg>
