<svg xmlns="http://www.w3.org/2000/svg" height="16.971" width="25.386"><path d="M15.28 9.712c.263-.563-.546-.594-.954-.594-.3 0-.71 1.006-.582 1.212.147.238.707.137 1.161-.212zM1.025 16.253C.2 15.365-.112 14.317.035 12.91c.091-.87.368-1.76.61-1.956.183-.15.337-1.035.473-2.735.074-.925.206-1.772.294-1.882.223-.279.742-2.414 1.175-4.834C2.813.242 3.47-.347 4.028.21c.282.282.243 1.005-.15 2.755-.189.846-.382 1.76-.428 2.029-.046.27-.148.57-.227.67-.079.1-.284 1.055-.455 2.123a44.548 44.548 0 01-.734 3.538c-.535 2.022-.542 2.977-.029 3.605.315.385.463.448.851.36.492-.113 1.368-.782 1.368-1.046 0-.085.11-.196.245-.248.38-.146 1.224-1.585 1.224-2.086 0-.247.178-.655.395-.907l.395-.458h2.689c2.415 0 2.724-.032 3.034-.311.19-.171.344-.398.344-.504 0-.412 1.188-1.705 1.73-1.884.86-.284 1.625.035 2.042.853.29.568.308.723.132 1.147-.261.63-1.686 1.76-2.22 1.76-.673 0-1.316.838-1.447 1.884-.07.56-.046.973.064 1.105.096.116.637.374 1.202.572.938.33 1.1.343 1.844.148 1.826-.478 4.709-3.024 5.741-5.072.234-.463.477-.878.542-.923.065-.045.194-.228.288-.408.264-.508 1.516-4.975 1.623-5.796.139-1.06.32-1.335.836-1.275.41.048.437.104.458.949.012.493-.072 1.191-.187 1.55-.116.36-.262.91-.325 1.225-.064.314-.172.645-.242.735-.069.09-.177.541-.239 1.004-.064.479-.423 1.458-.834 2.278-.397.79-.722 1.602-.722 1.802 0 .2-.19.955-.423 1.675-.362 1.122-.396 1.392-.237 1.874.102.31.293.603.423.653.287.11.313.777.041 1.048-.108.108-.435.196-.727.196-.475 0-.567-.08-.865-.755-.184-.416-.334-1.04-.334-1.388 0-.544-.05-.632-.362-.632-.209 0-.676.308-1.102.726-1.076 1.056-3.764 2.154-4.888 1.997-1.782-.25-2.99-.931-3.21-1.814-.054-.211.03-.838.185-1.392.397-1.416.273-1.517-1.952-1.595l-1.706-.06-.503.492c-.3.294-.503.659-.503.907 0 .239-.173.565-.408.77-.225.195-.41.47-.412.61-.002.141-.297.464-.655.718-.358.253-.757.665-.886.915-.198.383-.37.47-1.1.558-1.385.166-1.461.144-2.187-.635z"/></svg>