<?xml version="1.0" encoding="UTF-8" standalone="no"?>
<svg
   xmlns:dc="http://purl.org/dc/elements/1.1/"
   xmlns:cc="http://creativecommons.org/ns#"
   xmlns:rdf="http://www.w3.org/1999/02/22-rdf-syntax-ns#"
   xmlns:svg="http://www.w3.org/2000/svg"
   xmlns="http://www.w3.org/2000/svg"
   id="svg2094"
   viewBox="0 0 25.385896 16.971315"
   version="1.1"
   height="16.971315"
   width="25.385897">
  <defs
     id="defs2098" />
  <metadata
     id="metadata2">
    <rdf:RDF>
      <cc:Work
         rdf:about="">
        <dc:format>image/svg+xml</dc:format>
        <dc:type
           rdf:resource="http://purl.org/dc/dcmitype/StillImage" />
        <dc:title />
      </cc:Work>
    </rdf:RDF>
  </metadata>
  <g
     transform="translate(-611.44955,-103.81816)"
     id="g2092">
    <g
       style="stroke-width:0.16327"
       id="g2081">
      <path
         d="m 626.73,113.53 c 0.26219,-0.56332 -0.54613,-0.5937 -0.95485,-0.5937 -0.30022,0 -0.70881,1.006 -0.58133,1.2123 0.14695,0.23778 0.70694,0.13694 1.1612,-0.21233 z m -14.255,6.5412 c -0.82684,-0.88789 -1.1373,-1.936 -0.99024,-3.3431 0.091,-0.87068 0.36815,-1.7605 0.60923,-1.956 0.18403,-0.14928 0.33729,-1.0347 0.47337,-2.7348 0.074,-0.92518 0.20645,-1.772 0.29423,-1.8818 0.22298,-0.27898 0.74221,-2.4148 1.1753,-4.8345 0.22568,-1.261 0.88251,-1.8499 1.4407,-1.2917 0.28213,0.28214 0.24298,1.0048 -0.14916,2.7544 -0.1898,0.84673 -0.3827,1.7599 -0.42869,2.0293 -0.046,0.26939 -0.1481,0.57111 -0.22692,0.6705 -0.0788,0.0994 -0.28386,1.0545 -0.45558,2.1224 -0.17174,1.068 -0.50209,2.6601 -0.7341,3.5381 -0.53445,2.0223 -0.54201,2.9771 -0.0286,3.6048 0.31532,0.38547 0.46315,0.44792 0.85127,0.35953 0.49183,-0.11201 1.3676,-0.78162 1.3676,-1.0456 0,-0.0845 0.11042,-0.196 0.24536,-0.24778 0.37975,-0.14573 1.224,-1.5846 1.224,-2.0861 0,-0.2468 0.17762,-0.65486 0.3947,-0.90681 l 0.39471,-0.45808 h 2.6893 c 2.4152,0 2.7244,-0.0317 3.0339,-0.31102 0.18952,-0.17106 0.34457,-0.39778 0.34457,-0.50382 0,-0.41163 1.188,-1.7054 1.7304,-1.8844 0.85961,-0.2837 1.6238,0.0359 2.0409,0.85339 0.28998,0.5684 0.30782,0.72302 0.13238,1.1466 -0.26106,0.63025 -1.6864,1.7604 -2.2202,1.7604 -0.67254,0 -1.3158,0.83786 -1.4465,1.8842 -0.07,0.56048 -0.0464,0.97244 0.0634,1.1047 0.0963,0.11602 0.63748,0.37369 1.2026,0.5726 0.93742,0.32993 1.0992,0.34291 1.8439,0.14793 1.826,-0.47811 4.7084,-3.0248 5.7411,-5.0725 0.23329,-0.46259 0.47701,-0.8778 0.54158,-0.9227 0.0646,-0.0449 0.19399,-0.22857 0.28758,-0.40817 0.26493,-0.50838 1.5163,-4.9751 1.6237,-5.7959 0.13864,-1.0592 0.31933,-1.335 0.83536,-1.2751 0.41026,0.0476 0.43724,0.1035 0.45812,0.94856 0.0122,0.49387 -0.072,1.1918 -0.18713,1.551 -0.11513,0.35918 -0.26124,0.9102 -0.3247,1.2245 -0.0635,0.31428 -0.17213,0.64489 -0.2415,0.73469 -0.0694,0.0898 -0.17697,0.5415 -0.23909,1.0038 -0.0644,0.47948 -0.42292,1.4582 -0.8346,2.2784 -0.39691,0.79086 -0.72166,1.602 -0.72166,1.8025 0,0.20049 -0.19022,0.95426 -0.42271,1.675 -0.36185,1.1218 -0.39597,1.3915 -0.237,1.8732 0.10214,0.30948 0.29236,0.60361 0.42271,0.65363 0.2867,0.11002 0.31282,0.77639 0.0411,1.0481 -0.10775,0.10776 -0.43492,0.19592 -0.72705,0.19592 -0.47466,0 -0.56666,-0.0803 -0.86531,-0.75545 -0.18379,-0.41549 -0.33417,-1.04 -0.33417,-1.3878 0,-0.54398 -0.0505,-0.63231 -0.36175,-0.63231 -0.20836,0 -0.67559,0.30802 -1.102,0.72653 -1.0756,1.0556 -3.7641,2.1536 -4.8882,1.9964 -1.7819,-0.24922 -2.9892,-0.93107 -3.2106,-1.8133 -0.0532,-0.21175 0.0306,-0.83838 0.18606,-1.3925 0.39722,-1.4157 0.27303,-1.5172 -1.9518,-1.5946 l -1.7067,-0.0594 -0.50286,0.49156 c -0.30067,0.29391 -0.50286,0.65832 -0.50286,0.90631 0,0.23891 -0.17304,0.5652 -0.40816,0.76963 -0.22449,0.1952 -0.40973,0.47022 -0.41166,0.61117 -0.002,0.14095 -0.2967,0.46374 -0.6551,0.71731 -0.35838,0.25357 -0.75727,0.66535 -0.8864,0.91508 -0.19807,0.383 -0.37015,0.4703 -1.1,0.55795 -1.3844,0.16626 -1.4606,0.14412 -2.1861,-0.63492 z"
         id="beat" />
    </g>
  </g>
</svg>
