<?xml version="1.0" encoding="UTF-8" standalone="no"?>
<svg
   xmlns:dc="http://purl.org/dc/elements/1.1/"
   xmlns:cc="http://creativecommons.org/ns#"
   xmlns:rdf="http://www.w3.org/1999/02/22-rdf-syntax-ns#"
   xmlns:svg="http://www.w3.org/2000/svg"
   xmlns="http://www.w3.org/2000/svg"
   id="svg2094"
   viewBox="0 0 25.359626 22.904879"
   version="1.1"
   height="22.904879"
   width="25.359627">
  <defs
     id="defs2098" />
  <metadata
     id="metadata2">
    <rdf:RDF>
      <cc:Work
         rdf:about="">
        <dc:format>image/svg+xml</dc:format>
        <dc:type
           rdf:resource="http://purl.org/dc/dcmitype/StillImage" />
        <dc:title />
      </cc:Work>
    </rdf:RDF>
  </metadata>
  <g
     transform="translate(-633.04938,-151.99779)"
     id="g2092">
    <g
       style="stroke-width:0.16327"
       id="g2081">
      <path
         d="m 656.28,163.06 c 0.54937,-0.57731 0.84054,-1.4869 0.53618,-1.675 -0.2662,-0.16452 -0.97706,0.56301 -0.97706,0.99998 0,0.20354 -0.0735,0.41548 -0.16327,0.47097 -0.19407,0.11995 -0.22086,0.7347 -0.032,0.7347 0.0722,0 0.35847,-0.23878 0.63618,-0.53061 z m -22.352,6.056 c -0.82328,-0.77646 -1.0781,-1.7553 -0.72165,-2.7717 0.14596,-0.41613 0.26572,-0.85695 0.26612,-0.97959 0,-0.12265 0.18235,-0.66381 0.4043,-1.2026 0.22194,-0.53878 0.40527,-1.2565 0.40741,-1.5948 0.002,-0.33839 0.14266,-1.1466 0.31229,-1.7959 0.16964,-0.64937 0.39762,-1.695 0.50663,-2.3235 0.10901,-0.6285 0.26913,-1.4735 0.35582,-1.8776 0.20216,-0.94239 0.45412,-2.3137 0.61184,-3.33 0.1838,-1.1844 1.0008,-1.6711 1.334,-0.79469 0.12029,0.31637 0.11384,0.73338 -0.0221,1.4286 -0.10558,0.53999 -0.25025,1.3491 -0.3215,1.7981 -0.23213,1.4629 -0.83957,4.3964 -1.0142,4.898 -0.0938,0.26939 -0.23118,0.93061 -0.30532,1.4694 -0.24042,1.7475 -0.34692,2.2825 -0.48999,2.4616 -0.0773,0.0967 -0.29471,0.67511 -0.48317,1.2852 -0.51458,1.6661 -0.24955,2.3761 0.88645,2.3749 1.418,-0.002 2.8282,-1.5067 3.5176,-3.7544 0.20655,-0.67346 0.4803,-1.3347 0.60833,-1.4694 0.16418,-0.17269 0.72984,-0.27248 1.9186,-0.33843 2.1444,-0.11896 2.7138,-0.40802 4.3511,-2.2087 1.4861,-1.6343 3.0903,-4.4355 3.0984,-5.4101 0.002,-0.24803 0.13488,-0.96524 0.29516,-1.5938 0.27564,-1.081 0.31851,-1.1456 0.79175,-1.1925 0.64847,-0.0643 0.71567,0.13741 0.54136,1.6246 -0.12366,1.0549 -0.28603,1.7394 -1.0012,4.221 -0.0906,0.31428 -0.23121,0.93877 -0.31255,1.3878 -0.19081,1.0533 -0.70243,2.9218 -1.0282,3.7551 -0.14043,0.35919 -0.25855,0.89416 -0.26248,1.1888 -0.004,0.29468 -0.15703,0.98064 -0.34021,1.5244 -0.38285,1.1364 -0.33142,1.4511 0.28372,1.7358 0.928,0.42949 2.4166,0.19329 3.6412,-0.57774 0.31428,-0.1979 0.64489,-0.36239 0.73469,-0.36555 0.22808,-0.008 0.66204,-0.64649 0.78872,-1.1604 0.31451,-1.2759 1.4912,-3.9222 1.9964,-4.4898 0.30887,-0.34704 0.56163,-0.68419 0.5617,-0.74923 0,-0.21197 0.95146,-0.61644 1.4498,-0.61644 0.54669,0 0.95301,0.32993 1.0929,0.88745 0.20217,0.80553 -0.7565,3.2055 -1.6402,4.106 -1.8784,1.9142 -2.067,2.3191 -1.3697,2.9404 0.52867,0.47105 0.83849,1.3102 0.62854,1.7025 -0.32263,0.60282 -1.1776,0.28011 -2.1596,-0.81512 -0.68157,-0.76013 -1.0103,-0.77406 -1.759,-0.0746 -0.52082,0.48657 -1.4516,0.81569 -2.6952,0.95311 -1.2982,0.14343 -2.3733,-0.25508 -2.9406,-1.0899 -0.48776,-0.71779 -0.50742,-1.351 -0.0823,-2.6507 0.60485,-1.849 0.98048,-3.1749 1.0855,-3.832 0.14844,-0.92829 -0.19721,-0.87109 -1.396,0.23104 -1.2189,1.1206 -1.916,1.4747 -3.6741,1.8664 -1.5568,0.34689 -1.8868,0.53663 -1.8868,1.0848 0,0.8302 -2.1089,3.9966 -2.6618,3.9966 -0.0933,0 -0.30489,0.1224 -0.4702,0.27202 -0.207,0.18733 -0.6966,0.29494 -1.5728,0.34566 -1.263,0.0731 -1.2765,0.0696 -1.8594,-0.48009 z m 10.344,5.3528 c -0.84669,-0.7074 -2.7728,-2.8534 -3.0693,-3.4196 -0.34547,-0.65985 -0.23318,-1.3228 0.23533,-1.3892 0.40206,-0.057 1.177,0.6608 1.9466,1.803 0.22493,0.33386 0.55053,0.65197 0.72355,0.70687 0.17301,0.0549 0.50517,0.38787 0.73814,0.73991 0.23296,0.35203 0.48468,0.64006 0.55939,0.64006 0.27507,0 0.49063,0.64317 0.3215,0.9592 -0.28795,0.53803 -0.77931,0.52443 -1.4552,-0.0403 z"
         id="beauty" />
    </g>
  </g>
</svg>
