<svg xmlns="http://www.w3.org/2000/svg" height="35.757" width="36.468"><path d="M17.398 8.458c-.108-.107-.196-.4-.196-.649 0-.959 1.473-1.283 1.95-.429.23.412.22.467-.146.857-.425.452-1.262.567-1.608.221zm-8.401 15.92a19.206 19.206 0 00-.733-.824 4.435 4.435 0 01-.611-.855c-.135-.26-.502-.753-.817-1.096-.697-.76-.769-1.438-.18-1.707.308-.14.471-.125.749.07.367.257 1.96 2.162 1.96 2.344 0 .057.294.422.653.812.65.705.743.946.554 1.437-.17.444-1.149.33-1.575-.182zM25.415 4.292c.334-1.256.183-2.4-.111-2.302-.112.037-.646 1.054-.749 1.63-.102.577-.444 1.772-.51 2.064-.093.406-.208 1.437-.031 1.437.146 0 .943-1.556 1.12-2.22zm8.773 2.525c.115-.292.367-.751.56-1.02.446-.626.949-2.31.877-2.943-.04-.344-.154-.5-.391-.534-.45-.065-.922 1.027-1.293 2.986-.154.808-.346 1.54-.427 1.625-.237.248-.173.416.158.416.195 0 .384-.194.516-.53zm-17.527 26.95c.208-.195.378-.435.378-.533 0-.098.184-.449.408-.78.225-.33.408-.698.408-.819 0-.12.15-.51.332-.866.182-.355.435-1.05.561-1.544.489-1.906.64-2.392.97-3.102.295-.636.348-1.116.398-3.551.049-2.401.022-2.817-.184-2.817a.613.613 0 00-.41.204c-.213.258-.85 1.925-.85 2.225 0 .124-.211.64-.469 1.146-.257.507-.631 1.472-.831 2.143-.2.672-.606 2.03-.903 3.017-.714 2.378-.9 3.325-.9 4.584 0 .97.028 1.049.358 1.049.196 0 .526-.16.734-.355zm-2.151 1.54c-.23-.248-.461-.61-.511-.806-.212-.826.197-3.343.857-5.276.138-.404.427-1.433.642-2.286.214-.853.498-1.771.63-2.04.36-.73.718-1.653 1.175-3.021.225-.674.467-1.372.536-1.551.697-1.793 1.308-4 1.107-4-.167 0-1.806 1.06-2.202 1.423-.217.2-.533.406-.703.46-.17.054-.308.157-.308.23 0 .072-.309.18-.686.24-.377.06-.782.19-.9.287-.308.257-1.419.064-1.994-.346-.991-.706-1.023-2.476-.082-4.559.218-.482.397-1.01.397-1.174 0-.163.073-.342.163-.398.09-.055.163-.264.163-.463 0-.2.115-.525.254-.725.241-.344.235-.363-.13-.363-.232 0-.633.256-1.016.647-.496.508-.917.736-1.952 1.056-.725.224-1.594.45-1.93.502-.396.062-.676.22-.8.452-.106.196-.29.455-.41.576-.121.12-.22.337-.22.481 0 .589-.729 2.49-.955 2.49-.079 0-.345.29-.59.646-1.179 1.7-3.737 1.707-4.727.012-.462-.792-.41-3.718.09-5.126.479-1.344.936-3.282 1.219-5.164.251-1.677.6-3.037.996-3.878.274-.582.833-.718 1.19-.288.222.268.199.495-.314 3.023l-.61 3.016c-.143.716-.314 1.414-.38 1.551-.385.81-.719 2.265-.87 3.8-.165 1.659-.156 1.779.16 2.204.183.247.52.555.747.684.393.223.456.2 1.209-.433.593-.499.887-.911 1.162-1.63.202-.528.367-1.05.367-1.159 0-.109.147-.472.327-.807.18-.335.329-.72.331-.857.014-.633.443-.86 1.874-.99.772-.071 1.491-.199 1.599-.285.108-.086.38-.212.604-.28.607-.182 2.339-1.692 2.876-2.508.947-1.438 1.555-2.744 1.857-3.993.336-1.384.537-1.742.981-1.742.744 0 .797.735.235 3.265-.15.674-.321 1.603-.382 2.065-.061.462-.193.94-.294 1.061-.1.122-.234.498-.297.835-.064.338-.175.651-.247.696-.073.045-.331.687-.575 1.427-.244.74-.523 1.492-.62 1.672-.281.516-.58 1.74-.588 2.404-.01.803.504 1.174 1.408 1.017.595-.103 2.123-.895 2.772-1.436 1.03-.86 2.996-2.807 2.996-2.968 0-.105.144-.322.32-.48.176-.16.443-.667.593-1.128.15-.461.334-.915.408-1.01.074-.094.179-.498.233-.897.083-.612.447-1.756 1.061-3.34.07-.179.216-.767.326-1.305.447-2.204.652-2.822 1.235-3.72.627-.966 1.187-1.295 1.679-.985.141.089.38.73.543 1.452.27 1.205.272 1.377.03 2.518-.142.673-.39 1.518-.55 1.878-.16.359-.376.922-.48 1.252-.104.33-.296.687-.426.795-.13.108-.237.283-.237.39 0 .106-.26.444-.576.75-.317.308-.837 1.112-1.157 1.788-.32.676-.675 1.339-.79 1.473-.115.135-.371.796-.57 1.47-.199.673-.53 1.518-.734 1.877-.204.36-.42.854-.478 1.099-.092.38-.048.46.296.546 1.282.322 4.155-.74 6.213-2.296.539-.407 1.182-.83 1.43-.938.246-.108.491-.33.543-.494.052-.163.378-.57.724-.903.488-.47.74-.934 1.125-2.075.272-.808.754-2.204 1.07-3.102.316-.898.575-1.853.576-2.122.002-1.161 1.145-3.57 1.958-4.122.753-.512 1.07-.462 1.548.241.35.517.414.794.414 1.814 0 1.046-.054 1.267-.408 1.689-.225.266-.408.671-.408.899 0 .228-.331.945-.735 1.593-.404.648-.735 1.253-.735 1.344 0 .09-.147.298-.326.46-.18.163-.327.392-.327.51 0 .117-.22.465-.49.771-.269.307-.49.609-.49.67 0 .062-.177.346-.395.632-.55.723-.98 1.899-1.322 3.621-.273 1.37-.275 1.53-.029 2.366.237.804.239.934.016 1.275-.187.285-.372.366-.75.328-.71-.071-1.09-1.059-1.102-2.866-.005-.741-.05-1.347-.101-1.347-.144 0-.778.357-.987.556a5.253 5.253 0 01-.553.423 17.9 17.9 0 00-.74.53c-.205.158-.443.287-.527.287-.085 0-.44.206-.79.46-.673.484-1.793.906-2.988 1.123-.482.088-.82.268-1.03.549-.275.37-.292.534-.147 1.433.349 2.164-.185 6.912-.82 7.305-.079.048-.143.374-.143.723 0 .598-.061.815-.58 2.04a10.95 10.95 0 00-.389 1.176c-.1.378-.244.725-.32.772-.076.047-.179.29-.229.542-.055.274-.513.86-1.15 1.472-.98.943-1.113 1.017-1.8 1.017-.6 0-.824-.087-1.163-.449z"/></svg>