<svg xmlns="http://www.w3.org/2000/svg" height="22.905" width="25.36"><path d="M23.23 11.062c.55-.577.841-1.487.537-1.675-.266-.164-.977.563-.977 1 0 .204-.074.416-.164.471-.194.12-.22.735-.032.735.073 0 .359-.239.637-.53zM.88 17.118c-.825-.776-1.08-1.755-.723-2.771.146-.417.266-.857.266-.98s.182-.664.404-1.203c.222-.538.406-1.256.408-1.594.002-.339.142-1.147.312-1.796.17-.65.398-1.695.507-2.324.109-.628.269-1.473.356-1.877a66.52 66.52 0 00.611-3.33C3.205.058 4.022-.43 4.355.448c.12.316.114.733-.022 1.428-.105.54-.25 1.35-.321 1.799-.232 1.462-.84 4.396-1.014 4.898-.094.269-.232.93-.306 1.469-.24 1.747-.347 2.282-.49 2.462-.077.096-.294.675-.483 1.285-.514 1.666-.25 2.376.887 2.375 1.418-.002 2.828-1.507 3.517-3.755.207-.673.48-1.334.608-1.47.165-.172.73-.272 1.92-.338 2.143-.119 2.713-.408 4.35-2.208 1.486-1.635 3.09-4.436 3.099-5.41.002-.248.134-.966.295-1.594.275-1.081.318-1.146.791-1.193.649-.064.716.138.542 1.625-.124 1.055-.286 1.74-1.001 4.22-.091.315-.232.94-.313 1.389-.19 1.053-.702 2.921-1.028 3.755-.14.359-.259.894-.263 1.189-.004.294-.157.98-.34 1.524-.383 1.136-.331 1.451.284 1.736.928.43 2.417.193 3.641-.578.314-.198.645-.362.735-.365.228-.008.662-.647.789-1.16.314-1.277 1.49-3.923 1.996-4.49.309-.348.562-.685.562-.75 0-.212.951-.616 1.45-.616.546 0 .952.33 1.092.887.203.806-.756 3.206-1.64 4.106-1.878 1.914-2.067 2.32-1.37 2.94.53.472.839 1.31.629 1.703-.323.603-1.178.28-2.16-.815-.681-.76-1.01-.774-1.759-.075-.52.487-1.451.816-2.695.953-1.298.144-2.373-.255-2.94-1.09-.488-.717-.508-1.35-.083-2.65.605-1.85.98-3.175 1.086-3.832.148-.929-.197-.871-1.396.23-1.22 1.121-1.916 1.476-3.674 1.867-1.557.347-1.887.537-1.887 1.085 0 .83-2.109 3.997-2.662 3.997-.093 0-.305.122-.47.272-.207.187-.697.295-1.573.345-1.263.073-1.276.07-1.86-.48zm10.344 5.353c-.847-.707-2.773-2.853-3.07-3.42-.345-.66-.233-1.322.236-1.389.402-.057 1.177.661 1.946 1.803.225.334.55.652.724.707.173.055.505.388.738.74.233.352.485.64.56.64.274 0 .49.643.32.96-.287.537-.778.524-1.454-.041z"/></svg>