<?xml version="1.0" encoding="UTF-8" standalone="no"?>
<svg
   xmlns:dc="http://purl.org/dc/elements/1.1/"
   xmlns:cc="http://creativecommons.org/ns#"
   xmlns:rdf="http://www.w3.org/1999/02/22-rdf-syntax-ns#"
   xmlns:svg="http://www.w3.org/2000/svg"
   xmlns="http://www.w3.org/2000/svg"
   id="svg2094"
   viewBox="0 0 36.467955 35.756943"
   version="1.1"
   height="35.756943"
   width="36.467957">
  <defs
     id="defs2098" />
  <metadata
     id="metadata2">
    <rdf:RDF>
      <cc:Work
         rdf:about="">
        <dc:format>image/svg+xml</dc:format>
        <dc:type
           rdf:resource="http://purl.org/dc/dcmitype/StillImage" />
        <dc:title />
      </cc:Work>
    </rdf:RDF>
  </metadata>
  <g
     transform="translate(-612.51219,-125.55166)"
     id="g2092">
    <g
       style="stroke-width:0.16327"
       id="g2081">
      <path
         d="m 629.91,134.01 c -0.10776,-0.10775 -0.19592,-0.39994 -0.19592,-0.64929 0,-0.95885 1.4728,-1.2828 1.9499,-0.42889 0.23031,0.41217 0.22103,0.46671 -0.14576,0.85714 -0.42457,0.45194 -1.2622,0.56707 -1.6083,0.22104 z m -8.4011,15.919 c -0.20145,-0.24207 -0.53125,-0.61243 -0.73288,-0.82301 -0.20163,-0.21058 -0.47662,-0.59562 -0.61109,-0.85563 -0.13445,-0.26002 -0.50178,-0.75293 -0.81627,-1.0954 -0.69795,-0.75992 -0.76942,-1.4382 -0.17987,-1.7068 0.30769,-0.14019 0.47082,-0.12514 0.748,0.069 0.36751,0.25741 1.9605,2.1626 1.9605,2.3448 0,0.0568 0.29387,0.42218 0.65306,0.81185 0.6501,0.70528 0.74266,0.94539 0.55396,1.4371 -0.17019,0.4435 -1.1491,0.33049 -1.5754,-0.18189 z m 16.418,-20.084 c 0.33477,-1.2564 0.18309,-2.4008 -0.111,-2.3028 -0.11138,0.0371 -0.64588,1.0548 -0.74854,1.6313 -0.10265,0.57648 -0.44423,1.7713 -0.5108,2.0631 -0.0926,0.4058 -0.20733,1.4369 -0.0305,1.4369 0.14634,0 0.94293,-1.5561 1.1196,-2.2191 z m 8.7735,2.5242 c 0.11503,-0.29184 0.36672,-0.75102 0.55931,-1.0204 0.44691,-0.62515 0.94929,-2.3096 0.87744,-2.942 -0.0391,-0.34388 -0.15383,-0.50066 -0.39133,-0.53463 -0.44903,-0.0642 -0.92176,1.0278 -1.293,2.9868 -0.15314,0.80817 -0.34517,1.5392 -0.42674,1.6245 -0.23688,0.24776 -0.17275,0.41633 0.15843,0.41633 0.1943,0 0.38338,-0.19449 0.51589,-0.53061 z m -17.527,26.951 c 0.20783,-0.19525 0.37787,-0.43533 0.37787,-0.53353 0,-0.0982 0.18368,-0.44884 0.40817,-0.77921 0.22449,-0.33036 0.40816,-0.69923 0.40816,-0.8197 0,-0.12047 0.14911,-0.51008 0.33135,-0.86581 0.18224,-0.35572 0.43492,-1.0508 0.5615,-1.5447 0.48838,-1.9054 0.64026,-2.3913 0.96975,-3.102 0.2945,-0.63525 0.34837,-1.1159 0.39802,-3.551 0.0489,-2.4006 0.0218,-2.8163 -0.18366,-2.8163 -0.13258,0 -0.31702,0.0918 -0.40986,0.20408 -0.21307,0.25761 -0.85058,1.9248 -0.85069,2.2247 -5e-5,0.12358 -0.21086,0.63947 -0.46846,1.1464 -0.25761,0.50694 -0.63182,1.4711 -0.83157,2.1426 -0.19976,0.67152 -0.6058,2.0291 -0.90232,3.0169 -0.71399,2.3784 -0.89977,3.3249 -0.89977,4.5839 0,0.9696 0.0269,1.0488 0.35681,1.0488 0.19626,0 0.52688,-0.15975 0.7347,-0.35499 z m -2.1512,1.5387 c -0.23092,-0.24694 -0.46107,-0.60951 -0.51142,-0.80571 -0.21191,-0.82551 0.19735,-3.3425 0.85784,-5.2759 0.13804,-0.40408 0.42665,-1.4326 0.64132,-2.2857 0.2147,-0.85307 0.49866,-1.7714 0.63104,-2.0408 0.35835,-0.72927 0.71734,-1.6525 1.1745,-3.0204 0.22506,-0.67347 0.46631,-1.3714 0.53614,-1.551 0.69706,-1.7929 1.3077,-4 1.1066,-4 -0.16686,0 -1.8061,1.0595 -2.2022,1.4234 -0.2168,0.19916 -0.53295,0.40616 -0.70253,0.45998 -0.16958,0.0538 -0.30833,0.15699 -0.30833,0.22925 0,0.0723 -0.3086,0.18075 -0.68578,0.24106 -0.37717,0.0603 -0.78196,0.18949 -0.89952,0.28705 -0.30869,0.25619 -1.4192,0.0632 -1.9948,-0.34661 -0.99134,-0.70591 -1.023,-2.4757 -0.0815,-4.5587 0.21798,-0.48228 0.39633,-1.0106 0.39633,-1.174 0,-0.16344 0.0735,-0.34257 0.16326,-0.39806 0.0898,-0.0555 0.16327,-0.2639 0.16327,-0.46311 0,-0.19921 0.11436,-0.52549 0.25415,-0.72506 0.24108,-0.34418 0.23437,-0.36285 -0.13012,-0.36285 -0.23265,0 -0.63375,0.25545 -1.0164,0.64737 -0.49585,0.5078 -0.91661,0.73534 -1.9515,1.0554 -0.72564,0.2244 -1.594,0.45053 -1.9296,0.50251 -0.39718,0.0615 -0.67698,0.21916 -0.80131,0.45146 -0.10506,0.19633 -0.28963,0.45556 -0.41014,0.57607 -0.12052,0.12051 -0.21911,0.33722 -0.21911,0.48157 0,0.5883 -0.72915,2.4897 -0.95475,2.4897 -0.079,0 -0.34496,0.29041 -0.59095,0.64537 -1.1783,1.7002 -3.7365,1.707 -4.7261,0.0125 -0.46258,-0.79204 -0.41128,-3.718 0.0899,-5.1261 0.47845,-1.3443 0.93551,-3.2819 1.2183,-5.1644 0.25179,-1.6764 0.60131,-3.0365 0.99646,-3.8776 0.2736,-0.58238 0.8331,-0.71779 1.1898,-0.28797 0.22234,0.26792 0.19878,0.49479 -0.31396,3.0227 -0.19124,0.94286 -0.4653,2.3003 -0.60904,3.0165 -0.14372,0.71622 -0.31468,1.4142 -0.37992,1.551 -0.3856,0.80902 -0.71951,2.2647 -0.87149,3.7994 -0.16431,1.6593 -0.15563,1.7791 0.15998,2.2041 0.18354,0.24715 0.52012,0.55517 0.74794,0.68448 0.39258,0.22287 0.4556,0.20029 1.2086,-0.43307 0.5934,-0.49911 0.88738,-0.91139 1.1618,-1.6293 0.20204,-0.52862 0.36734,-1.0503 0.36734,-1.1594 0,-0.10902 0.14694,-0.47238 0.32653,-0.80746 0.1796,-0.33508 0.32887,-0.72053 0.33173,-0.85655 0.0132,-0.63335 0.44311,-0.86065 1.874,-0.99107 0.77138,-0.0703 1.4906,-0.19825 1.5984,-0.2843 0.10774,-0.0861 0.37956,-0.21169 0.60405,-0.27917 0.6076,-0.18266 2.3392,-1.693 2.8766,-2.5091 0.94678,-1.4378 1.5541,-2.7437 1.8569,-3.993 0.33545,-1.384 0.5369,-1.7417 0.9808,-1.7417 0.74407,0 0.79698,0.73484 0.23514,3.2653 -0.14954,0.67347 -0.32175,1.6026 -0.3827,2.0647 -0.0609,0.46209 -0.19304,0.93964 -0.29355,1.0612 -0.1005,0.12158 -0.23437,0.49738 -0.29748,0.83511 -0.0631,0.33773 -0.17411,0.65074 -0.24666,0.69558 -0.0726,0.0448 -0.33125,0.68688 -0.57488,1.4268 -0.24362,0.73989 -0.52287,1.4922 -0.62055,1.6718 -0.28074,0.51617 -0.57976,1.7396 -0.58763,2.4044 -0.009,0.80267 0.50421,1.1738 1.4079,1.0172 0.59576,-0.10327 2.1234,-0.89467 2.7718,-1.4359 1.0312,-0.86086 2.9968,-2.8077 2.9968,-2.9683 0,-0.1052 0.1439,-0.32151 0.31978,-0.48068 0.17589,-0.15917 0.44275,-0.66648 0.59303,-1.1274 0.15029,-0.46086 0.33378,-0.91505 0.40776,-1.0093 0.074,-0.0942 0.17898,-0.49833 0.23337,-0.89796 0.0832,-0.61122 0.44663,-1.7552 1.0608,-3.3388 0.0696,-0.17959 0.21611,-0.76735 0.3255,-1.3061 0.4473,-2.2033 0.65265,-2.8217 1.2352,-3.7192 0.6274,-0.96663 1.1877,-1.2956 1.679,-0.98573 0.14138,0.0892 0.38073,0.72938 0.54307,1.4526 0.27045,1.2049 0.27257,1.3768 0.031,2.5176 -0.14261,0.67347 -0.39023,1.5184 -0.55028,1.8776 -0.16007,0.35918 -0.37636,0.92269 -0.48067,1.2522 -0.10433,0.32955 -0.29612,0.68753 -0.42622,0.7955 -0.13009,0.10798 -0.23654,0.28311 -0.23654,0.3892 0,0.10608 -0.25918,0.4441 -0.57598,0.75114 -0.31679,0.30704 -0.83759,1.1112 -1.1573,1.7871 -0.31976,0.67588 -0.67514,1.3391 -0.78973,1.4738 -0.1146,0.1347 -0.37117,0.79592 -0.57014,1.4694 -0.19897,0.67348 -0.52911,1.5184 -0.73362,1.8776 -0.2045,0.35919 -0.41997,0.85346 -0.47879,1.0984 -0.0911,0.37922 -0.0471,0.46035 0.29638,0.54655 1.282,0.32175 4.1546,-0.73991 6.2133,-2.2963 0.53878,-0.40732 1.1818,-0.82928 1.429,-0.93769 0.24717,-0.10842 0.49182,-0.33081 0.54367,-0.4942 0.0519,-0.16339 0.37762,-0.56966 0.72392,-0.90283 0.48867,-0.47015 0.74049,-0.93468 1.1249,-2.0751 0.27243,-0.80816 0.75409,-2.2041 1.0704,-3.102 0.31628,-0.89796 0.57525,-1.8531 0.57548,-2.1224 0.002,-1.1614 1.1452,-3.5693 1.9589,-4.1224 0.75227,-0.51136 1.0692,-0.46179 1.5474,0.24198 0.35071,0.5161 0.41406,0.79353 0.41406,1.8132 0,1.0459 -0.0535,1.2675 -0.40817,1.6889 -0.22449,0.26679 -0.40816,0.67148 -0.40816,0.89932 0,0.22783 -0.33061,0.94469 -0.73469,1.593 -0.40409,0.64833 -0.7347,1.2531 -0.7347,1.3438 0,0.0908 -0.14694,0.29805 -0.32653,0.46058 -0.17959,0.16253 -0.32653,0.39176 -0.32653,0.50942 0,0.11765 -0.22041,0.46494 -0.48979,0.77176 -0.26939,0.30681 -0.4898,0.60815 -0.4898,0.66963 0,0.0615 -0.17788,0.34566 -0.39528,0.63151 -0.55017,0.72337 -0.97946,1.8991 -1.3224,3.6218 -0.27272,1.37 -0.27466,1.53 -0.0286,2.3652 0.23693,0.80434 0.2385,0.9345 0.0155,1.2749 -0.18715,0.28564 -0.37179,0.36668 -0.7489,0.3287 -0.71071,-0.0716 -1.0907,-1.0592 -1.1029,-2.8667 -0.005,-0.74082 -0.0507,-1.3469 -0.10149,-1.3469 -0.14323,0 -0.77757,0.35785 -0.9863,0.5564 -0.1031,0.0981 -0.3519,0.2885 -0.55288,0.42319 -0.201,0.1347 -0.53383,0.37347 -0.73964,0.53061 -0.20581,0.15715 -0.44343,0.28572 -0.52803,0.28572 -0.0846,0 -0.44036,0.20691 -0.79058,0.4598 -0.67178,0.4851 -1.7923,0.90669 -2.9874,1.124 -0.48201,0.0876 -0.82016,0.26782 -1.029,0.54831 -0.27543,0.36995 -0.29231,0.53407 -0.14748,1.4334 0.34848,2.1639 -0.18524,6.9121 -0.82112,7.3051 -0.0779,0.0481 -0.14159,0.37359 -0.14159,0.72325 0,0.5978 -0.0617,0.81485 -0.57969,2.0389 -0.114,0.26939 -0.28933,0.79894 -0.38966,1.1768 -0.10031,0.37784 -0.24436,0.72529 -0.32011,0.77211 -0.0758,0.0468 -0.17881,0.29047 -0.22902,0.54144 -0.0549,0.27466 -0.51267,0.86098 -1.1498,1.4728 -0.98116,0.94216 -1.1128,1.0165 -1.8008,1.0165 -0.59905,0 -0.8232,-0.0866 -1.1621,-0.44898 z"
         id="beautiful" />
    </g>
  </g>
</svg>
