<svg xmlns="http://www.w3.org/2000/svg" height="16.468" width="47.187"><path d="M14.486 9.599c.245-.458-.003-.936-.281-.936-.283 0-.867.604-.867 1.079 0 .426.658.518.882.099zM28.11 7.973c0-.195.262-.831.582-1.414.649-1.18.645-1.438-.033-2.512l-.417-.66.327-.327c.474-.474 1.073-.265 1.622.564.549.83.56 1.567.048 3.07-.464 1.363-.713 1.633-1.502 1.633-.535 0-.627-.053-.627-.354zm-5.814 8.253c-.37-.13-.82-.4-1.001-.6-.308-.336-.858-1.733-1.09-2.769-.056-.247-.169-.449-.251-.449-.14 0-1.077.796-2.163 1.837-.257.247-.536.449-.62.449-.084 0-.406.223-.716.495-.76.668-2.167 1.029-3.441.882-.799-.091-1.058-.201-1.442-.612-.466-.499-.467-.508-.355-2.005.11-1.458.101-1.51-.263-1.706-.207-.11-.858-.264-1.447-.341a39.208 39.208 0 01-1.628-.245c-.646-.121-.994.204-.994.929 0 .24-.137.612-.304.826-.167.214-.352.544-.412.733-.059.19-.613.832-1.23 1.429l-1.124 1.084H2.727c-.598 0-1.235-.079-1.416-.175-.18-.097-.548-.666-.817-1.266-.585-1.301-.63-2.25-.24-4.974.143-1.007.373-2.895.51-4.197C1.261.797 1.448 0 2.068 0c.5 0 .735.921.545 2.132-.077.489-.244 1.88-.372 3.092a160.21 160.21 0 01-.488 4.072c-.413 3.006-.25 4.87.462 5.268.484.271 1.444-.015 1.94-.579.974-1.106 1.221-1.626 1.332-2.801.06-.629.215-1.307.347-1.508.316-.484.924-.622 1.402-.318.21.134 1.242.365 2.293.514 2.189.31 2.462.244 2.853-.691.425-1.016.994-1.627 1.627-1.746.684-.128 1.098.164 1.46 1.03.333.797.29 1.133-.217 1.69-.667.73-.714.766-1.507 1.158-.82.404-.942.669-.967 2.11-.013.765.04.963.3 1.102.708.379 2.326.087 2.97-.537.213-.206.608-.529.877-.717.27-.188.932-.77 1.473-1.296 1.248-1.212 3.433-3.15 4.102-3.637.398-.29.75-.38 1.567-.397 1.145-.025 1.45.124 1.853.906.451.871-.364 1.48-1.168.872-.925-.699-2.487.102-2.827 1.45-.269 1.068-.226 1.822.145 2.548.62 1.217 1.512 1.383 5.467 1.023 1.168-.106 3.813-.276 5.878-.377 2.065-.1 4.637-.295 5.714-.43a162.14 162.14 0 014.245-.462c1.257-.118 2.506-.251 2.776-.295.739-.122 1.09.135 1.03.753-.046.466-.11.524-.622.563a9.349 9.349 0 00-1.225.2c-.359.087-1.362.192-2.229.234-.867.04-2.005.15-2.53.244-1.5.265-4.247.497-8.057.68-1.93.093-4.282.275-5.225.405-2.133.294-4.118.283-4.997-.03z"/></svg>