<?xml version="1.0" encoding="UTF-8" standalone="no"?>
<svg
   xmlns:dc="http://purl.org/dc/elements/1.1/"
   xmlns:cc="http://creativecommons.org/ns#"
   xmlns:rdf="http://www.w3.org/1999/02/22-rdf-syntax-ns#"
   xmlns:svg="http://www.w3.org/2000/svg"
   xmlns="http://www.w3.org/2000/svg"
   id="svg2094"
   viewBox="0 0 18.565587 21.426575"
   version="1.1"
   height="21.426575"
   width="18.565588">
  <defs
     id="defs2098" />
  <metadata
     id="metadata2">
    <rdf:RDF>
      <cc:Work
         rdf:about="">
        <dc:format>image/svg+xml</dc:format>
        <dc:type
           rdf:resource="http://purl.org/dc/dcmitype/StillImage" />
        <dc:title />
      </cc:Work>
    </rdf:RDF>
  </metadata>
  <g
     transform="translate(-612.56972,-208.61538)"
     id="g2092">
    <g
       style="stroke-width:0.16327"
       id="g2081">
      <path
         d="m 627.37,216.63 c 0.33306,-0.30142 0.16114,-0.79453 -0.13486,-0.79453 -0.30692,0 -1.1556,0.74052 -1.1556,1.0682 0,0.37384 0.52211,0.44164 0.91541,0.0857 z m -1.5806,13.075 c -0.19405,-0.36257 0.0267,-1.3226 0.41115,-1.7879 0.11128,-0.13469 0.25258,-0.45594 0.31402,-0.71386 0.0614,-0.25793 0.43865,-1.0452 0.83825,-1.7494 0.39961,-0.70426 0.72657,-1.434 0.72657,-1.6216 0,-0.18764 0.2105,-0.83582 0.46778,-1.4404 0.35023,-0.823 0.49746,-1.4951 0.58585,-2.6741 0.065,-0.86617 0.0699,-1.7266 0.0111,-1.9122 -0.14455,-0.45546 -0.66411,-0.42862 -1.2502,0.0646 -0.71065,0.59796 -2.2028,0.93994 -2.6879,0.61602 -0.30472,-0.20348 -0.55505,-0.80864 -0.55505,-1.3418 0,-0.73639 0.39348,-1.3868 1.0981,-1.815 0.3389,-0.20596 0.65293,-0.42054 0.69783,-0.47682 0.18101,-0.22694 1.631,-0.51263 2.09,-0.41182 0.76996,0.16911 1.0139,-0.32411 1.0036,-2.0292 l -0.008,-1.3922 -0.6623,-0.53061 c -0.81461,-0.65266 -1.5427,-0.70004 -2.2063,-0.14359 -0.25382,0.21286 -0.68191,0.43645 -0.95129,0.49686 -0.56351,0.12635 -2.1043,1.4802 -2.2658,1.9908 -0.0599,0.18926 -0.40106,0.66067 -0.75826,1.0476 -0.35719,0.3869 -0.64943,0.7637 -0.64943,0.83734 0,0.0737 -0.45919,0.59596 -1.0204,1.1607 -1.1093,1.1162 -2.345,1.7572 -3.3687,1.7475 -0.32475,-0.003 -1.2272,-0.17319 -2.0056,-0.37799 -1.323,-0.3481 -1.4524,-0.42129 -1.9893,-1.1246 -0.95027,-1.2449 -1.0854,-1.6231 -1.0854,-3.0365 0,-1.4452 0.12104,-1.7662 1.0648,-2.8243 0.89375,-1.002 2.1864,-1.6574 2.9842,-1.513 1.2696,0.22977 2.1551,0.87084 2.1551,1.5604 0,0.32368 -0.0866,0.47233 -0.28571,0.49035 -0.57684,0.0522 -0.89902,-0.0351 -1.3036,-0.35335 -0.6287,-0.49453 -1.347,-0.41623 -2.2073,0.24063 -0.69536,0.53094 -0.74859,0.62698 -0.85478,1.5419 -0.14138,1.2182 0.002,1.8902 0.54949,2.5874 0.48762,0.62015 1.0685,0.93326 2.1838,1.1772 1.1868,0.25958 3.0954,-0.3117 3.311,-0.99105 0.0608,-0.19162 0.47025,-0.7062 0.90984,-1.1435 0.43959,-0.43729 0.80023,-0.9246 0.80142,-1.0829 0.005,-0.65484 3.2641,-3.4715 4.0168,-3.4715 0.155,0 0.39781,-0.0998 0.53957,-0.22176 0.14176,-0.12197 0.66183,-0.29948 1.1557,-0.39445 1.0731,-0.20635 1.6392,-0.002 2.53,0.91574 0.91959,0.94676 1.1587,1.7797 0.93935,3.2725 -0.10057,0.68439 -0.33941,1.5965 -0.53076,2.0269 -0.33827,0.76093 -0.3402,0.80581 -0.0694,1.6211 0.41313,1.2438 0.25092,4.0402 -0.32976,5.6856 -0.23622,0.66928 -0.49178,1.453 -0.56794,1.7415 -0.0761,0.28853 -0.29066,0.76608 -0.47668,1.0612 -0.51607,0.81882 -0.85806,1.6194 -0.96154,2.2509 -0.0515,0.31428 -0.34632,0.97551 -0.65515,1.4694 -0.83864,1.3411 -1.3287,1.6248 -1.6783,0.97159 z"
         id="because_abv" />
    </g>
  </g>
</svg>
