<?xml version="1.0" encoding="UTF-8" standalone="no"?>
<svg
   xmlns:dc="http://purl.org/dc/elements/1.1/"
   xmlns:cc="http://creativecommons.org/ns#"
   xmlns:rdf="http://www.w3.org/1999/02/22-rdf-syntax-ns#"
   xmlns:svg="http://www.w3.org/2000/svg"
   xmlns="http://www.w3.org/2000/svg"
   id="svg2094"
   viewBox="0 0 47.187079 16.467947"
   version="1.1"
   height="16.467947"
   width="47.18708">
  <defs
     id="defs2098" />
  <metadata
     id="metadata2">
    <rdf:RDF>
      <cc:Work
         rdf:about="">
        <dc:format>image/svg+xml</dc:format>
        <dc:type
           rdf:resource="http://purl.org/dc/dcmitype/StillImage" />
        <dc:title />
      </cc:Work>
    </rdf:RDF>
  </metadata>
  <g
     transform="translate(-613.36437,-176.16104)"
     id="g2092">
    <g
       style="stroke-width:0.16327"
       id="g2081">
      <path
         d="m 627.85,185.76 c 0.24534,-0.4584 -0.003,-0.93563 -0.28104,-0.93563 -0.28292,0 -0.86623,0.60331 -0.86623,1.0782 0,0.4263 0.65752,0.51845 0.88168,0.0995 z m 13.624,-1.6262 c 0,-0.19458 0.26217,-0.83074 0.58261,-1.4137 0.64858,-1.1799 0.6452,-1.4376 -0.033,-2.5119 l -0.41695,-0.66049 0.32697,-0.32697 c 0.47354,-0.47353 1.073,-0.26496 1.6217,0.56421 0.54877,0.82936 0.56036,1.5671 0.0482,3.07 -0.46436,1.3626 -0.71273,1.6327 -1.5018,1.6327 -0.53504,0 -0.62776,-0.0523 -0.62776,-0.3538 z m -5.8139,8.2532 c -0.36908,-0.1309 -0.81952,-0.4006 -1.001,-0.59934 -0.30728,-0.33652 -0.85737,-1.7338 -1.0903,-2.7695 -0.0555,-0.24694 -0.16835,-0.44898 -0.25066,-0.44898 -0.13969,0 -1.0763,0.79551 -2.1625,1.8367 -0.2576,0.24694 -0.53675,0.44898 -0.62032,0.44898 -0.0836,0 -0.40585,0.22293 -0.71615,0.49537 -0.76054,0.66777 -2.1672,1.0284 -3.4412,0.88227 -0.79824,-0.0916 -1.058,-0.2019 -1.4415,-0.61248 -0.46568,-0.49851 -0.4673,-0.50765 -0.35504,-2.0052 0.10929,-1.4576 0.10113,-1.5107 -0.26292,-1.7055 -0.20665,-0.1106 -0.85772,-0.26422 -1.4468,-0.34139 -0.58911,-0.0772 -1.3218,-0.18743 -1.6283,-0.24503 -0.64563,-0.12134 -0.99381,0.20411 -0.99381,0.92893 0,0.24012 -0.13683,0.61179 -0.30406,0.82593 -0.16725,0.21415 -0.35254,0.54419 -0.41177,0.73342 -0.0592,0.18921 -0.61323,0.83206 -1.2311,1.4286 l -1.1234,1.0845 h -1.0878 c -0.5983,0 -1.2355,-0.079 -1.416,-0.17564 -0.18049,-0.0966 -0.5484,-0.66597 -0.8176,-1.2653 -0.5845,-1.3014 -0.63033,-2.2501 -0.24021,-4.9746 0.14407,-1.0062 0.37363,-2.8947 0.51016,-4.1967 0.4984,-4.7537 0.68591,-5.551 1.3054,-5.551 0.49931,0 0.73476,0.92125 0.54493,2.1321 -0.0766,0.48858 -0.24389,1.8802 -0.37176,3.0924 -0.12787,1.2122 -0.34769,3.0443 -0.48852,4.0712 -0.41223,3.0062 -0.24857,4.8703 0.46251,5.2683 0.48417,0.27096 1.4436,-0.0153 1.9397,-0.57882 0.97391,-1.1061 1.2213,-1.6264 1.3323,-2.8015 0.0594,-0.62857 0.2153,-1.307 0.3465,-1.5076 0.31664,-0.48416 0.92416,-0.62176 1.4027,-0.31771 0.2105,0.13374 1.2421,0.36504 2.2924,0.51401 2.1889,0.31043 2.4628,0.24404 2.8537,-0.69145 0.42451,-1.016 0.99396,-1.6271 1.6268,-1.7459 0.68419,-0.12834 1.0978,0.16358 1.46,1.0306 0.33275,0.79642 0.28942,1.1328 -0.21757,1.6886 -0.66684,0.7311 -0.71365,0.76709 -1.507,1.1584 -0.82023,0.40461 -0.94139,0.66913 -0.96652,2.1102 -0.0134,0.76545 0.0404,0.9634 0.29953,1.102 0.70841,0.37914 2.326,0.0867 2.9702,-0.5369 0.21313,-0.20635 0.6079,-0.52886 0.87729,-0.7167 0.26939,-0.18783 0.93221,-0.77112 1.4729,-1.2962 1.2482,-1.2121 3.4333,-3.1494 4.1022,-3.6371 0.39827,-0.29036 0.75068,-0.3797 1.5667,-0.39714 1.145,-0.0245 1.4494,0.1243 1.8535,0.90586 0.45063,0.87142 -0.36465,1.4805 -1.1682,0.87275 -0.92475,-0.69944 -2.4875,0.10196 -2.8268,1.4497 -0.26897,1.0681 -0.22631,1.822 0.14418,2.5482 0.6206,1.2165 1.5121,1.3832 5.4678,1.0228 1.1674,-0.10637 3.8122,-0.27593 5.8776,-0.37683 2.0653,-0.10092 4.6367,-0.29479 5.7143,-0.43086 1.0776,-0.13608 2.9878,-0.3439 4.2449,-0.46184 1.2571,-0.11795 2.5061,-0.25062 2.7755,-0.29481 0.73897,-0.12127 1.0898,0.13535 1.0299,0.7533 -0.0451,0.46574 -0.10976,0.52425 -0.62178,0.5628 -0.31428,0.0237 -0.8653,0.11394 -1.2245,0.20063 -0.35918,0.0867 -1.3622,0.19155 -2.229,0.23302 -0.86676,0.0414 -2.0055,0.15139 -2.5306,0.24427 -1.4998,0.26534 -4.2464,0.49733 -8.0567,0.68049 -1.9306,0.0928 -4.2816,0.27506 -5.2245,0.405 -2.133,0.29396 -4.1188,0.28228 -4.9976,-0.0294 z"
         id="became" />
    </g>
  </g>
</svg>
