<svg xmlns="http://www.w3.org/2000/svg" height="21.427" width="18.566"><path d="M14.8 8.015c.333-.302.161-.795-.135-.795-.306 0-1.155.74-1.155 1.068 0 .374.522.442.915.086zM13.22 21.09c-.194-.363.026-1.323.41-1.788.112-.135.253-.456.315-.714.061-.258.439-1.045.838-1.75.4-.704.727-1.434.727-1.621 0-.188.21-.836.467-1.44.35-.824.498-1.496.586-2.675.065-.866.07-1.726.011-1.912-.144-.455-.664-.428-1.25.065-.71.598-2.203.94-2.688.616-.304-.204-.555-.809-.555-1.342 0-.736.394-1.387 1.098-1.815.34-.206.653-.42.698-.477.181-.227 1.631-.512 2.09-.412.77.17 1.014-.324 1.004-2.029l-.008-1.392-.663-.53c-.814-.653-1.542-.7-2.206-.144-.254.213-.682.436-.951.497-.564.126-2.104 1.48-2.266 1.99-.06.19-.401.661-.758 1.048s-.65.764-.65.837c0 .074-.459.596-1.02 1.161C7.339 8.379 6.104 9.02 5.08 9.011c-.324-.003-1.227-.174-2.005-.378-1.323-.349-1.453-.422-1.99-1.125C.135 6.263 0 5.885 0 4.471c0-1.445.121-1.766 1.065-2.824C1.959.645 3.25-.01 4.049.134c1.27.23 2.155.871 2.155 1.56 0 .324-.086.473-.286.49-.576.053-.899-.034-1.303-.352-.629-.495-1.347-.417-2.208.24-.695.531-.748.627-.854 1.542-.142 1.218.002 1.89.55 2.587.487.62 1.068.934 2.183 1.178 1.187.26 3.095-.312 3.311-.991.06-.192.47-.707.91-1.144.44-.437.8-.924.801-1.083C9.313 3.506 12.572.69 13.325.69c.155 0 .398-.1.54-.222.141-.122.661-.3 1.155-.394 1.073-.207 1.64-.002 2.53.915.92.947 1.159 1.78.94 3.273-.1.684-.34 1.596-.531 2.027-.338.76-.34.805-.07 1.62.414 1.245.251 4.041-.33 5.686-.235.67-.491 1.453-.567 1.742-.076.288-.29.766-.477 1.061-.516.819-.858 1.62-.961 2.251-.052.314-.347.975-.656 1.47-.838 1.34-1.328 1.624-1.678.971z" stroke-width=".163"/></svg>