<svg xmlns="http://www.w3.org/2000/svg" height="21.426" width="18.566"><path d="M14.8 8.009c.333-.301.16-.794-.135-.794-.307 0-1.156.74-1.156 1.068 0 .373.522.441.915.085zm-1.581 13.08c-.194-.363.027-1.323.411-1.788.111-.135.253-.456.314-.714.061-.258.439-1.045.838-1.749.4-.704.727-1.434.727-1.622 0-.187.21-.836.468-1.44.35-.823.497-1.495.585-2.674.065-.866.07-1.727.012-1.912-.145-.455-.665-.428-1.25.065-.711.598-2.203.94-2.688.616-.305-.204-.555-.809-.555-1.342 0-.737.393-1.387 1.098-1.815.338-.206.652-.42.697-.477.181-.227 1.631-.513 2.09-.412.77.17 1.014-.324 1.004-2.029l-.008-1.392-.662-.53c-.815-.653-1.543-.7-2.206-.144-.254.213-.682.436-.951.497-.564.126-2.104 1.48-2.266 1.99-.06.19-.401.662-.759 1.049-.357.387-.649.764-.649.837 0 .074-.46.596-1.02 1.161C7.34 8.38 6.104 9.021 5.08 9.011c-.325-.003-1.227-.173-2.006-.378-1.323-.348-1.452-.421-1.989-1.125C.135 6.263 0 5.885 0 4.472c0-1.445.121-1.766 1.065-2.824C1.959.646 3.251-.009 4.049.135c1.27.23 2.155.87 2.155 1.56 0 .324-.087.472-.286.49-.576.053-.899-.035-1.304-.353-.628-.494-1.347-.416-2.207.24-.695.532-.748.628-.854 1.543-.142 1.218.002 1.89.549 2.587.488.62 1.068.933 2.184 1.177 1.187.26 3.095-.312 3.311-.991.06-.192.47-.706.91-1.143.44-.438.8-.925.801-1.083C9.313 3.507 12.572.69 13.325.69c.155 0 .398-.1.54-.222.142-.122.662-.3 1.156-.394 1.073-.207 1.639-.002 2.53.915.92.947 1.159 1.78.94 3.272-.101.685-.34 1.596-.532 2.027-.338.761-.34.806-.069 1.621.413 1.244.25 4.04-.33 5.686-.236.67-.492 1.453-.568 1.741-.076.289-.29.766-.476 1.061-.516.819-.858 1.62-.962 2.251-.051.315-.346.976-.655 1.47-.839 1.34-1.33 1.624-1.678.97z" stroke-width=".163"/></svg>