<svg xmlns="http://www.w3.org/2000/svg" height="15.657" width="47.152"><path d="M14.557 7.552c.246-.458-.183-1.037-.46-1.037-.283 0-.75.838-.75 1.313 0 .426.611.674.835.256zM1.3 15.182C.055 14.384-.28 13.029.23 10.857c.126-.539.348-1.895.494-3.015.145-1.119.407-2.695.583-3.502.177-.807.32-1.698.32-1.979 0-.28.084-.927.187-1.436C1.987.057 2.027 0 2.47 0c.923 0 .929.583.053 5.143A36.414 36.414 0 002.127 8c-.08.853-.269 2.029-.42 2.612-.512 1.973-.505 2.376.054 2.935.626.626 1.383.657 2.035.084.511-.45 1.586-2.373 1.586-2.838 0-.167.11-.396.245-.507.134-.112.245-.415.245-.673 0-.259.152-.623.338-.809.281-.28.456-.32 1.02-.226.376.061.759.173.852.248.094.075.828.18 1.633.234 1.605.107 2.018-.058 2.277-.906.068-.22.262-.711.433-1.092.171-.382.38-.872.463-1.091.215-.568 1.358-.807 2.045-.429 1.185.654 1.124 2.199-.131 3.309-.377.333-.808.648-.957.7-.517.18-.841.934-.918 2.136-.089 1.375-.04 1.43 1.276 1.418.91-.01 1.48-.199 1.922-.641.12-.12.305-.22.411-.22.327-.003 2.026-1.667 2.625-2.573.593-.895 1.548-1.754 2.577-2.317.33-.18.648-.404.705-.497.197-.318 1.376-.816 1.932-.816.56 0 1.867.622 2.234 1.064.111.134.152.416.095.646-.134.532-.778.702-1.318.349-.578-.38-1.356-.307-2.29.212l-.816.454-.13 1.127c-.183 1.597-.059 2.096.63 2.522.652.403.454.396 7.581.272 2.957-.05 4.921-.154 5.388-.283.929-.256 8.465-.833 10.841-.83.496 0 .672.283.494.79-.18.513-.691.652-2.6.706-1.463.04-7.411.597-8.518.796-.465.083-3.624.175-7.02.204l-6.176.052-.786-.461c-.932-.549-1.417-1.27-1.418-2.11-.002-.91-.345-.794-1.817.612-.705.674-1.357 1.225-1.45 1.225-.093 0-.442.17-.777.378-1.08.67-2.577 1.14-3.26 1.023-.958-.164-1.82-.597-1.943-.975-.156-.486-.072-1.928.126-2.167.091-.11.142-.37.113-.577-.043-.302-.166-.384-.625-.414a35.756 35.756 0 01-1.918-.23c-1.75-.25-1.996-.14-2.366 1.063-.156.506-.486 1.225-.734 1.598-.248.374-.566.867-.706 1.097-.37.605-1.912 1.478-2.602 1.473-.346-.002-.862-.19-1.307-.475z" stroke-width=".163"/></svg>