<?xml version="1.0" encoding="UTF-8" standalone="no"?>
<svg
   xmlns:dc="http://purl.org/dc/elements/1.1/"
   xmlns:cc="http://creativecommons.org/ns#"
   xmlns:rdf="http://www.w3.org/1999/02/22-rdf-syntax-ns#"
   xmlns:svg="http://www.w3.org/2000/svg"
   xmlns="http://www.w3.org/2000/svg"
   id="svg2094"
   viewBox="0 0 47.151988 15.656651"
   version="1.1"
   height="15.656651"
   width="47.151989">
  <defs
     id="defs2098" />
  <metadata
     id="metadata2">
    <rdf:RDF>
      <cc:Work
         rdf:about="">
        <dc:format>image/svg+xml</dc:format>
        <dc:type
           rdf:resource="http://purl.org/dc/dcmitype/StillImage" />
        <dc:title />
      </cc:Work>
    </rdf:RDF>
  </metadata>
  <g
     transform="translate(-612.09283,-226.93761)"
     id="g2092">
    <g
       style="stroke-width:0.16327"
       id="g2081">
      <path
         d="m 626.65,234.49 c 0.24534,-0.4584 -0.18296,-1.0372 -0.46072,-1.0372 -0.28292,0 -0.74904,0.83768 -0.74904,1.3126 0,0.4263 0.61064,0.6747 0.8348,0.25578 z m -13.257,7.6294 c -1.2455,-0.79801 -1.5812,-2.1529 -1.0713,-4.3246 0.12646,-0.53878 0.34862,-1.8954 0.49365,-3.0148 0.14504,-1.1194 0.40782,-2.6955 0.58396,-3.5026 0.17614,-0.80702 0.32025,-1.6973 0.32025,-1.9784 0,-0.2811 0.0836,-0.92736 0.18581,-1.4362 0.17435,-0.86816 0.21484,-0.92519 0.6571,-0.92519 0.9232,0 0.92924,0.58253 0.0533,5.1428 -0.13798,0.71837 -0.31616,2.0041 -0.39597,2.8572 -0.0798,0.85306 -0.26898,2.0286 -0.42039,2.6122 -0.51184,1.9731 -0.50433,2.3762 0.0547,2.9352 0.62527,0.62525 1.383,0.65621 2.0343,0.0831 0.51187,-0.4504 1.5862,-2.3722 1.5862,-2.8374 0,-0.16732 0.11021,-0.39566 0.2449,-0.50745 0.13469,-0.11179 0.2449,-0.41466 0.2449,-0.67304 0,-0.2584 0.15246,-0.62227 0.33881,-0.80862 0.28081,-0.28082 0.45547,-0.31958 1.0204,-0.22644 0.37488,0.0618 0.75801,0.17373 0.85142,0.24872 0.0934,0.075 0.82808,0.18013 1.6326,0.23365 1.6047,0.10671 2.0179,-0.0576 2.2776,-0.90583 0.0672,-0.21948 0.26207,-0.71107 0.43308,-1.0924 0.171,-0.38133 0.3789,-0.87219 0.46202,-1.0908 0.21586,-0.56774 1.3585,-0.80718 2.0453,-0.42859 1.185,0.65326 1.1237,2.1987 -0.13113,3.3086 -0.37685,0.33332 -0.80719,0.64843 -0.9563,0.70025 -0.51719,0.17969 -0.84145,0.93347 -0.91858,2.1354 -0.0883,1.3757 -0.039,1.4304 1.2763,1.4181 0.90978,-0.009 1.4796,-0.19853 1.9217,-0.64061 0.12051,-0.12052 0.3057,-0.21977 0.41153,-0.22055 0.32716,-0.002 2.0256,-1.6669 2.6251,-2.5726 0.59241,-0.89492 1.548,-1.7542 2.5766,-2.3169 0.33063,-0.18088 0.64787,-0.40444 0.70495,-0.4968 0.19658,-0.31807 1.3758,-0.81633 1.9321,-0.81633 0.56074,0 1.8669,0.62237 2.2337,1.0643 0.11122,0.13401 0.15255,0.41538 0.0948,0.64539 -0.13351,0.53196 -0.77769,0.70271 -1.3173,0.34912 -0.57844,-0.379 -1.3558,-0.30686 -2.2903,0.21256 l -0.81633,0.45376 -0.12953,1.1272 c -0.18346,1.5964 -0.0587,2.096 0.62986,2.5215 0.65218,0.40307 0.45394,0.39594 7.5813,0.27274 2.9567,-0.0511 4.9209,-0.15437 5.3878,-0.28322 0.92893,-0.25637 8.4647,-0.83296 10.841,-0.82943 0.49603,0 0.67241,0.28253 0.49412,0.78948 -0.18024,0.51256 -0.69167,0.65128 -2.6001,0.70528 -1.4626,0.0414 -7.4113,0.5973 -8.5185,0.79608 -0.46478,0.0834 -3.624,0.17538 -7.0204,0.20427 l -6.1753,0.0526 -0.78575,-0.46186 c -0.9326,-0.54818 -1.4169,-1.2688 -1.4177,-2.1096 -0.002,-0.90991 -0.3458,-0.79373 -1.8174,0.61224 -0.70492,0.67347 -1.3574,1.2245 -1.45,1.2245 -0.0926,0 -0.44235,0.17016 -0.77731,0.37814 -1.079,0.66998 -2.5768,1.1402 -3.259,1.0232 -0.95858,-0.16439 -1.8216,-0.59758 -1.9435,-0.97554 -0.15652,-0.48532 -0.0727,-1.9276 0.12593,-2.1669 0.0913,-0.11007 0.14208,-0.36948 0.11275,-0.57647 -0.0428,-0.30204 -0.16616,-0.38377 -0.62479,-0.41401 -0.31428,-0.0207 -1.1775,-0.12439 -1.9182,-0.23036 -1.7505,-0.25045 -1.9956,-0.14036 -2.3661,1.0627 -0.1558,0.50601 -0.4862,1.2255 -0.7342,1.5989 -0.24802,0.37341 -0.56573,0.86676 -0.70606,1.0964 -0.36991,0.60523 -1.9115,1.4778 -2.602,1.4728 -0.3454,-0.002 -0.86202,-0.19031 -1.3061,-0.47485 z"
         id="become" />
    </g>
  </g>
</svg>
