<svg xmlns="http://www.w3.org/2000/svg" height="16.052" width="21.575"><path d="M15.605 14.323c.196-.101.53-.34.742-.53.461-.416 1.492-1.985 1.492-2.272 0-.112.147-.477.327-.812.18-.335.325-.738.325-.896-.003-.632-1.77-.923-2.82-.465-.29.126-.943.633-1.452 1.127-.778.755-.945 1.018-1.039 1.647-.135.899-.032 1.371.422 1.95.269.34.483.434.994.434.359 0 .813-.082 1.009-.183zm-1.76 1.695c-.265-.039-.693-.248-.95-.464-.258-.217-.534-.394-.613-.394-.191 0-.647-1.554-.647-2.205 0-.898.501-2.091 1.085-2.583.301-.253.548-.613.548-.798 0-.331-.047-.336-2.327-.223-1.28.064-2.635.192-3.011.285-.73.181-.717.157-.954 1.727-.057.38-.17.733-.249.782-.079.05-.295.398-.479.776-.737 1.513-1.114 1.97-1.994 2.42-.685.349-1.59.4-2.131.12-.201-.104-.475-.24-.609-.303-.346-.161-1.23-1.462-1.387-2.04-.21-.768-.159-2.138.147-4 .277-1.68.42-2.61.73-4.734C1.538.729 1.79-.077 2.371.006c.203.029.457.249.577.5.185.386.168.615-.12 1.643-.185.657-.336 1.532-.336 1.945 0 .662-.129 1.441-.655 3.963-.074.36-.188 1.625-.253 2.812l-.117 2.158.53.495c.671.626 1.585.679 2.224.127.459-.395 1.21-1.742 1.21-2.168 0-.32.433-1.77.742-2.48.137-.316.377-.558.6-.603.745-.153 4.51-.432 6.752-.502 1.265-.039 2.514-.153 2.776-.253.291-.112.87-.142 1.486-.077 1.406.149 1.636-.008 1.734-1.18.235-2.824.802-5.904 1.123-6.102.122-.076.354-.039.541.084.254.168.34.434.38 1.178.049.899-.057 1.642-.728 5.123-.147.764-.323 1.682-.39 2.041-.066.36-.24 1.19-.385 1.848-.145.657-.264 1.585-.264 2.062 0 .744.068.935.477 1.336.65.638.778 1.214.355 1.597-.216.196-.462.265-.718.2-.54-.135-1.216-.85-1.34-1.422-.059-.263-.144-.478-.19-.478-.048 0-.421.33-.831.735-.41.404-.807.735-.882.735-.075 0-.283.147-.463.326-.199.2-.544.327-.884.327-.307 0-.656.025-.776.056s-.435.025-.7-.014z" stroke-width=".163"/></svg>