<?xml version="1.0" encoding="UTF-8" standalone="no"?>
<svg
   xmlns:dc="http://purl.org/dc/elements/1.1/"
   xmlns:cc="http://creativecommons.org/ns#"
   xmlns:rdf="http://www.w3.org/1999/02/22-rdf-syntax-ns#"
   xmlns:svg="http://www.w3.org/2000/svg"
   xmlns="http://www.w3.org/2000/svg"
   id="svg2094"
   viewBox="0 0 21.575298 16.0516"
   version="1.1"
   height="16.0516"
   width="21.575298">
  <defs
     id="defs2098" />
  <metadata
     id="metadata2">
    <rdf:RDF>
      <cc:Work
         rdf:about="">
        <dc:format>image/svg+xml</dc:format>
        <dc:type
           rdf:resource="http://purl.org/dc/dcmitype/StillImage" />
        <dc:title />
      </cc:Work>
    </rdf:RDF>
  </metadata>
  <g
     transform="translate(-611.7152,-249.81725)"
     id="g2092">
    <g
       style="stroke-width:0.16327"
       id="g2081">
      <path
         d="m 627.32,264.14 c 0.19615,-0.10101 0.53,-0.33979 0.7419,-0.53061 0.46152,-0.41558 1.4923,-1.9842 1.4923,-2.2709 0,-0.11184 0.14694,-0.47749 0.32654,-0.81258 0.17959,-0.33507 0.32595,-0.73807 0.32525,-0.89554 -0.003,-0.63208 -1.7691,-0.92361 -2.8203,-0.4655 -0.28896,0.12593 -0.94229,0.63329 -1.4518,1.1275 -0.77807,0.75458 -0.94442,1.0183 -1.0386,1.6465 -0.13487,0.89935 -0.0325,1.3718 0.42239,1.9501 0.26829,0.34109 0.4823,0.43469 0.99386,0.43469 0.35858,0 0.81242,-0.0826 1.0086,-0.18367 z m -1.759,1.6953 c -0.26567,-0.0388 -0.69375,-0.24777 -0.9513,-0.46449 -0.25755,-0.21672 -0.53327,-0.39404 -0.6127,-0.39404 -0.19094,0 -0.64686,-1.5538 -0.64686,-2.2046 0,-0.89777 0.50152,-2.0914 1.0852,-2.5828 0.3011,-0.25347 0.54745,-0.61277 0.54745,-0.79844 0,-0.33084 -0.0463,-0.33525 -2.3265,-0.22218 -1.2796,0.0635 -2.6346,0.19165 -3.0112,0.28488 -0.72983,0.18068 -0.7166,0.15675 -0.95347,1.7264 -0.0575,0.38116 -0.16956,0.73318 -0.24898,0.78227 -0.0794,0.0491 -0.29512,0.39845 -0.4793,0.77636 -0.73724,1.5127 -1.1137,1.9693 -1.9944,2.4188 -0.68474,0.34947 -1.589,0.40062 -2.1312,0.12052 -0.20082,-0.10375 -0.47447,-0.23979 -0.6081,-0.3023 -0.34599,-0.16183 -1.2303,-1.4621 -1.3879,-2.0408 -0.20916,-0.76788 -0.15848,-2.1381 0.14794,-3.9989 0.27688,-1.6816 0.42014,-2.6108 0.72997,-4.7347 0.53323,-3.6554 0.78474,-4.4614 1.3663,-4.3784 0.20356,0.0291 0.45741,0.24897 0.57749,0.50033 0.18446,0.38604 0.16762,0.61478 -0.12091,1.643 -0.18436,0.65703 -0.3352,1.5324 -0.3352,1.9453 0,0.66173 -0.12872,1.441 -0.65465,3.9631 -0.0749,0.35919 -0.18888,1.6242 -0.25331,2.8112 l -0.11712,2.1581 0.52981,0.49492 c 0.67109,0.62689 1.5852,0.67931 2.2245,0.12756 0.45815,-0.39541 1.2095,-1.7422 1.2095,-2.168 0,-0.32098 0.43319,-1.7697 0.7418,-2.4808 0.1369,-0.31544 0.37748,-0.55688 0.60045,-0.6026 0.74446,-0.15258 4.5095,-0.43209 6.7522,-0.50125 1.2642,-0.039 2.5132,-0.15326 2.7755,-0.25393 0.29159,-0.11188 0.86927,-0.14162 1.4861,-0.0765 1.4064,0.14854 1.6362,-0.008 1.734,-1.1802 0.23549,-2.8238 0.80258,-5.9038 1.1235,-6.1022 0.1216,-0.0752 0.35364,-0.0387 0.54055,0.0848 0.25363,0.16769 0.33931,0.43319 0.37992,1.1771 0.0491,0.89949 -0.0565,1.6424 -0.72813,5.1239 -0.14725,0.76326 -0.32227,1.6816 -0.38892,2.0408 -0.0667,0.35919 -0.24009,1.1905 -0.38542,1.8474 -0.14534,0.65689 -0.26424,1.5849 -0.26424,2.0623 0,0.74367 0.0683,0.93495 0.47732,1.3363 0.64975,0.63753 0.77786,1.2141 0.35483,1.5969 -0.21667,0.19608 -0.46222,0.26454 -0.71837,0.20024 -0.54085,-0.13575 -1.2155,-0.85134 -1.3409,-1.4223 -0.0577,-0.26284 -0.14324,-0.47789 -0.19,-0.47789 -0.0468,0 -0.42039,0.33061 -0.83025,0.73469 -0.40988,0.40409 -0.80659,0.7347 -0.8816,0.7347 -0.075,0 -0.2833,0.14694 -0.46289,0.32653 -0.19917,0.19917 -0.54421,0.32653 -0.8846,0.32653 -0.30694,0 -0.65592,0.0254 -0.77551,0.0563 -0.11959,0.031 -0.43479,0.0246 -0.70046,-0.0142 z"
         id="bed" />
    </g>
  </g>
</svg>
