<svg xmlns="http://www.w3.org/2000/svg" height="15.783" width="18.343"><path d="M16.613 8.57c.39-.286.29-.998-.148-1.054-.476-.06-.716.154-.834.744-.095.474-.067.523.293.523.219 0 .529-.096.689-.214zm-3.5 6.784c-.728-.651-.915-1.626-.491-2.556.39-.856.59-1.98.377-2.111-.086-.053-1.14-.18-2.344-.284-2.386-.204-3.088-.096-3.088.48 0 .448-1.256 2.892-1.811 3.525-.26.296-.858.704-1.33.908-.793.342-.933.355-1.838.17-.846-.171-1.083-.308-1.736-1-.416-.44-.79-.985-.834-1.21-.124-.648.414-3.513.767-4.085.203-.33.298-1.119.578-4.792.219-2.872.447-3.907.932-4.225.35-.229.422-.23.638-.014.21.21.219.547.067 2.433-.246 3.06-.47 4.804-.765 5.945a25.375 25.375 0 00-.652 3.859c-.075.827-.045.946.297 1.187.21.148.661.344 1.003.436 1.001.27 1.687-.165 2.44-1.548.336-.62.612-1.258.612-1.419 0-.16.065-.332.145-.381.08-.05.192-.343.25-.653.134-.717.978-1.472 1.468-1.314.408.13 3.517.377 4.959.393l1.026.011.327-.761c.179-.419.587-1.117.906-1.551.525-.716.64-.79 1.233-.79.473 0 .851.143 1.373.518.677.486.72.564.72 1.286 0 .735-.04.801-.914 1.521-.503.414-1.192.828-1.533.92-.695.187-.925.482-1.439 1.851-.457 1.217-.467 1.996-.031 2.269.433.27.414.86-.037 1.177-.502.352-.699.322-1.276-.195z" stroke-width=".163"/></svg>