<?xml version="1.0" encoding="UTF-8" standalone="no"?>
<svg
   xmlns:dc="http://purl.org/dc/elements/1.1/"
   xmlns:cc="http://creativecommons.org/ns#"
   xmlns:rdf="http://www.w3.org/1999/02/22-rdf-syntax-ns#"
   xmlns:svg="http://www.w3.org/2000/svg"
   xmlns="http://www.w3.org/2000/svg"
   id="svg2094"
   viewBox="0 0 18.342918 15.78277"
   version="1.1"
   height="15.78277"
   width="18.342918">
  <defs
     id="defs2098" />
  <metadata
     id="metadata2">
    <rdf:RDF>
      <cc:Work
         rdf:about="">
        <dc:format>image/svg+xml</dc:format>
        <dc:type
           rdf:resource="http://purl.org/dc/dcmitype/StillImage" />
        <dc:title />
      </cc:Work>
    </rdf:RDF>
  </metadata>
  <g
     transform="translate(-611.20707,-273.01057)"
     id="g2092">
    <g
       style="stroke-width:0.16327"
       id="g2081">
      <path
         d="m 627.82,281.58 c 0.39062,-0.28562 0.29093,-0.99695 -0.14756,-1.053 -0.47606,-0.0609 -0.71616,0.15318 -0.83427,0.74374 -0.0947,0.47333 -0.0671,0.5225 0.29287,0.5225 0.21855,0 0.52859,-0.096 0.68896,-0.21322 z m -3.5007,6.7846 c -0.72692,-0.65122 -0.9141,-1.6263 -0.49066,-2.5559 0.39003,-0.85614 0.59063,-1.9792 0.37711,-2.1111 -0.0852,-0.0527 -1.1401,-0.18031 -2.3441,-0.28364 -2.3854,-0.2047 -3.0871,-0.0959 -3.0871,0.47871 0,0.44869 -1.256,2.8932 -1.8117,3.5262 -0.25941,0.29545 -0.85789,0.70384 -1.33,0.90755 -0.79295,0.34217 -0.93296,0.3552 -1.8379,0.17102 -0.84609,-0.17222 -1.0826,-0.30858 -1.7356,-1.0007 -0.41584,-0.44072 -0.79117,-0.98497 -0.83409,-1.2094 -0.12396,-0.64841 0.4136,-3.514 0.76646,-4.086 0.20336,-0.3296 0.29858,-1.1185 0.57837,-4.7915 0.21882,-2.8727 0.44697,-3.9073 0.9317,-4.2249 0.34969,-0.22911 0.42206,-0.23079 0.63805,-0.0148 0.20976,0.20978 0.21915,0.54787 0.0675,2.4334 -0.24606,3.0594 -0.4707,4.8038 -0.76559,5.9448 -0.29489,1.141 -0.53448,2.5593 -0.65193,3.8588 -0.0748,0.82758 -0.0449,0.94692 0.29774,1.1877 0.20949,0.14724 0.66072,0.34335 1.0027,0.43579 1.0013,0.27066 1.6873,-0.16468 2.4391,-1.5479 0.33688,-0.61974 0.6125,-1.2583 0.6125,-1.4189 0,-0.16067 0.0651,-0.33239 0.14475,-0.38159 0.0796,-0.0492 0.19233,-0.343 0.25045,-0.65286 0.1345,-0.71692 0.97772,-1.4716 1.4684,-1.3142 0.40722,0.13065 3.5164,0.37721 4.9586,0.39321 l 1.0262,0.0114 0.32631,-0.76122 c 0.17946,-0.41868 0.58718,-1.1166 0.90605,-1.551 0.52562,-0.71604 0.64077,-0.7898 1.233,-0.7898 0.47322,0 0.85188,0.14263 1.3738,0.51747 0.67661,0.48591 0.72057,0.56438 0.72057,1.2861 0,0.73494 -0.0401,0.80168 -0.91446,1.5215 -0.50297,0.41408 -1.1929,0.82782 -1.5332,0.91947 -0.69567,0.18733 -0.92498,0.48235 -1.4392,1.8516 -0.45675,1.2163 -0.46756,1.9959 -0.0315,2.2683 0.43312,0.2705 0.4149,0.86129 -0.0363,1.1773 -0.50246,0.35195 -0.69923,0.32191 -1.276,-0.19482 z"
         id="bee" />
    </g>
  </g>
</svg>
