<?xml version="1.0" encoding="UTF-8" standalone="no"?>
<svg
   xmlns:dc="http://purl.org/dc/elements/1.1/"
   xmlns:cc="http://creativecommons.org/ns#"
   xmlns:rdf="http://www.w3.org/1999/02/22-rdf-syntax-ns#"
   xmlns:svg="http://www.w3.org/2000/svg"
   xmlns="http://www.w3.org/2000/svg"
   id="svg2094"
   viewBox="0 0 21.011627 16.107454"
   version="1.1"
   height="16.107454"
   width="21.011627">
  <defs
     id="defs2098" />
  <metadata
     id="metadata2">
    <rdf:RDF>
      <cc:Work
         rdf:about="">
        <dc:format>image/svg+xml</dc:format>
        <dc:type
           rdf:resource="http://purl.org/dc/dcmitype/StillImage" />
        <dc:title />
      </cc:Work>
    </rdf:RDF>
  </metadata>
  <g
     transform="translate(-612.28007,-296.35258)"
     id="g2092">
    <g
       style="stroke-width:0.16327"
       id="g2081">
      <path
         d="m 614.44,312.28 c -1.5764,-0.92826 -2.2969,-2.0799 -2.1385,-3.4182 0.26693,-2.2554 0.44496,-3.2899 0.59782,-3.4741 0.0917,-0.11056 0.24273,-0.8064 0.3355,-1.5463 0.0928,-0.73992 0.31236,-2.0436 0.48797,-2.897 0.17559,-0.85342 0.31926,-1.9914 0.31926,-2.5289 0,-1.4676 0.73866,-2.4643 1.4122,-1.9053 0.19876,0.16497 0.22919,0.38859 0.1407,1.0339 -0.0621,0.45288 -0.14549,1.1908 -0.18529,1.6397 -0.16464,1.8571 -0.57595,4.3458 -0.81136,4.9092 -0.13847,0.33141 -0.31292,1.3664 -0.38763,2.3 -0.0747,0.9336 -0.22504,1.8049 -0.33402,1.9362 -0.15589,0.18785 -0.15068,0.40005 0.0245,0.99502 0.6512,2.2122 2.2139,2.0525 3.8406,-0.39254 0.51459,-0.77348 0.63755,-1.1233 0.72431,-2.061 0.13482,-1.4568 0.34269,-1.6345 1.6986,-1.4517 0.53878,0.0726 1.8806,0.11269 2.9818,0.089 2.2374,-0.0481 3.0599,0.19391 3.4315,1.0095 0.23874,0.52397 0.83905,0.56025 1.2757,0.0771 0.56743,-0.62792 1.7793,-1.1252 2.742,-1.1252 1.1207,0 1.7501,0.4782 2.3172,1.7605 0.47131,1.0657 0.50164,2.2367 0.0978,3.7758 -0.31659,1.2066 -0.60957,1.481 -1.2632,1.1832 -0.43306,-0.1973 -0.43957,-0.2217 -0.30297,-1.134 0.26678,-1.7816 0.18878,-2.9987 -0.22971,-3.5854 -0.32991,-0.46255 -0.47173,-0.53061 -1.1055,-0.53061 -0.78717,0 -2.0262,0.66468 -2.0262,1.087 0,0.125 -0.18067,0.29594 -0.40149,0.37991 -0.45445,0.17276 -0.96031,1.0633 -1.244,2.1899 -0.19301,0.76653 -0.63484,1.2412 -1.1554,1.2412 -0.43395,0 -0.49769,-0.51466 -0.22538,-1.82 0.2864,-1.3728 0.31389,-2.0743 0.10302,-2.6289 -0.14678,-0.38604 -0.16201,-0.38826 -2.4377,-0.35374 -1.2595,0.0191 -2.3632,0.0799 -2.4526,0.1352 -0.0894,0.0553 -0.24714,0.35662 -0.35045,0.66965 -0.10331,0.31304 -0.24991,0.56916 -0.32578,0.56916 -0.0759,0 -0.22694,0.27551 -0.33572,0.61224 -0.69474,2.1507 -3.4893,4.0416 -4.8174,3.2595 z"
         id="been" />
    </g>
  </g>
</svg>
