<svg xmlns="http://www.w3.org/2000/svg" height="16.107" width="21.012"><path d="M2.16 15.927C.584 15-.137 13.847.02 12.51c.267-2.255.445-3.29.598-3.474.092-.11.243-.806.336-1.546.093-.74.312-2.044.488-2.897.175-.854.319-1.992.319-2.53C1.762.596 2.501-.4 3.174.159c.199.165.23.388.14 1.034-.061.452-.145 1.19-.184 1.64-.165 1.856-.576 4.345-.812 4.908-.138.332-.313 1.367-.387 2.3-.075.934-.225 1.805-.334 1.937-.156.187-.151.4.024.995.651 2.212 2.214 2.052 3.84-.393.515-.773.638-1.123.725-2.06.135-1.458.343-1.635 1.699-1.453.538.073 1.88.113 2.981.09 2.238-.049 3.06.193 3.432 1.009.239.524.839.56 1.276.077.567-.628 1.779-1.125 2.742-1.125 1.12 0 1.75.478 2.317 1.76.471 1.066.501 2.237.098 3.776-.317 1.207-.61 1.481-1.264 1.183-.433-.197-.44-.221-.303-1.134.267-1.781.19-2.998-.23-3.585-.33-.463-.471-.53-1.105-.53-.787 0-2.026.664-2.026 1.086 0 .125-.18.296-.401.38-.455.173-.96 1.063-1.244 2.19-.193.767-.635 1.241-1.156 1.241-.434 0-.498-.514-.225-1.82.286-1.373.314-2.074.103-2.629-.147-.386-.162-.388-2.438-.353-1.26.019-2.363.08-2.453.135-.089.055-.247.356-.35.67-.103.313-.25.569-.326.569-.076 0-.227.275-.335.612-.695 2.15-3.49 4.042-4.818 3.26z" stroke-width=".163"/></svg>