<?xml version="1.0" encoding="UTF-8" standalone="no"?>
<svg
   xmlns:dc="http://purl.org/dc/elements/1.1/"
   xmlns:cc="http://creativecommons.org/ns#"
   xmlns:rdf="http://www.w3.org/1999/02/22-rdf-syntax-ns#"
   xmlns:svg="http://www.w3.org/2000/svg"
   xmlns="http://www.w3.org/2000/svg"
   id="svg2094"
   viewBox="0 0 17.494277 30.328979"
   version="1.1"
   height="30.328979"
   width="17.494278">
  <defs
     id="defs2098" />
  <metadata
     id="metadata2">
    <rdf:RDF>
      <cc:Work
         rdf:about="">
        <dc:format>image/svg+xml</dc:format>
        <dc:type
           rdf:resource="http://purl.org/dc/dcmitype/StillImage" />
        <dc:title />
      </cc:Work>
    </rdf:RDF>
  </metadata>
  <g
     transform="translate(-612.92859,-317.23664)"
     id="g2092">
    <g
       style="stroke-width:0.16327"
       id="g2081">
      <path
         d="m 628.51,324.29 c 0.46936,-0.70849 0.52025,-0.91571 0.59115,-2.4079 0.0781,-1.6425 0.0329,-2.0182 -0.3134,-2.6045 -0.15238,-0.25799 -0.23398,-0.28089 -0.42777,-0.12006 -0.18126,0.15045 -0.25767,0.73507 -0.3143,2.4051 -0.0466,1.3729 -0.14709,2.2786 -0.26613,2.3976 -0.25598,0.25598 -0.24615,1.1056 0.0127,1.1053 0.11224,0 0.43518,-0.34916 0.71765,-0.77551 z m -3.876,20.561 c 1.0072,-1.0711 1.3997,-2.0713 1.6501,-4.2057 0.22369,-1.9064 0.0935,-3.8168 -0.35874,-5.2659 -0.4128,-1.3226 -0.70616,-0.81409 -1.1141,1.9314 -0.11341,0.76326 -0.33518,1.6449 -0.49282,1.9592 -0.30109,0.60028 -0.56165,1.5964 -1.1438,4.3728 -0.28232,1.3463 -0.31207,1.727 -0.15022,1.9221 0.30386,0.36612 0.80173,0.14537 1.6096,-0.71372 z m -2.3031,2.5361 c -0.50846,-0.20131 -0.85344,-0.90952 -0.83088,-1.7057 0.0214,-0.75541 0.37274,-2.6745 0.55315,-3.0215 0.0811,-0.15593 0.14738,-0.39903 0.14738,-0.54024 0,-0.14119 0.21477,-0.89527 0.47729,-1.6757 0.27364,-0.81354 0.55954,-2.1504 0.67007,-3.1332 0.10601,-0.94286 0.2904,-2.0082 0.40975,-2.3674 0.11934,-0.35919 0.26037,-1.0328 0.31338,-1.4969 0.053,-0.46408 0.27834,-1.3454 0.50071,-1.9585 0.22236,-0.61308 0.40431,-1.2887 0.40431,-1.5013 0,-0.33263 -0.0626,-0.3752 -0.44898,-0.30507 -0.24694,0.0448 -0.66939,0.15903 -0.93878,0.25381 -0.26939,0.0948 -1.056,0.30078 -1.7481,0.45778 -1.3677,0.31027 -1.4612,0.40619 -1.6924,1.7357 -0.0603,0.34653 -0.38332,0.96149 -0.74132,1.4111 -0.349,0.43832 -0.63586,0.85988 -0.63747,0.93683 -0.005,0.21474 -1.2234,1.1787 -1.7409,1.3768 -0.27305,0.10451 -0.82537,0.13097 -1.358,0.0651 -0.79962,-0.099 -0.98168,-0.19871 -1.6664,-0.91286 -1.1382,-1.1871 -1.2854,-1.9077 -0.84676,-4.1442 0.72508,-3.697 1.0751,-5.9154 1.4811,-9.3878 0.0992,-0.84888 0.46216,-1.3412 0.93793,-1.2725 0.55987,0.0809 0.69134,0.80811 0.37165,2.0556 -0.15427,0.60193 -0.27965,1.4985 -0.27867,1.9924 0.002,1.1954 -0.58342,4.8776 -0.98701,6.2041 -0.55396,1.8206 -0.37108,2.9371 0.60273,3.6799 0.81022,0.61799 1.4326,0.46731 2.4171,-0.58519 0.82495,-0.88193 1.2334,-1.676 1.2334,-2.3979 0,-0.42258 0.5302,-2.0978 0.72588,-2.2934 0.0472,-0.0472 0.32566,-0.0637 0.61876,-0.0366 1.4414,0.13308 2.2202,0.0471 3.2743,-0.3616 1.7011,-0.65953 2.13,-1.1836 2.5464,-3.1118 0.18965,-0.87804 0.34633,-1.9433 0.34819,-2.3673 0.006,-1.3408 0.61953,-4.6284 0.93274,-4.9974 0.48274,-0.56858 0.75974,-0.74263 1.1863,-0.74546 0.50977,-0.003 0.65204,0.0965 1.1484,0.80624 0.46773,0.66882 0.68668,1.9151 0.70518,4.0139 0.0118,1.3332 -0.0352,1.5757 -0.47128,2.4317 -0.54645,1.0728 -0.62914,1.1818 -2.1402,2.8214 -1.0216,1.1085 -1.1108,1.2678 -1.416,2.5306 -0.4769,1.9731 -0.4481,2.5356 0.18166,3.5487 0.68435,1.1009 0.93308,2.6171 0.92454,5.6357 -0.007,2.3109 -0.32062,4.3112 -0.83028,5.2879 -0.12235,0.23449 -0.22292,0.50754 -0.22346,0.60677 -0.002,0.35159 -2.0176,2.2651 -2.5997,2.468 -0.68121,0.23739 -0.915,0.23729 -1.5158,0 z"
         id="before_abv" />
    </g>
  </g>
</svg>
