<svg xmlns="http://www.w3.org/2000/svg" height="30.33" width="17.492"><path d="M15.58 7.052c.47-.709.52-.916.591-2.408.079-1.642.033-2.018-.313-2.605-.152-.258-.234-.281-.428-.12-.181.15-.257.735-.314 2.405-.047 1.373-.147 2.279-.266 2.398-.256.256-.246 1.106.013 1.105.112 0 .435-.35.717-.776zm-3.876 20.56c1.007-1.071 1.4-2.071 1.65-4.206.224-1.906.094-3.817-.358-5.266-.413-1.323-.707-.814-1.114 1.93-.114.764-.336 1.646-.493 1.96-.301.6-.562 1.596-1.144 4.373-.283 1.346-.312 1.727-.15 1.922.303.366.801.145 1.61-.714zm-2.303 2.536c-.508-.202-.853-.91-.83-1.706.02-.756.372-2.674.553-3.021.08-.156.147-.4.147-.54 0-.142.215-.896.477-1.677.274-.813.56-2.15.67-3.133.106-.942.29-2.008.41-2.367s.26-1.033.314-1.497c.053-.464.278-1.345.5-1.958.223-.613.405-1.289.405-1.5 0-.333-.063-.376-.45-.306-.246.045-.669.16-.938.254-.27.095-1.056.301-1.748.458-1.368.31-1.461.406-1.692 1.736-.06.346-.384.961-.742 1.411-.349.438-.635.86-.637.937-.005.214-1.223 1.179-1.741 1.377-.273.104-.825.13-1.358.065-.8-.1-.982-.199-1.666-.913C-.063 16.581-.21 15.86.228 13.624.953 9.927 1.303 7.709 1.71 4.236c.1-.849.462-1.341.938-1.272.56.08.691.808.372 2.056-.155.602-.28 1.498-.28 1.992.003 1.195-.582 4.878-.986 6.204-.554 1.821-.371 2.937.603 3.68.81.618 1.433.467 2.417-.585.825-.882 1.233-1.676 1.233-2.398 0-.423.53-2.098.726-2.293.047-.047.325-.064.618-.037 1.441.133 2.22.047 3.274-.361 1.701-.66 2.13-1.184 2.546-3.112.19-.878.347-1.943.349-2.367.006-1.341.619-4.628.932-4.997.483-.569.76-.743 1.186-.746.51-.003.652.097 1.148.806.468.67.687 1.915.705 4.014.012 1.333-.035 1.576-.47 2.432-.547 1.073-.63 1.182-2.14 2.821-1.023 1.11-1.112 1.268-1.417 2.531-.477 1.973-.448 2.536.182 3.55.684 1.1.933 2.616.924 5.635-.007 2.311-.32 4.311-.83 5.288-.122.235-.223.508-.223.607-.002.352-2.018 2.265-2.6 2.468-.682.237-.915.237-1.516 0z" stroke-width=".163"/></svg>