<svg xmlns="http://www.w3.org/2000/svg" height="30.329" width="17.494"><path d="M15.581 7.053c.47-.708.52-.915.592-2.408.078-1.642.032-2.018-.314-2.604-.152-.258-.234-.28-.428-.12-.18.15-.257.735-.314 2.405-.047 1.373-.147 2.279-.266 2.398-.256.256-.246 1.105.013 1.105.112 0 .435-.35.717-.776zm-3.876 20.561c1.008-1.07 1.4-2.07 1.65-4.205.224-1.907.094-3.817-.358-5.266-.413-1.323-.706-.814-1.114 1.931-.114.763-.336 1.645-.493 1.96-.301.6-.562 1.596-1.144 4.372-.282 1.346-.312 1.727-.15 1.922.304.366.802.146 1.61-.713zM9.402 30.15c-.508-.2-.853-.91-.83-1.705.02-.756.372-2.675.553-3.022.08-.156.147-.399.147-.54 0-.141.215-.895.477-1.676.274-.813.56-2.15.67-3.133.106-.943.29-2.008.41-2.367.12-.36.26-1.033.313-1.497.053-.464.279-1.346.501-1.959.223-.613.404-1.288.404-1.501 0-.333-.062-.375-.449-.305a7.44 7.44 0 00-.938.254c-.27.095-1.056.3-1.748.458-1.368.31-1.462.406-1.693 1.735-.06.347-.383.962-.741 1.411-.35.439-.636.86-.638.937-.005.215-1.223 1.179-1.74 1.377-.274.104-.826.13-1.358.065-.8-.099-.982-.199-1.667-.913-1.138-1.187-1.285-1.907-.847-4.144C.953 9.928 1.303 7.71 1.71 4.237c.1-.849.463-1.341.938-1.272.56.08.692.808.372 2.055-.154.602-.28 1.499-.279 1.993.002 1.195-.583 4.877-.987 6.204-.554 1.82-.37 2.937.603 3.68.81.618 1.433.467 2.417-.585.825-.882 1.234-1.676 1.234-2.398 0-.423.53-2.098.725-2.294.048-.047.326-.063.62-.036 1.44.133 2.22.047 3.274-.362 1.7-.66 2.13-1.184 2.546-3.112.19-.878.346-1.943.348-2.367.006-1.34.62-4.628.933-4.997.483-.57.76-.743 1.186-.746.51-.003.652.097 1.149.806.467.67.686 1.915.705 4.014.012 1.333-.035 1.576-.472 2.432-.546 1.073-.629 1.182-2.14 2.821-1.021 1.109-1.11 1.268-1.416 2.53-.477 1.974-.448 2.537.182 3.55.684 1.1.933 2.617.924 5.635-.007 2.311-.32 4.311-.83 5.288-.122.235-.223.508-.223.607-.002.352-2.018 2.265-2.6 2.468-.681.237-.915.237-1.516 0z" stroke-width=".163"/></svg>