<svg xmlns="http://www.w3.org/2000/svg" height="28.067" width="21.045"><path d="M15.99 15.537c1.153-.33 2.473-1.157 2.735-1.714.933-1.981.992-2.363.444-2.877-.577-.543-2.038-.575-2.777-.062-.27.187-.684.457-.92.6-.555.335-1.205 1.504-1.437 2.584-.175.817-.165.867.26 1.312.244.254.485.462.536.462.05 0 .572-.137 1.158-.305zm.357 12.096c-.174-.5-.032-1.547.45-3.301.16-.584.366-1.575.458-2.204.092-.629.277-1.62.41-2.204.342-1.49.514-3.592.296-3.592-.095 0-.728.22-1.406.49-.678.27-1.418.49-1.645.49-.552 0-1.28-.394-1.87-1.011-.567-.593-.615-1.135-.23-2.62.277-1.07.573-1.632 1.171-2.221.214-.21.364-.504.336-.653-.044-.227-.29-.273-1.52-.283a25.504 25.504 0 00-2.691.136c-1.6.193-1.951.496-2.528 2.18-.394 1.149-.562 1.404-1.557 2.358-.614.588-1.474 1.264-1.91 1.502-.765.416-.824.423-1.492.193-.834-.287-1.441-.657-1.954-1.19-.813-.844-.861-1.635-.251-4.106A22.72 22.72 0 00.95 8.005c.062-1.032.195-2.17.296-2.53.101-.36.267-1.094.369-1.633a27.21 27.21 0 01.41-1.796c.123-.449.274-1.091.334-1.428.133-.741.578-.828.993-.194.305.465.246.959-.4 3.366-.215.8-.378 2.072-.449 3.51-.08 1.63-.225 2.665-.52 3.726-.224.808-.438 1.91-.474 2.449l-.067.98.644.449c.886.617 1.678.604 2.412-.041.307-.27.626-.49.708-.49.223 0 .801-1.383 1.162-2.775.174-.672.444-1.34.599-1.485.543-.503 4.847-.96 9.588-1.017 2.41-.029 2.461-.022 3.224.426.78.46 1.266 1.126 1.266 1.739 0 .183-.191 1.05-.425 1.926-.233.877-.494 1.888-.58 2.247-.086.36-.226.723-.31.808-.085.086-.155.371-.155.634 0 .264-.068.745-.153 1.07-.428 1.653-1.064 5.035-1.477 7.856-.163 1.113-.288 1.451-.708 1.918-.44.488-.698.463-.89-.087z" stroke-width=".163"/></svg>