<?xml version="1.0" encoding="UTF-8" standalone="no"?>
<svg
   xmlns:dc="http://purl.org/dc/elements/1.1/"
   xmlns:cc="http://creativecommons.org/ns#"
   xmlns:rdf="http://www.w3.org/1999/02/22-rdf-syntax-ns#"
   xmlns:svg="http://www.w3.org/2000/svg"
   xmlns="http://www.w3.org/2000/svg"
   id="svg2094"
   viewBox="0 0 21.044895 28.067114"
   version="1.1"
   height="28.067114"
   width="21.044895">
  <defs
     id="defs2098" />
  <metadata
     id="metadata2">
    <rdf:RDF>
      <cc:Work
         rdf:about="">
        <dc:format>image/svg+xml</dc:format>
        <dc:type
           rdf:resource="http://purl.org/dc/dcmitype/StillImage" />
        <dc:title />
      </cc:Work>
    </rdf:RDF>
  </metadata>
  <g
     transform="translate(-611.61066,-343.50287)"
     id="g2092">
    <g
       style="stroke-width:0.16327"
       id="g2081">
      <path
         d="m 627.6,359.04 c 1.1539,-0.32997 2.4732,-1.1567 2.7358,-1.7144 0.93281,-1.9811 0.9917,-2.3624 0.44424,-2.8767 -0.57753,-0.54256 -2.0387,-0.57535 -2.7776,-0.0623 -0.26938,0.18702 -0.68341,0.45695 -0.92006,0.59984 -0.55497,0.3351 -1.2051,1.5046 -1.4367,2.5841 -0.17525,0.81719 -0.16527,0.86746 0.26065,1.312 0.24359,0.25426 0.48448,0.46227 0.53532,0.46227 0.0508,0 0.57211,-0.13717 1.1584,-0.30485 z m 0.35766,12.096 c -0.17428,-0.49997 -0.0317,-1.547 0.44965,-3.3011 0.16016,-0.58368 0.36652,-1.5755 0.45858,-2.2041 0.0921,-0.62858 0.27667,-1.6204 0.41029,-2.2041 0.34104,-1.4898 0.51391,-3.5918 0.29539,-3.5918 -0.0951,0 -0.7278,0.22041 -1.4059,0.48979 -0.67814,0.26939 -1.4184,0.4898 -1.645,0.4898 -0.55246,0 -1.2804,-0.39334 -1.8703,-1.0106 -0.56704,-0.59335 -0.61458,-1.1348 -0.22993,-2.6192 0.27758,-1.0712 0.57345,-1.6324 1.1714,-2.2219 0.21334,-0.2103 0.36428,-0.50418 0.33541,-0.65306 -0.044,-0.227 -0.28922,-0.27262 -1.5193,-0.28259 -0.80674,-0.007 -2.0178,0.0545 -2.6913,0.13575 -1.5999,0.19292 -1.9514,0.49595 -2.5282,2.1795 -0.39368,1.1491 -0.56207,1.4042 -1.5569,2.3581 -0.61354,0.58827 -1.4734,1.2644 -1.9108,1.5024 -0.76391,0.41578 -0.82278,0.42342 -1.4908,0.19325 -0.83382,-0.28729 -1.4415,-0.65726 -1.9541,-1.1898 -0.81283,-0.84441 -0.86132,-1.6359 -0.25153,-4.1062 0.24779,-1.0038 0.46998,-2.4924 0.53613,-3.5918 0.0621,-1.0327 0.1956,-2.1714 0.29658,-2.5306 0.10099,-0.35918 0.26674,-1.0939 0.36834,-1.6326 0.10162,-0.53877 0.28597,-1.3469 0.40971,-1.7959 0.12374,-0.449 0.27437,-1.0918 0.33475,-1.4286 0.13278,-0.74078 0.57779,-0.82767 0.99304,-0.19389 0.30461,0.46488 0.24585,0.95874 -0.4006,3.3665 -0.21471,0.79971 -0.37729,2.0718 -0.44864,3.5102 -0.0808,1.6291 -0.22526,2.6643 -0.51987,3.7254 -0.22437,0.80817 -0.43796,1.9102 -0.47459,2.449 l -0.0666,0.9796 0.64388,0.44898 c 0.88583,0.61768 1.6778,0.60429 2.4126,-0.0408 0.30681,-0.26939 0.62533,-0.4898 0.70779,-0.4898 0.22234,0 0.80111,-1.3825 1.1616,-2.7745 0.17422,-0.6729 0.44379,-1.3412 0.59901,-1.4851 0.54295,-0.50338 4.8469,-0.9599 9.5883,-1.017 2.4105,-0.0291 2.4612,-0.0224 3.2236,0.42581 0.78091,0.45904 1.2662,1.1254 1.2662,1.7386 0,0.18294 -0.19102,1.0498 -0.42449,1.9265 -0.23347,0.8767 -0.49483,1.8878 -0.58079,2.2469 -0.086,0.35918 -0.22557,0.72286 -0.3102,0.80816 -0.0846,0.0853 -0.15391,0.37066 -0.15391,0.63412 0,0.26347 -0.0689,0.74469 -0.15305,1.0694 -0.42842,1.6527 -1.0646,5.0349 -1.4775,7.8557 -0.16295,1.1131 -0.28791,1.4518 -0.70793,1.9184 -0.43964,0.48841 -0.69817,0.46324 -0.88988,-0.0867 z"
         id="beg" />
    </g>
  </g>
</svg>
