<svg xmlns="http://www.w3.org/2000/svg" height="27.967" width="47.872"><path d="M15.93 9.402c.245-.458.145-.771-.133-.771-.282 0-1.17.947-1.17 1.422 0 .426.673.3.897-.12zm16.761-2.36c-.097-.252.397-1.388.604-1.388.213 0 .97-1.804.97-2.311 0-.295-.12-.848-.266-1.229-.331-.868-.217-1.195.417-1.195.975 0 1.463 1.186 1.229 2.986-.085.652-.308 1.137-.954 2.075-.722 1.048-.92 1.232-1.37 1.276-.37.036-.559-.028-.63-.213zm-7.121 7.775c.343-.185 1.943-2.097 2.217-2.65.107-.215.295-.679.418-1.031.203-.582.196-.66-.073-.857-.325-.238-.944-.272-1.94-.107-.473.078-.837.304-1.367.85-.398.41-.876.82-1.062.913-.435.217-.923 1.057-1.119 1.928-.139.618-.117.716.223.992.313.255.55.29 1.397.212.56-.052 1.148-.164 1.306-.25zM23.7 25.895c.666-.523 1.608-3.752 1.095-3.752-.09 0-.163.086-.163.192 0 .105-.107.309-.238.453-.444.491-1.395 2.522-1.395 2.98 0 .543.14.569.702.127zm-1.659 1.796c-.536-.333-.548-.364-.482-1.274.037-.512.233-1.298.435-1.746.835-1.846 1.709-3.507 1.846-3.507.081 0 .222-.166.313-.368a5.73 5.73 0 01.837-1.347c1.277-1.506 1.685-2.067 2.024-2.775.215-.449.39-.945.392-1.102.002-.36-.534-.379-.825-.029-.544.656-1.496.957-2.973.938-.856-.01-1.527-.097-1.67-.215-.217-.18-.444-.557-.96-1.59-.1-.202-.256-.367-.346-.368-.09 0-.725.363-1.412.808-.686.445-1.44.857-1.675.916-.234.059-.467.172-.516.252-.153.247-3.071.17-3.713-.098-.925-.386-1.092-.764-1.092-2.47 0-1.058-.06-1.514-.204-1.555-.113-.032-1.048-.059-2.078-.059H8.07l-.516.98a8.776 8.776 0 01-2.574 3.01c-.97.724-1.66.867-2.691.556-1.008-.303-1.421-.602-1.913-1.381-.383-.606-.413-.781-.348-1.996.04-.742.253-1.947.482-2.72.605-2.041.784-2.982.949-4.98.08-.987.24-2.522.355-3.41.184-1.429.258-1.653.634-1.934.369-.276.473-.289.775-.1.381.238.447.773.19 1.543-.086.26-.268 1.759-.402 3.33-.135 1.572-.39 3.409-.567 4.082-.177.674-.48 1.812-.673 2.53-.353 1.311-.354 2.351-.004 3.005.191.358 1.47.745 1.954.592.19-.06.773-.527 1.295-1.037.948-.927 1.174-1.371 1.655-3.251.23-.902.693-1.04 1.86-.555.663.275 1.172.348 2.39.343 1.771-.006 1.962-.104 2.583-1.331.624-1.233 1.967-2.171 2.867-2.003.846.16 1.132 1.035.722 2.212-.289.828-1.58 1.973-2.483 2.2-.557.139-.703.427-.844 1.67-.154 1.368-.024 1.503 1.46 1.503 1.405 0 2.716-.434 3.444-1.14.28-.271.588-.493.685-.493.097 0 .46-.33.809-.732.347-.403.707-.734.799-.735.092-.002.532-.34.98-.752.446-.412 1.104-.9 1.462-1.084.357-.183.922-.514 1.255-.734.573-.38 1.074-.553 2.442-.846.86-.184 2.095.309 2.515 1.003.273.452.318.801.297 2.288-.023 1.628-.002 1.755.287 1.755.171 0 .468-.18.66-.4.192-.22.857-.717 1.478-1.102.621-.386 1.499-.94 1.95-1.232.452-.292.895-.53.986-.53.09 0 .678-.157 1.306-.348.809-.245 1.356-.317 1.876-.246.857.118 1.686.649 1.686 1.08 0 .963.435 1.047 1.262.243.326-.316.782-.619 1.012-.672.231-.053.733-.275 1.115-.493 1.002-.571 2.1-.667 2.907-.253.353.181.826.527 1.05.767.396.425.408.502.369 2.471-.033 1.64-.103 2.154-.36 2.66-.566 1.11-1.643.931-1.393-.23.058-.27.143-1.233.188-2.14l.082-1.65-.462-.365c-.594-.467-1.449-.36-2.556.323-.433.267-.855.485-.937.485-.083 0-.574.38-1.092.846-.858.773-1.182 1.232-1.88 2.664-.369.754-.899 1.166-1.233.956-.407-.255-.425-.798-.056-1.746.372-.957.583-2.473.429-3.088-.074-.292-.247-.442-.592-.51-.647-.13-1.88.158-2.387.557-.224.176-.531.32-.682.32-.15 0-.49.208-.753.46-.264.253-.927.729-1.474 1.057-1.516.911-3.436 3.018-4.273 4.688-.382.763-.694 1.483-.694 1.598 0 .116-.219.683-.488 1.259-.27.576-.49 1.156-.49 1.29 0 .133-.065.282-.145.331-.08.05-.194.366-.254.704-.183 1.025-.732 2.349-1.241 2.991-.265.335-.482.683-.482.773 0 .216-1.076.846-1.617.947-.262.049-.633-.052-.974-.263z" stroke-width=".163"/></svg>