<?xml version="1.0" encoding="UTF-8" standalone="no"?>
<svg
   xmlns:dc="http://purl.org/dc/elements/1.1/"
   xmlns:cc="http://creativecommons.org/ns#"
   xmlns:rdf="http://www.w3.org/1999/02/22-rdf-syntax-ns#"
   xmlns:svg="http://www.w3.org/2000/svg"
   xmlns="http://www.w3.org/2000/svg"
   id="svg2094"
   viewBox="0 0 47.871535 27.966862"
   version="1.1"
   height="27.966862"
   width="47.871536">
  <defs
     id="defs2098" />
  <metadata
     id="metadata2">
    <rdf:RDF>
      <cc:Work
         rdf:about="">
        <dc:format>image/svg+xml</dc:format>
        <dc:type
           rdf:resource="http://purl.org/dc/dcmitype/StillImage" />
        <dc:title />
      </cc:Work>
    </rdf:RDF>
  </metadata>
  <g
     transform="translate(-611.11993,-367.89751)"
     id="g2092">
    <g
       style="stroke-width:0.16327"
       id="g2081">
      <path
         d="m 627.05,377.3 c 0.24534,-0.4584 0.14516,-0.77157 -0.1326,-0.77157 -0.28292,0 -1.1709,0.94706 -1.1709,1.422 0,0.4263 0.67315,0.29969 0.89731,-0.11923 z m 16.761,-2.3597 c -0.0971,-0.25289 0.39706,-1.3892 0.60408,-1.3892 0.21268,0 0.96896,-1.8036 0.96896,-2.3108 0,-0.2945 -0.11913,-0.84736 -0.26473,-1.2286 -0.33169,-0.86854 -0.21783,-1.1953 0.41652,-1.1953 0.97513,0 1.4632,1.186 1.2287,2.9859 -0.0849,0.65203 -0.30778,1.1368 -0.95389,2.0753 -0.72122,1.0476 -0.91927,1.2319 -1.3706,1.2757 -0.36911,0.0359 -0.55804,-0.0281 -0.62899,-0.21303 z m -7.1214,7.7746 c 0.34327,-0.18534 1.9429,-2.0974 2.2173,-2.6503 0.10673,-0.21508 0.29468,-0.67913 0.41767,-1.0312 0.20321,-0.58175 0.19654,-0.65996 -0.0731,-0.85715 -0.32453,-0.2373 -0.94387,-0.27148 -1.9397,-0.10703 -0.47239,0.078 -0.83692,0.30475 -1.3672,0.85043 -0.39773,0.40922 -0.87528,0.8199 -1.0612,0.9126 -0.43582,0.21728 -0.92359,1.0576 -1.1192,1.9282 -0.13892,0.61826 -0.11685,0.71651 0.22289,0.99239 0.31303,0.25421 0.55019,0.29013 1.3966,0.21153 0.56072,-0.0521 1.1485,-0.16433 1.3061,-0.24944 z m -1.8691,11.078 c 0.66579,-0.5237 1.6075,-3.7521 1.0945,-3.7521 -0.0898,0 -0.16326,0.0861 -0.16326,0.19123 0,0.10518 -0.10681,0.30924 -0.23736,0.45349 -0.44455,0.49123 -1.3953,2.5219 -1.3953,2.9802 0,0.54292 0.14054,0.56841 0.70141,0.12723 z m -1.6591,1.7961 c -0.53652,-0.33388 -0.54798,-0.36417 -0.48217,-1.274 0.0371,-0.5126 0.23292,-1.2983 0.4352,-1.746 0.83437,-1.8466 1.7085,-3.5078 1.8459,-3.5078 0.0806,0 0.22133,-0.16531 0.31275,-0.36735 0.23158,-0.51174 0.51261,-0.9639 0.83715,-1.3469 1.2763,-1.5064 1.6851,-2.067 2.0237,-2.7755 0.21459,-0.44898 0.3909,-0.9449 0.39177,-1.102 0.002,-0.36 -0.53424,-0.37879 -0.82464,-0.0289 -0.5446,0.65621 -1.496,0.95652 -2.9728,0.9384 -0.85601,-0.0104 -1.5275,-0.0971 -1.6701,-0.21543 -0.21691,-0.18002 -0.44426,-0.55657 -0.96041,-1.5908 -0.10049,-0.20133 -0.25618,-0.36644 -0.34597,-0.3669 -0.0898,0 -0.72508,0.363 -1.4117,0.8077 -0.68664,0.44471 -1.4404,0.85674 -1.675,0.91561 -0.23461,0.0589 -0.46694,0.1724 -0.51629,0.25225 -0.1529,0.24739 -3.0711,0.17089 -3.7131,-0.0974 -0.92499,-0.38648 -1.0921,-0.76441 -1.0921,-2.4702 0,-1.0579 -0.0599,-1.5143 -0.20408,-1.5555 -0.11224,-0.0321 -1.0471,-0.0583 -2.0774,-0.0583 h -1.8733 l -0.51612,0.97959 c -0.63796,1.2109 -1.4794,2.1954 -2.5734,3.0108 -0.97081,0.7236 -1.66,0.86578 -2.6917,0.55529 -1.0073,-0.30316 -1.4208,-0.60174 -1.9129,-1.3812 -0.3823,-0.60562 -0.41292,-0.78114 -0.34795,-1.9959 0.0396,-0.74163 0.25343,-1.9468 0.4824,-2.7196 0.60501,-2.0418 0.78418,-2.9825 0.94844,-4.9796 0.0812,-0.98775 0.2413,-2.523 0.3557,-3.4116 0.18386,-1.4283 0.25739,-1.6526 0.63383,-1.9336 0.36869,-0.27526 0.47264,-0.2887 0.77461,-0.10013 0.38144,0.23822 0.44766,0.77386 0.19078,1.5435 -0.0869,0.26033 -0.26813,1.759 -0.40278,3.3305 -0.13462,1.5714 -0.38969,3.4082 -0.56682,4.0816 -0.17711,0.67347 -0.48007,1.8122 -0.67326,2.5306 -0.35236,1.3104 -0.35371,2.3503 -0.004,3.0039 0.19166,0.35812 1.4706,0.74578 1.9541,0.59232 0.19076,-0.0605 0.77345,-0.52713 1.2949,-1.0368 0.94816,-0.92687 1.1744,-1.3712 1.6556,-3.2516 0.23059,-0.90113 0.69244,-1.0388 1.8606,-0.55461 0.66255,0.27461 1.1713,0.34772 2.3896,0.34344 1.7706,-0.006 1.9617,-0.10472 2.5826,-1.3314 0.624,-1.2328 1.9672,-2.1713 2.8664,-2.0026 0.84629,0.15875 1.1325,1.0349 0.72245,2.2112 -0.28893,0.8288 -1.5806,1.973 -2.483,2.1995 -0.55734,0.13988 -0.70296,0.42822 -0.84348,1.6702 -0.15486,1.3689 -0.0242,1.5034 1.46,1.5034 1.4049,0 2.7154,-0.4337 3.4438,-1.1396 0.27975,-0.27116 0.58787,-0.49301 0.6847,-0.49301 0.0968,0 0.46067,-0.32961 0.80855,-0.73249 0.34787,-0.40285 0.70758,-0.73347 0.79933,-0.73469 0.0918,-0.002 0.53258,-0.33959 0.9796,-0.75197 0.44702,-0.41237 1.105,-0.89995 1.4622,-1.0835 0.35717,-0.18354 0.92192,-0.51407 1.255,-0.73448 0.57323,-0.37933 1.0748,-0.55306 2.4423,-0.84596 0.8593,-0.18406 2.0948,0.3089 2.5148,1.0034 0.27299,0.45143 0.3184,0.8009 0.29719,2.2879 -0.0232,1.6274 -0.002,1.7551 0.28679,1.7551 0.17151,0 0.46862,-0.18034 0.66028,-0.40075 0.19164,-0.22041 0.85668,-0.71633 1.4779,-1.102 0.62121,-0.38572 1.4989,-0.94007 1.9504,-1.2319 0.45155,-0.29183 0.89501,-0.53061 0.98547,-0.53061 0.0905,0 0.67824,-0.15605 1.3062,-0.34676 0.80864,-0.24563 1.3558,-0.31742 1.876,-0.24612 0.85732,0.1175 1.6861,0.64859 1.6861,1.0804 0,0.96217 0.43515,1.0459 1.262,0.24286 0.32602,-0.31665 0.78157,-0.61922 1.0123,-0.67238 0.23074,-0.0532 0.73255,-0.2752 1.1151,-0.49342 1.0011,-0.57097 2.0991,-0.66643 2.9061,-0.25265 0.35373,0.18135 0.82683,0.52669 1.0513,0.76743 0.39543,0.42406 0.4069,0.50111 0.36765,2.4708 -0.0327,1.6403 -0.10222,2.154 -0.35996,2.6592 -0.56606,1.1096 -1.6423,0.93193 -1.3924,-0.22982 0.058,-0.26938 0.14248,-1.2325 0.18781,-2.1402 l 0.0824,-1.6504 -0.46269,-0.36397 c -0.59414,-0.46734 -1.4484,-0.35933 -2.5561,0.3232 -0.43251,0.26648 -0.85417,0.48452 -0.93706,0.48452 -0.0829,0 -0.57391,0.38095 -1.0912,0.84657 -0.85812,0.77241 -1.1825,1.2318 -1.881,2.6636 -0.36805,0.75448 -0.89798,1.1656 -1.2323,0.95605 -0.40748,-0.25537 -0.42493,-0.79816 -0.0561,-1.7457 0.37239,-0.95684 0.58292,-2.4734 0.42867,-3.088 -0.0733,-0.29218 -0.24679,-0.442 -0.59156,-0.51094 -0.64753,-0.1295 -1.8796,0.15823 -2.3872,0.55752 -0.22434,0.17647 -0.53097,0.32084 -0.6814,0.32084 -0.15043,0 -0.48952,0.20691 -0.7535,0.45981 -0.26399,0.25288 -0.92712,0.72844 -1.4736,1.0568 -1.5159,0.91075 -3.4365,3.0177 -4.273,4.6875 -0.38237,0.76326 -0.69459,1.4827 -0.69386,1.5986 0,0.11599 -0.21905,0.68232 -0.48844,1.2585 -0.26939,0.57618 -0.4898,1.1565 -0.4898,1.2897 0,0.1332 -0.0651,0.28234 -0.14475,0.33153 -0.0796,0.0492 -0.19414,0.36579 -0.25448,0.70352 -0.18322,1.0254 -0.73238,2.3488 -1.2414,2.9914 -0.26503,0.33461 -0.48187,0.6824 -0.48187,0.77285 0,0.216 -1.0759,0.84617 -1.6164,0.94674 -0.26279,0.0489 -0.63365,-0.0513 -0.97396,-0.26302 z"
         id="began" />
    </g>
  </g>
</svg>
