<?xml version="1.0" encoding="UTF-8" standalone="no"?>
<svg
   xmlns:dc="http://purl.org/dc/elements/1.1/"
   xmlns:cc="http://creativecommons.org/ns#"
   xmlns:rdf="http://www.w3.org/1999/02/22-rdf-syntax-ns#"
   xmlns:svg="http://www.w3.org/2000/svg"
   xmlns="http://www.w3.org/2000/svg"
   id="svg2094"
   viewBox="0 0 71.139738 27.675623"
   version="1.1"
   height="27.675623"
   width="71.13974">
  <defs
     id="defs2098" />
  <metadata
     id="metadata2">
    <rdf:RDF>
      <cc:Work
         rdf:about="">
        <dc:format>image/svg+xml</dc:format>
        <dc:type
           rdf:resource="http://purl.org/dc/dcmitype/StillImage" />
        <dc:title />
      </cc:Work>
    </rdf:RDF>
  </metadata>
  <g
     transform="translate(-611.63369,-415.90203)"
     id="g2092">
    <g
       style="stroke-width:0.16327"
       id="g2081">
      <path
         d="m 634.51,441.08 c 0.14492,-0.30542 0.26349,-0.63603 0.26349,-0.73469 0,-0.0987 0.0633,-0.17941 0.14061,-0.17941 0.11282,0 0.83899,-1.6376 0.83899,-1.8921 0,-0.0369 -0.0967,-0.0671 -0.21486,-0.0671 -0.22013,0 -1.2545,1.0728 -1.2545,1.3011 0,0.0697 -0.15275,0.47208 -0.33943,0.8941 -0.18669,0.42204 -0.2992,0.8722 -0.25002,1.0004 0.15569,0.40573 0.54285,0.25277 0.81575,-0.32229 z m 8.8507,-18.574 c -0.36039,-0.51453 -0.3271,-0.83319 0.13971,-1.3369 0.49535,-0.53448 0.5881,-0.53574 1.0777,-0.0145 l 0.39215,0.41742 -0.32286,0.60298 c -0.39083,0.72988 -0.91321,0.8643 -1.2867,0.33106 z m -10.331,20.894 c -1.0799,-0.52208 -0.8018,-2.9671 0.56641,-4.9806 0.378,-0.55631 0.68727,-1.0553 0.68727,-1.1089 0,-0.0536 0.15317,-0.25965 0.34039,-0.45794 0.1872,-0.19828 0.44963,-0.56912 0.58315,-0.82408 0.26838,-0.51242 0.85412,-1.2305 1.6172,-1.9826 0.49752,-0.49032 1.3776,-2.2523 1.3776,-2.758 0,-0.35243 -0.35537,-0.3359 -0.83512,0.0388 -0.79497,0.62086 -1.7643,1.002 -2.5461,1.0012 -1.2673,-0.002 -2.5351,-0.96877 -2.763,-2.1084 -0.11068,-0.55338 -0.52877,-0.67667 -0.87598,-0.25831 -0.27264,0.32851 -2.0659,1.5968 -2.7661,1.9564 -0.94201,0.48374 -1.3757,0.54263 -2.4694,0.33529 -1.5364,-0.29129 -1.7134,-0.37098 -2.1787,-0.98095 -0.50091,-0.65674 -0.55595,-1.5423 -0.15771,-2.5376 0.24576,-0.61422 0.24518,-0.68402 -0.008,-0.96385 -0.17513,-0.19352 -0.60676,-0.33834 -1.2037,-0.40387 -0.51188,-0.0562 -1.2661,-0.14456 -1.6761,-0.19635 -0.70542,-0.0891 -0.76874,-0.0636 -1.18,0.47564 -0.23905,0.31339 -0.52806,0.77891 -0.64227,1.0344 -0.18612,0.41646 -1.8049,2.1789 -2.0013,2.1789 -0.0435,0 -0.42922,0.2144 -0.85711,0.47642 -1.4274,0.87419 -2.3357,0.8248 -3.3033,-0.17956 -0.74767,-0.77608 -1.1921,-1.8629 -1.0895,-2.6642 0.18969,-1.482 0.5606,-3.1483 0.76315,-3.4286 0.10963,-0.15171 0.45061,-1.8105 1.0525,-5.1201 0.13652,-0.75073 0.24823,-1.7006 0.24823,-2.1109 0,-0.98167 0.30334,-1.7861 0.714,-1.8935 0.61333,-0.16037 0.78934,0.18893 0.68482,1.359 -0.0527,0.58939 -0.12462,1.5152 -0.15992,2.0575 -0.0353,0.5422 -0.21224,1.7177 -0.39321,2.6122 -0.18096,0.89451 -0.3661,1.8101 -0.41143,2.0346 -0.0453,0.22449 -0.30723,1.1429 -0.582,2.0408 -0.67591,2.2087 -0.66363,2.7767 0.0788,3.6441 0.36043,0.42108 0.7231,0.68245 0.94692,0.68245 0.44056,0 2.2131,-1.2608 2.5976,-1.8477 0.15257,-0.23285 0.40918,-0.55525 0.57024,-0.71641 0.16106,-0.16117 0.46847,-0.69712 0.68313,-1.191 0.70268,-1.6167 0.92052,-1.6828 3.0261,-0.9185 2.0999,0.76222 2.7692,0.5608 3.4794,-1.047 0.47724,-1.0805 0.54238,-1.1503 1.4466,-1.5502 1.3758,-0.60845 2.1303,-0.32207 2.2901,0.8692 0.0777,0.57908 0.0181,0.79623 -0.37335,1.3611 -0.25618,0.36966 -0.65161,0.75265 -0.87876,0.8511 -0.82493,0.35753 -1.6448,0.97892 -1.9561,1.4826 -0.17915,0.2899 -0.3663,0.98378 -0.42814,1.5875 -0.10268,1.0021 -0.0847,1.0901 0.27312,1.3408 0.26183,0.18341 0.72565,0.26828 1.4661,0.26828 0.99652,0 1.1469,-0.0483 1.882,-0.60479 0.43944,-0.33263 0.82348,-0.66325 0.8534,-0.73469 0.0299,-0.0715 0.11249,-0.12991 0.18347,-0.12991 0.21906,0 1.4764,-1.2196 1.4764,-1.4322 0,-0.11027 0.10175,-0.2005 0.22613,-0.2005 0.12435,0 0.35758,-0.20066 0.51827,-0.44588 0.16068,-0.24524 0.47502,-0.59422 0.69851,-0.77551 0.22348,-0.18131 0.63311,-0.55571 0.91029,-0.83204 1.3723,-1.3681 2.9054,-2.0282 4.7105,-2.0282 1.2592,0 1.7421,0.19617 2.5485,1.0352 0.5887,0.61259 0.59107,0.64048 0.18856,2.2237 -0.10183,0.40055 -0.25476,0.81214 -0.33986,0.91467 -0.20281,0.24438 -0.40504,2.1938 -0.22757,2.1938 0.22498,0 1.3954,-0.84986 2.1885,-1.5891 0.40782,-0.3801 0.79581,-0.69234 0.86221,-0.69388 0.0664,-0.002 0.51867,-0.35173 1.0051,-0.77826 1.8715,-1.6412 3.0306,-2.3265 3.9348,-2.3265 0.80098,0 1.3287,0.5513 1.4775,1.5435 0.13651,0.91034 0.42137,1.0787 1.1221,0.66319 0.27671,-0.16407 0.79699,-0.46206 1.1562,-0.66219 1.9303,-1.0755 2.294,-1.2923 2.3813,-1.4194 0.0526,-0.0765 0.71099,-0.11763 1.4631,-0.0913 l 1.3675,0.0479 0.10763,0.48979 c 0.0592,0.26939 0.22685,0.71021 0.3726,0.97959 0.14573,0.26939 0.26544,0.6785 0.26598,0.90915 0.002,0.56958 0.47185,2.1156 0.71905,2.3628 0.30909,0.30911 1.3989,0.81545 2.3024,1.0697 1.0252,0.28852 6.5368,0.31928 7.1236,0.0397 0.21263,-0.10129 1.0846,-0.34351 1.9376,-0.5383 1.5943,-0.36403 4.0739,-1.0644 4.6531,-1.3142 0.74813,-0.32273 2.8327,-1.3614 3.5918,-1.7896 0.97205,-0.54838 2.211,-1.2182 3.0767,-1.6635 0.59533,-0.30618 0.64379,-0.30831 0.93878,-0.0414 0.17108,0.15483 0.31105,0.37569 0.31105,0.49081 0,0.20202 -2.6383,2.0258 -2.9306,2.0258 -0.0791,0 -0.60923,0.25712 -1.178,0.57139 -0.56883,0.31425 -1.2914,0.69058 -1.6056,0.83625 -0.31429,0.14568 -0.68405,0.32003 -0.82169,0.38744 -0.13765,0.0674 -0.49735,0.17685 -0.79936,0.24318 -0.30199,0.0663 -0.99755,0.33276 -1.5456,0.59205 -0.54811,0.25932 -1.1435,0.47264 -1.3231,0.47406 -0.3278,0.003 -1.3274,0.31706 -1.6326,0.51362 -0.0898,0.0578 -0.9347,0.27763 -1.8776,0.48847 -3.3951,0.75918 -8.9882,0.39886 -10.732,-0.6914 -0.87768,-0.5488 -1.5382,-1.7728 -1.8232,-3.3781 -0.11592,-0.65314 -0.31923,-1.296 -0.45182,-1.4286 -0.51946,-0.51946 -1.7054,-0.17801 -3.4178,0.98401 -0.33035,0.22418 -0.70509,0.4076 -0.83277,0.4076 -0.26656,0 -2.17,1.9148 -2.1739,2.1869 -0.002,0.0992 -0.22184,0.42916 -0.48979,0.73316 -0.26796,0.304 -0.48719,0.64174 -0.48719,0.75053 0,0.43286 -0.57288,0.87085 -1.0258,0.78428 -0.58805,-0.11241 -0.58921,-0.66936 -0.004,-1.9454 0.40241,-0.87745 0.51241,-1.2898 0.80318,-3.0109 0.20475,-1.2119 -1.1339,-1.5105 -2.0249,-0.45165 -0.22867,0.27175 -0.54258,0.54225 -0.69758,0.60111 -0.25847,0.0981 -2.0994,1.6838 -3.3601,2.8942 -0.28725,0.27579 -0.80358,0.71256 -1.1474,0.9706 -0.34382,0.25804 -0.67525,0.54668 -0.73654,0.64143 -0.0613,0.0947 -0.43471,0.51196 -0.82983,0.92714 -0.53505,0.56219 -0.79074,1.0126 -1.0018,1.7647 -0.15585,0.55542 -0.49874,1.4899 -0.76201,2.0767 -0.26325,0.58675 -0.47967,1.1885 -0.48095,1.3373 -0.002,0.14877 -0.28444,0.78803 -0.6293,1.4206 -0.34485,0.63254 -0.72136,1.4407 -0.83669,1.7959 -0.39691,1.2226 -1.422,2.3541 -2.1235,2.3439 -0.22449,-0.003 -0.56825,-0.0833 -0.76389,-0.17786 z m -5.5798,-18.683 c 0.30044,-0.30044 0.0768,-0.72978 -0.28686,-0.72978 -0.17959,0 -0.73278,0.255 -0.73278,0.33741 0,0.0824 -0.38835,0.43799 -0.3491,0.83003 -0.11849,0.30875 0.54792,0.43004 0.83749,0.14043 z m 8.6266,5.8172 c 0.35057,-0.17884 0.90727,-0.60129 1.2372,-0.93878 1.2478,-1.2766 2.4088,-3.4812 2.098,-3.984 -0.16922,-0.27381 -2.6065,-0.0913 -2.9631,0.22194 -0.15825,0.13899 -0.47139,0.30712 -0.69588,0.37363 -0.60082,0.17801 -0.79928,0.37646 -1.579,1.5789 -0.82883,1.2782 -0.89185,1.8487 -0.284,2.5711 0.51182,0.60826 1.2281,0.66628 2.1869,0.17716 z"
         id="beginning" />
    </g>
  </g>
</svg>
