<?xml version="1.0" encoding="UTF-8" standalone="no"?>
<svg
   xmlns:dc="http://purl.org/dc/elements/1.1/"
   xmlns:cc="http://creativecommons.org/ns#"
   xmlns:rdf="http://www.w3.org/1999/02/22-rdf-syntax-ns#"
   xmlns:svg="http://www.w3.org/2000/svg"
   xmlns="http://www.w3.org/2000/svg"
   id="svg2094"
   viewBox="0 0 46.647608 26.449181"
   version="1.1"
   height="26.449181"
   width="46.64761">
  <defs
     id="defs2098" />
  <metadata
     id="metadata2">
    <rdf:RDF>
      <cc:Work
         rdf:about="">
        <dc:format>image/svg+xml</dc:format>
        <dc:type
           rdf:resource="http://purl.org/dc/dcmitype/StillImage" />
        <dc:title />
      </cc:Work>
    </rdf:RDF>
  </metadata>
  <g
     transform="translate(-612.28456,-392.65536)"
     id="g2092">
    <g
       style="stroke-width:0.16327"
       id="g2081">
      <path
         d="m 638.2,416.85 c 0.0817,-0.32802 0.13268,-0.67554 0.1132,-0.77226 -0.0195,-0.0967 0.0266,-0.18837 0.10241,-0.20364 0.11059,-0.0223 0.49902,-1.7711 0.44877,-2.0205 -0.007,-0.0362 -0.10805,-0.0467 -0.22388,-0.0233 -0.21579,0.0435 -1.0179,1.2994 -0.97285,1.5232 0.0138,0.0683 -0.0565,0.49295 -0.15615,0.94353 -0.0997,0.4506 -0.12105,0.91411 -0.0475,1.03 0.23276,0.36699 0.58208,0.14058 0.73603,-0.47705 z m -1.291,1.9688 c -0.76647,-0.62095 -0.73225,-2.4973 0.085,-4.6608 0.24429,-0.64675 0.57807,-1.3682 0.74171,-1.6033 0.16366,-0.23505 0.56552,-0.93301 0.89303,-1.551 0.32753,-0.61801 0.80699,-1.365 1.0655,-1.66 0.95512,-1.0898 0.42531,-1.6812 -0.74999,-0.83716 -1.0633,0.76359 -2.8552,1.0474 -3.8013,0.60214 -0.73668,-0.34673 -1.0756,-1.0243 -1.2677,-2.5348 -0.12664,-0.99587 -0.3118,-1.0622 -0.9866,-0.35353 -0.48119,0.50537 -1.784,1.455 -1.9979,1.4563 -0.0628,0 -0.46091,0.17655 -0.8846,0.39152 -0.42367,0.21498 -1.1951,0.43876 -1.7143,0.49733 -1.0842,0.12232 -3.1962,-0.13618 -3.2848,-0.40204 -0.0329,-0.0986 -0.20139,-0.31122 -0.37447,-0.47248 -0.39629,-0.36921 -0.57837,-1.7501 -0.32614,-2.4737 0.2431,-0.69735 0.0411,-0.9262 -0.93104,-1.0545 -0.41918,-0.0553 -1.1209,-0.24258 -1.5594,-0.41616 -1.1961,-0.47347 -1.3282,-0.43156 -1.8031,0.57226 -0.23101,0.48831 -0.42002,0.96338 -0.42002,1.0557 0,0.15106 -0.61824,0.90198 -1.5723,1.9097 -0.8029,0.84808 -2.8529,1.0311 -4.1691,0.37213 -1.0071,-0.50423 -1.7139,-1.823 -1.5408,-2.8748 0.0557,-0.33874 0.16973,-1.3506 0.25329,-2.2486 0.15211,-1.6345 0.4192,-3.2502 0.5804,-3.5111 0.14141,-0.2288 0.56462,-3.4473 0.56884,-4.3257 0.002,-0.44898 0.0804,-1.0918 0.17392,-1.4286 0.14712,-0.52973 0.23458,-0.61225 0.64905,-0.61225 0.38173,0 0.50101,0.0877 0.58734,0.43168 0.13217,0.52661 -0.0356,3.6958 -0.24684,4.6628 -0.0843,0.38578 -0.24053,1.1055 -0.34725,1.5994 -0.10671,0.49388 -0.26078,1.6326 -0.3424,2.5306 -0.0816,0.89796 -0.19147,1.9775 -0.24414,2.3989 -0.19714,1.5776 0.50127,2.4174 2.0104,2.4174 0.69056,0 0.86863,-0.0725 1.3024,-0.53061 0.74991,-0.79185 1.2775,-1.723 1.5949,-2.815 0.6023,-2.0718 0.87833,-2.2269 2.5031,-1.4068 0.96091,0.48507 3.1736,0.82921 3.5659,0.55462 0.10123,-0.0709 0.45248,-0.69594 0.78056,-1.3891 0.54547,-1.1524 0.65207,-1.2769 1.245,-1.4546 0.51654,-0.15476 0.78366,-0.14968 1.3128,0.025 1.7826,0.58829 1.4402,2.3393 -0.7047,3.6037 -1.5768,0.9295 -2.342,2.5285 -1.6306,3.4071 0.29107,0.35944 0.43986,0.39448 1.6885,0.39747 1.2379,0.003 1.4711,-0.0493 2.4305,-0.54521 0.63442,-0.3279 1.5865,-1.054 2.3674,-1.8054 1.5702,-1.5111 3.7633,-3.1906 4.3265,-3.3133 0.22449,-0.0489 0.73677,-0.21044 1.1384,-0.35894 1.3955,-0.51599 2.1427,-0.57971 2.8616,-0.24405 1.3741,0.64163 1.5848,1.0452 1.6822,3.222 0.0513,1.1468 0.13626,1.6735 0.26991,1.6735 0.18495,0 0.90501,-0.66523 0.90501,-0.83608 0,-0.0642 0.81014,-0.99664 1.5888,-1.8287 0.069,-0.0738 0.6376,-0.45949 1.2635,-0.85714 0.95148,-0.60454 1.2858,-0.72875 2.0408,-0.75816 2.2452,-0.0874 2.4352,-0.0152 2.9364,1.118 0.36706,0.8298 0.72144,0.9122 1.4233,0.33094 1.1068,-0.91655 2.9824,-1.7343 3.9874,-1.7385 0.77739,-0.003 1.4684,0.47992 1.8186,1.2715 0.28054,0.63421 0.31722,0.99014 0.25442,2.4686 -0.0889,2.0934 -0.36573,2.7888 -1.1102,2.7888 -0.60755,0 -0.78874,-0.55827 -0.51424,-1.5845 0.10382,-0.38822 0.18878,-1.1795 0.18878,-1.7584 0,-0.87251 -0.0611,-1.1094 -0.35732,-1.3854 -0.19652,-0.18311 -0.50877,-0.33179 -0.69388,-0.33042 -1.1868,0.009 -2.9237,1.1083 -3.9977,2.5308 -0.37177,0.49241 -0.73812,0.89528 -0.81412,0.89528 -0.076,0 -0.23098,0.23877 -0.34443,0.53061 -0.33296,0.85661 -0.99848,1.7551 -1.3,1.7551 -0.15365,0 -0.35219,-0.16321 -0.44121,-0.36269 -0.16251,-0.36418 -0.1239,-0.60436 0.37111,-2.3091 0.26901,-0.92647 0.29635,-1.8688 0.0714,-2.4604 -0.13896,-0.36544 -0.25453,-0.4188 -0.9073,-0.4188 -1.4834,0 -2.0967,0.27341 -3.0419,1.356 -0.47912,0.54876 -1.137,1.2642 -1.462,1.5899 -0.325,0.32573 -0.72408,0.79551 -0.88689,1.044 -0.16279,0.24846 -0.57066,0.62515 -0.90637,0.83707 -0.3357,0.21191 -0.66305,0.55338 -0.72743,0.75879 -0.0644,0.2054 -0.25386,0.54868 -0.42111,0.76284 -0.16723,0.21414 -0.30406,0.52836 -0.30406,0.69824 0,0.16987 -0.17729,0.87629 -0.39398,1.5698 -0.47461,1.519 -0.74645,2.5477 -0.86212,3.2625 -0.0473,0.29267 -0.15146,0.57251 -0.23133,0.62188 -0.0799,0.0494 -0.14611,0.25073 -0.14719,0.44746 -0.002,0.19675 -0.18476,0.67745 -0.40816,1.0683 -0.22341,0.39079 -0.4062,0.8107 -0.4062,0.9331 0,0.3446 -0.97832,1.3768 -1.305,1.3768 -0.16034,0 -0.45024,-0.12857 -0.64421,-0.28571 z m 7.1937,-20.388 c -0.30464,-0.21339 -0.35971,-0.36269 -0.28026,-0.75995 0.13988,-0.69943 0.38631,-0.93368 0.98223,-0.93368 0.66368,0 0.91063,0.25463 0.91063,0.93894 0,0.46997 -0.0798,0.58045 -0.56619,0.78367 -0.68854,0.28769 -0.5904,0.29042 -1.0464,-0.029 z m -6.1425,9.0475 c 0.80191,-0.40281 2.5226,-2.0681 2.5272,-2.4459 0.002,-0.15183 0.0768,-0.32148 0.16665,-0.37698 0.22787,-0.14083 0.20432,-1.6088 -0.0342,-2.1323 -0.18173,-0.39888 -0.25424,-0.42557 -0.9114,-0.3355 -0.39267,0.0538 -0.90147,0.24537 -1.1307,0.42567 -0.22922,0.18031 -0.55586,0.32782 -0.72587,0.32782 -0.40967,0 -1.9354,1.6539 -2.2298,2.417 -0.12802,0.33188 -0.26702,0.90517 -0.30888,1.274 -0.0662,0.58299 -0.0176,0.71657 0.37202,1.023 0.5222,0.41076 1.2118,0.35716 2.2749,-0.17685 z m -10.042,-5.9956 c 0.24534,-0.4584 -0.0423,-0.81845 -0.3201,-0.81845 -0.28292,0 -0.85842,0.71269 -0.85842,1.1876 0,0.4263 0.7044,0.51844 0.92856,0.0995 z"
         id="begin" />
    </g>
  </g>
</svg>
