<svg xmlns="http://www.w3.org/2000/svg" height="27.676" width="71.14"><path d="M22.876 25.178c.145-.305.264-.636.264-.735 0-.098.063-.18.14-.18.113 0 .84-1.637.84-1.891 0-.037-.097-.067-.215-.067-.22 0-1.255 1.072-1.255 1.3 0 .07-.153.473-.34.895-.186.422-.299.872-.25 1 .156.406.543.253.816-.322zm8.851-18.574c-.36-.515-.327-.833.14-1.337.495-.534.588-.536 1.077-.014l.393.417-.323.603c-.391.73-.914.864-1.287.331zM21.396 27.498c-1.08-.522-.802-2.967.566-4.98.378-.557.688-1.056.688-1.11 0-.053.153-.26.34-.457.187-.199.45-.57.583-.825.269-.512.854-1.23 1.617-1.982.498-.49 1.378-2.252 1.378-2.758 0-.353-.355-.336-.835.039-.795.62-1.764 1.002-2.546 1-1.267-.001-2.535-.968-2.763-2.108-.11-.553-.529-.676-.876-.258-.273.329-2.066 1.597-2.766 1.957-.942.483-1.376.542-2.47.335-1.536-.291-1.713-.371-2.178-.981-.501-.657-.556-1.542-.158-2.538.246-.614.245-.684-.008-.964-.175-.193-.607-.338-1.204-.403-.512-.057-1.266-.145-1.676-.197-.705-.089-.769-.063-1.18.476-.239.313-.528.779-.642 1.034-.186.417-1.805 2.18-2.001 2.18-.044 0-.43.214-.858.476-1.427.874-2.335.824-3.303-.18-.748-.776-1.192-1.863-1.09-2.664.19-1.482.561-3.148.764-3.429.11-.152.45-1.81 1.052-5.12.137-.75.249-1.7.249-2.11 0-.982.303-1.787.714-1.894.613-.16.789.189.684 1.359-.052.59-.124 1.515-.16 2.057-.035.542-.212 1.718-.393 2.612L2.513 8.1c-.046.224-.307 1.143-.582 2.04-.676 2.21-.664 2.778.079 3.645.36.421.723.682.946.682.441 0 2.214-1.26 2.598-1.847a5.45 5.45 0 01.57-.717c.161-.16.469-.697.683-1.19.703-1.617.921-1.684 3.027-.92 2.1.763 2.769.562 3.479-1.046.477-1.08.542-1.15 1.447-1.55 1.375-.609 2.13-.323 2.29.869.077.579.018.796-.374 1.36-.256.37-.651.753-.878.852-.825.357-1.645.979-1.957 1.483-.179.29-.366.983-.428 1.587-.102 1.002-.084 1.09.273 1.34.262.184.726.27 1.467.27.996 0 1.146-.05 1.882-.606.439-.332.823-.663.853-.734.03-.072.112-.13.183-.13.22 0 1.477-1.22 1.477-1.432 0-.11.102-.201.226-.201.124 0 .358-.2.518-.446.16-.245.475-.594.699-.775.223-.182.633-.556.91-.832 1.372-1.368 2.905-2.029 4.71-2.029 1.26 0 1.743.197 2.549 1.036.589.612.591.64.189 2.223-.102.4-.255.812-.34.915-.203.244-.405 2.194-.228 2.194.225 0 1.396-.85 2.189-1.59.407-.38.795-.692.862-.693.066-.002.519-.352 1.005-.778 1.871-1.642 3.03-2.327 3.935-2.327.8 0 1.328.551 1.477 1.544.137.91.422 1.078 1.122.663.277-.164.797-.462 1.157-.662 1.93-1.076 2.294-1.293 2.38-1.42.053-.076.712-.117 1.464-.091l1.367.048.108.49c.06.269.227.71.373.98.145.269.265.678.266.908.002.57.472 2.116.719 2.363.309.31 1.399.816 2.302 1.07 1.025.288 6.537.319 7.124.04.212-.102 1.084-.344 1.937-.539 1.595-.364 4.074-1.064 4.653-1.314.749-.323 2.833-1.361 3.592-1.79.972-.548 2.211-1.218 3.077-1.663.595-.306.644-.308.939-.042.17.155.31.376.31.491 0 .202-2.638 2.026-2.93 2.026-.079 0-.61.257-1.178.571-.569.315-1.291.691-1.605.837-.315.145-.685.32-.822.387-.138.068-.497.177-.8.243-.301.067-.997.333-1.545.592-.548.26-1.144.473-1.323.474-.328.003-1.328.318-1.633.514-.09.058-.935.278-1.877.489-3.396.759-8.989.398-10.732-.692-.878-.549-1.539-1.773-1.824-3.378-.116-.653-.319-1.296-.451-1.429-.52-.519-1.706-.178-3.418.984-.33.225-.705.408-.833.408-.267 0-2.17 1.915-2.174 2.187-.002.1-.222.43-.49.733-.268.304-.487.642-.487.75 0 .433-.573.871-1.026.785-.588-.112-.589-.67-.004-1.945.403-.878.513-1.29.804-3.011.204-1.212-1.134-1.51-2.025-.452-.23.272-.543.542-.698.601-.258.098-2.1 1.684-3.36 2.894-.287.276-.804.713-1.147.97-.344.259-.676.548-.737.642-.061.095-.435.512-.83.927-.535.563-.79 1.013-1.002 1.765-.155.556-.498 1.49-.762 2.077-.263.587-.48 1.188-.48 1.337-.003.149-.285.788-.63 1.42-.345.633-.721 1.441-.837 1.797-.397 1.222-1.422 2.354-2.123 2.344a2.16 2.16 0 01-.764-.178zm-5.58-18.683c.3-.3.077-.73-.287-.73-.18 0-.732.255-.732.338 0 .082-.389.438-.35.83-.118.308.548.43.838.14zm8.627 5.817c.35-.179.907-.601 1.237-.939 1.248-1.276 2.409-3.48 2.098-3.984-.17-.273-2.606-.09-2.963.222a2.201 2.201 0 01-.696.374c-.6.178-.8.376-1.579 1.579-.829 1.278-.892 1.849-.284 2.571.512.608 1.228.666 2.187.177z" stroke-width=".163"/></svg>