<svg xmlns="http://www.w3.org/2000/svg" height="26.449" width="46.648"><path d="M25.915 24.195c.082-.328.133-.676.114-.773-.02-.096.026-.188.102-.203.11-.023.5-1.771.449-2.02-.007-.037-.108-.047-.224-.024-.216.043-1.018 1.3-.973 1.523.014.068-.056.493-.156.944-.1.45-.121.914-.048 1.03.233.367.583.14.736-.477zm-1.29 1.968c-.767-.62-.733-2.497.084-4.66.245-.647.579-1.369.742-1.604.164-.235.566-.933.893-1.55.328-.619.807-1.366 1.066-1.66.955-1.09.425-1.682-.75-.838-1.064.764-2.856 1.048-3.802.602-.736-.346-1.075-1.024-1.267-2.534-.127-.996-.312-1.063-.987-.354-.481.505-1.784 1.455-1.998 1.456-.063 0-.46.177-.884.392-.424.215-1.196.439-1.715.497-1.084.122-3.196-.136-3.285-.402-.032-.098-.2-.311-.374-.472-.396-.37-.578-1.75-.326-2.474.243-.697.041-.926-.931-1.055a7.96 7.96 0 01-1.56-.416c-1.196-.473-1.328-.431-1.803.573-.23.488-.42.963-.42 1.055 0 .151-.618.902-1.572 1.91-.803.848-2.853 1.031-4.17.372-1.006-.504-1.713-1.823-1.54-2.875.056-.338.17-1.35.253-2.248.153-1.635.42-3.25.58-3.511.142-.23.565-3.448.57-4.326.002-.45.08-1.092.174-1.429C1.75.082 1.837 0 2.252 0c.381 0 .5.088.587.432.132.526-.036 3.695-.247 4.662l-.347 1.6c-.107.494-.26 1.632-.343 2.53a97.357 97.357 0 01-.244 2.4c-.197 1.577.502 2.417 2.01 2.417.691 0 .87-.073 1.303-.53a6.753 6.753 0 001.595-2.816c.602-2.072.878-2.227 2.503-1.407.961.485 3.174.83 3.566.555.101-.07.453-.696.78-1.39.546-1.152.653-1.276 1.246-1.454.516-.154.783-.15 1.312.025 1.783.589 1.44 2.34-.704 3.604-1.577.93-2.342 2.528-1.63 3.407.29.36.439.395 1.688.398 1.237.003 1.47-.05 2.43-.546.635-.328 1.587-1.054 2.367-1.805 1.57-1.511 3.764-3.19 4.327-3.313.224-.05.737-.21 1.138-.36 1.396-.515 2.143-.579 2.862-.243 1.374.641 1.585 1.045 1.682 3.222.051 1.146.136 1.673.27 1.673.185 0 .905-.665.905-.836 0-.064.81-.997 1.589-1.829.069-.073.638-.46 1.263-.857.952-.604 1.286-.729 2.041-.758 2.245-.087 2.435-.015 2.937 1.118.367.83.721.912 1.423.331 1.107-.917 2.982-1.734 3.987-1.738.778-.003 1.469.48 1.819 1.271.28.634.317.99.254 2.469-.089 2.093-.365 2.788-1.11 2.788-.607 0-.789-.558-.514-1.584.104-.388.189-1.18.189-1.758 0-.873-.061-1.11-.358-1.386-.196-.183-.508-.332-.694-.33-1.186.009-2.923 1.108-3.997 2.53-.372.493-.738.896-.814.896-.076 0-.231.239-.345.53-.333.857-.998 1.755-1.3 1.755-.153 0-.352-.163-.441-.362-.163-.364-.124-.605.371-2.31.27-.926.296-1.868.072-2.46-.14-.365-.255-.418-.908-.418-1.483 0-2.096.273-3.042 1.356a41.074 41.074 0 01-1.462 1.59c-.325.325-.724.795-.887 1.043-.162.249-.57.626-.906.837-.336.212-.663.554-.727.76a2.958 2.958 0 01-.421.762c-.168.214-.305.528-.305.698 0 .17-.177.877-.394 1.57-.474 1.52-.746 2.548-.862 3.263-.047.292-.151.572-.231.622-.08.049-.146.25-.147.447-.002.197-.185.677-.408 1.068-.224.391-.407.811-.407.933 0 .345-.978 1.377-1.305 1.377-.16 0-.45-.128-.644-.286zm7.193-20.388c-.305-.213-.36-.362-.28-.76.14-.699.386-.933.982-.933.664 0 .91.254.91.939 0 .47-.08.58-.565.783-.689.288-.59.29-1.047-.029zm-6.142 9.048c.802-.403 2.522-2.068 2.527-2.446.002-.152.077-.321.166-.377.228-.14.205-1.609-.034-2.132-.181-.4-.254-.426-.911-.336-.393.054-.902.246-1.13.426-.23.18-.557.328-.727.328-.41 0-1.935 1.654-2.23 2.417a6.214 6.214 0 00-.308 1.274c-.067.583-.018.716.372 1.023.522.41 1.211.357 2.275-.177zM15.634 8.827c.245-.458-.043-.818-.32-.818-.283 0-.859.713-.859 1.187 0 .427.705.519.929.1z"/></svg>