<?xml version="1.0" encoding="UTF-8" standalone="no"?>
<svg
   xmlns:dc="http://purl.org/dc/elements/1.1/"
   xmlns:cc="http://creativecommons.org/ns#"
   xmlns:rdf="http://www.w3.org/1999/02/22-rdf-syntax-ns#"
   xmlns:svg="http://www.w3.org/2000/svg"
   xmlns="http://www.w3.org/2000/svg"
   id="svg2094"
   viewBox="0 0 46.908774 29.222031"
   version="1.1"
   height="29.222031"
   width="46.908775">
  <defs
     id="defs2098" />
  <metadata
     id="metadata2">
    <rdf:RDF>
      <cc:Work
         rdf:about="">
        <dc:format>image/svg+xml</dc:format>
        <dc:type
           rdf:resource="http://purl.org/dc/dcmitype/StillImage" />
        <dc:title />
      </cc:Work>
    </rdf:RDF>
  </metadata>
  <g
     transform="translate(-612.44224,-439.99811)"
     id="g2092">
    <path
       style="stroke-width:0.13095"
       d="m 637.79,467.1 c 0.0956,-0.25184 0.0354,-0.0842 0.10665,-0.35752 0.0789,-0.13269 0.0854,-0.13856 0.20255,-0.31596 0.10662,-0.14862 1.1097,-2.8482 1.0919,-3.0494 0.34778,-1.2584 -0.40265,-0.95713 -0.71677,-0.48769 -0.21678,0.23445 -1.1258,2.8656 -1.1098,3.0462 0.005,0.0551 -0.0903,0.38417 -0.21151,0.73117 -0.12121,0.34703 -0.18056,0.71099 -0.13189,0.80881 0.15408,0.30968 0.36703,0.15026 0.69077,-0.18028 z m -1.4396,1.9114 c -0.15693,-0.11474 -0.35613,-0.5238 -0.44269,-0.90903 -0.17548,-0.78101 -0.0322,-1.5032 0.56867,-2.866 0.20191,-0.45798 0.50287,-1.347 0.66878,-1.9755 0.16591,-0.6285 0.39901,-1.2878 0.51796,-1.4649 0.11896,-0.17712 0.21834,-0.43427 0.22083,-0.57143 0.002,-0.13716 0.22291,-0.53799 0.4898,-0.89071 0.26689,-0.35273 0.48526,-0.76527 0.48526,-0.91676 0,-0.15148 0.13348,-0.45065 0.29663,-0.66479 0.38925,-0.51092 0.99749,-1.8396 1.118,-2.4422 0.0819,-0.40949 0.0455,-0.47778 -0.25487,-0.47778 -0.19275,0 -0.653,0.20021 -1.0228,0.44493 -0.52091,0.34472 -0.91621,0.45871 -1.7552,0.50612 -2.1271,0.12018 -2.8468,-0.34287 -3.3037,-2.1257 -0.2489,-0.97115 -0.55202,-1.0139 -1.4043,-0.19817 -1.0113,0.96797 -1.8662,1.6182 -2.8678,2.1812 -0.86872,0.4883 -1.0447,0.52804 -2.08,0.46954 -1.0838,-0.0612 -1.1617,-0.094 -1.8673,-0.78653 -0.6951,-0.68221 -0.73629,-0.77261 -0.73629,-1.6158 0,-0.49125 0.0865,-1.1324 0.19218,-1.4247 0.23867,-0.66003 0.0282,-0.97392 -0.72851,-1.0863 -0.2887,-0.0429 -1.1339,-0.21373 -1.8782,-0.37968 -1.6158,-0.36023 -1.803,-0.28658 -2.154,0.84741 -0.34563,1.1167 -1.1875,2.6667 -1.7664,3.2525 -0.77189,0.78096 -1.8093,1.2213 -2.8773,1.2213 -1.0929,0 -1.3219,-0.10415 -2.2833,-1.0385 -1.2139,-1.1798 -1.2941,-2.084 -0.62455,-7.0431 0.19397,-1.4367 0.42837,-3.4571 0.52086,-4.4898 0.20663,-2.3067 0.45938,-4.2149 0.58534,-4.4186 0.0519,-0.084 0.2554,-0.15166 0.45213,-0.15029 0.74212,0.005 0.7785,0.13249 0.60865,2.1301 -0.20129,2.3673 -0.63938,6.7214 -0.83675,8.3164 -0.31983,2.5847 -0.35402,3.2887 -0.16872,3.474 0.10071,0.10071 0.18311,0.30774 0.18311,0.46007 0,0.15233 0.26904,0.51319 0.59787,0.80191 0.54469,0.47824 0.67155,0.51786 1.4261,0.44535 0.74339,-0.0714 0.89907,-0.16006 1.5194,-0.86504 0.77628,-0.88217 1.4409,-2.3855 1.6532,-3.7392 0.13221,-0.84317 0.53541,-1.5567 0.8796,-1.5567 0.0814,0 0.55298,0.19154 1.0479,0.42567 1.1049,0.52271 2.4966,0.86692 3.5364,0.87464 0.6183,0.005 0.86718,-0.0784 1.1837,-0.39492 0.22041,-0.22041 0.40073,-0.52413 0.40073,-0.67494 0,-0.81876 0.40698,-1.5677 1.1095,-2.0419 1.01,-0.68165 1.4662,-0.74176 2.1405,-0.28204 0.30586,0.20854 0.62891,0.49637 0.71791,0.63961 0.19327,0.31107 0.0433,1.0112 -0.28743,1.3419 -0.13058,0.13056 -0.37439,0.48469 -0.54178,0.78692 -0.16741,0.30224 -0.77396,0.86528 -1.3479,1.2512 -0.57393,0.38592 -1.1668,0.88958 -1.3174,1.1192 -0.41488,0.63244 -0.50963,1.5627 -0.22787,2.2371 0.30658,0.73375 0.74743,0.97563 1.5355,0.84248 0.55706,-0.0941 0.85242,-0.24718 2.0917,-1.084 0.21598,-0.14584 1.5108,-1.3697 2.8775,-2.7197 2.2036,-2.1768 2.632,-2.5239 3.7857,-3.0672 1.0426,-0.49107 1.546,-0.62755 2.5351,-0.68724 1.5717,-0.0949 2.3604,0.25667 2.9913,1.3333 0.50931,0.86904 0.53179,1.4075 0.11524,2.7597 -0.17176,0.55755 -0.35517,1.2604 -0.4076,1.5619 -0.092,0.52946 -0.08,0.54458 0.35311,0.44299 0.24663,-0.0579 0.55862,-0.25886 0.69331,-0.44668 0.26449,-0.36878 0.8889,-1.0289 1.3972,-1.4771 0.17438,-0.15377 0.53746,-0.50265 0.80685,-0.77533 0.26939,-0.27269 0.57906,-0.49587 0.68813,-0.49597 0.1091,-1e-4 0.27664,-0.1465 0.37235,-0.32531 0.4837,-0.90382 4.0504,-1.8541 4.7544,-1.2667 0.18838,0.15718 0.7826,0.92066 1.2098,1.5545 0.0164,0.0243 0.4851,-0.25976 1.0415,-0.63132 1.652,-1.1032 3.1912,-1.3779 4.4405,-0.79278 0.72534,0.33974 0.81522,0.44682 1.077,1.2834 0.46455,1.4843 0.37621,3.9184 -0.22126,6.0964 -0.0583,0.21242 -0.2487,0.28571 -0.74238,0.28571 h -0.66399 l 0.10986,-1.1837 c 0.29021,-3.1266 0.29805,-3.8029 0.0525,-4.5347 -0.22981,-0.68492 -0.29275,-0.74007 -1.0068,-0.88203 -0.69507,-0.13819 -0.85324,-0.10447 -1.8088,0.38564 -1.418,0.72729 -1.7739,1.2417 -3.3959,4.9086 -0.36044,0.81484 -0.89386,1.334 -1.3098,1.2747 -0.52518,-0.0748 -0.53689,-0.81132 -0.0299,-1.8821 0.23565,-0.49771 0.53895,-1.4392 0.67399,-2.0922 0.22854,-1.105 0.22512,-1.2308 -0.0491,-1.8153 -0.24798,-0.52852 -0.38509,-0.63657 -0.86583,-0.68229 -0.62728,-0.0596 -1.7324,0.21948 -2.0495,0.51765 -0.11097,0.10434 -0.6226,0.55708 -1.1369,1.0061 -1.5308,1.3362 -3.5638,3.4252 -4.449,4.5714 -0.77743,1.0066 -1.666,3.6306 -1.6687,4.9279 -0.002,0.85484 -0.71781,3.4397 -1.3158,4.75 -0.17527,0.38404 -0.31866,0.83104 -0.31866,0.99336 0,0.38106 -1.5147,1.8186 -1.9162,1.8186 -0.16891,0 -0.43549,-0.0939 -0.59241,-0.20862 z m 11.959,-6.7108 c -0.21429,-0.21382 -0.5139,-0.41587 -0.6658,-0.44898 -0.26702,-0.0582 -1.1642,-0.78702 -2.7279,-2.2159 -0.63344,-0.57884 -0.72273,-0.73223 -0.57027,-0.97959 0.0994,-0.16131 0.31249,-0.31917 0.4735,-0.35079 0.3632,-0.0714 1.7237,0.58795 1.9961,0.9673 0.11075,0.15425 0.82611,0.70485 1.5897,1.2235 1.4065,0.95541 1.6611,1.2778 1.4742,1.8667 -0.15148,0.47729 -1.0652,0.44106 -1.5696,-0.0622 z m -19.769,-12.868 c 0.30044,-0.30044 0.23308,-0.62041 -0.13061,-0.62041 -0.17959,0 -0.32653,0.0675 -0.32653,0.14991 0,0.0824 -0.0446,0.26612 -0.0991,0.40816 -0.11849,0.30875 0.26667,0.35191 0.55624,0.0623 z m 10.215,5.2179 c 0.7839,-0.86381 0.93593,-1.0967 1.7699,-2.7116 0.71628,-1.3871 0.75615,-1.7064 0.25673,-2.0562 -0.43129,-0.30209 -1.9124,-0.32192 -2.7004,-0.0362 -0.91834,0.33303 -2.0848,1.4716 -2.4002,2.3428 -0.44643,1.233 -0.49567,1.9971 -0.1679,2.6057 0.33944,0.63031 0.5343,0.70461 1.6908,0.64474 0.80854,-0.0419 0.92774,-0.10252 1.551,-0.78932 z"
       id="begun" />
  </g>
</svg>
