<svg xmlns="http://www.w3.org/2000/svg" height="29.222" width="46.909"><path d="M25.348 27.102c.095-.252.035-.084.106-.358.08-.132.086-.138.203-.316.107-.148 1.11-2.848 1.092-3.049.348-1.258-.403-.957-.717-.488-.217.235-1.126 2.866-1.11 3.047.005.055-.09.384-.211.73-.121.348-.18.712-.132.81.154.31.367.15.69-.18zm-1.44 1.911c-.157-.114-.356-.524-.443-.909-.175-.78-.032-1.503.57-2.866.201-.458.502-1.347.668-1.975.166-.629.399-1.288.518-1.465.119-.177.218-.434.22-.572.003-.137.224-.538.49-.89.267-.353.486-.766.486-.917 0-.152.133-.45.296-.665.39-.51.998-1.84 1.118-2.442.082-.41.046-.478-.254-.478-.193 0-.653.2-1.023.445-.521.345-.916.459-1.755.506-2.128.12-2.847-.343-3.304-2.125-.25-.972-.552-1.014-1.404-.199-1.012.968-1.867 1.619-2.868 2.182-.869.488-1.045.528-2.08.47-1.084-.062-1.162-.095-1.868-.787-.695-.683-.736-.773-.736-1.616 0-.491.087-1.133.192-1.425.239-.66.029-.974-.728-1.086a38.98 38.98 0 01-1.878-.38c-1.616-.36-1.803-.286-2.154.848-.346 1.116-1.188 2.666-1.767 3.252a4.059 4.059 0 01-2.877 1.221c-1.093 0-1.322-.104-2.283-1.038C-.17 14.922-.25 14.018.419 9.059c.194-1.437.428-3.457.52-4.49.208-2.307.46-4.215.586-4.419.052-.084.256-.151.452-.15.743.005.779.133.609 2.13-.201 2.367-.64 6.722-.837 8.317-.32 2.584-.354 3.288-.168 3.474.1.1.183.307.183.46 0 .152.269.513.598.802.544.478.671.517 1.426.445.743-.072.899-.16 1.519-.865.776-.882 1.44-2.386 1.653-3.74.132-.843.536-1.556.88-1.556.081 0 .553.191 1.048.426 1.105.522 2.496.867 3.536.874.618.005.867-.078 1.184-.395.22-.22.4-.524.4-.675 0-.818.408-1.567 1.11-2.042 1.01-.681 1.466-.741 2.14-.282.306.209.63.497.718.64.194.311.044 1.011-.287 1.342-.13.13-.374.485-.542.787-.167.302-.774.865-1.348 1.251-.574.386-1.166.89-1.317 1.12-.415.632-.51 1.562-.228 2.236.307.734.748.976 1.536.843.557-.094.852-.247 2.091-1.084.216-.146 1.511-1.37 2.878-2.72 2.203-2.177 2.632-2.524 3.786-3.067 1.042-.491 1.546-.628 2.535-.687 1.571-.095 2.36.256 2.99 1.333.51.869.533 1.407.116 2.76-.172.557-.355 1.26-.407 1.562-.092.53-.08.544.353.443.246-.058.558-.26.693-.447.264-.369.889-1.029 1.397-1.477.175-.154.538-.503.807-.776.27-.272.58-.495.688-.495.11 0 .277-.147.373-.326.483-.904 4.05-1.854 4.754-1.267.188.158.783.921 1.21 1.555.016.024.485-.26 1.041-.631 1.652-1.104 3.191-1.378 4.44-.793.726.34.816.447 1.078 1.283.464 1.485.376 3.919-.222 6.097-.058.212-.248.285-.742.285h-.664l.11-1.183c.29-3.127.298-3.803.052-4.535-.23-.685-.292-.74-1.006-.882-.695-.138-.854-.104-1.81.386-1.417.727-1.773 1.241-3.395 4.908-.36.815-.894 1.334-1.31 1.275-.525-.075-.537-.811-.03-1.882.236-.498.54-1.44.674-2.092.229-1.105.225-1.231-.049-1.816-.248-.528-.385-.636-.866-.682-.627-.06-1.732.22-2.05.518-.11.104-.622.557-1.136 1.006-1.53 1.336-3.564 3.425-4.45 4.571-.777 1.007-1.665 3.63-1.668 4.928-.002.855-.718 3.44-1.316 4.75-.175.384-.318.831-.318.993 0 .381-1.515 1.819-1.916 1.819-.17 0-.436-.094-.593-.209zm11.96-6.71c-.215-.214-.515-.416-.667-.45-.267-.058-1.164-.787-2.728-2.215-.633-.58-.722-.733-.57-.98.1-.161.313-.32.474-.35.363-.072 1.723.587 1.996.967.11.154.826.704 1.59 1.223 1.406.955 1.66 1.278 1.474 1.867-.152.477-1.066.44-1.57-.062zM16.097 9.433c.3-.3.233-.62-.13-.62-.18 0-.327.068-.327.15 0 .082-.045.266-.1.408-.118.309.268.352.557.062zm10.215 5.218c.784-.863.936-1.096 1.77-2.711.716-1.387.756-1.707.257-2.056-.431-.302-1.913-.322-2.7-.037-.919.333-2.085 1.472-2.4 2.343-.447 1.233-.496 1.997-.169 2.606.34.63.535.705 1.691.645.809-.042.928-.103 1.551-.79z"/></svg>