<svg xmlns="http://www.w3.org/2000/svg" height="34.242" width="36.43"><path d="M26.845 8.859c-.223-.223-.093-.543.465-1.148 1.224-1.325 1.467-1.815 1.467-2.958 0-.825.062-1.093.286-1.235.444-.282.814.06 1.05.973.4 1.542.394 1.56-1.257 3.415-.677.762-1.712 1.252-2.01.953zm-9.713 1.308c.164-.149.298-.485.298-.746 0-.396-.06-.467-.354-.424-.381.056-.724.785-.564 1.2.118.309.252.302.62-.03zm15.37-1.02c.6-1.068 1.091-2.019 1.091-2.112 0-.094.15-.426.335-.738.493-.837 1.135-2.985 1.135-3.801 0-.595-.052-.712-.315-.712-.656 0-.855.38-1.229 2.347-.141.745-.45 1.65-.733 2.151-.268.476-.573 1.22-.677 1.653-.103.433-.326 1.03-.494 1.327-.353.62-.589 1.828-.358 1.828.085 0 .646-.874 1.246-1.942zm-7.829 22.517c.43-.455.837-1.206 1.348-2.49.402-1.012.841-2.053.976-2.314.134-.262.31-1 .392-1.642.081-.642.225-1.37.319-1.617.21-.555.228-3.042.02-3.042-.082 0-.2.228-.26.506-.11.497-.706 1.952-1.132 2.76-.118.224-.27.664-.337.977-.067.314-.378 1.122-.69 1.796l-.877 1.89c-.17.365-.308.764-.308.886s-.187.762-.415 1.423c-.228.66-.37 1.272-.316 1.359.2.324.682.139 1.28-.492zm-2.31 2.151c-.617-.575-.62-.6-.205-2.169.678-2.562.94-3.324 1.83-5.302.165-.365.3-.747.3-.85 0-.199.993-2.596 1.39-3.356.133-.255.242-.57.242-.702s.125-.475.279-.763c.47-.883 1.02-2.289 1.13-2.89.057-.314.204-.77.327-1.012.32-.632.293-1.01-.063-.864-1.07.44-4.91.853-9.388 1.01-2.441.085-2.93-.035-4.122-1.012-.443-.364-.497-.515-.571-1.588l-.082-1.186-.98-.125c-.538-.069-1.709-.106-2.601-.082l-1.623.043-.446.735c-.246.404-.452.906-.46 1.116-.016.51-1.69 2.22-2.582 2.64-1.142.538-2.457.336-3.564-.548-1.325-1.056-1.548-3.238-.57-5.575.142-.34.414-1.862.583-3.266.054-.449.2-1.33.323-1.959a27.85 27.85 0 00.339-2.495c.16-1.893.745-2.62 1.447-1.8.294.342.296.415.043 1.755A56.2 56.2 0 002.9 6.355a53.368 53.368 0 01-1.094 5.911c-.383 1.585-.402 1.82-.21 2.508.154.55.354.846.718 1.068 1.03.628 2.693.217 3.209-.793.126-.247.494-.89.818-1.43.324-.54.678-1.25.786-1.578.108-.328.29-.632.404-.676.115-.043 1.562-.024 3.217.044 3.181.13 3.663.062 3.832-.548.053-.189.156-.49.23-.67.075-.179.218-.633.32-1.008.135-.5.365-.815.866-1.183.884-.65 1.496-.65 2.382.002.827.608.884 1.074.275 2.274-.4.789-.756 1.08-3.047 2.495-.528.325-.69.773-.551 1.517.084.445.242.628.79.907.642.328.844.344 3.136.25a105.12 105.12 0 004.906-.343c2.118-.208 2.591-.308 3.429-.727.534-.268 1.109-.589 1.277-.714.329-.246.75-1.288.753-1.868.002-.197.067-.397.145-.446.078-.048.19-.328.248-.621.142-.721.84-2.601 1.41-3.8.256-.539.614-1.53.795-2.204a22.9 22.9 0 011.405-3.78c.443-.91 1.284-1.186 2.19-.717.623.323.916 1.104.89 2.375-.035 1.625-.27 2.282-2.1 5.877-.114.225-.418.85-.675 1.388-.468.98-.82 1.42-2.514 3.157-.496.508-1.117 1.365-1.379 1.904l-.476.98-.027 3.604c-.032 4.222-.21 5.244-1.549 8.902-.69 1.885-1.111 2.772-1.409 2.964-.105.068-.236.33-.291.582-.137.621-1.88 2.145-2.586 2.26-.438.07-.632-.003-1.06-.403z" stroke-width=".163"/></svg>