<?xml version="1.0" encoding="UTF-8" standalone="no"?>
<svg
   xmlns:dc="http://purl.org/dc/elements/1.1/"
   xmlns:cc="http://creativecommons.org/ns#"
   xmlns:rdf="http://www.w3.org/1999/02/22-rdf-syntax-ns#"
   xmlns:svg="http://www.w3.org/2000/svg"
   xmlns="http://www.w3.org/2000/svg"
   id="svg2094"
   viewBox="0 0 36.430251 34.241665"
   version="1.1"
   height="34.241665"
   width="36.430252">
  <defs
     id="defs2098" />
  <metadata
     id="metadata2">
    <rdf:RDF>
      <cc:Work
         rdf:about="">
        <dc:format>image/svg+xml</dc:format>
        <dc:type
           rdf:resource="http://purl.org/dc/dcmitype/StillImage" />
        <dc:title />
      </cc:Work>
    </rdf:RDF>
  </metadata>
  <g
     transform="translate(-611.46495,-463.03133)"
     id="g2092">
    <g
       style="stroke-width:0.16327"
       id="g2081">
      <path
         d="m 638.31,471.89 c -0.22293,-0.2229 -0.0932,-0.54297 0.46496,-1.1474 1.2239,-1.3253 1.467,-1.8154 1.467,-2.9578 0,-0.82573 0.0619,-1.0932 0.28572,-1.2355 0.44408,-0.28217 0.81423,0.0605 1.0508,0.97283 0.39977,1.5419 0.39305,1.5602 -1.2572,3.4154 -0.67743,0.76155 -1.7121,1.2515 -2.0112,0.95237 z m -9.7135,1.308 c 0.16421,-0.14861 0.29856,-0.48433 0.29856,-0.74604 0,-0.39556 -0.0598,-0.46706 -0.35456,-0.42369 -0.38104,0.0561 -0.7234,0.78483 -0.56392,1.2004 0.11843,0.30865 0.25226,0.30203 0.61992,-0.0307 z m 15.371,-1.019 c 0.59997,-1.0683 1.0909,-2.0192 1.0909,-2.1131 0,-0.094 0.1505,-0.42591 0.33443,-0.73767 0.4936,-0.83659 1.135,-2.9846 1.135,-3.8011 0,-0.59435 -0.052,-0.71198 -0.31488,-0.71198 -0.65556,0 -0.85467,0.38038 -1.2287,2.3472 -0.1417,0.74516 -0.44993,1.6499 -0.73288,2.1513 -0.26859,0.4759 -0.57326,1.2197 -0.67706,1.6528 -0.10379,0.43313 -0.32636,1.03 -0.49457,1.3264 -0.35242,0.62103 -0.58852,1.8284 -0.35753,1.8284 0.085,0 0.64538,-0.87402 1.2454,-1.9423 z m -7.8294,22.516 c 0.43045,-0.45427 0.83699,-1.2052 1.3479,-2.4898 0.40235,-1.0116 0.84139,-2.0531 0.97561,-2.3143 0.13422,-0.2612 0.31061,-0.99999 0.39198,-1.6417 0.0814,-0.64173 0.22502,-1.3695 0.31924,-1.6173 0.21095,-0.55486 0.22813,-3.0415 0.021,-3.0415 -0.0827,0 -0.20035,0.22785 -0.26152,0.50634 -0.10901,0.49637 -0.7056,1.9513 -1.1313,2.759 -0.11832,0.22449 -0.27008,0.6646 -0.33721,0.97804 -0.0672,0.31343 -0.37793,1.1216 -0.69063,1.7959 -0.31268,0.67431 -0.70705,1.5248 -0.87636,1.8898 -0.1693,0.3651 -0.30782,0.76365 -0.30782,0.88569 0,0.12204 -0.18656,0.76241 -0.41458,1.423 -0.22801,0.66064 -0.37063,1.2723 -0.3169,1.3592 0.20031,0.32411 0.68255,0.13867 1.2806,-0.49238 z m -2.3108,2.1518 c -0.61623,-0.57565 -0.61864,-0.60136 -0.20403,-2.1691 0.67771,-2.5625 0.94062,-3.3241 1.8304,-5.3022 0.16423,-0.36509 0.2986,-0.74725 0.2986,-0.84924 0,-0.19954 0.99327,-2.5971 1.3909,-3.3573 0.13297,-0.25422 0.24175,-0.57012 0.24175,-0.70199 0,-0.13187 0.1254,-0.47491 0.27868,-0.76228 0.47089,-0.88291 1.0208,-2.2889 1.1303,-2.8898 0.0572,-0.31429 0.20447,-0.76983 0.32715,-1.0123 0.32014,-0.63272 0.29278,-1.0105 -0.0626,-0.8644 -1.0701,0.43981 -4.91,0.85285 -9.3886,1.0099 -2.441,0.0856 -2.9308,-0.0347 -4.1216,-1.0119 -0.44303,-0.36359 -0.49758,-0.51522 -0.57142,-1.5881 l -0.0816,-1.1862 -0.97959,-0.12473 c -0.53877,-0.0686 -1.7096,-0.10534 -2.6019,-0.0816 l -1.6223,0.0431 -0.44648,0.7347 c -0.24559,0.40408 -0.45228,0.90641 -0.45933,1.1163 -0.0171,0.50918 -1.691,2.22 -2.5825,2.6396 -1.1426,0.53775 -2.4573,0.3358 -3.5643,-0.54753 -1.3245,-1.0568 -1.5476,-3.2388 -0.57022,-5.5757 0.14229,-0.34018 0.41401,-1.8618 0.58309,-3.2653 0.0541,-0.44898 0.19956,-1.3306 0.32325,-1.9592 0.12369,-0.6286 0.27624,-1.7514 0.33903,-2.4952 0.15976,-1.8927 0.74505,-2.6207 1.4474,-1.8004 0.29335,0.34263 0.29512,0.41546 0.0425,1.7551 -0.14498,0.76871 -0.34243,2.0221 -0.43881,2.7854 -0.24656,1.9528 -0.60295,3.8784 -1.094,5.9112 -0.38282,1.5846 -0.40238,1.8189 -0.20937,2.5082 0.15375,0.54918 0.35291,0.84575 0.71711,1.0678 1.0294,0.62773 2.6932,0.21652 3.2089,-0.79312 0.12618,-0.24706 0.49456,-0.891 0.81861,-1.431 0.32405,-0.53995 0.67765,-1.2498 0.78576,-1.5774 0.10812,-0.32761 0.29006,-0.63153 0.40431,-0.67537 0.11425,-0.0438 1.5617,-0.0242 3.2166,0.0437 3.1814,0.13052 3.6631,0.0616 3.8323,-0.54829 0.0523,-0.18841 0.1558,-0.4895 0.23006,-0.6691 0.0743,-0.17959 0.21792,-0.6334 0.31925,-1.0085 0.13537,-0.50109 0.36515,-0.815 0.86646,-1.1837 0.88359,-0.6498 1.4959,-0.64923 2.3817,0.002 0.82741,0.60849 0.88384,1.0742 0.27558,2.2745 -0.39976,0.78888 -0.75643,1.0808 -3.0474,2.4945 -0.52785,0.32572 -0.69051,0.77364 -0.551,1.5173 0.0836,0.4456 0.24248,0.62807 0.79024,0.90751 0.64143,0.32725 0.84338,0.34327 3.1354,0.24879 1.3474,-0.0555 3.5553,-0.20954 4.9066,-0.34222 2.1178,-0.20794 2.5909,-0.3083 3.4286,-0.72727 0.53448,-0.26731 1.109,-0.58854 1.2768,-0.71383 0.32914,-0.24584 0.74979,-1.2882 0.75378,-1.8678 0.002,-0.19674 0.0664,-0.39726 0.14463,-0.44559 0.0782,-0.0483 0.18972,-0.32816 0.24781,-0.62187 0.14254,-0.72071 0.84011,-2.6006 1.4098,-3.7993 0.25605,-0.53877 0.61387,-1.5306 0.79516,-2.2041 0.33217,-1.2339 0.86944,-2.6793 1.4051,-3.78 0.44297,-0.91027 1.2836,-1.1858 2.1892,-0.71747 0.6243,0.32284 0.91728,1.1043 0.89045,2.375 -0.0343,1.6257 -0.26873,2.2821 -2.0989,5.8776 -0.11427,0.22449 -0.41842,0.84898 -0.67587,1.3878 -0.46793,0.97921 -0.81918,1.4204 -2.5134,3.1567 -0.49634,0.5087 -1.1169,1.3657 -1.3791,1.9045 l -0.47663,0.97959 -0.0271,3.6041 c -0.0317,4.2217 -0.2096,5.2444 -1.5483,8.9023 -0.68987,1.885 -1.1115,2.7722 -1.4088,2.9639 -0.10523,0.0679 -0.23657,0.3295 -0.2919,0.58137 -0.13654,0.62167 -1.8799,2.1457 -2.5855,2.2602 -0.43799,0.0711 -0.63242,-0.003 -1.0603,-0.40245 z"
         id="behalf" />
    </g>
  </g>
</svg>
