<svg xmlns="http://www.w3.org/2000/svg" height="20.598" width="53.787"><path d="M15.991 8.326c.246-.458-.042-.974-.32-.974-.283 0-.905.65-.905 1.125 0 .426.657.69.881.271zm9.462 12.22c-1.517-.16-2.317-.58-2.682-1.406-.287-.648-.291-.783-.072-2.056.13-.749.317-1.592.417-1.872.262-.729.082-1.092-.48-.969-.247.054-1.44.168-2.653.252-1.212.085-3.016.243-4.008.352-1.682.185-1.847.177-2.439-.116-.863-.429-1.283-1.059-1.386-2.077l-.085-.85-1.225-.028a35.38 35.38 0 01-2.166-.12l-.943-.093-.551.855c-.5.775-1.824 2.221-2.68 2.928-.8.659-2.669.485-3.563-.331-.27-.248-.606-.818-.763-1.296-.33-1.01-.198-2.2.46-4.143.221-.655.447-1.634.501-2.176.055-.541.196-1.351.315-1.8.118-.45.264-1.184.325-1.633.129-.96.524-2.492.746-2.896.086-.156.156-.43.156-.609 0-.215.145-.362.426-.432.785-.197.92.59.405 2.368-.172.594-.396 1.74-.497 2.549-.102.808-.287 1.836-.411 2.285-.257.929-1.053 4.475-1.178 5.248-.068.423.023.629.524 1.183.717.795 1.387.894 2.039.302.223-.202.59-.487.814-.632.225-.144.652-.768.95-1.386l.817-1.694c.342-.713.902-.814 1.883-.338 1.332.644 3.872.365 4.48-.493.3-.424.68-1.4.684-1.755.002-.12.352-.54.778-.932.643-.592.888-.715 1.429-.718.788-.005.937.083 1.283.758.385.752.355 1.787-.059 2.008-.18.096-.326.27-.326.386 0 .32-.648.843-1.506 1.216-.995.433-1.457 1.144-1.396 2.153l.045.735 2.122-.03c3.549-.05 6.848-.234 7.012-.392.086-.082.343-.15.572-.152.229-.002.513-.064.63-.139.326-.206 1-.02 1.185.327.12.222.097.456-.08.837-.534 1.149-1.237 3.27-1.237 3.731 0 .777.405 1.393.992 1.51 1.296.26 4.2.037 5.13-.393.18-.083 1.355-.484 2.612-.892 1.257-.408 2.43-.824 2.605-.923.176-.1.763-.284 1.306-.41.543-.124 1.51-.443 2.15-.708a34.94 34.94 0 012.531-.902c.752-.231 1.588-.525 1.857-.651.968-.456 7.429-.971 7.429-.593 0 .103.11.188.245.188.134 0 .375.129.533.286.159.157.582.516.94.798 1.266.998 1.808 2.837 1.032 3.51-.671.582-1.014.326-1.19-.889-.095-.655-.253-.924-.958-1.633l-.844-.847-2.224.036c-2.805.046-5.835.592-6.867 1.238-.21.13-.7.285-1.09.343a5.38 5.38 0 00-1.375.445c-.76.388-2.076.859-3.386 1.211-.494.133-1.302.42-1.796.637-1.406.619-5.12 1.619-6.53 1.76-.404.04-1.176.026-1.715-.03z" stroke-width=".163"/></svg>