<?xml version="1.0" encoding="UTF-8" standalone="no"?>
<svg
   xmlns:dc="http://purl.org/dc/elements/1.1/"
   xmlns:cc="http://creativecommons.org/ns#"
   xmlns:rdf="http://www.w3.org/1999/02/22-rdf-syntax-ns#"
   xmlns:svg="http://www.w3.org/2000/svg"
   xmlns="http://www.w3.org/2000/svg"
   id="svg2094"
   viewBox="0 0 53.786589 20.598465"
   version="1.1"
   height="20.598465"
   width="53.786591">
  <defs
     id="defs2098" />
  <metadata
     id="metadata2">
    <rdf:RDF>
      <cc:Work
         rdf:about="">
        <dc:format>image/svg+xml</dc:format>
        <dc:type
           rdf:resource="http://purl.org/dc/dcmitype/StillImage" />
        <dc:title />
      </cc:Work>
    </rdf:RDF>
  </metadata>
  <g
     transform="translate(-611.35883,-487.21361)"
     id="g2092">
    <g
       style="stroke-width:0.16327"
       id="g2081">
      <path
         d="m 627.35,495.54 c 0.24534,-0.4584 -0.0423,-0.9747 -0.3201,-0.9747 -0.28292,0 -0.90529,0.65019 -0.90529,1.1251 0,0.4263 0.65752,0.69032 0.88168,0.2714 z m 9.4614,12.219 c -1.5162,-0.15953 -2.3161,-0.57883 -2.6819,-1.4057 -0.28638,-0.64743 -0.29108,-0.78228 -0.0717,-2.0553 0.12916,-0.74932 0.31703,-1.5919 0.41752,-1.8724 0.26108,-0.72896 0.0814,-1.0915 -0.48016,-0.96885 -0.24701,0.054 -1.441,0.16746 -2.6532,0.25218 -1.2122,0.0847 -3.016,0.24312 -4.0083,0.352 -1.6819,0.18457 -1.8472,0.17665 -2.4384,-0.11672 -0.86327,-0.42834 -1.2837,-1.0582 -1.3861,-2.0766 l -0.0855,-0.85039 -1.2245,-0.0277 c -0.67347,-0.0152 -1.6485,-0.0694 -2.1667,-0.1203 l -0.94218,-0.0926 -0.55158,0.855 c -0.50011,0.77519 -1.8236,2.221 -2.68,2.9275 -0.79912,0.65933 -2.6685,0.48572 -3.5625,-0.33089 -0.27082,-0.24736 -0.60679,-0.81774 -0.76305,-1.2955 -0.33038,-1.0101 -0.19858,-2.1997 0.45907,-4.1435 0.2216,-0.65503 0.44751,-1.6339 0.50201,-2.1754 0.0545,-0.5415 0.19595,-1.3517 0.31433,-1.8007 0.11839,-0.44898 0.26461,-1.1837 0.32495,-1.6326 0.12891,-0.95915 0.52397,-2.4922 0.74622,-2.8957 0.0859,-0.15594 0.15613,-0.43004 0.15613,-0.60914 0,-0.21476 0.14495,-0.36201 0.42568,-0.43248 0.78526,-0.19708 0.91979,0.58965 0.40505,2.3687 -0.17169,0.59335 -0.3954,1.74 -0.49716,2.5482 -0.10177,0.80816 -0.28653,1.8367 -0.41061,2.2857 -0.25667,0.92874 -1.0525,4.4749 -1.1776,5.2474 -0.0686,0.42371 0.0222,0.62915 0.52317,1.1837 0.7177,0.7944 1.3874,0.89363 2.0392,0.30214 0.22357,-0.20288 0.59017,-0.48729 0.81466,-0.63205 0.22449,-0.14475 0.65197,-0.76858 0.94996,-1.3863 0.29799,-0.61772 0.66534,-1.3802 0.81633,-1.6945 0.34238,-0.71267 0.90205,-0.81311 1.8835,-0.33799 1.3314,0.64452 3.8721,0.36532 4.4792,-0.4922 0.30026,-0.42411 0.68085,-1.3997 0.68485,-1.7555 0.002,-0.12011 0.35145,-0.53964 0.77798,-0.93229 0.6428,-0.59176 0.88726,-0.7146 1.4286,-0.7179 0.78814,-0.005 0.93758,0.0835 1.2833,0.75842 0.3852,0.75192 0.35488,1.7867 -0.0589,2.0081 -0.17959,0.0961 -0.32653,0.26957 -0.32653,0.38546 0,0.32058 -0.6475,0.84369 -1.5058,1.2165 -0.9953,0.43234 -1.4567,1.1441 -1.3957,2.1531 l 0.0444,0.73469 2.1224,-0.0297 c 3.5485,-0.0497 6.8483,-0.23424 7.0122,-0.39223 0.0853,-0.0822 0.34245,-0.15062 0.57143,-0.15199 0.22898,-0.002 0.51291,-0.0637 0.63095,-0.13861 0.3255,-0.2064 0.99902,-0.021 1.1848,0.32625 0.11898,0.22229 0.0965,0.45613 -0.0805,0.83716 -0.53372,1.1489 -1.2373,3.2709 -1.2373,3.7316 0,0.77607 0.4053,1.3924 0.99289,1.51 1.296,0.25918 4.1986,0.0366 5.1296,-0.39331 0.17959,-0.0829 1.3551,-0.48462 2.6122,-0.89262 1.2571,-0.40802 2.4294,-0.82336 2.6049,-0.923 0.17556,-0.0996 0.76331,-0.28353 1.3061,-0.40862 0.54283,-0.12511 1.5104,-0.44397 2.1501,-0.70859 0.63973,-0.26461 1.7785,-0.6706 2.5306,-0.90219 0.75211,-0.23158 1.5879,-0.52478 1.8573,-0.65154 0.96761,-0.45533 7.4286,-0.97094 7.4286,-0.59284 0,0.10363 0.11021,0.18841 0.2449,0.18841 0.13469,0 0.37476,0.12857 0.53349,0.28572 0.15872,0.15714 0.58163,0.51649 0.9398,0.79853 1.2664,0.99724 1.8075,2.8366 1.0323,3.5088 -0.67156,0.58245 -1.0144,0.32661 -1.1903,-0.88812 -0.0949,-0.65559 -0.25262,-0.92442 -0.95779,-1.6326 l -0.84417,-0.84784 -2.224,0.0364 c -2.8052,0.046 -5.8355,0.59207 -6.8674,1.2376 -0.20963,0.13114 -0.70014,0.28578 -1.09,0.34366 -0.38986,0.0579 -1.0086,0.25814 -1.3749,0.44503 -0.75998,0.38772 -2.0763,0.85856 -3.3856,1.211 -0.49388,0.13297 -1.302,0.41946 -1.7959,0.63667 -1.4063,0.61852 -5.1204,1.619 -6.5306,1.7593 -0.40408,0.0402 -1.1755,0.0267 -1.7143,-0.03 z"
         id="behind" />
    </g>
  </g>
</svg>
