<svg xmlns="http://www.w3.org/2000/svg" height="15.742" width="34.916"><path d="M2.152 15.507C.663 14.861 0 13.905 0 12.41c0-.5.099-1.146.22-1.435.12-.289.313-1.04.428-1.668.116-.628.414-1.988.663-3.02.602-2.499.976-4.517.975-5.262 0-.46.094-.67.385-.86.442-.29.866-.186 1.003.246.12.377-.193 2.92-.389 3.163-.08.1-.185.476-.231.835-.235 1.804-.8 4.902-.921 5.053-.21.259-.665 2.167-.658 2.756.006.546.178.919.752 1.633.66.82 2.292.471 3.43-.734.751-.795 1.363-1.765 1.364-2.16.002-.562 1.076-2.059 1.48-2.059.244 0 1.622 1.32 1.622 1.553 0 .113.166.32.368.46.202.14.66.517 1.02.837 1.499 1.335 3.626 1.983 7.047 2.145 2.497.118 4.843-.102 6.183-.58a24.747 24.747 0 012-.6c.564-.139 1.398-.503 1.853-.81.455-.305.926-.556 1.047-.556.241 0 1.625-.705 2.025-1.032.138-.114.546-.305.905-.426.36-.12.848-.356 1.086-.523.503-.353.81-.384 1.085-.109.552.552-.255 1.512-1.763 2.1a55.36 55.36 0 00-1.224.488l-.898.384c-.314.134-.792.368-1.06.521-.27.154-.6.34-.736.413-.882.483-2.935 1.286-3.289 1.286-.144 0-.519.107-.833.238-1.775.742-5.823 1.102-7.796.695a65.83 65.83 0 00-2.449-.448c-.903-.144-1.567-.385-2.53-.918-1.78-.984-1.884-1.054-2.33-1.565a5.928 5.928 0 00-.847-.772l-.456-.325-.388.707c-.463.846-1.636 2.365-1.836 2.378-.078.005-.388.226-.69.49-.91.8-2.387 1.046-3.465.578z" stroke-width=".163"/></svg>