<svg xmlns="http://www.w3.org/2000/svg" height="15.743" width="34.917"><path d="M2.152 15.507C.664 14.86 0 13.905 0 12.41c0-.5.099-1.146.22-1.435.12-.289.313-1.04.428-1.668a71.74 71.74 0 01.663-3.02c.602-2.499.976-4.517.975-5.262 0-.46.094-.67.385-.86.442-.29.866-.186 1.003.246.12.377-.192 2.92-.388 3.163-.081.1-.185.476-.232.835-.234 1.804-.8 4.902-.921 5.053-.209.259-.664 2.167-.658 2.756.006.546.178.919.753 1.634.659.82 2.292.47 3.43-.734.75-.796 1.362-1.765 1.363-2.16.002-.562 1.076-2.059 1.479-2.059.244 0 1.623 1.32 1.623 1.553 0 .113.165.32.367.46.202.14.66.517 1.02.837 1.498 1.335 3.626 1.982 7.047 2.145 2.497.119 4.842-.101 6.182-.58a24.77 24.77 0 012.001-.6c.564-.139 1.398-.503 1.853-.809.455-.306.927-.557 1.048-.557.241 0 1.625-.705 2.025-1.032.139-.114.546-.305.906-.426.359-.12.848-.356 1.086-.523.502-.353.81-.384 1.085-.109.552.552-.255 1.513-1.763 2.1a57.07 57.07 0 00-1.225.489c-.18.077-.583.25-.898.383-.314.134-.792.368-1.061.522-.27.153-.6.338-.735.412-.882.483-2.935 1.286-3.289 1.286-.144 0-.52.107-.833.239-1.775.741-5.823 1.102-7.796.694-.673-.14-1.775-.34-2.449-.448-.904-.144-1.567-.384-2.53-.918-1.78-.984-1.884-1.054-2.33-1.565a5.923 5.923 0 00-.847-.772l-.456-.325-.388.708c-.463.845-1.636 2.365-1.836 2.378-.077.005-.388.226-.689.49-.91.8-2.388 1.045-3.466.577z" stroke-width=".163"/></svg>