<?xml version="1.0" encoding="UTF-8" standalone="no"?>
<svg
   xmlns:dc="http://purl.org/dc/elements/1.1/"
   xmlns:cc="http://creativecommons.org/ns#"
   xmlns:rdf="http://www.w3.org/1999/02/22-rdf-syntax-ns#"
   xmlns:svg="http://www.w3.org/2000/svg"
   xmlns="http://www.w3.org/2000/svg"
   id="svg2094"
   viewBox="0 0 34.917087 15.743287"
   version="1.1"
   height="15.743287"
   width="34.917088">
  <defs
     id="defs2098" />
  <metadata
     id="metadata2">
    <rdf:RDF>
      <cc:Work
         rdf:about="">
        <dc:format>image/svg+xml</dc:format>
        <dc:type
           rdf:resource="http://purl.org/dc/dcmitype/StillImage" />
        <dc:title />
      </cc:Work>
    </rdf:RDF>
  </metadata>
  <g
     transform="translate(-611.7578,-510.94295)"
     id="g2092">
    <g
       style="stroke-width:0.16327"
       id="g2081">
      <path
         d="m 613.91,526.45 c -1.4886,-0.64658 -2.1522,-1.6016 -2.1522,-3.0976 0,-0.50034 0.0987,-1.1461 0.21928,-1.4351 0.12059,-0.28896 0.31366,-1.0397 0.42903,-1.6682 0.11536,-0.62857 0.41345,-1.9878 0.66243,-3.0204 0.60246,-2.4988 0.97665,-4.5166 0.97572,-5.2615 0,-0.45971 0.0934,-0.67021 0.38441,-0.86085 0.4424,-0.28988 0.86593,-0.18578 1.0032,0.24656 0.11976,0.37736 -0.19251,2.9196 -0.38852,3.163 -0.0807,0.10021 -0.1849,0.47608 -0.23156,0.83526 -0.2343,1.804 -0.79905,4.9022 -0.92111,5.0532 -0.20878,0.25826 -0.66425,2.1669 -0.65767,2.756 0.006,0.54547 0.17801,0.91858 0.75241,1.6331 0.65941,0.8202 2.2925,0.47071 3.4297,-0.73399 0.75107,-0.79565 1.3631,-1.7648 1.3638,-2.1595 0.002,-0.5624 1.0758,-2.0589 1.4788,-2.0589 0.24438,0 1.6226,1.3191 1.6226,1.553 0,0.11292 0.1653,0.32004 0.36734,0.46023 0.20204,0.1402 0.66098,0.51648 1.0199,0.83617 1.4987,1.3351 3.6264,1.9828 7.0471,2.1454 2.4969,0.11864 4.8425,-0.10139 6.1826,-0.57995 0.53623,-0.19151 1.4364,-0.46156 2.0005,-0.60012 0.56405,-0.13855 1.398,-0.50253 1.8532,-0.80883 0.45516,-0.30632 0.92651,-0.55693 1.0474,-0.55693 0.24176,0 1.625,-0.70488 2.0254,-1.0321 0.13891,-0.11354 0.54643,-0.30506 0.90562,-0.42563 0.35918,-0.12058 0.84808,-0.35618 1.0864,-0.52358 0.50237,-0.35283 0.80988,-0.38358 1.085,-0.10846 0.55196,0.55195 -0.25495,1.5125 -1.7633,2.099 -0.49388,0.19205 -1.0449,0.41218 -1.2245,0.48921 -0.17959,0.077 -0.58367,0.24952 -0.89796,0.38333 -0.31429,0.13383 -0.79184,0.36859 -1.0612,0.5217 -0.26939,0.15312 -0.6,0.33877 -0.7347,0.41255 -0.88219,0.48332 -2.9354,1.2861 -3.2893,1.2861 -0.14444,0 -0.51934,0.10726 -0.83311,0.23837 -1.7746,0.74147 -5.823,1.102 -7.7959,0.69423 -0.67347,-0.13918 -1.7755,-0.34076 -2.449,-0.44795 -0.90362,-0.14383 -1.5667,-0.38428 -2.5306,-0.9176 -1.7789,-0.98429 -1.8832,-1.0544 -2.3292,-1.5651 -0.21471,-0.24588 -0.59587,-0.59334 -0.84699,-0.77216 l -0.4566,-0.32513 -0.38768,0.70762 c -0.46341,0.84585 -1.636,2.3653 -1.8355,2.3784 -0.0779,0.005 -0.38818,0.2257 -0.68942,0.49017 -0.91001,0.79902 -2.3882,1.0452 -3.4657,0.57718 z"
         id="being_abv" />
    </g>
  </g>
</svg>
