<svg xmlns="http://www.w3.org/2000/svg" height="19.416" width="51.849"><path d="M25.712 9.183c.18-.115 1.52-2.829 1.52-3.08 0-.062.1-.23.22-.37.361-.422 1.116-2.704 1.058-3.198-.03-.251-.186-.537-.347-.636-.38-.234-.784.27-1.072 1.34-.113.421-.349 1.08-.523 1.464-.174.384-.316.795-.316.914 0 .118-.106.429-.236.69-.13.26-.308.877-.395 1.371a14.34 14.34 0 01-.272 1.266c-.117.374.014.46.363.238zm-10.035 1.312c.413-.47.513-1.008.21-1.124-.357-.137-1.064.547-1.064 1.03 0 .463.483.516.854.094zm16.975 2.524c0-.288-.793.184-.894.487-.036.106.122.467.264.467.142 0 .446-.25.446-.391zM27.9 8.17c-.048.092-.18.114-.18.255 0 .14-.219.526-.486.857l-1.062 1.31c-.316.39-.574.841-.574 1.002 0 .16-.33.562-.735.893-.404.331-.735.698-.735.816s-.11.305-.245.417c-.322.268-.308.832.056 2.123l.299 1.06.772.195c.57.143 1.038.149 1.782.021 1.411-.24 2.123-.671 2.474-1.497.78-1.834 1.245-2.707 1.593-2.985.21-.167.603-.635.872-1.04.485-.727.5-.734 1.52-.783 1.197-.057 1.49.113 1.49.865 0 .548-.715 2.023-1.092 2.253-.118.072-.214.225-.214.34 0 .114-.587.753-1.304 1.42-1.399 1.301-1.59 1.741-.91 2.105 1.198.64 3.862-.62 5.281-2.5 1.286-1.703 2.194-2.517 3.545-3.18 1.755-.862 1.814-.876 2.445-.613 1.004.42 1.304 1.44.741 2.522-.076.146-.299.665-.496 1.153-.197.489-.509 1.092-.693 1.34-.277.375-.298.496-.125.705.115.138.301.251.415.251.368 0 2.856-2.674 2.856-3.069 0-.095.091-.27.204-.388.112-.119.306-.437.43-.706.63-1.358.779-1.605 1.08-1.796.192-.121 1.15-.245 2.319-.299 1.746-.08 2.036-.057 2.347.195.739.598-.077 1.329-1.483 1.329a19.9 19.9 0 00-1.615.105c-.995.104-1.018.118-1.437.858a52.479 52.479 0 01-.89 1.5c-.256.412-.465.837-.465.944 0 .108-.499.7-1.108 1.315-.794.801-1.328 1.193-1.884 1.382-1.005.341-1.07.336-1.766-.137-.889-.604-.892-1.028-.022-2.945.407-.9.805-1.704.883-1.79.24-.263.16-1.072-.117-1.178-.285-.11-1.34.424-2.127 1.076-.28.232-1.216 1.238-2.08 2.237-.876 1.013-1.79 1.906-2.063 2.02-.27.112-.492.268-.492.347 0 .079-.129.144-.286.144-.157 0-.526.147-.819.326-.362.22-.964.357-1.877.426-1.212.09-1.383.067-1.731-.24-.213-.187-.518-.381-.679-.432-.16-.051-.333-.2-.383-.332-.117-.303-.72-.305-1.44-.004-.312.131-1.256.257-2.135.286l-1.574.051-.723-.709c-.489-.48-.753-.894-.816-1.28-.166-1.021-.83-1.374-1.306-.693-.731 1.044-4.688 2.572-6.067 2.344-1.095-.181-2.482-1.083-2.974-1.932-.28-.481-.256-1.444.052-2.216.35-.875.223-1.145-.543-1.152-.34-.003-1.095-.12-1.678-.26-1.84-.44-2.277-.46-2.535-.12-.127.167-.237.414-.245.549-.008.135-.303.722-.656 1.306-.353.584-.752 1.296-.887 1.583-.298.634-1.401 1.421-2.348 1.676-1.25.337-2.45-.309-3.051-1.644-.284-.63-.282-.69.077-2.314.592-2.679.637-2.893.966-4.607.173-.898.498-2.147.724-2.776.225-.628.454-1.564.51-2.079.111-1.041.773-2.648 1.15-2.793.4-.153.784.369.693.94-.337 2.114-.632 3.516-.827 3.932-.453.97-.774 2.276-1.022 4.164-.053.404-.309 1.46-.568 2.348-.591 2.025-.59 2.346.01 3.003 1.078 1.181 2.132.374 3.775-2.893.341-.679.674-1.454.739-1.724.299-1.243.968-1.543 1.828-.82.634.534 2.146.96 3.456.973l1.056.01.439-1.06c.499-1.205 1.636-2.535 2.308-2.701.248-.061.713-.062 1.033-.002.482.09.634.225.883.78.284.635.286.71.029 1.363-.36.912-1.633 2.303-2.242 2.447-.524.124-1.377.833-1.377 1.144 0 .108-.11.407-.244.664-.96 1.841 1.12 3.225 3.672 2.443.405-.124.956-.324 1.225-.443.509-.226 2.164-1.359 2.449-1.677.09-.1.457-.435.816-.743.485-.417.706-.769.859-1.367.113-.443.306-1.035.427-1.316.37-.856 1.045-2.767 1.159-3.287.059-.27.396-1.214.75-2.099.353-.885.642-1.766.643-1.959.002-.792 1.218-3.119 1.868-3.572.354-.247 1.22-.124 1.54.218.345.37.83 1.466.836 2.273.015 1.96-1.048 3.805-1.943 5.547z"/></svg>