<svg xmlns="http://www.w3.org/2000/svg" height="37.165" width="47.296"><path d="M27.72 7.794c.109-.108.197-.34.197-.515 0-.176.17-.547.38-.825.631-.837 1.27-3.188 1.128-4.152-.04-.272-.193-.54-.34-.597-.397-.152-.792.44-1.009 1.514a70.111 70.111 0 01-.485 2.159c-.455 1.877-.534 2.612-.28 2.612.117 0 .302-.088.41-.196zm16.99.124c.372-.758.676-1.476.676-1.596 0-.12.12-.39.266-.599.283-.403.421-2.648.179-2.893-.215-.217-.706.459-1.078 1.486-.426 1.177-1.163 4.098-1.163 4.612 0 .747.462.33 1.12-1.01zm-27.77 4.557c.301-.301.002-.818-.303-.818-.21 0-.741.876-.741 1.138 0 .176.476.31.708.078zm16.668.783c.157-.409-.234-.59-.498-.59-.134 0-.416.455-.416.537 0 .082-.12.243-.174.385-.063.164.13.402.287.402.134 0 .383-.08.438-.223zm2.507 21.304c1.269-1.438 2.282-3.547 2.83-5.886.205-.88.49-1.777.632-1.994.146-.223.258-.74.258-1.19 0-.437.083-1.205.184-1.708.245-1.221.081-2.118-.374-2.049-.233.036-.408.273-.578.786-.133.404-.31.804-.39.89-.082.085-.148.288-.148.452 0 .163-.294.91-.653 1.659-.36.749-.653 1.578-.653 1.842 0 .263-.068.55-.152.634-.083.086-.31.56-.502 1.053-.193.494-.447 1.009-.563 1.143-.116.135-.247.585-.29 1-.045.415-.21 1.003-.366 1.306-.425.822-.96 2.856-.814 3.093.21.34.585.096 1.58-1.031zm-.349-7.352c.089-.268.173-.686.267-.803.203-.252.978-2.097 1.218-2.898.092-.31.412-1.045.711-1.633.299-.588.593-1.29.653-1.56.06-.269.263-.983.45-1.587.338-1.087.3-1.487-.112-1.182-.662.49-1.636 1.087-2.784 1.705-1.647.887-2.856 1.036-4.05.5-.428-.193-.895-.53-1.04-.75-.39-.596-1.086-.522-2.338.249-1.19.731-2.102.932-3.04.67-.646-.18-1.7-1.03-2.02-1.628-.218-.407-.223-1.11-.01-1.241.22-.136.21-1.062-.01-1.062-.096 0-.36.22-.586.49-.227.27-.474.49-.549.49-.199 0-2.178 1.351-2.332 1.592-.072.112-.276.204-.454.204-.179 0-.703.192-1.166.426-.728.37-1.035.425-2.289.413-1.264-.012-1.549-.07-2.251-.466-.963-.54-1.26-1.097-.992-1.862.1-.285.18-.722.18-.97 0-.445-.018-.454-1.265-.563a15.404 15.404 0 01-2.555-.498c-1.325-.398-1.567-.394-1.567.027 0 .38-1.016 1.867-1.81 2.653-1.76 1.739-3.71 1.772-5.192.088-.65-.74-.83-1.315-.833-2.677-.002-.727.407-3.165.577-3.44.048-.078.202-.75.342-1.494.14-.743.318-1.682.396-2.086.079-.404.256-1.506.394-2.45.138-.942.334-1.916.434-2.164.21-.521.906-.781 1.147-.429.185.272.063 1.952-.254 3.507-.127.62-.39 1.936-.585 2.924-.195.987-.46 2.163-.59 2.612-.128.449-.25 1.648-.268 2.666-.033 1.792-.022 1.86.37 2.163.221.172.68.399 1.02.504.512.158.713.146 1.165-.07 1.282-.611 2.182-1.843 2.722-3.728.259-.904.428-1.127.854-1.127.308 0 1.526.712 1.759 1.029.128.174 1.958.433 3.091.437 1.153.004 1.49-.24 1.966-1.42.612-1.519.937-1.961 1.72-2.34.612-.296.802-.323 1.182-.166.506.21 1.005.94 1.005 1.47 0 .954-1.197 2.474-2.454 3.115-1.17.597-1.728 2.456-.899 2.999.747.49 2.606.263 4.333-.527 1.088-.498 3.247-2.298 4.303-3.59 1.03-1.257 1.319-2.02 1.498-3.946.105-1.126.25-1.795.965-4.457.14-.52.254-1.09.254-1.266 0-.175.147-.593.327-.928.18-.335.326-.788.326-1.006 0-.649.926-1.938 1.48-2.06.938-.206 1.36.023 1.859 1.009.426.84.454 1.01.364 2.175-.077.997-.22 1.506-.676 2.416-.318.633-.578 1.226-.578 1.316 0 .196-.988 2.117-1.367 2.658-.146.209-.266.512-.266.675 0 .162-.26.556-.579.875-.935.935-1.572 2.514-1.967 4.879l-.245 1.47.579.532c.526.483.644.522 1.273.422.42-.067 1.215-.446 2.016-.961 1.437-.926 1.764-1.422 1.975-2.99.215-1.604 1.347-3.317 2.334-3.534 1.101-.242 1.939.77 1.66 2.006-.14.625-1.5 2.551-1.913 2.71-.24.092-.888 1.264-.888 1.608 0 .118.217.452.481.741.358.392.619.526 1.02.524.749-.003 1.703-.33 2.64-.901 1.997-1.22 2.266-1.417 2.345-1.716.046-.176.183-.32.306-.32.316 0 2.025-1.776 2.025-2.105 0-.15.145-.686.323-1.191.177-.505.403-1.458.501-2.117.099-.66.29-1.603.424-2.097.53-1.946.755-2.72.973-3.352.125-.362.228-.792.228-.954 0-.162.147-.482.326-.71.18-.229.327-.522.327-.652 0-.254 1.052-1.352 1.296-1.352.08 0 .253-.041.384-.091.31-.12 1.185.689 1.425 1.315.241.63.06 3.084-.277 3.756-.135.269-.356.853-.492 1.297-.274.901-1.724 3.747-2.167 4.254-.157.18-.425.583-.595.897-.17.315-.658 1-1.084 1.525-.432.53-.776 1.122-.776 1.334 0 .21-.257.99-.571 1.736-.653 1.546-.654 1.557-.334 2.198.13.262.323 1.026.429 1.7.214 1.366.085 2.536-.605 5.506-.213.92-.388 1.895-.388 2.167 0 .272-.177.769-.393 1.103-.216.335-.56 1.087-.766 1.67-.365 1.04-.971 2.17-1.258 2.348-.08.05-.381.57-.67 1.156-.289.587-.686 1.15-.883 1.253-.196.102-.485.32-.642.483-.157.163-.543.345-.858.404-1.112.209-1.511-1.17-1.674-2.032-.514-2.724 1.717-5.27 2.585-7.902z" stroke-width=".163"/></svg>