<?xml version="1.0" encoding="UTF-8" standalone="no"?>
<svg
   xmlns:dc="http://purl.org/dc/elements/1.1/"
   xmlns:cc="http://creativecommons.org/ns#"
   xmlns:rdf="http://www.w3.org/1999/02/22-rdf-syntax-ns#"
   xmlns:svg="http://www.w3.org/2000/svg"
   xmlns="http://www.w3.org/2000/svg"
   id="svg2094"
   viewBox="0 0 47.295805 37.165142"
   version="1.1"
   height="37.165142"
   width="47.295807">
  <defs
     id="defs2098" />
  <metadata
     id="metadata2">
    <rdf:RDF>
      <cc:Work
         rdf:about="">
        <dc:format>image/svg+xml</dc:format>
        <dc:type
           rdf:resource="http://purl.org/dc/dcmitype/StillImage" />
        <dc:title />
      </cc:Work>
    </rdf:RDF>
  </metadata>
  <g
     transform="translate(-610.93922,-531.43606)"
     id="g2092">
    <g
       style="stroke-width:0.16327"
       id="g2081">
      <path
         d="m 638.66,539.23 c 0.10775,-0.10776 0.19592,-0.33959 0.19592,-0.5152 0,-0.17561 0.17123,-0.54663 0.38052,-0.82449 0.63081,-0.8375 1.2691,-3.1882 1.1275,-4.1527 -0.0399,-0.27159 -0.19278,-0.53997 -0.33983,-0.59641 -0.39719,-0.15241 -0.79231,0.44075 -1.0087,1.5142 -0.10351,0.51356 -0.32173,1.4848 -0.48492,2.1582 -0.45497,1.8776 -0.53389,2.6122 -0.2806,2.6122 0.1178,0 0.30233,-0.0882 0.41009,-0.19592 z m 16.989,0.12396 c 0.37209,-0.75792 0.67654,-1.4763 0.67654,-1.5963 0,-0.12 0.11973,-0.3892 0.26607,-0.59813 0.28228,-0.40302 0.42073,-2.6487 0.17837,-2.8934 -0.21524,-0.21729 -0.70555,0.4589 -1.0778,1.4863 -0.42627,1.1766 -1.1626,4.0976 -1.1626,4.6119 0,0.74651 0.46125,0.33018 1.1194,-1.0104 z m -27.77,4.557 c 0.30131,-0.3013 0.002,-0.81745 -0.30287,-0.81745 -0.20896,0 -0.74123,0.87592 -0.74123,1.138 0,0.17603 0.47595,0.30995 0.70808,0.0779 z m 16.668,0.78271 c 0.15677,-0.40854 -0.23384,-0.58932 -0.49736,-0.58932 -0.13469,0 -0.41676,0.45422 -0.41676,0.53663 0,0.0824 -0.11882,0.24268 -0.17332,0.38472 -0.0632,0.16477 0.13022,0.40279 0.28642,0.40279 0.13469,0 0.38325,-0.0811 0.43775,-0.2231 z m 2.5075,21.304 c 1.2685,-1.4379 2.282,-3.5466 2.8288,-5.8854 0.20568,-0.8798 0.49032,-1.7772 0.63254,-1.9942 0.14645,-0.22351 0.25855,-0.73922 0.25855,-1.1894 0,-0.43717 0.0826,-1.2061 0.18354,-1.7088 0.24522,-1.2211 0.0817,-2.1179 -0.3736,-2.0486 -0.23359,0.0356 -0.4082,0.27295 -0.57785,0.78565 -0.13373,0.40408 -0.30952,0.80449 -0.39067,0.88979 -0.0811,0.0853 -0.14755,0.28882 -0.14755,0.45225 0,0.16344 -0.29387,0.90997 -0.65306,1.659 -0.35918,0.74901 -0.65306,1.5777 -0.65306,1.8416 0,0.26388 -0.0682,0.54958 -0.15159,0.63489 -0.0834,0.0853 -0.30959,0.55918 -0.5027,1.0531 -0.19311,0.49392 -0.44617,1.0082 -0.56235,1.1429 -0.11618,0.13469 -0.24723,0.58444 -0.29121,0.99944 -0.044,0.41499 -0.20833,1.0028 -0.36521,1.3061 -0.4249,0.82165 -0.96059,2.856 -0.81435,3.0927 0.21069,0.34091 0.58529,0.0965 1.5798,-1.0309 z m -0.34893,-7.3518 c 0.0884,-0.26786 0.17295,-0.68598 0.26704,-0.80292 0.20272,-0.25195 0.97775,-2.0971 1.2173,-2.8981 0.0926,-0.30967 0.41281,-1.0444 0.71152,-1.6326 0.29871,-0.58828 0.59235,-1.29 0.65249,-1.5594 0.0602,-0.26939 0.26302,-0.98403 0.4508,-1.5881 0.33781,-1.0868 0.29988,-1.4867 -0.11205,-1.1816 -0.66206,0.49033 -1.6364,1.087 -2.7844,1.7053 -1.6471,0.88697 -2.8558,1.0359 -4.0503,0.49904 -0.42749,-0.19215 -0.89513,-0.52926 -1.0392,-0.74911 -0.39051,-0.596 -1.0864,-0.52212 -2.3389,0.24833 -1.1891,0.73142 -2.1012,0.9326 -3.0399,0.67054 -0.64535,-0.18016 -1.7002,-1.0304 -2.0202,-1.6284 -0.2179,-0.40713 -0.22296,-1.109 -0.009,-1.2412 0.21889,-0.13528 0.20968,-1.0612 -0.0106,-1.0612 -0.0956,0 -0.35926,0.22041 -0.58594,0.4898 -0.22666,0.26938 -0.47368,0.48979 -0.54891,0.48979 -0.19878,0 -2.178,1.351 -2.3321,1.5918 -0.0718,0.11224 -0.2763,0.20408 -0.4544,0.20408 -0.17812,0 -0.70243,0.19184 -1.1651,0.4263 -0.72818,0.369 -1.0359,0.42449 -2.289,0.41269 -1.2648,-0.0119 -1.5493,-0.0707 -2.2518,-0.46564 -0.9627,-0.54114 -1.2588,-1.097 -0.99214,-1.8621 0.0996,-0.28555 0.181,-0.72237 0.181,-0.97069 0,-0.44482 -0.0188,-0.45315 -1.2653,-0.56209 -0.69591,-0.0608 -1.8458,-0.28497 -2.5553,-0.49809 -1.3253,-0.39811 -1.5671,-0.39396 -1.5671,0.0269 0,0.37917 -1.0157,1.8672 -1.8108,2.6531 -1.7591,1.7385 -3.7086,1.7714 -5.1906,0.0877 -0.65105,-0.73962 -0.83017,-1.3149 -0.83345,-2.6766 -0.002,-0.72758 0.40697,-3.1654 0.57677,-3.4402 0.0485,-0.0784 0.2024,-0.75074 0.34207,-1.4941 0.13966,-0.74331 0.31802,-1.6821 0.39636,-2.0862 0.0784,-0.40408 0.25557,-1.5061 0.39386,-2.449 0.13829,-0.9429 0.3335,-1.9173 0.4338,-2.1653 0.21064,-0.52101 0.9061,-0.78064 1.147,-0.42818 0.18541,0.27125 0.0636,1.9513 -0.25431,3.5068 -0.12673,0.62012 -0.38975,1.9357 -0.58449,2.9234 -0.19475,0.98776 -0.45989,2.1633 -0.5892,2.6122 -0.12932,0.44898 -0.25041,1.6487 -0.26911,2.666 -0.0329,1.7926 -0.0216,1.8593 0.36939,2.1628 0.22188,0.17222 0.68145,0.3992 1.0213,0.50441 0.51148,0.15834 0.71208,0.14637 1.1646,-0.0695 1.2824,-0.61153 2.1819,-1.8437 2.7216,-3.728 0.25895,-0.90412 0.42819,-1.1276 0.85397,-1.1276 0.30853,0 1.5267,0.71246 1.7589,1.0287 0.12802,0.17435 1.958,0.43327 3.0915,0.4374 1.1528,0.004 1.4908,-0.23987 1.9662,-1.4197 0.61215,-1.5192 0.93714,-1.9615 1.7191,-2.3401 0.61248,-0.29649 0.80289,-0.32318 1.1828,-0.16579 0.50553,0.2094 1.0049,0.93959 1.0049,1.4695 0,0.95458 -1.1969,2.4737 -2.4545,3.1152 -1.1704,0.59709 -1.7271,2.4557 -0.89818,2.9988 0.74665,0.48923 2.6052,0.2632 4.3323,-0.52685 1.0887,-0.49803 3.2472,-2.2984 4.3034,-3.5893 1.0291,-1.2578 1.3185,-2.0204 1.498,-3.9467 0.10493,-1.1263 0.24965,-1.7949 0.96473,-4.457 0.13987,-0.5207 0.25432,-1.0904 0.25432,-1.2659 0,-0.17555 0.14694,-0.59333 0.32653,-0.9284 0.17959,-0.33508 0.32653,-0.78755 0.32653,-1.0055 0,-0.64924 0.92583,-1.9382 1.4795,-2.0598 0.93817,-0.20606 1.3601,0.0228 1.8591,1.0082 0.42583,0.84096 0.4542,1.0104 0.36437,2.1753 -0.0769,0.9969 -0.21936,1.5062 -0.6757,2.4156 -0.31806,0.63374 -0.57829,1.2264 -0.57829,1.3169 0,0.19555 -0.98846,2.1168 -1.3674,2.6578 -0.1459,0.20828 -0.26526,0.51174 -0.26526,0.67434 0,0.16261 -0.26075,0.55639 -0.57943,0.87508 -0.93543,0.93543 -1.572,2.5144 -1.9669,4.8791 l -0.24544,1.4694 0.57934,0.53259 c 0.52574,0.48331 0.64351,0.52238 1.2734,0.42243 0.42044,-0.0667 1.215,-0.44571 2.0152,-0.96121 1.437,-0.92574 1.7647,-1.4218 1.9754,-2.9903 0.21539,-1.6036 1.347,-3.3169 2.3339,-3.5336 1.1013,-0.24187 1.9386,0.76975 1.6608,2.0064 -0.14031,0.62445 -1.5012,2.5508 -1.914,2.7092 -0.24058,0.0923 -0.88734,1.2645 -0.88734,1.6083 0,0.11826 0.21626,0.45181 0.48058,0.7412 0.35762,0.39154 0.61873,0.52555 1.0204,0.5237 0.74825,-0.003 1.7024,-0.32921 2.6392,-0.90104 1.997,-1.2191 2.2667,-1.4165 2.3451,-1.716 0.0459,-0.17556 0.18356,-0.31922 0.30588,-0.31922 0.31603,0 2.0252,-1.7768 2.0252,-2.1053 0,-0.15037 0.14524,-0.68663 0.32275,-1.1917 0.17751,-0.50506 0.40331,-1.4576 0.50176,-2.1168 0.0985,-0.65919 0.28906,-1.6026 0.42356,-2.0965 0.5301,-1.9466 0.75479,-2.7206 0.97322,-3.3524 0.12523,-0.36219 0.22769,-0.79141 0.22769,-0.95384 0,-0.16243 0.14694,-0.48212 0.32653,-0.71043 0.1796,-0.22833 0.32653,-0.52154 0.32653,-0.65161 0,-0.25411 1.0522,-1.3521 1.2957,-1.3521 0.0808,0 0.25391,-0.0411 0.38464,-0.0912 0.31009,-0.11899 1.1852,0.68893 1.4251,1.3157 0.24118,0.63004 0.0602,3.0838 -0.27693,3.7551 -0.13528,0.26939 -0.3567,0.85343 -0.49203,1.2979 -0.27429,0.90071 -1.7244,3.7465 -2.1672,4.2531 -0.157,0.17959 -0.42461,0.58367 -0.59471,0.89796 -0.17009,0.31428 -0.65824,1.0003 -1.0848,1.5245 -0.4313,0.53006 -0.77551,1.1221 -0.77551,1.334 0,0.20951 -0.25714,0.99066 -0.57143,1.7359 -0.65216,1.5464 -0.65388,1.5576 -0.33407,2.1986 0.13054,0.26168 0.32359,1.026 0.42901,1.6986 0.21419,1.3666 0.0858,2.5367 -0.60439,5.5072 -0.21368,0.91966 -0.38851,1.8947 -0.38851,2.1668 0,0.2721 -0.17667,0.76857 -0.39259,1.1034 -0.21593,0.33481 -0.56045,1.0863 -0.76561,1.67 -0.36529,1.0392 -0.97169,2.1701 -1.2588,2.3476 -0.0795,0.0491 -0.38085,0.56942 -0.66973,1.1562 -0.28888,0.58681 -0.68603,1.1505 -0.88255,1.2527 -0.1965,0.10217 -0.48557,0.31936 -0.64235,0.48264 -0.1568,0.16327 -0.54284,0.34523 -0.85788,0.40433 -1.1117,0.20855 -1.5115,-1.1698 -1.6742,-2.0323 -0.51367,-2.7233 1.7172,-5.2699 2.5854,-7.9017 z"
         id="belief" />
    </g>
  </g>
</svg>
