<?xml version="1.0" encoding="UTF-8" standalone="no"?>
<svg
   xmlns:dc="http://purl.org/dc/elements/1.1/"
   xmlns:cc="http://creativecommons.org/ns#"
   xmlns:rdf="http://www.w3.org/1999/02/22-rdf-syntax-ns#"
   xmlns:svg="http://www.w3.org/2000/svg"
   xmlns="http://www.w3.org/2000/svg"
   id="svg2094"
   viewBox="0 0 51.848959 19.415993"
   version="1.1"
   height="19.415993"
   width="51.848961">
  <defs
     id="defs2098" />
  <metadata
     id="metadata2">
    <rdf:RDF>
      <cc:Work
         rdf:about="">
        <dc:format>image/svg+xml</dc:format>
        <dc:type
           rdf:resource="http://purl.org/dc/dcmitype/StillImage" />
        <dc:title />
      </cc:Work>
    </rdf:RDF>
  </metadata>
  <g
     transform="translate(-616.35842,-556.40743)"
     id="g2092">
    <g
       style="stroke-width:0.16327"
       id="g2081">
      <path
         d="m 642.07,565.59 c 0.18066,-0.11488 1.52,-2.8284 1.52,-3.0796 0,-0.0622 0.0995,-0.22912 0.22106,-0.37089 0.3607,-0.42059 1.1158,-2.7034 1.0574,-3.197 -0.0297,-0.25104 -0.18564,-0.53731 -0.34655,-0.63615 -0.38098,-0.23406 -0.78451,0.27022 -1.0725,1.3402 -0.11334,0.42116 -0.34851,1.08 -0.52257,1.464 -0.17405,0.38403 -0.31647,0.79518 -0.31647,0.91368 0,0.1185 -0.10635,0.42879 -0.23634,0.68952 -0.13001,0.26074 -0.30755,0.87814 -0.39455,1.372 -0.087,0.49387 -0.20962,1.0633 -0.27249,1.2653 -0.11647,0.37435 0.0144,0.46046 0.36296,0.23883 z m -10.035,1.3121 c 0.41303,-0.47035 0.51378,-1.0072 0.21084,-1.1235 -0.35721,-0.13708 -1.0642,0.54686 -1.0642,1.0295 0,0.46302 0.48261,0.51618 0.85334,0.094 z m 16.975,2.5246 c 0,-0.28833 -0.79288,0.18377 -0.89377,0.48648 -0.0355,0.10662 0.12201,0.46731 0.26418,0.46731 0.14217,0 0.446,-0.24914 0.446,-0.39131 z m -4.7507,-4.8511 c -0.0476,0.0927 -0.1797,0.11515 -0.1797,0.25588 0,0.14072 -0.21901,0.52643 -0.48666,0.85715 -0.26766,0.33069 -0.74521,0.92045 -1.0612,1.3106 -0.31601,0.39014 -0.57456,0.84046 -0.57456,1.0008 0,0.16027 -0.33061,0.56231 -0.73469,0.89343 -0.40409,0.33112 -0.7347,0.69832 -0.7347,0.816 0,0.11768 -0.1102,0.30544 -0.2449,0.41723 -0.32284,0.26793 -0.30816,0.83206 0.0552,2.1224 l 0.29887,1.0612 0.77241,0.19404 c 0.56924,0.14301 1.038,0.14867 1.7821,0.0215 1.4114,-0.24116 2.123,-0.6719 2.4738,-1.4974 0.77933,-1.8341 1.2454,-2.7071 1.5936,-2.9848 0.2102,-0.16765 0.6025,-0.63544 0.87179,-1.0395 0.48524,-0.72813 0.49882,-0.73514 1.5189,-0.78368 1.1974,-0.057 1.4906,0.11307 1.4906,0.86474 0,0.5487 -0.71462,2.0235 -1.092,2.2536 -0.11777,0.0718 -0.21413,0.22431 -0.21413,0.33891 0,0.11458 -0.58653,0.7538 -1.3034,1.4205 -1.3992,1.3012 -1.5896,1.7414 -0.9105,2.1048 1.1982,0.64126 3.8625,-0.61925 5.2815,-2.4988 1.2861,-1.7035 2.1933,-2.5175 3.5446,-3.1808 1.7554,-0.86167 1.8145,-0.87646 2.4454,-0.61285 1.0039,0.41946 1.3038,1.4398 0.7411,2.5219 -0.076,0.14609 -0.2993,0.66504 -0.4963,1.1533 -0.19699,0.48819 -0.5087,1.0912 -0.6927,1.3401 -0.27699,0.37467 -0.29859,0.49579 -0.12561,0.70422 0.1149,0.13845 0.30176,0.25172 0.41526,0.25172 0.36764,0 2.8557,-2.6743 2.8557,-3.0694 0,-0.0949 0.0918,-0.26967 0.20408,-0.38833 0.11224,-0.11866 0.30622,-0.43615 0.43105,-0.70554 0.62923,-1.3579 0.77778,-1.6051 1.0792,-1.7958 0.19159,-0.12129 1.1498,-0.24485 2.3189,-0.29904 1.7458,-0.0809 2.0363,-0.0568 2.3473,0.19507 0.73838,0.59791 -0.077,1.3284 -1.4829,1.3284 -0.33262,0 -1.0596,0.0475 -1.6155,0.10564 -0.99456,0.10396 -1.0176,0.11767 -1.4364,0.85715 -0.23411,0.41332 -0.63496,1.0885 -0.89078,1.5005 -0.2558,0.41195 -0.46511,0.83693 -0.46511,0.94441 0,0.10748 -0.49853,0.69889 -1.1078,1.3143 -0.79347,0.80139 -1.3279,1.1936 -1.8833,1.3821 -1.0054,0.34135 -1.0705,0.33631 -1.7668,-0.1368 -0.88818,-0.60353 -0.89133,-1.028 -0.0219,-2.9453 0.40756,-0.89881 0.80483,-1.704 0.88282,-1.7893 0.24094,-0.26354 0.16105,-1.0722 -0.11642,-1.1787 -0.28519,-0.10943 -1.3394,0.42392 -2.1275,1.0764 -0.27949,0.23138 -1.2153,1.238 -2.0797,2.2368 -0.8764,1.0128 -1.7891,1.9062 -2.0633,2.0198 -0.27044,0.11202 -0.49172,0.26823 -0.49172,0.34714 0,0.0789 -0.12857,0.14373 -0.28571,0.14406 -0.15715,0 -0.52572,0.14694 -0.81906,0.3258 -0.36235,0.22093 -0.96426,0.35745 -1.8776,0.42586 -1.2111,0.0907 -1.3825,0.067 -1.731,-0.2393 l 4.4e-4,4e-5 c -0.2127,-0.18701 -0.51816,-0.38172 -0.67879,-0.43271 -0.16064,-0.051 -0.33328,-0.20009 -0.38365,-0.33138 -0.11642,-0.30336 -0.71902,-0.30522 -1.4389,-0.004 -0.313,0.13077 -1.2562,0.25698 -2.1352,0.28571 l -1.5746,0.0515 -0.72301,-0.70937 c -0.4885,-0.4793 -0.75301,-0.8944 -0.81557,-1.2799 -0.16575,-1.0214 -0.82939,-1.3739 -1.3059,-0.69365 -0.73138,1.0442 -4.6882,2.5729 -6.0678,2.3443 -1.0943,-0.18132 -2.4818,-1.0825 -2.9738,-1.9315 -0.27895,-0.48137 -0.25608,-1.4446 0.0526,-2.2161 0.35006,-0.8749 0.22271,-1.1451 -0.54309,-1.1522 -0.33955,-0.003 -1.0949,-0.12001 -1.6786,-0.25967 -1.8392,-0.4401 -2.2769,-0.46082 -2.535,-0.12 -0.12657,0.16707 -0.23643,0.41398 -0.24417,0.54867 -0.008,0.13469 -0.30305,0.72245 -0.65626,1.3061 -0.35322,0.58368 -0.75263,1.296 -0.88757,1.5829 -0.29804,0.63375 -1.401,1.4212 -2.3477,1.6761 -1.2507,0.3368 -2.4495,-0.30899 -3.0514,-1.6438 -0.28403,-0.62988 -0.28202,-0.68972 0.0772,-2.3146 0.59216,-2.6785 0.63706,-2.8924 0.96662,-4.6068 0.17264,-0.89796 0.49811,-2.1469 0.72327,-2.7755 0.22516,-0.6286 0.45461,-1.5643 0.50991,-2.0793 0.11182,-1.0416 0.7738,-2.6481 1.1508,-2.7928 0.39891,-0.15307 0.78346,0.36858 0.69246,0.93932 -0.33705,2.1139 -0.63176,3.5162 -0.8265,3.9328 -0.45326,0.96952 -0.77391,2.2755 -1.0222,4.1633 -0.0531,0.40408 -0.30872,1.4606 -0.56793,2.3478 -0.59166,2.025 -0.59066,2.3468 0.009,3.0036 1.079,1.1813 2.1325,0.37394 3.7761,-2.8936 0.34119,-0.67832 0.67342,-1.4537 0.73827,-1.7231 0.2994,-1.2436 0.96823,-1.5435 1.8282,-0.81982 0.63446,0.53386 2.1465,0.95925 3.4566,0.97246 l 1.0553,0.0106 0.43932,-1.0612 c 0.49871,-1.2046 1.6357,-2.5348 2.3084,-2.7005 0.24752,-0.061 0.71226,-0.0617 1.0327,-0.002 0.48238,0.0905 0.63442,0.22485 0.8832,0.78056 0.28413,0.63463 0.28568,0.70893 0.0285,1.3624 -0.35913,0.91251 -1.6331,2.3031 -2.2419,2.4471 -0.52401,0.12395 -1.377,0.83286 -1.377,1.1444 0,0.10763 -0.10975,0.40613 -0.24389,0.66334 -0.96042,1.8415 1.1206,3.2257 3.6725,2.4428 0.40408,-0.12397 0.9551,-0.3231 1.2245,-0.44251 0.50893,-0.22559 2.1639,-1.3588 2.449,-1.677 0.0898,-0.10021 0.45698,-0.43469 0.81597,-0.74333 0.48472,-0.41673 0.70574,-0.76844 0.85884,-1.3667 0.11339,-0.44304 0.30573,-1.0354 0.42744,-1.3164 0.37062,-0.85559 1.0444,-2.7671 1.1583,-3.2864 0.0591,-0.26938 0.39663,-1.2139 0.75001,-2.0988 0.35337,-0.88498 0.64284,-1.7666 0.64325,-1.9592 0.002,-0.79195 1.2187,-3.1189 1.8682,-3.5721 0.35418,-0.24714 1.2208,-0.12449 1.5398,0.21794 0.34513,0.37045 0.82981,1.4656 0.83613,2.2728 0.0153,1.9592 -1.0475,3.8047 -1.9428,5.5475 z"
         id="believe" />
    </g>
  </g>
</svg>
