<svg xmlns="http://www.w3.org/2000/svg" height="19.574" width="22.133"><path d="M19.19 6.522c0-.18.071-.327.159-.327.44 0 1.298-2.501 1.306-3.807.003-.553-.038-.618-.361-.571-.306.043-.4.222-.588 1.113a19.768 19.768 0 01-.47 1.796c-.335.998-.455 2.122-.226 2.122.098 0 .18-.147.18-.326zM.967 18.932c-.755-.572-.841-.704-.926-1.422-.11-.919.008-2.76.206-3.233C.7 13.191 1.72 9.358 1.72 8.742c0-.201.101-.691.225-1.089s.343-1.127.486-1.62l.534-1.846c.264-.912.293-.946.78-.898.699.068.71.386.09 2.78-.285 1.102-.578 2.335-.652 2.739a24.986 24.986 0 01-.323 1.469c-.105.404-.34 1.322-.524 2.04-.184.72-.47 1.821-.636 2.45-.397 1.505-.389 2.284.03 2.873.278.39.456.474 1 .474 1.026 0 2.176-.709 2.695-1.662.235-.433.48-.787.543-.787.064 0 .242-.33.396-.735.154-.404.33-.735.392-.735.061 0 .284-.364.496-.81.456-.962 1.14-1.302 2.007-1 .723.252 1.34.219 2.808-.151 1.358-.343 3.047-1.113 3.64-1.662.536-.496 1.4-2.947 1.8-5.111.05-.27.146-.564.214-.653.069-.09.178-.42.243-.735.21-1.012.82-2.693 1.201-3.309.417-.674 1.153-.918 2.022-.668 1.262.362 1.261 3.305-.002 5.691-.143.27-.45.857-.684 1.306-.782 1.505-1.722 2.786-2.823 3.849-.337.325-.612.68-.612.79 0 .109-.17.579-.377 1.045-.891 2.001-1.01 2.552-1.015 4.684l-.005 2.04-.43.05c-.327.039-.528-.08-.852-.505-.614-.805-.591-2.206.066-4.008.786-2.152.63-2.72-.552-2.003-.681.413-2.627.834-3.855.834-1.28 0-1.89.316-2.299 1.193a22.743 22.743 0 01-.795 1.5c-.262.45-.549.973-.638 1.163-.173.368-.947 1.042-1.197 1.042-.083 0-.42.183-.751.408-.482.328-.794.406-1.583.399-.881-.008-1.069-.075-1.816-.641z" stroke-width=".163"/></svg>