<?xml version="1.0" encoding="UTF-8" standalone="no"?>
<svg
   xmlns:dc="http://purl.org/dc/elements/1.1/"
   xmlns:cc="http://creativecommons.org/ns#"
   xmlns:rdf="http://www.w3.org/1999/02/22-rdf-syntax-ns#"
   xmlns:svg="http://www.w3.org/2000/svg"
   xmlns="http://www.w3.org/2000/svg"
   id="svg2094"
   viewBox="0 0 22.132758 19.574192"
   version="1.1"
   height="19.574192"
   width="22.132759">
  <defs
     id="defs2098" />
  <metadata
     id="metadata2">
    <rdf:RDF>
      <cc:Work
         rdf:about="">
        <dc:format>image/svg+xml</dc:format>
        <dc:type
           rdf:resource="http://purl.org/dc/dcmitype/StillImage" />
        <dc:title />
      </cc:Work>
    </rdf:RDF>
  </metadata>
  <g
     transform="translate(-612.48066,-579.43811)"
     id="g2092">
    <g
       style="stroke-width:0.16327"
       id="g2081">
      <path
         d="m 631.67,585.96 c 0,-0.17959 0.0718,-0.32653 0.1595,-0.32653 0.43982,0 1.298,-2.5017 1.306,-3.8073 0.003,-0.55297 -0.0375,-0.61769 -0.36083,-0.57143 -0.30633,0.0438 -0.40041,0.22199 -0.58793,1.1134 -0.12281,0.58367 -0.33424,1.3918 -0.46988,1.7959 -0.33518,0.99856 -0.45518,2.1224 -0.22661,2.1224 0.0988,0 0.1797,-0.14694 0.1797,-0.32653 z m -18.221,12.411 c -0.75555,-0.57281 -0.84165,-0.70501 -0.92667,-1.4228 -0.10883,-0.91896 0.008,-2.7592 0.20601,-3.2331 0.45261,-1.0855 1.472,-4.9187 1.472,-5.5351 0,-0.20124 0.10143,-0.69123 0.22542,-1.0889 0.12396,-0.39762 0.34248,-1.127 0.48556,-1.6209 0.14309,-0.49388 0.38351,-1.3242 0.53429,-1.8452 0.26387,-0.91175 0.29309,-0.9454 0.77974,-0.89796 0.69907,0.0681 0.7094,0.38562 0.0905,2.7795 -0.28503,1.1025 -0.57837,2.3351 -0.65187,2.7392 -0.0735,0.4041 -0.21905,1.0653 -0.32348,1.4694 -0.10442,0.40408 -0.34024,1.3224 -0.52405,2.0408 -0.1838,0.71836 -0.46984,1.8204 -0.63564,2.449 -0.39714,1.5056 -0.38885,2.2837 0.0306,2.8728 0.27746,0.38966 0.45543,0.47419 0.99832,0.47419 1.0271,0 2.177,-0.7088 2.6956,-1.6616 0.23567,-0.43303 0.48032,-0.78733 0.54366,-0.78733 0.0633,0 0.24138,-0.33062 0.3957,-0.7347 0.15434,-0.40408 0.33065,-0.73469 0.39181,-0.73469 0.0612,0 0.28429,-0.36456 0.49583,-0.81012 0.45672,-0.96196 1.1401,-1.3024 2.0074,-1.0001 0.72245,0.25185 1.339,0.2186 2.8077,-0.15148 1.3587,-0.34235 3.0475,-1.1132 3.6401,-1.6615 0.53659,-0.4965 1.3994,-2.9468 1.8,-5.1116 0.0498,-0.26938 0.14638,-0.56326 0.21453,-0.65306 0.0681,-0.0898 0.17736,-0.42041 0.24271,-0.73469 0.21034,-1.0117 0.82074,-2.6928 1.2013,-3.3085 0.41703,-0.67474 1.1524,-0.91809 2.0214,-0.66886 1.2619,0.36192 1.2613,3.3051 -0.002,5.6916 -0.14249,0.26939 -0.45007,0.85715 -0.68349,1.3061 -0.78217,1.5046 -1.7221,2.786 -2.8231,3.8487 -0.33674,0.32501 -0.61225,0.68026 -0.61225,0.78941 0,0.10916 -0.16968,0.57962 -0.37707,1.0455 -0.89109,2.0016 -1.0105,2.5524 -1.0152,4.6838 l -0.005,2.0408 -0.42899,0.0502 c -0.32768,0.0383 -0.52903,-0.081 -0.85259,-0.50521 -0.61442,-0.80553 -0.59128,-2.2067 0.0662,-4.0082 0.78535,-2.1519 0.62888,-2.7197 -0.55217,-2.0036 -0.68165,0.41332 -2.6268,0.83417 -3.8555,0.83417 -1.2801,0 -1.8897,0.31639 -2.2985,1.1929 -0.1756,0.37656 -0.53345,1.052 -0.7952,1.501 -0.26173,0.44898 -0.54899,0.97199 -0.63833,1.1622 -0.17292,0.36823 -0.94692,1.0418 -1.1971,1.0418 -0.0824,0 -0.42022,0.18367 -0.75058,0.40816 -0.48224,0.32769 -0.79437,0.40632 -1.5832,0.39879 -0.88124,-0.008 -1.0684,-0.0745 -1.8155,-0.64085 z"
         id="bell" />
    </g>
  </g>
</svg>
