<?xml version="1.0" encoding="UTF-8" standalone="no"?>
<svg
   xmlns:dc="http://purl.org/dc/elements/1.1/"
   xmlns:cc="http://creativecommons.org/ns#"
   xmlns:rdf="http://www.w3.org/1999/02/22-rdf-syntax-ns#"
   xmlns:svg="http://www.w3.org/2000/svg"
   xmlns="http://www.w3.org/2000/svg"
   id="svg2094"
   viewBox="0 0 48.711474 21.429983"
   version="1.1"
   height="21.429983"
   width="48.711475">
  <defs
     id="defs2098" />
  <metadata
     id="metadata2">
    <rdf:RDF>
      <cc:Work
         rdf:about="">
        <dc:format>image/svg+xml</dc:format>
        <dc:type
           rdf:resource="http://purl.org/dc/dcmitype/StillImage" />
        <dc:title />
      </cc:Work>
    </rdf:RDF>
  </metadata>
  <g
     transform="translate(-611.86655,-601.34289)"
     id="g2092">
    <g
       style="stroke-width:0.16327"
       id="g2081">
      <path
         d="m 638.48,609.09 c 0.16513,-0.20994 0.66639,-1.1099 1.1139,-2 0.74168,-1.4752 0.81133,-1.7104 0.78738,-2.6592 -0.0302,-1.1956 -0.33417,-1.7048 -0.7913,-1.3255 -0.33597,0.27883 -0.60539,0.93594 -0.9702,2.3663 -0.16033,0.62857 -0.38782,1.4367 -0.50557,1.7959 -0.35115,1.0713 -0.43563,2.2041 -0.16436,2.2041 0.12645,0 0.36503,-0.17177 0.53017,-0.3817 z m -9.7216,4.6915 c 0.37203,-0.33668 0.13912,-0.84124 -0.21717,-0.97795 -0.31644,-0.12144 -1.2447,0.84225 -1.2483,1.367 -0.003,0.43762 0.68908,0.59235 1.0898,0.22968 z m 13.647,8.8837 c -2.0576,-0.19069 -4.2944,-0.92526 -5.7175,-1.8777 -0.75424,-0.50476 -1.9128,-1.7279 -1.9128,-2.0193 0,-0.0781 -0.14537,-0.21989 -0.32305,-0.31497 -0.27531,-0.14735 -0.44875,-0.0517 -1.174,0.64731 -0.46802,0.45112 -0.88511,0.82021 -0.92684,0.82021 -0.0417,0 -0.31824,0.18483 -0.61443,0.41074 -0.72056,0.54962 -1.8095,1.0026 -2.8901,1.2024 -1.5996,0.29569 -3.4097,-0.49267 -3.8535,-1.6783 -0.0974,-0.26035 -0.17719,-0.92859 -0.17719,-1.485 v -1.0116 l -2.1513,-0.10289 c -2.3717,-0.11345 -2.4155,-0.10036 -2.9108,0.87043 -0.55876,1.0953 -1.5938,2.5218 -2.392,3.297 -1.2924,1.2549 -2.4422,1.5616 -3.6137,0.96367 -0.75151,-0.38356 -1.0084,-0.68694 -1.4966,-1.7678 l -0.38504,-0.85243 0.43761,-2.2374 c 0.24069,-1.2306 0.52165,-2.3387 0.62434,-2.4624 0.10271,-0.12375 0.28613,-0.71701 0.4076,-1.3183 0.12147,-0.60129 0.40813,-2.0117 0.63704,-3.1341 0.22892,-1.1224 0.477,-2.4449 0.5513,-2.9388 0.13066,-0.86836 0.21397,-1.1851 0.49388,-1.8776 0.0726,-0.17959 0.22178,-0.5653 0.33152,-0.85714 0.16154,-0.42955 0.28908,-0.53061 0.66954,-0.53061 0.44052,0 0.46999,0.0415 0.46999,0.66191 0,0.36403 -0.18367,1.3152 -0.40816,2.1136 -0.22449,0.7984 -0.40817,1.7139 -0.40817,2.0344 0,0.3205 -0.108,1.0041 -0.23998,1.519 -0.40336,1.5738 -0.76077,3.0257 -0.91368,3.7118 -0.0801,0.35919 -0.29871,1.3143 -0.48591,2.1224 -0.76673,3.31 -0.75396,3.1349 -0.2658,3.6444 0.23979,0.25029 0.43599,0.53705 0.43599,0.63724 0,0.3722 0.95565,0.41305 1.5106,0.0646 1.2385,-0.7777 2.7911,-2.9383 3.0906,-4.3009 0.30589,-1.3914 0.76756,-1.7046 1.7579,-1.1925 0.68249,0.35295 2.6358,0.63494 3.5001,0.50532 1.084,-0.16254 1.7265,-0.84736 2.2117,-2.3571 0.35049,-1.0906 0.45669,-1.2475 1.1374,-1.6801 0.62991,-0.40036 0.85603,-0.46023 1.4039,-0.37168 1.4551,0.23515 1.7795,1.2863 0.86346,2.7978 -0.28836,0.47579 -0.5719,0.86508 -0.63009,0.86508 -0.0582,0 -0.42837,0.25642 -0.82264,0.56984 -0.39427,0.31342 -0.80869,0.57057 -0.92093,0.57143 -0.11225,0.002 -0.35102,0.14852 -0.53062,0.32812 -0.26274,0.26274 -0.32653,0.54421 -0.32653,1.4409 0,0.95267 0.0547,1.1657 0.37659,1.4682 0.95109,0.8935 3.1319,0.48383 4.8824,-0.91715 2.0813,-1.6657 3.3684,-3.373 3.5681,-4.733 0.0753,-0.51285 0.21946,-1.3365 0.32036,-1.8304 0.10088,-0.49388 0.25682,-1.302 0.34652,-1.7959 0.20099,-1.1069 0.32029,-1.5818 0.94827,-3.7753 0.27311,-0.95398 0.49656,-1.8517 0.49656,-1.995 0,-0.3282 0.62217,-1.5335 1.0577,-2.049 0.63671,-0.7537 0.96323,-0.99381 1.4844,-1.0916 1.0032,-0.1882 1.5068,0.38561 1.8655,2.1254 0.25653,1.2444 0.133,2.0758 -0.47446,3.1937 -0.26839,0.49388 -0.57172,1.0816 -0.67406,1.3061 -0.45286,0.99329 -1.0417,2.0668 -1.2986,2.3674 -0.15348,0.17959 -0.37302,0.67551 -0.4879,1.102 -0.11485,0.42653 -0.27126,0.77551 -0.34756,0.77551 -0.0763,0 -0.29703,0.31225 -0.49051,0.69388 -0.19349,0.38163 -0.39772,0.73061 -0.45386,0.77551 -0.0562,0.0449 -0.24831,0.37551 -0.42706,0.73469 -0.17872,0.35919 -0.38086,0.69463 -0.44919,0.74544 -0.28586,0.21254 -0.77461,1.9698 -0.66757,2.4002 0.061,0.24542 0.48457,0.86694 0.94117,1.3812 0.61741,0.69532 0.94284,0.93595 1.2696,0.93878 0.24163,0.002 0.48188,0.0726 0.53386,0.15673 0.13159,0.21292 1.0632,0.66291 1.3784,0.66578 0.14335,0.002 0.58173,0.11419 0.97417,0.25086 0.49969,0.17402 1.4049,0.25228 3.0204,0.26111 1.9836,0.0108 2.5356,-0.0469 3.9395,-0.41215 0.89796,-0.2336 2.1102,-0.5429 2.6939,-0.68733 1.0396,-0.25724 1.7055,-0.53758 3.3469,-1.4089 0.44898,-0.23834 1.0575,-0.52159 1.3523,-0.62944 0.29481,-0.10784 0.94656,-0.4433 1.4484,-0.74547 0.50178,-0.30216 1.0161,-0.54939 1.143,-0.54939 0.1269,0 0.44743,-0.22179 0.71244,-0.4929 0.61282,-0.6269 1.2605,-0.88858 1.5678,-0.63348 0.45673,0.37907 0.24563,0.86462 -0.69009,1.5873 -0.90676,0.70033 -3.547,2.1513 -3.9146,2.1513 -0.10534,0 -0.28299,0.1102 -0.39478,0.24489 -0.11178,0.1347 -0.30883,0.2449 -0.43787,0.2449 -0.12906,0 -0.8364,0.28452 -1.5719,0.6323 -0.73546,0.34775 -1.5944,0.70888 -1.9086,0.80251 -0.31429,0.0936 -1.3061,0.39107 -2.2041,0.66098 -1.0712,0.32199 -2.1853,0.52702 -3.2397,0.59621 -0.88388,0.058 -1.692,0.12678 -1.7959,0.15283 -0.10387,0.0261 -0.90625,-0.0191 -1.7831,-0.10034 z"
         id="belong" />
    </g>
  </g>
</svg>
