<svg xmlns="http://www.w3.org/2000/svg" height="25.642" width="29.71"><path d="M15.67 11.014c.3-.3.162-.652-.202-.652-.18 0-.53.185-.53.267 0 .083-.231.329-.286.471-.118.309.462.493.752.203zm9.825-1.504c.35-.41 1.411-2.41 1.7-3.202.136-.372.355-1.116.489-1.655.133-.539.315-1.252.404-1.585.225-.841.053-1.435-.416-1.435-.283 0-.394.119-.471.506-.056.278-.27.706-.476.951-.218.259-.502.988-.678 1.739a26.13 26.13 0 01-.77 2.554c-.686 1.858-.565 3.046.218 2.127zm-3.397 9.328c-.335-.505-.654-1.185-.709-1.51-.123-.73-.425-.72-1.383.05-1.44 1.157-3.53 1.914-5.316 1.926-1.034.007-1.147-.032-2.017-.674-.507-.375-.922-.778-.922-.896s-.12-.454-.265-.746c-.287-.574-.22-2.018.121-2.657.133-.247.122-.378-.044-.53-.194-.176-2.365-.58-3.106-.578-.394.002-1.277.794-1.277 1.146 0 .165-.174.507-.385.761-.212.254-.531.792-.71 1.197-.616 1.39-2.302 2.608-3.615 2.61-1.086.004-2.48-1.576-2.47-2.8.005-.645.636-3.5 1.131-5.117.74-2.414 1.07-3.944 1.317-6.122.192-1.691.501-2.477 1.1-2.798.322-.172.414-.167.543.03.187.287.043 2.013-.273 3.281-.127.507-.23 1.15-.23 1.427 0 .278-.213 1.186-.473 2.017-.26.832-.52 1.835-.577 2.23a7.838 7.838 0 01-.405 1.47c-.603 1.511-.846 3.771-.458 4.276.597.778 1.71.68 2.57-.226.48-.505 1.559-2.588 1.942-3.75.102-.309.364-.73.583-.935.372-.35.455-.362 1.342-.195.52.098 1.612.227 2.427.286 1.737.127 2.378-.096 2.739-.954.34-.808 1.472-1.816 2.172-1.934.944-.159 1.407.041 1.665.719.22.576.208.623-.358 1.475-.575.867-.802 1.023-2.881 1.976-.625.287-1.14 1.337-1.143 2.333-.002.77.06.915.648 1.534l.65.683 1.226-.092c.81-.062 1.537-.235 2.145-.514.505-.231 1.016-.42 1.134-.42.119 0 .564-.302.99-.67.425-.37.926-.743 1.112-.832.8-.384 1.79-2.285 2.057-3.956.19-1.187.583-2.512 1.07-3.604.12-.27.266-.784.324-1.143.17-1.035.722-2.653.979-2.866.128-.107.234-.302.234-.435 0-.132.105-.435.234-.674.129-.238.28-.648.337-.91C26 1.132 27.212 0 27.72 0c.794 0 1.99.973 1.99 1.619-.001.61-.46 2.916-.653 3.277-.09.169-.164.436-.164.593 0 .27-.455 1.381-.86 2.103-.1.18-.46.877-.797 1.55-.338.674-.801 1.398-1.03 1.61-.228.211-.417.468-.418.571-.002.103-.37.574-.817 1.047-.447.472-.813.968-.813 1.102 0 .133-.077.242-.172.242-.294 0-.786 1.345-.9 2.46-.1.975-.073 1.114.327 1.704.472.696.462 1.298-.03 1.673-.454.347-.656.235-1.286-.714zm3.476 6.686c-.266-.266-.06-.985.534-1.854.779-1.141.93-1.833.645-2.946-.198-.772-.19-.858.086-1.06.255-.187.374-.184.766.018.617.32.8.705.8 1.692 0 1.154-.524 2.372-1.637 3.81-.325.42-.94.595-1.194.34z" stroke-width=".163"/></svg>