<svg xmlns="http://www.w3.org/2000/svg" height="21.43" width="48.711"><path d="M26.613 7.747c.166-.21.667-1.11 1.114-2 .742-1.475.812-1.71.788-2.66-.03-1.195-.334-1.704-.792-1.325-.336.28-.605.936-.97 2.367-.16.628-.388 1.436-.505 1.796-.351 1.07-.436 2.204-.165 2.204.127 0 .365-.172.53-.382zm-9.721 4.692c.372-.337.139-.842-.217-.978-.317-.122-1.245.842-1.249 1.367-.003.437.69.592 1.09.23zm13.647 8.883c-2.058-.19-4.295-.925-5.718-1.877-.754-.505-1.912-1.728-1.912-2.02 0-.078-.146-.22-.323-.315-.276-.147-.45-.051-1.174.648-.469.45-.886.82-.927.82-.042 0-.319.185-.615.41-.72.55-1.81 1.003-2.89 1.203-1.6.296-3.41-.493-3.853-1.678-.098-.26-.178-.929-.178-1.485v-1.012l-2.15-.103c-2.373-.113-2.416-.1-2.912.87-.558 1.096-1.593 2.522-2.392 3.298-1.292 1.255-2.442 1.561-3.613.963-.752-.383-1.009-.687-1.497-1.767L0 18.424l.438-2.237c.24-1.23.521-2.339.624-2.463.103-.123.286-.717.408-1.318.121-.601.408-2.012.637-3.134.229-1.123.477-2.445.55-2.939.132-.868.215-1.185.495-1.878.072-.18.222-.565.331-.857.162-.43.29-.53.67-.53.44 0 .47.041.47.662 0 .364-.184 1.315-.408 2.113-.225.799-.409 1.714-.409 2.035 0 .32-.108 1.004-.24 1.519-.403 1.573-.76 3.025-.913 3.711-.08.36-.299 1.315-.486 2.123-.767 3.31-.754 3.135-.266 3.644.24.25.436.537.436.637 0 .373.956.414 1.51.065 1.24-.778 2.792-2.938 3.091-4.3.306-1.392.768-1.705 1.758-1.193.683.353 2.636.635 3.5.505 1.084-.163 1.727-.847 2.212-2.357.35-1.09.457-1.248 1.137-1.68.63-.4.856-.46 1.404-.372 1.455.235 1.78 1.286.864 2.798-.289.476-.572.865-.63.865-.059 0-.429.256-.823.57-.394.313-.809.57-.92.571-.113.002-.352.149-.532.328-.262.263-.326.545-.326 1.441 0 .953.055 1.166.377 1.468.95.894 3.131.484 4.882-.917 2.081-1.665 3.368-3.373 3.568-4.733.075-.513.22-1.336.32-1.83.101-.494.257-1.302.347-1.796.2-1.107.32-1.582.948-3.775.273-.954.497-1.852.497-1.995 0-.328.622-1.534 1.057-2.05.637-.753.964-.993 1.485-1.09 1.003-.19 1.507.385 1.865 2.125.257 1.244.133 2.075-.474 3.193a29.21 29.21 0 00-.674 1.306c-.453.994-1.042 2.067-1.299 2.368-.153.18-.373.675-.488 1.102-.115.426-.27.775-.347.775-.077 0-.297.313-.49.694-.194.382-.398.73-.455.776-.056.045-.248.375-.427.734-.178.36-.38.695-.449.746-.286.212-.774 1.97-.667 2.4.06.245.484.867.94 1.381.618.695.944.936 1.27.939.242.002.482.073.534.157.132.213 1.063.663 1.379.665.143.002.581.115.974.251.5.174 1.405.253 3.02.261 1.984.011 2.536-.046 3.94-.412.898-.233 2.11-.543 2.694-.687 1.04-.257 1.705-.538 3.346-1.409a13.806 13.806 0 011.353-.63c.295-.107.946-.443 1.448-.745s1.016-.55 1.143-.55.448-.221.713-.492c.612-.627 1.26-.889 1.567-.634.457.38.246.865-.69 1.588-.906.7-3.547 2.151-3.914 2.151-.106 0-.283.11-.395.245-.112.135-.309.245-.438.245s-.836.284-1.572.632c-.735.348-1.594.709-1.908.803-.315.093-1.307.39-2.205.66a14.771 14.771 0 01-3.24.597c-.883.058-1.691.127-1.795.153-.104.026-.906-.02-1.783-.1z"/></svg>