<?xml version="1.0" encoding="UTF-8" standalone="no"?>
<svg
   xmlns:dc="http://purl.org/dc/elements/1.1/"
   xmlns:cc="http://creativecommons.org/ns#"
   xmlns:rdf="http://www.w3.org/1999/02/22-rdf-syntax-ns#"
   xmlns:svg="http://www.w3.org/2000/svg"
   xmlns="http://www.w3.org/2000/svg"
   id="svg2094"
   viewBox="0 0 29.710084 25.642469"
   version="1.1"
   height="25.642469"
   width="29.710085">
  <defs
     id="defs2098" />
  <metadata
     id="metadata2">
    <rdf:RDF>
      <cc:Work
         rdf:about="">
        <dc:format>image/svg+xml</dc:format>
        <dc:type
           rdf:resource="http://purl.org/dc/dcmitype/StillImage" />
        <dc:title />
      </cc:Work>
    </rdf:RDF>
  </metadata>
  <g
     transform="translate(-611.60077,-626.2861)"
     id="g2092">
    <g
       style="stroke-width:0.16327"
       id="g2090">
      <path
         d="m 627.27,637.3 c 0.30044,-0.30044 0.16277,-0.65166 -0.20092,-0.65166 -0.17959,0 -0.52965,0.18468 -0.52965,0.26709 0,0.0824 -0.2321,0.32862 -0.2866,0.47066 -0.11849,0.30875 0.46198,0.49254 0.75155,0.20293 z m 9.8258,-1.5036 c 0.3499,-0.41048 1.4114,-2.4098 1.7004,-3.2026 0.13531,-0.3712 0.35507,-1.1157 0.48837,-1.6545 0.13329,-0.53878 0.31527,-1.2523 0.40438,-1.5856 0.22475,-0.84057 0.0524,-1.4348 -0.41605,-1.4348 -0.2832,0 -0.39381,0.11878 -0.47126,0.50606 -0.0557,0.27833 -0.2698,0.7064 -0.47582,0.95125 -0.21756,0.25855 -0.50183,0.98759 -0.67803,1.7388 -0.16687,0.71151 -0.51296,1.8607 -0.76908,2.5537 -0.68682,1.8585 -0.56568,3.046 0.21706,2.1277 z m -3.3968,9.3273 c -0.33497,-0.50465 -0.65403,-1.1842 -0.709,-1.5102 -0.12315,-0.73024 -0.42548,-0.71923 -1.3831,0.0503 -1.4405,1.1576 -3.5306,1.9148 -5.3161,1.926 -1.0344,0.007 -1.1474,-0.0313 -2.0173,-0.67396 -0.50688,-0.37445 -0.92159,-0.77742 -0.92159,-0.89548 0,-0.11807 -0.11941,-0.45404 -0.26537,-0.74661 -0.28635,-0.57401 -0.22032,-2.0178 0.12149,-2.6565 0.13234,-0.24728 0.1214,-0.37809 -0.0443,-0.52947 -0.19351,-0.17683 -2.365,-0.58117 -3.1055,-0.57825 -0.39436,0.002 -1.2778,0.79383 -1.2778,1.1459 0,0.16472 -0.17319,0.50717 -0.38488,0.76099 -0.21169,0.25383 -0.53125,0.79212 -0.71014,1.1962 -0.61551,1.3903 -2.3015,2.6082 -3.615,2.6113 -1.0856,0.003 -2.4787,-1.577 -2.4696,-2.8001 0.005,-0.64588 0.63589,-3.5002 1.1314,-5.1173 0.73987,-2.4147 1.0688,-3.9447 1.3163,-6.1224 0.19219,-1.6913 0.50133,-2.4774 1.1004,-2.7979 0.32212,-0.1724 0.41364,-0.16734 0.54259,0.03 0.18717,0.2864 0.0436,2.0127 -0.27296,3.2813 -0.12645,0.50684 -0.22991,1.1488 -0.22991,1.4266 0,0.2778 -0.21285,1.1856 -0.473,2.0172 -0.26015,0.83169 -0.51988,1.8352 -0.57719,2.23 -0.0573,0.39479 -0.23923,1.056 -0.40429,1.4694 -0.60366,1.5118 -0.84606,3.7714 -0.4587,4.2759 0.59772,0.7785 1.7094,0.68098 2.5707,-0.2255 0.47944,-0.50461 1.5586,-2.5884 1.9418,-3.7497 0.10208,-0.30931 0.36428,-0.73024 0.58266,-0.9354 0.37246,-0.34991 0.45566,-0.36199 1.3422,-0.19503 0.51982,0.0979 1.612,0.22671 2.427,0.28623 1.7366,0.12685 2.3777,-0.0964 2.7389,-0.95376 0.34076,-0.80873 1.4719,-1.816 2.1718,-1.934 0.9441,-0.15912 1.4075,0.0408 1.6654,0.71842 0.21943,0.57652 0.20821,0.62276 -0.35778,1.4755 -0.57543,0.86689 -0.8024,1.0225 -2.8816,1.9759 -0.62503,0.28659 -1.1395,1.3368 -1.1426,2.3326 -0.002,0.76979 0.0589,0.91497 0.64769,1.534 l 0.6504,0.68371 1.2255,-0.0927 c 0.8105,-0.0613 1.5369,-0.23522 2.1448,-0.51355 0.50562,-0.2315 1.0162,-0.42088 1.1346,-0.42088 0.1184,0 0.56361,-0.30151 0.98937,-0.67001 0.42578,-0.36851 0.92616,-0.74278 1.112,-0.83172 0.80119,-0.3835 1.7901,-2.2846 2.0573,-3.9552 0.19001,-1.1878 0.58297,-2.5123 1.0694,-3.6043 0.12,-0.26939 0.26632,-0.78367 0.32516,-1.1429 0.16962,-1.0353 0.7218,-2.6531 0.97814,-2.8659 0.12891,-0.10699 0.23438,-0.30276 0.23438,-0.43506 0,-0.13227 0.10538,-0.43552 0.23416,-0.67387 0.12878,-0.23836 0.28031,-0.64807 0.33672,-0.9105 0.12792,-0.5952 1.339,-1.7269 1.848,-1.7269 0.79401,0 1.9894,0.97273 1.9893,1.6188 -3e-5,0.61013 -0.45882,2.9163 -0.65195,3.2771 -0.0904,0.1689 -0.16434,0.43566 -0.16434,0.5928 0,0.26939 -0.45481,1.3818 -0.8598,2.1031 -0.10085,0.17959 -0.45969,0.87755 -0.79742,1.551 -0.33773,0.67345 -0.80098,1.3975 -1.0294,1.609 -0.22846,0.21146 -0.41682,0.4686 -0.41856,0.57142 -0.002,0.10281 -0.36911,0.57375 -0.81633,1.0465 -0.44723,0.47276 -0.81314,0.96868 -0.81314,1.102 0,0.13333 -0.0776,0.24244 -0.17244,0.24244 -0.29349,0 -0.78529,1.3448 -0.89951,2.4596 -0.0999,0.97516 -0.0732,1.1144 0.32705,1.7042 0.47224,0.69588 0.46148,1.2976 -0.0299,1.673 -0.45463,0.34728 -0.6563,0.23543 -1.2861,-0.71349 z m 3.476,6.6863 c -0.26634,-0.26632 -0.0595,-0.9851 0.53353,-1.8539 0.77897,-1.1412 0.9305,-1.8328 0.64533,-2.9455 -0.19788,-0.7721 -0.19085,-0.85844 0.0864,-1.0612 0.25486,-0.18637 0.37386,-0.18343 0.76513,0.0189 0.61742,0.31928 0.79952,0.70457 0.79952,1.6916 0,1.1543 -0.5231,2.3722 -1.6364,3.81 -0.3251,0.41983 -0.93894,0.59476 -1.1936,0.34013 z"
         id="below" />
    </g>
  </g>
</svg>
