<?xml version="1.0" encoding="UTF-8" standalone="no"?>
<svg
   xmlns:dc="http://purl.org/dc/elements/1.1/"
   xmlns:cc="http://creativecommons.org/ns#"
   xmlns:rdf="http://www.w3.org/1999/02/22-rdf-syntax-ns#"
   xmlns:svg="http://www.w3.org/2000/svg"
   xmlns="http://www.w3.org/2000/svg"
   id="svg2094"
   viewBox="0 0 28.29524 21.371403"
   version="1.1"
   height="21.371403"
   width="28.29524">
  <defs
     id="defs2098" />
  <metadata
     id="metadata2">
    <rdf:RDF>
      <cc:Work
         rdf:about="">
        <dc:format>image/svg+xml</dc:format>
        <dc:type
           rdf:resource="http://purl.org/dc/dcmitype/StillImage" />
        <dc:title />
      </cc:Work>
    </rdf:RDF>
  </metadata>
  <g
     transform="translate(-612.19261,-648.17734)"
     id="g2092">
    <g
       style="stroke-width:0.16327"
       id="g2081">
      <path
         d="m 630.09,655.01 c 0.42111,-0.81286 0.76567,-1.635 0.76567,-1.8269 0,-0.19192 0.0828,-0.75746 0.18408,-1.2567 0.23223,-1.1453 -0.021,-2.2955 -0.50532,-2.2955 -0.34258,0 -0.72301,1.0709 -1.0071,2.8352 -0.0859,0.53332 -0.22201,1.0927 -0.30248,1.2431 -0.0805,0.15037 -0.1974,0.83713 -0.25985,1.5261 -0.15675,1.7298 0.14334,1.6697 1.125,-0.22524 z m -16.622,14.238 c -0.64921,-0.39693 -0.81574,-0.6216 -1.1102,-1.4978 -0.18635,-0.55459 -0.21015,-0.91862 -0.096,-1.4694 0.0834,-0.40267 0.216,-1.173 0.29457,-1.7117 0.0786,-0.53877 0.26623,-1.4939 0.41701,-2.1224 0.15079,-0.62857 0.33512,-1.6571 0.40962,-2.2857 0.58199,-4.9103 1.2468,-7.4286 1.961,-7.4286 0.67759,0 0.79672,1.3566 0.2392,2.7239 -0.11657,0.28589 -0.2953,1.241 -0.39719,2.1224 -0.18922,1.6371 -0.42521,3.0148 -0.66607,3.8884 -0.0743,0.26939 -0.18392,1.0041 -0.24368,1.6327 -0.0597,0.62857 -0.20986,1.5837 -0.33358,2.1224 -0.30106,1.311 -0.2794,1.8867 0.0875,2.3265 0.25282,0.30306 0.47122,0.36734 1.248,0.36734 h 0.94159 l 1.0256,-1.102 c 0.99456,-1.0687 1.5286,-2.1099 1.5286,-2.9802 0,-0.39286 0.28585,-1.0008 0.55506,-1.1806 0.27236,-0.18186 0.88152,-0.14821 1.2274,0.0678 0.40506,0.25296 1.9356,-0.0688 2.932,-0.61643 0.39293,-0.21596 0.8002,-0.39265 0.90502,-0.39265 0.10481,0 0.53729,-0.36735 0.96104,-0.81633 0.42376,-0.44898 0.82887,-0.81632 0.90025,-0.81632 0.0714,0 0.26511,-0.53266 0.43051,-1.1837 0.1654,-0.65104 0.39997,-1.3821 0.52126,-1.6245 0.1213,-0.24249 0.22054,-0.62476 0.22054,-0.84947 0,-0.22472 0.0668,-0.57736 0.14853,-0.78361 0.0817,-0.20627 0.23991,-0.92606 0.35158,-1.5995 0.3754,-2.264 0.93646,-4.2678 1.4097,-5.035 0.43849,-0.71077 0.51966,-0.76419 1.2315,-0.81038 0.73783,-0.0479 0.77657,-0.0271 1.2186,0.65306 0.42085,0.64769 0.45574,0.82356 0.44715,2.2535 -0.008,1.3149 -0.091,1.7872 -0.54584,3.102 -0.3123,0.9028 -0.85787,2.0286 -1.3054,2.6939 -0.4229,0.62858 -0.81782,1.2714 -0.87761,1.4286 -0.0598,0.15714 -0.22121,0.28571 -0.35871,0.28571 -0.13752,0 -0.25003,0.0787 -0.25003,0.17482 0,0.0962 -0.3239,0.6288 -0.71977,1.1837 -0.39588,0.55487 -0.83392,1.3027 -0.97343,1.6619 -0.75285,1.9383 -1.0029,4.8266 -0.47006,5.4306 0.5392,0.6112 1.5547,0.87066 2.7469,0.70182 1.7521,-0.24813 3.0195,-1.0588 4.573,-2.925 0.4967,-0.5967 1.0347,-1.2318 1.1955,-1.4114 0.16082,-0.1796 0.38234,-0.60102 0.49225,-0.93651 0.10993,-0.33548 0.27491,-0.65636 0.36664,-0.71304 0.24004,-0.14836 1.1079,-2.1209 1.3724,-3.1196 0.12396,-0.46792 0.36697,-1.1149 0.54003,-1.4378 0.17304,-0.32288 0.444,-1.0788 0.60212,-1.6799 0.35639,-1.3547 0.46692,-1.501 1.1341,-1.501 0.9977,0 0.98018,0.69976 -0.0842,3.3628 -0.44898,1.1234 -0.81632,2.1818 -0.81632,2.3521 0,0.17025 -0.21786,0.63236 -0.48413,1.0269 -0.26627,0.39455 -0.55726,0.9097 -0.64665,1.1448 -0.17407,0.45786 -1.1549,5.0854 -1.1549,5.4488 0,0.11979 0.18368,0.3775 0.40817,0.57269 0.30218,0.26276 0.40816,0.51681 0.40816,0.97851 v 0.62363 l -1.551,-0.004 -0.46947,-1.2221 c -0.32167,-0.83737 -0.4386,-1.3764 -0.37143,-1.7122 0.14374,-0.71868 -0.19744,-0.62831 -1.1358,0.30084 -0.44619,0.44179 -1.4382,1.1288 -2.2472,1.5563 -1.3212,0.69812 -1.5576,0.76829 -2.6939,0.79985 -1.4292,0.0397 -2.2663,-0.27954 -3.3454,-1.2757 l -0.63045,-0.582 0.0916,-1.6651 c 0.0504,-0.9158 0.14038,-1.9039 0.2,-2.1957 0.0928,-0.45407 0.0626,-0.53061 -0.20942,-0.53061 -0.17482,0 -0.36661,0.0487 -0.42618,0.10834 -0.23694,0.23692 -1.8486,0.70743 -3.0566,0.89236 l -1.277,0.1955 -0.41849,0.93252 c -0.23017,0.51288 -0.41849,0.9815 -0.41849,1.0414 0,0.0599 -0.14694,0.26658 -0.32653,0.45934 -0.1796,0.19277 -0.32658,0.42848 -0.32663,0.52379 -1.5e-4,0.3031 -2.1051,2.0687 -2.654,2.2261 -0.87046,0.24965 -2.114,0.17959 -2.6521,-0.1494 z"
         id="belt" />
    </g>
  </g>
</svg>
