<svg xmlns="http://www.w3.org/2000/svg" height="21.371" width="28.295"><path d="M17.897 6.833c.422-.813.766-1.635.766-1.827 0-.192.083-.758.184-1.257.232-1.145-.02-2.295-.505-2.295-.343 0-.723 1.07-1.007 2.835-.086.533-.222 1.092-.303 1.243-.08.15-.197.837-.26 1.526-.156 1.73.144 1.67 1.125-.225zM1.275 21.07c-.649-.397-.815-.622-1.11-1.498-.186-.555-.21-.919-.096-1.47.084-.402.216-1.173.295-1.711.078-.539.266-1.494.417-2.123.15-.628.335-1.657.41-2.285.581-4.91 1.246-7.429 1.96-7.429.678 0 .797 1.357.24 2.724-.117.286-.296 1.241-.398 2.122-.189 1.637-.425 3.015-.666 3.889-.074.27-.184 1.004-.243 1.632a19.93 19.93 0 01-.334 2.123c-.301 1.31-.28 1.887.088 2.326.252.303.47.368 1.248.368h.941l1.026-1.102c.994-1.069 1.528-2.11 1.528-2.98 0-.393.286-1.001.555-1.181.273-.182.882-.148 1.228.068.405.253 1.935-.07 2.932-.617.393-.216.8-.392.905-.392.105 0 .537-.368.96-.817.425-.449.83-.816.901-.816.072 0 .265-.533.43-1.184.166-.65.4-1.382.522-1.624.121-.243.22-.625.22-.85 0-.224.067-.577.149-.783.082-.207.24-.926.352-1.6.375-2.264.936-4.268 1.41-5.035.438-.71.519-.764 1.23-.81.739-.048.777-.027 1.22.653.42.648.455.823.447 2.253-.008 1.315-.091 1.788-.546 3.102-.313.903-.858 2.029-1.306 2.694-.423.629-.818 1.272-.877 1.429-.06.157-.222.286-.36.286-.137 0-.25.078-.25.174 0 .097-.323.63-.719 1.184-.396.555-.834 1.303-.973 1.662-.753 1.938-1.003 4.827-.47 5.43.539.612 1.554.871 2.747.702 1.752-.248 3.02-1.058 4.573-2.925a81.864 81.864 0 011.195-1.411c.16-.18.382-.601.492-.936.11-.336.275-.657.367-.714.24-.148 1.108-2.12 1.372-3.12.124-.467.367-1.114.54-1.437.173-.323.444-1.079.602-1.68.357-1.355.467-1.5 1.135-1.5.997 0 .98.699-.085 3.362-.449 1.123-.816 2.182-.816 2.352 0 .17-.218.632-.484 1.027-.266.395-.557.91-.647 1.145-.174.458-1.155 5.085-1.155 5.449 0 .12.184.377.409.572.302.263.408.517.408.979v.623l-1.551-.004-.47-1.222c-.321-.837-.438-1.376-.371-1.712.144-.719-.198-.628-1.136.3-.446.443-1.438 1.13-2.247 1.557-1.321.698-1.558.769-2.694.8-1.43.04-2.266-.28-3.345-1.276l-.63-.582.09-1.665c.051-.916.141-1.904.2-2.195.093-.454.063-.531-.209-.531-.175 0-.366.049-.426.108-.237.237-1.849.708-3.057.893l-1.277.195-.418.933c-.23.513-.419.981-.419 1.041 0 .06-.146.267-.326.46-.18.192-.327.428-.327.523 0 .303-2.105 2.069-2.654 2.226-.87.25-2.114.18-2.652-.15z" stroke-width=".163"/></svg>