<?xml version="1.0" encoding="UTF-8" standalone="no"?>
<svg
   xmlns:dc="http://purl.org/dc/elements/1.1/"
   xmlns:cc="http://creativecommons.org/ns#"
   xmlns:rdf="http://www.w3.org/1999/02/22-rdf-syntax-ns#"
   xmlns:svg="http://www.w3.org/2000/svg"
   xmlns="http://www.w3.org/2000/svg"
   id="svg2094"
   viewBox="0 0 53.037665 35.420204"
   version="1.1"
   height="35.420204"
   width="53.037666">
  <defs
     id="defs2098" />
  <metadata
     id="metadata2">
    <rdf:RDF>
      <cc:Work
         rdf:about="">
        <dc:format>image/svg+xml</dc:format>
        <dc:type
           rdf:resource="http://purl.org/dc/dcmitype/StillImage" />
        <dc:title />
      </cc:Work>
    </rdf:RDF>
  </metadata>
  <g
     transform="translate(-612.39966,-674.29691)"
     id="g2092">
    <g
       style="stroke-width:0.16327"
       id="g2090">
      <path
         d="m 641.76,687.3 c 0.30044,-0.30044 0.11707,-1.1342 -0.24662,-1.1342 -0.17959,0 -0.59722,0.49839 -0.59722,0.5808 0,0.0824 -0.0557,0.53681 -0.11015,0.67885 -0.11849,0.30875 0.43792,0.51212 0.72749,0.22251 z m 16.563,-7.6574 c -0.32679,-0.32679 -0.22063,-0.93962 0.23608,-1.3629 0.50466,-0.46769 0.9065,-0.50793 1.2857,-0.12875 0.29113,0.29114 0.2359,1.056 -0.106,1.4679 -0.22618,0.27255 -1.1514,0.28805 -1.4158,0.0237 z m -6.045,3.4479 c 0.0606,-0.21716 0.30575,-0.98258 0.54482,-1.701 0.23908,-0.71837 0.49229,-1.6 0.56269,-1.9592 0.0704,-0.35919 0.25099,-1.2241 0.40131,-1.922 0.15033,-0.69795 0.22896,-1.3408 0.17471,-1.4286 -0.17435,-0.2821 -0.55429,-0.1708 -0.82444,0.24151 -0.30568,0.46654 -0.85151,2.3863 -1.0464,3.6805 -0.0744,0.49387 -0.21791,1.4094 -0.31894,2.0345 -0.10103,0.6251 -0.14503,1.2373 -0.0978,1.3605 0.12577,0.32777 0.47685,0.14973 0.60405,-0.30633 z m -4.8856,23.782 c 0.42653,-0.5763 0.77551,-1.1221 0.77551,-1.2128 0,-0.0908 0.096,-0.26212 0.21329,-0.38078 0.40526,-0.40991 1.2561,-2.3104 1.2595,-2.8132 0.002,-0.2775 0.11303,-0.98209 0.24702,-1.5658 0.80402,-3.5026 1.0392,-6.4626 0.58139,-7.318 -0.24674,-0.46103 -0.57169,-0.38524 -0.63082,0.14713 -0.0902,0.8124 -0.74152,3.3812 -1.198,4.7251 -0.25982,0.76499 -0.47241,1.5523 -0.47241,1.7496 0,0.19727 -0.12039,0.63667 -0.26753,0.97645 -1.1073,2.557 -2.0422,6.7402 -1.5064,6.7402 0.12258,0 0.57187,-0.47151 0.9984,-1.0478 z m -2.5622,2.4808 c -0.51943,-0.7416 -0.23803,-2.9416 0.71585,-5.5963 0.68087,-1.8949 1.1113,-3.331 1.2354,-4.1216 0.0598,-0.38116 0.17011,-0.73094 0.2451,-0.77728 0.22712,-0.14037 0.77239,-2.0447 0.95809,-3.346 0.0961,-0.67347 0.21949,-1.4816 0.27422,-1.7959 0.18021,-1.0348 0.26671,-2.449 0.14983,-2.449 -0.0631,0 -0.36913,0.29016 -0.67999,0.6448 -0.72073,0.82222 -2.7393,1.8598 -4.1544,2.1355 -0.88668,0.1727 -1.2647,0.17256 -2.0816,0 -0.549,-0.1165 -0.99819,-0.27526 -0.99819,-0.35278 0,-0.0775 -0.10457,-0.14096 -0.23237,-0.14096 -0.12781,0 -0.45065,-0.18368 -0.71744,-0.40817 -0.54296,-0.45686 -1.3503,-0.53938 -1.6574,-0.16939 -0.22429,0.27027 -2.616,1.2311 -3.061,1.2297 -0.62014,-0.002 -1.5753,-0.37059 -1.9619,-0.75722 -0.4034,-0.4034 -0.4043,-0.41145 -0.26802,-2.3947 0.24717,-3.5969 0.14106,-4.0308 -0.98563,-4.0308 -0.78421,0 -1.7211,0.33241 -2.0484,0.72675 -0.11677,0.14068 -0.49662,0.4156 -0.84415,0.61092 -0.34751,0.19531 -0.63183,0.40433 -0.63183,0.46447 0,0.0602 -0.17581,0.29906 -0.39066,0.53089 -0.21486,0.23184 -0.51964,0.75925 -0.67728,1.172 -0.15765,0.41277 -0.34919,0.78918 -0.42566,0.83645 -0.0765,0.0473 -0.13977,0.2469 -0.14066,0.44364 -0.002,0.53445 -0.73534,2.0066 -1.0613,2.1317 -0.15653,0.0601 -0.39174,0.0203 -0.52272,-0.0884 -0.28591,-0.23729 -0.23177,-0.87316 0.26027,-3.0573 0.42465,-1.885 0.45657,-3.2031 0.0826,-3.4124 -0.24736,-0.13842 -3.8429,-0.0956 -4.5532,0.0543 -0.18285,0.0386 -0.45003,0.34003 -0.60719,0.68509 -1.0768,2.3642 -1.4848,3.1544 -1.8099,3.5051 -0.20371,0.21978 -0.64646,0.73655 -0.9839,1.1484 -0.78856,0.96231 -1.4491,1.2821 -2.3133,1.12 -1.3543,-0.25408 -2.2165,-0.96908 -2.4805,-2.057 -0.269,-1.1088 0.37036,-8.5847 0.95631,-11.182 0.0912,-0.40409 0.28916,-1.4982 0.43998,-2.4315 0.24201,-1.4974 0.31842,-1.7131 0.65055,-1.836 0.41641,-0.15404 0.91392,0.0394 1.0564,0.41066 0.0494,0.12865 -0.12913,1.2144 -0.39669,2.4127 -0.7558,3.3852 -0.96038,4.6846 -0.9599,6.0972 0,0.71837 -0.12219,2.151 -0.27207,3.1837 -0.41154,2.8354 -0.0901,3.7551 1.3125,3.7551 0.6026,0 0.78176,-0.0868 1.264,-0.61224 0.96017,-1.0462 1.5924,-2.2574 1.9598,-3.7544 0.1929,-0.78613 0.40075,-1.5346 0.46188,-1.6633 0.21487,-0.45239 0.61551,-0.58227 1.1841,-0.38383 0.35868,0.12516 1.4214,0.1621 3.1902,0.1109 1.6208,-0.0469 2.7717,-0.0129 2.9592,0.0874 0.16876,0.0903 0.46334,0.49716 0.65462,0.9041 0.19129,0.40692 0.45582,0.73986 0.58789,0.73986 0.13205,0 0.47409,-0.25714 0.76008,-0.57142 0.28599,-0.31429 0.63097,-0.57143 0.76661,-0.57143 0.13566,0 0.36263,-0.0988 0.5044,-0.21958 0.44347,-0.37778 1.6227,-0.76005 2.3427,-0.75941 0.83297,0 1.6276,0.44939 2.0929,1.1816 0.31503,0.49574 0.33177,0.69594 0.24496,2.9302 -0.0793,2.0408 -0.0552,2.436 0.16185,2.6531 0.27071,0.27073 1.2044,0.34676 1.4643,0.11927 0.0853,-0.0747 0.45974,-0.22227 0.83208,-0.32804 0.37235,-0.10574 0.7203,-0.30512 0.77323,-0.44305 0.0529,-0.13793 0.35136,-0.35737 0.6632,-0.48767 0.49928,-0.20862 0.60674,-0.3657 0.90024,-1.316 0.18332,-0.59346 0.33329,-1.406 0.33329,-1.8055 0,-0.85858 0.44069,-1.8892 1.1233,-2.6269 0.41509,-0.44862 0.60549,-0.53062 1.2321,-0.53062 0.72872,0 0.74833,0.0142 1.1693,0.84497 0.39205,0.77368 0.41137,0.90108 0.22893,1.5102 -0.10958,0.36588 -0.41123,0.93297 -0.67032,1.2602 -0.2591,0.32721 -0.47108,0.64809 -0.47108,0.71309 0,0.065 -0.29388,0.41203 -0.65306,0.77122 -0.53644,0.53644 -0.65306,0.76566 -0.65306,1.2836 0,0.5702 0.0619,0.6621 0.64656,0.96039 0.80666,0.41153 2.2482,0.43626 3.3594,0.0576 0.63726,-0.21714 1.1493,-0.62585 2.5314,-2.0204 0.95289,-0.96149 1.8646,-2.0266 2.0261,-2.3668 0.16147,-0.34028 0.36502,-1.2128 0.45231,-1.9388 0.0873,-0.72609 0.26185,-1.614 0.38789,-1.9732 0.12604,-0.35919 0.34764,-1.5714 0.49244,-2.6939 0.14482,-1.1224 0.36519,-2.2886 0.48971,-2.5914 0.12453,-0.3028 0.22683,-0.78035 0.22734,-1.0612 0.002,-0.91749 0.30657,-1.6404 1.0194,-2.4165 1.0346,-1.1266 1.9911,-1.2487 2.6532,-0.33882 0.52617,0.72313 0.4032,2.1772 -0.50795,6.0061 -0.2145,0.90142 -0.39001,1.832 -0.39001,2.068 0,0.236 -0.0551,0.45357 -0.12245,0.48351 -0.27912,0.12405 -0.98539,1.2376 -1.0916,1.721 -0.0629,0.28628 -0.33086,0.79299 -0.59553,1.126 -0.26465,0.33303 -0.64149,0.8695 -0.8374,1.1922 -0.19592,0.32264 -0.41434,0.62717 -0.48538,0.67672 -0.14324,0.0999 -0.45951,1.6195 -0.45951,2.2079 0,0.32318 0.10872,0.39224 0.77551,0.49265 1.9321,0.29094 5.1215,-1.1673 7.2661,-3.3222 1.4848,-1.4919 2.0808,-2.1506 2.0808,-2.2999 0,-0.095 0.0984,-0.23153 0.21866,-0.30333 0.2732,-0.16312 1.2332,-1.9099 1.8215,-3.3142 0.24449,-0.58368 0.5741,-1.3184 0.73249,-1.6326 0.1584,-0.31429 0.32952,-1.0015 0.38028,-1.5271 0.10679,-1.1056 0.46267,-1.6145 1.0783,-1.5419 0.32987,0.0389 0.44128,0.17543 0.5619,0.6885 0.10142,0.43137 0.0898,0.80766 -0.0356,1.1544 -0.10232,0.28297 -0.18604,0.68715 -0.18604,0.89821 0,0.21103 -0.10076,0.4997 -0.22392,0.64147 -0.12316,0.14176 -0.34919,0.64259 -0.50228,1.113 -0.1531,0.47038 -0.33982,0.89321 -0.41492,0.93964 -0.0751,0.0464 -0.18668,0.39626 -0.24792,0.77742 -0.0612,0.38118 -0.2513,0.936 -0.42237,1.233 -0.17107,0.29696 -0.31104,0.71463 -0.31104,0.92815 0,0.2135 -0.0835,0.59502 -0.18561,0.8478 -0.18888,0.46768 -0.27156,0.82005 -0.70162,2.9902 -0.3479,1.7556 -0.32349,2.0338 0.23417,2.6689 0.52975,0.60337 0.6227,1.0992 0.26214,1.3984 -0.17664,0.14659 -0.42759,0.0975 -1.12,-0.21927 -0.80785,-0.36952 -0.91179,-0.4774 -1.097,-1.1387 -0.15715,-0.56134 -0.16244,-0.97221 -0.0228,-1.7741 0.19053,-1.0942 0.24064,-2.2413 0.0979,-2.2413 -0.20916,0 -0.87149,0.4608 -1.4909,1.0373 -0.37224,0.34643 -0.8222,0.71396 -0.99987,0.8167 -0.17768,0.10276 -0.75474,0.47948 -1.2824,0.83718 -1.2864,0.87208 -2.3611,1.3663 -3.7348,1.7177 l -1.1429,0.29232 0.0491,0.54735 c 0.18219,2.0288 0.0788,4.4391 -0.27206,6.3433 -0.20683,1.1224 -0.48005,2.2821 -0.60719,2.577 -0.12711,0.29489 -0.23111,0.70973 -0.23111,0.92186 0,0.5311 -0.83277,2.5314 -1.336,3.2091 -0.22763,0.30654 -0.62394,0.93856 -0.88071,1.4045 -0.29642,0.53791 -0.71796,1.0059 -1.1548,1.282 -0.37838,0.23917 -0.72736,0.53755 -0.77552,0.66307 -0.057,0.14839 -0.34311,0.22821 -0.81814,0.22821 -0.56986,0 -0.78647,-0.0798 -0.98472,-0.36286 z"
         id="benefit" />
    </g>
  </g>
</svg>
