<svg xmlns="http://www.w3.org/2000/svg" height="35.42" width="53.038"><path d="M29.36 13.003c.3-.3.117-1.134-.246-1.134-.18 0-.598.498-.598.58 0 .083-.055.537-.11.68-.118.308.438.512.728.222zm16.563-7.657c-.326-.327-.22-.94.236-1.363.505-.468.907-.508 1.286-.129.291.291.236 1.056-.106 1.468-.226.272-1.151.288-1.416.024zm-6.045 3.448c.06-.218.306-.983.545-1.701.24-.719.492-1.6.563-1.96.07-.359.25-1.224.401-1.922.15-.698.23-1.34.175-1.428-.174-.282-.554-.171-.825.241-.305.467-.851 2.387-1.046 3.68-.074.495-.218 1.41-.319 2.035-.1.625-.145 1.238-.098 1.36.126.329.477.15.604-.306zm-4.885 23.782c.426-.577.775-1.123.775-1.213 0-.091.096-.262.214-.381.405-.41 1.256-2.31 1.259-2.813.002-.278.113-.982.247-1.566.804-3.503 1.04-6.463.581-7.318-.246-.461-.571-.385-.63.147-.09.813-.742 3.381-1.198 4.725-.26.765-.473 1.553-.473 1.75 0 .197-.12.637-.267.976-1.108 2.557-2.043 6.74-1.507 6.74.123 0 .572-.471.999-1.047zm-2.562 2.48c-.52-.741-.238-2.941.715-5.596.681-1.895 1.112-3.33 1.236-4.122.06-.38.17-.73.245-.777.227-.14.772-2.044.958-3.346.096-.673.22-1.481.274-1.796.18-1.034.267-2.449.15-2.449-.063 0-.37.29-.68.645-.72.822-2.74 1.86-4.154 2.136-.887.172-1.265.172-2.082 0-.549-.117-.998-.276-.998-.353 0-.078-.105-.141-.233-.141-.127 0-.45-.184-.717-.408-.543-.457-1.35-.54-1.657-.17-.225.27-2.616 1.231-3.061 1.23-.62-.002-1.576-.37-1.962-.757-.404-.404-.405-.412-.268-2.395.247-3.597.14-4.03-.986-4.03-.784 0-1.721.332-2.048.726-.117.14-.497.416-.844.611-.348.195-.632.404-.632.464s-.176.3-.391.531c-.215.232-.52.76-.677 1.172-.158.413-.35.79-.426.837-.076.047-.14.247-.14.443-.003.535-.736 2.007-1.062 2.132a.58.58 0 01-.523-.088c-.285-.238-.231-.873.26-3.058.425-1.885.457-3.203.083-3.412-.247-.138-3.843-.096-4.553.054-.183.039-.45.34-.607.685-1.077 2.365-1.485 3.155-1.81 3.505-.204.22-.646.737-.984 1.149-.788.962-1.449 1.282-2.313 1.12-1.354-.254-2.217-.97-2.48-2.057-.27-1.109.37-8.585.956-11.182.09-.404.289-1.498.44-2.432.242-1.497.318-1.713.65-1.836.417-.154.914.04 1.057.411.049.129-.13 1.214-.397 2.413-.756 3.385-.96 4.684-.96 6.097 0 .718-.122 2.151-.272 3.184-.412 2.835-.09 3.755 1.312 3.755.603 0 .782-.087 1.264-.612.96-1.047 1.593-2.258 1.96-3.755.193-.786.4-1.534.462-1.663.215-.453.616-.582 1.184-.384.359.125 1.422.162 3.19.11 1.621-.046 2.772-.012 2.96.088.168.09.463.497.654.904.191.407.456.74.588.74.132 0 .474-.257.76-.571.286-.314.631-.572.767-.572.135 0 .362-.098.504-.22.444-.377 1.623-.76 2.343-.759.833 0 1.627.45 2.093 1.182.315.496.332.696.245 2.93-.08 2.041-.055 2.436.162 2.653.27.271 1.204.347 1.464.12.085-.075.46-.223.832-.328.372-.106.72-.306.773-.444.053-.137.352-.357.663-.487.5-.209.607-.366.9-1.316.184-.594.334-1.406.334-1.806 0-.858.44-1.889 1.123-2.627.415-.448.606-.53 1.232-.53.729 0 .749.014 1.17.845.392.773.411.9.229 1.51-.11.366-.412.933-.67 1.26-.26.327-.472.648-.472.713 0 .065-.294.412-.653.771-.536.537-.653.766-.653 1.284 0 .57.062.662.647.96.806.412 2.248.437 3.359.058.637-.217 1.15-.626 2.531-2.02.953-.962 1.865-2.027 2.026-2.367.162-.34.366-1.213.453-1.939.087-.726.262-1.614.388-1.973.126-.36.347-1.572.492-2.694.145-1.122.365-2.289.49-2.591.124-.303.227-.78.227-1.062.002-.917.307-1.64 1.02-2.416 1.034-1.127 1.99-1.249 2.653-.339.526.723.403 2.177-.508 6.006-.215.902-.39 1.832-.39 2.068s-.055.454-.123.484c-.279.124-.985 1.237-1.091 1.72-.063.287-.331.794-.596 1.127-.264.333-.641.87-.837 1.192-.196.322-.415.627-.486.677-.143.1-.46 1.62-.46 2.207 0 .324.11.393.776.493 1.933.291 5.122-1.167 7.267-3.322 1.484-1.492 2.08-2.15 2.08-2.3 0-.095.099-.232.219-.303.273-.163 1.233-1.91 1.822-3.315.244-.583.574-1.318.732-1.632.158-.314.33-1.002.38-1.527.107-1.106.463-1.615 1.079-1.542.33.039.44.175.561.688.102.432.09.808-.035 1.155-.102.283-.186.687-.186.898 0 .211-.1.5-.224.641-.123.142-.35.643-.502 1.113-.153.47-.34.894-.415.94-.075.047-.187.396-.248.778-.061.38-.251.936-.423 1.233-.17.296-.31.714-.31.928 0 .213-.084.595-.186.847-.19.468-.272.82-.702 2.99-.348 1.756-.323 2.034.234 2.67.53.603.623 1.099.262 1.398-.176.147-.427.097-1.12-.22-.807-.369-.911-.477-1.097-1.138-.157-.561-.162-.972-.022-1.774.19-1.094.24-2.241.098-2.241-.21 0-.872.46-1.491 1.037-.373.346-.823.714-1 .817-.178.102-.755.48-1.283.837-1.286.872-2.36 1.366-3.734 1.717l-1.143.293.049.547c.182 2.029.079 4.44-.272 6.343-.207 1.123-.48 2.283-.607 2.577-.128.295-.232.71-.232.922 0 .531-.832 2.532-1.336 3.21a15.21 15.21 0 00-.88 1.404c-.297.538-.718 1.006-1.155 1.282-.378.24-.727.537-.776.663-.057.148-.343.228-.818.228-.57 0-.786-.08-.984-.363z"/></svg>