<?xml version="1.0" encoding="UTF-8" standalone="no"?>
<svg
   xmlns:dc="http://purl.org/dc/elements/1.1/"
   xmlns:cc="http://creativecommons.org/ns#"
   xmlns:rdf="http://www.w3.org/1999/02/22-rdf-syntax-ns#"
   xmlns:svg="http://www.w3.org/2000/svg"
   xmlns="http://www.w3.org/2000/svg"
   id="svg2094"
   viewBox="0 0 54.410147 17.209274"
   version="1.1"
   height="17.209274"
   width="54.410149">
  <defs
     id="defs2098" />
  <metadata
     id="metadata2">
    <rdf:RDF>
      <cc:Work
         rdf:about="">
        <dc:format>image/svg+xml</dc:format>
        <dc:type
           rdf:resource="http://purl.org/dc/dcmitype/StillImage" />
        <dc:title />
      </cc:Work>
    </rdf:RDF>
  </metadata>
  <g
     transform="translate(-612.52582,-700.79736)"
     id="g2092">
    <g
       style="stroke-width:0.16327"
       id="g2090">
      <path
         d="m 629.73,710.55 c 0.30044,-0.30044 0.22527,-0.93291 -0.13842,-0.93291 -0.17959,0 -0.56799,0.45764 -0.61559,0.52491 -0.0859,0.12146 -0.13835,0.35987 -0.19285,0.50191 -0.11849,0.30875 0.32917,0.50035 0.61874,0.21074 z m 29.807,5.0502 c 0.59548,-0.27854 1.0466,-0.6031 1.1082,-0.79733 0.0572,-0.18017 0.21116,-0.36871 0.34217,-0.41898 0.24491,-0.094 1.2574,-2.0321 1.4384,-2.7536 0.12037,-0.47958 -0.18071,-0.80418 -1.1035,-1.1898 -0.65071,-0.27188 -1.6362,-0.21544 -2.2998,0.13171 -0.53593,0.28034 -1.551,1.1399 -1.551,1.3134 0,0.0887 -0.16842,0.38869 -0.37428,0.66655 -0.20586,0.27786 -0.46862,0.88635 -0.58392,1.3522 -0.18069,0.73009 -0.17406,0.92193 0.048,1.39 0.49203,1.0369 1.247,1.1145 2.9757,0.30586 z m -44.596,2.3289 c -0.17959,-0.0385 -0.63159,-0.18023 -1.0045,-0.31501 -0.5967,-0.21567 -0.72383,-0.3566 -1.0612,-1.1764 -0.32444,-0.78836 -0.37649,-1.1647 -0.33901,-2.451 0.0271,-0.92936 0.16267,-1.8806 0.34905,-2.449 0.16762,-0.51117 0.38524,-1.4437 0.48359,-2.0722 0.0983,-0.62857 0.25339,-1.6257 0.34454,-2.2158 0.0911,-0.59013 0.21157,-1.7656 0.26762,-2.6122 0.12299,-1.858 0.53434,-3.2189 1.1024,-3.6472 0.72992,-0.55029 1.135,0.1358 0.77219,1.308 -0.22481,0.72645 -0.47423,2.5343 -0.68478,4.9631 -0.1051,1.2122 -0.36446,2.902 -0.57638,3.7551 -0.27709,1.1155 -0.38571,2.0176 -0.38679,3.2126 -0.002,1.6014 0.014,1.6739 0.4287,2 0.23659,0.18611 0.63337,0.33838 0.88175,0.33838 0.56682,0 2.0111,-0.66026 2.5484,-1.165 0.49101,-0.46129 1.5202,-2.5775 1.6494,-3.3914 0.10723,-0.67558 0.43925,-1.251 0.80228,-1.3902 0.13839,-0.0531 0.59316,0.0817 1.0106,0.29956 0.98511,0.51412 1.4378,0.61374 3.1858,0.70102 2.0088,0.10031 2.2802,-0.0379 2.9707,-1.5126 0.85749,-1.8315 1.9911,-2.3026 3.09,-1.2842 0.792,0.73401 0.45423,2.2729 -0.63225,2.8806 -0.20576,0.11508 -0.74841,0.45133 -1.2059,0.74721 -0.78502,0.50771 -0.83773,0.5857 -0.93779,1.3878 -0.0583,0.46738 -0.0815,1.1069 -0.0516,1.4212 l 0.0544,0.57143 2.6122,0.0928 1.2252,-0.80493 c 0.67387,-0.44271 1.6657,-1.2224 2.2041,-1.7326 0.53836,-0.51024 1.3714,-1.2709 1.8511,-1.6904 0.47974,-0.41949 1.3246,-1.193 1.8776,-1.7189 1.2893,-1.2263 2.4464,-1.8402 2.9963,-1.5896 0.38322,0.17461 0.3895,0.21105 0.30511,1.7702 -0.27711,5.1198 -0.27837,5.4301 -0.0224,5.5283 0.30529,0.11714 1.6149,-0.3596 2.3764,-0.8651 0.31269,-0.20756 0.67013,-0.37738 0.79432,-0.37738 0.59773,0 2.5191,-2.3189 4.0921,-4.9388 0.38679,-0.6442 0.81433,-0.7806 1.1561,-0.36885 0.25251,0.30426 0.16165,0.78064 -0.48297,2.5321 -1.0074,2.7372 -1.0464,3.2504 -0.28934,3.8131 0.41256,0.30667 0.51677,0.31768 1.2245,0.1293 0.42545,-0.11326 0.94562,-0.33028 1.1559,-0.48232 0.21031,-0.15203 0.6107,-0.40292 0.88975,-0.55753 0.27907,-0.15461 0.58457,-0.42118 0.67887,-0.59236 0.19181,-0.34816 1.4536,-1.8586 1.988,-2.3798 1.0856,-1.0587 1.6537,-1.478 2.3723,-1.7511 0.44094,-0.16755 1.0748,-0.47388 1.4085,-0.68074 0.80345,-0.49804 2.5447,-0.81105 3.3204,-0.59688 0.32139,0.0887 0.71695,0.30787 0.87902,0.48695 0.46536,0.51421 0.83109,0.40221 1.2025,-0.36826 0.5992,-1.243 1.3257,-3.4561 1.3265,-4.0409 0.002,-0.63406 0.39267,-2.6482 0.57135,-2.9373 0.16602,-0.26862 0.92891,-0.52645 1.0877,-0.36762 0.4951,0.4951 -0.48363,5.7256 -1.4866,7.9449 -0.65737,1.4545 -0.84648,1.8335 -1.2163,2.4376 -0.31457,0.51385 -0.406,0.95545 -0.50087,2.4191 -0.11324,1.7473 -0.10581,1.806 0.30843,2.4319 0.36356,0.54937 0.39498,0.68865 0.21895,0.9705 -0.11303,0.181 -0.33397,0.36986 -0.491,0.41969 -0.41034,0.13024 -1.5929,-0.57605 -1.5929,-0.95138 0,-0.8697 -0.64606,-1.1922 -1.2539,-0.62588 -0.18474,0.1721 -0.71411,0.50459 -1.1764,0.73884 -1.0296,0.52175 -2.8718,0.61832 -3.5328,0.18523 -0.6613,-0.43331 -1.1225,-1.5123 -1.1045,-2.5839 0.009,-0.52189 -0.0561,-0.93878 -0.14603,-0.93878 -0.089,0 -0.63466,0.47755 -1.2126,1.0612 -0.57794,0.58367 -1.12,1.0612 -1.2046,1.0612 -0.0846,0 -0.39544,0.21222 -0.69085,0.47159 -0.56031,0.49196 -1.97,0.9978 -2.7806,0.9978 -0.50639,0 -1.8205,-0.81208 -2.0575,-1.2715 -0.0793,-0.15376 -0.19396,-0.55507 -0.25474,-0.8918 -0.0608,-0.33674 -0.15362,-0.61225 -0.2063,-0.61225 -0.15326,0 -1.2476,0.69713 -1.5937,1.0152 -0.17408,0.16 -0.44433,0.2909 -0.60058,0.2909 -0.15624,0 -0.38545,0.10137 -0.50933,0.22526 -0.12391,0.12389 -0.772,0.46537 -1.4402,0.75884 -2.1431,0.94121 -5.1696,0.99091 -6.5055,0.10683 -0.78722,-0.52097 -1.1044,-1.1269 -0.89401,-1.7076 0.20645,-0.56966 0.65167,-0.53461 1.6133,0.12701 0.5601,0.38534 0.88725,0.48966 1.5357,0.48966 1.2129,0 1.3294,-0.25054 1.2722,-2.7371 -0.0251,-1.0909 -0.0979,-2.0357 -0.16178,-2.0996 -0.17933,-0.17934 -0.92363,0.25742 -1.9116,1.1218 -0.49387,0.43205 -1.0082,0.87722 -1.1428,0.98925 -0.1347,0.11204 -0.42857,0.4236 -0.65306,0.69236 -0.57599,0.68957 -2.5554,2.3428 -3.0749,2.5681 -0.23943,0.10385 -0.68652,0.37499 -0.99354,0.60252 -0.49363,0.36584 -0.74831,0.42032 -2.2016,0.471 -1.3358,0.0466 -1.7434,0.003 -2.1778,-0.23053 -0.75678,-0.40754 -0.98653,-1.2364 -0.71163,-2.5674 0.2764,-1.3382 0.16038,-1.4321 -1.8609,-1.5057 -0.26939,-0.01 -0.90936,-0.10994 -1.4221,-0.22252 -0.51274,-0.11258 -1.2009,-0.18171 -1.5291,-0.15363 -0.5836,0.0499 -0.60942,0.0817 -1.1698,1.4388 -0.31515,0.76327 -0.72909,1.5475 -0.91987,1.7427 -0.19078,0.1952 -0.53621,0.56336 -0.76764,0.81812 -0.26516,0.29189 -0.83883,0.59928 -1.551,0.83112 -1.1015,0.35856 -1.438,0.39928 -2.1098,0.25533 z"
         id="beside" />
    </g>
  </g>
</svg>
