<svg xmlns="http://www.w3.org/2000/svg" height="17.209" width="54.41"><path d="M17.204 9.753c.3-.3.225-.933-.138-.933-.18 0-.568.457-.616.525-.086.121-.138.36-.193.502-.118.308.33.5.62.21zm29.807 5.05c.596-.279 1.047-.603 1.108-.797.058-.18.212-.37.343-.42.244-.093 1.257-2.032 1.438-2.753.12-.48-.18-.804-1.104-1.19-.65-.272-1.636-.215-2.3.132-.535.28-1.55 1.14-1.55 1.313 0 .089-.169.389-.375.667-.205.278-.468.886-.584 1.352-.18.73-.174.922.048 1.39.492 1.037 1.247 1.114 2.976.306zM2.415 17.132c-.18-.039-.631-.18-1.004-.315C.814 16.6.687 16.46.349 15.64c-.324-.788-.376-1.164-.339-2.45.028-.93.163-1.881.35-2.45.167-.51.385-1.443.483-2.072l.345-2.216c.09-.59.211-1.765.267-2.612C1.578 1.982 1.99.621 2.558.193c.73-.55 1.135.136.772 1.308-.225.726-.474 2.534-.685 4.963-.105 1.212-.364 2.902-.576 3.755a12.361 12.361 0 00-.387 3.213c-.002 1.601.014 1.674.429 2 .236.186.633.338.881.338.567 0 2.011-.66 2.549-1.165.49-.461 1.52-2.577 1.65-3.391.106-.676.438-1.251.801-1.39.139-.054.594.081 1.011.3.985.513 1.438.613 3.186.7 2.009.1 2.28-.038 2.97-1.513.858-1.831 1.992-2.302 3.09-1.284.793.734.455 2.273-.632 2.88a30.95 30.95 0 00-1.206.748c-.785.508-.837.586-.937 1.388-.059.467-.082 1.107-.052 1.421l.054.572 2.613.092 1.225-.805a19.175 19.175 0 002.204-1.732 74.467 74.467 0 011.851-1.69c.48-.42 1.325-1.194 1.878-1.72 1.289-1.226 2.446-1.84 2.996-1.59.383.176.39.212.305 1.771-.277 5.12-.278 5.43-.022 5.528.305.118 1.615-.36 2.376-.865.313-.207.67-.377.794-.377.598 0 2.52-2.319 4.092-4.939.387-.644.815-.78 1.157-.369.252.305.161.78-.483 2.532-1.008 2.738-1.047 3.25-.29 3.813.413.307.517.318 1.225.13.425-.113.945-.33 1.156-.483.21-.152.61-.402.89-.557.278-.155.584-.421.678-.592.192-.349 1.454-1.859 1.988-2.38 1.086-1.059 1.654-1.478 2.373-1.751a9.942 9.942 0 001.408-.681c.803-.498 2.545-.811 3.32-.597.322.089.717.308.88.487.465.514.83.402 1.202-.368.6-1.243 1.326-3.456 1.326-4.041.002-.634.393-2.648.572-2.937.166-.27.929-.527 1.088-.368.495.495-.484 5.726-1.487 7.945-.657 1.454-.847 1.833-1.216 2.437-.315.514-.406.956-.501 2.42-.113 1.747-.106 1.806.308 2.431.364.55.395.69.22.97-.114.182-.335.37-.492.42-.41.13-1.593-.575-1.593-.95 0-.87-.646-1.193-1.254-.627-.184.172-.714.505-1.176.74-1.03.52-2.872.617-3.533.184s-1.122-1.512-1.104-2.583c.009-.522-.056-.94-.146-.94s-.635.478-1.213 1.062c-.578.584-1.12 1.061-1.205 1.061-.084 0-.395.212-.69.472-.56.492-1.97.998-2.781.998-.506 0-1.82-.813-2.058-1.272-.079-.154-.194-.555-.254-.892-.061-.337-.154-.612-.207-.612-.153 0-1.247.697-1.593 1.015-.174.16-.445.291-.6.291a.841.841 0 00-.51.225c-.124.124-.772.466-1.44.76-2.144.94-5.17.99-6.506.106-.787-.521-1.104-1.127-.894-1.708.207-.57.652-.534 1.613.127.56.386.888.49 1.536.49 1.213 0 1.33-.25 1.272-2.737-.025-1.09-.098-2.036-.161-2.1-.18-.179-.924.258-1.912 1.122-.494.432-1.008.877-1.143.99a7.024 7.024 0 00-.653.692c-.576.69-2.555 2.343-3.075 2.568-.24.104-.686.375-.993.602-.494.366-.749.42-2.202.471-1.336.047-1.743.003-2.178-.23-.757-.408-.986-1.237-.711-2.568.276-1.338.16-1.432-1.861-1.505-.27-.01-.91-.11-1.422-.223-.513-.112-1.201-.181-1.53-.153-.583.05-.609.081-1.17 1.438-.314.764-.728 1.548-.92 1.743-.19.195-.535.563-.767.818-.265.292-.839.6-1.55.831-1.102.359-1.439.4-2.11.256z"/></svg>