<svg xmlns="http://www.w3.org/2000/svg" height="21.673" width="27.576"><path d="M24.674 4.664c.244-.284.446-.6.449-.703.002-.103.187-.508.41-.898.465-.812.525-1.412.158-1.553-.266-.102-1.217.817-1.217 1.175 0 .106-.183.463-.407.793-.224.33-.455.9-.514 1.266-.103.644-.093.662.285.55.215-.063.591-.347.836-.63zM1.699 21.316c-.996-.465-1.245-.75-1.501-1.721-.244-.924-.26-1.598-.06-2.506.085-.382.225-1.063.312-1.512.086-.45.419-1.845.74-3.102.32-1.257.583-2.593.586-2.969.007-1.098.496-3.842.787-4.415.316-.623.591-.76 1.04-.52.275.147.316.291.247.857-.416 3.376-.62 4.858-.747 5.414-.082.36-.233 1.076-.336 1.592-.103.516-.295 1.198-.428 1.516-.32.767-.715 3.04-.719 4.142-.002.698.084.997.414 1.429.356.467.514.545 1.102.543.585-.002.8-.11 1.467-.736 1.021-.958 1.905-2.94 1.91-4.282.003-.888.479-1.43 1.12-1.273 1.38.338 2.053.284 3.821-.305.966-.322 1.835-.585 1.933-.585.243 0 2.329-.974 2.432-1.135.046-.072.341-.268.656-.436.315-.169.73-.453.92-.633.192-.18.774-.62 1.295-.98.52-.359 1.195-.867 1.5-1.128.603-.52 1.368-1.904 1.653-2.994l.362-1.388c.098-.381.274-.804.39-.939.115-.134.403-.617.639-1.073.456-.883 1.002-1.45 1.837-1.909.682-.375 1.285-.357 1.955.057.45.277.55.441.55.892 0 1.074-1.268 3.848-1.888 4.13-.221.102-.486.369-.59.595-.102.226-.245.41-.317.41-.073 0-.608.446-1.19.99-1.204 1.127-1.071.659-1.483 5.214-.242 2.686-.615 4.669-.983 5.223-.088.133-.308.542-.487.907-.18.365-.666.972-1.08 1.349-.67.609-.842.685-1.55.684-1.101-.002-1.853-.238-2.449-.771a52.956 52.956 0 00-.905-.79c-.51-.431-.921-2.01-.69-2.652.13-.362.242-.43.638-.386.52.057.723.264.727.738.004.454.505 1.447.94 1.862.318.303.57.367 1.434.367 1.018 0 1.057-.015 1.323-.53.15-.292.418-.726.595-.964.402-.544.544-1.257.839-4.22.22-2.212.204-3.266-.05-3.266-.133 0-1.386 1.014-1.46 1.182-.03.069-.16.125-.289.125-.303 0-1.363.674-1.763 1.121-.171.191-.442.348-.603.348-.16 0-.334.069-.386.153-.2.323-2.027 1.185-3.353 1.583-.763.229-1.535.48-1.715.557-.482.208-1.563.474-2.122.522-.342.03-.539.161-.653.438-.09.218-.32.696-.514 1.062-.192.365-.56 1.067-.816 1.56-.616 1.183-1.523 2.069-2.61 2.55-1.098.485-1.4.486-2.427.007z" stroke-width=".163"/></svg>