<?xml version="1.0" encoding="UTF-8" standalone="no"?>
<svg
   xmlns:dc="http://purl.org/dc/elements/1.1/"
   xmlns:cc="http://creativecommons.org/ns#"
   xmlns:rdf="http://www.w3.org/1999/02/22-rdf-syntax-ns#"
   xmlns:svg="http://www.w3.org/2000/svg"
   xmlns="http://www.w3.org/2000/svg"
   id="svg2094"
   viewBox="0 0 27.576293 21.672976"
   version="1.1"
   height="21.672976"
   width="27.576294">
  <defs
     id="defs2098" />
  <metadata
     id="metadata2">
    <rdf:RDF>
      <cc:Work
         rdf:about="">
        <dc:format>image/svg+xml</dc:format>
        <dc:type
           rdf:resource="http://purl.org/dc/dcmitype/StillImage" />
        <dc:title />
      </cc:Work>
    </rdf:RDF>
  </metadata>
  <g
     transform="translate(-612.25624,-721.64641)"
     id="g2092">
    <g
       style="stroke-width:0.16327"
       id="g2081">
      <path
         d="m 636.93,726.31 c 0.24452,-0.28356 0.44656,-0.5999 0.44898,-0.70297 0.002,-0.10308 0.18718,-0.50717 0.41059,-0.89796 0.46423,-0.81206 0.52495,-1.4114 0.15729,-1.5525 -0.26569,-0.10196 -1.2166,0.8165 -1.2166,1.1751 0,0.106 -0.18322,0.4627 -0.40715,0.79269 -0.22394,0.32998 -0.45507,0.89961 -0.51364,1.2658 -0.10297,0.64392 -0.0936,0.66207 0.28471,0.55061 0.21515,-0.0634 0.59125,-0.34726 0.83577,-0.63081 z m -22.975,16.652 c -0.99563,-0.46418 -1.2446,-0.74961 -1.5011,-1.7206 -0.24415,-0.92443 -0.26005,-1.5975 -0.0592,-2.5055 0.0847,-0.38292 0.22475,-1.0636 0.31124,-1.5126 0.0865,-0.44898 0.41923,-1.8449 0.73944,-3.102 0.32023,-1.2571 0.58426,-2.5932 0.58674,-2.9689 0.007,-1.0979 0.49636,-3.8421 0.78686,-4.4148 0.31613,-0.62316 0.59127,-0.76068 1.0407,-0.52014 0.27443,0.14687 0.31592,0.2912 0.24627,0.85655 -0.416,3.3768 -0.62038,4.8588 -0.74668,5.4146 -0.0816,0.35919 -0.23264,1.0754 -0.33561,1.5916 -0.10295,0.5162 -0.2958,1.1985 -0.42854,1.5162 -0.32047,0.76699 -0.71502,3.0407 -0.71877,4.1421 -0.002,0.69746 0.0843,0.99706 0.41347,1.4286 0.35667,0.46762 0.5149,0.54563 1.102,0.54326 0.58565,-0.002 0.79953,-0.10966 1.4676,-0.73628 1.0213,-0.95797 1.9049,-2.9392 1.9095,-4.2814 0.003,-0.88868 0.4793,-1.4298 1.1204,-1.273 1.3801,0.33756 2.0526,0.2838 3.821,-0.30541 0.96544,-0.32168 1.8352,-0.58486 1.9328,-0.58486 0.24263,0 2.329,-0.97365 2.4326,-1.1352 0.0458,-0.0715 0.3409,-0.26776 0.65571,-0.43615 0.3148,-0.16839 0.72889,-0.45311 0.92021,-0.6327 0.19131,-0.1796 0.77389,-0.62041 1.2946,-0.9796 0.52073,-0.35918 1.1953,-0.8671 1.4991,-1.1287 0.6042,-0.52036 1.3689,-1.9041 1.6544,-2.9937 0.1,-0.38164 0.26252,-1.0061 0.36116,-1.3878 0.0987,-0.38163 0.27411,-0.80408 0.3899,-0.93878 0.11578,-0.13469 0.40346,-0.61784 0.63925,-1.0737 0.45637,-0.88227 1.002,-1.449 1.8371,-1.9084 0.68181,-0.37501 1.2854,-0.35754 1.9555,0.0566 0.44892,0.27744 0.54988,0.44121 0.54988,0.8919 0,1.0741 -1.268,3.8486 -1.888,4.1311 -0.22138,0.10087 -0.48669,0.36815 -0.58956,0.59396 -0.10289,0.22581 -0.24606,0.41057 -0.31816,0.41057 -0.0721,0 -0.60756,0.44571 -1.1899,0.99048 -1.204,1.1262 -1.0708,0.65802 -1.4822,5.2136 -0.24256,2.686 -0.61582,4.6685 -0.9833,5.2224 -0.0886,0.13355 -0.30801,0.54173 -0.48761,0.90707 -0.17959,0.36536 -0.66535,0.97241 -1.0795,1.349 -0.66921,0.60859 -0.84173,0.68465 -1.551,0.68384 -1.1003,-0.002 -1.8521,-0.23808 -2.4481,-0.7712 -0.27817,-0.2488 -0.68532,-0.60418 -0.90478,-0.78972 -0.51014,-0.43126 -0.92121,-2.0104 -0.69021,-2.6514 0.13075,-0.36283 0.24249,-0.4305 0.63847,-0.38671 0.51887,0.0574 0.72258,0.26446 0.72651,0.73858 0.004,0.45357 0.50528,1.4462 0.94043,1.8614 0.31742,0.30286 0.56911,0.36735 1.4336,0.36735 1.0179,0 1.0566,-0.0155 1.323,-0.53061 0.15091,-0.29184 0.4185,-0.72555 0.59465,-0.96381 0.40227,-0.54411 0.54404,-1.2571 0.83916,-4.2199 0.22031,-2.2119 0.20451,-3.2653 -0.049,-3.2653 -0.13426,0 -1.3867,1.0136 -1.4604,1.1818 -0.0299,0.0684 -0.15996,0.12428 -0.28896,0.12428 -0.30318,0 -1.3634,0.67435 -1.7636,1.1217 -0.17105,0.19123 -0.44223,0.34771 -0.60261,0.34771 -0.16038,0 -0.33404,0.0687 -0.38594,0.15267 -0.19969,0.3231 -2.0268,1.1857 -3.3535,1.5832 -0.76326,0.22868 -1.5347,0.4793 -1.7143,0.55691 -0.48237,0.20848 -1.5633,0.47453 -2.1224,0.52242 -0.34239,0.0293 -0.53894,0.16122 -0.65307,0.43825 -0.0898,0.21796 -0.32089,0.69551 -0.51355,1.0612 -0.19265,0.36569 -0.56,1.0675 -0.81632,1.5596 -0.61659,1.1838 -1.523,2.0695 -2.6093,2.55 -1.0985,0.48581 -1.4017,0.48684 -2.4282,0.008 z"
         id="best" />
    </g>
  </g>
</svg>
