<svg xmlns="http://www.w3.org/2000/svg" height="17.604" width="30.828"><path d="M2.694 17.562C1.52 17.305 1.04 16.97.516 16.04.065 15.24 0 14.972 0 13.91c0-.67.076-1.417.17-1.663.093-.246.244-1.435.335-2.642.11-1.467.296-2.61.558-3.442.224-.714.438-1.908.5-2.797.147-2.087.565-2.95 1.294-2.671.37.141.324 2.623-.08 4.414-.621 2.75-1.236 8.108-1.077 9.38.094.752.187.933.644 1.246.68.466 1.47.458 2.31-.022.745-.427 1.488-1.423 1.6-2.143.176-1.147.932-3.737 1.126-3.865.117-.076.396-.082.62-.014.768.233 3.204.146 3.534-.126.167-.138.633-.424 1.037-.636.405-.212.923-.558 1.152-.77.23-.212.49-.385.58-.385.251 0 1.207-1.045 1.207-1.32 0-.133.244-.62.542-1.083.572-.888.782-1.474 1.098-3.066.255-1.284.61-2.155.927-2.277.389-.15 1.025.348 1.025.8 0 .618-.618 3.074-.987 3.926-.843 1.942-1.274 4.403-1.403 8-.084 2.36.028 2.595 1.273 2.66.903.048.933.035 2.15-.944.68-.546 1.281-1.14 1.338-1.319.057-.179.465-.739.907-1.244s.804-1.037.804-1.18c0-.145.273-.666.608-1.16.334-.492.72-1.115.857-1.385.368-.723 1.184-.667 1.988.138l.596.597h1.474c1.14 0 1.534.06 1.738.264.145.145.242.311.215.37-.14.31-.933 2.468-1.09 2.97-.1.32-.182 1.101-.182 1.735 0 1.13.01 1.156.496 1.358.957.396 1.265 1.281.557 1.603-.586.267-.853.239-1.399-.15-1.111-.792-1.44-2.61-.895-4.936.403-1.715.416-1.685-.741-1.79-.552-.05-1.055-.176-1.12-.28-.216-.35-1.18-.119-1.458.35-.14.238-.569.89-.95 1.447-.382.558-.694 1.108-.694 1.221 0 .114-.276.506-.612.872-.337.366-.833.907-1.103 1.203-.27.296-.71.667-.98.824-.269.158-.732.442-1.029.633-.73.468-2.316.493-3.214.05-.54-.265-.69-.458-.949-1.213-.327-.956-.324-1.123.064-4.528.115-1.009.156-1.888.09-1.954-.066-.065-.245-.03-.397.08a4.202 4.202 0 01-.63.351c-.193.084-.401.234-.462.332-.292.472-3.437 1.732-4.643 1.86-.488.052-.946.189-1.018.303-.138.217-.447 1.16-.784 2.392-.107.393-.374.893-.594 1.113a6.12 6.12 0 00-.656.79c-.556.85-2.523 1.606-3.573 1.376z"/></svg>