<?xml version="1.0" encoding="UTF-8" standalone="no"?>
<svg
   xmlns:dc="http://purl.org/dc/elements/1.1/"
   xmlns:cc="http://creativecommons.org/ns#"
   xmlns:rdf="http://www.w3.org/1999/02/22-rdf-syntax-ns#"
   xmlns:svg="http://www.w3.org/2000/svg"
   xmlns="http://www.w3.org/2000/svg"
   id="svg2094"
   viewBox="0 0 30.828254 17.603897"
   version="1.1"
   height="17.603897"
   width="30.828255">
  <defs
     id="defs2098" />
  <metadata
     id="metadata2">
    <rdf:RDF>
      <cc:Work
         rdf:about="">
        <dc:format>image/svg+xml</dc:format>
        <dc:type
           rdf:resource="http://purl.org/dc/dcmitype/StillImage" />
        <dc:title />
      </cc:Work>
    </rdf:RDF>
  </metadata>
  <g
     transform="translate(-612.57615,-748.46783)"
     id="g2092">
    <g
       style="stroke-width:0.16327"
       id="g2081">
      <path
         d="m 615.27,766.03 c -1.1724,-0.25724 -1.6534,-0.59345 -2.1775,-1.5221 -0.45155,-0.80009 -0.51635,-1.0676 -0.51635,-2.1312 0,-0.66898 0.0764,-1.4173 0.16977,-1.6628 0.0934,-0.24559 0.24424,-1.4346 0.33528,-2.6421 0.11059,-1.467 0.29559,-2.6091 0.55748,-3.4417 0.22471,-0.71428 0.43845,-1.908 0.50088,-2.7971 0.14657,-2.0873 0.56487,-2.951 1.2937,-2.6713 0.36899,0.1416 0.32382,2.6235 -0.0803,4.4141 -0.6209,2.7507 -1.2361,8.1077 -1.0772,9.3796 0.0941,0.75274 0.18759,0.9338 0.64392,1.2465 0.67961,0.46567 1.4708,0.45801 2.3096,-0.0224 0.74564,-0.42703 1.4891,-1.4224 1.6002,-2.1424 0.17703,-1.1472 0.93239,-3.7377 1.127,-3.8649 0.11637,-0.0761 0.39526,-0.0825 0.61975,-0.0144 0.76748,0.2333 3.2042,0.14643 3.534,-0.12599 0.1665,-0.13756 0.63334,-0.42353 1.0374,-0.63553 0.40406,-0.212 0.92239,-0.55866 1.1518,-0.77034 0.2294,-0.21169 0.4905,-0.38488 0.58023,-0.38488 0.25053,0 1.2068,-1.0455 1.2068,-1.3194 0,-0.13346 0.24378,-0.62103 0.54174,-1.0835 0.57233,-0.88835 0.78236,-1.4747 1.0984,-3.0665 0.25484,-1.2837 0.60938,-2.1552 0.9262,-2.2768 0.389,-0.14928 1.0255,0.3478 1.0255,0.80085 0,0.61673 -0.61794,3.0727 -0.98754,3.9249 -0.84242,1.9424 -1.2738,4.4032 -1.4026,8 -0.0844,2.3596 0.0281,2.5948 1.273,2.6606 0.90257,0.0477 0.93326,0.0342 2.1501,-0.94468 0.67895,-0.54619 1.281,-1.1395 1.3378,-1.3185 0.0568,-0.179 0.465,-0.73879 0.90709,-1.244 0.44207,-0.50519 0.80379,-1.0367 0.80379,-1.181 0,-0.14438 0.27361,-0.6656 0.60805,-1.1583 0.33443,-0.49269 0.72014,-1.1162 0.85714,-1.3856 0.36806,-0.72374 1.184,-0.66714 1.9879,0.13789 l 0.59592,0.5968 h 1.474 c 1.1396,0 1.5339,0.0598 1.7379,0.26385 0.14512,0.14511 0.2422,0.3115 0.21574,0.36972 -0.14128,0.31094 -0.93326,2.4685 -1.0901,2.9699 -0.10035,0.32065 -0.18245,1.1016 -0.18245,1.7353 0,1.1297 0.01,1.1563 0.49629,1.3578 0.95701,0.39641 1.2645,1.2815 0.55724,1.6038 -0.58594,0.26697 -0.85307,0.23818 -1.3994,-0.15081 -1.1111,-0.79115 -1.4409,-2.61 -0.89489,-4.9352 0.40289,-1.7158 0.41538,-1.6856 -0.74134,-1.7905 -0.55137,-0.05 -1.055,-0.17586 -1.1192,-0.27969 -0.21646,-0.35022 -1.1798,-0.11891 -1.4581,0.35014 -0.14134,0.23817 -0.56922,0.8894 -0.95086,1.4472 -0.38163,0.55777 -0.69387,1.1071 -0.69387,1.2207 0,0.11363 -0.27551,0.50594 -0.61225,0.87182 -0.33673,0.36586 -0.83295,0.90738 -1.1027,1.2033 -0.26977,0.29599 -0.71058,0.66681 -0.97959,0.82405 -0.26903,0.15726 -0.73218,0.44201 -1.0292,0.63282 -0.72911,0.46831 -2.316,0.49309 -3.2144,0.0502 -0.53888,-0.26567 -0.68951,-0.45847 -0.94823,-1.2138 -0.32717,-0.95515 -0.32482,-1.1226 0.0637,-4.5278 0.11508,-1.0087 0.15547,-1.8877 0.0898,-1.9534 -0.0657,-0.0657 -0.24451,-0.03 -0.39736,0.0793 -0.15283,0.10927 -0.43605,0.26744 -0.62937,0.35149 -0.19331,0.084 -0.40137,0.23354 -0.46237,0.33222 -0.2913,0.47133 -3.437,1.7315 -4.6432,1.8601 -0.48712,0.0519 -0.94523,0.18819 -1.018,0.30282 -0.13737,0.21631 -0.44666,1.1606 -0.78333,2.3916 -0.10737,0.3926 -0.3747,0.89331 -0.59404,1.1126 -0.21935,0.21935 -0.51442,0.57525 -0.65573,0.79091 -0.55618,0.84883 -2.5232,1.606 -3.5734,1.3756 z"
         id="better" />
    </g>
  </g>
</svg>
