<svg xmlns="http://www.w3.org/2000/svg" height="17.177" width="58.352"><path d="M15.715 8.674c.3-.3.2-.753-.164-.753-.18 0-.603.285-.68.315-.254.1-.23.557-.234.798-.118.31.402.338.691.048zm-1.034 8.404c-.888-.21-2.044-.933-2.467-1.543l-.452-.653.202-1.4c.112-.77.144-1.452.072-1.517-.072-.065-.945-.165-1.941-.222-2.025-.116-2.208-.04-2.43 1.003-.183.86-.528 1.418-1.52 2.455-1.584 1.657-2.309 1.91-4.275 1.488-.913-.196-1.518-.799-1.81-1.806-.167-.573.038-3.216.346-4.466.255-1.033.669-4.088.961-7.102.236-2.433.69-3.33 1.52-3.012.38.146.425.567.183 1.72-.12.576-.22 1.38-.222 1.787-.005 1.035-.622 5.869-.812 6.363-.268.695-.498 2.294-.498 3.46 0 1.084.015 1.125.53 1.44.705.429 1.653.416 2.302-.03.546-.377 1.234-1.11 1.244-1.326.003-.071.147-.281.32-.467.173-.186.433-.895.58-1.585.4-1.867.537-2.145 1.057-2.145.244 0 .494.05.555.111.314.314 1.49.537 2.84.54 1.295.001 1.557-.045 1.837-.325.18-.18.327-.438.327-.574 0-.135.061-.374.137-.53l.367-.757c.127-.26.34-.527.475-.592.135-.065.544-.271.908-.458.732-.376 1.185-.333 1.92.18.419.291.45.38.347.989-.154.91-.934 1.825-2.023 2.375-.645.325-.984.618-1.174 1.014-.317.662-.673 2.788-.528 3.164.152.397 1.27.903 1.995.903.352 0 .851-.11 1.108-.243.257-.135.618-.245.801-.245.871-.003 5.092-4.942 5.38-6.296.056-.264.275-.848.488-1.297.512-1.083.84-1.983 1.723-4.735.624-1.942.842-2.257 1.389-2.008.21.096.417.264.46.373.114.298-.35 2.81-.717 3.88-.177.517-.322 1.024-.322 1.127 0 .183-.546 1.417-1.158 2.616a10.664 10.664 0 00-.89 2.626c-.06.338-.176.655-.256.704-.08.049-.145.732-.145 1.519v1.43l.577.274c.318.152.777.273 1.02.27.574-.007 2.077-.526 2.445-.845.157-.135.946-.637 1.754-1.115 1.395-.825 1.673-.997 2.678-1.663.233-.154.682-.434.996-.62 1.34-.796 1.77-1.083 2.28-1.514.296-.252.82-.6 1.164-.776.344-.176 1.031-.65 1.527-1.054s1.017-.734 1.157-.734c.14 0 .424-.183.631-.406.207-.224.92-.762 1.584-1.197.665-.434 1.308-.911 1.43-1.06.122-.149.544-.432.939-.629.394-.197.716-.418.716-.492 0-.074.082-.134.18-.134.1 0 .388-.166.64-.368.941-.756 1.21-.939 1.38-.939.097 0 .43-.21.743-.466.312-.257.751-.523.976-.591.224-.068.518-.22.653-.337.135-.117.564-.322.953-.456.667-.23.744-.223 1.306.104.714.415.957.702 1.09 1.284.166.725.537.72 1.712-.023.594-.376 2.105-.984 2.446-.984.534 0 1.44.605 1.721 1.15.268.517.327 2.284.092 2.73-.205.39-.83 2.52-.83 2.831 0 .139-.187.428-.416.643-.327.307-.475.353-.694.216-.407-.256-.423-.761-.046-1.54.839-1.737 1.085-4.061.496-4.693-.454-.487-.764-.453-2.061.23-1.169.615-2.014 1.298-2.014 1.627 0 .107-.11.286-.245.398a.734.734 0 00-.245.49c0 .156-.291.604-.647.994-.357.39-.733.914-.837 1.165-.34.821-1.455.744-1.455-.1 0-.193.19-.63.423-.973.963-1.416 1.417-2.97 1.106-3.78-.241-.628-1.105-.614-1.809.03a1.826 1.826 0 01-.57.307c-.43.137-2.13 1.28-2.416 1.624-.111.133-.29.243-.398.243-.108 0-.59.367-1.07.816-.481.45-1.005.817-1.164.817-.159 0-.348.098-.42.219-.072.12-.35.358-.62.528-.27.17-1.024.73-1.676 1.244-.653.514-1.437 1.053-1.743 1.199-.306.145-.594.363-.64.484-.047.12-.732.601-1.523 1.068-.791.466-1.478.91-1.526.985-.048.076-.366.254-.706.396-.34.142-.962.498-1.382.792-.42.293-1.093.713-1.496.932-.403.219-1.052.636-1.441.928-.39.292-.776.53-.858.53-.081 0-.572.315-1.089.7-1.588 1.18-3.15 1.52-4.875 1.058-.88-.235-1.535-.912-1.535-1.586 0-1.459-.458-1.88-1.1-1.01-.19.256-.81.808-1.378 1.225-.568.417-1.112.823-1.21.902-.096.079-.404.193-.682.254-.278.062-.593.217-.7.346-.19.228-1.295.293-2.032.12z" stroke-width=".163"/></svg>