<?xml version="1.0" encoding="UTF-8" standalone="no"?>
<svg
   xmlns:dc="http://purl.org/dc/elements/1.1/"
   xmlns:cc="http://creativecommons.org/ns#"
   xmlns:rdf="http://www.w3.org/1999/02/22-rdf-syntax-ns#"
   xmlns:svg="http://www.w3.org/2000/svg"
   xmlns="http://www.w3.org/2000/svg"
   id="svg2094"
   viewBox="0 0 58.351679 17.177301"
   version="1.1"
   height="17.177301"
   width="58.351681">
  <defs
     id="defs2098" />
  <metadata
     id="metadata2">
    <rdf:RDF>
      <cc:Work
         rdf:about="">
        <dc:format>image/svg+xml</dc:format>
        <dc:type
           rdf:resource="http://purl.org/dc/dcmitype/StillImage" />
        <dc:title />
      </cc:Work>
    </rdf:RDF>
  </metadata>
  <g
     transform="translate(-611.52516,-772.19633)"
     id="g2092">
    <g
       style="stroke-width:0.16327"
       id="g2090">
      <path
         d="m 627.24,780.87 c 0.30044,-0.30044 0.19993,-0.75299 -0.16376,-0.75299 -0.17959,0 -0.60329,0.28573 -0.68008,0.31564 -0.25412,0.099 -0.22909,0.55652 -0.23387,0.798 -0.11849,0.30875 0.40144,0.33772 0.69101,0.0481 z m -1.034,8.4045 c -0.88738,-0.20958 -2.0437,-0.93289 -2.4664,-1.5428 l -0.45257,-0.65304 0.20238,-1.3997 c 0.1113,-0.76981 0.14356,-1.4528 0.0717,-1.5178 -0.0719,-0.0649 -0.94528,-0.16474 -1.9409,-0.22175 -2.025,-0.11593 -2.2081,-0.0404 -2.4298,1.0026 -0.18302,0.86106 -0.52785,1.4183 -1.5194,2.4555 -1.5844,1.6572 -2.3097,1.9097 -4.2757,1.488 -0.91295,-0.19578 -1.5179,-0.79913 -1.8106,-1.8059 -0.16676,-0.57341 0.0384,-3.2161 0.34663,-4.4658 0.255,-1.0338 0.66839,-4.0888 0.96101,-7.102 0.23629,-2.4331 0.68934,-3.3314 1.5195,-3.0128 0.38016,0.14588 0.42514,0.56763 0.18354,1.721 -0.1206,0.57579 -0.22082,1.3796 -0.22269,1.7862 -0.005,1.0353 -0.62133,5.8688 -0.81164,6.3627 -0.26792,0.69535 -0.49788,2.294 -0.49788,3.461 0,1.083 0.0154,1.1246 0.53061,1.4388 0.70426,0.42939 1.6523,0.41704 2.3013,-0.03 0.54582,-0.37593 1.234,-1.1094 1.2438,-1.3256 0.003,-0.0711 0.14719,-0.28095 0.31987,-0.46632 0.17355,-0.18627 0.43331,-0.89526 0.58074,-1.585 0.39905,-1.8671 0.53639,-2.1459 1.0571,-2.1459 0.24353,0 0.49313,0.0503 0.55466,0.11189 0.31342,0.31342 1.4897,0.53652 2.8405,0.53871 1.2945,0.002 1.5568,-0.0442 1.8367,-0.32407 0.1796,-0.17959 0.32654,-0.43773 0.32654,-0.57365 0,-0.1359 0.0616,-0.37467 0.13678,-0.53061 0.0752,-0.15592 0.24054,-0.49664 0.36735,-0.75716 0.1268,-0.26052 0.34076,-0.52686 0.47546,-0.59185 0.13469,-0.065 0.54308,-0.27109 0.90752,-0.45799 0.73192,-0.37535 1.1846,-0.333 1.9199,0.17964 0.41886,0.29198 0.44997,0.38068 0.34712,0.98948 -0.15372,0.90983 -0.9338,1.8255 -2.0232,2.375 -0.64469,0.32513 -0.98366,0.61802 -1.1737,1.0142 -0.31747,0.66173 -0.67269,2.7883 -0.52853,3.164 0.15246,0.39729 1.27,0.90327 1.9951,0.90327 0.35249,0 0.85133,-0.10975 1.1085,-0.24389 0.25721,-0.13415 0.61767,-0.24436 0.80102,-0.2449 0.87097,-0.003 5.0915,-4.942 5.3792,-6.2953 0.0563,-0.26465 0.27607,-0.84853 0.48846,-1.2975 0.51208,-1.0825 0.83995,-1.9833 1.7234,-4.7347 0.62355,-1.9421 0.84148,-2.2573 1.3884,-2.0081 0.21092,0.0961 0.41777,0.26403 0.45964,0.37316 0.11432,0.29787 -0.34922,2.8106 -0.71583,3.8804 -0.17706,0.51669 -0.32193,1.0236 -0.32193,1.1266 0,0.18287 -0.54671,1.417 -1.1586,2.6155 -0.37838,0.74111 -0.74202,1.815 -0.88939,2.6265 -0.0613,0.33773 -0.17663,0.65432 -0.25626,0.70353 -0.0796,0.0492 -0.14475,0.73273 -0.14475,1.519 v 1.4295 l 0.57696,0.27513 c 0.31734,0.15133 0.77653,0.27274 1.0204,0.26982 0.57293,-0.007 2.0761,-0.5265 2.4438,-0.84479 0.15693,-0.13582 0.94657,-0.63788 1.7547,-1.1157 1.3946,-0.82451 1.6726,-0.99714 2.6774,-1.6623 0.23356,-0.15461 0.68179,-0.43394 0.99608,-0.62075 1.3393,-0.79602 1.7707,-1.0825 2.2801,-1.5141 0.29648,-0.25123 0.82038,-0.60031 1.1642,-0.77572 0.34383,-0.17541 1.0309,-0.64945 1.5269,-1.0534 0.496,-0.40395 1.0165,-0.73448 1.1568,-0.73448 0.14026,0 0.42444,-0.18283 0.63153,-0.40627 0.20709,-0.22345 0.9199,-0.7618 1.584,-1.1963 0.66415,-0.43453 1.3074,-0.91182 1.4295,-1.0606 0.1221,-0.14878 0.54454,-0.43162 0.93878,-0.62852 0.39423,-0.19688 0.71678,-0.41842 0.71678,-0.49231 0,-0.0739 0.0812,-0.13432 0.18051,-0.13432 0.0993,0 0.38658,-0.16531 0.63841,-0.36735 0.94212,-0.75582 1.2113,-0.93877 1.3812,-0.93877 0.096,0 0.43001,-0.21003 0.74232,-0.46671 0.31229,-0.25669 0.75148,-0.52253 0.97597,-0.59075 0.22449,-0.0682 0.51836,-0.21985 0.65306,-0.33698 0.13469,-0.11711 0.56369,-0.32249 0.95332,-0.45639 0.66701,-0.22922 0.74335,-0.22313 1.3061,0.10422 0.71357,0.41506 0.9569,0.70177 1.0898,1.284 0.16555,0.72556 0.53703,0.72055 1.712,-0.0231 0.59378,-0.37579 2.1051,-0.98372 2.4455,-0.98372 0.53391,0 1.4399,0.60537 1.7218,1.1505 0.26722,0.51674 0.32643,2.2836 0.0915,2.7293 -0.20531,0.38939 -0.83013,2.5203 -0.83013,2.8311 0,0.13896 -0.18697,0.42831 -0.41549,0.64299 -0.32689,0.3071 -0.47487,0.35314 -0.69388,0.21587 -0.40785,-0.25563 -0.42315,-0.76093 -0.0466,-1.5403 0.83912,-1.7368 1.085,-4.0608 0.49654,-4.6925 -0.45409,-0.48742 -0.76466,-0.45281 -2.0617,0.22977 -1.1684,0.61489 -2.0136,1.298 -2.0136,1.6275 0,0.10691 -0.1102,0.28583 -0.2449,0.39762 -0.13469,0.11178 -0.2449,0.3319 -0.2449,0.48916 0,0.15724 -0.29146,0.60476 -0.6477,0.99448 -0.35623,0.38971 -0.73288,0.91422 -0.837,1.1656 -0.34008,0.82103 -1.4541,0.74389 -1.4541,-0.10068 0,-0.19265 0.19032,-0.63035 0.42292,-0.97267 0.96222,-1.416 1.4167,-2.9691 1.1058,-3.7791 -0.24118,-0.6285 -1.1055,-0.61453 -1.8091,0.0293 -0.11624,0.10636 -0.37296,0.24468 -0.57049,0.30738 -0.42941,0.13627 -2.1301,1.2791 -2.4158,1.6233 -0.11105,0.13381 -0.29012,0.2433 -0.39792,0.2433 -0.10782,0 -0.58937,0.36734 -1.0701,0.81632 -0.48076,0.44898 -1.0044,0.81633 -1.1636,0.81633 -0.1592,0 -0.34829,0.0986 -0.4201,0.2192 -0.0718,0.12055 -0.35097,0.35829 -0.62036,0.52829 -0.26938,0.17 -1.0236,0.7297 -1.6761,1.2438 -0.65246,0.51407 -1.4366,1.0534 -1.7425,1.1986 -0.30589,0.14516 -0.5942,0.36302 -0.64069,0.48413 -0.0465,0.12113 -0.73173,0.60183 -1.5228,1.0683 -0.79109,0.46644 -1.4776,0.90983 -1.5257,0.98534 -0.048,0.0755 -0.36562,0.25355 -0.7057,0.39566 -0.34008,0.14209 -0.96201,0.4985 -1.382,0.79202 -0.42003,0.29351 -1.0935,0.71276 -1.4966,0.93165 -0.4031,0.21889 -1.0516,0.63675 -1.4411,0.92859 -0.38946,0.29184 -0.77515,0.53061 -0.85706,0.53061 -0.0819,0 -0.57221,0.31466 -1.0895,0.69927 -1.5877,1.1803 -3.1497,1.5193 -4.8747,1.058 -0.88013,-0.2354 -1.5353,-0.91225 -1.5353,-1.5861 0,-1.4588 -0.45775,-1.8792 -1.1001,-1.0104 -0.18986,0.25681 -0.8098,0.80808 -1.3776,1.2251 -0.56783,0.41696 -1.112,0.82282 -1.2094,0.90189 -0.0973,0.0791 -0.40447,0.19375 -0.6826,0.25484 -0.27812,0.0611 -0.59322,0.21654 -0.70021,0.34547 -0.18957,0.22839 -1.2955,0.29339 -2.0321,0.11941 z"
         id="between" />
    </g>
  </g>
</svg>
