<svg xmlns="http://www.w3.org/2000/svg" height="29.355" width="59.259"><path d="M16.976 9.058c.3-.3.229-.828-.135-.828-.18 0-.512.369-.56.435a3.138 3.138 0 00-.291.56c-.119.31.403.376.693.087zm10.089 18.157a6.573 6.573 0 001.137-2c.223-.629.523-1.363.667-1.633.144-.27.417-1.498.418-1.88.002-.686-.324-.768-.506-.294-.052.135-.276.786-.458.786-.333 0-1.312 1.16-1.312 1.556 0 .11-.11.292-.245.404-.135.111-.245.322-.246.469 0 .146-.184.627-.408 1.068-.24.475-.407 1.082-.407 1.483 0 1.196.364 1.207 1.36.04zm-2.663.082c.045-1.412.826-3.11 1.428-3.99.266-.387.54-.887.61-1.11.13-.415.59-1.123 1.108-1.707.16-.182.33-.48.375-.662.046-.183.743-.915 1.55-1.627.909-.802 1.5-1.452 1.554-1.711.048-.23.157-.587.24-.793.17-.42.206-1.34.052-1.34-.204 0-1.696.873-1.696.993 0 .068-.328.249-.729.402-1.088.416-2.575.274-3.149-.3-.615-.615-.574-1.792.12-3.372.344-.785.495-1.364.461-1.77-.049-.593-.063-.605-.714-.593-.886.016-2.05.6-2.41 1.209-.16.271-.382.493-.493.493-.11 0-.526.33-.923.735-.396.404-.808.734-.916.734-.107 0-.342.251-.523.558-.181.307-.758.83-1.282 1.161-.524.332-1.104.743-1.29.913-.187.17-.775.425-1.307.565-.992.26-1.939.145-2.49-.305-.483-.394-.79-1.32-.662-1.994.069-.359.13-.855.134-1.102l.01-.448h-2.087c-1.627 0-2.166-.057-2.45-.256-.202-.141-.6-.232-.89-.204-.416.04-.562.153-.693.534a2.999 2.999 0 01-.534.881c-.202.22-.367.517-.367.662 0 .438-1.113 1.95-1.801 2.45-.907.656-2.192.807-3.043.356-1.643-.87-1.789-1.34-1.441-4.65.137-1.309.33-2.583.43-2.832.098-.248.238-.892.31-1.431.073-.539.284-1.714.468-2.612.183-.898.42-2.294.526-3.102.107-.81.303-1.598.438-1.755.312-.364.989-.37 1.126-.012.11.288-.352 4.031-.602 4.869-.08.269-.217 1.004-.304 1.632a21.856 21.856 0 01-.417 2.123c-.338 1.279-.751 4.018-.751 4.977 0 1.088.4 1.472 1.538 1.472.813 0 .914-.046 1.47-.662.33-.364.684-.86.79-1.102.104-.242.352-.705.55-1.027.197-.323.41-.931.473-1.35.127-.848.657-1.41 1.329-1.41.215 0 .759.186 1.208.414.99.502 2.88.688 4.296.422 1.045-.196 1.115-.258 1.93-1.723.65-1.17 1.458-2.054 1.869-2.047.35.006 1.08.607 1.35 1.115.262.488-.03 1.49-.6 2.062-.246.248-.869.737-1.383 1.087-1.095.745-1.227.952-1.366 2.132-.085.725-.051.938.188 1.177.442.441 1.757.226 2.475-.404.301-.264.62-.48.71-.48.09 0 .62-.436 1.178-.97.559-.532 1.328-1.194 1.71-1.47.38-.275.693-.56.693-.633 0-.244 2.388-1.803 3.281-2.143 1.053-.4 1.5-.42 2.008-.087.528.346.984 1.415.848 1.988-.06.252-.202.903-.316 1.446-.114.544-.331 1.166-.483 1.384-.152.217-.277.635-.277.93 0 .532.003.534.811.534.925 0 1.917-.407 2.056-.845.052-.164.343-.488.648-.72.305-.233.602-.582.66-.776.059-.194.276-.536.483-.76.515-.56 1.22-1.93 1.22-2.372 0-.67 1.075-1.101 1.554-.623.32.321.27.848-.216 2.26-.917 2.66-1.106 3.836-.613 3.836.13 0 .281-.075.338-.167.118-.19 1.815-1.465 1.952-1.465.05 0 .438-.24.864-.532.426-.293.994-.639 1.264-.769.269-.13.6-.324.734-.431.135-.108.613-.306 1.061-.442a18.625 18.625 0 001.878-.727c.584-.265 1.318-.529 1.633-.585a37.58 37.58 0 001.306-.27c3.63-.82 6.789-1.118 8.981-.846 1.505.186 1.954.361 2.696 1.05.265.248.574.45.684.45.111 0 .307.202.435.449s.464.738.746 1.093c.667.837.914 1.412 1.146 2.673.197 1.072.08 1.499-.414 1.499-.243 0-1.05-.987-1.05-1.284 0-.403-.958-2.25-1.442-2.78-.277-.304-.526-.607-.552-.674-.147-.38-1.398-.968-2.431-1.143-1.145-.193-1.931-.168-4.799.15-2.472.274-5.554.974-6.24 1.416-.198.128-.5.233-.67.233-.35 0-2.43.905-2.804 1.22-.135.113-.445.253-.69.311-.244.058-.61.277-.816.486-.204.209-.717.576-1.14.816-1.545.88-4.002 3.358-4.151 4.188-.057.314-.162.646-.234.738-.164.209-.574 1.441-.73 2.195-.065.311-.183.679-.262.816-.368.637-1.12 2.707-1.123 3.09-.005.717-1.494 2.874-2.253 3.262-.241.123-.6.37-.796.55-.356.325-1.2.363-1.642.039-.512-.377-.547-1.198-.527-1.833z" stroke-width=".163"/></svg>