<?xml version="1.0" encoding="UTF-8" standalone="no"?>
<svg
   xmlns:dc="http://purl.org/dc/elements/1.1/"
   xmlns:cc="http://creativecommons.org/ns#"
   xmlns:rdf="http://www.w3.org/1999/02/22-rdf-syntax-ns#"
   xmlns:svg="http://www.w3.org/2000/svg"
   xmlns="http://www.w3.org/2000/svg"
   id="svg2094"
   viewBox="0 0 59.258906 29.354504"
   version="1.1"
   height="29.354504"
   width="59.258907">
  <defs
     id="defs2098" />
  <metadata
     id="metadata2">
    <rdf:RDF>
      <cc:Work
         rdf:about="">
        <dc:format>image/svg+xml</dc:format>
        <dc:type
           rdf:resource="http://purl.org/dc/dcmitype/StillImage" />
        <dc:title />
      </cc:Work>
    </rdf:RDF>
  </metadata>
  <g
     transform="translate(-610.86431,-797.56217)"
     id="g2092">
    <g
       style="stroke-width:0.16327"
       id="g2090">
      <path
         d="m 627.84,806.62 c 0.30044,-0.30044 0.22918,-0.82745 -0.13451,-0.82745 -0.17959,0 -0.51218,0.36861 -0.56091,0.43507 -0.0977,0.13318 -0.236,0.41846 -0.2905,0.5605 -0.11849,0.30875 0.40338,0.37535 0.69295,0.0857 z m 10.089,18.157 c 0.46536,-0.54484 0.87972,-1.2736 1.1372,-2 0.22283,-0.62857 0.5231,-1.3633 0.66727,-1.6327 0.14418,-0.26938 0.41727,-1.4981 0.41781,-1.8797 0.002,-0.68593 -0.32401,-0.7688 -0.50608,-0.2943 -0.0517,0.13469 -0.27591,0.78628 -0.45776,0.78628 -0.33334,0 -1.3123,1.1604 -1.3123,1.5555 0,0.11023 -0.11021,0.29187 -0.2449,0.40366 -0.1347,0.11179 -0.24521,0.32283 -0.24559,0.46897 0,0.14615 -0.18404,0.62716 -0.40816,1.0689 -0.24062,0.47429 -0.40748,1.0816 -0.40748,1.483 0,1.1958 0.36382,1.2066 1.3599,0.0404 z m -2.6628,0.0817 c 0.0451,-1.4116 0.82589,-3.1094 1.4284,-3.9891 0.26553,-0.38766 0.53992,-0.88707 0.60974,-1.1098 0.13013,-0.41513 0.58946,-1.1234 1.1078,-1.708 0.16062,-0.18117 0.3296,-0.4791 0.37551,-0.66204 0.0459,-0.18294 0.74316,-0.91481 1.5494,-1.6264 0.90878,-0.80201 1.4995,-1.4525 1.5542,-1.7114 0.0485,-0.22973 0.15658,-0.58647 0.24015,-0.79273 0.17055,-0.42087 0.20594,-1.3392 0.0516,-1.3392 -0.20418,0 -1.6956,0.87257 -1.6956,0.99203 0,0.0681 -0.32808,0.24911 -0.72906,0.40225 -1.088,0.4155 -2.5749,0.27396 -3.1486,-0.29972 -0.61582,-0.61582 -0.5743,-1.7926 0.11899,-3.3722 0.34461,-0.78517 0.49568,-1.3644 0.4619,-1.7711 -0.0492,-0.59192 -0.0638,-0.60407 -0.71444,-0.59241 -0.88594,0.0158 -2.0499,0.5999 -2.4098,1.2091 -0.16026,0.27129 -0.38213,0.49326 -0.49305,0.49326 -0.11092,0 -0.52615,0.33061 -0.92272,0.73469 -0.39658,0.40409 -0.80871,0.7347 -0.91582,0.7347 -0.10714,0 -0.34286,0.25097 -0.52384,0.55771 -0.18098,0.30675 -0.75763,0.82913 -1.2814,1.1609 -0.5238,0.33172 -1.1047,0.74263 -1.291,0.91311 -0.18622,0.17048 -0.77398,0.4245 -1.3061,0.56449 -0.99248,0.26108 -1.9388,0.14547 -2.4897,-0.30417 -0.48331,-0.39444 -0.7913,-1.3214 -0.66253,-1.994 0.0688,-0.35919 0.12928,-0.8551 0.13445,-1.102 l 0.009,-0.44898 h -2.0861 c -1.6273,0 -2.1662,-0.0561 -2.4504,-0.25514 -0.20178,-0.14134 -0.59898,-0.23237 -0.89051,-0.20408 -0.41569,0.0403 -0.56119,0.15251 -0.69247,0.53389 -0.0914,0.26557 -0.33153,0.66201 -0.53357,0.88098 -0.20204,0.21899 -0.36735,0.51697 -0.36735,0.66221 0,0.43713 -1.113,1.9503 -1.8013,2.4489 -0.90684,0.65692 -2.1913,0.80766 -3.0426,0.35708 -1.643,-0.8696 -1.7887,-1.3397 -1.4411,-4.6502 0.13747,-1.3089 0.33056,-2.5832 0.42911,-2.8318 0.0986,-0.24857 0.23878,-0.89276 0.31161,-1.4315 0.0728,-0.53877 0.28292,-1.7143 0.46686,-2.6122 0.18395,-0.89796 0.42104,-2.2939 0.5269,-3.102 0.10611,-0.81011 0.30244,-1.5976 0.43757,-1.7551 0.31154,-0.36313 0.98864,-0.37028 1.1262,-0.0119 0.11068,0.28842 -0.3519,4.0313 -0.60176,4.869 -0.0803,0.26939 -0.21742,1.0041 -0.30461,1.6327 -0.0872,0.62857 -0.2749,1.5837 -0.41715,2.1224 -0.33777,1.2792 -0.75099,4.0181 -0.75099,4.9776 0,1.0878 0.40109,1.4714 1.5384,1.4714 0.81278,0 0.91358,-0.0454 1.4705,-0.66183 0.32886,-0.364 0.68378,-0.85992 0.78873,-1.102 0.10495,-0.24213 0.35252,-0.70446 0.55017,-1.0274 0.19765,-0.32297 0.41086,-0.93048 0.47376,-1.35 0.12717,-0.848 0.65645,-1.4097 1.3283,-1.4097 0.21536,0 0.75896,0.18617 1.208,0.41369 0.99126,0.50232 2.881,0.6882 4.2965,0.42263 1.0447,-0.196 1.1146,-0.25845 1.9294,-1.7233 0.65035,-1.1692 1.4582,-2.0537 1.8694,-2.0467 0.35082,0.006 1.0793,0.60707 1.351,1.1147 0.26134,0.48834 -0.0302,1.4899 -0.60036,2.0623 -0.24671,0.24769 -0.86926,0.73663 -1.3834,1.0865 -1.0948,0.74497 -1.2276,0.95228 -1.3663,2.1326 -0.0852,0.72485 -0.0511,0.93742 0.18869,1.1772 0.44106,0.44104 1.7568,0.22601 2.4749,-0.40446 0.30078,-0.2641 0.62029,-0.48016 0.71002,-0.48016 0.0897,0 0.61982,-0.43604 1.178,-0.96897 0.55815,-0.53291 1.3271,-1.1946 1.7087,-1.4704 0.38164,-0.2758 0.69388,-0.56098 0.69388,-0.63373 0,-0.2436 2.3884,-1.8032 3.2811,-2.1424 1.0527,-0.40011 1.5002,-0.41949 2.0076,-0.087 0.52787,0.34586 0.98409,1.4149 0.84814,1.9874 -0.0598,0.25188 -0.20189,0.9028 -0.3157,1.4465 -0.11383,0.54371 -0.33137,1.1662 -0.48343,1.3833 -0.15207,0.21711 -0.27647,0.63552 -0.27647,0.92983 0,0.53278 0.003,0.5351 0.81079,0.5351 0.92535,0 1.9167,-0.40794 2.0557,-0.84588 0.0519,-0.16346 0.3436,-0.48735 0.64831,-0.71975 0.30468,-0.2324 0.60186,-0.58133 0.66036,-0.7754 0.0585,-0.19407 0.27564,-0.53652 0.48251,-0.76101 0.51535,-0.55922 1.2198,-1.9289 1.2198,-2.3717 0,-0.67015 1.0755,-1.1009 1.554,-0.62244 0.32114,0.32115 0.27077,0.84803 -0.21598,2.2594 -0.91716,2.6594 -1.1053,3.8367 -0.61295,3.8367 0.12939,0 0.28168,-0.0751 0.3384,-0.16689 0.1182,-0.19127 1.8152,-1.4658 1.9517,-1.4658 0.0496,0 0.43849,-0.23947 0.86411,-0.53213 0.4256,-0.29269 0.99424,-0.6385 1.2636,-0.76848 0.26939,-0.12999 0.6,-0.32418 0.7347,-0.43156 0.13469,-0.10738 0.61224,-0.30587 1.0612,-0.44111 0.44898,-0.13523 1.2939,-0.46269 1.8776,-0.7277 0.58368,-0.26502 1.3184,-0.5283 1.6327,-0.58508 0.31428,-0.0568 0.90204,-0.17801 1.3061,-0.26939 3.6298,-0.82086 6.7888,-1.1186 8.9811,-0.84658 1.5054,0.18681 1.9541,0.36173 2.6957,1.051 0.26573,0.24693 0.57383,0.44898 0.68469,0.44898 0.11085,0 0.30649,0.20204 0.43474,0.44897 0.12826,0.24694 0.4641,0.7388 0.74632,1.093 0.66684,0.83697 0.91353,1.4127 1.1456,2.6735 0.19733,1.0721 0.0794,1.4987 -0.41414,1.4987 -0.24303,0 -1.0495,-0.98689 -1.0495,-1.2843 0,-0.40216 -0.95856,-2.2495 -1.442,-2.7791 -0.27776,-0.30426 -0.52612,-0.60756 -0.5519,-0.67399 -0.1479,-0.38103 -1.3984,-0.96878 -2.4319,-1.1431 -1.1443,-0.19299 -1.9308,-0.16846 -4.7986,0.14973 -2.4723,0.27429 -5.5536,0.97355 -6.2392,1.4159 -0.19889,0.12833 -0.50097,0.23331 -0.6713,0.23331 -0.3502,0 -2.4298,0.90437 -2.8038,1.2193 -0.13469,0.11342 -0.44475,0.25367 -0.68903,0.31168 -0.24426,0.058 -0.6116,0.27649 -0.81632,0.48553 -0.2047,0.20905 -0.71754,0.57649 -1.1396,0.81657 -1.5456,0.8791 -4.0028,3.3572 -4.152,4.1873 -0.0565,0.31428 -0.16186,0.64669 -0.23414,0.73869 -0.16381,0.20849 -0.57372,1.4411 -0.72985,2.1947 -0.0645,0.31133 -0.18238,0.67867 -0.26197,0.81632 -0.36781,0.63617 -1.1202,2.7064 -1.1226,3.089 -0.005,0.71744 -1.4943,2.8746 -2.2533,3.2627 -0.24086,0.12317 -0.59911,0.37088 -0.79613,0.55048 -0.35542,0.32402 -1.2007,0.36229 -1.6418,0.0381 -0.51224,-0.37648 -0.54729,-1.1975 -0.52698,-1.8329 z"
         id="beyond" />
    </g>
  </g>
</svg>
