<svg xmlns="http://www.w3.org/2000/svg" height="17.943" width="24.3"><path d="M12.504 5.699c-.394-.23-.386-1.315.013-1.676.454-.411 1.284-.355 1.437.097.143.42.117.674-.13 1.306-.188.481-.759.6-1.32.272zm3.551 9.748c.792-.372 2.368-1.901 2.368-2.297 0-.105.23-.553.51-.996.281-.443.52-1.023.53-1.289.019-.44-.039-.495-.657-.62-.506-.103-.99-.056-1.912.185-1.07.28-1.335.428-1.993 1.109-1.038 1.073-1.529 1.883-1.643 2.717-.088.643-.052.74.424 1.14.65.547 1.29.56 2.373.051zM24.3 3.68a.91.91 0 01-.219.55c-.278.328-.869 2.179-.97 3.037-.042.361-.294 1.132-.559 1.714-.752 1.647-1.49 4.506-1.634 6.325-.078.981-.046 1.238.187 1.496.218.24.243.385.11.632-.279.522-.932.678-1.26.302-.444-.508-.578-1.006-.526-1.958.072-1.32-.162-1.321-1.525-.012-.91.875-1.168 1.027-2.186 1.289-1.318.338-2.042.265-2.866-.29-.92-.62-1.432-2.55-.873-3.288.131-.175.24-.446.24-.602 0-.157.22-.527.49-.822.269-.295.489-.582.489-.639 0-.17-2.805-.298-3.632-.165-.925.15-1.288.446-1.671 1.366-.517 1.24-.63 1.43-1.219 2.042-1.347 1.403-2.24 2.113-2.788 2.218-1.939.37-2.279.318-3.326-.507-.398-.314-.474-.508-.542-1.388-.067-.864.014-1.316.52-2.9.328-1.033.666-2.047.75-2.253.084-.207.153-.682.153-1.056 0-.375.102-.977.227-1.34.56-1.62.798-2.607 1.155-4.802C3.19.385 3.335.007 3.839 0c.362-.005.706.51.706 1.058 0 .64-.162 1.463-.903 4.572-.299 1.257-.592 2.58-.652 2.939-.06.36-.432 1.632-.828 2.83-1.062 3.21-.946 4.272.465 4.272.535 0 1.543-.393 1.909-.743.14-.134.442-.384.672-.554.23-.171.89-1.197 1.47-2.28.577-1.082 1.132-2 1.23-2.039.1-.038 1.45-.124 2.999-.19 2.65-.111 2.91-.152 4.39-.684 2.006-.722 2.47-.777 3.83-.462 1.357.315 1.177.327 1.587-.11.413-.438.81-1.33.81-1.82 0-.193.098-.497.217-.674.12-.177.462-1.02.761-1.873.636-1.812.476-2.033 1.246-1.959.499.048.552.896.552 1.397z" stroke-width=".163"/></svg>