<?xml version="1.0" encoding="UTF-8" standalone="no"?>
<svg
   xmlns:dc="http://purl.org/dc/elements/1.1/"
   xmlns:cc="http://creativecommons.org/ns#"
   xmlns:rdf="http://www.w3.org/1999/02/22-rdf-syntax-ns#"
   xmlns:svg="http://www.w3.org/2000/svg"
   xmlns="http://www.w3.org/2000/svg"
   id="svg2094"
   viewBox="0 0 24.299731 17.943335"
   version="1.1"
   height="17.943335"
   width="24.299732">
  <defs
     id="defs2098" />
  <metadata
     id="metadata2">
    <rdf:RDF>
      <cc:Work
         rdf:about="">
        <dc:format>image/svg+xml</dc:format>
        <dc:type
           rdf:resource="http://purl.org/dc/dcmitype/StillImage" />
        <dc:title />
      </cc:Work>
    </rdf:RDF>
  </metadata>
  <g
     transform="translate(-611.12577,-823.18147)"
     id="g2092">
    <g
       style="stroke-width:0.16327"
       id="g2081">
      <path
         d="m 623.63,828.88 c -0.39442,-0.22973 -0.38609,-1.3149 0.0129,-1.6759 0.45369,-0.4106 1.2835,-0.35449 1.4367,0.0971 0.14269,0.42055 0.11747,0.67443 -0.12978,1.3061 -0.18852,0.4816 -0.75878,0.59941 -1.3198,0.27264 z m 3.551,9.7485 c 0.79206,-0.3724 2.3673,-1.9012 2.3673,-2.2974 0,-0.10471 0.22985,-0.55281 0.51075,-0.99577 0.28091,-0.44295 0.51969,-1.0228 0.53061,-1.2884 0.0181,-0.44049 -0.0399,-0.49524 -0.65799,-0.6208 -0.50603,-0.1028 -0.99066,-0.0558 -1.9117,0.18548 -1.0693,0.28007 -1.3352,0.42794 -1.9936,1.1085 -1.0381,1.0731 -1.5282,1.8838 -1.6424,2.7169 -0.0882,0.64359 -0.0525,0.73962 0.42412,1.1407 0.6495,0.54652 1.2896,0.56025 2.3729,0.0509 z m 8.2445,-11.767 c -2.2e-4,0.19714 -0.0982,0.40791 -0.21827,0.54967 -0.27815,0.32847 -0.86909,2.1791 -0.96976,3.037 -0.0424,0.36125 -0.29427,1.1327 -0.55971,1.7143 -0.75164,1.6468 -1.4904,4.5057 -1.6344,6.3245 -0.0777,0.98193 -0.0455,1.2389 0.18777,1.4966 0.21736,0.24017 0.24244,0.38441 0.10988,0.63208 -0.2791,0.52151 -0.9321,0.67793 -1.2608,0.30201 l 4.2e-4,1e-5 c -0.44436,-0.50823 -0.57807,-1.006 -0.52601,-1.9584 0.0721,-1.3192 -0.16215,-1.3211 -1.5244,-0.0122 -0.91139,0.87569 -1.1687,1.0274 -2.1869,1.2891 -1.3172,0.33856 -2.0417,0.26525 -2.8657,-0.28999 -0.91925,-0.61948 -1.4318,-2.5495 -0.87319,-3.288 0.13183,-0.17432 0.2397,-0.44529 0.2397,-0.60217 0,-0.15689 0.22041,-0.52657 0.4898,-0.82151 0.26939,-0.29495 0.48979,-0.58236 0.48979,-0.63869 0,-0.17123 -2.8048,-0.29883 -3.6319,-0.16521 -0.92537,0.14947 -1.2879,0.44576 -1.6712,1.3656 -0.51644,1.2397 -0.62966,1.4294 -1.2184,2.0424 -1.347,1.4026 -2.2397,2.1125 -2.7884,2.2174 -1.9389,0.37076 -2.2791,0.31893 -3.3262,-0.50689 -0.3979,-0.31378 -0.47342,-0.50733 -0.54162,-1.3878 -0.0669,-0.86366 0.014,-1.3157 0.51907,-2.9006 0.32908,-1.0327 0.66697,-2.0463 0.75089,-2.2526 0.0839,-0.20626 0.15257,-0.68136 0.15257,-1.0558 0,-0.37441 0.10247,-0.97708 0.22769,-1.3393 0.56038,-1.6208 0.79765,-2.6078 1.1544,-4.8022 0.36489,-2.2446 0.5108,-2.6228 1.0144,-2.6293 0.36206,-0.005 0.70553,0.51034 0.70553,1.0579 0,0.64054 -0.16225,1.4627 -0.9023,4.5722 -0.2992,1.2571 -0.59267,2.5796 -0.65216,2.9388 -0.0595,0.35918 -0.43202,1.6324 -0.82787,2.8294 -1.062,3.2114 -0.94655,4.2726 0.46472,4.2726 0.5345,0 1.5433,-0.39283 1.9086,-0.74323 0.13964,-0.13391 0.44203,-0.38322 0.67197,-0.55401 0.22996,-0.17079 0.89119,-1.1965 1.4694,-2.2793 0.57822,-1.0828 1.1325,-2.0004 1.2318,-2.0391 0.0993,-0.0387 1.4483,-0.12397 2.9979,-0.18952 2.6499,-0.11213 2.9109,-0.15285 4.3909,-0.68508 2.0057,-0.72126 2.469,-0.77714 3.8286,-0.4617 1.3577,0.31501 1.1772,0.32743 1.5881,-0.1093 0.41265,-0.43858 0.80996,-1.3315 0.80996,-1.8204 0,-0.19355 0.0976,-0.49681 0.2168,-0.67394 0.11924,-0.17712 0.46173,-1.02 0.76107,-1.8731 0.63581,-1.8119 0.47573,-2.0329 1.2462,-1.9592 0.49818,0.0476 0.55158,0.89613 0.55103,1.3966 z"
         id="bid" />
    </g>
  </g>
</svg>
