<?xml version="1.0" encoding="UTF-8" standalone="no"?>
<svg
   xmlns:dc="http://purl.org/dc/elements/1.1/"
   xmlns:cc="http://creativecommons.org/ns#"
   xmlns:rdf="http://www.w3.org/1999/02/22-rdf-syntax-ns#"
   xmlns:svg="http://www.w3.org/2000/svg"
   xmlns="http://www.w3.org/2000/svg"
   id="svg2094"
   viewBox="0 0 23.275684 28.53853"
   version="1.1"
   height="28.53853"
   width="23.275684">
  <defs
     id="defs2098" />
  <metadata
     id="metadata2">
    <rdf:RDF>
      <cc:Work
         rdf:about="">
        <dc:format>image/svg+xml</dc:format>
        <dc:type
           rdf:resource="http://purl.org/dc/dcmitype/StillImage" />
        <dc:title />
      </cc:Work>
    </rdf:RDF>
  </metadata>
  <g
     transform="translate(-611.14603,-846.73071)"
     id="g2092">
    <g
       style="stroke-width:0.16327"
       id="g2081">
      <path
         d="m 623.17,851.97 c -0.3607,-0.94872 0.27166,-1.6364 1.2628,-1.3734 0.39197,0.10404 0.47256,0.21904 0.51589,0.73613 0.0668,0.79695 -0.1882,1.0798 -0.97334,1.0798 -0.54258,0 -0.66207,-0.0657 -0.80539,-0.44261 z m 6.6358,10.546 c 0.18537,-0.16888 0.40578,-0.30741 0.4898,-0.30782 0.19112,-0.002 1.214,-0.94911 1.214,-1.1253 0,-0.0715 0.2614,-0.3991 0.58091,-0.72808 0.54505,-0.56123 0.58284,-0.66933 0.61225,-1.7515 0.0406,-1.4942 -0.15829,-1.6785 -1.6992,-1.575 -2.5,0.16787 -4.8817,2.4838 -4.8817,4.7469 0,1.0678 2.7239,1.6156 3.684,0.74087 z m -0.92303,12.308 c -0.17091,-0.44951 0.0643,-1.7498 0.34818,-1.9253 0.0691,-0.0427 0.17822,-0.46323 0.24256,-0.93456 0.0643,-0.47133 0.29722,-1.3712 0.5175,-1.9998 0.2203,-0.62857 0.45871,-1.373 0.52985,-1.6542 0.0711,-0.28124 0.18341,-0.59889 0.24953,-0.70589 0.0661,-0.10699 0.29623,-0.90528 0.51133,-1.774 0.40183,-1.6228 0.4984,-2.6414 0.25042,-2.6414 -0.0774,0 -0.61003,0.21066 -1.1837,0.46811 -1.3851,0.62165 -2.8117,0.77778 -3.7593,0.41143 -0.93458,-0.36134 -1.5573,-0.95226 -1.6748,-1.5894 -0.18558,-1.0056 0.36134,-3.0296 1.0249,-3.7928 0.20091,-0.23109 0.34256,-0.57987 0.31477,-0.77507 -0.0458,-0.32173 -0.16101,-0.3594 -1.2316,-0.40284 -0.72592,-0.0294 -1.5081,0.0492 -2.0296,0.20408 -0.46671,0.1386 -1.4145,0.252 -2.1063,0.252 -1.4112,0 -1.5636,0.11185 -1.9831,1.4561 -0.11439,0.3665 -0.26356,0.66637 -0.3315,0.66637 -0.0679,0 -0.12351,0.0969 -0.12351,0.21541 0,0.28803 -1.1625,1.8334 -1.6515,2.1953 -1.6352,1.2104 -2.8472,1.3388 -4.0817,0.43254 -0.43856,-0.32192 -0.79739,-0.67294 -0.79739,-0.78003 0,-0.1071 -0.14281,-0.317 -0.31735,-0.46645 -0.39584,-0.33892 -0.58807,-1.2885 -0.35065,-1.7321 0.098,-0.18313 0.17866,-0.57659 0.17922,-0.87433 0,-0.29773 0.10619,-0.74299 0.23476,-0.98946 0.12857,-0.24644 0.2805,-0.79746 0.33765,-1.2245 0.0571,-0.427 0.20635,-1.107 0.33159,-1.5111 0.12524,-0.40409 0.29959,-1.5796 0.38743,-2.6122 0.0878,-1.0326 0.26622,-2.2449 0.39639,-2.6939 0.90694,-3.1282 0.92775,-3.1785 1.3582,-3.2866 0.5018,-0.12595 0.75146,0.16921 0.63948,0.75598 -0.0428,0.22449 -0.18963,0.99592 -0.32619,1.7143 -0.13655,0.71836 -0.35825,2.227 -0.49265,3.3526 -0.212,1.7753 -0.52413,3.1592 -1.0666,4.729 -0.0776,0.22449 -0.26619,0.96823 -0.41915,1.6527 -0.35479,1.5876 -0.1928,2.1874 0.75907,2.8106 0.79084,0.51778 1.4246,0.55376 1.903,0.10805 0.19277,-0.17959 0.42611,-0.32653 0.51853,-0.32653 0.20888,0 0.96286,-1.1769 1.1913,-1.8596 0.0935,-0.27928 0.2678,-0.62164 0.38743,-0.7608 0.11961,-0.13916 0.33055,-0.57998 0.46877,-0.97959 0.46018,-1.3306 0.77431,-1.7883 1.223,-1.782 0.22651,0.003 0.59553,0.11079 0.82002,0.23912 0.46863,0.2679 2.0005,0.32163 2.4415,0.0856 0.16366,-0.0876 1.1323,-0.20129 2.1525,-0.25267 1.0202,-0.0514 2.4427,-0.19694 3.1611,-0.32347 2.9281,-0.51579 3.6748,-0.58294 4.3783,-0.39369 1.1002,0.29599 1.5566,0.60477 1.9058,1.2892 0.45202,0.88602 0.41641,1.4273 -0.24791,3.7688 -0.31684,1.1167 -0.72027,2.8114 -0.89649,3.7662 -0.19151,1.0374 -0.58874,2.3841 -0.98724,3.3469 -0.36674,0.88609 -0.73272,1.9244 -0.8133,2.3073 -0.0806,0.38292 -0.21182,0.82374 -0.29164,0.97959 -0.0798,0.15586 -0.19071,0.63282 -0.24642,1.0599 -0.0964,0.73908 -0.45314,2.0625 -0.76993,2.8561 -0.20852,0.52238 -0.77307,0.47704 -0.9845,-0.0791 z"
         id="big" />
    </g>
  </g>
</svg>
