<svg xmlns="http://www.w3.org/2000/svg" height="28.539" width="23.276"><path d="M12.024 5.24c-.36-.95.272-1.637 1.263-1.374.392.104.472.219.516.736.066.797-.189 1.08-.974 1.08-.542 0-.662-.066-.805-.443zm6.636 10.545c.185-.169.406-.307.49-.308.19-.002 1.214-.949 1.214-1.125 0-.071.261-.399.58-.728.546-.561.583-.67.613-1.751.04-1.495-.159-1.679-1.7-1.575-2.5.167-4.881 2.483-4.881 4.746 0 1.068 2.724 1.616 3.684.741zm-.923 12.308c-.171-.45.064-1.75.348-1.925.069-.043.178-.463.242-.935.065-.47.298-1.37.518-2 .22-.628.459-1.372.53-1.654.07-.28.183-.598.25-.705.065-.107.296-.906.51-1.774.403-1.623.5-2.642.251-2.642-.077 0-.61.21-1.184.468-1.385.622-2.811.778-3.759.412-.934-.362-1.557-.953-1.675-1.59-.185-1.005.362-3.03 1.025-3.793.201-.23.343-.58.315-.775-.046-.321-.161-.359-1.232-.402-.726-.03-1.508.049-2.03.204-.466.138-1.414.252-2.106.252-1.41 0-1.563.111-1.983 1.456-.114.366-.263.666-.331.666s-.124.097-.124.216c0 .288-1.162 1.833-1.651 2.195-1.635 1.21-2.847 1.339-4.082.432-.438-.322-.797-.673-.797-.78 0-.107-.143-.317-.318-.466-.395-.339-.588-1.289-.35-1.732.098-.183.178-.577.179-.875 0-.297.106-.743.235-.989.128-.246.28-.797.337-1.225a11.3 11.3 0 01.332-1.51c.125-.405.3-1.58.387-2.613.088-1.032.267-2.245.397-2.694C2.878.187 2.899.137 3.329.03c.502-.126.751.169.64.756L3.642 2.5a61.922 61.922 0 00-.492 3.353c-.212 1.775-.524 3.159-1.067 4.729-.078.224-.266.968-.42 1.652-.354 1.588-.192 2.188.76 2.81.79.519 1.425.555 1.903.109.193-.18.426-.327.519-.327.208 0 .962-1.177 1.19-1.86.094-.278.269-.62.388-.76.12-.14.33-.58.469-.98.46-1.33.774-1.788 1.223-1.782.227.003.596.111.82.24.469.267 2 .321 2.442.085.163-.087 1.132-.201 2.152-.253 1.02-.05 2.443-.196 3.161-.323 2.928-.516 3.675-.583 4.378-.394 1.1.296 1.557.605 1.906 1.29.452.886.417 1.427-.248 3.768a50.259 50.259 0 00-.896 3.766 18.52 18.52 0 01-.987 3.347c-.367.886-.733 1.925-.814 2.308-.08.383-.212.823-.291.98-.08.155-.191.632-.247 1.06-.096.738-.453 2.062-.77 2.855-.208.523-.773.477-.984-.079z"/></svg>