<svg xmlns="http://www.w3.org/2000/svg" height="19.799" width="21.799"><path d="M10.974 6.706c-.27-.27-.246-1.028.038-1.265.13-.107.478-.17.776-.142.45.043.55.126.592.49.09.782-.897 1.425-1.406.917zm6.337 4.031c.357-.225.844-.72 1.082-1.102.239-.38.478-.73.532-.774.522-.434 1.135-1.542 1.311-2.367.428-2 .48-2.473.384-3.51-.157-1.72-.812-2.315-1.42-1.286-.346.587-.909 2.348-.91 2.853 0 .188-.142.47-.314.624-.171.156-.36.48-.418.72-.06.24-.288.821-.509 1.292-.22.47-.47 1.205-.554 1.633-.155.783-.36 1.516-.574 2.043-.179.44.609.369 1.39-.124zm-15.89 8.945c-.301-.045-.62-.295-.939-.734C.07 18.378 0 18.133 0 17.255c0-.565.07-1.07.154-1.122.084-.053.201-.443.26-.867a11.98 11.98 0 01.394-1.67c.159-.494.384-1.302.5-1.796.116-.494.268-1.008.337-1.143.14-.272.495-1.683.802-3.184.208-1.02.628-2.017 1.118-2.661.503-.662 1.247-.018.79.684-.124.19-.26.721-.305 1.182-.077.81-.76 3.218-1.198 4.223-.242.557-.366 1.084-.556 2.367-.074.494-.245 1.155-.38 1.469-.137.314-.373 1.096-.526 1.736-.276 1.159-.276 1.167.084 1.58.59.68 1.17.842 1.816.508 1.3-.67 2.257-1.926 2.76-3.62.114-.382.269-.695.344-.695.075 0 .137-.105.137-.233s.193-.384.428-.57c.467-.367.79-.34 1.939.166.542.238.792.258 1.469.12l1.405-.289c.933-.192 2.595-1.019 2.595-1.293 0-.135.083-.508.184-.828.432-1.371.666-2.073.792-2.38.074-.179.371-.95.661-1.713.29-.764.707-1.781.928-2.262.22-.481.505-1.277.633-1.77.313-1.198.928-2.51 1.361-2.898.447-.401 1.382-.393 1.84.016.527.47.888 1.496 1 2.837.119 1.437-.058 2.238-.928 4.215-.62 1.409-1.065 2.091-2.09 3.21-.329.36-.757.855-.95 1.102-.194.247-.45.449-.571.449-.121 0-.244.065-.274.145-.03.08-.522.466-1.092.857l-1.038.712-.553 1.633c-.623 1.837-.659 2.124-.311 2.472.431.432.485 1.034.125 1.394-.413.413-.795.212-1.315-.692-.417-.723-.439-1.123-.112-2.03.13-.36.283-1.003.34-1.43.102-.744.09-.775-.298-.775-.222 0-.837.152-1.368.337-.947.332-2.026.355-3.177.068-.365-.092-.455-.024-.734.56-.175.365-.371.664-.436.665-.065.001-.315.406-.557.9-.257.524-.863 1.303-1.46 1.877l-1.02.98-1.036-.024c-.569-.013-1.24-.055-1.49-.093z" stroke-width=".163"/></svg>