<svg xmlns="http://www.w3.org/2000/svg" height="24.237" width="20.166"><path d="M9.956 6.826c-.302-.122-.248-.946.081-1.235 1.04-.913 1.97.018 1.057 1.057-.242.276-.713.35-1.139.178zm6.407 1.687c.125-.299.347-.643.494-.765.376-.312 1-1.593 1.647-3.382.578-1.598.689-2.456.358-2.787-.277-.277-.73-.243-.848.062-.054.141-.349.637-.654 1.102-.305.464-.666 1.212-.803 1.66-.137.45-.413 1.368-.612 2.042-.2.673-.434 1.425-.521 1.67-.354.997.532 1.373.939.399zm-14.53 11.83C.24 19.365-.261 18.1.123 16.033c.12-.65.397-1.587.613-2.08.217-.495.612-1.964.878-3.266.675-3.294 1.582-5.796 2.102-5.796.19 0 .235.254.22 1.248-.01.686-.107 1.494-.215 1.796-.32.891-.827 2.938-.827 3.34 0 .205-.067.414-.148.464-.161.1-.594 1.475-.739 2.35a5.31 5.31 0 01-.319 1.06c-.407.922-.439 1.127-.326 2.127.178 1.568.974 2.094 2.252 1.488.981-.465 1.77-1.747 2.661-4.322.14-.404.312-.799.383-.877.07-.078.748-.131 1.505-.118 1.326.022 1.43-.004 2.844-.711 1.355-.679 2.336-1.41 2.336-1.74 0-.075.174-.525.388-.999a11.06 11.06 0 00.589-1.76c.308-1.379.842-3.147 1.059-3.51.107-.18.238-.473.29-.653.347-1.184 1.184-2.8 1.778-3.435.71-.758.864-.79 1.73-.365.535.263 1.082 1.484.955 2.133-.057.289-.142.802-.19 1.141-.087.62-.844 2.317-1.508 3.383-.196.314-.356.671-.357.793 0 .3-1.395 2.021-2.532 3.125-1.042 1.013-1.474 1.771-2.284 4.007-.785 2.17-.868 2.956-.411 3.871.398.799.39 1.22-.028 1.484-.596.376-1.511-.578-1.831-1.908-.117-.486.421-2.517.828-3.124.12-.177.217-.562.217-.857 0-.45-.06-.535-.376-.535-.206 0-.45.076-.543.168-.266.265-2.347.975-2.861.975-.457 0-1.119.487-1.119.823 0 .094-.297.627-.66 1.184-.362.558-.702 1.185-.756 1.395-.111.441-.499.886-1.498 1.72-.82.685-1.597.78-2.393.29zm9.143 3.51c-.303-.464-.174-.893.304-1.012.192-.048 1.562-.067 3.043-.042 1.482.025 3.295-.018 4.03-.097 1.169-.125 1.37-.107 1.618.14.415.416.131 1.116-.51 1.253-.267.057-2.228.113-4.36.123l-3.873.02z" stroke-width=".163"/></svg>