<svg xmlns="http://www.w3.org/2000/svg" height="19.727" width="35.81"><path d="M9.462 7.156c-.449-.45-.027-1.76.567-1.762.665-.002.87.174.87.75 0 .905-.906 1.542-1.437 1.011zm6.613-.173c.198-.291.52-.934.717-1.427.196-.494.493-1.197.66-1.562.51-1.114.335-2.525-.314-2.516-.484.007-.778.875-1.414 4.163-.392 2.028-.315 2.323.352 1.342zm-14.56 12.6C.892 19.399.133 18.448.011 17.698c-.086-.533.325-2.635 1.035-5.288l.48-1.796c.133-.494.313-1.026.4-1.181.089-.156.161-.501.161-.767 0-.87.502-4.332.649-4.48.079-.08.333-.096.564-.038.378.094.42.183.417.877-.004 1.04-.408 3.827-.61 4.215-.089.172-.214.68-.279 1.128-.138.962-.406 1.992-.958 3.673-.221.674-.487 1.73-.59 2.348-.18 1.07-.172 1.142.174 1.51.547.583 1.523.534 2.31-.114.335-.276.609-.612.609-.746s.173-.478.384-.764c.212-.285.626-1.034.922-1.663l.653-1.388c.182-.385.94-.593 1.312-.36.174.108.66.197 1.079.197.879 0 2.695-.833 3.674-1.685.612-.533.575-.44 1.702-4.274.338-1.15.733-2.97.832-3.837.047-.404.151-.804.232-.89.081-.085.148-.326.148-.535 0-.232.284-.663.73-1.11.619-.618.829-.73 1.376-.73.76 0 1.083.272 1.315 1.108.324 1.166.132 2.547-.539 3.872-.136.27-.547 1.138-.913 1.931-.611 1.322-1.278 2.392-1.747 2.804-.103.09-.38.476-.615.857-.235.382-.5.694-.586.694-.633 0-1.861 3.874-1.765 5.564.047.827.086.902.621 1.169.747.373 1.271.267 2.398-.484l1.815-1.208c1.014-.674 1.84-1.353 3.005-2.469.445-.426.864-.775.93-.775.168 0 .831-.721.837-.909.002-.084.271-.336.598-.56.326-.225.96-.795 1.408-1.266.447-.471.909-.857 1.025-.857.115 0 .316-.15.445-.334.305-.436 5.039-4.354 5.809-4.81.152-.09.86-.743 1.575-1.451C34.497 1.422 35.288.97 35.68 1.363c.31.309.099.634-.995 1.539-.428.354-.89.801-1.025.994-.135.193-.352.351-.481.351-.13 0-.236.098-.236.218 0 .302-1.15 1.197-2.016 1.568-.415.178-.984.625-1.346 1.058-.344.412-.702.75-.796.75-.093.002-.573.373-1.067.825-.494.452-1.086.923-1.317 1.048-.23.124-.627.526-.881.893s-.624.708-.821.758c-.198.05-.644.434-.992.854s-.689.788-.758.818c-.07.03-.831.748-1.694 1.597-.863.848-1.971 1.8-2.462 2.115-.492.314-1.24.845-1.663 1.179-1.191.939-2.806 1.695-3.65 1.708-.791.012-1.576-.36-1.92-.907-.342-.55-.391-2.197-.11-3.686.142-.754.221-1.431.176-1.505-.046-.074-.32-.036-.608.085-1.058.444-2.17.75-2.729.75-.982 0-1.694.644-2.439 2.202-.624 1.305-1.482 2.302-2.38 2.763-.863.444-1.162.481-1.957.247z" stroke-width=".163"/></svg>