<svg xmlns="http://www.w3.org/2000/svg" height="21.733" width="29.303"><path d="M1.676 20.688C.846 20.278 0 19.191 0 18.536c0-.259.217-1.365.481-2.458.265-1.093.557-2.574.648-3.293.092-.718.246-1.563.343-1.878.25-.808.655-2.929.89-4.653.268-1.95.364-2.204.84-2.204.383 0 .39.026.39 1.545 0 .905-.097 1.835-.234 2.245a9.774 9.774 0 00-.332 1.353c-.3 2.004-.834 4.608-1.238 6.041-.807 2.87-.78 3.398.207 4a2.14 2.14 0 002.077.086c.628-.324 2.126-2.028 2.23-2.535.045-.224.226-.722.4-1.107.175-.384.32-.861.322-1.06.002-.2.214-.617.47-.926.446-.537.484-.55.853-.31.213.14.901.3 1.53.356.937.085 1.305.042 2.041-.237.494-.188 1.118-.352 1.388-.365.46-.023.489.01.466.547-.024.564-.24 1.352-.853 3.102-.172.494-.365 1.21-.426 1.59-.107.654-.084.71.391.98.558.317.743.69.586 1.184-.08.25-.245.326-.705.322-.718-.006-1.026-.216-1.41-.96-.328-.635-.286-1.118.246-2.871.191-.629.386-1.39.434-1.691l.087-.548-.55.126c-.303.07-1.102.143-1.775.162-.674.02-1.272.044-1.33.054-.149.026-.792 1.288-.792 1.553 0 .12-.294.65-.653 1.18-.36.528-.653 1.013-.653 1.08 0 .23-1.502 1.516-2.094 1.794-.81.38-1.763.36-2.597-.052zm24.56-10.64c.094-.202.283-.661.419-1.02s.438-1.103.672-1.653c.234-.55.427-1.21.428-1.469.002-.258.109-.91.24-1.449.249-1.034.314-2.167.148-2.599-.133-.347-.654-.329-.797.028-.323.805-1.214 5.467-1.45 7.592-.109.967.04 1.216.34.571zm-8.814 11.61c-.395-.22-.35-.513.12-.799 1.12-.68 4.513-3.752 4.94-4.473.603-1.018 1.41-3.552 1.667-5.236.069-.449.24-1.257.38-1.796.14-.539.327-1.273.416-1.633.088-.36.311-1.171.495-1.803.185-.632.415-1.808.512-2.612.19-1.566.594-2.388 1.51-3.067.368-.274.512-.298.848-.145.724.33.993.956.993 2.314 0 1.218-.207 2.18-.984 4.579a30.706 30.706 0 00-.55 1.878c-.155.664-1.392 3.728-1.822 4.514-.13.238-.584.907-1.01 1.487-.746 1.018-.78 1.113-.963 2.723-.197 1.73-.143 2.026.537 2.968.105.145.141.393.08.551-.088.23-.232.269-.72.192-.865-.136-1.507-.927-1.507-1.858 0-.397-.077-.7-.178-.7-.193 0-.762.407-1.832 1.312-.657.556-1.626 1.218-2.32 1.587-.217.116-.427.122-.612.018z" stroke-width=".163"/></svg>