<svg xmlns="http://www.w3.org/2000/svg" height="20.9" width="48.54"><path d="M12.061 20.282c-.326-.227-.89-1.302-.89-1.697 0-.217.226-1.116.501-1.997.276-.88.475-1.627.444-1.659-.031-.03-.99-.012-2.129.041-2.248.107-2.734.301-2.734 1.093 0 .209-.365.867-.81 1.462-.446.597-.886 1.225-.979 1.4-.245.457-1.839 1.318-2.44 1.318-1.199 0-2.695-1.215-2.963-2.407-.16-.717.005-2.236.388-3.552.699-2.399 1.237-4.7 1.336-5.714.263-2.69 1.018-4.98 1.642-4.98.354 0 .603.598.404.97-.093.173-.171.595-.174.938-.003.343-.118 1.101-.255 1.684-.266 1.136-.26 1.11-.734 3.39a67.668 67.668 0 01-.74 3.102c-.834 3.112-.812 2.886-.384 3.835.213.471.497.949.63 1.061.31.258 1.3.255 1.745-.006.893-.523 2.512-3.143 2.785-4.506.058-.292.274-.64.479-.775.332-.218.427-.216.867.011.649.336 2.797.336 3.76 0 .396-.137 1.034-.476 1.42-.753 1.135-.815 1.552-.3.881 1.09-.173.36-.318.72-.32.8-.004.082-.228.618-.5 1.192-.27.574-.57 1.408-.666 1.852-.153.715-.134.871.167 1.359.558.903.4 1.58-.367 1.57a.776.776 0 01-.363-.123zm16.37-14.04c.44-1.245.576-1.658.795-2.408.13-.449.31-.943.396-1.1.442-.788-.063-1.29-.55-.548-.294.45-1.2 3.642-1.242 4.383-.02.329.462.067.601-.326zm17.25 1.947c.415-.612.754-1.282.754-1.488 0-.205.137-.64.304-.967.37-.722.618-1.52.743-2.39.072-.5.022-.739-.217-1.021-.459-.542-.784-.31-.996.708-.1.486-.292.992-.424 1.125-.133.133-.34.709-.459 1.28-.12.572-.296 1.187-.393 1.368-.252.47-.44 2.5-.233 2.5.092 0 .506-.502.921-1.115zm-28.96 12.39c0-.173.239-.482.53-.686.292-.203.568-.415.613-.469.045-.054.412-.255.816-.447.404-.192 1.14-.724 1.633-1.182 1.924-1.785 3.457-3.371 3.703-3.83.402-.753 1.032-2.714 1.032-3.212 0-.248.067-.493.15-.544.18-.111 1.646-4.552 1.646-4.987 0-.169.3-1.154.668-2.19.555-1.565.776-1.98 1.307-2.46.704-.636 1.313-.739 1.907-.322.464.324.48 1.107.05 2.44-.174.538-.444 1.42-.6 1.959-.335 1.152-.818 2.276-1.236 2.882-.165.238-.3.57-.3.736 0 .166-.404.906-.898 1.644-.494.737-.898 1.409-.898 1.492 0 .144-.876 1.54-1.389 2.215-.133.174-.286.578-.34.898-.055.32-.203.995-.328 1.502-.3 1.207-.289 1.702.05 2.278.247.417.374.474 1.053.474.424 0 .814-.07.867-.155.053-.085.553-.503 1.111-.927.559-.425 1.155-.95 1.325-1.166.711-.904 3.424-3.498 4.218-4.032 1.392-.938 2.83-.715 3.636.565.538.852.494 1.37-.123 1.44-.34.04-.555-.072-.872-.449-.599-.712-1.398-.689-2.59.074-2.546 1.628-2.97 3.082-1.366 4.678l.792.788h1.361c1.574 0 2.324-.312 3.86-1.605 2.721-2.294 3.807-3.745 4.477-5.986.161-.539.432-1.348.602-1.799.17-.45.308-.966.308-1.145 0-.18.147-.6.327-.935.18-.335.326-.755.326-.933 0-.178.14-.784.31-1.348.17-.563.47-1.722.665-2.575.196-.853.458-1.709.583-1.903.283-.44 1.422-.667 1.947-.386.671.36 1.118 1.877.758 2.577-.08.156-.233.761-.34 1.345-.107.584-.29 1.171-.405 1.306-.352.41-1.231 2.185-1.231 2.488 0 .156-.313.75-.694 1.321a36.591 36.591 0 00-1.675 2.711c-.18.32-.53.874-.776 1.232s-.447.746-.447.863c0 .117-.112.383-.249.591-.139.213-.292.956-.349 1.692-.092 1.197-.068 1.36.273 1.84.299.419.344.611.224.953-.186.529-.567.618-1.112.26-.385-.251-.504-.53-.815-1.91-.136-.604-.634-.588-1.263.04-.269.27-.534.49-.589.49-.055 0-.435.284-.846.63-1.506 1.27-3.014 1.685-5.149 1.418-.786-.098-1.054-.224-1.647-.77-.39-.36-.899-.978-1.131-1.374-.232-.397-.52-.721-.638-.721s-.478.202-.799.449c-2.58 1.986-2.825 2.065-4.177 1.344-1.016-.541-1.155-.748-1.312-1.944-.052-.397-.174-.748-.271-.78-.242-.08-1.409.868-1.666 1.352-.115.217-.283.395-.374.395-.183 0-1.117.629-1.374.925-.09.105-.529.417-.973.694-.955.596-1.886.69-1.886.188z" stroke-width=".163"/></svg>