<svg xmlns="http://www.w3.org/2000/svg" height="18.838" width="24.458"><path d="M2.721 18.782C1.551 18.465.529 17.286.13 15.794c-.172-.644-.173-.99-.006-1.827.113-.569.167-1.095.12-1.171-.047-.076.056-.647.228-1.268.172-.622.353-1.721.4-2.443.304-4.575.541-6.402.938-7.232.202-.422.895-.505 1.041-.124.051.134-.068 1.034-.265 2s-.389 2.454-.425 3.307c-.07 1.595-.235 2.823-.65 4.816-.13.629-.237 1.777-.235 2.553l.002 1.41.783.835c.848.903 1.3 1.032 2.122.607 1.061-.55 1.895-1.925 2.484-4.098.504-1.86.43-1.782 1.837-1.898 1.046-.087 1.363-.189 2.09-.677 1.483-.993 2.47-2.355 4.104-5.664C16.381 1.514 17.07.634 18.362.245c1.69-.508 3.36-.213 4.316.763.345.352.69.64.766.64.402 0 1.006 2.491 1.014 4.184.004.834-.683 2.453-1.273 3-.242.225-.616.67-.83.992-.253.377-.685.712-1.224.947l-1.369.6c-.31.136-1.043.237-1.735.237-1.55 0-1.668.126-1.329 1.438.14.537.253 1.297.254 1.688 0 .88.41 1.579 1.287 2.199.716.505.914.86.757 1.354-.253.798-1.294.408-2.329-.874-.925-1.146-1.186-1.831-1.186-3.117 0-1.243-.113-1.511-1.084-2.56-.76-.82-.855-1.112-.468-1.433.194-.162.453-.145 1.297.083.802.217 1.459.267 2.748.21 1.616-.072 1.735-.102 2.58-.665.487-.324 1.119-.832 1.404-1.13.985-1.03 1.44-3.177 1.016-4.786-.095-.359-.213-.858-.26-1.109-.105-.539-.858-1.155-1.837-1.5-1.525-.537-2.8-.138-3.825 1.197-.389.508-.802 1.213-.919 1.57-.116.355-.384.99-.596 1.41-.21.421-.384.851-.384.957 0 .105-.175.425-.39.71-.214.286-.575.888-.802 1.337-.454.896-3.018 3.51-3.445 3.51-.143 0-.26.068-.26.151 0 .084-.402.235-.893.337-.658.137-1 .315-1.306.677-.227.271-.414.57-.414.666 0 .095-.157.512-.348.926-.192.414-.43.936-.528 1.161-.405.924-.977 1.615-1.755 2.12-.942.61-1.669.815-2.292.646z" stroke-width=".163"/></svg>