<svg xmlns="http://www.w3.org/2000/svg" height="17.823" width="49.352"><path d="M46.44 6.314c-.13-.21.34-1.239.646-1.415.373-.214 1.074-1.629 1.074-2.167 0-.279-.111-.723-.248-.986-.203-.393-.21-.54-.042-.809.262-.419.28-.416.92.12.45.376.54.569.561 1.184.014.418-.097.975-.257 1.29-.154.306-.28.616-.28.689 0 .261-.951 1.625-1.355 1.943-.453.356-.855.416-1.018.152zm-10.46 9.71c1.043-.477 1.598-1.11 2.087-2.382.988-2.568.933-2.688-1.19-2.61-1.894.07-2.555.338-3.785 1.54-.894.872-.929.939-.929 1.753 0 .744.064.907.528 1.34.972.908 1.877 1.007 3.29.36zm-2.586 1.643a2.578 2.578 0 01-1.35-.846c-1.27-1.458-1.348-2.116-.46-3.843.759-1.474.711-1.757-.293-1.757-.394 0-1.11-.074-1.59-.165-.74-.14-1.022-.115-1.859.168-1.328.45-2.02 1.328-2.21 2.808-.168 1.295-.666 2.903-.9 2.903-.448 0-.546-.39-.453-1.817.068-1.059.042-1.449-.1-1.449-.309 0-.997.508-.997.736 0 .384-1.848 2.06-2.802 2.543-1.111.56-2.04.614-3.375.193-.757-.239-.974-.4-1.361-1.012-.254-.4-.462-.939-.462-1.195 0-.584.29-1.842.573-2.49.118-.269.266-.832.327-1.251l.113-.762-.934-.295c-.513-.161-.97-.388-1.014-.503-.16-.418-1.33-.09-1.832.515-.116.14-.38.255-.587.255-.206 0-.717.147-1.136.327-.419.18-1.083.326-1.475.326-.392 0-.906.088-1.142.195-.425.194-.893.887-.893 1.323 0 .313-1.472 2.8-2.22 3.75-.48.612-.787.83-1.43 1.02-1.463.435-2.143.237-3.026-.877C.012 15.843 0 15.782 0 14.136c.002-1.678.338-4.934.656-6.344.158-.7.294-1.641.642-4.421.085-.68.112-1.397.061-1.592-.107-.413.332-1.171.678-1.171.693 0 .732 2.106.092 5.05-.184.846-.334 1.825-.334 2.174s-.068.761-.151.916c-.084.156-.194 1.124-.247 2.153a85.298 85.298 0 01-.188 2.85c-.16 1.671.286 2.367 1.517 2.367 1.208 0 1.805-.585 2.906-2.849.661-1.36.89-2.012.873-2.478-.056-1.45.22-1.597 1.926-1.02l1.026.347 1.108-.44c.61-.243 1.366-.685 1.68-.982.314-.298.813-.663 1.108-.811.528-.266.543-.263.992.186.5.499 1.616.864 2.641.864.549 0 .68.067.81.408.184.485.065 1.198-.368 2.204-.491 1.141-.938 2.611-.938 3.087 0 .788.378 1.102 1.44 1.2.53.047 1.32.047 1.752-.003.73-.082.883-.187 2.065-1.409.702-.726 1.323-1.467 1.38-1.646.057-.18.304-.584.55-.9.724-.931 1.925-3.403 2.262-4.655.469-1.744.838-3.548.841-4.11.008-1.254.509-2.904.93-3.065.518-.198.7.225.7 1.632 0 1.337-.139 1.933-1.152 4.971-.36 1.082-.645 2.452-.645 3.11 0 .54.198.594 1.144.312.314-.094 2.125-.198 4.025-.232 2.145-.038 3.586-.131 3.801-.246.19-.102 1.067-.19 1.948-.196l1.602-.012.175-.51c.097-.282.296-1.136.443-1.9.146-.763.373-1.762.503-2.218.13-.457.237-1.192.237-1.633 0-.877.439-1.945.798-1.945.5 0 .576.503.298 1.985-.148.794-.35 2.252-.447 3.24-.097.987-.316 2.162-.486 2.611-.17.45-.392 1.22-.493 1.714-.17.835-.253 1.316-.567 3.276-.095.595-.05.89.226 1.46.428.887.438 1.406.028 1.625-.437.234-.432.237-.827-.402-.489-.791-.97-.757-1.969.141-.59.531-.97.737-1.493.806-.385.051-.847.13-1.027.174-.18.045-.69-.02-1.136-.144z" stroke-width=".163"/></svg>