<svg xmlns="http://www.w3.org/2000/svg" height="16.783" width="19.005"><path d="M11.013 5.11c-.14-.142-.256-.473-.256-.738 0-.39.11-.533.58-.757.949-.453 1.484.208 1.064 1.312-.13.34-.276.44-.65.44-.264 0-.597-.116-.738-.258zm-9.46 11.38c-.438-.155-.975-.489-1.194-.743-.378-.44-.394-.547-.33-2.197.04-1.062.201-2.241.416-3.041.61-2.27 1.332-5.781 1.336-6.495.002-.379.082-.982.177-1.341.096-.36.263-1.094.371-1.633.187-.924.227-.983.7-1.03.403-.039.52.023.597.315.14.533-.534 4.989-1.033 6.832-.38 1.406-1.015 4.39-1.226 5.76-.122.791.03 1.578.397 2.066.42.556 1.683.662 2.555.213 1.312-.675 2.312-2.164 2.462-3.666.149-1.487.265-1.648 1.091-1.507.374.064 1.157.118 1.741.121.932.005 1.226-.079 2.412-.684 1.902-.972 3.538-2.436 4.13-3.694.255-.545.551-1.352.659-1.796.431-1.786 1.008-3.59 1.185-3.702.378-.243.723-.113.912.342.163.394.128.692-.223 1.902-.228.79-.527 1.605-.663 1.813-.136.208-.248.5-.248.648 0 .148-.14.72-.31 1.27-.17.551-.428 1.48-.573 2.063a77.912 77.912 0 01-.516 1.959c-.249.882-.498 2.294-.666 3.766-.073.647-.03.797.335 1.143.47.446.538.879.191 1.226-.311.311-.564.293-1.186-.086-.807-.493-.987-1.315-.634-2.902.155-.698.387-1.612.515-2.033.128-.421.233-1.101.233-1.51 0-.644-.046-.745-.338-.745-.185 0-.608.255-.938.568-.331.312-.804.652-1.05.754-.247.103-.45.243-.45.312 0 .07-.238.163-.53.209-.426.066-1.88.426-3.517.87-.116.032-.469.6-.784 1.264-.315.664-.753 1.375-.972 1.582-.22.207-.4.468-.4.581 0 .525-2.241 1.542-3.347 1.52-.27-.007-.848-.137-1.286-.292z" stroke-width=".163"/></svg>