<svg xmlns="http://www.w3.org/2000/svg" height="23.042" width="30.294"><path d="M24.284 10.196c-.07-.264.037-.502.389-.865.266-.275.484-.552.484-.617 0-.064.27-.524.6-1.02.627-.944.694-1.33.459-2.656l-.126-.707.473.054c.374.043.547.206.834.789.32.65.342.82.181 1.469-.1.404-.272.845-.382.98-.11.134-.228.337-.263.45-.125.413-2.029 2.48-2.288 2.484-.146.002-.31-.16-.362-.36zm-3.76-4.043c.553-1.122 1.055-2.353 1.115-2.735.137-.866-.046-2.163-.305-2.163-.347 0-1.177 1.044-1.363 1.714a25.647 25.647 0 00-.68 3.134c-.085.557-.232 1.158-.328 1.336-.292.546-.216.865.192.807.288-.041.576-.482 1.369-2.093zm-18.13 16.81c-.262-.077-.832-.381-1.267-.677-.613-.415-.833-.686-.973-1.19-.268-.97-.218-1.454.407-3.918.333-1.315.856-4.231 1.307-7.286.303-2.058.45-2.635.811-3.204.336-.528.544-.694.87-.694.422 0 .427.014.324.857a8.773 8.773 0 01-.335 1.513c-.126.36-.307 1.205-.401 1.878-.094.672-.367 2.177-.607 3.344-.24 1.167-.496 2.527-.568 3.02a12.992 12.992 0 01-.386 1.7c-.551 1.731-.118 2.97 1.173 3.354.953.284 1.338.145 2.377-.853 1.019-.98 1.83-2.438 2.118-3.807.229-1.093.59-1.362 1.436-1.067.828.288 1.099.23 2.42-.522.683-.389 1.646-.873 2.139-1.076.493-.204 1.155-.568 1.469-.81.314-.24.764-.56 1-.71.235-.15.48-.478.543-.73.063-.252.215-.678.339-.948.603-1.312 1.279-3.729 1.44-5.143.115-1.016.95-3.497 1.311-3.898.131-.146.286-.449.343-.673.14-.551.391-.841 1.039-1.202.52-.29.574-.291 1.167-.024.521.235.656.404.835 1.038.337 1.201.218 2.067-.496 3.608-.355.768-.692 1.561-.749 1.765-.148.537-1.309 2.413-2.195 3.548-.42.54-.936 1.273-1.147 1.633-.21.36-.582.856-.826 1.103-.578.587-.982 1.721-1.118 3.142-.06.629-.286 1.722-.501 2.43-.355 1.164-.37 1.325-.152 1.713.201.36.37.436 1.059.477.657.039.88-.018 1.122-.286.166-.184.388-.334.492-.334.105 0 .617-.404 1.14-.898.522-.494 1.004-.898 1.07-.898.066 0 .573-.404 1.127-.898s1.059-.898 1.123-.898c.064 0 .424-.281.8-.625 1.164-1.064 3.469-2.143 4.587-2.148.733-.003 1.55.364 1.853.833.902 1.398.062 2.199-1.094 1.043-.513-.513-.662-.572-1.458-.572-.756 0-.97.074-1.455.5-.313.274-.94 1.1-1.393 1.836-1.07 1.733-1.112 2.38-.213 3.255.337.327.82.672 1.072.767.714.269 1.918.199 2.701-.157.851-.386 1.261-.409 1.388-.078.168.436-.06.687-1.09 1.203-.981.493-1.048.503-2.316.365-2.016-.22-2.438-.468-3.084-1.807-.294-.611-.425-1.15-.425-1.75 0-.796-.031-.868-.375-.868-.23 0-.653.289-1.102.752-.819.847-2.64 2.345-3.258 2.682-.235.129-.908.224-1.592.226-1.014.003-1.236-.049-1.55-.364-.33-.33-.365-.514-.342-1.79.014-.801.182-2.088.382-2.94.196-.835.313-1.633.259-1.773-.146-.38-.805-.164-2.093.686-.605.399-1.148.725-1.207.725-.06 0-.409.143-.778.317-.369.175-1.01.361-1.424.415-.97.126-1.293.484-1.929 2.145-.42 1.097-.67 1.48-1.448 2.222-.517.493-1.158 1.007-1.425 1.142-.644.326-1.679.454-2.268.28z" stroke-width=".163"/></svg>