<svg xmlns="http://www.w3.org/2000/svg" height="21.681" width="40.582"><path d="M21.764 11.4c-.152-.48.042-.928.563-1.3.612-.435 1.314-1.806 1.314-2.563 0-.332-.088-.848-.196-1.147-.166-.458-.156-.584.062-.803.363-.363.906-.048 1.222.71.29.695.178 2.098-.242 3.024-.35.768-1.928 2.406-2.321 2.406-.165 0-.346-.147-.403-.327zm-4.163-2.587c0-.076.37-.755.82-1.51.452-.754.864-1.556.916-1.78.053-.224.198-.723.323-1.108.125-.385.227-1.167.227-1.738 0-1.218-.277-1.482-.878-.834-.453.488-1.412 3.22-1.41 4.013.002.318-.108 1-.243 1.518-.134.517-.245 1.084-.245 1.259 0 .175.11.318.245.318s.245-.062.245-.138zm-15.92 12.35A4.417 4.417 0 01.408 19.8c-.41-.721-.449-.92-.382-1.947.041-.628.218-1.584.394-2.122a27.107 27.107 0 001.186-5.796c.09-1.033.266-2.208.388-2.612.123-.404.272-1.085.333-1.513.114-.81.679-1.42 1.083-1.172.258.16.052 3.188-.269 3.957-.13.31-.235.83-.234 1.156.002.804-.455 3.295-.842 4.592a16.959 16.959 0 00-.464 2.21c-.081.63-.195 1.27-.253 1.421-.299.78 1.084 2.41 2.045 2.41.728 0 2.294-1.318 2.635-2.217.155-.407.347-.828.427-.935.15-.2.394-.967.698-2.193.205-.823.659-1.016 1.634-.694.391.13.865.162 1.251.088.342-.067.953-.181 1.357-.256a11.555 11.555 0 001.365-.352c.849-.291 2.164-1.736 2.397-2.633.098-.376.284-1.016.413-1.42.13-.404.235-.937.234-1.186 0-.438.189-1.162 1.206-4.61.555-1.878.915-2.596 1.655-3.295.799-.754.974-.81 1.62-.515.468.213.74.964.741 2.048.002.736-.387 2.418-.627 2.72-.081.102-.197.534-.26.96-.06.427-.174.776-.251.776-.077 0-.272.345-.432.766-.161.422-.645 1.305-1.075 1.964-.431.66-.783 1.265-.783 1.347 0 .082-.407.59-.906 1.128-.918.993-1.047 1.266-2.04 4.346-.445 1.377-.426 2.542.048 2.966.937.839 1.555.86 15.76.547 7.081-.156 9.893-.167 10.02-.04.224.224.05.953-.254 1.07-.127.049-3.82.106-8.206.127-4.852.023-8.935.122-10.42.251-3.26.283-5.481.282-6.158-.003a11.74 11.74 0 00-1.026-.37c-.318-.093-.676-.422-1.02-.935-.641-.956-.705-1.924-.196-2.975.184-.38.377-.955.43-1.276.084-.521.055-.585-.262-.585-.196 0-.554.1-.797.223-.242.122-1.102.263-1.91.314-1.738.108-2.298.29-2.456.8a3.6 3.6 0 01-.422.81c-.168.24-.305.555-.305.703 0 .548-.558 1.347-1.769 2.533-1.236 1.21-1.253 1.22-2.228 1.28-.9.058-1.05.017-1.799-.496z" stroke-width=".163"/></svg>