<svg xmlns="http://www.w3.org/2000/svg" height="23.164" width="45.522"><path d="M22.03 10.176c0-.143.371-.676.825-1.184.854-.956 1.46-2.084 1.46-2.716 0-.2-.082-.6-.183-.89-.367-1.052.715-1.135 1.212-.093.369.774.347 1.313-.092 2.24-.502 1.059-2.293 2.903-2.82 2.903-.26 0-.403-.093-.403-.26zm-4.345-2.092c.145-.306.263-.63.263-.72 0-.09.25-.463.556-.829.857-1.026 1.873-3.998 1.658-4.853-.144-.575-.556-.604-1.084-.076-.262.262-.477.582-.477.71 0 .127-.116.464-.257.748-.142.284-.36 1.122-.485 1.862-.221 1.31-.553 2.45-.778 2.676-.062.061-.112.32-.112.574 0 .643.391.592.716-.092zm-16.24 14.56C.244 21.8.078 21.484.01 19.92c-.039-.906.027-1.684.194-2.286.77-2.775 1.368-5.851 1.56-8.014.136-1.516.64-3.737 1.002-4.415.128-.24.31-.325.62-.29.37.044.435.126.422.541-.022.672-.328 2.63-.54 3.453-.095.373-.32 1.724-.5 3.002-.181 1.278-.435 2.773-.565 3.322-.626 2.645-.918 4.383-.821 4.896.057.304.322.818.59 1.143.38.461.606.591 1.026.591.71 0 2.027-.972 2.525-1.862 1.088-1.946 1.313-2.406 1.5-3.058.247-.872.538-1.133 1.132-1.014.669.134 3.211-.873 3.995-1.582.18-.162.656-.467 1.058-.676.576-.3.826-.573 1.173-1.278.243-.494.447-1.03.453-1.192.006-.162.254-1.044.553-1.96.299-.915.819-2.582 1.155-3.705.337-1.123.754-2.355.926-2.74.173-.383.314-.77.314-.86 0-.337.893-1.492 1.327-1.717.648-.335 1.133-.29 1.694.16.441.353.49.483.482 1.296-.005.497-.085 1.074-.179 1.28-.094.207-.298.78-.455 1.274-.156.494-.451 1.156-.655 1.472-.204.315-.426.749-.494.963-.068.215-.336.75-.595 1.19-.26.439-.471.836-.471.881 0 .075-.542.872-1.796 2.643-1.165 1.645-1.532 2.402-1.862 3.842-.368 1.602-.465 2.761-.275 3.258.289.755 1.624 2.042 2.562 2.472 1.505.69 3.392.953 6.922.967 3.064.012 3.236-.004 4.57-.444a52.995 52.995 0 001.764-.605c.206-.082.512-.149.68-.149.31 0 1.297-.437 2.965-1.313.506-.265 1.027-.482 1.158-.482s.366-.14.52-.309c.153-.17.605-.515 1.004-.767.4-.252.726-.518.726-.59 0-.071.076-.13.17-.13.093 0 .369-.137.612-.305 1.258-.866 2.308-1.452 2.91-1.625 2.161-.62 5.097.512 3.971 1.531-.253.229-.388.243-.84.085-1.022-.356-4.231.157-4.73.757-.396.478-.618 1.706-.436 2.414.217.844.638 1.284 1.56 1.637.89.34 2.816.259 3.611-.153.796-.412 1.622.036 1.21.655-.067.1-.488.292-.937.43l-1.502.455c-.734.221-2.467.124-3.275-.183-1.024-.39-2.02-1.815-2.128-3.045-.062-.711-.128-.857-.39-.857-.31 0-1.282.434-1.44.644-.2.263-1.674 1.152-1.913 1.152-.145 0-.784.282-1.42.627-1.071.58-2.803 1.09-5.614 1.649-1.068.213-5.902.228-6.708.02-.325-.083-1.171-.23-1.881-.328-1.071-.146-1.514-.309-2.601-.95-1.12-.662-1.413-.932-2.015-1.864-.826-1.276-.906-2.021-.379-3.521.18-.511.327-.95.327-.976 0-.223-.912.1-2.392.85-.974.492-1.977.896-2.228.897-.584.003-1.13.588-1.491 1.594-.388 1.084-.695 1.608-1.593 2.723-1.4 1.736-3.002 2.174-4.39 1.2z" stroke-width=".163"/></svg>