<svg xmlns="http://www.w3.org/2000/svg" height="22.629" width="29.032"><path d="M18.525 7.344c.09-.066.437-.524.768-1.018 1.082-1.61 1.874-4.898 1.181-4.898-.343 0-1.014.795-1.14 1.352-.058.25-.285.91-.506 1.47-.222.558-.47 1.345-.554 1.75-.083.403-.198.9-.256 1.101-.106.374.154.499.507.243zm5.467 15.19c-.474-.175-1.796-1.26-1.888-1.55-.142-.446.078-.946.415-.946.166 0 .492.239.726.53.234.292.5.623.593.735.092.112.461.204.821.204.501 0 .75-.103 1.062-.44.564-.607 1.137-1.799 1.354-2.81.24-1.116.24-2.79-.002-2.79-.293 0-1.534.823-2.779 1.845-.635.521-1.422 1.12-1.749 1.327a6.07 6.07 0 00-.99.808c-.218.235-.462.427-.542.427-.08 0-.386.184-.68.408-.295.225-.579.409-.632.409-.053 0-.45.219-.882.486-1.815 1.123-3.208 1.291-4.435.536-1.446-.89-1.606-2.323-.55-4.917.379-.93.688-1.83.688-2 0-.536-.53-.34-1.493.552-.997.923-3.389 2.08-4.303 2.082-.621.002-.743.095-1.143.888-.18.356-.666.991-1.082 1.41-.415.42-.89.993-1.056 1.272-.164.279-.347.507-.405.507-.057 0-.375.184-.705.408-.895.607-2.12.693-2.955.207C.233 21.455-.301 19.735.173 18.24c.1-.314.242-.901.317-1.305.074-.404.285-1.286.469-1.96.183-.673.338-1.554.343-1.958a8.58 8.58 0 01.149-1.388c.662-3.114.823-4 .825-4.531.002-.393.118-.73.328-.94.681-.68 1.205-.2.98.901-.421 2.065-.849 4.388-.991 5.385-.388 2.717-.632 4.013-1.111 5.878-.222.866-.002 1.79.568 2.385.675.705 1.21.631 2.226-.304 1.057-.974 1.58-1.549 1.588-1.742.003-.082.132-.29.287-.462.155-.171.467-.691.694-1.156l.412-.844 1.06-.092c1.848-.159 3.898-1.218 5.42-2.799.522-.54.948-1.035.948-1.099 0-.063.283-.493.628-.956.416-.557.72-1.214.903-1.948.264-1.062.513-1.955 1.036-3.719.133-.449.388-1.184.566-1.633.179-.449.396-1.058.483-1.352.21-.716 1.017-1.89 1.526-2.224.718-.47 1.31-.502 1.72-.092.344.343.36.464.274 1.916-.077 1.303-.176 1.722-.62 2.63-.29.595-.662 1.256-.828 1.47-.165.214-.303.508-.307.653-.004.145-.334.668-.735 1.162-.4.494-.998 1.301-1.329 1.794-.33.493-.732 1.007-.893 1.143-.16.136-.375.615-.476 1.063-.102.45-.56 1.845-1.02 3.102-1.24 3.388-1.254 4.96-.055 5.58.656.34 1.578.172 2.875-.525.58-.31 1.121-.565 1.203-.565.082 0 .388-.202.679-.45.291-.246 1.1-.889 1.797-1.428.697-.539 1.385-1.108 1.528-1.265.143-.157.323-.286.399-.286.144 0 1.22-.769 1.504-1.074.09-.096.493-.427.896-.734.404-.308.881-.719 1.061-.914 1.047-1.13 1.86-.227 1.401 1.56-.21.823-.644 2.925-.745 3.611-.046.315-.326 1.031-.62 1.593-.875 1.668-2.413 2.627-3.545 2.21z" stroke-width=".163"/></svg>