<svg xmlns="http://www.w3.org/2000/svg" height="28.463" width="31.178"><path d="M18.967 8.444c.138-.157.429-.653.647-1.102.218-.449.681-1.325 1.03-1.946.348-.621.696-1.466.774-1.878.077-.411.182-.953.234-1.204.112-.544-.309-1.096-.836-1.096-.4 0-.742.286-.742.62 0 .126-.106.46-.235.743-.512 1.122-1.724 5.205-1.724 5.806 0 .426.5.458.853.055zm-16.98 13.34c-.44-.176-1.497-.946-1.783-1.298-.238-.293-.28-2.99-.058-3.69.573-1.8 1.416-6.02 1.643-8.228.254-2.469.934-4.57 1.48-4.57.163 0 .345.153.405.342.114.359-.01 1.518-.249 2.35-.078.27-.223 1.079-.323 1.797-.189 1.359-.363 2.263-.755 3.918a57.829 57.829 0 00-.486 2.367c-.139.763-.359 1.75-.488 2.193-.393 1.347-.314 2.208.267 2.913.425.516.6.609 1.148.609.994 0 1.63-.355 2.523-1.405 1.304-1.536 1.704-2.135 1.805-2.71.125-.71.485-1.503.8-1.765.195-.163.391-.17.86-.032.334.099.828.213 1.097.253.71.106 2.274-.252 2.806-.644.253-.186.643-.385.867-.443.62-.16 2.34-1.782 2.56-2.416.106-.305.385-1.35.62-2.324.236-.973.572-2.133.747-2.577.175-.444.318-.97.319-1.169 0-.199.22-.902.49-1.562.269-.66.489-1.327.489-1.482 0-.155.22-.615.49-1.022.358-.539.689-.816 1.216-1.018.85-.324 1.1-.237 1.98.691.53.56.567.662.49 1.396-.049.465-.347 1.31-.722 2.041-.35.687-.692 1.431-.757 1.656-.186.636-1.095 2.45-1.228 2.45-.066 0-.302.275-.525.613-.224.337-.748.965-1.165 1.394-.418.43-.759.876-.759.994 0 .117-.154.353-.343.524-.478.432-.691.915-1.112 2.515-.2.763-.501 1.865-.667 2.449-.57 1.999-.572 2.1-.067 2.627.25.26.614.475.808.475.486 0 1.382-.327 1.382-.504 0-.08.239-.248.53-.373.292-.125.825-.498 1.184-.828.36-.33.862-.711 1.115-.847.255-.135.77-.553 1.147-.929 1.033-1.03 2.261-2.005 3.147-2.497a37.33 37.33 0 001.434-.843c.753-.472 2.375-.789 3.225-.629.707.133 1.604 1.054 1.604 1.646 0 1.096-.558 1.197-1.318.237l-.53-.668-.901.112c-1.281.16-1.588.311-2.361 1.157-.993 1.088-1.081 1.313-1.087 2.787-.006 1.28.013 1.35.477 1.74.323.271.863.474 1.626.61 1.053.189 1.228.177 2.23-.152 1.117-.367 1.603-.348 1.762.068.159.412-.06.683-.765.953-1.28.487-2.49.651-3.418.462-1.538-.313-2.041-.617-2.693-1.63-.509-.79-.612-1.106-.667-2.037-.07-1.18-.24-1.354-.763-.775-.163.18-.388.326-.5.326-.114 0-.378.203-.588.452-.21.248-.639.632-.953.854-.314.222-.989.786-1.499 1.254-.888.815-1.826 1.245-2.665 1.225-.62-.015-1.86-.302-2.074-.479-.378-.313-.657-1.552-.465-2.059.095-.248.172-.686.172-.974 0-.287.155-.925.345-1.418.19-.492.382-1.098.427-1.345.068-.377.025-.449-.273-.449-.195 0-.626.218-.957.484-.84.674-1.813.977-3.524 1.099-1.711.121-1.9.256-2.732 1.947-.278.563-.653 1.158-.835 1.32-.181.162-.507.574-.723.915-.217.34-.52.667-.673.725-.153.058-.606.312-1.005.564-.75.474-1.545.574-2.262.287zm14.25 6.372c-.078-.246.086-.542.644-1.162 1.004-1.117 1.217-1.634 1.27-3.079.045-1.19.058-1.226.48-1.275.576-.066.954.484.954 1.39 0 .75-.426 2.014-.745 2.21-.109.065-.43.481-.713.923-.298.464-.747.913-1.064 1.063-.691.328-.7.327-.826-.07z" stroke-width=".163"/></svg>