<svg xmlns="http://www.w3.org/2000/svg" height="28.839" width="33.482"><path d="M18.226 7.264c.27-.373.49-.788.49-.924 0-.135.253-.696.561-1.248 1.093-1.955 1.367-3.349.725-3.693-.733-.392-1.012-.024-1.756 2.321-1.014 3.195-.999 3.14-.999 3.702 0 .73.38.669.979-.158zm6.417 13.76c.294-.067.859-.561 1.589-1.39 1.35-1.535 1.907-2.44 2.05-3.336.093-.586.052-.714-.345-1.082-.997-.924-3.292-.216-4.72 1.456-.765.895-1.02 1.484-1.188 2.754-.182 1.363.853 1.995 2.614 1.597zm-2.66 1.085c-.986-.5-1.47-1.254-1.47-2.291 0-.802-.004-.81-.45-.698-.558.14-.95.483-1.451 1.27-.214.336-.46.612-.546.612-.086 0-.478.227-.871.504-.908.64-1.893.69-3.034.156-1.24-.58-1.82-2.09-1.3-3.384.645-1.61 1.165-3.157 1.236-3.684.072-.536.041-.612-.254-.612-.307 0-1.45.599-2.473 1.295-.515.35-1.592.664-2.283.664-.66 0-1.456.812-2.07 2.114-.495 1.044-1.925 2.605-2.923 3.19-1.629.954-3.488.197-4.005-1.63-.256-.907.02-2.33 1.094-5.633.457-1.405.843-3.033 1.2-5.061.653-3.703.7-3.904.995-4.17.406-.367 1.04-.25 1.105.204.028.198-.143 1.117-.38 2.04-.239.925-.54 2.233-.671 2.906-.496 2.547-.774 3.694-1.05 4.327-.31.71-.476 1.214-.953 2.899-.362 1.276-.241 2.018.45 2.775.625.684 2.009.522 2.546-.298.143-.218.364-.396.492-.396.355 0 .977-.925 1.557-2.313.288-.689.744-1.478 1.015-1.755.425-.435.608-.504 1.342-.504.913 0 3.421-.951 4.295-1.629.247-.191.782-.592 1.188-.89.675-.495.77-.654 1.095-1.828.196-.707.402-1.543.458-1.857.056-.315.201-.94.323-1.388.343-1.27.707-2.727.815-3.265.12-.6 1.116-2.65 1.516-3.12.735-.864 1.69-.88 2.396-.04.941 1.12.363 3.185-2.046 7.317-.129.222-.62.898-1.092 1.501-.471.605-.857 1.144-.857 1.2 0 .055-.173.481-.384.947a17.499 17.499 0 00-.584 1.457c-.109.335-.262.649-.339.697-.077.047-.226.5-.331 1.005-.105.505-.407 1.44-.67 2.079-.652 1.578-.744 2.48-.322 3.15.366.58 1.352.977 2.018.81.219-.055 2.07-1.6 4.115-3.431 3.625-3.248 3.745-3.34 4.801-3.614 1.733-.453 1.967-.466 2.873-.158.473.16.966.251 1.096.201.22-.084 1.278-2.028 1.278-2.346 0-.077.14-.508.311-.96.171-.45.474-1.443.673-2.206.43-1.652.97-3.268 1.187-3.551a.626.626 0 01.445-.204c.159 0 .322.091.362.204.13.365-.177 2.96-.437 3.694-.14.393-.255.818-.255.945 0 .128-.23.724-.512 1.326-.282.603-1.053 2.402-1.714 3.998-1.172 2.831-1.202 2.938-1.202 4.292 0 1.065.076 1.538.325 2.026.433.85.295 1.177-.468 1.114-.525-.044-.635-.136-.977-.825-.211-.426-.484-.775-.607-.775-.344 0-1.557.675-1.65.918-.173.45-1.169.888-2.202.968-.856.067-1.16.017-1.767-.29zm-1.512 5.807c-1.314-1.191-2.881-2.864-2.89-3.084-.01-.267.353-.564.69-.564.169 0 .907.593 1.642 1.317.734.725 1.556 1.434 1.825 1.576 1.187.627 1.229 1.678.066 1.678-.173 0-.773-.416-1.334-.924z" stroke-width=".163"/></svg>