<svg xmlns="http://www.w3.org/2000/svg" height="29.518" width="19.851"><path d="M16.764 8.462c.2-.314.601-1.269.893-2.122.292-.853.601-1.685.688-1.849.087-.163.201-.914.255-1.669.086-1.218.064-1.384-.195-1.484-.566-.217-.826.093-1.392 1.655l-.562 1.551c-.37 1.014-.755 2.863-.854 4.1l-.096 1.206.45-.408a5.73 5.73 0 00.813-.98zm-4.417 14.46c-.183-.128-.469-.535-.635-.904-.272-.603-.282-.774-.095-1.685.114-.558.266-1.418.338-1.912.072-.494.247-1.125.39-1.402a4.71 4.71 0 00.363-1.02c.136-.679-.088-.673-1.516.042-.613.307-1.548.645-2.078.751-1.084.218-1.683.693-1.836 1.458-.054.27-.2.575-.323.678a.682.682 0 00-.226.452c0 .223-1.174 1.87-2.002 2.81-.368.417-2.09.715-2.793.483-1.522-.502-2.398-3.469-1.678-5.682.512-1.574.964-3.692 1.227-5.753.126-.993.658-3.765 1.085-5.662.096-.429.51-.868.815-.868.378 0 .432.579.16 1.742-.142.613-.402 2.218-.576 3.565-.173 1.347-.5 3.143-.726 3.99-.225.849-.41 1.667-.41 1.819 0 .151-.11.486-.244.743-.17.326-.244.976-.245 2.139l-.002 1.671.613.579c.504.476.705.565 1.138.503 1.422-.205 2.804-2.257 3.75-5.567l.14-.49 3.584-.163 1.502-1.02c1.28-.868 1.527-1.11 1.673-1.632.094-.338.171-.76.172-.94.002-.635.516-2.875.824-3.592.077-.18.216-.804.308-1.388.446-2.81 1.242-5.165 2.058-6.092.235-.267.637-.497.958-.55.467-.075.647-.002 1.172.479l.62.568-.207 1.206c-.459 2.687-.717 3.98-.843 4.219-.073.138-.4.84-.729 1.558-1.227 2.686-1.606 3.378-1.988 3.628-.216.14-.497.484-.626.763-.128.279-.3.617-.38.752-.286.478-1.138 2.87-1.337 3.755-.111.494-.339 1.33-.506 1.858-.395 1.25-.393 2.445.006 3.102.554.912-.055 1.599-.895 1.01zm2.286 6.191c-.1-.398.217-1.086.677-1.468.288-.24.726-1.679.726-2.385 0-.336-.11-.722-.245-.857-.307-.307-.317-.984-.018-1.233.316-.262.95.048 1.297.636.349.591.355 2.046.011 2.88-.143.348-.596 1.128-1.008 1.734-.802 1.182-1.262 1.403-1.44.693z" stroke-width=".163"/></svg>