<svg xmlns="http://www.w3.org/2000/svg" height="29.038" width="23.793"><path d="M19.765 8.331c.241-.251.438-.507.438-.568 0-.06.357-.644.793-1.297.824-1.233 1.656-3.407 1.656-4.324 0-.523-.478-.99-.806-.787-.341.211-1.497 2.101-1.58 2.583-.099.579-.12.64-.863 2.412-.284.68-.56 1.505-.615 1.837-.084.521-.055.603.22.603.175 0 .515-.207.756-.458zm-18.25 14.58c-1.192-.57-1.607-1.316-1.498-2.69.046-.583.189-1.392.318-1.796.38-1.194.728-2.475.909-3.347.093-.449.35-1.588.57-2.53.22-.944.548-2.526.728-3.517.18-.99.466-2.203.636-2.694.28-.808.354-.892.787-.892.41 0 .475.059.449.408-.072.953-.372 2.9-.528 3.43a75.983 75.983 0 00-.586 2.285c-.23.943-.502 1.971-.604 2.286-.103.315-.243.866-.31 1.224-.238 1.251-.59 2.46-.882 3.023-.16.312-.328 1.065-.372 1.674l-.079 1.108.703.649c.56.517.827.648 1.319.648 1.213 0 3.2-2.227 3.497-3.918.224-1.278.59-1.569 1.873-1.492.724.044 1.194-.102 2.873-.892.457-.215.94-.39 1.073-.39.22 0 1.642-.947 2.279-1.519.145-.13.337-.265.426-.299.317-.12 1.513-1.638 1.513-1.92 0-.274.7-2.334 1.448-4.264.191-.493.348-1.067.348-1.273 0-.346.315-1.113.783-1.91.36-.61 1.013-2.244 1.013-2.53 0-.367 1.323-1.59 1.868-1.727.23-.057.583-.062.785-.01.423.11.94.93.94 1.494 0 .72-.5 2.764-.778 3.177-.151.227-.43.787-.62 1.245-.188.459-.704 1.292-1.146 1.852-.442.56-.904 1.214-1.027 1.452-.123.239-.503.728-.843 1.087-.34.36-.754.88-.92 1.158-.164.278-.533.816-.82 1.195a6.033 6.033 0 00-.785 1.536 21.768 21.768 0 01-.648 1.743c-.478 1.113-1.08 2.972-1.24 3.828-.139.74.049 1.36.508 1.682.188.132.319.412.319.684 0 .38-.085.477-.49.558-.757.151-1.23-.116-1.528-.864-.148-.368-.268-.785-.268-.927 0-.142.294-1.125.653-2.184.727-2.144.848-3.265.352-3.265-.166 0-.42.13-.564.29-.53.585-2.318 1.36-5.299 2.298-.73.229-.884.35-1.038.813-.4 1.208-2.2 3.777-2.652 3.786-.103.002-.37.147-.595.323-.573.448-1.811.41-2.848-.085zm20.65 5.922c-.093-.112-.65-.81-1.238-1.552-.588-.741-1.246-1.464-1.462-1.605-.53-.347-1.062-1.285-1.062-1.872 0-.42.059-.48.467-.48.374 0 .735.281 1.818 1.417 1.314 1.378 2.612 3.155 2.612 3.576 0 .277-.456.72-.74.72a.599.599 0 01-.396-.203z" stroke-width=".163"/></svg>