<svg xmlns="http://www.w3.org/2000/svg" height="21.868" width="17.708"><path d="M12.265 15.974c-.616-.63-.786-1.484-.47-2.359.127-.353.499-1.367.825-2.253.745-2.02.75-2.134.076-1.999-.501.1-1.888.685-2.767 1.166-.235.13-.96.326-1.611.437-1.072.184-1.219.257-1.572.776-.214.315-.39.706-.39.868 0 .962-1.935 3.241-2.92 3.438-1.486.298-2.118.04-2.88-1.179-.72-1.15-.734-1.868-.08-3.944.268-.849.489-1.704.49-1.9.004-.496.556-2.726.942-3.806.328-.918.592-2.163.795-3.75C2.82.55 3.213.011 3.773 0c.413-.008.525.826.227 1.703-.14.414-.255.946-.255 1.184 0 .237-.07.657-.156.933-.296.953-.804 3.117-.96 4.093-.087.539-.27 1.31-.404 1.714-.647 1.928-.801 2.674-.731 3.52.096 1.153.44 1.541 1.366 1.541.607 0 .763-.079 1.199-.608.276-.335.502-.725.502-.867 0-.142.108-.4.24-.575.131-.175.242-.464.246-.644.004-.18.188-.715.409-1.19.43-.923 1.16-1.413 1.845-1.234.188.05.864.002 1.502-.106 1.45-.244 3.198-1.258 4.765-2.763 1.14-1.095 1.2-1.204 2.185-3.85.334-.898.718-1.76.855-1.918.378-.435.958-.367 1.082.127.154.615-.715 3.21-1.671 4.994-.452.843-.875 1.826-.94 2.185-.065.36-.214.8-.33.98-.188.289-.483 1.233-.87 2.779a4.484 4.484 0 01-.313.846c-.328.614-.238 2.016.158 2.436.25.267.317.485.242.786-.16.632-1.04.584-1.701-.092zm-5.799 5.788c-.277-.277-.047-.863.627-1.597.464-.505.835-1.116 1.004-1.653.248-.788.248-.901.002-1.517-.404-1.01-.094-1.43.73-.989 1.204.645 1.267 1.38.263 3.073-.382.644-.775 1.316-.874 1.494-.533.962-1.395 1.546-1.752 1.19z" stroke-width=".163"/></svg>