<svg xmlns="http://www.w3.org/2000/svg" height="21.549" width="31.504"><path d="M29.735 10.006c.814-1.284.554-2.024-.369-1.047-.767.813-1.014 1.813-.447 1.813.215 0 .499-.267.816-.767zM17.505 14.5c.777-.267 1.735-1.122 2.333-2.086.28-.45.716-1.108.97-1.463.49-.683.717-1.738.457-2.125-.28-.416-2.39-.29-3.45.205-1.19.556-1.521.84-2.192 1.884-.695 1.08-.926 2.403-.52 2.98.53.758 1.352.964 2.403.604zm-14.96 1.824c-.27-.072-.694-.176-.944-.233-.316-.072-.625-.371-1.02-.989-.817-1.278-.786-2.114.18-4.777.562-1.552.802-2.52.98-3.948.129-1.04.299-2.185.377-2.544C2.87.374 3.266-.369 4.083.148c.196.125.18.34-.11 1.426-.343 1.286-.574 2.404-.873 4.22-.277 1.686-.43 2.41-.781 3.672-.887 3.198-.969 4.437-.337 5.07.452.452 1.853.69 2.488.424.62-.261 2.728-2.591 2.728-3.016 0-.095.192-.77.428-1.5.482-1.494.652-1.63 2.039-1.63.88 0 3.919-.519 5.369-.916 1.689-.463 2.231-.533 4.663-.604 2.335-.069 2.446-.087 2.719-.46.274-.374 1.132-3.577 1.337-4.995.15-1.037.419-1.516.849-1.516.318 0 .388.112.488.775.122.819-.298 4.18-.565 4.512-.08.1-.201.44-.268.754-.067.315-.332 1.02-.59 1.567-.258.548-.47 1.122-.47 1.276 0 .155-.175.515-.39.8-.215.287-.52.925-.679 1.419a29.395 29.395 0 01-.416 1.224c-.314.8-.328 1.347-.041 1.634.24.24.488.272 1.532.2 1.28-.087 2.282-.46 2.79-1.04.422-.48.796-1.311.796-1.768 0-.42.875-2.525 1.12-2.692.07-.049.288-.424.483-.834.24-.503.563-.861.991-1.102.834-.468 1.187-.45 1.73.092.397.398.437.535.357 1.211-.146 1.233-.995 2.698-2.254 3.892-1.252 1.186-1.387 1.619-.709 2.262.456.433.528 1.025.16 1.33-.323.269-1.018-.013-1.643-.665-.567-.59-.736-.593-1.592-.024-.914.608-1.68.852-2.674.852-1.052 0-1.827-.325-2.3-.965-.403-.547-.857-.646-1.178-.26-.112.136-.288.246-.391.246-.104 0-.464.227-.802.506-.864.712-2.23.84-3.04.285-.675-.464-1.263-1.45-1.407-2.365-.08-.506-.02-.87.236-1.449.188-.425.342-.864.342-.975 0-.11.184-.472.409-.803.224-.33.408-.672.408-.757 0-.272-1.33-.164-3.102.252-.943.221-1.951.403-2.241.405-.57.003-.783.28-1.19 1.554-.115.36-.369.845-.565 1.08a4.285 4.285 0 00-.572.98c-.12.303-.66.97-1.2 1.48-.854.805-1.093.94-1.812 1.032-.456.057-.939.128-1.073.158-.135.03-.466-.005-.735-.077zm6.215 5.078c-.122-.197.318-1.221.679-1.581 1.287-1.287 1.525-2.23.764-3.024-.54-.564-.425-1.13.23-1.121.676.008 1.216.585 1.56 1.666.08.25-.355 1.319-1.148 2.818-.44.832-1.06 1.388-1.545 1.388-.248 0-.49-.066-.54-.146z" stroke-width=".163"/></svg>