<svg xmlns="http://www.w3.org/2000/svg" height="21.075" width="36.052"><path d="M1.331 15.224c-.777-.428-1.233-1.115-1.31-1.977-.086-.939.077-1.863.896-5.084.354-1.392.735-3.155.846-3.918.11-.763.262-1.608.337-1.878.074-.27.182-.77.24-1.111C2.459.549 2.925 0 3.406 0c.277 0 .326.109.326.725 0 .398-.116 1.225-.258 1.837-.143.611-.36 1.7-.485 2.418-.125.718-.376 1.82-.558 2.449a20.02 20.02 0 00-.503 2.432c-.094.709-.278 1.495-.408 1.747-.387.748-.305 1.598.2 2.067.383.354.54.393 1.244.31.487-.058 1.013-.255 1.333-.498.532-.406 1.599-2.031 1.798-2.737.059-.21.167-.529.24-.708l.314-.778c.1-.249.361-.534.581-.634.34-.155.52-.112 1.186.283 2.253 1.336 3.125 1.488 6.99 1.216 2.473-.173 5.437-.673 7.43-1.252a25.553 25.553 0 012.203-.488c.719-.125 1.784-.317 2.367-.425 2.361-.439 5.596-.051 6.531.782 1.19 1.06 1.752 1.667 1.927 2.078.273.639.243 1.834-.06 2.42-.239.462-.28.48-.612.259-.254-.168-.386-.467-.458-1.033-.173-1.369-.585-1.982-1.758-2.613-1.782-.959-3.769-1.075-6.795-.399-.718.16-1.857.38-2.53.489a30.45 30.45 0 00-3.7.844c-.285.087-1.114.226-1.843.31-.728.083-1.379.184-1.445.225-.066.041-.853.158-1.75.26-2.345.266-4.883.024-5.883-.562-1.015-.595-1.346-.506-1.867.505-.236.46-.867 1.392-1.4 2.07-.728.93-1.159 1.32-1.734 1.574-.935.412-2.006.432-2.697.05zm5.742 5.664c-.15-.244.027-.848.369-1.258 1.305-1.563 1.613-2.267 1.345-3.078-.096-.29-.28-.615-.41-.723-.13-.108-.237-.4-.237-.649 0-.356.094-.476.444-.563.374-.094.527-.018.974.484.69.775.812 1.463.455 2.562-.683 2.103-2.442 4.031-2.94 3.225z" stroke-width=".163"/></svg>