<svg xmlns="http://www.w3.org/2000/svg" height="24.687" width="43.75"><path d="M32.31 8.566c.412-.516.748-1.05.749-1.186 0-.136.245-.613.544-1.06 1.514-2.272 2.136-4.193 1.547-4.783-.247-.246-.86-.252-1.325-.012-.392.203-1.076.953-1.085 1.191-.003.083-.115.27-.247.417-.591.654-1.574 6.371-1.095 6.371.092 0 .503-.422.914-.938zm-14.27 11.56c-.403-.074-1.138-.357-1.632-.63-.766-.42-.976-.646-1.425-1.528-.636-1.25-.666-1.925-.133-3.03.22-.458.452-1.032.513-1.278.111-.442.107-.445-.523-.324-.888.17-3.278.41-5.17.521-1.377.08-1.63.14-1.837.437-.133.19-.241.448-.241.575 0 .127-.211.574-.469.993-.258.419-.523.932-.589 1.14-.13.413-.892 1.143-1.925 1.848-.486.332-.854.448-1.409.446-.806-.004-2.139-.515-2.139-.82 0-.101-.239-.517-.53-.924C.043 16.873 0 16.713 0 15.566c0-.774.1-1.494.266-1.9.328-.806.695-2.653 1.039-5.224.558-4.176.87-5.306 1.462-5.306.487 0 .605.428.412 1.491a38.276 38.276 0 00-.333 2.584c-.172 1.82-.336 2.818-.685 4.17-.873 3.386-.99 4.732-.474 5.513.463.702.863.926 1.663.931.59.004.862-.097 1.354-.502.676-.556 1.489-2.04 2.074-3.784.204-.608.44-1.15.525-1.202.084-.052 1.782-.115 3.772-.14 3.769-.047 4.963-.171 7.302-.756 1.36-.34 1.414-.342 2.016-.056 1.393.66 2.283 2 1.64 2.47-.444.326-.71.272-1.192-.242-.606-.648-1.037-.844-1.854-.844-.585 0-.845.113-1.498.653-.435.36-1.01.929-1.278 1.265-.433.544-.48.708-.418 1.47.064.782.142.924.869 1.591 1.099 1.01 2.029 1.296 3.793 1.172.814-.057 1.536-.2 1.763-.348.21-.139.471-.252.579-.252.494 0 2.029-1.214 3.911-3.092 2.012-2.008 2.062-2.076 2.427-3.275.205-.674.505-2.033.667-3.02.392-2.391.327-2.12 1.389-5.835.504-1.766 2.517-3.286 4.075-3.08.18.025.565.273.857.552.486.466.53.592.53 1.515 0 .814-.093 1.175-.489 1.886a90.642 90.642 0 00-1.236 2.35c-.41.808-.918 1.652-1.128 1.877-.21.225-.487.667-.616.983-.13.316-.547.934-.928 1.373-.38.44-.76.952-.843 1.14-.084.188-.446.709-.805 1.158-.629.786-.729 1.03-1.122 2.737-.216.937-.233 1.916-.035 1.916.08 0 .181.141.226.314.124.473 1.284.992 2.218.992.834 0 2.896-.551 2.991-.8.03-.077.311-.294.625-.483.714-.43 2.93-2.943 2.935-3.33.003-.156.07-.285.15-.285.08 0 .392-.386.69-.857.3-.472.638-.954.752-1.073.115-.119.208-.397.208-.62 0-.221.225-.883.499-1.47.274-.586.713-1.887.975-2.89.564-2.157.876-2.91 1.326-3.19.51-.319.788.173.681 1.202-.093.892-.645 2.747-.972 3.265-.113.18-.436.988-.717 1.796-.282.808-.81 2.278-1.173 3.265-.592 1.608-.664 1.96-.681 3.37-.016 1.288.033 1.63.266 1.89.695.77.002 1.523-.836.908-.581-.425-1-1.296-1.003-2.087-.005-1.166-.157-1.163-1.54.038-2.01 1.743-2.574 2.05-4.294 2.344-1.334.227-2.524.052-3.603-.53-.937-.506-1.239-1.034-1.31-2.3-.034-.606-.097-1.103-.14-1.103-.041 0-.883.752-1.87 1.671-1.19 1.108-1.997 1.731-2.398 1.85-.332.097-.81.312-1.06.476-.52.341-3.078.492-4.354.257zm-4.852 3.786a17.55 17.55 0 00-1.568-1.347c-1.7-1.248-1.763-1.317-1.71-1.859.042-.434.109-.502.458-.465.224.024.591.186.816.36.224.175.781.535 1.237.8.456.265.953.672 1.106.904.152.233.38.423.506.423.125 0 .454.19.73.423.38.32.503.558.503.98 0 .54-.02.556-.644.556-.549 0-.761-.114-1.434-.775z" stroke-width=".163"/></svg>