<svg xmlns="http://www.w3.org/2000/svg" height="22.512" width="39.382"><path d="M18.27 18.668c-1.984-.405-2.702-.651-3.527-1.212-1.033-.701-1.466-1.426-1.584-2.649-.063-.659.018-.97.518-1.982.326-.66.593-1.278.593-1.373 0-.217-1.052-.427-1.32-.262-.108.067-1.221.172-2.473.233-2.362.116-2.567.186-2.572.877-.002.166-.103.534-.226.817-.122.283-.354.827-.515 1.209-.16.382-.395.78-.521.885-.126.104-.329.428-.45.719-.225.537-.377.713-1.441 1.66-.501.446-.725.53-1.398.53-1.38 0-2.882-1.265-3.287-2.77-.124-.46-.082-.99.181-2.301.189-.938.407-2.255.486-2.928.078-.674.214-1.523.303-1.887.088-.365.275-1.863.415-3.33.275-2.868.51-3.6 1.161-3.6.196 0 .394.1.44.22.102.267-.139 3.697-.363 5.168a121.48 121.48 0 00-.347 2.531 28.428 28.428 0 01-.579 2.98c-.47 1.802-.501 2.893-.103 3.498.463.702 1.1 1.114 1.718 1.114.573 0 .678-.085 1.808-1.473.498-.61 1.053-1.96 1.413-3.435.48-1.967.546-2.007 3.044-1.862 2.634.152 5.89-.205 8.397-.921 1.351-.386 1.46-.384 2.435.035.634.273.837.458.981.896.238.72.078 1.21-.396 1.21-.238 0-.452-.16-.601-.45-.309-.598-.456-.688-1.13-.688-.972 0-2.83.778-3.632 1.522-.217.2-.597.881-.845 1.512-.403 1.027-.43 1.218-.264 1.836.313 1.16.871 1.619 2.425 1.987 1.579.374 1.956.39 2.869.128.704-.203 1.956-.97 2.176-1.331.07-.117.46-.438.863-.714.859-.586 4.898-4.518 4.898-4.767 0-.093.212-.279.471-.413.819-.423 2.554-2.072 8.292-7.876C37.676.905 38.644 0 38.733 0c.856 0 .865.56.026 1.469-.36.39-.653.755-.653.813 0 .058-.232.276-.515.486-.542.4-4.806 4.492-6.347 6.089-.498.516-1 .938-1.117.938-.116 0-1.407 1.212-2.867 2.694s-2.738 2.694-2.84 2.694c-.102 0-.562.36-1.023.8-.964.919-3.068 2.3-3.518 2.308-.168.003-.489.111-.713.24-.225.128-.445.227-.49.22a16.536 16.536 0 01-.408-.08zm-5.53 3.247a30.43 30.43 0 00-1.52-1.173c-1.11-.79-2.502-2.246-2.502-2.616 0-.583.614-.568 1.355.033.378.305.815.603.972.661.158.058.286.176.286.263 0 .086.145.203.323.26.333.105 1.375.907 2.172 1.67.548.525.746 1.163.425 1.366-.415.262-.771.153-1.51-.464z" stroke-width=".163"/></svg>