<svg xmlns="http://www.w3.org/2000/svg" height="20.676" width="21.814"><path d="M17.54 17.005c-.09-.03-.37-.1-.621-.156-.255-.056-.962-.593-1.592-1.209l-1.134-1.107v-.984c0-.975.218-1.631.842-2.53.483-.695.402-1.013-.23-.906l-2.95.511c-1.33.232-2.785.42-3.234.42-1.041 0-1.38.188-1.51.835-.056.286-.517 1.142-1.023 1.903-.81 1.218-1.026 1.43-1.8 1.772-1.43.633-2.357.464-3.571-.648-.642-.588-.646-.6-.703-1.972-.051-1.23.015-1.627.605-3.635.364-1.24.736-2.695.827-3.234C2.346.746 2.421.4 2.72.171c.766-.587 1.055.372.698 2.31a48.866 48.866 0 00-.326 2.084c-.08.612-.366 1.934-.636 2.94-1.263 4.701-1.284 6.518-.08 6.976.81.308 1.35.187 2.026-.456.6-.57 1.955-2.795 1.955-3.209 0-.101.193-.468.428-.814.427-.628.431-.63 1.32-.538 1.557.16 5.242-.16 6.333-.55.562-.201 1.711-.414 2.694-.499.943-.08 1.81-.182 1.928-.226.382-.141 1.284.36 1.752.973.382.5.432.672.304 1.038-.224.64-.785.657-1.36.042-.746-.799-1.457-.626-3.02.733-1.264 1.098-1.55 2.391-.747 3.366 1.05 1.274 2.855 1.643 4.196.858 1.373-.805 2.217-.206 1.14.81-.786.74-2.89 1.296-3.785.998zm-5.156 3.19c-.773-.514-2.095-1.82-3.012-2.973-.647-.813-.748-1.527-.24-1.69.574-.181.947.074 1.783 1.225.517.71 1.177 1.369 1.793 1.787.889.603 1.484 1.207 1.484 1.504 0 .223-.516.628-.8.628-.157 0-.611-.216-1.009-.48z" stroke-width=".163"/></svg>