<svg xmlns="http://www.w3.org/2000/svg" height="22.186" width="36.069"><path d="M1.817 16.741c-.614-.195-1.145-.58-1.145-.829 0-.085-.1-.27-.222-.413-.663-.77-.6-2.507.235-6.607.183-.9.371-2.3.418-3.113.047-.812.147-1.734.222-2.049.075-.314.187-1.122.247-1.796.127-1.408.419-2.004.947-1.928.322.046.361.161.406 1.19.027.627-.064 1.84-.201 2.694-.253 1.575-.43 2.754-.83 5.554a43.71 43.71 0 01-.478 2.694c-.41 1.837-.356 2.263.38 3.02.506.522.75.654 1.216.654.917 0 1.327-.282 2.354-1.614.903-1.172 1.347-2.12 1.826-3.896.164-.606.245-.694.643-.694.251 0 .507.05.568.112.213.213 1.333.536 1.866.538.505.002 1.112-.218 1.954-.71.202-.119.764-.63 1.248-1.138 1.107-1.161 1.427-1.185 2.548-.19.455.405.966.735 1.136.735.17 0 .535.19.811.423.56.47.66 1.1.263 1.628-.132.174-.242.47-.245.656-.003.187-.189.702-.413 1.143-.483.952-.564 2.26-.15 2.418.482.186 1.106.1 1.829-.25.785-.38 2.916-2.375 3.377-3.16.494-.844 2.078-2.01 3.213-2.366 1.717-.538 2.25-.379 2.609.776.127.412.31.775.407.807.097.032.536-.24.976-.606 1.278-1.062 2.74-1.81 3.742-1.912.845-.087.908-.067 1.405.461.98 1.043 1.182 1.768 1.058 3.808-.06.99-.18 1.871-.268 1.958a.67.67 0 00-.159.412c0 .139-.175.47-.388.738-.336.419-.424.455-.653.265-.33-.273-.336-.783-.02-1.542.29-.693.335-3.232.07-3.99-.2-.576-.78-1.015-1.339-1.015-.21 0-.856.33-1.434.732-.578.403-1.214.804-1.412.892-.198.088-.538.438-.755.778-.217.34-.579.776-.804.968-.238.204-.632.943-.942 1.763-.64 1.697-1.243 2.277-1.625 1.564-.13-.241-.107-.478.09-.938.395-.925.699-2.172.822-3.373.173-1.694-.242-1.926-1.983-1.102-.673.318-1.257.77-1.837 1.42-.468.524-.85 1.024-.85 1.11 0 .249-1.452 1.527-2.634 2.318-1.007.674-1.158.725-2.154.725-.897 0-1.146-.064-1.529-.394-.618-.532-.628-1.604-.027-2.871.906-1.91.984-2.81.263-3.028-.202-.061-.551-.281-.776-.49-.814-.754-1.14-.696-2.607.464-1.434 1.134-1.808 1.265-3.756 1.313l-1.057.026-.86 1.306c-.473.719-.86 1.408-.861 1.533-.002.321-1.433 1.96-2.032 2.324-.564.344-1.781.385-2.702.092zm7.617 5.33c-.215-.215-.097-.8.292-1.442 1.233-2.036 1.515-3.203.905-3.755-.59-.533-.345-1.06.491-1.06.386 0 .928.687 1.136 1.443.134.485.106.7-.16 1.211-.178.342-.324.77-.324.953 0 .424-.223.837-1.026 1.903-.59.783-1.03 1.033-1.314.749z" stroke-width=".163"/></svg>