<svg xmlns="http://www.w3.org/2000/svg" height="21.878" width="25.757"><path d="M1.64 15.584C.201 14.698-.395 12.07.27 9.555c.19-.717.387-1.929.438-2.694.145-2.172.69-5.594 1.02-6.41.198-.489.745-.614.901-.207.191.497-.416 5.81-.709 6.207-.066.09-.166.824-.222 1.633-.056.808-.176 1.726-.267 2.04-.45 1.55-.06 3.537.86 4.385.356.327.518.367 1.098.269 1.336-.226 2.688-2.08 3.084-4.228.18-.983.609-1.902.936-2.011.1-.034.404.126.675.354.659.554 1.858.557 3.598.007 1.266-.4 1.302-.427 1.845-1.344.636-1.075 1.231-1.408 1.827-1.023.198.127 1.002.545 1.788.928l1.43.695v.73c0 .401-.074.775-.164.83-.09.056-.164.225-.165.377 0 .152-.114.493-.252.759-.139.265-.295 1.04-.348 1.725-.093 1.218-.085 1.253.416 1.825.628.715.669 1.229.109 1.369-.624.156-1.462-.445-1.693-1.213-.234-.78-.24-2.012-.013-2.882.645-2.478.586-2.915-.451-3.36-1.096-.469-1.328-.41-2.291.585-.479.494-1 .898-1.158.898-.159 0-.727.156-1.262.348-.536.192-1.503.385-2.15.43-1.093.074-1.184.11-1.325.514-.084.24-.492.942-.907 1.56-.415.62-.755 1.208-.755 1.31 0 .209-.8.968-1.626 1.545a2.68 2.68 0 01-2.898.08zm21.27 5.934c-.269-.382-.232-.465.569-1.29.618-.637 1.086-3.055.645-3.327-.266-.164-.199-1.339.083-1.448.427-.163 1.016.236 1.31.888.462 1.026.274 1.962-.713 3.553-.464.748-.844 1.416-.844 1.484 0 .068-.181.207-.403.308-.345.157-.438.133-.648-.167zM9.22 21.45c-.065-.334.053-.583.521-1.102 1.197-1.328 1.657-2.674 1.104-3.23-.368-.37-.562-.822-.482-1.126a.558.558 0 01.738-.389c.39.151.936 1.155 1.04 1.91.09.66.028.905-.483 1.91-.55 1.084-1.76 2.452-2.17 2.456-.102.002-.223-.192-.268-.43z" stroke-width=".163"/></svg>