<svg xmlns="http://www.w3.org/2000/svg" height="22.517" width="27.694"><path d="M1.574 16.524C.127 15.77-.354 13.74.264 10.998c.195-.866.423-2.372.508-3.347.084-.976.28-2.894.434-4.263l.28-2.49h1.082l-.01.939a12.254 12.254 0 01-.162 1.755c-.083.449-.263 1.918-.398 3.265-.135 1.347-.317 2.78-.402 3.184-.086.404-.16 1.63-.164 2.724l-.007 1.989.474.337c.96.684 2.55.287 3.034-.757.158-.34.422-.767.586-.948.409-.45.923-1.653 1.14-2.668.219-1.015.457-1.172 1.732-1.14.524.014 1.137-.03 1.36-.097.724-.216 2.287-.963 2.287-1.093 0-.117.458-.406 1.224-.772.408-.195 1.715-1.567 1.98-2.081.11-.211.286-.955.39-1.653.3-2.001.615-3.023 1.068-3.471L17.117 0l.317.385c.473.576.399 1.595-.268 3.671a67.16 67.16 0 01-.735 2.196c-.216.541-.184 1.723.055 2.027.178.228.497.244 2.57.129 1.303-.073 2.633-.213 2.956-.312.323-.099 1.007-.546 1.52-.995.512-.448 1.03-.815 1.153-.815.121 0 .65.352 1.174.782.524.43 1.164.915 1.42 1.078.413.26.46.368.387.91-.046.337-.232 1.12-.414 1.738a40.405 40.405 0 00-.622 2.494l-.29 1.37.418.345c.844.694 1.031 1.896.296 1.896-.397 0-1.611-1.071-1.811-1.598-.155-.406.295-3.036.757-4.431.412-1.241.324-1.655-.475-2.257-.886-.667-1.256-.665-2.202.008-1.173.835-2.757 1.258-4.71 1.258-1.577 0-1.665.019-2.136.459-.541.506-.717 1.03-1.074 3.215-.292 1.788-.613 2.696-1.057 2.99-.599.398-.722.109-.604-1.42.06-.773.21-1.774.334-2.223.3-1.083.734-3.621.735-4.286 0-.457-.056-.53-.408-.53-.224 0-.408.066-.408.148 0 .082-.324.306-.72.497-.396.192-.892.512-1.102.712-.21.2-.602.462-.872.583-.27.12-.62.286-.779.368-.159.08-.637.193-1.06.248-1.326.174-1.583.398-2.385 2.08-1.075 2.254-1.755 3.123-2.895 3.698-1.148.58-1.662.6-2.61.107zm6.587 5.968c-.345-.12-.218-.746.291-1.431 1.221-1.646 1.617-3.328.985-4.183-.403-.545-.393-.92.03-1.187.344-.217.686-.037 1.175.62.254.34.33.672.313 1.374-.049 2.09-1.824 5.141-2.795 4.806z" stroke-width=".163"/></svg>