<svg xmlns="http://www.w3.org/2000/svg" height="21.307" width="24.787"><path d="M2.037 16.614c-.067-.067-.464-.31-.882-.542-.604-.333-.8-.552-.954-1.06-.319-1.058-.299-1.47.358-7.255C.686 6.635.84 4.921.9 3.95c.06-.971.201-2.037.315-2.367.2-.581.628-.859.888-.576.236.257-.126 5.973-.55 8.71-.646 4.16-.573 4.887.554 5.47.592.305 1.268.31 1.978.013 1.416-.591 2.122-1.656 2.482-3.74.136-.79.336-1.542.443-1.67.286-.345.803-.289 1.544.167.435.268.9.404 1.388.408.883.006 2.295-.504 3.093-1.116.32-.246.737-.516.927-.601.464-.209 2.348-2.362 2.348-2.684 0-.14.119-.426.265-.635.338-.483 1.04-2.41 1.042-2.86 0-.19.11-.554.245-.812.134-.257.244-.572.244-.7 0-.13.186-.421.415-.65.335-.335.46-.377.653-.217.298.248.306 1.105.016 1.909a23.635 23.635 0 00-.921 3.228c-.11.539-.25 1.163-.313 1.388-.063.224-.072.629-.02.898.114.586.247.593 2.374.123 1.896-.419 4.124-.42 4.389-.002.244.387-.03.8-.647.978-.262.075-1.298.182-2.3.236-1.54.083-1.947.165-2.613.524-1.002.54-1.67 1.764-1.68 3.07-.007.786-.348 2.451-.58 2.826-.151.245-.667.193-.903-.092-.166-.2-.172-.464-.026-1.265.101-.556.235-1.986.296-3.176.128-2.473.1-2.517-1.109-1.714-1.825 1.212-2.694 1.701-3.382 1.903-1.44.423-2.313.588-3.106.588H7.85l-.205.799c-.112.44-.488 1.193-.835 1.673-.346.48-.778 1.106-.96 1.39-.181.283-.602.636-.935.783a15.66 15.66 0 00-.889.423c-.336.185-1.813.21-1.988.033zM10.05 21.2c-.224-.224-.094-.678.381-1.335.27-.372.49-.85.49-1.06 0-.212.081-.618.18-.903.15-.43.118-.694-.19-1.567-.312-.884-.337-1.09-.154-1.31.325-.392.808-.236 1.351.437.422.522.487.74.496 1.64.009.958-.058 1.161-.865 2.622-.687 1.244-.951 1.584-1.227 1.584-.194 0-.402-.049-.462-.109z" stroke-width=".163"/></svg>