<svg xmlns="http://www.w3.org/2000/svg" height="26.682" width="32.614"><path d="M28.515 8.736c.757-1.147 1.837-3.19 2.812-5.317.433-.944.438-1.689.015-2.112-1.057-1.057-2.654.629-3.027 3.193-.064.444-.189.945-.277 1.114-.288.555-.951 3.767-.858 4.154.14.578.411.369 1.334-1.03zm-26.21 12.64C.973 20.842-.01 19.212 0 17.55c.002-.359.148-1.167.325-1.796.573-2.044.85-3.434 1.524-7.673.35-2.202.472-2.658.774-2.903.198-.16.44-.263.538-.228.253.088.15 3.243-.14 4.274a14.42 14.42 0 00-.337 1.633c-.06.449-.286 1.494-.5 2.322-.684 2.627-.91 4.413-.678 5.347.171.688.302.868.855 1.18.36.204.914.371 1.233.373.71.003 1.85-.686 2.558-1.545.464-.563 1.351-2.678 1.351-3.222 0-.648.36-.784 2.244-.852 2.007-.071 1.772.018 4.324-1.644 1.718-1.119 2.753-2.852 3.217-5.388.408-2.228.562-2.726.917-2.958.411-.27.839-.157.97.255.14.445-.196 2.467-.617 3.706-.777 2.282-.918 2.777-1.086 3.815a74.211 74.211 0 01-.497 2.612c-.442 2.118-.424 2.75.101 3.528.581.86.674.907 1.612.82 1.364-.127 2.202-.693 4.15-2.805 2.127-2.308 2.383-2.962 3.683-9.38.227-1.122.589-2.408.803-2.857.215-.45.481-1.111.592-1.47C28.568.579 29.192 0 30.819 0c.9 0 1.02.042 1.318.46.18.254.376.827.436 1.274.12.908.077 1.028-1.577 4.389-.53 1.078-.964 2.023-.963 2.1.002.193-1.046 1.902-1.415 2.308-.163.18-.444.606-.624.947-.18.342-.563.872-.853 1.18-.29.308-.57.763-.625 1.012-.054.25-.16.6-.234.78-.305.731-.68 2.128-.765 2.84-.083.697-.04.818.518 1.487 1 1.196 1.136 1.959.35 1.959-.511 0-1.63-.91-1.966-1.597-.144-.295-.261-.867-.261-1.27 0-.986-.38-1.146-.965-.408-1.012 1.277-1.814 1.958-2.581 2.192-.43.13-1.054.354-1.388.497-.334.143-.843.26-1.132.26-.677 0-1.883-.584-2.139-1.036-.428-.756-.555-2.12-.346-3.715.351-2.668.286-2.782-1.072-1.868-.472.319-.93.579-1.018.579-.087 0-.502.202-.921.449-.856.503-2.348 1.014-2.973 1.018-.614.004-1.04.377-1.476 1.299-.216.454-.436.826-.49.826-.053 0-.274.386-.491.857-.218.471-.448.88-.51.91-.064.028-.48.34-.925.695-1.24.988-2.48 1.334-3.426.955zm6.873 5.282c-.375-.134-.213-.928.309-1.515.979-1.102 1.45-2.65 1.05-3.452-.14-.284-.257-.725-.257-.98 0-.405.062-.465.476-.465.334 0 .605.155.916.524.412.49.435.595.335 1.57-.111 1.084-.456 1.917-1.105 2.668-.208.24-.499.657-.647.925-.294.53-.755.84-1.077.725z" stroke-width=".163"/></svg>