<svg xmlns="http://www.w3.org/2000/svg" height="22.626" width="44.469"><path d="M1.29 16.279C.71 15.925.503 15.67.27 15.027c-.387-1.08-.366-1.718.113-3.53.222-.838.481-2.361.577-3.385.095-1.024.209-1.92.252-1.99.11-.178.56-3.853.562-4.59.002-.78.282-1.386.69-1.493.463-.121.803.052.71.362-.044.146-.198 1.185-.342 2.307-.508 3.97-.722 5.478-.882 6.204-.088.404-.164 1.189-.168 1.744-.004.555-.08 1.2-.168 1.434-.089.233-.195.828-.236 1.323-.059.713-.003 1.02.271 1.484l.346.585 1.018-.082c1.193-.096 1.838-.509 2.8-1.793 1.048-1.397 1.18-1.668 1.322-2.708.075-.555.189-1.06.251-1.122.063-.063.754-.124 1.537-.136.987-.015 1.574-.105 1.913-.293.27-.15.664-.272.876-.272.487-.002 2.255-1.663 2.582-2.427.13-.302.47-.891.758-1.31.574-.833.705-1.223 1.468-4.345.184-.752.241-.82.727-.868l.528-.05V1.11c0 .57-.117 1.438-.259 1.93-.142.49-.322 1.552-.4 2.358-.079.807-.21 1.615-.293 1.796-.17.374-.7 3.356-.806 4.542-.09.998.198 1.692.84 2.023.732.379 4.497.603 6.469.386.853-.094 4.269-.213 7.592-.265 3.322-.052 6.26-.157 6.53-.235.827-.24 5.662-.519 6.368-.369.583.125.653.191.653.622v.483l-4 .11c-2.2.06-4.771.182-5.714.271-.943.089-3 .17-4.571.181-1.571.011-4.033.09-5.47.176-1.436.086-3.735.157-5.11.158-2.547.002-3.106-.11-3.75-.754-.123-.123-.296-.224-.385-.224-.088 0-.34-.393-.56-.873-.356-.777-.382-.967-.238-1.727.09-.47.207-.927.263-1.016.162-.263.556-2.298.556-2.874 0-.637-.354-.714-.618-.135-.174.382-1.788 1.72-2.09 1.733-.082.004-.404.224-.714.49-.311.266-.715.486-.898.489-.183.003-.476.113-.65.244-.184.14-.671.24-1.158.24-.954 0-1.224.208-1.537 1.184-.108.337-.251.612-.318.612-.129 0-.831 1.32-.835 1.57-.002.08-.41.543-.908 1.03C4.267 16.731 2.64 17.1 1.292 16.28zm7.774 6.102c-.136-.355.058-.755.579-1.194.44-.37.66-.767 1.102-1.99.448-1.24.446-1.261-.317-2.786-.171-.343.107-.806.486-.806.168 0 .568.307.89.683.465.543.584.82.584 1.355 0 .37-.059.742-.13.827-.072.086-.228.45-.347.809-.443 1.335-1.924 3.347-2.464 3.347-.16 0-.332-.11-.384-.245z" stroke-width=".163"/></svg>