<svg xmlns="http://www.w3.org/2000/svg" height="22.153" width="17.6"><path d="M1.614 16.172c-.679-.38-.855-.588-1.205-1.425L0 13.767l.342-1.795A71.76 71.76 0 00.784 9.44c.056-.404.17-1.176.255-1.714.219-1.391.476-3.597.546-4.677.033-.507.14-1.071.238-1.255.098-.184.18-.467.182-.63.002-.163.142-.476.311-.696.27-.351.342-.373.582-.173.19.158.25.382.192.727-.16.967-.408 2.968-.59 4.744-.218 2.13-.46 3.618-.77 4.735-.124.449-.272 1.46-.329 2.249-.097 1.358-.081 1.454.29 1.852 1.01 1.08 1.844 1.135 2.811.182.94-.926 1.485-1.918 1.817-3.304.446-1.859.602-1.963 3.543-2.366 1.111-.152 1.577-.303 2.19-.71.428-.283.858-.655.956-.826.097-.171.463-.575.814-.898 1.492-1.376 2.272-2.922 2.447-4.856.118-1.303.38-1.884.822-1.82.572.082.67 1.235.253 2.987a42.228 42.228 0 00-.568 2.939c-.12.808-.468 2.388-.773 3.51-1.206 4.439-1.208 4.488-.283 5.432.371.378.62.77.572.898a1.403 1.403 0 00-.087.295c0 .038-.256.069-.57.069-1.018 0-1.718-.915-1.713-2.237.003-.752.41-2.563.794-3.53.22-.55.246-2.886.033-2.886-.082 0-.468.3-.857.666-.389.367-1.048.841-1.465 1.055-.416.214-.857.486-.98.605-.255.25-1.521.606-2.59.726-.944.107-1.191.342-1.7 1.613-.578 1.444-.88 1.971-1.727 3.026-1.2 1.491-2.384 1.801-3.816 1zm6.804 5.735a.413.413 0 01.13-.449c.206-.16.5-.56 1.043-1.422.091-.144.368-.565.614-.935.567-.85.576-1.56.03-2.363-.506-.747-.467-1.156.12-1.224.547-.064 1.073.474 1.218 1.243.132.705-.216 2.726-.513 2.972-.121.1-.379.49-.572.866-.629 1.221-1.815 1.974-2.069 1.312z" stroke-width=".163"/></svg>