<svg xmlns="http://www.w3.org/2000/svg" height="16.951" width="41.963"><path d="M15.712 15.532c.224-.099.702-.363 1.06-.588.36-.225.809-.478.998-.562.555-.245 1.044-1.369 1.044-2.398 0-1.04-.165-1.44-.855-2.066-.623-.565-.94-.563-1.982.014-.46.255-1.144.56-1.521.676-2.014.627-3.032 2.806-1.91 4.085.99 1.126 1.938 1.377 3.166.839zm-2.09 1.195c-.386-.122-1.061-.485-1.501-.807-.668-.49-.84-.73-1.053-1.462-.14-.482-.255-.99-.255-1.131 0-.521.794-1.997 1.367-2.542 1.182-1.123.583-1.36-2.347-.925-.314.047-.868.127-1.23.179-.532.075-.713.195-.934.62-.15.289-.32.746-.376 1.015C7.08 12.686 6 14.531 5.62 14.531c-.066 0-.25.243-.41.539-.399.74-1.201 1.135-2.35 1.157-.95.018-2.17-.393-2.17-.73 0-.09-.16-.38-.355-.644-.333-.45-.354-.645-.326-2.944.016-1.354.094-2.586.173-2.736.195-.373.68-2.504.842-3.703.12-.894.531-3.633.74-4.94.074-.464.147-.53.583-.53.498 0 .498 0 .407.775-.05.427-.168 1.51-.264 2.408-.096.898-.257 1.853-.358 2.122-.202.542-.313 1.314-.687 4.816-.267 2.5-.23 3.362.175 4.168.25.497.858.894 1.369.894.837 0 2.436-1.154 2.436-1.758 0-.176.143-.502.318-.725.174-.222.478-1.059.675-1.859.197-.8.41-1.565.475-1.7.095-.196.507-.248 2.06-.26 1.067-.01 2.418-.096 3.002-.194.584-.097 1.943-.262 3.02-.367 1.077-.104 2.327-.26 2.776-.347l1.306-.252c.27-.052.536-.164.59-.25.056-.086.57-.226 1.144-.31 2.53-.376 3.228-.482 4.226-.64 1.744-.278 6.478-.506 8.514-.412 1.046.05 2.332.208 2.857.355.525.146 1.158.302 1.406.347.248.045.491.147.54.227.05.08.256.144.46.144.488 0 1.828.966 2.477 1.785.809 1.022.926 2.81.26 3.97-.142.247-.39.45-.55.45-.256 0-.291-.165-.291-1.378 0-1.523-.117-1.954-.68-2.505-1.127-1.102-1.862-1.492-3.77-1.999-1.002-.267-1.756-.315-4.97-.318-4.24-.004-6.381.212-9.525.964-2.203.527-2.607.762-2.324 1.353.73 1.524.848 2.392.453 3.336-.135.323-.245.692-.245.82 0 .13-.288.543-.64.92-.352.376-.779.844-.948 1.04-.17.195-.635.48-1.033.63-.4.15-.957.376-1.24.5-.622.275-1.214.268-2.147-.025z" stroke-width=".163"/></svg>