<svg xmlns="http://www.w3.org/2000/svg" height="24.128" width="19.346"><path d="M18.154 17.944c-.18-.08-.656-.48-1.059-.887-.403-.408-.807-.744-.898-.747-.091-.003-.41-.25-.707-.55-1.097-1.103-1.673-1.157-2.075-.194-.13.309-.39.611-.581.672-.314.1-.669.344-1.187.818-.393.359-1.002.728-1.202.728-.251 0-.274-.553-.041-.988.092-.173.368-.42.612-.55.783-.414 1.832-1.61 1.832-2.09 0-.343-1.063-1.433-1.398-1.433-.115 0-.417-.166-.67-.37-.54-.431-1.74-1.1-1.977-1.1-.09 0-.261.331-.38.735-.12.405-.275.735-.345.735-.07 0-.128.111-.128.247s-.239.622-.53 1.082c-1.355 2.133-3.318 3.414-4.833 3.153C1.9 17.087.983 16.148.37 14.938c-.46-.91-.49-1.714-.099-2.623.125-.289.478-1.727.983-4 .09-.404.269-1.69.398-2.857.13-1.167.398-2.81.597-3.647C2.55.549 2.678.256 3 .109c.7-.32.803.018.496 1.634-.15.786-.301 1.687-.337 2-.084.744-.865 4.7-1.175 5.96-.565 2.294-.755 3.885-.55 4.62.19.68 1.006 1.642 1.554 1.835.686.24 1.397-.052 2.34-.964 1.364-1.32 1.903-2.424 2.384-4.889.152-.78.663-.97 1.48-.551.35.179.814.517 1.032.75.217.233.5.424.627.424.229 0 1.054.522 1.48.935.292.284 1.574.86 1.911.86.236 0 1.196-.85 3.325-2.943.974-.958 1.26-1.151 1.542-1.043.68.26-.16 1.57-1.772 2.767-.816.606-.891.679-1.434 1.398-.243.323-.441.69-.44.816.003.126.33.523.73.883.399.359.988.891 1.308 1.184.32.291.64.53.71.53.07 0 .283.276.472.613.252.449.302.69.186.898-.178.317-.245.328-.715.119zm-11.68 5.95c-.163-.197-.17-.325-.03-.531.497-.729 1.166-2.313 1.269-3.003.094-.63.051-.88-.23-1.356-.43-.73-.434-1.005-.018-1.137.451-.144 1.242.451 1.352 1.016.262 1.344-.473 3.777-1.449 4.796-.523.546-.602.565-.893.214z" stroke-width=".163"/></svg>