<svg xmlns="http://www.w3.org/2000/svg" height="15.899" width="17.045"><path d="M15.661 4.475c-.275-.304-.276-.346-.016-.743.152-.232.376-.46.499-.507.347-.133.901.242.901.61 0 .902-.808 1.276-1.384.64zm-14.22 10.94C.784 14.95.418 14.375.086 13.286c-.226-.743.017-2.7.461-3.704.182-.41.33-.965.33-1.232 0-.268.147-1.103.326-1.857l.667-2.789c.186-.78.443-1.569.571-1.75.128-.183.232-.539.232-.791 0-.253.118-.64.261-.859.212-.323.321-.367.572-.233.17.091.31.313.31.494 0 .435-.504 2.473-.663 2.68-.069.09-.245 1.034-.392 2.097-.147 1.063-.337 2.055-.422 2.204-.325.567-1.135 3.873-1.135 4.63 0 1.886 1.285 3.029 2.686 2.39.228-.104.416-.233.416-.286 0-.053.404-.527.898-1.054.493-.527.898-1.03.898-1.118 0-.088.1-.392.223-.675.123-.283.319-.845.434-1.25.333-1.163.58-1.468 1.191-1.468.294 0 .607.071.694.158.087.088.672.207 1.3.265.969.09 1.442.03 3.126-.403 1.091-.28 2.066-.51 2.165-.51.348 0 .521.81.255 1.192-.135.193-.246.582-.246.865 0 .283-.183.843-.408 1.244-.51.912-.703 2.14-.396 2.51.12.145.39.329.598.408.485.184.623.555.394 1.057-.138.304-.307.398-.72.398-1.633 0-2.183-1.79-1.317-4.29.503-1.452.429-1.67-.559-1.628-1.62.067-4.426.333-4.59.435-.2.123-.838 1.433-.838 1.718 0 .095-.257.445-.572.778-.314.333-.57.724-.57.87 0 .288-.653.974-.927.974-.094 0-.42.256-.725.57-.512.527-.625.569-1.533.564-.81-.005-1.093-.087-1.64-.474z" stroke-width=".163"/></svg>