<svg xmlns="http://www.w3.org/2000/svg" height="17.816" width="50.017"><path d="M22.549 7.847c-.294-.171-.394-.734-.148-.83.253-.1 1.41-1.832 1.615-2.417.278-.796.264-.891-.213-1.459-.25-.296-.399-.65-.368-.87.043-.303.155-.37.618-.37 1.206 0 1.713 1.89.968 3.612-.294.68-1.836 2.521-2.1 2.506-.047-.003-.215-.08-.372-.171zm4.19 9.096c-.94-.97-1.435-2.185-1.451-3.562-.005-.42-.057-.812-.116-.87-.238-.24-1.227.548-3.434 2.735-.43.427-.874.779-.986.782-.112.004-.608.224-1.102.49-1.06.57-1.895.617-2.899.16-.725-.328-1.019-.794-1.019-1.612 0-.746.487-2.367.816-2.718.171-.182.471-.693.667-1.135l.355-.804-.513-.46c-.646-.576-.929-.574-2.201.021-.564.264-1.24.527-1.503.584-.263.058-.625.17-.805.248-.891.391-2.226.648-3.368.648H7.912l-.389.775c-.214.427-.436.962-.493 1.19-.103.412-1.716 2.163-2.259 2.454-.155.083-.783.151-1.396.151-1.214 0-2.109-.335-2.4-.897-.093-.18-.293-.517-.446-.749a3.242 3.242 0 01-.465-2.414A76.586 76.586 0 011.1 7.612c.236-.898.498-2.478.581-3.51.084-1.033.291-2.355.462-2.939C2.434.17 2.486.1 2.97.051L3.487 0l-.012.868c-.007.477-.08 1.272-.163 1.765a59.657 59.657 0 00-.315 2.286c-.09.763-.309 1.939-.484 2.612-.853 3.277-1.095 5.025-.831 6.005.193.717.933 1.179 1.889 1.179 1.057 0 1.522-.467 2.557-2.56.523-1.06.951-2.05.951-2.202 0-.152.118-.395.262-.539.322-.322.835-.2 1.3.307.409.449 1.612.65 2.386.401 1.196-.386 3.526-1.372 4.263-1.805.43-.253.879-.46.995-.46.338 0 2.181 1.252 2.374 1.612.311.58.19 1.092-.636 2.705-.446.87-.86 1.849-.921 2.173-.096.51-.051.64.33.968.903.777 2 .336 4.377-1.763 1.013-.893 2.11-1.767 2.438-1.94.328-.175.622-.377.653-.45.03-.073.422-.345.87-.605.447-.26.888-.534.98-.609.927-.762 2.463-1.432 3.294-1.436.195 0 .687.141 1.093.316.637.273.765.41.921.992.316 1.172-.459 1.557-1.307.65-.494-.53-1.199-.646-1.838-.304-.679.364-1.576 1.329-1.926 2.074-.433.923-.37 2.434.131 3.105.68.911 2.218 1.325 3.39.912.358-.127.748-.232.865-.234.22-.003 2.111-1.21 2.4-1.534.089-.1.462-.386.829-.634a8.531 8.531 0 001.133-.94c.256-.267.556-.486.666-.486.11 0 .383-.217.606-.483.224-.266.73-.688 1.124-.939.395-.25 1.061-.778 1.481-1.172.42-.394.931-.833 1.135-.975A11.482 11.482 0 0042.4 7.409c.181-.202.426-.368.544-.368.243 0 1.522-1.107 1.522-1.318 0-.144 3.743-3.906 3.887-3.906.045 0 .332-.19.636-.422.604-.46 1.028-.427 1.028.083 0 .296-4.182 4.554-6.2 6.314-.403.35-.876.766-1.052.923-.175.157-.37.286-.43.286s-.617.489-1.235 1.086c-1.154 1.116-2.683 2.342-2.919 2.342-.073 0-.513.373-.977.828-.464.455-.995.914-1.179 1.02-.185.106-.877.65-1.539 1.208-.662.559-1.769 1.312-2.46 1.673-1.218.637-1.307.657-2.848.657h-1.591z" stroke-width=".163"/></svg>