<svg xmlns="http://www.w3.org/2000/svg" height="17.257" width="50.265"><path d="M21.088 7.691c-.246-.099-.266-.484-.04-.756 1.563-1.872 1.796-2.279 1.796-3.135 0-.608-.095-.975-.327-1.27-.421-.536-.412-.74.046-.948.7-.32 1.214.046 1.514 1.079.146.504.22 1.113.164 1.353-.161.69-.445 1.336-.587 1.336-.072 0-.257.332-.412.738a2.703 2.703 0 01-.944 1.224c-.659.484-.821.535-1.21.378zm-19.22 9.351C1.158 16.732.19 15.59.063 14.91c-.185-.988-.016-2.007 1.226-7.385.274-1.184.498-2.323.5-2.53.001-.209.148-1.077.328-1.93.18-.853.372-1.787.427-2.075.12-.63.597-1.106.968-.964.235.09.255.311.16 1.775-.06.92-.207 2.04-.328 2.488C2.6 7.054 1.89 10.54 1.633 12.701c-.158 1.322-.149 1.645.063 2.152.472 1.128 1.522 1.431 2.556.735.749-.503 1.885-2.415 2.525-4.247.58-1.662.438-1.57 2.053-1.33 1.111.164 2.184-.26 3.94-1.559 1.677-1.238 1.64-1.236 2.772-.222.337.3.678.547.759.547.08 0 .383.371.674.824l.529.824-.341 1.013c-.187.557-.51 1.477-.716 2.045l-.375 1.032.553.496c.79.709 1.113.638 3.937-.861.315-.167.901-.636 1.304-1.042s.828-.738.944-.738c.117 0 .265-.137.329-.303.065-.167.485-.619.934-1.005.449-.386.905-.828 1.014-.981.108-.154.439-.376.734-.495a4.78 4.78 0 00.927-.512c.959-.73 2.322-.144 2.946 1.267.175.397.363.722.416.722.054 0 .297-.136.54-.301 1.573-1.071 2.594-1.56 3.405-1.626 1.133-.094 2.417.362 2.937 1.044.359.47.386.65.386 2.579 0 1.948.023 2.096.377 2.45.781.781 2.41.671 3.439-.232.446-.392.564-.636.647-1.334.056-.47.297-1.315.536-1.878.927-2.18 3.712-4.146 4.943-3.487.632.338.329 1.152-.429 1.152-1.426 0-3.472 2.016-3.472 3.422 0 .273.044.496.097.496.149 0 2.346-1.473 3.12-2.09.682-.545 2.076-1.089 2.353-.918.08.049.144.25.144.447 0 .376-1.323 1.582-1.736 1.582-.122 0-.498.244-.835.542-.337.298-.943.709-1.347.913-.403.205-.863.487-1.02.627-.661.589-.106 1.23 1.24 1.433.864.13 2.1-.283 3.332-1.112.75-.505 1.127-.525 1.411-.075.294.466-.187 1.134-.964 1.34-.358.096-1.043.372-1.522.613-1.301.654-2.123.727-3.283.293-.531-.199-1.092-.501-1.247-.672-.411-.455-1.072-.383-2.398.26-1.624.789-2.224.768-3.545-.119-1.344-.902-1.478-1.235-1.373-3.407.102-2.106.013-2.26-1.381-2.387-.86-.078-1.073-.035-1.72.344-.823.482-2.268 1.68-2.366 1.96-.035.1-.417.56-.85 1.021-.432.462-.833 1.05-.89 1.306-.208.928-.268 1.051-.635 1.291-.205.135-.494.198-.642.141-.53-.203-.494-.837.117-2.09.93-1.907 1.143-3.219.628-3.856-.265-.327-.384-.352-1.17-.244-.844.116-.94.185-2.702 1.938-1.005 1-2.04 1.946-2.3 2.102-.26.157-.84.516-1.29.798-1.018.64-2.825 1.285-3.6 1.285-.78 0-1.96-.703-2.164-1.29-.208-.594-.03-1.45.602-2.906.636-1.465.648-1.98.06-2.54-.447-.427-1.164-.775-1.595-.775-.125 0-.618.318-1.095.706-.943.769-2.685 1.513-3.94 1.684-.85.116-1.197.479-1.59 1.66-.272.823-1.49 2.587-2.203 3.192-1.05.89-2.226 1.142-3.25.695z" stroke-width=".163"/></svg>