<svg xmlns="http://www.w3.org/2000/svg" height="17.609" width="32.193"><path d="M21.653 7.403c-.39-.158-.23-.954.265-1.32.498-.369 1.654-2.427 1.654-2.947 0-.17-.147-.443-.327-.606-.38-.344-.415-.714-.107-1.136.38-.52 1.047-.208 1.42.663.303.707.306.789.053 1.794a6.065 6.065 0 01-1.863 3.075c-.655.591-.729.623-1.095.476zm-20.04 9.896c-.748-.368-1.312-.993-1.554-1.72-.202-.608.139-3.264.658-5.13.187-.674.411-1.776.498-2.45C1.67 4.448 2.495.797 2.957.287 3.099.128 3.343 0 3.499 0c.489 0 .503.709.046 2.229-.24.794-.49 2.105-.556 2.914-.067.808-.2 1.8-.294 2.204l-.488 2.086c-.174.743-.366 1.478-.427 1.633-.139.355-.457 2.854-.469 3.674-.012.948.594 1.465 1.824 1.554l.966.07.914-1.132c.934-1.155 1.568-2.323 1.574-2.9.004-.32.379-1.483.695-2.155.267-.569.866-.618 1.512-.125.84.64 1.685.694 2.748.174.483-.236.932-.43 1-.43.066 0 .581-.403 1.144-.897.668-.586 1.167-.898 1.44-.898.594 0 3.057 2.032 3.057 2.522 0 .2-.209.798-.464 1.329-.255.53-.58 1.479-.722 2.108-.231 1.019-.232 1.199-.015 1.659.146.306.413.558.659.62.668.167 1.885-.078 2.525-.51.58-.391 3.595-3.497 3.705-3.817.03-.088.798-.794 1.707-1.57 2.084-1.776 3.222-2.341 4.716-2.341.986 0 1.123.041 1.432.434.455.58.578 1.136.359 1.618-.228.5-.521.502-.987.006-.475-.505-1.046-.608-2.065-.372-.9.209-2.232 1.18-2.596 1.893-.37.724-.573 2.02-.422 2.687.152.675.463.956 1.694 1.528 1.007.468 1.48.463 2.793-.031.95-.358 1.088-.374 1.31-.152.333.333.316.446-.155 1.005-.7.833-3.223 1.133-4.414.526-.352-.18-.735-.326-.851-.326-.31 0-1.529-1.306-1.785-1.913-.122-.29-.221-.712-.221-.94 0-.227-.059-.413-.13-.413-.071 0-.79.686-1.597 1.523-1.314 1.363-1.594 1.571-2.667 1.982-1.667.637-2.405.697-3.257.262-1.154-.589-1.328-.854-1.325-2.011.002-.8.13-1.32.589-2.408.854-2.024.874-2.324.18-2.753-.311-.192-.8-.35-1.088-.35-.534 0-1.598.536-2.622 1.32-.678.52-1.444.695-3.1.71l-1.223.012-.214.648c-.118.357-.308.761-.423.898-.115.137-.332.581-.481.986-.16.433-.7 1.198-1.309 1.854-.867.934-1.156 1.14-1.756 1.256-1.096.212-1.637.17-2.351-.18z" stroke-width=".163"/></svg>