<svg xmlns="http://www.w3.org/2000/svg" height="34.763" width="63.421"><path d="M60.149 3.756c0-.09.11-.163.245-.163.134 0 .245-.056.245-.123s.21-.345.466-.618c.422-.45.84-1.083.84-1.272 0-.421-1.464.032-1.473.456-.002.093-.148.353-.323.577-.335.428-.444 1.306-.163 1.306.09 0 .163-.073.163-.163zM42.069 10c.33-.373 1.44-2.52 1.818-3.513.162-.428.306-1.121.32-1.54.024-.669-.027-.793-.41-1.012-.403-.23-.466-.225-.776.055-.209.189-.338.508-.338.832 0 .29-.11.79-.245 1.112-.135.323-.245.769-.245.991 0 .223-.187.998-.416 1.722-.386 1.223-.409 1.638-.09 1.638.071 0 .243-.128.382-.285zm-6.314 22.08c.287-.539.728-1.42.98-1.96.253-.538.852-1.733 1.33-2.656.678-1.305.906-1.94 1.03-2.857.087-.649.23-1.474.318-1.833.197-.805.214-3.348.023-3.65-.294-.464-.693-.081-1.25 1.2-.312.72-.611 1.454-.665 1.634-.054.18-.392 1.024-.751 1.878-1.008 2.395-1.09 2.62-1.35 3.755a35.145 35.145 0 01-.574 2.122c-.182.584-.377 1.6-.435 2.258l-.105 1.197.464-.054c.379-.044.559-.233.985-1.034zm-2.167 2.448c-.193-.135-.437-.509-.544-.83-.198-.6-.16-.851.428-2.843.12-.405.301-1.322.403-2.041.102-.719.253-1.388.334-1.487.082-.1.47-1.091.864-2.204a62.05 62.05 0 011.468-3.717c.414-.932.753-1.815.753-1.962 0-.147.136-.524.302-.837.167-.313.354-.844.416-1.18.092-.502.065-.613-.151-.613-.145 0-.374.11-.509.245s-.373.245-.53.245c-.157 0-.575.247-.927.548-.77.657-3.378 1.942-4.874 2.402-.984.302-4.085.25-4.584-.077-.842-.552-1.443-1.334-1.704-2.22-.359-1.212-.751-1.275-1.786-.286-.415.397-1.27 1.02-1.897 1.386-.629.366-1.32.819-1.535 1.007-.328.285-.607.342-1.684.342-.71 0-1.425-.071-1.588-.159-.346-.184-.826-1.292-.826-1.905 0-.233.368-1.266.817-2.295 1.05-2.409 1.053-2.645.018-3.208-.95-.517-1.654-.555-2.056-.111-.16.177-.447.37-.637.427-.19.057-.502.247-.693.422-.598.546-2.625 1.277-3.547 1.28-1.34.004-1.502.097-1.951 1.115-.224.508-.456 1.087-.516 1.287-.059.2-.663.91-1.343 1.578-1.185 1.166-1.273 1.219-2.192 1.326-1.24.144-2.19-.28-2.856-1.273-.438-.655-.46-.779-.46-2.565-.003-1.577.055-2.008.356-2.694.524-1.195.787-2.39 1.657-7.51.338-1.991.525-2.368 1.178-2.368.156 0 .308.128.34.285.124.638-.634 5.024-1.334 7.714-.269 1.033-.49 2.061-.492 2.286-.002.225-.107.606-.233.848-.168.32-.205.796-.14 1.757.076 1.094.158 1.39.486 1.744.347.374.492.417 1.184.35.82-.078 2.291-.86 2.292-1.216 0-.105.18-.404.398-.664.219-.26.452-.688.517-.95.066-.264.291-.803.5-1.198.21-.395.382-.856.382-1.024 0-.51.684-.707 1.684-.483 1.853.415 2.997.025 4.858-1.652.955-.862 1.264-.926 2.154-.449.335.18.717.326.85.326.529 0 1.732.73 1.827 1.107.118.47-.243 2.286-.542 2.726-.12.178-.219.476-.219.663 0 .187-.18.584-.4.881-.566.77-.697 1.48-.322 1.755.365.268 1.629.281 2.372.025.649-.223 1.804-.94 1.992-1.236.071-.113.329-.31.571-.437.243-.127.954-.715 1.581-1.306.627-.59 1.197-1.075 1.265-1.075.068 0 .125-.096.125-.214 0-.277.772-.976 1.347-1.221.247-.105.45-.276.45-.38 0-.548 1.578-1.287 2.75-1.287.92 0 .994.03 1.557.653.654.724.718.992.328 1.381-.302.303-.76.207-1.223-.255-.377-.377-.887-.393-1.7-.054-1.54.644-2.184 1.592-2.315 3.41L26 17.714l.637.614c.958.924 2.06 1.114 3.691.641.675-.196 1.362-.357 1.527-.358.402-.002 2.014-.76 2.422-1.14.18-.166.877-.613 1.55-.993s1.42-.882 1.661-1.115c.24-.233.682-.618.98-.854.647-.512 1.023-1.43 1.465-3.57a42.74 42.74 0 01.626-2.612 52.7 52.7 0 00.663-2.694c.642-2.938 1.032-3.445 2.497-3.244.61.083.773.198 1.223.857.58.849.673 1.662.292 2.525-.125.283-.353.919-.506 1.412-.494 1.594-2.545 5.257-3.379 6.035-.348.324-.443.467-1.07 1.61-1.13 2.056.172 2.874 3.448 2.164.887-.192 1.765-.43 1.951-.53.635-.34 3.056-2.043 3.748-2.635.38-.325.989-.832 1.355-1.127.858-.692 1.367-1.156 2.421-2.21.472-.471.925-.857 1.006-.857.24 0 3.356-3.308 3.537-3.755.091-.225.229-.725.305-1.112.23-1.156 1.13-3.038 1.68-3.512C60.551.544 61.556 0 62.042 0c.804 0 1.378.546 1.378 1.31 0 .566-.13.769-1.223 1.907-.672.7-1.226 1.346-1.23 1.436-.01.242-.488.764-1.177 1.287-.807.612-.938 1.16-.946 3.938-.01 4.285-.322 5.405-1.94 6.992-1.413 1.386-2.054 1.527-3.859.848-1.59-.599-2.484-1.397-2.28-2.037.197-.62.679-.555 1.797.244 1.217.868 1.996 1.052 2.885.68.882-.368 1.71-1.739 1.994-3.298.226-1.24.267-4.056.066-4.51-.2-.45-.454-.63-.454-.322 0 .08-.253.296-.562.478-.309.183-.756.625-.993.984-.238.359-.665.768-.949.909-.642.318-.954.568-1.259 1.008-.201.29-.85.861-3.187 2.805-.186.154-.53.383-.766.507-.235.125-.708.5-1.05.835-.342.334-.916.744-1.275.91-.36.167-.984.507-1.388.756-.823.507-1.87.784-3.397.898-1.28.096-1.337.208-1.337 2.634 0 1.614-.049 1.885-.634 3.54-.349.986-.788 2.123-.976 2.527-.188.404-.344.89-.346 1.08-.002.19-.138.52-.303.735-.327.424-1.269 2.203-1.845 3.482-.466 1.036-1.239 1.85-1.947 2.054-.735.21-.834.204-1.247-.086z" stroke-width=".163"/></svg>