<svg xmlns="http://www.w3.org/2000/svg" height="15.688" width="34.957"><path d="M27.514 13.879c.57-.27 1.036-.555 1.036-.635 0-.08.26-.523.577-.984.318-.462.652-1.002.742-1.202.09-.2.27-.547.4-.771.311-.54.303-1.214-.018-1.48-.203-.17-.438-.177-1.114-.035-1.816.38-3.762 2.366-4.104 4.185-.095.51-.052.68.26 1.013.491.522.964.503 2.221-.09zm-2.492 1.636c-.467-.19-.934-.812-1.19-1.588-.194-.59-.176-.734.213-1.706.233-.584.424-1.185.424-1.335 0-.459-.652-.314-1.202.266-.281.297-.824.78-1.206 1.075-.381.295-.693.624-.693.732 0 .107-.228.33-.505.494a8.527 8.527 0 00-1.02.744c-.7.604-1.422.824-2.71.824-1.062 0-1.1-.015-1.772-.7-.585-.597-.687-.801-.687-1.38 0-.457.134-.879.409-1.283.408-.602.897-1.986.897-2.54 0-.178-.255-.424-.646-.624-.764-.39-1.033-.406-1.614-.104-1.697.883-3.26 1.312-4.324 1.187-1.022-.12-.965-.166-1.81 1.445-.881 1.682-3.385 4.11-4.517 4.38-.961.23-1.877-.364-2.674-1.735-.425-.731-.448-.863-.341-1.96.063-.646.223-1.652.356-2.236.686-3.015 1.16-5.662 1.296-7.231.12-1.392.437-2.011.933-1.821.47.18.636.657.465 1.338-.085.336-.244 1.456-.355 2.489-.111 1.033-.341 2.392-.511 3.02-.314 1.158-.693 4.266-.646 5.298.032.715.4 1.28.919 1.41.442.112 1.53-.37 2.164-.956.658-.609 2.015-3.046 2.396-4.301.14-.46.361-.926.493-1.035.302-.251 1.17-.078 1.702.34.297.232.546.28 1.061.205 1.057-.154 2.056-.525 2.845-1.058 1.093-.738 1.457-.754 2.733-.123 1.312.649 1.766 1.236 1.636 2.113-.098.663-.574 1.786-1.065 2.515-.412.612-.427 1.414-.033 1.771.413.374 1.93.364 2.477-.017.473-.33 1.28-1.07 2.49-2.286.47-.472.934-.857 1.03-.857.095 0 .384-.219.642-.488.258-.27.522-.49.587-.49.064 0 .546-.241 1.07-.536 1.769-.994 3.432-1.42 5.556-1.422.885-.002 1.048-.052 1.336-.417.18-.23.378-.652.44-.94.18-.821 1.486-5.044 1.715-5.542.247-.538.873-.61 1.13-.129.18.337-.264 2.355-.715 3.251-.119.236-.265.865-.325 1.398-.06.533-.168 1.047-.24 1.143-.185.248-.631 1.542-.763 2.215-.1.513-.235.827-.98 2.286-.289.564-.457 1.555-.343 2.01.052.209.357.65.678.98.482.496.553.653.412.916a.974.974 0 01-.479.415c-.404.128-1.457-.378-1.578-.759-.165-.52-.934-.36-1.974.413-1.373 1.021-2.579 1.332-3.585.926z" stroke-width=".163"/></svg>