<svg xmlns="http://www.w3.org/2000/svg" height="17.231" width="31.772"><path d="M22.719 5.713c-.12-.474.022-1.068.296-1.25.1-.065.383-.12.628-.122.804-.005.82 1.335.02 1.64-.635.242-.83.186-.945-.268zm-20.56 11.2c-1.025-.4-1.46-.82-1.891-1.82-.338-.785-.34-.85-.095-2.16.139-.743.253-1.691.253-2.107 0-.416.138-1.365.308-2.11.169-.744.392-2.198.496-3.231.372-3.694.69-5.14 1.194-5.41.717-.383.986.726.6 2.47a15.83 15.83 0 00-.242 1.634 52.49 52.49 0 01-.334 2.53c-.139.899-.32 2.244-.401 2.99-.082.746-.26 1.834-.395 2.418-.361 1.555-.321 2.3.155 2.925.564.74 1.075.824 2.112.349 1.371-.628 2.614-2.471 2.858-4.24.178-1.284.396-1.585 1.15-1.585.349 0 .66.078.692.174.11.33 1.38.368 2.285.069 1.214-.402 1.416-.506 2.32-1.19.887-.67.966-.72 1.613-1.023.914-.428 3.242.58 3.79 1.642.188.361.2.573.061.972-.214.616-1.414 2.966-1.624 3.184-.24.25-.172 1.454.105 1.85.336.48 1.474.498 2.232.036.294-.179.646-.326.784-.326.137 0 .85-.644 1.586-1.43 1.573-1.68 1.627-1.734 2.899-2.897.539-.493 1.034-.897 1.102-.897.067 0 .397-.248.734-.55 1.09-.977 2.108-1.411 3.305-1.408.585.002 1.14.056 1.235.122.38.263.726.955.726 1.45 0 1.19-.447 1.353-1.283.466-.58-.614-.865-.674-1.828-.386-.977.293-1.845 1.325-2.34 2.781-.498 1.464-.51 1.623-.17 2.28.513.992 2.807 1.501 3.68.816.574-.45 1.352-.583 1.608-.274.445.536-.5 1.33-2.302 1.94-.7.236-.838.233-1.776-.032-1.13-.318-2.114-1.04-2.514-1.843-.142-.284-.258-.909-.258-1.389 0-.5-.073-.872-.171-.872-.458 0-1.151.561-1.606 1.302-.278.45-.62.82-.76.82s-.584.326-.989.725c-.912.9-1.59 1.141-3.222 1.148-1.24.005-1.293-.01-1.755-.528-.43-.48-.476-.645-.476-1.668 0-.98.066-1.24.49-1.907.269-.425.49-.85.493-.944.002-.095.147-.356.323-.58.175-.225.32-.666.322-.98.003-.499-.087-.63-.707-1.02-.391-.247-.835-.45-.988-.45-.367 0-1.15.409-2.08 1.084-1.254.912-2.497 1.397-3.869 1.509-1.172.095-1.253.127-1.483.59-.133.27-.441.833-.684 1.252-.242.418-.49.914-.548 1.102-.06.187-.526.776-1.036 1.308-.722.752-1.144 1.043-1.902 1.306-.536.186-.977.335-.98.33a38.702 38.702 0 00-.804-.319z" stroke-width=".163"/></svg>