<svg xmlns="http://www.w3.org/2000/svg" height="29.96" width="31.912"><path d="M23.955 7.004c-.314-.22-.365-.366-.29-.83.115-.707.373-1.026.83-1.026.534 0 .748.314.748 1.098 0 .608-.059.728-.42.865-.514.196-.418.208-.868-.107zm1.116 22.71c-.175-.211-.153-.374.13-.956a5.94 5.94 0 00.448-1.501c.106-.783.725-2.856 1.482-4.962.21-.584.54-1.722.735-2.531.194-.808.601-2.382.905-3.497.53-1.943.7-3.278.421-3.278-.072 0-.605.388-1.184.863-2.858 2.345-4.927 3.218-7.082 2.99-1.793-.188-2.27-.3-2.602-.609-.18-.168-.413-.305-.516-.305-.325 0-.74-.588-.837-1.188-.1-.612.208-1.723.867-3.14.21-.448.38-.909.382-1.023.002-.114-.302-.537-.673-.939-.906-.984-1.455-.997-2.345-.058-.35.37-.972.82-1.38 1-1.039.456-2.716.757-3.683.66-1.1-.11-1.614.291-1.978 1.546-.454 1.563-2.447 3.957-3.627 4.36-.866.295-1.202.308-2.022.08-.887-.246-1.478-.822-2.065-2.013-.437-.888-.502-1.168-.412-1.763.06-.388.183-.85.274-1.028.091-.176.265-1.022.386-1.878.12-.856.335-2.07.476-2.699.141-.628.319-1.547.394-2.04.21-1.376.865-4.247 1.234-5.41.118-.37.52-.504.903-.299.363.195.424 1.006.13 1.738-.262.655-.796 3.047-.959 4.296-.16 1.231-.354 2.268-.703 3.755a68.406 68.406 0 00-.525 2.55c-.268 1.443-.266 1.508.045 2.203.434.97.79 1.246 1.784 1.378.833.11.851.104 1.632-.631.442-.417 1.04-1.231 1.36-1.856.315-.612.627-1.137.694-1.167.068-.03.123-.217.123-.416 0-.2.079-.44.175-.537.096-.096.265-.533.377-.971.174-.688.264-.804.652-.85.247-.029.788.063 1.203.204 1.825.622 3.488.136 5.059-1.478.737-.757.937-.876 1.469-.873.748.004 1.725.445 2.493 1.125.314.278.7.547.856.597.494.16.517.796.056 1.582-.232.397-.423.82-.423.94 0 .119-.102.333-.226.475-.319.362-.59 1.786-.424 2.223.075.198.402.524.726.725.54.334.751.36 2.525.306 1.483-.044 2.007-.12 2.24-.32.166-.145.551-.347.856-.449 1.114-.374 3.647-2.742 4.737-4.428.368-.568.668-1.092.668-1.163 0-.071.18-.323.398-.559.566-.61 1.136-.506 1.205.222a2.9 2.9 0 01-.135 1.06c-.299.825-.652 2.219-.652 2.575 0 .18-.186.929-.414 1.666a71.257 71.257 0 00-.59 1.993c-.096.36-.308 1.057-.472 1.55a11.101 11.101 0 00-.4 1.674c-.088.663-.721 2.63-1.372 4.262-.102.256-.327 1.1-.5 1.878-.353 1.585-1.163 3.973-1.475 4.349-.263.317-.56.314-.826-.007z" stroke-width=".163"/></svg>