<svg xmlns="http://www.w3.org/2000/svg" height="34.675" width="43.984"><path d="M41.077 7.297c1.272-2.16 1.608-3.034 1.643-4.282.032-1.126.01-1.212-.318-1.258-.44-.063-1.15.818-1.303 1.615-.058.307-.353 1.019-.654 1.582-.301.563-.548 1.114-.548 1.224 0 .11-.105.398-.232.64-.185.356-.584 2.304-.584 2.854 0 .232 1.54-1.6 1.996-2.375zm-13.85 6.4c.88-.997 1.397-1.843 1.403-2.3.013-.904-1.205.11-1.94 1.616-.812 1.664-.585 1.953.537.683zm3.078 19.12c.585-.493 1.155-1.305 1.641-2.34.348-.74 1.241-2.286 1.548-2.68.085-.11.207-.383.271-.607.518-1.828.729-2.9.818-4.163.057-.808.142-1.782.19-2.163.077-.623.051-.694-.255-.694-.188 0-.38.128-.426.286-.046.157-.235.58-.422.938-.956 1.847-1.28 2.532-1.29 2.726-.006.118-.223.618-.484 1.111-.261.494-.74 1.45-1.064 2.122l-.827 1.714c-.13.27-.34.674-.468.898-.573 1.013-.9 1.953-.9 2.582 0 .676.005.684.588.684.392 0 .753-.139 1.08-.414zm-2.556 1.502c-.347-.348-.42-.572-.42-1.303 0-.601.095-1.008.296-1.273.163-.214.43-.757.595-1.206.164-.45.868-1.992 1.565-3.43a300.42 300.42 0 001.869-3.917c.331-.719.958-2.041 1.393-2.94.434-.897.84-1.908.901-2.246.061-.338.177-.655.256-.704.153-.094.207-1.213.058-1.213-.047 0-.617.307-1.265.683-4.198 2.43-6.027 2.699-7.553 1.106-.59-.616-1.099-.614-2.034.008-.404.269-.974.534-1.267.589-.293.055-.572.166-.622.246-.049.08-.508.144-1.02.144-1.548 0-2.944-.917-3.63-2.387-.31-.662-.31-.686-.004-1.55.171-.484.478-1.21.683-1.614.43-.85.5-1.9.143-2.132-.438-.284-1.368-.108-1.544.293-.088.2-.456.483-.817.626-.36.144-.766.36-.9.48-.136.12-.687.387-1.225.592-1.113.423-3.159.507-3.81.156-.329-.176-.423-.162-.659.094-.572.623-1.653 2.284-1.653 2.539 0 .313-.768 1.271-1.018 1.271-.095 0-.421.256-.725.568-.64.66-2.038 1.145-2.772.964-1.216-.3-2.322-1.364-2.52-2.422-.138-.739.023-2.097.316-2.665.08-.155.234-.685.342-1.179.277-1.268 1.073-4.586 1.734-7.229.309-1.237.562-2.391.562-2.564 0-.441.328-1.112.593-1.214.343-.131.723.074.875.472.09.236.029.748-.178 1.488-.173.62-.39 1.532-.484 2.026a21.983 21.983 0 01-.466 1.878 70.822 70.822 0 00-.653 2.367A77.376 77.376 0 012.19 11.6c-.08.27-.195.784-.254 1.143-.06.36-.256.97-.438 1.358-.395.844-.329 1.705.197 2.556.35.565.376.576 1.436.576.9 0 1.183-.071 1.7-.43.342-.237.622-.518.622-.625 0-.107.186-.37.414-.584.566-.531 1.352-2.013 1.632-3.075.361-1.368.732-1.618 1.55-1.044.925.649 1.548.86 2.52.855.607-.003 1.108-.097 1.303-.245.175-.132.476-.24.67-.24.362 0 .613-.183 1.87-1.373.798-.754 1.306-1.076 1.7-1.076.368 0 2.012 1.09 2.294 1.52.21.319.211.466.012 1.13-.237.786-.544 1.452-.735 1.595-.06.045-.277.433-.482.862-.448.937-.373 1.386.36 2.155.415.436.76.603 1.654.798.985.216 1.172.217 1.465.012a1.48 1.48 0 01.72-.235c.548 0 1.703-.72 2.013-1.257.145-.25.356-.86.47-1.355.225-.989.793-2.188 1.5-3.167.252-.35.458-.733.458-.851 0-.34 1.168-1.043 1.734-1.043.284 0 .68.134.882.297.305.246.365.454.358 1.229-.007.782-.082 1.017-.47 1.463-.255.292-.72.909-1.034 1.37-.315.462-.774.96-1.021 1.108-.522.31-.938 1.032-.938 1.624 0 .5.69.91 1.535.91 1.223 0 3.159-.714 4.569-1.685.349-.24.716-.439.816-.44.1-.002.475-.302.834-.667.36-.365.84-.774 1.066-.91.228-.134.558-.474.735-.754.61-.967 1.2-2.157 1.21-2.444.005-.158.073-.416.15-.571a9.76 9.76 0 00.343-.855c1-2.847 2.842-7.445 3.199-7.984.504-.762 1.382-1.374 1.76-1.228.141.054.517.416.836.805.542.662.579.78.579 1.864 0 .946-.109 1.433-.595 2.666-.327.83-.823 1.827-1.102 2.215-.279.388-.704 1.046-.944 1.462-.24.416-.534.833-.653.927-.119.093-.5.5-.847.904a65.089 65.089 0 01-1.633 1.797c-1.2 1.272-2.39 3.541-2.39 4.558 0 .356.074.693.164.748.38.236-.018 5.116-.582 7.134-.219.781-.398 1.505-.398 1.61 0 .103-.22.515-.49.914-.269.4-.49.836-.49.97 0 .331-.463 1.209-.638 1.209-.077 0-.38.482-.672 1.07-.306.615-.77 1.253-1.09 1.497-.307.233-.663.63-.793.88-.338.654-1.202 1.255-1.984 1.38-.587.094-.732.053-1.097-.311z" stroke-width=".163"/></svg>