<svg xmlns="http://www.w3.org/2000/svg" height="16.454" width="40.388"><path d="M25.23 16.232c-.711-.254-1.488-.93-1.837-1.598-.305-.584-.552-.567-1.49.108-.91.652-2.264 1.198-3.325 1.338-.874.116-2.15-.356-2.582-.955-.457-.636-.657-1.387-.499-1.875.298-.918.775-2.11 1.22-3.05.494-1.046.466-1.224-.276-1.779-.396-.295-.44-.296-.967-.03-.304.154-.7.406-.88.56-.533.457-2.327 1.146-3.515 1.35-.89.152-1.24.147-1.775-.03-.823-.272-1.071-.094-1.772 1.276-1.081 2.112-2.093 3.372-3.254 4.052-1.015.595-1.917.44-3.168-.543-.821-.645-.943-.817-1.041-1.47-.23-1.54.088-3.356 1.427-8.137.176-.628.384-1.62.463-2.204.078-.583.217-1.274.307-1.535.091-.26.165-.634.165-.831 0-.448.53-.947.927-.871.39.074.462.748.216 2.009-.508 2.606-1.008 4.717-1.283 5.426-.167.43-.35 1.256-.409 1.836-.058.58-.252 1.335-.431 1.678-.404.774-.409 1.478-.016 2.342.413.91 1.043 1.375 1.866 1.375.584 0 .75-.095 1.407-.808.763-.828 2.424-3.88 2.612-4.803a.987.987 0 01.56-.731c.423-.204.503-.184 1.056.256.837.666 1.065.721 2.213.538 1.082-.173 2.546-.87 3.61-1.717.9-.718 1.344-.939 1.47-.732.058.091.448.342.868.555 1.514.771 1.932 1.714 1.199 2.705-.195.264-.354.546-.354.627 0 .082-.257.65-.571 1.264-1.038 2.028-.658 2.848 1.317 2.842 1.454-.005 2.179-.334 3.518-1.598.927-.875 2.92-3.772 2.92-4.245 0-.316.49-.556.916-.45.39.098.421.163.334.697-.052.324-.355.98-.673 1.46-.317.478-.577.967-.577 1.087s-.113.55-.25.953c-.211.62-.218.835-.041 1.374.262.8.808 1.083 2.149 1.111 1.73.037 3.204-.545 3.895-1.539.246-.353.54-.643.653-.644.113 0 .39-.276.614-.611.224-.336.757-.957 1.184-1.38.427-.424.775-.84.775-.926 0-.086.285-.382.634-.658.348-.276.763-.778.921-1.116.159-.338.379-.668.49-.733.213-.127 2.363-4.35 2.363-4.643 0-.095.235-.626.521-1.181.404-.782.594-1 .845-.962.567.084.67.828.261 1.888-.47 1.217-1.514 3.3-1.655 3.302-.06.002-.2.277-.31.614-.234.71-.806 1.662-1.19 1.982-.148.122-.268.29-.268.372 0 .082-.145.349-.323.592-.464.636-.983 2.392-.983 3.329 0 .817.354 1.743.757 1.979.25.146.291.732.076 1.072-.113.18-.249.186-.691.035-.804-.275-1.448-1.361-1.448-2.443 0-.747-.037-.836-.352-.836-.222 0-.75.415-1.43 1.122-1.141 1.191-2.538 2.175-3.634 2.561-.834.294-2.628.292-3.46-.004z" stroke-width=".163"/></svg>