<svg xmlns="http://www.w3.org/2000/svg" height="20.334" width="68.599"><path d="M25.218 20.241c-.937-.03-1.783-.115-1.878-.191-.095-.077-.43-.194-.743-.261a7.005 7.005 0 01-1.061-.332 74.2 74.2 0 00-1.388-.564c-1.749-.692-3.242-1.978-3.552-3.06-.188-.656.018-1.986.44-2.847.305-.62.143-.883-.793-1.286-.45-.194-.904-.455-1.008-.58-.104-.124-.286-.227-.406-.227-.246 0-1.234.641-1.904 1.235-.246.219-.516.398-.6.398-.083 0-.36.175-.615.39-.496.417-1.48.75-2.222.751-.657.002-1.98 1.282-2.303 2.23-.138.405-.455.982-.705 1.282-.25.3-.643.828-.873 1.171-.366.546-.548.654-1.431.85-1.61.357-3.096-.072-3.798-1.097-.35-.511-.39-.737-.376-2.149.017-1.606.21-2.508.975-4.575.218-.586.395-1.147.395-1.247 0-.1.11-.392.244-.649s.245-.671.245-.92c0-.248.142-.983.315-1.633.172-.649.363-1.548.425-1.997.218-1.582.765-2.857 1.226-2.857.548 0 .618 1.491.155 3.327-.178.708-.324 1.47-.324 1.695 0 .402-.648 2.36-.997 3.011-.152.284-.725 2.366-1.318 4.784-.358 1.463.25 2.891 1.357 3.19 1.2.323 1.99-.203 3.073-2.047.212-.359.465-.726.564-.816.16-.146.362-.574 1.183-2.509.216-.51.272-.54.757-.427 1.572.368 3.337-.266 4.865-1.746 1.302-1.261 1.49-1.351 2.136-1.02.299.153.751.452 1.005.664.254.212.658.434.898.493.24.06.712.29 1.05.511.746.492.797.985.183 1.788-.323.423-.446.81-.503 1.566-.07.942-.041 1.044.443 1.621.801.953 3.417 2.152 5.386 2.47 2.367.38 5.205.575 6.122.42a12.464 12.464 0 011.59-.149c1.318-.016 3.602-.615 5.267-1.382.63-.289 1.547-.701 2.041-.915.494-.215 1.014-.485 1.156-.602.142-.117.326-.214.409-.216.082-.002.334-.147.558-.323.225-.175.519-.321.653-.324.273-.006 1.887-1.472 2.316-2.104.254-.373 2.124-1.17 3.398-1.447.225-.05.984-.483 1.686-.964.703-.481 1.344-.875 1.424-.875.08 0 .708-.367 1.396-.816.688-.45 1.321-.817 1.408-.817.087 0 .879-.44 1.76-.98.882-.538 1.742-.979 1.912-.979.17 0 .379-.067.464-.15.085-.083.56-.366 1.053-.629 2.67-1.422 3.246-1.756 3.904-2.26.396-.305.878-.553 1.071-.553.193 0 .504-.143.692-.318.188-.176.676-.476 1.084-.668.408-.191.829-.452.934-.58.105-.126.29-.23.41-.23.119 0 .492-.187.829-.415.7-.476 1.26-.473 1.32.007.057.447-1.72 1.759-2.897 2.14-.494.16-1.51.643-2.258 1.075-.748.431-1.422.785-1.498.785-.076 0-.456.239-.845.53-.697.525-1.442.925-2.94 1.583-.422.184-.816.415-.876.513-.06.097-.56.4-1.112.671-1.473.727-2.367 1.216-3.067 1.68-.342.226-.722.41-.844.41s-.546.248-.942.55c-.678.516-1.247.838-2.598 1.47-.314.146-.902.52-1.306.83-.404.31-1.013.613-1.353.675-.34.061-.827.307-1.083.546-.698.652-1.602 1.318-1.79 1.318-.091 0-.225.094-.297.21-.179.288-1.79 1.328-2.548 1.644a5.378 5.378 0 00-1.042.59c-.23.182-.543.33-.693.33-.15 0-.522.184-.826.409-.304.224-.727.408-.94.408-.213 0-.789.184-1.28.408-.49.225-.971.409-1.07.409-.097 0-.517.106-.933.236-1.006.315-3.706.592-5.328.547-.718-.02-2.073-.06-3.011-.09z" stroke-width=".163"/></svg>