<svg xmlns="http://www.w3.org/2000/svg" height="17.844" width="42.04"><path d="M21.306 17.783c-1.167-.06-2.374-.19-2.68-.293-1.299-.432-2.862-1.805-3.456-3.034-.453-.937-.393-1.689.245-3.06.856-1.842.859-1.87.212-2.473-.31-.288-.649-.69-.754-.891-.261-.502-.525-.463-1.351.2-.899.723-3.574 2.045-4.137 2.045-.577 0-.76.222-1.211 1.466-.794 2.194-2.195 3.832-4.064 4.752-1.322.65-1.879.587-2.823-.32C.255 15.183.001 14.713 0 13.787c-.002-.979.322-2.621.87-4.428.222-.73.518-1.941.658-2.694.14-.753.33-1.7.425-2.103.093-.404.237-1.065.319-1.47.13-.646.404-1.526.85-2.734.14-.382.398-.459.762-.228.266.168.33 1.473.08 1.627-.101.063-.308.77-.458 1.572-.15.801-.345 1.645-.433 1.876-.088.23-.184.602-.213.827-.108.823-.47 2.563-.783 3.755-.735 2.806-.715 4.654.059 5.427.55.55.763.557 1.756.054 1.483-.751 2.77-2.578 3.266-4.634.18-.746.41-1.457.512-1.579.113-.137.638-.248 1.359-.289 1.977-.111 2.687-.406 3.96-1.643.62-.602 1.27-1.092 1.449-1.092.18 0 .687.388 1.146.877.452.482 1.057.996 1.343 1.142.286.146.573.35.638.455.214.348.07 1.52-.238 1.937a3.25 3.25 0 00-.425.817 5.797 5.797 0 01-.443.966c-.38.66-.303 1.396.205 1.989.954 1.113 1.528 1.623 1.92 1.703.24.049.692.154 1.006.232 2.107.529 3.537.608 6.531.362 2.572-.21 5.213-.748 5.796-1.179.09-.066.418-.175.728-.241.311-.067.825-.253 1.143-.413.318-.16 1.221-.564 2.006-.897.786-.333 1.43-.664 1.43-.737 0-.073.408-.325.907-.562.5-.236 1.18-.672 1.51-.969.831-.744 1.617-1.12 2.091-1.002.38.096.385.115.142.585-.138.267-.323.486-.41.486-.088 0-.324.165-.525.366-.394.393-2.392 1.717-3.063 2.029-.225.104-1.27.6-2.322 1.101s-2.06.912-2.237.912c-.36 0-1.104.289-1.482.574-.299.226-1.781.642-3.43.963-1.515.295-4.307.395-7.101.254z" stroke-width=".163"/></svg>