<svg xmlns="http://www.w3.org/2000/svg" height="16.632" width="69.981"><path d="M1.905 16.349c-1.116-.406-1.451-.693-1.65-1.416-.27-.987-.345-3.334-.13-4.08.103-.36.363-1.242.577-1.961C1.772 5.295 1.97 4.56 2.165 3.504c.429-2.34.608-3.107.771-3.306.236-.286.89-.255 1.007.048.172.447-.198 3.065-.563 3.992-.306.78-.718 2.105-1.317 4.245-.913 3.262-1.024 5.52-.308 6.282.792.843 2.31.676 3.287-.36.32-.338.796-.964 1.057-1.39.262-.427.526-.776.587-.776.145 0 .787-1.721.787-2.111 0-.166.138-.473.308-.683.295-.365.34-.371 1.136-.167 1.414.362 2.92-.228 4.719-1.848.471-.425.857-.862.857-.972 0-.352.653-.913 1.063-.913.253 0 .664.266 1.132.734.404.404.88.735 1.056.735.177 0 .526.176.775.39l.454.39-.201 1.171c-.11.645-.31 1.383-.445 1.643-.443.858-.32 1.228.783 2.348.916.93 1.176 1.092 2.408 1.505 1.34.45 1.485.463 4.81.467 3.404.004 4.46-.111 6.046-.664.363-.126.772-.23.911-.23.601 0 5.666-2.43 6.51-3.124.311-.257.648-.467.746-.467.099 0 .352-.184.563-.408.21-.225.47-.409.578-.409.107 0 .381-.147.61-.326.616-.485.9-.404 1.39.396.243.398.576.76.74.804.164.045.338.234.386.42.049.187.148.339.22.339.073 0 .34.175.594.388.753.635 3 1.723 4.053 1.964 2.384.546 4.183.485 7.184-.243.718-.175 1.425-.317 1.57-.315.145.002.451-.146.68-.326.23-.18.662-.375.961-.431.3-.057.617-.157.707-.223.09-.065.457-.212.817-.326.359-.114.836-.333 1.06-.486.225-.153.556-.32.735-.372.842-.239 2.072-.773 2.527-1.098 1.152-.82 3.043-1.778 3.634-1.84.275-.03.382.056.422.337.064.448-.228.848-.62.848-.343 0-1.31.468-1.31.634 0 .18-4.998 2.63-5.367 2.63-.096 0-.562.176-1.036.389-.474.213-1.156.48-1.515.592-.36.113-.837.298-1.061.412-.225.113-1.476.407-2.781.653-2.1.395-2.656.438-4.836.376-1.958-.055-2.55-.126-2.886-.347-.233-.153-.542-.278-.686-.278-.55 0-2.712-1.028-2.961-1.407-.14-.214-.344-.39-.453-.39-.109 0-.558-.33-.998-.734-.905-.831-1.634-.973-2.151-.418-.162.174-.918.624-1.68 1-.762.376-1.693.896-2.071 1.155-.378.26-.929.518-1.224.574-.296.057-.868.276-1.272.488-.404.211-.855.384-1.004.384-.149 0-.664.207-1.144.46-1.635.859-7.034 1.164-10.57.597-1.716-.275-1.95-.358-3.02-1.066-1.06-.701-1.815-1.46-2.338-2.348-.313-.531-.244-1.412.198-2.541.225-.573.408-1.073.408-1.111 0-.201-1.713-1.664-1.948-1.664-.342 0-.69.28-1.03.832-.145.234-.515.545-.824.691-.308.147-.659.384-.778.528-.34.41-2.38 1.377-2.905 1.377-1.17 0-1.456.164-2.057 1.173-.319.535-.58 1.047-.58 1.14 0 .091-.4.682-.89 1.312s-.912 1.197-.939 1.258c-.093.218-2.236 1.157-2.609 1.145-.207-.007-.715-.135-1.129-.285z" stroke-width=".163"/></svg>