<svg xmlns="http://www.w3.org/2000/svg" height="24.489" width="34.111"><path d="M1.832 16.959c-.295-.085-.686-.28-.869-.435C.55 16.176 0 15.008 0 14.475c0-.452.554-2.375.908-3.153.13-.283.235-.71.235-.949 0-.24.138-.78.307-1.2.17-.42.398-1.096.509-1.5.11-.404.272-.955.359-1.224.176-.547 1.02-3.681 1.298-4.816C3.819.803 4.324 0 4.644 0c.484 0 .642.465.434 1.272a27.932 27.932 0 00-.346 1.562c-.08.436-.258.963-.394 1.171-.396.604-1.19 3.042-1.387 4.262-.201 1.24-.62 2.536-1.02 3.161-.419.652-.671 1.626-.69 2.659-.016.886.024.995.516 1.436.621.556 1.121.598 1.967.166 1.005-.513 2.685-2.52 2.86-3.416.059-.3.254-.732.434-.96.18-.23.328-.488.328-.575 0-.086.152-.37.338-.63.41-.576 1.12-.636 1.74-.148.537.422 1.328.416 2.752-.02.927-.284 1.297-.51 2.068-1.26.88-.857.985-.912 1.675-.882.405.018.938.135 1.184.261s.705.28 1.019.342c.986.196 1.089.249 1.275.657.144.317.12.56-.122 1.181-.167.43-.423 1.12-.569 1.532-.146.413-.487 1-.759 1.303-.404.453-.484.672-.445 1.207.046.623.08.66.702.775.359.066 1.202.075 1.873.02 1.214-.1 1.224-.104 2.074-.975.47-.482.92-.876 1.002-.876.08 0 .97-.808 1.975-1.796 1.005-.988 1.92-1.796 2.033-1.796.113 0 .348-.13.522-.29.174-.16.573-.416.888-.567.314-.152.791-.424 1.06-.606.403-.272.756-.33 1.986-.332l1.495-.002.512.774c.62.935.653 1.886.07 1.97-.25.035-.44-.11-.685-.526-.388-.657-.843-.822-1.974-.713-1.745.168-3.393 1.498-4.367 3.525-.815 1.696-.22 2.536 2.109 2.978.663.126.94.087 1.878-.266.605-.228 1.33-.485 1.612-.57.282-.087.603-.266.714-.4.403-.485 1.267-.109 1.05.457-.15.393-2.064 1.555-2.862 1.74-.938.216-2.957.192-3.968-.046-.705-.166-.876-.299-1.463-1.13-.533-.755-.66-1.07-.639-1.592.021-.538-.027-.65-.282-.65-.17 0-.356.076-.414.17-.058.093-.654.638-1.324 1.21-1.664 1.42-2.397 1.742-4.05 1.776-1.194.024-1.378-.014-1.834-.381-1.146-.924-1.286-1.727-.557-3.202 1.199-2.426 1.4-3.109.953-3.232-1.988-.545-2.105-.529-3.551.488-.404.284-1.195.683-1.758.887-.866.313-1.236.356-2.413.283l-1.39-.087-.376.513c-.206.282-.59.95-.851 1.485-.273.556-.984 1.507-1.662 2.223-1.091 1.152-1.258 1.265-2.11 1.436-1.04.209-.931.209-1.65.002zm18.17 7.304c-.397-.29-.24-.67.821-1.971.421-.518.92-1.31 1.107-1.761l.341-.822-.357-.621c-.443-.769-.45-1.067-.035-1.29.662-.355 1.295.4 1.417 1.69.067.718-.002 1.002-.486 1.98-.507 1.028-2.077 3.02-2.379 3.02-.065 0-.258-.102-.43-.226z" stroke-width=".163"/></svg>