<svg xmlns="http://www.w3.org/2000/svg" height="24.243" width="52.275"><path d="M29.193 16.866c-.323-.106-.89-.396-1.262-.643s-.749-.449-.839-.449c-.09 0-.32-.306-.51-.681-.35-.684-.353-.831-.056-2.462.169-.923-.265-.803-1.544.427-1.899 1.826-2.904 2.716-3.064 2.716-.085 0-.446.21-.8.467-1.204.872-3.476.812-4.343-.116-.94-1.006-1.051-2.163-.32-3.317.26-.408.526-.919.593-1.134.067-.215.223-.535.345-.712.123-.178.223-.59.223-.918 0-.564-.037-.605-.694-.774-1.646-.422-1.727-.418-2.23.12-.435.466-1.9 1.322-2.264 1.322-.088 0-.244.1-.346.224-.283.341-1.705.466-2.817.248l-.988-.195-.8.882c-.462.51-.84 1.103-.898 1.408-.129.68-1.76 2.626-2.602 3.102-.674.381-1.581.474-2.228.227-.208-.079-.669-.41-1.023-.735-.603-.553-.65-.662-.713-1.651-.043-.675.022-1.342.18-1.836.136-.427.3-1.033.365-1.348.064-.315.177-.648.251-.74.075-.094.209-.608.299-1.144.431-2.576.92-4.544 1.469-5.919.19-.475.345-1.158.345-1.518 0-1.14.706-2.048 1.245-1.6.37.306.256 1.32-.338 3.024a29.595 29.595 0 00-.899 3.325c-.315 1.603-.466 2.195-1.306 5.143-.397 1.396-.432 2.81-.08 3.311.297.425 1.378.51 1.691.134.105-.126.367-.273.583-.327.338-.085 1.88-1.837 1.88-2.136 0-.058.174-.339.387-.625.212-.286.436-.728.496-.982.148-.626.835-1.69 1.228-1.9.256-.136.402-.093.737.217.23.212.755.515 1.169.673.718.274.799.274 1.832-.006.92-.25 1.243-.444 2.174-1.319 1.237-1.162 1.763-1.376 2.422-.987.244.144.97.35 1.612.455 1.44.238 1.595.393 1.35 1.36-.1.4-.182.905-.182 1.123 0 .219-.114.492-.253.608-.139.115-.478.678-.754 1.25-.417.864-.49 1.182-.424 1.862.043.45.167.907.275 1.014.119.118.657.187 1.38.175.99-.016 1.302-.093 1.909-.472.713-.446 2.465-1.973 4.239-3.694.496-.482 1.098-.964 1.338-1.072.24-.108.715-.441 1.057-.74 1.56-1.362 3.75-1.793 4.914-.965.624.445.865 1.449.424 1.77-.46.337-.704.254-1.065-.359-.374-.632-.866-.738-1.715-.367-1.386.605-2.25 1.869-2.428 3.554-.125 1.172.105 1.577 1.227 2.166 1.315.691 2.182.586 4.489-.543 1.667-.817 1.926-1.011 3.62-2.722 1.003-1.013 1.885-1.843 1.959-1.843.074 0 .407-.25.739-.556.744-.683 1.977-1.11 3.01-1.045.73.047.8.091 1.092.703.172.36.366.764.432.898.231.474.816.37 1.688-.298 1.489-1.142 2.084-1.372 3.493-1.351.803.012 1.385.106 1.622.26.809.531 1.277 2.425 1.008 4.083-.088.54-.212 1.32-.277 1.737-.082.53-.27.909-.626 1.265-1.016 1.016-1.3.461-.694-1.353.403-1.204.444-3.47.077-4.181-.32-.617-1.27-.903-2.183-.656-.59.159-2.456 1.499-2.864 2.057-.1.136-.364.336-.587.445-.262.127-.669.713-1.149 1.652-.758 1.484-1.562 2.34-2.029 2.16-.384-.148-.301-.597.407-2.191.851-1.92 1.077-3.046.718-3.594-.226-.345-.357-.39-.94-.324-1.01.114-2.496.88-3.008 1.552-1.24 1.624-3.798 3.833-4.863 4.2-.302.103-.68.3-.84.436-.788.67-3.11 1.085-4.146.743zm-7.315 7.173c-.214-.257-.014-.944.392-1.35.134-.134.244-.352.244-.484s.137-.512.305-.845c.556-1.106.586-1.783.114-2.497-.678-1.025-.514-1.523.443-1.34.307.059.527.278.76.758.414.857.441 1.092.273 2.39-.16 1.236-.395 1.754-1.28 2.816-.674.81-.94.927-1.252.55z" stroke-width=".163"/></svg>