<svg xmlns="http://www.w3.org/2000/svg" height="24.47" width="41.6"><path d="M39.149 18.177c-.826-.367-1.45-1.027-1.641-1.736-.149-.55-.107-.749.382-1.804.302-.652.668-1.283.813-1.402.146-.12.38-.566.522-.992.23-.695.232-.836.011-1.364-.25-.598-.796-1.101-1.196-1.101-.12 0-.453.176-.739.392-1.144.863-2.118 1.087-4.778 1.096-1.407.005-2.052.076-2.46.27-.777.371-1.379 1.479-1.618 2.974-.17 1.062-.684 2.565-1.105 3.227-.186.292-.756.252-.876-.063-.119-.309.172-1.957.618-3.506.577-2.002.232-2.895-.518-1.344-.559 1.154-2.844 3.3-4.275 4.015-1.744.872-2.52 1.12-3.545 1.134-1.018.015-1.871-.31-2.458-.935-.33-.35-.368-.547-.346-1.737.024-1.242.082-1.455.775-2.852.412-.83.7-1.59.641-1.685-.164-.265-1.66-.986-2.046-.986-.187 0-.51.166-.717.368-.406.395-1.69 1.103-2 1.102-.105 0-.656.22-1.225.489-.796.376-1.264.49-2.026.49-.856 0-1.06.062-1.507.46-.284.254-.627.775-.762 1.159a5.628 5.628 0 01-.705 1.294c-.252.328-.585.799-.74 1.046-.154.246-.518.563-.808.703-.993.48-1.262.64-1.262.755 0 .063-.323.163-.717.222-1.295.194-2.607-.79-2.822-2.116-.1-.61.213-2.483.469-2.813.08-.104.262-.655.405-1.224.142-.57.355-1.224.471-1.455.117-.23.262-.891.322-1.47.061-.577.244-1.711.408-2.52.163-.807.342-1.836.398-2.285C2.71 2.22 3.11.769 3.497.337c.38-.426.395-.428.634-.119.326.423.312.692-.16 3.14-.972 5.033-1.193 5.986-1.81 7.808-.243.718-.542 2.313-.675 3.606-.122 1.192.246 1.863 1.021 1.863 1.194 0 2.726-1.032 2.933-1.976a2.51 2.51 0 01.39-.832c.295-.384 1.131-1.98 1.457-2.783.213-.524.547-.565 1.501-.183 1.245.498 3.188-.131 5.23-1.694.97-.742 1.398-.836 2.087-.457.239.132.829.402 1.311.6.688.284.928.482 1.107.913.216.517.201.607-.25 1.481-.643 1.25-.82 1.845-.943 3.166-.147 1.579.045 1.766 1.806 1.764 1.489-.002 2.523-.375 3.558-1.283.32-.281.658-.511.751-.511.307 0 2.151-2.187 2.338-2.773.101-.316.313-.72.472-.9.158-.18.523-.75.811-1.265.289-.517.591-.98.672-1.03.325-.2 1.444-3.282 2.281-6.276.419-1.497.519-1.7.876-1.77.355-.07.909.423.909.808 0 .567-.464 2.064-.91 2.937-.247.485-.502 1.139-.565 1.454a42.3 42.3 0 01-.463 1.867c-.192.713-.348 1.496-.348 1.74v.444l2.49-.061c1.369-.034 2.784-.143 3.143-.242s.813-.219 1.009-.267c.196-.048.734-.41 1.197-.805.462-.395.902-.718.977-.718.353 0 .691.242.823.588.08.209.43.56.778.78.348.22.763.53.921.688.49.489.213 1.616-.908 3.694-.86 1.595-.969 1.896-.846 2.325.161.562.71.9 1.466.903.49.002 1.032.346 1.032.655 0 .215-.487.653-.726.653-.117 0-.424.037-.682.082-.258.045-.726-.033-1.04-.172zm-14.49 5.6c-.422-.38-.94-.895-1.153-1.141a3.337 3.337 0 00-.905-.696c-.284-.136-.829-.546-1.21-.911-.7-.669-.887-1.23-.467-1.39.226-.087 1.755.617 2.222 1.022.135.117.736.62 1.337 1.115 1.067.88 1.765 1.678 1.765 2.014 0 .21-.462.68-.668.68-.086 0-.5-.312-.921-.694z" stroke-width=".163"/></svg>