<svg xmlns="http://www.w3.org/2000/svg" height="24.478" width="28.794"><path d="M1.88 17.05c-.112-.135-.28-.245-.372-.245-.443 0-1.261-.863-1.436-1.515-.202-.75.057-5.043.351-5.832.084-.225.256-1.106.383-1.96.126-.852.381-2.268.567-3.145.186-.877.395-2.161.463-2.853C1.954.314 1.988.232 2.42.08c.355-.125.495-.107.619.078.216.323.075 2.607-.241 3.912-.395 1.628-.918 5.163-.918 6.202 0 .511-.147 1.504-.327 2.206-.413 1.617-.409 1.919.037 2.6.546.832 1.75 1.134 2.677.672 1.11-.554 2.06-2.093 2.431-3.944.44-2.184.518-2.35 1.113-2.343.285.003.702.11.926.239.587.335 1.705.298 2.45-.082.351-.18.75-.326.884-.326s.56-.302.945-.67c.386-.37.877-.74 1.093-.823.405-.156.427-.144 2.122 1.09.327.237.779.403 1.1.403.948 0 .928.57-.126 3.557-.446 1.268-.401 1.922.173 2.496.41.41.6.477 1.347.473.71-.003 1.034-.109 1.76-.571.49-.312.96-.568 1.044-.568.34 0 1.56-1.176 1.901-1.832.2-.384.59-1.102.866-1.596 1.244-2.225 2.286-4.814 2.891-7.184.411-1.61.625-2.104 1.015-2.348.22-.136.33-.11.497.119.322.44-.227 3.628-.848 4.923-.655 1.365-1.173 3.047-1.485 4.816a30.234 30.234 0 01-.337 1.652c-.242.96-.182 1.168.517 1.807.87.795.852 1.334-.046 1.408-.333.028-.756-.03-.939-.128-.383-.205-.987-1.302-.987-1.793 0-.583-.609-.381-1.969.654-1.454 1.107-3.259 1.952-4.17 1.952-.745 0-2.35-.734-2.35-1.074 0-.137-.103-.447-.227-.69-.167-.325-.19-.654-.088-1.256.419-2.468.507-3.21.42-3.546-.098-.387-1.565-1.271-2.107-1.271-.154 0-.713.329-1.243.73-1.257.957-1.582 1.066-3.184 1.066-1.435 0-1.736.133-1.736.766 0 .59-.648 2.312-1.148 3.051-.444.658-1.349 1.501-2.242 2.09-.578.38-2.349.415-2.65.052zm17.69 7.186c-.136-.354.186-1.16.747-1.868.91-1.148 1.038-1.946.47-2.931-.437-.76-.32-1.163.338-1.163.333 0 .594.14.837.449.306.389.346.612.295 1.673-.04.84-.173 1.458-.423 1.97-.2.41-.366.814-.368.898-.005.235-1.248 1.214-1.542 1.214a.41.41 0 01-.354-.243z" stroke-width=".163"/></svg>