<svg xmlns="http://www.w3.org/2000/svg" height="16.735" width="47.787"><path d="M30.03 14.21c1.097-.529 2.288-2.634 2.288-4.043 0-.25-.16-.625-.355-.832-.768-.818-3.67-.266-4.158.79-1.525 3.302-.406 5.356 2.225 4.086zM2.44 16.683c-1.044-.171-1.317-.406-1.91-1.64-.548-1.136-.579-1.285-.495-2.383a26.55 26.55 0 01.262-2.151c.096-.54.256-1.824.357-2.857.101-1.033.25-2.282.33-2.776.082-.494.23-1.633.33-2.531C1.514.53 1.776-.071 2.326.007c.35.05.357.096.32 2.337-.023 1.394-.163 2.986-.36 4.082a125.46 125.46 0 00-.502 3.02c-.1.673-.25 1.622-.335 2.109-.226 1.307-.187 2.214.12 2.747.33.575 1.22 1.185 1.724 1.183.592-.003 2.034-.75 2.336-1.211.435-.665 1.544-3.856 1.544-4.445 0-.723.316-1.363.674-1.363.162 0 .642.22 1.067.49.704.446.896.49 2.178.49h1.406l1.089-.899c.599-.494 1.203-1.118 1.342-1.388.336-.65 1.004-.663 1.68-.031.27.252.965.66 1.546.907 1.449.616 1.54.861.917 2.497-.551 1.45-.721 3.394-.337 3.857.293.353 1.055.499 1.928.368.593-.09.95-.31 1.947-1.207.672-.604 1.406-1.37 1.632-1.703.226-.333.506-.606.622-.606.256 0 .92-.682.92-.945 0-.105.386-.494.858-.865.471-.371.916-.778.988-.903.072-.125.44-.393.816-.594.663-.354.84-.367 5.42-.38 5.94-.016 5.95-.015 6.37.642.397.62.963.74 1.442.304 1.151-1.047 3.242-1.474 4.813-.983.5.156.675.324.9.869a6.78 6.78 0 01.376 1.486c.091.773-.154 2.45-.438 2.992-.073.14-.221.71-.329 1.266-.217 1.123-.652 1.727-1.19 1.65-.32-.045-.349-.137-.316-1.032.02-.558.215-1.476.449-2.122.51-1.405.548-2.75.097-3.338-.265-.344-.472-.411-1.434-.466-1.002-.056-1.177-.02-1.606.334-.265.218-.596.438-.736.489-.247.09-1.786 2.227-1.786 2.48 0 .069-.147.312-.327.54-.18.229-.326.55-.326.715 0 .833-.876 1.85-1.43 1.659-.311-.108-.246-1.408.11-2.202.829-1.843 1.002-3.401.43-3.875-.164-.136-.857-.157-2.47-.073-2.465.127-2.841.282-2.848 1.168-.002.247-.15.769-.327 1.16-.177.392-.323.912-.323 1.157 0 .666-1.6 2.355-2.81 2.966-1.347.68-1.959.666-3.059-.07-1.018-.68-1.13-.842-1.38-1.963-.1-.449-.254-.84-.343-.869-.09-.029-.395.186-.68.477l-1.308 1.346c-.98 1.008-2.23 1.697-3.311 1.826-.724.086-.904.041-1.514-.375-.893-.608-1.345-1.093-1.605-1.72-.188-.453-.155-.655.324-1.996.826-2.307.832-2.219-.19-2.924-.998-.687-1.803-.804-2.073-.3-.09.169-.442.447-.782.617-.339.17-.8.428-1.025.572-.708.456-2.067.678-3.445.563l-1.278-.107-.25.485c-.138.267-.251.61-.251.763 0 .453-.939 2.304-1.595 3.147-1.19 1.527-2.44 2.117-3.956 1.868z" stroke-width=".163"/></svg>