<svg xmlns="http://www.w3.org/2000/svg" height="21.74" width="58.137"><path d="M11.98 7.44c-.873-.35-.11-1.876.88-1.762.434.05.47.11.518.854.066 1.04-.369 1.322-1.398.909zm7.556.879c.32-.123 1.385-2.355 1.867-3.917.59-1.91.358-3.16-.586-3.16-.528 0-.714.445-.888 2.129-.083.8-.298 2.008-.479 2.68-.296 1.107-.435 2.375-.26 2.375.038 0 .193-.048.346-.107zm9.743 11.67c.78-.301 1.205-.694 1.732-1.603.234-.404.658-1.066.942-1.47 1.113-1.584 1.254-2.141.713-2.83-.618-.786-1.9-.74-3.82.138-.487.224-.946.408-1.02.41-.296.011-1.56 2.007-1.795 2.835-.629 2.212.923 3.416 3.247 2.519zm8.619 1.673c-2.248-.223-4.686-1.442-5.084-2.541-.115-.318-.319-.571-.46-.571-.24 0-1.143.98-1.156 1.257-.008.17-1.144 1.007-2.004 1.478-.79.432-2.017.488-2.72.125-.258-.133-.75-.586-1.094-1.005-.584-.712-.625-.832-.614-1.798.013-1.085-.15-1.283-.644-.788-.136.136-.6.517-1.032.847-.432.329-.919.768-1.082.976-.164.208-.423.379-.575.379-.153 0-.533.209-.845.465-.704.576-2.122 1.062-3.11 1.065-1.68.005-2.935-1.602-2.25-2.882.245-.458 1.134-3.92 1.235-4.811.076-.669.062-.694-.374-.694-.249 0-.569.1-.71.221-.142.122-.644.357-1.115.522-.472.166-.857.355-.857.422s-.35.168-.776.224c-.426.057-.996.19-1.265.295-.27.104-1.038.19-1.708.192-1.368.002-1.269-.084-1.951 1.689-.437 1.137-1.736 3.083-2.144 3.213-.176.056-.32.17-.32.252 0 .083-.403.418-.895.745-.996.661-1.363.668-2.639.05C.177 20.248-.3 18.861.18 16.562c.164-.78.345-1.496.403-1.589.125-.202.52-3.813.808-7.393.219-2.709.34-3.07 1.033-3.07h.407l-.11 3.388c-.108 3.31-.38 5.352-.96 7.224-.678 2.185-.723 2.786-.282 3.814.266.622.416.766.939.906 1.1.293 1.805.01 2.867-1.153.516-.566.938-1.113.938-1.216 0-.103.192-.62.427-1.146.235-.528.528-1.296.652-1.708.123-.412.37-.881.549-1.043.29-.263.403-.272 1.067-.086.408.114.781.27.83.348.132.214.881.17 1.7-.1l1.98-.652c1.626-.534 2.44-.979 3.183-1.74.554-.567.664-.846 1.24-3.118.41-1.619.664-3.038.722-4.045.094-1.625.54-3.23 1.015-3.645.147-.128.542-.32.88-.429 1.518-.487 2.537.698 2.356 2.743-.147 1.66-.99 4.13-1.752 5.134-.354.468-.644.893-.645.946 0 .053-.403.53-.894 1.061-.491.531-.975 1.185-1.076 1.455-.1.27-.324.82-.497 1.224-.331.775-.875 3.116-1.138 4.898-.085.584-.199 1.332-.252 1.663-.095.596-.088.604.614.793.746.2 1.91.04 3.02-.417.728-.3 2.859-2.048 4.346-3.564.697-.71 1.615-1.51 2.04-1.778.427-.267.922-.618 1.1-.781.506-.458 2.979-1.201 3.966-1.192.505.005 1.089.13 1.407.3.3.162.66.25.802.195.278-.107.556-.97.773-2.401.075-.494.253-1.412.396-2.041.143-.629.306-1.4.361-1.714.157-.878.666-1.959.923-1.959.53 0 .64.45.553 2.246-.047.965-.16 1.974-.25 2.244-.441 1.324-.685 2.192-.685 2.438 0 .15-.152.58-.337.958-.718 1.465-1.504 4.268-1.504 5.368 0 .469.11.728.436 1.03.612.567.877.688 2.414 1.098 1.083.289 1.87.37 3.889.397 4.746.064 7.467-.4 10.12-1.731.673-.337 1.444-.667 1.713-.732.268-.065.831-.365 1.25-.666.42-.302 1.045-.696 1.39-.876.345-.18.847-.537 1.117-.793.85-.806 1.259-1.035 1.499-.835a.634.634 0 01.215.419c0 .35-.637 1.189-.903 1.189-.126 0-.47.208-.765.463-.652.563-3.71 2.149-4.144 2.149-.048 0-.395.21-.77.469-.376.257-.932.522-1.236.589-.304.066-.919.305-1.368.53-1.592.8-3.02 1.039-6.57 1.1-1.796.03-3.816.002-4.49-.066z" stroke-width=".163"/></svg>