<svg xmlns="http://www.w3.org/2000/svg" height="21.425" width="29.031"><path d="M9.883 8.933c-.438-.484-.347-1.218.191-1.536.254-.15.615-.232.802-.183.69.18.637 1.598-.07 1.866-.543.207-.613.196-.923-.147zm7.17.582c1.357-2.08 1.948-4.245 1.836-6.733-.049-1.092-.069-1.143-.454-1.143-.3 0-.5.169-.777.653-.489.855-1.188 3.126-1.188 3.86 0 .318-.11.939-.243 1.38-.306 1.007-.334 3.005-.043 3.002.113-.002.504-.46.87-1.02zm-.438 11.59c-1.233-.423-2.798-1.53-3.163-2.236-.273-.527-.33-1.83-.1-2.26.081-.15.2-.624.264-1.05l.116-.775h-.645c-.354 0-1.116.157-1.692.348-.664.221-1.517.358-2.33.374-1.448.028-1.622.15-1.922 1.338-.254 1.009-1.86 3.068-2.768 3.547-1.273.673-1.716.7-2.785.167-.916-.456-.951-.499-1.305-1.57-.346-1.052-.353-1.177-.149-2.695.118-.875.268-2.914.333-4.53.242-5.972.691-8.028 1.624-7.438.266.168.27 2.15.006 4.17-.082.63-.15 1.802-.154 2.605-.003.803-.076 1.868-.164 2.367-.427 2.44-.553 4.272-.335 4.88.317.884.94 1.403 1.686 1.406.518.002.74-.117 1.349-.728.955-.958 1.121-1.282 1.526-2.99.39-1.637.547-1.991.998-2.233.254-.136.423-.098.796.177.418.31.622.34 1.756.265 2.044-.136 3.324-.514 4.345-1.285.305-.23.765-2.529.77-3.847.004-.711.212-1.754.58-2.9.115-.36.255-.971.31-1.36.056-.389.283-1.066.506-1.505.222-.438.404-.922.404-1.074 0-.605.807-1.66 1.544-2.017.797-.386 1.184-.344 1.659.182.274.303.307.624.307 2.975v2.636l-.96 2.04c-.672 1.433-1.16 2.237-1.63 2.695-.37.359-.923.983-1.23 1.388-.307.404-.62.775-.695.825-.075.05-.213.527-.307 1.061a95.173 95.173 0 01-.327 1.758 10.233 10.233 0 00-.157 1.654c0 .83.03.891.745 1.477 1.864 1.527 4.56 1.657 5.99.287.246-.236.448-.526.448-.644s.073-.215.161-.215c.22 0 2.048-2.319 2.381-3.023.149-.312.324-.568.39-.568s.25-.313.407-.694c.158-.382.384-.878.5-1.103.57-1.091 1.536-4.426 1.636-5.641.185-2.243.453-2.843 1.149-2.576.141.054.325.277.408.495.231.608.166 2.34-.116 3.069-.139.36-.329.947-.423 1.306-.093.36-.23.8-.305.98-.163.39-.607 2.023-.803 2.95-.077.365-.246.953-.375 1.306-.235.642-.501 1.745-.695 2.876-.156.907.182 1.712.924 2.203.35.232.638.516.638.632 0 .905-.972 1.015-1.74.195-.836-.893-1.035-1.298-1.035-2.105 0-.421-.045-.882-.1-1.025-.103-.27-.717-.365-.717-.111 0 .297-2.27 2.557-2.88 2.867-.346.176-.837.46-1.09.632-.721.488-2.245.515-3.558.064z" stroke-width=".163"/></svg>