<svg xmlns="http://www.w3.org/2000/svg" height="21.039" width="33.933"><path d="M11.131 6.857c-.661-1.059.362-2.382 1.16-1.5.382.422.335 1.053-.108 1.47-.47.44-.79.45-1.052.03zm8.37.039c.993-1.131 1.773-4.415 1.168-4.917-.141-.118-.335-.165-.43-.107-.743.46-1.937 5.472-1.303 5.472.094 0 .349-.202.565-.449zm7.59 12.62c.225-.13.563-.306.751-.393.99-.452 3.004-3.548 3.004-4.614 0-.63-.435-.786-1.886-.674-1.275.098-2.074.44-3.015 1.29-.877.793-1.238 1.432-1.482 2.619-.175.853-.17 1.052.028 1.29.55.664 1.864.907 2.602.481zm-25.47 1.428c-.438-.08-.98-.488-.98-.739 0-.084-.157-.374-.349-.644-.32-.45-.34-.618-.236-1.984.116-1.516.27-2.764.577-4.677.176-1.091.532-3.857.83-6.446.17-1.469.463-2.207.877-2.207.458 0 .616.458.545 1.584-.115 1.848-.452 4.638-.695 5.763a26.794 26.794 0 00-.325 1.796c-.052.404-.21 1.416-.352 2.248-.142.833-.224 1.929-.182 2.436.066.788.155.991.615 1.403.462.413.636.47 1.23.403.843-.095 1.772-.79 2.128-1.592.14-.314.36-.767.49-1.005.129-.239.235-.58.235-.761 0-.18.156-.734.346-1.231.386-1.008.773-1.25 1.804-1.125 1.595.193 5.465-1.37 7.597-3.068 1.064-.848 1.226-1.153 1.51-2.852.277-1.66.507-2.798.741-3.673.132-.494.354-1.371.493-1.95.249-1.034.337-1.18 1.29-2.153 1.154-1.177 2.219-.05 2.219 2.349 0 1.079-.076 1.442-.49 2.326-.27.576-.49 1.092-.49 1.147 0 .054-.183.34-.408.634-.224.295-.408.652-.408.795 0 .143-.488.849-1.085 1.568-1.022 1.232-1.113 1.411-1.564 3.072-.648 2.387-.902 3.651-1.035 5.145-.11 1.24-.105 1.263.304 1.45.422.192 1.584.08 1.584-.153 0-.068.254-.215.564-.327.31-.112.745-.42.969-.686.223-.265.473-.482.555-.482.082 0 .555-.423 1.049-.939 1.278-1.333 2.488-2.314 3.107-2.517.292-.096 1.009-.395 1.593-.665 1.884-.872 2.278-.968 3.747-.911 1.333.05 1.387.038 1.581-.356.317-.641.683-2.673.884-4.898.1-1.122.24-2.15.31-2.286.183-.358.58-.383.908-.057.255.256.273.51.17 2.406-.063 1.166-.216 2.42-.339 2.783-.123.365-.304 1.141-.401 1.724a39.224 39.224 0 01-.718 3.43c-.53 2.15-.591 2.465-.589 3.063.003.688.115.913.53 1.067.712.263.689 1.747-.026 1.747-.462 0-1.21-.69-1.575-1.455-.4-.832-.708-.844-1.522-.055-1.041 1.007-2.141 1.51-3.301 1.51-1.342 0-1.953-.314-2.312-1.185-.32-.776-.377-2.095-.114-2.587.214-.4.053-.963-.275-.963-.134 0-.772.51-1.418 1.134-1.96 1.894-2.241 2.105-3.393 2.557-1.426.56-2.304.484-2.964-.255-.531-.594-.603-1.629-.203-2.9 1.033-3.275 1.255-4.107 1.145-4.285-.222-.36-.92-.144-1.767.546-1.104.9-4.136 2.192-6.225 2.653-.691.153-.654.1-2.215 3.162-.343.674-.838 1.383-1.102 1.577-.824.608-2.144.832-3.47.59z" stroke-width=".163"/></svg>