<svg xmlns="http://www.w3.org/2000/svg" height="25.592" width="42.769"><path d="M15.19 7.352c.493-.546 1.12-3.6.978-4.776-.16-1.345-.676-1.527-1.18-.417-.182.4-.331.955-.331 1.234 0 .28-.08 1.027-.18 1.661-.2 1.291-.077 2.583.246 2.583.115 0 .326-.128.468-.285zM1.51 20.622C.567 20.194.157 19.64.028 18.617c-.107-.852.106-7.549.39-12.26.114-1.875.223-2.152.847-2.152.631 0 .681.203.606 2.462-.04 1.202-.157 2.737-.26 3.411-.103.674-.205 2.89-.226 4.925l-.039 3.701.408.437c.343.366.509.424 1.027.355 1.32-.175 2.36-1.563 2.714-3.622.109-.629.23-1.303.27-1.499.13-.642.521-.868 1.512-.874 1.054-.007 2.687-.358 3.099-.666.152-.114.7-.615 1.218-1.112 1.25-1.202 1.589-2.093 1.589-4.175 0-2.442.303-4.771.764-5.878.6-1.436.605-1.444 1.167-1.59 2.103-.545 2.891 1.749 1.842 5.357-.67 2.305-.817 2.632-1.746 3.868l-.829 1.105-.202 2.732c-.34 4.612-.233 5.27.963 5.885 1.114.573 2.124.443 3.496-.45.591-.386 1.076-.757 1.076-.826 0-.068.336-.555.748-1.083.41-.527.97-1.432 1.243-2.01.272-.58.66-1.314.86-1.634.507-.802 1.054-3.314 1.173-5.382.12-2.066.373-2.838.905-2.76.91.13.757 3.466-.393 8.541-.101.45-.188 1.624-.192 2.612-.006 1.468.05 1.915.314 2.45.288.584.391.658.988.701.452.033.736-.033.878-.204.115-.139.273-.253.351-.253.457 0 1.896-1.529 2.676-2.842.904-1.522 2.039-3.046 2.351-3.157.143-.05.363-.172.488-.269.124-.097.565-.263.98-.37.706-.18.786-.166 1.31.231.337.257.722.798.976 1.373.334.757.48.932.714.857.367-.116.926-.645 1.398-1.323.417-.598 1.747-1.297 2.774-1.456.66-.102.744-.07 1.354.525.91.889 1.18 1.908 1.158 4.35-.02 2.075-.293 3.061-.849 3.061-.557 0-.685-.396-.566-1.756.134-1.534-.182-4.234-.544-4.652-.253-.291-1.424-.41-1.53-.156-.03.072-.4.39-.82.71a8.54 8.54 0 00-1.372 1.38c-.334.44-.78 1.009-.99 1.263-.21.253-.383.667-.383.918 0 .252-.1.541-.223.643-.123.102-.347.509-.498.904-.54 1.415-1.335 1.025-1.141-.56.06-.493.174-1.067.251-1.275.242-.645.15-2.51-.152-3.132-.243-.499-.365-.578-.953-.62-.608-.045-.725.01-1.183.567-.28.34-.509.679-.509.754 0 .075-.184.378-.408.672-.225.294-.408.62-.408.724 0 .104-.062.189-.137.189-.076 0-.215.17-.31.38-.306.67-2.118 2.645-2.681 2.923-1.88.925-2.064.978-2.706.769-.338-.11-.76-.3-.936-.421-.492-.339-.884-1.494-.894-2.636-.007-.793-.07-1.049-.277-1.128-.4-.154-.753.134-1.154.94-.562 1.13-1.272 1.867-2.293 2.377-.516.259-.98.526-1.032.595-.165.223-1.188.446-2.04.446-1.046 0-2.249-.582-2.757-1.333-.742-1.099-.807-1.533-.607-4.055.102-1.28.148-2.389.102-2.463-.116-.187-.481-.025-1.563.694-1.117.742-1.72 1.019-2.944 1.354-.996.272-.881.13-1.845 2.293-1.001 2.246-1.251 2.607-2.233 3.224-1.061.667-1.802.772-2.672.377zm11.02 4.807c0-.09-.105-.163-.232-.163-.128 0-.45-.183-.715-.406-.265-.223-1.134-.744-1.931-1.158-.797-.413-1.577-.9-1.734-1.082-.515-.593-.293-1.11.476-1.11.134 0 1.01.441 1.946.98.935.539 1.813.98 1.95.98.139 0 .294.113.348.251.053.139.385.4.737.579.725.37.918.694.623 1.049-.225.271-1.468.339-1.468.08z" stroke-width=".163"/></svg>