<svg xmlns="http://www.w3.org/2000/svg" height="22.137" width="35.808"><path d="M2.007 16.813c-.703-.246-1.535-1.055-1.801-1.751-.296-.774-.296-.761.153-6.12.404-4.826.747-7.666.997-8.265.277-.663.666-.856 1.018-.504.22.22.229.391.065 1.225-.105.533-.263 2.348-.35 4.033-.143 2.746-.385 5.01-.567 5.305-.201.326-.392 2.919-.25 3.412.242.844 1.06 1.487 1.893 1.487 1 0 2.153-.813 2.66-1.878.63-1.32 1.003-2.533 1.003-3.266 0-.929.381-1.28 1.152-1.058.755.217 4.079.204 5.206-.02.758-.15 1.009-.136 1.52.085.532.229 1.45 1.223 1.63 1.765.114.339.964-.044 1.692-.762.885-.873 2.234-1.6 3.002-1.618.819-.02 1.795.691 2.15 1.566.18.444.286 1.158.292 1.972.013 1.898.48 2.55 1.826 2.557.944.005 1.804-.346 2.255-.919.296-.376.33-.574.242-1.36-.095-.837-.051-1.026.475-2.07.681-1.355 1.955-2.602 2.82-2.764 1.048-.196 2.024.167 2.024.752 0 .368-.32.487-1.308.487-.436 0-.889.096-1.007.213-.12.118-.342.261-.495.32-.492.185-1.272 1.43-1.272 2.027 0 .765.368.856 1.315.324.875-.492 1.329-.546 1.622-.192.35.422.06 1.014-.65 1.327-.359.158-.694.42-.746.583-.272.856.548 1.355 2.228 1.356.916 0 1.174-.068 1.744-.463.783-.543 1.263-.526 1.263.044 0 .53-1.205 1.367-2.49 1.727l-.983.276-1.383-.648c-.761-.357-1.435-.731-1.497-.833-.063-.101-.518-.184-1.01-.184-.753 0-.959.067-1.285.42-.46.496-1.83.9-2.618.772-.33-.053-.856-.361-1.303-.763-.702-.63-.761-.748-.914-1.817-.415-2.903-.662-3.512-1.423-3.507-.242.002-.77.221-1.174.488-.404.267-.879.578-1.055.691a3.221 3.221 0 00-.595.532c-.151.18-.568.632-.925 1.006-.49.512-.736.974-1 1.878-.424 1.45-.54 1.67-.913 1.745-.488.096-.56-.294-.459-2.518.075-1.65.045-2.264-.131-2.664-.343-.78-.605-.806-3.575-.35a15.73 15.73 0 01-1.893.166c-1 .004-1.264.24-1.566 1.393a5.403 5.403 0 01-.704 1.495l-.97 1.345c-.714.992-1.595 1.51-2.686 1.577-.504.032-1.065.005-1.247-.058zm10.55 4.62c-.397-.406-1.185-.998-1.751-1.315-1.157-.647-1.906-1.494-1.825-2.065.08-.564.719-.585 1.285-.043.473.454.61.545 1.758 1.176.366.201.725.462.797.579.073.117.484.503.914.858.609.502.772.736.735 1.054-.04.338-.146.416-.62.453-.49.038-.674-.061-1.292-.696z" stroke-width=".163"/></svg>