<svg xmlns="http://www.w3.org/2000/svg" height="23.157" width="23.498"><path d="M2.27 16.218c-.225-.128-.517-.236-.649-.24-.277-.006-1.049-.846-1.424-1.55-.208-.391-.238-.792-.152-2.09.057-.884.214-1.868.348-2.188.256-.613.527-1.932.732-3.565.068-.539.315-1.861.55-2.94.236-1.077.43-2.181.43-2.452.002-.67.43-1.252.874-1.188.465.066.547.962.199 2.162-.14.482-.255 1.225-.255 1.65 0 .425-.068 1.038-.15 1.363a96.335 96.335 0 00-.502 2.223c-.193.898-.493 2.223-.666 2.944-.314 1.307-.418 3.274-.19 3.589.445.615 1.25 1.059 1.923 1.059.6 0 .826-.1 1.389-.612.37-.337.824-.906 1.009-1.265.185-.36.425-.727.533-.817.108-.09.323-.604.478-1.143.427-1.483.575-1.714 1.091-1.714.25 0 .493.065.542.145.05.08.353.194.675.255.876.164 2.418-.617 3.698-1.874 1.295-1.271 1.886-1.417 2.736-.676.312.272.812.54 1.111.597 1.17.219 1.44 1.029.857 2.563-.178.468-.371 1.484-.43 2.258l-.106 1.408.758.853c.635.716.73.904.586 1.172-.29.544-.886.385-1.767-.473-.68-.664-.833-.923-.932-1.587-.072-.48-.046-1.056.067-1.452.103-.362.308-1.19.457-1.841.26-1.138.26-1.197-.036-1.524-.643-.71-1.973-1.018-2.364-.548-.117.141-.438.367-.714.503-.276.135-.722.496-.992.8-.444.503-.634.579-2.04.818-1.565.267-2.028.496-2.219 1.096-.152.48-1.229 2.105-2.02 3.05-1.058 1.262-2.487 1.775-3.436 1.232zm11.27 5.006c0-.075-.166-.214-.368-.309-.202-.094-.875-.639-1.495-1.21-2.45-2.256-2.427-2.229-2.316-2.669.217-.864.992-.48 3.237 1.6.563.522 1.231.991 1.486 1.044 1.001.207.929 1.682-.083 1.682-.254 0-.462-.062-.462-.137zm6.203 1.617c0-.174.435-.766.965-1.315 1.484-1.535 1.784-2.403 1.157-3.35-.178-.268-.325-.578-.325-.687-.002-.286.61-.572.977-.456.424.135.981 1.075.981 1.657 0 .718-.997 2.643-1.869 3.61-.645.714-.866.857-1.33.857-.441 0-.556-.066-.556-.317z" stroke-width=".163"/></svg>