<svg xmlns="http://www.w3.org/2000/svg" height="21.284" width="35.103"><path d="M1.76 16.626c-.672-.23-.828-.378-1.265-1.198-.408-.766-.498-1.125-.495-1.974.002-.571.08-1.332.174-1.691.093-.36.277-1.13.41-1.712.131-.582.31-1.13.397-1.216.087-.087.158-.422.158-.746 0-.323.065-.657.145-.742.08-.086.23-1.66.334-3.498.151-2.662.243-3.402.454-3.635.427-.472 1.226-.1 1.09.505-.034.148-.133 1.223-.22 2.39-.253 3.39-.467 4.846-.908 6.2-.308.943-.44 1.777-.515 3.276l-.102 2.011.501.502c.303.303.67.502.927.502.748 0 2.422-.875 2.917-1.525.54-.71 1.255-2.264 1.255-2.73 0-.583.462-1.454.87-1.64.334-.152.516-.113 1.125.244.833.488 2.077.574 2.948.202.518-.22 2.076-1.645 2.076-1.897 0-.41 1.463-.193 1.475.22.007.248.623.68 1.158.812.678.167.898.895.571 1.894-.145.444-.267.904-.27 1.022-.003.118-.147.508-.32.868-.426.88-.414 1.472.036 1.787.452.316 1.112.324 1.839.02.701-.293 2.515-2.004 2.636-2.488.095-.38 2.249-2.435 2.927-2.794.217-.114.832-.224 1.368-.245 1.056-.04 1.375.169 1.569 1.026.247 1.092.669 1.326 1.397.775.304-.23 1.153-.719 1.885-1.087 1.142-.573 1.48-.668 2.372-.668 1.183 0 1.628.227 2.002 1.026.43.918.513 1.757.332 3.37-.2 1.77-.496 2.543-.98 2.543-.307 0-.324-.117-.333-2.286-.013-2.86-.071-3.104-.805-3.346-1.683-.556-5.241 1.816-6.366 4.244-.62 1.338-.659 1.388-1.082 1.388-.53 0-.613-.757-.178-1.633.631-1.274.904-3.39.49-3.804-.517-.517-2.293-.006-2.684.77-.103.204-.438.64-.745.968-.307.328-.757.909-1 1.29-.243.382-.557.695-.698.695-.14 0-.5.252-.8.56-.968.997-2.182 1.37-3.437 1.054-.545-.138-.755-.303-1.05-.827-.408-.726-.383-1.39.085-2.303.148-.289.31-.987.359-1.552.079-.915.048-1.07-.29-1.429-.454-.484-1.028-.516-1.492-.083-.445.415-2.18 1.255-2.91 1.41-.315.067-1.048.127-1.63.135l-1.06.014-.773 1.388c-1.692 3.033-3.81 4.344-5.875 3.639zm11.45 3.983a32.666 32.666 0 01-2.16-1.54c-.6-.471-1.163-.857-1.253-.857-.197 0-.385-.672-.305-1.09.103-.54.7-.434 1.459.26.394.362.802.66.905.662.104.002.5.265.88.583.381.317 1.122.813 1.647 1.102 1.026.563 1.263 1.085.642 1.416-.478.256-.656.203-1.816-.536z" stroke-width=".163"/></svg>