<svg xmlns="http://www.w3.org/2000/svg" height="30.321" width="20.035"><path d="M15.727 16.733c.794-.422.98-.597.98-.925 0-.287-.122-.447-.422-.552-.355-.125-.579-.046-1.388.49-1.253.827-1.381 1.442-.313 1.498.09.005.604-.225 1.143-.512zm-1.458 13.35c-.333-.333-.337-.308.236-1.324.271-.48.605-1.202.741-1.604a8.959 8.959 0 01.73-1.508c.264-.427.595-1.291.734-1.92a44.91 44.91 0 01.83-3.264c.13-.45.254-1.294.273-1.878l.036-1.061-.49.023c-.269.012-1.038.147-1.71.3-1.433.326-2.226.179-2.77-.512-.45-.572-.423-1.036.113-1.912.508-.829.822-1.021 2.327-1.423.931-.25 1.12-.256 1.535-.054.58.282 1.433.3 1.697.035.124-.124.196-.743.196-1.68 0-1.38-.031-1.52-.449-2.02-.403-.481-.541-.538-1.347-.554-.92-.017-2.49.222-4.082.624-1.295.326-3.067.608-3.934.627-.858.018-1.29.298-1.29.838 0 .47-.552 1.771-.982 2.318-.179.227-.325.582-.325.787 0 .226-.198.524-.503.754-.276.208-.758.61-1.069.893-.808.734-1.383.933-2.298.796-.916-.137-1.644-.81-2.174-2.01-.298-.675-.33-1-.266-2.646.04-1.033.154-2.3.253-2.816.1-.516.254-1.361.343-1.878.192-1.107.5-6.423.384-6.611-.16-.26.297-1.253.625-1.357.657-.209.862.269.831 1.928-.026 1.38-.51 5.732-.859 7.714-.604 3.437-.492 4.915.454 6 .319.365 1.323.375 1.94.02.868-.5 2.194-2.83 2.306-4.05.042-.455.13-.9.196-.99.066-.09.168-.365.226-.61.133-.555.71-.73 1.564-.473.98.293 2.15.217 3.621-.237a18.084 18.084 0 015.248-.786c1.488.01 1.922.246 2.535 1.384.343.637.38.875.31 2.028-.048.81-.216 1.648-.441 2.204-.284.702-.373 1.29-.407 2.694-.048 1.931-.477 5.15-.756 5.672-.095.176-.354.947-.575 1.712-.484 1.667-1.24 3.316-1.843 4.021a4.51 4.51 0 00-.661 1.085c-.392 1.017-.609 1.166-1.052.723z" stroke-width=".163"/></svg>