<svg xmlns="http://www.w3.org/2000/svg" height="33.135" width="32.687"><path d="M11.15 4.552c-.284-.531.276-1.365.962-1.431 1.028-.1 1.31.592.543 1.328-.555.532-1.25.58-1.506.104zM29.81 11.8c1.578-1.792 1.805-2.542.8-2.639-.297-.029-.65.038-.783.15-.511.423-1.202 2.532-.96 2.925.175.282.404.176.943-.436zm-12.25 4.362c.506-.456.519-.495.25-.767-.266-.27-.315-.27-.857-.012-.416.199-.574.38-.574.658 0 .756.426.8 1.18.121zm-2.365 15.05c.205-.245.484-.648.62-.895.135-.247.31-.449.389-.449.211 0 .531-.936.669-1.959.187-1.39.604-3.46.799-3.97.467-1.217-.137-1.76-.787-.709-.186.3-.563.83-.838 1.176-.276.347-.874 1.368-1.33 2.271-.455.903-.929 1.785-1.052 1.963-.292.419-.308 2.712-.021 3.003.305.31 1.12.084 1.55-.43zm-3.057.261c-.265-2.057 1.102-4.344 2.117-5.85.333-.494.735-1.173.893-1.51.158-.337.545-.887.86-1.224.314-.337.668-.833.786-1.102.118-.269.587-.854 1.043-1.3l.828-.81v-1.19c0-1.152-.013-1.19-.398-1.19-.218 0-.604.079-.857.175-.975.372-1.901.459-2.363.22-.646-.334-.68-.474-.313-1.304.87-1.965 3.008-3.272 3.954-2.416.264.238.334.24.667.023.583-.383 1.106-1.59 1.106-2.554 0-.773-.044-.87-.53-1.174-.404-.253-.688-.31-1.185-.235-.359.054-1.094.157-1.633.229-.539.072-1.824.373-2.857.67-1.944.558-3.189.656-5.224.411l-.898-.108-.399.869c-.22.478-.6 1.13-.846 1.449-.245.32-.57.87-.72 1.224-.152.36-.696 1.02-1.233 1.5-.861.768-1.04.858-1.704.858-.995 0-1.914-.497-2.491-1.346-.785-1.153-.874-1.603-.602-3.035.25-1.316.492-3.011.726-5.088.076-.674.25-1.74.387-2.367a55.24 55.24 0 00.436-2.286c.23-1.394.636-2.734.879-2.895.331-.22.594-.129.776.273.178.39.114.842-.52 3.645a8.173 8.173 0 00-.158 1.49c0 .436-.113 1.065-.251 1.396-.254.606-.85 4.209-1.007 6.077-.071.847-.025 1.113.293 1.678.59 1.052 1.662 1.44 2.375.863.931-.755 2.589-3.694 2.915-5.17.134-.61.69-1.398.986-1.398.125 0 .396.179.601.398.99 1.053 3.12 1.174 6.188.353 1.132-.303 2.834-.646 3.781-.762 1.991-.243 2.305-.14 2.81.923.55 1.16.252 2.595-1.074 5.167-.186.363-.192 3.227-.006 3.227.326 0 2.471-1.228 3.443-1.97.58-.443 1.174-.805 1.323-.805.149 0 .72-.41 1.27-.912 1.077-.98 1.332-1.528 1.334-2.859.002-.795.73-2.495 1.266-2.955.975-.835 2.594-.935 3.377-.208.593.549.53 1.07-.233 1.953-.359.414-.738.913-.842 1.109-.105.195-.27.436-.369.534-.098.099-.416.45-.707.782-.29.332-.706.67-.923.753-.805.306-.695 1.692.168 2.125.748.376 1.04.68 1.04 1.09 0 .392-.152.452-.98.388-.624-.048-1.796-.788-1.796-1.134 0-.902-1.04-.755-2.694.38-.54.37-1.262.815-1.606.99-.345.174-.755.48-.911.678-.157.199-.746.603-1.311.9-.72.377-1.091.685-1.243 1.033-.43.985-1.117 3.455-1.23 4.414-.336 2.9-.94 5.306-1.33 5.306-.068 0-.124.074-.124.164 0 .364-.95 1.627-1.761 2.342-.707.623-.976.76-1.49.76-.359 0-.597-.075-.831-.245-.464-.336-.902-.847-.976-1.416z" stroke-width=".163"/></svg>