<svg xmlns="http://www.w3.org/2000/svg" height="15.339" width="10.845"><path d="M10.792 9.31c-.187.355-.402.323-1.181.226-1.265-.158-1.815.102-2.048.966-.1.371-.321 1.033-.491 1.472-.17.439-.312.88-.316.98-.01.26-1.31 1.654-1.757 1.886-.89.46-1.731.601-2.563.427-1.03-.216-1.145-.293-1.665-1.124-.234-.374-.502-.73-.595-.79-.276-.18-.214-3.803.091-5.278.149-.719.395-2.63.548-4.245C1.145.342 1.398-.348 2.17.14c.267.169.273.848.028 3.527-.172 1.886-.303 2.868-.682 5.136-.098.58-.147 1.746-.11 2.592l.068 1.538.622.57c.573.525.686.564 1.425.493.888-.085 1.332-.41 2.116-1.541.352-.509.517-1.008.649-1.96.097-.701.29-1.401.427-1.555.53-.59 2.515-1.285 3.6-.72.352.184.663.74.478 1.091z" stroke-width=".163"/></svg>