<svg xmlns="http://www.w3.org/2000/svg" height="19.908" width="27.002"><path d="M1.915 15.871c0-.07-.239-.267-.53-.436a4.746 4.746 0 01-.885-.682c-.722-.763-.656-3.63.16-6.917.751-3.024.95-4.111 1.019-5.564C1.784.078 2.127-.458 2.9.367c.277.295.33.512.268 1.102-.137 1.32-.618 3.982-.87 4.816-.487 1.61-1.082 5.962-.938 6.857.14.877.88 1.55 1.705 1.55.507 0 .755-.145 1.593-.938 1.028-.972 1.084-1.071 1.829-3.2.246-.703.585-1.456.754-1.671.285-.365.357-.38 1.041-.219a4.796 4.796 0 001.469.071c1.734-.24 4.036-1.55 4.838-2.752.249-.373.69-.977.979-1.344.456-.577.547-.858.689-2.122.23-2.058.38-2.388 1.045-2.324.53.051.53.052.516.95a12.191 12.191 0 01-.217 1.877 24.733 24.733 0 00-.282 1.633c-.044.36-.332 1.428-.64 2.375-.308.947-.56 1.85-.56 2.006 0 .157-.147.573-.327.925-.18.352-.472 1.266-.65 2.031-.394 1.684-.271 2.15.61 2.314 1.474.277 3.162-.998 4.98-3.762l.646-.98c.063-.096.303-.588.533-1.093.387-.854 1.11-1.775 1.395-1.775.067 0 .375.28.684.622.357.395.886.74 1.446.94.652.235.948.446 1.129.807.334.666.277 1.956-.14 3.16-.443 1.28-.436 1.558.05 2.016.45.423.657 1.082.441 1.412-.204.312-1.735-.4-1.97-.918-.216-.472-.228-1.878-.02-2.088.207-.207.406-2.222.272-2.754-.06-.239-.222-.422-.373-.422-.147 0-.516-.19-.821-.422-.305-.233-.652-.385-.772-.34-.302.117-1.725 2.267-1.725 2.608 0 .152-.1.277-.224.277-.122 0-.426.312-.675.694-.397.61-1.842 2.118-2.579 2.692-.322.25-2.328.45-3.092.306-.42-.078-.642-.247-.861-.655-.265-.491-.274-.649-.09-1.507.115-.527.267-1.289.34-1.693.147-.82.76-2.867.99-3.304.083-.155.15-.51.15-.786 0-.446-.042-.49-.368-.39-.202.062-.587.346-.857.631-.692.734-3.416 2.031-4.682 2.23-.567.09-1.16.202-1.319.25-.259.078-.937 1.218-.937 1.576 0 .497-2.163 3.549-2.515 3.549-.065 0-.36.183-.654.408-.41.313-.73.408-1.377.408-.463 0-.841-.058-.841-.128zm10.2 3.547c-.27-.264-.535-.48-.591-.48-.056 0-.55-.35-1.096-.776a56.201 56.201 0 00-1.411-1.071 3.197 3.197 0 01-.691-.714c-.26-.396-.258-.43.033-.643.428-.313.579-.284 1.177.226 1.182 1.01 1.83 1.508 1.96 1.508.25 0 1.761 1.337 1.887 1.671.145.384-.12.782-.512.769-.146-.005-.486-.226-.756-.49z" stroke-width=".163"/></svg>