<svg xmlns="http://www.w3.org/2000/svg" height="16.612" width="14.531"><path d="M12.184 15.967c-.522-.578-.59-.754-.587-1.51.002-.471.111-1.371.244-2 .134-.628.242-1.317.242-1.531 0-.386-.011-.388-1.184-.27-1.662.166-2.082.17-2.744.026l-.58-.126-.638 1.44c-.35.793-.768 1.538-.929 1.655-.16.117-.292.305-.292.417 0 .221-.994 1.247-1.209 1.247-.072 0-.35.183-.617.408-.64.539-1.447.518-2.5-.065-1.457-.806-1.634-1.655-1.146-5.486.149-1.167.333-2.637.41-3.265C.958 4.417 1.666.725 1.911.35c.143-.218.378-.374.522-.347.423.08.405 1.237-.055 3.506-.23 1.134-.419 2.473-.42 2.975-.002.502-.115 1.28-.253 1.73-.139.448-.361 1.734-.495 2.856-.218 1.84-.217 2.107.014 2.712.303.794 1.227 1.324 1.979 1.135.554-.139 2.333-1.986 2.448-2.54.046-.225.142-.52.212-.654.07-.135.223-.649.338-1.143.352-1.511.594-1.639 2.045-1.082.687.264 2.617.358 2.756.134.044-.072.457-.233.918-.359.46-.125.873-.286.918-.358.13-.212.555-.15.824.118.266.266.213.72-.188 1.628-.368.835-.575 1.973-.575 3.165 0 1.245.058 1.333.974 1.481.79.128.89.696.187 1.06-.798.412-1.225.321-1.877-.4z" stroke-width=".163"/></svg>