<svg xmlns="http://www.w3.org/2000/svg" height="16.286" width="11.734"><path d="M2.02 16.186C1.613 16.088.87 15.4.466 14.75.12 14.187-.155 12.548.1 12.548c.09 0 .213-.533.273-1.184.06-.651.183-1.588.272-2.082.185-1.034.49-4.32.543-5.878.037-1.072.339-2.61.62-3.153a.483.483 0 01.509-.245c.413.058.42.222.12 2.826-.167 1.452-.362 3.734-.572 6.694-.165 2.333-.263 3.188-.408 3.569-.116.304-.077.566.157 1.05.256.529.433.674.992.816.77.196 1.243.071 2.046-.541.505-.385 1.532-2.25 1.532-2.78 0-.526.555-1.831.86-2.021.235-.147.444-.146.897.003.39.128 1.136.161 2.192.097l1.602-.098v.466c0 .607-.219.684-2.204.785-.898.045-1.72.152-1.826.237-.107.084-.35.645-.543 1.245-.433 1.355-.779 1.907-1.97 3.15-.626.654-2.03.955-3.17.681z" stroke-width=".163"/></svg>