<svg xmlns="http://www.w3.org/2000/svg" height="19.89" width="48.642"><path d="M10.333 9.314c-.15-.244.09-.71.735-1.42.406-.448.646-.899.724-1.36.103-.612.066-.745-.322-1.15-.523-.546-.515-1.2.017-1.277.47-.067 1.329.817 1.457 1.5.11.584-.162 1.825-.47 2.144-.104.11-.483.54-.84.955-.616.716-1.096.94-1.3.608zm6.977 1.184c.513-.777.933-1.54.933-1.695 0-.284.702-2.317.957-2.77.41-.727.696-2.529.587-3.69l-.113-1.207h-.543c-.298 0-.587.073-.642.162-.144.232-.573 1.926-.573 2.26 0 .157-.15.576-.332.931a7.455 7.455 0 00-.508 1.381 23.25 23.25 0 01-.403 1.434 5.26 5.26 0 00-.226 1.337c0 .35-.064.678-.143.727-.08.049-.18.512-.223 1.03-.043.518-.133 1.07-.2 1.227-.092.214-.045.286.187.286.208 0 .615-.463 1.242-1.413zM4.8 19.792a3.684 3.684 0 01-1.189-.38c-.309-.174-.697-.316-.863-.316-.392 0-1.847-.804-2.05-1.133C.3 17.32-.067 15.886.01 15.265c.1-.825.468-2.205.683-2.562.36-.6 1.732-1.95 2.31-2.275.483-.27.814-.331 1.52-.278 1.522.116 3.035 1.47 2.44 2.185-.308.372-.58.27-1.13-.423-.491-.621-.561-.654-1.42-.654-1.063 0-2.005.455-2.311 1.115-.111.24-.361.73-.556 1.09-.217.402-.378 1.044-.42 1.675-.056.874-.01 1.106.32 1.588.547.798 1.702 1.37 3.724 1.844.341.08 1.103.046 1.945-.087 1.106-.175 1.797-.423 3.439-1.232 1.71-.843 2.11-1.11 2.38-1.594.18-.32.494-.834.699-1.143.204-.31.452-.875.55-1.258.099-.383.244-.737.323-.785.079-.049.145-.286.148-.528.003-.242.216-1.174.475-2.072 1.087-3.775 1.45-5.115 1.642-6.041.43-2.093.782-2.91 1.46-3.388.856-.606 1.497-.59 2.038.053.518.616.652 1.108.52 1.906-.056.337-.16 1.236-.233 2-.073.764-.209 1.535-.303 1.714-.556 1.065-1.03 2.195-1.03 2.456 0 .348-.945 2.305-1.307 2.705-.134.15-.428.59-.653.98-.224.39-.904 1.24-1.51 1.888-.864.925-1.102 1.287-1.102 1.68 0 .276-.086.64-.192.808-.152.244-.132.463.095 1.06l.288.75h1.044c.735 0 1.194-.09 1.55-.307 1.119-.68 2.793-3.138 3.155-4.631.066-.273.22-.45.39-.453 3.812-.045 4.74-.203 6.825-1.16.365-.168.754-.306.865-.306.504 0 1.14.531 1.504 1.255.218.433.414.817.437.855.062.104.827-.318 1.958-1.08 2.019-1.361 3.425-1.083 3.986.79.147.491.142.771-.021 1.268-.116.35-.22 1.153-.23 1.782-.018 1.002.03 1.197.376 1.566.337.36.536.422 1.34.422 1.192 0 2.599-.514 3.408-1.244.336-.304.683-.552.772-.552.18 0 2.003-2.32 2.003-2.549 0-.08.184-.358.408-.62.225-.26.408-.533.408-.606 0-.072.404-.979.898-2.014.494-1.035.898-2.086.898-2.335 0-.249.147-.854.327-1.346.18-.491.326-1.128.326-1.416 0-1.058.576-1.829 1.027-1.377.253.254.159 2.21-.141 2.93-.128.306-.233.723-.233.927 0 .427-.558 2.301-.972 3.263-.375.873-.662 1.684-.82 2.316-.07.287-.355 1.064-.632 1.73-.446 1.071-.483 1.28-.33 1.846.096.351.283.761.416.91.306.345.223.947-.162 1.18-.455.277-1.287-.831-1.51-2.008-.153-.811-.213-.909-.543-.872-.204.023-.641.334-.97.693-.865.94-3.14 2.128-4.29 2.239-1.173.113-1.85-.12-2.734-.942-.66-.614-.704-.707-.636-1.345.04-.377.202-1.167.358-1.755.23-.865.25-1.196.104-1.737-.158-.587-.245-.676-.71-.727-1.003-.111-1.431.033-2.047.687-.332.353-.698.642-.813.642-.115 0-.248.103-.297.229-.048.126-.23.266-.403.311-.173.045-.315.203-.315.35 0 .373-.41 1.13-.897 1.656-.225.242-.409.572-.409.734 0 .16-.068.335-.15.386-.084.05-.2.317-.26.591-.19.86-1.387 1.1-1.385.279 0-.205.153-.622.338-.927.68-1.114 1.281-3.642 1.068-4.488-.152-.609-.566-.644-2.416-.204-.927.22-2.367.491-3.199.602-1.347.18-1.569.258-2.01.709-.274.278-.538.704-.587.945-.048.242-.392.76-.764 1.153a33.009 33.009 0 00-1.247 1.408c-.908 1.103-1.698 1.49-3.038 1.49-1.023 0-1.19-.048-1.742-.502-.338-.279-.763-.86-.955-1.306-.19-.442-.376-.804-.414-.804-.095 0-1.035.674-1.433 1.027-.181.16-.515.336-.74.388-.227.053-.948.346-1.603.653-1.165.544-2.509.899-3.199.844-.19-.015-.627-.057-.971-.092z" stroke-width=".163"/></svg>