<svg xmlns="http://www.w3.org/2000/svg" height="15.909" width="22.148"><path d="M11.555 6.042c-.171-.206-.148-.312.132-.612.486-.518 1.341-2.309 1.341-2.806 0-.433-.749-1.72-1-1.72-.281 0-.135-.646.184-.816.39-.208.717-.06 1.327.598.569.613.796 1.079.796 1.63 0 .55-.437 1.774-.846 2.369-.163.238-.297.491-.297.562 0 .248-.88 1.045-1.153 1.045-.152 0-.37-.112-.483-.25zm-8.404 9.766c-.609-.147-1.958-.628-2.204-.787-.345-.222-.81-1.289-.923-2.12-.155-1.125.464-2.933 1.304-3.812.977-1.023 2.373-1.654 3.66-1.654.56 0 1.02.055 1.022.123.002.145.791.53 1.089.53.115 0 .258.195.318.434.08.32.03.491-.193.654-.338.247-.763.158-1.405-.293-.554-.39-1.227-.387-2.157.012-1.544.662-2.278 1.782-2.296 3.503l-.011 1.126.803.497c1.704 1.053 3.966 1.045 5.512-.02.42-.289.874-.525 1.008-.525s.451-.17.705-.378c.565-.463 1.994-1.418 2.122-1.418.051 0 .334-.202.63-.45 1.153-.965 1.48-1.191 1.873-1.292.225-.058.667-.37.984-.692.966-.982 2.693-1.728 4.007-1.728.81 0 1.116.082 1.673.45.53.351.682.554.682.907 0 .833-.68 1.122-1.224.52-.503-.556-2.898-.37-3.493.272-.499.539-1.323 2.224-1.323 2.706 0 .556.261 1.103.526 1.103.103 0 .344.147.535.326.288.27.642.339 2.114.406 1.579.072 1.832.045 2.375-.26.774-.435 1.21-.361 1.278.216.072.624-.423.98-1.728 1.245-1.933.393-4.068.168-5.15-.54-.537-.352-1.092-1.678-1.092-2.607 0-.711-.022-.745-.468-.745-.478 0-1.332.558-2.235 1.46-.274.275-.59.5-.7.5-.112 0-.586.287-1.054.64-.467.352-1.399.903-2.07 1.224-1.137.544-1.32.582-2.694.565-.81-.01-1.62-.055-1.8-.098z" stroke-width=".163"/></svg>