<svg xmlns="http://www.w3.org/2000/svg" height="19.368" width="57.054"><path d="M9.762 6.904c-.094-.375-.012-.528.552-1.03 1.211-1.073 1.544-2.65.759-3.582-.347-.412-.388-.55-.225-.747.11-.133.4-.242.642-.242.932 0 1.681 1.519 1.245 2.525a13.53 13.53 0 00-.424 1.187c-.116.38-.346.814-.511.964-.166.15-.302.353-.303.451-.002.236-1.005.914-1.353.914-.16 0-.318-.182-.383-.44zm7.043 2.229c.449-.542.89-1.15.98-1.35.089-.2.291-.544.448-.764.157-.22.286-.558.286-.75 0-.193.156-.548.346-.79.19-.241.405-.674.478-.96.073-.287.252-.845.397-1.241.146-.396.243-1.02.216-1.388-.047-.642-.071-.668-.607-.668-.428 0-.62.1-.817.427l-.941 1.56c-.376.624-.733 1.35-.793 1.615-.095.41-.512 1.903-1.048 3.745-.079.27-.191.728-.25 1.02-.176.862.37.67 1.305-.457zm-13.71 10.19c-.18-.049-.584-.29-.898-.537a8.23 8.23 0 00-.914-.631c-.188-.1-.475-.535-.638-.966-.163-.43-.372-.833-.465-.894-.331-.217-.184-1.653.266-2.583 1.356-2.805 4.564-4.269 5.83-2.66.68.864.206 1.667-.606 1.028-.44-.346-1.243-.423-1.87-.18-.209.08-.82.548-1.359 1.04l-.98.894v1.04c0 .978.044 1.1.713 1.98.563.74.854.976 1.388 1.12 1.115.304 3.703-.048 4.229-.573.12-.12.434-.331.7-.47.264-.139.629-.387.809-.552.18-.165.851-.723 1.49-1.24 1.844-1.492 2.533-2.358 2.975-3.737.212-.66.522-1.604.69-2.098.169-.494.376-1.339.462-1.878.195-1.23.652-2.633 1.304-4 .278-.584.506-1.153.506-1.265 0-.112.059-.204.13-.204.073 0 .294-.335.493-.744.807-1.66 3.134-1.603 3.64.09.179.593.152.838-.235 2.21-.24.85-.436 1.648-.436 1.774 0 .126-.296.622-.657 1.103-.36.48-.8 1.256-.974 1.723-.38 1.013-.477 1.142-2.386 3.144-.817.857-1.53 1.705-1.583 1.885-.29.976-.436 2.356-.286 2.714.399.959.723 1.132 2.737 1.454 1.238.198 1.443.188 2.694-.129.744-.189 1.575-.435 1.844-.547.269-.112.857-.291 1.306-.399 1.098-.263 2.36-.747 2.853-1.095.222-.156.501-.284.62-.284.12 0 .857-.183 1.638-.406 4.295-1.227 6.099-1.702 7.053-1.856a39.884 39.884 0 002.204-.437c1.486-.346 3.3-.378 3.837-.068.224.13.752.475 1.174.768.72.5.79.617 1.184 1.959.23.785.473 1.607.54 1.827.068.22.364.54.657.711.704.411 1.486.264 2.268-.425 1.014-.893 1.85-1.754 1.85-1.905 0-.08.092-.242.205-.36.195-.205 1.32-1.976 1.686-2.655.314-.581.627-.66 1.738-.44a7.119 7.119 0 002.047.094c.974-.11 1.011-.1 1.2.315.15.327.15.576.006 1.06-.104.347-.19 1.237-.19 1.978v1.346l.736.724c.404.398.734.782.734.852 0 .07-.184.227-.409.348-.357.19-.487.178-1.019-.102-.335-.177-.775-.568-.978-.869-.33-.488-.37-.748-.37-2.381 0-1.379-.057-1.881-.23-2.024-.14-.116-.661-.172-1.336-.142l-1.106.048-.5.835c-.926 1.544-3.384 4.267-3.988 4.419a4.583 4.583 0 00-.829.321c-1.413.738-3.6-.426-3.604-1.917 0-.305-.1-.74-.22-.964l-.582-1.093c-.296-.558-.504-.73-1.127-.933-1.532-.5-4.121-.267-7.131.64-.718.217-1.82.505-2.449.64-1.233.266-4.126 1.173-4.402 1.38-.093.07-.61.226-1.149.346-.539.12-1.641.522-2.449.893-1.908.876-3.409 1.231-5.191 1.23-2.931-.003-4.726-.885-4.982-2.45-.153-.932-.569-1.043-1.249-.333-.261.273-.573.497-.691.497-.12 0-.454.229-.745.51-.853.82-1.435 1.22-2.687 1.847-1.041.52-1.355.598-2.694.66-.834.038-1.662.03-1.842-.019z" stroke-width=".163"/></svg>