<svg xmlns="http://www.w3.org/2000/svg" height="22.926" width="22.02"><path d="M11.392 7.974c-.385-.224-.36-.423.108-.857.217-.201.695-.765 1.061-1.253.775-1.031.862-1.716.315-2.485-.393-.552-.273-.987.297-1.072.74-.112 1.21 1.332.965 2.965-.093.623-.28.917-1.143 1.812-1.084 1.122-1.147 1.157-1.604.89zm5.579 2.366c.276-.232.502-.512.502-.622 0-.11.149-.36.33-.554.4-.43 1.464-2.468 1.466-2.81 0-.134.164-.501.362-.815.739-1.174 1.132-2.938.794-3.57-.286-.533-.902-.446-1.392.197-.23.3-.417.666-.417.813 0 .147-.21.654-.466 1.128a5.867 5.867 0 00-.586 1.84c-.066.539-.25 1.2-.41 1.469-.159.27-.418.894-.576 1.388-.158.494-.352 1.026-.43 1.18-.416.821.038 1.017.823.356zm-13.28 9.29C2.109 19.373.002 16.983 0 15.442c-.002-1.032.524-2.788.984-3.293.246-.27.528-.648.626-.84.211-.412 2.46-1.69 2.971-1.69.578 0 2.328.948 2.753 1.49.302.386.356.57.228.773-.284.45-.663.395-1.458-.212-.65-.497-.889-.582-1.62-.582-.812 0-.901.044-1.748.864-.491.475-.977 1.022-1.08 1.214-.102.192-.186 1.01-.186 1.817 0 1.314.041 1.517.395 1.937.217.258.786.686 1.265.951.825.458.961.481 2.644.457 1.056-.015 2.046-.12 2.449-.26.371-.13.97-.331 1.329-.448.751-.243.956-.391 2.63-1.907 1.283-1.16 1.695-1.737 1.697-2.372 0-.206.099-.564.22-.794.12-.23.272-.635.337-.898.066-.263.371-1.052.679-1.752.307-.7.559-1.42.559-1.598 0-.179.135-.598.3-.931.165-.333.466-1.157.668-1.83a34.37 34.37 0 01.585-1.796c.12-.314.259-.76.307-.989.095-.445.708-1.407 1.452-2.275.421-.49.514-.525 1.208-.447.496.056.814.189.933.388.648 1.096.745 2.389.257 3.464-.178.391-.323.849-.323 1.016 0 .167-.141.619-.314 1.003-.173.384-.473 1.06-.667 1.502a9.077 9.077 0 01-.91 1.534c-.307.401-.558.816-.558.92 0 .105-.21.407-.466.67-.656.677-2.13 2.457-2.759 3.333-.494.688-.53.83-.53 2.066 0 .98.087 1.523.333 2.08.259.584.294.827.158 1.082-.412.769-1.306.158-1.628-1.112-.107-.42-.251-.875-.32-1.01-.208-.4-.768-.376-1.18.05-.468.48-1.843 1.368-3.159 2.039-.891.454-1.156.505-2.939.574-1.078.042-2.172.042-2.432 0zm9.534 3.248c-.823-.054-1.221-.398-.981-.846.128-.239.565-.297 3.055-.405 4.005-.174 6.4-.199 6.61-.07.268.166.014.926-.38 1.137-.322.172-6.428.308-8.304.185z" stroke-width=".163"/></svg>