<svg xmlns="http://www.w3.org/2000/svg" height="19.315" width="37.512"><path d="M9.322 7.25c-.17-.442-.123-.526.799-1.448.494-.494.898-1.042.898-1.218 0-.177.082-.371.182-.433.118-.073.144-.377.073-.867-.199-1.378-.196-1.404.185-1.458.551-.079 1.262 1.074 1.107 1.796-.264 1.23-1.623 3.175-2.558 3.659-.553.285-.566.285-.687-.03zm5.9 1.968c.196-.138.877-1.123 1.512-2.19.915-1.534 1.19-2.15 1.32-2.957.09-.561.242-1.164.336-1.341.131-.245.1-.473-.13-.953-.258-.539-.379-.632-.828-.633-.429-.002-.579.097-.806.529-.154.291-.333.962-.397 1.49-.065.529-.196 1.01-.29 1.068-.096.058-.286.581-.422 1.162-.137.58-.396 1.533-.576 2.116-.337 1.092-.427 1.959-.203 1.959.07 0 .288-.113.484-.25zm2.814 9.998c-1.544-.274-3.38-.82-4.242-1.264-.788-.406-.965-.594-1.444-1.534-.589-1.157-1.028-1.386-1.349-.706-.196.417-2.36 2.087-3.629 2.802-.735.414-1.003.474-2.068.46-1.448-.017-3.233-.502-4-1.087-1.252-.955-1.698-3.326-.915-4.86.448-.875 1.68-1.955 2.874-2.518.85-.4 2.07-.513 2.415-.222.109.091.455.333.769.537.752.489.772.992.042 1.062-.294.028-.69-.062-.893-.204-.583-.408-1.771-.327-2.514.17-1.447.969-1.931 1.757-1.786 2.912.134 1.075.547 1.754 1.418 2.33.606.401.869.462 2.213.512 1.592.06 1.49.086 3.267-.856.287-.152 1.305-1.065 2.26-2.028 1.806-1.817 2.003-2.14 2.463-4.03.13-.538.376-1.346.545-1.795.436-1.158.986-3.196.985-3.648 0-.21.1-.578.224-.816.123-.239.34-.838.483-1.331.142-.494.342-1.175.443-1.514.101-.34.368-.835.593-1.102.336-.4.532-.486 1.107-.486.45 0 .845.116 1.113.326.228.18.49.327.58.327.09 0 .33.266.53.592l.367.592L19.589 3c-.164.64-.345 1.2-.402 1.245-.142.112-.659 1.236-.659 1.433 0 .447-.884 1.993-1.467 2.567-.37.365-.735.917-.825 1.25-.088.329-.49.964-.893 1.412-.403.448-.733.865-.733.927 0 .061-.247.418-.55.792-.74.917-.92 1.296-.915 1.935.005.785.546 1.875 1.002 2.016.21.065.566.247.79.403.492.342 1.967.793 3.474 1.06 1.435.257 6.29.05 7.791-.33.584-.149 1.43-.33 1.878-.405a10.475 10.475 0 001.531-.394c.393-.142.826-.258.962-.258.135 0 1.063-.395 2.06-.878 4.183-2.023 4.394-2.11 4.66-1.937.201.13.305.87.131.93-.02.007-.882.436-1.915.952-1.033.517-1.979.938-2.103.936-.124-.002-.601.21-1.061.47-1.838 1.044-5.747 1.896-9.489 2.07-3.264.153-4.056.157-4.82.021z" stroke-width=".163"/></svg>