<svg xmlns="http://www.w3.org/2000/svg" height="19.537" width="40.351"><path d="M10.113 7.56c-.36-.146-.22-.635.327-1.139 1.043-.962 1.918-2.062 1.913-2.405-.003-.191-.114-.491-.245-.665-.337-.445-.299-.865.098-1.077.283-.152.4-.113.727.24.541.583.652 1.344.317 2.181-.151.378-.34.686-.42.686-.08 0-.146.108-.146.24 0 .373-.92 1.33-1.642 1.706-.36.187-.67.335-.69.327l-.239-.095zm7.775 1.862c.54-.74 1.132-1.542 1.317-1.78.185-.24.493-.845.685-1.348.192-.502.406-.913.474-.913.333 0 1.093-3.374.822-3.645-.393-.393-1.048.108-1.677 1.28-.877 1.637-1.6 3.18-1.6 3.416 0 .112-.33.931-.732 1.822-.702 1.552-.864 2.172-.629 2.407.224.223.382.077 1.34-1.238zm-14.74 9.672c-.618-.261-1.228-.625-1.356-.808-.128-.183-.32-.333-.428-.333-.249 0-1.043-.99-1.268-1.581-.217-.57-.052-1.824.346-2.624.344-.691 1.66-2.162 1.934-2.162.1 0 .181-.067.181-.148 0-.257 1.491-.668 2.423-.668 1.233 0 2.312.613 2.312 1.313 0 .418-.06.483-.449.482-.247 0-.67-.147-.939-.326-.58-.384-1.413-.42-2.016-.087a10.4 10.4 0 01-1.006.465c-.717.283-1.468 1.645-1.468 2.667 0 .58.109.788.776 1.493.97 1.026 1.688 1.256 3.878 1.243 2.273-.013 3.26-.261 4.51-1.133.573-.398 1.188-.791 1.367-.873.18-.081.7-.554 1.157-1.05.654-.71.91-1.157 1.202-2.099.204-.658.547-1.552.761-1.986.215-.433.39-.875.39-.982 0-.106.147-.467.327-.802.18-.335.326-.815.326-1.067s.066-.527.146-.613c.081-.085.315-.559.522-1.053.206-.494.544-1.172.751-1.507.207-.335.377-.754.377-.933 0-.36.626-1.545 1.332-2.52.255-.352.464-.712.464-.801 0-.33.595-.596 1.349-.6.702-.006.81.046 1.113.525.282.447.322.714.256 1.699-.044.642-.19 1.34-.325 1.55-.135.211-.37.824-.52 1.363-.15.539-.473 1.237-.717 1.55a9.06 9.06 0 00-.817 1.353c-.367.764-.526.987-1.605 2.236-.292.338-.53.665-.53.726 0 .158-1.019 1.453-1.267 1.612-.113.072-.35.417-.528.765-.178.348-.459.73-.624.848-.697.498-.932 2.567-.37 3.258.271.335.44.382 1.296.358.837-.024 1.157-.131 2.14-.714.635-.378 1.193-.749 1.24-.825.047-.076.395-.285.773-.464.378-.18.87-.466 1.095-.636.224-.171 1.033-.697 1.796-1.17.763-.471 1.46-.94 1.55-1.041.09-.102.475-.386.854-.633.38-.246.806-.626.949-.843.142-.217.533-.505.87-.64.336-.134 1.09-.673 1.673-1.197 2.48-2.223 4.092-3.466 4.512-3.478a.218.218 0 00.204-.22c0-.119.276-.374.613-.569.336-.194.939-.685 1.339-1.09.4-.407.781-.739.85-.739.067 0 .445-.312.84-.694 1.888-1.829 2.164-1.99 2.562-1.51.252.303-.099.904-.954 1.632-.317.27-.874.781-1.24 1.137-.364.356-.957.797-1.317.98-.36.183-1.05.718-1.531 1.19-.483.471-.974.857-1.093.857s-.275.095-.347.21c-.187.302-1.756 1.586-1.937 1.586-.084 0-.344.24-.577.533-.234.293-.826.735-1.316.983-.49.248-1.251.817-1.691 1.263-.44.447-.89.813-1 .813-.11 0-.663.404-1.23.898-.566.494-1.085.898-1.153.898-.069 0-.725.404-1.458.898-.734.494-1.428.898-1.542.898-.115 0-.267.094-.34.21-.116.187-1.257.969-3.71 2.54-.955.612-2.023.694-2.756.21-.711-.468-1.405-1.366-1.412-1.826-.012-.756-.72-1.082-1.17-.538-.526.633-1.967 1.52-3.41 2.1-1.377.554-1.73.628-3.181.67-1.494.043-1.728.006-2.756-.429z" stroke-width=".163"/></svg>