<svg xmlns="http://www.w3.org/2000/svg" height="21.126" width="22.027"><path d="M11.226 9.4c-.301-.302-.235-.589.229-.99.233-.2.558-.627.722-.948.165-.32.409-.673.543-.785.39-.323.497-1.382.2-1.957-.347-.67-.323-1.119.07-1.329.795-.425 1.383.571 1.275 2.162-.088 1.306-.41 1.957-1.537 3.112-.937.96-1.165 1.071-1.501.735zm7.652-.953c.186-.1.316-.34.316-.587 0-.23.139-.613.308-.851.17-.239.386-.69.48-1.005.095-.315.36-1.071.59-1.681.667-1.771.519-2.891-.384-2.891-.406 0-.489.086-.662.694a17.65 17.65 0 00-.329 1.429c-.072.404-.323 1.638-.557 2.743-.234 1.105-.425 2.078-.425 2.163 0 .202.27.196.663-.015zm-15.11 12.6c-.803-.153-2.066-.853-2.286-1.268a9.054 9.054 0 00-.591-.876c-.562-.746-1.005-2.125-.865-2.686.106-.42.575-1.315 1.34-2.55.502-.814 1.468-1.547 2.463-1.873.799-.261.896-.26 1.892.025.942.27 1.08.364 1.325.91.515 1.14-.134 1.5-1.13.625-.313-.276-.743-.49-.982-.49-.484 0-1.737.465-1.737.644 0 .066-.181.202-.403.303-.55.25-1.393 1.951-1.393 2.81 0 .713.43 1.711.922 2.141.56.49 2.576 1.286 3.255 1.286 1.134 0 4.803-1.613 4.803-2.112 0-.075.239-.252.53-.393.575-.277 2.676-2.279 3.472-3.308.523-.675 1.047-1.794 1.407-3.004.12-.404.349-.989.507-1.3.158-.31.287-.692.287-.847 0-.155.065-.322.144-.371.08-.05.181-.255.227-.459.045-.203.208-.92.363-1.594.154-.673.376-1.665.493-2.204.351-1.615.698-2.71.948-2.996.13-.148.284-.428.343-.622.15-.495.42-.678 1.177-.8.548-.087.733-.04 1.109.284.385.331.47.566.586 1.608.15 1.346-.027 2.675-.41 3.099-.135.148-.244.43-.244.626s-.07.484-.155.64a25.05 25.05 0 00-.594 1.304c-.241.561-.501 1.02-.577 1.02-.076 0-.341.377-.59.838l-.681 1.265c-.22.41-2.112 2.953-2.322 3.121-.273.218-1.002 2.376-1.29 3.816-.177.893-.166.992.166 1.442.831 1.124-.318 1.83-1.225.751-.417-.496-.433-.579-.327-1.714.074-.785.054-1.193-.057-1.193-.25 0-1.511.884-1.981 1.388-.723.775-2.187 1.635-4.162 2.443-.748.306-2.795.453-3.756.27z" stroke-width=".163"/></svg>