<svg xmlns="http://www.w3.org/2000/svg" height="14.291" width="32.816"><path d="M10.532 5.822c-.147-.238.179-.752.722-1.14.272-.193.698-.802.982-1.403.52-1.103.535-1.587.065-2.273-.257-.376-.287-.842-.064-.98.224-.138 1.178.298 1.54.705.252.283.292.51.218 1.23-.107 1.03-.372 1.582-1.171 2.437-.32.342-.581.71-.582.817-.002.241-.897.766-1.31.766-.166 0-.347-.072-.402-.16zM3.51 13.976a30.949 30.949 0 00-1.224-.32c-.045-.004-.337-.231-.648-.506a9.847 9.847 0 00-.744-.61C.658 12.395 0 10.825 0 10.409c0-.882.936-2.55 1.946-3.467 1.107-1.005 1.741-1.286 2.896-1.286 1.236 0 2.404.786 2.219 1.494-.107.408-.773.392-1.67-.042-.789-.38-1.651-.342-2.106.096-.146.14-.46.4-.7.579-.894.665-1.354 2.288-.95 3.35.137.36 1.042 1.38 1.224 1.38.028 0 .59.102 1.248.228 1.298.247 2.461.24 8.463-.05 3.8-.184 5.715-.324 9.26-.676 1.007-.1 1.906-.135 1.998-.079.092.057.737.027 1.434-.065 2.38-.316 6.491-.638 7.023-.551.366.06.53.177.53.375 0 .446-.406.681-1.26.73-.428.026-2.286.127-4.127.227-1.841.1-4.045.259-4.898.353-2.576.287-6.942.654-9.796.824-1.482.088-3.318.231-4.082.319-2.094.239-3.857.18-5.143-.171z" stroke-width=".163"/></svg>