<svg xmlns="http://www.w3.org/2000/svg" height="26.553" width="63.099"><path d="M10.525 6.297c-.14-.225.05-.97.246-.97.34 0 1.11-1.413 1.224-2.248.102-.744.06-.97-.304-1.666C11.264.596 11.263.2 11.688.038c.811-.311 1.975 1.37 1.805 2.608-.101.742-.704 2.122-1.29 2.954-.522.739-1.42 1.113-1.678.697zm37.91 2.186c-.216-.216-.102-.836.234-1.262.843-1.072 1.2-3.036.72-3.957-.31-.594-.31-.946-.003-1.202.363-.301.94.141 1.365 1.047.626 1.331.446 2.118-1.02 4.465-.583.934-.987 1.217-1.297.909zm-6.058 6.747c1.608-1.66 1.794-3.521.494-4.918-.633-.68-.741-.734-1.251-.637-.493.094-1.126.383-2.13.972-.295.173-.853.844-1.7 2.045-.228.324-.458.857-.512 1.184-.08.5-.05.594.2.594.356 0 1.053.62 1.053.935 0 .354.972.685 2.032.692.96.006.978-.002 1.815-.866zm-8.972 11.06c-.193-.503-.095-2.2.219-3.776.605-3.038.825-4.376.827-5.027.002-.36.121-1.131.266-1.714.266-1.072.41-4.926.193-5.144-.143-.143-4.099.158-4.951.377-.36.092-1.343.255-2.186.361-.843.107-1.912.325-2.374.484-1.451.5-3.157.696-6.536.755-3.222.057-5.508.227-7.271.542-3.452.617-8.071.615-9.387-.004C1.026 12.59 0 11.14 0 10.028c0-.259.99-2.671 1.439-3.507.418-.779 1.819-2.19 2.424-2.443.684-.286 1.341-.283 2.039.008.797.333 1.234.856 1.009 1.207-.193.3-.325.302-1.716.024-1.191-.237-1.705-.011-2.223.977-.208.397-.478.8-.6.896-.42.331-1.106 2.36-.997 2.944.13.69.73 1.592 1.2 1.8.2.089.364.214.364.277 0 .22 5.604.135 7.347-.11 3.667-.517 7.198-.886 9.347-.976 1.235-.052 2.434-.167 2.664-.254.23-.088.91-.16 1.51-.16 1.146 0 4.466-.44 7.27-.965 3.186-.595 4.11-.695 4.556-.492.524.238.775.79.775 1.7 0 .395.062.756.139.803.076.048.686-.451 1.356-1.109.67-.657 1.409-1.32 1.644-1.473.513-.336 3.098-.54 3.726-.293.265.105.604.524.938 1.162.427.815.524 1.187.523 2.017-.002 1.113-.251 2.243-.497 2.243-.085 0-.155.257-.155.572 0 .469.06.571.339.571.52 0 2.683-1.202 3.458-1.922 2.094-1.946 2.785-2.487 4.067-3.186.998-.544 1.597-.77 2.048-.77.716 0 .93.14 1.584 1.033.25.343.551.66.667.705.115.044.596-.212 1.068-.57.471-.356 1.18-.739 1.573-.849.393-.11.754-.263.801-.34.142-.23 1.351-.162 1.863.103.26.135.649.484.863.776.51.696.842 2.445.612 3.224-.092.313-.168.996-.168 1.518 0 .788-.068 1.015-.4 1.348-.488.487-.655.499-.957.068-.199-.283-.2-.481-.015-1.347.429-1.998.23-4.012-.43-4.365-.887-.474-2.738.09-3.544 1.081-.248.304-.654.792-.903 1.084-.25.293-.721 1.083-1.048 1.756-.543 1.118-1.056 1.796-1.361 1.796-.065 0-.21-.109-.32-.242-.162-.196-.103-.541.307-1.795.537-1.645.62-2.487.328-3.326-.157-.451-.252-.514-.775-.51-.984.005-1.911.559-3.373 2.014-.763.76-1.711 1.538-2.107 1.73-.396.191-1.04.629-1.43.972-.497.439-1.17.784-2.258 1.158-2.95 1.015-4.051 1.163-5.49.736-.825-.245-2.02-1.228-2.02-1.662 0-.12-.064-.218-.143-.218-.43 0-.791 1.119-1.004 3.102a37.099 37.099 0 01-.316 2.286c-.092.494-.25 1.558-.349 2.366-.116.94-.292 1.624-.49 1.903-.17.24-.31.574-.31.744 0 .624-.838.98-1.044.443z" stroke-width=".163"/></svg>