<svg xmlns="http://www.w3.org/2000/svg" height="28.358" width="54.314"><path d="M9.862 6.629c-.334-.187-.348-.437-.042-.777.474-.527 1.371-2.292 1.474-2.898.092-.546.03-.734-.473-1.442-.862-1.213-.708-1.681.48-1.458.447.083.596.243.98 1.046.376.788.434 1.072.342 1.687-.061.407-.216.826-.344.932-.128.107-.28.462-.34.79-.253 1.395-1.356 2.522-2.076 2.12zm40.22 15.91c-.135-.05-.586-.339-1.001-.64-.416-.302-.833-.55-.926-.55-.094 0-.379-.208-.634-.463a4.701 4.701 0 00-1.094-.763c-.423-.2-.707-.484-.865-.861-.455-1.088.144-1.486 1.06-.706.6.512 3.23 2.328 3.542 2.446.347.132.898.743.898.996 0 .513-.424.747-.98.54zm-11.04-6.016c.929-.425 1.328-.843 1.782-1.867.5-1.127.649-1.85.559-2.72-.28-2.705-2.603-3.14-4.983-.932-.898.832-1.32 2.032-1.375 3.903l-.042 1.406.816.293c1.21.433 2.168.41 3.242-.082zm-7.364 11.74c-.337-.136-.254-2.57.141-4.146.19-.758.403-1.451.473-1.541.122-.156.371-1.482.676-3.592.078-.539.21-2.082.294-3.43.083-1.346.195-2.742.247-3.101.076-.513.025-.736-.235-1.04-.305-.354-.42-.378-1.433-.294-.985.081-2.272.274-5.102.762-.494.085-2.22.265-3.837.4-1.616.133-3.82.317-4.898.408-1.078.09-3.355.325-5.061.522-4.192.482-9.238.474-9.902-.016-.238-.176-.624-.368-.858-.426-.234-.06-.59-.313-.792-.564l-.67-.84C-.162 10.252-.236 8.74.511 7.1c.212-.468.438-.997.5-1.177.2-.575 2.09-2.01 2.882-2.188 1.385-.31 2.852.353 2.448 1.107-.196.367-1.044.492-1.235.183-.056-.09-.402-.163-.77-.163-.654 0-1.527.486-2.04 1.136-.404.51-.84 1.602-1.012 2.535-.157.853-.14 1.034.153 1.624.182.365.65.898 1.04 1.183 1.323.97 1.63 1.032 5.086 1.032 1.734 0 3.704-.077 4.378-.17a78.294 78.294 0 012.747-.316c.836-.08 2.218-.253 3.071-.386.853-.133 3.278-.328 5.388-.433 2.11-.105 4.314-.288 4.898-.407a34.796 34.796 0 011.878-.324c.45-.06 1.18-.214 1.621-.342 1.011-.294 1.852-.29 2.38.01.632.363 1.313.3 1.8-.166.532-.51 1.884-1.046 3.18-1.26.892-.147 1.062-.124 1.917.256.675.3.99.547 1.121.876.1.252.33.779.511 1.17.383.83.322 1.874-.208 3.591-.448 1.451-.428 1.656.164 1.656.267 0 .744-.147 1.061-.326.317-.18.852-.481 1.19-.67 1.074-.602 2.981-2.138 4.352-3.507.367-.366.949-.875 1.292-1.13.344-.257.87-.692 1.171-.967 1.543-1.417 2.334-1.745 2.675-1.108.086.16.16 1.46.163 2.888.006 2.236-.037 2.698-.313 3.32-.177.4-.32.808-.32.909 0 .408-1.11 1.4-1.93 1.723l-.863.34-.81-.349c-1.667-.717-2.482-2.593-1.127-2.593.078 0 .365.324.637.72.406.59.615.74 1.156.832.78.132 1.31-.147 1.803-.948.283-.46.316-.775.278-2.644l-.043-2.122-.408-.044c-.442-.047-.613.08-3.328 2.492-1.738 1.544-2.954 2.531-3.118 2.531-.054 0-.26.152-.458.338-.199.186-.561.378-.806.428-.245.05-.53.192-.634.317-.22.265-1.38.807-2.43 1.136-1.197.374-4.336.622-5.538.436-1.507-.232-1.609-.178-1.729.913a65.942 65.942 0 01-.439 2.88c-.185 1.078-.406 2.4-.49 2.94-.085.539-.215 1.2-.29 1.469-.075.27-.182.754-.237 1.077-.07.415-.22.642-.513.775-.227.104-.428.183-.446.176l-.237-.095z" stroke-width=".163"/></svg>