<svg xmlns="http://www.w3.org/2000/svg" height="25.94" width="42.199"><path d="M10.857 5.618c0-.213.133-.562.296-.776.384-.504.773-1.363.993-2.194.175-.659.084-1.298-.284-1.985-.146-.272-.109-.36.227-.54.358-.191.446-.174.798.157.722.678.803 2.2.189 3.516-.211.452-.434.984-.495 1.184-.135.445-.917 1.025-1.382 1.025-.25 0-.342-.103-.342-.386zm28.54 9.788c1.387-.725 2.093-2.714 1.423-4.01-.322-.623-1.578-1.638-2.026-1.638-1.415 0-4.414 2.857-4.48 4.268-.025.514.01.552.545.602.314.03.681.146.816.259.775.65 2.904.946 3.722.518zm-9.574 10.24c-.104-.186-.05-.618.168-1.347.176-.59.38-1.404.452-1.808.132-.735.191-1.015.83-3.918.7-3.18.83-3.873 1.002-5.388.096-.853.185-1.771.196-2.041l.02-.49-1.784-.047c-1.037-.027-1.994.03-2.286.137-.276.101-1.09.245-1.808.32-2.485.257-5.5.65-5.635.734-.075.046-1.368.192-2.873.325-1.506.132-2.962.312-3.237.4-.549.174-5.356.54-7.684.586-2.29.044-4.441-.203-5.242-.604-.384-.191-.978-.636-1.32-.987L0 10.88l.03-1.49c.036-1.715.407-2.615 1.584-3.847 1.306-1.366 3.123-1.71 4.385-.827 1.353.945.933 1.337-.934.872-1.018-.253-1.264-.265-1.706-.082-.628.26-1.482 1.032-1.482 1.34 0 .124-.111.383-.247.577-.135.193-.29.67-.343 1.06-.093.68 0 .981.743 2.416.07.134.266.27.436.303.17.032.64.208 1.044.392 1.407.64 4.238.581 10.69-.221.628-.079 2.282-.214 3.673-.3 3.607-.226 4.908-.408 10.48-1.473a19.909 19.909 0 013.714-.334h1.968v.898c0 .8.037.898.339.898.187 0 .623-.295.969-.655.667-.695 2.28-1.512 3.312-1.677.73-.117 1.99.352 2.45.911.888 1.084 1.094 1.571 1.094 2.582 0 1.178-.274 2.217-.706 2.675-.169.18-.495.57-.725.866-.23.297-.672.646-.983.776-1.237.517-3.667.17-5.218-.745-.303-.179-.612-.325-.688-.325-.075 0-.34.57-.588 1.265-.249.696-.513 1.335-.588 1.42-.076.085-.137.356-.137.602s-.074.493-.164.549c-.09.055-.163.65-.163 1.323 0 1.269-.488 3.154-1.19 4.595-.365.75-.939.945-1.233.42z" stroke-width=".163"/></svg>