<svg xmlns="http://www.w3.org/2000/svg" height="9.661" width="8.413"><path d="M3.84 9.536c-1.344-.312-2.056-.66-2.434-1.19-.187-.263-.34-.553-.34-.645 0-.092-.095-.264-.21-.383C-.03 6.411-.288 4.075.362 2.857c.191-.36.677-.926 1.08-1.26C2.26.922 4.144-.001 4.704 0c.506.002 1.584.315 1.866.543 1.117.905 1.164 1.252.17 1.251-.381 0-.907-.112-1.168-.248-.377-.197-.65-.215-1.333-.089-1.642.304-2.639.957-2.982 1.954-.268.781-.24 1.178.16 2.246.51 1.364 1.574 2.374 2.785 2.644.67.15 1.022.16 1.255.034a1.6 1.6 0 01.626-.173c.166 0 .557-.217.868-.483.72-.615 1.463-.671 1.463-.11 0 .874-.937 1.538-2.776 1.965-.728.17-1.068.17-1.796.002z" stroke-width=".163"/></svg>