<svg xmlns="http://www.w3.org/2000/svg" height="20.637" width="59.729"><path d="M11.18 9.94c.062-.246.192-.543.288-.66.097-.116.348-.55.559-.966.54-1.068.521-2.201-.05-2.95-.35-.458-.405-.647-.286-.982.214-.606.411-.596 1.175.058l.686.587v1.671c0 1.652-.006 1.676-.502 2.151a6.254 6.254 0 00-.83 1.01c-.23.372-.45.53-.74.53-.369 0-.4-.047-.3-.447zm44.98-2.642c0-.084.121-.273.27-.422.574-.573 1.585-2.322 1.793-3.1.12-.449.22-1.17.22-1.602l.002-.785-.612.05c-.562.047-.649.124-1.059.95-.246.493-.448 1.05-.449 1.235-.002.186-.11.705-.244 1.154a7.74 7.74 0 00-.272 1.581c-.015.42-.09.765-.165.765-.076 0-.137.073-.137.163 0 .09.147.163.326.163.18 0 .327-.068.327-.151zM3.71 20.438C1.869 19.943 0 17.918 0 16.42c0-.916.311-2.23.581-2.454.128-.106.308-.47.399-.809.115-.427.402-.807.94-1.245.425-.346.885-.764 1.022-.928.316-.382 2-.557 2.802-.292.311.103.845.442 1.187.755.516.473.586.608.416.813-.23.276-.747.326-.896.086-.054-.088-.48-.273-.946-.411-.776-.23-.924-.229-1.723.023-.481.15-.917.391-.969.533-.051.142-.266.48-.476.749-.844 1.079-1.021 1.436-1.137 2.278-.139 1.01.007 1.43.8 2.3.847.931 1.573 1.319 2.867 1.527 1.762.283 3.702-.216 5.476-1.41.436-.292.877-.532.98-.532.103 0 1.106-.939 2.228-2.088 2.054-2.1 2.639-2.526 4.192-3.039.814-.27.868-.268 1.469.04.772.393 1.218.874 1.436 1.548.231.715.687.732 1.742.064 1.667-1.056 2.714-1.452 4.092-1.546l1.287-.088 1.48 1.59-.05 2.329c-.043 2.006-.012 2.366.225 2.603.542.543 3.038.24 3.817-.463.189-.171.593-.381.898-.467.304-.087 1.025-.559 1.6-1.05.577-.49 1.369-1.042 1.76-1.227.408-.192.776-.5.86-.721.142-.374.968-1.077 1.265-1.077.081 0 .4-.264.71-.586.74-.772 2.378-1.92 2.78-1.95.175-.012.383.057.463.154.442.541 1.02 4.091.886 5.442l-.101 1.02h.497c.83 0 2.5-.87 4.04-2.106 1.219-.978 2.692-2.556 2.692-2.885 0-.047.367-.453.816-.902.448-.448.917-1.015 1.04-1.258.3-.587.867-2.936 1.053-4.36.082-.628.264-1.473.405-1.878.141-.405.344-1.04.451-1.414.412-1.437 1.031-2.4 1.796-2.799.754-.391 1.501-.386 1.9.012.11.11.328.69.485 1.29.227.867.246 1.167.094 1.47-.105.208-.272.7-.372 1.092-.1.392-.32.861-.489 1.042-.169.181-.431.595-.584.92-.152.324-.321.627-.376.672-.228.189-1.486 1.919-1.486 2.045 0 .075-.404.664-.898 1.309-.522.682-.898 1.339-.898 1.57 0 .219-.066.468-.147.553-.323.34-.717 1.866-.84 3.25-.138 1.57.026 2.205.694 2.676.472.332.32.91-.257.976-.756.087-1.146-.086-1.488-.659-.276-.462-.315-.795-.28-2.374.025-1.167-.022-1.837-.128-1.837-.091 0-.166.13-.166.289 0 .253-.687.811-2.05 1.667-.21.132-.474.41-.585.616-.11.207-.389.419-.62.472-.23.053-.696.313-1.034.577-.702.549-2.26 1.276-2.73 1.276-.174 0-.689.147-1.144.327-.983.387-2.856.446-3.351.105-.177-.122-.599-.312-.936-.422-.624-.203-1.427-1.056-1.427-1.516 0-.505.455-.694 1.113-.463.33.117.748.342.928.5 1.212 1.069 2.463 1.059 2.84-.021.401-1.152.064-4.25-.503-4.606-.32-.203-1.6.659-3.022 2.036-1.113 1.078-2.328 2.022-3.316 2.577a8.153 8.153 0 00-1.143.824c-.314.277-.755.548-.98.602-.224.055-.648.244-.942.42-.655.394-2.04.775-2.821.778-.722.002-2.228-.73-2.361-1.147-.054-.171-.076-1.37-.049-2.663.05-2.337.048-2.354-.357-2.693-.661-.552-2.92-.352-3.52.311-.157.174-.368.317-.469.317-.438 0-2.864 2.83-2.867 3.345-.002.178-.199.714-.44 1.192-.377.745-.498.86-.857.819-.589-.07-.622-.698-.093-1.786.446-.92.697-2.562.506-3.321-.17-.68-.863-1.228-1.549-1.227-1.255.002-2.032.472-3.638 2.203-1.552 1.673-3.464 3.226-4.624 3.756-.359.164-.763.387-.898.497-.8.649-3.687.92-5.27.494z" stroke-width=".163"/></svg>