<svg xmlns="http://www.w3.org/2000/svg" height="23.902" width="55.824"><path d="M9.41 11.412c-.261-.26-.06-.839.509-1.47.453-.503.672-.94.833-1.668.255-1.148.17-1.634-.392-2.24-.49-.53-.514-.813-.084-1.042.377-.202.773-.022 1.596.723.566.514.672 1.066.38 1.984-.083.26-.194.734-.246 1.051-.101.615-.463 1.164-1.421 2.155-.565.585-.936.745-1.176.505zm41.32-3.168c.293-.488.606-1.181.693-1.54.088-.36.311-1.094.498-1.633.186-.54.378-1.494.427-2.122.077-.983.044-1.2-.238-1.546-.277-.341-.367-.37-.584-.19-.3.248-.685 1.523-.845 2.796a10.553 10.553 0 01-.428 1.796c-.173.494-.36 1.477-.417 2.186-.123 1.556.073 1.611.893.252zM3.55 20.504C1.966 20.027-.02 17.584 0 16.14c.01-.752.791-2.737 1.273-3.238.193-.2.351-.438.351-.527 0-.435 1.769-1.157 2.874-1.172.62-.01 1.518.28 1.902.612.356.308.37.783.028.914-.378.145-1.015.121-1.115-.041-.048-.078-.42-.187-.829-.242-.675-.093-.81-.05-1.514.488-.936.715-1.069.901-1.339 1.894-.324 1.19-.152 2.114.557 2.979.331.404.715.735.854.735.138 0 .395.184.572.408.292.371.434.408 1.549.408 1.99 0 4.386-.852 5.216-1.857 1.01-1.224 4.009-4.178 4.502-4.437.934-.49 1.024-.52 1.856-.634.78-.108.84-.087 1.48.51.506.472.693.79.775 1.316.134.865.348.88 1.368.098.427-.328 1.108-.736 1.512-.907.404-.17.918-.41 1.143-.531 1.235-.67 2.463-.39 3.206.733.421.637.454.808.476 2.503.013 1 .077 1.942.142 2.092.15.345 1.24.788 1.94.788.968 0 2.275-.568 3.133-1.363 1.459-1.349 1.767-1.654 3.92-3.878 2.77-2.86 3.504-3.307 4.157-2.52.432.521.799 4.32.623 6.454-.047.567-.042.571.573.535 1.563-.093 4.554-2.248 6.066-4.371.625-.878.71-1.107.806-2.204.173-1.96.738-5.141 1.16-6.531.149-.494.37-1.496.49-2.227.29-1.752.54-2.184 1.595-2.762.355-.195.585-.212 1.074-.08.93.25 1.093.69 1.054 2.85-.035 1.9-.351 3.13-1.44 5.587-.728 1.647-.786 1.751-1.501 2.715-.384.517-.699.984-.699 1.038 0 .054-.184.315-.408.582a1.648 1.648 0 00-.408 1.054c0 .313-.12.935-.266 1.381-.334 1.021-.223 1.937.333 2.74.482.694.552 1.404.155 1.556-.635.244-1.721-1.146-1.935-2.476-.101-.626-.157-.694-.574-.694-.342 0-.593.167-.972.645-.28.354-.667.693-.858.754-.192.061-.494.247-.673.413-.179.167-.588.388-.91.492-.323.103-.663.248-.756.321-.093.074-.46.208-.816.299-.356.09-1.051.284-1.545.43-1.458.43-2.541.39-3.673-.133-1.18-.546-1.847-1.36-1.558-1.901.268-.502.862-.418 1.639.232.786.657 1.722.78 2.164.286.465-.522.657-1.664.546-3.263-.113-1.647-.298-2.33-.632-2.33-.254 0-1.372 1.046-2.002 1.87-.243.32-.54.58-.659.58-.12 0-.28.112-.358.25-.214.383-2.237 2.427-3.19 3.223-2.029 1.695-4.269 2.217-5.759 1.344-1.122-.657-1.342-1.187-1.256-3.022.071-1.5-.006-1.926-.486-2.694-.324-.517-.49-.588-1.146-.493-1.422.208-3.748 2.124-4.601 3.79-.458.895-1.73 2.826-1.858 2.823-.54-.012-.756-.925-.396-1.672.402-.83.56-1.593.65-3.126.084-1.447.063-1.64-.207-1.837-.42-.307-.961-.275-1.699.102-.577.294-2.965 2.553-4.719 4.463-.947 1.03-2.356 1.719-4.269 2.087-1.678.322-2.446.359-3.136.15zm42.51 3.094c-.427-.398-.426-.392-.102-.717.201-.201.634-.257 2-.257.96 0 2.98-.148 4.49-.327 2.88-.341 3.376-.295 3.376.312 0 .498-1.605.823-5.344 1.08-4.272.295-4 .301-4.422-.092z" stroke-width=".163"/></svg>