<svg xmlns="http://www.w3.org/2000/svg" height="27.754" width="56.294"><path d="M10.392 10.197c-.118-.118-.013-.343.738-1.584a3.911 3.911 0 00.555-1.732c.084-.925.066-.983-.505-1.614-.701-.776-.73-.968-.18-1.22.346-.157.485-.134.848.137.832.62 1.107 1.157 1.107 2.153 0 1.033-.53 2.63-1.11 3.34-.35.431-1.228.746-1.453.52zM52.982 9.1c.242-.382.55-.988.685-1.347.135-.36.384-.81.555-1.003.17-.193.458-.927.64-1.633.61-2.373.159-4.114-.964-3.72-.443.155-.457.199-.657 2.114-.113 1.076-.388 2.683-.612 3.57-.427 1.692-.52 2.712-.247 2.712.09 0 .36-.312.6-.694zM3.072 19.38c-1.175-.47-1.292-.553-1.984-1.42-1.348-1.69-1.413-2.513-.366-4.645.54-1.1.818-1.445 1.816-2.264l1.18-.967 1.552-.021c1.545-.022 1.555-.02 2.083.508l.53.53-.69.69-.726-.426c-1.055-.618-1.548-.548-3.43.487-1.097.603-1.724 2.323-1.513 4.145.084.728.211 1.046.545 1.365.684.655 2.286 1.33 3.129 1.32.914-.013 3.019-.64 3.399-1.014.156-.153.485-.384.73-.512.55-.287 3.053-2.782 3.053-3.043 0-.18 1.111-1.387 1.686-1.831.15-.115.664-.36 1.145-.544.737-.282.978-.306 1.531-.158.879.237 1.436.702 1.782 1.486.19.43.392.65.598.65.17 0 .897-.404 1.614-.898.717-.494 1.362-.898 1.433-.898.07 0 .45-.142.844-.315.393-.173 1.155-.364 1.694-.423.86-.094 1.047-.061 1.537.274.928.636 1.186 1.356 1.308 3.645.1 1.878.134 2.04.508 2.35.77.641 2.812.35 4.32-.618.786-.503 3.016-2.4 3.315-2.82.118-.164.295-.298.394-.298.163 0 .765-.512 2.868-2.438.384-.352 1.023-.798 1.42-.99 1.28-.62 1.615-.122 1.906 2.82.174 1.76.092 3.127-.198 3.306-.084.053-.154.275-.154.494 0 .325.083.399.444.399.58 0 1.796-.46 2.414-.912.27-.197.93-.582 1.469-.855s1.164-.667 1.389-.875c.225-.208.763-.664 1.196-1.012.892-.719.944-.825 1.585-3.285.257-.988.614-2.347.792-3.02.42-1.586.833-3.782.838-4.452C52.066 1.744 53.277 0 54.068 0c.76 0 1.166.285 1.723 1.212.534.888.55.965.463 2.181a7.703 7.703 0 01-.594 2.485c-.277.674-.504 1.343-.504 1.487 0 .145-.173.517-.383.827-.211.31-.429.745-.484.965-.055.22-.232.546-.392.724-.161.178-.494.634-.741 1.013-.247.38-.637.813-.866.963-1.44.944-2.627 4.86-1.722 5.68.17.154.346.418.39.586.113.434-.323.98-.785.98-.85 0-1.5-1.376-1.33-2.817.09-.757.082-.775-.351-.775-.398 0-1.895.866-2.452 1.419-.12.118-.542.297-.939.397-.397.1-.722.236-.722.303 0 .216-1.85.952-2.846 1.133-.533.097-1.451.176-2.041.176-.912 0-1.255-.091-2.297-.612-1.116-.558-1.224-.656-1.224-1.102 0-.417.069-.498.463-.543.26-.03.588.06.748.204.156.141.703.34 1.217.444 1.2.241 2.165-.006 2.396-.614.176-.465.204-2.654.05-3.94-.102-.85-.108-.858-.67-.858-.586 0-1.443.641-3.274 2.45-.41.404-.912.848-1.117.987-.205.138-.761.616-1.236 1.06-.475.445-1.194.973-1.598 1.172-.404.199-1.054.603-1.444.897-.638.48-.84.54-2.005.594-2.577.117-3.242-.701-3.247-3.995-.003-1.808-.158-2.267-.917-2.71-.466-.272-.585-.278-1.387-.07-.482.126-1.147.342-1.477.48-.676.283-2.159 1.41-2.575 1.957-.328.431-1.64 2.716-1.64 2.855 0 .054-.154.415-.342.802-.262.542-.432.705-.734.705-.503 0-.522-.476-.068-1.672.448-1.178.475-4.027.041-4.404-.717-.626-.986-.658-1.884-.229-1.067.511-1.37.786-2.053 1.856-.3.472-.612.857-.692.857-.08 0-.146.095-.146.21 0 .194-1.252 1.306-3.088 2.744-1.536 1.203-4.431 1.63-6.22.915zm44.24 8.12c-.169-.203-.173-.496-.021-1.472.104-.67.29-1.382.413-1.582.123-.2.24-.764.26-1.252.049-1.183.43-2.108.916-2.231.82-.206.852.035.334 2.547-.303 1.467-.595 2.474-.78 2.686-.073.085-.134.29-.134.454 0 .332-.456 1.104-.652 1.104-.068 0-.22-.114-.336-.254z" stroke-width=".163"/></svg>