<svg xmlns="http://www.w3.org/2000/svg" height="14.792" width="46.394"><path d="M12.432 5.326c-.37-.284-.19-1.051.325-1.388.41-.268 1.021-1.457 1.021-1.983 0-.156-.262-.516-.584-.8C12.502.54 12.5.085 13.191.007c.595-.069 1.488.404 1.718.908.233.51.225 1.932-.013 2.381-.314.595-1.839 2.234-2.077 2.234-.066 0-.24-.092-.386-.204zm31.55 4.542c0-.129.093-.33.207-.45.113-.118.388-.564.611-.99.319-.61.367-.837.225-1.061-.466-.74-.97-.245-1.473 1.449-.193.65-.198.839-.026 1.034.27.306.456.313.456.018zm-39.27 4.81c-1.003-.221-1.293-.367-1.988-.997-.796-.723-1.304-1.424-1.449-2.003-.061-.244-.238-.512-.393-.595C.726 11 .44 10.446.244 9.85-.16 8.615-.092 8.103.677 6.657c.243-.458.572-1.083.73-1.388.157-.305.74-.885 1.297-1.29.925-.673 1.093-.736 1.965-.736 1.587 0 3.063.918 3.063 1.906 0 .488-.047.543-.464.543-.27 0-.596-.147-.776-.349-.478-.536-1.28-.812-2.017-.694-.747.12-1.597.88-2.263 2.023-.235.404-.522.831-.637.95-.443.455-.073 1.992.778 3.24.297.434.73 1.071.965 1.416.47.694 1.633 1.237 2.94 1.376 1.487.157 7.675-1.192 11.11-2.422.315-.113 1.31-.555 2.212-.983.901-.428 1.857-.826 2.122-.885.441-.098 1.62-.465 4.483-1.394.583-.19 1.465-.404 1.959-.477.493-.073 1.09-.209 1.325-.301.553-.218 3.25-.683 3.962-.683.766 0 1.574.37 2.374 1.088.89.8 1.265 1.433 1.404 2.378.206 1.4.49 1.975 1.165 2.368.719.418 1.494.383 2.596-.117.954-.433 1.096-.68 1.152-2.008.063-1.517.306-2.91.607-3.492.443-.857.823-1.068 1.961-1.092.933-.02 1.09.023 1.401.385.547.637.35 1.855-.575 3.567-.407.753-.882 1.52-1.055 1.707-.453.486-.4 1.096.13 1.52.394.313.427.41.283.822-.241.688-.7.658-1.525-.1-.393-.362-.808-.658-.923-.658-.114 0-.626.22-1.139.49-1.578.83-3.358.56-4.492-.681-.446-.489-1.042-2.004-1.015-2.584.016-.345-.772-1.455-1.322-1.862-.389-.288-.686-.34-1.878-.332-1.435.011-3.394.368-4.436.809-.314.133-1.422.454-2.46.713-1.04.26-2.415.702-3.055.982-.64.281-1.406.558-1.702.616-.463.09-2.456.985-3.477 1.56-.18.102-.666.239-1.083.306a7.067 7.067 0 00-1.469.44c-.392.176-1.306.404-2.03.508-.725.103-1.704.334-2.175.513-.975.37-4.825.58-5.977.325z" stroke-width=".163"/></svg>