<svg xmlns="http://www.w3.org/2000/svg" height="9.295" width="26.716"><path d="M2.765 8.982C1.547 8.608.995 8.092.36 6.737c-.352-.753-.4-1.04-.334-2.053C.14 2.887.786 2.01 3.252.308c.856-.592 2.969-.283 3.562.52.69.934.023 1.306-1.044.58-.666-.45-1.64-.54-2.213-.203-.617.363-1.8 1.497-2.033 1.95-.308.595-.31 3.045-.002 3.483.124.177.635.604 1.135.948l.908.626 1.858-.055c1.721-.051 1.906-.088 2.498-.506.352-.248.99-.677 1.415-.953.427-.276.776-.56.776-.632 0-.072.9-1.036 2-2.143 2.8-2.817 4.317-3.572 5.592-2.782.829.514 1.388 1.13 1.388 1.532 0 .21.088.471.196.579.321.322 1.059.23 1.384-.171.737-.91 2.54-1.755 3.745-1.755.881 0 1.642.483 1.927 1.224.367.953.483 2.769.255 4a75.056 75.056 0 00-.277 1.586c-.091.593-.568.848-.966.518-.186-.155-.225-.382-.151-.871.055-.364.142-1.474.194-2.467.092-1.782.088-1.811-.346-2.327-.622-.739-1.415-.718-2.844.077-.592.329-1.102.66-1.132.738-.03.076-.406.56-.834 1.075-.428.514-.88 1.229-1.003 1.588-.123.359-.43.994-.68 1.413-.71 1.183-1.264 1.243-1.264.136 0-.614.081-.891.625-2.12.138-.314.283-.982.321-1.484.063-.831.02-.98-.48-1.663-.5-.685-.61-.752-1.245-.761-.538-.008-.899.124-1.592.584-.492.327-.895.653-.895.725 0 .238-3.913 4.06-4.616 4.509-.38.242-.806.58-.947.75-.627.754-3.85.994-5.703.424z" stroke-width=".163"/></svg>