<svg xmlns="http://www.w3.org/2000/svg" height="9.325" width="42.103"><path d="M4.082 9.257C3.081 9.116 1.394 8.32.877 7.747.482 7.307 0 6.136 0 5.614c0-.917.703-3.225 1.12-3.675.237-.256.663-.726.946-1.045.95-1.07 3.352-1.207 4.554-.262.464.365.507.653.143.955-.213.177-.345.169-.775-.05-2.105-1.066-3.88.009-4.445 2.692-.136.645-.2 1.383-.145 1.64.121.55.983 1.585 1.321 1.585.13 0 .459.115.73.255.272.14 1.037.35 1.702.466 1.062.184 1.38.175 2.641-.082 1.504-.305 2.68-.599 3.23-.806.928-.35 3.082-.976 3.357-.976.174 0 .316-.058.316-.13 0-.071.459-.229 1.02-.35.56-.121 2.122-.602 3.469-1.068 5.123-1.773 6.587-2.245 8.408-2.712 1.813-.465 2.492-.673 3.184-.977.443-.195 2.864-.477 4.096-.477 1.128 0 3.418.52 4.3.978 1.6.83 2.44 1.946 2.81 3.735.176.854.167 1.02-.078 1.393-.536.818-.845.54-1.235-1.107-.242-1.02-1.01-2.087-2.037-2.825-.697-.5-1.03-.613-2.374-.803-.86-.122-1.926-.223-2.37-.225-1.69-.007-4.922.725-8.01 1.812-.27.095-.71.233-.98.307-.27.074-1.445.48-2.612.9-1.167.422-2.434.83-2.814.907-.38.078-.858.247-1.06.377-.204.13-1.289.5-2.412.822-1.122.322-2.26.665-2.53.761-3.633 1.3-4.763 1.586-6.613 1.67-1.033.047-2.282.028-2.776-.041z" stroke-width=".163"/></svg>