<svg xmlns="http://www.w3.org/2000/svg" height="33.114" width="57.132"><path d="M12.305 11.177c-.143-.143-.26-.313-.26-.378 0-.066.331-.574.735-1.13.939-1.29.996-2.063.231-3.104-.277-.377-.563-.686-.636-.686-.194 0-.333-.453-.225-.734.258-.673 1.983.036 2.382.98.237.56.26 2.976.033 3.368-.084.144-.568.64-1.076 1.102-.845.768-.947.818-1.184.581zm41.54-1.742c0-.11.272-.442.604-.738.675-.6 1.191-1.766 1.191-2.687 0-.332.087-.794.193-1.027.144-.316.147-.615.012-1.19-.1-.424-.224-.972-.277-1.219-.169-.783-1.07-.416-1.07.436 0 .23-.147.805-.327 1.277-.18.472-.328 1.153-.33 1.512-.004.69-.197 1.725-.507 2.723-.103.33-.142.716-.088.857.116.302.599.348.599.057zm-13.59-.249c.915-1.744 1.036-2.36.986-5.035l-.045-2.434h-.408c-.315 0-.419.094-.453.408-.025.225-.15.886-.28 1.47-.287 1.301-.544 3.39-.636 5.183-.086 1.654.128 1.758.836.408zm-25.22 23.77c-.287-.287-.252-.741.14-1.77.394-1.036.888-3.492 1.055-5.242.063-.664.167-1.281.23-1.371.064-.09.203-.678.308-1.306.7-4.178 1.042-6.304 1.12-6.98.083-.733.067-.775-.3-.775-.378 0-1.286.914-1.286 1.295 0 .093-.312.365-.694.605a6.68 6.68 0 00-1.184.98c-.27.3-1.078.85-1.796 1.221-.718.372-1.506.78-1.75.91-.578.302-4.146.861-5.52.864-1.568.003-2.786-.48-3.988-1.583C.11 18.648-.089 18.197.03 16.759c.114-1.39.629-2.425 1.788-3.6 1.108-1.123 1.357-1.24 2.64-1.24.873 0 1.261.093 2.052.492.803.405.975.565.975.903 0 .599-.328.636-1.445.166-.546-.23-1.276-.418-1.62-.418-1.393 0-3.302 1.9-3.302 3.288 0 1.03.237 1.709.793 2.264.269.268.54.488.605.488.064 0 .475.22.913.49.777.478.846.49 2.875.484 2.114-.006 3.468-.223 4.401-.706.285-.147.631-.268.769-.268.31 0 2.437-1.418 3.48-2.32.918-.795 2.817-3.313 2.817-3.736 0-.637.363-1.128.836-1.128.721 0 .835.41.704 2.54-.113 1.835-.11 1.868.233 1.868.192 0 .349-.07.349-.155 0-.085.619-.779 1.375-1.542 1.974-1.992 3.842-2.856 5.179-2.396.56.193 1.469 1.226 2.015 2.29.414.807.515 2.453.203 3.313-.48 1.322-.495 1.592-.094 1.592.752 0 3.337-1.078 3.734-1.557.13-.155.566-.424.97-.597.403-.173.771-.368.818-.432.046-.065.462-.39.923-.725 1.059-.766 2.019-1.822 2.019-2.22 0-.168.11-.617.244-.998.135-.381.315-1.18.401-1.776.247-1.706.611-3.899.899-5.409.145-.763.369-1.976.496-2.694C39.52.516 39.82 0 40.826 0c.963 0 1.498 1.042 1.687 3.28.16 1.899.16 1.895-.413 3.673-.715 2.218-.97 2.856-1.318 3.298-.175.223-.321.487-.325.587-.003.1-.406.807-.895 1.57-1.46 2.28-1.97 3.628-2.137 5.633-.11 1.336.127 1.752 1.105 1.942.696.135.813.107 1.515-.367.42-.283.824-.514.9-.514.232 0 1.082-1.803 1.464-3.102.198-.673.469-1.463.603-1.755l.243-.53h1.41c.777 0 1.857-.081 2.402-.18 1.017-.186 2.94-.97 3.709-1.512.708-.5 1.228-2.158 1.54-4.92.05-.45.16-.887.242-.972.083-.085.15-.357.15-.604 0-.248.067-.619.148-.825.08-.206.267-.926.414-1.6.46-2.114.865-2.759 1.738-2.77.331-.004.54.178.98.851 1.146 1.76 1.336 2.592.985 4.322a7.926 7.926 0 01-.585 1.668c-.228.449-.414.929-.414 1.066 0 .138-.067.25-.15.25-.083 0-.196.21-.253.467-.056.257-.264.554-.462.66-.197.107-.543.414-.767.684-.225.269-.77.855-1.213 1.303l-.805.813-.396 2.16c-.605 3.3-.616 3.508-.217 4.048.434.587.44 1.07.015 1.297-.51.273-1.223-.234-1.556-1.107-.3-.787-.27-1.328.178-3.221.42-1.768.415-1.8-.251-1.773-.315.012-1.011.184-1.55.382-.537.198-1.528.421-2.203.497-1.925.215-2.15.319-2.652 1.23-.245.444-.447.974-.45 1.179-.006.654-.436 1.398-1.355 2.346-1.405 1.448-1.58 1.527-3.357 1.52l-1.54-.005-.468-.56c-.431-.516-.467-.663-.467-1.913 0-1.229-.029-1.353-.316-1.353-.434 0-1.2.299-1.398.545-.324.403-1.45 1.169-2.51 1.706-.595.301-1.45.736-1.899.965-.497.255-1.295.475-2.04.565-.674.08-1.69.227-2.257.325-1.286.223-3.073.064-4.313-.382-1.099-.396-1.31-.604-1.239-1.224.072-.627.714-.69 1.64-.161.53.303 1.024.42 2.046.484 2.208.14 3.003-.308 3.523-1.985.339-1.089.34-1.46.008-2.705-.295-1.11-.932-1.823-1.77-1.979-1.713-.319-5.409 3.197-5.735 5.457-.06.416-.188.856-.285.977-.321.402-.924 2.533-1.17 4.138-.134.87-.364 1.936-.511 2.367-.39 1.14-.701 2.503-.708 3.102-.003.286-.077.565-.164.619-.088.054-.205.444-.261.868-.214 1.613-1.077 2.716-1.664 2.128z" stroke-width=".163"/></svg>