<svg xmlns="http://www.w3.org/2000/svg" height="33.372" width="45.741"><path d="M9.91 13.028c-.107-.174.654-1.742 1.081-2.23.162-.184.341-.673.398-1.086.089-.648.044-.828-.325-1.312-.543-.712-.545-1.067-.006-1.202.904-.227 1.82 1.135 1.599 2.375-.147.817-.992 2.535-1.534 3.115-.444.475-1.028.638-1.213.34zm33.38-9.341c.36-.37.653-.807.653-.97 0-.164.074-.343.163-.398.259-.16.19-.735-.087-.735-.356 0-1.36 1.051-1.638 1.714-.517 1.239-.092 1.42.909.389zm-15.14 18.02c-.473-.16-.12-.718 1.22-1.933 2.143-1.944 3.8-3.586 3.8-3.766 0-.088.478-.69 1.061-1.338.584-.648 1.061-1.231 1.061-1.295 0-.065.581-.717 1.291-1.45.71-.732 1.8-2.066 2.42-2.964 1.072-1.55 1.14-1.704 1.337-3.025.114-.766.308-1.525.432-1.688.123-.163.226-.408.23-.545.002-.136.261-.639.576-1.116.314-.477.571-.928.571-1.003 0-.074.34-.433.753-.798.919-.808 1.637-.984 2.337-.57.457.27.502.372.502 1.138 0 .902-.513 2.062-1.256 2.842-1.572 1.65-2.183 2.353-2.383 2.74-.127.244-.368.677-.537.962-.301.51-.3.562.081 3.213.424 2.952.399 3.85-.16 5.674-.181.594-.51 1.324-.731 1.624-.221.3-.402.637-.402.75 0 .114-.52.51-1.157.882-.986.576-1.257.664-1.837.597-1.687-.195-4.027-1.554-4.027-2.34 0-.32.083-.388.482-.388.52 0 1.314.303 1.314.502 0 .224 1.69.968 2.195.967.975-.002 2.175-.973 2.718-2.2.299-.674.344-1.086.339-3.085-.006-2.462-.122-3.157-.572-3.437-.29-.18-.367-.109-3.822 3.58-.421.448-.892 1.062-1.048 1.364-.156.302-.58.803-.945 1.115-.363.312-.661.699-.661.86 0 .18-.208.378-.53.508-.556.223-1.43 1.013-1.43 1.292 0 .089-.312.358-.694.597-.381.239-.93.708-1.22 1.043-.526.608-.926.82-1.31.69zm-5.797-1.778c1.25-.947 1.831-2.157 1.835-3.823.002-.756-.08-1.02-.495-1.583-.582-.792-1.408-1.347-2.003-1.347-.605 0-1.941.745-2.273 1.268-.156.245-.404.703-.55 1.018-.286.612-.379.797-.922 1.839-.194.371-.38 1.09-.418 1.609l-.068.937.713.203c1.947.553 3.346.513 4.18-.12zm-10.11 13.09c-.243-.534.17-2.964.807-4.742.225-.629.469-1.473.541-1.878.072-.404.283-1.433.469-2.286.185-.853.446-2.102.579-2.776.132-.674.343-1.592.467-2.041.124-.45.278-1.276.343-1.837.11-.943.094-1.02-.2-1.02-.176 0-.693.402-1.154.898-.46.494-.922.898-1.028.898-.106 0-.542.327-.969.726-2.017 1.887-6.907 2.96-9.339 2.05C1.206 20.43.092 18.875.011 17.173c-.05-1.03.037-1.326.874-2.985.646-1.279.735-1.378 1.652-1.837.533-.266 1.216-.484 1.518-.484.827 0 2.49.795 2.603 1.245.204.812-.34.933-1.274.285-.526-.364-.744-.417-1.445-.35-.897.087-1.42.464-2.301 1.661-.403.548-.466.776-.45 1.633.028 1.423.15 1.79.83 2.493.978 1.011 1.075 1.06 2.388 1.226 3.256.41 6.755-.937 9.475-3.648 1.348-1.343 1.695-1.919 1.976-3.283.143-.694.3-1.013.599-1.208.652-.427.785-.114.74 1.743-.026 1.076.02 1.632.135 1.632.194 0 .938-.808 1.657-1.8.258-.357.56-.65.672-.653.112-.003.57-.186 1.02-.407.448-.221 1.006-.402 1.24-.403.571-.002 1.435.308 1.988.713.594.436 1.424 2.203 1.424 3.033 0 2.396-1.822 5.27-3.686 5.814-.91.266-2.206.155-3.74-.32-.643-.2-.856-.21-1.009-.053-.21.218-.81 1.816-1.024 2.73-.558 2.387-.564 2.41-1.437 4.653-.314.808-.635 1.984-.714 2.612-.148 1.187-.416 2.041-.64 2.041-.072 0-.245.044-.385.098-.171.065-.32-.045-.452-.336z" stroke-width=".163"/></svg>