<svg xmlns="http://www.w3.org/2000/svg" height="34.037" width="47.948"><path d="M27.572 10.655c-.7-.89.558-2.081 1.355-1.284.305.305.314.418.075.942-.147.322-.746.76-1.039.76-.034 0-.21-.188-.391-.418zm-17.57 1.888c-.13-.412.033-.966.411-1.388.39-.436.813-1.488.813-2.02 0-.382-.223-.824-.84-1.672-.434-.597.283-1.177.97-.784.828.474 1.306 2.8.768 3.742-.128.224-.236.57-.239.769-.006.393-1.2 1.68-1.559 1.68-.121 0-.268-.147-.325-.327zm34.53-5.197c0-.075.218-.35.485-.612s.603-.826.748-1.252c.144-.427.327-.776.406-.776.223 0 .646-1.604.646-2.446 0-.415-.088-.842-.195-.95-.256-.256-.863-.251-1.072.008-.419.518-1.177 2.805-1.412 4.256-.323 1.99-.326 1.908.067 1.908.18 0 .326-.061.326-.136zm-22.92 12.55c.19-.002.712-.3 1.16-.666.762-.619.834-.743 1.078-1.853.374-1.7.029-2.979-1.035-3.834-.8-.643-1.857-.693-2.895-.138-.963.515-2.417 2.372-2.56 3.268-.06.38-.295.96-.524 1.29-.565.82-.461 1.124.513 1.509.786.31 2.917.596 3.59.482.18-.03.482-.057.672-.058zm-8.514 13.72c-.27.269-.95.666-1.12.221-.181-.471-.103-1.944.15-2.849.31-1.102.947-4.088 1.379-6.459.302-1.656.55-2.777.97-4.393.256-.986.226-2.041-.057-2.041-.13 0-.627.386-1.105.857-1.133 1.116-1.43 1.337-2.097 1.57-.305.106-.74.37-.968.586-.802.763-3.399 1.462-4.536 1.221-2.376-.504-3.942-1.356-4.813-2.617-.74-1.072-1.004-1.94-.866-2.853.108-.718 1.307-3.336 1.529-3.336.07 0 .512-.376.982-.836l.854-.836 1.479-.007c.813-.004 1.527.063 1.586.15.059.086.346.324.638.528.58.404.72 1.057.266 1.23-.146.056-.655-.083-1.133-.309-1.05-.496-2.075-.531-2.79-.096-.45.275-1.371 1.447-1.973 2.513-.297.525-.26 2.085.06 2.542.515.735 1.457 1.516 2.346 1.945.816.394 1.076.434 2.857.437 2.169.004 1.85.117 4.49-1.583.92-.592 2.332-1.986 3.19-3.148.265-.359.544-.698.62-.754.077-.055.244-.68.372-1.388.128-.707.265-1.435.305-1.615.084-.388 1.03-.995 1.235-.791.077.077.162.673.189 1.324l.049 1.184 1.199-.98c1.385-1.133 1.65-1.232 3.237-1.205 1.086.018 1.223.062 1.878.599 1.528 1.252 2.114 3.437 1.434 5.35-.205.579-.435 1.122-.51 1.207-.075.085-.137.324-.137.53 0 .548.433.483 1.954-.295 1.787-.913 4.072-3.218 5.214-5.259.7-1.252 1.682-3.976 1.823-5.06.08-.61.257-1.44.393-1.842.137-.402.248-.918.248-1.148 0-.407.548-1.025.92-1.035.312-.009.387.653.284 2.525-.07 1.264-.183 1.945-.384 2.3a7.043 7.043 0 00-.486 1.142c-.11.352-.39 1.044-.622 1.538-.506 1.076-.504 1.07-1.261 3.392-.737 2.26-.703 3.033.149 3.39.39.162.689.177 1.167.056l1.295-.325c.359-.09.822-.273 1.029-.408.726-.474 3.994-3.906 4.218-4.43.124-.293.296-.532.38-.532.086 0 .244-.312.353-.693.11-.382.295-.81.414-.951.29-.346.704-1.742.706-2.387.002-.287.065-.56.142-.608.178-.11.613-1.717.757-2.79.06-.449.257-1.367.438-2.04.18-.675.418-1.563.527-1.976C44.461.13 46.77-.72 47.623.726c.397.673.432 1.59.092 2.404-.135.323-.245.742-.245.933 0 .191-.147.534-.327.762-.18.228-.326.555-.326.726 0 .171-.257.693-.571 1.16-.315.466-.572.939-.572 1.05 0 .3-.663 1.401-1.265 2.097-.292.338-.53.733-.53.877 0 .145-.223.534-.496.864-.607.737-1.692 2.886-1.959 3.881-.185.69-.244 2.745-.128 4.408.05.713.038.735-.419.735-.438 0-.497-.08-.85-1.143-.208-.628-.381-1.377-.386-1.664-.004-.286-.074-.562-.156-.613-.226-.14-.644.07-.747.374-.11.328-1.81 1.596-2.844 2.122-1.512.77-2.486 1.03-3.444.92-.813-.092-.942-.163-1.369-.758-.281-.393-.503-.946-.552-1.376-.085-.762-.263-.87-.78-.476-.306.232-.869.63-2.85 2.014-1.323.923-2.341 1.196-4.98 1.33-1.257.065-2.495.06-2.75-.013a2.372 2.372 0 00-.934-.038c-.31.063-.693-.023-1.133-.252-.807-.42-1.257-.44-1.368-.06-.096.331-.359 1.812-.571 3.224-.222 1.48-.862 3.491-1.244 5.247-.3 1.378.175 3.154-.823 4.151z" stroke-width=".163"/></svg>