<svg xmlns="http://www.w3.org/2000/svg" height="28.82" width="54.328"><path d="M12.732 3.474c.296-.412 1.138-.25 1.522.04.433.328.522 1.576.201 2.827-.183.715-.49 1.31-1.042 2.02-.886 1.141-1.039 1.234-1.409.864-.345-.344-.336-.386.233-1.05.265-.312.483-.663.483-.783 0-.119.147-.504.326-.856.442-.865.113-1.528-.024-2.274-.05-.276-.453-.56-.29-.788zm10.78 11.11c.998-.902 1.356-1.712 1.229-2.788-.12-1.024-.429-1.828-1.04-2.712l-.436-.632-.944.086c-1.097.1-2.155.653-2.784 1.455-.232.296-.693.833-1.025 1.192-.707.766-1.543 2.422-1.543 3.057 0 .396.05.436.45.363.246-.044.89.06 1.428.234.655.212 1.48.321 2.49.33l1.51.016.665-.601zm-10.62 14.15c-.219-.135-.146-1.205.32-4.735.088-.673.23-1.812.313-2.531a35.43 35.43 0 01.423-2.612c.15-.718.339-1.894.42-2.612.08-.718.194-1.692.253-2.163.093-.743.07-.857-.173-.857-.29 0-.88.403-1.731 1.184-.27.247-.58.449-.692.449-.111 0-.458.206-.77.458-.9.727-2.313 1.329-3.359 1.434-1.556.155-4.465-.165-5.28-.58-.86-.44-1.893-1.502-2.305-2.373-.34-.718-.414-2.11-.159-3 .161-.561 1.751-2.387 2.4-2.754.196-.112.77-.31 1.273-.442.848-.22.995-.214 1.965.086 1.097.339 1.551.752 1.551 1.412 0 .507-.586.493-1.536-.037-.986-.55-1.587-.516-2.794.16-.867.485-1.065.684-1.363 1.376-.442 1.03-.45 1.963-.022 2.508.18.229.327.481.327.562 0 .201 1.037 1.19 1.248 1.19.094 0 .421.128.727.286.815.419 4.186.408 5.213-.017 2.063-.854 2.88-1.36 4-2.473.94-.935 2.2-2.98 2.2-3.572 0-.47.51-1.544.784-1.649.481-.185.698.367.584 1.485-.118 1.146.006 1.858.32 1.858.238 0 .922-.67.927-.908.004-.178 2.034-1.722 2.523-1.92.182-.073.88-.227 1.55-.342 1.102-.19 1.281-.182 1.89.087.74.328.894.578 1.483 2.412.49 1.525.514 2.906.062 3.647-.18.294-.326.627-.326.739-.002.314 1.325.254 1.8-.081.222-.157.6-.396.84-.53 1.225-.691 2.316-1.73 3.318-3.162.36-.513.735-1.026.836-1.139.1-.113.233-.365.295-.56.062-.195.502-1.004.978-1.797.67-1.118.886-1.643.956-2.332.141-1.405.596-3.948.794-4.44.126-.312.298-.449.566-.449.556 0 .626.498.427 3.023-.155 1.949-.342 2.771-.689 3.018-.288.205-1.142 3.499-1.143 4.408 0 .225-.22.949-.49 1.609-.93 2.285-.653 2.799 1.514 2.799h1.406l1.208-.972c.665-.535 1.495-1.323 1.846-1.752 1.722-2.105 2.81-2.88 4.333-3.089.856-.117 1.432.122 2.173.9.54.567.69.606 1.06.27.48-.434 2.631-1.408 3.458-1.564.683-.13.923-.106 1.422.143 1.268.632 1.6.91 1.968 1.648.433.868.421 1.648-.058 3.763-.312 1.38-.733 1.981-1.189 1.696-.395-.248-.435-.91-.113-1.879.27-.814.41-2.385.266-2.975-.137-.556-1.307-1.25-2.11-1.25-1.447 0-3.494 1.542-4.05 3.049-.159.433-.46 1.022-.67 1.308-.21.286-.382.598-.382.694 0 .096-.057.174-.128.174-.07 0-.213.227-.317.504-.233.616-.68.592-.99-.052-.177-.371-.172-.503.03-.815.131-.204.391-.972.577-1.705.337-1.33.337-1.335.017-2.082-.352-.821-.637-.914-1.802-.584-.518.147-1.959 1.33-1.959 1.609 0 .202-2.469 2.64-3.33 3.289a5.778 5.778 0 01-1.907.91c-.965.257-1.18.262-2.122.056-1.893-.416-2.417-1.525-1.678-3.551.382-1.045.1-1.197-.818-.444-.406.332-.76.663-.788.736-.073.193-2.27 1.967-2.436 1.967-.077 0-.498.22-.936.49-.438.269-.884.49-.99.49-.108 0-.54.157-.962.35-.422.192-1.354.41-2.073.484-.719.074-1.677.206-2.13.293-.993.19-2.177-.142-3.363-.943-.938-.633-1.25-.647-1.365-.062-.05.247-.232.926-.406 1.51a19.539 19.539 0 00-.493 2.286c-.098.673-.32 1.825-.496 2.56-.175.734-.318 1.81-.318 2.389 0 1.022-.259 2.165-.772 3.409-.268.65-.52.832-.86.622z" stroke-width=".163"/></svg>