<svg xmlns="http://www.w3.org/2000/svg" height="12.846" width="19.541"><path d="M8.798 5.27c-.204-.204-.109-.718.277-1.488.572-1.146.654-1.969.267-2.69-.176-.33-.277-.711-.224-.85.138-.358.92-.31 1.427.088.357.281.43.47.43 1.117 0 .968-.345 2.15-.752 2.578-.17.178-.434.556-.587.84-.263.487-.595.648-.838.406zm-5.6 7.397c-.71-.233-2.32-1.425-2.679-1.982-.115-.18-.304-.822-.42-1.428-.264-1.388.02-3.04.619-3.605.209-.196.636-.655.95-1.02 1.112-1.29 3.333-1.819 4.4-1.048.686.496 1.303 1.158 1.31 1.407.019.679-1.05.561-1.757-.193-.97-1.034-3.26.097-4.06 2.004-.339.81-.284 2.206.107 2.703.18.228.327.485.327.571 0 .21 1.073.939 1.878 1.274 1.189.496 4.142-.107 5.224-1.066.18-.159.46-.36.625-.448 1.2-.637 3.99-4.154 4.302-5.423.15-.61.541-1.157.827-1.157.137 0 .496.153.798.34.304.187 1.078.413 1.73.503.647.09 1.308.233 1.468.32.333.177.383.865.112 1.561-.368.944-.638 2.215-.638 3.002 0 .723.074.891.665 1.533.57.62.639.768.484 1.058-.247.461-1.032.445-1.488-.03-.835-.872-1.195-2.916-.736-4.184.365-1.007.334-1.468-.108-1.636-1.921-.727-2.104-.697-2.901.476-.368.541-.815 1.074-.995 1.184-.179.11-.457.495-.618.857-.16.36-.404.765-.54.898-.82.797-2.323 1.956-2.54 1.956-.08 0-.314.179-.52.398-.964 1.026-4.261 1.691-5.827 1.175z" stroke-width=".163"/></svg>