<svg xmlns="http://www.w3.org/2000/svg" height="21.523" width="49.534"><path d="M9.138 12.294c-.188-.49-.097-.766.452-1.373.303-.336.678-.991.833-1.457l.281-.848-.452-.652c-.412-.594-.429-.674-.193-.91.526-.525 1.54.046 1.751.988.149.659-.158 2.068-.555 2.551-.11.135-.395.585-.632 1-.37.647-.769.946-1.28.957-.059.002-.15-.114-.205-.256zm21.51-5.742c.165-.427.447-1.053.627-1.393.24-.455.333-.974.353-1.96.025-1.23 0-1.34-.292-1.34-.502 0-.996 1.615-1.137 3.714-.064.965-.057 1.755.016 1.754.074 0 .269-.35.433-.776zm-27.79 14.55C1.778 20.608.356 19.167.096 18.3c-.242-.81-.008-2.296.49-3.106 1.179-1.918 3.671-3.581 5.122-3.418 1.265.142 2.392 1.3 1.821 1.872-.216.216-.326.196-.97-.182-.867-.508-1.174-.524-2.136-.112-.717.307-.91.44-2.01 1.375-.68.578-.942 1.475-.832 2.857.07.884.158 1.113.601 1.571.293.302.88.652 1.342.802 1.032.333 3.158.345 3.725.02.225-.128.584-.235.798-.239.45-.007 2.347-1.76 2.743-2.536.138-.269.493-.746.79-1.06.55-.582 1.336-1.912 2.045-3.462.28-.612.56-.67 1.33-.278.46.235 1.05.355 1.909.39.684.026 1.365.099 1.514.16.573.235.503 1.08-.266 3.189-.115.314-.26 1.065-.323 1.668-.108 1.03-.09 1.122.298 1.51.358.358.556.413 1.487.413.953 0 1.204-.074 2.236-.659 1.057-.598 2.893-2.29 4.969-4.577 1-1.1 1.469-2.57 1.69-5.295.137-1.664.523-4.112.811-5.143l.411-1.469c.393-1.406.602-1.85 1.055-2.239 1.144-.981 2.282.174 2.295 2.331.002.365-.182 1.136-.41 1.714-.228.579-.48 1.308-.56 1.623-.249.986-.975 2.955-1.377 3.738a8.843 8.843 0 00-.564 1.405c-.098.36-.425 1.035-.726 1.503-.385.596-.61 1.206-.752 2.041a52.406 52.406 0 01-.355 1.876c-.218.995-.185 1.795.099 2.344.209.404.348.482.864.482.535 0 .757-.137 1.71-1.058.602-.582 1.096-1.188 1.096-1.347 0-.159.148-.51.328-.779.18-.269.478-.989.662-1.6.427-1.42.797-1.646 1.846-1.122.851.426 1.814.451 4.085.109 2.244-.338 2.788-.186 3.25.91.404.956.675 1.01 1.443.292.592-.555 2.874-1.61 3.48-1.61.948 0 1.435.221 1.9.864.39.54.474.818.474 1.58 0 .866-.368 2.494-.647 2.861-.068.09-.282.693-.475 1.34-.193.646-.431 1.224-.53 1.284-.097.06-.329-.042-.515-.228l-.338-.338.38-1.192c.208-.656.454-1.358.546-1.562.092-.204.173-.963.179-1.687.009-1.122-.036-1.352-.305-1.55-.4-.292-1.413-.297-2.096-.01-.67.282-3.22 2.737-3.22 3.099 0 .15-.073.273-.163.273-.09 0-.163.108-.163.24 0 .351-.756 1.886-1.206 2.449-.344.43-.42.459-.666.254-.342-.283-.278-.791.299-2.372.462-1.268.56-2.834.22-3.51-.276-.548-.714-.574-2.847-.172-1.165.22-2.05.3-2.55.232-.617-.085-.832-.046-1.103.2-.318.287-.964 1.512-.964 1.827 0 .08-.239.372-.53.647a14.2 14.2 0 00-1.06 1.157c-.76.941-2.135 1.562-3.126 1.414-1.175-.175-1.577-.491-1.789-1.408-.1-.436-.139-1.115-.085-1.508.062-.452.03-.755-.086-.827-.258-.16-.967.385-1.721 1.321-.979 1.215-2.214 2.07-3.848 2.663-.584.212-1.154.456-1.267.543-.575.442-2.485-.294-3.074-1.184-.371-.561-.385-.665-.239-1.811.086-.67.259-1.51.385-1.87.126-.358.28-.928.342-1.265.133-.718-.03-.822-1.555-.995-1.079-.122-1.453.095-2.296 1.335-.285.42-.615.822-.734.894-.118.072-.215.219-.216.326 0 .108-.37.6-.822 1.094-.452.494-.941 1.143-1.086 1.444-.146.3-.382.587-.525.638-.143.05-.572.343-.955.65-1.47 1.18-4.494 1.549-6.228.758z" stroke-width=".163"/></svg>