<svg xmlns="http://www.w3.org/2000/svg" height="19.554" width="43.025"><path d="M9.025 7.502c-.064-.2 0-.479.157-.694l.743-1.012c.366-.499.48-.834.485-1.419.003-.421-.068-.811-.158-.867-.402-.248-.01-1.55.465-1.55.063 0 .315.308.56.685.313.484.444.899.444 1.408 0 1.904-2.267 4.804-2.696 3.45zm9.706 4.238c.488-.216 1.048-.54 1.245-.72.196-.18.622-.51.945-.734.323-.225.59-.473.592-.552.002-.079.259-.425.57-.768.37-.412.685-1.023.918-1.791 1.105-3.64-1.256-7.202-3.77-5.686-.723.436-3.101 2.92-3.101 3.24 0 .132-.107.536-.238.898-1.526 4.223-1.885 5.341-1.885 5.87 0 .61.009.62.53.53.292-.049.825-.026 1.184.052.99.214 2.025.097 3.01-.34zm-15.04 7.629c-.94-.348-2.203-1.22-2.831-1.953-.789-.921-.955-1.591-.815-3.273.106-1.275.176-1.489.783-2.394.367-.546.82-1.072 1.006-1.167.187-.096.493-.314.68-.484.228-.207.698-.343 1.412-.41 1.027-.096 1.112-.075 2.067.505 1.085.66 1.307 1.151.6 1.328-.448.113-1.073-.04-1.073-.263 0-.234-.916-.646-1.437-.646-1.648 0-3.406 3.005-2.81 4.805.105.32.258.582.34.582.08 0 .194.187.25.415.338 1.345 4.639 2.608 5.47 1.607.104-.124.293-.225.42-.225.446 0 1.284-.545 2.218-1.441.516-.496.938-.988.938-1.093 0-.106.22-.516.487-.91.268-.396.489-.83.491-.964.002-.135.12-.465.263-.735.142-.27.499-1.188.792-2.04.293-.854.727-2.035.964-2.626.238-.59.432-1.236.432-1.434 0-.555.437-1.474 1.15-2.417.355-.471.646-.923.646-1.004 0-.08.395-.52.877-.975.481-.456.916-.934.966-1.063.05-.13.436-.428.859-.664.607-.34.988-.43 1.817-.43.582 0 1.245.102 1.49.23.47.244 1.176.98 1.176 1.227 0 .082.058.173.129.203.071.03.29.318.486.64.311.51.359.831.371 2.53.021 2.888-.276 3.61-2.339 5.672-1.076 1.075-1.783 1.635-2.484 1.963-2.406 1.127-2.47 1.19-1.898 1.8.191.203.347.442.347.53 0 .229 1.524 2.547 1.853 2.819.392.324 1.611.151 2.09-.296.211-.198.623-.507.915-.688.292-.181.53-.383.53-.449s.245-.236.543-.378c.298-.143.89-.56 1.316-.929.425-.368.865-.67.978-.67.112 0 .35-.135.528-.3.178-.167 1.055-.78 1.949-1.365.894-.584 1.803-1.256 2.02-1.494.219-.238.478-.432.577-.432.099 0 .421-.22.716-.49s.576-.49.624-.49c.048 0 .292-.202.543-.449.556-.549 1.516-1.33 1.935-1.574a9.711 9.711 0 001.822-1.377c.314-.301.953-.722 1.42-.935.466-.213.921-.524 1.01-.691.09-.167.48-.517.867-.778s.992-.715 1.345-1.01c.622-.517 1.283-.69 1.472-.384.168.272-.211.964-.595 1.084-.207.066-.744.45-1.193.853-.449.404-1.126.867-1.505 1.03-.379.163-1.003.584-1.388.935-.384.352-.919.762-1.189.911-1.11.617-2.105 1.341-2.586 1.885-.675.763-1.497 1.477-1.7 1.478-.114 0-.334.154-.49.341-.431.516-2.15 1.794-2.751 2.045-.293.122-.63.362-.75.533-.12.171-.571.508-1.002.75-.432.24-.908.543-1.058.673-.15.13-.899.699-1.662 1.265-.764.566-1.626 1.248-1.918 1.515-.652.596-2.443 1.532-2.932 1.532-.82 0-2.334-1.068-2.334-1.645 0-.15-.11-.366-.245-.478-.135-.112-.245-.295-.245-.407 0-.289-1.132-1.857-1.701-2.358-.262-.23-.796-.743-1.187-1.138l-.71-.72-.382.358c-.21.197-.474.667-.587 1.044-.113.378-.38.908-.594 1.178-1.692 2.142-2.194 2.696-2.44 2.696-.122 0-.426.194-.678.431-.848.8-2.12 1.272-3.559 1.321-.812.028-1.535-.04-1.91-.178z" stroke-width=".163"/></svg>