<svg xmlns="http://www.w3.org/2000/svg" height="20.236" width="25.083"><path d="M9.11 8.517c0-.165.377-.656.838-1.093 1.281-1.213 1.61-2.36.976-3.405-.368-.606-.215-1.244.297-1.244.37 0 .952.553 1.17 1.113.245.628.167 1.725-.173 2.429-.177.366-.699 1.077-1.16 1.582-.703.77-.927.917-1.392.917-.43 0-.555-.068-.555-.3zm9.353 3.84c1.561-.411 4.254-2.829 4.815-4.324.657-1.749.645-3.454-.035-5.015-.364-.836-.55-1.05-1.246-1.442-.675-.38-.933-.44-1.468-.35-.357.06-.743.203-.858.318-.115.115-.37.26-.568.323-.418.132-1.164 1.056-1.445 1.789-.84 2.189-1.082 2.876-1.216 3.446-.085.359-.218.8-.297.98-.08.179-.237.583-.35.897a27.502 27.502 0 01-.68 1.605c-.607 1.327-.559 1.654.281 1.921.768.244 1.757.196 3.068-.15zm-14.17 7.784c-1.53-.235-2.292-.58-3.063-1.388C.153 17.624-.084 17.005.023 15.592c.149-1.974.56-2.862 2.067-4.472.657-.701 1.62-.935 2.83-.687 1.734.357 2.734 1.164 2.471 1.994-.126.397-.216.389-1.084-.096-1.142-.638-2.086-.918-2.702-.803-.805.151-1.647 1.015-1.833 1.88a22.685 22.685 0 01-.358 1.404c-.179.604-.163.819.123 1.714.221.691.446 1.083.692 1.206.2.1.531.339.736.531.503.473 2.024.736 3.534.611.965-.08 1.39-.204 2.01-.59.433-.268.85-.488.927-.488.153 0 1.308-1.299 1.308-1.471 0-.058.372-.504.826-.991.93-.997 1.845-2.776 2.716-5.284.314-.903.746-2.014.96-2.469.215-.455.53-1.386.701-2.07.404-1.615 1.311-3.496 2.007-4.161C18.613.722 20.301 0 21.112 0c1.296 0 2.511.973 3.362 2.693.842 1.701.805 4.543-.073 5.698a8.645 8.645 0 00-.665 1.051c-.335.65-2.67 2.966-2.991 2.966-.124 0-.496.217-.828.482-.331.264-.925.553-1.32.64-1.06.236-1.197.55-.67 1.533.18.335.327.72.327.855 0 .377.682 1.69 1.424 2.738.433.614.637 1.055.582 1.265-.104.397-.644.424-1.055.052a3.724 3.724 0 00-.64-.45c-.187-.097-.435-.36-.551-.585-.382-.741-.864-1.868-1.052-2.463a4.7 4.7 0 00-.59-1.134c-.222-.302-.404-.637-.404-.747 0-.217-1.254-.88-1.664-.88-.228 0-.555.428-1.885 2.47-.684 1.05-2.93 3.062-3.896 3.49-.905.4-3.09.641-4.229.467z" stroke-width=".163"/></svg>