<svg xmlns="http://www.w3.org/2000/svg" height="34.889" width="42.777"><path d="M7.018 8.198c0-.234.195-.656.433-.939.903-1.07 1.095-2.11.537-2.895-.186-.26-.291-.547-.236-.637.184-.298.875-.171 1.32.242.378.35.428.502.36 1.102-.1.877-.77 2.737-.988 2.737-.09 0-.334.183-.542.408-.5.54-.884.532-.884-.017zm24.81 6.121c-.253-.473-.175-.788.214-.868.202-.041 2.7-.108 5.551-.148l5.184-.074v.4c0 .735-.601.827-5.928.905-4.52.067-4.878.052-5.02-.215zm-3.134-4.594c.42-.45 1.511-2.523 1.511-2.869 0-.274.593-2.197.842-2.728.085-.182.132-.843.105-1.469-.044-1.023-.084-1.143-.4-1.188-.481-.068-.873.537-.875 1.352-.002.362-.119 1.025-.262 1.474-.31.973-.852 3.282-1.024 4.371-.068.429-.21.866-.316.972-.105.105-.192.25-.192.322 0 .238.265.136.612-.236zm-4.166 23.92c.222-.251.456-.726 1.353-2.735.662-1.482.815-2.43.815-5.065 0-2.22-.047-2.72-.31-3.306-.172-.38-.404-.69-.518-.69-.253 0-.638 1.13-.955 2.802-.13.688-.43 1.79-.666 2.45-.876 2.446-1.027 3.023-1.126 4.312-.13 1.676-.01 2.315.45 2.405.642.126.706.114.958-.173zm-1.857 1.018c-.527-.286-.794-.999-.788-2.103.004-.755.167-1.464.901-3.935.134-.449.308-1.22.388-1.714.08-.494.226-1.105.324-1.358.098-.253.179-.707.179-1.01 0-.304.063-.591.141-.64.078-.048.191-.392.25-.765.06-.372.247-1.09.416-1.595.169-.504.423-1.763.564-2.796.142-1.033.304-2.08.36-2.327.126-.55-.23-.608-.89-.143a3.682 3.682 0 01-.836.43c-.222.069-.897.454-1.502.856-1.016.676-1.177.73-2.128.725-1.373-.008-1.803-.2-2.402-1.071-.629-.914-.63-1.32-.015-3.205.27-.825.49-1.732.49-2.017 0-.496-.048-.534-1.102-.874l-1.102-.356-.326.425c-1.082 1.41-1.391 1.878-1.485 2.254-.173.687-3.253 3.683-4.556 4.43-1.832 1.051-4.701 1.35-6.305.656-.792-.343-1.745-1.34-2.681-2.802-.51-.797-.566-1-.566-2.043 0-1.312.205-1.825 1.167-2.921.346-.395.63-.783.63-.864 0-.081.458-.365 1.02-.63 1.045-.495 2.442-.66 2.656-.313.058.093.386.282.73.42.637.255.918.753.718 1.274-.142.37-.583.318-1.27-.148-.33-.224-.762-.447-.962-.497-1.247-.31-3.408 1.681-3.439 3.168-.018.849.808 2.887 1.334 3.293 1.769 1.367 1.608 1.298 3.041 1.298 1.345 0 2.695-.319 3.203-.757.142-.122.346-.222.455-.222.336 0 1.01-.518 2.046-1.573 1.509-1.536 2.205-2.481 3.038-4.126 1.1-2.171 1.084-2.161 2.344-1.521.648.33 1.277.526 1.682.526.355 0 .781.099.947.22.449.328.263 1.92-.387 3.308-.595 1.273-.663 2.28-.193 2.862.277.342.448.385 1.51.385 1.355 0 1.97-.237 2.996-1.154.358-.32.85-.656 1.093-.748.244-.091.482-.289.53-.438.049-.15.34-.546.647-.88.553-.6.721-1.036 1.433-3.72.688-2.59.983-3.874 1.128-4.898l.286-2.04c.191-1.367.548-2.072 1.321-2.607.594-.411.737-.444 1.351-.314 1.042.22 1.477.955 1.392 2.35-.097 1.593-.627 3.546-1.446 5.324-.17.369-.308.743-.308.832 0 .09-.22.466-.49.838-.27.372-.49.737-.49.812 0 .075-.257.498-.571.94-.315.442-.572.884-.572.983 0 .098-.155.32-.344.49a9.48 9.48 0 00-.824.916c-.445.561-.496.769-.694 2.863l-.214 2.258.526 2.035c.289 1.119.662 2.527.829 3.129.26.938.275 1.201.104 1.839-.11.41-.199 1.103-.199 1.542 0 .439-.15 1.3-.331 1.916l-.596 2.017c-.145.494-.4 1.093-.566 1.331-.167.238-.303.497-.303.575 0 .31-1.069 1.413-1.574 1.624-.676.283-1.164.276-1.714-.023z" stroke-width=".163"/></svg>