<svg xmlns="http://www.w3.org/2000/svg" viewBox="0 0 25.229 17.2" height="17.2" width="25.23"><path d="M9.05 4.88c-.075-.235.012-.51.272-.858.493-.662.543-2.246.092-2.935C9.1.61 9.169 0 9.534 0c.116 0 .399.147.627.326.228.18.487.327.576.327.25 0 .359.436.359 1.443 0 1.308-.229 1.955-.914 2.582-.691.632-.98.684-1.132.2zm-5.658 8.503C2.512 13.08.956 12.165.836 11.88c-.03-.073-.164-.24-.297-.374-.308-.308-.547-1.14-.539-1.874.008-.678.607-2.416 1.021-2.962.161-.212.345-.463.408-.557.294-.435 1.872-1.38 2.306-1.38a.71.71 0 00.44-.164c.183-.183 1.86.244 1.86.475 0 .074.193.327.428.562.663.663.138 1.307-.578.707-.142-.118-.556-.31-.92-.424-.559-.175-.798-.167-1.535.052-.495.147-.985.416-1.134.622-1.038 1.445-1.37 2.94-.882 3.964.162.34.435.623.654.678.206.052.375.147.375.212s.386.295.857.513c.472.217.882.45.912.517.087.196 1.687.128 2.318-.098.545-.195 3.097-2.156 3.097-2.38 0-.057.324-.448.72-.867.869-.92 2.692-4.112 2.704-4.733.008-.44.759-.544 1.45-.2.415.206 1.099.317 2.255.366l1.659.071.104.556c.142.755-.041 2.366-.417 3.671-.42 1.458-.403 1.704.203 2.851.637 1.205.57 1.634-.23 1.474-.7-.14-1.252-.716-1.437-1.5-.19-.804-.02-3.236.276-3.964.123-.303.224-.795.224-1.095 0-.61-.018-.616-2.149-.798-1.034-.089-1.105-.072-1.429.34-.187.238-.34.517-.34.619 0 .102-.208.44-.461.753-.253.312-.697.986-.987 1.498-.48.849-.942 1.312-3.654 3.662-.246.213-.513.388-.594.388-.08 0-.467.145-.859.323-.905.41-2.078.41-3.273 0zm12.44 3.76c-.48-.114-.56-.333-.266-.735.197-.269.528-.33 2.33-.428 1.154-.063 2.65-.19 3.323-.282 2.69-.366 3.533-.387 3.824-.096.239.238.244.315.042.62-.204.307-.442.362-2.007.459-.978.06-2.181.187-2.675.282-1.032.197-4.001.314-4.571.18z" stroke-width=".163"/></svg>