<svg xmlns="http://www.w3.org/2000/svg" height="34.063" width="43.894"><path d="M8.55 9.512c-.21-.21-.107-.66.217-.953.18-.162.327-.397.327-.52 0-.237.42-.96.773-1.329.315-.33.249-1.31-.12-1.78-.18-.229-.327-.587-.327-.796 0-.49.531-.795.973-.559.383.205.989 1.506.98 2.106-.002.236-.11.612-.239.837-.128.224-.235.58-.239.791-.004.253-.35.712-1.015 1.347-1.024.977-1.136 1.05-1.33.855zm31.94-2.597c.249-.232.57-.711.711-1.066.142-.355.381-.711.531-.792.15-.08.369-.519.485-.975.117-.455.273-.828.347-.828.073 0 .184-.297.245-.659.142-.844-.094-1.137-.917-1.137-.572 0-.654.056-.88.597-.138.328-.36 1.081-.497 1.673-.135.592-.365 1.331-.51 1.641-.146.31-.301.88-.344 1.265-.095.838.14.917.828.28zM28.06 9.989c.226-.247.617-.853.869-1.347s.62-1.118.819-1.388c.198-.27.414-.637.48-.817.2-.553.577-3.06.576-3.837-.002-.91-.417-1.524-.98-1.444-.515.074-1.136 1.015-1.136 1.722 0 .306-.066.865-.146 1.241-.88 4.116-.983 4.521-1.145 4.521-.233 0-.37 1.32-.163 1.57.262.314.356.29.826-.223zm-5.714 22.23c.39-.325.824-.821.963-1.102.14-.282.375-.696.524-.922.51-.774 1.21-2.693 1.319-3.617.06-.508.264-1.574.454-2.367.298-1.238.334-1.754.256-3.646-.05-1.212-.14-2.333-.2-2.49-.168-.435-.547-.34-.654.164-.053.247-.244.853-.426 1.347-.48 1.303-1.278 4.108-1.28 4.496 0 .183-.148.62-.328.973-.18.352-.326.738-.326.858 0 .119-.15.418-.331.664-.182.246-.623 1.312-.98 2.369-.607 1.798-.788 2.985-.55 3.607.165.43.81.292 1.56-.333zm-2.168 1.533c-.89-.77-.948-2.501-.14-4.174.178-.37.324-.821.324-1.005 0-.184.066-.335.148-.335.081 0 .26-.312.396-.694l.599-1.673c.192-.538.413-1.127.49-1.306a6.5 6.5 0 00.252-.734c.06-.225.206-.629.323-.898.33-.762.698-2.035.873-3.02.088-.494.349-1.421.58-2.061.387-1.071.56-2.348.319-2.348-.146 0-2.484 1.187-3.163 1.606-.742.457-2.94.503-3.826.08-.98-.467-1.288-1.521-.838-2.864.356-1.061.5-2.69.263-2.976-.11-.131-.54-.288-.96-.35-.42-.06-.971-.216-1.226-.346-.413-.21-.497-.206-.764.036-.165.15-.418.504-.561.788-.144.283-.324.626-.401.76-.077.135-.235.45-.352.7-.117.25-.681.947-1.254 1.55a81.619 81.619 0 00-1.153 1.23c-.43.504-2.226 1.625-2.97 1.852-1.331.407-2.945.471-3.908.156-.443-.145-.872-.263-.954-.263-.082 0-.575-.423-1.096-.939-1.066-1.056-1.31-1.757-1.12-3.217.176-1.352 2.084-3.68 3.016-3.68.135 0 .388-.109.563-.24.405-.308 1.753-.319 2.325-.02.664.347 1.377 1.166 1.31 1.509-.089.467-.731.46-1.293-.013-.415-.35-.665-.42-1.477-.42-1.258 0-2.197.498-2.613 1.388-.085.18-.26.51-.389.734-.299.518-.305 1.487-.015 2.182.25.597 1.368 1.57 2.17 1.886.943.374 2.933.013 4.88-.885.628-.29 2.205-1.933 2.67-2.783.195-.355.53-.888.745-1.186.216-.297.518-.921.672-1.388.579-1.754.98-1.937 2.258-1.029.61.434 1.007.579 1.826.667 1.513.162 1.63.505 1.229 3.573-.116.885-.17 1.778-.118 1.984.11.438.824.732 1.775.732.72 0 1.913-.31 1.913-.497 0-.066.248-.166.55-.223.324-.06 1.061-.516 1.796-1.11 1.044-.845 1.3-1.15 1.573-1.88.18-.48.328-.998.33-1.153.001-.153.15-.83.33-1.504.596-2.215.663-2.512.81-3.588.23-1.677 1.042-4.416 1.573-5.307C28.986.19 29.626-.15 30.352.06c.993.288 1.934 2.432 1.564 3.565-.227.696-.507 1.326-.633 1.428-.056.045-.179.486-.274.98-.221 1.153-.69 2.485-.95 2.694-.332.27-1.326 1.646-1.434 1.987-.056.175-.453.68-.884 1.124-.43.444-.883 1.064-1.006 1.378-.123.314-.29.66-.373.768-.082.108-.252.538-.377.955-.28.927-.13 1.281.652 1.539.484.16.706.13 1.593-.214a39.51 39.51 0 011.54-.565c.282-.091.67-.302.862-.467.44-.377 1.313-.9 2.424-1.451.472-.234.858-.49.858-.569 0-.079.337-.375.748-.659 1.137-.782 2.843-2.617 2.843-3.057 0-.206.144-.655.319-.998.376-.737 1.296-3.696 1.483-4.769.259-1.487.547-2.153 1.204-2.784.585-.563.739-.627 1.5-.627.766 0 .897.056 1.355.577.526.6.682 1.531.362 2.16-.08.156-.466.934-.857 1.73-.392.794-.952 1.7-1.243 2.011-.292.312-.532.653-.533.76-.002.105-.625.844-1.388 1.642-.762.798-1.386 1.541-1.386 1.653 0 .112-.108.511-.241.888-.258.73-.9 4.366-.9 5.101 0 .242.072.485.162.54.248.154.195.996-.078 1.223-.194.16-.346.139-.776-.112-.753-.44-.919-1.41-.55-3.212.15-.73.289-1.621.308-1.98.03-.555-.018-.66-.312-.703-.24-.034-.525.158-.919.618-.68.794-3.452 2.615-3.98 2.615-.204 0-.43.104-.501.231-.166.293-2.244 1.402-2.627 1.402-.159 0-.462.122-.675.271-.383.269-.386.29-.288 2.465.098 2.172-.1 4.136-.565 5.572-.098.304-.273.965-.388 1.47-.403 1.77-1.65 4.59-2.03 4.59-.08 0-.303.258-.498.573-.437.707-1.625 1.546-2.33 1.644-.385.054-.641-.026-.955-.297z" stroke-width=".163"/></svg>