<svg xmlns="http://www.w3.org/2000/svg" height="15.558" width="18.057"><path d="M8.56 5.549c-.172-.32.216-1.243.8-1.902.778-.88.796-1.615.057-2.392C8.97.785 8.961.352 9.393.08c.435-.274 1.079.179 1.458 1.026.459 1.024.353 2.014-.32 2.992-.283.413-.516.823-.516.912 0 .15-.982.84-1.197.84-.053 0-.17-.135-.259-.301zm-4.83 9.923c-1.168-.266-2.37-1.104-2.875-2-.782-1.394-.873-1.678-.852-2.66.02-.915.346-1.913.67-2.048.072-.03.24-.34.37-.687.194-.516.433-.74 1.3-1.221.892-.496 1.22-.59 2.07-.593 1.173-.005 1.896.402 1.981 1.114.06.498-.25.573-.833.204-1.1-.696-2.326-.429-3.365.734-1.188 1.328-1.408 3.027-.525 4.044.17.196.393.56.496.808.323.779 1.161 1.093 2.872 1.078 1.661-.015 2.77-.399 3.244-1.123.14-.212.586-.625.993-.918.407-.292.74-.626.74-.741 0-.116.262-.416.582-.667.539-.423 1-1.193 1.299-2.163.216-.707 1.227-2.423 1.486-2.522.14-.053.563.12.961.394.536.368.896.489 1.457.489.529 0 .842.095 1.073.327.383.382.357.194.386 2.776.019 1.662.077 2.12.314 2.47.16.235.357.658.437.939.183.636-.197.93-.802.621-.68-.348-1.166-1.556-1.202-2.994-.017-.705.023-1.538.089-1.852.164-.783.003-.96-1.114-1.227-1.528-.365-1.538-.36-2.352.937-.405.644-.816 1.358-.914 1.588-.099.23-.3.518-.45.641-.148.123-.27.328-.27.454 0 .318-1.866 2.1-2.856 2.728-1.461.925-3.2 1.348-4.408 1.073z" stroke-width=".163"/></svg>