<svg xmlns="http://www.w3.org/2000/svg" height="28.226" width="47.154"><path d="M8.538 10.275c-.212-.396-.051-.745.841-1.819.526-.633.647-.92.733-1.74.087-.834.049-1.07-.248-1.55-.579-.937-.124-1.467.785-.914 1.512.92 1.154 3.462-.775 5.493-.896.943-1.076 1.015-1.336.53zm19.25-1.714c.231-.628.467-1.216.525-1.306.836-1.306 1.266-2.716 1.398-4.583.085-1.21.063-1.38-.192-1.479-.981-.376-1.646.814-1.807 3.235-.055.836-.163 1.667-.24 1.847-.123.288-.653 3.05-.652 3.4 0 .074.123.111.274.082.171-.033.43-.481.694-1.196zm11.31 10.66c1.04-.311 1.94-1.42 3.134-3.864 1.015-2.075.998-2.576-.099-2.969-1.21-.432-3.8.5-4.777 1.72-.707.884-1.398 2.511-1.398 3.295 0 .513.11.748.546 1.171.809.784 1.534.965 2.593.648zm-35.96 1.23c-.733-.24-2.003-.963-2.086-1.187-.052-.142-.267-.521-.478-.843-.632-.967-.706-1.476-.397-2.714.473-1.894.995-2.695 2.593-3.978.634-.509 1.785-.833 2.654-.747.804.08.971.166 1.604.835.751.795.796 1.037.228 1.247-.265.099-.475.03-.831-.27-.539-.453-1.356-.522-2.566-.217-.539.135-.905.381-1.4.939-.842.948-1.075 1.496-1.214 2.852-.11 1.072-.108 1.08.427 1.532.295.249.764.664 1.042.92.492.457.541.467 1.91.39 1.149-.064 1.597-.173 2.456-.596 1.106-.544 4.339-3.128 4.625-3.696.092-.182.332-.509.534-.724.202-.216.368-.483.368-.594 0-.111.172-.41.383-.663.211-.254.43-.654.488-.89.057-.236.24-.596.405-.8.348-.43.964-.366 1.454.15.202.21.73.366 1.725.505.84.117 1.54.305 1.687.453.338.337.19 1.15-.433 2.388-.266.529-.484 1.029-.484 1.11 0 .083-.156.493-.347.912-.742 1.629-.399 2.08 1.579 2.072 1.222-.005 1.41-.046 1.626-.355.134-.191.46-.396.723-.453.3-.066.705-.39 1.088-.87.335-.421.704-.845.82-.941.116-.097.282-.465.37-.817.087-.352.553-1.779 1.035-3.17.483-1.393.97-2.972 1.083-3.51.114-.54.28-1.218.37-1.509.09-.29.227-1.15.305-1.91.237-2.297.911-4.275 1.676-4.918.63-.529 1.296-.511 1.923.051 1.111.996 1.05 3.351-.14 5.463-.189.333-.463 1.031-.61 1.551-.146.52-.54 1.35-.874 1.843-.34.503-.696 1.292-.807 1.794-.19.853-.652 1.692-2.252 4.086-.745 1.114-.92 1.966-.507 2.471.527.645 1.421.956 2.75.956 1.89 0 3.05-.432 4.212-1.567 1.414-1.383 2.614-2.464 3.753-3.386 1.113-.9 3.097-2.211 3.367-2.224.09-.004.384-.125.653-.267.403-.213.803-.24 2.243-.149 1.362.086 1.8.062 1.965-.107.195-.2.383-.779 1.052-3.238.135-.494.337-1.155.45-1.469.113-.314.254-.84.314-1.167.131-.727.456-1.024.977-.893.505.127.632.479.44 1.22-.375 1.456-.82 3.427-.914 4.055-.057.376-.208.771-.335.877-.144.12-.232.503-.232 1.011 0 .535-.114 1.002-.33 1.351-.309.5-.78 1.72-1.164 3.016-.283.952-.429 2.473-.34 3.542.083 1 .078 1.013-.375 1.127-.554.14-.96-.277-1.224-1.256-.094-.35-.212-.638-.261-.638-.05 0-.467.33-.928.734-1.165 1.019-1.778 1.276-2.994 1.255-.768-.013-1.228-.127-1.864-.46-1.037-.542-1.295-1.074-1.295-2.676v-1.158l-.598.05c-.502.043-.647.148-.911.658-.173.334-.584.768-.913.965-.33.196-.82.554-1.089.794-.838.748-2.192 1.145-3.892 1.14-1.737-.004-2.623-.314-3.196-1.12-.283-.397-.483-.509-.913-.509-.342 0-.633.112-.765.293-.22.302-1.495 1.114-2.303 1.467-.251.11-.986.2-1.633.2-1.4 0-2.13-.36-2.492-1.223-.334-.8-.303-1.007.337-2.278.314-.623.571-1.325.571-1.559 0-.234.08-.505.176-.602.242-.242.123-1.054-.176-1.202-.135-.066-.672-.244-1.194-.395-.877-.253-.98-.254-1.353-.01-.222.145-.53.536-.683.869-.154.332-.513.861-.798 1.176-.285.314-.784.92-1.109 1.346-.325.426-.826.895-1.114 1.042-.58.295-.604.315-1.993 1.579-.61.556-1.195.937-1.55 1.012-.315.066-.645.174-.735.24-.489.362-2.661.614-3.347.389zm25.18 7.671c-.381-.153-.228-.994.268-1.475.567-.548 1.401-2.04 1.565-2.799.1-.457.036-.66-.388-1.25-.278-.388-.506-.776-.506-.862 0-.227.957-.385 1.281-.212.151.08.418.305.593.499.702.775.102 3.443-1.047 4.658-.255.27-.51.644-.566.832-.08.266-.777.778-.962.706l-.237-.095z" stroke-width=".163"/></svg>