<svg xmlns="http://www.w3.org/2000/svg" height="18.368" width="33.293"><path d="M8.19 5.578c-.349-.22-.165-1.047.282-1.268.633-.314 1.323-1.574 1.323-2.415 0-.399-.073-.77-.163-.826-.09-.056-.163-.317-.163-.581 0-.573.408-.643 1.158-.2.404.238.478.389.499 1.02.06 1.82-.085 2.16-1.477 3.475-1.041.982-1.107 1.019-1.458.796zm18.78 2.73c.774-.914 1.056-2.097.5-2.097-.377 0-.646.289-1.244 1.335-.503.882-.585 1.657-.168 1.575.148-.029.558-.395.912-.812zM3.59 15.24c-1.121-.361-1.419-.54-2.261-1.346C.53 13.127-.004 11.964 0 10.997c.002-.6.368-1.959.7-2.6.431-.834 1.966-2.3 2.54-2.426a5.325 5.325 0 001.02-.364c.736-.368 1.914-.211 2.653.352.505.385.595.55.595 1.087 0 .511-.06.634-.306.634a.775.775 0 01-.52-.256c-.598-.721-2.023-.942-2.978-.46C3.055 7.29 2.12 8.161 2.12 8.44c0 .115-.159.486-.353.825-.485.849-.472 1.921.037 2.908.22.427.546.856.725.952.179.097.615.354.968.57.59.363.755.387 2.04.297 2.017-.14 2.972-.583 4.304-1.994 1.963-2.08 3.386-4.128 3.794-5.462.14-.46.524-.804.906-.811.142-.003.591.215.999.485.407.27 1.09.556 1.518.636.427.08.84.245.917.366.242.382.158 1.27-.181 1.936-.18.352-.327.772-.328.933 0 .16-.111.504-.246.762-.344.66-.473 1.63-.267 2.015.54 1.008 3.672.809 5.483-.35.488-.312.967-.714 1.063-.894.097-.18.349-1.061.56-1.957.398-1.68.557-1.972 1.899-3.484.815-.92 1.93-1.516 2.545-1.362.374.094.393.161.393 1.389 0 1.166-.043 1.343-.447 1.834-.615.745-2.43 2.893-2.912 3.444-.39.445-.505 1.018-.27 1.353.065.094.395.378.732.631.646.486.77.902.37 1.236-.383.317-1.016.06-1.813-.738-.883-.884-1.252-.918-2.8-.262-2.018.854-2.707 1.027-3.654.916-1.289-.15-1.644-.34-2.16-1.154-.514-.807-.517-1.062-.027-2.76.756-2.619.733-2.782-.398-2.938-.825-.113-1.475.086-1.479.454-.002.216-1.448 2.115-2.363 3.104-.315.34-.574.713-.574.826 0 .248-.842 1.084-1.092 1.084-.096 0-.386.208-.644.462-.773.763-1.964 1.352-2.932 1.452-.49.05-.931.155-.979.232-.125.202-1.012.136-1.863-.138zm20.22 3.09c-.35-.07-.518-.508-.297-.773.094-.114.664-.243 1.268-.287.603-.045 1.685-.16 2.403-.259a224 224 0 015.2-.62c.861-.095.95-.077.898.188-.124.628-.805.899-2.673 1.062-.987.086-2.197.234-2.691.33-1.633.314-3.514.48-4.11.359z" stroke-width=".163"/></svg>