<svg xmlns="http://www.w3.org/2000/svg" height="13.84" width="26.907"><path d="M7.289 5.438c-.24-.24-.072-.527.869-1.473.955-.961.98-1.007.98-1.87 0-.544-.1-1.027-.26-1.255-.326-.465-.192-.847.295-.84.78.011 1.27.732 1.27 1.87 0 .825-.372 1.717-.717 1.717-.12 0-.342.325-.494.722-.152.397-.364.791-.471.877-.263.208-1.334.392-1.472.253zm17.42 3.166c.474-.347 1.323-1.989 1.163-2.249-.332-.536-1.447.537-1.643 1.58-.057.302-.169.55-.248.55-.08 0-.145.073-.145.163 0 .23.536.203.873-.044zm-21.12 5.035c-1.001-.265-1.328-.42-1.736-.816a7.333 7.333 0 00-.793-.645C.49 11.785.005 10.716 0 9.84c-.005-.972.297-2.254.62-2.63.15-.176.495-.6.764-.94 1.6-2.026 2.645-2.274 4.525-1.076.963.613 1.068.796.776 1.343-.24.45-.448.396-1.062-.274-.928-1.013-2.288-.997-3.147.037-1.008 1.214-1.218 1.716-1.237 2.947-.017 1.052.03 1.238.471 1.857.27.378.82.867 1.224 1.086.656.355.893.392 2.204.34 1.26-.051 1.586-.127 2.286-.53.817-.472 2.761-2.332 3.837-3.67.315-.392.7-.847.856-1.012.156-.164.448-.649.648-1.076.2-.427.513-.903.695-1.057.368-.31.832-.375.98-.135.053.085.568.387 1.143.67.576.284 1.17.65 1.318.815.252.278.252.359-.003 1.166a16.731 16.731 0 01-.798 2.138c-.4.922-.352 1.94.11 2.374.62.582 2.075.498 3.572-.207.656-.309 1.31-.658 1.451-.775.251-.208 1.782-3.006 1.782-3.256 0-.069.247-.535.55-1.036.687-1.141 2.21-2.164 2.88-1.933.371.128.411.234.45 1.199.04.983.005 1.103-.49 1.703-1.791 2.17-2.241 2.645-2.784 2.93-.68.36-.71.48-.347 1.389.142.354.233.815.203 1.024-.076.531-.715.432-1.382-.215-.585-.567-.844-.57-3.16-.046-1.327.3-2.29.361-2.95.188-.765-.201-1.459-1.031-1.459-1.745 0-.486.57-2.04.943-2.575.564-.807.592-1.306.098-1.763-.24-.223-.725-.491-1.076-.597-.629-.188-.648-.18-1.2.44-.308.346-.56.695-.56.776 0 .246-1.127 1.605-2.352 2.837a71.464 71.464 0 00-1.449 1.488c-.385.427-2.469 1.45-3.387 1.66-.867.2-.999.196-1.955-.057z" stroke-width=".163"/></svg>